<!-- Created with Inkscape (http://www.inkscape.org/) -->
<svg xmlns:dc="http://purl.org/dc/elements/1.1/" xmlns:cc="http://creativecommons.org/ns#" xmlns:rdf="http://www.w3.org/1999/02/22-rdf-syntax-ns#" xmlns:svg="http://www.w3.org/2000/svg" xmlns="http://www.w3.org/2000/svg" xmlns:xlink="http://www.w3.org/1999/xlink" xmlns:sodipodi="http://sodipodi.sourceforge.net/DTD/sodipodi-0.dtd" xmlns:inkscape="http://www.inkscape.org/namespaces/inkscape" width="64px" height="64px" id="svg23322" version="1.1" inkscape:version="0.48.4 r9939" sodipodi:docname="folder-music.svg">
  <defs id="defs23324">
    <linearGradient inkscape:collect="always" xlink:href="#linearGradient8272-8-8" id="linearGradient5640" gradientUnits="userSpaceOnUse" gradientTransform="matrix(1.3210282,0,0,1.2679796,-70.730769,0.1738125)" x1="97.538795" y1="16.962049" x2="97.538795" y2="44.260689"/>
    <linearGradient id="linearGradient8272-8-8">
      <stop offset="0" style="stop-color:#ffffff;stop-opacity:1" id="stop8274-4"/>
      <stop offset="0.0221225" style="stop-color:#ffffff;stop-opacity:0.23529412" id="stop8276-5"/>
      <stop offset="0.97909725" style="stop-color:#ffffff;stop-opacity:0.15686275" id="stop8278-0"/>
      <stop offset="1" style="stop-color:#ffffff;stop-opacity:0.39215687" id="stop8280-5-9"/>
    </linearGradient>
    <linearGradient inkscape:collect="always" xlink:href="#linearGradient6129-963-697-142-998-580-273-9" id="linearGradient5646" gradientUnits="userSpaceOnUse" gradientTransform="matrix(1.5432898,0,0,1.3103449,-5.0391796,0.3448325)" x1="22.934725" y1="49.629246" x2="22.809399" y2="36.657963"/>
    <linearGradient id="linearGradient6129-963-697-142-998-580-273-9">
      <stop id="stop2661-3" style="stop-color:#0a0a0a;stop-opacity:0.498" offset="0"/>
      <stop id="stop2663-33" style="stop-color:#0a0a0a;stop-opacity:0" offset="1"/>
    </linearGradient>
    <linearGradient inkscape:collect="always" xlink:href="#linearGradient4632-0-6-4-4-4" id="linearGradient5654" gradientUnits="userSpaceOnUse" gradientTransform="matrix(0.50413225,0,0,0.49333391,73.842751,-1.4532879)" x1="-91" y1="43.999817" x2="-91" y2="119.05979"/>
    <linearGradient id="linearGradient4632-0-6-4-4-4">
      <stop style="stop-color:#aacb7d;stop-opacity:1;" offset="0" id="stop4634-4-4-7-4"/>
      <stop style="stop-color:#709937;stop-opacity:1;" offset="1" id="stop4636-3-1-5-9"/>
    </linearGradient>
    <radialGradient inkscape:collect="always" xlink:href="#linearGradient5060-820-8" id="radialGradient5662" gradientUnits="userSpaceOnUse" gradientTransform="matrix(-0.04016195,0,0,0.0329426,30.203791,40.921322)" cx="605.71429" cy="486.64789" fx="605.71429" fy="486.64789" r="117.14286"/>
    <linearGradient id="linearGradient5060-820-8">
      <stop id="stop2681-37" style="stop-color:#000000;stop-opacity:1" offset="0"/>
      <stop id="stop2683-05" style="stop-color:#000000;stop-opacity:0" offset="1"/>
    </linearGradient>
    <linearGradient inkscape:collect="always" xlink:href="#linearGradient5048-585-1" id="linearGradient5668" gradientUnits="userSpaceOnUse" gradientTransform="matrix(0.1076923,0,0,0.03294117,-6.9232996,40.922192)" x1="302.85715" y1="366.64789" x2="302.85715" y2="609.50507"/>
    <linearGradient id="linearGradient5048-585-1">
      <stop id="stop2667-0" style="stop-color:#000000;stop-opacity:0" offset="0"/>
      <stop id="stop2669-91" style="stop-color:#000000;stop-opacity:1" offset="0.5"/>
      <stop id="stop2671-6" style="stop-color:#000000;stop-opacity:0" offset="1"/>
    </linearGradient>
    <radialGradient inkscape:collect="always" xlink:href="#linearGradient5060-820-8" id="radialGradient5674" gradientUnits="userSpaceOnUse" gradientTransform="matrix(0.04016195,0,0,0.0329426,33.795761,40.921322)" cx="605.71429" cy="486.64789" fx="605.71429" fy="486.64789" r="117.14286"/>
    <linearGradient inkscape:collect="always" xlink:href="#linearGradient9235-9" id="linearGradient5680" gradientUnits="userSpaceOnUse" gradientTransform="matrix(1.2749674,0,0,1.218292,-67.159409,-0.3392075)" x1="97.538795" y1="8.8103228" x2="97.538795" y2="44.260689"/>
    <linearGradient id="linearGradient9235-9">
      <stop id="stop9237-7" style="stop-color:#ffffff;stop-opacity:1" offset="0"/>
      <stop id="stop9239-2-3" style="stop-color:#ffffff;stop-opacity:0.23529412" offset="0.1088333"/>
      <stop id="stop9241-1" style="stop-color:#ffffff;stop-opacity:0.15686275" offset="0.97909725"/>
      <stop id="stop9243-5" style="stop-color:#ffffff;stop-opacity:0.39215687" offset="1"/>
    </linearGradient>
    <linearGradient inkscape:collect="always" xlink:href="#linearGradient3104-8-8-97-4-6-11-5-5-1-0-5" id="linearGradient5686" gradientUnits="userSpaceOnUse" gradientTransform="matrix(1.0563766,0,0,1.0770552,69.974931,-2.5296479)" x1="-51.786404" y1="53.514328" x2="-51.786404" y2="3.6336823"/>
    <linearGradient id="linearGradient3104-8-8-97-4-6-11-5-5-1-0-5">
      <stop offset="0" style="stop-color:#000000;stop-opacity:0.32173914" id="stop3106-5-4-3-5-0-2-1-0-1-2-7"/>
      <stop offset="1" style="stop-color:#000000;stop-opacity:0.27826086" id="stop3108-4-3-7-8-2-0-7-9-4-9-4-5"/>
    </linearGradient>
    <linearGradient id="linearGradient6404-7-5-7">
      <stop id="stop6406-1-8-2" style="stop-color:#f9f9f9;stop-opacity:1" offset="0"/>
      <stop id="stop6408-9-6-4" style="stop-color:#c9c9c9;stop-opacity:1" offset="1"/>
    </linearGradient>
    <linearGradient y2="16.997795" x2="62.988873" y1="14.090554" x1="62.988873" gradientTransform="matrix(1.3135526,0,0,1.2900554,-55.485839,-1.2218579)" gradientUnits="userSpaceOnUse" id="linearGradient23320" xlink:href="#linearGradient6404-7-5-7" inkscape:collect="always"/>
    <linearGradient gradientUnits="userSpaceOnUse" y2="57.491043" x2="30.312025" y1="20.564823" x1="30.312025" id="linearGradient3849" xlink:href="#linearGradient7012-661-145-733-759-865-745" inkscape:collect="always"/>
    <radialGradient r="117.14286" fy="486.64789" fx="605.71429" cy="486.64789" cx="605.71429" gradientTransform="matrix(0.04016195,0,0,0.0329426,33.795982,40.921317)" gradientUnits="userSpaceOnUse" id="radialGradient3079" xlink:href="#linearGradient5060-820" inkscape:collect="always"/>
    <radialGradient r="21" fy="-17.82061" fx="2.9999998" cy="-17.82061" cx="2.9999998" gradientTransform="matrix(-1.7093459e-8,2.2713251,-2.8951677,-1.9343515e-8,-48.593318,2.3972382)" gradientUnits="userSpaceOnUse" id="radialGradient3076" xlink:href="#linearGradient3484" inkscape:collect="always"/>
    <linearGradient y2="16.19013" x2="62.988873" y1="13.182598" x1="62.988873" gradientTransform="matrix(1.3407707,0,0,1.3249351,-134.0678,-1.3881028)" gradientUnits="userSpaceOnUse" id="linearGradient3074" xlink:href="#linearGradient6404" inkscape:collect="always"/>
    <linearGradient y2="609.50507" x2="302.85715" y1="366.64789" x1="302.85715" gradientTransform="matrix(0.1076923,0,0,0.03294117,-6.9230773,40.922188)" gradientUnits="userSpaceOnUse" id="linearGradient3071" xlink:href="#linearGradient5048-585" inkscape:collect="always"/>
    <radialGradient r="117.14286" fy="486.64789" fx="605.71429" cy="486.64789" cx="605.71429" gradientTransform="matrix(-0.04016195,0,0,0.0329426,30.204018,40.921317)" gradientUnits="userSpaceOnUse" id="radialGradient3068" xlink:href="#linearGradient5060-820" inkscape:collect="always"/>
    <linearGradient y2="15.943953" x2="65.340263" y1="45.114193" x1="82.453476" gradientTransform="matrix(1.3407998,0,0,1.3264587,-72.462643,-1.6032277)" gradientUnits="userSpaceOnUse" id="linearGradient3065" xlink:href="#linearGradient3390" inkscape:collect="always"/>
    <linearGradient y2="36.657963" x2="22.809399" y1="49.629246" x1="22.934725" gradientTransform="matrix(1.5347702,0,0,1.3270123,-5.0206145,-0.04854157)" gradientUnits="userSpaceOnUse" id="linearGradient3060" xlink:href="#linearGradient6129-963-697-142-998-580-273" inkscape:collect="always"/>
    <radialGradient r="20.979567" fy="8.3021259" fx="7.2646537" cy="8.3021259" cx="7.2646537" gradientTransform="matrix(0,1.606606,-2.1816541,0,34.685541,9.28484)" gradientUnits="userSpaceOnUse" id="radialGradient3057" xlink:href="#linearGradient6087-437-184-795-110-662-495" inkscape:collect="always"/>
    <linearGradient y2="33.95525" x2="15.214532" y1="22.292103" x1="11.566265" gradientTransform="matrix(1.3407707,0,0,1.33,-0.3733138,-1.3099814)" gradientUnits="userSpaceOnUse" id="linearGradient3054" xlink:href="#linearGradient8265-821-176-38-919-66-249" inkscape:collect="always"/>
    <linearGradient gradientTransform="matrix(1.3407707,0,0,1.33,-0.3733138,-1.3099814)" gradientUnits="userSpaceOnUse" xlink:href="#linearGradient8265-821-176-38-919-66-249" id="linearGradient2576" y2="33.95525" x2="15.214532" y1="22.292103" x1="11.566265"/>
    <linearGradient id="linearGradient8265-821-176-38-919-66-249">
      <stop offset="0" style="stop-color:#ffffff;stop-opacity:0.27450982" id="stop2687"/>
      <stop offset="1" style="stop-color:#ffffff;stop-opacity:0.07843138" id="stop2689"/>
    </linearGradient>
    <radialGradient gradientTransform="matrix(0,1.606606,-2.1816541,0,34.685541,9.28484)" gradientUnits="userSpaceOnUse" xlink:href="#linearGradient6087-437-184-795-110-662-495" id="radialGradient2579" fy="8.3021259" fx="7.2646537" r="20.979567" cy="8.3021259" cx="7.2646537"/>
    <linearGradient id="linearGradient6087-437-184-795-110-662-495">
      <stop offset="0" style="stop-color:#ffffff;stop-opacity:0.40000001" id="stop2693"/>
      <stop offset="1" style="stop-color:#ffffff;stop-opacity:0" id="stop2695"/>
    </linearGradient>
    <linearGradient gradientTransform="matrix(1.5347702,0,0,1.3270123,-5.0206145,-0.04854157)" gradientUnits="userSpaceOnUse" xlink:href="#linearGradient6129-963-697-142-998-580-273" id="linearGradient2582" y2="36.657963" x2="22.809399" y1="49.629246" x1="22.934725"/>
    <linearGradient id="linearGradient6129-963-697-142-998-580-273">
      <stop offset="0" style="stop-color:#0a0a0a;stop-opacity:0.498" id="stop2661"/>
      <stop offset="1" style="stop-color:#0a0a0a;stop-opacity:0" id="stop2663"/>
    </linearGradient>
    <radialGradient gradientTransform="matrix(2.0979394,-1.2620327e-7,8.2824269e-8,1.3475335,-115.96782,9.3537334)" gradientUnits="userSpaceOnUse" xlink:href="#linearGradient7012-661-145-733-759-865-745" id="radialGradient2585" fy="14.113381" fx="63.969177" r="23.097054" cy="14.113381" cx="63.969177"/>
    <linearGradient id="linearGradient7012-661-145-733-759-865-745">
      <stop offset="0" style="stop-color:#aacb7d;stop-opacity:1" id="stop2699"/>
      <stop offset="1" style="stop-color:#709937;stop-opacity:1" id="stop2701"/>
    </linearGradient>
    <linearGradient gradientTransform="matrix(1.3407998,0,0,1.3264587,-72.462643,-1.6032277)" gradientUnits="userSpaceOnUse" xlink:href="#linearGradient3390" id="linearGradient2587" y2="15.943953" x2="65.340263" y1="45.114193" x1="82.453476"/>
    <linearGradient id="linearGradient3390">
      <stop offset="0" style="stop-color:#51751e;stop-opacity:1" id="stop3392"/>
      <stop offset="1" style="stop-color:#51751e;stop-opacity:1" id="stop3394"/>
    </linearGradient>
    <radialGradient gradientTransform="matrix(-0.04016195,0,0,0.0329426,30.204018,40.921317)" gradientUnits="userSpaceOnUse" xlink:href="#linearGradient5060-820" id="radialGradient3403" fy="486.64789" fx="605.71429" r="117.14286" cy="486.64789" cx="605.71429"/>
    <linearGradient id="linearGradient5060-820">
      <stop offset="0" style="stop-color:#000000;stop-opacity:1" id="stop2681"/>
      <stop offset="1" style="stop-color:#000000;stop-opacity:0" id="stop2683"/>
    </linearGradient>
    <linearGradient gradientTransform="matrix(0.1076923,0,0,0.03294117,-6.9230773,40.922188)" gradientUnits="userSpaceOnUse" xlink:href="#linearGradient5048-585" id="linearGradient3409" y2="609.50507" x2="302.85715" y1="366.64789" x1="302.85715"/>
    <linearGradient id="linearGradient5048-585">
      <stop offset="0" style="stop-color:#000000;stop-opacity:0" id="stop2667"/>
      <stop offset="0.5" style="stop-color:#000000;stop-opacity:1" id="stop2669"/>
      <stop offset="1" style="stop-color:#000000;stop-opacity:0" id="stop2671"/>
    </linearGradient>
    <linearGradient gradientTransform="matrix(1.3407707,0,0,1.3249351,-134.0678,-1.3881028)" gradientUnits="userSpaceOnUse" xlink:href="#linearGradient6404" id="linearGradient3398" y2="16.19013" x2="62.988873" y1="13.182598" x1="62.988873"/>
    <linearGradient id="linearGradient6404">
      <stop offset="0" style="stop-color:#f9f9f9;stop-opacity:1" id="stop6406"/>
      <stop offset="1" style="stop-color:#c9c9c9;stop-opacity:1" id="stop6408"/>
    </linearGradient>
    <radialGradient gradientTransform="matrix(-1.7093459e-8,2.2713251,-2.8951677,-1.9343515e-8,-48.593318,2.3972382)" gradientUnits="userSpaceOnUse" xlink:href="#linearGradient3484" id="radialGradient3396" fy="-17.82061" fx="2.9999998" r="21" cy="-17.82061" cx="2.9999998"/>
    <linearGradient id="linearGradient3484">
      <stop offset="0" style="stop-color:#bdbdbd;stop-opacity:1" id="stop3486"/>
      <stop offset="1" style="stop-color:#d0d0d0;stop-opacity:1" id="stop3488"/>
    </linearGradient>
    <radialGradient gradientTransform="matrix(0.04016195,0,0,0.0329426,33.795982,40.921317)" gradientUnits="userSpaceOnUse" xlink:href="#linearGradient5060-820" id="radialGradient3413" fy="486.64789" fx="605.71429" r="117.14286" cy="486.64789" cx="605.71429"/>
    <radialGradient gradientTransform="matrix(0.9584434,-0.1715415,0.033651,0.9119853,15.85347,19.166362)" gradientUnits="userSpaceOnUse" xlink:href="#linearGradient7067" id="radialGradient2950" fy="37.45607" fx="14.68769" r="5.7384715" cy="41.058823" cx="17.058823"/>
    <linearGradient id="linearGradient7067">
      <stop offset="0" style="stop-color:#ffffff;stop-opacity:1" id="stop7069"/>
      <stop offset="1" style="stop-color:#ffffff;stop-opacity:0" id="stop7071"/>
    </linearGradient>
    <linearGradient gradientTransform="matrix(0.3228678,0,0,0.3243297,29.718801,-13.757826)" gradientUnits="userSpaceOnUse" xlink:href="#linearGradient2372" id="linearGradient2952" y2="125.39074" x2="26.256771" y1="137.53885" x1="28.503141"/>
    <linearGradient id="linearGradient2372">
      <stop offset="0" style="stop-color:#ffffff;stop-opacity:1" id="stop2374"/>
      <stop offset="1" style="stop-color:#ffffff;stop-opacity:0.34482759" id="stop2376"/>
    </linearGradient>
    <radialGradient gradientTransform="matrix(1.0091641,-0.1636283,0.02202691,0.9432895,33.038227,14.99091)" gradientUnits="userSpaceOnUse" xlink:href="#linearGradient3668" id="radialGradient2954" fy="37.841019" fx="14.757765" r="5.7384715" cy="41.058823" cx="17.058823"/>
    <linearGradient id="linearGradient3668">
      <stop offset="0" style="stop-color:#ffffff;stop-opacity:1" id="stop3670"/>
      <stop offset="1" style="stop-color:#ffffff;stop-opacity:0" id="stop3672"/>
    </linearGradient>
    <linearGradient gradientTransform="matrix(0.4456368,0,0,0.3243297,44.6525,-18.437266)" gradientUnits="userSpaceOnUse" xlink:href="#linearGradient2372" id="linearGradient2454" y2="125.39074" x2="26.256771" y1="144.11652" x1="28.739122"/>
    <radialGradient gradientTransform="matrix(1.0091312,0,0,0.4333737,9.3721941,39.147916)" gradientUnits="userSpaceOnUse" xlink:href="#linearGradient5670-612-8" id="radialGradient3075" fy="45.866665" fx="22.90196" r="7.9058824" cy="45.866665" cx="22.90196"/>
    <linearGradient id="linearGradient5670-612-8">
      <stop offset="0" style="stop-color:#000000;stop-opacity:1" id="stop3203-1"/>
      <stop offset="1" style="stop-color:#000000;stop-opacity:0" id="stop3205-0"/>
    </linearGradient>
  </defs>
  <sodipodi:namedview id="base" pagecolor="#ffffff" bordercolor="#666666" borderopacity="1.0" inkscape:pageopacity="0.0" inkscape:pageshadow="2" inkscape:zoom="5.5" inkscape:cx="20.331661" inkscape:cy="32" inkscape:current-layer="layer1" showgrid="true" inkscape:document-units="px" inkscape:grid-bbox="true" inkscape:window-width="832" inkscape:window-height="495" inkscape:window-x="847" inkscape:window-y="284" inkscape:window-maximized="0"/>
  <metadata id="metadata23327">
    <rdf:RDF>
      <cc:Work rdf:about="">
        <dc:format>image/svg+xml</dc:format>
        <dc:type rdf:resource="http://purl.org/dc/dcmitype/StillImage"/>
        <dc:title/>
      </cc:Work>
    </rdf:RDF>
  </metadata>
  <g id="layer1" inkscape:label="Layer 1" inkscape:groupmode="layer">
    <path id="use11230" d="m 7.4997804,10.000003 c -0.277,0 -0.5,0.223 -0.5,0.5 l 0,3.499999 -2.5,0 c -0.277,0 -0.5,0.223 -0.5,0.5 l 0,9.5 c 0,0.277 0.223,0.5 0.5,0.5 l 55.0000006,0 c 0.277,0 0.5,-0.223 0.5,-0.5 l 0,-9.5 c 0,-0.277 -0.223,-0.5 -0.5,-0.5 l -31.5,0 0,-3.499999 c 0,-0.277 -0.223,-0.5 -0.5,-0.5 l -20.0000006,0 z" style="color:#000000;fill:url(#linearGradient23320);fill-opacity:1;fill-rule:nonzero;stroke:none;stroke-width:1.00000012;marker:none;visibility:visible;display:inline;overflow:visible;enable-background:accumulate" inkscape:connector-curvature="0"/>
    <path sodipodi:nodetypes="cscsccssscccc" d="m 7.9997804,9.5001625 c -0.91501,0.0102 -1.5,0.45618 -1.5,1.3332905 l 0,2.666549 -1.506,0 c -0.99492,0 -1.494,0.47358 -1.494,1.34217 0.0456,13.71958 0,14.49301 0,15.65783 1.90283,0 56.9999906,-4.9328 56.9999906,-7.05611 l 0,-8.44389 c 0,-1.00007 -0.49994,-1.5 -1.49999,-1.5 l -30.5,0 0,-2.666549 c 0,-0.8771105 -0.22453,-1.3435105 -1.13954,-1.3332905 z" inkscape:connector-curvature="0" id="use11232" style="opacity:0.8;color:#000000;fill:none;stroke:url(#linearGradient5686);stroke-width:1;stroke-linecap:butt;stroke-linejoin:miter;stroke-miterlimit:4;stroke-opacity:1;stroke-dasharray:none;stroke-dashoffset:0;marker:none;visibility:visible;display:inline;overflow:visible;enable-background:accumulate"/>
    <path id="use11234" d="m 7.4997804,10.500003 0,3.999999 -3,0 0,10 55.0000006,0 0,-10 -32,0 0,-3.999999 -20.0000006,0 z" style="color:#000000;fill:none;stroke:url(#linearGradient5680);stroke-width:0.99999976;stroke-linecap:round;stroke-linejoin:round;stroke-miterlimit:4;stroke-opacity:1;stroke-dasharray:none;stroke-dashoffset:0;marker:none;visibility:visible;display:inline;overflow:visible;enable-background:accumulate" inkscape:connector-curvature="0"/>
    <path d="m 57.999781,52.999932 c 0,0 0,7.99991 0,7.99991 2.06824,0.0151 5,-1.79238 5,-4.00047 0,-2.2081 -2.308,-3.99944 -5,-3.99944 z" inkscape:connector-curvature="0" id="use11236" style="opacity:0.3;fill:url(#radialGradient5674);fill-opacity:1;fill-rule:nonzero;stroke:none;stroke-width:1;marker:none;visibility:visible;display:inline;overflow:visible"/>
    <rect width="52" height="8" x="5.9997816" y="53" id="use11238" style="opacity:0.3;fill:url(#linearGradient5668);fill-opacity:1;fill-rule:nonzero;stroke:none;stroke-width:1;marker:none;visibility:visible;display:inline;overflow:visible"/>
    <path d="m 5.9997804,52.999932 c 0,0 0,7.99991 0,7.99991 -2.06825,0.0151 -5,-1.79238 -5,-4.00047 0,-2.2081 2.308,-3.99944 5,-3.99944 z" inkscape:connector-curvature="0" id="use11240" style="opacity:0.3;fill:url(#radialGradient5662);fill-opacity:1;fill-rule:nonzero;stroke:none;stroke-width:1;marker:none;visibility:visible;display:inline;overflow:visible"/>
    <path sodipodi:nodetypes="ccccccccc" d="m 2.5033204,20.532112 c -1.44043,0.16346 -0.87122,1.85289 -0.98607,2.8029 0.5271,11.19318 1.25951,21.80885 1.78336,33.0021 0,1.18996 1.19486,1.13653 1.86516,1.13653 0,0 36.7742106,0 54.4905106,0 1.46281,-0.14093 0.85463,-1.86024 1.0604,-2.8442 0.52711,-11.19317 1.25992,-21.56889 1.78376,-32.76214 0.0178,-0.7521 -0.50074,-1.33519 -1.21534,-1.33519 0,0 -39.86255,0 -58.7817806,0 z" inkscape:connector-curvature="0" id="use11242" style="color:#000000;fill:url(#linearGradient5654);fill-opacity:1;fill-rule:nonzero;stroke:none;stroke-width:0.99999982;marker:none;visibility:visible;display:inline;overflow:visible;enable-background:accumulate"/>
    <path d="m 2.4088704,20.000002 59.1818106,5.3e-4 c 0.85499,0 1.4091,0.5839 1.4091,1.30984 l -1.6775,35.37929 c 0,0.72593 -0.68831,1.31034 -1.54329,1.31034 l -55.5584406,0 c -0.85498,0 -1.54329,-0.58441 -1.54329,-1.31034 l -1.67748,-35.37931 c 0,-0.72594 0.5541,-1.31035 1.40909,-1.31035 z" inkscape:connector-curvature="0" id="use11244" style="opacity:0.4;fill:url(#linearGradient5646);fill-opacity:1;stroke:none"/>
    <path sodipodi:nodetypes="cccccccc" inkscape:connector-curvature="0" id="use11246" d="m 61.068211,21.500002 -57.1179406,0.0313 c -1.70924,0 -1.43419,0.0338 -1.43419,1.07579 l 1.62114,32.91358 c 0.0163,0.94321 -0.0656,0.9793 1.0726,0.9793 0,0 36.7779506,0 54.4396606,0 0.53983,-11.58225 1.25805,-22.68226 1.81479,-34.32182 0.0519,-0.55489 0.0134,-0.67818 -0.39606,-0.67818 z" style="opacity:0.5;color:#000000;fill:none;stroke:url(#linearGradient5640);stroke-width:0.99999988;stroke-linecap:round;stroke-linejoin:round;stroke-miterlimit:4;stroke-opacity:1;stroke-dasharray:none;stroke-dashoffset:0;marker:none;visibility:visible;display:inline;overflow:visible;enable-background:accumulate"/>
    <path sodipodi:nodetypes="ccccccccc" d="m 2.5033204,20.532112 c -1.44043,0.16346 -0.87122,1.85289 -0.98607,2.8029 0.5271,11.19318 1.25951,21.80885 1.78336,33.0021 0,1.18996 1.19486,1.13653 1.86516,1.13653 0,0 36.7742106,0 54.4905106,0 1.46281,-0.14093 0.85463,-1.86024 1.0604,-2.8442 0.52711,-11.19317 1.25992,-21.56889 1.78376,-32.76214 0.0178,-0.7521 -0.50074,-1.33519 -1.21534,-1.33519 0,0 -39.86255,0 -58.7817806,0 z" inkscape:connector-curvature="0" id="use11242-8" style="opacity:0.3;color:#000000;fill:none;stroke:#000000;stroke-width:0.99999982;stroke-linecap:round;stroke-linejoin:round;stroke-miterlimit:4;stroke-opacity:1;stroke-dasharray:none;stroke-dashoffset:0;marker:none;visibility:visible;display:inline;overflow:visible;enable-background:accumulate"/>
    <g id="g3059" transform="translate(-2.0489772e-4,0)">
      <path d="m 40.461351,59.025337 c -6.98e-4,1.892029 -3.572398,3.425663 -7.978073,3.425663 -4.405675,0 -7.977375,-1.533634 -7.978073,-3.425663 -6.98e-4,-1.892453 3.571412,-3.426748 7.978073,-3.426748 4.406661,0 7.978771,1.534295 7.978073,3.426748 l 0,0 z" id="path4121" style="opacity:0.3;fill:url(#radialGradient3075);fill-opacity:1;stroke:none" inkscape:connector-curvature="0"/>
      <path d="m 55.769114,22.519 c -6.00729,0.960668 -12.031218,2.823358 -18.033799,3.808565 -1.63378,0.819876 -1.049147,2.902162 -1.154413,4.371015 -1e-6,6.355079 0,10.710159 0,17.065238 -4.194736,-0.934895 -9.035848,2.33778 -9.071714,6.783396 -0.188862,2.854893 2.565665,5.220454 5.336743,4.958998 3.756296,-0.19264 7.194805,-3.831353 6.792605,-7.716726 -1e-6,-6.35577 0,-11.702017 0,-18.057787 4.954052,-0.714335 9.897511,-2.500014 14.851364,-3.215699 -2e-6,4.899456 0,9.78941 0,14.688866 -4.019561,-1.157997 -8.855706,1.496573 -9.521772,5.740205 -0.556934,2.500827 1.190623,5.014395 3.577672,5.729118 4.468295,1.464696 9.466325,-2.855247 8.939333,-7.474862 -0.01247,-8.665068 0.03763,-16.230285 0,-24.895327 -0.105005,-0.861293 -0.7779,-1.82855 -1.716019,-1.785 l 0,0 z" id="path3406" style="fill:#4d4d4d;fill-opacity:1;stroke:#333333;stroke-width:1.00000012;stroke-linecap:round;stroke-linejoin:round;stroke-miterlimit:4;stroke-opacity:1;stroke-dasharray:none" inkscape:connector-curvature="0"/>
      <path d="M 55.008865,45.657101 55.068255,30.135 c 0.625919,-0.08136 0.0961,-0.01316 0.940128,-0.135 0.01157,3.086113 0.01586,4.165018 0.01586,15.820442 0,0.08673 -0.36454,-0.04353 -1.015381,-0.163341 l 3e-6,0 0,0 z" id="path3996" style="opacity:0.4;fill:url(#linearGradient2454);fill-opacity:1;fill-rule:evenodd;stroke:none" inkscape:connector-curvature="0"/>
      <path d="m 56.948836,49.944255 c 0,2.944787 -2.592745,5.773341 -5.791059,6.317752 -3.198314,0.544411 -5.79106,-1.401478 -5.79106,-4.346265 0,-2.944788 2.592746,-5.773344 5.79106,-6.317755 3.198314,-0.544411 5.791059,1.40148 5.791059,4.346268 z" id="path2716" style="opacity:0.6;fill:url(#radialGradient2954);fill-opacity:1;stroke:none" inkscape:connector-curvature="0"/>
      <path d="m 37.085055,48.486235 0,-20.470944 c 0,0 0.116979,-1.246824 1.175361,-1.251121 0.09195,0.159264 17.856106,-3.88217 17.856106,-3.88217 0,0 0.883478,1.118 -7.002371,2.807 -10.801695,2.313519 -11.029096,2.032966 -11.029096,3.161623 0,3.329156 0,8.042721 0,20.164668 -0.235102,-0.200621 -0.528466,-0.409243 -1,-0.529056 l 0,0 0,0 z" id="path2720" style="opacity:0.4;fill:url(#linearGradient2952);fill-opacity:1;fill-rule:evenodd;stroke:none" inkscape:connector-curvature="0"/>
      <path d="m 39.085056,52.731709 c 0,2.848254 -2.462433,5.584085 -5.499999,6.11065 -3.037567,0.526565 -5.500001,-1.355536 -5.500001,-4.203791 0,-2.848254 2.462434,-5.584087 5.500001,-6.110652 3.037566,-0.526565 5.499999,1.355538 5.499999,4.203793 l 0,0 z" id="path2712" style="opacity:0.6;fill:url(#radialGradient2950);fill-opacity:1;stroke:none" inkscape:connector-curvature="0"/>
    </g>
  </g>
</svg>
