<!-- Created with Inkscape (http://www.inkscape.org/) -->
<svg xmlns:dc="http://purl.org/dc/elements/1.1/" xmlns:cc="http://creativecommons.org/ns#" xmlns:rdf="http://www.w3.org/1999/02/22-rdf-syntax-ns#" xmlns:svg="http://www.w3.org/2000/svg" xmlns="http://www.w3.org/2000/svg" xmlns:xlink="http://www.w3.org/1999/xlink" xmlns:sodipodi="http://sodipodi.sourceforge.net/DTD/sodipodi-0.dtd" xmlns:inkscape="http://www.inkscape.org/namespaces/inkscape" width="64px" height="64px" id="svg23613" version="1.1" inkscape:version="0.48.4 r9939" sodipodi:docname="folder-video.svg">
  <defs id="defs23615">
    <linearGradient inkscape:collect="always" xlink:href="#linearGradient8272-8-8" id="linearGradient5998" gradientUnits="userSpaceOnUse" gradientTransform="matrix(1.3210282,0,0,1.2679796,-70.729882,0.17381059)" x1="97.538795" y1="16.962049" x2="97.538795" y2="44.260689"/>
    <linearGradient id="linearGradient8272-8-8">
      <stop offset="0" style="stop-color:#ffffff;stop-opacity:1" id="stop8274-4"/>
      <stop offset="0.0221225" style="stop-color:#ffffff;stop-opacity:0.23529412" id="stop8276-5"/>
      <stop offset="0.97909725" style="stop-color:#ffffff;stop-opacity:0.15686275" id="stop8278-0"/>
      <stop offset="1" style="stop-color:#ffffff;stop-opacity:0.39215687" id="stop8280-5-9"/>
    </linearGradient>
    <linearGradient inkscape:collect="always" xlink:href="#linearGradient6129-963-697-142-998-580-273-9" id="linearGradient5994" gradientUnits="userSpaceOnUse" gradientTransform="matrix(1.5432898,0,0,1.3103449,-5.0382943,0.34483059)" x1="22.934725" y1="49.629246" x2="22.809399" y2="36.657963"/>
    <linearGradient id="linearGradient6129-963-697-142-998-580-273-9">
      <stop id="stop2661-3" style="stop-color:#0a0a0a;stop-opacity:0.498" offset="0"/>
      <stop id="stop2663-33" style="stop-color:#0a0a0a;stop-opacity:0" offset="1"/>
    </linearGradient>
    <linearGradient inkscape:collect="always" xlink:href="#linearGradient4632-0-6-4-4-4" id="linearGradient5990" gradientUnits="userSpaceOnUse" gradientTransform="matrix(0.50413225,0,0,0.49333391,73.843636,-1.4532894)" x1="-91" y1="43.999817" x2="-91" y2="119.05979"/>
    <linearGradient id="linearGradient4632-0-6-4-4-4">
      <stop style="stop-color:#aacb7d;stop-opacity:1;" offset="0" id="stop4634-4-4-7-4"/>
      <stop style="stop-color:#709937;stop-opacity:1;" offset="1" id="stop4636-3-1-5-9"/>
    </linearGradient>
    <radialGradient inkscape:collect="always" xlink:href="#linearGradient5060-820-8" id="radialGradient5986" gradientUnits="userSpaceOnUse" gradientTransform="matrix(-0.04016195,0,0,0.0329426,30.204676,40.92132)" cx="605.71429" cy="486.64789" fx="605.71429" fy="486.64789" r="117.14286"/>
    <linearGradient id="linearGradient5060-820-8">
      <stop id="stop2681-37" style="stop-color:#000000;stop-opacity:1" offset="0"/>
      <stop id="stop2683-05" style="stop-color:#000000;stop-opacity:0" offset="1"/>
    </linearGradient>
    <linearGradient inkscape:collect="always" xlink:href="#linearGradient5048-585-1" id="linearGradient5982" gradientUnits="userSpaceOnUse" gradientTransform="matrix(0.1076923,0,0,0.03294117,-6.9224123,40.92219)" x1="302.85715" y1="366.64789" x2="302.85715" y2="609.50507"/>
    <linearGradient id="linearGradient5048-585-1">
      <stop id="stop2667-0" style="stop-color:#000000;stop-opacity:0" offset="0"/>
      <stop id="stop2669-91" style="stop-color:#000000;stop-opacity:1" offset="0.5"/>
      <stop id="stop2671-6" style="stop-color:#000000;stop-opacity:0" offset="1"/>
    </linearGradient>
    <radialGradient inkscape:collect="always" xlink:href="#linearGradient5060-820-8" id="radialGradient5978" gradientUnits="userSpaceOnUse" gradientTransform="matrix(0.04016195,0,0,0.0329426,33.796646,40.92132)" cx="605.71429" cy="486.64789" fx="605.71429" fy="486.64789" r="117.14286"/>
    <linearGradient inkscape:collect="always" xlink:href="#linearGradient9235-9" id="linearGradient5974" gradientUnits="userSpaceOnUse" gradientTransform="matrix(1.2749674,0,0,1.218292,-67.158522,-0.33920941)" x1="97.538795" y1="8.8103228" x2="97.538795" y2="44.260689"/>
    <linearGradient id="linearGradient9235-9">
      <stop id="stop9237-7" style="stop-color:#ffffff;stop-opacity:1" offset="0"/>
      <stop id="stop9239-2-3" style="stop-color:#ffffff;stop-opacity:0.23529412" offset="0.1088333"/>
      <stop id="stop9241-1" style="stop-color:#ffffff;stop-opacity:0.15686275" offset="0.97909725"/>
      <stop id="stop9243-5" style="stop-color:#ffffff;stop-opacity:0.39215687" offset="1"/>
    </linearGradient>
    <linearGradient inkscape:collect="always" xlink:href="#linearGradient3104-8-8-97-4-6-11-5-5-1-0-5" id="linearGradient5970" gradientUnits="userSpaceOnUse" gradientTransform="matrix(1.0563766,0,0,1.0770552,69.975816,-2.5296494)" x1="-51.786404" y1="53.514328" x2="-51.786404" y2="3.6336823"/>
    <linearGradient id="linearGradient3104-8-8-97-4-6-11-5-5-1-0-5">
      <stop offset="0" style="stop-color:#000000;stop-opacity:0.32173914" id="stop3106-5-4-3-5-0-2-1-0-1-2-7"/>
      <stop offset="1" style="stop-color:#000000;stop-opacity:0.27826086" id="stop3108-4-3-7-8-2-0-7-9-4-9-4-5"/>
    </linearGradient>
    <linearGradient id="linearGradient6404-7-5-7">
      <stop id="stop6406-1-8-2" style="stop-color:#f9f9f9;stop-opacity:1" offset="0"/>
      <stop id="stop6408-9-6-4" style="stop-color:#c9c9c9;stop-opacity:1" offset="1"/>
    </linearGradient>
    <linearGradient y2="16.997795" x2="62.988873" y1="14.090554" x1="62.988873" gradientTransform="matrix(1.3135526,0,0,1.2900554,-55.484952,-1.2218594)" gradientUnits="userSpaceOnUse" id="linearGradient23611" xlink:href="#linearGradient6404-7-5-7" inkscape:collect="always"/>
    <linearGradient gradientUnits="userSpaceOnUse" y2="57.182316" x2="28.413719" y1="20.293636" x1="28.413719" id="linearGradient3882" xlink:href="#linearGradient7012-661-145-733-759-865-745" inkscape:collect="always"/>
    <radialGradient r="117.14286" fy="486.64789" fx="605.71429" cy="486.64789" cx="605.71429" gradientTransform="matrix(0.04016195,0,0,0.0329426,33.795982,40.921317)" gradientUnits="userSpaceOnUse" id="radialGradient3112" xlink:href="#linearGradient5060-820" inkscape:collect="always"/>
    <radialGradient r="21" fy="-17.82061" fx="2.9999998" cy="-17.82061" cx="2.9999998" gradientTransform="matrix(-1.7093459e-8,2.2713251,-2.8951677,-1.9343515e-8,-48.593318,2.3972382)" gradientUnits="userSpaceOnUse" id="radialGradient3109" xlink:href="#linearGradient3484" inkscape:collect="always"/>
    <linearGradient y2="16.19013" x2="62.988873" y1="13.182598" x1="62.988873" gradientTransform="matrix(1.3407707,0,0,1.3249351,-134.0678,-1.3881028)" gradientUnits="userSpaceOnUse" id="linearGradient3107" xlink:href="#linearGradient6404" inkscape:collect="always"/>
    <linearGradient y2="609.50507" x2="302.85715" y1="366.64789" x1="302.85715" gradientTransform="matrix(0.1076923,0,0,0.03294117,-6.9230773,40.922188)" gradientUnits="userSpaceOnUse" id="linearGradient3104" xlink:href="#linearGradient5048-585" inkscape:collect="always"/>
    <radialGradient r="117.14286" fy="486.64789" fx="605.71429" cy="486.64789" cx="605.71429" gradientTransform="matrix(-0.04016195,0,0,0.0329426,30.204018,40.921317)" gradientUnits="userSpaceOnUse" id="radialGradient3101" xlink:href="#linearGradient5060-820" inkscape:collect="always"/>
    <linearGradient y2="15.943953" x2="65.340263" y1="45.114193" x1="82.453476" gradientTransform="matrix(1.3407998,0,0,1.3264587,-72.462643,-1.6032277)" gradientUnits="userSpaceOnUse" id="linearGradient3098" xlink:href="#linearGradient3390" inkscape:collect="always"/>
    <linearGradient y2="36.657963" x2="22.809399" y1="49.629246" x1="22.934725" gradientTransform="matrix(1.5347702,0,0,1.3270123,-5.0206145,-0.04854157)" gradientUnits="userSpaceOnUse" id="linearGradient3093" xlink:href="#linearGradient6129-963-697-142-998-580-273" inkscape:collect="always"/>
    <radialGradient r="20.979567" fy="8.3021259" fx="7.2646537" cy="8.3021259" cx="7.2646537" gradientTransform="matrix(0,1.606606,-2.1816541,0,34.685541,9.28484)" gradientUnits="userSpaceOnUse" id="radialGradient3090" xlink:href="#linearGradient6087-437-184-795-110-662-495" inkscape:collect="always"/>
    <linearGradient y2="33.95525" x2="15.214532" y1="22.292103" x1="11.566265" gradientTransform="matrix(1.3407707,0,0,1.33,-0.3733138,-1.3099814)" gradientUnits="userSpaceOnUse" id="linearGradient3087" xlink:href="#linearGradient8265-821-176-38-919-66-249" inkscape:collect="always"/>
    <radialGradient r="117.14286" fy="486.64789" fx="605.71429" cy="486.64789" cx="605.71429" gradientTransform="matrix(0.03212956,0,0,0.02325004,36.636789,47.480988)" gradientUnits="userSpaceOnUse" id="radialGradient3084" xlink:href="#linearGradient5060" inkscape:collect="always"/>
    <linearGradient y2="609.50507" x2="302.85715" y1="366.64789" x1="302.85715" gradientTransform="matrix(0.04772373,0,0,0.02325004,27.214563,47.480988)" gradientUnits="userSpaceOnUse" id="linearGradient3081" xlink:href="#linearGradient5048" inkscape:collect="always"/>
    <radialGradient r="117.14286" fy="486.64789" fx="605.71429" cy="486.64789" cx="605.71429" gradientTransform="matrix(-0.03212956,0,0,0.02325004,52.363211,47.480988)" gradientUnits="userSpaceOnUse" id="radialGradient3078" xlink:href="#linearGradient5060" inkscape:collect="always"/>
    <linearGradient y2="17.147078" x2="142.41496" y1="-2.4709435" x1="142.41496" gradientTransform="matrix(1.2117666,0,0,1.1795605,-128.57369,36.489797)" gradientUnits="userSpaceOnUse" id="linearGradient3073" xlink:href="#linearGradient3522" inkscape:collect="always"/>
    <linearGradient y2="9.8754826" x2="3.0525408" y1="2.189693" x1="3.0525408" gradientTransform="matrix(3.8171582,0,0,3.778398,22.347968,20.058397)" gradientUnits="userSpaceOnUse" id="linearGradient3067" xlink:href="#linearGradient3666" inkscape:collect="always"/>
    <linearGradient y2="9.8754826" x2="3.0525408" y1="2.189693" x1="3.0525408" gradientTransform="matrix(3.8171596,0,0,3.778398,40.536447,20.058397)" gradientUnits="userSpaceOnUse" id="linearGradient3064" xlink:href="#linearGradient3576" inkscape:collect="always"/>
    <radialGradient gradientTransform="matrix(0.04016195,0,0,0.0329426,33.795982,40.921317)" gradientUnits="userSpaceOnUse" xlink:href="#linearGradient5060-820" id="radialGradient3695" fy="486.64789" fx="605.71429" r="117.14286" cy="486.64789" cx="605.71429"/>
    <radialGradient gradientTransform="matrix(-1.7093459e-8,2.2713251,-2.8951677,-1.9343515e-8,-48.593318,2.3972382)" gradientUnits="userSpaceOnUse" xlink:href="#linearGradient3484" id="radialGradient3692" fy="-17.82061" fx="2.9999998" r="21" cy="-17.82061" cx="2.9999998"/>
    <linearGradient gradientTransform="matrix(1.3407707,0,0,1.3249351,-134.0678,-1.3881028)" gradientUnits="userSpaceOnUse" xlink:href="#linearGradient6404" id="linearGradient3690" y2="16.19013" x2="62.988873" y1="13.182598" x1="62.988873"/>
    <linearGradient gradientTransform="matrix(0.1076923,0,0,0.03294117,-6.9230773,40.922188)" gradientUnits="userSpaceOnUse" xlink:href="#linearGradient5048-585" id="linearGradient3687" y2="609.50507" x2="302.85715" y1="366.64789" x1="302.85715"/>
    <radialGradient gradientTransform="matrix(-0.04016195,0,0,0.0329426,30.204018,40.921317)" gradientUnits="userSpaceOnUse" xlink:href="#linearGradient5060-820" id="radialGradient3684" fy="486.64789" fx="605.71429" r="117.14286" cy="486.64789" cx="605.71429"/>
    <linearGradient gradientTransform="matrix(1.3407998,0,0,1.3264587,-72.462643,-1.6032277)" gradientUnits="userSpaceOnUse" xlink:href="#linearGradient3390" id="linearGradient3681" y2="15.943953" x2="65.340263" y1="45.114193" x1="82.453476"/>
    <radialGradient gradientTransform="matrix(2.0979394,-1.2620327e-7,8.2824269e-8,1.3475335,-115.96782,9.3537334)" gradientUnits="userSpaceOnUse" xlink:href="#linearGradient7012-661-145-733-759-865-745" id="radialGradient3679" fy="14.113381" fx="63.969177" r="23.097054" cy="14.113381" cx="63.969177"/>
    <linearGradient gradientTransform="matrix(1.5347702,0,0,1.3270123,-5.0206145,-0.04854157)" gradientUnits="userSpaceOnUse" xlink:href="#linearGradient6129-963-697-142-998-580-273" id="linearGradient3676" y2="36.657963" x2="22.809399" y1="49.629246" x1="22.934725"/>
    <radialGradient gradientTransform="matrix(0,1.606606,-2.1816541,0,34.685541,9.28484)" gradientUnits="userSpaceOnUse" xlink:href="#linearGradient6087-437-184-795-110-662-495" id="radialGradient3673" fy="8.3021259" fx="7.2646537" r="20.979567" cy="8.3021259" cx="7.2646537"/>
    <linearGradient gradientTransform="matrix(1.3407707,0,0,1.33,-0.3733138,-1.3099814)" gradientUnits="userSpaceOnUse" xlink:href="#linearGradient8265-821-176-38-919-66-249" id="linearGradient3670" y2="33.95525" x2="15.214532" y1="22.292103" x1="11.566265"/>
    <linearGradient gradientTransform="matrix(3.8171596,0,0,3.778398,40.536447,20.058397)" gradientUnits="userSpaceOnUse" xlink:href="#linearGradient3576" id="linearGradient2522" y2="9.8754826" x2="3.0525408" y1="2.189693" x1="3.0525408"/>
    <linearGradient id="linearGradient3576">
      <stop offset="0" style="stop-color:#7798bb;stop-opacity:1" id="stop3578"/>
      <stop offset="1" style="stop-color:#54779c;stop-opacity:1" id="stop3580"/>
    </linearGradient>
    <linearGradient gradientTransform="matrix(3.8171582,0,0,3.778398,22.347968,20.058397)" gradientUnits="userSpaceOnUse" xlink:href="#linearGradient3666" id="linearGradient2525" y2="9.8754826" x2="3.0525408" y1="2.189693" x1="3.0525408"/>
    <linearGradient id="linearGradient3666">
      <stop offset="0" style="stop-color:#a5bed8;stop-opacity:1" id="stop3668"/>
      <stop offset="1" style="stop-color:#597ba0;stop-opacity:1" id="stop3670"/>
    </linearGradient>
    <linearGradient gradientTransform="matrix(1.2117666,0,0,1.1795605,-128.57369,36.489797)" gradientUnits="userSpaceOnUse" xlink:href="#linearGradient3522" id="linearGradient2531" y2="17.147078" x2="142.41496" y1="-2.4709435" x1="142.41496"/>
    <linearGradient id="linearGradient3522">
      <stop offset="0" style="stop-color:#81aac3;stop-opacity:1" id="stop3524"/>
      <stop offset="1" style="stop-color:#4e82a3;stop-opacity:1" id="stop3526"/>
    </linearGradient>
    <radialGradient gradientTransform="matrix(-0.03212956,0,0,0.02325004,52.363211,47.480988)" gradientUnits="userSpaceOnUse" xlink:href="#linearGradient5060" id="radialGradient2536" fy="486.64789" fx="605.71429" r="117.14286" cy="486.64789" cx="605.71429"/>
    <linearGradient id="linearGradient5060">
      <stop offset="0" style="stop-color:#000000;stop-opacity:1" id="stop5062"/>
      <stop offset="1" style="stop-color:#000000;stop-opacity:0" id="stop5064"/>
    </linearGradient>
    <linearGradient gradientTransform="matrix(0.04772373,0,0,0.02325004,27.214563,47.480988)" gradientUnits="userSpaceOnUse" xlink:href="#linearGradient5048" id="linearGradient2539" y2="609.50507" x2="302.85715" y1="366.64789" x1="302.85715"/>
    <linearGradient id="linearGradient5048">
      <stop offset="0" style="stop-color:#000000;stop-opacity:0" id="stop5050"/>
      <stop offset="0.5" style="stop-color:#000000;stop-opacity:1" id="stop5056"/>
      <stop offset="1" style="stop-color:#000000;stop-opacity:0" id="stop5052"/>
    </linearGradient>
    <radialGradient gradientTransform="matrix(0.03212956,0,0,0.02325004,36.636789,47.480988)" gradientUnits="userSpaceOnUse" xlink:href="#linearGradient5060" id="radialGradient2542" fy="486.64789" fx="605.71429" r="117.14286" cy="486.64789" cx="605.71429"/>
    <linearGradient id="linearGradient5060-820">
      <stop offset="0" style="stop-color:#000000;stop-opacity:1" id="stop2681"/>
      <stop offset="1" style="stop-color:#000000;stop-opacity:0" id="stop2683"/>
    </linearGradient>
    <linearGradient id="linearGradient6404">
      <stop offset="0" style="stop-color:#f9f9f9;stop-opacity:1" id="stop6406"/>
      <stop offset="1" style="stop-color:#c9c9c9;stop-opacity:1" id="stop6408"/>
    </linearGradient>
    <linearGradient id="linearGradient3484">
      <stop offset="0" style="stop-color:#bdbdbd;stop-opacity:1" id="stop3486"/>
      <stop offset="1" style="stop-color:#d0d0d0;stop-opacity:1" id="stop3488"/>
    </linearGradient>
    <linearGradient id="linearGradient5048-585">
      <stop offset="0" style="stop-color:#000000;stop-opacity:0" id="stop2667"/>
      <stop offset="0.5" style="stop-color:#000000;stop-opacity:1" id="stop2669"/>
      <stop offset="1" style="stop-color:#000000;stop-opacity:0" id="stop2671"/>
    </linearGradient>
    <linearGradient id="linearGradient7012-661-145-733-759-865-745">
      <stop offset="0" style="stop-color:#aacb7d;stop-opacity:1" id="stop2699"/>
      <stop offset="1" style="stop-color:#709937;stop-opacity:1" id="stop2701"/>
    </linearGradient>
    <linearGradient id="linearGradient3390">
      <stop offset="0" style="stop-color:#51751e;stop-opacity:1" id="stop3392"/>
      <stop offset="1" style="stop-color:#51751e;stop-opacity:1" id="stop3394"/>
    </linearGradient>
    <linearGradient id="linearGradient6129-963-697-142-998-580-273">
      <stop offset="0" style="stop-color:#0a0a0a;stop-opacity:0.498" id="stop2661"/>
      <stop offset="1" style="stop-color:#0a0a0a;stop-opacity:0" id="stop2663"/>
    </linearGradient>
    <linearGradient id="linearGradient6087-437-184-795-110-662-495">
      <stop offset="0" style="stop-color:#ffffff;stop-opacity:0.40000001" id="stop2693"/>
      <stop offset="1" style="stop-color:#ffffff;stop-opacity:0" id="stop2695"/>
    </linearGradient>
    <linearGradient id="linearGradient8265-821-176-38-919-66-249">
      <stop offset="0" style="stop-color:#ffffff;stop-opacity:0.27450982" id="stop2687"/>
      <stop offset="1" style="stop-color:#ffffff;stop-opacity:0.07843138" id="stop2689"/>
    </linearGradient>
  </defs>
  <sodipodi:namedview id="base" pagecolor="#ffffff" bordercolor="#666666" borderopacity="1.0" inkscape:pageopacity="0.0" inkscape:pageshadow="2" inkscape:zoom="5.5" inkscape:cx="-1.0909091" inkscape:cy="32" inkscape:current-layer="layer1" showgrid="true" inkscape:document-units="px" inkscape:grid-bbox="true" inkscape:window-width="920" inkscape:window-height="414" inkscape:window-x="847" inkscape:window-y="215" inkscape:window-maximized="0"/>
  <metadata id="metadata23618">
    <rdf:RDF>
      <cc:Work rdf:about="">
        <dc:format>image/svg+xml</dc:format>
        <dc:type rdf:resource="http://purl.org/dc/dcmitype/StillImage"/>
        <dc:title/>
      </cc:Work>
    </rdf:RDF>
  </metadata>
  <g id="layer1" inkscape:label="Layer 1" inkscape:groupmode="layer">
    <path inkscape:connector-curvature="0" style="color:#000000;fill:url(#linearGradient23611);fill-opacity:1;fill-rule:nonzero;stroke:none;stroke-width:1.00000012;marker:none;visibility:visible;display:inline;overflow:visible;enable-background:accumulate" d="m 7.5006657,10.000001 c -0.277,0 -0.5,0.223 -0.5,0.5 l 0,3.5 -2.5,0 c -0.277,0 -0.5,0.223 -0.5,0.5 l 0,9.5 c 0,0.277 0.223,0.5 0.5,0.5 l 55.0000003,0 c 0.277,0 0.5,-0.223 0.5,-0.5 l 0,-9.5 c 0,-0.277 -0.223,-0.5 -0.5,-0.5 l -31.5,0 0,-3.5 c 0,-0.277 -0.223,-0.5 -0.5,-0.5 l -20.0000003,0 z" id="use5250"/>
    <path style="opacity:0.8;color:#000000;fill:none;stroke:url(#linearGradient5970);stroke-width:1;stroke-linecap:butt;stroke-linejoin:miter;stroke-miterlimit:4;stroke-opacity:1;stroke-dasharray:none;stroke-dashoffset:0;marker:none;visibility:visible;display:inline;overflow:visible;enable-background:accumulate" id="use5252" inkscape:connector-curvature="0" d="m 8.0006657,9.5001606 c -0.91501,0.0102 -1.5,0.45618 -1.5,1.3332904 l 0,2.66655 -1.506,0 c -0.99492,0 -1.494,0.47358 -1.494,1.34217 0.0456,13.71958 0,14.49301 0,15.65783 1.90283,0 56.9999903,-4.9328 56.9999903,-7.05611 l 0,-8.44389 c 0,-1.00007 -0.49994,-1.5 -1.49999,-1.5 l -30.5,0 0,-2.66655 c 0,-0.8771104 -0.22453,-1.3435104 -1.13954,-1.3332904 z" sodipodi:nodetypes="cscsccssscccc"/>
    <path inkscape:connector-curvature="0" style="color:#000000;fill:none;stroke:url(#linearGradient5974);stroke-width:0.99999976;stroke-linecap:round;stroke-linejoin:round;stroke-miterlimit:4;stroke-opacity:1;stroke-dasharray:none;stroke-dashoffset:0;marker:none;visibility:visible;display:inline;overflow:visible;enable-background:accumulate" d="m 7.5006657,10.500001 0,4 -3,0 0,10 55.0000003,0 0,-10 -32,0 0,-4 -20.0000003,0 z" id="use5254"/>
    <path style="opacity:0.3;fill:url(#radialGradient5978);fill-opacity:1;fill-rule:nonzero;stroke:none;stroke-width:1;marker:none;visibility:visible;display:inline;overflow:visible" id="use5256" inkscape:connector-curvature="0" d="m 58.000666,52.99993 c 0,0 0,7.999911 0,7.999911 2.06824,0.0151 5,-1.79238 5,-4.000471 0,-2.2081 -2.308,-3.99944 -5,-3.99944 z"/>
    <rect style="opacity:0.3;fill:url(#linearGradient5982);fill-opacity:1;fill-rule:nonzero;stroke:none;stroke-width:1;marker:none;visibility:visible;display:inline;overflow:visible" id="use5258" y="53" x="6.0006642" height="8" width="52"/>
    <path style="opacity:0.3;fill:url(#radialGradient5986);fill-opacity:1;fill-rule:nonzero;stroke:none;stroke-width:1;marker:none;visibility:visible;display:inline;overflow:visible" id="use5260" inkscape:connector-curvature="0" d="m 6.0006657,52.99993 c 0,0 0,7.999911 0,7.999911 -2.06825,0.0151 -5,-1.79238 -5,-4.000471 0,-2.2081 2.308,-3.99944 5,-3.99944 z"/>
    <path style="color:#000000;fill:url(#linearGradient5990);fill-opacity:1;fill-rule:nonzero;stroke:none;stroke-width:0.99999982;marker:none;visibility:visible;display:inline;overflow:visible;enable-background:accumulate" id="use5262" inkscape:connector-curvature="0" d="m 2.5042057,20.532111 c -1.44043,0.16346 -0.87122,1.85289 -0.98607,2.8029 0.5271,11.19318 1.25951,21.808849 1.78336,33.002099 0,1.18996 1.19486,1.13653 1.86516,1.13653 0,0 36.7742103,0 54.4905103,0 1.46281,-0.14093 0.85463,-1.86024 1.0604,-2.8442 0.52711,-11.19317 1.25992,-21.568889 1.78376,-32.762139 0.0178,-0.7521 -0.50074,-1.33519 -1.21534,-1.33519 0,0 -39.86255,0 -58.7817803,0 z" sodipodi:nodetypes="ccccccccc"/>
    <path style="opacity:0.4;fill:url(#linearGradient5994);fill-opacity:1;stroke:none" id="use5264" inkscape:connector-curvature="0" d="m 2.4097557,20.000001 59.1818103,5.3e-4 c 0.85499,0 1.4091,0.5839 1.4091,1.30984 l -1.6775,35.379289 c 0,0.72593 -0.68831,1.310341 -1.54329,1.310341 l -55.5584403,0 c -0.85498,0 -1.54329,-0.584411 -1.54329,-1.310341 l -1.67748,-35.379309 c 0,-0.72594 0.5541,-1.31035 1.40909,-1.31035 z"/>
    <path style="opacity:0.5;color:#000000;fill:none;stroke:url(#linearGradient5998);stroke-width:0.99999988;stroke-linecap:round;stroke-linejoin:round;stroke-miterlimit:4;stroke-opacity:1;stroke-dasharray:none;stroke-dashoffset:0;marker:none;visibility:visible;display:inline;overflow:visible;enable-background:accumulate" d="m 61.069096,21.500001 -57.1179403,0.0313 c -1.70924,0 -1.43419,0.0338 -1.43419,1.07579 l 1.62114,32.913579 c 0.0163,0.94321 -0.0656,0.9793 1.0726,0.9793 0,0 36.7779503,0 54.4396603,0 0.53983,-11.58225 1.25805,-22.682259 1.81479,-34.321819 0.0519,-0.55489 0.0134,-0.67818 -0.39606,-0.67818 z" id="use5266" inkscape:connector-curvature="0" sodipodi:nodetypes="cccccccc"/>
    <path style="opacity:0.3;color:#000000;fill:none;stroke:#000000;stroke-width:0.99999982;stroke-linecap:round;stroke-linejoin:round;stroke-miterlimit:4;stroke-opacity:1;stroke-dasharray:none;stroke-dashoffset:0;marker:none;visibility:visible;display:inline;overflow:visible;enable-background:accumulate" id="use5262-2" inkscape:connector-curvature="0" d="m 2.5042057,20.532111 c -1.44043,0.16346 -0.87122,1.85289 -0.98607,2.8029 0.5271,11.19318 1.25951,21.808849 1.78336,33.002099 0,1.18996 1.19486,1.13653 1.86516,1.13653 0,0 36.7742103,0 54.4905103,0 1.46281,-0.14093 0.85463,-1.86024 1.0604,-2.8442 0.52711,-11.19317 1.25992,-21.568889 1.78376,-32.762139 0.0178,-0.7521 -0.50074,-1.33519 -1.21534,-1.33519 0,0 -39.86255,0 -58.7817803,0 z" sodipodi:nodetypes="ccccccccc"/>
    <g id="g3075">
      <rect style="opacity:0.40206185;fill:url(#linearGradient3081);fill-opacity:1;fill-rule:nonzero;stroke:none;stroke-width:1;marker:none;visibility:visible;display:inline;overflow:visible" id="rect2846" y="56.005562" x="32.941414" height="5.6464386" width="23.043743"/>
      <path inkscape:connector-curvature="0" style="opacity:0.40206185;fill:url(#radialGradient3078);fill-opacity:1;fill-rule:nonzero;stroke:none;stroke-width:1;marker:none;visibility:visible;display:inline;overflow:visible" id="path2848" d="m 33,56.005762 c 0,0 0,5.646126 0,5.646126 -1.654593,0.01063 -4,-1.26501 -4,-2.823426 0,-1.558415 1.846401,-2.8227 4,-2.8227 l 0,0 0,0 0,0 z"/>
      <path inkscape:connector-curvature="0" style="fill:#4d4d4d;fill-opacity:1;fill-rule:nonzero;stroke:#333333;stroke-width:0.99999994;stroke-linecap:butt;stroke-linejoin:round;stroke-miterlimit:4;stroke-opacity:1;stroke-dasharray:none;stroke-dashoffset:0;marker:none;visibility:visible;display:block;overflow:visible;enable-background:accumulate" id="path2850" d="m 35.5,59.499151 c -1.597693,0 -3.195386,0 -4.79308,0 -0.388336,-0.390643 -0.09305,-1.16623 -0.185309,-1.71926 0,-10.361089 0,-20.722176 0,-31.083263 l 0.05416,-0.134171 0.131154,-0.0554 0,0 c 1.662872,0 3.065025,0 4.727899,0"/>
      <path inkscape:connector-curvature="0" style="fill:#4d4d4d;fill-opacity:1;fill-rule:nonzero;stroke:#333333;stroke-width:0.99999982;stroke-linecap:butt;stroke-linejoin:round;stroke-miterlimit:4;stroke-opacity:1;stroke-dasharray:none;stroke-dashoffset:0;marker:none;visibility:visible;display:block;overflow:visible;enable-background:accumulate" id="path2852" d="m 52.5,26.506602 c 1.612046,0 3.217197,0 4.810302,0 0.226152,0 0.18713,1.035716 0.18713,1.718156 0,10.354435 2e-6,20.708868 2e-6,31.063301 -0.497434,0.220237 -1.697121,0.189453 -1.697121,0.189453 0,0 -3.259822,0 -3.259822,0"/>
      <rect style="fill:url(#linearGradient3073);fill-opacity:1;fill-rule:nonzero;stroke:#333333;stroke-width:1;stroke-linecap:butt;stroke-linejoin:miter;stroke-miterlimit:4;stroke-opacity:1;stroke-dasharray:none;stroke-dashoffset:0;marker:none;visibility:visible;display:inline;overflow:visible;enable-background:accumulate" id="rect2854" y="26.5" x="34.5" ry="0" rx="0" height="33" width="19"/>
      <path inkscape:connector-curvature="0" style="fill:none;stroke:#333333;stroke-width:1;stroke-linecap:square;stroke-linejoin:round;stroke-miterlimit:4;stroke-opacity:1;stroke-dasharray:none" id="path2856" d="m 35.5,43.499603 17.002976,0"/>
      <path inkscape:connector-curvature="0" style="opacity:0.36637932;fill:none;stroke:#ffffff;stroke-width:1;stroke-linecap:square;stroke-linejoin:round;stroke-miterlimit:4;stroke-opacity:1;stroke-dasharray:none;stroke-dashoffset:0;marker:none;visibility:visible;display:block;overflow:visible" id="path2858" d="m 35.504159,27.499603 c 5.664886,0 11.329772,0 16.994658,0"/>
      <path inkscape:connector-curvature="0" style="opacity:0.36637932;fill:none;stroke:#ffffff;stroke-width:1;stroke-linecap:square;stroke-linejoin:round;stroke-miterlimit:4;stroke-opacity:1;stroke-dasharray:none;stroke-dashoffset:0;marker:none;visibility:visible;display:block;overflow:visible" id="path2860" d="m 35.504159,44.499603 c 5.664886,0 11.329772,0 16.994658,0"/>
      <path inkscape:connector-curvature="0" style="fill:url(#linearGradient3067);fill-opacity:1;stroke:none" id="path2862" d="m 31,29 3,0 0,3 -3,0 0,-3 z m 0,5 3,0 0,3 -3,0 0,-3 z m 0,5 3,0 0,3 -3,0 0,-3 z m 0,5 3,0 0,3 -3,0 0,-3 z m 0,5 3,0 0,3 c 0,0 -3,0 -3,0 l 0,-3 z m 0,5 3,0 0,3 -3,0 0,-3 z"/>
      <path inkscape:connector-curvature="0" style="fill:url(#linearGradient3064);fill-opacity:1;fill-rule:nonzero;stroke:none;stroke-width:0.58672291;marker:none;visibility:visible;display:inline;overflow:visible;enable-background:accumulate" id="path2943" d="m 54,29 3,0 0,3 -3,0 0,-3 z m 0,5 3,0 0,3 -3,0 0,-3 z m 0,5 3,0 0,3 -3,0 0,-3 z m 0,5 3,0 0,3 -3,0 0,-3 z m 0,5 3,0 0,3 c 0,0 -3,0 -3,0 l 0,-3 z m 0,5 3,0 0,3 -3,0 0,-3 z"/>
    </g>
  </g>
</svg>
