<!-- Created with Inkscape (http://www.inkscape.org/) -->
<svg xmlns:dc="http://purl.org/dc/elements/1.1/" xmlns:cc="http://creativecommons.org/ns#" xmlns:rdf="http://www.w3.org/1999/02/22-rdf-syntax-ns#" xmlns:svg="http://www.w3.org/2000/svg" xmlns="http://www.w3.org/2000/svg" xmlns:xlink="http://www.w3.org/1999/xlink" xmlns:sodipodi="http://sodipodi.sourceforge.net/DTD/sodipodi-0.dtd" xmlns:inkscape="http://www.inkscape.org/namespaces/inkscape" width="64px" height="64px" id="svg24200" version="1.1" inkscape:version="0.48.4 r9939" sodipodi:docname="folder-remote.svg">
  <defs id="defs24202">
    <linearGradient inkscape:collect="always" xlink:href="#linearGradient8272-8-8" id="linearGradient22586" gradientUnits="userSpaceOnUse" gradientTransform="matrix(1.3210282,0,0,1.2679796,-70.729884,0.17381059)" x1="97.538795" y1="16.962049" x2="97.538795" y2="44.260689"/>
    <linearGradient id="linearGradient8272-8-8">
      <stop offset="0" style="stop-color:#ffffff;stop-opacity:1" id="stop8274-4"/>
      <stop offset="0.0221225" style="stop-color:#ffffff;stop-opacity:0.23529412" id="stop8276-5"/>
      <stop offset="0.97909725" style="stop-color:#ffffff;stop-opacity:0.15686275" id="stop8278-0"/>
      <stop offset="1" style="stop-color:#ffffff;stop-opacity:0.39215687" id="stop8280-5-9"/>
    </linearGradient>
    <linearGradient inkscape:collect="always" xlink:href="#linearGradient6129-963-697-142-998-580-273-9" id="linearGradient22582" gradientUnits="userSpaceOnUse" gradientTransform="matrix(1.5432898,0,0,1.3103449,-5.0382943,0.34483059)" x1="22.934725" y1="49.629246" x2="22.809399" y2="36.657963"/>
    <linearGradient id="linearGradient6129-963-697-142-998-580-273-9">
      <stop id="stop2661-3" style="stop-color:#0a0a0a;stop-opacity:0.498" offset="0"/>
      <stop id="stop2663-33" style="stop-color:#0a0a0a;stop-opacity:0" offset="1"/>
    </linearGradient>
    <linearGradient inkscape:collect="always" xlink:href="#linearGradient4632-0-6-4-4-4" id="linearGradient22578" gradientUnits="userSpaceOnUse" gradientTransform="matrix(0.50413225,0,0,0.49333391,73.843636,-1.4532894)" x1="-91" y1="43.999817" x2="-91" y2="119.05979"/>
    <linearGradient id="linearGradient4632-0-6-4-4-4">
      <stop style="stop-color:#aacb7d;stop-opacity:1;" offset="0" id="stop4634-4-4-7-4"/>
      <stop style="stop-color:#709937;stop-opacity:1;" offset="1" id="stop4636-3-1-5-9"/>
    </linearGradient>
    <radialGradient inkscape:collect="always" xlink:href="#linearGradient5060-820-8" id="radialGradient22574" gradientUnits="userSpaceOnUse" gradientTransform="matrix(-0.04016195,0,0,0.0329426,30.204676,40.92132)" cx="605.71429" cy="486.64789" fx="605.71429" fy="486.64789" r="117.14286"/>
    <linearGradient id="linearGradient5060-820-8">
      <stop id="stop2681-37" style="stop-color:#000000;stop-opacity:1" offset="0"/>
      <stop id="stop2683-05" style="stop-color:#000000;stop-opacity:0" offset="1"/>
    </linearGradient>
    <linearGradient inkscape:collect="always" xlink:href="#linearGradient5048-585-1" id="linearGradient22570" gradientUnits="userSpaceOnUse" gradientTransform="matrix(0.1076923,0,0,0.03294117,-6.9224143,40.92219)" x1="302.85715" y1="366.64789" x2="302.85715" y2="609.50507"/>
    <linearGradient id="linearGradient5048-585-1">
      <stop id="stop2667-0" style="stop-color:#000000;stop-opacity:0" offset="0"/>
      <stop id="stop2669-91" style="stop-color:#000000;stop-opacity:1" offset="0.5"/>
      <stop id="stop2671-6" style="stop-color:#000000;stop-opacity:0" offset="1"/>
    </linearGradient>
    <radialGradient inkscape:collect="always" xlink:href="#linearGradient5060-820-8" id="radialGradient22566" gradientUnits="userSpaceOnUse" gradientTransform="matrix(0.04016195,0,0,0.0329426,33.796646,40.92132)" cx="605.71429" cy="486.64789" fx="605.71429" fy="486.64789" r="117.14286"/>
    <linearGradient inkscape:collect="always" xlink:href="#linearGradient9235-9" id="linearGradient22562" gradientUnits="userSpaceOnUse" gradientTransform="matrix(1.2749674,0,0,1.218292,-67.158524,-0.33920941)" x1="97.538795" y1="8.8103228" x2="97.538795" y2="44.260689"/>
    <linearGradient id="linearGradient9235-9">
      <stop id="stop9237-7" style="stop-color:#ffffff;stop-opacity:1" offset="0"/>
      <stop id="stop9239-2-3" style="stop-color:#ffffff;stop-opacity:0.23529412" offset="0.1088333"/>
      <stop id="stop9241-1" style="stop-color:#ffffff;stop-opacity:0.15686275" offset="0.97909725"/>
      <stop id="stop9243-5" style="stop-color:#ffffff;stop-opacity:0.39215687" offset="1"/>
    </linearGradient>
    <linearGradient inkscape:collect="always" xlink:href="#linearGradient3104-8-8-97-4-6-11-5-5-1-0-5" id="linearGradient22558" gradientUnits="userSpaceOnUse" gradientTransform="matrix(1.0563766,0,0,1.0770552,69.975816,-2.5296494)" x1="-51.786404" y1="53.514328" x2="-51.786404" y2="3.6336823"/>
    <linearGradient id="linearGradient3104-8-8-97-4-6-11-5-5-1-0-5">
      <stop offset="0" style="stop-color:#000000;stop-opacity:0.32173914" id="stop3106-5-4-3-5-0-2-1-0-1-2-7"/>
      <stop offset="1" style="stop-color:#000000;stop-opacity:0.27826086" id="stop3108-4-3-7-8-2-0-7-9-4-9-4-5"/>
    </linearGradient>
    <linearGradient id="linearGradient6404-7-5-7">
      <stop id="stop6406-1-8-2" style="stop-color:#f9f9f9;stop-opacity:1" offset="0"/>
      <stop id="stop6408-9-6-4" style="stop-color:#c9c9c9;stop-opacity:1" offset="1"/>
    </linearGradient>
    <linearGradient y2="16.997795" x2="62.988873" y1="14.090554" x1="62.988873" gradientTransform="matrix(1.3135526,0,0,1.2900554,-55.484954,-1.2218594)" gradientUnits="userSpaceOnUse" id="linearGradient24198" xlink:href="#linearGradient6404-7-5-7" inkscape:collect="always"/>
    <linearGradient gradientUnits="userSpaceOnUse" y2="57.55957" x2="30.196581" y1="20.242449" x1="30.196581" id="linearGradient3948" xlink:href="#linearGradient7012-661-145-733-759-865-745" inkscape:collect="always"/>
    <radialGradient r="117.14286" fy="486.64789" fx="605.71429" cy="486.64789" cx="605.71429" gradientTransform="matrix(0.04016195,0,0,0.0329426,33.795982,40.921317)" gradientUnits="userSpaceOnUse" id="radialGradient3178" xlink:href="#linearGradient5060-820" inkscape:collect="always"/>
    <radialGradient r="21" fy="-17.82061" fx="2.9999998" cy="-17.82061" cx="2.9999998" gradientTransform="matrix(-1.7093459e-8,2.2713251,-2.8951677,-1.9343515e-8,-48.593318,2.3972382)" gradientUnits="userSpaceOnUse" id="radialGradient3175" xlink:href="#linearGradient3484" inkscape:collect="always"/>
    <linearGradient y2="16.19013" x2="62.988873" y1="13.182598" x1="62.988873" gradientTransform="matrix(1.3407707,0,0,1.3249351,-134.0678,-1.3881028)" gradientUnits="userSpaceOnUse" id="linearGradient3173" xlink:href="#linearGradient6404" inkscape:collect="always"/>
    <linearGradient y2="609.50507" x2="302.85715" y1="366.64789" x1="302.85715" gradientTransform="matrix(0.1076923,0,0,0.03294117,-6.9230773,40.922188)" gradientUnits="userSpaceOnUse" id="linearGradient3170" xlink:href="#linearGradient5048-585" inkscape:collect="always"/>
    <radialGradient r="117.14286" fy="486.64789" fx="605.71429" cy="486.64789" cx="605.71429" gradientTransform="matrix(-0.04016195,0,0,0.0329426,30.204018,40.921317)" gradientUnits="userSpaceOnUse" id="radialGradient3167" xlink:href="#linearGradient5060-820" inkscape:collect="always"/>
    <linearGradient y2="15.943953" x2="65.340263" y1="45.114193" x1="82.453476" gradientTransform="matrix(1.3407998,0,0,1.3264587,-72.462643,-1.6032277)" gradientUnits="userSpaceOnUse" id="linearGradient3164" xlink:href="#linearGradient3390" inkscape:collect="always"/>
    <linearGradient y2="36.657963" x2="22.809399" y1="49.629246" x1="22.934725" gradientTransform="matrix(1.5347702,0,0,1.3270123,-5.0206145,-0.04854157)" gradientUnits="userSpaceOnUse" id="linearGradient3159" xlink:href="#linearGradient6129-963-697-142-998-580-273" inkscape:collect="always"/>
    <radialGradient r="20.979567" fy="8.3021259" fx="7.2646537" cy="8.3021259" cx="7.2646537" gradientTransform="matrix(0,1.606606,-2.1816541,0,34.685541,9.28484)" gradientUnits="userSpaceOnUse" id="radialGradient3156" xlink:href="#linearGradient6087-437-184-795-110-662-495" inkscape:collect="always"/>
    <linearGradient y2="33.95525" x2="15.214532" y1="22.292103" x1="11.566265" gradientTransform="matrix(1.3407707,0,0,1.33,-0.3733138,-1.3099814)" gradientUnits="userSpaceOnUse" id="linearGradient3153" xlink:href="#linearGradient8265-821-176-38-919-66-249" inkscape:collect="always"/>
    <linearGradient y2="34.5625" x2="-7.78125" y1="32.4375" x1="-6.40625" gradientTransform="matrix(-0.5248057,0,0,0.5248057,-23.960382,22.595691)" gradientUnits="userSpaceOnUse" id="linearGradient2626" xlink:href="#linearGradient7812" inkscape:collect="always"/>
    <linearGradient y2="55.000004" x2="-4.1097827" y1="58.807774" x1="-4.1097827" gradientTransform="matrix(-0.5904064,0,0,0.6122733,-21.795558,4.6812298)" gradientUnits="userSpaceOnUse" id="linearGradient2624" xlink:href="#linearGradient7269" inkscape:collect="always"/>
    <linearGradient y2="42.9375" x2="42.123722" y1="38.3125" x1="41.1875" gradientTransform="matrix(-0.5248057,0,0,0.5248057,-13.464268,22.595691)" gradientUnits="userSpaceOnUse" id="linearGradient2622" xlink:href="#linearGradient7660" inkscape:collect="always"/>
    <linearGradient y2="46.5625" x2="40.125" y1="40.625" x1="38.75" gradientTransform="matrix(-0.5248057,0,0,0.5248057,-13.464268,22.595691)" gradientUnits="userSpaceOnUse" id="linearGradient2620" xlink:href="#linearGradient7576-259" inkscape:collect="always"/>
    <linearGradient y2="45.0625" x2="38.875" y1="40.3125" x1="37.625" gradientTransform="matrix(-0.5248057,0,0,0.5248057,-13.464268,22.595691)" gradientUnits="userSpaceOnUse" id="linearGradient2618" xlink:href="#linearGradient7652-827" inkscape:collect="always"/>
    <linearGradient y2="24.6875" x2="30.3125" y1="27.313059" x1="30.3125" gradientUnits="userSpaceOnUse" id="linearGradient2616" xlink:href="#linearGradient7422" inkscape:collect="always"/>
    <linearGradient y2="24.6875" x2="30.3125" y1="27.313059" x1="30.3125" gradientTransform="translate(0.4182841,0.6976123)" gradientUnits="userSpaceOnUse" id="linearGradient2614" xlink:href="#linearGradient7422" inkscape:collect="always"/>
    <linearGradient y2="24.6875" x2="30.3125" y1="27.313059" x1="30.3125" gradientTransform="translate(0,0.6976123)" gradientUnits="userSpaceOnUse" id="linearGradient2612" xlink:href="#linearGradient7422" inkscape:collect="always"/>
    <linearGradient y2="24.6875" x2="30.3125" y1="27.313059" x1="30.3125" gradientTransform="translate(0,0.6976123)" gradientUnits="userSpaceOnUse" id="linearGradient2610" xlink:href="#linearGradient7422" inkscape:collect="always"/>
    <linearGradient y2="24.6875" x2="30.3125" y1="27.313059" x1="30.3125" gradientTransform="translate(-0.4180018,0.6976123)" gradientUnits="userSpaceOnUse" id="linearGradient2608" xlink:href="#linearGradient7422" inkscape:collect="always"/>
    <linearGradient y2="16" x2="29" y1="29" x1="28.875" gradientTransform="matrix(-0.5248057,0,0,0.5248057,39.675451,19.379085)" gradientUnits="userSpaceOnUse" id="linearGradient2606" xlink:href="#linearGradient7430" inkscape:collect="always"/>
    <linearGradient y2="26.204767" x2="32.8125" y1="21" x1="32.8125" gradientTransform="matrix(-0.6040217,0,0,0.6034002,42.824992,17.572943)" gradientUnits="userSpaceOnUse" id="linearGradient2604" xlink:href="#linearGradient7340" inkscape:collect="always"/>
    <linearGradient y2="59.444622" x2="-3.5355339" y1="55.866562" x1="-3.5355339" gradientTransform="matrix(-0.5248057,0,0,0.5398003,-21.861159,9.4005687)" gradientUnits="userSpaceOnUse" id="linearGradient2602" xlink:href="#linearGradient7277" inkscape:collect="always"/>
    <linearGradient y2="51.812416" x2="-5.96875" y1="52.875" x1="-5.96875" gradientTransform="matrix(-0.5248057,0,0,0.5248057,-21.861159,10.000355)" gradientUnits="userSpaceOnUse" id="linearGradient2600" xlink:href="#linearGradient7186" inkscape:collect="always"/>
    <linearGradient y2="49.458408" x2="0.26516503" y1="50.51907" x1="-5.0823302" gradientTransform="matrix(-0.5248057,0,0,0.5248057,-21.861159,10.000355)" gradientUnits="userSpaceOnUse" id="linearGradient2598" xlink:href="#linearGradient7245" inkscape:collect="always"/>
    <linearGradient y2="50.563263" x2="0.88388348" y1="52.640388" x1="-4.6845822" gradientTransform="matrix(-0.5248057,0,0,0.5248057,-21.861159,10.000355)" gradientUnits="userSpaceOnUse" id="linearGradient2596" xlink:href="#linearGradient7237" inkscape:collect="always"/>
    <linearGradient y2="54" x2="-3.3587573" y1="51.137787" x1="-1.9887378" gradientTransform="matrix(-0.5248057,0,0,0.5248057,-21.861159,10.000355)" gradientUnits="userSpaceOnUse" id="linearGradient2594" xlink:href="#linearGradient7257" inkscape:collect="always"/>
    <linearGradient y2="54.707691" x2="-4.2208939" y1="59.878922" x1="-4.2208939" gradientTransform="matrix(0.9642856,0,0,0.9722222,-0.2500008,1.6944444)" gradientUnits="userSpaceOnUse" id="linearGradient2592" xlink:href="#linearGradient7269" inkscape:collect="always"/>
    <linearGradient y2="54.415817" x2="0.82206726" y1="55.219357" x1="1.6256078" gradientTransform="matrix(1.0511791,0,0,1,0.1121129,0)" gradientUnits="userSpaceOnUse" id="linearGradient2590" xlink:href="#linearGradient7263" inkscape:collect="always"/>
    <linearGradient y2="18.937717" x2="-5.5098634" y1="3.7545938" x1="-7.8516631" gradientTransform="matrix(-1.2383554,0,0,1.2671099,16.951237,21.362825)" gradientUnits="userSpaceOnUse" id="linearGradient2588" xlink:href="#linearGradient7438" inkscape:collect="always"/>
    <linearGradient y2="-6.5683565" x2="-11.005972" y1="25.357235" x1="-7.975069" gradientTransform="matrix(1.1874999,0,0,1.2,-17.281253,21.899998)" gradientUnits="userSpaceOnUse" id="linearGradient2585" xlink:href="#linearGradient6991" inkscape:collect="always"/>
    <radialGradient r="8.7946405" fy="34.785942" fx="14.363107" cy="34.785942" cx="14.363107" gradientTransform="matrix(1,0,0,0.6884422,0,10.837832)" gradientUnits="userSpaceOnUse" id="radialGradient2583" xlink:href="#linearGradient7822" inkscape:collect="always"/>
    <linearGradient gradientTransform="matrix(1.3407707,0,0,1.33,-0.3733138,-1.3099814)" gradientUnits="userSpaceOnUse" xlink:href="#linearGradient8265-821-176-38-919-66-249" id="linearGradient2576" y2="33.95525" x2="15.214532" y1="22.292103" x1="11.566265"/>
    <linearGradient id="linearGradient8265-821-176-38-919-66-249">
      <stop offset="0" style="stop-color:#ffffff;stop-opacity:0.27450982" id="stop2687"/>
      <stop offset="1" style="stop-color:#ffffff;stop-opacity:0.07843138" id="stop2689"/>
    </linearGradient>
    <radialGradient gradientTransform="matrix(0,1.606606,-2.1816541,0,34.685541,9.28484)" gradientUnits="userSpaceOnUse" xlink:href="#linearGradient6087-437-184-795-110-662-495" id="radialGradient2579" fy="8.3021259" fx="7.2646537" r="20.979567" cy="8.3021259" cx="7.2646537"/>
    <linearGradient id="linearGradient6087-437-184-795-110-662-495">
      <stop offset="0" style="stop-color:#ffffff;stop-opacity:0.40000001" id="stop2693"/>
      <stop offset="1" style="stop-color:#ffffff;stop-opacity:0" id="stop2695"/>
    </linearGradient>
    <linearGradient gradientTransform="matrix(1.5347702,0,0,1.3270123,-5.0206145,-0.04854157)" gradientUnits="userSpaceOnUse" xlink:href="#linearGradient6129-963-697-142-998-580-273" id="linearGradient2582" y2="36.657963" x2="22.809399" y1="49.629246" x1="22.934725"/>
    <linearGradient id="linearGradient6129-963-697-142-998-580-273">
      <stop offset="0" style="stop-color:#0a0a0a;stop-opacity:0.498" id="stop2661"/>
      <stop offset="1" style="stop-color:#0a0a0a;stop-opacity:0" id="stop2663"/>
    </linearGradient>
    <radialGradient gradientTransform="matrix(2.0979394,-1.2620327e-7,8.2824269e-8,1.3475335,-115.96782,9.3537334)" gradientUnits="userSpaceOnUse" xlink:href="#linearGradient7012-661-145-733-759-865-745" id="radialGradient2585" fy="14.113381" fx="63.969177" r="23.097054" cy="14.113381" cx="63.969177"/>
    <linearGradient id="linearGradient7012-661-145-733-759-865-745">
      <stop offset="0" style="stop-color:#aacb7d;stop-opacity:1" id="stop2699"/>
      <stop offset="1" style="stop-color:#709937;stop-opacity:1" id="stop2701"/>
    </linearGradient>
    <linearGradient gradientTransform="matrix(1.3407998,0,0,1.3264587,-72.462643,-1.6032277)" gradientUnits="userSpaceOnUse" xlink:href="#linearGradient3390" id="linearGradient2587" y2="15.943953" x2="65.340263" y1="45.114193" x1="82.453476"/>
    <linearGradient id="linearGradient3390">
      <stop offset="0" style="stop-color:#51751e;stop-opacity:1" id="stop3392"/>
      <stop offset="1" style="stop-color:#51751e;stop-opacity:1" id="stop3394"/>
    </linearGradient>
    <radialGradient gradientTransform="matrix(-0.04016195,0,0,0.0329426,30.204018,40.921317)" gradientUnits="userSpaceOnUse" xlink:href="#linearGradient5060-820" id="radialGradient3403" fy="486.64789" fx="605.71429" r="117.14286" cy="486.64789" cx="605.71429"/>
    <linearGradient id="linearGradient5060-820">
      <stop offset="0" style="stop-color:#000000;stop-opacity:1" id="stop2681"/>
      <stop offset="1" style="stop-color:#000000;stop-opacity:0" id="stop2683"/>
    </linearGradient>
    <linearGradient gradientTransform="matrix(0.1076923,0,0,0.03294117,-6.9230773,40.922188)" gradientUnits="userSpaceOnUse" xlink:href="#linearGradient5048-585" id="linearGradient3409" y2="609.50507" x2="302.85715" y1="366.64789" x1="302.85715"/>
    <linearGradient id="linearGradient5048-585">
      <stop offset="0" style="stop-color:#000000;stop-opacity:0" id="stop2667"/>
      <stop offset="0.5" style="stop-color:#000000;stop-opacity:1" id="stop2669"/>
      <stop offset="1" style="stop-color:#000000;stop-opacity:0" id="stop2671"/>
    </linearGradient>
    <linearGradient gradientTransform="matrix(1.3407707,0,0,1.3249351,-134.0678,-1.3881028)" gradientUnits="userSpaceOnUse" xlink:href="#linearGradient6404" id="linearGradient3398" y2="16.19013" x2="62.988873" y1="13.182598" x1="62.988873"/>
    <linearGradient id="linearGradient6404">
      <stop offset="0" style="stop-color:#f9f9f9;stop-opacity:1" id="stop6406"/>
      <stop offset="1" style="stop-color:#c9c9c9;stop-opacity:1" id="stop6408"/>
    </linearGradient>
    <radialGradient gradientTransform="matrix(-1.7093459e-8,2.2713251,-2.8951677,-1.9343515e-8,-48.593318,2.3972382)" gradientUnits="userSpaceOnUse" xlink:href="#linearGradient3484" id="radialGradient3396" fy="-17.82061" fx="2.9999998" r="21" cy="-17.82061" cx="2.9999998"/>
    <linearGradient id="linearGradient3484">
      <stop offset="0" style="stop-color:#bdbdbd;stop-opacity:1" id="stop3486"/>
      <stop offset="1" style="stop-color:#d0d0d0;stop-opacity:1" id="stop3488"/>
    </linearGradient>
    <radialGradient gradientTransform="matrix(0.04016195,0,0,0.0329426,33.795982,40.921317)" gradientUnits="userSpaceOnUse" xlink:href="#linearGradient5060-820" id="radialGradient3413" fy="486.64789" fx="605.71429" r="117.14286" cy="486.64789" cx="605.71429"/>
    <radialGradient gradientTransform="matrix(1,0,0,0.6884422,0,10.837832)" gradientUnits="userSpaceOnUse" xlink:href="#linearGradient7822" id="radialGradient3041" fy="34.785942" fx="14.363107" r="8.7946405" cy="34.785942" cx="14.363107"/>
    <linearGradient id="linearGradient7822">
      <stop offset="0" style="stop-color:#000000;stop-opacity:1" id="stop7824"/>
      <stop offset="1" style="stop-color:#000000;stop-opacity:0" id="stop7826"/>
    </linearGradient>
    <linearGradient gradientTransform="matrix(1.1874999,0,0,1.2,-17.281253,21.899998)" gradientUnits="userSpaceOnUse" xlink:href="#linearGradient6991" id="linearGradient3043" y2="-6.5683565" x2="-11.005972" y1="25.357235" x1="-7.975069"/>
    <linearGradient id="linearGradient6991">
      <stop offset="0" style="stop-color:#d3d7cf;stop-opacity:1" id="stop6993"/>
      <stop offset="1" style="stop-color:#ffffff;stop-opacity:1" id="stop6995"/>
    </linearGradient>
    <linearGradient gradientTransform="matrix(-1.2383554,0,0,1.2671099,16.951237,21.362825)" gradientUnits="userSpaceOnUse" xlink:href="#linearGradient7438" id="linearGradient3045" y2="18.937717" x2="-5.5098634" y1="3.7545938" x1="-7.8516631"/>
    <linearGradient id="linearGradient7438">
      <stop offset="0" style="stop-color:#ffffff;stop-opacity:1" id="stop7440"/>
      <stop offset="1" style="stop-color:#ffffff;stop-opacity:0" id="stop7442"/>
    </linearGradient>
    <linearGradient gradientTransform="matrix(1.0511791,0,0,1,0.1121129,0)" gradientUnits="userSpaceOnUse" xlink:href="#linearGradient7263" id="linearGradient3047" y2="54.415817" x2="0.82206726" y1="55.219357" x1="1.6256078"/>
    <linearGradient id="linearGradient7263">
      <stop offset="0" style="stop-color:#adb0a8;stop-opacity:1" id="stop7265"/>
      <stop offset="1" style="stop-color:#ffffff;stop-opacity:1" id="stop7267"/>
    </linearGradient>
    <linearGradient gradientTransform="matrix(0.9642856,0,0,0.9722222,-0.2500008,1.6944444)" gradientUnits="userSpaceOnUse" xlink:href="#linearGradient7269" id="linearGradient3049" y2="54.707691" x2="-4.2208939" y1="59.878922" x1="-4.2208939"/>
    <linearGradient id="linearGradient7269">
      <stop offset="0" style="stop-color:#ffffff;stop-opacity:1" id="stop7271"/>
      <stop offset="1" style="stop-color:#d3d7cf;stop-opacity:1" id="stop7273"/>
    </linearGradient>
    <linearGradient gradientTransform="matrix(-0.5248057,0,0,0.5248057,-21.861159,10.000355)" gradientUnits="userSpaceOnUse" xlink:href="#linearGradient7257" id="linearGradient3051" y2="54" x2="-3.3587573" y1="51.137787" x1="-1.9887378"/>
    <linearGradient id="linearGradient7257">
      <stop offset="0" style="stop-color:#000000;stop-opacity:1" id="stop7259"/>
      <stop offset="1" style="stop-color:#000000;stop-opacity:0" id="stop7261"/>
    </linearGradient>
    <linearGradient gradientTransform="matrix(-0.5248057,0,0,0.5248057,-21.861159,10.000355)" gradientUnits="userSpaceOnUse" xlink:href="#linearGradient7237" id="linearGradient3053" y2="50.563263" x2="0.88388348" y1="52.640388" x1="-4.6845822"/>
    <linearGradient id="linearGradient7237">
      <stop offset="0" style="stop-color:#eeeeec;stop-opacity:1" id="stop7239"/>
      <stop offset="1" style="stop-color:#babdb6;stop-opacity:1" id="stop7241"/>
    </linearGradient>
    <linearGradient gradientTransform="matrix(-0.5248057,0,0,0.5248057,-21.861159,10.000355)" gradientUnits="userSpaceOnUse" xlink:href="#linearGradient7245" id="linearGradient3055" y2="49.458408" x2="0.26516503" y1="50.51907" x1="-5.0823302"/>
    <linearGradient id="linearGradient7245">
      <stop offset="0" style="stop-color:#eeeeec;stop-opacity:1" id="stop7247"/>
      <stop offset="1" style="stop-color:#ffffff;stop-opacity:1" id="stop7249"/>
    </linearGradient>
    <linearGradient gradientTransform="matrix(-0.5248057,0,0,0.5248057,-21.861159,10.000355)" gradientUnits="userSpaceOnUse" xlink:href="#linearGradient7186" id="linearGradient3057" y2="51.812416" x2="-5.96875" y1="52.875" x1="-5.96875"/>
    <linearGradient id="linearGradient7186">
      <stop offset="0" style="stop-color:#888a85;stop-opacity:1" id="stop7188"/>
      <stop offset="1" style="stop-color:#ffffff;stop-opacity:1" id="stop7190"/>
    </linearGradient>
    <linearGradient gradientTransform="matrix(-0.5248057,0,0,0.5398003,-21.861159,9.4005687)" gradientUnits="userSpaceOnUse" xlink:href="#linearGradient7277" id="linearGradient3059" y2="59.444622" x2="-3.5355339" y1="55.866562" x1="-3.5355339"/>
    <linearGradient id="linearGradient7277">
      <stop offset="0" style="stop-color:#555753;stop-opacity:1" id="stop7279"/>
      <stop offset="1" style="stop-color:#d3d7cf;stop-opacity:1" id="stop7281"/>
    </linearGradient>
    <linearGradient gradientTransform="matrix(-0.6040217,0,0,0.6034002,42.824992,17.572943)" gradientUnits="userSpaceOnUse" xlink:href="#linearGradient7340" id="linearGradient3061" y2="26.204767" x2="32.8125" y1="21" x1="32.8125"/>
    <linearGradient id="linearGradient7340">
      <stop offset="0" style="stop-color:#2e3436;stop-opacity:1" id="stop7342"/>
      <stop offset="1" style="stop-color:#555753;stop-opacity:1" id="stop7344"/>
    </linearGradient>
    <linearGradient gradientTransform="matrix(-0.5248057,0,0,0.5248057,39.675451,19.379085)" gradientUnits="userSpaceOnUse" xlink:href="#linearGradient7430" id="linearGradient3063" y2="16" x2="29" y1="29" x1="28.875"/>
    <linearGradient id="linearGradient7430">
      <stop offset="0" style="stop-color:#ffffff;stop-opacity:1" id="stop7432"/>
      <stop offset="1" style="stop-color:#ffffff;stop-opacity:0" id="stop7434"/>
    </linearGradient>
    <linearGradient gradientUnits="userSpaceOnUse" xlink:href="#linearGradient7422" id="linearGradient3073" y2="24.6875" x2="30.3125" y1="27.313059" x1="30.3125"/>
    <linearGradient id="linearGradient7422">
      <stop offset="0" style="stop-color:#edd400;stop-opacity:1" id="stop7424"/>
      <stop offset="1" style="stop-color:#edd400;stop-opacity:0" id="stop7426"/>
    </linearGradient>
    <linearGradient gradientTransform="translate(-0.4180018,0.6976123)" gradientUnits="userSpaceOnUse" xlink:href="#linearGradient7422" id="linearGradient3065" y2="24.6875" x2="30.3125" y1="27.313059" x1="30.3125"/>
    <linearGradient gradientTransform="translate(0,0.6976123)" gradientUnits="userSpaceOnUse" xlink:href="#linearGradient7422" id="linearGradient3067" y2="24.6875" x2="30.3125" y1="27.313059" x1="30.3125"/>
    <linearGradient gradientTransform="translate(0,0.6976123)" gradientUnits="userSpaceOnUse" xlink:href="#linearGradient7422" id="linearGradient3069" y2="24.6875" x2="30.3125" y1="27.313059" x1="30.3125"/>
    <linearGradient gradientTransform="translate(0.4182841,0.6976123)" gradientUnits="userSpaceOnUse" xlink:href="#linearGradient7422" id="linearGradient3071" y2="24.6875" x2="30.3125" y1="27.313059" x1="30.3125"/>
    <linearGradient gradientTransform="matrix(-0.5248057,0,0,0.5248057,-13.464268,22.595691)" gradientUnits="userSpaceOnUse" xlink:href="#linearGradient7652-827" id="linearGradient3075" y2="45.0625" x2="38.875" y1="40.3125" x1="37.625"/>
    <linearGradient id="linearGradient7652-827">
      <stop offset="0" style="stop-color:#dbdbdb;stop-opacity:1" id="stop3225"/>
      <stop offset="1" style="stop-color:#a0a0a0;stop-opacity:0" id="stop3227"/>
    </linearGradient>
    <linearGradient gradientTransform="matrix(-0.5248057,0,0,0.5248057,-13.464268,22.595691)" gradientUnits="userSpaceOnUse" xlink:href="#linearGradient7576-259" id="linearGradient3077" y2="46.5625" x2="40.125" y1="40.625" x1="38.75"/>
    <linearGradient id="linearGradient7576-259">
      <stop offset="0" style="stop-color:#787878;stop-opacity:1" id="stop3231"/>
      <stop offset="1" style="stop-color:#6c6c6c;stop-opacity:0" id="stop3233"/>
    </linearGradient>
    <linearGradient gradientTransform="matrix(-0.5248057,0,0,0.5248057,-13.464268,22.595691)" gradientUnits="userSpaceOnUse" xlink:href="#linearGradient7660" id="linearGradient3079" y2="42.9375" x2="42.123722" y1="38.3125" x1="41.1875"/>
    <linearGradient id="linearGradient7660">
      <stop offset="0" style="stop-color:#ffffff;stop-opacity:1" id="stop7662"/>
      <stop offset="1" style="stop-color:#ffffff;stop-opacity:0" id="stop7664"/>
    </linearGradient>
    <linearGradient gradientTransform="matrix(-0.5904064,0,0,0.6122733,-21.795558,4.6812298)" gradientUnits="userSpaceOnUse" xlink:href="#linearGradient7269" id="linearGradient3081" y2="55.000004" x2="-4.1097827" y1="58.807774" x1="-4.1097827"/>
    <linearGradient gradientTransform="matrix(-0.5248057,0,0,0.5248057,-23.960382,22.595691)" gradientUnits="userSpaceOnUse" xlink:href="#linearGradient7812" id="linearGradient3115" y2="34.5625" x2="-7.78125" y1="32.4375" x1="-6.40625"/>
    <linearGradient id="linearGradient7812">
      <stop offset="0" style="stop-color:#000000;stop-opacity:1" id="stop7814"/>
      <stop offset="1" style="stop-color:#000000;stop-opacity:0" id="stop7816"/>
    </linearGradient>
  </defs>
  <sodipodi:namedview id="base" pagecolor="#ffffff" bordercolor="#666666" borderopacity="1.0" inkscape:pageopacity="0.0" inkscape:pageshadow="2" inkscape:zoom="5.5" inkscape:cx="-1.0909091" inkscape:cy="32" inkscape:current-layer="layer1" showgrid="true" inkscape:document-units="px" inkscape:grid-bbox="true" inkscape:window-width="988" inkscape:window-height="560" inkscape:window-x="562" inkscape:window-y="206" inkscape:window-maximized="0"/>
  <metadata id="metadata24205">
    <rdf:RDF>
      <cc:Work rdf:about="">
        <dc:format>image/svg+xml</dc:format>
        <dc:type rdf:resource="http://purl.org/dc/dcmitype/StillImage"/>
        <dc:title/>
      </cc:Work>
    </rdf:RDF>
  </metadata>
  <g id="layer1" inkscape:label="Layer 1" inkscape:groupmode="layer">
    <path id="use10570" d="m 7.5006657,10.000001 c -0.277,0 -0.5,0.223 -0.5,0.5 l 0,3.5 -2.5,0 c -0.277,0 -0.5,0.223 -0.5,0.5 l 0,9.5 c 0,0.277 0.223,0.5 0.5,0.5 l 55.0000003,0 c 0.277,0 0.5,-0.223 0.5,-0.5 l 0,-9.5 c 0,-0.277 -0.223,-0.5 -0.5,-0.5 l -31.5,0 0,-3.5 c 0,-0.277 -0.223,-0.5 -0.5,-0.5 l -20.0000003,0 z" style="color:#000000;fill:url(#linearGradient24198);fill-opacity:1;fill-rule:nonzero;stroke:none;stroke-width:1.00000012;marker:none;visibility:visible;display:inline;overflow:visible;enable-background:accumulate" inkscape:connector-curvature="0"/>
    <path sodipodi:nodetypes="cscsccssscccc" d="m 8.0006657,9.5001606 c -0.91501,0.0102 -1.5,0.45618 -1.5,1.3332904 l 0,2.66655 -1.506,0 c -0.99492,0 -1.494,0.47358 -1.494,1.34217 0.0456,13.71958 0,14.49301 0,15.65783 1.90283,0 56.9999903,-4.9328 56.9999903,-7.05611 l 0,-8.44389 c 0,-1.00007 -0.49994,-1.5 -1.49999,-1.5 l -30.5,0 0,-2.66655 c 0,-0.8771104 -0.22453,-1.3435104 -1.13954,-1.3332904 z" inkscape:connector-curvature="0" id="use10572" style="opacity:0.8;color:#000000;fill:none;stroke:url(#linearGradient22558);stroke-width:1;stroke-linecap:butt;stroke-linejoin:miter;stroke-miterlimit:4;stroke-opacity:1;stroke-dasharray:none;stroke-dashoffset:0;marker:none;visibility:visible;display:inline;overflow:visible;enable-background:accumulate"/>
    <path id="use10574" d="m 7.5006657,10.500001 0,4 -3,0 0,10 55.0000003,0 0,-10 -32,0 0,-4 -20.0000003,0 z" style="color:#000000;fill:none;stroke:url(#linearGradient22562);stroke-width:0.99999976;stroke-linecap:round;stroke-linejoin:round;stroke-miterlimit:4;stroke-opacity:1;stroke-dasharray:none;stroke-dashoffset:0;marker:none;visibility:visible;display:inline;overflow:visible;enable-background:accumulate" inkscape:connector-curvature="0"/>
    <path d="m 58.000666,52.99993 c 0,0 0,7.999911 0,7.999911 2.06824,0.0151 5,-1.792381 5,-4.000471 0,-2.2081 -2.308,-3.99944 -5,-3.99944 z" inkscape:connector-curvature="0" id="use10576" style="opacity:0.3;fill:url(#radialGradient22566);fill-opacity:1;fill-rule:nonzero;stroke:none;stroke-width:1;marker:none;visibility:visible;display:inline;overflow:visible"/>
    <rect width="52" height="8" x="6.0006661" y="53" id="use10578" style="opacity:0.3;fill:url(#linearGradient22570);fill-opacity:1;fill-rule:nonzero;stroke:none;stroke-width:1;marker:none;visibility:visible;display:inline;overflow:visible"/>
    <path d="m 6.0006657,52.99993 c 0,0 0,7.999911 0,7.999911 -2.06825,0.0151 -5,-1.792381 -5,-4.000471 0,-2.2081 2.308,-3.99944 5,-3.99944 z" inkscape:connector-curvature="0" id="use10580" style="opacity:0.3;fill:url(#radialGradient22574);fill-opacity:1;fill-rule:nonzero;stroke:none;stroke-width:1;marker:none;visibility:visible;display:inline;overflow:visible"/>
    <path sodipodi:nodetypes="ccccccccc" d="m 2.5042057,20.532111 c -1.44043,0.16346 -0.87122,1.85289 -0.98607,2.8029 0.5271,11.19318 1.25951,21.808849 1.78336,33.002099 0,1.18996 1.19486,1.13653 1.86516,1.13653 0,0 36.7742103,0 54.4905103,0 1.46281,-0.14093 0.85463,-1.86024 1.0604,-2.8442 0.52711,-11.19317 1.25992,-21.568889 1.78376,-32.762139 0.0178,-0.7521 -0.50074,-1.33519 -1.21534,-1.33519 0,0 -39.86255,0 -58.7817803,0 z" inkscape:connector-curvature="0" id="use10582" style="color:#000000;fill:url(#linearGradient22578);fill-opacity:1;fill-rule:nonzero;stroke:none;stroke-width:0.99999982;marker:none;visibility:visible;display:inline;overflow:visible;enable-background:accumulate"/>
    <path d="m 2.4097557,20.000001 59.1818103,5.3e-4 c 0.85499,0 1.4091,0.5839 1.4091,1.30984 l -1.6775,35.379289 c 0,0.72593 -0.68831,1.31034 -1.54329,1.31034 L 4.2214357,58 c -0.85498,0 -1.54329,-0.58441 -1.54329,-1.31034 l -1.67748,-35.379309 c 0,-0.72594 0.5541,-1.31035 1.40909,-1.31035 z" inkscape:connector-curvature="0" id="use10584" style="opacity:0.4;fill:url(#linearGradient22582);fill-opacity:1;stroke:none"/>
    <path sodipodi:nodetypes="cccccccc" inkscape:connector-curvature="0" id="use10586" d="m 61.069096,21.500001 -57.1179403,0.0313 c -1.70924,0 -1.43419,0.0338 -1.43419,1.07579 l 1.62114,32.913579 c 0.0163,0.94321 -0.0656,0.9793 1.0726,0.9793 0,0 36.7779503,0 54.4396603,0 0.53983,-11.58225 1.25805,-22.682259 1.81479,-34.321819 0.0519,-0.55489 0.0134,-0.67818 -0.39606,-0.67818 z" style="opacity:0.5;color:#000000;fill:none;stroke:url(#linearGradient22586);stroke-width:0.99999988;stroke-linecap:round;stroke-linejoin:round;stroke-miterlimit:4;stroke-opacity:1;stroke-dasharray:none;stroke-dashoffset:0;marker:none;visibility:visible;display:inline;overflow:visible;enable-background:accumulate"/>
    <path sodipodi:nodetypes="ccccccccc" d="m 2.5042057,20.532111 c -1.44043,0.16346 -0.87122,1.85289 -0.98607,2.8029 0.5271,11.19318 1.25951,21.808849 1.78336,33.002099 0,1.18996 1.19486,1.13653 1.86516,1.13653 0,0 36.7742103,0 54.4905103,0 1.46281,-0.14093 0.85463,-1.86024 1.0604,-2.8442 0.52711,-11.19317 1.25992,-21.568889 1.78376,-32.762139 0.0178,-0.7521 -0.50074,-1.33519 -1.21534,-1.33519 0,0 -39.86255,0 -58.7817803,0 z" inkscape:connector-curvature="0" id="use10582-0" style="opacity:0.3;color:#000000;fill:none;stroke:#000000;stroke-width:0.99999982;stroke-opacity:1;marker:none;visibility:visible;display:inline;overflow:visible;enable-background:accumulate"/>
    <g id="g2977" transform="matrix(1.33,0,0,1.33,71.59072,-2.7718871)">
      <path style="fill:#ffffff;fill-opacity:1;fill-rule:evenodd;stroke:none" id="path7013" d="m -16.088297,28.893359 -1.574417,0 -1.049611,0 1.574417,0 1.049611,0 z" inkscape:connector-curvature="0"/>
      <path style="opacity:0.45895523;fill:url(#radialGradient2583);fill-opacity:1;fill-rule:evenodd;stroke:none" id="path7820" transform="matrix(-0.6066716,0,0,0.5860968,-12.682707,19.54521)" d="m 23.157747,34.785942 c 7.33e-4,3.344221 -3.936977,6.055515 -8.79464,6.055515 -4.8576642,0 -8.7953733,-2.711294 -8.7946408,-6.055515 -7.325e-4,-3.344221 3.9369766,-6.055515 8.7946408,-6.055515 4.857663,0 8.795373,2.711294 8.79464,6.055515 z" inkscape:connector-curvature="0"/>
      <g id="g2540" transform="matrix(0.9923908,0,0,1,-54.549445,-0.4570338)">
        <rect style="fill:url(#linearGradient2585);fill-opacity:1;fill-rule:evenodd;stroke:#999999;stroke-width:0.75187969;stroke-linecap:round;stroke-linejoin:round;stroke-miterlimit:4;stroke-opacity:0.99236642;stroke-dasharray:none;stroke-dashoffset:0.69999992" id="rect5925" transform="scale(-1,1)" y="22.5" x="-34.5" ry="2.3001263" rx="2.2850928" height="18" width="19"/>
        <path style="fill:none;stroke:url(#linearGradient2588);stroke-width:0.75345737;stroke-linecap:round;stroke-linejoin:round;stroke-miterlimit:4;stroke-opacity:0.99236642;stroke-dasharray:none;stroke-dashoffset:0.69999992" id="path6964" d="m 32.430679,23.263489 c 0.709516,0 1.238355,0.541117 1.238355,1.267108 l 0,13.938209 c 0,0.725991 -0.528837,1.267106 -1.238355,1.267106 l -14.860266,0 c -0.709519,0 -1.238354,-0.541113 -1.238354,-1.267106 l 0,-13.938209 c 0,-0.725992 0.528836,-1.267108 1.238354,-1.267108 l 14.860266,0 0,0 z" inkscape:connector-curvature="0"/>
      </g>
      <g id="g7162" transform="matrix(-0.6122733,0,0,0.6297668,-21.948627,3.5977249)">
        <path style="fill:url(#linearGradient2590);fill-opacity:1;fill-rule:evenodd;stroke:none" id="rect6100" d="m -2.3515886,51 c -0.2152499,0 -0.4006647,0.101237 -0.5255897,0.25 l -4.2211419,4 c -0.0368,0.131797 -0.1041856,0.271336 -0.1478222,0.40625 l 0,5.520833 c 0,0.363563 0.3116946,0.65625 0.6898365,0.65625 l 7.02976166,0 c 0.18907086,0 0.3693663,-0.06888 0.49274021,-0.1875 l 4.20471713,-4 c 0.123374,-0.118617 0.1970962,-0.286969 0.1970962,-0.46875 l 0,-5.520833 c 0,-0.181781 -0.073723,-0.350133 -0.1970962,-0.46875 C 5.045722,51.068883 4.8672437,51 4.6781729,51 l -7.0297615,0 0,0 z" inkscape:connector-curvature="0"/>
        <path style="fill:url(#linearGradient2592);fill-opacity:1;fill-rule:evenodd;stroke:none" id="path6105" d="m -6.3738568,55.166667 6.46199924,0 c 0.34688337,0 0.62614331,0.284557 0.62614331,0.638021 l 0,5.390624 c 0,0.353464 -0.27925994,0.638021 -0.62614331,0.638021 l -6.46199924,0 C -6.7207401,61.833333 -7,61.548776 -7,61.195312 l 0,-5.390624 c 0,-0.353464 0.2792599,-0.638021 0.6261432,-0.638021 l 0,0 z" inkscape:connector-curvature="0"/>
      </g>
      <path style="opacity:0.12313436;fill:url(#linearGradient2594);fill-opacity:1;fill-rule:evenodd;stroke:none" id="path7253" d="m -21.336354,35.715835 2.624029,2.624028 -2.099223,0 -2.624028,-2.624028 2.099222,0" inkscape:connector-curvature="0"/>
      <path style="fill:#babdb6;fill-rule:evenodd;stroke:none" id="path6126" d="m -23.435576,35.715835 4.985654,2.099221 -1.83682,0 -2.624029,-1.574416 -0.524805,-0.524805" inkscape:connector-curvature="0"/>
      <path style="opacity:0.53358208;fill:none;stroke:#ffffff;stroke-width:0.75187969;stroke-linecap:round;stroke-linejoin:round;stroke-miterlimit:4;stroke-opacity:1;stroke-dasharray:none;stroke-dashoffset:0.69999992" id="path7235" d="m -20.516345,35.978237 c 0.01251,0 0.02866,0.0034 0.082,0.0656 0.01575,0.01188 0.03218,0.02283 0.0492,0.0328 0.01043,0.01143 0.02137,0.02237 0.0328,0.0328 0.01043,0.01143 0.02137,0.02237 0.0328,0.0328 l 0.0164,0 c 0.01043,0.01143 0.02137,0.02237 0.0328,0.0328 l 0.0984,0.0984 c 0.05607,0.05266 0.123362,0.09192 0.196802,0.114801 l 2.230425,0.639607 c 0.210182,0.109347 0.280264,0.183326 0.311603,0.246003 4.66e-4,9.32e-4 -0.01785,0.07062 0,0.0492 -0.04295,0.05154 -0.189126,0.13238 -0.442805,0.180402 -0.17838,0.03614 -0.323835,0.164878 -0.381391,0.337542 -0.05756,0.172666 -0.01843,0.362925 0.102588,0.498868 l 0.180402,0.196802 c 0.0104,0.04595 0.02826,0.08926 0.0492,0.164002 0.0039,0.01396 -0.0043,0.01849 0,0.0328 l 0,3.411237 c 0,0.02844 -1.98e-4,0.06064 -0.0328,0.0984 -0.01653,0.01914 -0.05419,0.0328 -0.082,0.0328 l -4.116444,0 c -0.04858,0 -0.0884,-0.0054 -0.114802,-0.0328 8.9e-5,-0.0055 8.9e-5,-0.01093 0,-0.0164 l -2.443626,-2.525627 c -0.02739,-0.02847 -0.0328,-0.04154 -0.0328,-0.0984 l 0,-3.476838 c 0,-0.05686 0.0054,-0.08633 0.0328,-0.114801 0.01933,-0.0198 0.08133,-0.0328 0.0984,-0.0328 l 4.100044,0 4e-6,2e-6 z" inkscape:connector-curvature="0"/>
      <path style="fill:none;stroke:#787878;stroke-width:0.75187969;stroke-linecap:round;stroke-linejoin:round;stroke-miterlimit:4;stroke-opacity:1;stroke-dasharray:none;stroke-dashoffset:0.69999992" id="path7229" d="m -20.562115,35.478962 c 0.214059,0 0.38186,0.114372 0.500312,0.245389 l 0.01724,-0.01634 0.01724,0.03274 0.189773,0.16359 2.346288,0.638013 c 0.01783,0.0037 0.03516,0.0092 0.05177,0.01634 0.303037,0.143676 0.49798,0.290044 0.603824,0.490777 0.105844,0.200732 0.06433,0.453567 -0.06902,0.605292 -0.181123,0.206096 -0.473458,0.289173 -0.776346,0.343544 l 0.224277,0.22903 c 0.03108,0.02692 0.05476,0.0606 0.06902,0.09816 0.01729,0.06352 0.0386,0.165315 0.06902,0.261749 0.0091,0.02095 0.0147,0.04296 0.01724,0.06542 l 0,3.484517 c 0,0.156455 -0.06249,0.304505 -0.17252,0.42534 -0.11001,0.120836 -0.282033,0.21267 -0.483061,0.21267 l -4.330283,0 c -0.178667,0 -0.362651,-0.0606 -0.500312,-0.196311 l -2.570568,-2.519322 c -0.124701,-0.122921 -0.189772,-0.282503 -0.189772,-0.458059 l 0,-3.468158 c 0,-0.175555 0.06507,-0.33514 0.189772,-0.458058 0.123474,-0.119943 0.304392,-0.196311 0.48306,-0.196311 l 4.313033,0 1.3e-5,-1.2e-5 z" inkscape:connector-curvature="0"/>
      <path style="fill:url(#linearGradient2596);fill-opacity:1;fill-rule:evenodd;stroke:none" id="path7184" d="m -23.435576,35.715835 5.772862,1.312013 -1.049611,0.787208 -1.574417,0 -2.624029,-1.574416 -0.524805,-0.524805" inkscape:connector-curvature="0"/>
      <path style="fill:url(#linearGradient2598);fill-opacity:1;fill-rule:evenodd;stroke:none" id="path7171" d="m -21.336354,35.715835 3.67364,1.04961 -2.099222,0 -3.67364,-1.04961 2.099222,0" inkscape:connector-curvature="0"/>
      <path style="fill:url(#linearGradient2600);fill-opacity:1;fill-rule:evenodd;stroke:none" id="rect7173" d="m -17.662714,36.765445 -1.94869,0 -0.150532,0 c 1.049611,0.524806 0.262402,1.049611 -0.524806,1.049611 l 2.099223,0 c 0.787208,0 1.574417,-0.524805 0.524805,-1.049611 z" inkscape:connector-curvature="0"/>
      <path style="fill:url(#linearGradient2602);fill-opacity:1;fill-rule:evenodd;stroke:none" id="path7275" d="m -18.925309,39.389474 -2.198061,0 c -0.117993,0 -0.212984,0.102403 -0.212984,0.229603 l 0,1.640017 c 0,0.127201 0.09499,0.229603 0.212984,0.229603 l 2.198061,0 c 0.117993,0 0.212984,-0.102402 0.212984,-0.229603 l 0,-1.640017 c 0,-0.1272 -0.09499,-0.229603 -0.212984,-0.229603 z" inkscape:connector-curvature="0"/>
      <g id="g2531" transform="translate(-54.664525,-0.4570338)">
        <path style="fill:url(#linearGradient2604);fill-opacity:1;fill-rule:evenodd;stroke:none" id="rect7327" d="m 25.572623,28.132446 c 0.354927,0 0.641774,0.286551 0.641774,0.641113 l 0,0.159846 c 0,0.162862 0.127365,0.301699 0.302011,0.301699 l 0.868281,0 c 0.354927,0 0.641773,0.390694 0.641773,0.745254 l 0,3.579691 c 0,0.354562 -0.286847,0.641113 -0.641773,0.641113 l -4.756672,0 c -0.354926,0 -0.641772,-0.286551 -0.641772,-0.641113 l 0,-3.579691 c 0,-0.354561 0.286845,-0.745254 0.641772,-0.745254 l 0.868282,0 c 0.145399,0.0098 0.30201,-0.103474 0.30201,-0.292272 l 0,-0.169273 c 0,-0.354562 0.286848,-0.641113 0.641774,-0.641113 l 1.13254,0 z" inkscape:connector-curvature="0"/>
        <path style="fill:none;stroke:url(#linearGradient2606);stroke-width:0.73174012;stroke-linecap:round;stroke-linejoin:miter;stroke-miterlimit:4;stroke-opacity:1;stroke-dasharray:none;stroke-dashoffset:0.69999992" id="path2709" transform="matrix(1.0275229,0,0,1.0275229,0.1467896,-1.0458711)" d="m 23.6875,27.78125 c -0.626539,0 -1.08518,0.484261 -1.21875,1.0625 l -0.34375,0 c -0.724125,0 -1.34375,0.580919 -1.34375,1.3125 l 0,3.09375 c 0,0.731581 0.612169,1.343751 1.34375,1.34375 l 4.125,0 c 0.73158,0 1.343749,-0.612168 1.34375,-1.34375 l 0,-3.09375 c 0,-0.731581 -0.619625,-1.312499 -1.34375,-1.3125 l -0.3125,0 c -0.139324,-0.582399 -0.623461,-1.0625 -1.25,-1.0625 l -1,0 z" inkscape:connector-curvature="0"/>
        <g style="fill-opacity:1;stroke:url(#linearGradient2616);stroke-width:1.85442805" id="g7393" transform="matrix(-0.5392499,0,0,0.5392499,40.914225,18.327333)">
          <path style="fill:none;stroke:url(#linearGradient2608);stroke-width:1.39430666;stroke-linecap:round;stroke-linejoin:miter;stroke-miterlimit:4;stroke-opacity:1;stroke-dasharray:none" id="path7352" d="m 26.081998,27.197613 0,-2" inkscape:connector-curvature="0"/>
          <path style="fill:none;stroke:url(#linearGradient2610);stroke-width:1.39430666;stroke-linecap:round;stroke-linejoin:miter;stroke-miterlimit:4;stroke-opacity:1;stroke-dasharray:none" id="path7362" d="m 28.5,27.197613 0,-2" inkscape:connector-curvature="0"/>
          <path style="fill:none;stroke:url(#linearGradient2612);stroke-width:1.39430666;stroke-linecap:round;stroke-linejoin:miter;stroke-miterlimit:4;stroke-opacity:1;stroke-dasharray:none" id="path7364" d="m 30.5,27.197613 0,-2" inkscape:connector-curvature="0"/>
          <path style="fill:none;stroke:url(#linearGradient2614);stroke-width:1.39430666;stroke-linecap:round;stroke-linejoin:miter;stroke-miterlimit:4;stroke-opacity:1;stroke-dasharray:none" id="path7366" d="m 32.918284,27.197613 0,-2" inkscape:connector-curvature="0"/>
        </g>
      </g>
      <path style="fill:url(#linearGradient2618);fill-opacity:1;fill-rule:evenodd;stroke:url(#linearGradient2620);stroke-width:0.5;stroke-linecap:butt;stroke-linejoin:round;stroke-miterlimit:4;stroke-opacity:1;stroke-dasharray:none" id="path7506" d="m -21.172352,38.635065 c 0,0 2.198608,1.714903 4.247646,3.411238 1.02452,0.848167 1.940762,1.690426 2.476427,2.509228 0.267833,0.4094 0.518044,0.851875 0.344404,1.459615 -0.08682,0.303869 -0.320859,0.588421 -0.574006,0.738008 -0.253148,0.149588 -0.502844,0.213192 -0.787209,0.246002 -1.114624,0.128612 -2.482847,-0.206559 -4.116444,-0.672406 -1.633598,-0.465847 -3.500059,-1.092836 -5.379259,-1.705619 -1.8792,-0.612782 -3.776704,-1.210235 -5.428459,-1.574417 -1.651755,-0.364182 -3.062296,-0.464439 -3.870442,-0.262403 -0.382547,0.09564 -0.39127,0.157874 -0.393604,0.164002 -0.0023,0.0061 -0.03389,0.176036 0.114801,0.492005 0.297383,0.63194 1.197515,1.615443 2.197624,2.591229 1.491906,1.455622 1.907142,1.825364 1.907142,1.825364 l -2.285464,0.185571 c 0,0 -0.275975,-0.296379 -0.70409,-0.862923 -0.892391,-1.180941 -2.035802,-2.042355 -2.525627,-3.083233 -0.244913,-0.52044 -0.40767,-1.10904 -0.180402,-1.705619 0.227268,-0.596579 0.808952,-0.981247 1.476016,-1.148012 1.291076,-0.32277 2.857168,-0.107323 4.60845,0.278803 1.751282,0.386125 3.68322,0.973586 5.57606,1.590817 1.892841,0.617231 3.741021,1.257155 5.313658,1.705617 1.52839,0.435846 2.780385,0.640312 3.394837,0.590408 -0.325344,-0.497312 -1.204921,-1.340173 -2.181224,-2.148425 -1.952604,-1.616499 -4.182045,-3.345635 -4.182045,-3.345635 l 0.95121,-1.279215 0,0 z" inkscape:connector-curvature="0"/>
      <path style="opacity:0.6;fill:none;stroke:url(#linearGradient2622);stroke-width:0.5;stroke-linecap:butt;stroke-linejoin:miter;stroke-miterlimit:4;stroke-opacity:1;stroke-dasharray:none" id="path7502" d="m -21.689199,39.00616 c 0,0 9.676105,6.658471 6.264868,7.052076 -3.411237,0.393604 -14.694559,-5.248056 -18.893005,-4.198445 -4.198445,1.049611 6.297669,8.396891 6.297669,8.396891" inkscape:connector-curvature="0"/>
      <path style="fill:url(#linearGradient2624);fill-opacity:1;fill-rule:evenodd;stroke:none" id="path7512" d="m -18.758911,38.356262 -0.166616,1.049613 -2.197624,0 c -0.117993,0 -0.213202,0.102402 -0.213202,0.229602 l 0,1.640018 -1.049612,-0.164002 0,-2.345226 c 0,-0.222599 0.164817,-0.410005 0.377204,-0.410005 l 3.24985,0 0,0 z" inkscape:connector-curvature="0"/>
      <path style="opacity:0.35447759;fill:url(#linearGradient2626);fill-opacity:1;fill-rule:evenodd;stroke:none" id="path7810" d="m -18.925309,39.389474 -2.198061,0 c -0.117993,0 -0.212984,0.102403 -0.212984,0.229603 l 0,1.640017 c 0,0.127201 0.09499,0.229603 0.212984,0.229603 l 2.198061,0 c 0.117993,0 0.212984,-0.102402 0.212984,-0.229603 l 0,-1.640017 c 0,-0.1272 -0.09499,-0.229603 -0.212984,-0.229603 z" inkscape:connector-curvature="0"/>
    </g>
  </g>
</svg>
