<!-- Created with Inkscape (http://www.inkscape.org/) -->
<svg xmlns:dc="http://purl.org/dc/elements/1.1/" xmlns:cc="http://creativecommons.org/ns#" xmlns:rdf="http://www.w3.org/1999/02/22-rdf-syntax-ns#" xmlns:svg="http://www.w3.org/2000/svg" xmlns="http://www.w3.org/2000/svg" xmlns:xlink="http://www.w3.org/1999/xlink" xmlns:sodipodi="http://sodipodi.sourceforge.net/DTD/sodipodi-0.dtd" xmlns:inkscape="http://www.inkscape.org/namespaces/inkscape" width="64px" height="64px" id="svg25818" version="1.1" inkscape:version="0.48.4 r9939" sodipodi:docname="folder-publicshare.svg">
  <defs id="defs25820">
    <linearGradient inkscape:collect="always" xlink:href="#linearGradient8272-8-8" id="linearGradient6389" gradientUnits="userSpaceOnUse" gradientTransform="matrix(1.3210282,0,0,1.2679796,-70.729881,0.17381009)" x1="97.538795" y1="16.962049" x2="97.538795" y2="44.260689"/>
    <linearGradient id="linearGradient8272-8-8">
      <stop offset="0" style="stop-color:#ffffff;stop-opacity:1" id="stop8274-4"/>
      <stop offset="0.0221225" style="stop-color:#ffffff;stop-opacity:0.23529412" id="stop8276-5"/>
      <stop offset="0.97909725" style="stop-color:#ffffff;stop-opacity:0.15686275" id="stop8278-0"/>
      <stop offset="1" style="stop-color:#ffffff;stop-opacity:0.39215687" id="stop8280-5-9"/>
    </linearGradient>
    <linearGradient inkscape:collect="always" xlink:href="#linearGradient6129-963-697-142-998-580-273-9" id="linearGradient6393" gradientUnits="userSpaceOnUse" gradientTransform="matrix(1.5432898,0,0,1.3103449,-5.0382913,0.34483009)" x1="22.934725" y1="49.629246" x2="22.809399" y2="36.657963"/>
    <linearGradient id="linearGradient6129-963-697-142-998-580-273-9">
      <stop id="stop2661-3" style="stop-color:#0a0a0a;stop-opacity:0.498" offset="0"/>
      <stop id="stop2663-33" style="stop-color:#0a0a0a;stop-opacity:0" offset="1"/>
    </linearGradient>
    <linearGradient inkscape:collect="always" xlink:href="#linearGradient4632-0-6-4-4-4" id="linearGradient6397" gradientUnits="userSpaceOnUse" gradientTransform="matrix(0.50413225,0,0,0.49333391,73.843636,-1.4532899)" x1="-91" y1="43.999817" x2="-91" y2="119.05979"/>
    <linearGradient id="linearGradient4632-0-6-4-4-4">
      <stop style="stop-color:#aacb7d;stop-opacity:1;" offset="0" id="stop4634-4-4-7-4"/>
      <stop style="stop-color:#709937;stop-opacity:1;" offset="1" id="stop4636-3-1-5-9"/>
    </linearGradient>
    <radialGradient inkscape:collect="always" xlink:href="#linearGradient5060-820-8" id="radialGradient6403" gradientUnits="userSpaceOnUse" gradientTransform="matrix(-0.04016195,0,0,0.0329426,30.204676,40.92132)" cx="605.71429" cy="486.64789" fx="605.71429" fy="486.64789" r="117.14286"/>
    <linearGradient id="linearGradient5060-820-8">
      <stop id="stop2681-37" style="stop-color:#000000;stop-opacity:1" offset="0"/>
      <stop id="stop2683-05" style="stop-color:#000000;stop-opacity:0" offset="1"/>
    </linearGradient>
    <linearGradient inkscape:collect="always" xlink:href="#linearGradient5048-585-1" id="linearGradient6407" gradientUnits="userSpaceOnUse" gradientTransform="matrix(0.1076923,0,0,0.03294117,-6.9224113,40.92219)" x1="302.85715" y1="366.64789" x2="302.85715" y2="609.50507"/>
    <linearGradient id="linearGradient5048-585-1">
      <stop id="stop2667-0" style="stop-color:#000000;stop-opacity:0" offset="0"/>
      <stop id="stop2669-91" style="stop-color:#000000;stop-opacity:1" offset="0.5"/>
      <stop id="stop2671-6" style="stop-color:#000000;stop-opacity:0" offset="1"/>
    </linearGradient>
    <radialGradient inkscape:collect="always" xlink:href="#linearGradient5060-820-8" id="radialGradient6411" gradientUnits="userSpaceOnUse" gradientTransform="matrix(0.04016195,0,0,0.0329426,33.796646,40.92132)" cx="605.71429" cy="486.64789" fx="605.71429" fy="486.64789" r="117.14286"/>
    <linearGradient inkscape:collect="always" xlink:href="#linearGradient9235-9" id="linearGradient6415" gradientUnits="userSpaceOnUse" gradientTransform="matrix(1.2749674,0,0,1.218292,-67.158521,-0.33920991)" x1="97.538795" y1="8.8103228" x2="97.538795" y2="44.260689"/>
    <linearGradient id="linearGradient9235-9">
      <stop id="stop9237-7" style="stop-color:#ffffff;stop-opacity:1" offset="0"/>
      <stop id="stop9239-2-3" style="stop-color:#ffffff;stop-opacity:0.23529412" offset="0.1088333"/>
      <stop id="stop9241-1" style="stop-color:#ffffff;stop-opacity:0.15686275" offset="0.97909725"/>
      <stop id="stop9243-5" style="stop-color:#ffffff;stop-opacity:0.39215687" offset="1"/>
    </linearGradient>
    <linearGradient inkscape:collect="always" xlink:href="#linearGradient3104-8-8-97-4-6-11-5-5-1-0-5" id="linearGradient6419" gradientUnits="userSpaceOnUse" gradientTransform="matrix(1.0563766,0,0,1.0770552,69.975816,-2.5296499)" x1="-51.786404" y1="53.514328" x2="-51.786404" y2="3.6336823"/>
    <linearGradient id="linearGradient3104-8-8-97-4-6-11-5-5-1-0-5">
      <stop offset="0" style="stop-color:#000000;stop-opacity:0.32173914" id="stop3106-5-4-3-5-0-2-1-0-1-2-7"/>
      <stop offset="1" style="stop-color:#000000;stop-opacity:0.27826086" id="stop3108-4-3-7-8-2-0-7-9-4-9-4-5"/>
    </linearGradient>
    <linearGradient id="linearGradient6404-7-5-7">
      <stop id="stop6406-1-8-2" style="stop-color:#f9f9f9;stop-opacity:1" offset="0"/>
      <stop id="stop6408-9-6-4" style="stop-color:#c9c9c9;stop-opacity:1" offset="1"/>
    </linearGradient>
    <linearGradient y2="16.997795" x2="62.988873" y1="14.090554" x1="62.988873" gradientTransform="matrix(1.3135526,0,0,1.2900554,-55.484951,-1.2218599)" gradientUnits="userSpaceOnUse" id="linearGradient25816" xlink:href="#linearGradient6404-7-5-7" inkscape:collect="always"/>
    <linearGradient gradientUnits="userSpaceOnUse" y2="57.182316" x2="25.701855" y1="20.293636" x1="25.701855" id="linearGradient3856" xlink:href="#linearGradient7012-661-145-733-759-865-745" inkscape:collect="always"/>
    <radialGradient r="117.14286" fy="486.64789" fx="605.71429" cy="486.64789" cx="605.71429" gradientTransform="matrix(0.04016195,0,0,0.0329426,33.795982,40.921317)" gradientUnits="userSpaceOnUse" id="radialGradient3086" xlink:href="#linearGradient5060-820" inkscape:collect="always"/>
    <radialGradient r="21" fy="-17.82061" fx="2.9999998" cy="-17.82061" cx="2.9999998" gradientTransform="matrix(-1.7093459e-8,2.2713251,-2.8951677,-1.9343515e-8,-48.593318,2.3972382)" gradientUnits="userSpaceOnUse" id="radialGradient3083" xlink:href="#linearGradient3484" inkscape:collect="always"/>
    <linearGradient y2="16.19013" x2="62.988873" y1="13.182598" x1="62.988873" gradientTransform="matrix(1.3407707,0,0,1.3249351,-134.0678,-1.3881028)" gradientUnits="userSpaceOnUse" id="linearGradient3081" xlink:href="#linearGradient6404" inkscape:collect="always"/>
    <linearGradient y2="609.50507" x2="302.85715" y1="366.64789" x1="302.85715" gradientTransform="matrix(0.1076923,0,0,0.03294117,-6.9230773,40.922188)" gradientUnits="userSpaceOnUse" id="linearGradient3078" xlink:href="#linearGradient5048-585" inkscape:collect="always"/>
    <radialGradient r="117.14286" fy="486.64789" fx="605.71429" cy="486.64789" cx="605.71429" gradientTransform="matrix(-0.04016195,0,0,0.0329426,30.204018,40.921317)" gradientUnits="userSpaceOnUse" id="radialGradient3075" xlink:href="#linearGradient5060-820" inkscape:collect="always"/>
    <linearGradient y2="15.943953" x2="65.340263" y1="45.114193" x1="82.453476" gradientTransform="matrix(1.3407998,0,0,1.3264587,-72.462643,-1.6032277)" gradientUnits="userSpaceOnUse" id="linearGradient3072" xlink:href="#linearGradient3390" inkscape:collect="always"/>
    <linearGradient y2="36.657963" x2="22.809399" y1="49.629246" x1="22.934725" gradientTransform="matrix(1.5347702,0,0,1.3270123,-5.0206145,-0.04854157)" gradientUnits="userSpaceOnUse" id="linearGradient3067" xlink:href="#linearGradient6129-963-697-142-998-580-273" inkscape:collect="always"/>
    <radialGradient r="20.979567" fy="8.3021259" fx="7.2646537" cy="8.3021259" cx="7.2646537" gradientTransform="matrix(0,1.606606,-2.1816541,0,34.685541,9.28484)" gradientUnits="userSpaceOnUse" id="radialGradient3064" xlink:href="#linearGradient6087-437-184-795-110-662-495" inkscape:collect="always"/>
    <linearGradient y2="33.95525" x2="15.214532" y1="22.292103" x1="11.566265" gradientTransform="matrix(1.3407707,0,0,1.33,-0.3733138,-1.3099814)" gradientUnits="userSpaceOnUse" id="linearGradient3061" xlink:href="#linearGradient8265-821-176-38-919-66-249" inkscape:collect="always"/>
    <linearGradient gradientTransform="matrix(1.3407707,0,0,1.33,-0.3733138,-1.3099814)" gradientUnits="userSpaceOnUse" xlink:href="#linearGradient8265-821-176-38-919-66-249" id="linearGradient2576" y2="33.95525" x2="15.214532" y1="22.292103" x1="11.566265"/>
    <linearGradient id="linearGradient8265-821-176-38-919-66-249">
      <stop offset="0" style="stop-color:#ffffff;stop-opacity:0.27450982" id="stop2687"/>
      <stop offset="1" style="stop-color:#ffffff;stop-opacity:0.07843138" id="stop2689"/>
    </linearGradient>
    <radialGradient gradientTransform="matrix(0,1.606606,-2.1816541,0,34.685541,9.28484)" gradientUnits="userSpaceOnUse" xlink:href="#linearGradient6087-437-184-795-110-662-495" id="radialGradient2579" fy="8.3021259" fx="7.2646537" r="20.979567" cy="8.3021259" cx="7.2646537"/>
    <linearGradient id="linearGradient6087-437-184-795-110-662-495">
      <stop offset="0" style="stop-color:#ffffff;stop-opacity:0.40000001" id="stop2693"/>
      <stop offset="1" style="stop-color:#ffffff;stop-opacity:0" id="stop2695"/>
    </linearGradient>
    <linearGradient gradientTransform="matrix(1.5347702,0,0,1.3270123,-5.0206145,-0.04854157)" gradientUnits="userSpaceOnUse" xlink:href="#linearGradient6129-963-697-142-998-580-273" id="linearGradient2582" y2="36.657963" x2="22.809399" y1="49.629246" x1="22.934725"/>
    <linearGradient id="linearGradient6129-963-697-142-998-580-273">
      <stop offset="0" style="stop-color:#0a0a0a;stop-opacity:0.498" id="stop2661"/>
      <stop offset="1" style="stop-color:#0a0a0a;stop-opacity:0" id="stop2663"/>
    </linearGradient>
    <radialGradient gradientTransform="matrix(2.0979394,-1.2620327e-7,8.2824269e-8,1.3475335,-115.96782,9.3537334)" gradientUnits="userSpaceOnUse" xlink:href="#linearGradient7012-661-145-733-759-865-745" id="radialGradient2585" fy="14.113381" fx="63.969177" r="23.097054" cy="14.113381" cx="63.969177"/>
    <linearGradient id="linearGradient7012-661-145-733-759-865-745">
      <stop offset="0" style="stop-color:#aacb7d;stop-opacity:1" id="stop2699"/>
      <stop offset="1" style="stop-color:#709937;stop-opacity:1" id="stop2701"/>
    </linearGradient>
    <linearGradient gradientTransform="matrix(1.3407998,0,0,1.3264587,-72.462643,-1.6032277)" gradientUnits="userSpaceOnUse" xlink:href="#linearGradient3390" id="linearGradient2587" y2="15.943953" x2="65.340263" y1="45.114193" x1="82.453476"/>
    <linearGradient id="linearGradient3390">
      <stop offset="0" style="stop-color:#51751e;stop-opacity:1" id="stop3392"/>
      <stop offset="1" style="stop-color:#51751e;stop-opacity:1" id="stop3394"/>
    </linearGradient>
    <radialGradient gradientTransform="matrix(-0.04016195,0,0,0.0329426,30.204018,40.921317)" gradientUnits="userSpaceOnUse" xlink:href="#linearGradient5060-820" id="radialGradient3403" fy="486.64789" fx="605.71429" r="117.14286" cy="486.64789" cx="605.71429"/>
    <linearGradient id="linearGradient5060-820">
      <stop offset="0" style="stop-color:#000000;stop-opacity:1" id="stop2681"/>
      <stop offset="1" style="stop-color:#000000;stop-opacity:0" id="stop2683"/>
    </linearGradient>
    <linearGradient gradientTransform="matrix(0.1076923,0,0,0.03294117,-6.9230773,40.922188)" gradientUnits="userSpaceOnUse" xlink:href="#linearGradient5048-585" id="linearGradient3409" y2="609.50507" x2="302.85715" y1="366.64789" x1="302.85715"/>
    <linearGradient id="linearGradient5048-585">
      <stop offset="0" style="stop-color:#000000;stop-opacity:0" id="stop2667"/>
      <stop offset="0.5" style="stop-color:#000000;stop-opacity:1" id="stop2669"/>
      <stop offset="1" style="stop-color:#000000;stop-opacity:0" id="stop2671"/>
    </linearGradient>
    <linearGradient gradientTransform="matrix(1.3407707,0,0,1.3249351,-134.0678,-1.3881028)" gradientUnits="userSpaceOnUse" xlink:href="#linearGradient6404" id="linearGradient3398" y2="16.19013" x2="62.988873" y1="13.182598" x1="62.988873"/>
    <linearGradient id="linearGradient6404">
      <stop offset="0" style="stop-color:#f9f9f9;stop-opacity:1" id="stop6406"/>
      <stop offset="1" style="stop-color:#c9c9c9;stop-opacity:1" id="stop6408"/>
    </linearGradient>
    <radialGradient gradientTransform="matrix(-1.7093459e-8,2.2713251,-2.8951677,-1.9343515e-8,-48.593318,2.3972382)" gradientUnits="userSpaceOnUse" xlink:href="#linearGradient3484" id="radialGradient3396" fy="-17.82061" fx="2.9999998" r="21" cy="-17.82061" cx="2.9999998"/>
    <linearGradient id="linearGradient3484">
      <stop offset="0" style="stop-color:#bdbdbd;stop-opacity:1" id="stop3486"/>
      <stop offset="1" style="stop-color:#d0d0d0;stop-opacity:1" id="stop3488"/>
    </linearGradient>
    <radialGradient gradientTransform="matrix(0.04016195,0,0,0.0329426,33.795982,40.921317)" gradientUnits="userSpaceOnUse" xlink:href="#linearGradient5060-820" id="radialGradient3413" fy="486.64789" fx="605.71429" r="117.14286" cy="486.64789" cx="605.71429"/>
    <linearGradient gradientTransform="matrix(-1.0344444,0,0,1.0133333,71.35043,14.321563)" gradientUnits="userSpaceOnUse" xlink:href="#linearGradient5060" id="linearGradient2519" y2="37.4375" x2="17" y1="39" x1="22"/>
    <linearGradient id="linearGradient5060">
      <stop offset="0" style="stop-color:#000000;stop-opacity:1" id="stop5062"/>
      <stop offset="1" style="stop-color:#000000;stop-opacity:0" id="stop5064"/>
    </linearGradient>
    <linearGradient gradientTransform="matrix(0.9250506,0,0,0.9400221,13.41098,15.540655)" gradientUnits="userSpaceOnUse" xlink:href="#linearGradient3341" id="linearGradient2522" y2="29.513336" x2="29.250004" y1="-1.049042" x1="29.250004"/>
    <linearGradient id="linearGradient3341">
      <stop offset="0" style="stop-color:#ffffff;stop-opacity:1" id="stop3343"/>
      <stop offset="1" style="stop-color:#ffffff;stop-opacity:0" id="stop3345"/>
    </linearGradient>
    <radialGradient gradientTransform="matrix(1.5173794,-6.2640732e-7,2.11609e-7,0.4086347,-4.3083876,30.643455)" gradientUnits="userSpaceOnUse" xlink:href="#linearGradient5060" id="radialGradient2525" fy="33.1875" fx="30" r="4.6875" cy="33.1875" cx="30"/>
    <linearGradient gradientTransform="matrix(1.0344444,0,0,1.0133333,10.859444,14.394001)" gradientUnits="userSpaceOnUse" xlink:href="#linearGradient5060" id="linearGradient2528" y2="37.4375" x2="17" y1="39" x1="22"/>
    <radialGradient gradientTransform="matrix(1.4542874,-0.1211629,0.1135949,1.4483763,-1.6986674,11.126507)" gradientUnits="userSpaceOnUse" xlink:href="#linearGradient6954" id="radialGradient2531" fy="12.31301" fx="26.375898" r="8" cy="12.31301" cx="26.375898"/>
    <linearGradient id="linearGradient6954">
      <stop offset="0" style="stop-color:#f5f5f5;stop-opacity:1" id="stop6960"/>
      <stop offset="1" style="stop-color:#d2d2d2;stop-opacity:1" id="stop6962"/>
    </linearGradient>
    <linearGradient gradientTransform="matrix(0.8866716,0,0,0.9138687,14.612853,15.903687)" gradientUnits="userSpaceOnUse" xlink:href="#linearGradient3785" id="linearGradient2533" y2="49.206059" x2="30.656246" y1="5" x1="30"/>
    <linearGradient id="linearGradient3785">
      <stop offset="0" style="stop-color:#bdbdbd;stop-opacity:1" id="stop3787"/>
      <stop offset="1" style="stop-color:#8c8c8c;stop-opacity:1" id="stop3789"/>
    </linearGradient>
    <linearGradient gradientTransform="matrix(1.0620216,0,0,1.0127301,9.5253719,14.426274)" gradientUnits="userSpaceOnUse" xlink:href="#linearGradient3341" id="linearGradient2536" y2="45.15625" x2="29.285715" y1="14.96875" x1="29.285715"/>
    <radialGradient gradientTransform="matrix(1.2468751,-2.1463031e-8,0,0.3782439,5.4064798,34.979532)" gradientUnits="userSpaceOnUse" xlink:href="#linearGradient6954" id="radialGradient2539" fy="19.225775" fx="29.183672" r="16" cy="19.225775" cx="29.183672"/>
    <linearGradient gradientTransform="matrix(1.0344444,0,0,1.0133333,10.253554,14.406667)" gradientUnits="userSpaceOnUse" xlink:href="#linearGradient3785" id="linearGradient2541" y2="45" x2="30" y1="6.4785156" x1="30.491072"/>
    <radialGradient gradientTransform="matrix(0.8233333,0,0,0.2533333,14.201333,45.661666)" gradientUnits="userSpaceOnUse" xlink:href="#linearGradient5060" id="radialGradient2544" fy="41.5" fx="32" r="21" cy="41.5" cx="32"/>
  </defs>
  <sodipodi:namedview id="base" pagecolor="#ffffff" bordercolor="#666666" borderopacity="1.0" inkscape:pageopacity="0.0" inkscape:pageshadow="2" inkscape:zoom="5.5" inkscape:cx="-1.0909091" inkscape:cy="32" inkscape:current-layer="layer1" showgrid="true" inkscape:document-units="px" inkscape:grid-bbox="true" inkscape:window-width="797" inkscape:window-height="447" inkscape:window-x="652" inkscape:window-y="262" inkscape:window-maximized="0"/>
  <metadata id="metadata25823">
    <rdf:RDF>
      <cc:Work rdf:about="">
        <dc:format>image/svg+xml</dc:format>
        <dc:type rdf:resource="http://purl.org/dc/dcmitype/StillImage"/>
        <dc:title/>
      </cc:Work>
    </rdf:RDF>
  </metadata>
  <g id="layer1" inkscape:label="Layer 1" inkscape:groupmode="layer">
    <path id="use6315" d="m 7.5006657,10 c -0.277,0 -0.5,0.223 -0.5,0.5 l 0,3.5 -2.5,0 c -0.277,0 -0.5,0.223 -0.5,0.5 l 0,9.5 c 0,0.277 0.223,0.5 0.5,0.5 l 55.0000003,0 c 0.277,0 0.5,-0.223 0.5,-0.5 l 0,-9.5 c 0,-0.277 -0.223,-0.5 -0.5,-0.5 l -31.5,0 0,-3.5 c 0,-0.277 -0.223,-0.5 -0.5,-0.5 L 7.5006657,10 z" style="color:#000000;fill:url(#linearGradient25816);fill-opacity:1;fill-rule:nonzero;stroke:none;stroke-width:1.00000012;marker:none;visibility:visible;display:inline;overflow:visible;enable-background:accumulate" inkscape:connector-curvature="0"/>
    <path sodipodi:nodetypes="cscsccssscccc" d="m 8.0006657,9.5001611 c -0.91501,0.0102 -1.5,0.45618 -1.5,1.3332889 l 0,2.66655 -1.506,0 c -0.99492,0 -1.494,0.47358 -1.494,1.34217 0.0456,13.71958 0,14.49301 0,15.65783 1.90283,0 56.9999903,-4.9328 56.9999903,-7.05611 l 0,-8.44389 c 0,-1.00007 -0.49994,-1.5 -1.49999,-1.5 l -30.5,0 0,-2.66655 c 0,-0.8771089 -0.22453,-1.3435089 -1.13954,-1.3332889 z" inkscape:connector-curvature="0" id="use6317" style="opacity:0.8;color:#000000;fill:none;stroke:url(#linearGradient6419);stroke-width:1;stroke-linecap:butt;stroke-linejoin:miter;stroke-miterlimit:4;stroke-opacity:1;stroke-dasharray:none;stroke-dashoffset:0;marker:none;visibility:visible;display:inline;overflow:visible;enable-background:accumulate"/>
    <path id="use6319" d="m 7.5006657,10.5 0,4 -3,0 0,10 55.0000003,0 0,-10 -32,0 0,-4 -20.0000003,0 z" style="color:#000000;fill:none;stroke:url(#linearGradient6415);stroke-width:0.99999976;stroke-linecap:round;stroke-linejoin:round;stroke-miterlimit:4;stroke-opacity:1;stroke-dasharray:none;stroke-dashoffset:0;marker:none;visibility:visible;display:inline;overflow:visible;enable-background:accumulate" inkscape:connector-curvature="0"/>
    <path d="m 58.000666,52.99993 c 0,0 0,7.99991 0,7.99991 2.06824,0.0151 5,-1.79238 5,-4.00047 0,-2.2081 -2.308,-3.99944 -5,-3.99944 z" inkscape:connector-curvature="0" id="use6321" style="opacity:0.3;fill:url(#radialGradient6411);fill-opacity:1;fill-rule:nonzero;stroke:none;stroke-width:1;marker:none;visibility:visible;display:inline;overflow:visible"/>
    <rect width="52" height="8" x="6.0006671" y="53" id="use6323" style="opacity:0.3;fill:url(#linearGradient6407);fill-opacity:1;fill-rule:nonzero;stroke:none;stroke-width:1;marker:none;visibility:visible;display:inline;overflow:visible"/>
    <path d="m 6.0006657,52.99993 c 0,0 0,7.99991 0,7.99991 -2.06825,0.0151 -5,-1.79238 -5,-4.00047 0,-2.2081 2.308,-3.99944 5,-3.99944 z" inkscape:connector-curvature="0" id="use6325" style="opacity:0.3;fill:url(#radialGradient6403);fill-opacity:1;fill-rule:nonzero;stroke:none;stroke-width:1;marker:none;visibility:visible;display:inline;overflow:visible"/>
    <path sodipodi:nodetypes="ccccccccc" d="m 2.5042057,20.53211 c -1.44043,0.16346 -0.87122,1.85289 -0.98607,2.8029 0.5271,11.19318 1.25951,21.80885 1.78336,33.0021 0,1.18996 1.19486,1.13653 1.86516,1.13653 0,0 36.7742103,0 54.4905103,0 1.46281,-0.14093 0.85463,-1.86024 1.0604,-2.8442 0.52711,-11.19317 1.25992,-21.56889 1.78376,-32.76214 0.0178,-0.7521 -0.50074,-1.33519 -1.21534,-1.33519 0,0 -39.86255,0 -58.7817803,0 z" inkscape:connector-curvature="0" id="use6327" style="color:#000000;fill:url(#linearGradient6397);fill-opacity:1;fill-rule:nonzero;stroke:none;stroke-width:0.99999982;marker:none;visibility:visible;display:inline;overflow:visible;enable-background:accumulate"/>
    <path d="m 2.4097557,20 59.1818103,5.3e-4 c 0.85499,0 1.4091,0.5839 1.4091,1.30984 l -1.6775,35.37929 c 0,0.72593 -0.68831,1.31034 -1.54329,1.31034 L 4.2214357,58 c -0.85498,0 -1.54329,-0.58441 -1.54329,-1.31034 l -1.67748,-35.37931 c 0,-0.72594 0.5541,-1.31035 1.40909,-1.31035 z" inkscape:connector-curvature="0" id="use6329" style="opacity:0.4;fill:url(#linearGradient6393);fill-opacity:1;stroke:none"/>
    <path sodipodi:nodetypes="cccccccc" inkscape:connector-curvature="0" id="use6331" d="M 61.069096,21.5 3.9511557,21.5313 c -1.70924,0 -1.43419,0.0338 -1.43419,1.07579 l 1.62114,32.91358 c 0.0163,0.94321 -0.0656,0.9793 1.0726,0.9793 0,0 36.7779503,0 54.4396603,0 0.53983,-11.58225 1.25805,-22.68226 1.81479,-34.32182 0.0519,-0.55489 0.0134,-0.67818 -0.39606,-0.67818 z" style="opacity:0.5;color:#000000;fill:none;stroke:url(#linearGradient6389);stroke-width:0.99999988;stroke-linecap:round;stroke-linejoin:round;stroke-miterlimit:4;stroke-opacity:1;stroke-dasharray:none;stroke-dashoffset:0;marker:none;visibility:visible;display:inline;overflow:visible;enable-background:accumulate"/>
    <path sodipodi:nodetypes="ccccccccc" d="m 2.5042057,20.53211 c -1.44043,0.16346 -0.87122,1.85289 -0.98607,2.8029 0.5271,11.19318 1.25951,21.80885 1.78336,33.0021 0,1.18996 1.19486,1.13653 1.86516,1.13653 0,0 36.7742103,0 54.4905103,0 1.46281,-0.14093 0.85463,-1.86024 1.0604,-2.8442 0.52711,-11.19317 1.25992,-21.56889 1.78376,-32.76214 0.0178,-0.7521 -0.50074,-1.33519 -1.21534,-1.33519 0,0 -39.86255,0 -58.7817803,0 z" inkscape:connector-curvature="0" id="use6327-4" style="opacity:0.3;color:#000000;fill:none;stroke:#000000;stroke-width:0.99999982;stroke-linecap:round;stroke-linejoin:round;stroke-miterlimit:4;stroke-opacity:1;stroke-dasharray:none;stroke-dashoffset:0;marker:none;visibility:visible;display:inline;overflow:visible;enable-background:accumulate"/>
    <g id="g3066">
      <path d="m 57.838,56.175 c 0,2.938155 -7.740997,5.32 -17.29,5.32 -9.549003,0 -17.29,-2.381845 -17.29,-5.32 0,-2.938155 7.740997,-5.32 17.29,-5.32 9.549003,0 17.29,2.381845 17.29,5.32 z" id="path3823-4" style="opacity:0.7;fill:url(#radialGradient2544);fill-opacity:1;stroke:none" inkscape:connector-curvature="0"/>
      <path d="m 36.631889,35.180001 c 0.476067,2.205753 0.741792,3.874246 0.35559,6.08 -3.010951,2.447075 -10.711578,3.546667 -10.700035,6.08 L 25.253,54.940002 c 0,2.518417 7.178616,4.559999 16.033889,4.559999 8.855273,0 16.033888,-2.041582 16.033888,-4.559999 l -1.034444,-7.600001 c -0.01224,-2.168192 -7.758333,-3.546667 -10.732362,-6.08 -0.254033,-2.047275 -0.05182,-4.032725 0.387917,-6.08 l -9.309999,0 0,0 z" id="path3766-9" style="fill:url(#radialGradient2539);fill-opacity:1;stroke:url(#linearGradient2541);stroke-width:1;stroke-miterlimit:4;stroke-opacity:1;stroke-dasharray:none" inkscape:connector-curvature="0"/>
      <path d="m 38.152541,36.480846 c 0.27608,1.613599 0.455193,3.165478 0.128012,4.984531 -0.05302,0.309757 -0.219823,0.59022 -0.469375,0.789217 -1.900556,1.503624 -4.690699,2.323197 -6.997965,3.198407 -1.153629,0.437607 -2.189714,0.892185 -2.816253,1.287672 -0.626537,0.395482 -0.682623,0.603633 -0.682727,0.581531 0.0037,0.05533 0.0037,0.110821 0,0.166146 l -1.066763,7.435262 c 0,0.01303 0.07745,0.28163 0.725399,0.706138 0.647932,0.424515 1.752619,0.897612 3.157617,1.287673 2.809999,0.78012 6.822197,1.28767 11.265015,1.28767 4.442816,0 8.455015,-0.50755 11.265014,-1.28767 1.404997,-0.390061 2.509683,-0.863158 3.157616,-1.287673 0.647933,-0.424508 0.725399,-0.693072 0.725399,-0.706138 L 55.476768,47.48835 c -0.0021,-0.04151 -0.0021,-0.0831 0,-0.124615 0.01035,0.03016 0.0096,0.09959 -0.04268,0.04156 -0.0874,-0.09677 -0.310406,-0.303369 -0.640054,-0.49845 -0.659305,-0.390161 -1.684815,-0.829416 -2.858925,-1.287669 -2.348222,-0.916509 -5.167953,-1.811721 -7.040634,-3.36456 -0.258677,-0.209232 -0.426377,-0.506048 -0.469375,-0.830755 -0.21655,-1.698859 0.07691,-3.326661 0.341363,-4.942993 l -6.613929,0 7e-6,-2.2e-5 z" id="path4244" style="opacity:0.4;fill:none;stroke:url(#linearGradient2536);stroke-width:1;stroke-miterlimit:4;stroke-opacity:1;stroke-dasharray:none" inkscape:connector-curvature="0"/>
      <path d="m 41.212998,20.929966 c -3.672712,0 -6.650034,2.86407 -6.650034,6.39708 0.02878,1.307495 0.137052,2.860752 0.886671,6.39708 0.443335,1.370799 4.397679,5.291801 4.433357,5.748735 0.85978,0.456933 2.21668,0.456933 3.10335,0 0,-0.456934 3.546686,-4.377936 3.990022,-5.748735 0.843557,-3.675299 0.841426,-5.02628 0.886672,-6.39708 0,-3.53301 -2.977322,-6.39708 -6.650038,-6.39708 l 0,0 z" id="path3764-4" style="fill:url(#radialGradient2531);fill-opacity:1;stroke:url(#linearGradient2533);stroke-width:1;stroke-miterlimit:4;stroke-opacity:1;stroke-dasharray:none" inkscape:connector-curvature="0"/>
      <path d="m 32.582777,58.170001 c -2.443719,-2.008625 -1.278437,-6.467966 -1.034444,-9.322667 -1.034445,2.026667 -1.034445,8.106667 -3.103333,8.106667 1.409544,0.464668 2.844267,0.978665 4.137777,1.216 z" id="path3848-2" style="opacity:0.4;fill:url(#linearGradient2528);fill-opacity:1;stroke:none" inkscape:connector-curvature="0"/>
      <path d="m 36.558,41.545001 c 0.681544,1.547017 2.501444,2.66 4.655,2.66 2.153556,0 3.973456,-1.112983 4.655,-2.66 l -9.31,0 z" id="path3833-8" style="opacity:0.2;fill:url(#radialGradient2525);fill-opacity:1;stroke:none" inkscape:connector-curvature="0"/>
      <path d="m 41.1625,22.036123 c -3.126555,0 -5.569135,2.334998 -5.593635,5.21574 -1.23e-4,0.01447 0,0.02826 0,0.04276 0.02926,1.281098 0.129751,2.784132 0.867228,6.241784 0.02121,0.03267 0.249123,0.468135 0.650425,0.983295 0.421569,0.541178 0.975587,1.183138 1.517651,1.795581 0.542066,0.612442 1.098321,1.223331 1.517655,1.710077 0.194326,0.225567 0.331814,0.407468 0.476977,0.598527 0.413647,0.122114 1.098465,0.123209 1.561012,0 0.118112,-0.17388 0.238111,-0.356003 0.390258,-0.555775 0.373663,-0.490642 0.857515,-1.096089 1.344204,-1.710077 0.48669,-0.613986 0.95911,-1.251056 1.344208,-1.795581 0.356243,-0.503734 0.602893,-0.881798 0.650421,-0.983296 0.0055,-0.02458 -0.0055,-0.0184 0,-0.04276 0.840211,-3.626543 0.820422,-4.81592 0.867229,-6.241785 0,-0.01447 1.25e-4,-0.02829 0,-0.04276 -0.02449,-2.880741 -2.467074,-5.215739 -5.593633,-5.215739 l 0,9e-6 z" id="path4234" style="opacity:0.4;fill:none;stroke:url(#linearGradient2522);stroke-width:1.01423287;stroke-miterlimit:4;stroke-opacity:1;stroke-dasharray:none" inkscape:connector-curvature="0"/>
      <path d="m 49.627097,58.097564 c 2.443719,-2.008625 1.278439,-6.467966 1.034445,-9.322667 1.034445,2.026667 1.034445,8.106666 3.103333,8.106666 -1.409545,0.464669 -2.844268,0.978666 -4.137778,1.216001 z" id="path3876" style="opacity:0.4;fill:url(#linearGradient2519);fill-opacity:1;stroke:none" inkscape:connector-curvature="0"/>
    </g>
  </g>
</svg>
