<!-- Created with Inkscape (http://www.inkscape.org/) -->
<svg xmlns:dc="http://purl.org/dc/elements/1.1/" xmlns:cc="http://creativecommons.org/ns#" xmlns:rdf="http://www.w3.org/1999/02/22-rdf-syntax-ns#" xmlns:svg="http://www.w3.org/2000/svg" xmlns="http://www.w3.org/2000/svg" xmlns:xlink="http://www.w3.org/1999/xlink" xmlns:sodipodi="http://sodipodi.sourceforge.net/DTD/sodipodi-0.dtd" xmlns:inkscape="http://www.inkscape.org/namespaces/inkscape" width="64px" height="64px" id="svg22774" version="1.1" inkscape:version="0.48.4 r9939" sodipodi:docname="folder.svg">
  <defs id="defs22776">
    <linearGradient inkscape:collect="always" xlink:href="#linearGradient8272-8-8" id="linearGradient5962" gradientUnits="userSpaceOnUse" gradientTransform="matrix(1.3210282,0,0,1.2679796,-70.729885,0.17381034)" x1="97.538795" y1="16.962049" x2="97.538795" y2="44.260689"/>
    <linearGradient id="linearGradient8272-8-8">
      <stop offset="0" style="stop-color:#ffffff;stop-opacity:1" id="stop8274-4"/>
      <stop offset="0.0221225" style="stop-color:#ffffff;stop-opacity:0.23529412" id="stop8276-5"/>
      <stop offset="0.97909725" style="stop-color:#ffffff;stop-opacity:0.15686275" id="stop8278-0"/>
      <stop offset="1" style="stop-color:#ffffff;stop-opacity:0.39215687" id="stop8280-5-9"/>
    </linearGradient>
    <linearGradient inkscape:collect="always" xlink:href="#linearGradient6129-963-697-142-998-580-273-9" id="linearGradient5958" gradientUnits="userSpaceOnUse" gradientTransform="matrix(1.5432898,0,0,1.3103449,-5.0382953,0.34483034)" x1="22.934725" y1="49.629246" x2="22.809399" y2="36.657963"/>
    <linearGradient id="linearGradient6129-963-697-142-998-580-273-9">
      <stop id="stop2661-3" style="stop-color:#0a0a0a;stop-opacity:0.498" offset="0"/>
      <stop id="stop2663-33" style="stop-color:#0a0a0a;stop-opacity:0" offset="1"/>
    </linearGradient>
    <linearGradient inkscape:collect="always" xlink:href="#linearGradient4632-0-6-4-4-4" id="linearGradient5954" gradientUnits="userSpaceOnUse" gradientTransform="matrix(0.50413225,0,0,0.49333391,73.843637,-1.4532897)" x1="-91" y1="43.999817" x2="-91" y2="119.05979"/>
    <linearGradient id="linearGradient4632-0-6-4-4-4">
      <stop style="stop-color:#aacb7d;stop-opacity:1;" offset="0" id="stop4634-4-4-7-4"/>
      <stop style="stop-color:#709937;stop-opacity:1;" offset="1" id="stop4636-3-1-5-9"/>
    </linearGradient>
    <radialGradient inkscape:collect="always" xlink:href="#linearGradient5060-820-8" id="radialGradient5950" gradientUnits="userSpaceOnUse" gradientTransform="matrix(-0.04016195,0,0,0.0329426,30.204677,40.92132)" cx="605.71429" cy="486.64789" fx="605.71429" fy="486.64789" r="117.14286"/>
    <linearGradient id="linearGradient5060-820-8">
      <stop id="stop2681-37" style="stop-color:#000000;stop-opacity:1" offset="0"/>
      <stop id="stop2683-05" style="stop-color:#000000;stop-opacity:0" offset="1"/>
    </linearGradient>
    <linearGradient inkscape:collect="always" xlink:href="#linearGradient5048-585-1" id="linearGradient5946" gradientUnits="userSpaceOnUse" gradientTransform="matrix(0.1076923,0,0,0.03294117,-6.9224153,40.92219)" x1="302.85715" y1="366.64789" x2="302.85715" y2="609.50507"/>
    <linearGradient id="linearGradient5048-585-1">
      <stop id="stop2667-0" style="stop-color:#000000;stop-opacity:0" offset="0"/>
      <stop id="stop2669-91" style="stop-color:#000000;stop-opacity:1" offset="0.5"/>
      <stop id="stop2671-6" style="stop-color:#000000;stop-opacity:0" offset="1"/>
    </linearGradient>
    <radialGradient inkscape:collect="always" xlink:href="#linearGradient5060-820-8" id="radialGradient5942" gradientUnits="userSpaceOnUse" gradientTransform="matrix(0.04016195,0,0,0.0329426,33.796647,40.92132)" cx="605.71429" cy="486.64789" fx="605.71429" fy="486.64789" r="117.14286"/>
    <linearGradient inkscape:collect="always" xlink:href="#linearGradient9235-9" id="linearGradient5938" gradientUnits="userSpaceOnUse" gradientTransform="matrix(1.2749674,0,0,1.218292,-67.158525,-0.33920966)" x1="97.538795" y1="8.8103228" x2="97.538795" y2="44.260689"/>
    <linearGradient id="linearGradient9235-9">
      <stop id="stop9237-7" style="stop-color:#ffffff;stop-opacity:1" offset="0"/>
      <stop id="stop9239-2-3" style="stop-color:#ffffff;stop-opacity:0.23529412" offset="0.1088333"/>
      <stop id="stop9241-1" style="stop-color:#ffffff;stop-opacity:0.15686275" offset="0.97909725"/>
      <stop id="stop9243-5" style="stop-color:#ffffff;stop-opacity:0.39215687" offset="1"/>
    </linearGradient>
    <linearGradient inkscape:collect="always" xlink:href="#linearGradient3104-8-8-97-4-6-11-5-5-1-0-5" id="linearGradient5934" gradientUnits="userSpaceOnUse" gradientTransform="matrix(1.0563766,0,0,1.0770552,69.975817,-2.5296497)" x1="-51.786404" y1="53.514328" x2="-51.786404" y2="3.6336823"/>
    <linearGradient id="linearGradient3104-8-8-97-4-6-11-5-5-1-0-5">
      <stop offset="0" style="stop-color:#000000;stop-opacity:0.32173914" id="stop3106-5-4-3-5-0-2-1-0-1-2-7"/>
      <stop offset="1" style="stop-color:#000000;stop-opacity:0.27826086" id="stop3108-4-3-7-8-2-0-7-9-4-9-4-5"/>
    </linearGradient>
    <linearGradient id="linearGradient6404-7-5-7">
      <stop id="stop6406-1-8-2" style="stop-color:#f9f9f9;stop-opacity:1" offset="0"/>
      <stop id="stop6408-9-6-4" style="stop-color:#c9c9c9;stop-opacity:1" offset="1"/>
    </linearGradient>
    <linearGradient y2="16.997795" x2="62.988873" y1="14.090554" x1="62.988873" gradientTransform="matrix(1.3135526,0,0,1.2900554,-55.484955,-1.2218597)" gradientUnits="userSpaceOnUse" id="linearGradient22772" xlink:href="#linearGradient6404-7-5-7" inkscape:collect="always"/>
    <linearGradient gradientUnits="userSpaceOnUse" y2="57.514133" x2="27.057787" y1="20.293636" x1="27.057787" id="linearGradient3867" xlink:href="#linearGradient7012-661-145-733-759-865-745" inkscape:collect="always"/>
    <radialGradient r="117.14286" fy="486.64789" fx="605.71429" cy="486.64789" cx="605.71429" gradientTransform="matrix(0.04016195,0,0,0.0329426,33.795982,40.921317)" gradientUnits="userSpaceOnUse" id="radialGradient3097" xlink:href="#linearGradient5060-820" inkscape:collect="always"/>
    <radialGradient r="21" fy="-17.82061" fx="2.9999998" cy="-17.82061" cx="2.9999998" gradientTransform="matrix(-1.7093459e-8,2.2713251,-2.8951677,-1.9343515e-8,-48.593318,2.3972382)" gradientUnits="userSpaceOnUse" id="radialGradient3094" xlink:href="#linearGradient3484" inkscape:collect="always"/>
    <linearGradient y2="16.19013" x2="62.988873" y1="13.182598" x1="62.988873" gradientTransform="matrix(1.3407707,0,0,1.3249351,-134.0678,-1.3881028)" gradientUnits="userSpaceOnUse" id="linearGradient3092" xlink:href="#linearGradient6404" inkscape:collect="always"/>
    <linearGradient y2="609.50507" x2="302.85715" y1="366.64789" x1="302.85715" gradientTransform="matrix(0.1076923,0,0,0.03294117,-6.9230773,40.922188)" gradientUnits="userSpaceOnUse" id="linearGradient3089" xlink:href="#linearGradient5048-585" inkscape:collect="always"/>
    <radialGradient r="117.14286" fy="486.64789" fx="605.71429" cy="486.64789" cx="605.71429" gradientTransform="matrix(-0.04016195,0,0,0.0329426,30.204018,40.921317)" gradientUnits="userSpaceOnUse" id="radialGradient3086" xlink:href="#linearGradient5060-820" inkscape:collect="always"/>
    <linearGradient y2="15.943953" x2="65.340263" y1="45.114193" x1="82.453476" gradientTransform="matrix(1.3407998,0,0,1.3264587,-72.462643,-1.6032277)" gradientUnits="userSpaceOnUse" id="linearGradient3083" xlink:href="#linearGradient3390" inkscape:collect="always"/>
    <linearGradient y2="36.657963" x2="22.809399" y1="49.629246" x1="22.934725" gradientTransform="matrix(1.5347702,0,0,1.3270123,-5.0206145,-0.04854157)" gradientUnits="userSpaceOnUse" id="linearGradient3078" xlink:href="#linearGradient6129-963-697-142-998-580-273" inkscape:collect="always"/>
    <radialGradient r="20.979567" fy="8.3021259" fx="7.2646537" cy="8.3021259" cx="7.2646537" gradientTransform="matrix(0,1.606606,-2.1816541,0,34.685541,9.28484)" gradientUnits="userSpaceOnUse" id="radialGradient3075" xlink:href="#linearGradient6087-437-184-795-110-662-495" inkscape:collect="always"/>
    <linearGradient y2="33.95525" x2="15.214532" y1="22.292103" x1="11.566265" gradientTransform="matrix(1.3407707,0,0,1.33,-0.3733138,-1.3099814)" gradientUnits="userSpaceOnUse" id="linearGradient3072" xlink:href="#linearGradient8265-821-176-38-919-66-249" inkscape:collect="always"/>
    <linearGradient gradientTransform="matrix(1.3407707,0,0,1.33,-0.3733138,-1.3099814)" gradientUnits="userSpaceOnUse" xlink:href="#linearGradient8265-821-176-38-919-66-249" id="linearGradient2576" y2="33.95525" x2="15.214532" y1="22.292103" x1="11.566265"/>
    <linearGradient id="linearGradient8265-821-176-38-919-66-249">
      <stop offset="0" style="stop-color:#ffffff;stop-opacity:0.27450982" id="stop2687"/>
      <stop offset="1" style="stop-color:#ffffff;stop-opacity:0.07843138" id="stop2689"/>
    </linearGradient>
    <radialGradient gradientTransform="matrix(0,1.606606,-2.1816541,0,34.685541,9.28484)" gradientUnits="userSpaceOnUse" xlink:href="#linearGradient6087-437-184-795-110-662-495" id="radialGradient2579" fy="8.3021259" fx="7.2646537" r="20.979567" cy="8.3021259" cx="7.2646537"/>
    <linearGradient id="linearGradient6087-437-184-795-110-662-495">
      <stop offset="0" style="stop-color:#ffffff;stop-opacity:0.40000001" id="stop2693"/>
      <stop offset="1" style="stop-color:#ffffff;stop-opacity:0" id="stop2695"/>
    </linearGradient>
    <linearGradient gradientTransform="matrix(1.5347702,0,0,1.3270123,-5.0206145,-0.04854157)" gradientUnits="userSpaceOnUse" xlink:href="#linearGradient6129-963-697-142-998-580-273" id="linearGradient2582" y2="36.657963" x2="22.809399" y1="49.629246" x1="22.934725"/>
    <linearGradient id="linearGradient6129-963-697-142-998-580-273">
      <stop offset="0" style="stop-color:#0a0a0a;stop-opacity:0.498" id="stop2661"/>
      <stop offset="1" style="stop-color:#0a0a0a;stop-opacity:0" id="stop2663"/>
    </linearGradient>
    <radialGradient gradientTransform="matrix(2.0979394,-1.2620327e-7,8.2824269e-8,1.3475335,-115.96782,9.3537334)" gradientUnits="userSpaceOnUse" xlink:href="#linearGradient7012-661-145-733-759-865-745" id="radialGradient2585" fy="14.113381" fx="63.969177" r="23.097054" cy="14.113381" cx="63.969177"/>
    <linearGradient id="linearGradient7012-661-145-733-759-865-745">
      <stop offset="0" style="stop-color:#aacb7d;stop-opacity:1" id="stop2699"/>
      <stop offset="1" style="stop-color:#709937;stop-opacity:1" id="stop2701"/>
    </linearGradient>
    <linearGradient gradientTransform="matrix(1.3407998,0,0,1.3264587,-72.462643,-1.6032277)" gradientUnits="userSpaceOnUse" xlink:href="#linearGradient3390" id="linearGradient2587" y2="15.943953" x2="65.340263" y1="45.114193" x1="82.453476"/>
    <linearGradient id="linearGradient3390">
      <stop offset="0" style="stop-color:#51751e;stop-opacity:1" id="stop3392"/>
      <stop offset="1" style="stop-color:#51751e;stop-opacity:1" id="stop3394"/>
    </linearGradient>
    <radialGradient gradientTransform="matrix(-0.04016195,0,0,0.0329426,30.204018,40.921317)" gradientUnits="userSpaceOnUse" xlink:href="#linearGradient5060-820" id="radialGradient3403" fy="486.64789" fx="605.71429" r="117.14286" cy="486.64789" cx="605.71429"/>
    <linearGradient id="linearGradient5060-820">
      <stop offset="0" style="stop-color:#000000;stop-opacity:1" id="stop2681"/>
      <stop offset="1" style="stop-color:#000000;stop-opacity:0" id="stop2683"/>
    </linearGradient>
    <linearGradient gradientTransform="matrix(0.1076923,0,0,0.03294117,-6.9230773,40.922188)" gradientUnits="userSpaceOnUse" xlink:href="#linearGradient5048-585" id="linearGradient3409" y2="609.50507" x2="302.85715" y1="366.64789" x1="302.85715"/>
    <linearGradient id="linearGradient5048-585">
      <stop offset="0" style="stop-color:#000000;stop-opacity:0" id="stop2667"/>
      <stop offset="0.5" style="stop-color:#000000;stop-opacity:1" id="stop2669"/>
      <stop offset="1" style="stop-color:#000000;stop-opacity:0" id="stop2671"/>
    </linearGradient>
    <linearGradient gradientTransform="matrix(1.3407707,0,0,1.3249351,-134.0678,-1.3881028)" gradientUnits="userSpaceOnUse" xlink:href="#linearGradient6404" id="linearGradient3398" y2="16.19013" x2="62.988873" y1="13.182598" x1="62.988873"/>
    <linearGradient id="linearGradient6404">
      <stop offset="0" style="stop-color:#f9f9f9;stop-opacity:1" id="stop6406"/>
      <stop offset="1" style="stop-color:#c9c9c9;stop-opacity:1" id="stop6408"/>
    </linearGradient>
    <radialGradient gradientTransform="matrix(-1.7093459e-8,2.2713251,-2.8951677,-1.9343515e-8,-48.593318,2.3972382)" gradientUnits="userSpaceOnUse" xlink:href="#linearGradient3484" id="radialGradient3396" fy="-17.82061" fx="2.9999998" r="21" cy="-17.82061" cx="2.9999998"/>
    <linearGradient id="linearGradient3484">
      <stop offset="0" style="stop-color:#bdbdbd;stop-opacity:1" id="stop3486"/>
      <stop offset="1" style="stop-color:#d0d0d0;stop-opacity:1" id="stop3488"/>
    </linearGradient>
    <radialGradient gradientTransform="matrix(0.04016195,0,0,0.0329426,33.795982,40.921317)" gradientUnits="userSpaceOnUse" xlink:href="#linearGradient5060-820" id="radialGradient3413" fy="486.64789" fx="605.71429" r="117.14286" cy="486.64789" cx="605.71429"/>
    <linearGradient gradientTransform="translate(258.94136,-13.269885)" gradientUnits="userSpaceOnUse" xlink:href="#linearGradient11114-935" id="linearGradient2767-168" y2="93.653961" x2="-166.63983" y1="99.667191" x1="-172.65306"/>
    <linearGradient id="linearGradient11114-935">
      <stop offset="0" style="stop-color:#242424;stop-opacity:0.99215686" id="stop3012"/>
      <stop offset="1" style="stop-color:#656565;stop-opacity:1" id="stop3014"/>
    </linearGradient>
    <linearGradient gradientTransform="translate(-127.09317,-2.645081)" gradientUnits="userSpaceOnUse" xlink:href="#linearGradient12093-430" id="linearGradient2769-669" y2="67.350082" x2="201.87128" y1="146.1507" x1="277.573"/>
    <linearGradient id="linearGradient12093-430">
      <stop offset="0" style="stop-color:#ffffff;stop-opacity:1" id="stop3018"/>
      <stop offset="1" style="stop-color:#ffffff;stop-opacity:0" id="stop3020"/>
    </linearGradient>
    <filter color-interpolation-filters="sRGB" id="filter13078">
      <feGaussianBlur id="feGaussianBlur13080" stdDeviation="0.66072995"/>
    </filter>
    <radialGradient gradientTransform="matrix(0,1.2079744,-1.6271642,0,26.371748,8.2664685)" gradientUnits="userSpaceOnUse" xlink:href="#linearGradient6087-437-184-795-110-662-495-447" id="radialGradient2771-882" fy="8.3021259" fx="7.2646537" r="20.979567" cy="8.3021259" cx="7.2646537"/>
    <linearGradient id="linearGradient6087-437-184-795-110-662-495-447">
      <stop offset="0" style="stop-color:#ffffff;stop-opacity:0.40000001" id="stop3024"/>
      <stop offset="1" style="stop-color:#ffffff;stop-opacity:0" id="stop3026"/>
    </linearGradient>
    <radialGradient gradientTransform="matrix(2.0709796,0,0,1.6093623,-75.801052,-6.777836)" gradientUnits="userSpaceOnUse" xlink:href="#linearGradient4467-844" id="radialGradient2773-3" fy="13.078408" fx="15.414371" r="6.65625" cy="13.078408" cx="15.414371"/>
    <linearGradient id="linearGradient4467-844">
      <stop offset="0" style="stop-color:#ffffff;stop-opacity:1" id="stop3030"/>
      <stop offset="1" style="stop-color:#ffffff;stop-opacity:0.24761905" id="stop3032"/>
    </linearGradient>
    <linearGradient gradientTransform="matrix(0.272289,0,0,0.272289,-88.49468,7.5340783)" gradientUnits="userSpaceOnUse" xlink:href="#linearGradient2300-705" id="linearGradient2775-524" y2="11.949074" x2="173.09576" y1="75.31868" x1="173.09576"/>
    <linearGradient id="linearGradient2300-705">
      <stop offset="0" style="stop-color:#343434;stop-opacity:0.97647059" id="stop3036"/>
      <stop offset="1" style="stop-color:#939393;stop-opacity:1" id="stop3038"/>
    </linearGradient>
    <linearGradient gradientTransform="matrix(0.272289,0,0,0.272289,-53.175758,9.5832993)" gradientUnits="userSpaceOnUse" xlink:href="#linearGradient11104-748" id="linearGradient2777-535" y2="4.5362983" x2="41.485142" y1="68.291702" x1="41.541653"/>
    <linearGradient id="linearGradient11104-748">
      <stop offset="0" style="stop-color:#333333;stop-opacity:1" id="stop3042"/>
      <stop offset="1" style="stop-color:#333333;stop-opacity:0.6122449" id="stop3044"/>
    </linearGradient>
    <linearGradient gradientTransform="translate(-53.765393,-0.1141929)" gradientUnits="userSpaceOnUse" xlink:href="#linearGradient3390-178-986-453-714" id="linearGradient2960" y2="15.943953" x2="65.340263" y1="45.114193" x1="82.453476"/>
    <linearGradient id="linearGradient3390-178-986-453-714">
      <stop offset="0" style="stop-color:#666666;stop-opacity:1" id="stop3048"/>
      <stop offset="1" style="stop-color:#808080;stop-opacity:1" id="stop3050"/>
    </linearGradient>
    <filter color-interpolation-filters="sRGB" id="filter10131">
      <feGaussianBlur id="feGaussianBlur10133" stdDeviation="0.31195313"/>
    </filter>
  </defs>
  <sodipodi:namedview id="base" pagecolor="#ffffff" bordercolor="#666666" borderopacity="1.0" inkscape:pageopacity="0.0" inkscape:pageshadow="2" inkscape:zoom="5.5" inkscape:cx="32" inkscape:cy="32" inkscape:current-layer="layer1" showgrid="true" inkscape:document-units="px" inkscape:grid-bbox="true" inkscape:window-width="774" inkscape:window-height="568" inkscape:window-x="762" inkscape:window-y="276" inkscape:window-maximized="0"/>
  <metadata id="metadata22779">
    <rdf:RDF>
      <cc:Work rdf:about="">
        <dc:format>image/svg+xml</dc:format>
        <dc:type rdf:resource="http://purl.org/dc/dcmitype/StillImage"/>
        <dc:title/>
      </cc:Work>
    </rdf:RDF>
  </metadata>
  <g id="layer1" inkscape:label="Layer 1" inkscape:groupmode="layer">
    <path inkscape:connector-curvature="0" style="color:#000000;fill:url(#linearGradient22772);fill-opacity:1;fill-rule:nonzero;stroke:none;stroke-width:1.00000012;marker:none;visibility:visible;display:inline;overflow:visible;enable-background:accumulate" d="m 7.5006657,10 c -0.277,0 -0.5,0.223 -0.5,0.5 l 0,3.5 -2.5,0 c -0.277,0 -0.5,0.223 -0.5,0.5 l 0,9.5 c 0,0.277 0.223,0.5 0.5,0.5 l 55.0000013,0 c 0.277,0 0.5,-0.223 0.5,-0.5 l 0,-9.5 c 0,-0.277 -0.223,-0.5 -0.5,-0.5 l -31.5,0 0,-3.5 c 0,-0.277 -0.223,-0.5 -0.5,-0.5 L 7.5006657,10 z" id="rect3340-3"/>
    <path style="opacity:0.8;color:#000000;fill:none;stroke:url(#linearGradient5934);stroke-width:1;stroke-linecap:butt;stroke-linejoin:miter;stroke-miterlimit:4;stroke-opacity:1;stroke-dasharray:none;stroke-dashoffset:0;marker:none;visibility:visible;display:inline;overflow:visible;enable-background:accumulate" id="path2558" inkscape:connector-curvature="0" d="m 8.0006657,9.5001603 c -0.91501,0.0102 -1.5,0.45618 -1.5,1.3332897 l 0,2.66655 -1.506,0 c -0.99492,0 -1.494,0.47358 -1.494,1.34217 0.0456,13.71958 0,14.49301 0,15.65783 1.90283,0 56.9999913,-4.9328 56.9999913,-7.05611 l 0,-8.44389 c 0,-1.00007 -0.49994,-1.5 -1.49999,-1.5 l -30.5,0 0,-2.66655 c 0,-0.8771097 -0.22453,-1.3435097 -1.13954,-1.3332897 z" sodipodi:nodetypes="cscsccssscccc"/>
    <path inkscape:connector-curvature="0" style="color:#000000;fill:none;stroke:url(#linearGradient5938);stroke-width:0.99999976;stroke-linecap:round;stroke-linejoin:round;stroke-miterlimit:4;stroke-opacity:1;stroke-dasharray:none;stroke-dashoffset:0;marker:none;visibility:visible;display:inline;overflow:visible;enable-background:accumulate" d="m 7.5006657,10.5 0,4 -3,0 0,10 55.0000013,0 0,-10 -32,0 0,-4 -20.0000013,0 z" id="rect3340"/>
    <path style="opacity:0.3;fill:url(#radialGradient5942);fill-opacity:1;fill-rule:nonzero;stroke:none;stroke-width:1;marker:none;visibility:visible;display:inline;overflow:visible" id="path3411" inkscape:connector-curvature="0" d="m 58.000667,52.99993 c 0,0 0,7.99991 0,7.99991 2.06824,0.0151 5,-1.79238 5,-4.00047 0,-2.2081 -2.308,-3.99944 -5,-3.99944 z"/>
    <rect style="opacity:0.3;fill:url(#linearGradient5946);fill-opacity:1;fill-rule:nonzero;stroke:none;stroke-width:1;marker:none;visibility:visible;display:inline;overflow:visible" id="rect4173-14" y="53" x="6.000669" height="8" width="52"/>
    <path style="opacity:0.3;fill:url(#radialGradient5950);fill-opacity:1;fill-rule:nonzero;stroke:none;stroke-width:1;marker:none;visibility:visible;display:inline;overflow:visible" id="path5018-7" inkscape:connector-curvature="0" d="m 6.0006657,52.99993 c 0,0 0,7.99991 0,7.99991 -2.06825,0.0151 -5,-1.79238 -5,-4.00047 0,-2.2081 2.308,-3.99944 5,-3.99944 z"/>
    <path style="color:#000000;fill:url(#linearGradient5954);fill-opacity:1;fill-rule:nonzero;stroke:none;stroke-width:0.99999982;marker:none;visibility:visible;display:inline;overflow:visible;enable-background:accumulate" id="path3388-0" inkscape:connector-curvature="0" d="m 2.5042057,20.53211 c -1.44043,0.16346 -0.87122,1.85289 -0.98607,2.8029 0.5271,11.19318 1.25951,21.80885 1.78336,33.0021 0,1.18996 1.19486,1.13653 1.86516,1.13653 0,0 36.7742113,0 54.4905113,0 1.46281,-0.14093 0.85463,-1.86024 1.0604,-2.8442 0.52711,-11.19317 1.25992,-21.56889 1.78376,-32.76214 0.0178,-0.7521 -0.50074,-1.33519 -1.21534,-1.33519 0,0 -39.86255,0 -58.7817813,0 z" sodipodi:nodetypes="ccccccccc"/>
    <path style="opacity:0.4;fill:url(#linearGradient5958);fill-opacity:1;stroke:none" id="path6127-8" inkscape:connector-curvature="0" d="m 2.4097557,20 59.1818113,5.3e-4 c 0.85499,0 1.4091,0.5839 1.4091,1.30984 l -1.6775,35.37929 c 0,0.72593 -0.68831,1.31034 -1.54329,1.31034 L 4.2214357,58 c -0.85498,0 -1.54329,-0.58441 -1.54329,-1.31034 l -1.67748,-35.37931 c 0,-0.72594 0.5541,-1.31035 1.40909,-1.31035 z"/>
    <path style="opacity:0.5;color:#000000;fill:none;stroke:url(#linearGradient5962);stroke-width:0.99999988;stroke-linecap:round;stroke-linejoin:round;stroke-miterlimit:4;stroke-opacity:1;stroke-dasharray:none;stroke-dashoffset:0;marker:none;visibility:visible;display:inline;overflow:visible;enable-background:accumulate" d="M 61.069097,21.5 3.9511557,21.5313 c -1.70924,0 -1.43419,0.0338 -1.43419,1.07579 l 1.62114,32.91358 c 0.0163,0.94321 -0.0656,0.9793 1.0726,0.9793 0,0 36.7779513,0 54.4396613,0 0.53983,-11.58225 1.25805,-22.68226 1.81479,-34.32182 0.0519,-0.55489 0.0134,-0.67818 -0.39606,-0.67818 z" id="path3290" inkscape:connector-curvature="0" sodipodi:nodetypes="cccccccc"/>
    <path style="opacity:0.3;color:#000000;fill:none;stroke:#000000;stroke-width:0.99999982;stroke-linecap:round;stroke-linejoin:round;stroke-miterlimit:4;stroke-opacity:1;stroke-dasharray:none;stroke-dashoffset:0;marker:none;visibility:visible;display:inline;overflow:visible;enable-background:accumulate" id="path3388-0-1" inkscape:connector-curvature="0" d="m 2.5042057,20.53211 c -1.44043,0.16346 -0.87122,1.85289 -0.98607,2.8029 0.5271,11.19318 1.25951,21.80885 1.78336,33.0021 0,1.18996 1.19486,1.13653 1.86516,1.13653 0,0 36.7742113,0 54.4905113,0 1.46281,-0.14093 0.85463,-1.86024 1.0604,-2.8442 0.52711,-11.19317 1.25992,-21.56889 1.78376,-32.76214 0.0178,-0.7521 -0.50074,-1.33519 -1.21534,-1.33519 0,0 -39.86255,0 -58.7817813,0 z" sodipodi:nodetypes="ccccccccc"/>
    <g id="g2664" transform="matrix(1.33,0,0,1.33,92.199249,10.49475)">
      <g id="g20913" transform="matrix(0.272289,0,0,0.272289,-54.190059,8.0618533)">
        <path style="fill:url(#linearGradient2767-168);fill-opacity:1;fill-rule:evenodd;stroke:#333333;stroke-width:0.17120244;stroke-linecap:round;stroke-linejoin:round;stroke-miterlimit:4;stroke-opacity:1;stroke-dasharray:none" id="path11112" d="m 73.007297,61.163396 44.712723,41.613814 -6.19781,8.41129 -44.550783,-45.015017 6.03587,-5.010087 0,0 z" inkscape:connector-curvature="0"/>
        <path style="fill:url(#linearGradient2769-669);fill-opacity:1;fill-rule:evenodd;stroke:none;filter:url(#filter13078)" id="path11122" d="M 110.63681,109.41771 74.7781,64.704998 l 43.38462,38.072212 -7.52591,6.6405 0,0 z" inkscape:connector-curvature="0"/>
        <path style="fill:#3e3e3e;fill-opacity:1;stroke:none" id="path13082" d="m 118.49016,103.08607 c 0.72828,0.64822 0.7074,2.02349 -0.0548,3.60697 -0.76218,1.58349 -2.14964,3.13418 -3.63895,4.06706 -1.48931,0.93289 -2.85381,1.10598 -3.57871,0.45398 -0.72828,-0.64822 -0.7074,-2.02349 0.0548,-3.60697 0.76218,-1.58349 2.14964,-3.13418 3.63895,-4.06706 1.48931,-0.93289 2.85381,-1.10598 3.57871,-0.45398 l 0,0 z" inkscape:connector-curvature="0"/>
      </g>
      <path style="fill:url(#radialGradient2771-882);fill-opacity:1;fill-rule:evenodd;stroke:none;stroke-width:1.07456946;marker:none;visibility:visible" id="path4452" transform="matrix(1.0040995,0,0,0.9796836,-58.601963,0.9474585)" d="m 25.897786,18.478292 c 7.12e-4,4.589164 -3.719341,8.309794 -8.308505,8.309794 -4.589164,0 -8.309217,-3.72063 -8.308505,-8.309794 -7.12e-4,-4.589164 3.719341,-8.309794 8.308505,-8.309794 4.589164,0 8.309217,3.72063 8.308505,8.309794 l 0,0 z" inkscape:connector-curvature="0"/>
      <path style="opacity:0.6;fill:url(#radialGradient2773-3);fill-opacity:1;fill-rule:evenodd;stroke:none;stroke-width:1;marker:none;visibility:visible;display:inline;overflow:visible" id="path4462" d="m -41.284234,12.043182 c -4.159261,0 -7.527314,3.013454 -7.527314,6.734818 0,1.074746 0.335699,2.063614 0.836368,2.965537 1.000266,0.32987 2.06283,0.554306 3.19059,0.554306 4.928695,0 8.864912,-3.474145 9.169073,-7.815715 -1.382507,-1.461745 -3.362525,-2.438946 -5.668717,-2.438946 l 0,0 z" inkscape:connector-curvature="0"/>
      <path style="fill:url(#linearGradient2775-524);fill-opacity:1;stroke:url(#linearGradient2777-535);stroke-width:0.07518797;stroke-linecap:round;stroke-linejoin:round;stroke-miterlimit:4;stroke-opacity:1;stroke-dasharray:none" id="path2298" d="m -41.123977,10.922062 c -5.123534,0 -9.283356,3.835788 -9.283353,8.560086 0,4.724296 4.159819,8.560084 9.283353,8.560085 5.123531,0 9.283353,-3.835789 9.283353,-8.560085 0,-4.724298 -4.159819,-8.560086 -9.283353,-8.560086 z m 0.110617,0.561596 c 4.585595,0 8.313324,3.429852 8.313324,7.658128 0,4.228276 -3.727729,7.658128 -8.313324,7.658128 -4.585597,10e-7 -8.304814,-3.429851 -8.304814,-7.658128 0,-4.228276 3.719217,-7.658128 8.304814,-7.658128 l 0,0 z" inkscape:connector-curvature="0"/>
      <path style="fill:url(#linearGradient2960);fill-opacity:1;stroke:none;display:inline;filter:url(#filter10131)" id="path4267" transform="matrix(0.272289,0,0,0.272289,-54.291487,8.4675723)" d="m 48.577332,9.920532 c -17.91993,0 -32.4375,13.413928 -32.4375,29.937501 0,16.523571 14.51756,29.937502 32.4375,29.9375 17.91993,0 32.46875,-13.413931 32.46875,-29.9375 0,-16.523572 -14.54883,-29.937501 -32.46875,-29.937501 l 0,0 z m 0.1875,1.15625 c 16.84091,0 30.53125,12.596366 30.53125,28.125001 0,15.528632 -13.69034,28.125 -30.53125,28.125 -16.84092,2e-6 -30.5,-12.596366 -30.5,-28.125 0,-15.528635 13.65908,-28.125001 30.5,-28.125001 l 0,0 z" inkscape:connector-curvature="0"/>
    </g>
  </g>
</svg>
