/* XPM */
static char *ccc_large[] = {
/* columns rows colors chars-per-pixel */
"22 22 143 2",
"   c #000000",
".  c #383838",
"X  c #393939",
"o  c #3D3D3D",
"O  c #491212",
"+  c #4F2D2D",
"@  c #553131",
"#  c #404040",
"$  c #424242",
"%  c #434343",
"&  c #444444",
"*  c #454545",
"=  c #494949",
"-  c #4D4D4D",
";  c #505050",
":  c #525252",
">  c #545454",
",  c #5B5B5B",
"<  c #616161",
"1  c #646464",
"2  c #666666",
"3  c #BE0A0A",
"4  c #B93333",
"5  c #C01313",
"6  c #CC1717",
"7  c #C31D1D",
"8  c #EB0D0D",
"9  c #EF0F0F",
"0  c #EC1616",
"q  c #F01111",
"w  c #F11212",
"e  c #F21414",
"r  c #F01717",
"t  c #F41616",
"y  c #F11919",
"u  c #F21A1A",
"i  c #F51818",
"p  c #F61919",
"a  c #F71B1B",
"s  c #F31C1C",
"d  c #F51E1E",
"f  c #F81D1D",
"g  c #FA1D1D",
"h  c #FB1F1F",
"j  c #C22222",
"k  c #C32222",
"l  c #C52626",
"z  c #C52B2B",
"x  c #C62A2A",
"c  c #C72B2B",
"v  c #C62F2F",
"b  c #D32E2E",
"n  c #CA3434",
"m  c #C53939",
"M  c #C73E3E",
"N  c #ED2121",
"B  c #EE2A2A",
"V  c #ED2D2D",
"C  c #EE2D2D",
"Z  c #EE2E2E",
"A  c #F12323",
"S  c #F62020",
"D  c #F62121",
"F  c #F72323",
"G  c #FC2323",
"H  c #F82525",
"J  c #FB2424",
"K  c #FA2525",
"L  c #FD2424",
"P  c #FD2727",
"I  c #F12C2C",
"U  c #F12E2E",
"Y  c #F12F2F",
"T  c #F72C2C",
"R  c #FC2929",
"E  c #FD2929",
"W  c #FD2A2A",
"Q  c #FC2B2B",
"!  c #FB2D2D",
"~  c #F82E2E",
"^  c #FA2F2F",
"/  c #FD2D2D",
"(  c #FC2F2F",
")  c #EE3434",
"_  c #F23030",
"`  c #F23131",
"'  c #F33131",
"]  c #F33232",
"[  c #F63131",
"{  c #F43333",
"}  c #F43434",
"|  c #F63434",
" . c #F63535",
".. c #F63636",
"X. c #F63737",
"o. c #F73737",
"O. c #F93030",
"+. c #FC3232",
"@. c #FB3535",
"#. c #F83636",
"$. c #FB3737",
"%. c #FC3434",
"&. c #F73838",
"*. c #F73D3D",
"=. c #F93838",
"-. c #F83939",
";. c #F83A3A",
":. c #F93A3A",
">. c #F93B3B",
",. c #FB3A3A",
"<. c #FB3B3B",
"1. c #FC3838",
"2. c #FC3A3A",
"3. c #C84040",
"4. c #F34242",
"5. c #F84646",
"6. c #F94B4B",
"7. c #FA4E4E",
"8. c #F95555",
"9. c #FE5A5A",
"0. c #FE5B5B",
"q. c #FE5C5C",
"w. c #EC9B9B",
"e. c #F69898",
"r. c #E8B6B6",
"t. c #E9B9B9",
"y. c #E9BABA",
"u. c #EABABA",
"i. c #EDBCBC",
"p. c #FCC4C4",
"a. c #FDC7C7",
"s. c #FDC9C9",
"d. c #FDCECE",
"f. c #F2D3D3",
"g. c #F2D4D4",
"h. c #F3D7D7",
"j. c #FDDADA",
"k. c #FEDBDB",
"l. c #FDDCDC",
"z. c #FEDEDE",
"x. c #FEE0E0",
"c. c #FFFFFF",
"v. c None",
/* pixels */
"v.v.v.v.v.v.v.v.v.v.v.v.v.v.v.v.v.v.v.v.v.v.",
"v.v.8.9.9.9.q.q.q.q.q.q.q.q.q.q.9.q.9.8.v.v.",
"v.4./ L R R / R R R R R R R R R R R L / 4.v.",
"v.R G R / +.@.@.@.@.@.@.@.@.@.@.O./ R K / v.",
"v.G K ! @.1.,.1.<.1.<.1.1.<.1.<.,.@.! K G v.",
"v.g K O.@.,.,.,.<.<.<.,.<.<.<.<.,.@.! K g v.",
"v.g H O.,.,.7.k.d.<.s.c.c.c.c.s.,.s.a.K g v.",
"v.a F T ..6.x.c.c.<.i.c.c.c.c.i.&.c.c.F a v.",
"v.a F T 5.z.c.c.c.&.n 4 c.c.4 n ..c.c.d a v.",
"v.t d *.z.c.h.c.c.......c.c.&.....c.c.F a v.",
"v.t [ k.c.f.3.c.c.......c.c.......c.c.d e v.",
"v.e p.c.f.M ) c.c.} ] } c.c.} ] ] c.c.a q v.",
"v.q w.y.m e.] y.y.] ] ] y.y.] ] ] y.r.y q v.",
"v.q 6 k Z b U v v ] ] ] v v ] ] U x k y q v.",
"v.9 y A U U U U Z U Z U ] U U U U I A 0 9 v.",
"v.8 0 N B Z Z Z Z Z Z Z Z Z Z Z Z I N 0 9 v.",
"v.3 5 7 l x x c c c c c c c c c c l 7 5 5 v.",
"v.; > , < 1 2 1 2 2 2 2 2 2 2 2 1 < , > - v.",
"v.# & = - ; > ; > ; > ; > > ; > ; - = & # v.",
"v.@ o # & & & & & & & & & & & & & # # o @ v.",
"v.O + X X X X X X X X X X X X X . X X + O v.",
"v.v.v.                                v.v.v."
};
