/* XPM */
static char *gnome_activity_journal[] = {
/* columns rows colors chars-per-pixel */
"22 22 224 2",
"   c #000000",
".  c #0D2E3B",
"X  c #1F657B",
"o  c #216A83",
"O  c #23728D",
"+  c #24738D",
"@  c #24738E",
"#  c #2C7892",
"$  c #2D7B95",
"%  c #2D7C96",
"&  c #30829E",
"*  c #2E83A0",
"=  c #2984A3",
"-  c #2A86A4",
";  c #2D8AA9",
":  c #2F8DAB",
">  c #2E8DAD",
",  c #2F8FAF",
"<  c #328AA7",
"1  c #3E89A1",
"2  c #3B8CA6",
"3  c #308BAA",
"4  c #318CAB",
"5  c #328DAB",
"6  c #338DAB",
"7  c #3390AF",
"8  c #3590AD",
"9  c #3A93AF",
"0  c #3292B1",
"q  c #3793B2",
"w  c #3394B4",
"e  c #3597B6",
"r  c #3D95B1",
"t  c #3F95B1",
"y  c #3C95B2",
"u  c #3A96B4",
"i  c #3B98B7",
"p  c #3799B9",
"a  c #389BBB",
"s  c #3C9AB9",
"d  c #3A9DBE",
"f  c #3E9CBC",
"g  c #3F9EBE",
"h  c #4D889B",
"j  c #548EA3",
"k  c #5397AE",
"l  c #5B9AAE",
"z  c #4098B5",
"x  c #4399B5",
"c  c #469AB6",
"v  c #479BB7",
"b  c #489BB7",
"n  c #439BB8",
"m  c #479CB8",
"M  c #449DBA",
"N  c #469EBB",
"B  c #469FBC",
"V  c #4A9CB8",
"C  c #4B9EB9",
"Z  c #4B9FBA",
"A  c #4B9FBB",
"S  c #4E9EB8",
"D  c #579AB1",
"F  c #569CB4",
"G  c #6295A6",
"H  c #6E9CAC",
"J  c #4CA0BB",
"K  c #48A1BF",
"L  c #49A1BF",
"P  c #4CA1BD",
"I  c #4FA1BC",
"U  c #50A0BC",
"Y  c #61A8BF",
"T  c #6BA8BB",
"R  c #70A0B1",
"E  c #75A2B1",
"W  c #77A7B7",
"Q  c #79A3B2",
"!  c #3B9FC0",
"~  c #3DA1C3",
"^  c #3FA3C5",
"/  c #41A0C0",
"(  c #42A2C2",
")  c #44A4C5",
"_  c #46A7C7",
"`  c #49A3C1",
"'  c #4CA7C5",
"]  c #40A5C8",
"[  c #41A7CA",
"{  c #47A9CA",
"}  c #42A9CC",
"|  c #47ABCD",
" . c #46ACCF",
".. c #4DA8C8",
"X. c #4FABCA",
"o. c #48AACC",
"O. c #4EAECF",
"+. c #50A3C0",
"@. c #52A6C3",
"#. c #53A7C3",
"$. c #53A8C4",
"%. c #54A8C4",
"&. c #55A8C4",
"*. c #54A8C5",
"=. c #54A9C6",
"-. c #55AAC7",
";. c #56ACC9",
":. c #57ADCB",
">. c #50ADCC",
",. c #50AECE",
"<. c #57B0CE",
"1. c #59B0CD",
"2. c #59B1CD",
"3. c #5AB1CD",
"4. c #58B1CE",
"5. c #5AB0CE",
"6. c #5AB1CF",
"7. c #5AB2CF",
"8. c #5DB1CE",
"9. c #48AFD1",
"0. c #4CAED0",
"q. c #4DAFD1",
"w. c #4BB0D2",
"e. c #4CB1D2",
"r. c #4DB1D2",
"t. c #4EB1D2",
"y. c #4FB3D3",
"u. c #50B0D2",
"i. c #53B2D2",
"p. c #57B1D0",
"a. c #55B2D1",
"s. c #55B2D3",
"d. c #56B2D3",
"f. c #58B3D2",
"g. c #5DB3D0",
"h. c #5FB5D2",
"j. c #60B1CD",
"k. c #64B3CF",
"l. c #61B4CF",
"z. c #6FB5CD",
"x. c #61B7D6",
"c. c #67B9D5",
"v. c #6BBCD7",
"b. c #6DBDD7",
"n. c #6FBED9",
"m. c #7DBAD0",
"M. c #75C3DE",
"N. c #76C4DE",
"B. c #76C4DF",
"V. c #81ADBB",
"C. c #86AFBC",
"Z. c #80BBCF",
"A. c #98B7C0",
"S. c #9FBAC2",
"D. c #95BBC8",
"F. c #96BDCA",
"G. c #93BFCD",
"H. c #80BED3",
"J. c #96C1CF",
"K. c #84C0D5",
"L. c #89C0D3",
"P. c #8FC3D4",
"I. c #87C6DB",
"U. c #8CC9DD",
"Y. c #ABCED9",
"T. c #B7CCD2",
"R. c #B2CCD4",
"E. c #B5CDD6",
"W. c #B9CCD3",
"Q. c #BBCFD5",
"!. c #A4D0DE",
"~. c #A5D0DE",
"^. c #BFD0D5",
"/. c #B6D1DA",
"(. c #BDD1D8",
"). c #BCD2D9",
"_. c #BCD3DB",
"`. c #BFD4DB",
"'. c #96D0E4",
"]. c #A6D6E6",
"[. c #A9D5E3",
"{. c #B3D6E2",
"}. c #C2D3D9",
"|. c #C9D9DD",
" X c #CAD9DF",
".X c #CBDADF",
"XX c #C8DEE5",
"oX c #D0DEE2",
"OX c #C5E2ED",
"+X c #C8E0E8",
"@X c #CBE1E9",
"#X c #CCE2E9",
"$X c #D1E6EE",
"%X c #D7E7ED",
"&X c #DAE6E9",
"*X c #D9E5EA",
"=X c #DCE7EA",
"-X c #DBE8EB",
";X c #DBEAEF",
":X c #DCECF2",
">X c #E2EBED",
",X c #E2EBEF",
"<X c #E4ECEE",
"1X c #E2EEF1",
"2X c #ECF1F3",
"3X c #E9F2F5",
"4X c #E8F2F6",
"5X c #EDF3F4",
"6X c #EFF5F6",
"7X c #F0F4F6",
"8X c #F2F6F8",
"9X c #F5F7F9",
"0X c #F7F9F9",
"qX c #F5F9FA",
"wX c #F7F9FA",
"eX c #FBFCFD",
"rX c #FBFDFD",
"tX c #FCFDFE",
"yX c #FCFEFE",
"uX c #FDFEFE",
"iX c #FDFEFF",
"pX c #FEFEFE",
"aX c #FFFFFF",
"sX c None",
/* pixels */
"sXsXsXsXsXsXsXsXsXsXsXsXsXsXsXsXsXsXsXsXsXsX",
"sXsXn.M.B.B.B.B.B.B.M.M.B.B.B.B.N.N.M.n.sXsX",
"sXx.y.9.0.e.y.y.y.y.0.y.e.u.e.e.y.w.w.e.l.sX",
"sX0. .0.u.u.a.a.'.OX4XqX:X].x.d.u.u.0.| 0.sX",
"sX} | O.a.f.b.$XaXaXXXA.A.XX2Xv.a.a.O.| } sX",
"sX[ o.>.<.h.1XaX9XQ S 1.g.I E %Xv.a.>.o.[ sX",
"sX] { >.<.{.aXaXC.1.6.g.[.6.1.V.;XU.6.{ [ sX",
"sX] _ X.8.rXaX>X*.1.1.I.F.1.1.*.&XaX+X_ ^ sX",
"sX~ ) X.m.aXaX).:.:.j.aXaXj.:.:.E.aX&X] ~ sX",
"sX! / ' Y.aXaX_.;.;.*.T.W.*.;.;./.aXW / ! sX",
"sXd ! z.aXaXaX>X-.-.-.S XXZ.-.-.&X).J ~ g sX",
"sXa g J.aXaXaXaXP.#.*.#.R G.-.L.aXG.` M p sX",
"sXa f D 5XaXaXaX8XH.#.#.U F H.6XaXT ) f p sX",
"sXe f N 1 oXaXaXaXaX#X~.!.#XaXaX}.J N i e sX",
"sXw u N I _.aXaXaXaXaXaXaXaXaXrXl J N i w sX",
"sX0 u x A R.aXaXaXaXaXaXaXaXqXH J J x u 0 sX",
"sX, q x m =XaXaXaXaXaXaXaX5XG b S b x q , sX",
"sX, 7 y U aXaXaXaXaXaXaXW.j b b c x y 7 , sX",
"sX- : 8 k }.<XqX2X|.S.h 2 z 9 z r 9 6 4 - sX",
"sXo = ; 3 * % # $ & 3 6 6 6 6 6 3 3 ; - o sX",
"sX. X O O + + + @ @ @ @ @ @ + + + + O X . sX",
"sXsXsX                                sXsXsX"
};
