/* XPM */
static char *gnome_terminal[] = {
/* columns rows colors chars-per-pixel */
"22 22 166 2",
"   c #000000",
".  c #060507",
"X  c #09080A",
"o  c #0B0A0D",
"O  c #0E0C10",
"+  c #0E0D10",
"@  c #100E12",
"#  c #110F14",
"$  c #121014",
"%  c #131114",
"&  c #131115",
"*  c #131016",
"=  c #131116",
"-  c #141316",
";  c #151318",
":  c #17141A",
">  c #17151A",
",  c #181519",
"<  c #18141B",
"1  c #18151C",
"2  c #1A171C",
"3  c #1A171D",
"4  c #1B171D",
"5  c #1B171E",
"6  c #1B181F",
"7  c #1C181F",
"8  c #1C1A1F",
"9  c #1D1B1F",
"0  c #1D1921",
"q  c #1E1B20",
"w  c #1F1B23",
"e  c #1F1D20",
"r  c #1F1C21",
"t  c #1F1C22",
"y  c #1F1B24",
"u  c #201D22",
"i  c #201D23",
"p  c #211D23",
"a  c #201D24",
"s  c #221E24",
"d  c #211D26",
"f  c #221D26",
"g  c #231F26",
"h  c #231E27",
"j  c #231E28",
"k  c #231F28",
"l  c #241F29",
"z  c #242026",
"x  c #242027",
"c  c #252128",
"v  c #242029",
"b  c #262129",
"n  c #262229",
"m  c #25202A",
"M  c #26212B",
"N  c #27232A",
"B  c #262429",
"V  c #272429",
"C  c #26212C",
"Z  c #27222C",
"A  c #28222B",
"S  c #28232B",
"D  c #28222D",
"F  c #28252C",
"G  c #29252D",
"H  c #29242F",
"J  c #2A252E",
"K  c #2A242F",
"L  c #2A262E",
"P  c #2A2430",
"I  c #2B2530",
"U  c #2B2531",
"Y  c #2C2730",
"T  c #2D2731",
"R  c #2C2632",
"E  c #2D2633",
"W  c #2E2A32",
"Q  c #2E2A33",
"!  c #2F2A33",
"~  c #2E2834",
"^  c #2F2835",
"/  c #2F2936",
"(  c #302A36",
")  c #312A37",
"_  c #312D35",
"`  c #312C36",
"'  c #322C36",
"]  c #322C39",
"[  c #332C3A",
"{  c #342D38",
"}  c #342D3B",
"|  c #342E3A",
" . c #352E3C",
".. c #37303C",
"X. c #37303E",
"o. c #37303F",
"O. c #38313E",
"+. c #3F3F3F",
"@. c #383140",
"#. c #393140",
"$. c #3A3240",
"%. c #3A3241",
"&. c #3D3546",
"*. c #3E3646",
"=. c #3F3748",
"-. c #403748",
";. c #433A4C",
":. c #453D4F",
">. c #463D50",
",. c #404040",
"<. c #4B4055",
"1. c #5B585D",
"2. c #625E66",
"3. c #68646C",
"4. c #6C686F",
"5. c #6D6B6F",
"6. c #736F76",
"7. c #878787",
"8. c #8F8F8F",
"9. c #939393",
"0. c #949494",
"q. c #989898",
"w. c #9A9A9A",
"e. c #9E9E9E",
"r. c #A4A4A4",
"t. c #A6A4A8",
"y. c #A9A9A9",
"u. c #AEAEAE",
"i. c #B3B1B3",
"p. c #B3B3B3",
"a. c #B4B4B4",
"s. c #B9B9B9",
"d. c #BBB9BC",
"f. c #BDBDBD",
"g. c #BDBCBF",
"h. c #BEBEBE",
"j. c #BFBFBF",
"k. c #C0BEC1",
"l. c #C2C2C2",
"z. c #C3C3C3",
"x. c #C5C3C6",
"c. c #C4C4C4",
"v. c #C6C6C6",
"b. c #C7C7C7",
"n. c #C8C7C8",
"m. c #C9C9C9",
"M. c #CCCCCC",
"N. c #CECECE",
"B. c #D1D1D1",
"V. c #D3D3D3",
"C. c #D5D3D6",
"Z. c #D6D6D6",
"A. c #D8D8D8",
"S. c #D9D9D9",
"D. c #DAD9DB",
"F. c #DBDBDB",
"G. c #DDDDDD",
"H. c #DEDEDE",
"J. c #E0E0E1",
"K. c #E2E2E2",
"L. c #E3E3E3",
"P. c #E6E6E6",
"I. c #EBEBEB",
"U. c #F2F2F2",
"Y. c #F8F8F8",
"T. c None",
/* pixels */
"T.T.T.T.T.T.T.T.T.T.T.T.T.T.T.T.T.T.T.T.T.T.",
"T.T.U.Y.Y.Y.Y.Y.Y.Y.Y.Y.Y.Y.Y.Y.Y.Y.Y.U.T.T.",
"T.I.v.9.0.0.0.0.0.0.0.0.0.0.0.0.0.0.0.n.I.T.",
"T.P.q.e # - # # - % % % % % % - % % e 0.P.T.",
"T.G.e.% 9 9 9 9 9 9 9 e q q q q 9 9 - e.G.T.",
"T.F.r.$ 9 u u 9 u u u e u q q u 9 w % r.F.T.",
"T.F.r.- 9 9 u u u u p p p q u q w 9 $ y.F.T.",
"T.Z.u.- u u i.1.A g b b b b g s e e $ u.Z.T.",
"T.V.p.$ p z 5.n.k.4.T K T L F N g p % a.V.T.",
"T.B.s.; N L P ' t.J.' ' ' ! A z p 7 o d.V.T.",
"T.N.h.> L ! 2.d.x.6.T A d 5 1 ; # + . h.N.T.",
"T.N.l.5 ! ' g.3.K g l l j d e 6 1 $ X x.M.T.",
"T.m.m.9 ' P l l l P C.D.F.F.l d 0 < o n.m.T.",
"T.v.N.5 w j C T ^ ' X.X. .| P C a 7 O N.v.T.",
"T.l.V.+ y l P '  .#.#.#.@. .' P C a + V.v.T.",
"T.l.F.$ j P ^  .%.&.=.=.&.%. ./ L d # F.l.T.",
"T.h.G.- l T [ @.=.;.>.>.>.-.@.[ P N = H.k.T.",
"T.h.L.$ N E [ %.=.>.>.>.>.-.%.[ E j $ L.h.T.",
"T.a.K.F : 5 y j C T E ' P K j y 0 : N K.a.T.",
"T.8.l.K.P.P.P.P.P.P.P.P.P.P.P.P.P.P.K.l.8.T.",
"T.,.7.w.q.w.w.w.w.w.w.w.w.w.w.w.e.q.q.7.+.T.",
"T.T.T.                                T.T.T."
};
