<?xml version="1.0" encoding="UTF-8" standalone="no"?>
<svg
   xmlns:dc="http://purl.org/dc/elements/1.1/"
   xmlns:cc="http://creativecommons.org/ns#"
   xmlns:rdf="http://www.w3.org/1999/02/22-rdf-syntax-ns#"
   xmlns:svg="http://www.w3.org/2000/svg"
   xmlns="http://www.w3.org/2000/svg"
   xmlns:xlink="http://www.w3.org/1999/xlink"
   xmlns:sodipodi="http://sodipodi.sourceforge.net/DTD/sodipodi-0.dtd"
   xmlns:inkscape="http://www.inkscape.org/namespaces/inkscape"
   height="96"
   width="96"
   version="1.1"
   id="svg2"
   inkscape:version="0.91 r13725"
   sodipodi:docname="gnome-netstatus-rx.svg">
  <metadata
     id="metadata61">
    <rdf:RDF>
      <cc:Work
         rdf:about="">
        <dc:format>image/svg+xml</dc:format>
        <dc:type
           rdf:resource="http://purl.org/dc/dcmitype/StillImage" />
      </cc:Work>
    </rdf:RDF>
  </metadata>
  <sodipodi:namedview
     pagecolor="#ffffff"
     bordercolor="#666666"
     borderopacity="1"
     objecttolerance="10"
     gridtolerance="10"
     guidetolerance="10"
     inkscape:pageopacity="0"
     inkscape:pageshadow="2"
     inkscape:window-width="640"
     inkscape:window-height="480"
     id="namedview59"
     showgrid="false"
     inkscape:zoom="2.4583333"
     inkscape:cx="48"
     inkscape:cy="48"
     inkscape:window-x="0"
     inkscape:window-y="0"
     inkscape:window-maximized="0"
     inkscape:current-layer="svg2" />
  <defs
     id="defs4">
    <linearGradient
       id="c"
       stop-color="#fff">
      <stop
         offset="0"
         id="stop7" />
      <stop
         stop-opacity="0"
         offset="1"
         id="stop9" />
    </linearGradient>
    <linearGradient
       id="b"
       y2="7.0165"
       gradientUnits="userSpaceOnUse"
       x2="45.448"
       gradientTransform="matrix(1.0059 0 0 .99417 100 0)"
       y1="92.54"
       x1="45.448">
      <stop
         offset="0"
         id="stop12" />
      <stop
         stop-opacity=".58824"
         offset="1"
         id="stop14" />
    </linearGradient>
    <linearGradient
       id="h"
       y2="90.239"
       xlink:href="#b"
       gradientUnits="userSpaceOnUse"
       x2="32.251"
       gradientTransform="matrix(1,0,0,-1,0,97)"
       y1="6.1317"
       x1="32.251" />
    <radialGradient
       id="d"
       xlink:href="#c"
       gradientUnits="userSpaceOnUse"
       cy="90.172"
       cx="48"
       gradientTransform="matrix(1.1573 0 0 .99591 -7.551 .19713)"
       r="42" />
    <linearGradient
       id="g"
       y2="63.893"
       xlink:href="#c"
       gradientUnits="userSpaceOnUse"
       x2="36.357"
       y1="6"
       x1="36.357" />
    <linearGradient
       id="f"
       y2="10.985"
       gradientUnits="userSpaceOnUse"
       x2="31.725"
       gradientTransform="matrix(.9009 0 0 .9009 3.4189 6.0953)"
       y1="79.814"
       x1="31.725">
      <stop
         stop-color="#aaa"
         offset="0"
         id="stop20" />
      <stop
         stop-color="#f0f0f0"
         offset="1"
         id="stop22" />
    </linearGradient>
    <linearGradient
       id="e"
       y2="90.239"
       xlink:href="#b"
       gradientUnits="userSpaceOnUse"
       x2="32.251"
       gradientTransform="matrix(1.0238,0,0,-1.0119,-1.1429,98.071)"
       y1="6.1317"
       x1="32.251" />
    <filter
       style="color-interpolation-filters:sRGB;"
       inkscape:label="Invert"
       id="filter3389">
      <feColorMatrix
         type="hueRotate"
         values="180"
         result="color1"
         id="feColorMatrix3391" />
      <feColorMatrix
         values="-1 0 0 0 1 0 -1 0 0 1 0 0 -1 0 1 -0.21 -0.72 -0.07 2 0 "
         result="color2"
         id="feColorMatrix3393" />
    </filter>
    <filter
       style="color-interpolation-filters:sRGB;"
       inkscape:label="Invert"
       id="filter3395">
      <feColorMatrix
         type="hueRotate"
         values="180"
         result="color1"
         id="feColorMatrix3397" />
      <feColorMatrix
         values="-1 0 0 0 1 0 -1 0 0 1 0 0 -1 0 1 -0.21 -0.72 -0.07 2 0 "
         result="color2"
         id="feColorMatrix3399" />
    </filter>
    <filter
       style="color-interpolation-filters:sRGB;"
       inkscape:label="Invert"
       id="filter3401">
      <feColorMatrix
         type="hueRotate"
         values="180"
         result="color1"
         id="feColorMatrix3403" />
      <feColorMatrix
         values="-1 0 0 0 1 0 -1 0 0 1 0 0 -1 0 1 -0.21 -0.72 -0.07 2 0 "
         result="color2"
         id="feColorMatrix3405" />
    </filter>
    <filter
       style="color-interpolation-filters:sRGB;"
       inkscape:label="Invert"
       id="filter3407">
      <feColorMatrix
         type="hueRotate"
         values="180"
         result="color1"
         id="feColorMatrix3409" />
      <feColorMatrix
         values="-1 0 0 0 1 0 -1 0 0 1 0 0 -1 0 1 -0.21 -0.72 -0.07 2 0 "
         result="color2"
         id="feColorMatrix3411" />
    </filter>
    <filter
       style="color-interpolation-filters:sRGB;"
       inkscape:label="Invert"
       id="filter3413">
      <feColorMatrix
         type="hueRotate"
         values="180"
         result="color1"
         id="feColorMatrix3415" />
      <feColorMatrix
         values="-1 0 0 0 1 0 -1 0 0 1 0 0 -1 0 1 -0.21 -0.72 -0.07 2 0 "
         result="color2"
         id="feColorMatrix3417" />
    </filter>
    <filter
       style="color-interpolation-filters:sRGB;"
       inkscape:label="Invert"
       id="filter3419">
      <feColorMatrix
         type="hueRotate"
         values="180"
         result="color1"
         id="feColorMatrix3421" />
      <feColorMatrix
         values="-1 0 0 0 1 0 -1 0 0 1 0 0 -1 0 1 -0.21 -0.72 -0.07 2 0 "
         result="color2"
         id="feColorMatrix3423" />
    </filter>
    <filter
       style="color-interpolation-filters:sRGB;"
       inkscape:label="Invert"
       id="filter3425">
      <feColorMatrix
         type="hueRotate"
         values="180"
         result="color1"
         id="feColorMatrix3427" />
      <feColorMatrix
         values="-1 0 0 0 1 0 -1 0 0 1 0 0 -1 0 1 -0.21 -0.72 -0.07 2 0 "
         result="color2"
         id="feColorMatrix3429" />
    </filter>
  </defs>
  <path
     opacity="0.01"
     d="m12 6c-3.324 0-6 2.676-6 6v72c0 0.33472 0.04135 0.6507 0.09375 0.96875 0.0487 0.2956 0.09704 0.59692 0.1875 0.875 0.00988 0.03038 0.020892 0.0636 0.03125 0.09375 0.098865 0.28777 0.23488 0.54745 0.375 0.8125 0.14459 0.27351 0.31562 0.53562 0.5 0.78125 0.18438 0.24564 0.37378 0.47347 0.59375 0.6875 0.43995 0.42806 0.94291 0.81453 1.5 1.0938 0.27854 0.13961 0.57347 0.24695 0.875 0.34375-0.2562-0.10022-0.48671-0.23627-0.71875-0.375-0.00741-0.0044-0.023866 0.0045-0.03125 0-0.0319-0.019-0.0622-0.042-0.0937-0.062-0.1204-0.077-0.231-0.164-0.3437-0.25-0.1062-0.081-0.2133-0.161-0.3126-0.25-0.1778-0.162-0.3473-0.346-0.4999-0.531-0.1075-0.131-0.2183-0.266-0.3124-0.407-0.0251-0.038-0.0385-0.086-0.0626-0.125-0.0647-0.103-0.1302-0.204-0.1874-0.312-0.1011-0.195-0.2057-0.416-0.2813-0.625-0.008-0.022-0.0236-0.041-0.0313-0.063-0.0318-0.092-0.0358-0.187-0.0624-0.281-0.0304-0.107-0.0704-0.203-0.0938-0.313-0.0729-0.341-0.125-0.698-0.125-1.062v-72c0-2.782 2.2182-5 5-5h72c2.7818 0 5 2.2182 5 5v72c0 0.3643-0.05212 0.72099-0.125 1.0625-0.04415 0.20689-0.08838 0.39766-0.15625 0.59375-0.0077 0.02195-0.0233 0.04069-0.03125 0.0625-0.06274 0.17374-0.13838 0.36745-0.21875 0.53125-0.04158 0.0828-0.07904 0.16995-0.125 0.25-0.0546 0.09721-0.12677 0.18835-0.1875 0.28125-0.09411 0.14096-0.20492 0.276-0.3125 0.40625-0.14317 0.17445-0.30314 0.347-0.46875 0.5-0.01117 0.0102-0.01998 0.02115-0.03125 0.03125-0.13839 0.12556-0.28509 0.23444-0.4375 0.34375-0.10257 0.07315-0.20432 0.15336-0.3125 0.21875-0.0074 0.0045-0.02384-0.0044-0.03125 0-0.23204 0.13873-0.46255 0.27478-0.71875 0.375 0.30153-0.0968 0.59646-0.20414 0.875-0.34375 0.55709-0.27922 1.0601-0.66569 1.5-1.0938 0.21997-0.21403 0.40937-0.44186 0.59375-0.6875s0.35541-0.50774 0.5-0.78125c0.14012-0.26505 0.27614-0.52473 0.375-0.8125 0.01041-0.03078 0.02133-0.06274 0.03125-0.09375 0.09046-0.27808 0.1388-0.5794 0.1875-0.875 0.053-0.318 0.094-0.634 0.094-0.969v-72c0-3.324-2.676-6-6-6h-72z"
     fill="url(#g)"
     id="path39" />
  <path
     opacity=".05"
     d="m72.75 15.969c-1.012 0-1.9983 0.42139-2.8438 1.0938-0.06006 0.04776-0.12938 0.07382-0.1875 0.125-0.12758 0.0728-0.22512 0.14187-0.25 0.15625-0.0023 0.0013-0.03121-0.000039-0.03125 0l-11.312 11.344h-4.375c-1.205-0.0098-2.4014 0.46535-3.3125 1.375l-8.0938 8.0625a1.0237 1.0237 0 0 0 0 0.03125 1.0237 1.0237 0 0 0 -0.21875 0.3125 1.0237 1.0237 0 0 0 -0.03125 0.09375c-1.3792 1.697-1.3919 4.0738-0.03125 5.7812 0.11076 0.13899 0.15234 0.30942 0.28125 0.4375 0.0013 0.0023-0.00004 0.03121 0 0.03125l9.9062 9.875c0.83773 0.83703 1.937 1.3016 3.0938 1.3438 0.02083 0.000759 0.04164-0.000474 0.0625 0 0.000058 0.000007 0.08447 0.03077 0.09375 0.03125 0.0209 0.000018 0.04158 0.000269 0.0625 0a1.0237 1.0237 0 0 0 0.09375 0c0.04322-0.000798 0.0818-0.02924 0.125-0.03125a1.0237 1.0237 0 0 0 0.094 -0.033c1.0828-0.0735 2.1428-0.48783 2.9688-1.3125l8.125-8.125c0.8725-0.87385 1.3849-2.0434 1.375-3.2812v-4.4062l11.312-11.281a1.0237 1.0237 0 0 0 0 -0.03125 1.0237 1.0237 0 0 0 0.21875 -0.3125 1.0237 1.0237 0 0 0 0.03125 -0.09375c1.4915-1.8352 1.4625-4.5172-0.25-6.2188l-3.5625-3.5938h-0.031c-0.096-0.098-0.21-0.134-0.312-0.22-0.047-0.027-0.125-0.062-0.125-0.063-0.875-0.69-1.89-1.093-2.875-1.093z"
     id="path43"
     style="filter:url(#filter3425)" />
  <path
     opacity=".1"
     d="m72.75 17c-0.91362 0-1.8576 0.35385-2.5625 1.0625-0.0063 0.0063-0.02498-0.0064-0.03125 0l-11.625 11.656h-4.7812c-0.94129-0.0076-1.8788 0.34864-2.5938 1.0625l-8.0938 8.0625v0.03125c-1.4328 1.4237-1.4328 3.7638 0 5.1875 0.0064 0.0064-0.0065 0.02491 0 0.03125l9.9062 9.875c0.70104 0.70046 1.6304 1.0749 2.5938 1.0625-0.01189 0.000098 0.02369 0.000716 0.0625 0 0.90805-0.01677 1.8053-0.36883 2.5-1.0625l8.125-8.125c0.68625-0.68731 1.0702-1.6028 1.0625-2.5625v-4.8125l11.625-11.594v-0.03125c1.4328-1.4237 1.4328-3.7638 0-5.1875l-3.562-3.594c-0.0064-0.0066-0.02476 0.0065-0.03125 0-0.732-0.735-1.7-1.062-2.594-1.062z"
     id="path45"
     style="filter:url(#filter3419)" />
  <path
     opacity=".15"
     d="m72.75 17.906c-0.71037 0-1.4174 0.25-1.9375 0.78125l-11.937 11.938h-5.125c-0.72857-0.0059-1.4331 0.2464-1.9688 0.78125l-8.093 8.094c-1.1111 1.0878-1.1111 2.8497 0 3.9375l9.9062 9.9062c0.51896 0.51854 1.236 0.79068 1.9688 0.78125 0.0099-0.000082 0.02138 0.000182 0.03125 0 0.70187-0.01296 1.3909-0.26668 1.9062-0.78125l8.125-8.125c0.51192-0.51272 0.78706-1.2094 0.78125-1.9375v-5.1562l11.906-11.906c1.1111-1.0878 1.1111-2.8497 0-3.9375l-3.593-3.594c-0.543-0.555-1.259-0.782-1.969-0.782z"
     id="path47"
     style="filter:url(#filter3413)" />
  <path
     opacity=".3"
     d="m72.75 18.906c-0.45848 0-0.89696 0.17133-1.2188 0.5l-12.219 12.219h-5.5625c-0.45801-0.0037-0.92588 0.17638-1.25 0.5l-8.0938 8.0938c-0.65734 0.64358-0.65734 1.8564 0 2.5l9.906 9.906c0.33069 0.33042 0.78266 0.5112 1.25 0.5 0.44862-0.0037 0.90127-0.18301 1.2188-0.5l8.125-8.125c0.32362-0.32412 0.50366-0.76074 0.5-1.2188v-5.5938l12.188-12.187c0.65734-0.64358 0.65734-1.8564 0-2.5l-3.594-3.594c-0.32179-0.32867-0.79152-0.5-1.25-0.5z"
     id="path49"
     style="filter:url(#filter3407)" />
  <path
     d="m72.75 17.906c-0.45848 0-0.89696 0.17133-1.2188 0.5l-12.219 12.219h-5.5625c-0.45801-0.0037-0.92588 0.17638-1.25 0.5l-8.0938 8.0938c-0.65734 0.64358-0.65734 1.8564 0 2.5l9.906 9.906c0.33069 0.33042 0.78266 0.5112 1.25 0.5 0.44862-0.0037 0.90127-0.18301 1.2188-0.5l8.125-8.125c0.32362-0.32412 0.50366-0.76074 0.5-1.2188v-5.5938l12.188-12.187c0.65734-0.64358 0.65734-1.8564 0-2.5l-3.594-3.594c-0.32179-0.32867-0.79152-0.5-1.25-0.5z"
     fill="url(#f)"
     id="path51"
     style="filter:url(#filter3401)" />
  <path
     opacity=".2"
     d="m40.438 43.875c-0.44862 0.0037-0.90127 0.21426-1.2188 0.53125l-8.125 8.094c-0.32362 0.32412-0.50366 0.79199-0.5 1.25v5.5625l-12.188 12.219c-0.65734 0.64358-0.65734 1.8252 0 2.4688l3.594 3.593c0.64358 0.65734 1.8252 0.65734 2.4688 0l12.219-12.188h5.5625c0.45801 0.0037 0.92588-0.17638 1.25-0.5l8.0938-8.125c0.65734-0.64358 0.65734-1.8252 0-2.4688l-9.907-9.906c-0.33069-0.33042-0.78266-0.54246-1.25-0.53125z"
     fill="#fff"
     id="path53"
     style="fill:#000000" />
  <path
     opacity=".75"
     d="m72.75 17.906c-0.45848 0-0.89696 0.17133-1.2188 0.5l-12.219 12.219h-5.5625c-0.45801-0.0037-0.92588 0.17638-1.25 0.5l-8.0938 8.0938c-0.44749 0.43813-0.59929 1.1434-0.4375 1.75 0.07587-0.28444 0.22766-0.54455 0.4375-0.75l8.094-8.094c0.32412-0.32362 0.79199-0.5037 1.25-0.5h5.5625l12.219-12.219c0.32179-0.32867 0.76028-0.5 1.2188-0.5 0.45848 0 0.92821 0.17133 1.25 0.5l3.593 3.594c0.20984 0.20545 0.36163 0.46556 0.4375 0.75 0.16179-0.60657 0.01-1.3119-0.4375-1.75l-3.594-3.594c-0.32179-0.32867-0.79152-0.5-1.25-0.5z"
     fill="#fff"
     id="path55"
     style="filter:url(#filter3395)" />
  <path
     opacity="0.14"
     d="m78.031 22.75c-0.07587 0.28444-0.22766 0.54455-0.4375 0.75l-12.188 12.188v1l12.188-12.188c0.44749-0.43813 0.59929-1.1434 0.4375-1.75zm-34.062 17.219c-0.16179 0.60657-0.01 1.3119 0.4375 1.75l9.906 9.906c0.33069 0.33042 0.78266 0.5112 1.25 0.5 0.44862-0.0037 0.90127-0.18301 1.2188-0.5l8.125-8.125c0.32362-0.32412 0.50366-0.76074 0.5-1.2188v-1c0.0037 0.45801-0.17638 0.89463-0.5 1.2188l-8.125 8.125c-0.31748 0.31699-0.77012 0.4963-1.2188 0.5-0.46734 0.0112-0.91931-0.16958-1.25-0.5l-9.9062-9.9062c-0.20984-0.20545-0.36163-0.46556-0.4375-0.75z"
     id="path57"
     style="filter:url(#filter3389)" />
</svg>
