<?xml version="1.0" encoding="UTF-8" standalone="no"?>
<svg
   xmlns:dc="http://purl.org/dc/elements/1.1/"
   xmlns:cc="http://creativecommons.org/ns#"
   xmlns:rdf="http://www.w3.org/1999/02/22-rdf-syntax-ns#"
   xmlns:svg="http://www.w3.org/2000/svg"
   xmlns="http://www.w3.org/2000/svg"
   xmlns:xlink="http://www.w3.org/1999/xlink"
   xmlns:sodipodi="http://sodipodi.sourceforge.net/DTD/sodipodi-0.dtd"
   xmlns:inkscape="http://www.inkscape.org/namespaces/inkscape"
   height="96"
   width="96"
   version="1.1"
   id="svg2"
   inkscape:version="0.91 r13725"
   sodipodi:docname="nm-adhoc.svg">
  <metadata
     id="metadata59">
    <rdf:RDF>
      <cc:Work
         rdf:about="">
        <dc:format>image/svg+xml</dc:format>
        <dc:type
           rdf:resource="http://purl.org/dc/dcmitype/StillImage" />
      </cc:Work>
    </rdf:RDF>
  </metadata>
  <sodipodi:namedview
     pagecolor="#ffffff"
     bordercolor="#666666"
     borderopacity="1"
     objecttolerance="10"
     gridtolerance="10"
     guidetolerance="10"
     inkscape:pageopacity="0"
     inkscape:pageshadow="2"
     inkscape:window-width="640"
     inkscape:window-height="480"
     id="namedview57"
     showgrid="false"
     inkscape:zoom="2.4583333"
     inkscape:cx="48"
     inkscape:cy="48"
     inkscape:window-x="0"
     inkscape:window-y="0"
     inkscape:window-maximized="0"
     inkscape:current-layer="svg2" />
  <defs
     id="defs4">
    <linearGradient
       id="c"
       stop-color="#fff">
      <stop
         offset="0"
         id="stop7" />
      <stop
         stop-opacity="0"
         offset="1"
         id="stop9" />
    </linearGradient>
    <linearGradient
       id="b"
       y2="7.0165"
       gradientUnits="userSpaceOnUse"
       x2="45.448"
       gradientTransform="matrix(1.0059 0 0 .99417 100 0)"
       y1="92.54"
       x1="45.448">
      <stop
         offset="0"
         id="stop12" />
      <stop
         stop-opacity=".58824"
         offset="1"
         id="stop14" />
    </linearGradient>
    <linearGradient
       id="h"
       y2="90.239"
       xlink:href="#b"
       gradientUnits="userSpaceOnUse"
       x2="32.251"
       gradientTransform="matrix(1,0,0,-1,0,97)"
       y1="6.1317"
       x1="32.251" />
    <radialGradient
       id="d"
       xlink:href="#c"
       gradientUnits="userSpaceOnUse"
       cy="90.172"
       cx="48"
       gradientTransform="matrix(1.1573 0 0 .99591 -7.551 .19713)"
       r="42" />
    <linearGradient
       id="g"
       y2="63.893"
       xlink:href="#c"
       gradientUnits="userSpaceOnUse"
       x2="36.357"
       y1="6"
       x1="36.357" />
    <linearGradient
       id="f"
       y2="10.985"
       gradientUnits="userSpaceOnUse"
       x2="31.725"
       gradientTransform="matrix(.9009 0 0 .9009 3.4189 6.0953)"
       y1="79.814"
       x1="31.725">
      <stop
         stop-color="#aaa"
         offset="0"
         id="stop20" />
      <stop
         stop-color="#f0f0f0"
         offset="1"
         id="stop22" />
    </linearGradient>
    <linearGradient
       id="e"
       y2="90.239"
       xlink:href="#b"
       gradientUnits="userSpaceOnUse"
       x2="32.251"
       gradientTransform="matrix(1.0238,0,0,-1.0119,-1.1429,98.071)"
       y1="6.1317"
       x1="32.251" />
    <filter
       style="color-interpolation-filters:sRGB;"
       inkscape:label="Invert"
       id="filter3387">
      <feColorMatrix
         type="hueRotate"
         values="180"
         result="color1"
         id="feColorMatrix3389" />
      <feColorMatrix
         values="-1 0 0 0 1 0 -1 0 0 1 0 0 -1 0 1 -0.21 -0.72 -0.07 2 0 "
         result="color2"
         id="feColorMatrix3391" />
    </filter>
    <filter
       style="color-interpolation-filters:sRGB;"
       inkscape:label="Invert"
       id="filter3393">
      <feColorMatrix
         type="hueRotate"
         values="180"
         result="color1"
         id="feColorMatrix3395" />
      <feColorMatrix
         values="-1 0 0 0 1 0 -1 0 0 1 0 0 -1 0 1 -0.21 -0.72 -0.07 2 0 "
         result="color2"
         id="feColorMatrix3397" />
    </filter>
    <filter
       style="color-interpolation-filters:sRGB;"
       inkscape:label="Invert"
       id="filter3399">
      <feColorMatrix
         type="hueRotate"
         values="180"
         result="color1"
         id="feColorMatrix3401" />
      <feColorMatrix
         values="-1 0 0 0 1 0 -1 0 0 1 0 0 -1 0 1 -0.21 -0.72 -0.07 2 0 "
         result="color2"
         id="feColorMatrix3403" />
    </filter>
    <filter
       style="color-interpolation-filters:sRGB;"
       inkscape:label="Invert"
       id="filter3405">
      <feColorMatrix
         type="hueRotate"
         values="180"
         result="color1"
         id="feColorMatrix3407" />
      <feColorMatrix
         values="-1 0 0 0 1 0 -1 0 0 1 0 0 -1 0 1 -0.21 -0.72 -0.07 2 0 "
         result="color2"
         id="feColorMatrix3409" />
    </filter>
    <filter
       style="color-interpolation-filters:sRGB;"
       inkscape:label="Invert"
       id="filter3411">
      <feColorMatrix
         type="hueRotate"
         values="180"
         result="color1"
         id="feColorMatrix3413" />
      <feColorMatrix
         values="-1 0 0 0 1 0 -1 0 0 1 0 0 -1 0 1 -0.21 -0.72 -0.07 2 0 "
         result="color2"
         id="feColorMatrix3415" />
    </filter>
    <filter
       style="color-interpolation-filters:sRGB;"
       inkscape:label="Invert"
       id="filter3417">
      <feColorMatrix
         type="hueRotate"
         values="180"
         result="color1"
         id="feColorMatrix3419" />
      <feColorMatrix
         values="-1 0 0 0 1 0 -1 0 0 1 0 0 -1 0 1 -0.21 -0.72 -0.07 2 0 "
         result="color2"
         id="feColorMatrix3421" />
    </filter>
    <filter
       style="color-interpolation-filters:sRGB;"
       inkscape:label="Invert"
       id="filter3423">
      <feColorMatrix
         type="hueRotate"
         values="180"
         result="color1"
         id="feColorMatrix3425" />
      <feColorMatrix
         values="-1 0 0 0 1 0 -1 0 0 1 0 0 -1 0 1 -0.21 -0.72 -0.07 2 0 "
         result="color2"
         id="feColorMatrix3427" />
    </filter>
  </defs>
  <path
     opacity="0.08"
     d="m72.75 16c-3.0128 0.03323-4.5481 2.9174-6.6106 4.6731l-8.0457 8.0457c-2.7393 0.16744-6.06-0.72536-8.0528 1.7388-2.597 2.6527-5.3533 5.203-7.8535 7.9175-1.6272 1.4139-0.13265 4.2906-2.7598 3.7055-2.5521 0.80034-4.0132 3.2715-5.9724 4.9499-1.795 1.9961-4.1139 3.5996-5.439 5.9538-0.71786 1.9861-0.02579 4.2805-0.46074 6.2414-3.7699 3.8331-7.6939 7.5679-11.368 11.462-1.8354 2.0999-1.3677 5.4377 0.84711 7.0659 1.9757 1.7646 3.7029 4.7063 6.778 4.168 3.0286-0.59013 4.6374-3.4665 6.8395-5.3547l7.2542-7.2542c2.7389-0.16784 6.0609 0.72627 8.052-1.7395 2.6059-2.6979 5.4296-5.2486 7.9038-8.0348 1.5039-1.6002 0.19742-4.0478 2.8157-3.6852 2.467-0.72206 3.8502-3.1237 5.7279-4.7274 1.8343-2.0365 4.1717-3.6927 5.5642-6.068 0.74184-1.9953 0.0363-4.3083 0.47474-6.2831 3.7696-3.8229 7.6945-7.5465 11.368-11.431 1.8222-2.087 1.4056-5.4379-0.81586-7.0659-1.914-1.661-3.396-4.336-6.247-4.279zm3.3125 1.3438c0.03251 0.10364 0.05766-0.04293 0 0zm-6.625 0.03125c0.10364-0.03251-0.04293-0.05766 0 0z"
     id="path43"
     style="filter:url(#filter3423)" />
  <path
     opacity=".1"
     d="m72.75 17c-0.91334 0-1.8579 0.3541-2.5625 1.0625-0.0063 0.0063-0.02498-0.0064-0.03125 0l-11.625 11.656h-4.7812c-0.94098-0.0076-1.879 0.34888-2.5938 1.0625l-8.0938 8.0625v0.03125c-1.4281 1.419-1.4508 3.7631-0.03125 5.1875-0.65524-0.6547-1.5603-1.1059-2.5938-1.0938 0.01775-0.000209-0.0167-0.0011-0.0625 0-0.9819 0.01934-1.8522 0.4469-2.5 1.0938l-8.125 8.0938c-0.71372 0.71482-1.07 1.653-1.0625 2.5938v4.7812l-11.625 11.625v0.03125c-1.4229 1.4138-1.4229 3.7424 0 5.1562 0.0064 0.0063-0.0064 0.02496 0 0.03125l3.5938 3.5625c1.4138 1.4229 3.7424 1.4229 5.1562 0h0.03125l11.625-11.625h4.7812c0.94098 0.0076 1.879-0.34888 2.5938-1.0625l8.0938-8.0938v-0.027c1.4186-1.4096 1.4414-3.7413 0.03125-5.1562 0.70079 0.70022 1.6307 1.0749 2.5938 1.0625-0.01193 0.000099 0.02373 0.000715 0.0625 0 0.90777-0.01676 1.8055-0.36907 2.5-1.0625l8.125-8.125c0.68601-0.68708 1.0702-1.6031 1.0625-2.5625v-4.8125l11.625-11.594v-0.03125c1.4324-1.4232 1.4324-3.7643 0-5.1875l-3.562-3.594c-0.0064-0.0066-0.02477 0.0065-0.03125 0-0.732-0.735-1.7-1.062-2.594-1.062z"
     id="path45"
     style="filter:url(#filter3417)" />
  <path
     opacity=".15"
     d="m72.75 17.906c-0.71037 0-1.4174 0.25-1.9375 0.78125l-11.937 11.938h-5.125c-0.72857-0.0059-1.4331 0.2464-1.9688 0.78125l-8.093 8.094c-1.1111 1.0878-1.1111 2.8497 0 3.9375l9.9062 9.9062c0.51896 0.51854 1.236 0.79068 1.9688 0.78125 0.0099-0.000082 0.02138 0.000182 0.03125 0 0.70187-0.01296 1.3909-0.26668 1.9062-0.78125l8.125-8.125c0.51192-0.51272 0.78706-1.2094 0.78125-1.9375v-5.1562l11.906-11.906c1.1111-1.0878 1.1111-2.8497 0-3.9375l-3.593-3.594c-0.543-0.555-1.259-0.782-1.969-0.782zm-32.344 25.969c-0.746 0.015-1.414 0.321-1.906 0.813l-8.125 8.0938c-0.53488 0.53571-0.78707 1.2403-0.78125 1.9688v5.125l-11.906 11.938c-1.0994 1.0764-1.0994 2.8299 0 3.9062l3.5938 3.5938c1.0764 1.0994 2.8299 1.0994 3.9062 0l11.938-11.906h5.125c0.72857 0.0059 1.4331-0.2464 1.9688-0.78125l8.092-8.127c1.0994-1.0764 1.0994-2.8299 0-3.9062l-9.906-9.906c-0.4968-0.49638-1.1932-0.82162-1.9688-0.8125-0.01054 0.000124-0.02067-0.000254-0.03125 0z"
     id="path47"
     style="filter:url(#filter3411)" />
  <path
     opacity=".3"
     d="m72.75 18.906c-0.45848 0-0.89696 0.17133-1.2188 0.5l-12.219 12.219h-5.5625c-0.45801-0.0037-0.92588 0.17638-1.25 0.5l-8.0938 8.0938c-0.65734 0.64358-0.65734 1.8564 0 2.5l9.906 9.906c0.33069 0.33042 0.78266 0.5112 1.25 0.5 0.44862-0.0037 0.90127-0.18301 1.2188-0.5l8.125-8.125c0.32362-0.32412 0.50366-0.76074 0.5-1.2188v-5.5938l12.188-12.187c0.65734-0.64358 0.65734-1.8564 0-2.5l-3.594-3.594c-0.32179-0.32867-0.79152-0.5-1.25-0.5zm-32.312 25.969c-0.44862 0.0037-0.90127 0.21426-1.2188 0.53125l-8.125 8.094c-0.32362 0.32412-0.50366 0.79199-0.5 1.25v5.5625l-12.188 12.219c-0.65734 0.64358-0.65734 1.8252 0 2.4688l3.594 3.593c0.64358 0.65734 1.8252 0.65734 2.4688 0l12.219-12.188h5.5625c0.45801 0.0037 0.92588-0.17638 1.25-0.5l8.0938-8.125c0.65734-0.64358 0.65734-1.8252 0-2.4688l-9.907-9.906c-0.33069-0.33042-0.78266-0.54246-1.25-0.53125z"
     id="path49"
     style="filter:url(#filter3405)" />
  <path
     d="m72.75 17.906c-0.45848 0-0.89696 0.17133-1.2188 0.5l-12.219 12.219h-5.5625c-0.45801-0.0037-0.92588 0.17638-1.25 0.5l-8.0938 8.0938c-0.65734 0.64358-0.65734 1.8564 0 2.5l9.906 9.906c0.33069 0.33042 0.78266 0.5112 1.25 0.5 0.44862-0.0037 0.90127-0.18301 1.2188-0.5l8.125-8.125c0.32362-0.32412 0.50366-0.76074 0.5-1.2188v-5.5938l12.188-12.187c0.65734-0.64358 0.65734-1.8564 0-2.5l-3.594-3.594c-0.32179-0.32867-0.79152-0.5-1.25-0.5zm-32.312 25.969c-0.44862 0.0037-0.90127 0.21426-1.2188 0.53125l-8.125 8.094c-0.32362 0.32412-0.50366 0.79199-0.5 1.25v5.5625l-12.188 12.219c-0.65734 0.64358-0.65734 1.8252 0 2.4688l3.594 3.593c0.64358 0.65734 1.8252 0.65734 2.4688 0l12.219-12.188h5.5625c0.45801 0.0037 0.92588-0.17638 1.25-0.5l8.0938-8.125c0.65734-0.64358 0.65734-1.8252 0-2.4688l-9.907-9.906c-0.33069-0.33042-0.78266-0.54246-1.25-0.53125z"
     fill="url(#f)"
     id="path51"
     style="filter:url(#filter3399)" />
  <path
     opacity=".75"
     d="m72.75 17.906c-0.45848 0-0.89696 0.17133-1.2188 0.5l-12.219 12.219h-5.5625c-0.45801-0.0037-0.92588 0.17638-1.25 0.5l-8.0938 8.0938c-0.44749 0.43813-0.59929 1.1434-0.4375 1.75 0.07587-0.28444 0.22766-0.54455 0.4375-0.75l8.094-8.094c0.32412-0.32362 0.79199-0.5037 1.25-0.5h5.5625l12.219-12.219c0.32179-0.32867 0.76028-0.5 1.2188-0.5 0.45848 0 0.92821 0.17133 1.25 0.5l3.593 3.594c0.20984 0.20545 0.36163 0.46556 0.4375 0.75 0.16179-0.60657 0.01-1.3119-0.4375-1.75l-3.594-3.594c-0.32179-0.32867-0.79152-0.5-1.25-0.5zm-32.312 25.969c-0.44862 0.0037-0.90127 0.21426-1.2188 0.53125l-8.125 8.094c-0.32362 0.32412-0.50366 0.79199-0.5 1.25v1c-0.0037-0.45801 0.17638-0.92588 0.5-1.25l8.125-8.0938c0.31748-0.31699 0.77012-0.52755 1.2188-0.53125 0.46734-0.0112 0.91931 0.20084 1.25 0.53125l9.9062 9.9062c0.20795 0.20359 0.32987 0.47279 0.40625 0.75 0.17727-0.60536 0.05009-1.3032-0.40625-1.75l-9.906-9.906c-0.331-0.33-0.783-0.542-1.25-0.531zm-9.844 15.437-12.188 12.219c-0.449 0.44-0.571 1.12-0.406 1.719 0.07808-0.26663 0.20526-0.52196 0.40625-0.71875l12.188-12.219v-1z"
     fill="#fff"
     id="path53"
     style="filter:url(#filter3393)" />
  <path
     opacity="0.14"
     d="m78.031 22.75c-0.07587 0.28444-0.22766 0.54455-0.4375 0.75l-12.188 12.188v1l12.188-12.188c0.44749-0.43813 0.59929-1.1434 0.4375-1.75zm-34.062 17.219c-0.16179 0.60657-0.01 1.3119 0.4375 1.75l9.906 9.906c0.33069 0.33042 0.78266 0.5112 1.25 0.5 0.44862-0.0037 0.90127-0.18301 1.2188-0.5l8.125-8.125c0.32362-0.32412 0.50366-0.76074 0.5-1.2188v-1c0.0037 0.45801-0.17638 0.89463-0.5 1.2188l-8.125 8.125c-0.31748 0.31699-0.77012 0.4963-1.2188 0.5-0.46734 0.0112-0.91931-0.16958-1.25-0.5l-9.9062-9.9062c-0.20984-0.20545-0.36163-0.46556-0.4375-0.75zm8.031 15.093c-0.07808 0.26663-0.20526 0.52196-0.40625 0.71875l-8.094 8.125c-0.32412 0.32362-0.79199 0.5037-1.25 0.5h-5.5625l-12.219 12.188c-0.64358 0.65734-1.8252 0.65734-2.4688 0l-3.593-3.594c-0.208-0.204-0.33-0.473-0.406-0.75-0.177 0.605-0.05 1.303 0.406 1.75l3.594 3.594c0.64358 0.65734 1.8252 0.65734 2.4688 0l12.219-12.188h5.5625c0.45801 0.0037 0.92588-0.17638 1.25-0.5l8.0938-8.125c0.448-0.44 0.57-1.119 0.405-1.719z"
     id="path55"
     style="filter:url(#filter3387)" />
</svg>
