<?xml version="1.0" encoding="UTF-8" standalone="no"?>
<svg
   xmlns:dc="http://purl.org/dc/elements/1.1/"
   xmlns:cc="http://creativecommons.org/ns#"
   xmlns:rdf="http://www.w3.org/1999/02/22-rdf-syntax-ns#"
   xmlns:svg="http://www.w3.org/2000/svg"
   xmlns="http://www.w3.org/2000/svg"
   xmlns:xlink="http://www.w3.org/1999/xlink"
   xmlns:sodipodi="http://sodipodi.sourceforge.net/DTD/sodipodi-0.dtd"
   xmlns:inkscape="http://www.inkscape.org/namespaces/inkscape"
   height="96"
   width="96"
   version="1.1"
   id="svg2"
   inkscape:version="0.91 r13725"
   sodipodi:docname="nm-signal-100.svg">
  <metadata
     id="metadata85">
    <rdf:RDF>
      <cc:Work
         rdf:about="">
        <dc:format>image/svg+xml</dc:format>
        <dc:type
           rdf:resource="http://purl.org/dc/dcmitype/StillImage" />
      </cc:Work>
    </rdf:RDF>
  </metadata>
  <sodipodi:namedview
     pagecolor="#ffffff"
     bordercolor="#666666"
     borderopacity="1"
     objecttolerance="10"
     gridtolerance="10"
     guidetolerance="10"
     inkscape:pageopacity="0"
     inkscape:pageshadow="2"
     inkscape:window-width="640"
     inkscape:window-height="480"
     id="namedview83"
     showgrid="false"
     inkscape:zoom="2.4583333"
     inkscape:cx="48"
     inkscape:cy="48"
     inkscape:window-x="0"
     inkscape:window-y="0"
     inkscape:window-maximized="0"
     inkscape:current-layer="svg2" />
  <defs
     id="defs4">
    <linearGradient
       id="e"
       stop-color="#fff">
      <stop
         offset="0"
         id="stop7" />
      <stop
         stop-opacity="0"
         offset="1"
         id="stop9" />
    </linearGradient>
    <linearGradient
       id="d">
      <stop
         stop-color="#aaa"
         offset="0"
         id="stop12" />
      <stop
         stop-color="#f0f0f0"
         offset="1"
         id="stop14" />
    </linearGradient>
    <linearGradient
       id="f"
       y2="7.0165"
       gradientUnits="userSpaceOnUse"
       x2="45.448"
       gradientTransform="matrix(1.0059 0 0 .99417 100 0)"
       y1="92.54"
       x1="45.448">
      <stop
         offset="0"
         id="stop17" />
      <stop
         stop-opacity=".58824"
         offset="1"
         id="stop19" />
    </linearGradient>
    <linearGradient
       id="r"
       y2="90.239"
       xlink:href="#f"
       gradientUnits="userSpaceOnUse"
       x2="32.251"
       gradientTransform="matrix(1,0,0,-1,0,97)"
       y1="6.1317"
       x1="32.251" />
    <linearGradient
       id="q"
       y2="90.239"
       xlink:href="#f"
       gradientUnits="userSpaceOnUse"
       x2="32.251"
       gradientTransform="matrix(1.0238,0,0,-1.0119,-1.1429,98.071)"
       y1="6.1317"
       x1="32.251" />
    <radialGradient
       id="g"
       xlink:href="#e"
       gradientUnits="userSpaceOnUse"
       cy="90.172"
       cx="48"
       gradientTransform="matrix(1.1573 0 0 .99591 -7.551 .19713)"
       r="42" />
    <linearGradient
       id="p"
       y2="63.893"
       xlink:href="#e"
       gradientUnits="userSpaceOnUse"
       x2="36.357"
       y1="6"
       x1="36.357" />
    <linearGradient
       id="o"
       stop-color="#fff"
       y2="74"
       gradientUnits="userSpaceOnUse"
       x2="24"
       y1="54"
       x1="24">
      <stop
         offset="0"
         id="stop26" />
      <stop
         stop-opacity="0"
         offset="1"
         id="stop28" />
    </linearGradient>
    <linearGradient
       id="n"
       stop-color="#fff"
       y2="73"
       gradientUnits="userSpaceOnUse"
       x2="40"
       y1="42"
       x1="40">
      <stop
         offset="0"
         id="stop31" />
      <stop
         stop-opacity="0"
         offset="1"
         id="stop33" />
    </linearGradient>
    <linearGradient
       id="m"
       y2="73"
       xlink:href="#e"
       gradientUnits="userSpaceOnUse"
       x2="56"
       y1="30"
       x1="56" />
    <linearGradient
       id="l"
       y2="72.009"
       xlink:href="#e"
       gradientUnits="userSpaceOnUse"
       x2="72"
       y1="18"
       x1="72" />
    <linearGradient
       id="k"
       y2="-34"
       xlink:href="#d"
       gradientUnits="userSpaceOnUse"
       x2="24"
       gradientTransform="matrix(.75 0 0 .78947 4.5 79.579)"
       y1="-2"
       x1="24" />
    <linearGradient
       id="j"
       y2="-50"
       xlink:href="#d"
       gradientUnits="userSpaceOnUse"
       x2="56"
       gradientTransform="matrix(.75 0 0 .75658 2.5 79.513)"
       y1="-2"
       x1="56" />
    <linearGradient
       id="i"
       y2="-66"
       xlink:href="#d"
       gradientUnits="userSpaceOnUse"
       x2="72"
       gradientTransform="matrix(.75 0 0 .74013 .61111 79.48)"
       y1="-2"
       x1="72" />
    <linearGradient
       id="h"
       y2="-82"
       xlink:href="#d"
       gradientUnits="userSpaceOnUse"
       x2="96"
       gradientTransform="matrix(.75 0 0 .75 -1.5 79.5)"
       y1="-2"
       x1="96" />
    <filter
       style="color-interpolation-filters:sRGB;"
       inkscape:label="Invert"
       id="filter3413">
      <feColorMatrix
         type="hueRotate"
         values="180"
         result="color1"
         id="feColorMatrix3415" />
      <feColorMatrix
         values="-1 0 0 0 1 0 -1 0 0 1 0 0 -1 0 1 -0.21 -0.72 -0.07 2 0 "
         result="color2"
         id="feColorMatrix3417" />
    </filter>
    <filter
       style="color-interpolation-filters:sRGB;"
       inkscape:label="Invert"
       id="filter3419">
      <feColorMatrix
         type="hueRotate"
         values="180"
         result="color1"
         id="feColorMatrix3421" />
      <feColorMatrix
         values="-1 0 0 0 1 0 -1 0 0 1 0 0 -1 0 1 -0.21 -0.72 -0.07 2 0 "
         result="color2"
         id="feColorMatrix3423" />
    </filter>
    <filter
       style="color-interpolation-filters:sRGB;"
       inkscape:label="Invert"
       id="filter3425">
      <feColorMatrix
         type="hueRotate"
         values="180"
         result="color1"
         id="feColorMatrix3427" />
      <feColorMatrix
         values="-1 0 0 0 1 0 -1 0 0 1 0 0 -1 0 1 -0.21 -0.72 -0.07 2 0 "
         result="color2"
         id="feColorMatrix3429" />
    </filter>
    <filter
       style="color-interpolation-filters:sRGB;"
       inkscape:label="Invert"
       id="filter3431">
      <feColorMatrix
         type="hueRotate"
         values="180"
         result="color1"
         id="feColorMatrix3433" />
      <feColorMatrix
         values="-1 0 0 0 1 0 -1 0 0 1 0 0 -1 0 1 -0.21 -0.72 -0.07 2 0 "
         result="color2"
         id="feColorMatrix3435" />
    </filter>
    <filter
       style="color-interpolation-filters:sRGB;"
       inkscape:label="Invert"
       id="filter3437">
      <feColorMatrix
         type="hueRotate"
         values="180"
         result="color1"
         id="feColorMatrix3439" />
      <feColorMatrix
         values="-1 0 0 0 1 0 -1 0 0 1 0 0 -1 0 1 -0.21 -0.72 -0.07 2 0 "
         result="color2"
         id="feColorMatrix3441" />
    </filter>
    <filter
       style="color-interpolation-filters:sRGB;"
       inkscape:label="Invert"
       id="filter3443">
      <feColorMatrix
         type="hueRotate"
         values="180"
         result="color1"
         id="feColorMatrix3445" />
      <feColorMatrix
         values="-1 0 0 0 1 0 -1 0 0 1 0 0 -1 0 1 -0.21 -0.72 -0.07 2 0 "
         result="color2"
         id="feColorMatrix3447" />
    </filter>
    <filter
       style="color-interpolation-filters:sRGB;"
       inkscape:label="Invert"
       id="filter3449">
      <feColorMatrix
         type="hueRotate"
         values="180"
         result="color1"
         id="feColorMatrix3451" />
      <feColorMatrix
         values="-1 0 0 0 1 0 -1 0 0 1 0 0 -1 0 1 -0.21 -0.72 -0.07 2 0 "
         result="color2"
         id="feColorMatrix3453" />
    </filter>
    <filter
       style="color-interpolation-filters:sRGB;"
       inkscape:label="Invert"
       id="filter3455">
      <feColorMatrix
         type="hueRotate"
         values="180"
         result="color1"
         id="feColorMatrix3457" />
      <feColorMatrix
         values="-1 0 0 0 1 0 -1 0 0 1 0 0 -1 0 1 -0.21 -0.72 -0.07 2 0 "
         result="color2"
         id="feColorMatrix3459" />
    </filter>
    <filter
       style="color-interpolation-filters:sRGB;"
       inkscape:label="Invert"
       id="filter3461">
      <feColorMatrix
         type="hueRotate"
         values="180"
         result="color1"
         id="feColorMatrix3463" />
      <feColorMatrix
         values="-1 0 0 0 1 0 -1 0 0 1 0 0 -1 0 1 -0.21 -0.72 -0.07 2 0 "
         result="color2"
         id="feColorMatrix3465" />
    </filter>
    <filter
       style="color-interpolation-filters:sRGB;"
       inkscape:label="Invert"
       id="filter3467">
      <feColorMatrix
         type="hueRotate"
         values="180"
         result="color1"
         id="feColorMatrix3469" />
      <feColorMatrix
         values="-1 0 0 0 1 0 -1 0 0 1 0 0 -1 0 1 -0.21 -0.72 -0.07 2 0 "
         result="color2"
         id="feColorMatrix3471" />
    </filter>
    <filter
       style="color-interpolation-filters:sRGB;"
       inkscape:label="Invert"
       id="filter3473">
      <feColorMatrix
         type="hueRotate"
         values="180"
         result="color1"
         id="feColorMatrix3475" />
      <feColorMatrix
         values="-1 0 0 0 1 0 -1 0 0 1 0 0 -1 0 1 -0.21 -0.72 -0.07 2 0 "
         result="color2"
         id="feColorMatrix3477" />
    </filter>
    <filter
       style="color-interpolation-filters:sRGB;"
       inkscape:label="Invert"
       id="filter3479">
      <feColorMatrix
         type="hueRotate"
         values="180"
         result="color1"
         id="feColorMatrix3481" />
      <feColorMatrix
         values="-1 0 0 0 1 0 -1 0 0 1 0 0 -1 0 1 -0.21 -0.72 -0.07 2 0 "
         result="color2"
         id="feColorMatrix3483" />
    </filter>
  </defs>
  <path
     opacity="0.08"
     d="m69 16c-3.2948 0-6 2.7052-6 6v7.4688c-1.034-0.914-2.384-1.469-3.875-1.469h-6.125c-3.2833 0-6 2.6799-6 5.9688v7.625c-1.063-0.968-2.456-1.594-4-1.594h-6c-3.3103 0-6 2.7349-6 6.0312v7.625c-1.057-0.995-2.431-1.656-4-1.656h-6c-3.3632 0-6 2.8431-6 6.1562v17.688c0 3.313 2.637 6.156 6 6.156h6c2.15 0 3.9133-1.2353 4.9688-2.9375 1.055 1.721 2.873 2.938 5.031 2.938h6c2.1414 0 3.9397-1.2072 5-2.9062 1.063 1.697 2.863 2.906 5 2.906h6.125c2.1032 0 3.8817-1.1579 4.9375-2.8125 1.055 1.658 2.831 2.812 4.938 2.812h6c3.2948 0 6-2.7052 6-6v-54c0-3.2948-2.7052-6-6-6h-6z"
     id="path59"
     style="filter:url(#filter3479)" />
  <path
     opacity=".1"
     d="m69 17c-2.7545 0-5 2.2455-5 5v11.312c-0.34-2.422-2.361-4.312-4.875-4.312h-6.125c-2.7465 0-5 2.2241-5 4.9688v12.062c0-2.76-2.234-5.031-5-5.031h-6c-2.766 0-5 2.2714-5 5.0312v12.125c0-2.792-2.196-5.156-5-5.156h-6c-2.8044 0-5 2.3644-5 5.1562v17.688c0 2.792 2.196 5.156 5 5.156h6c2.8044 0 5-2.3644 5-5.1562v0.125c0 2.76 2.234 5.031 5 5.031h6c2.7445 0 4.9654-2.2378 5-4.9688 0 2.745 2.253 4.969 5 4.969h6.125c2.6356 0 4.7646-2.0643 4.9375-4.6562 0.188 2.587 2.305 4.656 4.938 4.656h6c2.7545 0 5-2.2455 5-5v-54c0-2.7545-2.2455-5-5-5h-6z"
     id="path61"
     style="filter:url(#filter3473)" />
  <path
     opacity=".15"
     d="m69 18.062c-2.169 0-3.9375 1.7685-3.9375 3.9375v54c0 2.169 1.7685 3.9375 3.9375 3.9375h6c2.169 0 3.9375-1.7685 3.9375-3.9375v-54c0-2.17-1.769-3.938-3.938-3.938h-6zm-16 12c-2.1654 0-3.9375 1.7524-3.9375 3.9062v42.062c0 2.1539 1.7721 3.9062 3.9375 3.9062h6.125c2.1654 0 3.9375-1.7524 3.9375-3.9062v-42.062c0-2.1539-1.7721-3.9062-3.9375-3.9062h-6.124zm-16 12c-2.1753 0-3.9375 1.7896-3.9375 3.9688v29.938c0 2.1792 1.7622 3.9688 3.9375 3.9688h6c2.1753 0 3.9375-1.7896 3.9375-3.9688v-29.938c0-2.179-1.763-3.969-3.938-3.969h-6zm-16 12c-2.1951 0-3.9375 1.8626-3.9375 4.0938v17.688c0 2.2311 1.7424 4.0938 3.9375 4.0938h6c2.1951 0 3.9375-1.8626 3.9375-4.0938v-17.688c0-2.231-1.743-4.094-3.938-4.094h-6z"
     id="path63"
     style="filter:url(#filter3467)" />
  <path
     opacity=".3"
     d="m69 19c-1.662 0-3 1.338-3 3v54c0 1.662 1.338 3 3 3h6c1.662 0 3-1.338 3-3v-54c0-1.662-1.338-3-3-3h-6zm-16 12c-1.662 0-3 1.3286-3 2.9688v42.062c0 1.64 1.338 2.969 3 2.969h6.125c1.662 0 3-1.3286 3-2.9688v-42.062c0-1.64-1.338-2.969-3-2.969h-6.125zm-16 12c-1.662 0-3 1.3547-3 3.0312v29.938c0 1.676 1.338 3.031 3 3.031h6c1.662 0 3-1.3547 3-3.0312v-29.938c0-1.676-1.338-3.031-3-3.031h-6zm-16 12c-1.662 0-3 1.4068-3 3.1562v17.688c0 1.749 1.338 3.156 3 3.156h6c1.662 0 3-1.4068 3-3.1562v-17.688c0-1.749-1.338-3.156-3-3.156h-6z"
     id="path65"
     style="filter:url(#filter3461)" />
  <rect
     rx="3"
     ry="3"
     height="60"
     width="12"
     y="18"
     x="66"
     fill="url(#h)"
     id="rect67"
     style="filter:url(#filter3455)" />
  <rect
     rx="3"
     ry="3"
     height="48"
     width="12"
     y="30"
     x="50"
     fill="url(#i)"
     id="rect69"
     style="filter:url(#filter3449)" />
  <rect
     rx="3"
     ry="3"
     height="36"
     width="12"
     y="42"
     x="34"
     fill="url(#j)"
     id="rect71"
     style="filter:url(#filter3443)" />
  <rect
     rx="3"
     ry="3"
     height="24"
     width="12"
     y="54"
     x="18"
     fill="url(#k)"
     id="rect73"
     style="filter:url(#filter3437)" />
  <path
     opacity=".6"
     d="m69 18c-1.662 0-3 1.338-3 3v54c0 1.662 1.338 3 3 3h6c1.662 0 3-1.338 3-3v-54c0-1.662-1.338-3-3-3h-6zm0 1.0625h6c1.0839 0 1.9375 0.85356 1.9375 1.9375v54c0 1.0839-0.85356 1.9375-1.9375 1.9375h-6c-1.0839 0-1.9375-0.85356-1.9375-1.9375v-54c0-1.0839 0.85356-1.9375 1.9375-1.9375z"
     fill="url(#l)"
     id="path75"
     style="filter:url(#filter3431)" />
  <path
     opacity=".6"
     d="m53 30c-1.662 0-3 1.3286-3 2.9688v42.062c0 1.64 1.338 2.969 3 2.969h6.125c1.662 0 3-1.3286 3-2.9688v-42.062c0-1.64-1.338-2.969-3-2.969h-6.125zm0 1h6.125c1.1321 0 2 0.86933 2 1.9688v42.062c0 1.1-0.868 1.969-2 1.969h-6.125c-1.1321 0-2-0.86933-2-1.9688v-42.062c0-1.1 0.868-1.969 2-1.969z"
     fill="url(#m)"
     id="path77"
     style="filter:url(#filter3425)" />
  <path
     opacity=".6"
     d="m37 42c-1.662 0-3 1.3547-3 3.0312v29.938c0 1.676 1.338 3.031 3 3.031h6c1.662 0 3-1.3547 3-3.0312v-29.938c0-1.676-1.338-3.031-3-3.031h-6zm0 1h6c1.1218 0 2 0.88363 2 2.0312v29.938c0 1.147-0.878 2.031-2 2.031h-6c-1.1218 0-2-0.88363-2-2.0312v-29.938c0-1.147 0.878-2.031 2-2.031z"
     fill="url(#n)"
     id="path79"
     style="filter:url(#filter3419)" />
  <path
     opacity=".6"
     d="m21 54c-1.662 0-3 1.4068-3 3.1562v17.688c0 1.749 1.338 3.156 3 3.156h6c1.662 0 3-1.4068 3-3.1562v-17.688c0-1.749-1.338-3.156-3-3.156h-6zm0 1.0625h6c1.0542 0 1.9375 0.89344 1.9375 2.0938v17.688c0 1.2003-0.88328 2.0938-1.9375 2.0938h-6c-1.0542 0-1.9375-0.89344-1.9375-2.0938v-17.688c0-1.2003 0.88328-2.0938 1.9375-2.0938z"
     fill="url(#o)"
     id="path81"
     style="filter:url(#filter3413)" />
</svg>
