<?xml version="1.0" encoding="UTF-8" standalone="no"?>
<!-- Created with Inkscape (http://www.inkscape.org/) -->

<svg
   xmlns:dc="http://purl.org/dc/elements/1.1/"
   xmlns:cc="http://creativecommons.org/ns#"
   xmlns:rdf="http://www.w3.org/1999/02/22-rdf-syntax-ns#"
   xmlns:svg="http://www.w3.org/2000/svg"
   xmlns="http://www.w3.org/2000/svg"
   xmlns:xlink="http://www.w3.org/1999/xlink"
   xmlns:sodipodi="http://sodipodi.sourceforge.net/DTD/sodipodi-0.dtd"
   xmlns:inkscape="http://www.inkscape.org/namespaces/inkscape"
   version="1.0"
   width="22"
   height="22"
   id="svg2"
   inkscape:version="0.48.4 r9939"
   sodipodi:docname="folder-system.svg">
  <metadata
     id="metadata70">
    <rdf:RDF>
      <cc:Work
         rdf:about="">
        <dc:format>image/svg+xml</dc:format>
        <dc:type
           rdf:resource="http://purl.org/dc/dcmitype/StillImage" />
      </cc:Work>
    </rdf:RDF>
  </metadata>
  <sodipodi:namedview
     pagecolor="#ffffff"
     bordercolor="#666666"
     borderopacity="1"
     objecttolerance="10"
     gridtolerance="10"
     guidetolerance="10"
     inkscape:pageopacity="0"
     inkscape:pageshadow="2"
     inkscape:window-width="1082"
     inkscape:window-height="480"
     id="namedview68"
     showgrid="false"
     inkscape:zoom="10.727273"
     inkscape:cx="-13.097458"
     inkscape:cy="11"
     inkscape:window-x="296"
     inkscape:window-y="139"
     inkscape:window-maximized="0"
     inkscape:current-layer="svg2" />
  <defs
     id="defs4">
    <linearGradient
       id="linearGradient5060">
      <stop
         id="stop5062"
         style="stop-color:#000000;stop-opacity:1"
         offset="0" />
      <stop
         id="stop5064"
         style="stop-color:#000000;stop-opacity:0"
         offset="1" />
    </linearGradient>
    <linearGradient
       id="linearGradient5048">
      <stop
         id="stop5050"
         style="stop-color:#000000;stop-opacity:0"
         offset="0" />
      <stop
         id="stop5056"
         style="stop-color:#000000;stop-opacity:1"
         offset="0.5" />
      <stop
         id="stop5052"
         style="stop-color:#000000;stop-opacity:0"
         offset="1" />
    </linearGradient>
    <linearGradient
       id="linearGradient5157">
      <stop
         id="stop5159"
         style="stop-color:#c1c1c1;stop-opacity:1"
         offset="0" />
      <stop
         id="stop5161"
         style="stop-color:#909090;stop-opacity:1"
         offset="1" />
    </linearGradient>
    <linearGradient
       id="linearGradient11111">
      <stop
         id="stop11113"
         style="stop-color:#ffffff;stop-opacity:1"
         offset="0" />
      <stop
         id="stop11115"
         style="stop-color:#cdcdcd;stop-opacity:1"
         offset="0.91013825" />
      <stop
         id="stop11117"
         style="stop-color:#a1a1a1;stop-opacity:1"
         offset="1" />
    </linearGradient>
    <linearGradient
       id="linearGradient3390">
      <stop
         id="stop3392"
         style="stop-color:#51751e;stop-opacity:1"
         offset="0" />
      <stop
         id="stop3394"
         style="stop-color:#51751e;stop-opacity:1"
         offset="1" />
    </linearGradient>
    <linearGradient
       id="linearGradient7012-661-145-733-759-865-745">
      <stop
         id="stop2699"
         style="stop-color:#ffe791;stop-opacity:1;"
         offset="0" />
      <stop
         id="stop2701"
         style="stop-color:#f0cf80;stop-opacity:1;"
         offset="1" />
    </linearGradient>
    <linearGradient
       id="linearGradient3752">
      <stop
         id="stop3754"
         style="stop-color:#ffffff;stop-opacity:1"
         offset="0" />
      <stop
         id="stop3760"
         style="stop-color:#ffffff;stop-opacity:1"
         offset="0.84754151" />
      <stop
         id="stop3756"
         style="stop-color:#ffffff;stop-opacity:0"
         offset="1" />
    </linearGradient>
    <linearGradient
       id="linearGradient8265-821-176-38-919-66-249">
      <stop
         id="stop2687"
         style="stop-color:#ffffff;stop-opacity:1"
         offset="0" />
      <stop
         id="stop2689"
         style="stop-color:#ffffff;stop-opacity:0"
         offset="1" />
    </linearGradient>
    <linearGradient
       x1="302.85715"
       y1="366.64789"
       x2="302.85715"
       y2="609.50507"
       id="linearGradient3510"
       xlink:href="#linearGradient5048"
       gradientUnits="userSpaceOnUse"
       gradientTransform="matrix(2.774389,0,0,1.969706,-1892.179,-872.8854)" />
    <radialGradient
       cx="605.71429"
       cy="486.64789"
       r="117.14286"
       fx="605.71429"
       fy="486.64789"
       id="radialGradient3512"
       xlink:href="#linearGradient5060"
       gradientUnits="userSpaceOnUse"
       gradientTransform="matrix(2.774389,0,0,1.969706,-1891.633,-872.8854)" />
    <radialGradient
       cx="605.71429"
       cy="486.64789"
       r="117.14286"
       fx="605.71429"
       fy="486.64789"
       id="radialGradient3514"
       xlink:href="#linearGradient5060"
       gradientUnits="userSpaceOnUse"
       gradientTransform="matrix(-2.774389,0,0,1.969706,112.7623,-872.8854)" />
    <linearGradient
       x1="-28.531403"
       y1="17.955765"
       x2="-28.531403"
       y2="37.502914"
       id="linearGradient3516"
       xlink:href="#linearGradient11111"
       gradientUnits="userSpaceOnUse"
       gradientTransform="matrix(0.9101563,0,0,0.8985549,11.885849,-34.99423)" />
    <linearGradient
       x1="9.8763561"
       y1="2.6014566"
       x2="9.8763561"
       y2="23.061668"
       id="linearGradient3518"
       xlink:href="#linearGradient5157"
       gradientUnits="userSpaceOnUse"
       gradientTransform="matrix(0.9101563,0,0,0.8985549,-19.403508,-21.963997)" />
    <radialGradient
       cx="8.2334681"
       cy="8.4777107"
       r="9.9991302"
       fx="8.2334681"
       fy="8.4777107"
       id="radialGradient3520"
       xlink:href="#linearGradient7012-661-145-733-759-865-745"
       gradientUnits="userSpaceOnUse"
       gradientTransform="matrix(1.2637216,1.6454755e-8,-1.1140231e-8,0.8555673,-21.653225,-19.713096)" />
    <linearGradient
       x1="15.669036"
       y1="16.979422"
       x2="3.0768602"
       y2="4.2520242"
       id="linearGradient3522"
       xlink:href="#linearGradient3390"
       gradientUnits="userSpaceOnUse"
       gradientTransform="matrix(0.9052018,0,0,0.8680849,-19.712254,-19.883974)" />
    <radialGradient
       cx="4.02005"
       cy="5.5926585"
       r="10.273108"
       fx="4.02005"
       fy="5.5926585"
       id="radialGradient3524"
       xlink:href="#linearGradient3752"
       gradientUnits="userSpaceOnUse"
       gradientTransform="matrix(-0.01529236,1.2169565,-1.6351743,-0.01889719,-6.5229407,-19.500936)" />
    <linearGradient
       x1="18.03083"
       y1="16.407909"
       x2="20.054544"
       y2="24.627615"
       id="linearGradient3526"
       xlink:href="#linearGradient8265-821-176-38-919-66-249"
       gradientUnits="userSpaceOnUse" />
    <linearGradient
       id="linearGradient5128">
      <stop
         id="stop5130"
         style="stop-color:#e5e5e5;stop-opacity:1"
         offset="0" />
      <stop
         id="stop5132"
         style="stop-color:#ababab;stop-opacity:1"
         offset="1" />
    </linearGradient>
    <linearGradient
       id="linearGradient3397">
      <stop
         id="stop3399"
         style="stop-color:#aaaaaa;stop-opacity:1"
         offset="0" />
      <stop
         id="stop3401"
         style="stop-color:#8c8c8c;stop-opacity:1"
         offset="1" />
    </linearGradient>
    <linearGradient
       x1="63.9995"
       y1="3.1001"
       x2="63.9995"
       y2="122.8994"
       id="linearGradient3309"
       gradientUnits="userSpaceOnUse">
      <stop
         id="stop3311"
         style="stop-color:#f6f6f6;stop-opacity:1"
         offset="0" />
      <stop
         id="stop3313"
         style="stop-color:#cccccc;stop-opacity:1"
         offset="1" />
    </linearGradient>
    <linearGradient
       x1="25"
       y1="0"
       x2="25"
       y2="16.000105"
       id="linearGradient3542"
       xlink:href="#linearGradient3309"
       gradientUnits="userSpaceOnUse"
       gradientTransform="matrix(0.99809609,0,0,0.99791944,-16.995144,0.03331124)" />
    <linearGradient
       x1="21"
       y1="0"
       x2="21"
       y2="16.004715"
       id="linearGradient3544"
       xlink:href="#linearGradient3397"
       gradientUnits="userSpaceOnUse"
       gradientTransform="matrix(0.99809609,0,0,0.99791944,-16.995144,0.03331124)" />
    <linearGradient
       x1="86.132919"
       y1="105.105"
       x2="84.63858"
       y2="20.895"
       id="linearGradient3546"
       xlink:href="#linearGradient5128"
       gradientUnits="userSpaceOnUse"
       gradientTransform="matrix(0.09614231,0,0,0.09614231,1.8468935,1.9430362)" />
    <linearGradient
       inkscape:collect="always"
       xlink:href="#linearGradient5048"
       id="linearGradient3830"
       gradientUnits="userSpaceOnUse"
       gradientTransform="matrix(2.774389,0,0,1.969706,-1892.179,-872.8854)"
       x1="302.85715"
       y1="366.64789"
       x2="302.85715"
       y2="609.50507" />
    <radialGradient
       inkscape:collect="always"
       xlink:href="#linearGradient5060"
       id="radialGradient3832"
       gradientUnits="userSpaceOnUse"
       gradientTransform="matrix(2.774389,0,0,1.969706,-1891.633,-872.8854)"
       cx="605.71429"
       cy="486.64789"
       fx="605.71429"
       fy="486.64789"
       r="117.14286" />
    <radialGradient
       inkscape:collect="always"
       xlink:href="#linearGradient5060"
       id="radialGradient3834"
       gradientUnits="userSpaceOnUse"
       gradientTransform="matrix(-2.774389,0,0,1.969706,112.7623,-872.8854)"
       cx="605.71429"
       cy="486.64789"
       fx="605.71429"
       fy="486.64789"
       r="117.14286" />
    <linearGradient
       inkscape:collect="always"
       xlink:href="#linearGradient11111"
       id="linearGradient3836"
       gradientUnits="userSpaceOnUse"
       gradientTransform="matrix(0.9101563,0,0,0.8985549,11.885849,-34.99423)"
       x1="-28.531403"
       y1="17.955765"
       x2="-28.531403"
       y2="37.502914" />
    <linearGradient
       inkscape:collect="always"
       xlink:href="#linearGradient5157"
       id="linearGradient3838"
       gradientUnits="userSpaceOnUse"
       gradientTransform="matrix(0.9101563,0,0,0.8985549,-19.403508,-21.963997)"
       x1="9.8763561"
       y1="2.6014566"
       x2="9.8763561"
       y2="23.061668" />
    <radialGradient
       inkscape:collect="always"
       xlink:href="#linearGradient7012-661-145-733-759-865-745"
       id="radialGradient3840"
       gradientUnits="userSpaceOnUse"
       gradientTransform="matrix(1.2637216,1.6454755e-8,-1.1140231e-8,0.8555673,-21.653225,-19.713096)"
       cx="8.2334681"
       cy="8.4777107"
       fx="8.2334681"
       fy="8.4777107"
       r="9.9991302" />
    <linearGradient
       inkscape:collect="always"
       xlink:href="#linearGradient3390"
       id="linearGradient3842"
       gradientUnits="userSpaceOnUse"
       gradientTransform="matrix(0.9052018,0,0,0.8680849,-19.712254,-19.883974)"
       x1="15.669036"
       y1="16.979422"
       x2="3.0768602"
       y2="4.2520242" />
    <radialGradient
       inkscape:collect="always"
       xlink:href="#linearGradient3752"
       id="radialGradient3844"
       gradientUnits="userSpaceOnUse"
       gradientTransform="matrix(-0.01529236,1.2169565,-1.6351743,-0.01889719,-6.5229407,-19.500936)"
       cx="4.02005"
       cy="5.5926585"
       fx="4.02005"
       fy="5.5926585"
       r="10.273108" />
    <linearGradient
       inkscape:collect="always"
       xlink:href="#linearGradient8265-821-176-38-919-66-249"
       id="linearGradient3846"
       gradientUnits="userSpaceOnUse"
       x1="18.03083"
       y1="16.407909"
       x2="20.054544"
       y2="24.627615" />
    <linearGradient
       inkscape:collect="always"
       xlink:href="#linearGradient8265-821-176-38-919-66-249"
       id="linearGradient3849"
       gradientUnits="userSpaceOnUse"
       x1="18.03083"
       y1="16.407909"
       x2="20.054544"
       y2="24.627615"
       gradientTransform="matrix(0.402649,0,0,0.3520695,2.836469,4.118628)" />
    <radialGradient
       inkscape:collect="always"
       xlink:href="#linearGradient3752"
       id="radialGradient3852"
       gradientUnits="userSpaceOnUse"
       gradientTransform="matrix(-0.01529236,1.2169565,-1.6351743,-0.01889719,12.958987,2.691799)"
       cx="4.02005"
       cy="5.5926585"
       fx="4.02005"
       fy="5.5926585"
       r="10.273108" />
    <radialGradient
       inkscape:collect="always"
       xlink:href="#linearGradient7012-661-145-733-759-865-745"
       id="radialGradient3855"
       gradientUnits="userSpaceOnUse"
       gradientTransform="matrix(1.2637216,1.6454755e-8,-1.1140231e-8,0.8555673,-2.171297,2.479639)"
       cx="8.2334681"
       cy="8.4777107"
       fx="8.2334681"
       fy="8.4777107"
       r="9.9991302" />
    <linearGradient
       inkscape:collect="always"
       xlink:href="#linearGradient11111"
       id="linearGradient3860"
       gradientUnits="userSpaceOnUse"
       gradientTransform="matrix(0.9101563,0,0,0.8985549,31.367777,-12.801495)"
       x1="-28.531403"
       y1="17.955765"
       x2="-28.531403"
       y2="37.502914" />
    <linearGradient
       inkscape:collect="always"
       xlink:href="#linearGradient5157"
       id="linearGradient3862"
       gradientUnits="userSpaceOnUse"
       gradientTransform="matrix(0.9101563,0,0,0.8985549,0.07842,0.228738)"
       x1="9.8763561"
       y1="2.6014566"
       x2="9.8763561"
       y2="23.061668" />
  </defs>
  <g
     transform="matrix(0.4968783,0,0,0.4693778,-0.833589,-0.320595)"
     id="g3430"
     style="stroke-width:1.88256383;stroke-miterlimit:4;stroke-dasharray:none">
    <g
       transform="matrix(0.02165152,0,0,0.01485743,43.0076,42.68539)"
       id="g3432"
       style="stroke-width:104.96237946;stroke-miterlimit:4;stroke-dasharray:none;display:inline">
      <rect
         width="1339.6335"
         height="478.35718"
         x="-1559.2523"
         y="-150.69685"
         id="rect3434"
         style="opacity:0.40206185;fill:url(#linearGradient3830);fill-opacity:1;fill-rule:nonzero;stroke:none;stroke-width:104.96237946;marker:none;visibility:visible;display:inline;overflow:visible" />
      <path
         d="m -219.61876,-150.68038 c 0,0 0,478.33079 0,478.33079 142.874166,0.90045 345.40022,-107.16966 345.40014,-239.196175 0,-132.026537 -159.436816,-239.134595 -345.40014,-239.134615 z"
         id="path3436"
         style="opacity:0.40206185;fill:url(#radialGradient3832);fill-opacity:1;fill-rule:nonzero;stroke:none;stroke-width:104.96237946;marker:none;visibility:visible;display:inline;overflow:visible"
         inkscape:connector-curvature="0" />
      <path
         d="m -1559.2523,-150.68038 c 0,0 0,478.33079 0,478.33079 -142.8742,0.90045 -345.4002,-107.16966 -345.4002,-239.196175 0,-132.026537 159.4368,-239.134595 345.4002,-239.134615 z"
         id="path3438"
         style="opacity:0.40206185;fill:url(#radialGradient3834);fill-opacity:1;fill-rule:nonzero;stroke:none;stroke-width:104.96237946;marker:none;visibility:visible;display:inline;overflow:visible"
         inkscape:connector-curvature="0" />
    </g>
  </g>
  <path
     d="m 2.641957,2.5055 c -0.07785,0 -0.144596,0.08334 -0.144596,0.169416 l 0,1.8465 -1.7894,0 c -0.09715,0 -0.173514,0.08524 -0.173514,0.169416 0.0063,4.797385 -0.02399,9.594696 -0.02892,14.392069 0.02647,0.804239 0.488973,1.352453 0.809734,1.355328 0.921748,0.0083 0.490822,-0.0036 0.954331,0 5.889014,-0.01447 12.358937,-0.07024 18.24795,-0.08471 0.04934,0.0062 -1.344042,-0.0968 -1.330279,-1.298857 10e-7,-4.1989 -0.456941,-9.826099 -0.456941,-14.025001 0,-0.167921 -0.01405,-0.261378 -0.02892,-0.338832 -0.01148,-0.05981 -0.02612,-0.08884 -0.05784,-0.112944 -0.02536,-0.02197 -0.04965,-0.05126 -0.08676,-0.05647 l -8.9515437,0 0,-1.8465 c 0,-0.08608 -0.066742,-0.169416 -0.1445953,-0.169416 l -6.818713,0 z"
     id="path3440"
     style="fill:url(#linearGradient3860);fill-opacity:1;stroke:url(#linearGradient3862);stroke-width:1.01114571;stroke-linecap:round;stroke-linejoin:round;stroke-miterlimit:4;stroke-opacity:1;stroke-dasharray:none;display:inline"
     inkscape:connector-curvature="0" />
  <path
     d="m 3.527052,6.523916 c 9.620082,0 11.595819,4.02e-4 17.933174,-0.02404 0,1.370714 0.234958,14.000269 -0.440609,14.000269 -0.649883,0 -12.180758,-0.08235 -18.518111,-0.05791 1.339437,0 1.025546,-0.543547 1.025546,-13.91832 z"
     id="path3442"
     style="fill:url(#radialGradient3855);fill-opacity:1;stroke:#828282;stroke-width:1.00000011999999994;stroke-linecap:round;stroke-linejoin:round;stroke-miterlimit:4;stroke-opacity:1;stroke-dasharray:none;display:inline"
     inkscape:connector-curvature="0" />
  <path
     d="m 20.955955,7.450603 c 0,0 -15.017913,0.23239 -16.442276,0.07006 -0.07549,12.070605 -0.116891,12.301312 -0.116891,12.301312"
     id="path3444"
     style="opacity:0.4;fill:none;stroke:url(#radialGradient3852);stroke-width:0.98119509;stroke-linecap:butt;stroke-linejoin:miter;stroke-miterlimit:4;stroke-opacity:1;stroke-dasharray:none;display:inline"
     inkscape:connector-curvature="0" />
  <path
     d="m 4.1324955,5.9999994 c -0.6196559,0 -1.1324503,0.4483788 -1.1324503,0.9901955 l 0,5.6331121 c 0.00237,0.100774 0.059761,0.21567 0.1509933,0.286056 0.091231,0.07039 0.2078453,0.100084 0.3397351,0.08802 a 0.24645773,0.21549849 0 0 0 0.012583,0 L 21.622561,10.488886 c 0.210092,-0.02897 0.374547,-0.188122 0.377484,-0.374074 l 0,-3.1246171 c 0,-0.5418167 -0.512795,-0.9901955 -1.13245,-0.9901955 l -16.7350995,0 z"
     id="path3446"
     style="opacity:0.2;fill:url(#linearGradient3849);fill-opacity:1;fill-rule:evenodd;stroke:none"
     inkscape:connector-curvature="0" />
  <g
     id="g2467"
     transform="matrix(0.94219927,0,0,0.93749999,6.8716147,7)">
    <g
       id="g2479">
      <path
         inkscape:connector-curvature="0"
         style="fill:url(#linearGradient3542);fill-opacity:1;fill-rule:nonzero;stroke:url(#linearGradient3544);stroke-width:1.06188357;stroke-linecap:butt;stroke-linejoin:round;stroke-miterlimit:4;stroke-opacity:1;stroke-dasharray:none;stroke-dashoffset:0;marker:none;visibility:visible;display:block;overflow:visible;enable-background:accumulate"
         id="path2426"
         d="m 6.9548594,0.53227096 c -0.2479439,0 -0.436667,0.18868878 -0.436667,0.43658975 l 0,1.24739929 C 5.9653441,2.3581647 5.4690297,2.5873646 4.9898578,2.8711446 L 4.0853332,1.9667801 c -0.1753225,-0.1752924 -0.4484865,-0.1752924 -0.6238101,0 L 1.964379,3.4636593 c -0.1753226,0.1752924 -0.1753226,0.4484072 0,0.6236997 L 2.8689036,4.9917234 C 2.5850739,5.4708102 2.3558333,5.9670368 2.213903,6.5197876 l -1.2476201,0 c -0.24794403,0 -0.43666704,0.1886887 -0.43666704,0.4365897 l 0,2.1205788 c 10e-9,0.247901 0.188723,0.4365898 0.43666704,0.4365898 l 1.2476201,0 C 2.3558332,10.066296 2.585074,10.562523 2.8689036,11.04161 L 1.964379,11.945975 c -0.1753226,0.175292 -0.1753226,0.448407 0,0.623699 l 1.4971441,1.496879 c 0.1753235,0.175293 0.4484865,0.175293 0.6238101,0 l 0.9045246,-0.904364 c 0.479172,0.28378 0.9754862,0.51298 1.5283346,0.654884 l 0,1.2474 c 10e-8,0.247901 0.188723,0.43659 0.436667,0.43659 l 2.1209542,0 c 0.2479447,0 0.4366671,-0.188689 0.4366671,-0.43659 l 0,-1.2474 c 0.5528483,-0.141904 1.0491623,-0.371104 1.5283343,-0.654884 l 0.904525,0.904364 c 0.175323,0.175293 0.448486,0.175293 0.62381,0 l 1.497144,-1.496879 c 0.175324,-0.175292 0.175324,-0.448407 0,-0.623699 L 13.16177,11.04161 c 0.28383,-0.479087 0.513071,-0.975314 0.655,-1.5280641 l 1.24762,0 c 0.247945,0 0.436667,-0.1886892 0.436667,-0.4365898 l 0,-2.1205788 c 0,-0.2479009 -0.188723,-0.4365897 -0.436667,-0.4365897 l -1.24762,0 C 13.674841,5.9670368 13.4456,5.4708102 13.16177,4.9917234 L 14.066294,4.087359 c 0.175324,-0.1752925 0.175324,-0.4484072 0,-0.6236997 L 12.56915,1.9667801 c -0.175324,-0.1752924 -0.448487,-0.1752924 -0.62381,0 L 11.040815,2.8711446 C 10.561643,2.5873646 10.065329,2.3581647 9.5124807,2.21626 l 0,-1.24739929 c -4e-7,-0.24790097 -0.188722,-0.43658975 -0.4366671,-0.43658975 l -2.1209542,0 z M 8.0153365,6.0208279 c 1.1018981,0 1.9961925,0.8941358 1.9961925,1.9958388 0,1.1017031 -0.8942944,1.9958393 -1.9961925,1.9958393 -1.101898,0 -1.9961921,-0.8941362 -1.9961921,-1.9958393 0,-1.101703 0.8942941,-1.9958388 1.9961921,-1.9958388 z" />
      <path
         inkscape:connector-curvature="0"
         style="opacity:0.05;fill:#000000;fill-opacity:1;stroke:none"
         id="path3315"
         d="M 8,3.465116 C 5.4994229,3.465116 3.4651163,5.499423 3.4651163,8 3.4651163,10.500577 5.4994229,12.534884 8,12.534884 10.500576,12.534883 12.534884,10.500577 12.534884,8 12.534884,5.499423 10.500576,3.465116 8,3.465116 z M 8,5.55814 c 1.347907,0 2.44186,1.093953 2.44186,2.44186 0,1.347907 -1.093953,2.44186 -2.44186,2.44186 C 6.652093,10.44186 5.5581395,9.347907 5.5581395,8 5.5581395,6.652093 6.652093,5.55814 8,5.55814 z" />
      <path
         inkscape:connector-curvature="0"
         style="fill:none;stroke:url(#linearGradient3546);stroke-width:1;stroke-miterlimit:4;stroke-dasharray:none"
         id="path28"
         d="M 8.0000001,4 C 5.7943997,4 3.9999999,5.7944001 3.9999999,8.0000008 3.9999999,10.2056 5.7943997,12 8.0000001,12 10.2056,12 12,10.2056 12,8.0000008 12,5.7944001 10.2056,4 8.0000001,4 z" />
    </g>
  </g>
</svg>
