<!-- Created with Inkscape (http://www.inkscape.org/) -->
<svg xmlns:dc="http://purl.org/dc/elements/1.1/" xmlns:cc="http://creativecommons.org/ns#" xmlns:rdf="http://www.w3.org/1999/02/22-rdf-syntax-ns#" xmlns:svg="http://www.w3.org/2000/svg" xmlns="http://www.w3.org/2000/svg" xmlns:xlink="http://www.w3.org/1999/xlink" xmlns:sodipodi="http://sodipodi.sourceforge.net/DTD/sodipodi-0.dtd" xmlns:inkscape="http://www.inkscape.org/namespaces/inkscape" version="1.1" width="48" height="48" id="svg19019" inkscape:version="0.48.4 r9939" sodipodi:docname="folder-download.svg">
  <sodipodi:namedview pagecolor="#ffffff" bordercolor="#666666" borderopacity="1" objecttolerance="10" gridtolerance="10" guidetolerance="10" inkscape:pageopacity="0" inkscape:pageshadow="2" inkscape:window-width="877" inkscape:window-height="480" id="namedview63" showgrid="false" inkscape:zoom="4.9166667" inkscape:cx="24" inkscape:cy="24" inkscape:window-x="59" inkscape:window-y="34" inkscape:window-maximized="0" inkscape:current-layer="layer1"/>
  <defs id="defs19021">
    <linearGradient x1="42.470848" y1="11.952797" x2="42.470848" y2="35.581654" id="linearGradient3381-56-2-7-5-0" xlink:href="#linearGradient3454-2-8-6-1-1" gradientUnits="userSpaceOnUse" gradientTransform="matrix(0.89189031,0,0,1.0580283,3.1206609,5.3536023)"/>
    <linearGradient id="linearGradient3454-2-8-6-1-1">
      <stop id="stop3456-4-7-9-4-0" style="stop-color:#ffffff;stop-opacity:1" offset="0"/>
      <stop id="stop3458-39-0-8-61-3" style="stop-color:#ffffff;stop-opacity:0.23529412" offset="0.0097359"/>
      <stop id="stop3460-7-5-4-1-6" style="stop-color:#ffffff;stop-opacity:0.15686275" offset="0.99001008"/>
      <stop id="stop3462-0-5-6-6-2" style="stop-color:#ffffff;stop-opacity:0.39215687" offset="1"/>
    </linearGradient>
    <linearGradient x1="22.934725" y1="49.629246" x2="22.809399" y2="36.657963" id="linearGradient3072-0-3-0-7" xlink:href="#linearGradient6129-963-697-142-998-580-273-0-8-4-9" gradientUnits="userSpaceOnUse" gradientTransform="matrix(1.1446925,0,0,0.9977536,-3.4661379,-14.901161)"/>
    <linearGradient id="linearGradient6129-963-697-142-998-580-273-0-8-4-9">
      <stop id="stop2661-3-02-4-8" style="stop-color:#0a0a0a;stop-opacity:0.498" offset="0"/>
      <stop id="stop2663-2-8-06-2" style="stop-color:#0a0a0a;stop-opacity:0" offset="1"/>
    </linearGradient>
    <linearGradient x1="35.792694" y1="17.118193" x2="35.792694" y2="43.761127" id="linearGradient4638-4-6-8-9" xlink:href="#linearGradient4632-0-6-4" gradientUnits="userSpaceOnUse" gradientTransform="matrix(1,0,0,1.0357143,2.0849371e-6,-17.589091)"/>
    <linearGradient id="linearGradient4632-0-6-4">
      <stop id="stop4634-4-4-7" style="stop-color:#9ed8c7;stop-opacity:1;" offset="0"/>
      <stop id="stop4636-3-1-5" style="stop-color:#238576;stop-opacity:1;" offset="1"/>
    </linearGradient>
    <radialGradient cx="605.71429" cy="486.64789" r="117.14286" fx="605.71429" fy="486.64789" id="radialGradient3080-2-3-9-9" xlink:href="#linearGradient5060-820-9-0-7-1" gradientUnits="userSpaceOnUse" gradientTransform="matrix(-0.03079083,0,0,0.02470588,23.389752,15.941639)"/>
    <linearGradient id="linearGradient5060-820-9-0-7-1">
      <stop id="stop2681-5-4-3-6" style="stop-color:#000000;stop-opacity:1" offset="0"/>
      <stop id="stop2683-8-6-9-4" style="stop-color:#000000;stop-opacity:0" offset="1"/>
    </linearGradient>
    <radialGradient cx="605.71429" cy="486.64789" r="117.14286" fx="605.71429" fy="486.64789" id="radialGradient3083-4-5-6-4" xlink:href="#linearGradient5060-179-2-0-3-6" gradientUnits="userSpaceOnUse" gradientTransform="matrix(0.03079083,0,0,0.02470588,24.610252,15.941639)"/>
    <linearGradient id="linearGradient5060-179-2-0-3-6">
      <stop id="stop2675-9-9-4-1" style="stop-color:#000000;stop-opacity:1" offset="0"/>
      <stop id="stop2677-1-7-2-6" style="stop-color:#000000;stop-opacity:0" offset="1"/>
    </linearGradient>
    <linearGradient x1="302.85715" y1="366.64789" x2="302.85715" y2="609.50507" id="linearGradient3086-4-4-0-5" xlink:href="#linearGradient5048-585-4-0-56-2" gradientUnits="userSpaceOnUse" gradientTransform="matrix(0.07938856,0,0,0.02470588,-4.6932879,15.941639)"/>
    <linearGradient id="linearGradient5048-585-4-0-56-2">
      <stop id="stop2667-5-0-7-4" style="stop-color:#000000;stop-opacity:0" offset="0"/>
      <stop id="stop2669-4-1-8-0" style="stop-color:#000000;stop-opacity:1" offset="0.5"/>
      <stop id="stop2671-2-6-3-2" style="stop-color:#000000;stop-opacity:0" offset="1"/>
    </linearGradient>
    <linearGradient x1="21.37039" y1="4.2476678" x2="21.37039" y2="34.143417" id="linearGradient3381-5-5-29-4-6" xlink:href="#linearGradient4507-9-2-2-3" gradientUnits="userSpaceOnUse" gradientTransform="matrix(0.89189031,0,0,1.0580283,3.1206621,-10.646401)"/>
    <linearGradient id="linearGradient4507-9-2-2-3">
      <stop id="stop4509-9-8-4-2" style="stop-color:#ffffff;stop-opacity:1" offset="0"/>
      <stop id="stop4511-7-50-2-1" style="stop-color:#ffffff;stop-opacity:0.23529412" offset="0.07395859"/>
      <stop id="stop4513-2-0-2-9" style="stop-color:#ffffff;stop-opacity:0.15686275" offset="0.99001008"/>
      <stop id="stop4515-3-9-8-6" style="stop-color:#ffffff;stop-opacity:0.39215687" offset="1"/>
    </linearGradient>
    <linearGradient x1="62.988873" y1="13" x2="62.988873" y2="16" id="linearGradient3089-5-2-9-8-6-8" xlink:href="#linearGradient4646-6-91-5-0" gradientUnits="userSpaceOnUse" gradientTransform="translate(-50.940897,-16.000001)"/>
    <linearGradient id="linearGradient4646-6-91-5-0">
      <stop id="stop4648-2-4-6-6" style="stop-color:#f9f9f9;stop-opacity:1" offset="0"/>
      <stop id="stop4650-3-8-5-3" style="stop-color:#d8d8d8;stop-opacity:1" offset="1"/>
    </linearGradient>
    <linearGradient id="linearGradient3104-8-8-97-4-6-2-0-1-4">
      <stop id="stop3106-5-4-3-5-0-1-61-9-2" style="stop-color:#000000;stop-opacity:0.32173914" offset="0"/>
      <stop id="stop3108-4-3-7-8-2-4-01-9-9" style="stop-color:#000000;stop-opacity:0.27826086" offset="1"/>
    </linearGradient>
    <linearGradient x1="-51.786404" y1="53.514328" x2="-51.786404" y2="3.6336823" id="linearGradient19017" xlink:href="#linearGradient3104-8-8-97-4-6-2-0-1-4" gradientUnits="userSpaceOnUse" gradientTransform="matrix(0.80749834,0,0,0.83374395,106.87672,-16.069841)"/>
    <radialGradient r="8.0625" fy="19.03125" fx="11.25" cy="19.03125" cx="11.25" gradientTransform="matrix(1.8604652,0,0,0.51841318,12.069766,33.954258)" gradientUnits="userSpaceOnUse" id="radialGradient3063" xlink:href="#linearGradient5105-262-943-861" inkscape:collect="always"/>
    <linearGradient y2="20.709501" x2="0.81572169" y1="20.709501" x1="28.314739" gradientTransform="matrix(0,-0.6145986,-0.5838413,0,46.948532,46.632829)" gradientUnits="userSpaceOnUse" id="linearGradient3060" xlink:href="#linearGradient2264" inkscape:collect="always"/>
    <linearGradient y2="25.410501" x2="57.726395" y1="25.410501" x1="13.471772" gradientTransform="matrix(0,0.7128154,-0.6740163,0,50.745616,15.045636)" gradientUnits="userSpaceOnUse" id="linearGradient3057" xlink:href="#linearGradient4222" inkscape:collect="always"/>
    <linearGradient gradientUnits="userSpaceOnUse" y2="44.407234" x2="21.135593" y1="16.472357" x1="21.135593" id="linearGradient3845" xlink:href="#linearGradient7012-661-145-733-759-865-745" inkscape:collect="always"/>
    <radialGradient r="21" fy="5.01718" fx="3" cy="5.01718" cx="3" gradientTransform="matrix(-1.274898e-8,1.7142916,-2.159331,-1.4599595e-8,12.809361,2.8570011)" gradientUnits="userSpaceOnUse" id="radialGradient3075" xlink:href="#linearGradient3484" inkscape:collect="always"/>
    <linearGradient y2="16.19013" x2="62.988873" y1="13.182598" x1="62.988873" gradientTransform="translate(-50.940898,0)" gradientUnits="userSpaceOnUse" id="linearGradient3073" xlink:href="#linearGradient6404" inkscape:collect="always"/>
    <linearGradient y2="609.50507" x2="302.85715" y1="366.64789" x1="302.85715" gradientTransform="matrix(0.07938856,0,0,0.02470588,-4.693293,31.941642)" gradientUnits="userSpaceOnUse" id="linearGradient3070" xlink:href="#linearGradient5048-585" inkscape:collect="always"/>
    <radialGradient r="117.14286" fy="486.64789" fx="605.71429" cy="486.64789" cx="605.71429" gradientTransform="matrix(0.03079083,0,0,0.02470588,24.610252,31.941642)" gradientUnits="userSpaceOnUse" id="radialGradient3067" xlink:href="#linearGradient5060-179" inkscape:collect="always"/>
    <radialGradient r="117.14286" fy="486.64789" fx="605.71429" cy="486.64789" cx="605.71429" gradientTransform="matrix(-0.03079083,0,0,0.02470588,23.389748,31.941642)" gradientUnits="userSpaceOnUse" id="radialGradient3064" xlink:href="#linearGradient5060-820" inkscape:collect="always"/>
    <linearGradient y2="16.047026" x2="82.453476" y1="45.114193" x1="82.453476" gradientTransform="translate(-53.765393,-0.1141929)" gradientUnits="userSpaceOnUse" id="linearGradient3061" xlink:href="#linearGradient3390" inkscape:collect="always"/>
    <linearGradient y2="36.657963" x2="22.809399" y1="49.629246" x1="22.934725" gradientTransform="matrix(1.1446925,0,0,0.9977536,-3.4661413,1.0988425)" gradientUnits="userSpaceOnUse" id="linearGradient3056" xlink:href="#linearGradient6129-963-697-142-998-580-273" inkscape:collect="always"/>
    <radialGradient r="20.979567" fy="8.3021259" fx="7.2646537" cy="8.3021259" cx="7.2646537" gradientTransform="matrix(0,1.2079744,-1.6271642,0,26.371748,8.2664685)" gradientUnits="userSpaceOnUse" id="radialGradient3053" xlink:href="#linearGradient6087-437-184-795-110-662-495" inkscape:collect="always"/>
    <linearGradient y2="33.95525" x2="15.214532" y1="22.292103" x1="11.566265" gradientUnits="userSpaceOnUse" id="linearGradient3050" xlink:href="#linearGradient8265-821-176-38-919-66-249" inkscape:collect="always"/>
    <linearGradient gradientUnits="userSpaceOnUse" xlink:href="#linearGradient8265-821-176-38-919-66-249" id="linearGradient2432" y2="33.95525" x2="15.214532" y1="22.292103" x1="11.566265"/>
    <linearGradient id="linearGradient8265-821-176-38-919-66-249">
      <stop offset="0" style="stop-color:#ffffff;stop-opacity:0.2" id="stop2687"/>
      <stop offset="1" style="stop-color:#ffffff;stop-opacity:0" id="stop2689"/>
    </linearGradient>
    <radialGradient gradientTransform="matrix(0,1.2079744,-1.6271642,0,26.371748,8.2664685)" gradientUnits="userSpaceOnUse" xlink:href="#linearGradient6087-437-184-795-110-662-495" id="radialGradient2435" fy="8.3021259" fx="7.2646537" r="20.979567" cy="8.3021259" cx="7.2646537"/>
    <linearGradient id="linearGradient6087-437-184-795-110-662-495">
      <stop offset="0" style="stop-color:#ffffff;stop-opacity:0.40000001" id="stop2693"/>
      <stop offset="1" style="stop-color:#ffffff;stop-opacity:0" id="stop2695"/>
    </linearGradient>
    <linearGradient gradientTransform="matrix(1.1446925,0,0,0.9977536,-3.4661413,1.0988425)" gradientUnits="userSpaceOnUse" xlink:href="#linearGradient6129-963-697-142-998-580-273" id="linearGradient2438" y2="36.657963" x2="22.809399" y1="49.629246" x1="22.934725"/>
    <linearGradient id="linearGradient6129-963-697-142-998-580-273">
      <stop offset="0" style="stop-color:#0a0a0a;stop-opacity:0.498" id="stop2661"/>
      <stop offset="1" style="stop-color:#0a0a0a;stop-opacity:0" id="stop2663"/>
    </linearGradient>
    <radialGradient gradientTransform="matrix(1.5646925,-9.5143002e-8,6.1772287e-8,1.015888,-86.212573,8.1461173)" gradientUnits="userSpaceOnUse" xlink:href="#linearGradient7012-661-145-733-759-865-745" id="radialGradient2441" fy="14.113381" fx="63.969177" r="23.097054" cy="14.113381" cx="63.969177"/>
    <linearGradient id="linearGradient7012-661-145-733-759-865-745">
      <stop offset="0" style="stop-color:#aacb7d;stop-opacity:1" id="stop2699"/>
      <stop offset="1" style="stop-color:#709937;stop-opacity:1" id="stop2701"/>
    </linearGradient>
    <linearGradient gradientTransform="translate(-53.765393,-0.1141929)" gradientUnits="userSpaceOnUse" xlink:href="#linearGradient3390" id="linearGradient2443" y2="16.047026" x2="82.453476" y1="45.114193" x1="82.453476"/>
    <linearGradient id="linearGradient3390">
      <stop offset="0" style="stop-color:#51751e;stop-opacity:1" id="stop3392"/>
      <stop offset="1" style="stop-color:#51751e;stop-opacity:1" id="stop3394"/>
    </linearGradient>
    <radialGradient gradientTransform="matrix(-0.03079083,0,0,0.02470588,23.389748,31.941642)" gradientUnits="userSpaceOnUse" xlink:href="#linearGradient5060-820" id="radialGradient2461" fy="486.64789" fx="605.71429" r="117.14286" cy="486.64789" cx="605.71429"/>
    <linearGradient id="linearGradient5060-820">
      <stop offset="0" style="stop-color:#000000;stop-opacity:1" id="stop2681"/>
      <stop offset="1" style="stop-color:#000000;stop-opacity:0" id="stop2683"/>
    </linearGradient>
    <radialGradient gradientTransform="matrix(0.03079083,0,0,0.02470588,24.610252,31.941642)" gradientUnits="userSpaceOnUse" xlink:href="#linearGradient5060-179" id="radialGradient2464" fy="486.64789" fx="605.71429" r="117.14286" cy="486.64789" cx="605.71429"/>
    <linearGradient id="linearGradient5060-179">
      <stop offset="0" style="stop-color:#000000;stop-opacity:1" id="stop2675"/>
      <stop offset="1" style="stop-color:#000000;stop-opacity:0" id="stop2677"/>
    </linearGradient>
    <linearGradient gradientTransform="matrix(0.07938856,0,0,0.02470588,-4.693293,31.941642)" gradientUnits="userSpaceOnUse" xlink:href="#linearGradient5048-585" id="linearGradient2467" y2="609.50507" x2="302.85715" y1="366.64789" x1="302.85715"/>
    <linearGradient id="linearGradient5048-585">
      <stop offset="0" style="stop-color:#000000;stop-opacity:0" id="stop2667"/>
      <stop offset="0.5" style="stop-color:#000000;stop-opacity:1" id="stop2669"/>
      <stop offset="1" style="stop-color:#000000;stop-opacity:0" id="stop2671"/>
    </linearGradient>
    <linearGradient gradientTransform="translate(-50.940898,0)" gradientUnits="userSpaceOnUse" xlink:href="#linearGradient6404" id="linearGradient2450" y2="16.19013" x2="62.988873" y1="13.182598" x1="62.988873"/>
    <linearGradient id="linearGradient6404">
      <stop offset="0" style="stop-color:#f9f9f9;stop-opacity:1" id="stop6406"/>
      <stop offset="1" style="stop-color:#c9c9c9;stop-opacity:1" id="stop6408"/>
    </linearGradient>
    <radialGradient gradientTransform="matrix(-1.274898e-8,1.7142916,-2.159331,-1.4599595e-8,12.809361,2.8570011)" gradientUnits="userSpaceOnUse" xlink:href="#linearGradient3484" id="radialGradient2452" fy="5.01718" fx="3" r="21" cy="5.01718" cx="3"/>
    <linearGradient id="linearGradient3484">
      <stop offset="0" style="stop-color:#bdbdbd;stop-opacity:1" id="stop3486"/>
      <stop offset="1" style="stop-color:#d0d0d0;stop-opacity:1" id="stop3488"/>
    </linearGradient>
    <radialGradient gradientTransform="matrix(1,0,0,0.282946,0,13.64644)" gradientUnits="userSpaceOnUse" xlink:href="#linearGradient5105-262-943-861" id="radialGradient2612" fy="19.03125" fx="11.25" r="8.0625" cy="19.03125" cx="11.25"/>
    <linearGradient id="linearGradient5105-262-943-861">
      <stop offset="0" style="stop-color:#0d0d0d;stop-opacity:1" id="stop2487"/>
      <stop offset="1" style="stop-color:#0d0d0d;stop-opacity:0" id="stop2489"/>
    </linearGradient>
    <linearGradient gradientTransform="matrix(0,-0.6145986,-0.5838413,0,-5.072719,46.632829)" gradientUnits="userSpaceOnUse" xlink:href="#linearGradient2264" id="linearGradient2614" y2="20.709501" x2="0.81572169" y1="20.709501" x1="28.314739"/>
    <linearGradient id="linearGradient2264">
      <stop offset="0" style="stop-color:#f4f4f4;stop-opacity:1;" id="stop2266"/>
      <stop offset="1" style="stop-color:#dbdbdb;stop-opacity:1;" id="stop2268"/>
    </linearGradient>
    <linearGradient gradientTransform="matrix(0,0.7128154,-0.6740163,0,-1.275635,15.045636)" gradientUnits="userSpaceOnUse" xlink:href="#linearGradient4222" id="linearGradient2616" y2="25.410501" x2="57.726395" y1="25.410501" x1="13.471772"/>
    <linearGradient id="linearGradient4222">
      <stop offset="0" style="stop-color:#ffffff;stop-opacity:1" id="stop4224"/>
      <stop offset="1" style="stop-color:#ffffff;stop-opacity:0" id="stop4226"/>
    </linearGradient>
  </defs>
  <metadata id="metadata19024">
    <rdf:RDF>
      <cc:Work rdf:about="">
        <dc:format>image/svg+xml</dc:format>
        <dc:type rdf:resource="http://purl.org/dc/dcmitype/StillImage"/>
        <dc:title/>
      </cc:Work>
    </rdf:RDF>
  </metadata>
  <g transform="translate(0,16)" id="layer1">
    <path d="m 5.5000021,-7.5000005 c -0.554,0 -1,0.446 -1,1 l 0,2 -1,0 c -0.554,0 -1,0.446 -1,1 l 0,6 c 0,0.554 0.446,1 1,1 l 40.9999999,0 c 0.554,0 1,-0.446 1,-1 l 0,-6 c 0,-0.554 -0.446,-1 -1,-1 l -23,0 0,-2 c 0,-0.554 -0.446,-1 -1,-1 l -14.9999999,0 z" id="rect4251-0-0-1-1-9" style="opacity:0.8;color:#000000;fill:none;stroke:url(#linearGradient19017);stroke-width:1;stroke-linecap:butt;stroke-linejoin:miter;stroke-miterlimit:4;stroke-opacity:1;stroke-dasharray:none;stroke-dashoffset:0;marker:none;visibility:visible;display:inline;overflow:visible;enable-background:accumulate"/>
    <path d="m 5.5000021,-7.0000005 c -0.277,0 -0.5,0.223 -0.5,0.5 l 0,2.5 -1.5,0 c -0.277,0 -0.5,0.223 -0.5,0.5 l 0,6 c 0,0.277 0.223,0.5 0.5,0.5 l 40.9999999,0 c 0.277,0 0.5,-0.223 0.5,-0.5 l 0,-6 c 0,-0.277 -0.223,-0.5 -0.5,-0.5 l -23.5,0 0,-2.5 c 0,-0.277 -0.223,-0.5 -0.5,-0.5 l -14.9999999,0 z" id="rect4251-4-7-62-4" style="color:#000000;fill:url(#linearGradient3089-5-2-9-8-6-8);fill-opacity:1;fill-rule:nonzero;stroke:none;stroke-width:0.99992168;marker:none;visibility:visible;display:inline;overflow:visible;enable-background:accumulate"/>
    <path d="m 5.5000021,-6.5000005 0,3 -2,0 0,7 40.9999999,0 0,-7 -24,0 0,-3 -14.9999999,0 z" id="rect4251-9-9-0-05-2" style="color:#000000;fill:none;stroke:url(#linearGradient3381-5-5-29-4-6);stroke-width:1;stroke-linecap:round;stroke-linejoin:round;stroke-miterlimit:4;stroke-opacity:1;stroke-dasharray:none;stroke-dashoffset:0;marker:none;visibility:visible;display:inline;overflow:visible;enable-background:accumulate"/>
    <rect width="38.333332" height="6.0000005" x="4.8333774" y="25" id="rect4173-6-7-7-3" style="opacity:0.3;fill:url(#linearGradient3086-4-4-0-5);fill-opacity:1;fill-rule:nonzero;stroke:none;stroke-width:1;marker:none;visibility:visible;display:inline;overflow:visible"/>
    <path d="m 43.166672,25.000209 c 0,0 0,5.99967 0,5.99967 1.58565,0.0113 3.83333,-1.34422 3.83333,-3.00022 0,-1.656 -1.76947,-2.99945 -3.83333,-2.99945 z" id="path5058-7-9-1-3" style="opacity:0.3;fill:url(#radialGradient3083-4-5-6-4);fill-opacity:1;fill-rule:nonzero;stroke:none;stroke-width:1;marker:none;visibility:visible;display:inline;overflow:visible"/>
    <path d="m 4.8333321,25.000209 c 0,0 0,5.99967 0,5.99967 -1.58565,0.0113 -3.83333,-1.34422 -3.83333,-3.00022 0,-1.656 1.76947,-2.99945 3.83333,-2.99945 z" id="path5018-8-1-1-6" style="opacity:0.3;fill:url(#radialGradient3080-2-3-9-9);fill-opacity:1;fill-rule:nonzero;stroke:none;stroke-width:1;marker:none;visibility:visible;display:inline;overflow:visible"/>
    <path d="m 2.1626121,-0.49981052 c -1.07231,0.12829 -0.49959,1.45416 -0.58508,2.19974002 0.12444,0.48182 0.92748,26.1764295 0.92748,26.1764295 0,0.7414 0.35172,0.61579 1.24292,0.61579 13.1885599,0 27.7725299,0 40.9610899,0 0.96008,0.0231 0.75718,0.0121 0.75718,-0.62748 0,0 0.99298,-27.35420952 1.0285,-27.78109952 0,-0.44949 0.0902,-0.58338 -0.47316,-0.58338 -14.08405,0 -29.77488,0 -43.8589299,0 z" id="path3388-1-43-0-7" style="fill:url(#linearGradient4638-4-6-8-9);fill-opacity:1;stroke:none"/>
    <path d="m 2.0582421,0.06514948 43.8964799,4e-4 c 0.63416,0 1.04515,0.44461 1.04515,0.99737002 l -1.03241,26.9603695 c 0.0147,0.6994 -0.20909,0.97671 -0.9459,0.96204 l -41.7807199,-0.0176 c -0.63416,0 -1.27363,-0.41276 -1.27363,-0.96551 L 1.0130921,1.0628995 c 0,-0.55276002 0.41099,-0.99775002 1.04515,-0.99775002 z" id="path6127-7-1-6-4" style="opacity:0.4;fill:url(#linearGradient3072-0-3-0-7);fill-opacity:1;stroke:none"/>
    <path d="m 2.5,17.5 c 0.016793,0.176427 0.022163,0.517935 0.03125,0.875 0.023112,0.08641 0.025524,0.05923 0.03125,0.09375 0.011058,0.06665 0.027034,0.138257 0.03125,0.1875 0.0064,0.07474 -0.00668,0.173042 0,0.28125 0.013352,0.216416 0.045306,0.510844 0.0625,0.875 0.034388,0.728313 0.078083,1.708883 0.125,2.90625 0.093834,2.394734 0.2030642,5.55569 0.3125,8.6875 C 3.3060459,37.481691 3.4883163,43.143759 3.5,43.5 c 0.1225025,0.0036 0.071108,0 0.25,0 l 40.71875,0 c 0.0124,-0.328836 0.253182,-6.426721 0.5,-12.90625 0.126691,-3.325928 0.245386,-6.68527 0.34375,-9.21875 0.04918,-1.26674 0.09434,-2.331501 0.125,-3.09375 0.01322,-0.328618 0.02246,-0.572975 0.03125,-0.78125 L 2.5,17.5 z" transform="matrix(1,0,0,1.0383977,2.0849371e-6,-17.670361)" id="path4587-4-6-3-0" style="opacity:0.5;color:#000000;fill:none;stroke:url(#linearGradient3381-56-2-7-5-0);stroke-width:0.98133707;stroke-linecap:round;stroke-linejoin:miter;stroke-miterlimit:4;stroke-opacity:1;stroke-dasharray:none;stroke-dashoffset:0;marker:none;visibility:visible;display:inline;overflow:visible;enable-background:accumulate"/>
    <path d="m 2.1626121,-0.49981052 c -1.07231,0.12829 -0.49959,1.45416 -0.58508,2.19974002 0.12444,0.48182 0.92748,26.1764295 0.92748,26.1764295 0,0.7414 0.35172,0.61579 1.24292,0.61579 13.1885599,0 27.7725299,0 40.9610899,0 0.96008,0.0231 0.75718,0.0121 0.75718,-0.62748 0,0 0.99298,-27.35420952 1.0285,-27.78109952 0,-0.44949 0.0902,-0.58338 -0.47316,-0.58338 -14.08405,0 -29.77488,0 -43.8589299,0 z" id="path3388-1-43-0-7-64" style="opacity:0.3;fill:none;stroke:#000000;stroke-width:1;stroke-linecap:round;stroke-linejoin:round;stroke-miterlimit:4;stroke-opacity:1;stroke-dashoffset:0"/>
    <g id="g3833" transform="translate(1.5e-6,-15.999921)">
      <path inkscape:connector-curvature="0" style="opacity:0.16292138;fill:url(#radialGradient3063);fill-opacity:1;fill-rule:nonzero;stroke:none;stroke-width:1;marker:none;visibility:visible;display:inline;overflow:visible" id="path4346" d="m 48,43.820298 a 15.000001,4.1797024 0 0 1 -30.000001,0 15.000001,4.1797024 0 1 1 30.000001,0 z"/>
      <path inkscape:connector-curvature="0" style="fill:url(#linearGradient3060);fill-opacity:1;fill-rule:nonzero;stroke:#9a9a9a;stroke-width:0.98542738;stroke-linecap:round;stroke-linejoin:round;stroke-miterlimit:4;stroke-opacity:1;stroke-dasharray:none;stroke-dashoffset:0;marker:none;visibility:visible;display:inline;overflow:visible" id="path3288" d="M 44.507285,31.500001 32.97109,45.507286 21.492713,31.500001 l 5.007286,0 0,-11.007288 13,0 0,11.007288 5.007286,0 z"/>
      <path inkscape:connector-curvature="0" style="opacity:0.35400008;fill:none;stroke:url(#linearGradient3057);stroke-width:0.98542738;stroke-linecap:butt;stroke-linejoin:miter;stroke-miterlimit:4;stroke-opacity:1;stroke-dasharray:none;stroke-dashoffset:0;marker:none;visibility:visible;display:inline;overflow:visible" id="path3290" d="m 42.405578,32.500001 -9.405579,11.434256 -9.385042,-11.434256 3.9384,0 0,-11 10.893284,0 0,11 3.958937,0 z"/>
    </g>
  </g>
</svg>
