/* XPM */
static char *x[] = {
/* columns rows colors chars-per-pixel */
"24 24 14 1",
"  c #000000",
". c #020202",
"X c #030303",
"o c #040404",
"O c #060606",
"+ c #080808",
"@ c #090909",
"# c #0C0C0C",
"$ c #191919",
"% c #272727",
"& c #292929",
"* c #2E2E2E",
"= c #505050",
"- c None",
/* pixels */
"------------------------",
"------------------------",
"------------------------",
"------------------------",
"-------O--------O-------",
"-----$   $----$   $-----",
"----O     @--O     O----",
"---@                @---",
"----=              =----",
"------@    --    @------",
"-------$   --   $-------",
"------*O   --   O*------",
"-----@     --     @-----",
"----       --       ----",
"---&       --       &---",
"-----@            @-----",
"------%    --    %------",
"--------   --   --------",
"---------#    #---------",
"-----------  -----------",
"------------------------",
"------------------------",
"------------------------",
"------------------------"
};
