<!-- Created with Inkscape (http://www.inkscape.org/) -->
<svg xmlns:dc="http://purl.org/dc/elements/1.1/" xmlns:cc="http://creativecommons.org/ns#" xmlns:rdf="http://www.w3.org/1999/02/22-rdf-syntax-ns#" xmlns:svg="http://www.w3.org/2000/svg" xmlns="http://www.w3.org/2000/svg" xmlns:xlink="http://www.w3.org/1999/xlink" xmlns:sodipodi="http://sodipodi.sourceforge.net/DTD/sodipodi-0.dtd" xmlns:inkscape="http://www.inkscape.org/namespaces/inkscape" width="32px" height="32px" id="svg15545" version="1.1" inkscape:version="0.48.4 r9939" sodipodi:docname="folder-music.svg">
  <defs id="defs15547">
    <linearGradient inkscape:collect="always" xlink:href="#linearGradient3454-2-5-0-3-4" id="linearGradient14242" gradientUnits="userSpaceOnUse" gradientTransform="matrix(0.89186139,0,0,1.0539115,3.1208294,5.412539)" x1="27.557428" y1="7.162672" x2="27.557428" y2="21.386522"/>
    <linearGradient id="linearGradient3454-2-5-0-3-4">
      <stop offset="0" style="stop-color:#ffffff;stop-opacity:1" id="stop3456-4-9-38-1-8"/>
      <stop offset="0.0097359" style="stop-color:#ffffff;stop-opacity:0.23529412" id="stop3458-39-80-3-5-5"/>
      <stop offset="0.99001008" style="stop-color:#ffffff;stop-opacity:0.15686275" id="stop3460-7-0-2-4-2"/>
      <stop offset="1" style="stop-color:#ffffff;stop-opacity:0.39215687" id="stop3462-0-9-8-7-2"/>
    </linearGradient>
    <linearGradient inkscape:collect="always" xlink:href="#linearGradient6129-963-697-142-998-580-273-5" id="linearGradient14248" gradientUnits="userSpaceOnUse" gradientTransform="matrix(0.7467531,0,0,0.6554922,-1.9218906,1.167619)" x1="22.934725" y1="49.629246" x2="22.809399" y2="36.657963"/>
    <linearGradient id="linearGradient6129-963-697-142-998-580-273-5">
      <stop id="stop2661-1" style="stop-color:#0a0a0a;stop-opacity:0.498" offset="0"/>
      <stop id="stop2663-85" style="stop-color:#0a0a0a;stop-opacity:0" offset="1"/>
    </linearGradient>
    <linearGradient inkscape:collect="always" xlink:href="#linearGradient4632-0-6-4-3-4" id="linearGradient14254" gradientUnits="userSpaceOnUse" gradientTransform="matrix(0.64444432,0,0,0.64285702,0.53351936,0.89285905)" x1="35.792694" y1="17.118193" x2="35.792694" y2="43.761127"/>
    <linearGradient id="linearGradient4632-0-6-4-3-4">
      <stop style="stop-color:#a2b6da;stop-opacity:1;" offset="0" id="stop4634-4-4-7-7-4"/>
      <stop style="stop-color:#3650b8;stop-opacity:1;" offset="1" id="stop4636-3-1-5-1-3"/>
    </linearGradient>
    <linearGradient inkscape:collect="always" xlink:href="#linearGradient5048-585-0" id="linearGradient14264" gradientUnits="userSpaceOnUse" gradientTransform="matrix(0.05114282,0,0,0.01591575,-2.4899573,22.29927)" x1="302.85715" y1="366.64789" x2="302.85715" y2="609.50507"/>
    <linearGradient id="linearGradient5048-585-0">
      <stop id="stop2667-18" style="stop-color:#000000;stop-opacity:0" offset="0"/>
      <stop id="stop2669-9" style="stop-color:#000000;stop-opacity:1" offset="0.5"/>
      <stop id="stop2671-33" style="stop-color:#000000;stop-opacity:0" offset="1"/>
    </linearGradient>
    <radialGradient inkscape:collect="always" xlink:href="#linearGradient5060-179-67" id="radialGradient14266" gradientUnits="userSpaceOnUse" gradientTransform="matrix(0.01983573,0,0,0.01591575,16.38765,22.29927)" cx="605.71429" cy="486.64789" fx="605.71429" fy="486.64789" r="117.14286"/>
    <linearGradient id="linearGradient5060-179-67">
      <stop id="stop2675-81" style="stop-color:#000000;stop-opacity:1" offset="0"/>
      <stop id="stop2677-2" style="stop-color:#000000;stop-opacity:0" offset="1"/>
    </linearGradient>
    <radialGradient inkscape:collect="always" xlink:href="#linearGradient5060-820-4" id="radialGradient14268" gradientUnits="userSpaceOnUse" gradientTransform="matrix(-0.01983573,0,0,0.01591575,15.60139,22.29927)" cx="605.71429" cy="486.64789" fx="605.71429" fy="486.64789" r="117.14286"/>
    <linearGradient id="linearGradient5060-820-4">
      <stop id="stop2681-5" style="stop-color:#000000;stop-opacity:1" offset="0"/>
      <stop id="stop2683-00" style="stop-color:#000000;stop-opacity:0" offset="1"/>
    </linearGradient>
    <linearGradient inkscape:collect="always" xlink:href="#linearGradient4325" id="linearGradient14274" gradientUnits="userSpaceOnUse" gradientTransform="matrix(0.54383556,0,0,0.61466406,3.2688794,5.091139)" x1="21.37039" y1="4.73244" x2="21.37039" y2="34.143417"/>
    <linearGradient id="linearGradient4325">
      <stop offset="0" style="stop-color:#ffffff;stop-opacity:1" id="stop4327"/>
      <stop offset="0.1106325" style="stop-color:#ffffff;stop-opacity:0.23529412" id="stop4329"/>
      <stop offset="0.99001008" style="stop-color:#ffffff;stop-opacity:0.15686275" id="stop4331"/>
      <stop offset="1" style="stop-color:#ffffff;stop-opacity:0.39215687" id="stop4333"/>
    </linearGradient>
    <linearGradient inkscape:collect="always" xlink:href="#linearGradient4646-7-4-3-5" id="linearGradient14280" gradientUnits="userSpaceOnUse" gradientTransform="matrix(0.61904762,0,0,0.61904762,-30.391811,1.428569)" x1="62.988873" y1="13" x2="62.988873" y2="16"/>
    <linearGradient id="linearGradient4646-7-4-3-5">
      <stop offset="0" style="stop-color:#f9f9f9;stop-opacity:1" id="stop4648-8-0-3-6"/>
      <stop offset="1" style="stop-color:#d8d8d8;stop-opacity:1" id="stop4650-1-7-3-4"/>
    </linearGradient>
    <linearGradient id="linearGradient3104-8-8-97-4-6-11-5-5-0">
      <stop offset="0" style="stop-color:#000000;stop-opacity:0.32173914" id="stop3106-5-4-3-5-0-2-1-0-6"/>
      <stop offset="1" style="stop-color:#000000;stop-opacity:0.27826086" id="stop3108-4-3-7-8-2-0-7-9-1"/>
    </linearGradient>
    <linearGradient y2="3.6336823" x2="-51.786404" y1="53.514328" x1="-51.786404" gradientTransform="matrix(0.50703384,0,0,0.50300255,68.029219,1.329769)" gradientUnits="userSpaceOnUse" id="linearGradient15505" xlink:href="#linearGradient3104-8-8-97-4-6-11-5-5-0" inkscape:collect="always"/>
    <radialGradient gradientTransform="matrix(0.40360339,-0.06777837,0,0.39146147,10.570462,13.18451)" gradientUnits="userSpaceOnUse" xlink:href="#linearGradient7067-814-120-245" id="radialGradient4242" fy="39.027378" fx="15.544384" r="5.7384715" cy="41.058823" cx="17.058823"/>
    <radialGradient gradientTransform="matrix(0.39629873,-0.06671573,0,0.38532405,18.195979,12.299405)" gradientUnits="userSpaceOnUse" xlink:href="#linearGradient7067-814-120-245" id="radialGradient4239" fy="39.105911" fx="15.970393" r="5.7384715" cy="41.058823" cx="17.058823"/>
    <linearGradient gradientTransform="matrix(0.13553818,0,0,0.13827453,15.45671,-1.1698957)" gradientUnits="userSpaceOnUse" xlink:href="#linearGradient2372-5" id="linearGradient4236" y2="119.86452" x2="25.400293" y1="144.11652" x1="28.739122"/>
    <linearGradient gradientTransform="matrix(0.27271923,0,0,0.13827453,19.71158,-2.3690473)" gradientUnits="userSpaceOnUse" xlink:href="#linearGradient2372-5" id="linearGradient4233" y2="125.39074" x2="26.256771" y1="144.11652" x1="28.739122"/>
    <linearGradient id="linearGradient7067-814-120-245">
      <stop offset="0" style="stop-color:#aaaaaa;stop-opacity:1" id="stop3877"/>
      <stop offset="1" style="stop-color:#4d4d4d;stop-opacity:1" id="stop3879"/>
    </linearGradient>
    <linearGradient id="linearGradient2372-5">
      <stop offset="0" style="stop-color:#ffffff;stop-opacity:1" id="stop2374-7"/>
      <stop offset="1" style="stop-color:#ffffff;stop-opacity:0.37931034" id="stop2376-4"/>
    </linearGradient>
    <radialGradient gradientTransform="matrix(-0.01983573,0,0,0.01591575,15.60139,22.29927)" gradientUnits="userSpaceOnUse" xlink:href="#linearGradient5060-820" id="radialGradient2467" fy="486.64789" fx="605.71429" r="117.14286" cy="486.64789" cx="605.71429"/>
    <radialGradient gradientTransform="matrix(0.01983573,0,0,0.01591575,16.38765,22.29927)" gradientUnits="userSpaceOnUse" xlink:href="#linearGradient5060-179" id="radialGradient2465" fy="486.64789" fx="605.71429" r="117.14286" cy="486.64789" cx="605.71429"/>
    <linearGradient gradientTransform="matrix(0.05114282,0,0,0.01591575,-2.4899573,22.29927)" gradientUnits="userSpaceOnUse" xlink:href="#linearGradient5048-585" id="linearGradient2463" y2="609.50507" x2="302.85715" y1="366.64789" x1="302.85715"/>
    <radialGradient gradientTransform="matrix(0,1.0884009,-1.355859,0,8.9733195,2.9173483)" gradientUnits="userSpaceOnUse" xlink:href="#linearGradient3484" id="radialGradient2456" fy="5.01718" fx="3" r="21" cy="5.01718" cx="3"/>
    <linearGradient gradientTransform="matrix(0.627907,0,0,0.6348983,-31.055913,1.1034431)" gradientUnits="userSpaceOnUse" xlink:href="#linearGradient6404" id="linearGradient2454" y2="16.19013" x2="62.988873" y1="13.182598" x1="62.988873"/>
    <linearGradient gradientTransform="matrix(0.644209,0,0,0.643728,-34.102646,0.7887616)" gradientUnits="userSpaceOnUse" xlink:href="#linearGradient3390" id="linearGradient2442" y2="10.82615" x2="82.453476" y1="45.114193" x1="82.453476"/>
    <radialGradient gradientTransform="matrix(1.007989,-6.1246211e-8,3.9794263e-8,0.6539555,-55.005411,6.1061543)" gradientUnits="userSpaceOnUse" xlink:href="#linearGradient7012-661-145-733-759-865-745" id="radialGradient2440" fy="14.113381" fx="63.969177" r="23.097054" cy="14.113381" cx="63.969177"/>
    <linearGradient gradientTransform="matrix(0.7467531,0,0,0.6554922,-1.9220764,1.1676179)" gradientUnits="userSpaceOnUse" xlink:href="#linearGradient6129-963-697-142-998-580-273" id="linearGradient2437" y2="36.657963" x2="22.809399" y1="49.629246" x1="22.934725"/>
    <radialGradient gradientTransform="matrix(0,0.7386341,-0.9984871,0,17.148572,6.8540185)" gradientUnits="userSpaceOnUse" xlink:href="#linearGradient6087-437-184-795-110-662-495" id="radialGradient2434" fy="8.3021259" fx="7.2646537" r="20.979567" cy="8.3021259" cx="7.2646537"/>
    <linearGradient gradientTransform="matrix(0.6515346,0,0,0.6760494,0.3603499,0.1849652)" gradientUnits="userSpaceOnUse" xlink:href="#linearGradient8265-821-176-38-919-66-249" id="linearGradient2431" y2="33.95525" x2="15.214532" y1="22.292103" x1="11.566265"/>
    <linearGradient id="linearGradient8265-821-176-38-919-66-249">
      <stop offset="0" style="stop-color:#ffffff;stop-opacity:0.2" id="stop2687"/>
      <stop offset="1" style="stop-color:#ffffff;stop-opacity:0" id="stop2689"/>
    </linearGradient>
    <linearGradient id="linearGradient6087-437-184-795-110-662-495">
      <stop offset="0" style="stop-color:#ffffff;stop-opacity:0.40000001" id="stop2693"/>
      <stop offset="1" style="stop-color:#ffffff;stop-opacity:0" id="stop2695"/>
    </linearGradient>
    <linearGradient id="linearGradient6129-963-697-142-998-580-273">
      <stop offset="0" style="stop-color:#0a0a0a;stop-opacity:0.498" id="stop2661"/>
      <stop offset="1" style="stop-color:#0a0a0a;stop-opacity:0" id="stop2663"/>
    </linearGradient>
    <linearGradient id="linearGradient7012-661-145-733-759-865-745">
      <stop offset="0" style="stop-color:#aacb7d;stop-opacity:1" id="stop2699"/>
      <stop offset="1" style="stop-color:#709937;stop-opacity:1" id="stop2701"/>
    </linearGradient>
    <linearGradient id="linearGradient3390">
      <stop offset="0" style="stop-color:#51751e;stop-opacity:1" id="stop3392"/>
      <stop offset="1" style="stop-color:#51751e;stop-opacity:1" id="stop3394"/>
    </linearGradient>
    <linearGradient id="linearGradient5060-820">
      <stop offset="0" style="stop-color:#000000;stop-opacity:1" id="stop2681"/>
      <stop offset="1" style="stop-color:#000000;stop-opacity:0" id="stop2683"/>
    </linearGradient>
    <linearGradient id="linearGradient5060-179">
      <stop offset="0" style="stop-color:#000000;stop-opacity:1" id="stop2675"/>
      <stop offset="1" style="stop-color:#000000;stop-opacity:0" id="stop2677"/>
    </linearGradient>
    <linearGradient id="linearGradient5048-585">
      <stop offset="0" style="stop-color:#000000;stop-opacity:0" id="stop2667"/>
      <stop offset="0.5" style="stop-color:#000000;stop-opacity:1" id="stop2669"/>
      <stop offset="1" style="stop-color:#000000;stop-opacity:0" id="stop2671"/>
    </linearGradient>
    <linearGradient id="linearGradient6404">
      <stop offset="0" style="stop-color:#f9f9f9;stop-opacity:1" id="stop6406"/>
      <stop offset="1" style="stop-color:#c9c9c9;stop-opacity:1" id="stop6408"/>
    </linearGradient>
    <linearGradient id="linearGradient3484">
      <stop offset="0" style="stop-color:#bdbdbd;stop-opacity:1" id="stop3486"/>
      <stop offset="1" style="stop-color:#d0d0d0;stop-opacity:1" id="stop3488"/>
    </linearGradient>
  </defs>
  <sodipodi:namedview id="base" pagecolor="#ffffff" bordercolor="#666666" borderopacity="1.0" inkscape:pageopacity="0.0" inkscape:pageshadow="2" inkscape:zoom="11.197802" inkscape:cx="-0.25318969" inkscape:cy="16" inkscape:current-layer="layer1" showgrid="true" inkscape:grid-bbox="true" inkscape:document-units="px" inkscape:window-width="841" inkscape:window-height="414" inkscape:window-x="64" inkscape:window-y="195" inkscape:window-maximized="0"/>
  <metadata id="metadata15550">
    <rdf:RDF>
      <cc:Work rdf:about="">
        <dc:format>image/svg+xml</dc:format>
        <dc:type rdf:resource="http://purl.org/dc/dcmitype/StillImage"/>
        <dc:title/>
      </cc:Work>
    </rdf:RDF>
  </metadata>
  <g id="layer1" inkscape:label="Layer 1" inkscape:groupmode="layer">
    <path style="opacity:0.8;color:#000000;fill:none;stroke:url(#linearGradient15505);stroke-width:1;stroke-linecap:butt;stroke-linejoin:miter;stroke-miterlimit:4;stroke-opacity:1;stroke-dasharray:none;stroke-dashoffset:0;marker:none;visibility:visible;display:inline;overflow:visible;enable-background:accumulate" id="use7637" inkscape:connector-curvature="0" d="m 4.0001794,6.500079 c -0.43342,0.005 -0.5,0.21723 -0.5,0.6349 l 0,1.36502 c -1.24568,0 -1,-0.002 -1,0.54389 0.0216,6.53313 0,6.90143 0,7.456109 0.90135,0 26.9999996,-2.348949 26.9999996,-3.360049 l 0,-4.09606 c 0,-0.41767 -0.34799,-0.54876 -0.78141,-0.54389 l -14.21859,0 0,-1.36502 c 0,-0.41767 -0.26424,-0.63977 -0.69767,-0.6349 l -9.8023296,0 z"/>
    <path id="use7639" d="m 4.0001794,6.999999 0,2 -1,0 0,4 25.9999996,0 0,-4 -15,0 0,-2 -9.9999996,0 z" style="color:#000000;fill:url(#linearGradient14280);fill-opacity:1;fill-rule:nonzero;stroke:none;stroke-width:1;marker:none;visibility:visible;display:inline;overflow:visible;enable-background:accumulate" inkscape:connector-curvature="0"/>
    <path id="use7641" d="m 4.5001794,7.499999 0,2 -1,0 0,4 24.9999996,0 0,-4 -15,0 0,-2 -8.9999996,0 z" style="color:#000000;fill:none;stroke:url(#linearGradient14274);stroke-width:1;stroke-linecap:round;stroke-linejoin:miter;stroke-miterlimit:4;stroke-opacity:1;stroke-dasharray:none;stroke-dashoffset:0;marker:none;visibility:visible;display:inline;overflow:visible;enable-background:accumulate" inkscape:connector-curvature="0"/>
    <g id="use7643" transform="translate(1.7935663e-4,-1.000001)">
      <rect style="opacity:0.3;fill:url(#linearGradient14264);fill-opacity:1;fill-rule:nonzero;stroke:none;stroke-width:1;marker:none;visibility:visible;display:inline;overflow:visible" id="rect14258" y="28.134747" x="3.6471815" height="3.8652544" width="24.694677"/>
      <path style="opacity:0.3;fill:url(#radialGradient14266);fill-opacity:1;fill-rule:nonzero;stroke:none;stroke-width:1;marker:none;visibility:visible;display:inline;overflow:visible" id="path14260" inkscape:connector-curvature="0" d="m 28.341859,28.13488 c 0,0 0,3.865041 0,3.865041 1.021491,0.0073 2.469468,-0.86596 2.469468,-1.932769 0,-1.06681 -1.139908,-1.932272 -2.469468,-1.932272 z"/>
      <path style="opacity:0.3;fill:url(#radialGradient14268);fill-opacity:1;fill-rule:nonzero;stroke:none;stroke-width:1;marker:none;visibility:visible;display:inline;overflow:visible" id="path14262" inkscape:connector-curvature="0" d="m 3.6471816,28.13488 c 0,0 0,3.865041 0,3.865041 -1.0214912,0.0073 -2.4694678,-0.86596 -2.4694678,-1.932769 0,-1.06681 1.1399068,-1.932272 2.4694678,-1.932272 z"/>
    </g>
    <path style="color:#000000;fill:url(#linearGradient14254);fill-opacity:1;fill-rule:nonzero;stroke:none;stroke-width:0.99999994;marker:none;visibility:visible;display:inline;overflow:visible;enable-background:accumulate" id="use7645" inkscape:connector-curvature="0" d="m 1.9270194,11.499999 c -0.69105,0.0796 -0.32196,0.90258 -0.37705,1.36535 0.0802,0.29906 0.59771,15.717989 0.59771,16.247439 0,0.46018 0.22667,0.38222 0.80101,0.38222 8.4993996,0 17.8980796,0 26.3974796,0 0.61872,0.0143 0.48796,0.007 0.48796,-0.38947 0.0452,-0.20269 0.63993,-16.978479 0.66282,-17.243439 0,-0.279 0.0581,-0.3621 -0.30493,-0.3621 -9.0765,0 -19.18849,0 -28.2649996,0 z"/>
    <path style="opacity:0.4;fill:url(#linearGradient14248);fill-opacity:1;stroke:none" id="use7647" inkscape:connector-curvature="0" d="m 1.6819994,10.999999 28.6363696,2.7e-4 c 0.4137,0 0.68181,0.29209 0.68181,0.65523 l -0.6735,17.712109 c 0.01,0.45948 -0.1364,0.64166 -0.61707,0.63203 l -27.2561296,-0.0115 c -0.4137,0 -0.83086,-0.27118 -0.83086,-0.63432 l -0.62244,-17.698289 c 0,-0.36314 0.26812,-0.65549 0.68182,-0.65549 z"/>
    <path sodipodi:nodetypes="ccccc" inkscape:connector-curvature="0" id="use7649" d="m 2.5001794,12.499999 0.62498,15.999999 25.7491696,0 0.62498,-15.999999 z" style="opacity:0.5;color:#000000;fill:none;stroke:url(#linearGradient14242);stroke-width:1.00000012;stroke-linecap:round;stroke-linejoin:miter;stroke-miterlimit:4;stroke-opacity:1;stroke-dasharray:none;stroke-dashoffset:0;marker:none;visibility:visible;display:inline;overflow:visible;enable-background:accumulate"/>
    <path d="m 1.9270194,11.499999 c -0.69105,0.0796 -0.32196,0.90258 -0.37705,1.36535 0.0802,0.29906 0.59771,15.717989 0.59771,16.247439 0,0.46018 0.22667,0.38222 0.80101,0.38222 8.4993996,0 17.8980796,0 26.3974796,0 0.61872,0.0143 0.48796,0.007 0.48796,-0.38947 0.0452,-0.20269 0.63993,-16.978479 0.66282,-17.243439 0,-0.279 0.0581,-0.3621 -0.30493,-0.3621 -9.0765,0 -19.18849,0 -28.2649996,0 z" inkscape:connector-curvature="0" id="path3388-5-6" style="opacity:0.3;color:#000000;fill:none;stroke:#000000;stroke-width:0.99999994;stroke-linecap:round;stroke-linejoin:round;stroke-miterlimit:4;stroke-opacity:1;stroke-dasharray:none;stroke-dashoffset:0;marker:none;visibility:visible;display:inline;overflow:visible;enable-background:accumulate"/>
    <g id="g3049" transform="translate(1.8383175e-4,-9.5723048e-5)">
      <path d="M 27,26 26.607107,22.826495" id="path2931" style="fill:none;stroke:none" inkscape:connector-curvature="0"/>
      <path d="m 26.973254,14.464346 c -2.525607,0.407916 -5.905644,0.827833 -8.424231,1.25853 -0.666934,0.326142 -0.516998,1.165964 -0.546504,1.775333 0,2.719122 0,5.438244 0,8.157366 -1.405499,-0.264839 -3.119482,0.899171 -3.19382,2.742192 -0.121348,1.147425 0.893843,2.146193 1.99777,2.17305 1.976535,0.04809 3.328346,-1.266242 3.349786,-2.928446 -0.02159,-2.791575 0.0061,-5.584248 0,-8.376252 0.305992,-0.02271 4.940662,-0.909083 5.357439,-0.968099 0,2.091095 0,4.182189 0,6.273284 -1.22834,-0.29494 -2.798616,0.514112 -3.187965,2.166384 -0.164334,0.926139 0.146254,2.088607 1.083859,2.480755 1.830355,0.842964 4.343027,-0.864551 4.240875,-2.86853 -0.02835,-3.722418 0.02324,-7.446358 0,-11.169173 -0.04807,-0.349841 -0.284595,-0.741646 -0.677209,-0.716394 z" id="path4031" style="fill:#464646;fill-opacity:1;stroke:#333333;stroke-width:1;stroke-linecap:round;stroke-linejoin:round;stroke-miterlimit:4;stroke-opacity:1;stroke-dasharray:none" inkscape:connector-curvature="0"/>
      <path d="m 19.592185,27.742423 a 1.8423261,2.2510919 56.794677 0 1 -4.273448,0.717652 1.8423261,2.2510919 56.794677 0 1 4.273448,-0.717652 z" id="path2937" style="fill:url(#radialGradient4242);fill-opacity:1;stroke:none" inkscape:connector-curvature="0"/>
      <path d="m 27.054421,26.629075 a 1.8120916,2.2119972 56.466221 0 1 -4.196104,0.706402 1.8120916,2.2119972 56.466221 1 1 4.196104,-0.706402 z" id="path2941" style="fill:url(#radialGradient4239);fill-opacity:1;stroke:none" inkscape:connector-curvature="0"/>
      <path d="m 18.606548,26.251013 -0.05753,-9.324305 c 0,0 0.06297,-0.712835 0.530083,-0.715008 0.165665,-0.02905 7.427247,-1.242047 7.427247,-1.242047 0,0 0.14249,0.761923 -6.503384,1.75013 -0.553885,0.08277 -0.820159,0.07354 -0.817241,0.599645 0.0079,1.419329 -0.03253,4.076578 -0.03253,9.24464 0,0.03698 -0.348703,-0.261971 -0.546652,-0.313055 z" id="path2945" style="opacity:0.4;fill:url(#linearGradient4236);fill-opacity:1;fill-rule:evenodd;stroke:none" inkscape:connector-curvature="0"/>
      <path d="m 26.049437,24.956905 0.03636,-7.043912 c 0.383049,-0.03469 0.05881,-0.0056 0.575335,-0.05754 0.0071,1.315731 2.94e-4,2.407849 2.94e-4,7.377016 0,0.03697 -0.213682,-0.224482 -0.611981,-0.275566 z" id="path2947" style="opacity:0.4;fill:url(#linearGradient4233);fill-opacity:1;fill-rule:evenodd;stroke:none" inkscape:connector-curvature="0"/>
    </g>
  </g>
</svg>
