/* XPM */
static char *ccc_large[] = {
/* columns rows colors chars-per-pixel */
"24 24 143 2",
"   c #000000",
".  c #383838",
"X  c #393939",
"o  c #3D3D3D",
"O  c #491212",
"+  c #4F2D2D",
"@  c #553131",
"#  c #404040",
"$  c #424242",
"%  c #434343",
"&  c #444444",
"*  c #454545",
"=  c #494949",
"-  c #4D4D4D",
";  c #505050",
":  c #525252",
">  c #545454",
",  c #5B5B5B",
"<  c #616161",
"1  c #646464",
"2  c #666666",
"3  c #BE0A0A",
"4  c #B93333",
"5  c #C01313",
"6  c #CC1717",
"7  c #C31D1D",
"8  c #EB0D0D",
"9  c #EF0F0F",
"0  c #EC1616",
"q  c #F01111",
"w  c #F11212",
"e  c #F21414",
"r  c #F01717",
"t  c #F41616",
"y  c #F11919",
"u  c #F21A1A",
"i  c #F51818",
"p  c #F61919",
"a  c #F71B1B",
"s  c #F31C1C",
"d  c #F51E1E",
"f  c #F81D1D",
"g  c #FA1D1D",
"h  c #FB1F1F",
"j  c #C22222",
"k  c #C32222",
"l  c #C52626",
"z  c #C52B2B",
"x  c #C62A2A",
"c  c #C72B2B",
"v  c #C62F2F",
"b  c #D32E2E",
"n  c #CA3434",
"m  c #C53939",
"M  c #C73E3E",
"N  c #ED2121",
"B  c #EE2A2A",
"V  c #ED2D2D",
"C  c #EE2D2D",
"Z  c #EE2E2E",
"A  c #F12323",
"S  c #F62020",
"D  c #F62121",
"F  c #F72323",
"G  c #FC2323",
"H  c #F82525",
"J  c #FB2424",
"K  c #FA2525",
"L  c #FD2424",
"P  c #FD2727",
"I  c #F12C2C",
"U  c #F12E2E",
"Y  c #F12F2F",
"T  c #F72C2C",
"R  c #FC2929",
"E  c #FD2929",
"W  c #FD2A2A",
"Q  c #FC2B2B",
"!  c #FB2D2D",
"~  c #F82E2E",
"^  c #FA2F2F",
"/  c #FD2D2D",
"(  c #FC2F2F",
")  c #EE3434",
"_  c #F23030",
"`  c #F23131",
"'  c #F33131",
"]  c #F33232",
"[  c #F63131",
"{  c #F43333",
"}  c #F43434",
"|  c #F63434",
" . c #F63535",
".. c #F63636",
"X. c #F63737",
"o. c #F73737",
"O. c #F93030",
"+. c #FC3232",
"@. c #FB3535",
"#. c #F83636",
"$. c #FB3737",
"%. c #FC3434",
"&. c #F73838",
"*. c #F73D3D",
"=. c #F93838",
"-. c #F83939",
";. c #F83A3A",
":. c #F93A3A",
">. c #F93B3B",
",. c #FB3A3A",
"<. c #FB3B3B",
"1. c #FC3838",
"2. c #FC3A3A",
"3. c #C84040",
"4. c #F34242",
"5. c #F84646",
"6. c #F94B4B",
"7. c #FA4E4E",
"8. c #F95555",
"9. c #FE5A5A",
"0. c #FE5B5B",
"q. c #FE5C5C",
"w. c #EC9B9B",
"e. c #F69898",
"r. c #E8B6B6",
"t. c #E9B9B9",
"y. c #E9BABA",
"u. c #EABABA",
"i. c #EDBCBC",
"p. c #FCC4C4",
"a. c #FDC7C7",
"s. c #FDC9C9",
"d. c #FDCECE",
"f. c #F2D3D3",
"g. c #F2D4D4",
"h. c #F3D7D7",
"j. c #FDDADA",
"k. c #FEDBDB",
"l. c #FDDCDC",
"z. c #FEDEDE",
"x. c #FEE0E0",
"c. c #FFFFFF",
"v. c None",
/* pixels */
"v.v.v.v.v.v.v.v.v.v.v.v.v.v.v.v.v.v.v.v.v.v.v.v.",
"v.v.v.v.v.v.v.v.v.v.v.v.v.v.v.v.v.v.v.v.v.v.v.v.",
"v.v.v.8.9.9.9.9.q.q.q.q.q.q.q.q.9.9.9.9.8.v.v.v.",
"v.v.4./ G P W W W W W W W W W W W W P P / 4.v.v.",
"v.v.W G W / +.$.+.$.+.$.$.+.$.+.$.+./ R G / v.v.",
"v.v.h H ! @.2.2.2.2.2.2.2.2.2.2.2.2.$.W H g v.v.",
"v.v.g H O.$.2.<.2.=.<.<.<.=.2.2.<.<.=.! P g v.v.",
"v.v.g H O.=.=.7.z.d.<.s.c.c.c.c.s.=.s.s.S g v.v.",
"v.v.a H T @.7.x.c.c.=.i.c.c.c.c.i.@.c.c.S d v.v.",
"v.v.a S T 5.z.c.c.c.X.n 4 c.c.4 n X.c.c.S a v.v.",
"v.v.t S *.z.c.g.c.c.X.X.X.c.c.X.X.X.c.c.S a v.v.",
"v.v.e | j.c.g.3.c.c.X.X.| c.c.X.| X.c.c.d e v.v.",
"v.v.e p.c.f.M ) c.c.} } | c.c.X.` X.c.c.s e v.v.",
"v.v.w w.t.m e.` t.t.` ` ` t.t.` | ` r.r.u w v.v.",
"v.v.w 6 j V b ` v v ` ` ` v v ` ` U c k u 0 v.v.",
"v.v.9 0 A U U U U ` ` U U ` U U U U I A e 9 v.v.",
"v.v.8 0 N B V U ` V V V ` V U V V U B N 0 8 v.v.",
"v.v.3 5 7 l c c c c c c x v x x c c l 7 5 3 v.v.",
"v.v.; > , 1 1 2 2 2 2 2 2 2 2 2 2 2 1 , > ; v.v.",
"v.v.# * = - ; ; ; > ; > ; > ; > ; ; - * * # v.v.",
"v.v.@ o o # * * * * * * * * * * * * # # o @ v.v.",
"v.v.O + . . . . . o . . . . . . . . . . + O v.v.",
"v.v.v.v.                                v.v.v.v.",
"v.v.v.v.v.v.v.v.v.v.v.v.v.v.v.v.v.v.v.v.v.v.v.v."
};
