/* XPM */
static char *control_center_[] = {
/* columns rows colors chars-per-pixel */
"24 24 156 2",
"   c #000000",
".  c #17212D",
"X  c #252F3A",
"o  c #29425B",
"O  c #2C4561",
"+  c #3E5063",
"@  c #3E556D",
"#  c #3F5874",
"$  c #3E5B7B",
"%  c #4E514F",
"&  c #555852",
"*  c #585B55",
"=  c #5B5E58",
"-  c #635C4D",
";  c #62665E",
":  c #455667",
">  c #495460",
",  c #415469",
"<  c #485B6F",
"1  c #425871",
"2  c #4A5F77",
"3  c #455F7D",
"4  c #59636E",
"5  c #4B6078",
"6  c #5D6671",
"7  c #5F6974",
"8  c #737C7F",
"9  c #BF7912",
"0  c #CC7F10",
"q  c #8B7B51",
"w  c #B68128",
"e  c #BF8C31",
"r  c #CB8013",
"t  c #D88C16",
"y  c #D79016",
"u  c #D7941A",
"i  c #E68D0E",
"p  c #FC9D0F",
"a  c #E59317",
"s  c #EA961C",
"d  c #FCA61B",
"f  c #FEAF1C",
"g  c #FFB31F",
"h  c #DB9C24",
"j  c #C9923D",
"k  c #DDA22B",
"l  c #DFA733",
"z  c #E1A22F",
"x  c #F6A929",
"c  c #FDB525",
"v  c #FFBA23",
"b  c #FFB52A",
"n  c #FFBD2B",
"m  c #E4A837",
"M  c #E2AC3D",
"N  c #FBBE3F",
"B  c #FFC226",
"V  c #FFC22C",
"C  c #FFC732",
"Z  c #FFD038",
"A  c #B49D65",
"S  c #E3B044",
"D  c #F9BC43",
"F  c #E1B251",
"G  c #FDC240",
"H  c #F9CB4C",
"J  c #446281",
"K  c #4C6784",
"L  c #4E6986",
"P  c #486688",
"I  c #4D6B8D",
"U  c #576B82",
"Y  c #5B6E82",
"T  c #556F8B",
"R  c #5F7184",
"E  c #56718E",
"W  c #58718E",
"Q  c #506E91",
"!  c #547293",
"~  c #5B7592",
"^  c #5D7895",
"/  c #5E7A9A",
"(  c #6C7885",
")  c #637B94",
"_  c #6B7E91",
"`  c #627C9A",
"'  c #607FA2",
"]  c #798385",
"[  c #788388",
"{  c #7E8A8A",
"}  c #66809E",
"|  c #6D849E",
" . c #70869D",
".. c #72889F",
"X. c #6482A3",
"o. c #6C85A2",
"O. c #6F89A6",
"+. c #738AA3",
"@. c #798FA7",
"#. c #738EAA",
"$. c #7B90A7",
"%. c #7590AB",
"&. c #7C93AC",
"*. c #6C8DB1",
"=. c #7491B2",
"-. c #7A95B3",
";. c #7D99B6",
":. c #7595B9",
">. c #7D9ABB",
",. c #7F9DC1",
"<. c #868788",
"1. c #859399",
"2. c #969696",
"3. c #909896",
"4. c #949D9A",
"5. c #8195AC",
"6. c #8498AF",
"7. c #979EA5",
"8. c #8097B1",
"9. c #839AB3",
"0. c #839DBA",
"q. c #9DA1A5",
"w. c #86A1BE",
"e. c #8BA2BC",
"r. c #A4A5A6",
"t. c #AAAAAA",
"y. c #ADAFB1",
"u. c #B7B7B7",
"i. c #BDBDBD",
"p. c #83A2C3",
"a. c #8AA5C3",
"s. c #8CAACA",
"d. c #95ABC4",
"f. c #98AEC6",
"g. c #93AECB",
"h. c #96B0CD",
"j. c #9CB3CC",
"k. c #99B3D0",
"l. c #A2B7CE",
"z. c #A4B8CF",
"x. c #ABBACB",
"c. c #A2BAD4",
"v. c #B7C1CD",
"b. c #ACC3DA",
"n. c #B6CADF",
"m. c #B9CCE0",
"M. c #C1C6CC",
"N. c #CCCCCC",
"B. c #C2CAD4",
"V. c #C9CED4",
"C. c #CED0D2",
"Z. c #D2D2D2",
"A. c #DBDBDC",
"S. c #E2E3E3",
"D. c #EAEAEB",
"F. c None",
/* pixels */
"F.F.F.F.F.F.F.F.F.F.F.F.F.F.F.F.F.F.F.F.F.F.F.F.",
"F.F.F.F.F.F.F.F.F.F.F.F.F.F.F.F.F.F.F.F.F.F.F.F.",
"F.F.F.c.c.b.b.n.b.k.c.k.c.k.b.b.m.m.m.b.c.F.F.F.",
"F.F.l.g.p.p.g.g.g.p.p.p.p.p.s.k.c.c.g.s.s.a.F.F.",
"F.F.c.h.g.p.a.M.S.B.a.w.p.p.h.k.c.k.g.p.:.p.F.F.",
"F.F.a.h.j.g.0.( Z.D.D.f.s.p.k.c.l.g.a.0.:.:.F.F.",
"F.F.p.a.j.j.d.0.7.D.D.V.0.a.c.c.f.a.>.>.:.:.F.F.",
"F.F.0.0.V.x.j.x.S.D.S.A.9.d.l.f.p.>.>.;.*.*.F.F.",
"F.F.;.;.N.A.v.S.S.S.S.Z.5.d.f.0.;.;.-.-.;.>.F.F.",
"F.F.%.-.q.S.A.A.A.A.A.u.$.f.0.-.-.9.0.e.0.0.F.F.",
"F.F.X.X.R N.A.A.A.A.i.2.y.A 1.8.e.e.e.0.-.=.F.F.",
"F.F.X.X.O.4 r.i.u.t.2.u.F D S 4.0.0.9.8.&.#.F.F.",
"F.F.#.%.&.8.| 4 7 > <.F D p d M 3.9.9.-.%.#.F.F.",
"F.F.%.&.8.-.+.+.o.+.q H v g f c l { O.O.o.o.F.F.",
"F.F.` ` ` } } o.&.9.8 k Z B v v V k [ / ! Q F.F.",
"F.F.I ! ^ ` +.9.6.&.` ; h C V V n C h [ ! I F.F.",
"F.F.P I ^ +.6.6.@.| ` | = u n n C M D e ' ! F.F.",
"F.F.J ~ | 6.6.+.+.^ ~ | ~ * y b z , 9 a ` / F.F.",
"F.F.! ) $.$.| | ) E W } E T & t x j s 0 K ~ F.F.",
"F.F.) ....) ) ) K K E ~ K K J % 0 i 0 * $ $ F.F.",
"F.F.Y ` W W W 5 $ $ U L $ $ $ $ # + U ^ 5 o F.F.",
"F.F.X , 2 5 1 O O O # @ O O O O O 1 5 R 1 . F.F.",
"F.F.F.F.                                F.F.F.F.",
"F.F.F.F.F.F.F.F.F.F.F.F.F.F.F.F.F.F.F.F.F.F.F.F."
};
