/* XPM */
static char *gnome_activity_journal[] = {
/* columns rows colors chars-per-pixel */
"24 24 222 2",
"   c #000000",
".  c #0E2F3B",
"X  c #1E657A",
"o  c #206882",
"O  c #23728D",
"+  c #24738D",
"@  c #24738E",
"#  c #2C7892",
"$  c #2D7B95",
"%  c #2D7C96",
"&  c #30829E",
"*  c #2E83A0",
"=  c #2984A3",
"-  c #2A86A4",
";  c #2D8AA9",
":  c #2F8DAB",
">  c #2E8DAD",
",  c #2F8FAF",
"<  c #328AA7",
"1  c #3E89A1",
"2  c #3B8CA6",
"3  c #308BAA",
"4  c #318CAB",
"5  c #328DAB",
"6  c #338DAB",
"7  c #3390AF",
"8  c #3590AD",
"9  c #3A93AF",
"0  c #3292B1",
"q  c #3793B2",
"w  c #3394B4",
"e  c #3597B6",
"r  c #3D95B1",
"t  c #3F95B1",
"y  c #3C95B2",
"u  c #3A96B4",
"i  c #3B98B7",
"p  c #3799B9",
"a  c #389BBB",
"s  c #3C9AB9",
"d  c #3A9DBE",
"f  c #3E9CBC",
"g  c #3F9EBE",
"h  c #4D889B",
"j  c #548EA2",
"k  c #5297AD",
"l  c #5C9AAE",
"z  c #4098B5",
"x  c #4399B5",
"c  c #469AB6",
"v  c #479BB7",
"b  c #489BB7",
"n  c #439BB8",
"m  c #479CB8",
"M  c #449DBA",
"N  c #469EBB",
"B  c #469FBC",
"V  c #4A9CB8",
"C  c #4B9EB9",
"Z  c #4B9FBA",
"A  c #4B9FBB",
"S  c #4E9EB8",
"D  c #579AB0",
"F  c #579CB3",
"G  c #6195A6",
"H  c #6F9DAC",
"J  c #4CA0BB",
"K  c #48A1BF",
"L  c #49A1BF",
"P  c #4CA1BD",
"I  c #4FA1BC",
"U  c #50A0BC",
"Y  c #6CA7BB",
"T  c #70A0B1",
"R  c #75A2B1",
"E  c #79A4B3",
"W  c #77A7B8",
"Q  c #3B9FC0",
"!  c #3DA1C3",
"~  c #3FA3C5",
"^  c #41A0C0",
"/  c #42A2C2",
"(  c #44A4C5",
")  c #46A7C7",
"_  c #49A3C1",
"`  c #4CA7C5",
"'  c #40A5C8",
"]  c #41A7CA",
"[  c #47A9CA",
"{  c #42A9CC",
"}  c #47ABCD",
"|  c #46ACCF",
" . c #4DA8C8",
".. c #4FABCA",
"X. c #48AACC",
"o. c #4EAECF",
"O. c #50A3C0",
"+. c #52A6C3",
"@. c #53A7C3",
"#. c #53A8C4",
"$. c #54A8C4",
"%. c #54A9C4",
"&. c #54A8C5",
"*. c #54A9C6",
"=. c #55AAC7",
"-. c #56ACC9",
";. c #57ADCB",
":. c #50ADCC",
">. c #50AECE",
",. c #57B0CE",
"<. c #59B0CD",
"1. c #59B1CD",
"2. c #5AB1CD",
"3. c #58B1CE",
"4. c #5AB0CE",
"5. c #5AB1CF",
"6. c #5AB2CF",
"7. c #5DB1CE",
"8. c #48AFD1",
"9. c #4CAED0",
"0. c #4DAFD1",
"q. c #4BB0D2",
"w. c #4CB1D2",
"e. c #4DB1D2",
"r. c #4EB1D2",
"t. c #4FB3D3",
"y. c #50B0D2",
"u. c #53B2D2",
"i. c #57B1D0",
"p. c #55B2D1",
"a. c #55B2D3",
"s. c #56B2D3",
"d. c #58B3D2",
"f. c #5DB3D0",
"g. c #5FB5D2",
"h. c #61A8C0",
"j. c #60B2CD",
"k. c #62B3CF",
"l. c #64B4CE",
"z. c #6FB5CE",
"x. c #7DBBCF",
"c. c #61B7D6",
"v. c #67B9D5",
"b. c #6BBCD7",
"n. c #6DBDD7",
"m. c #6FBED8",
"M. c #75C3DE",
"N. c #76C4DE",
"B. c #76C4DF",
"V. c #80ACBB",
"C. c #85AEBC",
"Z. c #80BBCF",
"A. c #98B7C0",
"S. c #9FBAC2",
"D. c #95BBC8",
"F. c #96BDCA",
"G. c #93BFCE",
"H. c #80BED3",
"J. c #97C1CF",
"K. c #83C0D4",
"L. c #8AC1D3",
"P. c #8EC4D5",
"I. c #87C6DA",
"U. c #8CC9DD",
"Y. c #A5CFDE",
"T. c #ABCDD9",
"R. c #B7CBD2",
"E. c #B3CCD4",
"W. c #B5CED6",
"Q. c #B9CCD3",
"!. c #BBCED5",
"~. c #A4D0DE",
"^. c #BED0D6",
"/. c #B6D0D9",
"(. c #BBD1D9",
"). c #BDD1D8",
"_. c #BFD3DA",
"`. c #BCD4DB",
"'. c #96D0E3",
"]. c #A6D5E6",
"[. c #AAD5E3",
"{. c #B2D6E2",
"}. c #C2D3D9",
"|. c #CAD8DD",
" X c #CADADF",
".X c #CBDADF",
"XX c #C9DEE5",
"oX c #D0DEE2",
"OX c #C5E2EC",
"+X c #C8E0E8",
"@X c #CBE1E9",
"#X c #CCE2E9",
"$X c #D1E7EE",
"%X c #D6E7EC",
"&X c #DAE5E9",
"*X c #D9E5EA",
"=X c #DDE7EA",
"-X c #DCE8EB",
";X c #DBEAF0",
":X c #DCECF2",
">X c #E2EBED",
",X c #E2EBEE",
"<X c #E5ECEE",
"1X c #E2EDF1",
"2X c #ECF1F3",
"3X c #E9F2F5",
"4X c #E9F2F6",
"5X c #EDF2F4",
"6X c #EFF5F6",
"7X c #F0F4F5",
"8X c #F2F6F8",
"9X c #F5F8F9",
"0X c #F5F9FA",
"qX c #F7F9FA",
"wX c #FBFCFC",
"eX c #FCFDFD",
"rX c #FDFDFD",
"tX c #FDFDFE",
"yX c #FDFEFE",
"uX c #FEFEFF",
"iX c #FFFFFF",
"pX c None",
/* pixels */
"pXpXpXpXpXpXpXpXpXpXpXpXpXpXpXpXpXpXpXpXpXpXpXpX",
"pXpXpXpXpXpXpXpXpXpXpXpXpXpXpXpXpXpXpXpXpXpXpXpX",
"pXpXpXm.M.B.B.B.B.M.B.B.B.M.B.B.B.B.M.M.m.pXpXpX",
"pXpXk.t.9.q.q.0.t.t.t.0.t.0.t.t.q.q.9.9.t.k.pXpX",
"pXpX0.} 9.t.p.p.s.'.OX5X9X:X].c.p.u.y.0.| 0.pXpX",
"pXpX{ } 0.p.d.n.$XrXrX.XA.A. X4Xn.d.p.0.} { pXpX",
"pXpX] [ :.i.c.1XrXqXE S ,.5.I R %Xv.p.:.X.] pXpX",
"pXpX] [ :.,.{.rXrXC.2.,.c.[.5.,.V.;XU.,.[ ] pXpX",
"pXpX' ) :.f.rXrX<X*.5.<.I.F.5.<.#.=XrX@X) ~ pXpX",
"pXpXQ )  .x.rXrX(.;.;.7.wXrXl.;.2.W.rX*X) ! pXpX",
"pXpXQ ^ ` T.rXrX`.;.;.*.R.!.%.-.;./.rXW ^ Q pXpX",
"pXpXd ^ z.rXrXrX<X*.*.*.S +XZ.*.*.-X).K ^ d pXpX",
"pXpXa M J.yXrXrXrXP.+.*.I R J.+.L.rXF._ d a pXpX",
"pXpXa d F 4XrXrXrX8XK.*.%.O.F x.8XrXY K M p pXpX",
"pXpXe s M h #XrXrXrXrX#XY.[.#XrXrX}.C M a e pXpX",
"pXpXe u M I }.rXrXrXrXrXrXrXrXrXyXl I M i e pXpX",
"pXpXw u n J E.rXrXrXrXrXrXrXrXqXH J J n u w pXpX",
"pXpX5 q i b *XrXrXrXrXrXrXrX7XG V C V z q > pXpX",
"pXpX> 7 u Y rXrXrXrXrXrXrX!.j v b b x t 7 > pXpX",
"pXpX- > 7 k }.1XqX2X.XS.h 2 z t z 9 9 6 : - pXpX",
"pXpXo = ; ; * % # % & 3 6 6 6 6 6 6 3 ; = o pXpX",
"pXpX. X O O @ @ @ @ + + @ @ @ @ O + + O X . pXpX",
"pXpXpXpX                                pXpXpXpX",
"pXpXpXpXpXpXpXpXpXpXpXpXpXpXpXpXpXpXpXpXpXpXpXpX"
};
