<!-- Created with Inkscape (http://www.inkscape.org/) -->
<svg xmlns:dc="http://purl.org/dc/elements/1.1/" xmlns:cc="http://creativecommons.org/ns#" xmlns:rdf="http://www.w3.org/1999/02/22-rdf-syntax-ns#" xmlns:svg="http://www.w3.org/2000/svg" xmlns="http://www.w3.org/2000/svg" xmlns:xlink="http://www.w3.org/1999/xlink" xmlns:sodipodi="http://sodipodi.sourceforge.net/DTD/sodipodi-0.dtd" xmlns:inkscape="http://www.inkscape.org/namespaces/inkscape" width="32px" height="32px" id="svg14288" version="1.1" inkscape:version="0.48.4 r9939" sodipodi:docname="folder.svg">
  <defs id="defs14290">
    <linearGradient inkscape:collect="always" xlink:href="#linearGradient3454-2-5-0-3-4" id="linearGradient5926" gradientUnits="userSpaceOnUse" gradientTransform="matrix(0.89186139,0,0,1.0539115,3.1208294,5.412539)" x1="27.557428" y1="7.162672" x2="27.557428" y2="21.386522"/>
    <linearGradient id="linearGradient3454-2-5-0-3-4">
      <stop offset="0" style="stop-color:#ffffff;stop-opacity:1" id="stop3456-4-9-38-1-8"/>
      <stop offset="0.0097359" style="stop-color:#ffffff;stop-opacity:0.23529412" id="stop3458-39-80-3-5-5"/>
      <stop offset="0.99001008" style="stop-color:#ffffff;stop-opacity:0.15686275" id="stop3460-7-0-2-4-2"/>
      <stop offset="1" style="stop-color:#ffffff;stop-opacity:0.39215687" id="stop3462-0-9-8-7-2"/>
    </linearGradient>
    <linearGradient inkscape:collect="always" xlink:href="#linearGradient6129-963-697-142-998-580-273-5" id="linearGradient5922" gradientUnits="userSpaceOnUse" gradientTransform="matrix(0.7467531,0,0,0.6554922,-1.9218906,1.167619)" x1="22.934725" y1="49.629246" x2="22.809399" y2="36.657963"/>
    <linearGradient id="linearGradient6129-963-697-142-998-580-273-5">
      <stop id="stop2661-1" style="stop-color:#0a0a0a;stop-opacity:0.498" offset="0"/>
      <stop id="stop2663-85" style="stop-color:#0a0a0a;stop-opacity:0" offset="1"/>
    </linearGradient>
    <linearGradient inkscape:collect="always" xlink:href="#linearGradient4632-0-6-4-3-4" id="linearGradient5915" gradientUnits="userSpaceOnUse" gradientTransform="matrix(0.64444432,0,0,0.64285702,0.53351936,0.89285905)" x1="35.792694" y1="17.118193" x2="35.792694" y2="43.761127"/>
    <linearGradient id="linearGradient4632-0-6-4-3-4">
      <stop style="stop-color:#e799c5;stop-opacity:1;" offset="0" id="stop4634-4-4-7-7-4"/>
      <stop style="stop-color:#a7276b;stop-opacity:1;" offset="1" id="stop4636-3-1-5-1-3"/>
    </linearGradient>
    <linearGradient inkscape:collect="always" xlink:href="#linearGradient5048-585-0" id="linearGradient5905" gradientUnits="userSpaceOnUse" gradientTransform="matrix(0.05114282,0,0,0.01591575,-2.4899573,22.29927)" x1="302.85715" y1="366.64789" x2="302.85715" y2="609.50507"/>
    <linearGradient id="linearGradient5048-585-0">
      <stop id="stop2667-18" style="stop-color:#000000;stop-opacity:0" offset="0"/>
      <stop id="stop2669-9" style="stop-color:#000000;stop-opacity:1" offset="0.5"/>
      <stop id="stop2671-33" style="stop-color:#000000;stop-opacity:0" offset="1"/>
    </linearGradient>
    <radialGradient inkscape:collect="always" xlink:href="#linearGradient5060-179-67" id="radialGradient5907" gradientUnits="userSpaceOnUse" gradientTransform="matrix(0.01983573,0,0,0.01591575,16.38765,22.29927)" cx="605.71429" cy="486.64789" fx="605.71429" fy="486.64789" r="117.14286"/>
    <linearGradient id="linearGradient5060-179-67">
      <stop id="stop2675-81" style="stop-color:#000000;stop-opacity:1" offset="0"/>
      <stop id="stop2677-2" style="stop-color:#000000;stop-opacity:0" offset="1"/>
    </linearGradient>
    <radialGradient inkscape:collect="always" xlink:href="#linearGradient5060-820-4" id="radialGradient5909" gradientUnits="userSpaceOnUse" gradientTransform="matrix(-0.01983573,0,0,0.01591575,15.60139,22.29927)" cx="605.71429" cy="486.64789" fx="605.71429" fy="486.64789" r="117.14286"/>
    <linearGradient id="linearGradient5060-820-4">
      <stop id="stop2681-5" style="stop-color:#000000;stop-opacity:1" offset="0"/>
      <stop id="stop2683-00" style="stop-color:#000000;stop-opacity:0" offset="1"/>
    </linearGradient>
    <linearGradient inkscape:collect="always" xlink:href="#linearGradient4325" id="linearGradient5903" gradientUnits="userSpaceOnUse" gradientTransform="matrix(0.54383556,0,0,0.61466406,3.2688794,5.091139)" x1="21.37039" y1="4.73244" x2="21.37039" y2="34.143417"/>
    <linearGradient id="linearGradient4325">
      <stop offset="0" style="stop-color:#ffffff;stop-opacity:1" id="stop4327"/>
      <stop offset="0.1106325" style="stop-color:#ffffff;stop-opacity:0.23529412" id="stop4329"/>
      <stop offset="0.99001008" style="stop-color:#ffffff;stop-opacity:0.15686275" id="stop4331"/>
      <stop offset="1" style="stop-color:#ffffff;stop-opacity:0.39215687" id="stop4333"/>
    </linearGradient>
    <linearGradient inkscape:collect="always" xlink:href="#linearGradient4646-7-4-3-5" id="linearGradient5899" gradientUnits="userSpaceOnUse" gradientTransform="matrix(0.61904762,0,0,0.61904762,-30.391811,1.428569)" x1="62.988873" y1="13" x2="62.988873" y2="16"/>
    <linearGradient id="linearGradient4646-7-4-3-5">
      <stop offset="0" style="stop-color:#f9f9f9;stop-opacity:1" id="stop4648-8-0-3-6"/>
      <stop offset="1" style="stop-color:#d8d8d8;stop-opacity:1" id="stop4650-1-7-3-4"/>
    </linearGradient>
    <linearGradient id="linearGradient3104-8-8-97-4-6-11-5-5-0">
      <stop offset="0" style="stop-color:#000000;stop-opacity:0.32173914" id="stop3106-5-4-3-5-0-2-1-0-6"/>
      <stop offset="1" style="stop-color:#000000;stop-opacity:0.27826086" id="stop3108-4-3-7-8-2-0-7-9-1"/>
    </linearGradient>
    <linearGradient y2="3.6336823" x2="-51.786404" y1="53.514328" x1="-51.786404" gradientTransform="matrix(0.50703384,0,0,0.50300255,68.029219,1.329769)" gradientUnits="userSpaceOnUse" id="linearGradient14236" xlink:href="#linearGradient3104-8-8-97-4-6-11-5-5-0" inkscape:collect="always"/>
    <linearGradient gradientUnits="userSpaceOnUse" xlink:href="#linearGradient3576" id="linearGradient4689" y2="30" x2="17" y1="15" x1="17"/>
    <linearGradient id="linearGradient3522">
      <stop offset="0" style="stop-color:#81aac3;stop-opacity:1" id="stop3524"/>
      <stop offset="1" style="stop-color:#4e82a3;stop-opacity:1" id="stop3526"/>
    </linearGradient>
    <linearGradient id="linearGradient3576">
      <stop offset="0" style="stop-color:#9fbad6;stop-opacity:1" id="stop3578"/>
      <stop offset="1" style="stop-color:#587b9f;stop-opacity:1" id="stop3580"/>
    </linearGradient>
    <linearGradient gradientTransform="matrix(0.8527832,0,0,0.8564799,13.352374,15.327136)" gradientUnits="userSpaceOnUse" xlink:href="#linearGradient3582" id="linearGradient3301" y2="0.7810511" x2="2.6708329" y1="18.300243" x1="2.6708329"/>
    <linearGradient gradientTransform="matrix(0.8527832,0,0,0.8564799,13.352374,15.327136)" gradientUnits="userSpaceOnUse" xlink:href="#linearGradient3932" id="linearGradient3299" y2="18.299162" x2="5.4499502" y1="-0.3819541" x1="5.4499502"/>
    <linearGradient gradientTransform="matrix(0.8374561,0,0,0.8569233,13.481556,15.322905)" gradientUnits="userSpaceOnUse" xlink:href="#linearGradient3582" id="linearGradient3296" y2="1" x2="5.6597543" y1="18.299864" x1="5.6597543"/>
    <linearGradient gradientTransform="matrix(0.6581265,0,0,0.6674529,13.39223,15.787296)" gradientUnits="userSpaceOnUse" xlink:href="#linearGradient3522" id="linearGradient3294" y2="21.467987" x2="12.872127" y1="5.0561161" x1="12.872127"/>
    <linearGradient id="linearGradient3582">
      <stop offset="0" style="stop-color:#333333;stop-opacity:1" id="stop3584"/>
      <stop offset="1" style="stop-color:#5a5a5a;stop-opacity:1" id="stop3586"/>
    </linearGradient>
    <linearGradient id="linearGradient3932">
      <stop offset="0" style="stop-color:#828282;stop-opacity:1" id="stop3934"/>
      <stop offset="1" style="stop-color:#434343;stop-opacity:1" id="stop3936"/>
    </linearGradient>
    <radialGradient gradientTransform="matrix(-0.01983573,0,0,0.01591575,15.60139,22.29927)" gradientUnits="userSpaceOnUse" xlink:href="#linearGradient5060-820" id="radialGradient2467" fy="486.64789" fx="605.71429" r="117.14286" cy="486.64789" cx="605.71429"/>
    <radialGradient gradientTransform="matrix(0.01983573,0,0,0.01591575,16.38765,22.29927)" gradientUnits="userSpaceOnUse" xlink:href="#linearGradient5060-179" id="radialGradient2465" fy="486.64789" fx="605.71429" r="117.14286" cy="486.64789" cx="605.71429"/>
    <linearGradient gradientTransform="matrix(0.05114282,0,0,0.01591575,-2.4899573,22.29927)" gradientUnits="userSpaceOnUse" xlink:href="#linearGradient5048-585" id="linearGradient2463" y2="609.50507" x2="302.85715" y1="366.64789" x1="302.85715"/>
    <radialGradient gradientTransform="matrix(0,1.0884009,-1.355859,0,8.9733195,2.9173483)" gradientUnits="userSpaceOnUse" xlink:href="#linearGradient3484" id="radialGradient2456" fy="5.01718" fx="3" r="21" cy="5.01718" cx="3"/>
    <linearGradient gradientTransform="matrix(0.627907,0,0,0.6348983,-31.055913,1.1034431)" gradientUnits="userSpaceOnUse" xlink:href="#linearGradient6404" id="linearGradient2454" y2="16.19013" x2="62.988873" y1="13.182598" x1="62.988873"/>
    <linearGradient gradientTransform="matrix(0.644209,0,0,0.643728,-34.102646,0.7887616)" gradientUnits="userSpaceOnUse" xlink:href="#linearGradient3390" id="linearGradient2442" y2="10.82615" x2="82.453476" y1="45.114193" x1="82.453476"/>
    <radialGradient gradientTransform="matrix(1.007989,-6.1246211e-8,3.9794263e-8,0.6539555,-55.005411,6.1061543)" gradientUnits="userSpaceOnUse" xlink:href="#linearGradient7012-661-145-733-759-865-745" id="radialGradient2440" fy="14.113381" fx="63.969177" r="23.097054" cy="14.113381" cx="63.969177"/>
    <linearGradient gradientTransform="matrix(0.7467531,0,0,0.6554922,-1.9220764,1.1676179)" gradientUnits="userSpaceOnUse" xlink:href="#linearGradient6129-963-697-142-998-580-273" id="linearGradient2437" y2="36.657963" x2="22.809399" y1="49.629246" x1="22.934725"/>
    <radialGradient gradientTransform="matrix(0,0.7386341,-0.9984871,0,17.148572,6.8540185)" gradientUnits="userSpaceOnUse" xlink:href="#linearGradient6087-437-184-795-110-662-495" id="radialGradient2434" fy="8.3021259" fx="7.2646537" r="20.979567" cy="8.3021259" cx="7.2646537"/>
    <linearGradient gradientTransform="matrix(0.6515346,0,0,0.6760494,0.3603499,0.1849652)" gradientUnits="userSpaceOnUse" xlink:href="#linearGradient8265-821-176-38-919-66-249" id="linearGradient2431" y2="33.95525" x2="15.214532" y1="22.292103" x1="11.566265"/>
    <linearGradient id="linearGradient8265-821-176-38-919-66-249">
      <stop offset="0" style="stop-color:#ffffff;stop-opacity:0.2" id="stop2687"/>
      <stop offset="1" style="stop-color:#ffffff;stop-opacity:0" id="stop2689"/>
    </linearGradient>
    <linearGradient id="linearGradient6087-437-184-795-110-662-495">
      <stop offset="0" style="stop-color:#ffffff;stop-opacity:0.40000001" id="stop2693"/>
      <stop offset="1" style="stop-color:#ffffff;stop-opacity:0" id="stop2695"/>
    </linearGradient>
    <linearGradient id="linearGradient6129-963-697-142-998-580-273">
      <stop offset="0" style="stop-color:#0a0a0a;stop-opacity:0.498" id="stop2661"/>
      <stop offset="1" style="stop-color:#0a0a0a;stop-opacity:0" id="stop2663"/>
    </linearGradient>
    <linearGradient id="linearGradient7012-661-145-733-759-865-745">
      <stop offset="0" style="stop-color:#aacb7d;stop-opacity:1" id="stop2699"/>
      <stop offset="1" style="stop-color:#709937;stop-opacity:1" id="stop2701"/>
    </linearGradient>
    <linearGradient id="linearGradient3390">
      <stop offset="0" style="stop-color:#51751e;stop-opacity:1" id="stop3392"/>
      <stop offset="1" style="stop-color:#51751e;stop-opacity:1" id="stop3394"/>
    </linearGradient>
    <linearGradient id="linearGradient5060-820">
      <stop offset="0" style="stop-color:#000000;stop-opacity:1" id="stop2681"/>
      <stop offset="1" style="stop-color:#000000;stop-opacity:0" id="stop2683"/>
    </linearGradient>
    <linearGradient id="linearGradient5060-179">
      <stop offset="0" style="stop-color:#000000;stop-opacity:1" id="stop2675"/>
      <stop offset="1" style="stop-color:#000000;stop-opacity:0" id="stop2677"/>
    </linearGradient>
    <linearGradient id="linearGradient5048-585">
      <stop offset="0" style="stop-color:#000000;stop-opacity:0" id="stop2667"/>
      <stop offset="0.5" style="stop-color:#000000;stop-opacity:1" id="stop2669"/>
      <stop offset="1" style="stop-color:#000000;stop-opacity:0" id="stop2671"/>
    </linearGradient>
    <linearGradient id="linearGradient6404">
      <stop offset="0" style="stop-color:#f9f9f9;stop-opacity:1" id="stop6406"/>
      <stop offset="1" style="stop-color:#c9c9c9;stop-opacity:1" id="stop6408"/>
    </linearGradient>
    <linearGradient id="linearGradient3484">
      <stop offset="0" style="stop-color:#bdbdbd;stop-opacity:1" id="stop3486"/>
      <stop offset="1" style="stop-color:#d0d0d0;stop-opacity:1" id="stop3488"/>
    </linearGradient>
  </defs>
  <sodipodi:namedview id="base" pagecolor="#ffffff" bordercolor="#666666" borderopacity="1.0" inkscape:pageopacity="0.0" inkscape:pageshadow="2" inkscape:zoom="7.9180417" inkscape:cx="15.266285" inkscape:cy="17.337759" inkscape:current-layer="layer1" showgrid="true" inkscape:grid-bbox="true" inkscape:document-units="px" inkscape:window-width="627" inkscape:window-height="414" inkscape:window-x="60" inkscape:window-y="102" inkscape:window-maximized="0"/>
  <metadata id="metadata14293">
    <rdf:RDF>
      <cc:Work rdf:about="">
        <dc:format>image/svg+xml</dc:format>
        <dc:type rdf:resource="http://purl.org/dc/dcmitype/StillImage"/>
        <dc:title/>
      </cc:Work>
    </rdf:RDF>
  </metadata>
  <g id="layer1" inkscape:label="Layer 1" inkscape:groupmode="layer">
    <path d="m 4.0001794,6.500079 c -0.43342,0.005 -0.5,0.21723 -0.5,0.6349 l 0,1.36502 c -1.24568,0 -1,-0.002 -1,0.54389 0.0216,6.53313 0,6.90143 0,7.45611 0.90135,0 26.9999996,-2.34895 26.9999996,-3.36005 l 0,-4.09606 c 0,-0.41767 -0.34799,-0.54876 -0.78141,-0.54389 l -14.21859,0 0,-1.36502 c 0,-0.41767 -0.26424,-0.63977 -0.69767,-0.6349 l -9.8023296,0 z" inkscape:connector-curvature="0" id="path3468-10" style="opacity:0.8;color:#000000;fill:none;stroke:url(#linearGradient14236);stroke-width:1;stroke-linecap:butt;stroke-linejoin:miter;stroke-miterlimit:4;stroke-opacity:1;stroke-dasharray:none;stroke-dashoffset:0;marker:none;visibility:visible;display:inline;overflow:visible;enable-background:accumulate"/>
    <path inkscape:connector-curvature="0" style="color:#000000;fill:url(#linearGradient5899);fill-opacity:1;fill-rule:nonzero;stroke:none;stroke-width:1;marker:none;visibility:visible;display:inline;overflow:visible;enable-background:accumulate" d="m 4.0001794,6.999999 0,2 -1,0 0,4 25.9999996,0 0,-4 -15,0 0,-2 -9.9999996,0 z" id="rect3409-5"/>
    <path inkscape:connector-curvature="0" style="color:#000000;fill:none;stroke:url(#linearGradient5903);stroke-width:1;stroke-linecap:round;stroke-linejoin:miter;stroke-miterlimit:4;stroke-opacity:1;stroke-dasharray:none;stroke-dashoffset:0;marker:none;visibility:visible;display:inline;overflow:visible;enable-background:accumulate" d="m 4.5001794,7.499999 0,2 -1,0 0,4 24.9999996,0 0,-4 -15,0 0,-2 -8.9999996,0 z" id="rect3409"/>
    <g transform="translate(1.7935663e-4,-1.000001)" id="g2458">
      <rect width="24.694677" height="3.8652544" x="3.6471815" y="28.134747" id="rect4173-1" style="opacity:0.3;fill:url(#linearGradient5905);fill-opacity:1;fill-rule:nonzero;stroke:none;stroke-width:1;marker:none;visibility:visible;display:inline;overflow:visible"/>
      <path d="m 28.341859,28.13488 c 0,0 0,3.865041 0,3.865041 1.021491,0.0073 2.469468,-0.86596 2.469468,-1.932769 0,-1.06681 -1.139908,-1.932272 -2.469468,-1.932272 z" inkscape:connector-curvature="0" id="path5058-4" style="opacity:0.3;fill:url(#radialGradient5907);fill-opacity:1;fill-rule:nonzero;stroke:none;stroke-width:1;marker:none;visibility:visible;display:inline;overflow:visible"/>
      <path d="m 3.6471816,28.13488 c 0,0 0,3.865041 0,3.865041 -1.0214912,0.0073 -2.4694678,-0.86596 -2.4694678,-1.932769 0,-1.06681 1.1399068,-1.932272 2.4694678,-1.932272 z" inkscape:connector-curvature="0" id="path5018-84" style="opacity:0.3;fill:url(#radialGradient5909);fill-opacity:1;fill-rule:nonzero;stroke:none;stroke-width:1;marker:none;visibility:visible;display:inline;overflow:visible"/>
    </g>
    <path d="m 1.9270194,11.499999 c -0.69105,0.0796 -0.32196,0.90258 -0.37705,1.36535 0.0802,0.29906 0.59771,15.71799 0.59771,16.24744 0,0.46018 0.22667,0.38222 0.80101,0.38222 8.4993996,0 17.8980796,0 26.3974796,0 0.61872,0.0143 0.48796,0.007 0.48796,-0.38947 0.0452,-0.20269 0.63993,-16.97848 0.66282,-17.24344 0,-0.279 0.0581,-0.3621 -0.30493,-0.3621 -9.0765,0 -19.18849,0 -28.2649996,0 z" inkscape:connector-curvature="0" id="path3388" style="color:#000000;fill:url(#linearGradient5915);fill-opacity:1;fill-rule:nonzero;stroke:none;stroke-width:0.99999994;marker:none;visibility:visible;display:inline;overflow:visible;enable-background:accumulate"/>
    <path d="m 1.6819994,10.999999 28.6363696,2.7e-4 c 0.4137,0 0.68181,0.29209 0.68181,0.65523 l -0.6735,17.71211 c 0.01,0.45948 -0.1364,0.64166 -0.61707,0.63203 l -27.2561296,-0.0115 c -0.4137,0 -0.83086,-0.27118 -0.83086,-0.63432 l -0.62244,-17.69829 c 0,-0.36314 0.26812,-0.65549 0.68182,-0.65549 z" inkscape:connector-curvature="0" id="path6127-36" style="opacity:0.4;fill:url(#linearGradient5922);fill-opacity:1;stroke:none"/>
    <path style="opacity:0.5;color:#000000;fill:none;stroke:url(#linearGradient5926);stroke-width:1.00000012;stroke-linecap:round;stroke-linejoin:miter;stroke-miterlimit:4;stroke-opacity:1;stroke-dasharray:none;stroke-dashoffset:0;marker:none;visibility:visible;display:inline;overflow:visible;enable-background:accumulate" d="m 2.5001794,12.499999 0.62498,16 25.7491696,0 0.62498,-16 z" id="path3309" inkscape:connector-curvature="0" sodipodi:nodetypes="ccccc"/>
    <path d="m 1.9270194,11.499999 c -0.69105,0.0796 -0.32196,0.90258 -0.37705,1.36535 0.0802,0.29906 0.59771,15.71799 0.59771,16.24744 0,0.46018 0.22667,0.38222 0.80101,0.38222 8.4993996,0 17.8980796,0 26.3974796,0 0.61872,0.0143 0.48796,0.007 0.48796,-0.38947 0.0452,-0.20269 0.63993,-16.97848 0.66282,-17.24344 0,-0.279 0.0581,-0.3621 -0.30493,-0.3621 -9.0765,0 -19.18849,0 -28.2649996,0 z" inkscape:connector-curvature="0" id="path3388-5" style="opacity:0.3;color:#000000;fill:none;stroke:#000000;stroke-width:0.99999994;stroke-linecap:round;stroke-linejoin:round;stroke-miterlimit:4;stroke-opacity:1;stroke-dasharray:none;stroke-dashoffset:0;marker:none;visibility:visible;display:inline;overflow:visible;enable-background:accumulate"/>
    <g id="g3070" transform="translate(0,3.9401245e-4)">
      <path d="m 16.635,30.5 -2.016,0 c -0.171433,-0.167493 -0.07827,-0.427541 -0.119,-0.664659 0,-4.442429 0,-10.684912 0,-15.127341 L 14.519,14.5 c 0.734067,0 1.352933,0 2.087,0 m 8.780225,-4.8e-5 c 0.704751,0 1.306305,0 2.002775,0 0.09887,0 0.111002,0.370643 0.111002,0.663247 0,4.439577 0,10.788223 0,15.227801 -0.168583,0.170223 -0.432289,0.05955 -0.670947,0.1 L 25.40393,30.5" id="path3385" style="fill:url(#linearGradient3299);fill-opacity:1;fill-rule:nonzero;stroke:url(#linearGradient3301);stroke-width:1;stroke-linecap:butt;stroke-linejoin:round;stroke-miterlimit:4;stroke-opacity:1;stroke-dasharray:none;stroke-dashoffset:0;marker:none;visibility:visible;display:block;overflow:visible" inkscape:connector-curvature="0"/>
      <rect width="8.9704103" height="16.010645" rx="0" ry="0" x="16.5317" y="14.490961" id="rect3457" style="fill:url(#linearGradient3294);fill-opacity:1;stroke:url(#linearGradient3296);stroke-width:1;stroke-linecap:butt;stroke-linejoin:miter;stroke-miterlimit:4;stroke-opacity:1;stroke-dasharray:none;stroke-dashoffset:0;display:inline"/>
      <g transform="matrix(1.08507,0,0,0.8743473,42.855411,15.125544)" id="g3133" style="display:inline"/>
      <path d="m 16.5,22.5 8.484484,0" id="path4320" style="fill:none;stroke:#464646;stroke-width:1;stroke-linecap:square;stroke-linejoin:round;stroke-miterlimit:4;stroke-opacity:1;stroke-dasharray:none;stroke-dashoffset:0;marker:none;visibility:visible;display:block;overflow:visible" inkscape:connector-curvature="0"/>
      <path d="m 17.5,23.5 7,0 m -7,-8 7,0" id="path4820" style="opacity:0.36637932;fill:none;stroke:#ffffff;stroke-width:1;stroke-linecap:square;stroke-linejoin:round;stroke-miterlimit:4;stroke-opacity:1;stroke-dasharray:none;stroke-dashoffset:0;marker:none;visibility:visible;display:block;overflow:visible" inkscape:connector-curvature="0"/>
      <g transform="matrix(1.08507,0,0,0.8743473,42.855411,13.125544)" id="g4118" style="display:inline"/>
      <g transform="matrix(1.08507,0,0,0.8743473,42.855411,11.125544)" id="g4122" style="display:inline"/>
      <g transform="matrix(1.08507,0,0,0.8743473,42.855411,9.125544)" id="g4126" style="display:inline"/>
      <g transform="matrix(1.08507,0,0,0.8743473,42.855411,7.125544)" id="g4130" style="display:inline"/>
      <g transform="matrix(1.08507,0,0,0.8743473,42.855411,5.125544)" id="g4134" style="display:inline"/>
      <g transform="matrix(1.08507,0,0,0.8743473,42.855411,3.125544)" id="g4138" style="display:inline"/>
      <g transform="matrix(1.08507,0,0,0.8743473,42.855411,1.125544)" id="g4142" style="display:inline"/>
      <g transform="matrix(1.08507,0,0,0.8743473,30.855411,15.125544)" id="g4146" style="display:inline"/>
      <g transform="matrix(1.08507,0,0,0.8743473,30.855411,13.125544)" id="g4150" style="display:inline"/>
      <g transform="matrix(1.08507,0,0,0.8743473,30.855411,11.125544)" id="g4154" style="display:inline"/>
      <g transform="matrix(1.08507,0,0,0.8743473,30.855411,9.125544)" id="g4158" style="display:inline"/>
      <g transform="matrix(1.08507,0,0,0.8743473,30.855411,7.125544)" id="g4162" style="display:inline"/>
      <g transform="matrix(1.08507,0,0,0.8743473,30.855411,5.125544)" id="g4166" style="display:inline"/>
      <g transform="matrix(1.08507,0,0,0.8743473,30.855411,3.125544)" id="g4170" style="display:inline"/>
      <path d="m 15,15 0.999999,0 0,1 L 15,16 15,15 z m 0,2 0.999999,0 0,1 L 15,18 15,17 z m 0,2 0.999999,0 0,1 L 15,20 15,19 z m 0,2 0.999999,0 0,1 L 15,22 15,21 z m 0,2 0.999999,0 0,0.999999 -0.999999,0 L 15,23 z m 0,2 0.999999,0 0,1 L 15,26 15,25 z m 0,2 0.999999,0 0,0.999999 -0.999999,0 L 15,27 z m 0,2 0.999999,0 0,1 L 15,30 15,29 z m 11,-14 1,0 0,1 -1,0 0,-1 z m 0,2 1,0 0,1 -1,0 0,-1 z m 0,2 1,0 0,1 -1,0 0,-1 z m 0,2 1,0 0,1 -1,0 0,-1 z m 0,2 1,0 0,0.999999 -1,0 L 26,23 z m 0,2 1,0 0,1 -1,0 0,-1 z m 0,2 1,0 0,0.999999 -1,0 L 26,27 z m 0,2 1,0 0,1 -1,0 0,-1 z" id="rect4176" style="opacity:0.9;fill:url(#linearGradient4689);fill-opacity:1;stroke:none" inkscape:connector-curvature="0"/>
    </g>
  </g>
</svg>
