/* XPM */
static char *bluefish[] = {
/* columns rows colors chars-per-pixel */
"22 22 173 2",
"   c #000000",
".  c #1E2D27",
"X  c #1E303D",
"o  c #1F334B",
"O  c #1D3250",
"+  c #1F3A5F",
"@  c #253645",
"#  c #2A3C47",
"$  c #21334C",
"%  c #213857",
"&  c #213A5F",
"*  c #213F6C",
"=  c #2C404E",
"-  c #344B51",
";  c #3C5456",
":  c #2E4969",
">  c #224374",
",  c #23467A",
"<  c #24497E",
"1  c #37567B",
"2  c #405F52",
"3  c #456658",
"4  c #496D5E",
"5  c #475E62",
"6  c #486561",
"7  c #4B6E60",
"8  c #526E6E",
"9  c #4E7063",
"0  c #567F6D",
"q  c #5B7B6E",
"w  c #44657A",
"e  c #5C7773",
"r  c #5E7C75",
"t  c #54737A",
"y  c #627E79",
"u  c #777777",
"i  c #5C8474",
"p  c #5F8876",
"a  c #618077",
"s  c #658C7C",
"d  c #688E7E",
"f  c #254D83",
"g  c #2D5385",
"h  c #26518A",
"j  c #2A558E",
"k  c #385C83",
"l  c #30578A",
"z  c #295795",
"x  c #2B5995",
"c  c #2C5C9C",
"v  c #345C92",
"b  c #376199",
"n  c #3F689D",
"m  c #2C5FA0",
"M  c #2C62A5",
"N  c #2D66AB",
"B  c #2E68AE",
"V  c #3468A8",
"C  c #3C6DAB",
"Z  c #2F6CB4",
"A  c #326FB6",
"S  c #306FB8",
"D  c #3C76B7",
"F  c #3172BC",
"G  c #476688",
"H  c #4D6E8B",
"J  c #5F7D80",
"K  c #53738B",
"L  c #446B9D",
"P  c #467096",
"I  c #44709D",
"U  c #597B99",
"Y  c #777D86",
"T  c #426CA0",
"R  c #4972A3",
"E  c #4070AA",
"W  c #4A75AB",
"Q  c #4C78AD",
"!  c #5C7DA7",
"~  c #597FAC",
"^  c #457DBD",
"/  c #517DB2",
"(  c #3175C2",
")  c #5F8084",
"_  c #6B8E81",
"`  c #668289",
"'  c #6C8D8A",
"]  c #6B9080",
"[  c #719686",
"{  c #739B8A",
"}  c #7A9D8E",
"|  c #6F8398",
" . c #6D919C",
".. c #7D9F90",
"X. c #76A08E",
"o. c #7AA191",
"O. c #5983AE",
"+. c #5686BC",
"@. c #5886BC",
"#. c #5788B9",
"$. c #5C89BF",
"%. c #6381A9",
"&. c #658BAD",
"*. c #708AA8",
"=. c #6B93A6",
"-. c #7497A0",
";. c #6489B7",
":. c #698CB6",
">. c #6B99BF",
",. c #749CB4",
"<. c #779ABB",
"1. c #7FA8B9",
"2. c #5C8CC2",
"3. c #588FCB",
"4. c #608DC1",
"5. c #6291C3",
"6. c #6495C9",
"7. c #699ACE",
"8. c #6C9ED2",
"9. c #77A2CA",
"0. c #74A6DA",
"q. c #77A9DB",
"w. c #7CACDD",
"e. c #828F9F",
"r. c #8B939E",
"t. c #9F9F9F",
"y. c #82A395",
"u. c #87A79A",
"i. c #85AA9B",
"p. c #8BAA9E",
"a. c #8CA9A0",
"s. c #81A9AD",
"d. c #91AEA2",
"f. c #8DB4A5",
"g. c #8AB5AF",
"h. c #90B7A7",
"j. c #90B8A7",
"k. c #94BAAA",
"l. c #9ABAAD",
"z. c #9DA6B1",
"x. c #97A8B5",
"c. c #87B3BD",
"v. c #89B4BB",
"b. c #92B6B3",
"n. c #9ABEB0",
"m. c #A6A8AA",
"M. c #AEAEAE",
"N. c #A1BEB2",
"B. c #B1B1B1",
"V. c #BCBDBD",
"C. c #9DC0B2",
"Z. c #A5C2B5",
"A. c #A7C5B8",
"S. c #A9C4B9",
"D. c #ADCABE",
"F. c #8FB1C3",
"G. c #94B1D5",
"H. c #AABACE",
"J. c #AECDC0",
"K. c #B1CCC1",
"L. c #B0CBCA",
"P. c #B4D1C5",
"I. c #BAD2C9",
"U. c #CDCDCD",
"Y. c #C0D6CD",
"T. c #D1E2DB",
"R. c #C8D5E6",
"E. c #D3DBE5",
"W. c #E6E6E6",
"Q. c #E8E8E8",
"!. c #E5EBF4",
"~. c #F3F6FA",
"^. c None",
/* pixels */
"^.^.^.^.^.^.^.^.^.^.^.^.^.^.^.^.^.^.^.^.^.^.",
"^.^.A.D.K.T.T.T.T.J.J.J.J.T.T.T.T.P.J.A.^.^.",
"^.l.k.j.j.D.Y.Y.Y.n.h.j.n.Y.Y.Y.D.j.g.c.l.^.",
"^.j.f.j.k.k.I.L.F.1.s.k.S.Y.Y.I.l.v.q.=.j.^.",
"^.j.f.s.5.#.D S S 2.6.+.,.I.Y.Z.g.w.q.) f.^.",
"^.K.b.7.3.D F ( ^ 8.8.2./ &.D.k.1.w.8.a.K.^.",
"^.D.<.2.F F ( ( 2.2.4.2.Q z L f.8.q.7.K.J.^.",
"^.S.x.4.S F ( ( G.!.~.R.;.T x P G.0.5.S.S.^.",
"^.N.Y B S S F F E.W.W.u m.! x j O.8.O.Z.Z.^.",
"^.X.| B Z S Z Z H.U.U.t.V.! z h f 4.H a.o.^.",
"^.} G N B Z Z Z :.B.B.M.z.L f f < L t o.X.^.",
"^.{ k M N M B B V *.r.e.~ g f f < v ' } { ^.",
"^.{ w M M M M M m v T T l , f , > T  .o.{ ^.",
"^.a.` c c M m m z z h f f f , , > Q U d.p.^.",
"^.p.,.6.C m x c C +.2.h f f , > $ 1 W -.u.^.",
"^.o.H O./ / / / / 2.v f , , * % r 5 @ J y.^.",
"^...8 L I R R Q Q j , , > > % y { [ d d o.^.",
"^.s p = : k v l < , , > * $ y } [ [ d s d ^.",
"^.i p i 4 - $ * * * * $ @ e } } ] d s i i ^.",
"^.3 0 i a d y - # X # ; a [ [ [ d a i i 3 ^.",
"^.. 2 4 9 q q q q 7 4 4 9 q q q q 9 4 3 . ^.",
"^.^.^.                                ^.^.^."
};
