/* XPM */
static char *gcolor_[] = {
/* columns rows colors chars-per-pixel */
"22 22 201 2",
"   c #000000",
".  c #171517",
"X  c #3F3D0D",
"o  c #2F2E2F",
"O  c #302C2F",
"+  c #353235",
"@  c #3B3236",
"#  c #393C36",
"$  c #79110B",
"%  c #6E1B15",
"&  c #741311",
"*  c #7B1313",
"=  c #7D1A11",
"-  c #7F1918",
";  c #433435",
":  c #4B3632",
">  c #4E3A31",
",  c #642F32",
"<  c #6F3835",
"1  c #6E3E39",
"2  c #2A550C",
"3  c #2A580C",
"4  c #2D5612",
"5  c #2F5A12",
"6  c #305B14",
"7  c #336314",
"8  c #3A691C",
"9  c #3C4E2F",
"0  c #395524",
"q  c #385824",
"w  c #3B4334",
"e  c #3D4A32",
"r  c #3F613D",
"t  c #444531",
"y  c #47573D",
"u  c #4B5E3C",
"i  c #55583F",
"p  c #604B3F",
"a  c #443D41",
"s  c #444342",
"d  c #4D4244",
"f  c #474C43",
"g  c #494C47",
"h  c #4B464A",
"j  c #4C484E",
"k  c #544344",
"l  c #5B4442",
"z  c #544748",
"x  c #5C4C4B",
"c  c #4A5343",
"v  c #4C5A41",
"b  c #4C5249",
"n  c #525A4C",
"m  c #4F4C51",
"M  c #544E54",
"N  c #545653",
"B  c #5E5253",
"V  c #565159",
"C  c #5A555D",
"Z  c #624440",
"A  c #674D47",
"S  c #694D46",
"D  c #624C4A",
"F  c #65504F",
"G  c #6C534E",
"H  c #695554",
"J  c #526546",
"K  c #55624D",
"L  c #59674F",
"P  c #596A4C",
"I  c #5B6A50",
"U  c #5F5962",
"Y  c #615C66",
"T  c #645F68",
"R  c #4B6471",
"E  c #46687B",
"W  c #5E6A76",
"Q  c #66606A",
"!  c #69646D",
"~  c #6D6772",
"^  c #656A75",
"/  c #6E6872",
"(  c #656D78",
")  c #706B75",
"_  c #736D78",
"`  c #75707B",
"'  c #79737E",
"]  c #831A1A",
"[  c #802418",
"{  c #92371C",
"}  c #B73716",
"|  c #BB3217",
" . c #B33B17",
".. c #BB3318",
"X. c #B63D1A",
"o. c #BA3A1A",
"O. c #84282C",
"+. c #A23F20",
"@. c #C8351E",
"#. c #C1381D",
"$. c #CF3C25",
"%. c #D93326",
"&. c #D53927",
"*. c #DC372E",
"=. c #D63A28",
"-. c #B4451E",
";. c #B9411D",
":. c #AE4321",
">. c #B64720",
",. c #BD4726",
"<. c #B54D21",
"1. c #B84F23",
"2. c #CB4227",
"3. c #C94829",
"4. c #D3412B",
"5. c #D2492F",
"6. c #D34E34",
"7. c #D84F39",
"8. c #897E41",
"9. c #8F7E4A",
"0. c #DD4B40",
"q. c #DB5343",
"w. c #DC5748",
"e. c #DD5C4D",
"r. c #E16359",
"t. c #E56B62",
"y. c #E76F6C",
"u. c #E57069",
"i. c #EB7575",
"p. c #E87B76",
"a. c #EB7D7C",
"s. c #4F872A",
"d. c #558E33",
"f. c #54A42C",
"g. c #5CA333",
"h. c #57AB32",
"j. c #5DA934",
"k. c #5CB137",
"l. c #55BA36",
"z. c #58BA37",
"x. c #5DB63A",
"c. c #5ABB3B",
"v. c #61A536",
"b. c #60A837",
"n. c #63AC39",
"m. c #63B53E",
"M. c #5BBF40",
"N. c #5CC145",
"B. c #62C44B",
"V. c #66C651",
"C. c #69C653",
"Z. c #65C853",
"A. c #6CCA5A",
"S. c #938151",
"D. c #988557",
"F. c #9B885C",
"G. c #9F8C63",
"H. c #B09C75",
"J. c #81D072",
"K. c #3B7EA1",
"L. c #426F87",
"P. c #46748D",
"I. c #7D7780",
"U. c #398EBD",
"Y. c #5D9595",
"T. c #4384A5",
"R. c #4A85A1",
"E. c #6797BD",
"W. c #1C8CC9",
"Q. c #379ACF",
"!. c #2E9AD3",
"~. c #3099D1",
"^. c #51A7D6",
"/. c #5AAAD5",
"(. c #5FAED9",
"). c #61A0C2",
"_. c #61A8CF",
"`. c #72A6C9",
"'. c #64B3DC",
"]. c #7DBDD6",
"[. c #6BB7E0",
"{. c #6BB8E0",
"}. c #71BAE1",
"|. c #85818A",
" X c #949098",
".X c #9A969E",
"XX c #B9A583",
"oX c #BFAB8A",
"OX c #AEA2B3",
"+X c #B2AABB",
"@X c #EC8383",
"#X c #E1878A",
"$X c #ED8D8B",
"%X c #C5B296",
"&X c #CE9DA4",
"*X c #94CF91",
"=X c #9ED1A5",
"-X c #9BCBB9",
";X c #D3C5B2",
":X c #91C4C0",
">X c None",
/* pixels */
">X>X>X>X>X>X>X>X>X>X>X>X>X>X>X>X>X>X>X>X>X>X",
">X>X X.X.X.X.X.X.X.X.X.X.X.X.X.X.X.X.X X>X>X",
">X|.I.` ' ' ' ' ' ' I.' ' ' ' ' ' ` ` I.|.>X",
">XI._ _ ' ' ' ^ R P.T.R.P.E R W ` ' ` _ ' >X",
">X/ _ ^ R L.K.U.~.!.~.{.}.[.'._.).Y.r _ / >X",
">X~ _ O.&X+X`.Q.W.W.W.^./.(.].-X*XZ.5 / ~ >X",
">X! / ] @Xa.i.#X&XOXE./.:X=XJ.A.A.N.6 ~ ! >X",
">XQ ! ] a.$X$X$X@Xi.t.;XC.N.B.B.B.N.5 ~ Q >X",
">XQ Q ] u.p.p.p.p.p.*.%Xc.N.N.N.B.c.6 ! Q >X",
">XU Q ] r.t.t.t.t.7.%.XXl.l.c.c.M.c.5 Q Y >X",
">XU Q - w.e.e.e.0.=.=.XXz.z.l.z.x.c.4 T U >X",
">XC U ] 7.7.7.7.4.&.$.H.x.x.x.c.c.c.5 U C >X",
">XV U - 3.6.5.2.o.....G.f.h.k.x.m.m.5 V V >X",
">XV C - 6.3.o.} ..o.o.F.f.g.j.j.n.m.3 m j >X",
">XM V * ,. . . .X.X.o.F.g.g.j.n.d.4 e m m >X",
">Xm V , & - :.>.-.>.,.9.g.v.n.8 4 y n N m >X",
">Xj M B H < & = :.<.<.9.j.s.2 q J L K n b >X",
">Xh z x F F G 1 & $ { 8.7 4 u P L K n b g >X",
">Xa k z x x A A A 1 % X 0 J J J n n c f s >X",
">X+ a d k k l l Z Z p i v v v c c f s s + >X",
">X. o @ @ ; ; : : : > t e e w w # # # o . >X",
">X>X>X                                >X>X>X"
};
