/* XPM */
static char *googleearth[] = {
/* columns rows colors chars-per-pixel */
"22 22 185 2",
"   c #000000",
".  c #0D0A17",
"X  c #1C1631",
"o  c #221C36",
"O  c #221B39",
"+  c #182337",
"@  c #1B283F",
"#  c #212135",
"$  c #26213A",
"%  c #172C45",
"&  c #14324D",
"*  c #1A344F",
"=  c #163450",
"-  c #1A3955",
";  c #1E3D58",
":  c #2D2444",
">  c #202B41",
",  c #2F274B",
"<  c #30264B",
"1  c #332A4E",
"2  c #2B374B",
"3  c #333046",
"4  c #36314A",
"5  c #3E384F",
"6  c #352C50",
"7  c #382E54",
"8  c #263750",
"9  c #273C56",
"0  c #2C3A53",
"q  c #3D3456",
"w  c #303E55",
"e  c #3E3850",
"r  c #3E3559",
"t  c #463D5D",
"y  c #453A60",
"u  c #4A3F65",
"i  c #23415D",
"p  c #1D476C",
"a  c #234460",
"s  c #2A4D6F",
"d  c #394F6B",
"f  c #31516E",
"g  c #3C516A",
"h  c #214F77",
"j  c #2E5272",
"k  c #23527B",
"l  c #33597A",
"z  c #3D5D7C",
"x  c #4D4364",
"c  c #50456A",
"v  c #574E6D",
"b  c #41506B",
"n  c #564A70",
"m  c #435975",
"M  c #5C5076",
"N  c #5A5877",
"B  c #515F7A",
"V  c #61557B",
"C  c #62587A",
"Z  c #235580",
"A  c #265B87",
"S  c #2A5A86",
"D  c #305E85",
"F  c #3B6182",
"G  c #296190",
"H  c #2C6799",
"J  c #2F6C9E",
"K  c #366791",
"L  c #376B97",
"P  c #3C6C96",
"I  c #3B719E",
"U  c #306FA3",
"Y  c #3B74A3",
"T  c #3274AC",
"R  c #3878AD",
"E  c #3479B2",
"W  c #387DB7",
"Q  c #665B81",
"!  c #466481",
"~  c #4E6582",
"^  c #41688F",
"/  c #5E6D89",
"(  c #5D718C",
")  c #446F95",
"_  c #5A6F95",
"`  c #497294",
"'  c #5A7694",
"]  c #5A7897",
"[  c #5E7499",
"{  c #5C7D9C",
"}  c #6C6086",
"|  c #72658C",
" . c #756B8E",
".. c #756C91",
"X. c #7D6F97",
"o. c #637493",
"O. c #627F9D",
"+. c #7E7295",
"@. c #4C7AA1",
"#. c #417DAE",
"$. c #4A7EAA",
"%. c #527DA2",
"&. c #597FA5",
"*. c #457FB1",
"=. c #81749C",
"-. c #867A9F",
";. c #887D9D",
":. c #8B7DA3",
">. c #3B80B9",
",. c #65829F",
"<. c #4480B2",
"1. c #4C84B4",
"2. c #4183BA",
"3. c #5084B0",
"4. c #5588B3",
"5. c #5C8BB3",
"6. c #5990BF",
"7. c #6482A0",
"8. c #648CAF",
"9. c #738DAB",
"0. c #7691AE",
"q. c #7893AE",
"w. c #628CB1",
"e. c #6091BB",
"r. c #6E99BF",
"t. c #7A94B0",
"y. c #7B9BB8",
"u. c #4C8DC2",
"i. c #4C90C5",
"p. c #5591C3",
"a. c #5A93C1",
"s. c #5598CB",
"d. c #5A9CCF",
"f. c #6498C3",
"g. c #5DA0D1",
"h. c #6FA2CD",
"j. c #65A5D4",
"k. c #66A8D7",
"l. c #70B1DE",
"z. c #76B6E2",
"x. c #79B9E5",
"c. c #8E81A6",
"v. c #8F81A8",
"b. c #9082A6",
"n. c #9184AA",
"m. c #998FAE",
"M. c #809CBC",
"N. c #A89DBC",
"B. c #83A0BF",
"V. c #89A2BC",
"C. c #84A5C2",
"Z. c #8BA8C2",
"A. c #84ABCC",
"S. c #94ACC2",
"D. c #94ADC9",
"F. c #9CB2CC",
"G. c #81AED3",
"H. c #9BBDD9",
"J. c #AEA3C2",
"K. c #A1B7CE",
"L. c #A5BACE",
"P. c #A7BBD2",
"I. c #AABED1",
"U. c #80BFEA",
"Y. c #AEC0D3",
"T. c #B2C3D6",
"R. c #B5C6D9",
"E. c #BCCBDB",
"W. c #98C3E3",
"Q. c #92CDF3",
"!. c #B2CEE5",
"~. c #BBD2E5",
"^. c #C3D1DF",
"/. c #C0D5E6",
"(. c #CBD7E5",
"). c #C6D8E7",
"_. c #D1DEE8",
"`. c #CFE6F6",
"'. c #D0E3F1",
"]. c #EAEEF1",
"[. c #EFF3F6",
"{. c #F1F4F6",
"}. c #F6F9FB",
"|. c #FAFAFA",
" X c None",
/* pixels */
" X X X X X X X X X X X X X X X X X X X X X X",
" X XN.J.J.J.J.J.J.J.J.J.J.J.J.J.J.J.J.N. X X",
" Xm.n.b.n.n.n.v.n.v.c.c.c.n.n.n.v.v.v.v.m. X",
" X:.:.v.v.n.v...[ q.S.Z.9.o. .n.n.v.c.:.v. X",
" X=.-.:.:.;._ w.<.1.4.5.V.~.S.( c.c.;.:.=. X",
" XX.=.-.=.&.~.|.{.H.>.R J ` L.Y.B =.-.+.X. X",
" X..X.+.o.].|.|.|.|.~.>.R { 3.I.K.B =.+... X",
" X| ..N (.~.!.'.}.|.|.~.6.3.3.] P.9.N  .|  X",
" X| } ( A.h.j.z.Q.`.|.|.).4.L D 7.D.b } }  X",
" XC C ^ <.u.d.l.Q.x.W.{.|._.8.` l f 9 C Q  X",
" XV v P #.W i.g.g.g.s.G._.[./.{ j a * v C  X",
" XM x A Y <.a.p.u.u.>.a.r.V.R.T.] i * x M  X",
" Xn x s D Y 6.f.<.R T U I K ) ,.9.y.m c n  X",
" Xc x 8 ` y.8.5.5.<.H H A k z s i = 0 x c  X",
" Xu x 3 V.^.(.Y.y.P A k k p s a ; & 4 x u  X",
" Xy x t i L.R.E.E.R.S.q.] z z ' 7.0 t x y  X",
" Xr y x 5 d D.K.7.t.V.D.D.B.0.,.d 5 x t q  X",
" X7 q y t 3 2 ] & * = & - & & > 3 t y q 7  X",
" X, 6 q q t 4 # + % & & % @ $ 4 r r r 1 ,  X",
" XO : < < 6 6 : $ $ o o $ : : 1 1 1 , : O  X",
" X. X O O O O O O O o O O O O O O O O X .  X",
" X X X                                 X X X"
};
