/* XPM */
static char *gtk_recordmydesktop[] = {
/* columns rows colors chars-per-pixel */
"22 22 126 2",
"   c #000000",
".  c #3C460C",
"X  c #69791C",
"o  c #6B7A20",
"O  c #73851A",
"+  c #76891D",
"@  c #788B1F",
"#  c #728327",
"$  c #778924",
"%  c #798D22",
"&  c #77882F",
"*  c #798A2F",
"=  c #7C9126",
"-  c #7E952A",
";  c #768E36",
":  c #788F34",
">  c #7A8E38",
",  c #7A9236",
"<  c #7C933D",
"1  c #81941B",
"2  c #869A20",
"3  c #81932E",
"4  c #82992E",
"5  c #819434",
"6  c #839C31",
"7  c #8A9E36",
"8  c #849639",
"9  c #849A3C",
"0  c #899D3B",
"q  c #94A922",
"w  c #85A035",
"e  c #8EA134",
"r  c #87A239",
"t  c #8BA43B",
"y  c #8AA83D",
"u  c #94AC3B",
"i  c #9AAF3B",
"p  c #A7C02A",
"a  c #ADC72C",
"s  c #AEC82F",
"d  c #ACC731",
"f  c #AFC932",
"g  c #ACC73B",
"h  c #AFC93C",
"j  c #B0CA36",
"k  c #B2CB3E",
"l  c #839A46",
"z  c #899C45",
"x  c #8A9F4D",
"c  c #8FA144",
"v  c #8AA24F",
"b  c #91A043",
"n  c #94AB44",
"m  c #99AE45",
"M  c #96A848",
"N  c #98AD4E",
"B  c #9FB345",
"V  c #9DB34A",
"C  c #8EA450",
"Z  c #90A751",
"A  c #95AB56",
"S  c #98AE57",
"D  c #98A85E",
"F  c #9AB152",
"G  c #9DB35B",
"H  c #A2B84D",
"J  c #A2B453",
"K  c #A5BB55",
"L  c #A7B75C",
"P  c #A6BB5B",
"I  c #9FB168",
"U  c #A4BC60",
"Y  c #A9BD63",
"T  c #ACBF73",
"R  c #ACC743",
"E  c #AFC943",
"W  c #ACC54D",
"Q  c #AFC94C",
"!  c #B4CC43",
"~  c #B4CC4B",
"^  c #B8CF4A",
"/  c #BAD04E",
"(  c #ACC753",
")  c #AFC954",
"_  c #ADC55C",
"`  c #AFC95D",
"'  c #B2C753",
"]  c #B7CE51",
"[  c #B8CE56",
"{  c #B1C55A",
"}  c #B7CE5C",
"|  c #B8CE5B",
" . c #BAD057",
".. c #BAD05C",
"X. c #ADC364",
"o. c #AFC862",
"O. c #ACC668",
"+. c #AFC96A",
"@. c #B4C466",
"#. c #B6CD64",
"$. c #B8CE63",
"%. c #B2CA6B",
"&. c #B9CE6A",
"*. c #BCD163",
"=. c #BCD06B",
"-. c #B2C574",
";. c #B6CC73",
":. c #B9CD74",
">. c #B4C77C",
",. c #B3C87B",
"<. c #B9CC7E",
"1. c #BBD170",
"2. c #BED17F",
"3. c #C1D661",
"4. c #C2D573",
"5. c #C7D976",
"6. c #C4D57C",
"7. c #C7DA78",
"8. c #BBCD84",
"9. c #BBCF89",
"0. c #BFD28C",
"q. c #C1D382",
"w. c #C1D58E",
"e. c #C7D98E",
"r. c #C8D98D",
"t. c None",
/* pixels */
"t.t.t.t.t.t.t.t.t.t.t.t.t.t.t.t.t.t.t.t.t.t.",
"t.t.9.w.w.w.w.w.w.w.0.0.e.0.0.e.w.w.w.9.t.t.",
"t.,.%.O.+.+.+.%.O.C l < ; ; l l C U O.+.,.t.",
"t.+.o.+.+.;.%.Z ; r c y y y y c r , l o.+.t.",
"t.o.o.%.%.X.< G 8.0.w.8.,.F y y r y r , F t.",
"t._ o.%.+.x 0.<.S G %.;.;.0.,.y r r r r , t.",
"t._ ` #.S T ; : A Z ; ; O.%.&.9.r w w w r t.",
"t.( ` F I 9 8.r.2.q.e.-., X.&.&.+.4 w w w t.",
"t.( ` P 5 <.&.L c P &.&.,., #.&.=.n 6 w - t.",
"t.Q ) G P #.z D <.D 0 #.=.N K #.=.V - - 6 t.",
"t.W Q M _ _ b 3.#.=.c ` $.J V $.#.K 4 - - t.",
"t.R ' u V #.0 @.} #.7 #.} n H $.} V = 4 - t.",
"t.R Q H 7 | Y 3 8 3 Y | | 4 { } } e = = = t.",
"t.R R [ 5 m 3.q.<.q.3.| 0 M | | | = % % % t.",
"t.g ! ~ @.$ 5 P [ [ ' * 5 &.| [ 0 % % % % t.",
"t.g R ~ ] 5.J o X X o Y 4.] ] H O + @ @ @ t.",
"t.d h ! ~ ~ { 7.6.6.4. .] ] 3 X 1 O O e 3.t.",
"t.d d ! ~ ~ ] J 3 e i 4 $ X O o O O L  .d t.",
"t.p d f k k k ! 3.L 0 7 + O e L Y 3.k s p t.",
"t.2 p a s s s j j j j / 3.3./ k f s s p 2 t.",
"t.. 1 q q q q q q q q q q q q q q q q 1 . t.",
"t.t.t.                                t.t.t."
};
