/* XPM */
static char *xchat[] = {
/* columns rows colors chars-per-pixel */
"22 22 102 2",
"   c #000000",
".  c #273908",
"X  c #527316",
"o  c #527910",
"O  c #55741A",
"+  c #687E3C",
"@  c #5C8216",
"#  c #5F8A13",
"$  c #5F8518",
"%  c #61861C",
"&  c #678E1C",
"*  c #69911C",
"=  c #6E991C",
"-  c #709D1D",
";  c #6EA017",
":  c #6FA018",
">  c #73A51B",
",  c #77A91B",
"<  c #79AC1D",
"1  c #7DB01F",
"2  c #668921",
"3  c #688C23",
"4  c #6C9322",
"5  c #739C23",
"6  c #72952D",
"7  c #749A2A",
"8  c #799F2A",
"9  c #6B833D",
"0  c #6F8B38",
"q  c #76A222",
"w  c #79A624",
"e  c #7CAD23",
"r  c #7DA62A",
"t  c #7FA92A",
"y  c #7EB023",
"u  c #7EA436",
"i  c #74894B",
"p  c #80AE27",
"a  c #80A72F",
"s  c #82AC2D",
"d  c #82B425",
"f  c #85B826",
"g  c #85B42B",
"h  c #89B52F",
"j  c #86B828",
"k  c #8ABA2D",
"l  c #84AC32",
"z  c #83AC3B",
"x  c #85B430",
"c  c #8AB433",
"v  c #8DBA32",
"b  c #87B23A",
"n  c #8CB63A",
"m  c #8DBA3A",
"M  c #90BF33",
"N  c #91BB3C",
"B  c #8DC02C",
"V  c #93C433",
"C  c #99CC36",
"Z  c #9CCC3B",
"A  c #9ED236",
"S  c #A1D43A",
"D  c #A5D83C",
"F  c #A9DD3E",
"G  c #8CAC4D",
"H  c #8EB444",
"J  c #8EB940",
"K  c #8FB24B",
"L  c #90B942",
"P  c #96BC49",
"I  c #90AE55",
"U  c #9AB95C",
"Y  c #8A9F63",
"T  c #8C9A6F",
"R  c #8E9D70",
"E  c #A4BC75",
"W  c #9DC940",
"Q  c #A0CE42",
"!  c #A3D440",
"~  c #AADC42",
"^  c #ADDD48",
"/  c #B5DF5C",
"(  c #AEE242",
")  c #AFE148",
"_  c #B1E444",
"`  c #B1E24A",
"'  c #C0E66D",
"]  c #C5EC73",
"[  c #A6B684",
"{  c #ABB499",
"}  c #ACC180",
"|  c #B4C496",
" . c #BBD090",
".. c #D4DEBF",
"X. c #D0D5C7",
"o. c #D4DBC5",
"O. c #DADED3",
"+. c #DFE5D2",
"@. c #EBECEA",
"#. c #F5F5F5",
"$. c #FAFAFA",
"%. c None",
/* pixels */
"%.%.%.%.%.%.%.%.%.%.%.%.%.%.%.%.%.%.%.%.%.%.",
"%.%.' ] ] ] ] ] ] ] ] ] ] ] ] ] ] ] ] ' %.%.",
"%./ ` _ _ ( _ _ _ _ _ _ _ _ _ _ _ _ _ ` / %.",
"%.` F F ( F ~ ^ ` ` ` ` ` ) ) ^ ( F F ~ ` %.",
"%.F D ~ ~ ~ ^ W n l a a c N Q ^ ~ ~ ~ D F %.",
"%.D D D ~ Q l 8 s h v v v h s c ! ~ D D S %.",
"%.S S ~ W 7 r g h P $.N  ...M h s Q ! S S %.",
"%.A S Z 7 r s s n E O.v o.[ M M k s ! S A %.",
"%.Z Z l 5 a s E $.$.$.$.$.$.+.k v g v Z C %.",
"%.C Z 7 5 w p 6 + @.T R @.9 0 k k g l Z C %.",
"%.C Z % 5 w w K U $.I | X.P h g j j 5 Z V %.",
"%.V C 6 4 5 5 #.#.#.#.#.#.#.K p g t r V V %.",
"%.B V u & 5 5 X { { O @.i O q p y q x V B %.",
"%.k k N 2 * - 5 O.Y G @.5 < < p w 5 N v k %.",
"%.f j k n 2 * = X & * O > - > 5 4 J k f f %.",
"%.d d j h L 2 * = = - - - = * 7 n k f d d %.",
"%.1 d y d k 7 $ $ % $ $ 4 7 b m y y y 1 1 %.",
"%.< < < e w @ @ u J J J m b y y y e < , < %.",
"%.: , , q 7 u b y e e < e e , , e , , , , %.",
"%.@ : > > , > > > > > > ; > > > ; > > ; @ %.",
"%.. o # # # # # # # # & # # # # # # # o . %.",
"%.%.%.                                %.%.%."
};
