<!-- Created with Inkscape (http://www.inkscape.org/) -->
<svg xmlns:dc="http://purl.org/dc/elements/1.1/" xmlns:cc="http://creativecommons.org/ns#" xmlns:rdf="http://www.w3.org/1999/02/22-rdf-syntax-ns#" xmlns:svg="http://www.w3.org/2000/svg" xmlns="http://www.w3.org/2000/svg" xmlns:xlink="http://www.w3.org/1999/xlink" xmlns:sodipodi="http://sodipodi.sourceforge.net/DTD/sodipodi-0.dtd" xmlns:inkscape="http://www.inkscape.org/namespaces/inkscape" width="128" height="128" id="svg27810" version="1.1" inkscape:version="0.48.4 r9939" sodipodi:docname="folder-music.svg">
  <defs id="defs27812">
    <linearGradient inkscape:collect="always" xlink:href="#linearGradient8272" id="linearGradient22310" gradientUnits="userSpaceOnUse" gradientTransform="matrix(2.6658408,0,0,2.7170994,-143.33283,-69.198823)" x1="97.538795" y1="16.962049" x2="97.538795" y2="44.260689"/>
    <linearGradient id="linearGradient8272">
      <stop offset="0" style="stop-color:#ffffff;stop-opacity:1" id="stop8274"/>
      <stop offset="0.0221225" style="stop-color:#ffffff;stop-opacity:0.23529412" id="stop8276"/>
      <stop offset="0.97909725" style="stop-color:#ffffff;stop-opacity:0.15686275" id="stop8278"/>
      <stop offset="1" style="stop-color:#ffffff;stop-opacity:0.39215687" id="stop8280"/>
    </linearGradient>
    <linearGradient inkscape:collect="always" xlink:href="#linearGradient6129-963-697-142-998-580-273" id="linearGradient22304" gradientUnits="userSpaceOnUse" gradientTransform="matrix(3.036796,0,0,2.6909701,-8.8831134,-65.364613)" x1="22.934725" y1="49.629246" x2="22.934725" y2="36.599415"/>
    <linearGradient id="linearGradient6129-963-697-142-998-580-273">
      <stop id="stop2661" style="stop-color:#0a0a0a;stop-opacity:0.498" offset="0"/>
      <stop id="stop2663" style="stop-color:#0a0a0a;stop-opacity:0" offset="1"/>
    </linearGradient>
    <linearGradient inkscape:collect="always" xlink:href="#linearGradient4632-0-6-4" id="linearGradient22298" gradientUnits="userSpaceOnUse" gradientTransform="matrix(1,0,0,1.0266674,147,-70.186593)" x1="-91" y1="43.999817" x2="-91" y2="119.05979"/>
    <linearGradient id="linearGradient4632-0-6-4">
      <stop style="stop-color:#feec96;stop-opacity:1;" offset="0" id="stop4634-4-4-7"/>
      <stop style="stop-color:#fbd574;stop-opacity:1;" offset="1" id="stop4636-3-1-5"/>
    </linearGradient>
    <linearGradient inkscape:collect="always" xlink:href="#linearGradient5048-585" id="linearGradient22288" gradientUnits="userSpaceOnUse" gradientTransform="matrix(0.2134205,0,0,0.06641689,-13.147881,75.518568)" x1="302.85715" y1="366.64789" x2="302.85715" y2="609.50507"/>
    <linearGradient id="linearGradient5048-585">
      <stop id="stop2667" style="stop-color:#000000;stop-opacity:0" offset="0"/>
      <stop id="stop2669" style="stop-color:#000000;stop-opacity:1" offset="0.5"/>
      <stop id="stop2671" style="stop-color:#000000;stop-opacity:0" offset="1"/>
    </linearGradient>
    <radialGradient inkscape:collect="always" xlink:href="#linearGradient5060-179" id="radialGradient22290" gradientUnits="userSpaceOnUse" gradientTransform="matrix(0.08277507,0,0,0.06641689,65.628912,75.518568)" cx="605.71429" cy="486.64789" fx="605.71429" fy="486.64789" r="117.14286"/>
    <linearGradient id="linearGradient5060-179">
      <stop id="stop2675" style="stop-color:#000000;stop-opacity:1" offset="0"/>
      <stop id="stop2677" style="stop-color:#000000;stop-opacity:0" offset="1"/>
    </linearGradient>
    <radialGradient inkscape:collect="always" xlink:href="#linearGradient5060-820" id="radialGradient22292" gradientUnits="userSpaceOnUse" gradientTransform="matrix(-0.08277505,0,0,0.06641689,62.347829,75.518568)" cx="605.71429" cy="486.64789" fx="605.71429" fy="486.64789" r="117.14286"/>
    <linearGradient id="linearGradient5060-820">
      <stop id="stop2681" style="stop-color:#000000;stop-opacity:1" offset="0"/>
      <stop id="stop2683" style="stop-color:#000000;stop-opacity:0" offset="1"/>
    </linearGradient>
    <linearGradient inkscape:collect="always" xlink:href="#linearGradient9235" id="linearGradient22278" gradientUnits="userSpaceOnUse" gradientTransform="matrix(2.6658408,0,0,2.6469079,-143.33283,-66.049513)" x1="97.538795" y1="8.8103228" x2="97.538795" y2="44.260689"/>
    <linearGradient id="linearGradient9235">
      <stop id="stop9237" style="stop-color:#ffffff;stop-opacity:1" offset="0"/>
      <stop id="stop9239" style="stop-color:#ffffff;stop-opacity:0.23529412" offset="0.1088333"/>
      <stop id="stop9241" style="stop-color:#ffffff;stop-opacity:0.15686275" offset="0.97909725"/>
      <stop id="stop9243" style="stop-color:#ffffff;stop-opacity:0.39215687" offset="1"/>
    </linearGradient>
    <linearGradient inkscape:collect="always" xlink:href="#linearGradient3104-8-8-97-4-6-11-5-5-1-0" id="linearGradient22272" gradientUnits="userSpaceOnUse" gradientTransform="matrix(2.1683519,0,0,2.2464645,141.9485,-68.590473)" x1="-51.786404" y1="53.514328" x2="-51.786404" y2="3.6336823"/>
    <linearGradient id="linearGradient3104-8-8-97-4-6-11-5-5-1-0">
      <stop offset="0" style="stop-color:#000000;stop-opacity:0.32173914" id="stop3106-5-4-3-5-0-2-1-0-1-2"/>
      <stop offset="1" style="stop-color:#000000;stop-opacity:0.27826086" id="stop3108-4-3-7-8-2-0-7-9-4-9"/>
    </linearGradient>
    <linearGradient id="linearGradient6404-7-5">
      <stop id="stop6406-1-8" style="stop-color:#f9f9f9;stop-opacity:1" offset="0"/>
      <stop id="stop6408-9-6" style="stop-color:#c9c9c9;stop-opacity:1" offset="1"/>
    </linearGradient>
    <linearGradient y2="16.997795" x2="62.988873" y1="14.090554" x1="62.988873" gradientTransform="matrix(2.7209303,0,0,2.6722576,-117.2202,-66.213873)" gradientUnits="userSpaceOnUse" id="linearGradient27808" xlink:href="#linearGradient6404-7-5" inkscape:collect="always"/>
    <linearGradient gradientUnits="userSpaceOnUse" y2="119.58727" x2="58.322033" y1="45.66098" x1="58.322033" id="linearGradient3851" xlink:href="#linearGradient7012-661-145-733-759-865-745" inkscape:collect="always"/>
    <radialGradient r="21" fy="5.01718" fx="3" cy="5.01718" cx="3" gradientTransform="matrix(0,4.5810288,-7.2733208,0,40.564727,8.420764)" gradientUnits="userSpaceOnUse" id="radialGradient3077" xlink:href="#linearGradient3484" inkscape:collect="always"/>
    <linearGradient y2="17.324797" x2="62.988873" y1="12.724592" x1="62.988873" gradientTransform="matrix(2.7209303,0,0,2.6722576,-139.90895,0.786121)" gradientUnits="userSpaceOnUse" id="linearGradient3075" xlink:href="#linearGradient6404" inkscape:collect="always"/>
    <linearGradient y2="7.6327758" x2="82.453476" y1="45.114193" x1="82.453476" gradientTransform="matrix(2.6658408,0,0,2.6469079,-143.33284,0.950487)" gradientUnits="userSpaceOnUse" id="linearGradient3072" xlink:href="#linearGradient3390" inkscape:collect="always"/>
    <linearGradient y2="36.599415" x2="22.934725" y1="49.629246" x1="22.934725" gradientTransform="matrix(3.036796,0,0,2.6219687,-8.883109,4.670467)" gradientUnits="userSpaceOnUse" id="linearGradient3067" xlink:href="#linearGradient6129-963-697-142-998-580-273-6" inkscape:collect="always"/>
    <radialGradient r="61" fy="14.298984" fx="32.264069" cy="14.298984" cx="32.264069" gradientTransform="matrix(0,1.1019148,-1.5096234,0,53.85015,9.256939)" gradientUnits="userSpaceOnUse" id="radialGradient3064" xlink:href="#linearGradient6087-437-184-795-110-662-495" inkscape:collect="always"/>
    <linearGradient y2="33.95525" x2="15.214532" y1="22.292103" x1="11.566265" gradientTransform="matrix(2.6482074,0,0,2.640269,0.43155844,1.793761)" gradientUnits="userSpaceOnUse" id="linearGradient3061" xlink:href="#linearGradient8265-821-176-38-919-66-249" inkscape:collect="always"/>
    <radialGradient r="5.7384715" fy="37.841019" fx="14.757765" cy="41.058823" cx="17.058823" gradientTransform="matrix(2.0040184,-0.33188368,0.04374149,1.9132533,66.517835,33.105538)" gradientUnits="userSpaceOnUse" id="radialGradient3057" xlink:href="#linearGradient3668" inkscape:collect="always"/>
    <linearGradient y2="233.02061" x2="33.399887" y1="120.82745" x1="33.399887" gradientTransform="matrix(0.59273948,0,0,0.59052393,62.337392,-13.419687)" gradientUnits="userSpaceOnUse" id="linearGradient3054" xlink:href="#linearGradient2372" inkscape:collect="always"/>
    <radialGradient r="5.7384715" fy="37.45607" fx="14.68769" cy="41.058823" cx="17.058823" gradientTransform="matrix(1.9168866,-0.34337478,0.067302,1.8255217,33.536835,44.403733)" gradientUnits="userSpaceOnUse" id="radialGradient3051" xlink:href="#linearGradient7067" inkscape:collect="always"/>
    <radialGradient gradientTransform="matrix(-0.08277505,0,0,0.06641689,62.347829,75.518568)" gradientUnits="userSpaceOnUse" xlink:href="#linearGradient5060-820-7" id="radialGradient4735" fy="486.64789" fx="605.71429" r="117.14286" cy="486.64789" cx="605.71429"/>
    <linearGradient id="linearGradient5060-820-7">
      <stop offset="0" style="stop-color:#000000;stop-opacity:1" id="stop2681-3"/>
      <stop offset="1" style="stop-color:#000000;stop-opacity:0" id="stop2683-7"/>
    </linearGradient>
    <linearGradient id="linearGradient5060-179-5">
      <stop offset="0" style="stop-color:#000000;stop-opacity:1" id="stop2675-2"/>
      <stop offset="1" style="stop-color:#000000;stop-opacity:0" id="stop2677-7"/>
    </linearGradient>
    <radialGradient gradientTransform="matrix(0.08277507,0,0,0.06641689,65.628912,75.518568)" gradientUnits="userSpaceOnUse" xlink:href="#linearGradient5060-179-5" id="radialGradient2486" fy="486.64789" fx="605.71429" r="117.14286" cy="486.64789" cx="605.71429"/>
    <linearGradient id="linearGradient5048-585-5">
      <stop offset="0" style="stop-color:#000000;stop-opacity:0" id="stop2667-5"/>
      <stop offset="0.5" style="stop-color:#000000;stop-opacity:1" id="stop2669-5"/>
      <stop offset="1" style="stop-color:#000000;stop-opacity:0" id="stop2671-1"/>
    </linearGradient>
    <linearGradient gradientTransform="matrix(0.2134205,0,0,0.06641689,-13.147881,75.518568)" gradientUnits="userSpaceOnUse" xlink:href="#linearGradient5048-585-5" id="linearGradient2484" y2="609.50507" x2="302.85715" y1="366.64789" x1="302.85715"/>
    <linearGradient id="linearGradient3484">
      <stop offset="0" style="stop-color:#bdbdbd;stop-opacity:1" id="stop3486"/>
      <stop offset="1" style="stop-color:#d0d0d0;stop-opacity:1" id="stop3488"/>
    </linearGradient>
    <radialGradient gradientTransform="matrix(0,4.5810288,-7.2733208,0,40.564727,-55.579236)" gradientUnits="userSpaceOnUse" xlink:href="#linearGradient3484" id="radialGradient2448" fy="5.01718" fx="3" r="21" cy="5.01718" cx="3"/>
    <linearGradient id="linearGradient6404">
      <stop offset="0" style="stop-color:#f9f9f9;stop-opacity:1" id="stop6406"/>
      <stop offset="1" style="stop-color:#c9c9c9;stop-opacity:1" id="stop6408"/>
    </linearGradient>
    <linearGradient gradientTransform="matrix(2.7209303,0,0,2.6722576,-139.90895,-63.213879)" gradientUnits="userSpaceOnUse" xlink:href="#linearGradient6404" id="linearGradient2446" y2="17.324797" x2="62.988873" y1="12.724592" x1="62.988873"/>
    <linearGradient id="linearGradient3390">
      <stop offset="0" style="stop-color:#51751e;stop-opacity:1" id="stop3392"/>
      <stop offset="1" style="stop-color:#51751e;stop-opacity:1" id="stop3394"/>
    </linearGradient>
    <linearGradient gradientTransform="matrix(2.6658408,0,0,2.6469079,-143.33284,-63.049513)" gradientUnits="userSpaceOnUse" xlink:href="#linearGradient3390" id="linearGradient2443" y2="7.6327758" x2="82.453476" y1="45.114193" x1="82.453476"/>
    <linearGradient id="linearGradient7012-661-145-733-759-865-745">
      <stop offset="0" style="stop-color:#aacb7d;stop-opacity:1" id="stop2699"/>
      <stop offset="1" style="stop-color:#709937;stop-opacity:1" id="stop2701"/>
    </linearGradient>
    <radialGradient gradientTransform="matrix(4.1712212,-2.5183476e-7,1.6467508e-7,2.688962,-229.83186,-41.185231)" gradientUnits="userSpaceOnUse" xlink:href="#linearGradient7012-661-145-733-759-865-745" id="radialGradient2441" fy="14.113381" fx="63.969177" r="23.097054" cy="14.113381" cx="63.969177"/>
    <linearGradient id="linearGradient6129-963-697-142-998-580-273-6">
      <stop offset="0" style="stop-color:#0a0a0a;stop-opacity:0.498" id="stop2661-5"/>
      <stop offset="1" style="stop-color:#0a0a0a;stop-opacity:0" id="stop2663-1"/>
    </linearGradient>
    <linearGradient gradientTransform="matrix(3.036796,0,0,2.6219687,-8.883109,-59.329533)" gradientUnits="userSpaceOnUse" xlink:href="#linearGradient6129-963-697-142-998-580-273-6" id="linearGradient2438" y2="36.599415" x2="22.934725" y1="49.629246" x1="22.934725"/>
    <linearGradient id="linearGradient6087-437-184-795-110-662-495">
      <stop offset="0" style="stop-color:#ffffff;stop-opacity:0.40000001" id="stop2693"/>
      <stop offset="1" style="stop-color:#ffffff;stop-opacity:0" id="stop2695"/>
    </linearGradient>
    <radialGradient gradientTransform="matrix(0,1.1019148,-1.5096234,0,53.85015,-54.743061)" gradientUnits="userSpaceOnUse" xlink:href="#linearGradient6087-437-184-795-110-662-495" id="radialGradient2435" fy="14.298984" fx="32.264069" r="61" cy="14.298984" cx="32.264069"/>
    <linearGradient id="linearGradient8265-821-176-38-919-66-249">
      <stop offset="0" style="stop-color:#ffffff;stop-opacity:0.2" id="stop2687"/>
      <stop offset="1" style="stop-color:#ffffff;stop-opacity:0" id="stop2689"/>
    </linearGradient>
    <linearGradient gradientTransform="matrix(2.6482074,0,0,2.640269,0.43155844,-62.206239)" gradientUnits="userSpaceOnUse" xlink:href="#linearGradient8265-821-176-38-919-66-249" id="linearGradient2432" y2="33.95525" x2="15.214532" y1="22.292103" x1="11.566265"/>
    <linearGradient id="linearGradient3668">
      <stop offset="0" style="stop-color:#ffffff;stop-opacity:1" id="stop3670"/>
      <stop offset="1" style="stop-color:#ffffff;stop-opacity:0" id="stop3672"/>
    </linearGradient>
    <radialGradient gradientTransform="matrix(2.0040184,-0.33188368,0.04374149,1.9132533,66.517835,-30.894462)" gradientUnits="userSpaceOnUse" xlink:href="#linearGradient3668" id="radialGradient4132" fy="37.841019" fx="14.757765" r="5.7384715" cy="41.058823" cx="17.058823"/>
    <linearGradient id="linearGradient2372">
      <stop offset="0" style="stop-color:#ffffff;stop-opacity:1" id="stop2374"/>
      <stop offset="1" style="stop-color:#ffffff;stop-opacity:0" id="stop2376"/>
    </linearGradient>
    <linearGradient gradientTransform="matrix(0.59273948,0,0,0.59052393,62.337392,-77.419687)" gradientUnits="userSpaceOnUse" xlink:href="#linearGradient2372" id="linearGradient4655" y2="233.02061" x2="33.399887" y1="120.82745" x1="33.399887"/>
    <linearGradient id="linearGradient7067">
      <stop offset="0" style="stop-color:#ffffff;stop-opacity:1" id="stop7069"/>
      <stop offset="1" style="stop-color:#ffffff;stop-opacity:0" id="stop7071"/>
    </linearGradient>
    <radialGradient gradientTransform="matrix(1.9168866,-0.34337478,0.067302,1.8255217,33.536835,-19.596267)" gradientUnits="userSpaceOnUse" xlink:href="#linearGradient7067" id="radialGradient4126" fy="37.45607" fx="14.68769" r="5.7384715" cy="41.058823" cx="17.058823"/>
  </defs>
  <sodipodi:namedview id="base" pagecolor="#ffffff" bordercolor="#666666" borderopacity="1.0" inkscape:pageopacity="0.0" inkscape:pageshadow="2" inkscape:zoom="5.5" inkscape:cx="-1.0909091" inkscape:cy="32" inkscape:current-layer="layer1" showgrid="true" inkscape:document-units="px" inkscape:grid-bbox="true" inkscape:window-width="1920" inkscape:window-height="1030" inkscape:window-x="0" inkscape:window-y="0" inkscape:window-maximized="1"/>
  <metadata id="metadata27815">
    <rdf:RDF>
      <cc:Work rdf:about="">
        <dc:format>image/svg+xml</dc:format>
        <dc:type rdf:resource="http://purl.org/dc/dcmitype/StillImage"/>
        <dc:title/>
      </cc:Work>
    </rdf:RDF>
  </metadata>
  <g id="layer1" inkscape:label="Layer 1" inkscape:groupmode="layer" transform="translate(0,64)">
    <path id="use12209" d="m 12.999997,-42.968593 c -1.108,0 -2,0.892 -2,2 l 0,5.96875 -3.0000004,0 c -1.108,0 -2,0.892 -2,2 l 0,11 c 0,1.108 0.892,2 2,2 l 112.0000034,0 c 1.108,0 2,-0.892 2,-2 l 0,-11 c 0,-1.108 -0.892,-2 -2,-2 l -63,0 0,-5.96875 c 0,-1.108 -0.892,-2 -2,-2 l -42.000003,0 z" style="color:#000000;fill:url(#linearGradient27808);fill-opacity:1;fill-rule:nonzero;stroke:none;stroke-width:1.00000012;marker:none;visibility:visible;display:inline;overflow:visible;enable-background:accumulate" inkscape:connector-curvature="0"/>
    <path style="opacity:0.8;color:#000000;fill:none;stroke:url(#linearGradient22272);stroke-width:1;stroke-linecap:butt;stroke-linejoin:miter;stroke-miterlimit:4;stroke-opacity:1;stroke-dasharray:none;stroke-dashoffset:0;marker:none;visibility:visible;display:inline;overflow:visible;enable-background:accumulate" id="use12211" inkscape:connector-curvature="0" d="m 13.662787,-43.499683 c -1.87818,0.0205 -3.16279,0.9143 -3.16279,2.67225 l 0,5.32743 c -0.9606004,0 -1.4771004,-0.003 -2.1044004,0 -1.67856,0.008 -2.87762,0.94491 -2.87762,2.83298 0.0936,27.4976499 -0.018,28.9219399 -0.018,31.2565499 3.90581,0 117.0000034,-9.8866399 117.0000034,-14.1422999 l 0,-17.14209 c 0,-1.75796 -1.15786,-2.82564 -3.03605,-2.80514 l -61.96395,0 0,-5.19887 c 0,-1.75795 -1.18743,-2.80081 -2.94827,-2.80081 l -40.888943,0 z"/>
    <path inkscape:connector-curvature="0" id="use12213" d="m 13.499997,-42.499843 c -1.108,0 -2,0.892 -2,2 l 0,6 -3.0000004,0 c -1.108,0 -2,0.892 -2,2 l 0,11 c 0,1.108 0.892,2 2,2 l 111.0000034,0 c 1.108,0 2,-0.892 2,-2 l 0,-11 c 0,-1.108 -0.892,-2 -2,-2 l -63,0 0,-6 c 0,-1.108 -0.892,-2 -2,-2 l -41.000003,0 z" style="color:#000000;fill:none;stroke:url(#linearGradient22278);stroke-width:0.99999982;stroke-linecap:round;stroke-linejoin:round;stroke-miterlimit:4;stroke-opacity:1;stroke-dasharray:none;stroke-dashoffset:0;marker:none;visibility:visible;display:inline;overflow:visible;enable-background:accumulate"/>
    <g id="use12215" transform="matrix(1.0027339,0,0,0.9919518,-0.16331336,-57.066403)">
      <rect style="opacity:0.3;fill:url(#linearGradient22288);fill-opacity:1;fill-rule:nonzero;stroke:none;stroke-width:1;marker:none;visibility:visible;display:inline;overflow:visible" id="rect22282" y="99.870178" x="12.462574" height="16.129816" width="103.05159"/>
      <path style="opacity:0.3;fill:url(#radialGradient22290);fill-opacity:1;fill-rule:nonzero;stroke:none;stroke-width:1;marker:none;visibility:visible;display:inline;overflow:visible" id="path22284" inkscape:connector-curvature="0" d="m 115.51417,99.870734 c 0,0 0,16.128926 0,16.128926 4.26271,0.0304 10.30516,-3.61367 10.30516,-8.0655 0,-4.45183 -4.75687,-8.063426 -10.30516,-8.063426 z"/>
      <path style="opacity:0.3;fill:url(#radialGradient22292);fill-opacity:1;fill-rule:nonzero;stroke:none;stroke-width:1;marker:none;visibility:visible;display:inline;overflow:visible" id="path22286" inkscape:connector-curvature="0" d="m 12.462574,99.870734 c 0,0 0,16.128926 0,16.128926 -4.2627113,0.0304 -10.3051588,-3.61367 -10.3051588,-8.0655 0,-4.45183 4.7568636,-8.063426 10.3051588,-8.063426 z"/>
    </g>
    <path style="fill:url(#linearGradient22298);fill-opacity:1;fill-rule:nonzero;stroke:none;stroke-width:0.99999982;marker:none;visibility:visible;display:inline;overflow:visible;enable-background:accumulate" id="use12217" inkscape:connector-curvature="0" d="m 6.2499966,-24.500053 115.4999934,0.001 c 1.66861,0 2.75001,1.18375 2.75001,2.65543 l -2.71648,71.78068 c 0.0386,1.86211 -0.55015,2.60044 -2.48884,2.56139 L 9.3616366,52.451747 c -1.66859,0 -3.35116,-1.09895 -3.35116,-2.57064 l -2.51048,-71.72469 c 0,-1.47169 1.0814,-2.65647 2.75,-2.65647 z"/>
    <path style="opacity:0.4;fill:url(#linearGradient22304);fill-opacity:1;stroke:none" id="use12219" inkscape:connector-curvature="0" d="m 5.7727166,-25.000063 116.4545434,0.001 c 1.6824,0 2.77274,1.19912 2.77274,2.68993 l -2.73893,72.7129 c 0.0389,1.88629 -0.5547,2.63421 -2.50941,2.59465 L 8.9100766,52.951017 c -1.68238,0 -3.37885,-1.11323 -3.37885,-2.60404 l -2.53123,-72.65607 c 0,-1.4908 1.09034,-2.69097 2.77272,-2.69097 z"/>
    <path sodipodi:nodetypes="cccccccccc" inkscape:connector-curvature="0" id="use12221" d="m 6.2499966,-23.499853 c -2.84882,0.29656 -1.40933,3.76689 -1.63989,5.72017 0.78584,22.5479499 1.57466,45.09583 2.35864,67.64381 1.18868,2.48974 4.4300904,1.28205 6.6383204,1.57433 35.235145,0.0205 70.470293,0.0412 105.705433,0.0617 2.566,-0.16531 1.15721,-3.81803 1.65357,-5.65555 0.85465,-22.56949 2.54292,-67.57135 2.54292,-67.57135 0,-1.16209 -0.77992,-1.7731 -2.20738,-1.7731 -37.08931,0 -77.9623,0 -115.0516134,0 z" style="opacity:0.5;fill:none;stroke:url(#linearGradient22310);stroke-width:0.99999988;stroke-linecap:round;stroke-linejoin:round;stroke-miterlimit:4;stroke-opacity:1;stroke-dasharray:none;stroke-dashoffset:0;marker:none;visibility:visible;display:inline;overflow:visible;enable-background:accumulate"/>
    <path d="m 6.2499966,-24.500063 115.4999934,0.001 c 1.66861,0 2.75001,1.18375 2.75001,2.65543 l -2.71648,71.78068 c 0.0386,1.86211 -0.55015,2.60044 -2.48884,2.56139 L 9.3616366,52.451737 c -1.66859,0 -3.35116,-1.09895 -3.35116,-2.57064 l -2.51048,-71.72469 c 0,-1.47169 1.0814,-2.65647 2.75,-2.65647 z" inkscape:connector-curvature="0" id="path3369-7-50" style="opacity:0.3;fill:none;stroke:#000000;stroke-width:0.99999982;stroke-linecap:round;stroke-linejoin:round;stroke-miterlimit:4;stroke-opacity:1;stroke-dasharray:none;stroke-dashoffset:0;marker:none;visibility:visible;display:inline;overflow:visible;enable-background:accumulate"/>
    <g id="g3056" transform="translate(-2.2035586e-4,-64.000419)">
      <path inkscape:connector-curvature="0" style="fill:#4d4d4d;fill-opacity:1;stroke:#333333;stroke-width:1;stroke-linecap:round;stroke-linejoin:round;stroke-miterlimit:4;stroke-opacity:1;stroke-dasharray:none" id="path3406" d="m 110.46413,51.506229 c 0,0 -33.443785,7.273649 -33.443785,7.273649 -2.384861,0.915767 -2.463347,2.809305 -2.520345,6.14492 0,0 0,37.848412 0,37.848412 -7.779166,-1.72718 -16.918764,4.31896 -16.985279,12.53209 -0.350247,5.27431 5.299249,9.6446 10.438231,9.16156 6.966078,-0.35589 13.292932,-7.07828 12.547048,-14.25637 0,-11.742062 0,-25.834732 0,-37.576788 0,0 28,-6.350756 28,-6.350756 0,0 0,19.932979 0,28.984549 -7.4543,-2.139358 -16.552438,2.764867 -17.787659,10.604825 -0.873621,5.59588 1.929316,9.83715 6.356112,11.15757 8.286477,2.70598 17.335357,-5.84821 16.358047,-14.38277 -0.0231,-16.008405 0.0698,-32.016856 0,-48.025209 -0.19473,-1.591208 -1.22263,-3.196138 -2.96237,-3.115682 z"/>
      <path inkscape:connector-curvature="0" style="opacity:0.6;fill:url(#radialGradient3057);fill-opacity:1;stroke:none" id="path2716" d="m 114,104.00064 c 0,5.97284 -5.14871,11.70993 -11.5,12.81415 -6.351271,1.1042 -11.5,-2.84259 -11.5,-8.81543 0,-5.97285 5.148729,-11.709955 11.5,-12.814164 6.35129,-1.10422 11.5,2.842593 11.5,8.815444 z"/>
      <path inkscape:connector-curvature="0" style="opacity:0.3;fill:url(#linearGradient3054);fill-opacity:1;fill-rule:evenodd;stroke:none" id="path2720" d="m 75,62.999995 c -0.04607,-1.796782 1,-4 3,-4 0.168813,0.289981 32.70773,-6.993323 32.70773,-6.993323 C 104.72616,57.133324 77.961335,58.01287 77,63.092138 c 0,0 0,19.645449 0,41.716512 C 76.568381,104.44335 75,103.5 75,103.5 l 0,-40.500005 z m 34,32.832984 0,-30.144604 c 0,0 2,-0.393683 2,-0.393683 0,0 0,31.688063 0,31.688063 l -2,-1.149776 z"/>
      <path inkscape:connector-curvature="0" style="opacity:0.6;fill:url(#radialGradient3051);fill-opacity:1;stroke:none" id="path2712" d="m 80,111.5915 c 0,5.70136 -4.924864,11.17767 -10.999995,12.23171 C 62.924876,124.87723 58,121.10984 58,115.40848 58,109.70712 62.924876,104.23081 69.000005,103.17677 75.075136,102.12275 80,105.89016 80,111.5915 z"/>
    </g>
  </g>
</svg>
