/* XPM */
static char *control_center_[] = {
/* columns rows colors chars-per-pixel */
"32 32 153 2",
"   c #000000",
".  c #18222E",
"X  c #1E2A38",
"o  c #2D4763",
"O  c #3D526D",
"+  c #355475",
"@  c #3C5774",
"#  c #375678",
"$  c #3C5A7B",
"%  c #535B60",
"&  c #515C6A",
"*  c #405876",
"=  c #425E7B",
"-  c #44607F",
";  c #49637E",
":  c #53667B",
">  c #58697D",
",  c #966F2E",
"<  c #866634",
"1  c #947331",
"2  c #967834",
"3  c #A77929",
"4  c #AD7F31",
"5  c #C37E1A",
"6  c #85754B",
"7  c #8F7C54",
"8  c #A5823F",
"9  c #CE8A1E",
"0  c #D68512",
"q  c #E68C0C",
"w  c #FB9D0D",
"e  c #E48E10",
"r  c #F79A15",
"t  c #F29D1C",
"y  c #FCA816",
"u  c #F1A51E",
"i  c #FEAC1C",
"p  c #FFB41F",
"a  c #D78F23",
"s  c #D49428",
"d  c #DDA131",
"f  c #F0A123",
"g  c #F3AB28",
"h  c #FEB522",
"j  c #FFB922",
"k  c #F2B12B",
"l  c #FFBD2A",
"z  c #F2B936",
"x  c #F3B33A",
"c  c #F4BE3E",
"v  c #FFBC3A",
"b  c #FFC124",
"n  c #FFC22A",
"m  c #FFCB2F",
"M  c #9E8144",
"N  c #9B8755",
"B  c #A08344",
"V  c #A68949",
"C  c #B8974D",
"Z  c #DEAF50",
"A  c #F5BE45",
"S  c #F9BD45",
"D  c #F6BF4F",
"F  c #E2B152",
"G  c #F3C140",
"H  c #FFC540",
"J  c #FCC94D",
"K  c #405F80",
"L  c #446284",
"P  c #496584",
"I  c #4D6987",
"U  c #476689",
"Y  c #486789",
"T  c #4C6A8C",
"R  c #526B85",
"E  c #516D8B",
"W  c #4E6D91",
"Q  c #516F92",
"!  c #547294",
"~  c #5A7595",
"^  c #547499",
"/  c #597699",
"(  c #5C7A9C",
")  c #667283",
"_  c #62768F",
"`  c #65798F",
"'  c #6C7D8D",
"]  c #647990",
"[  c #607D9E",
"{  c #5F7EA1",
"}  c #617FA2",
"|  c #6B849C",
" . c #75889B",
".. c #6382A5",
"X. c #6985A6",
"o. c #6684A9",
"O. c #6986AA",
"+. c #6C8AAD",
"@. c #718DAE",
"#. c #7790AA",
"$. c #6D8DB1",
"%. c #718FB2",
"&. c #6F90B4",
"*. c #7392B4",
"=. c #7995B7",
"-. c #7595B9",
";. c #7997BA",
":. c #7798BE",
">. c #7C9ABD",
",. c #7E9EC2",
"<. c #7FA0C6",
"1. c #8D8D8D",
"2. c #858F9C",
"3. c #92969A",
"4. c #999999",
"5. c #99A2AD",
"6. c #8BA2BE",
"7. c #97A5B5",
"8. c #9BA8B6",
"9. c #99A7B9",
"0. c #A2A2A2",
"q. c #AAB3BF",
"w. c #B3B4B4",
"e. c #B2B6BA",
"r. c #BCBCBC",
"t. c #819FC2",
"y. c #83A1C6",
"u. c #8EA7C6",
"i. c #84A4CA",
"p. c #89A7CB",
"a. c #8AA8CD",
"s. c #9CB3CF",
"d. c #87A9D0",
"f. c #89AAD1",
"g. c #92AFD5",
"h. c #9DB4D0",
"j. c #9FB8D6",
"k. c #B7BEC5",
"l. c #BFBFC0",
"z. c #A1B9D5",
"x. c #A2BCDC",
"c. c #C1C1C1",
"v. c #C5C9CD",
"b. c #CACCCF",
"n. c #CBCED1",
"m. c #D5D5D5",
"M. c #D7D9DD",
"N. c #DCDCDC",
"B. c #DCDFE3",
"V. c #E3E3E3",
"C. c #ECECEC",
"Z. c #F0F0F0",
"A. c None",
/* pixels */
"A.A.A.A.A.A.A.A.A.A.A.A.A.A.A.A.A.A.A.A.A.A.A.A.A.A.A.A.A.A.A.A.",
"A.A.A.A.A.A.A.A.A.A.A.A.A.A.A.A.A.A.A.A.A.A.A.A.A.A.A.A.A.A.A.A.",
"A.A.A.s.j.j.x.x.x.x.x.j.z.z.z.z.z.z.z.z.x.j.x.x.x.x.j.x.h.A.A.A.",
"A.A.u.i.<.,.,.i.i.p.d.i.<.<.<.,.,.y.,.i.d.f.f.f.f.d.d.<.,.u.A.A.",
"A.A.g.<.i.,.,.,.y.i.d.i.<.y.>.t.,.,.,.<.i.f.f.f.i.i.i.,.,.p.A.A.",
"A.A.g.i.,.i.,.,.y.i.p.p.6.>.y.>.,.,.6.i.d.f.a.i.i.,.,.:.:.y.A.A.",
"A.A.i.i.i.t.,.,.>.y.,.6.:.;.t.t.>.>.6.y.p.a.p.y.<.:.;.-.-.y.A.A.",
"A.A.i.,.,.i.i.i.,.+.5.M.B.8.#.>.>.t.<.i.p.d.i.y.>.;.-.-.*.>.A.A.",
"A.A.i.,.:.<.y.i.y.=._ e.Z.Z.m.#.;.;.6.i.p.i.y.>.;.;.*.*.&.;.A.A.",
"A.A.,.-.:.>.>.>.y.t.#._ v.C.C.k.#.-.<.i.y.>.;.-.-.-.*.&.&.:.A.A.",
"A.A.:.*.-.:.@.q.=.,.;.7.V.V.C.N.| -.<.y.>.;.*.*.=.&.&.+.$.;.A.A.",
"A.A.:.*.*.-.X.n.v.=.9.V.V.V.V.m. .-.<.>.*.#.@.#.+.#.@.&.*.:.A.A.",
"A.A.&.&.&.-.| n.V.n.V.N.V.N.N.c.` ;.;.*.+.+.@.@.%.-.-.-.*.:.A.A.",
"A.A.O...O.+.X.2.N.N.N.N.N.N.m.0.| #.+.+.+.+.*.-.-.-.$.$.$.&.A.A.",
"A.A...{ ......R e.N.m.m.m.n.w.1.r.C N X.*.*.*.*.$.%.$.+.O.$.A.A.",
"A.A.o.{ { ....( : 3.r.r.w.0.4.r.Z S J V +.@.+.$.+.$.$.O.o.+.A.A.",
"A.A.+.O.O.O.+.+.X.~ : ) > & 5.Z S w w A V O.@.+.+.+.+.o.} O.A.A.",
"A.A.} } O.O.+.+.+.O.} _ ~ _ 7 J h p i y c B [ } } o.o.} } O.A.A.",
"A.A.} } } } } [ ( ( ( [ X.O.6 m m b j j h z B ~ [ ~ / ( ( } A.A.",
"A.A.{ ^ ^ ^ ~ ~ ~ ~ [ O.+.} I 2 z m n n n n k 8 ! ~ Q Q W Q A.A.",
"A.A.W W W Q Q Q ~ } o.o.} ( ! E 1 k n l l H J g 7 / ^ T W T A.A.",
"A.A.U W T E E ( } o...[ ( ! E ( ; 1 u j v d 3 x 9 ~ ( ! T U A.A.",
"A.A.L U Y T / } o.} ( ( ! T E ^ I - 1 u v 8 ; s q E ^ ^ ^ W A.A.",
"A.A.K K W Q { } } / / ~ T I E ! I I $ , t f 9 w 5 = ! ! ! Q A.A.",
"A.A.U W W { { { ! ^ ! T P P T W P P P * < 0 q 5 % L U T W W A.A.",
"A.A.U W { ^ ^ W ! Q T L K L T T L L L L $ * O I Q Y $ $ U T A.A.",
"A.A.W ^ { ^ U U T W L $ $ = T P $ K = $ = K T T / Q K $ # K A.A.",
"A.A.{ W W U U U I L # # $ # I L # # # @ $ # L Y Y ^ Y K + # A.A.",
"A.A.U W K K U U P + + + + # L $ + + + + + + + L L Y W U $ o A.A.",
"A.A.X $ K U U U L = = - - I ! I P ; ; - L = = L T Y W ! # . A.A.",
"A.A.A.A.                                                A.A.A.A.",
"A.A.A.A.A.A.A.A.A.A.A.A.A.A.A.A.A.A.A.A.A.A.A.A.A.A.A.A.A.A.A.A."
};
