/* XPM */
static char *gcolor_[] = {
/* columns rows colors chars-per-pixel */
"32 32 217 2",
"   c #000000",
".  c #171718",
"X  c #38363A",
"o  c #4C3E3F",
"O  c #543F3C",
"+  c #7C3127",
"@  c #6E3D3B",
"#  c #753735",
"$  c #713A38",
"%  c #375721",
"&  c #3B512C",
"*  c #3D5D29",
"=  c #3F6A22",
"-  c #57492E",
";  c #42463F",
":  c #444C3E",
">  c #4F4C3B",
",  c #57433B",
"<  c #5D453F",
"1  c #5B4A3E",
"2  c #445737",
"3  c #45533D",
"4  c #49523B",
"5  c #4C593E",
"6  c #54523E",
"7  c #68473F",
"8  c #437027",
"9  c #3F3D41",
"0  c #423E41",
"q  c #483F40",
"w  c #444344",
"e  c #4B4245",
"r  c #464B43",
"t  c #494C46",
"y  c #474348",
"u  c #4D464A",
"i  c #4C4B4B",
"p  c #534445",
"a  c #5A4543",
"s  c #544749",
"d  c #54494C",
"f  c #5B4A4B",
"g  c #4A5444",
"h  c #4D5B43",
"j  c #4E534A",
"k  c #5A5741",
"l  c #515E44",
"z  c #5D5943",
"x  c #51574C",
"c  c #525C4C",
"v  c #5F5D4E",
"b  c #4E4950",
"n  c #524D53",
"m  c #594E51",
"M  c #545255",
"N  c #5C5155",
"B  c #545951",
"V  c #595D55",
"C  c #565159",
"Z  c #5A555D",
"A  c #5C585F",
"S  c #634A44",
"D  c #6A4C45",
"F  c #634D4C",
"G  c #6A4F4A",
"H  c #655043",
"J  c #65534E",
"K  c #6B514E",
"L  c #644D52",
"P  c #645254",
"I  c #675159",
"U  c #6B555C",
"Y  c #6F595F",
"T  c #4F6043",
"R  c #526445",
"E  c #556847",
"W  c #55634B",
"Q  c #5A624D",
"!  c #566A4A",
"~  c #596A4C",
"^  c #596451",
"/  c #5B6950",
"(  c #5E635A",
")  c #61665F",
"_  c #5C5760",
"`  c #5E5962",
"'  c #625D65",
"]  c #725A61",
"[  c #5A6E7E",
"{  c #646067",
"}  c #636960",
"|  c #666169",
" . c #6A646D",
".. c #6C6770",
"X. c #636A75",
"o. c #6D6972",
"O. c #726C76",
"+. c #756E79",
"@. c #76717B",
"#. c #79737D",
"$. c #B73616",
"%. c #BA3317",
"&. c #B23A17",
"*. c #B63D19",
"=. c #BB3C1B",
"-. c #843224",
";. c #8B3223",
":. c #993E20",
">. c #D02D1F",
",. c #C3381F",
"<. c #CD3622",
"1. c #CB3B24",
"2. c #CE3E29",
"3. c #D03422",
"4. c #AF421F",
"5. c #B5441D",
"6. c #A54221",
"7. c #B84425",
"8. c #B44C21",
"9. c #C74527",
"0. c #CB4026",
"q. c #CC442C",
"w. c #C54A2E",
"e. c #CB4534",
"r. c #CF4B3D",
"t. c #D6423B",
"y. c #D24D3A",
"u. c #8D7942",
"i. c #8F7948",
"p. c #947B4E",
"a. c #D54F47",
"s. c #DA494A",
"d. c #D6564D",
"f. c #D45B4D",
"g. c #D85650",
"h. c #D75D50",
"j. c #DC5959",
"k. c #D66C63",
"l. c #D96C63",
"z. c #D16E6F",
"x. c #DA6E6D",
"c. c #D8706E",
"v. c #CE7A7C",
"b. c #D97C77",
"n. c #DD7D78",
"m. c #548C2F",
"M. c #559132",
"N. c #53A42D",
"B. c #58A02F",
"V. c #4BAF36",
"C. c #5BA333",
"Z. c #53AC35",
"A. c #5BA934",
"S. c #57A638",
"D. c #59A338",
"F. c #54A938",
"G. c #5FAE38",
"H. c #54B633",
"J. c #59B336",
"K. c #52B934",
"L. c #5EB238",
"P. c #59BB3B",
"I. c #60A537",
"U. c #60A936",
"Y. c #5DBE41",
"T. c #5DB24D",
"R. c #60C046",
"E. c #62C24B",
"W. c #66C551",
"Q. c #6ECA5D",
"!. c #75CC65",
"~. c #988053",
"^. c #9C835A",
"/. c #A0865F",
"(. c #B19774",
"). c #B89D7D",
"_. c #81CE71",
"`. c #29729A",
"'. c #2C7AA6",
"]. c #5E7482",
"[. c #437E9F",
"{. c #507992",
"}. c #5B7C92",
"|. c #7C7781",
" X c #7F7983",
".X c #817B85",
"XX c #3682AC",
"oX c #3B82AC",
"OX c #3A85B0",
"+X c #4A8AAE",
"@X c #5D89A3",
"#X c #728DA7",
"$X c #6195B3",
"%X c #4D96C0",
"&X c #68A0C2",
"*X c #63A6CB",
"=X c #6DABCE",
"-X c #78B1C7",
";X c #6EADD1",
":X c #7BB3D3",
">X c #8D8790",
",X c #938D97",
"<X c #AE8D96",
"1X c #BEA384",
"2X c #869CB1",
"3X c #AD9BA7",
"4X c #DA8080",
"5X c #DE8887",
"6X c #DE908E",
"7X c #C4949A",
"8X c #C6AD92",
"9X c #92CF8D",
"0X c #9CCCA5",
"qX c #9ECAB4",
"wX c #CEC8BC",
"eX c #95C3C5",
"rX c None",
/* pixels */
"rXrXrXrXrXrXrXrXrXrXrXrXrXrXrXrXrXrXrXrXrXrXrXrXrXrXrXrXrXrXrXrX",
"rXrXrXrXrXrXrXrXrXrXrXrXrXrXrXrXrXrXrXrXrXrXrXrXrXrXrXrXrXrXrXrX",
"rXrXrX>X,X,X,X,X,X,X,X,X,X,X,X,X,X,X,X,X,X,X,X,X,X,X,X,X>XrXrXrX",
"rXrX X+.+.@.+.#.+.|.@.|.|.|.@.|.|.@.#.|.@.#.#.#.#.@.@.@.+..XrXrX",
"rXrX.X+.+.+.@.@.#.#.#.@.@.+.|.|.@.#.#.#.#.#.#.#.@.|.+.+.+..XrXrX",
"rXrX XO.+.+.+.|.@.#.|.#.|.|.|.}.|.|.#.|.#.#.#.#.@.+.+.O.+.|.rXrX",
"rXrX|.o.O.+.+.|.|.#.|.|.|.|.|.|.#.|.|.#.|.#.#.#.|.+.O.O.O.|.rXrX",
"rXrX#.o.O.+.+.@.@.#.@.@.|.@. Xp.#.#.#.#.#.#.#.#.#.+.+.O.o.#.rXrX",
"rXrX@.o.O.O.+.@.@.#.@.#.@.#.@.#.#.@.#.#.#.@.#.#.+.+.O.O.o.@.rXrX",
"rXrXO...o.O.+.+.@.@.@.@.@.@.o.[ [ o.O.@.@.@.@.@.+.+.O.o. .O.rXrX",
"rXrXO. ...o.O.O.O.@.o.[ {.oXoXoX;X;X&X$X@X@X[ +.+.O.o. . .O.rXrX",
"rXrXO.'  ...o.O. .<X2X+X`.`.`.'.*X=X=X:XeX9XT.) O.o.o. .| o.rXrX",
"rXrX .|  . .o.o.] a.z.v.7X3X#XXX+X:XqX9X!.Q.V.) O.o. . .' o.rXrX",
"rXrX .' |  . ...] j.6X6X5Xc.c.4XwX_.E.E.W.W.V.)  . . .| '  .rXrX",
"rXrX| ' ' |  . .Y d.n.b.n.n.n.t.8XP.Y.R.E.E.Z.(  . .| ' ' | rXrX",
"rXrX' ` ' ' |  .U a.k.l.l.l.d.>.1XK.K.P.P.P.Z.(  .| ' ' ` ' rXrX",
"rXrX` _ ` ' { | U y.h.h.h.d.3.3.).K.K.H.K.P.F.V | ' ' _ _ _ rXrX",
"rXrX_ Z _ ` ` { I e.y.y.y.2.1.<.(.K.J.J.J.J.S.x A ' _ _ _ _ rXrX",
"rXrXZ Z Z _ ` ` L q.q.0.1.,.%.%./.N.Z.J.L.L.D.g M Z C C C Z rXrX",
"rXrXC C C A _ ` L w.0.5.$.$.%.$.^.N.N.B.A.U.D.3 x i n Z C C rXrX",
"rXrXn C C Z Z _ L 7.*.&.&.&.*.5.~.B.B.C.U.M.2 2 x ( V C M M rXrX",
"rXrXb n m Z N P P # ;.6.5.4.5.5.p.C.I.I.8 & 5 ~ ~ ^ V B M i rXrX",
"rXrXb n m m P P K K K # ;.4.8.5.i.B.m.% 2 ! ~ ~ ~ W W x B i rXrX",
"rXrXu d d f f G K G G K K 7 + :.u.8 & R ! ! ! ! ~ c c j j j rXrX",
"rXrXu s s s F F F D D G G G H S - 5 E E E W W W c x j g t t rXrX",
"rXrXu u u s s a f F S S D D D H z R E T T R h h x g j t t i rXrX",
"rXrXy y q s s s a a S S S S D 7 6 R T T T h g g g t t r y y rXrX",
"rXrX0 w q q q q a q p a q @ < < 6 5 5 h g g g r r r w w w w rXrX",
"rXrXX 0 0 0 0 q ; O o q O O , , 6 4 2 3 r 3 : r 0 & w 0 9 X rXrX",
"rXrX. X 0 b y b d d f f F J J J v Q Q c x B j i b i w w X . rXrX",
"rXrXrXrX                                                rXrXrXrX",
"rXrXrXrXrXrXrXrXrXrXrXrXrXrXrXrXrXrXrXrXrXrXrXrXrXrXrXrXrXrXrXrX"
};
