/* XPM */
static char *xchat[] = {
/* columns rows colors chars-per-pixel */
"32 32 134 2",
"   c #000000",
".  c #28390A",
"X  c #597E17",
"o  c #5B8015",
"O  c #5E831A",
"+  c #628B17",
"@  c #62861D",
"#  c #628B1A",
"$  c #66901A",
"%  c #6A931D",
"&  c #6F991E",
"*  c #719C1F",
"=  c #71A417",
"-  c #73A619",
";  c #77A91B",
":  c #7AAD1D",
">  c #7DB11F",
",  c #648427",
"<  c #668923",
"1  c #688D24",
"2  c #6C8E2F",
"3  c #6C9322",
"4  c #6F9820",
"5  c #729726",
"6  c #739D23",
"7  c #789F27",
"8  c #70962A",
"9  c #749B2A",
"0  c #789E2C",
"q  c #739730",
"w  c #769B33",
"e  c #7D9E3C",
"r  c #76A422",
"t  c #79A425",
"y  c #7BAC23",
"u  c #7CA42C",
"i  c #7DAA2B",
"p  c #7EB122",
"a  c #7CA234",
"s  c #7FAB31",
"d  c #7D984B",
"f  c #80AE26",
"g  c #81A72E",
"h  c #82AD2C",
"j  c #82B424",
"k  c #86B826",
"l  c #84B32B",
"z  c #89B62D",
"x  c #87B82A",
"c  c #8ABB2C",
"v  c #81A731",
"b  c #82AB31",
"n  c #84AB3A",
"m  c #87B033",
"M  c #89B432",
"N  c #8DBB32",
"B  c #86B138",
"V  c #8AB33C",
"C  c #8FBB3C",
"Z  c #90BD32",
"A  c #90B93B",
"S  c #8EC02E",
"D  c #91C42F",
"F  c #93C533",
"G  c #97CA35",
"H  c #9ACD36",
"J  c #93C13A",
"K  c #9ACA3C",
"L  c #9FD137",
"P  c #9ED03C",
"I  c #A2D53B",
"U  c #A6D93C",
"Y  c #AADE3E",
"T  c #819B4F",
"R  c #81975B",
"E  c #80A141",
"W  c #8BA94E",
"Q  c #8DA854",
"!  c #95A479",
"~  c #A0BA6C",
"^  c #A7BF76",
"/  c #9FCC41",
"(  c #A4D444",
")  c #A7D942",
"_  c #ABDD42",
"`  c #A7D649",
"'  c #ABDA4A",
"]  c #A3C45E",
"[  c #B1DF53",
"{  c #AEE142",
"}  c #B0E443",
"|  c #B0E14A",
" . c #B4E156",
".. c #B7E359",
"X. c #BBE75E",
"o. c #A4C263",
"O. c #A6C46A",
"+. c #B5D869",
"@. c #A7C172",
"#. c #A9C473",
"$. c #ACC37D",
"%. c #CBEF7F",
"&. c #9EAA84",
"*. c #A0AD87",
"=. c #A2B084",
"-. c #A4B18B",
";. c #AAB593",
":. c #AEB79E",
">. c #AFB89E",
",. c #B2BD9E",
"<. c #AEC285",
"1. c #B8C0A7",
"2. c #BECAA5",
"3. c #BCC3AE",
"4. c #C4E381",
"5. c #CBEF80",
"6. c #C2CDAB",
"7. c #C7D9A3",
"8. c #C9DCA4",
"9. c #CED4C3",
"0. c #D0D7C3",
"q. c #D2D6C9",
"w. c #D6DACC",
"e. c #D7DBD1",
"r. c #DBDED4",
"t. c #DCE0D3",
"y. c #DEE0DB",
"u. c #E1E4DB",
"i. c #E5E6E2",
"p. c #E7E9E3",
"a. c #EBECE7",
"s. c #ECECEC",
"d. c #F2F2F2",
"f. c None",
/* pixels */
"f.f.f.f.f.f.f.f.f.f.f.f.f.f.f.f.f.f.f.f.f.f.f.f.f.f.f.f.f.f.f.f.",
"f.f.f.f.f.f.f.f.f.f.f.f.f.f.f.f.f.f.f.f.f.f.f.f.f.f.f.f.f.f.f.f.",
"f.f.f.4.%.%.%.%.%.%.%.%.%.5.5.5.5.5.5.%.%.%.%.%.%.%.%.%.4.f.f.f.",
"f.f.+.} { } } } } } } } } } } } } } } } } } } } } } } } } +.f.f.",
"f.f.X.{ { { { { { } { { | } | | } | | } { { { { { { { { { X.f.f.",
"f.f. .Y Y Y Y { _ { } | } | ' / / ' | | | } { { Y Y Y { { ..f.f.",
"f.f. .Y Y Y Y Y _ _ ' A v 0 u h m g g m A ' _ _ Y Y Y U Y  .f.f.",
"f.f.[ U U U Y Y ' A 0 h M N N Z Z Z Z Z M g A | ) Y U U U [ f.f.",
"f.f.' U U I ) ( 0 u M M M M o.7.o.Z O.8.] Z z v ( ) I I I [ f.f.",
"f.f.' I I I ) 0 g h h l l z 6.d.Q c 6.d.W Z Z c b ) I I I ' f.f.",
"f.f.` L I ( u 7 h h h l l g t.s.u h u.p.g c Z Z z m ( I I ` f.f.",
"f.f.( L I A 5 i h g g O.O.$.d.w.#.$.d.0.#.O.z c c h J I L ( f.f.",
"f.f.( H P s 0 u i i t a.d.d.s.d.d.d.d.d.d.u.h c c l m I H ( f.f.",
"f.f./ G K 5 t t t t 7 -.;.e.d.,.;.r.d.,.;.=.h x z z u K G / f.f.",
"f.f./ G K 1 t r t t t 0 5 t.u.5 7 u.u.7 t i l l l z 9 K G K f.f.",
"f.f.K F K 3 7 7 t t ~ ^ =.d.0.#.<.s.9.#.#.f f j l l t K F K f.f.",
"f.f.G D G 8 6 6 r 4 y.s.s.s.s.d.s.s.s.s.a.r f h j y i G F G f.f.",
"f.f.D S F a $ 6 6 3 ! &.9.s.;.&.q.s.;.&.! 6 y f f t m F c F f.f.",
"f.f.S S S J < 4 4 6 3 % e.y.8 4 e.y.3 6 6 y y y t 5 J S c S f.f.",
"f.f.c k c N n < & & 4 e s.3.4 e p.1.6 r r y t r 5 C c c k c f.f.",
"f.f.k k k S c s O 3 & d :.d q d :.R r - 6 r - 3 B S k k k k f.f.",
"f.f.j j j k x N V 1 $ $ $ $ 4 % % % 6 - * % q V c x k j k j f.f.",
"f.f.j j p j j x S W O % % % % 4 % % $ O 1 n V x j j j j > j f.f.",
"f.f.> > p p p p x 3 + $ O a w w w a n V N l p p p p > > > p f.f.",
"f.f.: : : : > p y X X < B l p p s p p p p p > > p : > > ; > f.f.",
"f.f.: : : : y 4 , 2 a s p p y y > p p : : ; ; : ; : ; : ; > f.f.",
"f.f.; ; ; ; ; y p i y y y y ; : : ; ; ; ; ; ; ; ; ; ; - ; ; f.f.",
"f.f.; - = = - ; - - - - - - = = - - - - - - - - - - - - - ; f.f.",
"f.f.+ - = - = - - = = = = = = = = = = = = = = = = = - - = + f.f.",
"f.f.. + - r r r y y i i s i s m s s s i i i r i r r r - + . f.f.",
"f.f.f.f.                                                f.f.f.f.",
"f.f.f.f.f.f.f.f.f.f.f.f.f.f.f.f.f.f.f.f.f.f.f.f.f.f.f.f.f.f.f.f."
};
