<?xml version="1.0" encoding="UTF-8" standalone="no"?>
<!-- Created with Inkscape (http://www.inkscape.org/) -->

<svg
   xmlns:dc="http://purl.org/dc/elements/1.1/"
   xmlns:cc="http://creativecommons.org/ns#"
   xmlns:rdf="http://www.w3.org/1999/02/22-rdf-syntax-ns#"
   xmlns:svg="http://www.w3.org/2000/svg"
   xmlns="http://www.w3.org/2000/svg"
   xmlns:xlink="http://www.w3.org/1999/xlink"
   xmlns:sodipodi="http://sodipodi.sourceforge.net/DTD/sodipodi-0.dtd"
   xmlns:inkscape="http://www.inkscape.org/namespaces/inkscape"
   width="16"
   height="16"
   id="svg2"
   sodipodi:version="0.32"
   inkscape:version="0.48.4 r9939"
   version="1.0"
   sodipodi:docname="go-jump.svg"
   inkscape:output_extension="org.inkscape.output.svg.inkscape">
  <defs
     id="defs4">
    <inkscape:perspective
       sodipodi:type="inkscape:persp3d"
       inkscape:vp_x="0 : 8 : 1"
       inkscape:vp_y="0 : 1000 : 0"
       inkscape:vp_z="16 : 8 : 1"
       inkscape:persp3d-origin="8 : 5.3333333 : 1"
       id="perspective18" />
    <linearGradient
       id="StandardGradient"
       gradientTransform="scale(1.1467263,0.8720476)"
       x1="7.1904788"
       y1="6.9551144"
       x2="7.1904788"
       y2="18.319494"
       gradientUnits="userSpaceOnUse">
      <stop
         style="stop-color:#000000;stop-opacity:0.86274511;"
         offset="0"
         id="stop3280" />
      <stop
         style="stop-color:#000000;stop-opacity:0.47058824;"
         offset="1"
         id="stop3282" />
    </linearGradient>
    <inkscape:perspective
       id="perspective2849"
       inkscape:persp3d-origin="0.5 : 0.33333333 : 1"
       inkscape:vp_z="1 : 0.5 : 1"
       inkscape:vp_y="0 : 1000 : 0"
       inkscape:vp_x="0 : 0.5 : 1"
       sodipodi:type="inkscape:persp3d" />
    <linearGradient
       inkscape:collect="always"
       xlink:href="#StandardGradient"
       id="linearGradient3627"
       gradientUnits="userSpaceOnUse"
       gradientTransform="matrix(1.1467263,0,0,0.8720476,-20,0)"
       x1="7.1904788"
       y1="6.9551144"
       x2="7.1904788"
       y2="18.319494" />
    <clipPath
       clipPathUnits="userSpaceOnUse"
       id="clipPath3634">
      <path
         style="fill:#ff00ff;fill-opacity:1;stroke:none;display:inline"
         d="m -19.535739,2.999982 0,16 16.0000003,0 0,-16 -16.0000003,0 z m 12.0000003,3.0625 2.03125,0 0,4.625 c 0,1.550514 -1.261986,2.34375 -2.8125,2.34375 l -4.2187503,0 0,2.9375 -6,-3.96875 6,-4.09375 0,3.0625 3.0312503,0 c 1.792454,0 1.96875,-0.332819 1.96875,-2.1875 l 0,-2.71875 z"
         id="path3636" />
    </clipPath>
    <linearGradient
       inkscape:collect="always"
       xlink:href="#StandardGradient"
       id="linearGradient2843"
       gradientUnits="userSpaceOnUse"
       gradientTransform="matrix(1.1467263,0,0,-0.8720476,0,15.040219)"
       x1="7.1904788"
       y1="6.9551144"
       x2="7.1904788"
       y2="18.319494" />
    <linearGradient
       inkscape:collect="always"
       xlink:href="#StandardGradient"
       id="linearGradient2845"
       gradientUnits="userSpaceOnUse"
       gradientTransform="matrix(1.1467263,0,0,0.8720476,-0.4642613,-2.999982)"
       x1="7.1904788"
       y1="6.9551144"
       x2="7.1904788"
       y2="18.319494" />
    <linearGradient
       inkscape:collect="always"
       xlink:href="#StandardGradient"
       id="linearGradient2848"
       gradientUnits="userSpaceOnUse"
       gradientTransform="matrix(1.1467263,0,0,0.8720476,2.5357387,1.8e-5)"
       x1="7.1904788"
       y1="6.9551144"
       x2="7.1904788"
       y2="18.319494" />
    <linearGradient
       inkscape:collect="always"
       xlink:href="#StandardGradient"
       id="linearGradient2859"
       gradientUnits="userSpaceOnUse"
       gradientTransform="matrix(1.1467263,0,0,0.8720476,3,4)"
       x1="7.1904788"
       y1="2.2684112"
       x2="7.1904788"
       y2="17.202982" />
    <linearGradient
       inkscape:collect="always"
       xlink:href="#StandardGradient"
       id="linearGradient2861"
       gradientUnits="userSpaceOnUse"
       gradientTransform="matrix(1.1467263,0,0,0.8720476,2.5357387,1.8e-5)"
       x1="7.1904788"
       y1="2.2684112"
       x2="7.1904788"
       y2="17.202982" />
    <linearGradient
       inkscape:collect="always"
       xlink:href="#StandardGradient"
       id="linearGradient3639"
       gradientUnits="userSpaceOnUse"
       gradientTransform="matrix(1.1467263,0,0,0.8720476,2.5357387,1.000018)"
       x1="7.1904788"
       y1="2.2684112"
       x2="7.1904788"
       y2="17.202982" />
    <linearGradient
       inkscape:collect="always"
       xlink:href="#StandardGradient"
       id="linearGradient3643"
       gradientUnits="userSpaceOnUse"
       gradientTransform="matrix(1.1467263,0,0,0.8720476,3,3)"
       x1="7.1904788"
       y1="2.2684112"
       x2="7.1904788"
       y2="17.202982" />
    <linearGradient
       inkscape:collect="always"
       xlink:href="#StandardGradient"
       id="linearGradient3648"
       gradientUnits="userSpaceOnUse"
       gradientTransform="matrix(1.1467263,0,0,0.8720476,-17,3)"
       x1="7.1904788"
       y1="2.2684112"
       x2="7.1904788"
       y2="17.202982" />
    <clipPath
       clipPathUnits="userSpaceOnUse"
       id="clipPath3655">
      <path
         style="fill:#ff00ff;fill-opacity:1;stroke:none;display:inline"
         d="m -19.535739,2.999982 0,16 16.0000003,0 0,-16 -16.0000003,0 z m 10.0000003,2 2.21875,0 c 1.550514,0 2.8125,0.7932358 2.8125,2.34375 l 0,1.71875 0,2.90625 0,1.71875 c 0,1.550514 -1.261986,2.34375 -2.8125,2.34375 l -2.21875,0 0,1.9375 -5.0000003,-2.96875 5.0000003,-3.09375 0,2.0625 1.03125,0 c 1.717999,0 1.95185,-0.340571 1.96875,-2 l 0,-0.1875 0,-2.5 c 0,-0.087466 9.62e-4,-0.137873 0,-0.21875 -0.019431,-1.6340883 -0.260827,-2 -1.96875,-2 l -1.03125,0 0,-2.0625 z m -7.0000003,8.5 c 0.828427,0 1.5,0.671573 1.5,1.5 0,0.828427 -0.671573,1.5 -1.5,1.5 -0.828427,0 -1.5,-0.671573 -1.5,-1.5 0,-0.828427 0.671573,-1.5 1.5,-1.5 z"
         id="path3657" />
    </clipPath>
    <linearGradient
       inkscape:collect="always"
       xlink:href="#StandardGradient"
       id="linearGradient5518"
       gradientUnits="userSpaceOnUse"
       gradientTransform="matrix(1.1467263,0,0,0.8720476,2.5357387,1.8e-5)"
       x1="7.1904788"
       y1="2.2684112"
       x2="7.1904788"
       y2="17.202982" />
    <linearGradient
       inkscape:collect="always"
       xlink:href="#StandardGradient"
       id="linearGradient5522"
       gradientUnits="userSpaceOnUse"
       gradientTransform="matrix(1.1467263,0,0,0.8720476,2.5357387,1.8e-5)"
       x1="7.1904788"
       y1="2.2684112"
       x2="7.1904788"
       y2="17.202982" />
  </defs>
  <sodipodi:namedview
     id="base"
     pagecolor="#ffffff"
     bordercolor="#9a9a9a"
     borderopacity="1"
     inkscape:pageopacity="0.0"
     inkscape:pageshadow="2"
     inkscape:zoom="17.578558"
     inkscape:cx="-17.239347"
     inkscape:cy="8.6173077"
     inkscape:document-units="px"
     inkscape:current-layer="layer3"
     showgrid="true"
     inkscape:showpageshadow="false"
     showguides="true"
     inkscape:guide-bbox="true"
     inkscape:window-width="1920"
     inkscape:window-height="1030"
     inkscape:window-x="0"
     inkscape:window-y="0"
     inkscape:window-maximized="1">
    <sodipodi:guide
       orientation="1,0"
       position="0,112"
       id="guide2383" />
    <sodipodi:guide
       orientation="0,1"
       position="26.278146,128"
       id="guide2385" />
    <sodipodi:guide
       orientation="1,0"
       position="128,54.082119"
       id="guide2387" />
    <sodipodi:guide
       orientation="0,1"
       position="78.156291,0"
       id="guide2389" />
    <inkscape:grid
       type="xygrid"
       id="grid3672"
       visible="true"
       enabled="true" />
  </sodipodi:namedview>
  <metadata
     id="metadata7">
    <rdf:RDF>
      <cc:Work
         rdf:about="">
        <dc:format>image/svg+xml</dc:format>
        <dc:type
           rdf:resource="http://purl.org/dc/dcmitype/StillImage" />
        <dc:title></dc:title>
      </cc:Work>
    </rdf:RDF>
  </metadata>
  <g
     inkscape:groupmode="layer"
     id="layer3"
     inkscape:label="Cross"
     style="display:inline"
     transform="translate(-0.4642613,-2.999982)">
    <path
       style="fill:#bebebe;fill-opacity:1;stroke:none;display:inline"
       d="M 10 2 L 10 4.0625 L 11.03125 4.0625 C 12.739173 4.0625 12.980569 4.4284117 13 6.0625 C 13.000962 6.143377 13 6.1937842 13 6.28125 L 13 8.78125 L 13 8.96875 C 12.9831 10.628179 12.749249 10.96875 11.03125 10.96875 L 10 10.96875 L 10 8.90625 L 5 12 L 10 14.96875 L 10 13.03125 L 12.21875 13.03125 C 13.769264 13.03125 15.03125 12.238014 15.03125 10.6875 L 15.03125 8.96875 L 15.03125 6.0625 L 15.03125 4.34375 C 15.03125 2.7932358 13.769264 2 12.21875 2 L 10 2 z M 3 10.5 C 2.1715729 10.5 1.5 11.171573 1.5 12 C 1.5 12.828427 2.1715729 13.5 3 13.5 C 3.8284271 13.5 4.5 12.828427 4.5 12 C 4.5 11.171573 3.8284271 10.5 3 10.5 z "
       transform="translate(0.4642613,2.999982)"
       id="Symbol" />
  </g>
</svg>
