<?xml version="1.0" encoding="UTF-8" standalone="no"?>
<!-- Created with Inkscape (http://www.inkscape.org/) -->

<svg
   xmlns:dc="http://purl.org/dc/elements/1.1/"
   xmlns:cc="http://creativecommons.org/ns#"
   xmlns:rdf="http://www.w3.org/1999/02/22-rdf-syntax-ns#"
   xmlns:svg="http://www.w3.org/2000/svg"
   xmlns="http://www.w3.org/2000/svg"
   xmlns:xlink="http://www.w3.org/1999/xlink"
   xmlns:sodipodi="http://sodipodi.sourceforge.net/DTD/sodipodi-0.dtd"
   xmlns:inkscape="http://www.inkscape.org/namespaces/inkscape"
   id="svg7384"
   height="16.024"
   width="16"
   version="1.1"
   inkscape:version="0.92.2 2405546, 2018-03-11"
   sodipodi:docname="system-reboot-symbolic.svg">
  <defs
     id="defs10">
    <linearGradient
       x1="29.826593"
       y1="51.954468"
       x2="65.693901"
       y2="51.954468"
       id="linearGradient2947"
       xlink:href="#StandardGradient-8"
       gradientUnits="userSpaceOnUse"
       gradientTransform="matrix(0,1,-1,0,183,0)" />
    <linearGradient
       x1="11.347495"
       y1="5.999567"
       x2="11.347495"
       y2="16.013096"
       id="StandardGradient-8"
       gradientUnits="userSpaceOnUse"
       gradientTransform="translate(-3,-2.9995677)">
      <stop
         id="stop3177-6"
         style="stop-color:#000000;stop-opacity:0.86274511"
         offset="0" />
      <stop
         id="stop3179-8"
         style="stop-color:#000000;stop-opacity:0.47058824"
         offset="1" />
    </linearGradient>
  </defs>
  <sodipodi:namedview
     pagecolor="#ffffff"
     bordercolor="#666666"
     borderopacity="1"
     objecttolerance="10"
     gridtolerance="10"
     guidetolerance="10"
     inkscape:pageopacity="0"
     inkscape:pageshadow="2"
     inkscape:window-width="1920"
     inkscape:window-height="1146"
     id="namedview8"
     showgrid="true"
     inkscape:zoom="41.656814"
     inkscape:cx="8.8326136"
     inkscape:cy="7.5122106"
     inkscape:window-x="0"
     inkscape:window-y="0"
     inkscape:window-maximized="1"
     inkscape:current-layer="svg7384">
    <inkscape:grid
       type="xygrid"
       id="grid18" />
  </sodipodi:namedview>
  <metadata
     id="metadata90">
    <rdf:RDF>
      <cc:Work
         rdf:about="">
        <dc:format>image/svg+xml</dc:format>
        <dc:type
           rdf:resource="http://purl.org/dc/dcmitype/StillImage" />
        <dc:title>Gnome Symbolic Icon Theme</dc:title>
      </cc:Work>
    </rdf:RDF>
  </metadata>
  <title
     id="title9167">Gnome Symbolic Icon Theme</title>
  <path
     style="opacity:1;fill:#bebebe;fill-opacity:1;stroke-width:1.08012342"
     d="M 7,1.0117188 V 5.1875 A 3,3 0 0 1 8,5.0117188 3,3 0 0 1 9,5.1875 V 1.0117188 Z M 3.7578125,2.3554688 2.34375,3.7695312 5.2949219,6.7207031 A 3,3 0 0 1 6.7089844,5.3066406 Z m 8.4843755,0 -2.9511724,2.9511718 A 3,3 0 0 1 10.705078,6.7207031 L 13.65625,3.7695312 Z M 1,7.0117188 v 2 h 4.1738281 a 3,3 0 0 1 -0.1738281,-1 3,3 0 0 1 0.1757812,-1 z m 9.826172,0 a 3,3 0 0 1 0.173828,1 3,3 0 0 1 -0.175781,1 H 15 v -2 z M 5.2949219,9.3027344 2.34375,12.253906 3.7578125,13.667969 6.7089844,10.716797 A 3,3 0 0 1 5.2949219,9.3027344 Z m 5.4101561,0 A 3,3 0 0 1 9.2910156,10.716797 l 2.9511724,2.951172 1.414062,-1.414063 z M 7,10.837891 v 4.173828 H 9 V 10.837891 A 3,3 0 0 1 8,11.011719 3,3 0 0 1 7,10.837891 Z"
     id="rect873"
     inkscape:connector-curvature="0" />
</svg>
