<?xml version="1.0" encoding="UTF-8" standalone="no"?>
<!-- Created with Inkscape (http://www.inkscape.org/) -->

<svg
   xmlns:dc="http://purl.org/dc/elements/1.1/"
   xmlns:cc="http://creativecommons.org/ns#"
   xmlns:rdf="http://www.w3.org/1999/02/22-rdf-syntax-ns#"
   xmlns:svg="http://www.w3.org/2000/svg"
   xmlns="http://www.w3.org/2000/svg"
   xmlns:xlink="http://www.w3.org/1999/xlink"
   xmlns:sodipodi="http://sodipodi.sourceforge.net/DTD/sodipodi-0.dtd"
   xmlns:inkscape="http://www.inkscape.org/namespaces/inkscape"
   id="svg7384"
   height="16.024"
   width="16"
   version="1.1"
   inkscape:version="0.92.2 2405546, 2018-03-11"
   sodipodi:docname="logout-symbolic.svg">
  <defs
     id="defs10">
    <linearGradient
       x1="29.826593"
       y1="51.954468"
       x2="65.693901"
       y2="51.954468"
       id="linearGradient2947"
       xlink:href="#StandardGradient-8"
       gradientUnits="userSpaceOnUse"
       gradientTransform="matrix(0,1,-1,0,183,0)" />
    <linearGradient
       x1="11.347495"
       y1="5.999567"
       x2="11.347495"
       y2="16.013096"
       id="StandardGradient-8"
       gradientUnits="userSpaceOnUse"
       gradientTransform="translate(-3,-2.9995677)">
      <stop
         id="stop3177-6"
         style="stop-color:#000000;stop-opacity:0.86274511"
         offset="0" />
      <stop
         id="stop3179-8"
         style="stop-color:#000000;stop-opacity:0.47058824"
         offset="1" />
    </linearGradient>
  </defs>
  <sodipodi:namedview
     pagecolor="#ffffff"
     bordercolor="#666666"
     borderopacity="1"
     objecttolerance="10"
     gridtolerance="10"
     guidetolerance="10"
     inkscape:pageopacity="0"
     inkscape:pageshadow="2"
     inkscape:window-width="1920"
     inkscape:window-height="1146"
     id="namedview8"
     showgrid="false"
     inkscape:zoom="41.656814"
     inkscape:cx="9.9791586"
     inkscape:cy="7.7845212"
     inkscape:window-x="0"
     inkscape:window-y="0"
     inkscape:window-maximized="1"
     inkscape:current-layer="svg7384" />
  <metadata
     id="metadata90">
    <rdf:RDF>
      <cc:Work
         rdf:about="">
        <dc:format>image/svg+xml</dc:format>
        <dc:type
           rdf:resource="http://purl.org/dc/dcmitype/StillImage" />
        <dc:title>Gnome Symbolic Icon Theme</dc:title>
      </cc:Work>
    </rdf:RDF>
  </metadata>
  <title
     id="title9167">Gnome Symbolic Icon Theme</title>
  <path
     inkscape:connector-curvature="0"
     style="opacity:1;fill:#bebebe;fill-opacity:1;fill-rule:nonzero;stroke:none;stroke-width:2;stroke-linecap:square;stroke-linejoin:round;stroke-miterlimit:4;stroke-dasharray:none;stroke-dashoffset:0;stroke-opacity:1"
     d="m 7,2.0240002 c -3.312,0 -6,2.688 -6,6.000001 C 1,11.336001 3.688,14.024 7,14.024 c 2.6116505,0 4.832611,-1.669221 5.65625,-3.999999 H 10.4375 C 9.7451615,11.217788 8.4784465,12.024 7,12.024 c -2.208,0 -4,-1.791999 -4,-3.9999988 0,-2.208001 1.792,-4.000001 4,-4.000001 1.4784465,0 2.7451615,0.806213 3.4375,2 h 2.21875 c -0.823639,-2.330778 -3.0445995,-4 -5.65625,-4 z m 6,3.859375 v 1.140625 H 8.5000005 c -0.277,0 -0.5,0.223001 -0.5,0.500001 v 1 c 0,0.277 0.223,0.5 0.5,0.5 H 13 v 1.1406248 l 2.570313,-2.1269538 z"
     id="path2401-3" />
</svg>
