/* XPM */
static char *lock[] = {
/* columns rows colors chars-per-pixel */
"32 32 83 1",
"  c #000000",
". c #010101",
"X c #020202",
"o c #050505",
"O c #090909",
"+ c #1B1B1B",
"@ c #1F1F1F",
"# c #222222",
"$ c #424242",
"% c #474747",
"& c #484848",
"* c #494949",
"= c #4A4A4A",
"- c #4B4B4B",
"; c #4C4C4C",
": c #4D4D4D",
"> c #525252",
", c #535353",
"< c #565656",
"1 c #575757",
"2 c #585858",
"3 c #595959",
"4 c #5E5E5E",
"5 c #5F5F5F",
"6 c #606060",
"7 c #696969",
"8 c #6A6A6A",
"9 c #787878",
"0 c #808080",
"q c #848484",
"w c #858585",
"e c #898989",
"r c #8B8B8B",
"t c #8D8D8D",
"y c #8F8F8F",
"u c #919191",
"i c #949494",
"p c #959595",
"a c #979797",
"s c #A4A4A4",
"d c #A6A6A6",
"f c #A7A7A7",
"g c #B1B1B1",
"h c #B4B4B4",
"j c #B5B5B5",
"k c #B8B8B8",
"l c #B9B9B9",
"z c #BCBCBC",
"x c #BEBEBE",
"c c #C0C0C0",
"v c #C1C1C1",
"b c #C2C2C2",
"n c #C3C3C3",
"m c #C6C6C6",
"M c #CBCBCB",
"N c #CFCFCF",
"B c #D4D4D4",
"V c #D8D8D8",
"C c #D9D9D9",
"Z c #DCDCDC",
"A c #DFDFDF",
"S c #E0E0E0",
"D c #E1E1E1",
"F c #E2E2E2",
"G c #E3E3E3",
"H c #E4E4E4",
"J c #E5E5E5",
"K c #E6E6E6",
"L c #E7E7E7",
"P c #E8E8E8",
"I c #E9E9E9",
"U c #EAEAEA",
"Y c #EBEBEB",
"T c #ECECEC",
"R c #EDEDED",
"E c #EEEEEE",
"W c #EFEFEF",
"Q c #F0F0F0",
"! c #F1F1F1",
"~ c #F2F2F2",
"^ c #F3F3F3",
"/ c #FAFAFA",
"( c None",
/* pixels */
"((((((((((((((((((((((((((((((((",
"((((((((((((((((((((((((((((((((",
"((hW////////////////////////Wh((",
"((JN5;;;;;;;;;;;;;;;;;;;;;;5NJ((",
"((^6                        5^((",
"((^;                        -!((",
"((!;                        ;!((",
"((!;                        ;!((",
"((!;        -smJJms-        ;!((",
"((!;       aJUUUUUUJa       -W((",
"((W-      nJJJJJJJJJUn      -W((",
"((W-     tFFFFs13sFZFFt     -W((",
"((U;    $CZZZZ+hh+ZZZZC$    -U((",
"((U-    wCCBBCOCCOBCCBCw    -U((",
"((U-    sBBBMtottotmBBBs    -U((",
"((U-    nNNNu      uNNNn    -U((",
"((J-    zMMMt      uMMMz    -U((",
"((J-    tmmnt      rmmmu    -J((",
"((J-    8nnnr      rnnn8    -J((",
"((J-    #hxxa      uxxh#    -J((",
"((J-     1zhzMMNNMNzzh3     -F((",
"((F%      0hhhhhhhhhh9      %F((",
"((F-       1shghhhhs1       -F((",
"((F%        @19au91@        %F((",
"((F-                        -F((",
"((Z%                        %Z((",
"((F-                        -F((",
"((Z3                        1Z((",
"((xn3-%%%%%%%%%%%-%%-%%%%%%1xx((",
"((>nZFFFJJJJJUJUUJUJJJFFFFFFm>((",
"((((                        ((((",
"(((((((((((((((((((((((((((((((("
};
