<?xml version="1.0" encoding="UTF-8" standalone="no"?>
<svg
   xmlns:dc="http://purl.org/dc/elements/1.1/"
   xmlns:cc="http://creativecommons.org/ns#"
   xmlns:rdf="http://www.w3.org/1999/02/22-rdf-syntax-ns#"
   xmlns:svg="http://www.w3.org/2000/svg"
   xmlns="http://www.w3.org/2000/svg"
   xmlns:sodipodi="http://sodipodi.sourceforge.net/DTD/sodipodi-0.dtd"
   xmlns:inkscape="http://www.inkscape.org/namespaces/inkscape"
   viewBox="0 0 16 16"
   version="1.1"
   id="svg6"
   sodipodi:docname="folder-templates-symbolic.svg"
   inkscape:version="0.92.3 (2405546, 2018-03-11)">
  <metadata
     id="metadata12">
    <rdf:RDF>
      <cc:Work
         rdf:about="">
        <dc:format>image/svg+xml</dc:format>
        <dc:type
           rdf:resource="http://purl.org/dc/dcmitype/StillImage" />
      </cc:Work>
    </rdf:RDF>
  </metadata>
  <defs
     id="defs10" />
  <sodipodi:namedview
     pagecolor="#ffffff"
     bordercolor="#666666"
     borderopacity="1"
     objecttolerance="10"
     gridtolerance="10"
     guidetolerance="10"
     inkscape:pageopacity="0"
     inkscape:pageshadow="2"
     inkscape:window-width="1280"
     inkscape:window-height="747"
     id="namedview8"
     showgrid="true"
     showguides="false"
     inkscape:zoom="32.000001"
     inkscape:cx="8.0290092"
     inkscape:cy="7.1635129"
     inkscape:window-x="0"
     inkscape:window-y="0"
     inkscape:window-maximized="1"
     inkscape:current-layer="svg6">
    <inkscape:grid
       type="xygrid"
       id="grid822" />
  </sodipodi:namedview>
  <path
     inkscape:connector-curvature="0"
     d="m 0,7 v 9 h 12.01999 z m 2,4 4.116,3 H 2 Z"
     id="path3757"
     sodipodi:nodetypes="cccccccc"
     style="display:inline;fill:#bebebe;fill-opacity:1;stroke:none" />
  <path
     style="color:#000000;line-height:normal;fill:#bebebe"
     d="M 1,0 C 1,0 0,0.038 0,1 V 3 H 2 V 2 H 3 V 0 H 1.09375 Z M 4,0 V 2 H 6 V 0 Z M 7,0 V 2 H 9 V 0 Z m 3,0 v 2 h 2 V 0 Z m 3,0 v 2 h 1 v 1 h 2 V 1 C 16,0 15,0 15,0 Z M 0,4 V 6 H 2 V 4 Z m 14,0 v 2 h 2 V 4 Z m 0,3 v 2 h 2 V 7 Z m 0,3 v 2 h 2 v -2 z m 0,3 v 1 h -1 v 2 h 2 c 0,0 1,0 1,-1 v -2 z"
     id="path2"
     inkscape:connector-curvature="0"
     sodipodi:nodetypes="cscccccccccccccccccccccccccccscccccccccccccccccccccccccccscc" />
</svg>
