/* XPM */
static char *gtk_recordmydesktop[] = {
/* columns rows colors chars-per-pixel */
"24 24 129 2",
"   c #000000",
".  c #3D460C",
"X  c #69791D",
"o  c #6C7B21",
"O  c #73851A",
"+  c #76891D",
"@  c #788A1F",
"#  c #738327",
"$  c #778924",
"%  c #798D22",
"&  c #77882F",
"*  c #788A2F",
"=  c #7C9126",
"-  c #7E952A",
";  c #758C34",
":  c #798F35",
">  c #778F38",
",  c #798D38",
"<  c #7B9335",
"1  c #779038",
"2  c #7C933D",
"3  c #80941C",
"4  c #859A1F",
"5  c #82942F",
"6  c #80992D",
"7  c #819534",
"8  c #839C31",
"9  c #8A9D36",
"0  c #849639",
"q  c #859B3C",
"w  c #899D3C",
"e  c #94A922",
"r  c #85A035",
"t  c #8EA234",
"y  c #87A239",
"u  c #8AA43A",
"i  c #8AA83D",
"p  c #90A03C",
"a  c #93AA3B",
"s  c #9AAF3B",
"d  c #A7C02A",
"f  c #ADC72C",
"g  c #AEC82F",
"h  c #ACC731",
"j  c #AFC932",
"k  c #ACC73B",
"l  c #AFC93C",
"z  c #B0CA36",
"x  c #B2CB3E",
"c  c #839A46",
"v  c #899C44",
"b  c #899F4C",
"n  c #8FA246",
"m  c #8AA24E",
"M  c #91A043",
"N  c #94AA44",
"B  c #99AE45",
"V  c #96A848",
"C  c #98AD4D",
"Z  c #9DB44B",
"A  c #8EA651",
"S  c #90A551",
"D  c #95AB57",
"F  c #98AC5B",
"G  c #99B252",
"H  c #9DB35C",
"J  c #A0B444",
"K  c #A3B54F",
"L  c #A3B84D",
"P  c #A0AF56",
"I  c #A2B752",
"U  c #A5BA55",
"Y  c #A7B65C",
"T  c #A7BC5D",
"R  c #9FB168",
"E  c #A4BC60",
"W  c #ACBE64",
"Q  c #ADBF73",
"!  c #ACC743",
"~  c #AFC943",
"^  c #ACC54D",
"/  c #AFC94C",
"(  c #B4CC43",
")  c #B5CC4B",
"_  c #B8CF4A",
"`  c #BAD04E",
"'  c #ACC753",
"]  c #AFC954",
"[  c #ACC55C",
"{  c #AFC95D",
"}  c #B1C755",
"|  c #B7CE51",
" . c #B8CE56",
".. c #B0C65C",
"X. c #B7CE5C",
"o. c #B8CE5B",
"O. c #BAD057",
"+. c #BAD058",
"@. c #ACC463",
"#. c #AFC862",
"$. c #ACC668",
"%. c #AFC96A",
"&. c #B4C366",
"*. c #B6CD64",
"=. c #B9CE63",
"-. c #B1CA6C",
";. c #B9CE6A",
":. c #BCD162",
">. c #BCD06B",
",. c #B1C570",
"<. c #B6CC73",
"1. c #B9CF72",
"2. c #B5C779",
"3. c #B2C87A",
"4. c #BACB7B",
"5. c #BBD170",
"6. c #BDD07F",
"7. c #C1D562",
"8. c #C2D473",
"9. c #C7D976",
"0. c #C4D67C",
"q. c #C8D978",
"w. c #BBCE84",
"e. c #BCCF88",
"r. c #BFD28C",
"t. c #C1D383",
"y. c #C1D58E",
"u. c #C8D98E",
"i. c None",
/* pixels */
"i.i.i.i.i.i.i.i.i.i.i.i.i.i.i.i.i.i.i.i.i.i.i.i.",
"i.i.i.i.i.i.i.i.i.i.i.i.i.i.i.i.i.i.i.i.i.i.i.i.",
"i.i.i.e.r.r.r.r.y.r.r.r.r.r.y.y.r.r.y.r.r.i.i.i.",
"i.i.3.-.%.%.%.%.<.$.A c c > 1 c c m @.$.%.3.i.i.",
"i.i.%.#.%.%.,.<.A 1 y i i n i i i y < v #.-.i.i.",
"i.i.{ #.%.<.W 2 H e.r.y.w.3.G y u y i r 1 G i.i.",
"i.i.[ #.*.%.m r.4.F H %.<.<.r.<.i y y y y < i.i.",
"i.i.[ { *.D ,.> 1 D m ; 2 @.5.1.e.y r r r r i.i.",
"i.i.' X.G R 0 w.u.6.0.u.3.: E ;.;.,.8 8 8 r i.i.",
"i.i.' [ E 7 6.;.T n T ;.>.<.< *.>.5.N 8 8 - i.i.",
"i.i.^ ] H T =.w D 4.F v =.>.C U *.*.Z 6 - r i.i.",
"i.i.! ] B T ..v >.=.>.n ..=.I C =.=.U 6 - - i.i.",
"i.i.! ] a Z =.w =.X.=.w =.=.N L X.=.Z - = 5 i.i.",
"i.i.! / L 9 o.W & 0 & W X.X.5 ..o.o.a % % 5 i.i.",
"i.i.k / X.0 B =.0.4.0.7.o.9 V =.o.o.6 % % % i.i.",
"i.i.k ! ) *.$ 7 }  .o.^ * 7 >. . .t @ % % @ i.i.",
"i.i.k ! ) | 8.I o X X o W 8._  .J o + @ @ + i.i.",
"i.i.h x ( ) | ..9.0.0.9.o.| _ 5 X @ O + 9 =.i.i.",
"i.i.h j x ( ) | K 5 t s 5 $ X o O O + Y +.g i.i.",
"i.i.d h z l x ( ( 7.Y M 9 + O p U &.7.x g d i.i.",
"i.i.6 d f f g g z z g z ` 7.7.` z g g g d 6 i.i.",
"i.i.. 3 e e e e e e e e e e e e e e e e 3 . i.i.",
"i.i.i.i.                                i.i.i.i.",
"i.i.i.i.i.i.i.i.i.i.i.i.i.i.i.i.i.i.i.i.i.i.i.i."
};
