/* XPM */
static char *xchat[] = {
/* columns rows colors chars-per-pixel */
"24 24 102 2",
"   c #000000",
".  c #273908",
"X  c #527316",
"o  c #527910",
"O  c #55741A",
"+  c #687E3C",
"@  c #5C8216",
"#  c #5F8A13",
"$  c #5F8518",
"%  c #61861C",
"&  c #678E1C",
"*  c #69911C",
"=  c #6E991C",
"-  c #709D1D",
";  c #6EA017",
":  c #6FA018",
">  c #73A51B",
",  c #77A91B",
"<  c #79AC1D",
"1  c #7DB01F",
"2  c #668921",
"3  c #688C23",
"4  c #6C9322",
"5  c #739C23",
"6  c #72952D",
"7  c #749A2A",
"8  c #799F2A",
"9  c #6B833D",
"0  c #6F8B38",
"q  c #76A222",
"w  c #79A624",
"e  c #7CAD23",
"r  c #7DA62A",
"t  c #7FA92A",
"y  c #7EB023",
"u  c #7EA436",
"i  c #74894B",
"p  c #80AE27",
"a  c #80A72F",
"s  c #82AC2D",
"d  c #82B425",
"f  c #85B826",
"g  c #85B42B",
"h  c #89B52F",
"j  c #86B828",
"k  c #8ABA2D",
"l  c #84AC32",
"z  c #83AC3B",
"x  c #85B430",
"c  c #8AB433",
"v  c #8DBA32",
"b  c #87B23A",
"n  c #8CB63A",
"m  c #8DBA3A",
"M  c #90BF33",
"N  c #91BB3C",
"B  c #8DC02C",
"V  c #93C433",
"C  c #99CC36",
"Z  c #9CCC3B",
"A  c #9ED236",
"S  c #A1D43A",
"D  c #A5D83C",
"F  c #A9DD3E",
"G  c #8CAC4D",
"H  c #8EB444",
"J  c #8EB940",
"K  c #8FB24B",
"L  c #90B942",
"P  c #96BC49",
"I  c #90AE55",
"U  c #9AB95C",
"Y  c #8A9F63",
"T  c #8C9A6F",
"R  c #8E9D70",
"E  c #A4BC75",
"W  c #9DC940",
"Q  c #A0CE42",
"!  c #A3D440",
"~  c #AADC42",
"^  c #ADDD48",
"/  c #B5DF5C",
"(  c #AEE242",
")  c #AFE148",
"_  c #B1E444",
"`  c #B1E24A",
"'  c #C0E66D",
"]  c #C5EC73",
"[  c #A6B684",
"{  c #ABB499",
"}  c #ACC180",
"|  c #B4C496",
" . c #BBD090",
".. c #D4DEBF",
"X. c #D0D5C7",
"o. c #D4DBC5",
"O. c #DADED3",
"+. c #DFE5D2",
"@. c #EBECEA",
"#. c #F5F5F5",
"$. c #FAFAFA",
"%. c None",
/* pixels */
"%.%.%.%.%.%.%.%.%.%.%.%.%.%.%.%.%.%.%.%.%.%.%.%.",
"%.%.%.%.%.%.%.%.%.%.%.%.%.%.%.%.%.%.%.%.%.%.%.%.",
"%.%.%.' ] ] ] ] ] ] ] ] ] ] ] ] ] ] ] ] ' %.%.%.",
"%.%./ ` ( ( ( _ _ _ _ _ ` _ _ _ ( ( ( ( ` / %.%.",
"%.%.` F F ( ~ ( ) ) ` ` ` ` ) ^ ( ~ ( F F ` %.%.",
"%.%.F F F F ~ ^ Z n l a l c N Q ^ ^ ~ F F F %.%.",
"%.%.D D D ~ W l 8 s h v v h h s c ! ~ D D D %.%.",
"%.%.S S ! W 7 r h c P $.N  ...V c s W D S S %.%.",
"%.%.A S Z 6 r s s c E O.N o.[ M B k s S S S %.%.",
"%.%.C Z l 5 p s E $.$.$.$.$.$.+.k k s N Z C %.%.",
"%.%.C Z 7 8 r w 6 + @.R R @.9 0 k k g l Z C %.%.",
"%.%.V Z & 5 w w K U #.I | X.P h g g g q C V %.%.",
"%.%.V V 6 4 8 5 #.#.#.#.#.#.#.K d g t r V V %.%.",
"%.%.M V a * 5 5 X { { O @.i O q t y w x V B %.%.",
"%.%.j k N % * - - O.Y G @.8 w p e w 7 V B k %.%.",
"%.%.j j h H 2 & - X & * X 5 > > : 4 H k f f %.%.",
"%.%.d d f k J 3 * = : 5 = : = & 5 J k y f y %.%.",
"%.%.1 1 y d h 7 $ $ $ $ $ 4 6 H m y y y y 1 %.%.",
"%.%.1 < e y w @ @ u J H J m x y y e < < < < %.%.",
"%.%.> , , > 7 u b t e e e w e , w , , , , , %.%.",
"%.%.@ : > , > > , , > > > > > > > ; > , ; @ %.%.",
"%.%.. o # # # # # # # # # # # # # # # # o . %.%.",
"%.%.%.%.                                %.%.%.%.",
"%.%.%.%.%.%.%.%.%.%.%.%.%.%.%.%.%.%.%.%.%.%.%.%."
};
