<?xml version="1.0" encoding="UTF-8"?>
<svg xmlns="http://www.w3.org/2000/svg" xmlns:xlink="http://www.w3.org/1999/xlink" width="48" height="48" viewBox="0 0 48 48" version="1.1">
<defs>
<radialGradient id="radial0" gradientUnits="userSpaceOnUse" cx="62.71241" cy="108.02493" fx="62.71241" fy="108.02493" r="47.38271" gradientTransform="matrix(0.379885,0,0,0.213706,0.176472,14.789461)">
<stop offset="0" style="stop-color:rgb(0%,0%,0%);stop-opacity:1;"/>
<stop offset="1" style="stop-color:rgb(0%,0%,0%);stop-opacity:0;"/>
</radialGradient>
<linearGradient id="linear0" gradientUnits="userSpaceOnUse" x1="11.93083" y1="26.410894" x2="21.514704" y2="26.410894" spreadMethod="reflect" gradientTransform="matrix(1.208348,0,0,1.519879,-1.979478,-31.055094)">
<stop offset="0" style="stop-color:rgb(55.294118%,56.470588%,60.392157%);stop-opacity:1;"/>
<stop offset="1" style="stop-color:rgb(85.098039%,85.098039%,85.098039%);stop-opacity:1;"/>
</linearGradient>
<linearGradient id="linear1" gradientUnits="userSpaceOnUse" x1="31.048019" y1="45" x2="31.048019" y2="5.5" gradientTransform="matrix(1,0,0,1,0,-14)">
<stop offset="0" style="stop-color:rgb(43.137255%,43.137255%,43.137255%);stop-opacity:1;"/>
<stop offset="1" style="stop-color:rgb(62.352941%,62.352941%,63.137255%);stop-opacity:1;"/>
</linearGradient>
<radialGradient id="radial1" gradientUnits="userSpaceOnUse" cx="19.308081" cy="21.029308" fx="19.308081" fy="21.029308" r="14.500172" gradientTransform="matrix(0,1.700443,-1.742268,0,50.283369,-19.333971)">
<stop offset="0" style="stop-color:rgb(100%,100%,100%);stop-opacity:0.4;"/>
<stop offset="1" style="stop-color:rgb(100%,100%,100%);stop-opacity:0;"/>
</radialGradient>
<linearGradient id="linear2" gradientUnits="userSpaceOnUse" x1="9.000347" y1="8" x2="24" y2="8" spreadMethod="reflect" gradientTransform="matrix(1,0,0,1,0,-16)">
<stop offset="0" style="stop-color:rgb(30.588235%,30.588235%,30.588235%);stop-opacity:1;"/>
<stop offset="1" style="stop-color:rgb(72.54902%,72.941176%,76.078431%);stop-opacity:1;"/>
</linearGradient>
<linearGradient id="linear3" gradientUnits="userSpaceOnUse" x1="23.999979" y1="9.372685" x2="23.999979" y2="2.096848" gradientTransform="matrix(1.159866,0,0,1.374246,-3.836754,-16.932601)">
<stop offset="0" style="stop-color:rgb(94.117647%,94.117647%,94.117647%);stop-opacity:1;"/>
<stop offset="0.449556" style="stop-color:rgb(46.666667%,46.666667%,47.45098%);stop-opacity:1;"/>
<stop offset="1" style="stop-color:rgb(42.352941%,42.352941%,43.921569%);stop-opacity:1;"/>
</linearGradient>
<radialGradient id="radial2" gradientUnits="userSpaceOnUse" cx="24" cy="7.791998" fx="24" fy="7.791998" r="14.507708" gradientTransform="matrix(-0.0000000339276,0.697974,-3.343217,0,50.050339,-14.318397)">
<stop offset="0" style="stop-color:rgb(0%,0%,0%);stop-opacity:0;"/>
<stop offset="0.5" style="stop-color:rgb(0%,0%,0%);stop-opacity:0;"/>
<stop offset="1" style="stop-color:rgb(0%,0%,0%);stop-opacity:0.301961;"/>
</radialGradient>
<linearGradient id="linear4" gradientUnits="userSpaceOnUse" x1="23.5" y1="10.996204" x2="23.5" y2="39.850574" gradientTransform="matrix(1.222797,0,0,1.945898,-4.735753,-47.362975)">
<stop offset="0" style="stop-color:rgb(100%,100%,100%);stop-opacity:0.14902;"/>
<stop offset="1" style="stop-color:rgb(100%,100%,100%);stop-opacity:0;"/>
</linearGradient>
<linearGradient id="linear5" gradientUnits="userSpaceOnUse" x1="12.25" y1="20.230709" x2="17.125" y2="34.173542" gradientTransform="matrix(0.949237,0,0,1.383107,3.59137,-9.524501)">
<stop offset="0" style="stop-color:rgb(100%,100%,100%);stop-opacity:0.2;"/>
<stop offset="1" style="stop-color:rgb(100%,100%,100%);stop-opacity:0;"/>
</linearGradient>
<linearGradient id="linear6" gradientUnits="userSpaceOnUse" x1="24" y1="13.506023" x2="24" y2="43" gradientTransform="matrix(1.058824,0.373047,0,1.0126,-1.411765,-5.640958)">
<stop offset="0" style="stop-color:rgb(0%,0%,0%);stop-opacity:0.14902;"/>
<stop offset="1" style="stop-color:rgb(0%,0%,0%);stop-opacity:0;"/>
</linearGradient>
<linearGradient id="linear7" gradientUnits="userSpaceOnUse" x1="24" y1="15.502284" x2="24" y2="45" gradientTransform="matrix(1.058824,0.0466309,0,1.0126,-1.411765,-1.560753)">
<stop offset="0" style="stop-color:rgb(0%,0%,0%);stop-opacity:0.301961;"/>
<stop offset="1" style="stop-color:rgb(0%,0%,0%);stop-opacity:0;"/>
</linearGradient>
<linearGradient id="linear8" gradientUnits="userSpaceOnUse" x1="49.925751" y1="1.713386" x2="64.672821" y2="1.713386" gradientTransform="matrix(1,0,0,0.956169,-36.672862,-8.130578)">
<stop offset="0" style="stop-color:rgb(72.156863%,70.588235%,70.588235%);stop-opacity:1;"/>
<stop offset="1" style="stop-color:rgb(94.509804%,94.509804%,94.117647%);stop-opacity:1;"/>
</linearGradient>
<linearGradient id="linear9" gradientUnits="userSpaceOnUse" x1="-11.285484" y1="16.208538" x2="-11.285484" y2="-2.087147" gradientTransform="matrix(0.807497,0,0,0.894832,22.73737,-9.196209)">
<stop offset="0" style="stop-color:rgb(63.529412%,63.529412%,63.529412%);stop-opacity:1;"/>
<stop offset="1" style="stop-color:rgb(88.235294%,88.235294%,88.235294%);stop-opacity:1;"/>
</linearGradient>
<linearGradient id="linear10" gradientUnits="userSpaceOnUse" x1="52.672863" y1="5.928594" x2="59.672863" y2="-3.692724" gradientTransform="matrix(1.058824,0,0,0.968218,-40.241854,7.36376)">
<stop offset="0" style="stop-color:rgb(23.529412%,23.529412%,23.529412%);stop-opacity:1;"/>
<stop offset="1" style="stop-color:rgb(36.470588%,37.254902%,41.960784%);stop-opacity:1;"/>
</linearGradient>
<linearGradient id="linear11" gradientUnits="userSpaceOnUse" x1="12.2744" y1="32.4165" x2="35.391201" y2="14.2033" gradientTransform="matrix(0,0.600005,-0.600005,0,41.860125,-12.400131)">
<stop offset="0" style="stop-color:rgb(87.058824%,85.882353%,87.058824%);stop-opacity:1;"/>
<stop offset="0.5" style="stop-color:rgb(90.196078%,90.196078%,90.196078%);stop-opacity:1;"/>
<stop offset="1" style="stop-color:rgb(82.352941%,82.352941%,82.352941%);stop-opacity:1;"/>
</linearGradient>
<linearGradient id="linear12" gradientUnits="userSpaceOnUse" x1="-21.915663" y1="3" x2="-21.915663" y2="45.032898" gradientTransform="matrix(0.512195,0,0,0.512195,41.452835,-10.292683)">
<stop offset="0" style="stop-color:rgb(70.588235%,70.588235%,70.588235%);stop-opacity:1;"/>
<stop offset="1" style="stop-color:rgb(58.823529%,58.823529%,58.823529%);stop-opacity:1;"/>
</linearGradient>
<linearGradient id="linear13" gradientUnits="userSpaceOnUse" x1="20.580074" y1="10.774516" x2="24.27351" y2="9.862211" spreadMethod="reflect" gradientTransform="matrix(0.517942,0.0139952,-0.014634,0.495331,16.158501,5.396882)">
<stop offset="0" style="stop-color:rgb(90.196078%,80.392157%,88.627451%);stop-opacity:1;"/>
<stop offset="1" style="stop-color:rgb(90.196078%,80.392157%,88.627451%);stop-opacity:0;"/>
</linearGradient>
<linearGradient id="linear14" gradientUnits="userSpaceOnUse" x1="17.494959" y1="11.200086" x2="21.047453" y2="9.79561" spreadMethod="reflect" gradientTransform="matrix(0.518149,0,0,0.495529,15.799729,5.7293)">
<stop offset="0" style="stop-color:rgb(75.686275%,79.607843%,89.411765%);stop-opacity:1;"/>
<stop offset="1" style="stop-color:rgb(75.686275%,79.607843%,89.411765%);stop-opacity:0;"/>
</linearGradient>
<linearGradient id="linear15" gradientUnits="userSpaceOnUse" x1="14.084608" y1="13.045606" x2="16.994024" y2="10.732353" spreadMethod="reflect" gradientTransform="matrix(0.518149,0,0,0.495529,15.799729,5.7293)">
<stop offset="0" style="stop-color:rgb(76.862745%,92.156863%,86.666667%);stop-opacity:1;"/>
<stop offset="1" style="stop-color:rgb(76.862745%,92.156863%,86.666667%);stop-opacity:0;"/>
</linearGradient>
<linearGradient id="linear16" gradientUnits="userSpaceOnUse" x1="12.371647" y1="16.188046" x2="14.609327" y2="13.461712" spreadMethod="reflect" gradientTransform="matrix(0.518149,0,0,0.495529,15.799729,5.7293)">
<stop offset="0" style="stop-color:rgb(92.156863%,93.333333%,78.039216%);stop-opacity:1;"/>
<stop offset="1" style="stop-color:rgb(92.156863%,93.333333%,78.039216%);stop-opacity:0;"/>
</linearGradient>
<linearGradient id="linear17" gradientUnits="userSpaceOnUse" x1="10.609375" y1="17.886322" x2="9.729775" y2="20.612656" spreadMethod="reflect" gradientTransform="matrix(0.518149,0,0,0.495529,15.799729,5.7293)">
<stop offset="0" style="stop-color:rgb(98.823529%,85.098039%,80.392157%);stop-opacity:1;"/>
<stop offset="1" style="stop-color:rgb(98.823529%,85.098039%,80.392157%);stop-opacity:0;"/>
</linearGradient>
<linearGradient id="linear18" gradientUnits="userSpaceOnUse" x1="10.50172" y1="3.610016" x2="48.798885" y2="54.698483" gradientTransform="matrix(0.482006,0,0,0.482006,16.264609,-10.050137)">
<stop offset="0" style="stop-color:rgb(100%,100%,100%);stop-opacity:0.4;"/>
<stop offset="1" style="stop-color:rgb(100%,100%,100%);stop-opacity:0;"/>
</linearGradient>
<linearGradient id="linear19" gradientUnits="userSpaceOnUse" x1="23.999979" y1="9.372685" x2="23.999979" y2="2.096848" gradientTransform="matrix(1.159893,0,0,1.374246,-3.83742,-16.932601)">
<stop offset="0" style="stop-color:rgb(94.117647%,94.117647%,94.117647%);stop-opacity:1;"/>
<stop offset="0.449556" style="stop-color:rgb(46.666667%,46.666667%,47.45098%);stop-opacity:1;"/>
<stop offset="1" style="stop-color:rgb(42.352941%,42.352941%,43.921569%);stop-opacity:1;"/>
</linearGradient>
<linearGradient id="linear20" gradientUnits="userSpaceOnUse" x1="27" y1="24.650604" x2="27" y2="12.711448" spreadMethod="reflect" gradientTransform="matrix(1,0,0,1,-1,-16)">
<stop offset="0" style="stop-color:rgb(90.588235%,30.980392%,30.980392%);stop-opacity:1;"/>
<stop offset="0.49876" style="stop-color:rgb(78.431373%,25.882353%,25.882353%);stop-opacity:1;"/>
<stop offset="1" style="stop-color:rgb(67.058824%,17.254902%,17.254902%);stop-opacity:1;"/>
</linearGradient>
<linearGradient id="linear21" gradientUnits="userSpaceOnUse" x1="20" y1="12.711448" x2="20" y2="23.258751" spreadMethod="reflect" gradientTransform="matrix(1,0,0,1,-1,-16)">
<stop offset="0" style="stop-color:rgb(100%,56.078431%,56.078431%);stop-opacity:1;"/>
<stop offset="0.25483" style="stop-color:rgb(51.764706%,28.627451%,28.627451%);stop-opacity:1;"/>
<stop offset="1" style="stop-color:rgb(64.705882%,34.901961%,34.901961%);stop-opacity:1;"/>
</linearGradient>
<linearGradient id="linear22" gradientUnits="userSpaceOnUse" x1="20" y1="12.711448" x2="20" y2="21.276361" spreadMethod="reflect" gradientTransform="matrix(1,0,0,1,-1,-16)">
<stop offset="0" style="stop-color:rgb(100%,100%,100%);stop-opacity:0.4;"/>
<stop offset="1" style="stop-color:rgb(100%,100%,100%);stop-opacity:0;"/>
</linearGradient>
</defs>
<g id="surface1">
<path style=" stroke:none;fill-rule:evenodd;fill:url(#radial0);" d="M 42 37.875 C 42 43.46875 33.941406 48 24 48 C 14.058594 48 6 43.46875 6 37.875 C 6 32.28125 14.058594 27.746094 24 27.746094 C 33.941406 27.746094 42 32.28125 42 37.875 Z M 42 37.875 "/>
<path style="fill-rule:nonzero;fill:url(#linear0);stroke-width:1;stroke-linecap:butt;stroke-linejoin:miter;stroke:url(#linear1);stroke-miterlimit:4;" d="M 9.501302 -7.999891 L 9.501302 23.99925 C 9.501302 26.934915 13.90625 30.499377 24 30.499377 C 34.09375 30.499377 38.498698 26.934915 38.498698 23.99925 L 38.498698 -7.999891 C 38.498698 -7.999891 9.501302 -7.999891 9.501302 -7.999891 Z M 9.501302 -7.999891 " transform="matrix(1.058824,0,0,1.0126,-1.411765,15.596787)"/>
<path style=" stroke:none;fill-rule:nonzero;fill:url(#radial1);" d="M 9.175781 8.507812 L 9.175781 39.898438 C 9.175781 42.757812 15.816406 45.976562 24 45.976562 C 32.183594 45.976562 38.824219 42.757812 38.824219 39.898438 L 38.824219 8.507812 C 38.824219 8.507812 9.175781 8.507812 9.175781 8.507812 Z M 9.175781 8.507812 "/>
<path style="fill-rule:nonzero;fill:url(#linear2);stroke-width:0.98389;stroke-linecap:round;stroke-linejoin:round;stroke:url(#linear3);stroke-miterlimit:4;" d="M 38.506076 -7.999891 C 38.506076 -4.956212 32.013021 -2.491178 24 -2.491178 C 15.986979 -2.491178 9.493924 -4.956212 9.493924 -7.999891 C 9.493924 -11.043571 15.986979 -13.508604 24 -13.508604 C 32.013021 -13.508604 38.506076 -11.043571 38.506076 -7.999891 Z M 38.506076 -7.999891 " transform="matrix(1.058824,0,0,1.0126,-1.411765,15.596787)"/>
<path style=" stroke:none;fill-rule:nonzero;fill:url(#radial2);" d="M 38.824219 7.496094 C 38.824219 10.292969 32.1875 12.558594 24 12.558594 C 15.8125 12.558594 9.175781 10.292969 9.175781 7.496094 C 9.175781 4.699219 15.8125 2.433594 24 2.433594 C 32.1875 2.433594 38.824219 4.699219 38.824219 7.496094 Z M 38.824219 7.496094 "/>
<path style="fill:none;stroke-width:1;stroke-linecap:round;stroke-linejoin:round;stroke:url(#linear4);stroke-miterlimit:4;" d="M 10.501085 -8.188916 C 10.501085 -5.966914 10.501085 22.406044 10.501085 24.635761 C 10.501085 27.32068 16.573568 29.500247 24 29.500247 C 31.426432 29.500247 37.498915 27.32068 37.498915 24.635761 C 37.498915 22.57578 37.498915 -6.128935 37.498915 -8.188916 C 37.498915 -10.434063 31.419054 -12.536478 24 -12.497902 C 16.580946 -12.463183 10.501085 -10.42249 10.501085 -8.188916 Z M 10.501085 -8.188916 " transform="matrix(1.058824,0,0,1.0126,-1.411765,15.596787)"/>
<path style=" stroke:none;fill-rule:nonzero;fill:url(#linear5);" d="M 15.929688 11.726562 L 20.675781 12.605469 L 20.675781 46.230469 L 15.929688 45.109375 Z M 15.929688 11.726562 "/>
<path style=" stroke:none;fill-rule:nonzero;fill:url(#linear6);" d="M 12.882812 13.070312 C 13.761719 13.382812 14.46875 14.308594 14.46875 15.148438 L 14.46875 41.976562 C 14.46875 42.820312 13.761719 43.246094 12.882812 42.9375 C 12.003906 42.628906 11.292969 41.699219 11.292969 40.859375 L 11.292969 14.03125 C 11.292969 13.1875 12.003906 12.761719 12.882812 13.070312 Z M 35.117188 12.820312 C 34.238281 13.132812 33.53125 14.058594 33.53125 14.898438 L 33.53125 41.726562 C 33.53125 42.570312 34.238281 42.996094 35.117188 42.6875 C 35.996094 42.375 36.707031 41.449219 36.707031 40.609375 L 36.707031 13.78125 C 36.707031 12.9375 35.996094 12.511719 35.117188 12.820312 Z M 35.117188 12.820312 "/>
<path style=" stroke:none;fill-rule:nonzero;fill:url(#linear7);" d="M 20.292969 15.097656 C 21.175781 15.136719 21.882812 15.84375 21.882812 16.683594 L 21.882812 43.511719 C 21.882812 44.355469 21.175781 45 20.292969 44.960938 C 19.414062 44.921875 18.707031 44.214844 18.707031 43.375 L 18.707031 16.546875 C 18.707031 15.703125 19.414062 15.058594 20.292969 15.097656 Z M 27.707031 15.097656 C 26.824219 15.136719 26.117188 15.84375 26.117188 16.683594 L 26.117188 43.511719 C 26.117188 44.355469 26.824219 45 27.707031 44.960938 C 28.585938 44.921875 29.292969 44.214844 29.292969 43.375 L 29.292969 16.546875 C 29.292969 15.703125 28.585938 15.058594 27.707031 15.097656 Z M 27.707031 15.097656 "/>
<path style="fill-rule:nonzero;fill:url(#linear8);stroke-width:0.999922;stroke-linecap:butt;stroke-linejoin:round;stroke:url(#linear9);stroke-miterlimit:4;" d="M 12.500651 -7.876447 L 12.500651 -4.616739 C 16.85026 -2.66863 22.664496 -2.197998 27.501085 -2.552901 L 27.501085 -10.499643 C 23.774957 -10.499643 17.086371 -11.066717 12.500651 -7.876447 Z M 12.500651 -7.876447 " transform="matrix(1.058824,0,0,1.0126,-1.411765,15.596787)"/>
<path style=" stroke:none;fill-rule:nonzero;fill:url(#linear10);" d="M 13.410156 8.507812 L 13.410156 11.832031 C 16.722656 12.777344 22.609375 13.144531 26.125 13.109375 C 26.125 13.109375 26.117188 6.484375 26.117188 6.484375 C 20.824219 6.484375 17.648438 6.484375 13.410156 8.507812 Z M 13.410156 8.507812 "/>
<path style="fill-rule:nonzero;fill:url(#linear11);stroke-width:1;stroke-linecap:butt;stroke-linejoin:miter;stroke:url(#linear12);stroke-miterlimit:4;" d="M 27.999132 -8.501385 C 24.14388 -8.501385 20.236979 -6.024778 18.410807 -2.94638 C 23.730686 -2.360019 31.201389 -2.197998 36.02322 -4.821194 C 34.112196 -6.842599 31.016927 -8.501385 27.999132 -8.501385 Z M 27.999132 -8.501385 " transform="matrix(1.058824,0,0,1.0126,-1.411765,15.596787)"/>
<path style=" stroke:none;fill-rule:nonzero;fill:url(#linear13);" d="M 24.289062 8.457031 L 26.601562 13.78125 C 27.144531 13.570312 27.738281 13.457031 28.359375 13.472656 C 28.378906 13.472656 28.390625 13.472656 28.410156 13.472656 L 28.585938 7.71875 C 27.0625 7.640625 25.707031 7.964844 24.289062 8.457031 Z M 24.289062 8.457031 "/>
<path style=" stroke:none;fill-rule:nonzero;fill:url(#linear14);" d="M 22.082031 9.648438 L 25.671875 14.285156 C 26.144531 13.953125 26.691406 13.707031 27.300781 13.578125 C 27.316406 13.574219 27.332031 13.570312 27.347656 13.570312 L 26.089844 7.921875 C 24.589844 8.199219 23.332031 8.84375 22.082031 9.648438 Z M 22.082031 9.648438 "/>
<path style=" stroke:none;fill-rule:nonzero;fill:url(#linear15);" d="M 20.074219 11.5 L 24.851562 15.046875 C 25.21875 14.609375 25.675781 14.234375 26.230469 13.960938 C 26.246094 13.953125 26.261719 13.945312 26.273438 13.941406 L 23.503906 8.828125 C 22.132812 9.464844 21.066406 10.414062 20.074219 11.5 Z M 20.074219 11.5 "/>
<path style=" stroke:none;fill-rule:nonzero;fill:url(#linear16);" d="M 18.71875 13.695312 C 22.4375 14.804688 22.785156 17.179688 25.339844 14.5625 L 21.242188 10.253906 C 20.089844 11.210938 19.382812 12.398438 18.71875 13.695312 Z M 18.71875 13.695312 "/>
<path style=" stroke:none;fill-rule:nonzero;fill:url(#linear17);" d="M 19.507812 12.265625 C 18.894531 13.136719 18.519531 14.070312 18.199219 15.0625 L 24.074219 16.539062 C 24.1875 16.160156 24.34375 15.789062 24.574219 15.4375 C 24.585938 15.425781 24.597656 15.40625 24.609375 15.390625 Z M 19.507812 12.265625 "/>
<path style="fill:none;stroke-width:1;stroke-linecap:butt;stroke-linejoin:miter;stroke:url(#linear18);stroke-miterlimit:4;" d="M 27.999132 -7.533117 C 24.638238 -7.533117 21.303168 -5.430702 19.60243 -2.822936 C 25.59375 -2.402453 30.349175 -2.518182 35.115668 -4.385281 C 33.392795 -6.090358 30.629557 -7.533117 27.999132 -7.533117 Z M 27.999132 -7.533117 " transform="matrix(1.058824,0,0,1.0126,-1.411765,15.596787)"/>
<path style=" stroke:none;fill-rule:evenodd;fill:rgb(0%,0%,0%);fill-opacity:0.2;" d="M 18.707031 13.570312 C 18.707031 13.570312 26.117188 13.570312 26.117188 13.570312 L 26.117188 27.746094 L 22.210938 23.699219 L 18.707031 27.746094 Z M 18.707031 13.570312 "/>
<path style="fill:none;stroke-width:0.98389;stroke-linecap:round;stroke-linejoin:round;stroke:url(#linear19);stroke-miterlimit:4;" d="M 38.509766 -7.999891 C 38.509766 -4.956212 32.013021 -2.491178 24 -2.491178 C 15.986979 -2.491178 9.490234 -4.956212 9.490234 -7.999891 C 9.490234 -11.043571 15.986979 -13.508604 24 -13.508604 C 32.013021 -13.508604 38.509766 -11.043571 38.509766 -7.999891 Z M 38.509766 -7.999891 " transform="matrix(1.058824,0,0,1.0126,-1.411765,15.596787)"/>
<path style="fill-rule:evenodd;fill:url(#linear20);stroke-width:1;stroke-linecap:butt;stroke-linejoin:miter;stroke:url(#linear21);stroke-miterlimit:4;" d="M 19.499132 -2.788217 C 21.362196 -2.298296 25.501519 -2.541328 25.501519 -2.541328 L 25.501519 9.498373 L 22.31033 6.300388 L 19.499132 9.232196 Z M 19.499132 -2.788217 " transform="matrix(1.058824,0,0,1.0126,-1.411765,15.596787)"/>
<path style="fill:none;stroke-width:1;stroke-linecap:butt;stroke-linejoin:miter;stroke:url(#linear22);stroke-miterlimit:4;" d="M 20.498915 6.674579 L 20.498915 -1.596205 C 22.31033 -1.37632 24.501736 -1.538341 24.501736 -1.538341 L 24.501736 7.060343 " transform="matrix(1.058824,0,0,1.0126,-1.411765,15.596787)"/>
</g>
</svg>
