/* XPM */
static char *bluefish[] = {
/* columns rows colors chars-per-pixel */
"16 16 204 2",
"   c #355268",
".  c #244472",
"X  c #224577",
"o  c #294770",
"O  c #2A4870",
"+  c #284977",
"@  c #2C4C75",
"#  c #234679",
"$  c #23467A",
"%  c #23477B",
"&  c #24487D",
"*  c #355475",
"=  c #4B665A",
"-  c #4B665B",
";  c #4C665B",
":  c #4E685D",
">  c #4F695E",
",  c #4A6665",
"<  c #4D6469",
"1  c #516B60",
"2  c #526B60",
"3  c #536B61",
"4  c #506C60",
"5  c #526D61",
"6  c #546F63",
"7  c #546F64",
"8  c #566F6F",
"9  c #5A7167",
"0  c #5C726D",
"q  c #5F7679",
"w  c #637A70",
"e  c #647B71",
"r  c #607D70",
"t  c #638375",
"y  c #6C8178",
"u  c #6B857A",
"i  c #6D857B",
"p  c #6E867B",
"a  c #72877D",
"s  c #708A7F",
"d  c #244A80",
"f  c #254B81",
"g  c #254C82",
"h  c #254D82",
"j  c #254D84",
"k  c #264F86",
"l  c #2A5083",
"z  c #2C538A",
"x  c #285490",
"c  c #2B5995",
"v  c #295998",
"b  c #2A5C9D",
"n  c #2B5E9F",
"m  c #2E5F9F",
"M  c #375F96",
"N  c #35629B",
"B  c #31619D",
"V  c #2C62A5",
"C  c #2D63A7",
"Z  c #2D64A8",
"A  c #2E66AC",
"S  c #2E69B0",
"D  c #2F6BB2",
"F  c #2F6EB7",
"G  c #306EB6",
"H  c #306FB9",
"J  c #3172BA",
"K  c #3173BE",
"L  c #3173BF",
"P  c #456B97",
"I  c #486D94",
"U  c #476E9C",
"Y  c #497090",
"T  c #4A719A",
"R  c #5C799B",
"E  c #466EA1",
"W  c #456EA2",
"Q  c #456FA3",
"!  c #4771A2",
"~  c #4E73A2",
"^  c #4A75AA",
"/  c #4B78AF",
"(  c #5175A2",
")  c #4179BA",
"_  c #487EBB",
"`  c #3174C1",
"'  c #3175C2",
"]  c #457FC0",
"[  c #6A8583",
"{  c #718D80",
"}  c #729887",
"|  c #7E948A",
" . c #7F958B",
".. c #63869D",
"X. c #7FA695",
"o. c #7EA996",
"O. c #5280B6",
"+. c #5483B8",
"@. c #5786B9",
"#. c #5685BB",
"$. c #5785BB",
"%. c #5786BB",
"&. c #6A91AF",
"*. c #7C9FAC",
"=. c #6D94B3",
"-. c #7390B2",
";. c #7392B8",
":. c #7FA0A9",
">. c #6490C4",
",. c #6591C5",
"<. c #6495CB",
"1. c #689ACF",
"2. c #7EA8C6",
"3. c #71A3D6",
"4. c #77A9DC",
"5. c #7BABDC",
"6. c #848484",
"7. c #84A396",
"8. c #81A797",
"9. c #82A697",
"0. c #83A697",
"q. c #8CA399",
"w. c #8CA49A",
"e. c #8EA69C",
"r. c #81AB99",
"t. c #82AC9A",
"y. c #86AF9D",
"u. c #8AAA9C",
"i. c #88AF9E",
"p. c #91A19B",
"a. c #91A99F",
"s. c #87B09E",
"d. c #88B09E",
"f. c #8799AB",
"g. c #8CAFA0",
"h. c #97A7A0",
"j. c #92A9A0",
"k. c #93AAA0",
"l. c #99AAA3",
"z. c #9AABA4",
"x. c #9FA4AB",
"c. c #8AB2A0",
"v. c #8CB3A2",
"b. c #8DB3A2",
"n. c #9CB0A8",
"m. c #9EB2A9",
"M. c #94B8A8",
"N. c #97BBAB",
"B. c #98BAAC",
"V. c #9BBEAF",
"C. c #81A4B2",
"Z. c #94A7BD",
"A. c #92B0B6",
"S. c #97B9B7",
"D. c #98BBBC",
"F. c #9EB8BE",
"G. c #A8AAAB",
"H. c #A9B7B2",
"J. c #A4BDB5",
"K. c #AAB9B2",
"L. c #ADBBB5",
"P. c #A0C0B2",
"I. c #A0C0B3",
"U. c #A2C2B5",
"Y. c #A3C3B6",
"T. c #A6C5B7",
"R. c #A1C2BD",
"E. c #80A4C6",
"W. c #93B7C0",
"Q. c #9ABFCC",
"!. c #8CB6D0",
"~. c #A2BDC7",
"^. c #A7C8C2",
"/. c #AECCC0",
"(. c #AFCDC0",
"). c #A2C0CC",
"_. c #B1CDC0",
"`. c #B2CEC2",
"'. c #B4D0C4",
"]. c #B7D2C7",
"[. c #BED1C9",
"{. c #BAC6D4",
"}. c #C1D7CE",
"|. c #C1D8CE",
" X c #C3CBD5",
".X c #C3DAD0",
"XX c #C5DAD1",
"oX c #C6DBD1",
"OX c #C7DBD7",
"+X c #C8DCD4",
"@X c #CADED5",
"#X c #D2D2D2",
"$X c #CFE1D9",
"%X c #CCE0DA",
"&X c #CFE1DA",
"*X c #D3E4DD",
"=X c #D5E5DE",
"-X c #C4D4E6",
";X c #DBE9E4",
":X c #DCE9E4",
">X c #E3EDE9",
",X c #E3EEE9",
"<X c #F2F4F7",
"1X c None",
/* pixels */
"1Xa.j.H.L.L.m.j.j.m.L.L.K.j.j.1X",
"e.[.&X*X,X,X;X&X&X;X,X,X=X@X[.e.",
"e.'.(.(.|.OX~.D./.@X&XoXQ.!.].w.",
"z.'.R.2._ L ) 1.#.~.oX^.5.*.`.z.",
"h.oXE.] L ` >.<.#.Q C.W.4.A.oXh.",
"p.}.f.G L ` -X<X{.;.c =.3.F.}.p.",
"| _.R D F H  X#X6.Z.x z >.J.`. .",
"{ V.T A D A -.G.x.( k d P B.V.{ ",
"y B.Y V Z Z B ~ Q l g % U N.N.u ",
"i T...m n b v N k g % @ ^ S.U.i ",
"a T.&.$._ @.$./ d $ . 8 w *.T.a ",
"y P.[ I E E M & X o < 9.9.9.J.y ",
"e d.8.r , * + O   0 u.c.y.y.v.e ",
"6 t.t.t.0.{ 9 5 t g.M.b.r.r.t.7 ",
"2 } o.t.b.b.y.o.X.s.b.b.r.o.} 4 ",
"1X; ; 2 1 1 > - - > 3 1 1 - - 1X"
};
