/* XPM */
static char *gnome_term[] = {
/* columns rows colors chars-per-pixel */
"16 16 104 2",
"   c #000000",
".  c #040405",
"X  c #050506",
"o  c #09070A",
"O  c #0B0A0D",
"+  c #0D0B0E",
"@  c #0E0C0F",
"#  c #0E0C10",
"$  c #0F0E10",
"%  c #0F0E11",
"&  c #110E12",
"*  c #131114",
"=  c #131015",
"-  c #141215",
";  c #151316",
":  c #161317",
">  c #161417",
",  c #171419",
"<  c #17141A",
"1  c #18151B",
"2  c #19161D",
"3  c #1A161D",
"4  c #1B191D",
"5  c #1C1820",
"6  c #1D1920",
"7  c #1F1B23",
"8  c #1F1C21",
"9  c #1F1B24",
"0  c #211E23",
"q  c #211C25",
"w  c #221E24",
"e  c #221F25",
"r  c #211D26",
"t  c #231E27",
"y  c #231F28",
"u  c #242026",
"i  c #242029",
"p  c #252129",
"a  c #262229",
"s  c #25202A",
"d  c #28242B",
"f  c #28222D",
"g  c #29232E",
"h  c #29252C",
"j  c #2C262F",
"k  c #2C272F",
"l  c #2C2632",
"z  c #2D2733",
"x  c #2D2830",
"c  c #2D2831",
"v  c #2E2831",
"b  c #2F2A33",
"n  c #2E2934",
"m  c #2F2935",
"M  c #2F2936",
"N  c #362E3D",
"B  c #362F3D",
"V  c #38323D",
"C  c #3B3B3B",
"Z  c #393141",
"A  c #393241",
"S  c #3E3646",
"D  c #433A4C",
"F  c #4C4256",
"G  c #535054",
"H  c #58535C",
"J  c #5B5A5C",
"K  c #636066",
"L  c #6B676F",
"P  c #747077",
"I  c #747276",
"U  c #7C7B7D",
"Y  c #7E7C7F",
"T  c #878787",
"R  c #919191",
"E  c #9B9B9B",
"W  c #A7A4A9",
"Q  c #A7A6A8",
"!  c #AEACB0",
"~  c #B7B7B7",
"^  c #B9B7BA",
"/  c #B9B8BB",
"(  c #C1C1C1",
")  c #C4C4C4",
"_  c #C8C8C8",
"`  c #C9C8CB",
"'  c #CBCBCB",
"]  c #CECDCF",
"[  c #CFCFCF",
"{  c #D2D2D2",
"}  c #D3D3D3",
"|  c #D6D6D6",
" . c #D7D6D9",
".. c #D9D9D9",
"X. c #DAD9DB",
"o. c #DBDADC",
"O. c #DCDBDE",
"+. c #E0E0E1",
"@. c #E2E2E2",
"#. c #E4E4E5",
"$. c #E5E5E5",
"%. c #F0F0F0",
"&. c #F7F7F7",
"*. c None",
/* pixels */
"*.*.*.*.*.*.*.*.*.*.*.*.*.*.*.*.",
"*.*.%.&.&.&.&.&.&.&.&.&.&.%.*.*.",
"*.$.U > @ * % @ % @ * @ > Y $.*.",
"*.@.; 4 8 8 8 8 8 8 4 0 4 > @.*.",
"*...@ 8 8 8 0 7 8 8 8 8 8 @ ..*.",
"*.| @ 8 Q G w w u u w 8 8 % | *.",
"*.{ @ w I [ ^ K v h h a u $ } *.",
"*.[ % d v V W +.v a 4 > & X [ *.",
"*.' * v H ! _ P a y 9 2 & X ' *.",
"*._ ; l / L M M M l f w 5 o _ *.",
"*.) % 9 g M N Z  .O.O...9 O ) *.",
"*.( + w M N S D D S N l y # ( *.",
"*.~ ; q M Z D F F D Z M q * ~ *.",
"*.R J < : 7 q y y 7 7 < 2 J R *.",
"*.C T E E E E E E E E E E T C *.",
"*.*.                        *.*."
};
