<!-- Created with Inkscape (http://www.inkscape.org/) -->
<svg xmlns:dc="http://purl.org/dc/elements/1.1/" xmlns:cc="http://creativecommons.org/ns#" xmlns:rdf="http://www.w3.org/1999/02/22-rdf-syntax-ns#" xmlns:svg="http://www.w3.org/2000/svg" xmlns="http://www.w3.org/2000/svg" xmlns:xlink="http://www.w3.org/1999/xlink" xmlns:sodipodi="http://sodipodi.sourceforge.net/DTD/sodipodi-0.dtd" xmlns:inkscape="http://www.inkscape.org/namespaces/inkscape" width="48px" height="48px" id="svg19516" version="1.1" inkscape:version="0.48.4 r9939" sodipodi:docname="folder-music.svg">
  <defs id="defs19518">
    <linearGradient inkscape:collect="always" xlink:href="#linearGradient3454-2-8-6-1-1-8" id="linearGradient3381-56-2-7-5-0-8" gradientUnits="userSpaceOnUse" gradientTransform="matrix(0.89189031,0,0,1.0580283,3.1206609,5.3536023)" x1="42.470848" y1="11.952797" x2="42.470848" y2="35.581654"/>
    <linearGradient id="linearGradient3454-2-8-6-1-1-8">
      <stop offset="0" style="stop-color:#ffffff;stop-opacity:1" id="stop3456-4-7-9-4-0-3"/>
      <stop offset="0.0097359" style="stop-color:#ffffff;stop-opacity:0.23529412" id="stop3458-39-0-8-61-3-8"/>
      <stop offset="0.99001008" style="stop-color:#ffffff;stop-opacity:0.15686275" id="stop3460-7-5-4-1-6-6"/>
      <stop offset="1" style="stop-color:#ffffff;stop-opacity:0.39215687" id="stop3462-0-5-6-6-2-1"/>
    </linearGradient>
    <linearGradient inkscape:collect="always" xlink:href="#linearGradient6129-963-697-142-998-580-273-0-8-4-9-0" id="linearGradient3072-0-3-0-7-4" gradientUnits="userSpaceOnUse" gradientTransform="matrix(1.1446925,0,0,0.9977536,-3.4661379,1.0988398)" x1="22.934725" y1="49.629246" x2="22.809399" y2="36.657963"/>
    <linearGradient id="linearGradient6129-963-697-142-998-580-273-0-8-4-9-0">
      <stop id="stop2661-3-02-4-8-0" style="stop-color:#0a0a0a;stop-opacity:0.498" offset="0"/>
      <stop id="stop2663-2-8-06-2-4" style="stop-color:#0a0a0a;stop-opacity:0" offset="1"/>
    </linearGradient>
    <linearGradient inkscape:collect="always" xlink:href="#linearGradient4632-0-6-4" id="linearGradient4638-4-6-8-9-9" x1="35.792694" y1="17.118193" x2="35.792694" y2="43.761127" gradientUnits="userSpaceOnUse" gradientTransform="matrix(1,0,0,1.0357143,2.0849371e-6,-1.5890902)"/>
    <linearGradient id="linearGradient4632-0-6-4">
      <stop style="stop-color:#a7c6df;stop-opacity:1;" offset="0" id="stop4634-4-4-7"/>
      <stop style="stop-color:#308fba;stop-opacity:1;" offset="1" id="stop4636-3-1-5"/>
    </linearGradient>
    <radialGradient inkscape:collect="always" xlink:href="#linearGradient5060-820-9-0-7-1-7" id="radialGradient3080-2-3-9-9-8" gradientUnits="userSpaceOnUse" gradientTransform="matrix(-0.03079083,0,0,0.02470588,23.389752,31.94164)" cx="605.71429" cy="486.64789" fx="605.71429" fy="486.64789" r="117.14286"/>
    <linearGradient id="linearGradient5060-820-9-0-7-1-7">
      <stop id="stop2681-5-4-3-6-3" style="stop-color:#000000;stop-opacity:1" offset="0"/>
      <stop id="stop2683-8-6-9-4-6" style="stop-color:#000000;stop-opacity:0" offset="1"/>
    </linearGradient>
    <radialGradient inkscape:collect="always" xlink:href="#linearGradient5060-179-2-0-3-6-2" id="radialGradient3083-4-5-6-4-5" gradientUnits="userSpaceOnUse" gradientTransform="matrix(0.03079083,0,0,0.02470588,24.610252,31.94164)" cx="605.71429" cy="486.64789" fx="605.71429" fy="486.64789" r="117.14286"/>
    <linearGradient id="linearGradient5060-179-2-0-3-6-2">
      <stop id="stop2675-9-9-4-1-4" style="stop-color:#000000;stop-opacity:1" offset="0"/>
      <stop id="stop2677-1-7-2-6-1" style="stop-color:#000000;stop-opacity:0" offset="1"/>
    </linearGradient>
    <linearGradient inkscape:collect="always" xlink:href="#linearGradient5048-585-4-0-56-2-5" id="linearGradient3086-4-4-0-5-5" gradientUnits="userSpaceOnUse" gradientTransform="matrix(0.07938856,0,0,0.02470588,-4.6932879,31.94164)" x1="302.85715" y1="366.64789" x2="302.85715" y2="609.50507"/>
    <linearGradient id="linearGradient5048-585-4-0-56-2-5">
      <stop id="stop2667-5-0-7-4-7" style="stop-color:#000000;stop-opacity:0" offset="0"/>
      <stop id="stop2669-4-1-8-0-6" style="stop-color:#000000;stop-opacity:1" offset="0.5"/>
      <stop id="stop2671-2-6-3-2-0" style="stop-color:#000000;stop-opacity:0" offset="1"/>
    </linearGradient>
    <linearGradient inkscape:collect="always" xlink:href="#linearGradient4507-9-2-2-3-6" id="linearGradient3381-5-5-29-4-6-5" gradientUnits="userSpaceOnUse" gradientTransform="matrix(0.89189031,0,0,1.0580283,3.1206621,5.3535998)" x1="21.37039" y1="4.2476678" x2="21.37039" y2="34.143417"/>
    <linearGradient id="linearGradient4507-9-2-2-3-6">
      <stop id="stop4509-9-8-4-2-3" style="stop-color:#ffffff;stop-opacity:1" offset="0"/>
      <stop id="stop4511-7-50-2-1-3" style="stop-color:#ffffff;stop-opacity:0.23529412" offset="0.07395859"/>
      <stop id="stop4513-2-0-2-9-2" style="stop-color:#ffffff;stop-opacity:0.15686275" offset="0.99001008"/>
      <stop id="stop4515-3-9-8-6-6" style="stop-color:#ffffff;stop-opacity:0.39215687" offset="1"/>
    </linearGradient>
    <linearGradient inkscape:collect="always" xlink:href="#linearGradient4646-6-91-5-0-5" id="linearGradient3089-5-2-9-8-6-8-0" gradientUnits="userSpaceOnUse" gradientTransform="translate(-50.940899,-2.3841858e-7)" x1="62.988873" y1="13" x2="62.988873" y2="16"/>
    <linearGradient id="linearGradient4646-6-91-5-0-5">
      <stop offset="0" style="stop-color:#f9f9f9;stop-opacity:1" id="stop4648-2-4-6-6-8"/>
      <stop offset="1" style="stop-color:#d8d8d8;stop-opacity:1" id="stop4650-3-8-5-3-4"/>
    </linearGradient>
    <linearGradient id="linearGradient3104-8-8-97-4-6-2-0-1-4-0">
      <stop offset="0" style="stop-color:#000000;stop-opacity:0.32173914" id="stop3106-5-4-3-5-0-1-61-9-2-7"/>
      <stop offset="1" style="stop-color:#000000;stop-opacity:0.27826086" id="stop3108-4-3-7-8-2-4-01-9-9-0"/>
    </linearGradient>
    <linearGradient y2="3.6336823" x2="-51.786404" y1="53.514328" x1="-51.786404" gradientTransform="matrix(0.80749834,0,0,0.83374395,106.8767,-0.06984024)" gradientUnits="userSpaceOnUse" id="linearGradient19514" xlink:href="#linearGradient3104-8-8-97-4-6-2-0-1-4-0" inkscape:collect="always"/>
    <linearGradient gradientUnits="userSpaceOnUse" y2="44.365555" x2="22.152542" y1="16.262911" x1="22.152542" id="linearGradient3832" xlink:href="#linearGradient7012-661-145-733-759-865-745" inkscape:collect="always"/>
    <radialGradient gradientTransform="matrix(-1.274898e-8,1.7142916,-2.159331,-1.4599595e-8,12.809361,2.8570011)" gradientUnits="userSpaceOnUse" xlink:href="#linearGradient3484" id="radialGradient3438" fy="5.01718" fx="3" r="21" cy="5.01718" cx="3"/>
    <linearGradient gradientTransform="translate(-50.940898,0)" gradientUnits="userSpaceOnUse" xlink:href="#linearGradient6404" id="linearGradient3436" y2="16.19013" x2="62.988873" y1="13.182598" x1="62.988873"/>
    <linearGradient gradientTransform="translate(-53.765393,-0.1141929)" gradientUnits="userSpaceOnUse" xlink:href="#linearGradient3390" id="linearGradient3429" y2="15.943953" x2="65.340263" y1="45.114193" x1="82.453476"/>
    <radialGradient gradientTransform="matrix(1.5646925,-9.5143002e-8,6.1772287e-8,1.015888,-86.212573,8.1461173)" gradientUnits="userSpaceOnUse" xlink:href="#linearGradient7012-661-145-733-759-865-745" id="radialGradient3427" fy="14.113381" fx="63.969177" r="23.097054" cy="14.113381" cx="63.969177"/>
    <linearGradient gradientTransform="matrix(1.1446925,0,0,0.9977536,-3.4661413,1.0988425)" gradientUnits="userSpaceOnUse" xlink:href="#linearGradient6129-963-697-142-998-580-273" id="linearGradient3424" y2="36.657963" x2="22.809399" y1="49.629246" x1="22.934725"/>
    <radialGradient gradientTransform="matrix(0,1.2079744,-1.6271642,0,26.371748,8.2664685)" gradientUnits="userSpaceOnUse" xlink:href="#linearGradient6087-437-184-795-110-662-495" id="radialGradient3421" fy="8.3021259" fx="7.2646537" r="20.979567" cy="8.3021259" cx="7.2646537"/>
    <linearGradient gradientUnits="userSpaceOnUse" xlink:href="#linearGradient8265-821-176-38-919-66-249" id="linearGradient3418" y2="33.95525" x2="15.214532" y1="22.292103" x1="11.566265"/>
    <radialGradient gradientTransform="matrix(0.6976533,0,0,0.29960881,21.419308,28.889924)" gradientUnits="userSpaceOnUse" xlink:href="#linearGradient5670-725-6" id="radialGradient3344" fy="45.866665" fx="22.90196" r="7.9058824" cy="45.866665" cx="22.90196"/>
    <linearGradient id="linearGradient5670-725-6">
      <stop offset="0" style="stop-color:#000000;stop-opacity:1" id="stop3197-4"/>
      <stop offset="1" style="stop-color:#000000;stop-opacity:0" id="stop3199-8"/>
    </linearGradient>
    <linearGradient id="linearGradient5670-612-8">
      <stop offset="0" style="stop-color:#000000;stop-opacity:1" id="stop3203-1"/>
      <stop offset="1" style="stop-color:#000000;stop-opacity:0" id="stop3205-0"/>
    </linearGradient>
    <radialGradient gradientTransform="matrix(0.7587453,0,0,0.32584491,8.1065241,29.479142)" gradientUnits="userSpaceOnUse" xlink:href="#linearGradient5670-612-8" id="radialGradient3254" fy="45.866665" fx="22.90196" r="7.9058824" cy="45.866665" cx="22.90196"/>
    <linearGradient id="linearGradient7067-814-120-245-2">
      <stop offset="0" style="stop-color:#aaaaaa;stop-opacity:1" id="stop3877-9"/>
      <stop offset="1" style="stop-color:#4d4d4d;stop-opacity:1" id="stop3879-7"/>
    </linearGradient>
    <radialGradient gradientTransform="matrix(0.66498278,0,-0.10886388,0.6373854,18.850664,15.262641)" gradientUnits="userSpaceOnUse" xlink:href="#linearGradient7067-814-120-245-2" id="radialGradient3250" fy="38.175381" fx="14.638257" r="5.7384715" cy="41.058823" cx="17.058823"/>
    <linearGradient id="linearGradient7067-561-456-275-6">
      <stop offset="0" style="stop-color:#aaaaaa;stop-opacity:1" id="stop3871-4"/>
      <stop offset="1" style="stop-color:#4d4d4d;stop-opacity:1" id="stop3873-6"/>
    </linearGradient>
    <radialGradient gradientTransform="matrix(0.66332516,0,-0.10859251,0.63579657,30.909671,13.497457)" gradientUnits="userSpaceOnUse" xlink:href="#linearGradient7067-561-456-275-6" id="radialGradient3247" fy="38.980988" fx="14.109128" r="5.7384715" cy="41.058823" cx="17.058823"/>
    <linearGradient id="linearGradient2372-270-7">
      <stop offset="0" style="stop-color:#ffffff;stop-opacity:1" id="stop3239-9"/>
      <stop offset="1" style="stop-color:#ffffff;stop-opacity:0.37931034" id="stop3241-7"/>
    </linearGradient>
    <linearGradient gradientTransform="matrix(0.2214737,0,0,0.2231125,22.944537,-6.078824)" gradientUnits="userSpaceOnUse" xlink:href="#linearGradient2372-270-7" id="linearGradient3244" y2="119.86452" x2="25.400293" y1="144.11652" x1="28.739122"/>
    <linearGradient id="linearGradient2372-378-9">
      <stop offset="0" style="stop-color:#ffffff;stop-opacity:1" id="stop3245-1"/>
      <stop offset="1" style="stop-color:#ffffff;stop-opacity:0.37931034" id="stop3247-7"/>
    </linearGradient>
    <linearGradient gradientTransform="matrix(0.4456319,0,0,0.2231125,29.628469,-7.657261)" gradientUnits="userSpaceOnUse" xlink:href="#linearGradient2372-378-9" id="linearGradient3241" y2="125.39074" x2="26.256771" y1="144.11652" x1="28.739122"/>
    <linearGradient id="linearGradient8265-821-176-38-919-66-249">
      <stop offset="0" style="stop-color:#ffffff;stop-opacity:0.2" id="stop2687"/>
      <stop offset="1" style="stop-color:#ffffff;stop-opacity:0" id="stop2689"/>
    </linearGradient>
    <linearGradient id="linearGradient6087-437-184-795-110-662-495">
      <stop offset="0" style="stop-color:#ffffff;stop-opacity:0.40000001" id="stop2693"/>
      <stop offset="1" style="stop-color:#ffffff;stop-opacity:0" id="stop2695"/>
    </linearGradient>
    <linearGradient id="linearGradient6129-963-697-142-998-580-273">
      <stop offset="0" style="stop-color:#0a0a0a;stop-opacity:0.498" id="stop2661"/>
      <stop offset="1" style="stop-color:#0a0a0a;stop-opacity:0" id="stop2663"/>
    </linearGradient>
    <linearGradient id="linearGradient7012-661-145-733-759-865-745">
      <stop offset="0" style="stop-color:#aacb7d;stop-opacity:1" id="stop2699"/>
      <stop offset="1" style="stop-color:#709937;stop-opacity:1" id="stop2701"/>
    </linearGradient>
    <linearGradient id="linearGradient3390">
      <stop offset="0" style="stop-color:#51751e;stop-opacity:1" id="stop3392"/>
      <stop offset="1" style="stop-color:#51751e;stop-opacity:1" id="stop3394"/>
    </linearGradient>
    <linearGradient gradientTransform="matrix(0.08284024,0,0,0.03705882,-5.9408285,25.412461)" gradientUnits="userSpaceOnUse" xlink:href="#linearGradient5048-585" id="linearGradient7596-975" y2="609.50507" x2="302.85715" y1="366.64789" x1="302.85715"/>
    <linearGradient id="linearGradient5048-585">
      <stop offset="0" style="stop-color:#000000;stop-opacity:0" id="stop2667"/>
      <stop offset="0.5" style="stop-color:#000000;stop-opacity:1" id="stop2669"/>
      <stop offset="1" style="stop-color:#000000;stop-opacity:0" id="stop2671"/>
    </linearGradient>
    <radialGradient gradientTransform="matrix(0.03212956,0,0,0.03705882,24.636785,25.412461)" gradientUnits="userSpaceOnUse" xlink:href="#linearGradient5060-179" id="radialGradient7598-526" fy="486.64789" fx="605.71429" r="117.14286" cy="486.64789" cx="605.71429"/>
    <linearGradient id="linearGradient5060-179">
      <stop offset="0" style="stop-color:#000000;stop-opacity:1" id="stop2675"/>
      <stop offset="1" style="stop-color:#000000;stop-opacity:0" id="stop2677"/>
    </linearGradient>
    <radialGradient gradientTransform="matrix(-0.03212956,0,0,0.03705882,23.363215,25.412461)" gradientUnits="userSpaceOnUse" xlink:href="#linearGradient5060-820" id="radialGradient7600-312" fy="486.64789" fx="605.71429" r="117.14286" cy="486.64789" cx="605.71429"/>
    <linearGradient id="linearGradient5060-820">
      <stop offset="0" style="stop-color:#000000;stop-opacity:1" id="stop2681"/>
      <stop offset="1" style="stop-color:#000000;stop-opacity:0" id="stop2683"/>
    </linearGradient>
    <linearGradient id="linearGradient6404">
      <stop offset="0" style="stop-color:#f9f9f9;stop-opacity:1" id="stop6406"/>
      <stop offset="1" style="stop-color:#c9c9c9;stop-opacity:1" id="stop6408"/>
    </linearGradient>
    <linearGradient id="linearGradient3484">
      <stop offset="0" style="stop-color:#bdbdbd;stop-opacity:1" id="stop3486"/>
      <stop offset="1" style="stop-color:#d0d0d0;stop-opacity:1" id="stop3488"/>
    </linearGradient>
  </defs>
  <sodipodi:namedview id="base" pagecolor="#ffffff" bordercolor="#666666" borderopacity="1.0" inkscape:pageopacity="0.0" inkscape:pageshadow="2" inkscape:zoom="7" inkscape:cx="24.529337" inkscape:cy="24" inkscape:current-layer="layer1" showgrid="true" inkscape:grid-bbox="true" inkscape:document-units="px" inkscape:window-width="671" inkscape:window-height="414" inkscape:window-x="102" inkscape:window-y="281" inkscape:window-maximized="0"/>
  <metadata id="metadata19521">
    <rdf:RDF>
      <cc:Work rdf:about="">
        <dc:format>image/svg+xml</dc:format>
        <dc:type rdf:resource="http://purl.org/dc/dcmitype/StillImage"/>
        <dc:title/>
      </cc:Work>
    </rdf:RDF>
  </metadata>
  <g id="layer1" inkscape:label="Layer 1" inkscape:groupmode="layer">
    <path inkscape:connector-curvature="0" style="opacity:0.8;color:#000000;fill:none;stroke:url(#linearGradient19514);stroke-width:1;stroke-linecap:butt;stroke-linejoin:miter;stroke-miterlimit:4;stroke-opacity:1;stroke-dasharray:none;stroke-dashoffset:0;marker:none;visibility:visible;display:inline;overflow:visible;enable-background:accumulate" d="m 5.5000021,8.4999998 c -0.554,0 -1,0.446 -1,1 l 0,2.0000002 -1,0 c -0.554,0 -1,0.446 -1,1 l 0,6 c 0,0.554 0.446,1 1,1 l 40.9999999,0 c 0.554,0 1,-0.446 1,-1 l 0,-6 c 0,-0.554 -0.446,-1 -1,-1 l -23,0 0,-2.0000002 c 0,-0.554 -0.446,-1 -1,-1 l -14.9999999,0 z" id="rect4251-0-0-1-1-9-5"/>
    <path inkscape:connector-curvature="0" style="color:#000000;fill:url(#linearGradient3089-5-2-9-8-6-8-0);fill-opacity:1;fill-rule:nonzero;stroke:none;stroke-width:0.99992168;marker:none;visibility:visible;display:inline;overflow:visible;enable-background:accumulate" d="m 5.5000021,8.9999998 c -0.277,0 -0.5,0.223 -0.5,0.5 l 0,2.5000002 -1.5,0 c -0.277,0 -0.5,0.223 -0.5,0.5 l 0,6 c 0,0.277 0.223,0.5 0.5,0.5 l 40.9999999,0 c 0.277,0 0.5,-0.223 0.5,-0.5 l 0,-6 c 0,-0.277 -0.223,-0.5 -0.5,-0.5 l -23.5,0 0,-2.5000002 c 0,-0.277 -0.223,-0.5 -0.5,-0.5 l -14.9999999,0 z" id="rect4251-4-7-62-4-4"/>
    <path inkscape:connector-curvature="0" style="color:#000000;fill:none;stroke:url(#linearGradient3381-5-5-29-4-6-5);stroke-width:1;stroke-linecap:round;stroke-linejoin:round;stroke-miterlimit:4;stroke-opacity:1;stroke-dasharray:none;stroke-dashoffset:0;marker:none;visibility:visible;display:inline;overflow:visible;enable-background:accumulate" d="m 5.5000021,9.4999998 0,3.0000002 -2,0 0,7 40.9999999,0 0,-7 -24,0 0,-3.0000002 -14.9999999,0 z" id="rect4251-9-9-0-05-2-0"/>
    <rect style="opacity:0.3;fill:url(#linearGradient3086-4-4-0-5-5);fill-opacity:1;fill-rule:nonzero;stroke:none;stroke-width:1;marker:none;visibility:visible;display:inline;overflow:visible" id="rect4173-6-7-7-3-5" y="41" x="4.833375" height="6.0000005" width="38.333332"/>
    <path style="opacity:0.3;fill:url(#radialGradient3083-4-5-6-4-5);fill-opacity:1;fill-rule:nonzero;stroke:none;stroke-width:1;marker:none;visibility:visible;display:inline;overflow:visible" id="path5058-7-9-1-3-0" inkscape:connector-curvature="0" d="m 43.166702,41.00021 c 0,0 0,5.99967 0,5.99967 1.5856,0.0113 3.8333,-1.34422 3.8333,-3.00022 0,-1.656 -1.7695,-2.99945 -3.8333,-2.99945 z"/>
    <path style="opacity:0.3;fill:url(#radialGradient3080-2-3-9-9-8);fill-opacity:1;fill-rule:nonzero;stroke:none;stroke-width:1;marker:none;visibility:visible;display:inline;overflow:visible" id="path5018-8-1-1-6-9" inkscape:connector-curvature="0" d="m 4.8333321,41.00021 c 0,0 0,5.99967 0,5.99967 -1.58565,0.0113 -3.83333,-1.34422 -3.83333,-3.00022 0,-1.656 1.76947,-2.99945 3.83333,-2.99945 z"/>
    <path style="fill:url(#linearGradient4638-4-6-8-9-9);fill-opacity:1;stroke:none" id="path3388-1-43-0-7-6" inkscape:connector-curvature="0" d="m 2.1626121,15.50019 c -1.07231,0.12829 -0.49959,1.45416 -0.58508,2.19974 0.12444,0.48182 0.92748,26.17643 0.92748,26.17643 0,0.7414 0.35172,0.61579 1.24292,0.61579 13.1885599,0 27.7725299,0 40.9610699,0 0.9601,0.0231 0.7572,0.0121 0.7572,-0.62748 0,0 0.993,-27.35421 1.0285,-27.7811 0,-0.44949 0.09,-0.58338 -0.4732,-0.58338 -14.08401,0 -29.77484,0 -43.8588899,0 z" sodipodi:nodetypes="ccsscccsc"/>
    <path style="opacity:0.4;fill:url(#linearGradient3072-0-3-0-7-4);fill-opacity:1;stroke:none" id="path6127-7-1-6-4-8" inkscape:connector-curvature="0" d="m 2.0582421,16.06515 43.8964599,4e-4 c 0.6342,0 1.0452,0.44461 1.0452,0.99737 l -1.0324,26.96037 c 0.015,0.6994 -0.2091,0.97671 -0.9459,0.96204 L 3.2408421,44.96773 c -0.63416,0 -1.27363,-0.41276 -1.27363,-0.96551 L 1.0130921,17.0629 c 0,-0.55276 0.41099,-0.99775 1.04515,-0.99775 z"/>
    <path sodipodi:type="inkscape:offset" inkscape:radius="-1.0151105" inkscape:original="M 2.15625 16.5 C 1.0839484 16.623862 1.6479947 17.905133 1.5625 18.625 C 1.6869357 19.090206 2.5 43.90625 2.5 43.90625 C 2.5 44.622082 2.8587963 44.5 3.75 44.5 L 44.71875 44.5 C 45.67883 44.52232 45.46875 44.492483 45.46875 43.875 C 45.46875 43.875 46.464479 17.474672 46.5 17.0625 C 46.5 16.628509 46.594572 16.5 46.03125 16.5 L 2.15625 16.5 z " style="opacity:0.5;color:#000000;fill:none;stroke:url(#linearGradient3381-56-2-7-5-0-8);stroke-width:0.98133707;stroke-linecap:round;stroke-linejoin:miter;stroke-miterlimit:4;stroke-opacity:1;stroke-dasharray:none;stroke-dashoffset:0;marker:none;visibility:visible;display:inline;overflow:visible;enable-background:accumulate" id="path4587-4-6-3-0-1" d="m 2.5,17.5 c 0.016793,0.176427 0.022163,0.517935 0.03125,0.875 0.023112,0.08641 0.025524,0.05923 0.03125,0.09375 0.011058,0.06665 0.027034,0.138257 0.03125,0.1875 0.0064,0.07474 -0.00668,0.173042 0,0.28125 0.013352,0.216416 0.045306,0.510844 0.0625,0.875 0.034388,0.728313 0.078083,1.708883 0.125,2.90625 0.093834,2.394734 0.2030642,5.55569 0.3125,8.6875 C 3.3060459,37.481691 3.4883163,43.143759 3.5,43.5 c 0.1225025,0.0036 0.071108,0 0.25,0 l 40.71875,0 c 0.0124,-0.328836 0.253182,-6.426721 0.5,-12.90625 0.126691,-3.325928 0.245386,-6.68527 0.34375,-9.21875 0.04918,-1.26674 0.09434,-2.331501 0.125,-3.09375 0.01322,-0.328618 0.02246,-0.572975 0.03125,-0.78125 L 2.5,17.5 z" transform="matrix(1,0,0,1.0383977,2.0849371e-6,-1.6703602)"/>
    <path style="opacity:0.3;fill:none;stroke:#000000;stroke-width:1;stroke-linecap:round;stroke-linejoin:round;stroke-miterlimit:4;stroke-opacity:1;stroke-dashoffset:0" id="path3388-1-43-0-7-6-3" inkscape:connector-curvature="0" d="m 2.1626121,15.50019 c -1.07231,0.12829 -0.49959,1.45416 -0.58508,2.19974 0.12444,0.48182 0.92748,26.17643 0.92748,26.17643 0,0.7414 0.35172,0.61579 1.24292,0.61579 13.1885599,0 27.7725299,0 40.9610699,0 0.9601,0.0231 0.7572,0.0121 0.7572,-0.62748 0,0 0.993,-27.35421 1.0285,-27.7811 0,-0.44949 0.09,-0.58338 -0.4732,-0.58338 -14.08401,0 -29.77484,0 -43.8588899,0 z" sodipodi:nodetypes="ccsscccsc"/>
    <g id="g3062" transform="translate(2.732e-4,2.4973545e-8)">
      <path d="m 42.912501,42.631991 a 5.515565,2.3686744 0 0 1 -11.03113,0 5.515565,2.3686744 0 1 1 11.03113,0 z" id="path2704" style="opacity:0.3;fill:url(#radialGradient3344);fill-opacity:1;stroke:none" inkscape:connector-curvature="0"/>
      <path d="m 31.481829,44.424571 a 5.9985512,2.5760942 0 0 1 -11.997102,0 5.9985512,2.5760942 0 1 1 11.997102,0 z" id="path4121" style="opacity:0.3;fill:url(#radialGradient3254);fill-opacity:1;stroke:none" inkscape:connector-curvature="0"/>
      <path d="m 41.378146,19.504217 c -4.126923,0.65819 -8.872206,1.335746 -12.987656,2.030696 -1.089793,0.526246 -0.844792,1.881339 -0.893006,2.864584 0,4.387432 0,8.774864 0,13.162296 -2.800847,-0.6412 -5.875138,1.450854 -5.996608,4.424657 -0.198287,1.851424 1.460567,3.462983 3.264419,3.506319 3.229721,0.07759 5.684399,-2.043142 5.719432,-4.725187 -0.03527,-4.504338 0.0099,-9.010449 0,-13.515478 0.5,-0.03665 8.318974,-1.466849 9,-1.562074 0,3.37408 0,6.74816 0,10.12224 -2.583394,-0.761059 -5.165682,0.829544 -5.801891,3.495564 -0.470738,1.5444 0.238985,3.370066 1.771061,4.002814 2.990859,1.360163 7.197751,-1.394993 7.03083,-4.628508 -0.04632,-6.006297 0.03797,-12.015051 0,-18.021989 -0.07855,-0.564485 -0.465037,-1.196681 -1.106581,-1.155934 z" id="path4031" style="fill:#4d4d4d;fill-opacity:1;stroke:#333333;stroke-width:1;stroke-linecap:round;stroke-linejoin:round;stroke-miterlimit:4;stroke-opacity:1;stroke-dasharray:none" inkscape:connector-curvature="0"/>
      <path d="m 29.620561,40.767546 a 3.3980649,4.1265918 54.476152 1 1 -7.791794,1.330819 3.3980649,4.1265918 54.476152 0 1 7.791794,-1.330819 z" id="path2937" style="fill:url(#radialGradient3250);fill-opacity:1;stroke:none" inkscape:connector-curvature="0"/>
      <path d="m 41.662433,38.937127 a 3.3980646,4.1265914 54.476152 1 1 -7.791793,1.330819 3.3980646,4.1265914 54.476152 0 1 7.791793,-1.330819 z" id="path2941" style="fill:url(#radialGradient3247);fill-opacity:1;stroke:none" inkscape:connector-curvature="0"/>
      <path d="m 28.09147,38.16611 -0.094,-15.045207 c 0,0 0.102897,-1.150193 0.866171,-1.153699 C 29.134344,21.920334 41,19.963101 41,19.963101 c 0,0 1.532086,0.727913 -11.015275,2.767717 -1.287099,0.24744 -1.000012,0.730941 -1.000012,1.580039 0,2.29019 2e-6,6.021469 2e-6,14.360383 0,0.05966 -0.569792,-0.422704 -0.893247,-0.50513 z" id="path2945" style="opacity:0.3;fill:url(#linearGradient3244);fill-opacity:1;fill-rule:evenodd;stroke:none" inkscape:connector-curvature="0"/>
      <path d="m 39.98473,36.434456 0.0594,-11.365685 c 0.625915,-0.05597 0.0961,-0.009 0.940117,-0.09284 0.01161,2.122994 4.8e-4,3.885177 4.8e-4,11.903162 0,0.05966 -0.349163,-0.362211 -0.999997,-0.444637 z" id="path2947" style="opacity:0.3;fill:url(#linearGradient3241);fill-opacity:1;fill-rule:evenodd;stroke:none" inkscape:connector-curvature="0"/>
    </g>
  </g>
</svg>
