<?xml version="1.0" encoding="UTF-8" standalone="no"?>
<!-- Created with Inkscape (http://www.inkscape.org/) -->

<svg
   xmlns:dc="http://purl.org/dc/elements/1.1/"
   xmlns:cc="http://creativecommons.org/ns#"
   xmlns:rdf="http://www.w3.org/1999/02/22-rdf-syntax-ns#"
   xmlns:svg="http://www.w3.org/2000/svg"
   xmlns="http://www.w3.org/2000/svg"
   xmlns:xlink="http://www.w3.org/1999/xlink"
   xmlns:sodipodi="http://sodipodi.sourceforge.net/DTD/sodipodi-0.dtd"
   xmlns:inkscape="http://www.inkscape.org/namespaces/inkscape"
   version="1.0"
   width="24"
   height="24"
   id="svg2500"
   inkscape:version="0.48.4 r9939"
   sodipodi:docname="folder-publicshare.svg">
  <metadata
     id="metadata66">
    <rdf:RDF>
      <cc:Work
         rdf:about="">
        <dc:format>image/svg+xml</dc:format>
        <dc:type
           rdf:resource="http://purl.org/dc/dcmitype/StillImage" />
      </cc:Work>
    </rdf:RDF>
  </metadata>
  <sodipodi:namedview
     pagecolor="#ffffff"
     bordercolor="#666666"
     borderopacity="1"
     objecttolerance="10"
     gridtolerance="10"
     guidetolerance="10"
     inkscape:pageopacity="0"
     inkscape:pageshadow="2"
     inkscape:window-width="1001"
     inkscape:window-height="480"
     id="namedview64"
     showgrid="false"
     inkscape:zoom="9.8333333"
     inkscape:cx="-10.169492"
     inkscape:cy="12"
     inkscape:window-x="0"
     inkscape:window-y="0"
     inkscape:window-maximized="0"
     inkscape:current-layer="svg2500" />
  <defs
     id="defs2502">
    <radialGradient
       cx="605.71429"
       cy="486.64789"
       r="117.14286"
       fx="605.71429"
       fy="486.64789"
       id="radialGradient4361"
       xlink:href="#linearGradient5060"
       gradientUnits="userSpaceOnUse"
       gradientTransform="matrix(-2.774389,0,0,1.969706,112.7623,-872.8854)" />
    <linearGradient
       id="linearGradient5060">
      <stop
         id="stop5062"
         style="stop-color:#000000;stop-opacity:1"
         offset="0" />
      <stop
         id="stop5064"
         style="stop-color:#000000;stop-opacity:0"
         offset="1" />
    </linearGradient>
    <radialGradient
       cx="605.71429"
       cy="486.64789"
       r="117.14286"
       fx="605.71429"
       fy="486.64789"
       id="radialGradient4359"
       xlink:href="#linearGradient5060"
       gradientUnits="userSpaceOnUse"
       gradientTransform="matrix(2.774389,0,0,1.969706,-1891.633,-872.8854)" />
    <linearGradient
       id="linearGradient5048">
      <stop
         id="stop5050"
         style="stop-color:#000000;stop-opacity:0"
         offset="0" />
      <stop
         id="stop5056"
         style="stop-color:#000000;stop-opacity:1"
         offset="0.5" />
      <stop
         id="stop5052"
         style="stop-color:#000000;stop-opacity:0"
         offset="1" />
    </linearGradient>
    <linearGradient
       x1="302.85715"
       y1="366.64789"
       x2="302.85715"
       y2="609.50507"
       id="linearGradient4357"
       xlink:href="#linearGradient5048"
       gradientUnits="userSpaceOnUse"
       gradientTransform="matrix(2.774389,0,0,1.969706,-1892.179,-872.8854)" />
    <linearGradient
       id="linearGradient5157">
      <stop
         id="stop5159"
         style="stop-color:#c1c1c1;stop-opacity:1"
         offset="0" />
      <stop
         id="stop5161"
         style="stop-color:#909090;stop-opacity:1"
         offset="1" />
    </linearGradient>
    <linearGradient
       x1="9.8763561"
       y1="2.6014566"
       x2="9.8763561"
       y2="23.061668"
       id="linearGradient5163"
       xlink:href="#linearGradient5157"
       gradientUnits="userSpaceOnUse" />
    <linearGradient
       id="linearGradient11111">
      <stop
         id="stop11113"
         style="stop-color:#ffffff;stop-opacity:1"
         offset="0" />
      <stop
         id="stop11115"
         style="stop-color:#cdcdcd;stop-opacity:1"
         offset="0.91013825" />
      <stop
         id="stop11117"
         style="stop-color:#a1a1a1;stop-opacity:1"
         offset="1" />
    </linearGradient>
    <linearGradient
       x1="-28.531403"
       y1="17.955765"
       x2="-28.531403"
       y2="37.502914"
       id="linearGradient4380"
       xlink:href="#linearGradient11111"
       gradientUnits="userSpaceOnUse"
       gradientTransform="translate(34.378004,-14.501322)" />
    <linearGradient
       id="linearGradient3390">
      <stop
         id="stop3392"
         style="stop-color:#51751e;stop-opacity:1"
         offset="0" />
      <stop
         id="stop3394"
         style="stop-color:#51751e;stop-opacity:1"
         offset="1" />
    </linearGradient>
    <linearGradient
       x1="9.7045717"
       y1="20.882006"
       x2="9.7045717"
       y2="4.3030405"
       id="linearGradient4377"
       xlink:href="#linearGradient3390"
       gradientUnits="userSpaceOnUse"
       gradientTransform="matrix(0.9945751,0,0,0.9945751,-0.3392671,1.7177729)" />
    <linearGradient
       id="linearGradient7012-661-145-733-759-865-745">
      <stop
         id="stop2699"
         style="stop-color:#cccccc;stop-opacity:1;"
         offset="0" />
      <stop
         id="stop2701"
         style="stop-color:#999999;stop-opacity:1;"
         offset="1" />
    </linearGradient>
    <radialGradient
       cx="7.8185525"
       cy="8.5608768"
       r="11.268134"
       fx="7.8185525"
       fy="8.5608768"
       id="radialGradient3334"
       xlink:href="#linearGradient7012-661-145-733-759-865-745"
       gradientUnits="userSpaceOnUse"
       gradientTransform="matrix(1.6899516,0,0,1.0436086,-5.448971,0.9617527)" />
    <linearGradient
       id="linearGradient3752">
      <stop
         id="stop3754"
         style="stop-color:#ffffff;stop-opacity:1"
         offset="0" />
      <stop
         id="stop3760"
         style="stop-color:#ffffff;stop-opacity:1"
         offset="0.84754151" />
      <stop
         id="stop3756"
         style="stop-color:#ffffff;stop-opacity:0"
         offset="1" />
    </linearGradient>
    <radialGradient
       cx="4.02005"
       cy="5.5926585"
       r="10.273108"
       fx="4.02005"
       fy="5.5926585"
       id="radialGradient4372"
       xlink:href="#linearGradient3752"
       gradientUnits="userSpaceOnUse"
       gradientTransform="matrix(-0.01680222,1.3942814,-1.79662,-0.02165073,14.152267,2.1566239)" />
    <linearGradient
       id="linearGradient8265-821-176-38-919-66-249">
      <stop
         id="stop2687"
         style="stop-color:#ffffff;stop-opacity:1"
         offset="0" />
      <stop
         id="stop2689"
         style="stop-color:#ffffff;stop-opacity:0"
         offset="1" />
    </linearGradient>
    <linearGradient
       x1="18.03083"
       y1="16.407909"
       x2="20.054544"
       y2="24.627615"
       id="linearGradient3332"
       xlink:href="#linearGradient8265-821-176-38-919-66-249"
       gradientUnits="userSpaceOnUse" />
    <radialGradient
       cx="24.999998"
       cy="28.659998"
       r="16"
       fx="24.999998"
       fy="28.659998"
       id="radialGradient2496"
       xlink:href="#linearGradient6954"
       gradientUnits="userSpaceOnUse"
       gradientTransform="matrix(0.561868,0,0,0.1578792,0.8318003,13.336901)" />
    <linearGradient
       id="linearGradient6954">
      <stop
         id="stop6960"
         style="stop-color:#f5f5f5;stop-opacity:1"
         offset="0" />
      <stop
         id="stop6962"
         style="stop-color:#d2d2d2;stop-opacity:1"
         offset="1" />
    </linearGradient>
    <radialGradient
       cx="26.375898"
       cy="12.31301"
       r="8"
       fx="26.375898"
       fy="12.31301"
       id="radialGradient2491"
       xlink:href="#linearGradient6954"
       gradientUnits="userSpaceOnUse"
       gradientTransform="matrix(0.5525016,-0.0426402,0.04315608,0.5097191,0.6973932,6.0218737)" />
    <linearGradient
       x1="30"
       y1="0.91818392"
       x2="30"
       y2="25.792814"
       id="linearGradient2488"
       xlink:href="#linearGradient3341"
       gradientUnits="userSpaceOnUse"
       gradientTransform="matrix(0.3368574,0,0,0.3216128,6.8943398,7.7030807)" />
    <linearGradient
       id="linearGradient3341">
      <stop
         id="stop3343"
         style="stop-color:#ffffff;stop-opacity:1"
         offset="0" />
      <stop
         id="stop3345"
         style="stop-color:#ffffff;stop-opacity:0"
         offset="1" />
    </linearGradient>
    <linearGradient
       x1="29.955881"
       y1="21.86607"
       x2="29.955881"
       y2="43.144382"
       id="linearGradient2485"
       xlink:href="#linearGradient3341"
       gradientUnits="userSpaceOnUse"
       gradientTransform="matrix(0.4280899,0,0,0.4229659,4.1762517,4.749778)" />
    <linearGradient
       inkscape:collect="always"
       xlink:href="#linearGradient3341"
       id="linearGradient3812"
       gradientUnits="userSpaceOnUse"
       gradientTransform="matrix(0.4280899,0,0,0.4229659,4.1762517,4.749778)"
       x1="29.955881"
       y1="21.86607"
       x2="29.955881"
       y2="43.144382" />
    <linearGradient
       inkscape:collect="always"
       xlink:href="#linearGradient3341"
       id="linearGradient3815"
       gradientUnits="userSpaceOnUse"
       gradientTransform="matrix(0.3368574,0,0,0.3216128,6.8943398,7.7030807)"
       x1="30"
       y1="0.91818392"
       x2="30"
       y2="25.792814" />
    <radialGradient
       inkscape:collect="always"
       xlink:href="#linearGradient6954"
       id="radialGradient3818"
       gradientUnits="userSpaceOnUse"
       gradientTransform="matrix(0.5525016,-0.0426402,0.04315608,0.5097191,0.6973932,6.0218737)"
       cx="26.375898"
       cy="12.31301"
       fx="26.375898"
       fy="12.31301"
       r="8" />
    <radialGradient
       inkscape:collect="always"
       xlink:href="#linearGradient6954"
       id="radialGradient3821"
       gradientUnits="userSpaceOnUse"
       gradientTransform="matrix(0.561868,0,0,0.1578792,0.8318003,13.336901)"
       cx="24.999998"
       cy="28.659998"
       fx="24.999998"
       fy="28.659998"
       r="16" />
    <linearGradient
       inkscape:collect="always"
       xlink:href="#linearGradient8265-821-176-38-919-66-249"
       id="linearGradient3824"
       gradientUnits="userSpaceOnUse"
       x1="18.03083"
       y1="16.407909"
       x2="20.054544"
       y2="24.627615"
       gradientTransform="matrix(0.4450331,0,0,0.4023652,2.8192053,3.8498613)" />
    <radialGradient
       inkscape:collect="always"
       xlink:href="#linearGradient3752"
       id="radialGradient3827"
       gradientUnits="userSpaceOnUse"
       gradientTransform="matrix(-0.01680222,1.3942814,-1.79662,-0.02165073,14.152267,2.1566239)"
       cx="4.02005"
       cy="5.5926585"
       fx="4.02005"
       fy="5.5926585"
       r="10.273108" />
    <radialGradient
       inkscape:collect="always"
       xlink:href="#linearGradient7012-661-145-733-759-865-745"
       id="radialGradient3830"
       gradientUnits="userSpaceOnUse"
       gradientTransform="matrix(1.6899516,0,0,1.0436086,-5.448971,0.9617527)"
       cx="7.8185525"
       cy="8.5608768"
       fx="7.8185525"
       fy="8.5608768"
       r="11.268134" />
    <linearGradient
       inkscape:collect="always"
       xlink:href="#linearGradient11111"
       id="linearGradient3835"
       gradientUnits="userSpaceOnUse"
       gradientTransform="translate(34.378004,-14.501322)"
       x1="-28.531403"
       y1="17.955765"
       x2="-28.531403"
       y2="37.502914" />
    <linearGradient
       inkscape:collect="always"
       xlink:href="#linearGradient5157"
       id="linearGradient3837"
       gradientUnits="userSpaceOnUse"
       x1="9.8763561"
       y1="2.6014566"
       x2="9.8763561"
       y2="23.061668" />
  </defs>
  <g
     style="stroke-width:1.88256383;stroke-miterlimit:4;stroke-dasharray:none"
     id="g3490"
     transform="matrix(0.5459263,0,0,0.5168524,-1.0020361,-0.5781821)">
    <g
       style="stroke-width:104.96237946;stroke-miterlimit:4;stroke-dasharray:none;display:inline"
       id="g5022"
       transform="matrix(0.02165152,0,0,0.01485743,43.0076,42.68539)">
      <rect
         style="opacity:0.40206185;fill:url(#linearGradient4357);fill-opacity:1;fill-rule:nonzero;stroke:none;stroke-width:104.96237946;marker:none;visibility:visible;display:inline;overflow:visible"
         id="rect4173"
         y="-150.69685"
         x="-1559.2523"
         height="478.35718"
         width="1339.6335" />
      <path
         inkscape:connector-curvature="0"
         style="opacity:0.40206185;fill:url(#radialGradient4359);fill-opacity:1;fill-rule:nonzero;stroke:none;stroke-width:104.96237946;marker:none;visibility:visible;display:inline;overflow:visible"
         id="path5058"
         d="m -219.61876,-150.68038 c 0,0 0,478.33079 0,478.33079 142.874166,0.90045 345.40022,-107.16966 345.40014,-239.196175 0,-132.026537 -159.436816,-239.134595 -345.40014,-239.134615 z" />
      <path
         inkscape:connector-curvature="0"
         style="opacity:0.40206185;fill:url(#radialGradient4361);fill-opacity:1;fill-rule:nonzero;stroke:none;stroke-width:104.96237946;marker:none;visibility:visible;display:inline;overflow:visible"
         id="path5018"
         d="m -1559.2523,-150.68038 c 0,0 0,478.33079 0,478.33079 -142.8742,0.90045 -345.4002,-107.16966 -345.4002,-239.196175 0,-132.026537 159.4368,-239.134595 345.4002,-239.134615 z" />
    </g>
  </g>
  <path
     inkscape:connector-curvature="0"
     style="fill:url(#linearGradient3835);fill-opacity:1;stroke:url(#linearGradient3837);stroke-width:1.01114547;stroke-linecap:round;stroke-linejoin:round;stroke-miterlimit:4;stroke-opacity:1;stroke-dasharray:none;display:inline"
     id="path3496"
     d="m 2.6510299,2.5338039 c -0.085539,0 -0.158869,0.092747 -0.158869,0.188543 l 0,1.80342 -1.196774,0 -0.603702,0 c -0.106745,0 -0.190642,0.094861 -0.190642,0.188543 l 0,0.377085 0,4.1702921 c -0.010775,3.954554 -0.031774,8.079318 -0.031774,11.721073 0.029084,0.895035 0.537241,1.505142 0.889665,1.508342 1.012736,0.0092 0.539272,-0.004 1.048535,0 6.4703329,-0.0161 13.5789171,-0.07817 20.0492481,-0.09427 0.05421,0.0069 -1.476715,-0.107725 -1.461594,-1.445495 1e-6,-4.672947 -0.502047,-11.186992 -0.502047,-15.8599411 0,-0.186878 -0.01544,-0.290886 -0.03177,-0.377085 -0.01261,-0.066563 -0.0287,-0.09887 -0.06355,-0.125695 -0.02786,-0.024451 -0.05455,-0.057043 -0.09532,-0.062848 l -9.835171,0 0,-1.80342 c 0,-0.095796 -0.07333,-0.188543 -0.158869,-0.188543 l -7.6573641,0 z" />
  <path
     inkscape:connector-curvature="0"
     style="fill:url(#radialGradient3830);fill-opacity:1;stroke:#505050;stroke-width:1;stroke-linecap:round;stroke-linejoin:round;stroke-miterlimit:4;stroke-opacity:1;stroke-dasharray:none;display:inline"
     id="path3498"
     d="m 3.4993539,6.5471259 c 10.5699021,0 13.0304441,4.6e-4 19.9935051,-0.027539 0,1.570444 0.258156,16.0402751 -0.484112,16.0402751 -0.714048,0 -14.0456512,-0.09435 -21.0087101,-0.06635 1.471684,0 1.499317,-0.622748 1.499317,-15.9463841 z" />
  <path
     inkscape:connector-curvature="0"
     style="opacity:0.4;fill:none;stroke:url(#radialGradient3827);stroke-width:0.98119503;stroke-linecap:butt;stroke-linejoin:miter;stroke-miterlimit:4;stroke-opacity:1;stroke-dasharray:none;display:inline"
     id="path3211"
     d="m 22.938799,7.6088419 c 0,0 -16.8318011,0.09361 -18.3967961,-0.092369 C 4.4590639,21.345907 4.0410549,21.955515 4.0410549,21.955515" />
  <path
     inkscape:connector-curvature="0"
     style="opacity:0.2;fill:url(#linearGradient3824);fill-opacity:1;fill-rule:evenodd;stroke:none"
     id="path2608"
     d="M 4.2516556,6.0000003 C 3.5667727,6.0000003 3,6.5124333 3,7.1316525 l 0,6.4378435 c 0.00262,0.11517 0.066052,0.246479 0.1668874,0.326921 0.1008345,0.08044 0.2297237,0.114382 0.3754967,0.100592 0.00463,1.07e-4 0.00927,1.07e-4 0.013907,0 L 23.582781,11.130157 c 0.232206,-0.03311 0.413972,-0.214996 0.417218,-0.427513 l 0,-3.5709915 c 0,-0.6192192 -0.566772,-1.1316522 -1.251655,-1.1316522 l -18.4966884,0 z" />
  <path
     inkscape:connector-curvature="0"
     style="fill:url(#radialGradient3821);fill-opacity:1;stroke:#808080;stroke-width:1.00012147;stroke-linejoin:round;stroke-miterlimit:4;stroke-opacity:1;stroke-dasharray:none"
     id="path2880"
     d="m 15.843811,14.49838 c -0.08064,0.680093 0.09361,2.100105 -0.277802,2.71875 -1.444825,0.504891 -3.552306,1.426148 -3.690948,2.03125 -0.10237,0.939935 -0.255919,2.311421 -0.375,3.25 2.532897,1.368167 8.491801,1.30225 10.9375,0 -0.0863,-0.665917 -0.163702,-2.584084 -0.25,-3.25 -0.65364,-0.780518 -2.043851,-1.23725 -3.856466,-2.03125 -0.473647,-0.616173 -0.08757,-1.99318 -0.237284,-2.6875 -0.286426,-0.04925 -1.959938,-0.02372 -2.25,-0.03125 z" />
  <path
     inkscape:connector-curvature="0"
     style="fill:url(#radialGradient3818);fill-opacity:1;stroke:#999999;stroke-width:0.94714093;stroke-miterlimit:4;stroke-opacity:1;stroke-dasharray:none"
     id="path2870"
     d="m 17.000061,9.4671304 c -1.395308,0 -2.53125,1.0066476 -2.53125,2.2499996 0.01095,0.460141 0.05895,1.005481 0.34375,2.25 0.168429,0.482419 1.673945,1.776695 1.6875,1.9375 0.326641,0.160805 0.850642,0.160805 1.1875,0 0,-0.160805 1.331572,-1.455081 1.5,-1.9375 0.320478,-1.293427 0.326559,-1.76758 0.34375,-2.25 0,-1.243352 -1.13594,-2.2499996 -2.53125,-2.2499996 z" />
  <path
     inkscape:connector-curvature="0"
     style="fill:none;stroke:url(#linearGradient3815);stroke-width:0.94714093;stroke-miterlimit:4;stroke-opacity:1;stroke-dasharray:none"
     id="path2866"
     d="m 17.000061,10.46713 c -0.612391,-0.01482 -1.266984,0.330557 -1.46875,0.9375 -0.113577,0.410489 -0.01016,0.836839 0.03125,1.25 0.05222,0.33814 0.113278,0.666081 0.1875,1 0.194092,0.171452 0.361142,0.397464 0.5625,0.5625 0.263307,0.256032 0.490796,0.521202 0.75,0.78125 0.268203,-0.21731 0.448424,-0.50327 0.6875,-0.75 0.152681,-0.179823 0.310251,-0.38762 0.46875,-0.5625 0.157636,-0.710281 0.339729,-1.422199 0.28125,-2.15625 -0.124632,-0.686773 -0.847024,-1.079688 -1.5,-1.0625 z" />
  <path
     inkscape:connector-curvature="0"
     style="fill:none;stroke:url(#linearGradient3812);stroke-width:1.00012147;stroke-linejoin:round;stroke-miterlimit:4;stroke-opacity:1;stroke-dasharray:none"
     id="path2876"
     d="m 17.000061,17.06088 c 0.04083,0.618472 -0.484499,1.101042 -1.0625,1.1875 -1.061815,0.377577 -2.165092,0.706505 -3.125,1.3125 -0.224724,0.540724 -0.104238,1.160705 -0.25,1.71875 -0.33093,0.708961 0.569077,0.776057 1.03125,0.90625 2.2561,0.540715 4.652113,0.499061 6.90625,-0.03125 0.335847,-0.168593 1.138282,-0.08494 0.9375,-0.625 -0.06223,-0.587513 -0.09192,-1.191653 -0.125,-1.78125 -0.920048,-0.708331 -2.086918,-0.957329 -3.125,-1.4375 -0.822973,-0.116761 -0.852605,-0.719616 -1.1875,-1.25 z" />
</svg>
