/* XPM */
static char *terminal[] = {
/* columns rows colors chars-per-pixel */
"48 48 52 1",
"  c #000000",
". c #0C0C0D",
"X c #0F0E10",
"o c #100F12",
"O c #131314",
"+ c #161518",
"@ c #19171A",
"# c #1C1A1E",
"$ c #1F1D21",
"% c #211E24",
"& c #242326",
"* c #262529",
"= c #29262D",
"- c #2B292D",
"; c #2C2731",
": c #2E2A31",
"> c #312D35",
", c #342E39",
"< c #333136",
"1 c #35313B",
"2 c #38333E",
"3 c #3C3642",
"4 c #3F3845",
"5 c #3F3848",
"6 c #403947",
"7 c #433C4B",
"8 c #473F50",
"9 c #434244",
"0 c #49484B",
"q c #484051",
"w c #505051",
"e c #5C5C5C",
"r c #717072",
"t c #7B7B7D",
"y c #8B8B8C",
"u c #969696",
"i c #9C9C9C",
"p c #A3A3A3",
"a c #A7A7A8",
"s c #ACACAC",
"d c #B6B6B6",
"f c #BBBBBB",
"g c #C4C4C4",
"h c #CCCCCC",
"j c #D0CFD0",
"k c #D4D4D4",
"l c #DBDBDB",
"z c #E4E4E4",
"x c #ECECEC",
"c c #F2F2F2",
"v c #FDFDFD",
"b c None",
/* pixels */
"bbbbbbbbbbbbbbbbbbbbbbbbbbbbbbbbbbbbbbbbbbbbbbbb",
"bbbbbbbbbbbbbbbbbbbbbbbbbbbbbbbbbbbbbbbbbbbbbbbb",
"bbbbbbbbbbbbbbbbbbbbbbbbbbbbbbbbbbbbbbbbbbbbbbbb",
"bbbbhzcccccxccccccccccccccccccccccccccccccxhbbbb",
"bbbdxzzzzzzzzzzzzzzzzzzzzzzzzzzzzzzzzzzzzzzzfbbb",
"bbblzzzzzzzzzzzzzzzzzzzzzzzzzzzzzzzzzzzzzzzzlbbb",
"bbbxlzlsuuuuuuuuiiuiuiuuuuiuuiiuuuuuuuuuslzzxbbb",
"bbbzzzseOXXOOOOOOOOOOOOOOOOOO+OOOOOOX.XOeszzzbbb",
"bbbzzluO+@####&##&#&$#&&$$$$$$$$$$$###@OOuzlzbbb",
"bbbzlziX@#$$&&&&&&&&&&&&&&&&&&&&&&&$$$$O.ilzzbbb",
"bbbzllp.#$&&&&*&&&*&&&&&***&*&&&*&&&&$$#Opllzbbb",
"bbbzllpX#$$&&****&***&*********&****&&$#Xpllzbbb",
"bbbzllpO#&&&jr-*****************-&**&&&#Oallzbbb",
"bbbzklsO#$&&vvzy<***************&***&&&#Oalkzbbb",
"bbblllsO$&&&wacvcs***--************&&&&#Oslklbbb",
"bbblklsO$&&&**<scc-------------*&-&**&&#Odkllbbb",
"bbblkkdO#&&*9uzvvg---------------***&&$$Odkklbbb",
"bbblkkdO#$**vvcp0-----<--<<--------**&&$Odlklbbb",
"bbblkkfO$***kt<-:--<>>>><->:<------***&#Ofkklbbb",
"bbblkkfO$**----::-vvvvvv<<<:<-<<::--**&$Ofkklbbb",
"bbbkkjfO&&*--::<<<vvvvvv<<<<<<<<>:-**&%$Ofjkkbbb",
"bbbkjkgO&*--:><<<<<<111<11<<:-*&&%%%##+O.gkjkbbb",
"bbbkjjgO&*-:>><<<<11122<,:-=****&%&$$#@O.gjjkbbb",
"bbbkjhhO*-:<><<1<221<---=-===***&&&&$#@+.gjjkbbb",
"bbbkhhhO=-:>,<111,>:;::::::;;;==**&%%%#+.hhhjbbb",
"bbbhhhh+=:>><11>:;:::::::::::--===*%%%#@Xhhhhbbb",
"bbbhhhjO=:>><:-:::>:>:>>>>>>:::;==**&%%@ohhhhbbb",
"bbbhhhk@-:>;=--::>>>>,,,<<>>>>::;;===%%@Xkhhhbbb",
"bbbhghkO:;%=;:->>>,,><<,<,,1>>>>;;===%%$okhhhbbb",
"bbbhhglO%%=-;->>>,,,2<22221<<,>>>>;==*%@okhggbbb",
"bbbghglO$%=;-:>>,111222222211,,>>;;;=*%$Olgghbbb",
"bbbggglO%%=;:>,,,1133233233222,,>>:;=*&$ozgggbbb",
"bbbgggzo$=;;:>>,,333333533333111,>>;;%=$ozgggbbb",
"bbbgggzX$=;;>>>3,23333556533321,,,>:==%%ozggfbbb",
"bbbgggxo%=;;>,,3333366666665333,,,>;;=%%ozgggbbb",
"bbbfffxo%=;;>,,,33357777766533322,,;;;=%oxfggbbb",
"bbbgffxO$;;,>,3,3335777777765332,,>>;%=$Oxfggbbb",
"bbbgfgxO%%;;>,,333367788q766353,3,,;;;%$Xcfffbbb",
"bbbfffco$;;;;3,33356778887766333,,;;;;%$Xcgffbbb",
"bbbfffc@#$%%;;;;,,33566776632,,>>;;;%%%$#xfffbbb",
"bbbfffku#oo+++@@#$$#$$$%$$%$$@#@#+@@OoO$ukfdfbbb",
"bbbfddflcvvvvvvvvvvvvvvvvvvvvvvvcvvvvvvclffdfbbb",
"bbbpddddddddfdddfddddddfddfdddddfdddddddddddpbbb",
"bbbefdddddddddddddddddddddddddddddddddddddffebbb",
"bbb.epfgfgggghghhhhhhjkkjkjjhhhhhhgggggfgfpe.bbb",
"bbbbb                                      bbbbb",
"bbbbbbbbbbbbbbbbbbbbbbbbbbbbbbbbbbbbbbbbbbbbbbbb",
"bbbbbbbbbbbbbbbbbbbbbbbbbbbbbbbbbbbbbbbbbbbbbbbb"
};
