/* XPM */
static char *xchat[] = {
/* columns rows colors chars-per-pixel */
"48 48 183 2",
"   c #000000",
".  c #374E0F",
"X  c #39520E",
"o  c #4F6D15",
"O  c #506F15",
"+  c #517215",
"@  c #567916",
"#  c #597C17",
"$  c #577818",
"%  c #5B7E19",
"&  c #5D8317",
"*  c #5E821A",
"=  c #61851B",
"-  c #638B1A",
";  c #6B941D",
":  c #6E9A1D",
">  c #719D1E",
",  c #71A317",
"<  c #73A519",
"1  c #76A91A",
"2  c #7AAC1D",
"3  c #7DB01F",
"4  c #628322",
"5  c #678B22",
"6  c #698C24",
"7  c #668628",
"8  c #6A8C2D",
"9  c #6D9322",
"0  c #6E9822",
"q  c #6F912E",
"w  c #719626",
"e  c #739C22",
"r  c #72962A",
"t  c #759A2B",
"y  c #789C2C",
"u  c #708F35",
"i  c #728F39",
"p  c #6F9031",
"a  c #729532",
"s  c #769931",
"d  c #789D36",
"f  c #7B9F3B",
"g  c #76A323",
"h  c #79A425",
"j  c #7CAB24",
"k  c #7CA42A",
"l  c #7DAA2A",
"z  c #7EB122",
"x  c #7EA432",
"c  c #7EAC30",
"v  c #7FA33A",
"b  c #768B4D",
"n  c #779246",
"m  c #7E9A48",
"M  c #7B8E58",
"N  c #7D9451",
"B  c #7E9159",
"V  c #81AE26",
"C  c #80A72E",
"Z  c #82AC2C",
"A  c #82B424",
"S  c #85B926",
"D  c #84B32B",
"F  c #88B52E",
"G  c #87B929",
"H  c #8BBC2C",
"J  c #81A631",
"K  c #83AD34",
"L  c #88AF36",
"P  c #80A33E",
"I  c #84AA3C",
"U  c #86B432",
"Y  c #8AB531",
"T  c #8DBB31",
"R  c #86B03B",
"E  c #8AB33D",
"W  c #8DB939",
"Q  c #91BE32",
"!  c #92BD3C",
"~  c #8EC12D",
"^  c #91C32E",
"/  c #92C434",
"(  c #96C933",
")  c #9ACD35",
"_  c #95C33C",
"`  c #98C53D",
"'  c #97C839",
"]  c #9CCC3C",
"[  c #9ED137",
"{  c #9FD238",
"}  c #A2D53B",
"|  c #A6D93B",
" . c #AADD3E",
".. c #ACE03F",
"X. c #809752",
"o. c #829B50",
"O. c #82955D",
"+. c #84985D",
"@. c #86AB42",
"#. c #88AC42",
"$. c #8AB342",
"%. c #8EB548",
"&. c #92BD47",
"*. c #90B849",
"=. c #89A554",
"-. c #8EA55D",
";. c #94B452",
":. c #96B855",
">. c #899B65",
",. c #93AC63",
"<. c #97AB6F",
"1. c #9BB26D",
"2. c #9FB868",
"3. c #93A275",
"4. c #9AAD74",
"5. c #99A77E",
"6. c #9BAB7B",
"7. c #A0BA6B",
"8. c #A1B47B",
"9. c #94C041",
"0. c #9AC741",
"q. c #9DCB40",
"w. c #A0CE44",
"e. c #A5D443",
"r. c #A8D745",
"t. c #A7D841",
"y. c #ABDD43",
"u. c #A5D24A",
"i. c #A8D64B",
"p. c #ACDD49",
"a. c #AAD751",
"s. c #AED954",
"d. c #B2DE59",
"f. c #AEE142",
"g. c #AFE148",
"h. c #B1E443",
"j. c #B1E24B",
"k. c #B8E754",
"l. c #B7E15E",
"z. c #A6C072",
"x. c #AEC973",
"c. c #B1CA7D",
"v. c #BFDE7D",
"b. c #BCE565",
"n. c #C1E96E",
"m. c #C9ED7C",
"M. c #9FAD86",
"N. c #A3B383",
"B. c #A6B689",
"V. c #AFBE92",
"C. c #B1BB9F",
"Z. c #B7BFA6",
"A. c #ACC281",
"S. c #B7CB8D",
"D. c #B8CD8E",
"F. c #BAD08E",
"G. c #B5C694",
"H. c #B7CA93",
"J. c #B9CD94",
"K. c #B4C299",
"L. c #BDC4AF",
"P. c #CCE891",
"I. c #D8F39F",
"U. c #C0CFA1",
"Y. c #C4D1A6",
"T. c #C4CDB3",
"R. c #C7CCBC",
"E. c #C8CFBA",
"W. c #C9D4B5",
"Q. c #CCD3BE",
"!. c #CED4C2",
"~. c #D1D6C7",
"^. c #D1D8C2",
"/. c #D5DACB",
"(. c #D8DDCF",
"). c #DCE1D3",
"_. c #E1E3DD",
"`. c #E6E6E6",
"'. c #ECECEC",
"]. c #F0F0EF",
"[. c #F1F1F1",
"{. c #FAFAFA",
"}. c None",
/* pixels */
"}.}.}.}.}.}.}.}.}.}.}.}.}.}.}.}.}.}.}.}.}.}.}.}.}.}.}.}.}.}.}.}.}.}.}.}.}.}.}.}.}.}.}.}.}.}.}.}.",
"}.}.}.}.}.}.}.}.}.}.}.}.}.}.}.}.}.}.}.}.}.}.}.}.}.}.}.}.}.}.}.}.}.}.}.}.}.}.}.}.}.}.}.}.}.}.}.}.",
"}.}.}.}.}.}.}.}.}.}.}.}.}.}.}.}.}.}.}.}.}.}.}.}.}.}.}.}.}.}.}.}.}.}.}.}.}.}.}.}.}.}.}.}.}.}.}.}.",
"}.}.}.}.x.P.I.I.I.I.I.I.I.I.I.I.I.I.I.I.I.I.I.I.I.I.I.I.I.I.I.I.I.I.I.I.I.I.I.I.I.I.P.x.}.}.}.}.",
"}.}.}.2.m.k.h.h.h.h.h.h.h...h.h.h.h.h.h.h.h.h.h.h.h.h.h.h.h.h.h...h.h.h.h.h...h.h.h.k.m.7.}.}.}.",
"}.}.}.m.h.h.h...h.........h.h.h.h.h.h.h.h.h.h.h.h.h.h.h.h.h.h.h.h.h.h.......h.h...h.h.h.m.}.}.}.",
"}.}.}.n...........h...h.h.....f.h.h.h.h.h.j.h.j.j.h.h.j.h.h.h.h.f.h.h.........f...h.....n.}.}.}.",
"}.}.}.n...................h.f.f.h.h.k.h.j.j.j.j.j.k.j.j.j.j.h.j.h.h...h...h.............n.}.}.}.",
"}.}.}.b............... .f.f.p.g.j.j.j.j.u.` ! ! ! ! ! u.j.j.j.p.p.f.f........... ... ...b.}.}.}.",
"}.}.}.b. ...|  .| .. . .y.y.g.p.i.! J t C C C C Z Z C J J J ! p.j.p.p.y.y. .y. . . . . .b.}.}.}.",
"}.}.}.l.| | | |  .|  .y.y.p.e.L t C C Y F Y T Q Q Q Q Q Q Y J J W r.p.y.y.| | | |  .| | l.}.}.}.",
"}.}.}.l.| | | | | | y.y.p.! r C C L Y Y Y Q T Q Q Q Q Q Q Q Q Y U y ` y.y.y.y.| | | | | l.}.}.}.",
"}.}.}.d.| | | | t.t.r.p.x w C D F L F F Y Y Y F F Y Q Q Y Y T Q Q F k L p.y.t.| | | | | d.}.}.}.",
"}.}.}.d.} } } | | t.e.y t Z Z U F F F F Y 7.{.{.W.L Q 7.{.{.Y.T Q Q Q C x i.e.t.} } } } d.}.}.}.",
"}.}.}.s.[ } } } e.e.t t Z Z Z U L Z F F F V.[.[.-.F F G.[.[.=.T Q Q Q H k C t.| | } } [ s.}.}.}.",
"}.}.}.s.[ } } } t.L q l Z Z D Z Z F Z F Z Q.{.].y F L ^.[.`.C T H Q Q T T k W | } } [ [ s.}.}.}.",
"}.}.}.a.) } } e.] 6 g C C V C Z Z Z Z F J '.].Q.C D I '.].T.C Y H T Q T Q D e ] } ] } [ a.}.}.}.",
"}.}.}.i.) [ ] } J w C V V C V V ;.S.S.S.U.[.[.E.D.D.U.[.].W.D.F.c.F H H T H C U e.{ [ [ i.}.}.}.",
"}.}.}.i.) [ } w.6 t j C l k C k B.[.].[.[.[.].[.[.[.[.].[.[.[.[.).C F H F H D y w.] ) ) u.}.}.}.",
"}.}.}.u.) ) ] ! - y k k k j j k 4.].].].].].].].[.].[.[.].].].].~.V F F H H F e ! { ) ) u.}.}.}.",
"}.}.}.w.( ) ] U 6 y j h k k j h i O.O.>.].].~.O.O.>.].].Q.+.+.+.X.k F D F G F g Q { ) ) w.}.}.}.",
"}.}.}.w.( ' ] k w g y h h k h k y > t ,.].'.N.> t 1.].].8.y h h g D F G G F F k L ` ' ( w.}.}.}.",
"}.}.}.q.( ( ] J ; y g h g g h g V C > V.'.'.o.C j K.'.'.o.V V Z Z A D D D D G g C ] ( ( w.}.}.}.",
"}.}.}.0.^ ( ` L - e g e y g t c.G.S.S./.'.'.G.J.H.(.'.`.S.J.J.:.V D V A Z A D e L ' ( ^ ] }.}.}.",
"}.}.}.' ^ / ( ! = e e e g g w /.].].].'.'.'.].].].'.'.'.].].].8.j C A V V V V 9 W ( ^ ^ ' }.}.}.",
"}.}.}./ ~ / / ` 7 9 e e e e ; !.'.`.'.`.`.'.`.'.`.'.'.'.`.'.`.<.j V V V V V j r ` ( ^ ~ ' }.}.}.",
"}.}.}./ ~ ^ / / x = e e e e ; b M M C.'.'.5.O.M Z.'.`.3.M B O.u j j j j V V > J ( / ~ ~ / }.}.}.",
"}.}.}./ H H H / 9.4 ; e e e e 6 9 - T.'.`.7 ; ; E.'.`.- > > w e j j j j j g 6 ! / H H H / }.}.}.",
"}.}.}.~ S S ~ ^ / v * ; : > : e e 6 _.'.R.; e w `.'.T.; g g j g j j j j g 9 I / T ~ H G ~ }.}.}.",
"}.}.}.H S ~ S H T _ a * ; w : > : =.`.`.M.; e ,.`.`.3.> g g g 2 g g g g : p _ ~ H H ~ G H }.}.}.",
"}.}.}.G S S G H H T ! 8 - ; > : : M.`.`.X.: : B.`.`.n > 1 g e g g g > ; r 9.~ H S S A S G }.}.}.",
"}.}.}.S A S A S G H H ! u % - ; ; $ O O = : : $ O O - > e g > 1 < > - s 9.T S S S S S A S }.}.}.",
"}.}.}.A A A A A S S G H W #.4 - ; ; ; ; : : : : : : : : : < > 0 ; * $._ ~ z G ~ z z 3 S 3 }.}.}.",
"}.}.}.A 3 A A A A A S G Y W *.@ ; : ; ; ; : : : : : , : ; ; - = v $.~ c z ~ z z z z S 3 S }.}.}.",
"}.}.}.z 3 A 3 3 3 A A S D T r & ; ; - & & & & - - & & & 4 p m 9.T G z c S z 3 3 z 3 ~ 3 z }.}.}.",
"}.}.}.3 3 3 3 3 3 A 3 A D U & - ; & & p $.v v v v v @.%.9.W G G c G z z z z 3 3 3 3 2 3 z }.}.}.",
"}.}.}.z 3 2 3 2 z z z z D 0 @ & & $ m _ U U D D c G z c z c z z z z 3 3 3 3 2 2 3 2 3 2 3 }.}.}.",
"}.}.}.2 2 2 3 3 2 z z j ; + @ @ 7 $.c z z D z j z z z z z z 2 z z 3 2 2 2 2 2 2 2 2 2 2 3 }.}.}.",
"}.}.}.2 2 2 1 1 2 2 g 5 7 8 x $.U z z z z j 2 j z j g 2 z 2 2 2 2 2 1 2 2 2 1 2 1 2 2 2 3 }.}.}.",
"}.}.}.2 1 1 1 1 1 1 j z c z j g j z g j 1 1 2 2 2 1 2 2 2 2 1 1 1 1 1 1 1 1 1 1 1 1 1 1 2 }.}.}.",
"}.}.}.1 < 1 1 1 < 2 2 1 g g 2 2 g 2 1 2 1 1 1 1 1 1 1 1 1 1 1 < 1 1 1 1 < 1 1 1 1 1 1 , 1 }.}.}.",
"}.}.}.1 , 1 , 1 , , , 2 2 , 1 1 1 1 1 , 1 , , , , 1 , < , < < < , < , < , 1 , 1 1 , 1 , 2 }.}.}.",
"}.}.}.- , , , , , , , , < , , , , , , , , , , , , , , , , , , , , , , , , , , , , , , , ; }.}.}.",
"}.}.}.X 1 , , , , , , , , , , , , , , , , , , , , , , , , , , , , , , , , , , , , , , 1 X }.}.}.",
"}.}.}.  . - h h h l l l c c c K K R R R E E $.$.E $.E E E R U R c U l c l l l h j g - X   }.}.}.",
"}.}.}.}.}.                                                                            }.}.}.}.}.",
"}.}.}.}.}.}.}.}.}.}.}.}.}.}.}.}.}.}.}.}.}.}.}.}.}.}.}.}.}.}.}.}.}.}.}.}.}.}.}.}.}.}.}.}.}.}.}.}.",
"}.}.}.}.}.}.}.}.}.}.}.}.}.}.}.}.}.}.}.}.}.}.}.}.}.}.}.}.}.}.}.}.}.}.}.}.}.}.}.}.}.}.}.}.}.}.}.}."
};
