<?xml version="1.0" encoding="UTF-8" standalone="no"?>
<svg
   xmlns:dc="http://purl.org/dc/elements/1.1/"
   xmlns:cc="http://creativecommons.org/ns#"
   xmlns:rdf="http://www.w3.org/1999/02/22-rdf-syntax-ns#"
   xmlns:svg="http://www.w3.org/2000/svg"
   xmlns="http://www.w3.org/2000/svg"
   xmlns:xlink="http://www.w3.org/1999/xlink"
   xmlns:sodipodi="http://sodipodi.sourceforge.net/DTD/sodipodi-0.dtd"
   xmlns:inkscape="http://www.inkscape.org/namespaces/inkscape"
   id="svg2"
   height="128"
   width="128"
   version="1.1"
   inkscape:version="0.91 r"
   sodipodi:docname="phone-samsung-galaxys4_black.svg">
  <metadata
     id="metadata75">
    <rdf:RDF>
      <cc:Work
         rdf:about="">
        <dc:format>image/svg+xml</dc:format>
        <dc:type
           rdf:resource="http://purl.org/dc/dcmitype/StillImage" />
        <dc:title />
      </cc:Work>
    </rdf:RDF>
  </metadata>
  <sodipodi:namedview
     pagecolor="#ffffff"
     bordercolor="#666666"
     borderopacity="1"
     objecttolerance="10"
     gridtolerance="10000"
     guidetolerance="10"
     inkscape:pageopacity="0"
     inkscape:pageshadow="2"
     inkscape:window-width="1366"
     inkscape:window-height="707"
     id="namedview73"
     showgrid="true"
     inkscape:zoom="5.6568542"
     inkscape:cx="35.143367"
     inkscape:cy="105.8209"
     inkscape:window-x="0"
     inkscape:window-y="0"
     inkscape:window-maximized="1"
     inkscape:current-layer="svg2">
    <inkscape:grid
       type="xygrid"
       id="grid4202" />
  </sodipodi:namedview>
  <defs
     id="defs4">
    <linearGradient
       inkscape:collect="always"
       id="linearGradient4183">
      <stop
         style="stop-color:#000000;stop-opacity:1;"
         offset="0"
         id="stop4185" />
      <stop
         style="stop-color:#000000;stop-opacity:0;"
         offset="1"
         id="stop4187" />
    </linearGradient>
    <linearGradient
       inkscape:collect="always"
       id="linearGradient4408">
      <stop
         style="stop-color:#ffffff;stop-opacity:1;"
         offset="0"
         id="stop4410" />
      <stop
         style="stop-color:#ffffff;stop-opacity:0;"
         offset="1"
         id="stop4412" />
    </linearGradient>
    <linearGradient
       id="linearGradient3920"
       x1="75.386002"
       gradientUnits="userSpaceOnUse"
       y1="455.67999"
       gradientTransform="matrix(0.12189823,0,0,0.07162809,24.321606,-13.723546)"
       x2="76.112999"
       y2="455.67999">
      <stop
         id="stop3916"
         stop-color="#232323"
         offset="0" />
      <stop
         id="stop3918"
         stop-color="#c8c8c8"
         offset="1" />
    </linearGradient>
    <linearGradient
       id="linearGradient3937"
       x1="75.386002"
       gradientUnits="userSpaceOnUse"
       y1="455.67999"
       gradientTransform="matrix(-0.09821346,0,0,0.0345405,102.13475,12.12345)"
       x2="76.112999"
       y2="455.67999">
      <stop
         id="stop3916-9"
         stop-color="#232323"
         offset="0" />
      <stop
         id="stop3918-4"
         stop-color="#c8c8c8"
         offset="1" />
    </linearGradient>
    <linearGradient
       id="linearGradient3995-8-2-8-3-9"
       x1="401.45001"
       gradientUnits="userSpaceOnUse"
       y1="259.06"
       gradientTransform="matrix(0.07162809,0,0,0.07162809,32.988349,-15.025028)"
       x2="401.45001"
       y2="264.75">
      <stop
         id="stop3991-4-2-2-1-1"
         stop-color="#141414"
         offset="0" />
      <stop
         id="stop3993-5-2-7-1-9"
         stop-color="#3c3c3c"
         offset="1" />
    </linearGradient>
    <clipPath
       id="clipPath4536-9">
      <path
         id="path4538-2"
         d="m 761.27,234.91 a 4.24135,4.24135 0 1 1 -8.4827,0 4.24135,4.24135 0 1 1 8.4827,0 z"
         inkscape:connector-curvature="0"
         style="fill:#141414" />
    </clipPath>
    <linearGradient
       id="linearGradient4825"
       x1="458.39001"
       gradientUnits="userSpaceOnUse"
       y1="1735.7"
       gradientTransform="translate(-67.062,161.39)"
       x2="458.39001"
       y2="1783.1">
      <stop
         id="stop4821"
         stop-color="#e0e4e8"
         offset="0"
         style="stop-color:#ffffff;stop-opacity:1" />
      <stop
         id="stop4823"
         stop-color="#ebedf0"
         offset="1"
         style="stop-color:#ffffff;stop-opacity:0" />
    </linearGradient>
    <clipPath
       id="clipPath6742">
      <rect
         id="rect6744"
         style="color:#000000;fill:#00c809"
         ry="11.259"
         height="1343.5"
         width="766.5"
         y="345.42001"
         x="110.77" />
    </clipPath>
    <linearGradient
       inkscape:collect="always"
       xlink:href="#linearGradient4408"
       id="linearGradient4414"
       x1="506.45035"
       y1="1024.0945"
       x2="-334.10406"
       y2="535.19653"
       gradientUnits="userSpaceOnUse" />
    <radialGradient
       inkscape:collect="always"
       xlink:href="#linearGradient4183"
       id="radialGradient4189"
       cx="65"
       cy="118"
       fx="65"
       fy="118"
       r="45"
       gradientTransform="matrix(0.78226451,0,0,0.22222222,13.152808,91.777778)"
       gradientUnits="userSpaceOnUse" />
  </defs>
  <rect
     style="opacity:1;fill:#999999;fill-opacity:1;stroke:none;stroke-width:0.5;stroke-linecap:round;stroke-linejoin:round;stroke-miterlimit:4;stroke-dasharray:none;stroke-opacity:1"
     id="rect4371"
     width="2"
     height="11"
     x="93"
     y="27"
     ry="1" />
  <rect
     style="opacity:1;fill:#999999;fill-opacity:1;stroke:none;stroke-width:0.5;stroke-linecap:round;stroke-linejoin:round;stroke-miterlimit:4;stroke-dasharray:none;stroke-opacity:1"
     id="rect4373"
     width="2"
     height="20"
     x="33"
     y="18"
     ry="1" />
  <ellipse
     style="opacity:0.427;fill:url(#radialGradient4189);fill-opacity:1;stroke:none;stroke-width:0.99800003;stroke-linecap:round;stroke-linejoin:round;stroke-miterlimit:4;stroke-dasharray:none;stroke-opacity:1"
     id="path4181"
     cx="64"
     cy="118"
     rx="35.201904"
     ry="10" />
  <g
     id="g3957"
     transform="matrix(0.07138146,0,0,0.07158959,33.848835,-25.314502)"
     style="fill:#000000;stroke:#434343;stroke-width:13.9610033;stroke-linecap:round;stroke-linejoin:round;stroke-miterlimit:4;stroke-dasharray:none;stroke-opacity:1">
    <path
       inkscape:connector-curvature="0"
       id="path3959"
       style="color:#000000;fill:#000000;stroke:#434343;stroke-width:13.9610033;stroke-linecap:round;stroke-linejoin:round;stroke-miterlimit:4;stroke-dasharray:none;stroke-opacity:1"
       d="m 306.06,360.6 -0.31179,0.15613 c -124.21,-0.02 -296.53,-10.03 -296.65,141.55 l 0,0.15615 0,1350.70002 0,0.1561 c 0.1192,151.5 172.44,141.5 296.65,141.4 l 0.31179,0.1561 232.67,0 0.3118,-0.1561 c 124.21,0.017 296.53,10.028 296.65,-141.55 l 0,-0.1561 0,-1350.70002 0,-0.15615 c -0.12,-151.37 -172.44,-141.36 -296.65,-141.34 L 538.73,360.66 l -232.67,0 z" />
  </g>
  <g
     style="fill:#999999"
     id="layer9"
     transform="matrix(0.07162809,0,0,0.07162809,33.837285,-25.249222)">
    <path
       inkscape:connector-curvature="0"
       id="path3998"
       d="m 308.34,466.59 8.5622,0 c -0.0769,2.7912 0.14673,5.239 2.0213,5.8 0.74041,0.20165 1.346,0.0886 2.039,-0.0482 0.79568,-0.21432 1.3221,-0.57361 1.6647,-1.0319 0.34543,-0.47825 0.47108,-1.0189 0.63737,-1.5372 0.29224,-1.3649 -0.30906,-2.4476 -1.4926,-3.3464 -5.0902,-4.5533 -13.493,-4.8208 -13.275,-13.722 0.10296,-5.5919 4.0571,-8.2663 11.062,-8.6297 10.251,0.0446 11.801,4.571 11.062,10.277 l -8.0806,0 c 0.10225,-2.5136 -0.16453,-4.7025 -2.8243,-4.7856 -1.9904,-0.007 -2.272,1.0852 -2.7553,2.0473 -0.32252,2.4719 0.81292,2.9556 1.657,3.8366 5.1605,3.8318 13.757,5.2757 12.945,13.258 0.11214,6.4452 -3.7207,9.5834 -11.219,9.6496 -5.5499,0.0129 -7.8309,-1.0916 -9.5226,-2.6118 -1.9561,-2.0231 -2.7628,-3.9798 -2.4806,-9.1559 z"
       style="fill:#999999" />
    <path
       inkscape:connector-curvature="0"
       id="path4000"
       d="m 345.39,477.39 -8.7216,0 5.9343,-32.369 14.206,0 6.0242,32.369 -8.9015,0 -4.226,-29.132 z"
       style="fill:#999999" />
    <path
       inkscape:connector-curvature="0"
       id="path4006"
       d="m 368.94,477.39 0.89914,-32.369 12.948,0 4.0461,24.726 4.136,-24.726 13.038,0 0.89914,32.369 -8.2721,0 -0.26975,-28.772 -5.3049,28.772 -8.2721,0 -5.3948,-28.683 -0.44956,28.683 z"
       style="fill:#999999" />
    <path
       inkscape:connector-curvature="0"
       id="path3998-1"
       d="m 412.36,466.73 8.5622,0 c -0.0769,2.7912 0.14673,5.239 2.0213,5.8 0.74041,0.20165 1.346,0.0886 2.039,-0.0482 0.79568,-0.21432 1.3221,-0.57361 1.6647,-1.0319 0.34543,-0.47825 0.47108,-1.0189 0.63737,-1.5372 0.29224,-1.3649 -0.30906,-2.4476 -1.4926,-3.3464 -5.0902,-4.5533 -13.493,-4.8208 -13.275,-13.722 0.10296,-5.5919 4.0571,-8.2663 11.062,-8.6297 10.251,0.0446 11.801,4.571 11.062,10.277 l -8.0806,0 c 0.10225,-2.5136 -0.16453,-4.7025 -2.8243,-4.7856 -1.9904,-0.007 -2.272,1.0852 -2.7553,2.0473 -0.32252,2.4719 0.81292,2.9556 1.657,3.8366 5.1605,3.8318 13.757,5.2757 12.945,13.258 0.11214,6.4452 -3.7207,9.5834 -11.219,9.6496 -5.5499,0.0129 -7.8309,-1.0916 -9.5226,-2.6118 -1.9561,-2.0231 -2.7628,-3.9798 -2.4806,-9.1559 z"
       style="fill:#999999" />
    <path
       inkscape:connector-curvature="0"
       id="path4026"
       d="m 450.68,445.03 -8.1822,0 0,24.277 c 0.84598,6.5873 4.6228,9.031 10.15,9.0004 1.2137,-0.077 2.3449,-0.07 3.4834,-0.0647 5.6157,-0.18547 8.8809,-3.7627 9.115,-9.3852 l 0,-23.827 -8.362,0 0,22.658 c 0.0547,0.87975 0.0458,1.6716 -0.0483,2.3454 -0.0894,1.1441 -0.68604,1.6547 -1.5302,2.1921 -0.8362,0.37646 -1.761,0.36486 -2.6182,0.083 -0.92888,-0.23061 -1.2466,-0.84424 -1.5921,-1.5695 -0.35949,-1.097 -0.4116,-2.6098 -0.35649,-4.2677 z"
       style="fill:#999999" />
    <path
       inkscape:connector-curvature="0"
       id="path4030"
       d="m 473.95,477.39 0,-32.369 11.936,0 7.5634,25.345 0,-25.345 7.5634,0 0,32.369 -11.345,0 -8.0362,-26.405 0,26.405 z"
       style="fill:#999999" />
    <path
       inkscape:connector-curvature="0"
       id="path4032"
       d="m 523.83,455.48 7.918,0 c 0.0653,-6.5412 -1.8666,-11.567 -10.872,-11.227 -8.6696,-0.33294 -12.046,4.08 -11.582,11.936 l 0,12.409 c -0.004,6.8107 4.9907,9.0214 11.227,8.8634 7.4658,0.4521 11.246,-2.4612 11.463,-8.627 l 0,-9.6907 -11.345,0 0,4.7272 2.9545,0 0,4.9635 c -0.0688,2.5057 -1.1963,3.3173 -2.8363,3.309 -2.5194,0.20108 -3.2078,-1.1673 -3.5454,-2.8363 l 0,-15.836 c 0.2024,-2.3011 1.1426,-3.759 3.5454,-3.5454 1.3309,0.12757 2.6643,0.2486 3.0726,2.8363 z"
       style="fill:#999999" />
  </g>
  <g
     id="g4325">
    <rect
       ry="1.5"
       y="3"
       x="58"
       height="3"
       width="13"
       id="rect4257"
       style="opacity:0.98000004;fill:#999999;fill-opacity:1;stroke:none;stroke-width:0.5;stroke-linecap:round;stroke-linejoin:round;stroke-miterlimit:4;stroke-dasharray:none;stroke-opacity:1" />
    <path
       style="fill:#4d4d4d"
       inkscape:connector-curvature="0"
       id="path4285"
       d="m 59.999994,4.5 a 0.5,0.49746343 0 1 1 -0.999987,0 0.5,0.49746343 0 1 1 0.999987,0 z" />
    <path
       d="m 61.999994,4.5 a 0.5,0.49746343 0 1 1 -0.999987,0 0.5,0.49746343 0 1 1 0.999987,0 z"
       id="path4299"
       inkscape:connector-curvature="0"
       style="fill:#4d4d4d" />
    <path
       style="fill:#4d4d4d"
       inkscape:connector-curvature="0"
       id="path4301"
       d="m 63.999994,4.5 a 0.5,0.49746343 0 1 1 -0.999987,0 0.5,0.49746343 0 1 1 0.999987,0 z" />
    <path
       d="m 65.999994,4.5 a 0.5,0.49746343 0 1 1 -0.999987,0 0.5,0.49746343 0 1 1 0.999987,0 z"
       id="path4303"
       inkscape:connector-curvature="0"
       style="fill:#4d4d4d" />
    <path
       style="fill:#4d4d4d"
       inkscape:connector-curvature="0"
       id="path4305"
       d="m 67.999994,4.5 a 0.5,0.49746343 0 1 1 -0.999987,0 0.5,0.49746343 0 1 1 0.999987,0 z" />
    <path
       d="m 69.999994,4.5 a 0.5,0.49746343 0 1 1 -0.999987,0 0.5,0.49746343 0 1 1 0.999987,0 z"
       id="path4307"
       inkscape:connector-curvature="0"
       style="fill:#4d4d4d" />
  </g>
  <circle
     style="opacity:0.98000004;fill:#1a1a1a;fill-opacity:1;stroke:none;stroke-width:0.5;stroke-linecap:round;stroke-linejoin:round;stroke-miterlimit:4;stroke-dasharray:none;stroke-opacity:1"
     id="path4359"
     cx="83"
     cy="4"
     r="1" />
  <circle
     style="opacity:0.98000004;fill:#1a1a1a;fill-opacity:1;stroke:none;stroke-width:0.5;stroke-linecap:round;stroke-linejoin:round;stroke-miterlimit:4;stroke-dasharray:none;stroke-opacity:1"
     id="path4361"
     cx="76"
     cy="3"
     r="1" />
  <circle
     style="opacity:0.98000004;fill:#1a1a1a;fill-opacity:1;stroke:none;stroke-width:0.5;stroke-linecap:round;stroke-linejoin:round;stroke-miterlimit:4;stroke-dasharray:none;stroke-opacity:1"
     id="path4363"
     cx="73"
     cy="3"
     r="1" />
  <circle
     style="opacity:0.98000004;fill:#1a1a1a;fill-opacity:1;stroke:none;stroke-width:0.5;stroke-linecap:round;stroke-linejoin:round;stroke-miterlimit:4;stroke-dasharray:none;stroke-opacity:1"
     id="path4365"
     cx="54"
     cy="3"
     r="1" />
  <rect
     style="opacity:0.98000004;fill:#1a1a1a;fill-opacity:1;stroke:none;stroke-width:0.5;stroke-linecap:round;stroke-linejoin:round;stroke-miterlimit:4;stroke-dasharray:none;stroke-opacity:1"
     id="rect4367"
     width="54"
     height="96"
     x="37"
     y="10.999999"
     ry="1" />
  <rect
     style="opacity:1;fill:#000000;fill-opacity:1;stroke:#2c2c2c;stroke-width:1;stroke-linecap:round;stroke-linejoin:round;stroke-miterlimit:4;stroke-dasharray:none;stroke-opacity:1"
     id="rect4375"
     width="13.833844"
     height="3.8338447"
     x="57.583076"
     y="110.58308"
     ry="1.2779483" />
  <g
     style="fill:url(#linearGradient4414);stroke:none;stroke-width:13.96088309;stroke-linecap:round;stroke-linejoin:round;stroke-miterlimit:4;stroke-dasharray:none;stroke-opacity:1;fill-opacity:1;opacity:1"
     transform="matrix(0.07138146,0,0,0.07158959,33.848835,-25.314502)"
     id="g4395">
    <path
       style="color:#000000;fill:url(#linearGradient4414);stroke:none;stroke-width:13.96088314;stroke-linecap:round;stroke-linejoin:round;stroke-miterlimit:4;stroke-dasharray:none;stroke-opacity:1;fill-opacity:1"
       d="M 55.695312 0.5 L 55.673828 0.51171875 C 46.807537 0.51028696 34.506613 -0.2070188 34.498047 10.644531 L 34.498047 10.65625 L 34.498047 91.611328 A 50 110 0 0 0 64.058594 0.5078125 C 61.226454 0.50891253 58.189096 0.50573708 55.695312 0.5 z "
       transform="matrix(14.00924,0,0,13.968511,-474.19645,353.60591)"
       id="path4397" />
  </g>
</svg>
