/* XPM */
static char *top[] = {
/* columns rows colors chars-per-pixel */
"24 24 8 1",
"  c #000000",
". c #010101",
"X c #040404",
"o c #080808",
"O c #090909",
"+ c #101010",
"@ c #787878",
"# c None",
/* pixels */
"########################",
"########################",
"########################",
"########################",
"######            ######",
"######            ######",
"###########@@###########",
"###########  ###########",
"##########O  O##########",
"##########    ##########",
"#########      #########",
"########O      O########",
"########        ########",
"#######          #######",
"######+XX      XX+######",
"#########      #########",
"#########      #########",
"#########      #########",
"#########      #########",
"########################",
"########################",
"########################",
"########################",
"########################"
};
