<!-- Created with Inkscape (http://www.inkscape.org/) -->
<svg xmlns:dc="http://purl.org/dc/elements/1.1/" xmlns:cc="http://creativecommons.org/ns#" xmlns:rdf="http://www.w3.org/1999/02/22-rdf-syntax-ns#" xmlns:svg="http://www.w3.org/2000/svg" xmlns="http://www.w3.org/2000/svg" xmlns:xlink="http://www.w3.org/1999/xlink" xmlns:sodipodi="http://sodipodi.sourceforge.net/DTD/sodipodi-0.dtd" xmlns:inkscape="http://www.inkscape.org/namespaces/inkscape" width="48px" height="48px" id="svg18157" version="1.1" inkscape:version="0.48.4 r9939" sodipodi:docname="folder.svg">
  <defs id="defs18159">
    <linearGradient inkscape:collect="always" xlink:href="#linearGradient3454-2-5-0-3" id="linearGradient12489" gradientUnits="userSpaceOnUse" gradientTransform="matrix(0.89189031,0,0,1.0580283,3.1206609,5.3536023)" x1="42.470848" y1="11.952797" x2="42.470848" y2="35.581654"/>
    <linearGradient id="linearGradient3454-2-5-0-3">
      <stop offset="0" style="stop-color:#ffffff;stop-opacity:1" id="stop3456-4-9-38-1"/>
      <stop offset="0.0097359" style="stop-color:#ffffff;stop-opacity:0.23529412" id="stop3458-39-80-3-5"/>
      <stop offset="0.99001008" style="stop-color:#ffffff;stop-opacity:0.15686275" id="stop3460-7-0-2-4"/>
      <stop offset="1" style="stop-color:#ffffff;stop-opacity:0.39215687" id="stop3462-0-9-8-7"/>
    </linearGradient>
    <linearGradient inkscape:collect="always" xlink:href="#linearGradient6129-963-697-142-998-580-273-44-2-2" id="linearGradient12487" gradientUnits="userSpaceOnUse" gradientTransform="matrix(1.1446925,0,0,0.9977536,-3.4661379,1.0988397)" x1="22.934725" y1="49.629246" x2="22.809399" y2="36.657963"/>
    <linearGradient id="linearGradient6129-963-697-142-998-580-273-44-2-2">
      <stop id="stop2661-01-6-2" style="stop-color:#0a0a0a;stop-opacity:0.498" offset="0"/>
      <stop id="stop2663-64-5-5" style="stop-color:#0a0a0a;stop-opacity:0" offset="1"/>
    </linearGradient>
    <linearGradient inkscape:collect="always" xlink:href="#linearGradient4632-0-6-4" id="linearGradient12481" gradientUnits="userSpaceOnUse" gradientTransform="matrix(1,0,0,1.0357143,2.0849371e-6,-1.5890903)" x1="35.792694" y1="17.118193" x2="35.792694" y2="43.761127"/>
    <linearGradient id="linearGradient4632-0-6-4">
      <stop style="stop-color:#ceb79e;stop-opacity:1;" offset="0" id="stop4634-4-4-7"/>
      <stop style="stop-color:#7b4927;stop-opacity:1;" offset="1" id="stop4636-3-1-5"/>
    </linearGradient>
    <radialGradient inkscape:collect="always" xlink:href="#linearGradient5060-820-91-9-0" id="radialGradient12475" gradientUnits="userSpaceOnUse" gradientTransform="matrix(-0.03079083,0,0,0.02470588,23.389752,31.94164)" cx="605.71429" cy="486.64789" fx="605.71429" fy="486.64789" r="117.14286"/>
    <linearGradient id="linearGradient5060-820-91-9-0">
      <stop id="stop2681-778-5-1" style="stop-color:#000000;stop-opacity:1" offset="0"/>
      <stop id="stop2683-2-86-2" style="stop-color:#000000;stop-opacity:0" offset="1"/>
    </linearGradient>
    <radialGradient inkscape:collect="always" xlink:href="#linearGradient5060-179-37-4-0" id="radialGradient12471" gradientUnits="userSpaceOnUse" gradientTransform="matrix(0.03079083,0,0,0.02470588,24.610252,31.94164)" cx="605.71429" cy="486.64789" fx="605.71429" fy="486.64789" r="117.14286"/>
    <linearGradient id="linearGradient5060-179-37-4-0">
      <stop id="stop2675-91-9-2" style="stop-color:#000000;stop-opacity:1" offset="0"/>
      <stop id="stop2677-09-0-9" style="stop-color:#000000;stop-opacity:0" offset="1"/>
    </linearGradient>
    <linearGradient inkscape:collect="always" xlink:href="#linearGradient5048-585-73-1-5" id="linearGradient12467" gradientUnits="userSpaceOnUse" gradientTransform="matrix(0.07938856,0,0,0.02470588,-4.6932879,31.94164)" x1="302.85715" y1="366.64789" x2="302.85715" y2="609.50507"/>
    <linearGradient id="linearGradient5048-585-73-1-5">
      <stop id="stop2667-99-4-6" style="stop-color:#000000;stop-opacity:0" offset="0"/>
      <stop id="stop2669-5-9-4" style="stop-color:#000000;stop-opacity:1" offset="0.5"/>
      <stop id="stop2671-56-4-2" style="stop-color:#000000;stop-opacity:0" offset="1"/>
    </linearGradient>
    <linearGradient inkscape:collect="always" xlink:href="#linearGradient4507-0-4-7" id="linearGradient12463" gradientUnits="userSpaceOnUse" gradientTransform="matrix(0.89189031,0,0,1.0580283,3.1206621,5.3535997)" x1="21.37039" y1="4.2476678" x2="21.37039" y2="34.143417"/>
    <linearGradient id="linearGradient4507-0-4-7">
      <stop id="stop4509-35-6-1" style="stop-color:#ffffff;stop-opacity:1" offset="0"/>
      <stop id="stop4511-46-3-8" style="stop-color:#ffffff;stop-opacity:0.23529412" offset="0.07395859"/>
      <stop id="stop4513-15-5-9" style="stop-color:#ffffff;stop-opacity:0.15686275" offset="0.99001008"/>
      <stop id="stop4515-1-1-8" style="stop-color:#ffffff;stop-opacity:0.39215687" offset="1"/>
    </linearGradient>
    <linearGradient inkscape:collect="always" xlink:href="#linearGradient4646-7-4-3" id="linearGradient12459" gradientUnits="userSpaceOnUse" gradientTransform="translate(-50.940897,-3.1315613e-7)" x1="62.988873" y1="13" x2="62.988873" y2="16"/>
    <linearGradient id="linearGradient4646-7-4-3">
      <stop offset="0" style="stop-color:#f9f9f9;stop-opacity:1" id="stop4648-8-0-3"/>
      <stop offset="1" style="stop-color:#d8d8d8;stop-opacity:1" id="stop4650-1-7-3"/>
    </linearGradient>
    <linearGradient id="linearGradient3104-8-8-97-4-6-11-5-5">
      <stop offset="0" style="stop-color:#000000;stop-opacity:0.32173914" id="stop3106-5-4-3-5-0-2-1-0"/>
      <stop offset="1" style="stop-color:#000000;stop-opacity:0.27826086" id="stop3108-4-3-7-8-2-0-7-9"/>
    </linearGradient>
    <linearGradient y2="3.6336823" x2="-51.786404" y1="53.514328" x1="-51.786404" gradientTransform="matrix(0.80749834,0,0,0.83374395,106.87672,-0.06984031)" gradientUnits="userSpaceOnUse" id="linearGradient18155" xlink:href="#linearGradient3104-8-8-97-4-6-11-5-5" inkscape:collect="always"/>
    <linearGradient gradientUnits="userSpaceOnUse" y2="44.315739" x2="22.285715" y1="16.357342" x1="22.285715" id="linearGradient3841" xlink:href="#linearGradient7012-661-145-733-759-865-745" inkscape:collect="always"/>
    <linearGradient y2="93.653961" x2="-166.63983" y1="99.667191" x1="-172.65306" gradientTransform="translate(258.94136,-13.269885)" gradientUnits="userSpaceOnUse" id="linearGradient2674" xlink:href="#linearGradient11114" inkscape:collect="always"/>
    <linearGradient id="linearGradient11114">
      <stop style="stop-color:#242424;stop-opacity:0.99215686;" offset="0" id="stop11116"/>
      <stop style="stop-color:#656565;stop-opacity:1;" offset="1" id="stop11118"/>
    </linearGradient>
    <linearGradient y2="67.350082" x2="201.87128" y1="146.1507" x1="277.573" gradientTransform="translate(-127.09317,-2.645081)" gradientUnits="userSpaceOnUse" id="linearGradient2676" xlink:href="#linearGradient12093" inkscape:collect="always"/>
    <linearGradient inkscape:collect="always" id="linearGradient12093">
      <stop style="stop-color:#ffffff;stop-opacity:1;" offset="0" id="stop12095"/>
      <stop style="stop-color:#ffffff;stop-opacity:0;" offset="1" id="stop12097"/>
    </linearGradient>
    <filter inkscape:collect="always" id="filter13078">
      <feGaussianBlur inkscape:collect="always" stdDeviation="0.66072995" id="feGaussianBlur13080"/>
    </filter>
    <radialGradient r="8.3085051" fy="21.817987" fx="18.240929" cy="21.817987" cx="18.240929" gradientUnits="userSpaceOnUse" id="radialGradient2678" xlink:href="#linearGradient4454" inkscape:collect="always"/>
    <linearGradient id="linearGradient4454">
      <stop id="stop4456" offset="0" style="stop-color:#a1a1a1;stop-opacity:0.20784314;"/>
      <stop id="stop4458" offset="1" style="stop-color:#a1a1a1;stop-opacity:0.67843139;"/>
    </linearGradient>
    <radialGradient r="6.65625" fy="13.078408" fx="15.414371" cy="13.078408" cx="15.414371" gradientTransform="matrix(2.0709796,0,0,1.6093623,-75.801052,-6.777836)" gradientUnits="userSpaceOnUse" id="radialGradient2680" xlink:href="#linearGradient4467" inkscape:collect="always"/>
    <linearGradient id="linearGradient4467">
      <stop id="stop4469" offset="0" style="stop-color:#ffffff;stop-opacity:1;"/>
      <stop id="stop4471" offset="1.0000000" style="stop-color:#ffffff;stop-opacity:0.24761905;"/>
    </linearGradient>
    <linearGradient y2="11.949074" x2="173.09576" y1="75.31868" x1="173.09576" gradientTransform="matrix(0.272289,0,0,0.272289,-88.49468,7.5340783)" gradientUnits="userSpaceOnUse" id="linearGradient2682" xlink:href="#linearGradient2300" inkscape:collect="always"/>
    <linearGradient id="linearGradient2300">
      <stop style="stop-color:#343435;stop-opacity:0.97647059" offset="0" id="stop2302"/>
      <stop style="stop-color:#919295;stop-opacity:1" offset="1" id="stop2304"/>
    </linearGradient>
    <linearGradient y2="4.5362983" x2="41.485142" y1="68.291702" x1="41.541653" gradientTransform="matrix(0.272289,0,0,0.272289,-53.175758,9.5832993)" gradientUnits="userSpaceOnUse" id="linearGradient2684" xlink:href="#linearGradient11104" inkscape:collect="always"/>
    <linearGradient id="linearGradient11104">
      <stop style="stop-color:#333333;stop-opacity:1;" offset="0" id="stop11106"/>
      <stop style="stop-color:#333333;stop-opacity:0.6122449;" offset="1" id="stop11108"/>
    </linearGradient>
    <linearGradient y2="11.949074" x2="173.09576" y1="75.31868" x1="173.09576" gradientTransform="matrix(0.9523505,0,0,0.9523505,-117.1021,-1.9494324)" gradientUnits="userSpaceOnUse" id="linearGradient2686" xlink:href="#linearGradient6209" inkscape:collect="always"/>
    <linearGradient id="linearGradient6209">
      <stop id="stop6211" offset="0" style="stop-color:#96979b;stop-opacity:1"/>
      <stop id="stop6213" offset="1" style="stop-color:#000000;stop-opacity:0.34117648"/>
    </linearGradient>
    <filter inkscape:collect="always" id="filter10131">
      <feGaussianBlur inkscape:collect="always" stdDeviation="0.31195313" id="feGaussianBlur10133"/>
    </filter>
    <linearGradient y2="33.95525" x2="15.214532" y1="22.292103" x1="11.566265" gradientUnits="userSpaceOnUse" id="linearGradient3466" xlink:href="#linearGradient8265-821-176-38-919-66-249" inkscape:collect="always"/>
    <linearGradient inkscape:collect="always" id="linearGradient8265-821-176-38-919-66-249">
      <stop style="stop-color:#ffffff;stop-opacity:1;" offset="0" id="stop2687"/>
      <stop style="stop-color:#ffffff;stop-opacity:0;" offset="1" id="stop2689"/>
    </linearGradient>
    <radialGradient r="20.979567" fy="8.3021259" fx="7.2646537" cy="8.3021259" cx="7.2646537" gradientTransform="matrix(0,1.2079744,-1.6271642,0,26.371748,8.2664685)" gradientUnits="userSpaceOnUse" id="radialGradient2442-940-759" xlink:href="#linearGradient6087-437-184-795-110-662-495" inkscape:collect="always"/>
    <linearGradient id="linearGradient6087-437-184-795-110-662-495">
      <stop style="stop-color:#ffffff;stop-opacity:1;" offset="0" id="stop2693"/>
      <stop style="stop-color:#ffffff;stop-opacity:0;" offset="1" id="stop2695"/>
    </linearGradient>
    <linearGradient y2="36.657963" x2="22.809399" y1="49.629246" x1="22.934725" gradientTransform="matrix(1.1446925,0,0,0.9977536,-3.4661413,1.0988425)" gradientUnits="userSpaceOnUse" id="linearGradient6462-657-405" xlink:href="#linearGradient6129-963-697-142-998-580-273" inkscape:collect="always"/>
    <linearGradient inkscape:collect="always" id="linearGradient6129-963-697-142-998-580-273">
      <stop style="stop-color:#0a0a0a;stop-opacity:0.498" offset="0" id="stop2661"/>
      <stop style="stop-color:#0a0a0a;stop-opacity:0;" offset="1" id="stop2663"/>
    </linearGradient>
    <linearGradient id="linearGradient7012-661-145-733-759-865-745">
      <stop style="stop-color:#aacb7d;stop-opacity:1;" offset="0" id="stop2699"/>
      <stop style="stop-color:#709937;stop-opacity:1;" offset="1" id="stop2701"/>
    </linearGradient>
    <linearGradient gradientTransform="translate(-53.765393,-0.1141929)" gradientUnits="userSpaceOnUse" y2="15.943953" x2="65.340263" y1="45.114193" x1="82.453476" id="linearGradient3412" xlink:href="#linearGradient3390" inkscape:collect="always"/>
    <linearGradient id="linearGradient3390" inkscape:collect="always">
      <stop id="stop3392" offset="0" style="stop-color:#51751e;stop-opacity:1"/>
      <stop id="stop3394" offset="1" style="stop-color:#51751e;stop-opacity:1"/>
    </linearGradient>
    <linearGradient y2="609.50507" x2="302.85715" y1="366.64789" x1="302.85715" gradientTransform="matrix(8.2840237e-2,0,0,3.7058823e-2,-5.9408285,25.412461)" gradientUnits="userSpaceOnUse" id="linearGradient7596-975" xlink:href="#linearGradient5048-585" inkscape:collect="always"/>
    <linearGradient id="linearGradient5048-585">
      <stop style="stop-color:#000000;stop-opacity:0;" offset="0" id="stop2667"/>
      <stop id="stop2669" offset="0.5" style="stop-color:#000000;stop-opacity:1;"/>
      <stop style="stop-color:#000000;stop-opacity:0;" offset="1" id="stop2671"/>
    </linearGradient>
    <radialGradient r="117.14286" fy="486.64789" fx="605.71429" cy="486.64789" cx="605.71429" gradientTransform="matrix(3.2129565e-2,0,0,3.7058823e-2,24.636785,25.412461)" gradientUnits="userSpaceOnUse" id="radialGradient7598-526" xlink:href="#linearGradient5060-179" inkscape:collect="always"/>
    <linearGradient inkscape:collect="always" id="linearGradient5060-179">
      <stop style="stop-color:#000000;stop-opacity:1;" offset="0" id="stop2675"/>
      <stop style="stop-color:#000000;stop-opacity:0;" offset="1" id="stop2677"/>
    </linearGradient>
    <radialGradient r="117.14286" fy="486.64789" fx="605.71429" cy="486.64789" cx="605.71429" gradientTransform="matrix(-3.2129558e-2,0,0,3.7058823e-2,23.363215,25.412461)" gradientUnits="userSpaceOnUse" id="radialGradient7600-312" xlink:href="#linearGradient5060-820" inkscape:collect="always"/>
    <linearGradient inkscape:collect="always" id="linearGradient5060-820">
      <stop style="stop-color:#000000;stop-opacity:1;" offset="0" id="stop2681"/>
      <stop style="stop-color:#000000;stop-opacity:0;" offset="1" id="stop2683"/>
    </linearGradient>
    <linearGradient gradientTransform="translate(-50.940898,0)" gradientUnits="userSpaceOnUse" y2="16.19013" x2="62.988873" y1="13.182598" x1="62.988873" id="linearGradient3482" xlink:href="#linearGradient6404" inkscape:collect="always"/>
    <linearGradient id="linearGradient6404">
      <stop id="stop6406" offset="0" style="stop-color:#f9f9f9;stop-opacity:1;"/>
      <stop id="stop6408" offset="1" style="stop-color:#c9c9c9;stop-opacity:1;"/>
    </linearGradient>
    <radialGradient r="21" fy="5.01718" fx="3" cy="5.01718" cx="3" gradientTransform="matrix(-1.274898e-8,1.7142916,-2.159331,-1.4599595e-8,12.809361,2.8570011)" gradientUnits="userSpaceOnUse" id="radialGradient3470" xlink:href="#linearGradient3484" inkscape:collect="always"/>
    <linearGradient id="linearGradient3484">
      <stop style="stop-color:#bdbdbd;stop-opacity:1" offset="0" id="stop3486"/>
      <stop style="stop-color:#d0d0d0;stop-opacity:1" offset="1" id="stop3488"/>
    </linearGradient>
  </defs>
  <sodipodi:namedview id="base" pagecolor="#ffffff" bordercolor="#666666" borderopacity="1.0" inkscape:pageopacity="0.0" inkscape:pageshadow="2" inkscape:zoom="7" inkscape:cx="1.9285714" inkscape:cy="18.285714" inkscape:current-layer="layer1" showgrid="true" inkscape:grid-bbox="true" inkscape:document-units="px" inkscape:window-width="738" inkscape:window-height="414" inkscape:window-x="31" inkscape:window-y="246" inkscape:window-maximized="0"/>
  <metadata id="metadata18162">
    <rdf:RDF>
      <cc:Work rdf:about="">
        <dc:format>image/svg+xml</dc:format>
        <dc:type rdf:resource="http://purl.org/dc/dcmitype/StillImage"/>
        <dc:title/>
      </cc:Work>
    </rdf:RDF>
  </metadata>
  <g id="layer1" inkscape:label="Layer 1" inkscape:groupmode="layer">
    <path inkscape:connector-curvature="0" style="opacity:0.8;color:#000000;fill:none;stroke:url(#linearGradient18155);stroke-width:1;stroke-linecap:butt;stroke-linejoin:miter;stroke-miterlimit:4;stroke-opacity:1;stroke-dasharray:none;stroke-dashoffset:0;marker:none;visibility:visible;display:inline;overflow:visible;enable-background:accumulate" d="m 5.5000021,8.4999997 c -0.554,0 -1,0.446 -1,1 l 0,2.0000003 -1,0 c -0.554,0 -1,0.446 -1,1 l 0,6 c 0,0.554 0.446,1 1,1 l 40.9999999,0 c 0.554,0 1,-0.446 1,-1 l 0,-6 c 0,-0.554 -0.446,-1 -1,-1 l -23,0 0,-2.0000003 c 0,-0.554 -0.446,-1 -1,-1 l -14.9999999,0 z" id="rect4251-0-0-61"/>
    <path style="color:#000000;fill:url(#linearGradient12459);fill-opacity:1;fill-rule:nonzero;stroke:none;stroke-width:0.99992168;marker:none;visibility:visible;display:inline;overflow:visible;enable-background:accumulate" d="m 5.5000021,8.9999997 c -0.277,0 -0.5,0.223 -0.5,0.5 l 0,2.5000003 -1.5,0 c -0.277,0 -0.5,0.223 -0.5,0.5 l 0,6 c 0,0.277 0.223,0.5 0.5,0.5 l 40.9999999,0 c 0.277,0 0.5,-0.223 0.5,-0.5 l 0,-6 c 0,-0.277 -0.223,-0.5 -0.5,-0.5 l -23.5,0 0,-2.5000003 c 0,-0.277 -0.223,-0.5 -0.5,-0.5 l -14.9999999,0 z" id="rect4251-3-2" inkscape:connector-curvature="0"/>
    <path style="color:#000000;fill:none;stroke:url(#linearGradient12463);stroke-width:1;stroke-linecap:round;stroke-linejoin:round;stroke-miterlimit:4;stroke-opacity:1;stroke-dasharray:none;stroke-dashoffset:0;marker:none;visibility:visible;display:inline;overflow:visible;enable-background:accumulate" d="m 5.5000021,9.4999997 0,3.0000003 -2,0 0,7 40.9999999,0 0,-7 -24,0 0,-3.0000003 -14.9999999,0 z" id="rect4251-9-21-7" inkscape:connector-curvature="0"/>
    <rect style="opacity:0.3;fill:url(#linearGradient12467);fill-opacity:1;fill-rule:nonzero;stroke:none;stroke-width:1;marker:none;visibility:visible;display:inline;overflow:visible" id="rect4173-8-8" y="41" x="4.8333426" height="6.0000005" width="38.333332"/>
    <path style="opacity:0.3;fill:url(#radialGradient12471);fill-opacity:1;fill-rule:nonzero;stroke:none;stroke-width:1;marker:none;visibility:visible;display:inline;overflow:visible" id="path5058-9-0" inkscape:connector-curvature="0" d="m 43.166672,41.00021 c 0,0 0,5.99967 0,5.99967 1.58565,0.0113 3.83333,-1.34422 3.83333,-3.00022 0,-1.656 -1.76947,-2.99945 -3.83333,-2.99945 z"/>
    <path style="opacity:0.3;fill:url(#radialGradient12475);fill-opacity:1;fill-rule:nonzero;stroke:none;stroke-width:1;marker:none;visibility:visible;display:inline;overflow:visible" id="path5018-6-6" inkscape:connector-curvature="0" d="m 4.8333321,41.00021 c 0,0 0,5.99967 0,5.99967 -1.58565,0.0113 -3.83333,-1.34422 -3.83333,-3.00022 0,-1.656 1.76947,-2.99945 3.83333,-2.99945 z"/>
    <path style="fill:url(#linearGradient12481);fill-opacity:1;stroke:none" id="path3388-7-1" inkscape:connector-curvature="0" d="m 2.1626121,15.50019 c -1.07231,0.12829 -0.49959,1.45416 -0.58508,2.19974 0.12444,0.48182 0.92748,26.17643 0.92748,26.17643 0,0.7414 0.35172,0.61579 1.24292,0.61579 13.1885599,0 27.7725299,0 40.9610899,0 0.96008,0.0231 0.75718,0.0121 0.75718,-0.62748 0,0 0.99298,-27.35421 1.0285,-27.7811 0,-0.44949 0.0902,-0.58338 -0.47316,-0.58338 -14.08405,0 -29.77488,0 -43.8589299,0 z" sodipodi:nodetypes="ccsscccsc"/>
    <path style="opacity:0.4;fill:url(#linearGradient12487);fill-opacity:1;stroke:none" id="path6127-1-4" inkscape:connector-curvature="0" d="m 2.0582421,16.06515 43.8964799,4e-4 c 0.63416,0 1.04515,0.44461 1.04515,0.99737 l -1.03241,26.96037 c 0.0147,0.6994 -0.20909,0.97671 -0.9459,0.96204 L 3.2408421,44.96773 c -0.63416,0 -1.27363,-0.41277 -1.27363,-0.96552 L 1.0130921,17.0629 c 0,-0.55276 0.41099,-0.99775 1.04515,-0.99775 z"/>
    <path sodipodi:type="inkscape:offset" inkscape:radius="-1.0151105" inkscape:original="M 2.15625 16.5 C 1.0839484 16.623862 1.6479947 17.905133 1.5625 18.625 C 1.6869357 19.090206 2.5 43.90625 2.5 43.90625 C 2.5 44.622082 2.8587963 44.5 3.75 44.5 L 44.71875 44.5 C 45.67883 44.52232 45.46875 44.492483 45.46875 43.875 C 45.46875 43.875 46.464479 17.474672 46.5 17.0625 C 46.5 16.628509 46.594572 16.5 46.03125 16.5 L 2.15625 16.5 z " style="opacity:0.5;color:#000000;fill:none;stroke:url(#linearGradient12489);stroke-width:0.98133707;stroke-linecap:round;stroke-linejoin:miter;stroke-miterlimit:4;stroke-opacity:1;stroke-dasharray:none;stroke-dashoffset:0;marker:none;visibility:visible;display:inline;overflow:visible;enable-background:accumulate" id="path4587-3-5" d="m 2.5,17.5 c 0.016793,0.176427 0.022163,0.517935 0.03125,0.875 0.023112,0.08641 0.025524,0.05923 0.03125,0.09375 0.011058,0.06665 0.027034,0.138257 0.03125,0.1875 0.0064,0.07474 -0.00668,0.173042 0,0.28125 0.013352,0.216416 0.045306,0.510844 0.0625,0.875 0.034388,0.728313 0.078083,1.708883 0.125,2.90625 0.093834,2.394734 0.2030642,5.55569 0.3125,8.6875 C 3.3060459,37.481691 3.4883163,43.143759 3.5,43.5 c 0.1225025,0.0036 0.071108,0 0.25,0 l 40.71875,0 c 0.0124,-0.328836 0.253182,-6.426721 0.5,-12.90625 0.126691,-3.325928 0.245386,-6.68527 0.34375,-9.21875 0.04918,-1.26674 0.09434,-2.331501 0.125,-3.09375 0.01322,-0.328618 0.02246,-0.572975 0.03125,-0.78125 L 2.5,17.5 z" transform="matrix(1,0,0,1.0383977,0.02211208,-1.6719603)"/>
    <path style="opacity:0.3;fill:none;stroke:#000000;stroke-width:1;stroke-linecap:round;stroke-linejoin:round;stroke-miterlimit:4;stroke-opacity:1;stroke-dashoffset:0" id="path3388-7-1-7" inkscape:connector-curvature="0" d="m 2.1626121,15.50019 c -1.07231,0.12829 -0.49959,1.45416 -0.58508,2.19974 0.12444,0.48182 0.92748,26.17643 0.92748,26.17643 0,0.7414 0.35172,0.61579 1.24292,0.61579 13.1885599,0 27.7725299,0 40.9610899,0 0.96008,0.0231 0.75718,0.0121 0.75718,-0.62748 0,0 0.99298,-27.35421 1.0285,-27.7811 0,-0.44949 0.0902,-0.58338 -0.47316,-0.58338 -14.08405,0 -29.77488,0 -43.8589299,0 z" sodipodi:nodetypes="ccsscccsc"/>
    <g inkscape:label="Layer 1" id="layer1-8" transform="translate(-4.9604732e-7,-1.1312482e-4)">
      <g transform="translate(69.543475,8.4999)" id="g2664">
        <g transform="matrix(0.272289,0,0,0.272289,-54.190059,8.0618533)" id="g20913">
          <path style="fill:url(#linearGradient2674);fill-opacity:1;fill-rule:evenodd;stroke:#333333;stroke-width:1px;stroke-linecap:round;stroke-linejoin:round;stroke-opacity:1" d="m 73.007297,61.163396 44.712723,41.613814 -6.19781,8.41129 -44.550783,-45.015017 6.03587,-5.010087 z" id="path11112" sodipodi:nodetypes="ccccc" inkscape:connector-curvature="0"/>
          <path style="fill:url(#linearGradient2676);fill-opacity:1;fill-rule:evenodd;stroke:none;filter:url(#filter13078)" d="M 110.63681,109.41771 74.7781,64.704998 l 43.38462,38.072212 -7.52591,6.6405 z" id="path11122" inkscape:connector-curvature="0"/>
          <path sodipodi:type="arc" style="fill:#3e3e3e;fill-opacity:1;stroke:none" id="path13082" sodipodi:cx="243.04239" sodipodi:cy="110.29199" sodipodi:rx="5.3124018" sodipodi:ry="2.6562009" d="m 248.35479,110.29199 c 0,1.46698 -2.37844,2.6562 -5.3124,2.6562 -2.93396,0 -5.3124,-1.18922 -5.3124,-2.6562 0,-1.46698 2.37844,-2.6562 5.3124,-2.6562 2.93396,0 5.3124,1.18922 5.3124,2.6562 z" transform="matrix(0.7127002,-0.7965472,0.7965472,0.7127002,-146.21519,222.13969)"/>
        </g>
        <path sodipodi:type="arc" style="fill:url(#radialGradient2678);fill-opacity:1;fill-rule:evenodd;stroke:none;stroke-width:1.07456946;marker:none;visibility:visible" id="path4452" sodipodi:cx="17.589281" sodipodi:cy="18.478292" sodipodi:rx="8.3085051" sodipodi:ry="8.3085051" d="m 25.897786,18.478292 c 0,4.588661 -3.719844,8.308506 -8.308505,8.308506 -4.588661,0 -8.308505,-3.719845 -8.308505,-8.308506 0,-4.58866 3.719844,-8.308505 8.308505,-8.308505 4.588661,0 8.308505,3.719845 8.308505,8.308505 z" transform="matrix(1.0040995,0,0,0.9796836,-58.601963,0.9474585)"/>
        <path style="opacity:0.6;fill:url(#radialGradient2680);fill-opacity:1;fill-rule:evenodd;stroke:none;stroke-width:1;marker:none;visibility:visible;display:inline;overflow:visible" d="m -41.284234,12.043182 c -4.159261,0 -7.527314,3.013454 -7.527314,6.734818 0,1.074746 0.335699,2.063614 0.836368,2.965537 1.000266,0.32987 2.06283,0.554306 3.19059,0.554306 4.928695,0 8.864912,-3.474145 9.169073,-7.815715 -1.382507,-1.461745 -3.362525,-2.438946 -5.668717,-2.438946 z" id="path4462" inkscape:connector-curvature="0"/>
        <path id="path2298" d="m -41.123977,10.922062 c -5.123534,0 -9.283356,3.835788 -9.283353,8.560086 0,4.724296 4.159819,8.560084 9.283353,8.560085 5.123531,0 9.283353,-3.835789 9.283353,-8.560085 0,-4.724298 -4.159819,-8.560086 -9.283353,-8.560086 z m 0.110617,0.561596 c 4.585595,0 8.313324,3.429852 8.313324,7.658128 0,4.228276 -3.727729,7.658128 -8.313324,7.658128 -4.585597,10e-7 -8.304814,-3.429851 -8.304814,-7.658128 0,-4.228276 3.719217,-7.658128 8.304814,-7.658128 z" style="fill:url(#linearGradient2682);fill-opacity:1;stroke:url(#linearGradient2684);stroke-width:0.27228901;stroke-linecap:round;stroke-linejoin:round;stroke-miterlimit:4;stroke-opacity:1;stroke-dasharray:none" inkscape:connector-curvature="0"/>
        <path id="path4267" d="m 48.577332,9.920532 c -17.91993,0 -32.4375,13.413928 -32.4375,29.937501 0,16.523571 14.51756,29.937502 32.4375,29.9375 17.91993,0 32.46875,-13.413931 32.46875,-29.9375 0,-16.523572 -14.54883,-29.937501 -32.46875,-29.937501 z m 0.1875,1.15625 c 16.84091,0 30.53125,12.596366 30.53125,28.125001 0,15.528632 -13.69034,28.125 -30.53125,28.125 -16.84092,2e-6 -30.5,-12.596366 -30.5,-28.125 0,-15.528635 13.65908,-28.125001 30.5,-28.125001 z" style="fill:url(#linearGradient2686);fill-opacity:1;stroke:none;display:inline;filter:url(#filter10131)" transform="matrix(0.272289,0,0,0.272289,-54.291487,8.4675723)" inkscape:connector-curvature="0"/>
      </g>
    </g>
  </g>
</svg>
