<?xml version="1.0" encoding="UTF-8" standalone="no"?>
<!-- Created with Inkscape (http://www.inkscape.org/) -->

<svg
   xmlns:svg="http://www.w3.org/2000/svg"
   xmlns="http://www.w3.org/2000/svg"
   xmlns:xlink="http://www.w3.org/1999/xlink"
   version="1.0"
   width="96"
   height="96"
   id="svg2408"
   style="display:inline">
  <defs
     id="defs2410">
    <linearGradient
       x1="45.447727"
       y1="92.539597"
       x2="45.447727"
       y2="7.0165396"
       id="ButtonShadow"
       gradientUnits="userSpaceOnUse"
       gradientTransform="scale(1.0058652,0.994169)">
      <stop
         id="stop3750"
         style="stop-color:#000000;stop-opacity:1"
         offset="0" />
      <stop
         id="stop3752"
         style="stop-color:#000000;stop-opacity:0.58823532"
         offset="1" />
    </linearGradient>
    <linearGradient
       id="linearGradient3700">
      <stop
         id="stop3702"
         style="stop-color:#e6e6e6;stop-opacity:1"
         offset="0" />
      <stop
         id="stop3704"
         style="stop-color:#f5f5f5;stop-opacity:1"
         offset="1" />
    </linearGradient>
    <linearGradient
       x1="48"
       y1="90"
       x2="48"
       y2="5.9877172"
       id="linearGradient3706"
       xlink:href="#linearGradient3700"
       gradientUnits="userSpaceOnUse" />
    <filter
       color-interpolation-filters="sRGB"
       id="filter3174">
      <feGaussianBlur
         id="feGaussianBlur3176"
         stdDeviation="1.71" />
    </filter>
    <linearGradient
       x1="45.447727"
       y1="92.539597"
       x2="45.447727"
       y2="7.0165396"
       id="ButtonShadow-0"
       gradientUnits="userSpaceOnUse"
       gradientTransform="matrix(1.0058652,0,0,0.994169,100,0)">
      <stop
         id="stop3750-8"
         style="stop-color:#000000;stop-opacity:1"
         offset="0" />
      <stop
         id="stop3752-5"
         style="stop-color:#000000;stop-opacity:0.58823532"
         offset="1" />
    </linearGradient>
    <linearGradient
       x1="32.251034"
       y1="6.1317081"
       x2="32.251034"
       y2="90.238609"
       id="linearGradient3780"
       xlink:href="#ButtonShadow-0"
       gradientUnits="userSpaceOnUse"
       gradientTransform="matrix(1.0238095,0,0,1.0119048,-1.1428571,-98.071429)" />
    <linearGradient
       x1="32.251034"
       y1="6.1317081"
       x2="32.251034"
       y2="90.238609"
       id="linearGradient3772"
       xlink:href="#ButtonShadow-0"
       gradientUnits="userSpaceOnUse"
       gradientTransform="matrix(1.0238095,0,0,1.0119048,-1.1428571,-98.071429)" />
    <linearGradient
       x1="32.251034"
       y1="6.1317081"
       x2="32.251034"
       y2="90.238609"
       id="linearGradient3725"
       xlink:href="#ButtonShadow-0"
       gradientUnits="userSpaceOnUse"
       gradientTransform="matrix(1.0238095,0,0,1.0119048,-1.1428571,-98.071429)" />
    <linearGradient
       x1="32.251034"
       y1="6.1317081"
       x2="32.251034"
       y2="90.238609"
       id="linearGradient3721"
       xlink:href="#ButtonShadow-0"
       gradientUnits="userSpaceOnUse"
       gradientTransform="translate(0,-97)" />
    <linearGradient
       x1="32.251034"
       y1="6.1317081"
       x2="32.251034"
       y2="90.238609"
       id="linearGradient3760"
       xlink:href="#ButtonShadow-0"
       gradientUnits="userSpaceOnUse"
       gradientTransform="matrix(1.0238095,0,0,1.0119048,-1.1428571,-98.071429)" />
    <linearGradient
       id="linearGradient3737-1">
      <stop
         id="stop3739-9"
         style="stop-color:#ffffff;stop-opacity:1"
         offset="0" />
      <stop
         id="stop3741-3"
         style="stop-color:#ffffff;stop-opacity:0"
         offset="1" />
    </linearGradient>
    <radialGradient
       cx="48"
       cy="90.171875"
       r="42"
       fx="48"
       fy="90.171875"
       id="radialGradient2886"
       xlink:href="#linearGradient3737-0"
       gradientUnits="userSpaceOnUse"
       gradientTransform="matrix(1.1573129,0,0,0.99590774,-7.551021,0.1971319)" />
    <linearGradient
       id="linearGradient3737-0">
      <stop
         id="stop3739-6"
         style="stop-color:#ffffff;stop-opacity:1"
         offset="0" />
      <stop
         id="stop3741-0"
         style="stop-color:#ffffff;stop-opacity:0"
         offset="1" />
    </linearGradient>
    <linearGradient
       x1="36.357143"
       y1="6"
       x2="36.357143"
       y2="63.893143"
       id="linearGradient3923"
       xlink:href="#linearGradient3737-1"
       gradientUnits="userSpaceOnUse" />
    <linearGradient
       id="linearGradient3697">
      <stop
         id="stop3699"
         style="stop-color:#bababa;stop-opacity:1"
         offset="0" />
      <stop
         id="stop3701"
         style="stop-color:#d2d2d2;stop-opacity:1"
         offset="1" />
    </linearGradient>
    <linearGradient
       x1="56"
       y1="72"
       x2="56"
       y2="24"
       id="linearGradient3713"
       xlink:href="#linearGradient3697"
       gradientUnits="userSpaceOnUse" />
    <clipPath
       id="clipPath3743">
      <path
         d="m -88,6 c -3.324,0 -6,2.676 -6,6 l 0,72 c 0,3.324 2.676,6 6,6 l 72,0 c 3.324,0 6,-2.676 6,-6 l 0,-72 c 0,-3.324 -2.676,-6 -6,-6 l -72,0 z m 36,18 c 5.344692,0 9.687507,3.992831 9.6875,8.9375 -0.02133,0.621424 -0.07398,1.335406 -0.125,2.0625 0.730245,0.543315 0.778989,2.170384 0.0625,3.84375 -0.258603,0.603976 -0.555928,1.075565 -0.90625,1.5 -0.113311,0.524949 -0.197851,0.951157 -0.34375,1.5625 -0.396974,1.180487 -1.938671,3.498551 -3.125,5.3125 -0.07646,1.206398 -0.0877,2.400163 0.0625,3.625 3.709677,3.197549 13.39093,4.950832 13.40625,7.6875 L -32,66.84375 c 0,1.679322 -2.544846,3.197858 -6.53125,4.25 l -0.6875,2.375 A 1.4052899,1.3929762 0 0 1 -40.0625,74.375 c -0.18137,0.06953 -0.315419,0.200704 -0.8125,0.34375 C -43.493482,75.472297 -47.516862,76 -52,76 c -4.483138,0 -8.475268,-0.527703 -11.09375,-1.28125 -0.497081,-0.143046 -0.631128,-0.27418 -0.8125,-0.34375 a 1.4052899,1.3929762 0 0 1 -0.875,-0.9375 l -0.5625,-2.28125 C -69.429991,70.102441 -72,68.547059 -72,66.84375 l 1.28125,-8.3125 c -0.0144,-3.197542 9.588017,-4.598837 13.34375,-7.6875 0.261803,-1.513002 0.255123,-2.826115 0.125,-4.15625 -1.304823,-1.724246 -2.766418,-3.714925 -3.125,-4.78125 -0.11575,-0.525153 -0.18554,-0.878183 -0.28125,-1.34375 -0.01345,-0.01457 -0.04914,-0.04755 -0.0625,-0.0625 -0.400969,-0.447139 -0.802819,-0.976777 -1.09375,-1.65625 -0.754478,-1.762097 -0.627089,-3.521792 0.21875,-3.96875 -0.05944,-0.70484 -0.08077,-1.339582 -0.09375,-1.90625 C -61.6875,28.02408 -57.344692,24 -52,24 z"
         id="path3745"
         style="fill:#ff00ff;fill-opacity:1;fill-rule:nonzero;stroke:none" />
    </clipPath>
    <filter
       x="-0.16559999"
       y="-0.12738462"
       width="1.3312"
       height="1.2547692"
       color-interpolation-filters="sRGB"
       id="filter3747">
      <feGaussianBlur
         id="feGaussianBlur3749"
         stdDeviation="2.7599998" />
    </filter>
    <linearGradient
       id="linearGradient3737-9">
      <stop
         id="stop3739-2"
         style="stop-color:#ffffff;stop-opacity:1"
         offset="0" />
      <stop
         id="stop3741-1"
         style="stop-color:#ffffff;stop-opacity:0"
         offset="1" />
    </linearGradient>
    <clipPath
       id="clipPath3613">
      <rect
         width="84"
         height="84"
         rx="6"
         ry="6"
         x="6"
         y="6"
         id="rect3615"
         style="fill:#ffffff;fill-opacity:1;fill-rule:nonzero;stroke:none" />
    </clipPath>
    <filter
       x="-0.192"
       y="-0.192"
       width="1.3839999"
       height="1.3839999"
       color-interpolation-filters="sRGB"
       id="filter3794">
      <feGaussianBlur
         id="feGaussianBlur3796"
         stdDeviation="5.28" />
    </filter>
    <linearGradient
       x1="48"
       y1="20.220806"
       x2="48"
       y2="138.66119"
       id="linearGradient4052"
       xlink:href="#linearGradient3737-9"
       gradientUnits="userSpaceOnUse" />
  </defs>
  <g
     id="layer2"
     style="display:none">
    <rect
       width="86"
       height="85"
       rx="6"
       ry="6"
       x="5"
       y="7"
       id="rect3745"
       style="opacity:0.9;fill:url(#ButtonShadow);fill-opacity:1;fill-rule:nonzero;stroke:none;filter:url(#filter3174)" />
  </g>
  <g
     id="layer6"
     style="display:inline">
    <path
       d="m 12,-95.03125 c -5.5110903,0 -10.03125,4.52016 -10.03125,10.03125 l 0,71 c 0,5.5110902 4.5201598,10.03125 10.03125,10.03125 l 72,0 c 5.51109,0 10.03125,-4.5201597 10.03125,-10.03125 l 0,-71 c 0,-5.51109 -4.52016,-10.03125 -10.03125,-10.03125 l -72,0 z"
       transform="scale(1,-1)"
       id="path3786"
       style="opacity:0.07999998;fill:url(#linearGradient3760);fill-opacity:1;fill-rule:nonzero;stroke:none;display:inline" />
    <path
       d="m 12,-94.03125 c -4.971633,0 -9.03125,4.059617 -9.03125,9.03125 l 0,71 c 0,4.9716329 4.0596171,9.03125 9.03125,9.03125 l 72,0 c 4.971633,0 9.03125,-4.059617 9.03125,-9.03125 l 0,-71 c 0,-4.971633 -4.059617,-9.03125 -9.03125,-9.03125 l -72,0 z"
       transform="scale(1,-1)"
       id="path3778"
       style="opacity:0.1;fill:url(#linearGradient3780);fill-opacity:1;fill-rule:nonzero;stroke:none;display:inline" />
    <path
       d="m 12,-93 c -4.4091333,0 -8,3.590867 -8,8 l 0,71 c 0,4.4091333 3.5908667,8 8,8 l 72,0 c 4.409133,0 8,-3.5908667 8,-8 l 0,-71 c 0,-4.409133 -3.590867,-8 -8,-8 l -72,0 z"
       transform="scale(1,-1)"
       id="path3770"
       style="opacity:0.2;fill:url(#linearGradient3772);fill-opacity:1;fill-rule:nonzero;stroke:none;display:inline" />
    <rect
       width="86"
       height="85"
       rx="7"
       ry="7"
       x="5"
       y="-92"
       transform="scale(1,-1)"
       id="rect3723"
       style="opacity:0.3;fill:url(#linearGradient3725);fill-opacity:1;fill-rule:nonzero;stroke:none;display:inline" />
    <rect
       width="84"
       height="84"
       rx="6"
       ry="6"
       x="6"
       y="-91"
       transform="scale(1,-1)"
       id="rect3716"
       style="opacity:0.45;fill:url(#linearGradient3721);fill-opacity:1;fill-rule:nonzero;stroke:none;display:inline" />
  </g>
  <g
     id="layer1"
     style="display:inline">
    <rect
       width="84"
       height="84"
       rx="6"
       ry="6"
       x="6"
       y="6"
       id="rect2419"
       style="fill:url(#linearGradient3706);fill-opacity:1;fill-rule:nonzero;stroke:none" />
    <path
       d="M 12,6 C 8.676,6 6,8.676 6,12 l 0,2 0,68 0,2 c 0,0.334721 0.04135,0.6507 0.09375,0.96875 0.0487,0.295596 0.09704,0.596915 0.1875,0.875 0.0099,0.03038 0.02089,0.0636 0.03125,0.09375 0.09886,0.287771 0.23488,0.547452 0.375,0.8125 0.144592,0.273507 0.315616,0.535615 0.5,0.78125 0.184384,0.245635 0.373776,0.473472 0.59375,0.6875 0.439947,0.428056 0.94291,0.814526 1.5,1.09375 0.278545,0.139612 0.573473,0.246947 0.875,0.34375 -0.256202,-0.100222 -0.486711,-0.236272 -0.71875,-0.375 -0.0074,-0.0044 -0.02387,0.0045 -0.03125,0 -0.03193,-0.0193 -0.06229,-0.04251 -0.09375,-0.0625 -0.120395,-0.0767 -0.231023,-0.163513 -0.34375,-0.25 -0.106173,-0.0808 -0.213281,-0.161112 -0.3125,-0.25 C 8.47832,88.557317 8.30879,88.373362 8.15625,88.1875 8.048671,88.057245 7.937856,87.922215 7.84375,87.78125 7.81866,87.74287 7.8053,87.69538 7.78125,87.65625 7.71649,87.553218 7.651022,87.451733 7.59375,87.34375 7.492742,87.149044 7.388075,86.928049 7.3125,86.71875 7.3045,86.69694 7.28891,86.6782 7.28125,86.65625 7.24942,86.5643 7.24545,86.469419 7.21875,86.375 7.188418,86.268382 7.148361,86.171969 7.125,86.0625 7.052121,85.720988 7,85.364295 7,85 L 7,83 7,15 7,13 C 7,10.218152 9.218152,8 12,8 l 2,0 68,0 2,0 c 2.781848,0 5,2.218152 5,5 l 0,2 0,68 0,2 c 0,0.364295 -0.05212,0.720988 -0.125,1.0625 -0.04415,0.206893 -0.08838,0.397658 -0.15625,0.59375 -0.0077,0.02195 -0.0233,0.04069 -0.03125,0.0625 -0.06274,0.173739 -0.138383,0.367449 -0.21875,0.53125 -0.04158,0.0828 -0.07904,0.169954 -0.125,0.25 -0.0546,0.09721 -0.126774,0.18835 -0.1875,0.28125 -0.09411,0.140965 -0.204921,0.275995 -0.3125,0.40625 -0.143174,0.17445 -0.303141,0.346998 -0.46875,0.5 -0.01117,0.0102 -0.01998,0.02115 -0.03125,0.03125 -0.138386,0.125556 -0.285091,0.234436 -0.4375,0.34375 -0.102571,0.07315 -0.204318,0.153364 -0.3125,0.21875 -0.0074,0.0045 -0.02384,-0.0044 -0.03125,0 -0.232039,0.138728 -0.462548,0.274778 -0.71875,0.375 0.301527,-0.0968 0.596455,-0.204138 0.875,-0.34375 0.55709,-0.279224 1.060053,-0.665694 1.5,-1.09375 0.219973,-0.214028 0.409366,-0.441865 0.59375,-0.6875 0.184384,-0.245635 0.355408,-0.507743 0.5,-0.78125 0.14012,-0.265048 0.276135,-0.524729 0.375,-0.8125 0.01041,-0.03078 0.02133,-0.06274 0.03125,-0.09375 0.09046,-0.278085 0.1388,-0.579404 0.1875,-0.875 C 89.95865,84.6507 90,84.334721 90,84 l 0,-2 0,-68 0,-2 C 90,8.676 87.324,6 84,6 L 12,6 z"
       id="rect3728"
       style="opacity:0.5;fill:url(#linearGradient3923);fill-opacity:1;fill-rule:nonzero;stroke:none;display:inline" />
    <path
       d="M 12,90 C 8.676,90 6,87.324 6,84 L 6,82 6,14 6,12 c 0,-0.334721 0.04135,-0.6507 0.09375,-0.96875 0.0487,-0.295596 0.09704,-0.596915 0.1875,-0.875 C 6.29113,10.12587 6.302142,10.09265 6.3125,10.0625 6.411365,9.774729 6.5473802,9.515048 6.6875,9.25 6.8320918,8.976493 7.0031161,8.714385 7.1875,8.46875 7.3718839,8.223115 7.5612765,7.995278 7.78125,7.78125 8.221197,7.353194 8.72416,6.966724 9.28125,6.6875 9.559795,6.547888 9.8547231,6.440553 10.15625,6.34375 9.9000482,6.443972 9.6695391,6.580022 9.4375,6.71875 c -0.00741,0.0044 -0.023866,-0.0045 -0.03125,0 -0.031933,0.0193 -0.062293,0.04251 -0.09375,0.0625 -0.120395,0.0767 -0.2310226,0.163513 -0.34375,0.25 -0.1061728,0.0808 -0.2132809,0.161112 -0.3125,0.25 C 8.4783201,7.442683 8.3087904,7.626638 8.15625,7.8125 8.0486711,7.942755 7.9378561,8.077785 7.84375,8.21875 7.818661,8.25713 7.805304,8.30462 7.78125,8.34375 7.716487,8.446782 7.6510225,8.548267 7.59375,8.65625 7.4927417,8.850956 7.3880752,9.071951 7.3125,9.28125 7.30454,9.30306 7.288911,9.3218 7.28125,9.34375 7.2494249,9.4357 7.2454455,9.530581 7.21875,9.625 7.1884177,9.731618 7.1483606,9.828031 7.125,9.9375 7.0521214,10.279012 7,10.635705 7,11 l 0,2 0,68 0,2 c 0,2.781848 2.2181517,5 5,5 l 2,0 68,0 2,0 c 2.781848,0 5,-2.218152 5,-5 l 0,-2 0,-68 0,-2 C 89,10.635705 88.94788,10.279012 88.875,9.9375 88.83085,9.730607 88.78662,9.539842 88.71875,9.34375 88.71105,9.3218 88.69545,9.30306 88.6875,9.28125 88.62476,9.107511 88.549117,8.913801 88.46875,8.75 88.42717,8.6672 88.38971,8.580046 88.34375,8.5 88.28915,8.40279 88.216976,8.31165 88.15625,8.21875 88.06214,8.077785 87.951329,7.942755 87.84375,7.8125 87.700576,7.63805 87.540609,7.465502 87.375,7.3125 87.36383,7.3023 87.35502,7.29135 87.34375,7.28125 87.205364,7.155694 87.058659,7.046814 86.90625,6.9375 86.803679,6.86435 86.701932,6.784136 86.59375,6.71875 c -0.0074,-0.0045 -0.02384,0.0044 -0.03125,0 -0.232039,-0.138728 -0.462548,-0.274778 -0.71875,-0.375 0.301527,0.0968 0.596455,0.204138 0.875,0.34375 0.55709,0.279224 1.060053,0.665694 1.5,1.09375 0.219973,0.214028 0.409366,0.441865 0.59375,0.6875 0.184384,0.245635 0.355408,0.507743 0.5,0.78125 0.14012,0.265048 0.276135,0.524729 0.375,0.8125 0.01041,0.03078 0.02133,0.06274 0.03125,0.09375 0.09046,0.278085 0.1388,0.579404 0.1875,0.875 C 89.95865,11.3493 90,11.665279 90,12 l 0,2 0,68 0,2 c 0,3.324 -2.676,6 -6,6 l -72,0 z"
       id="path3615"
       style="opacity:0.4;fill:url(#radialGradient2886);fill-opacity:1;fill-rule:nonzero;stroke:none;display:inline" />
    <rect
       width="84"
       height="84"
       rx="6"
       ry="6"
       x="-94"
       y="6"
       id="rect3654"
       style="fill:#ff00ff;fill-opacity:1;fill-rule:nonzero;stroke:none" />
    <rect
       width="16"
       height="16"
       x="112"
       y="8"
       id="rect3797"
       style="color:#000000;fill:#ffffff;stroke:#000000;stroke-width:0.5;stroke-linecap:round;stroke-linejoin:miter;stroke-miterlimit:4;stroke-opacity:1;stroke-dasharray:none;stroke-dashoffset:8.6;marker:none;visibility:visible;display:inline;overflow:visible;enable-background:accumulate" />
    <text
       x="131.39261"
       y="11.969256"
       id="text3799"
       xml:space="preserve"
       style="font-size:4px;font-style:normal;font-variant:normal;font-weight:normal;font-stretch:normal;text-align:start;line-height:125%;writing-mode:lr-tb;text-anchor:start;fill:#000000;fill-opacity:1;stroke:none;display:inline;font-family:Liberation Sans;-inkscape-font-specification:Liberation Sans"><tspan
         x="131.39261"
         y="11.969256"
         id="tspan3801">Width: 2px</tspan><tspan
         x="131.39261"
         y="16.969257"
         id="tspan3803">Blur: 12</tspan><tspan
         x="131.39261"
         y="21.969257"
         id="tspan3807">Opacity: 60</tspan></text>
    <path
       d="m 47.999989,24.000047 c -5.344692,0 -9.677419,4.008446 -9.677419,8.953116 0.01298,0.566668 0.02121,1.213684 0.08065,1.918524 -0.845839,0.446958 -0.956091,2.194858 -0.201613,3.956955 0.290931,0.679473 0.687741,1.231568 1.08871,1.678707 0.01336,0.01495 0.02688,0.02535 0.04033,0.03992 0.09571,0.465567 0.166509,0.833802 0.282259,1.358955 0.358582,1.066325 1.840339,3.072065 3.145162,4.796311 0.130123,1.330135 0.140827,2.643804 -0.120976,4.156806 -3.755733,3.088663 -13.36117,4.476556 -13.346774,7.674098 L 28,66.847042 c 0,1.703309 2.566985,3.262871 6.653226,4.31668 l 0.564516,2.27825 a 1.4052899,1.3929762 0 0 0 0.887097,0.919293 c 0.181372,0.06957 0.30937,0.216674 0.806451,0.35972 2.618482,0.753547 6.605572,1.279012 11.08871,1.279012 4.483138,0 8.51055,-0.525465 11.129032,-1.279012 0.497081,-0.143046 0.62508,-0.290189 0.80645,-0.35972 a 1.4052899,1.3929762 0 0 0 0.846776,-0.879325 l 0.685484,-2.398156 C 65.454146,70.031642 68,68.526364 68,66.847042 l -1.290327,-8.313598 c -0.01532,-2.736668 -9.677421,-4.476556 -13.387098,-7.674105 -0.150198,-1.224837 -0.157125,-2.430796 -0.08066,-3.637194 1.186329,-1.813949 2.748187,-4.135429 3.145161,-5.315916 0.145899,-0.611343 0.209269,-1.033853 0.32258,-1.558802 0.350322,-0.424435 0.668816,-0.914854 0.927419,-1.51883 0.716489,-1.673366 0.649595,-3.293734 -0.08065,-3.837049 0.05102,-0.727094 0.09963,-1.417008 0.120962,-2.038432 7e-6,-4.944669 -4.332719,-8.953114 -9.677411,-8.953114 z"
       id="path3798"
       style="fill:url(#linearGradient3713);fill-opacity:1;stroke:none;display:inline;enable-background:new" />
    <path
       d="M 57.65625,33.46875 C 57.631205,33.954778 57.60038,34.460168 57.5625,35 c 0.02282,0.01698 0.04098,0.04345 0.0625,0.0625 0.02382,-0.374508 0.05087,-0.786145 0.0625,-1.125 0,-0.159824 -0.02231,-0.310986 -0.03125,-0.46875 z m -19.3125,0.0625 c -0.0073,0.142595 -0.03125,0.293235 -0.03125,0.4375 0.0064,0.278473 0.02052,0.622893 0.03125,0.9375 0.01948,-0.01223 0.04217,-0.02051 0.0625,-0.03125 -0.04189,-0.496789 -0.05189,-0.912299 -0.0625,-1.34375 z M 37.75,37.09375 c -0.10059,0.753541 0.01257,1.757574 0.4375,2.75 0.290931,0.679473 0.692781,1.209111 1.09375,1.65625 0.01336,0.01495 0.04905,0.04793 0.0625,0.0625 0.09571,0.465567 0.1655,0.818597 0.28125,1.34375 0.358582,1.066325 1.820177,3.057004 3.125,4.78125 0.03253,0.332534 0.07854,0.666153 0.09375,1 0.01212,-0.672773 -0.02967,-1.345009 -0.09375,-2 C 41.445177,44.963254 39.983582,42.972575 39.625,41.90625 39.50925,41.381097 39.43946,41.028067 39.34375,40.5625 39.3303,40.54793 39.29461,40.51495 39.28125,40.5 38.880281,40.052861 38.478431,39.523223 38.1875,38.84375 37.93305,38.249478 37.812696,37.635434 37.75,37.09375 z m 20.34375,0.0625 c -0.06503,0.52492 -0.220238,1.107098 -0.46875,1.6875 -0.258603,0.603976 -0.555928,1.075565 -0.90625,1.5 -0.113311,0.524949 -0.197851,0.951157 -0.34375,1.5625 -0.396974,1.180487 -1.938671,3.498551 -3.125,5.3125 -0.04549,0.717771 -0.05741,1.434721 -0.03125,2.15625 0.0055,-0.385238 0.0069,-0.771549 0.03125,-1.15625 1.186329,-1.813949 2.728026,-4.132013 3.125,-5.3125 0.145899,-0.611343 0.230439,-1.037551 0.34375,-1.5625 0.350322,-0.424435 0.647647,-0.896024 0.90625,-1.5 0.419927,-0.980742 0.562844,-1.949333 0.46875,-2.6875 z m -30,30.15625 L 28,67.84375 c 0,1.703309 2.570009,3.258691 6.65625,4.3125 l 0.5625,2.28125 a 1.4052899,1.3929762 0 0 0 0.875,0.9375 c 0.181372,0.06957 0.315419,0.200704 0.8125,0.34375 C 39.524732,76.472297 43.516862,77 48,77 c 4.483138,0 8.506518,-0.527703 11.125,-1.28125 0.497081,-0.143046 0.63113,-0.274219 0.8125,-0.34375 a 1.4052899,1.3929762 0 0 0 0.84375,-0.90625 l 0.6875,-2.375 C 65.455154,71.041608 68,69.523072 68,67.84375 L 67.90625,67.3125 c -0.427193,1.488362 -2.82825,2.828651 -6.4375,3.78125 l -0.6875,2.375 A 1.4052899,1.3929762 0 0 1 59.9375,74.375 C 59.75613,74.44453 59.622081,74.575704 59.125,74.71875 56.506518,75.472297 52.483138,76 48,76 43.516862,76 39.524732,75.472297 36.90625,74.71875 36.409169,74.575704 36.275122,74.44457 36.09375,74.375 a 1.4052899,1.3929762 0 0 1 -0.875,-0.9375 l -0.5625,-2.28125 c -3.699641,-0.954108 -6.13122,-2.329151 -6.5625,-3.84375 z"
       id="path3715"
       style="fill:#ffffff;fill-opacity:1;stroke:none;display:inline;enable-background:new" />
    <path
       d="m 48,24 c -5.344692,0 -9.6875,4.02408 -9.6875,8.96875 0.0038,0.167266 0.02681,0.381812 0.03125,0.5625 C 38.586452,28.78642 42.811244,25 48,25 c 5.171938,0 9.388578,3.745577 9.65625,8.46875 0.0087,-0.168598 0.02576,-0.371203 0.03125,-0.53125 C 57.687507,27.992831 53.344692,24 48,24 z m -9.65625,10.90625 c -0.51761,0.324949 -0.712487,1.161626 -0.59375,2.1875 0.07801,-0.584405 0.286794,-1.023522 0.65625,-1.21875 -0.03023,-0.358467 -0.0514,-0.643159 -0.0625,-0.96875 z M 57.625,35.0625 c -0.01987,0.3123 -0.0393,0.606882 -0.0625,0.9375 0.302256,0.224884 0.464799,0.634938 0.53125,1.15625 C 58.210358,36.215059 58.05329,35.441631 57.625,35.0625 z M 42.84375,48.71875 c -0.01378,0.683809 -0.08785,1.368499 -0.21875,2.125 -3.755733,3.088663 -13.358146,4.489958 -13.34375,7.6875 L 28,66.84375 c 0,0.16115 0.04868,0.31048 0.09375,0.46875 l 1.1875,-7.78125 c -0.0144,-3.197542 9.588017,-4.598837 13.34375,-7.6875 0.194369,-1.123289 0.262143,-2.133144 0.21875,-3.125 z m 10.375,0.65625 c -0.01171,0.822845 -0.0086,1.634493 0.09375,2.46875 3.709677,3.197549 13.39093,4.950832 13.40625,7.6875 l 1.1875,7.78125 C 67.95089,67.156971 68,67.002631 68,66.84375 l -1.28125,-8.3125 C 66.70343,55.794582 57.022177,54.041299 53.3125,50.84375 53.251665,50.347655 53.236556,49.866185 53.21875,49.375 z"
       id="path3725"
       style="opacity:0.2;fill:#000000;fill-opacity:1;stroke:none;display:inline;enable-background:new" />
    <path
       d="m -52.000011,24.000047 c -5.344692,0 -9.677419,4.008446 -9.677419,8.953116 0.01298,0.566668 0.02121,1.213684 0.08065,1.918524 -0.845839,0.446958 -0.956091,2.194858 -0.201613,3.956955 0.290931,0.679473 0.687741,1.231568 1.08871,1.678707 0.01336,0.01495 0.02688,0.02535 0.04033,0.03992 0.09571,0.465567 0.166509,0.833802 0.282259,1.358955 0.358582,1.066325 1.840339,3.072065 3.145162,4.796311 0.130123,1.330135 0.140827,2.643804 -0.120976,4.156806 -3.755733,3.088663 -13.36117,4.476556 -13.346774,7.674098 L -72,66.847042 c 0,1.703309 2.566985,3.262871 6.653226,4.31668 l 0.564516,2.27825 a 1.4052899,1.3929762 0 0 0 0.887097,0.919293 c 0.181372,0.06957 0.30937,0.216674 0.806451,0.35972 2.618482,0.753547 6.605572,1.279012 11.08871,1.279012 4.483138,0 8.51055,-0.525465 11.129032,-1.279012 0.497081,-0.143046 0.62508,-0.290189 0.80645,-0.35972 a 1.4052899,1.3929762 0 0 0 0.846776,-0.879325 l 0.685484,-2.398156 C -34.545854,70.031642 -32,68.526364 -32,66.847042 l -1.290327,-8.313598 c -0.01532,-2.736668 -9.677421,-4.476556 -13.387098,-7.674105 -0.150198,-1.224837 -0.157125,-2.430796 -0.08066,-3.637194 1.186329,-1.813949 2.748187,-4.135429 3.145161,-5.315916 0.145899,-0.611343 0.209269,-1.033853 0.32258,-1.558802 0.350322,-0.424435 0.668816,-0.914854 0.927419,-1.51883 0.716489,-1.673366 0.649595,-3.293734 -0.08065,-3.837049 0.05102,-0.727094 0.09963,-1.417008 0.120962,-2.038432 7e-6,-4.944669 -4.332719,-8.953114 -9.677411,-8.953114 z"
       transform="translate(100,0)"
       clip-path="url(#clipPath3743)"
       id="path3734"
       style="opacity:0.6;fill:none;stroke:#ffffff;stroke-width:2;stroke-miterlimit:4;stroke-dasharray:none;display:inline;filter:url(#filter3747);enable-background:new" />
  </g>
  <g
     id="layer3">
    <rect
       width="66"
       height="66"
       rx="12"
       ry="12"
       x="15"
       y="15"
       clip-path="url(#clipPath3613)"
       id="rect3171"
       style="opacity:0.5;fill:url(#linearGradient4052);fill-opacity:1;fill-rule:nonzero;stroke:#ffffff;stroke-width:0.5;stroke-linecap:round;stroke-linejoin:miter;stroke-miterlimit:4;stroke-opacity:1;stroke-dasharray:none;stroke-dashoffset:0;display:inline;filter:url(#filter3794)" />
  </g>
</svg>
