<?xml version="1.0" encoding="UTF-8" standalone="no"?>
<!-- Created with Inkscape (http://www.inkscape.org/) -->

<svg
   xmlns:dc="http://purl.org/dc/elements/1.1/"
   xmlns:cc="http://creativecommons.org/ns#"
   xmlns:rdf="http://www.w3.org/1999/02/22-rdf-syntax-ns#"
   xmlns:svg="http://www.w3.org/2000/svg"
   xmlns="http://www.w3.org/2000/svg"
   xmlns:xlink="http://www.w3.org/1999/xlink"
   xmlns:sodipodi="http://sodipodi.sourceforge.net/DTD/sodipodi-0.dtd"
   xmlns:inkscape="http://www.inkscape.org/namespaces/inkscape"
   version="1.0"
   width="96"
   height="96"
   id="svg2408"
   inkscape:version="0.48.4 r9939"
   sodipodi:docname="aptoncd.svg"
   inkscape:export-filename="/home/corbin/Desktop/Developement/Mint/Icons/usr/share/icons/Mint-X/apps/16/aptoncd.png"
   inkscape:export-xdpi="15"
   inkscape:export-ydpi="15">
  <sodipodi:namedview
     pagecolor="#ffffff"
     bordercolor="#666666"
     borderopacity="1"
     objecttolerance="10"
     gridtolerance="10"
     guidetolerance="10"
     inkscape:pageopacity="0"
     inkscape:pageshadow="2"
     inkscape:window-width="1920"
     inkscape:window-height="1024"
     id="namedview134"
     showgrid="false"
     inkscape:zoom="2.4583334"
     inkscape:cx="121.64445"
     inkscape:cy="-10.701417"
     inkscape:window-x="0"
     inkscape:window-y="0"
     inkscape:window-maximized="1"
     inkscape:current-layer="svg2408" />
  <defs
     id="defs2410">
    <linearGradient
       x1="45.447727"
       y1="92.539597"
       x2="45.447727"
       y2="7.0165396"
       id="ButtonShadow"
       gradientUnits="userSpaceOnUse"
       gradientTransform="scale(1.0058652,0.994169)">
      <stop
         id="stop3750"
         style="stop-color:#000000;stop-opacity:1"
         offset="0" />
      <stop
         id="stop3752"
         style="stop-color:#000000;stop-opacity:0.58823532"
         offset="1" />
    </linearGradient>
    <linearGradient
       id="linearGradient3737">
      <stop
         id="stop3739"
         style="stop-color:#ffffff;stop-opacity:1"
         offset="0" />
      <stop
         id="stop3741"
         style="stop-color:#ffffff;stop-opacity:0"
         offset="1" />
    </linearGradient>
    <filter
       color-interpolation-filters="sRGB"
       id="filter3174">
      <feGaussianBlur
         id="feGaussianBlur3176"
         stdDeviation="1.71" />
    </filter>
    <linearGradient
       x1="36.357143"
       y1="6"
       x2="36.357143"
       y2="63.893143"
       id="linearGradient3188"
       xlink:href="#linearGradient3737"
       gradientUnits="userSpaceOnUse" />
    <filter
       x="-0.192"
       y="-0.192"
       width="1.3839999"
       height="1.3839999"
       color-interpolation-filters="sRGB"
       id="filter3794">
      <feGaussianBlur
         id="feGaussianBlur3796"
         stdDeviation="5.28" />
    </filter>
    <linearGradient
       x1="48"
       y1="20.220806"
       x2="48"
       y2="138.66119"
       id="linearGradient3613"
       xlink:href="#linearGradient3737"
       gradientUnits="userSpaceOnUse" />
    <radialGradient
       cx="48"
       cy="90.171875"
       r="42"
       fx="48"
       fy="90.171875"
       id="radialGradient3619"
       xlink:href="#linearGradient3737"
       gradientUnits="userSpaceOnUse"
       gradientTransform="matrix(1.1573129,0,0,0.99590774,-7.5510206,0.19713193)" />
    <clipPath
       id="clipPath3613">
      <rect
         width="84"
         height="84"
         rx="6"
         ry="6"
         x="6"
         y="6"
         id="rect3615"
         style="fill:#ffffff;fill-opacity:1;fill-rule:nonzero;stroke:none" />
    </clipPath>
    <linearGradient
       x1="48"
       y1="90"
       x2="48"
       y2="5.9877172"
       id="linearGradient3617"
       xlink:href="#ButtonColor"
       gradientUnits="userSpaceOnUse" />
    <linearGradient
       x1="10.31979"
       y1="21"
       x2="10.31979"
       y2="0.99929649"
       id="ButtonColor"
       gradientUnits="userSpaceOnUse">
      <stop
         id="stop3189"
         style="stop-color:#836019;stop-opacity:1;"
         offset="0" />
      <stop
         id="stop3191"
         style="stop-color:#e09e66;stop-opacity:1;"
         offset="1" />
    </linearGradient>
    <linearGradient
       id="linearGradient3308">
      <stop
         id="stop3310"
         style="stop-color:#fc0000;stop-opacity:1"
         offset="0" />
      <stop
         id="stop3312"
         style="stop-color:#fc0000;stop-opacity:0"
         offset="1" />
    </linearGradient>
    <radialGradient
       cx="5.9628973"
       cy="10.957597"
       r="1.5017668"
       fx="5.9628973"
       fy="10.957597"
       id="radialGradient3300"
       xlink:href="#linearGradient3293"
       gradientUnits="userSpaceOnUse" />
    <linearGradient
       id="linearGradient3293">
      <stop
         id="stop3296"
         style="stop-color:#ffc64e;stop-opacity:1"
         offset="0" />
      <stop
         id="stop3839"
         style="stop-color:#f30000;stop-opacity:0.83064514"
         offset="0.30000001" />
      <stop
         id="stop3302"
         style="stop-color:#fb0000;stop-opacity:0.47580644"
         offset="0.43782738" />
      <stop
         id="stop3298"
         style="stop-color:#ffb56f;stop-opacity:0"
         offset="1" />
    </linearGradient>
    <linearGradient
       x1="21.310946"
       y1="11.446488"
       x2="6.589735"
       y2="11.788887"
       id="linearGradient2988"
       xlink:href="#linearGradient3308"
       gradientUnits="userSpaceOnUse" />
    <clipPath
       id="clipPath3271">
      <rect
         width="118"
         height="59"
         x="5"
         y="160.00336"
         id="rect3273"
         style="fill:#ffffff;fill-opacity:1;fill-rule:evenodd;stroke:none" />
    </clipPath>
    <linearGradient
       id="linearGradient3236">
      <stop
         id="stop3238"
         style="stop-color:#ffffff;stop-opacity:0"
         offset="0" />
      <stop
         id="stop3240"
         style="stop-color:#fffc2b;stop-opacity:0.234375"
         offset="0.34999999" />
      <stop
         id="stop3242"
         style="stop-color:#46d15d;stop-opacity:0.21875"
         offset="0.5" />
      <stop
         id="stop3244"
         style="stop-color:#46d1aa;stop-opacity:0"
         offset="0.64999998" />
      <stop
         id="stop3246"
         style="stop-color:#ffffff;stop-opacity:0"
         offset="1" />
    </linearGradient>
    <linearGradient
       id="linearGradient3265">
      <stop
         id="stop3267"
         style="stop-color:#ffffff;stop-opacity:0"
         offset="0" />
      <stop
         id="stop3252"
         style="stop-color:#afcff3;stop-opacity:0"
         offset="0.2" />
      <stop
         id="stop3269"
         style="stop-color:#60a0e7;stop-opacity:0.1484375"
         offset="0.34999999" />
      <stop
         id="stop3271"
         style="stop-color:#db8ef1;stop-opacity:0.2109375"
         offset="0.5" />
      <stop
         id="stop3273"
         style="stop-color:#ffffff;stop-opacity:0"
         offset="0.64999998" />
      <stop
         id="stop3275"
         style="stop-color:#ffffff;stop-opacity:0"
         offset="1" />
    </linearGradient>
    <linearGradient
       id="linearGradient3247">
      <stop
         id="stop3249"
         style="stop-color:#ffffff;stop-opacity:0"
         offset="0" />
      <stop
         id="stop3293"
         style="stop-color:#d5d5d5;stop-opacity:0"
         offset="0.30000001" />
      <stop
         id="stop3251"
         style="stop-color:#eb8888;stop-opacity:0.2578125"
         offset="0.5" />
      <stop
         id="stop3295"
         style="stop-color:#e28f25;stop-opacity:0"
         offset="0.69999999" />
      <stop
         id="stop3253"
         style="stop-color:#ffffff;stop-opacity:0"
         offset="1" />
    </linearGradient>
    <linearGradient
       x1="5"
       y1="64"
       x2="123"
       y2="64"
       id="linearGradient3239"
       xlink:href="#linearGradient3233"
       gradientUnits="userSpaceOnUse"
       gradientTransform="matrix(0.48435496,0.27965371,-0.27964247,0.48437444,34.897859,-0.89859081)" />
    <linearGradient
       id="linearGradient3233">
      <stop
         id="stop3235"
         style="stop-color:#ffffff;stop-opacity:0"
         offset="0" />
      <stop
         id="stop3297"
         style="stop-color:#ffffff;stop-opacity:0"
         offset="0.15000001" />
      <stop
         id="stop3241"
         style="stop-color:#ffffff;stop-opacity:1"
         offset="0.5" />
      <stop
         id="stop3299"
         style="stop-color:#ffffff;stop-opacity:0"
         offset="0.85000002" />
      <stop
         id="stop3237"
         style="stop-color:#ffffff;stop-opacity:0"
         offset="1" />
    </linearGradient>
    <linearGradient
       x1="73.015572"
       y1="89.130737"
       x2="73.015572"
       y2="34.606899"
       id="linearGradient3178"
       xlink:href="#ButtonColor-3"
       gradientUnits="userSpaceOnUse"
       gradientTransform="matrix(1.0095547,0,0,1.2128254,-12.466802,-27.299316)" />
    <linearGradient
       x1="58.650177"
       y1="122"
       x2="58.650177"
       y2="5.4252338"
       id="ButtonColor-3"
       gradientUnits="userSpaceOnUse"
       gradientTransform="matrix(1.0172414,0,0,1.0172414,-1.1034483,-1.1034483)">
      <stop
         id="stop3189-5"
         style="stop-color:#b8abbd;stop-opacity:1"
         offset="0" />
      <stop
         id="stop3191-7"
         style="stop-color:#dddbde;stop-opacity:1"
         offset="1" />
    </linearGradient>
    <linearGradient
       x1="25.220379"
       y1="61.92226"
       x2="94.567612"
       y2="61.92226"
       id="linearGradient3368"
       xlink:href="#linearGradient3362"
       gradientUnits="userSpaceOnUse" />
    <linearGradient
       id="linearGradient3362">
      <stop
         id="stop3364"
         style="stop-color:#4d4d4d;stop-opacity:1"
         offset="0" />
      <stop
         id="stop3366"
         style="stop-color:#ffffff;stop-opacity:1"
         offset="1" />
    </linearGradient>
    <radialGradient
       cx="59.893993"
       cy="61.92226"
       r="33.71384"
       fx="59.893993"
       fy="61.92226"
       id="radialGradient3348"
       xlink:href="#linearGradient3342"
       gradientUnits="userSpaceOnUse"
       gradientTransform="matrix(1,0,0,0.8375435,0,10.059672)" />
    <linearGradient
       id="linearGradient3342">
      <stop
         id="stop3344"
         style="stop-color:#000000;stop-opacity:0"
         offset="0" />
      <stop
         id="stop3350"
         style="stop-color:#000000;stop-opacity:0"
         offset="0.85000002" />
      <stop
         id="stop3346"
         style="stop-color:#000000;stop-opacity:1"
         offset="1" />
    </linearGradient>
    <linearGradient
       id="linearGradient3330">
      <stop
         id="stop3332"
         style="stop-color:#ffffff;stop-opacity:0.203125"
         offset="0" />
      <stop
         id="stop3334"
         style="stop-color:#ffffff;stop-opacity:0.6796875"
         offset="1" />
    </linearGradient>
    <linearGradient
       x1="5"
       y1="64"
       x2="123"
       y2="64"
       id="linearGradient3917"
       xlink:href="#linearGradient3236"
       gradientUnits="userSpaceOnUse"
       gradientTransform="matrix(-0.9850397,0.171492,-0.171492,-0.9850397,138.01803,271.06706)" />
    <linearGradient
       x1="5"
       y1="64"
       x2="123"
       y2="64"
       id="linearGradient3919"
       xlink:href="#linearGradient3265"
       gradientUnits="userSpaceOnUse"
       gradientTransform="matrix(-0.8529965,0.5216416,-0.5216416,-0.8529964,151.97682,240.20671)" />
    <linearGradient
       x1="5"
       y1="64"
       x2="123"
       y2="64"
       id="linearGradient3921"
       xlink:href="#linearGradient3247"
       gradientUnits="userSpaceOnUse"
       gradientTransform="matrix(-0.881451,-0.4719713,0.4719713,-0.881451,90.206697,305.61903)" />
    <linearGradient
       x1="5"
       y1="64"
       x2="123"
       y2="64"
       id="linearGradient3923"
       xlink:href="#linearGradient3236"
       gradientUnits="userSpaceOnUse"
       gradientTransform="matrix(-0.9850397,0.171492,-0.171492,-0.9850397,138.01803,271.06706)" />
    <linearGradient
       x1="5"
       y1="64"
       x2="123"
       y2="64"
       id="linearGradient3925"
       xlink:href="#linearGradient3265"
       gradientUnits="userSpaceOnUse"
       gradientTransform="matrix(-0.8529965,0.5216416,-0.5216416,-0.8529964,151.97682,240.20671)" />
    <linearGradient
       x1="5"
       y1="64"
       x2="123"
       y2="64"
       id="linearGradient3927"
       xlink:href="#linearGradient3247"
       gradientUnits="userSpaceOnUse"
       gradientTransform="matrix(-0.881451,-0.4719713,0.4719713,-0.881451,90.206697,305.61903)" />
    <linearGradient
       x1="73.015572"
       y1="89.130737"
       x2="73.015572"
       y2="34.606899"
       id="linearGradient3931"
       xlink:href="#ButtonColor-3"
       gradientUnits="userSpaceOnUse"
       gradientTransform="matrix(1.0095547,0,0,1.2128254,77.533198,-27.299316)" />
    <linearGradient
       x1="26.180153"
       y1="61.92226"
       x2="93.607834"
       y2="61.92226"
       id="linearGradient3948"
       xlink:href="#linearGradient3330"
       gradientUnits="userSpaceOnUse"
       gradientTransform="matrix(0,0.28234448,-0.33916637,0,69.001413,30.890837)" />
    <linearGradient
       x1="45.447727"
       y1="92.539597"
       x2="45.447727"
       y2="7.0165396"
       id="ButtonShadow-0"
       gradientUnits="userSpaceOnUse"
       gradientTransform="matrix(1.0058652,0,0,0.994169,100,0)">
      <stop
         id="stop3750-8"
         style="stop-color:#000000;stop-opacity:1"
         offset="0" />
      <stop
         id="stop3752-5"
         style="stop-color:#000000;stop-opacity:0.58823532"
         offset="1" />
    </linearGradient>
    <linearGradient
       x1="32.251034"
       y1="6.1317081"
       x2="32.251034"
       y2="90.238609"
       id="linearGradient3780"
       xlink:href="#ButtonShadow-0"
       gradientUnits="userSpaceOnUse"
       gradientTransform="matrix(1.0238095,0,0,1.0119048,-1.1428571,-98.071429)" />
    <linearGradient
       x1="32.251034"
       y1="6.1317081"
       x2="32.251034"
       y2="90.238609"
       id="linearGradient3772"
       xlink:href="#ButtonShadow-0"
       gradientUnits="userSpaceOnUse"
       gradientTransform="matrix(1.0238095,0,0,1.0119048,-1.1428571,-98.071429)" />
    <linearGradient
       x1="32.251034"
       y1="6.1317081"
       x2="32.251034"
       y2="90.238609"
       id="linearGradient3725"
       xlink:href="#ButtonShadow-0"
       gradientUnits="userSpaceOnUse"
       gradientTransform="matrix(1.0238095,0,0,1.0119048,-1.1428571,-98.071429)" />
    <linearGradient
       x1="32.251034"
       y1="6.1317081"
       x2="32.251034"
       y2="90.238609"
       id="linearGradient3721"
       xlink:href="#ButtonShadow-0"
       gradientUnits="userSpaceOnUse"
       gradientTransform="translate(0,-97)" />
    <linearGradient
       x1="32.251034"
       y1="6.1317081"
       x2="32.251034"
       y2="90.238609"
       id="linearGradient3059"
       xlink:href="#ButtonShadow-0"
       gradientUnits="userSpaceOnUse"
       gradientTransform="matrix(1.0238095,0,0,1.0119048,-1.1428571,-98.071429)" />
    <linearGradient
       inkscape:collect="always"
       xlink:href="#ButtonColor-3"
       id="linearGradient3881"
       gradientUnits="userSpaceOnUse"
       gradientTransform="matrix(1.0095547,0,0,1.2128254,77.533198,-27.299316)"
       x1="73.015572"
       y1="89.130737"
       x2="73.015572"
       y2="34.606899" />
    <linearGradient
       inkscape:collect="always"
       xlink:href="#ButtonColor-3"
       id="linearGradient3976"
       gradientUnits="userSpaceOnUse"
       gradientTransform="matrix(1.0095547,0,0,1.2128254,77.533198,-27.299316)"
       x1="73.015572"
       y1="89.130737"
       x2="73.015572"
       y2="34.606899" />
    <clipPath
       id="clipPath3871-0">
      <path
         d="M 0,95.999997 0,156 l 96.000001,0 0,-60.000003 -96.000001,0 z M 68,116 c 9.941125,0 18,8.05888 18,18 0,9.94112 -8.058875,18 -18,18 -9.941125,0 -18,-8.05888 -18,-18 0,-9.94112 8.058875,-18 18,-18 z"
         inkscape:connector-curvature="0"
         id="path3873-2"
         style="fill:#ffffff;fill-opacity:1;stroke:none" />
    </clipPath>
    <linearGradient
       x1="51.42857"
       y1="72.785713"
       x2="90.714287"
       y2="72.785713"
       id="linearGradient3844"
       xlink:href="#linearGradient3778"
       gradientUnits="userSpaceOnUse"
       gradientTransform="matrix(0,-0.91636366,0.91636366,0,5.4019427,140.57217)" />
    <linearGradient
       id="linearGradient3778">
      <stop
         id="stop3780"
         style="stop-color:#195091;stop-opacity:1;"
         offset="0" />
      <stop
         id="stop3782"
         style="stop-color:#25b6d6;stop-opacity:1;"
         offset="1" />
    </linearGradient>
    <linearGradient
       x1="123.07514"
       y1="75.788338"
       x2="123.07514"
       y2="59.878803"
       id="linearGradient3886"
       xlink:href="#linearGradient5010"
       gradientUnits="userSpaceOnUse"
       gradientTransform="matrix(-0.99970462,0.02430362,-0.02430362,-0.99970462,203.40067,148.9174)" />
    <linearGradient
       id="linearGradient5010">
      <stop
         id="stop5012"
         style="stop-color:#000000;stop-opacity:1"
         offset="0" />
      <stop
         id="stop5014"
         style="stop-color:#000000;stop-opacity:0"
         offset="1" />
    </linearGradient>
    <linearGradient
       x1="123.07514"
       y1="75.788338"
       x2="123.07514"
       y2="59.878803"
       id="linearGradient3908"
       xlink:href="#linearGradient5010"
       gradientUnits="userSpaceOnUse" />
    <linearGradient
       id="linearGradient3267">
      <stop
         id="stop3269-6"
         style="stop-color:#000000;stop-opacity:1"
         offset="0" />
      <stop
         id="stop3271-7"
         style="stop-color:#000000;stop-opacity:0"
         offset="1" />
    </linearGradient>
    <clipPath
       id="clipPath3894">
      <path
         d="m 128,56 c -9.94113,0 -18,8.058875 -18,18 0,9.941125 8.05887,18 18,18 9.94113,0 18,-8.058875 18,-18 0,-9.941125 -8.05887,-18 -18,-18 z m -6,4.5 12,0 0,13.75 5,0 -11,13.75 -11,-13.75 5,0 0,-13.75 z"
         inkscape:connector-curvature="0"
         id="path3896"
         style="fill:#ffffff;fill-opacity:1;stroke:none" />
    </clipPath>
    <linearGradient
       x1="123.07514"
       y1="75.788338"
       x2="123.07514"
       y2="59.878803"
       id="linearGradient3878"
       xlink:href="#linearGradient5010"
       gradientUnits="userSpaceOnUse"
       gradientTransform="matrix(-0.99995895,0.00905994,-0.00905994,-0.99995895,200.41274,149.49273)" />
    <linearGradient
       id="linearGradient3276">
      <stop
         id="stop3278"
         style="stop-color:#000000;stop-opacity:1"
         offset="0" />
      <stop
         id="stop3280"
         style="stop-color:#000000;stop-opacity:0"
         offset="1" />
    </linearGradient>
    <linearGradient
       x1="65.262688"
       y1="64.205269"
       x2="65.262688"
       y2="43.780487"
       id="linearGradient3871"
       xlink:href="#linearGradient3737-9"
       gradientUnits="userSpaceOnUse"
       gradientTransform="matrix(-0.62498884,0.0037337,-0.0037337,-0.62498884,114.95119,116.46185)" />
    <linearGradient
       id="linearGradient3737-9">
      <stop
         id="stop3739-4"
         style="stop-color:#ffffff;stop-opacity:1"
         offset="0" />
      <stop
         id="stop3741-8"
         style="stop-color:#ffffff;stop-opacity:0"
         offset="1" />
    </linearGradient>
    <linearGradient
       x1="64.321426"
       y1="55.310268"
       x2="64.321426"
       y2="84.889679"
       id="linearGradient3857-6"
       xlink:href="#linearGradient3737-1"
       gradientUnits="userSpaceOnUse"
       gradientTransform="translate(-2,0)" />
    <linearGradient
       id="linearGradient3737-1">
      <stop
         id="stop3739-5"
         style="stop-color:#ffffff;stop-opacity:1"
         offset="0" />
      <stop
         id="stop3741-9"
         style="stop-color:#ffffff;stop-opacity:0"
         offset="1" />
    </linearGradient>
    <linearGradient
       inkscape:collect="always"
       xlink:href="#linearGradient3778"
       id="linearGradient4162"
       gradientUnits="userSpaceOnUse"
       gradientTransform="matrix(0,-0.91636366,0.91636366,0,5.4019427,140.57217)"
       x1="51.42857"
       y1="72.785713"
       x2="90.714287"
       y2="72.785713" />
    <linearGradient
       inkscape:collect="always"
       xlink:href="#linearGradient5010"
       id="linearGradient4164"
       gradientUnits="userSpaceOnUse"
       gradientTransform="matrix(-0.99970462,0.02430362,-0.02430362,-0.99970462,203.40067,148.9174)"
       x1="123.07514"
       y1="75.788338"
       x2="123.07514"
       y2="59.878803" />
    <linearGradient
       inkscape:collect="always"
       xlink:href="#linearGradient5010"
       id="linearGradient4166"
       gradientUnits="userSpaceOnUse"
       x1="123.07514"
       y1="75.788338"
       x2="123.07514"
       y2="59.878803" />
    <linearGradient
       inkscape:collect="always"
       xlink:href="#linearGradient5010"
       id="linearGradient4168"
       gradientUnits="userSpaceOnUse"
       gradientTransform="matrix(-0.99995895,0.00905994,-0.00905994,-0.99995895,200.41274,149.49273)"
       x1="123.07514"
       y1="75.788338"
       x2="123.07514"
       y2="59.878803" />
    <linearGradient
       inkscape:collect="always"
       xlink:href="#linearGradient3737-9"
       id="linearGradient4170"
       gradientUnits="userSpaceOnUse"
       gradientTransform="matrix(-0.62498884,0.0037337,-0.0037337,-0.62498884,114.95119,116.46185)"
       x1="65.262688"
       y1="64.205269"
       x2="65.262688"
       y2="43.780487" />
    <linearGradient
       inkscape:collect="always"
       xlink:href="#linearGradient3737-1"
       id="linearGradient4172"
       gradientUnits="userSpaceOnUse"
       gradientTransform="translate(-2,0)"
       x1="64.321426"
       y1="55.310268"
       x2="64.321426"
       y2="84.889679" />
  </defs>
  <metadata
     id="metadata2413">
    <rdf:RDF>
      <cc:Work
         rdf:about="">
        <dc:format>image/svg+xml</dc:format>
        <dc:type
           rdf:resource="http://purl.org/dc/dcmitype/StillImage" />
        <dc:title></dc:title>
      </cc:Work>
    </rdf:RDF>
  </metadata>
  <g
     id="layer2"
     style="display:none">
    <rect
       width="86"
       height="85"
       rx="6"
       ry="6"
       x="5"
       y="7"
       id="rect3745"
       style="opacity:0.9;fill:url(#ButtonShadow);fill-opacity:1;fill-rule:nonzero;stroke:none;filter:url(#filter3174)" />
  </g>
  <g
     id="layer6"
     style="display:inline">
    <path
       d="m 12,-95.03125 c -5.5110903,0 -10.03125,4.52016 -10.03125,10.03125 l 0,71 c 0,5.5110902 4.5201598,10.03125 10.03125,10.03125 l 72,0 c 5.51109,0 10.03125,-4.5201597 10.03125,-10.03125 l 0,-71 c 0,-5.51109 -4.52016,-10.03125 -10.03125,-10.03125 l -72,0 z"
       transform="scale(1,-1)"
       id="path3786"
       style="opacity:0.07999998;fill:url(#linearGradient3059);fill-opacity:1;fill-rule:nonzero;stroke:none;display:inline" />
    <path
       d="m 12,-94.03125 c -4.971633,0 -9.03125,4.059617 -9.03125,9.03125 l 0,71 c 0,4.9716329 4.0596171,9.03125 9.03125,9.03125 l 72,0 c 4.971633,0 9.03125,-4.059617 9.03125,-9.03125 l 0,-71 c 0,-4.971633 -4.059617,-9.03125 -9.03125,-9.03125 l -72,0 z"
       transform="scale(1,-1)"
       id="path3778"
       style="opacity:0.1;fill:url(#linearGradient3780);fill-opacity:1;fill-rule:nonzero;stroke:none;display:inline" />
    <path
       d="m 12,-93 c -4.4091333,0 -8,3.590867 -8,8 l 0,71 c 0,4.4091333 3.5908667,8 8,8 l 72,0 c 4.409133,0 8,-3.5908667 8,-8 l 0,-71 c 0,-4.409133 -3.590867,-8 -8,-8 l -72,0 z"
       transform="scale(1,-1)"
       id="path3770"
       style="opacity:0.2;fill:url(#linearGradient3772);fill-opacity:1;fill-rule:nonzero;stroke:none;display:inline" />
    <rect
       width="86"
       height="85"
       rx="7"
       ry="7"
       x="5"
       y="-92"
       transform="scale(1,-1)"
       id="rect3723"
       style="opacity:0.3;fill:url(#linearGradient3725);fill-opacity:1;fill-rule:nonzero;stroke:none;display:inline" />
    <rect
       width="84"
       height="84"
       rx="6"
       ry="6"
       x="6"
       y="-91"
       transform="scale(1,-1)"
       id="rect3716"
       style="opacity:0.45;fill:url(#linearGradient3721);fill-opacity:1;fill-rule:nonzero;stroke:none;display:inline" />
  </g>
  <g
     id="layer1"
     style="display:inline">
    <rect
       width="84"
       height="84"
       rx="6"
       ry="6"
       x="6"
       y="6"
       id="rect2419"
       style="fill:url(#linearGradient3617);fill-opacity:1;fill-rule:nonzero;stroke:none" />
    <path
       d="M 12,6 C 8.676,6 6,8.676 6,12 l 0,2 0,68 0,2 c 0,0.334721 0.04135,0.6507 0.09375,0.96875 0.0487,0.295596 0.09704,0.596915 0.1875,0.875 0.00988,0.03038 0.020892,0.0636 0.03125,0.09375 0.098865,0.287771 0.2348802,0.547452 0.375,0.8125 0.1445918,0.273507 0.3156161,0.535615 0.5,0.78125 0.1843839,0.245635 0.3737765,0.473472 0.59375,0.6875 0.439947,0.428056 0.94291,0.814526 1.5,1.09375 0.278545,0.139612 0.5734731,0.246947 0.875,0.34375 -0.2562018,-0.100222 -0.4867109,-0.236272 -0.71875,-0.375 -0.00741,-0.0044 -0.023866,0.0045 -0.03125,0 -0.031933,-0.0193 -0.062293,-0.04251 -0.09375,-0.0625 -0.120395,-0.0767 -0.2310226,-0.163513 -0.34375,-0.25 -0.1061728,-0.0808 -0.2132809,-0.161112 -0.3125,-0.25 C 8.4783201,88.557317 8.3087904,88.373362 8.15625,88.1875 8.0486711,88.057245 7.9378561,87.922215 7.84375,87.78125 7.818661,87.74287 7.805304,87.69538 7.78125,87.65625 7.716487,87.553218 7.6510225,87.451733 7.59375,87.34375 7.4927417,87.149044 7.3880752,86.928049 7.3125,86.71875 7.30454,86.69694 7.288911,86.6782 7.28125,86.65625 7.2494249,86.5643 7.2454455,86.469419 7.21875,86.375 7.1884177,86.268382 7.1483606,86.171969 7.125,86.0625 7.0521214,85.720988 7,85.364295 7,85 L 7,83 7,15 7,13 C 7,10.218152 9.2181517,8 12,8 l 2,0 68,0 2,0 c 2.781848,0 5,2.218152 5,5 l 0,2 0,68 0,2 c 0,0.364295 -0.05212,0.720988 -0.125,1.0625 -0.04415,0.206893 -0.08838,0.397658 -0.15625,0.59375 -0.0077,0.02195 -0.0233,0.04069 -0.03125,0.0625 -0.06274,0.173739 -0.138383,0.367449 -0.21875,0.53125 -0.04158,0.0828 -0.07904,0.169954 -0.125,0.25 -0.0546,0.09721 -0.126774,0.18835 -0.1875,0.28125 -0.09411,0.140965 -0.204921,0.275995 -0.3125,0.40625 -0.143174,0.17445 -0.303141,0.346998 -0.46875,0.5 -0.01117,0.0102 -0.01998,0.02115 -0.03125,0.03125 -0.138386,0.125556 -0.285091,0.234436 -0.4375,0.34375 -0.102571,0.07315 -0.204318,0.153364 -0.3125,0.21875 -0.0074,0.0045 -0.02384,-0.0044 -0.03125,0 -0.232039,0.138728 -0.462548,0.274778 -0.71875,0.375 0.301527,-0.0968 0.596455,-0.204138 0.875,-0.34375 0.55709,-0.279224 1.060053,-0.665694 1.5,-1.09375 0.219973,-0.214028 0.409366,-0.441865 0.59375,-0.6875 0.184384,-0.245635 0.355408,-0.507743 0.5,-0.78125 0.14012,-0.265048 0.276135,-0.524729 0.375,-0.8125 0.01041,-0.03078 0.02133,-0.06274 0.03125,-0.09375 0.09046,-0.278085 0.1388,-0.579404 0.1875,-0.875 C 89.95865,84.6507 90,84.334721 90,84 l 0,-2 0,-68 0,-2 C 90,8.676 87.324,6 84,6 L 12,6 z"
       inkscape:connector-curvature="0"
       id="rect3728"
       style="opacity:0.29999999999999999;fill:url(#linearGradient3188);fill-opacity:1;fill-rule:nonzero;stroke:none;stroke-width:17.7;stroke-miterlimit:4;stroke-dasharray:none" />
    <path
       d="M 12,90 C 8.676,90 6,87.324 6,84 L 6,82 6,14 6,12 c 0,-0.334721 0.04135,-0.6507 0.09375,-0.96875 0.0487,-0.295596 0.09704,-0.596915 0.1875,-0.875 C 6.29113,10.12587 6.302142,10.09265 6.3125,10.0625 6.411365,9.774729 6.5473802,9.515048 6.6875,9.25 6.8320918,8.976493 7.0031161,8.714385 7.1875,8.46875 7.3718839,8.223115 7.5612765,7.995278 7.78125,7.78125 8.221197,7.353194 8.72416,6.966724 9.28125,6.6875 9.559795,6.547888 9.8547231,6.440553 10.15625,6.34375 9.9000482,6.443972 9.6695391,6.580022 9.4375,6.71875 c -0.00741,0.0044 -0.023866,-0.0045 -0.03125,0 -0.031933,0.0193 -0.062293,0.04251 -0.09375,0.0625 -0.120395,0.0767 -0.2310226,0.163513 -0.34375,0.25 -0.1061728,0.0808 -0.2132809,0.161112 -0.3125,0.25 C 8.4783201,7.442683 8.3087904,7.626638 8.15625,7.8125 8.0486711,7.942755 7.9378561,8.077785 7.84375,8.21875 7.818661,8.25713 7.805304,8.30462 7.78125,8.34375 7.716487,8.446782 7.6510225,8.548267 7.59375,8.65625 7.4927417,8.850956 7.3880752,9.071951 7.3125,9.28125 7.30454,9.30306 7.288911,9.3218 7.28125,9.34375 7.2494249,9.4357 7.2454455,9.530581 7.21875,9.625 7.1884177,9.731618 7.1483606,9.828031 7.125,9.9375 7.0521214,10.279012 7,10.635705 7,11 l 0,2 0,68 0,2 c 0,2.781848 2.2181517,5 5,5 l 2,0 68,0 2,0 c 2.781848,0 5,-2.218152 5,-5 l 0,-2 0,-68 0,-2 C 89,10.635705 88.94788,10.279012 88.875,9.9375 88.83085,9.730607 88.78662,9.539842 88.71875,9.34375 88.71105,9.3218 88.69545,9.30306 88.6875,9.28125 88.62476,9.107511 88.549117,8.913801 88.46875,8.75 88.42717,8.6672 88.38971,8.580046 88.34375,8.5 88.28915,8.40279 88.216976,8.31165 88.15625,8.21875 88.06214,8.077785 87.951329,7.942755 87.84375,7.8125 87.700576,7.63805 87.540609,7.465502 87.375,7.3125 87.36383,7.3023 87.35502,7.29135 87.34375,7.28125 87.205364,7.155694 87.058659,7.046814 86.90625,6.9375 86.803679,6.86435 86.701932,6.784136 86.59375,6.71875 c -0.0074,-0.0045 -0.02384,0.0044 -0.03125,0 -0.232039,-0.138728 -0.462548,-0.274778 -0.71875,-0.375 0.301527,0.0968 0.596455,0.204138 0.875,0.34375 0.55709,0.279224 1.060053,0.665694 1.5,1.09375 0.219973,0.214028 0.409366,0.441865 0.59375,0.6875 0.184384,0.245635 0.355408,0.507743 0.5,0.78125 0.14012,0.265048 0.276135,0.524729 0.375,0.8125 0.01041,0.03078 0.02133,0.06274 0.03125,0.09375 0.09046,0.278085 0.1388,0.579404 0.1875,0.875 C 89.95865,11.3493 90,11.665279 90,12 l 0,2 0,68 0,2 c 0,3.324 -2.676,6 -6,6 l -72,0 z"
       inkscape:connector-curvature="0"
       id="path3615"
       style="opacity:0.15;fill:url(#radialGradient3619);fill-opacity:1;fill-rule:nonzero;stroke:none" />
  </g>
  <g
     id="layer3"
     transform="matrix(1.1361843,0,0,1.1134869,-6.5291051,-4.6963852)">
    <path
       d="m 48,12.96875 c -19.744437,0 -35.84375,16.098566 -35.84375,35.84375 0,19.745188 16.099315,35.84375 35.84375,35.84375 19.744444,0 35.84375,-16.098563 35.84375,-35.84375 C 83.84375,29.067319 67.744445,12.96875 48,12.96875 z m 0,26.9375 c 4.965389,-10e-7 8.90625,3.940615 8.90625,8.90625 0,4.965629 -3.940862,8.90625 -8.90625,8.90625 -4.965388,0 -8.90625,-3.940621 -8.90625,-8.90625 0,-4.965635 3.940861,-8.90625 8.90625,-8.90625 z"
       id="path3964"
       style="opacity:0.05;fill:#000000;fill-opacity:1;fill-rule:evenodd;stroke:none;display:inline"
       inkscape:connector-curvature="0" />
    <path
       d="M 48,14 C 28.815867,14 13.1875,29.627625 13.1875,48.8125 13.1875,67.99738 28.815868,83.625 48,83.625 67.184141,83.625 82.8125,67.997379 82.8125,48.8125 82.8125,29.627627 67.184142,14 48,14 z m 0,24.875 c 5.516568,-10e-7 9.9375,4.42068 9.9375,9.9375 0,5.516815 -4.420932,9.9375 -9.9375,9.9375 -5.516568,0 -9.9375,-4.420685 -9.9375,-9.9375 0,-5.51682 4.420932,-9.9375 9.9375,-9.9375 z"
       id="path3960"
       style="opacity:0.07999998;fill:#000000;fill-opacity:1;fill-rule:evenodd;stroke:none;display:inline"
       inkscape:connector-curvature="0" />
    <path
       d="M 48,15 C 29.350384,15 14.1875,30.162147 14.1875,48.8125 14.1875,67.462858 29.350385,82.625 48,82.625 66.649625,82.625 81.8125,67.462858 81.8125,48.8125 81.8125,30.162148 66.649625,15 48,15 z m 0,22.875 c 6.048054,-10e-7 10.9375,4.889189 10.9375,10.9375 C 58.9375,54.860807 54.048054,59.75 48,59.75 41.951946,59.75 37.0625,54.860807 37.0625,48.8125 37.0625,42.764189 41.951946,37.875 48,37.875 z"
       id="path3956"
       style="opacity:0.15;fill:#000000;fill-opacity:1;fill-rule:evenodd;stroke:none;display:inline"
       inkscape:connector-curvature="0" />
    <path
       d="m 47.99946,15.802438 c -18.21479,0 -32.99781,14.783615 -32.99781,32.999138 0,18.215529 14.78302,32.999144 32.99781,32.999144 18.2148,0 32.99781,-14.783615 32.99781,-32.999144 0,-18.215523 -14.78301,-32.999138 -32.99781,-32.999138 z m 0,21.253683 c 6.48323,-10e-7 11.74498,5.261964 11.74498,11.745455 0,6.483487 -5.26175,11.745448 -11.74498,11.745448 -6.48323,0 -11.74498,-5.261961 -11.74498,-11.745448 0,-6.483491 5.26175,-11.745455 11.74498,-11.745455 z"
       inkscape:connector-curvature="0"
       id="path3950"
       style="opacity:0.3;fill:#000000;fill-opacity:1;fill-rule:evenodd;stroke:none;display:inline" />
    <path
       d="m 47.999459,32.560449 c -8.411692,0 -15.240514,6.829099 -15.240514,15.241127 0,8.412027 6.828822,15.241125 15.240514,15.241125 8.411692,0 15.240518,-6.829089 15.240518,-15.241125 0,-8.412028 -6.828826,-15.241126 -15.240518,-15.241127 z m 0,10.766668 c 2.469804,-1e-6 4.47428,2.004558 4.47428,4.474459 0,2.469902 -2.004476,4.474452 -4.47428,4.474452 -2.469807,0 -4.474278,-2.00455 -4.474278,-4.474452 0,-2.469902 2.004477,-4.474459 4.474278,-4.474459 z"
       inkscape:connector-curvature="0"
       id="path3307"
       style="opacity:0.3;fill:#ffffff;fill-opacity:1;fill-rule:evenodd;stroke:none;display:inline" />
    <path
       d="m 92.579506,61.92226 a 32.685513,27.208481 0 1 1 -65.371025,0 32.685513,27.208481 0 1 1 65.371025,0 z"
       transform="matrix(0,0.26689125,-0.32060318,0,67.851938,31.816392)"
       id="path3328"
       style="opacity:0.3;fill:url(#radialGradient3348);fill-opacity:1;fill-rule:evenodd;stroke:none;display:inline"
       inkscape:connector-curvature="0" />
    <path
       d="m 92.579506,61.92226 a 32.685513,27.208481 0 1 1 -65.371025,0 32.685513,27.208481 0 1 1 65.371025,0 z"
       transform="matrix(0,0.12447512,-0.14952564,0,57.258424,40.346265)"
       id="path3352"
       style="opacity:0.6;fill:none;stroke:url(#linearGradient3368);stroke-width:7.32994747;stroke-linecap:round;stroke-linejoin:miter;stroke-miterlimit:4;stroke-opacity:1;stroke-dasharray:none;stroke-dashoffset:0;display:inline"
       inkscape:connector-curvature="0" />
    <path
       d="m 47.999459,14.802438 c -18.214793,0 -32.997812,14.783615 -32.997812,32.999138 0,18.215529 14.78302,32.999144 32.997812,32.999144 18.214799,0 32.997811,-14.783615 32.997811,-32.999144 0,-18.215523 -14.783012,-32.999138 -32.997811,-32.999138 z m 0,21.253683 c 6.483232,-10e-7 11.744979,5.261964 11.744979,11.745455 0,6.483487 -5.261747,11.745448 -11.744979,11.745448 -6.48323,0 -11.744983,-5.261961 -11.744983,-11.745448 0,-6.483491 5.261753,-11.745455 11.744983,-11.745455 z"
       inkscape:connector-curvature="0"
       id="path3170"
       style="fill:url(#linearGradient3178);fill-opacity:1;fill-rule:evenodd;stroke:none;display:inline" />
    <path
       d="M 64.498367,19.421119 C 48.723891,10.313356 28.529911,15.724536 19.422516,31.499643 10.31512,47.274749 15.726081,67.46954 31.500553,76.577309 47.275024,85.685069 67.469009,80.273884 76.576406,64.498783 85.683803,48.723675 80.272841,28.528883 64.498367,19.421119 z M 53.871952,37.827347 c 5.614646,3.241747 7.540577,10.429725 4.298964,16.044593 -3.24162,5.61487 -10.429308,7.54088 -16.043948,4.299132 -5.614643,-3.241739 -7.54058,-10.429721 -4.298963,-16.044589 3.241612,-5.614868 10.429303,-7.54088 16.043947,-4.299136 z"
       inkscape:connector-curvature="0"
       id="path3230"
       style="opacity:0.8;fill:url(#linearGradient3239);fill-opacity:1;fill-rule:evenodd;stroke:none;display:inline" />
    <path
       d="m 92.579506,61.92226 a 32.685513,27.208481 0 1 1 -65.371025,0 32.685513,27.208481 0 1 1 65.371025,0 z"
       transform="matrix(0.45095579,0,0,0.54175426,20.989915,14.354928)"
       id="path3304"
       style="opacity:0.15;fill:none;stroke:#000000;stroke-width:6.06950235;stroke-linecap:round;stroke-linejoin:miter;stroke-miterlimit:4;stroke-opacity:1;stroke-dasharray:none;stroke-dashoffset:0;display:inline"
       inkscape:connector-curvature="0" />
    <g
       transform="matrix(0.34353541,-0.44136012,0.44134237,0.34354921,-70.641524,0.81170919)"
       id="g3289"
       style="display:inline">
      <g
         clip-path="url(#clipPath3271)"
         id="g3266">
        <path
           d="M 74.118027,277.11735 C 106.19881,271.5322 127.70249,240.96275 122.11734,208.88198 116.5322,176.8012 85.962749,155.29751 53.881978,160.88266 21.801203,166.46781 0.29750806,197.03725 5.8826547,229.11804 11.4678,261.19881 42.037246,282.70249 74.118027,277.11735 z m -6.516698,-37.43151 c -11.41858,1.98793 -22.299227,-5.66593 -24.287158,-17.08451 -1.987941,-11.41857 5.665921,-22.29923 17.084499,-24.28716 11.41858,-1.98793 22.299233,5.66593 24.28717,17.08451 1.987924,11.41857 -5.665932,22.29923 -17.084511,24.28716 z"
           inkscape:connector-curvature="0"
           id="path3259"
           style="fill:url(#linearGradient3917);fill-opacity:1;fill-rule:evenodd;stroke:none;display:inline" />
        <path
           d="M 94.776853,269.3268 C 122.55724,252.33798 131.31561,216.00355 114.32679,188.22315 97.337964,160.44278 61.003543,151.6844 33.223145,168.67322 5.4427579,185.66204 -3.3156068,221.99648 13.673211,249.77686 30.662035,277.55725 66.996455,286.31562 94.776853,269.3268 z M 74.954469,236.91293 c -9.88793,6.04687 -22.820523,2.92947 -28.867393,-6.95846 -6.046863,-9.88793 -2.929476,-22.82053 6.958454,-28.86739 9.887938,-6.04686 22.820537,-2.92949 28.867401,6.95845 6.046855,9.88793 2.929476,22.82053 -6.958462,28.8674 z"
           inkscape:connector-curvature="0"
           id="path3231"
           style="fill:url(#linearGradient3919);fill-opacity:1;fill-rule:evenodd;stroke:none;display:inline" />
        <path
           d="m 36.153689,271.00561 c 28.707102,15.37117 64.480751,4.54779 79.851921,-24.1593 15.37116,-28.70708 4.5478,-64.48074 -24.159308,-79.85191 -28.707087,-15.37116 -64.480736,-4.5478 -79.851909,24.15931 -15.371173,28.70708 -4.5478122,64.48073 24.159296,79.8519 z m 17.934913,-33.49512 c -10.217773,-5.4711 -14.070163,-18.2041 -8.599064,-28.42189 5.471077,-10.21777 18.204079,-14.07015 28.421859,-8.59906 10.217787,5.47108 14.07017,18.2041 8.599071,28.42186 -5.471084,10.21778 -18.204093,14.07016 -28.421866,8.59909 z"
           inkscape:connector-curvature="0"
           id="path3243"
           style="fill:url(#linearGradient3921);fill-opacity:1;fill-rule:evenodd;stroke:none;display:inline" />
      </g>
      <g
         transform="matrix(1,0,0,-1,0,438.00336)"
         clip-path="url(#clipPath3271)"
         id="g3275">
        <path
           d="M 74.118027,277.11735 C 106.19881,271.5322 127.70249,240.96275 122.11734,208.88198 116.5322,176.8012 85.962749,155.29751 53.881978,160.88266 21.801203,166.46781 0.29750806,197.03725 5.8826547,229.11804 11.4678,261.19881 42.037246,282.70249 74.118027,277.11735 z m -6.516698,-37.43151 c -11.41858,1.98793 -22.299227,-5.66593 -24.287158,-17.08451 -1.987941,-11.41857 5.665921,-22.29923 17.084499,-24.28716 11.41858,-1.98793 22.299233,5.66593 24.28717,17.08451 1.987924,11.41857 -5.665932,22.29923 -17.084511,24.28716 z"
           inkscape:connector-curvature="0"
           id="path3277"
           style="fill:url(#linearGradient3923);fill-opacity:1;fill-rule:evenodd;stroke:none;display:inline" />
        <path
           d="M 94.776853,269.3268 C 122.55724,252.33798 131.31561,216.00355 114.32679,188.22315 97.337964,160.44278 61.003543,151.6844 33.223145,168.67322 5.4427579,185.66204 -3.3156068,221.99648 13.673211,249.77686 30.662035,277.55725 66.996455,286.31562 94.776853,269.3268 z M 74.954469,236.91293 c -9.88793,6.04687 -22.820523,2.92947 -28.867393,-6.95846 -6.046863,-9.88793 -2.929476,-22.82053 6.958454,-28.86739 9.887938,-6.04686 22.820537,-2.92949 28.867401,6.95845 6.046855,9.88793 2.929476,22.82053 -6.958462,28.8674 z"
           inkscape:connector-curvature="0"
           id="path3279"
           style="fill:url(#linearGradient3925);fill-opacity:1;fill-rule:evenodd;stroke:none;display:inline" />
        <path
           d="m 36.153689,271.00561 c 28.707102,15.37117 64.480751,4.54779 79.851921,-24.1593 15.37116,-28.70708 4.5478,-64.48074 -24.159308,-79.85191 -28.707087,-15.37116 -64.480736,-4.5478 -79.851909,24.15931 -15.371173,28.70708 -4.5478122,64.48073 24.159296,79.8519 z m 17.934913,-33.49512 c -10.217773,-5.4711 -14.070163,-18.2041 -8.599064,-28.42189 5.471077,-10.21777 18.204079,-14.07015 28.421859,-8.59906 10.217787,5.47108 14.07017,18.2041 8.599071,28.42186 -5.471084,10.21778 -18.204093,14.07016 -28.421866,8.59909 z"
           inkscape:connector-curvature="0"
           id="path3281"
           style="fill:url(#linearGradient3927);fill-opacity:1;fill-rule:evenodd;stroke:none;display:inline" />
      </g>
    </g>
    <path
       d="m 48,14.8125 c -18.21479,0 -33,14.784477 -33,33 0,0.337404 0.02118,0.665023 0.03125,1 0.524228,-17.758011 15.085217,-32 32.96875,-32 17.883543,0 32.444523,14.241989 32.96875,32 0.01007,-0.334977 0.03125,-0.662596 0.03125,-1 0,-18.215523 -14.7852,-33 -33,-33 z"
       inkscape:connector-curvature="0"
       id="path3933"
       style="opacity:0.8;fill:#ffffff;fill-opacity:1;fill-rule:evenodd;stroke:none;display:inline" />
    <path
       d="m 57.777126,47.805036 c 0,-5.302035 -4.330452,-9.687945 -9.78283,-9.687945 -5.452378,0 -9.772231,4.38591 -9.772231,9.687945 0,5.302035 4.319853,9.679122 9.772231,9.679122 5.452378,0 9.78283,-4.377087 9.78283,-9.679122 z m -1.102291,0 c 0,4.891566 -3.939727,8.770325 -8.680539,8.770325 -4.740812,0 -8.66994,-3.878759 -8.66994,-8.770325 0,-4.891566 3.929128,-8.779149 8.66994,-8.779149 4.740812,0 8.680539,3.887583 8.680539,8.779149 z"
       inkscape:connector-curvature="0"
       id="path3942"
       style="font-size:medium;font-style:normal;font-variant:normal;font-weight:normal;font-stretch:normal;text-indent:0;text-align:start;text-decoration:none;line-height:normal;letter-spacing:normal;word-spacing:normal;text-transform:none;direction:ltr;block-progression:tb;writing-mode:lr-tb;text-anchor:start;opacity:0.5;color:#000000;fill:url(#linearGradient3948);fill-opacity:1;stroke:none;stroke-width:3.23149872;marker:none;visibility:visible;display:inline;overflow:visible;enable-background:accumulate;font-family:Abandoned Bitplane;-inkscape-font-specification:Abandoned Bitplane" />
  </g>
  <g
     id="layer5"
     style="display:inline"
     transform="matrix(1.0562185,0,0,1.0173055,23.22144,4.8956389)">
    <rect
       width="66"
       height="66"
       rx="12"
       ry="12"
       x="15"
       y="15"
       clip-path="url(#clipPath3613)"
       id="rect3171"
       style="opacity:0.1;fill:url(#linearGradient3613);fill-opacity:1;fill-rule:nonzero;stroke:#ffffff;stroke-width:0.5;stroke-linecap:round;stroke-linejoin:miter;stroke-miterlimit:4;stroke-opacity:1;stroke-dasharray:none;stroke-dashoffset:0;filter:url(#filter3794)" />
    <g
       style="display:inline"
       id="layer6-8"
       transform="matrix(1.2847458,0,0,1.2709285,-56.383179,-38.865083)">
      <path
         d="m 72.85762,55.307565 c -11.060103,0 -20,8.93989 -20,20 0,11.06011 8.939897,20 20,20 11.060103,0 20,-8.93989 20,-20 0,-11.06011 -8.939897,-20 -20,-20 z"
         id="path3950-1"
         style="opacity:0.05;fill:#000000;fill-opacity:1;stroke:none;display:inline"
         inkscape:connector-curvature="0" />
      <path
         d="m 71.887028,55.613148 c -10.515528,0 -19,8.48447 -19,19 0,10.51553 8.484472,19 19,19 10.515528,0 19,-8.48447 19,-19 0,-10.51553 -8.484472,-19 -19,-19 z"
         id="path3946"
         style="opacity:0.15;fill:#000000;fill-opacity:1;stroke:none;display:inline"
         inkscape:connector-curvature="0" />
      <rect
         width="36"
         height="36"
         rx="18"
         ry="18"
         x="50"
         y="118"
         transform="matrix(0.99499329,0.09994171,-0.09994171,0.99499329,17.848466,-64.646557)"
         clip-path="url(#clipPath3871-0)"
         id="rect3859"
         style="opacity:0.31000001;fill:#000000;fill-opacity:1;stroke:none;display:inline" />
      <path
         d="m 72.100125,57.444895 a 18,18 0 1 1 0,35.999999 18,18 0 1 1 0,-35.999999 z"
         id="path3836"
         style="fill:url(#linearGradient4162);fill-opacity:1;stroke:none"
         inkscape:connector-curvature="0" />
      <path
         d="m 80.165175,91.864364 a 0.92847237,0.92847237 0 0 0 0.124204,-0.03428 c -0.01163,0.0029 0.135523,-0.03815 0.124203,-0.03428 -0.01131,0.0039 0.135139,-0.03912 0.124204,-0.03428 -0.01089,0.0049 0.133917,-0.0713 0.123444,-0.06552 -0.01046,0.0058 0.102124,-0.07143 0.09215,-0.06476 -0.0099,0.0066 0.132744,-0.07304 0.123444,-0.06552 -0.0088,0.0075 0.100055,-0.104299 0.09139,-0.096 -0.0088,0.0083 0.0993,-0.105022 0.09139,-0.096 -0.0078,0.009 0.06727,-0.104914 0.0602,-0.09524 -0.0068,0.0097 0.0976,-0.10625 0.09139,-0.096 -0.0058,0.01024 0.06468,-0.137231 0.05944,-0.126482 -0.0047,0.01074 0.03248,-0.136889 0.02815,-0.125721 -0.0047,0.01118 0.06352,-0.10674 0.0602,-0.09524 -0.0037,0.0115 0.03047,-0.137463 0.02815,-0.125722 -0.0027,0.01175 -0.0013,-0.136868 -0.003,-0.124963 -0.0017,0.0119 0.02836,-0.137678 0.02815,-0.125721 -1.41e-4,0.009 -0.0014,-0.05698 -0.0023,-0.09372 -2.78e-4,-0.01225 -9.72e-4,-0.03423 -7.6e-4,-0.03124 l -0.297719,-12.246382 3.530207,-0.08582 c -0.01,2.07e-4 0.103294,-0.0032 0.09367,-0.0023 -0.01,8.82e-4 0.102448,-0.03506 0.09291,-0.03352 -0.01,0.0015 0.134312,-0.0053 0.124963,-0.003 -0.0089,0.0022 0.102136,-0.03637 0.09291,-0.03352 -0.0089,0.0028 0.10191,-0.03702 0.09291,-0.03352 -0.0089,0.0035 0.101645,-0.03763 0.09291,-0.03352 -0.0089,0.0041 0.100571,-0.06947 0.09215,-0.06476 -0.0079,0.0047 0.100986,-0.03882 0.09291,-0.03352 -0.0079,0.0053 0.06862,-0.06985 0.06096,-0.064 -0.0079,0.0059 0.0994,-0.07113 0.09215,-0.06476 -0.0068,0.0064 0.0677,-0.07086 0.06096,-0.064 -0.0068,0.0069 0.09768,-0.103313 0.09139,-0.096 -0.0058,0.0073 0.06668,-0.07173 0.06096,-0.064 -0.0058,0.0077 0.06531,-0.103355 0.0602,-0.09524 -0.0048,0.0081 0.03351,-0.102938 0.02891,-0.09448 -0.0048,0.0084 0.06419,-0.103998 0.0602,-0.09524 -0.0038,0.0088 0.03305,-0.07225 0.02967,-0.06324 -0.0038,0.009 0.03093,-0.134948 0.02815,-0.125721 -0.0028,0.0093 0.03099,-0.103872 0.02891,-0.09448 -0.0018,0.0093 0.03028,-0.103991 0.02891,-0.09448 -0.0018,0.0095 -0.0016,-0.103306 -0.0023,-0.09372 -6.96e-4,0.0096 -0.0023,-0.10333 -0.0023,-0.09372 -1.7e-5,0.0096 -0.0037,-0.134549 -0.003,-0.124963 6.53e-4,0.0096 -0.0035,-0.103241 -0.0023,-0.09372 0.0012,0.0095 -0.0045,-0.103116 -0.0023,-0.09372 0.0022,0.0093 -0.0362,-0.102198 -0.03347,-0.09296 0.0022,0.0092 -0.03679,-0.10199 -0.03347,-0.09296 0.0032,0.009 -0.03738,-0.101737 -0.03347,-0.09296 0.0042,0.0088 -0.06927,-0.10068 -0.06476,-0.0922 0.0042,0.0085 -0.03867,-0.101099 -0.03347,-0.09296 0.0052,0.0082 -0.07045,-0.09996 -0.06476,-0.0922 0.0052,0.0078 -0.07094,-0.09954 -0.06476,-0.0922 L 74.37801,62.152487 c 0.0021,0.0024 0.01045,-0.01853 -7.6e-4,-0.03124 -0.01687,-0.01906 -0.03513,-0.03385 -0.03195,-0.03048 0.0051,0.0056 -0.06953,-0.06627 -0.064,-0.06096 0.0051,0.0053 -0.06982,-0.06595 -0.064,-0.06096 0.0061,0.005 -0.07012,-0.06562 -0.064,-0.06096 0.0061,0.0047 -0.06965,-0.03402 -0.06324,-0.02972 0.0061,0.0044 -0.0706,-0.06489 -0.064,-0.06096 0.0071,0.0039 -0.101291,-0.03252 -0.09443,-0.02896 0.0071,0.0035 -0.07022,-0.03289 -0.06324,-0.02972 0.0071,0.0031 -0.07041,-0.03249 -0.06324,-0.02972 0.0071,0.0027 -0.101792,-0.03133 -0.09443,-0.02896 0.0071,0.0023 -0.07069,-0.03167 -0.06324,-0.02972 0.007,0.0019 -0.102011,-0.03049 -0.09443,-0.02896 0.007,0.0015 -0.07011,4.04e-4 -0.06248,0.0015 0.008,0.0011 -0.102131,-0.02964 -0.09443,-0.02896 0.008,6.68e-4 -0.07019,0.0013 -0.06248,0.0015 0.008,2.38e-4 -0.1014,0.0025 -0.09367,0.0023 0.008,-1.94e-4 -0.10138,0.0029 -0.09367,0.0023 0.008,-6.27e-4 -0.07006,0.0026 -0.06248,0.0015 0.008,-0.0011 -0.100499,0.03499 -0.09291,0.03352 0.008,-0.0015 -0.06994,0.0034 -0.06248,0.0015 0.007,-0.0019 -0.100289,0.03583 -0.09291,0.03352 0.0069,-0.0023 -0.06886,0.03547 -0.06172,0.03276 0.0069,-0.0027 -0.09998,0.03663 -0.09291,0.03352 0.0069,-0.0031 -0.06854,0.03627 -0.06172,0.03276 0.0069,-0.0035 -0.06833,0.03664 -0.06172,0.03276 0.0069,-0.0039 -0.09936,0.03777 -0.09291,0.03352 0.0059,-0.0042 -0.06715,0.0686 -0.06096,0.064 0.0059,-0.0046 -0.0676,0.0377 -0.06172,0.03276 0.0059,-0.0049 -0.06654,0.06927 -0.06096,0.064 0.0059,-0.0052 -0.06623,0.06957 -0.06096,0.064 0.0049,-0.0055 -0.06592,0.06986 -0.06096,0.064 0.0029,-0.0035 -0.01451,0.01214 -0.03043,0.032 -0.01058,0.01324 -0.0012,0.03369 7.6e-4,0.03124 L 61.465938,76.189193 c 0.0058,-0.0076 -0.06551,0.103266 -0.0602,0.09524 0.0048,-0.008 -0.0649,0.103617 -0.0602,0.09524 0.0048,-0.0084 -0.0331,0.103169 -0.02891,0.09448 0.0038,-0.0087 -0.06369,0.104195 -0.0602,0.09524 0.0038,-0.009 -0.03179,0.103657 -0.02891,0.09448 0.0028,-0.0092 -0.03119,0.103837 -0.02891,0.09448 0.0018,-0.0093 -0.03048,0.103966 -0.02891,0.09448 0.0018,-0.0094 0.0015,0.10329 0.0023,0.09372 7.69e-4,-0.0095 0.0021,0.103328 0.0023,0.09372 1.86e-4,-0.0096 0.0035,0.134559 0.003,0.124963 -4.84e-4,-0.0096 0.0034,0.10326 0.0023,0.09372 -0.0012,-0.0096 0.0045,0.103145 0.0023,0.09372 -0.0022,-0.0094 0.03599,0.102243 0.03347,0.09296 -0.0022,-0.0092 0.03669,0.102044 0.03347,0.09296 -0.0032,-0.0091 0.03805,0.133043 0.03423,0.124205 -0.0042,-0.0088 0.03712,0.07028 0.03271,0.06172 -0.0042,-0.0086 0.06976,0.100427 0.06476,0.0922 -0.0052,-0.0082 0.03906,0.100818 0.03347,0.09296 -0.0052,-0.0079 0.07084,0.09965 0.06476,0.0922 -0.0062,-0.0075 0.07057,0.06796 0.064,0.06096 -0.0062,-0.0071 0.103062,0.09796 0.09595,0.09144 -0.0072,-0.0065 0.07155,0.06697 0.064,0.06096 -0.0071,-0.006 0.103146,0.06567 0.09519,0.0602 -0.0081,-0.0055 0.07232,0.06586 0.064,0.06096 -0.0081,-0.0049 0.103068,0.03326 0.09443,0.02896 -0.0081,-0.0043 0.104114,0.06389 0.09519,0.0602 -0.0091,-0.0037 0.103588,0.03202 0.09443,0.02896 -0.0091,-0.0031 0.103783,0.03137 0.09443,0.02896 -0.0091,-0.0024 0.103927,0.03071 0.09443,0.02896 -0.009,-0.0018 0.134512,-0.002 0.124963,-0.003 -0.01003,-0.0011 0.104085,0.02937 0.09443,0.02896 -0.01001,-3.95e-4 0.103329,-0.0025 0.09367,-0.0023 l 3.530207,-0.08582 0.29772,12.246382 7.59e-4,0.03124 c 6.25e-4,0.02322 0.0018,0.06709 0.0015,0.06248 -3.48e-4,-0.0069 0.0022,0.06936 0.0015,0.06248 -6.98e-4,-0.0069 0.03378,0.06856 0.03271,0.06172 -10e-4,-0.0069 0.0034,0.100498 0.0023,0.09372 -0.0012,-0.0068 0.0037,0.06916 0.0015,0.06248 -0.0022,-0.0066 0.03487,0.06831 0.03271,0.06172 -0.0022,-0.0065 0.03517,0.06821 0.03271,0.06172 -0.0022,-0.0064 0.03622,0.09932 0.03347,0.09296 -0.0032,-0.0063 0.03576,0.06793 0.03271,0.06172 -0.0032,-0.0062 0.03606,0.06776 0.03271,0.06172 -0.0031,-0.006 0.03645,0.06759 0.03271,0.06172 -0.0041,-0.0059 0.03675,0.0674 0.03271,0.06172 -0.0041,-0.0057 0.03694,0.06719 0.03271,0.06172 -0.0041,-0.0055 0.06853,0.06621 0.064,0.06096 -0.0041,-0.0053 0.03677,0.0355 0.03195,0.03048 -0.0051,-0.005 0.06902,0.06573 0.064,0.06096 -0.0051,-0.0048 0.06921,0.06547 0.064,0.06096 -0.0051,-0.0045 0.03745,0.03472 0.03195,0.03048 -0.0051,-0.0043 0.0697,0.06492 0.064,0.06096 -0.0061,-0.004 0.06913,0.03338 0.06324,0.02972 -0.0061,-0.0037 0.06932,0.03308 0.06324,0.02972 -0.0061,-0.0034 0.06942,0.03277 0.06324,0.02972 -0.0061,-0.0031 0.06961,0.03246 0.06324,0.02972 -0.0061,-0.0028 0.0697,0.03213 0.06324,0.02972 -0.0061,-0.0025 0.101075,0.03104 0.09443,0.02896 -0.0071,-0.002 0.06989,0.03147 0.06324,0.02972 -0.007,-0.0017 0.06998,0.03113 0.06324,0.02972 -0.007,-0.0014 0.06931,-4.85e-4 0.06248,-0.0015 -0.007,-0.001 0.100602,-0.0016 0.09367,-0.0023 -0.007,-7.08e-4 0.07015,0.03008 0.06324,0.02972 -0.007,-3.59e-4 0.06938,-0.0015 0.06248,-0.0015 -0.005,0 0.03929,-0.001 0.06248,-0.0015 l 0.03119,-7.59e-4 11.902733,-0.289365 c -0.005,-2.09e-4 0.03477,-0.0017 0.06248,-0.0015 -0.003,-9.2e-5 0.01738,-8.11e-4 0.03119,-7.58e-4 -0.005,1.22e-4 0.03481,-6.7e-5 0.06248,-0.0015 -0.003,7.3e-5 0.01741,2.1e-5 0.03119,-7.58e-4 0.02767,-0.0016 0.06797,-0.002 0.06248,-0.0015 z"
         id="path3884"
         style="opacity:0.05;fill:url(#linearGradient4164);fill-opacity:1;fill-rule:nonzero;stroke:none;display:inline"
         inkscape:connector-curvature="0" />
      <path
         d="m 122,61.5 0,13.75 -5,0 11,13.75 11,-13.75 -5,0 0,-13.75 -12,0 z"
         inkscape:connector-curvature="0"
         transform="matrix(-0.99996817,0.00797804,-0.00797804,-0.99996817,200.77874,148.46988)"
         clip-path="url(#clipPath3894)"
         id="path3886"
         style="opacity:0.3;fill:url(#linearGradient4166);fill-opacity:1;fill-rule:nonzero;stroke:none;display:inline" />
      <path
         d="m 77.92787,89.631233 a 0.51873381,0.51873381 0 0 0 0.463918,-0.535475 L 78.272027,75.87755 82.740593,75.83706 a 0.51873381,0.51873381 0 0 0 0.398589,-0.847396 L 72.01506,61.339891 a 0.51873381,0.51873381 0 0 0 -0.812467,0.0074 l -10.874974,13.84909 a 0.51873381,0.51873381 0 0 0 0.413877,0.840035 l 4.468567,-0.04049 0.11976,13.218207 a 0.51873381,0.51873381 0 0 0 0.536042,0.526416 l 11.999508,-0.10872 a 0.51873381,0.51873381 0 0 0 0.0625,-5.27e-4 z"
         id="path3876"
         style="opacity:0.15;fill:url(#linearGradient4168);fill-opacity:1;fill-rule:nonzero;stroke:none;display:inline"
         inkscape:connector-curvature="0" />
      <path
         d="m 78.289051,89.430386 -0.08214,-13.749755 4.999912,-0.02987 -11.081947,-13.684041 -10.917661,13.815468 4.999911,-0.02987 0.08214,13.749754 11.999787,-0.07169 z"
         inkscape:connector-curvature="0"
         id="path3867"
         style="fill:url(#linearGradient4170);fill-opacity:1;fill-rule:nonzero;stroke:none;display:inline" />
      <g
         id="g4106"
         style="display:inline"
         transform="translate(3.9737547,1.0730136)">
        <path
           d="m 68,56 c -9.941125,0 -18,8.058875 -18,18 0,3.6617 1.09067,7.063961 2.96875,9.90625 C 51.722125,81.541769 51,78.858787 51,76 c 0,-9.388841 7.611159,-17 17,-17 9.388841,0 17,7.611159 17,17 0,2.858787 -0.722125,5.541769 -1.96875,7.90625 C 84.90933,81.063961 86,77.6617 86,74 86,64.058875 77.941125,56 68,56 z"
           inkscape:connector-curvature="0"
           id="path3846"
           style="opacity:0.3;fill:url(#linearGradient4172);fill-opacity:1;stroke:none" />
        <path
           d="m 68,56 c -9.94112,0 -18,8.05887 -18,18 0,0.168593 0.02664,0.33252 0.03125,0.5 C 50.298212,64.79197 58.227473,57 68,57 c 9.73052,0 17.63723,7.725255 17.96875,17.375 l 0,-1 C 85.63723,63.725255 77.73052,56 68,56 z"
           inkscape:connector-curvature="0"
           id="path4097"
           style="opacity:0.3;fill:#ffffff;fill-opacity:1;stroke:none;display:inline" />
      </g>
    </g>
  </g>
</svg>
