<?xml version="1.0" encoding="UTF-8" standalone="no"?>
<!-- Created with Inkscape (http://www.inkscape.org/) -->

<svg
   xmlns:dc="http://purl.org/dc/elements/1.1/"
   xmlns:cc="http://creativecommons.org/ns#"
   xmlns:rdf="http://www.w3.org/1999/02/22-rdf-syntax-ns#"
   xmlns:svg="http://www.w3.org/2000/svg"
   xmlns="http://www.w3.org/2000/svg"
   xmlns:xlink="http://www.w3.org/1999/xlink"
   xmlns:sodipodi="http://sodipodi.sourceforge.net/DTD/sodipodi-0.dtd"
   xmlns:inkscape="http://www.inkscape.org/namespaces/inkscape"
   version="1.0"
   width="96"
   height="96"
   id="svg2408"
   inkscape:version="0.48.3.1 r9886"
   sodipodi:docname="blender.svg">
  <sodipodi:namedview
     pagecolor="#ffffff"
     bordercolor="#666666"
     borderopacity="1"
     objecttolerance="10"
     gridtolerance="10"
     guidetolerance="10"
     inkscape:pageopacity="0"
     inkscape:pageshadow="2"
     inkscape:window-width="1366"
     inkscape:window-height="715"
     id="namedview113"
     showgrid="false"
     inkscape:zoom="2.4583333"
     inkscape:cx="48"
     inkscape:cy="6.7438551"
     inkscape:window-x="0"
     inkscape:window-y="26"
     inkscape:window-maximized="1"
     inkscape:current-layer="svg2408" />
  <defs
     id="defs2410">
    <linearGradient
       id="linearGradient4100">
      <stop
         id="stop4102"
         style="stop-color:#000000;stop-opacity:0.07874016"
         offset="0" />
      <stop
         id="stop4114"
         style="stop-color:#000000;stop-opacity:0.2992126"
         offset="0.04629445" />
      <stop
         id="stop4110"
         style="stop-color:#000000;stop-opacity:0.55905509"
         offset="0.30670184" />
      <stop
         id="stop4108"
         style="stop-color:#000000;stop-opacity:0.11811024"
         offset="0.30873707" />
      <stop
         id="stop4112"
         style="stop-color:#000000;stop-opacity:0.32283464"
         offset="0.65267593" />
      <stop
         id="stop4104"
         style="stop-color:#000000;stop-opacity:0.57480317"
         offset="1" />
    </linearGradient>
    <linearGradient
       id="linearGradient4077">
      <stop
         id="stop4079"
         style="stop-color:#000000;stop-opacity:0.11023622"
         offset="0" />
      <stop
         id="stop4085"
         style="stop-color:#000000;stop-opacity:0.40157479"
         offset="0.17512569" />
      <stop
         id="stop4081"
         style="stop-color:#000000;stop-opacity:0.52755904"
         offset="1" />
    </linearGradient>
    <linearGradient
       id="linearGradient4384">
      <stop
         id="stop4386"
         style="stop-color:#ffffff;stop-opacity:1"
         offset="0" />
      <stop
         id="stop4388"
         style="stop-color:#ffffff;stop-opacity:0"
         offset="1" />
    </linearGradient>
    <linearGradient
       id="linearGradient4367">
      <stop
         id="stop4369"
         style="stop-color:#ffffff;stop-opacity:0.71755725"
         offset="0" />
      <stop
         id="stop4371"
         style="stop-color:#ffffff;stop-opacity:1"
         offset="1" />
    </linearGradient>
    <linearGradient
       x1="45.447727"
       y1="92.539597"
       x2="45.447727"
       y2="7.0165396"
       id="ButtonShadow"
       gradientUnits="userSpaceOnUse"
       gradientTransform="scale(1.0058652,0.994169)">
      <stop
         id="stop3750"
         style="stop-color:#000000;stop-opacity:1"
         offset="0" />
      <stop
         id="stop3752"
         style="stop-color:#000000;stop-opacity:0.58823532"
         offset="1" />
    </linearGradient>
    <linearGradient
       id="linearGradient3737">
      <stop
         id="stop3739"
         style="stop-color:#ffffff;stop-opacity:1"
         offset="0" />
      <stop
         id="stop3741"
         style="stop-color:#ffffff;stop-opacity:0"
         offset="1" />
    </linearGradient>
    <filter
       color-interpolation-filters="sRGB"
       id="filter3174">
      <feGaussianBlur
         id="feGaussianBlur3176"
         stdDeviation="1.71" />
    </filter>
    <filter
       x="-0.192"
       y="-0.192"
       width="1.3839999"
       height="1.3839999"
       color-interpolation-filters="sRGB"
       id="filter3794">
      <feGaussianBlur
         id="feGaussianBlur3796"
         stdDeviation="5.28" />
    </filter>
    <linearGradient
       x1="48"
       y1="20.220806"
       x2="48"
       y2="138.66119"
       id="linearGradient3613"
       xlink:href="#linearGradient3737"
       gradientUnits="userSpaceOnUse" />
    <linearGradient
       x1="45.447727"
       y1="92.539597"
       x2="45.447727"
       y2="7.0165396"
       id="ButtonShadow-0"
       gradientUnits="userSpaceOnUse"
       gradientTransform="matrix(1.0058652,0,0,0.994169,100,0)">
      <stop
         id="stop3750-8"
         style="stop-color:#000000;stop-opacity:1"
         offset="0" />
      <stop
         id="stop3752-5"
         style="stop-color:#000000;stop-opacity:0.58823532"
         offset="1" />
    </linearGradient>
    <linearGradient
       x1="32.251034"
       y1="6.1317081"
       x2="32.251034"
       y2="90.238609"
       id="linearGradient3780"
       xlink:href="#ButtonShadow-0"
       gradientUnits="userSpaceOnUse"
       gradientTransform="matrix(1.0238095,0,0,1.0119048,-1.1428571,-98.071429)" />
    <linearGradient
       x1="32.251034"
       y1="6.1317081"
       x2="32.251034"
       y2="90.238609"
       id="linearGradient3772"
       xlink:href="#ButtonShadow-0"
       gradientUnits="userSpaceOnUse"
       gradientTransform="matrix(1.0238095,0,0,1.0119048,-1.1428571,-98.071429)" />
    <linearGradient
       x1="32.251034"
       y1="6.1317081"
       x2="32.251034"
       y2="90.238609"
       id="linearGradient3725"
       xlink:href="#ButtonShadow-0"
       gradientUnits="userSpaceOnUse"
       gradientTransform="matrix(1.0238095,0,0,1.0119048,-1.1428571,-98.071429)" />
    <linearGradient
       x1="32.251034"
       y1="6.1317081"
       x2="32.251034"
       y2="90.238609"
       id="linearGradient3721"
       xlink:href="#ButtonShadow-0"
       gradientUnits="userSpaceOnUse"
       gradientTransform="translate(0,-97)" />
    <linearGradient
       x1="32.251034"
       y1="6.1317081"
       x2="32.251034"
       y2="90.238609"
       id="linearGradient3026"
       xlink:href="#ButtonShadow-0"
       gradientUnits="userSpaceOnUse"
       gradientTransform="matrix(1.0238095,0,0,1.0119048,-1.1428571,-98.071429)" />
    <clipPath
       id="clipPath4355">
      <rect
         width="84"
         height="80"
         rx="6"
         ry="6"
         x="6"
         y="6"
         id="rect4357"
         style="fill:#ffffff;fill-opacity:1;fill-rule:nonzero;stroke:none" />
    </clipPath>
    <radialGradient
       cx="48"
       cy="87.792389"
       r="42"
       fx="48"
       fy="87.792389"
       id="radialGradient4375"
       xlink:href="#linearGradient4367"
       gradientUnits="userSpaceOnUse"
       gradientTransform="matrix(1,-6.7114942e-8,8.4282233e-8,1.2557894,109.99999,-24.505592)" />
    <linearGradient
       x1="48"
       y1="88"
       x2="48"
       y2="-40"
       id="linearGradient4390"
       xlink:href="#linearGradient4384"
       gradientUnits="userSpaceOnUse"
       gradientTransform="matrix(1,0,0,-1.05,0,96.3)" />
    <linearGradient
       x1="48"
       y1="82"
       x2="112.12357"
       y2="82.454597"
       id="linearGradient4429"
       xlink:href="#linearGradient4384"
       gradientUnits="userSpaceOnUse"
       spreadMethod="reflect"
       gradientTransform="translate(0,4)" />
    <linearGradient
       id="linearGradient3892">
      <stop
         id="stop3894"
         style="stop-color:#000000;stop-opacity:0.58823532"
         offset="0" />
      <stop
         id="stop3896"
         style="stop-color:#000000;stop-opacity:0.47058824"
         offset="0.11780351" />
      <stop
         id="stop3898"
         style="stop-color:#000000;stop-opacity:0.39215687"
         offset="0.23809524" />
      <stop
         id="stop3900"
         style="stop-color:#000000;stop-opacity:0.3137255"
         offset="1" />
    </linearGradient>
    <linearGradient
       x1="90"
       y1="88"
       x2="48"
       y2="88"
       id="linearGradient3228"
       xlink:href="#linearGradient3892"
       gradientUnits="userSpaceOnUse"
       spreadMethod="reflect"
       gradientTransform="translate(-94,0)" />
    <linearGradient
       x1="58.650177"
       y1="122"
       x2="58.650177"
       y2="5.4252338"
       id="ButtonColor"
       gradientUnits="userSpaceOnUse"
       gradientTransform="matrix(1.0172414,0,0,1.0172414,-1.1034483,-1.1034483)">
      <stop
         id="stop3189"
         style="stop-color:#264b79;stop-opacity:1"
         offset="0" />
      <stop
         id="stop3191"
         style="stop-color:#6087b8;stop-opacity:1"
         offset="1" />
    </linearGradient>
    <linearGradient
       x1="48"
       y1="90"
       x2="48"
       y2="5.9877172"
       id="linearGradient3124"
       xlink:href="#ButtonColor"
       gradientUnits="userSpaceOnUse" />
    <linearGradient
       id="linearGradient39171-9">
      <stop
         id="stop39173-8"
         style="stop-color:#ffffff;stop-opacity:1"
         offset="0" />
      <stop
         id="stop39175-1"
         style="stop-color:#ffffff;stop-opacity:0"
         offset="1" />
    </linearGradient>
    <radialGradient
       cx="78.563553"
       cy="64.285774"
       r="11.647734"
       fx="78.563553"
       fy="64.285774"
       id="radialGradient3700-6"
       xlink:href="#linearGradient4941-3"
       gradientUnits="userSpaceOnUse"
       gradientTransform="matrix(0.68045048,0,0,0.61944217,1.352129,4.368083)" />
    <linearGradient
       id="linearGradient4941-3">
      <stop
         id="stop4943-9"
         style="stop-color:#3f78c2;stop-opacity:1"
         offset="0" />
      <stop
         id="stop4945-3"
         style="stop-color:#2d578e;stop-opacity:1"
         offset="1" />
    </linearGradient>
    <linearGradient
       x1="31.1875"
       y1="18.875"
       x2="29.875"
       y2="34.375"
       id="linearGradient6135-5"
       xlink:href="#linearGradient39155-6"
       gradientUnits="userSpaceOnUse" />
    <linearGradient
       id="linearGradient39155-6">
      <stop
         id="stop39157-1"
         style="stop-color:#ffffff;stop-opacity:1"
         offset="0" />
      <stop
         id="stop39159-7"
         style="stop-color:#dadada;stop-opacity:1"
         offset="1" />
    </linearGradient>
    <linearGradient
       x1="79.464706"
       y1="52.145687"
       x2="79.464706"
       y2="94.974709"
       id="linearGradient3707-2"
       xlink:href="#linearGradient4949-2"
       gradientUnits="userSpaceOnUse"
       gradientTransform="matrix(0.68045048,0,0,0.68045048,1.352129,0.255594)" />
    <linearGradient
       id="linearGradient4949-2">
      <stop
         id="stop4951-9"
         style="stop-color:#ed6800;stop-opacity:1"
         offset="0" />
      <stop
         id="stop4953-2"
         style="stop-color:#fd9400;stop-opacity:1"
         offset="1" />
    </linearGradient>
    <linearGradient
       x1="21.65625"
       y1="34.203125"
       x2="37.823311"
       y2="34.203125"
       id="linearGradient4083"
       xlink:href="#linearGradient4077"
       gradientUnits="userSpaceOnUse" />
    <linearGradient
       x1="42.137947"
       y1="22.081572"
       x2="51.192928"
       y2="29.093733"
       id="linearGradient4093"
       xlink:href="#linearGradient4077"
       gradientUnits="userSpaceOnUse" />
    <linearGradient
       x1="12.968286"
       y1="59.500015"
       x2="76.842064"
       y2="59.500015"
       id="linearGradient4106"
       xlink:href="#linearGradient4100"
       gradientUnits="userSpaceOnUse" />
    <linearGradient
       x1="79.464706"
       y1="52.145687"
       x2="79.464706"
       y2="94.974709"
       id="linearGradient4136"
       xlink:href="#linearGradient39171-9"
       gradientUnits="userSpaceOnUse"
       gradientTransform="matrix(0.68045048,0,0,0.68045048,1.352129,0.255594)" />
  </defs>
  <metadata
     id="metadata2413">
    <rdf:RDF>
      <cc:Work
         rdf:about="">
        <dc:format>image/svg+xml</dc:format>
        <dc:type
           rdf:resource="http://purl.org/dc/dcmitype/StillImage" />
        <dc:title />
      </cc:Work>
    </rdf:RDF>
  </metadata>
  <g
     id="layer2"
     style="display:none">
    <rect
       width="86"
       height="85"
       rx="6"
       ry="6"
       x="5"
       y="7"
       id="rect3745"
       style="opacity:0.9;fill:url(#ButtonShadow);fill-opacity:1;fill-rule:nonzero;stroke:none;filter:url(#filter3174)" />
  </g>
  <g
     id="layer3"
     style="display:inline">
    <path
       d="m 12,-95.03125 c -5.5110903,0 -10.03125,4.52016 -10.03125,10.03125 l 0,71 c 0,5.5110902 4.5201598,10.03125 10.03125,10.03125 l 72,0 c 5.51109,0 10.03125,-4.5201597 10.03125,-10.03125 l 0,-71 c 0,-5.51109 -4.52016,-10.03125 -10.03125,-10.03125 l -72,0 z"
       transform="scale(1,-1)"
       id="path3786"
       style="opacity:0.07999998;fill:url(#linearGradient3026);fill-opacity:1;fill-rule:nonzero;stroke:none;display:inline" />
    <path
       d="m 12,-94.03125 c -4.971633,0 -9.03125,4.059617 -9.03125,9.03125 l 0,71 c 0,4.9716329 4.0596171,9.03125 9.03125,9.03125 l 72,0 c 4.971633,0 9.03125,-4.059617 9.03125,-9.03125 l 0,-71 c 0,-4.971633 -4.059617,-9.03125 -9.03125,-9.03125 l -72,0 z"
       transform="scale(1,-1)"
       id="path3778"
       style="opacity:0.1;fill:url(#linearGradient3780);fill-opacity:1;fill-rule:nonzero;stroke:none;display:inline" />
    <path
       d="m 12,-93 c -4.4091333,0 -8,3.590867 -8,8 l 0,71 c 0,4.4091333 3.5908667,8 8,8 l 72,0 c 4.409133,0 8,-3.5908667 8,-8 l 0,-71 c 0,-4.409133 -3.590867,-8 -8,-8 l -72,0 z"
       transform="scale(1,-1)"
       id="path3770"
       style="opacity:0.2;fill:url(#linearGradient3772);fill-opacity:1;fill-rule:nonzero;stroke:none;display:inline" />
    <rect
       width="86"
       height="85"
       rx="7"
       ry="7"
       x="5"
       y="-92"
       transform="scale(1,-1)"
       id="rect3723"
       style="opacity:0.3;fill:url(#linearGradient3725);fill-opacity:1;fill-rule:nonzero;stroke:none;display:inline" />
    <rect
       width="84"
       height="84"
       rx="6"
       ry="6"
       x="6"
       y="-91"
       transform="scale(1,-1)"
       id="rect3716"
       style="opacity:0.45;fill:url(#linearGradient3721);fill-opacity:1;fill-rule:nonzero;stroke:none;display:inline" />
  </g>
  <g
     id="layer1">
    <rect
       width="84"
       height="84"
       rx="6"
       ry="6"
       x="6"
       y="6"
       id="rect2419-4"
       style="fill:url(#linearGradient3124);fill-opacity:1;fill-rule:nonzero;stroke:none;display:inline" />
    <path
       d="M 12,90 C 8.676,90 6,87.1902 6,83.7 L 6,12.3 C 6,8.8098 8.676,6 12,6 l 72,0 c 3.324,0 6,2.8098 6,6.3 l 0,71.4 c 0,3.4902 -2.676,6.3 -6,6.3 z m 0,-1.017188 72,0 c 2.80489,0 5.03125,-2.337678 5.03125,-5.282812 l 0,-71.4 C 89.03125,9.3548655 86.80489,7.0171875 84,7.0171875 l -72,0 c -2.8048898,0 -5.03125,2.337678 -5.03125,5.2828125 l 0,71.4 c 0,2.945134 2.2263602,5.282812 5.03125,5.282812 z"
       inkscape:connector-curvature="0"
       id="rect4377"
       style="opacity:0.2;fill:url(#linearGradient4390);fill-opacity:1;fill-rule:nonzero;stroke:none" />
    <path
       d="m 6,82 0,2 c 0,3.324 2.676,6 6,6 l 72,0 c 3.324,0 6,-2.676 6,-6 l 0,-2 c 0,3.324 -2.676,6 -6,6 L 12,88 C 8.676,88 6,85.324 6,82 z"
       inkscape:connector-curvature="0"
       id="rect4414"
       style="opacity:0.07999998;fill:url(#linearGradient4429);fill-opacity:1;fill-rule:nonzero;stroke:none" />
  </g>
  <g
     id="layer4"
     style="display:inline"
     transform="translate(0,2)">
    <path
       d="m 6,82 0,2 c 0,3.324 2.676,6 6,6 l 72,0 c 3.324,0 6,-2.676 6,-6 l 0,-2 c 0,3.324 -2.676,6 -6,6 L 12,88 C 8.676,88 6,85.324 6,82 z"
       inkscape:connector-curvature="0"
       id="rect4345"
       style="opacity:0.1;color:#000000;fill:#000000;fill-opacity:1;fill-rule:nonzero;stroke:none;stroke-width:1.5;marker:none;visibility:visible;display:inline;overflow:visible;enable-background:accumulate" />
    <path
       d="m 6,83 0,1 c 0,3.324 2.676,6 6,6 l 72,0 c 3.324,0 6,-2.676 6,-6 l 0,-1 c 0,3.324 -2.676,6 -6,6 L 12,89 C 8.676,89 6,86.324 6,83 z"
       inkscape:connector-curvature="0"
       id="rect4336"
       style="opacity:0.15;color:#000000;fill:#000000;fill-opacity:1;fill-rule:nonzero;stroke:none;stroke-width:1.5;marker:none;visibility:visible;display:inline;overflow:visible;enable-background:accumulate" />
  </g>
  <g
     id="layer5"
     style="display:none">
    <rect
       width="66"
       height="62"
       rx="12"
       ry="12"
       x="15"
       y="15"
       clip-path="url(#clipPath4355)"
       id="rect3171"
       style="opacity:0.1;fill:url(#linearGradient3613);fill-opacity:1;fill-rule:nonzero;stroke:#ffffff;stroke-width:0.5;stroke-linecap:round;stroke-linejoin:miter;stroke-miterlimit:4;stroke-opacity:1;stroke-dasharray:none;stroke-dashoffset:0;filter:url(#filter3794)" />
  </g>
  <g
     id="layer6">
    <path
       d="m 46.59375,15.09375 c -3.946642,-0.184224 -7.410356,3.310148 -6.875,7.3125 -5.5e-5,0.02166 -2.04e-4,0.04094 0,0.0625 0.0047,0.03269 -0.0053,0.061 0,0.09375 l 0.03125,0 c 0.04034,1.412997 0.664302,2.545211 1.46875,3.53125 -5.261323,0.0054 -10.544675,-0.06587 -15.84375,0.09375 a 1.0671748,1.0671748 0 0 0 -0.03125,0 c -4.014628,0.246265 -7.017441,3.892774 -6.71875,7.84375 l -0.03125,0 c -0.0051,0.04215 0.0042,0.08283 0,0.125 0.004,0.04263 -0.0048,0.08231 0,0.125 l 0.03125,0 c -0.2784,3.459064 2.152091,6.886016 5.8125,7.125 l 0,0.03125 c 0.03193,0.002 0.06163,-0.0015 0.09375,0 0.03492,0.0017 0.05862,0.03016 0.09375,0.03125 l 0,-0.03125 c 0.495489,0.07449 1.000197,0.113446 1.53125,0.09375 -4.303936,3.194248 -8.703572,6.318799 -12.96875,9.59375 -3.6871381,2.915123 -4.1703453,8.361566 -2.03125,12.21875 a 1.0671748,1.0671748 0 0 0 0.09375,0.125 c 1.541355,1.961209 3.869646,2.645847 6.0625,2.4375 2.155091,-0.204759 4.2501,-1.200551 5.75,-2.71875 l 0.09375,-0.0625 7.0625,-5.8125 c 2.06303,8.807053 10.105586,15.349234 18.71875,17.09375 0.0096,0.0019 0.02168,-0.0019 0.03125,0 C 60.701492,77.071137 74.226773,70.936581 78.5,59.3125 80.441877,54.003029 80.347751,48.068442 78.75,42.75 77.080807,37.207837 72.902773,33.12545 68.46875,30 c -0.01157,-0.0089 -0.01968,-0.02239 -0.03125,-0.03125 -5.787277,-4.432913 -11.673929,-8.924979 -17.40625,-13.3125 -0.02292,-0.01754 -0.03958,-0.04496 -0.0625,-0.0625 l 0,0.03125 c -1.197715,-1.066933 -2.816994,-1.52125 -4.3125,-1.53125 -0.02007,-1.34e-4 -0.04248,-1.9e-5 -0.0625,0 z"
       id="path4132"
       style="opacity:0.05;fill:#000000;fill-opacity:1;fill-rule:evenodd;stroke:none" />
    <path
       d="m 46.59375,16.15625 c -3.342872,-0.189486 -6.355832,2.868014 -5.8125,6.25 -0.0051,2.023414 1.475042,3.62786 3,4.75 -6.123907,0.0492 -12.256578,-0.09056 -18.375,0.09375 -3.471073,0.212922 -6.136332,3.473063 -5.75,6.90625 -0.361688,3.017085 1.817586,6.151311 5,6.25 1.49141,0.295874 6.483747,-0.689533 3.28125,1.09375 -4.687011,3.50162 -9.464816,6.914495 -14.09375,10.46875 -3.199307,2.529434 -3.644955,7.426796 -1.75,10.84375 2.602608,3.311539 7.6525,2.2924 10.28125,-0.4375 l 8.5,-6.96875 C 32.112729,64.570653 40.398062,71.605838 49.1875,73.375 60.403011,75.937581 73.435234,69.994523 77.5,58.9375 79.349113,53.881663 79.257114,48.183261 77.71875,43.0625 76.146003,37.840564 72.158145,33.900915 67.8125,30.84375 61.990562,26.384308 56.077505,21.849969 50.3125,17.4375 49.380683,16.583579 47.89189,16.155016 46.59375,16.15625 z"
       id="path4128"
       style="opacity:0.1;fill:#000000;fill-opacity:1;fill-rule:evenodd;stroke:none" />
    <path
       d="m 46.59375,17.15625 c -1.074759,0.0014 -2.174211,0.294291 -3.09375,0.9375 -1.45929,1.016797 -1.753577,2.601578 -1.71875,3.84375 0.01472,0.524864 0.04264,1.08016 0.21875,1.6875 0.176108,0.60734 0.549989,1.219973 1.15625,1.71875 a 0.99094804,0.99094804 0 0 0 0,0.03125 c 1.160956,0.914571 2.335919,1.849266 3.5,2.78125 l -19.96875,0 c -1.593852,0 -2.965303,0.393854 -4,1.125 -1.034697,0.731146 -1.686704,1.802759 -1.90625,3.03125 -0.104807,0.586476 -0.125,1.114585 -0.125,1.65625 l 0,0.75 c 0,1.053842 0.241354,2.214661 1,3.15625 0.758646,0.941589 2.049895,1.5625 3.6875,1.5625 2.346015,0.0031 4.704169,0.0014 7.0625,0 l -17.75,13.125 a 0.99094804,0.99094804 0 0 0 0,0.03125 c 0.06885,-0.05233 0.03436,-0.03487 -0.09375,0.0625 a 0.99094804,0.99094804 0 0 0 -0.03125,0 c -2.10279,1.657496 -2.548016,3.821705 -2.5625,5.78125 -0.0093,1.253001 0.07403,2.611026 0.90625,3.71875 a 0.99094804,0.99094804 0 0 0 0,0.03125 c 1.799601,2.300507 5.377955,2.224234 7.90625,0.1875 l 10.75,-8.78125 c 0.01748,1.028787 0.320999,2.597823 0.75,3.96875 a 0.99094804,0.99094804 0 0 0 0,0.03125 c 0.881396,2.804112 2.363797,5.373478 4.4375,7.65625 2.127281,2.342424 4.742915,4.232907 7.75,5.5625 3.162391,1.39633 6.576344,2.13061 10.125,2.125 3.548036,-0.0075 6.992927,-0.74871 10.15625,-2.15625 3.002444,-1.341173 5.625013,-3.214912 7.75,-5.5625 2.065693,-2.28811 3.554223,-4.875629 4.4375,-7.6875 0.448994,-1.428747 0.728408,-2.870839 0.84375,-4.3125 a 0.99094804,0.99094804 0 0 0 0,-0.03125 c 0.06557,-0.838361 0.07565,-1.679295 0.03125,-2.53125 -5.48e-4,-0.01052 5.67e-4,-0.02073 0,-0.03125 0.0015,-0.03113 -0.0014,-0.06262 0,-0.09375 C 77.864529,49.334882 77.79667,48.140979 77.625,46.9375 77.229897,44.153783 76.259459,41.498063 74.78125,39.125 73.426343,36.948391 71.689082,35.066694 69.625,33.46875 L 49.84375,18.3125 c 0.01656,0.02185 -0.0692,-0.037 -0.125,-0.09375 L 49.6875,18.1875 49.65625,18.15625 c -0.01341,-0.01202 -0.01861,-0.02096 -0.03125,-0.03125 -0.01138,-0.0087 -0.0198,-0.02269 -0.03125,-0.03125 -0.866211,-0.647832 -1.934178,-0.938961 -3,-0.9375 z"
       id="path4120"
       style="opacity:0.15;fill:#000000;fill-opacity:1;fill-rule:evenodd;stroke:none" />
    <path
       d="m 46.59375,18.15625 c -0.894186,0.0012 -1.811967,0.246868 -2.53125,0.75 -1.161515,0.809315 -1.306499,1.860278 -1.274619,2.997332 0.02931,1.045308 0.05406,1.917389 0.993369,2.690168 1.904889,1.500623 3.811946,3.032897 5.71875,4.5625 l -22.8125,0 c -2.87825,0 -4.5809,1.348364 -4.9375,3.34375 -0.08809,0.492931 -0.07915,0.941873 -0.07915,1.476545 0,0.162104 0,0.550932 0,0.742276 0,1.788676 0.849207,3.718679 3.672901,3.718679 3.363152,0.0044 6.743403,0.008 10.125,0 L 15.25,53.375 c -0.02963,0.02252 -0.06412,0.03998 -0.09375,0.0625 -1.855041,1.462211 -2.185587,3.163482 -2.199263,5.013676 -0.0088,1.185658 0.115223,2.333939 0.699263,3.111324 1.384999,1.770503 4.311082,1.79459 6.5,0.03125 L 32.53125,51.5 c 9.5e-5,0.01891 -2.81e-4,0.04411 0,0.0625 0.0028,0.164643 0.04063,0.376282 0.0625,0.59375 0.0057,0.05673 -0.0069,0.09668 0,0.15625 -0.0379,0.41712 -0.06813,0.881478 -0.0625,1.25 0.01411,0.830373 0.291197,2.452313 0.6875,3.71875 0.839178,2.669797 2.238592,5.132704 4.21875,7.3125 2.030954,2.236355 4.550425,4.03597 7.4375,5.3125 3.037952,1.341385 6.305653,2.036646 9.71875,2.03125 3.413097,-0.0072 6.713487,-0.711385 9.75,-2.0625 2.885954,-1.289138 5.376724,-3.070373 7.40625,-5.3125 1.975715,-2.188444 3.410896,-4.672503 4.25,-7.34375 0.424608,-1.351147 0.671126,-2.717313 0.78125,-4.09375 0.06572,-0.84022 0.08133,-1.688631 0.03125,-2.53125 0.05834,-1.179749 0.01201,-2.351677 -0.15625,-3.53125 C 76.281105,44.419396 75.346352,41.91797 73.9375,39.65625 72.64527,37.580329 71.007328,35.779814 69.03125,34.25 L 49.0625,18.9375 c -0.01698,-0.01408 -0.01283,-0.01859 -0.03125,-0.03125 -0.655829,-0.501037 -1.543314,-0.751226 -2.4375,-0.75 z"
       inkscape:connector-curvature="0"
       id="path4116"
       style="opacity:0.3;fill:#000000;fill-opacity:1;fill-rule:evenodd;stroke:none" />
    <path
       d="m 46.59375,17.15625 c -0.894186,0.0012 -1.811967,0.246868 -2.53125,0.75 -1.161515,0.809315 -1.306499,1.860278 -1.274619,2.997332 0.02931,1.045308 0.05406,1.917389 0.993369,2.690168 1.904889,1.500623 3.811946,3.032897 5.71875,4.5625 l -22.8125,0 c -2.87825,0 -4.5809,1.348364 -4.9375,3.34375 -0.08809,0.492931 -0.07915,0.941873 -0.07915,1.476545 0,0.162104 0,0.550932 0,0.742276 0,1.788676 0.849207,3.718679 3.672901,3.718679 3.363152,0.0044 6.743403,0.008 10.125,0 L 15.25,52.375 c -0.02963,0.02252 -0.06412,0.03998 -0.09375,0.0625 -1.855041,1.462211 -2.185587,3.163482 -2.199263,5.013676 -0.0088,1.185658 0.115223,2.333939 0.699263,3.111324 1.384999,1.770503 4.311082,1.79459 6.5,0.03125 L 32.53125,50.5 c 9.5e-5,0.01891 -2.81e-4,0.04411 0,0.0625 0.0028,0.164643 0.04063,0.376282 0.0625,0.59375 0.0057,0.05673 -0.0069,0.09668 0,0.15625 -0.0379,0.41712 -0.06813,0.881478 -0.0625,1.25 0.01411,0.830373 0.291197,2.452313 0.6875,3.71875 0.839178,2.669797 2.238592,5.132704 4.21875,7.3125 2.030954,2.236355 4.550425,4.03597 7.4375,5.3125 3.037952,1.341385 6.305653,2.036646 9.71875,2.03125 3.413097,-0.0072 6.713487,-0.711385 9.75,-2.0625 2.885954,-1.289138 5.376724,-3.070373 7.40625,-5.3125 1.975715,-2.188444 3.410896,-4.672503 4.25,-7.34375 0.424608,-1.351147 0.671126,-2.717313 0.78125,-4.09375 0.06572,-0.84022 0.08133,-1.688631 0.03125,-2.53125 0.05834,-1.179749 0.01201,-2.351677 -0.15625,-3.53125 C 76.281105,43.419396 75.346352,40.91797 73.9375,38.65625 72.64527,36.580329 71.007328,34.779814 69.03125,33.25 L 49.0625,17.9375 c -0.01698,-0.01408 -0.01283,-0.01859 -0.03125,-0.03125 -0.655829,-0.501037 -1.543314,-0.751226 -2.4375,-0.75 z"
       inkscape:connector-curvature="0"
       id="path4013"
       style="fill:#cf5d00;fill-opacity:1;fill-rule:evenodd;stroke:none" />
    <path
       d="M 21.09375,48.0625 15.25,52.375 c -0.02963,0.02252 -0.06412,0.03998 -0.09375,0.0625 -1.855041,1.462211 -2.173824,3.149806 -2.1875,5 -0.0088,1.185658 0.10346,2.347615 0.6875,3.125 1.384999,1.770503 4.311082,1.79459 6.5,0.03125 L 32.53125,50.5 c 9.5e-5,0.01891 -2.81e-4,0.04411 0,0.0625 0.0028,0.164643 0.04063,0.376282 0.0625,0.59375 0.0057,0.05673 -0.0069,0.09668 0,0.15625 -0.0379,0.41712 -0.06813,0.881478 -0.0625,1.25 0.01411,0.830373 0.291197,2.452313 0.6875,3.71875 0.839178,2.669797 2.238592,5.132704 4.21875,7.3125 2.030954,2.236355 4.550425,4.03597 7.4375,5.3125 3.037952,1.341385 6.305653,2.036646 9.71875,2.03125 3.413097,-0.0072 6.713487,-0.711385 9.75,-2.0625 2.885954,-1.289138 5.376724,-3.070373 7.40625,-5.3125 1.975715,-2.188444 3.410896,-4.672503 4.25,-7.34375 0.424608,-1.351147 0.671126,-2.717313 0.78125,-4.09375 0.06572,-0.84022 0.08133,-1.688631 0.03125,-2.53125 0.02508,-0.507085 0.01497,-1.025827 0,-1.53125 l -55.71875,0 z"
       inkscape:connector-curvature="0"
       id="path4095"
       style="opacity:0.5;fill:url(#linearGradient4106);fill-opacity:1;fill-rule:evenodd;stroke:none" />
    <path
       d="m 46.59375,17.15625 c -0.894186,0.0012 -1.811967,0.246868 -2.53125,0.75 -1.161515,0.809315 -1.31313,1.862946 -1.28125,3 0.02931,1.045308 0.06069,1.914721 1,2.6875 1.904889,1.500623 3.811946,3.032897 5.71875,4.5625 l -9.34375,0 0,0.625 c 0,3.324 2.676,6 6,6 l 24.625,0 C 70.225388,34.244599 69.654656,33.73262 69.03125,33.25 L 49.0625,17.9375 c -0.01698,-0.01408 -0.01283,-0.01859 -0.03125,-0.03125 -0.655829,-0.501037 -1.543314,-0.751226 -2.4375,-0.75 z"
       inkscape:connector-curvature="0"
       id="path4069"
       style="opacity:0.3;fill:url(#linearGradient4093);fill-opacity:1;fill-rule:evenodd;stroke:none" />
    <path
       d="m 26.6875,28.15625 c -2.87825,0 -4.5809,1.348364 -4.9375,3.34375 -0.08809,0.492931 -0.09375,0.934078 -0.09375,1.46875 l 0,0.75 c 0,1.788676 0.863806,3.71875 3.6875,3.71875 3.363152,0.0044 6.743403,0.008 10.125,0 l -3.8125,2.8125 7.96875,0 c -0.04085,-0.283744 -0.0625,-0.579597 -0.0625,-0.875 l 0,-11.21875 -12.875,0 z"
       inkscape:connector-curvature="0"
       id="path4064"
       style="opacity:0.5;fill:url(#linearGradient4083);fill-opacity:1;fill-rule:evenodd;stroke:none" />
    <path
       d="m 32.525369,50.571206 c 0.01411,0.830373 0.283499,2.444833 0.679802,3.71127 0.839178,2.669797 2.260892,5.144319 4.24105,7.324115 2.030954,2.236355 4.528767,4.036405 7.415842,5.312935 3.037952,1.341385 6.327097,2.02666 9.740194,2.021264 3.413097,-0.0072 6.701988,-0.703663 9.738501,-2.054778 2.885954,-1.289138 5.383756,-3.093498 7.413282,-5.335625 1.975715,-2.188444 3.394679,-4.666925 4.233783,-7.338172 0.424608,-1.351147 0.688174,-2.720561 0.798298,-4.096998 0.105789,-1.352519 0.06063,-2.712093 -0.132505,-4.066016 -0.375145,-2.643104 -1.293318,-5.121553 -2.70217,-7.383273 -1.29223,-2.075921 -2.954911,-3.894304 -4.930989,-5.424118 0,0 0.0029,-0.0029 0.0029,-0.0029 0,0 -19.953955,-15.291479 -19.953955,-15.291479 -0.01698,-0.01408 -0.0325,-0.02815 -0.05092,-0.04081 -1.311658,-1.002074 -3.51329,-0.999264 -4.951856,0.007 -1.45836,1.01615 -1.575458,2.605181 -0.282139,3.669209 2.741305,2.15953 5.471814,4.417713 8.228307,6.576978 0,0 -25.326431,-0.01685 -25.326431,-0.01685 -2.87825,0 -4.571682,1.364916 -4.928282,3.360302 -0.314681,1.760778 1.079221,3.942669 3.578578,3.942669 4.266221,0.0056 8.574245,-0.0099 12.855666,-0.01831 0,0 -22.9456,16.939378 -22.9456,16.939378 -0.02963,0.02252 -0.05923,0.04223 -0.08886,0.06475 -2.160722,1.65358 -2.861669,4.405159 -1.500652,6.146117 1.384999,1.770503 4.325671,1.77194 6.514589,0.0086 0,0 12.521441,-10.226408 12.521441,-10.226408 0,0 -0.180529,1.382063 -0.16786,2.211033 z"
       inkscape:connector-curvature="0"
       id="path2482"
       style="fill:url(#linearGradient3707-2);fill-opacity:1;fill-rule:evenodd;stroke:none" />
    <path
       d="m 31.1875,15.125 c -6.626441,0 -12.0625,4.719285 -12.0625,10.625 0,5.905715 5.436059,10.625 12.0625,10.625 6.626441,0 12.0625,-4.719285 12.0625,-10.625 0,-5.905715 -5.436059,-10.625 -12.0625,-10.625 z"
       transform="matrix(1.1855687,0,0,1.2088161,17.846394,15.709856)"
       id="path4043"
       style="opacity:0.05;fill:#000000;fill-opacity:1;fill-rule:nonzero;stroke:none;stroke-width:1;marker:none;visibility:visible;display:inline;overflow:visible;enable-background:accumulate" />
    <path
       d="m 42.75,25.75 a 11.5625,10.125 0 1 1 -23.125,0 11.5625,10.125 0 1 1 23.125,0 z"
       transform="matrix(1.1855687,0,0,1.2088161,17.954506,16.250417)"
       id="path4047"
       style="opacity:0.1;fill:#000000;fill-opacity:1;fill-rule:nonzero;stroke:none;stroke-width:1;marker:none;visibility:visible;display:inline;overflow:visible;enable-background:accumulate" />
    <path
       d="m 42.75,25.75 a 11.5625,10.125 0 1 1 -23.125,0 11.5625,10.125 0 1 1 23.125,0 z"
       transform="matrix(1.1855687,0,0,1.2088161,17.846394,15.709856)"
       id="path39153"
       style="fill:url(#linearGradient6135-5);fill-opacity:1;fill-rule:nonzero;stroke:none;stroke-width:1;marker:none;visibility:visible;display:inline;overflow:visible;enable-background:accumulate" />
    <path
       d="m 46.895241,46.184475 c 0.107451,-1.959948 1.066773,-3.690002 2.508888,-4.914816 1.41918,-1.204031 3.324896,-1.939198 5.406603,-1.939198 2.080382,0 3.9861,0.735167 5.404949,1.939198 1.443706,1.224814 2.401868,2.953571 2.510575,4.913519 0.111362,2.017106 -0.696662,3.890036 -2.112859,5.277211 -1.443707,1.413145 -3.502214,2.300267 -5.802665,2.300267 -2.301774,0 -4.360282,-0.887122 -5.803922,-2.300267 -1.417655,-1.387175 -2.222895,-3.260105 -2.111569,-5.275914 z"
       inkscape:connector-curvature="0"
       id="path4060"
       style="opacity:0.1;fill:#000000;fill-opacity:1;fill-rule:evenodd;stroke:none" />
    <path
       d="m 46.895241,45.76276 c 0.107451,-1.959948 1.066773,-3.690002 2.508888,-4.914816 1.41918,-1.204031 3.324896,-1.939198 5.406603,-1.939198 2.080382,0 3.9861,0.735167 5.404949,1.939198 1.443706,1.224814 2.401868,2.953571 2.510575,4.913519 0.111362,2.017106 -0.696662,3.890036 -2.112859,5.277211 -1.443707,1.413145 -3.502214,2.300267 -5.802665,2.300267 -2.301774,0 -4.360282,-0.887122 -5.803922,-2.300267 -1.417655,-1.387175 -2.222895,-3.260105 -2.111569,-5.275914 z"
       inkscape:connector-curvature="0"
       id="path2478"
       style="fill:url(#radialGradient3700-6);fill-opacity:1;fill-rule:evenodd;stroke:none" />
    <path
       d="m 46.59375,17.15625 c -0.894186,0.0012 -1.811967,0.246868 -2.53125,0.75 -1.45836,1.01615 -1.574569,2.623472 -0.28125,3.6875 2.741305,2.15953 5.462257,4.403235 8.21875,6.5625 l -25.3125,0 c -2.87825,0 -4.5809,1.348364 -4.9375,3.34375 -0.314681,1.760778 1.094393,3.9375 3.59375,3.9375 4.266221,0.0056 8.562329,0.0084 12.84375,0 L 15.25,52.375 c -0.02963,0.02252 -0.06412,0.03998 -0.09375,0.0625 -2.160722,1.65358 -2.861017,4.384042 -1.5,6.125 1.384999,1.770503 4.311082,1.79459 6.5,0.03125 L 32.6875,48.375 c 0,0 -0.168919,1.35853 -0.15625,2.1875 0.01411,0.830373 0.291197,2.452313 0.6875,3.71875 0.839178,2.669797 2.238592,5.132704 4.21875,7.3125 2.030954,2.236355 4.550425,4.03597 7.4375,5.3125 3.037952,1.341385 6.305653,2.036646 9.71875,2.03125 3.413097,-0.0072 6.713487,-0.711385 9.75,-2.0625 2.885954,-1.289138 5.376724,-3.070373 7.40625,-5.3125 1.975715,-2.188444 3.410896,-4.672503 4.25,-7.34375 0.424608,-1.351147 0.671126,-2.717313 0.78125,-4.09375 0.105789,-1.352519 0.06813,-2.708577 -0.125,-4.0625 C 76.281105,43.419396 75.346352,40.91797 73.9375,38.65625 72.64527,36.580329 71.007328,34.779814 69.03125,33.25 L 49.0625,17.9375 c -0.01698,-0.01408 -0.01283,-0.01859 -0.03125,-0.03125 -0.655829,-0.501037 -1.543314,-0.751226 -2.4375,-0.75 z m 0,0.875 c 0.732537,-0.001 1.438618,0.205241 1.90625,0.5625 A 0.86250632,0.86250632 0 0 0 48.53125,18.625 L 68.5,33.9375 c 1.899481,1.470515 3.481073,3.199216 4.71875,5.1875 1.348485,2.164809 2.235976,4.541783 2.59375,7.0625 0.183979,1.289737 0.194804,2.583019 0.09375,3.875 -0.105582,1.319667 -0.315367,2.622645 -0.71875,3.90625 -0.79822,2.541095 -2.174078,4.903049 -4.0625,7 -1.946438,2.150336 -4.340437,3.881153 -7.125,5.125 -2.92614,1.302004 -6.110602,1.961798 -9.40625,1.96875 -3.295108,0.0052 -6.445358,-0.643938 -9.375,-1.9375 C 42.43613,64.894655 40.009613,63.144034 38.0625,61 c -1.898738,-2.090168 -3.228818,-4.415859 -4.03125,-6.96875 -0.367843,-1.17549 -0.613825,-2.811073 -0.625,-3.46875 -0.01066,-0.697459 0.125,-2.09375 0.125,-2.09375 a 0.86250632,0.86250632 0 0 0 -1.375,-0.75 L 19.625,57.9375 c -1.893529,1.525382 -4.257115,1.402946 -5.28125,0.09375 -0.501567,-0.641584 -0.629037,-1.447107 -0.40625,-2.34375 0.222787,-0.896643 0.815864,-1.847615 1.75,-2.5625 -0.04315,0.03279 0.0029,-0.01957 0.0625,-0.0625 l 0.03125,0 L 38.6875,36.125 a 0.86250632,0.86250632 0 0 0 -0.5,-1.5625 c -4.27991,0.0084 -8.57791,0.0056 -12.84375,0 -1.998629,0 -2.964584,-1.705556 -2.75,-2.90625 0.1424,-0.79681 0.53563,-1.414371 1.1875,-1.875 0.65187,-0.460629 1.601797,-0.75 2.90625,-0.75 l 25.3125,0 a 0.86250632,0.86250632 0 0 0 0.53125,-1.5625 c -2.733604,-2.141335 -5.447756,-4.37212 -8.1875,-6.53125 -0.01149,-0.0091 -0.01976,-0.0222 -0.03125,-0.03125 -0.43605,-0.375316 -0.589025,-0.771643 -0.5625,-1.125 0.02741,-0.365178 0.2495,-0.763965 0.8125,-1.15625 0.544972,-0.381203 1.294198,-0.592739 2.03125,-0.59375 z"
       inkscape:connector-curvature="0"
       id="path4018"
       style="opacity:0.15;fill:#ffffff;fill-opacity:1;fill-rule:evenodd;stroke:none" />
    <path
       d="m 54.8125,38.90625 c -2.081707,0 -3.98707,0.733469 -5.40625,1.9375 -1.442115,1.224814 -2.392549,2.946302 -2.5,4.90625 -0.01102,0.199481 -0.0066,0.3974 0,0.59375 0.107451,-1.959948 1.057885,-3.681436 2.5,-4.90625 1.41918,-1.204031 3.324543,-1.96875 5.40625,-1.96875 2.080382,0 3.987401,0.764719 5.40625,1.96875 1.443706,1.224814 2.391293,2.946302 2.5,4.90625 0.0067,-0.196455 0.01102,-0.394141 0,-0.59375 -0.108707,-1.959948 -1.056294,-3.681436 -2.5,-4.90625 -1.418849,-1.204031 -3.325868,-1.9375 -5.40625,-1.9375 z"
       inkscape:connector-curvature="0"
       id="path4051"
       style="opacity:0.1;fill:#ffffff;fill-opacity:1;fill-rule:evenodd;stroke:none" />
    <path
       d="m 46.59375,17.15625 c -0.894186,0.0012 -1.811967,0.246868 -2.53125,0.75 -1.45836,1.01615 -1.574569,2.623472 -0.28125,3.6875 2.741305,2.15953 5.462257,4.403235 8.21875,6.5625 l -25.3125,0 c -2.87825,0 -4.5809,1.348364 -4.9375,3.34375 -0.314681,1.760778 1.094393,3.9375 3.59375,3.9375 4.266221,0.0056 8.562329,0.0084 12.84375,0 L 15.25,52.375 c -0.02963,0.02252 -0.06412,0.03998 -0.09375,0.0625 -2.160722,1.65358 -2.861017,4.384042 -1.5,6.125 1.384999,1.770503 4.311082,1.79459 6.5,0.03125 L 32.6875,48.375 c 0,0 -0.168919,1.35853 -0.15625,2.1875 0.01411,0.830373 0.291197,2.452313 0.6875,3.71875 0.437507,1.391904 1.030481,2.728344 1.78125,4 8.432702,-11.207027 21.931536,-18.46875 37.125,-18.46875 0.851322,0 1.691259,0.01751 2.53125,0.0625 C 74.440036,39.466203 74.184049,39.052051 73.9375,38.65625 72.64527,36.580329 71.007328,34.779814 69.03125,33.25 L 49.0625,17.9375 c -0.01698,-0.01408 -0.01283,-0.01859 -0.03125,-0.03125 -0.655829,-0.501037 -1.543314,-0.751226 -2.4375,-0.75 z"
       inkscape:connector-curvature="0"
       id="path4134"
       style="opacity:0.2;fill:url(#linearGradient4136);fill-opacity:1;fill-rule:evenodd;stroke:none" />
  </g>
</svg>
