<?xml version="1.0" encoding="UTF-8" standalone="no"?>
<!-- Created with Inkscape (http://www.inkscape.org/) -->

<svg
   xmlns:svg="http://www.w3.org/2000/svg"
   xmlns="http://www.w3.org/2000/svg"
   xmlns:xlink="http://www.w3.org/1999/xlink"
   version="1.0"
   width="96"
   height="96"
   id="svg2408">
  <defs
     id="defs2410">
    <linearGradient
       id="linearGradient3813">
      <stop
         id="stop3815"
         style="stop-color:#666666;stop-opacity:1"
         offset="0" />
      <stop
         id="stop3817"
         style="stop-color:#666666;stop-opacity:0"
         offset="1" />
    </linearGradient>
    <linearGradient
       id="linearGradient3790">
      <stop
         id="stop3792"
         style="stop-color:#969696;stop-opacity:1"
         offset="0" />
      <stop
         id="stop3794"
         style="stop-color:#ffffff;stop-opacity:0.79069769"
         offset="1" />
    </linearGradient>
    <linearGradient
       id="linearGradient3749">
      <stop
         id="stop3751"
         style="stop-color:#000000;stop-opacity:0.5271318"
         offset="0" />
      <stop
         id="stop3757"
         style="stop-color:#7f7f7f;stop-opacity:0"
         offset="0.5" />
      <stop
         id="stop3753"
         style="stop-color:#ffffff;stop-opacity:1"
         offset="1" />
    </linearGradient>
    <linearGradient
       id="linearGradient3714">
      <stop
         id="stop3716"
         style="stop-color:#d7d7d7;stop-opacity:1"
         offset="0" />
      <stop
         id="stop3718"
         style="stop-color:#c8c8c8;stop-opacity:1"
         offset="1" />
    </linearGradient>
    <linearGradient
       x1="45.447727"
       y1="92.539597"
       x2="45.447727"
       y2="7.0165396"
       id="ButtonShadow"
       gradientUnits="userSpaceOnUse"
       gradientTransform="scale(1.0058652,0.994169)">
      <stop
         id="stop3750"
         style="stop-color:#000000;stop-opacity:1"
         offset="0" />
      <stop
         id="stop3752"
         style="stop-color:#000000;stop-opacity:0.58823532"
         offset="1" />
    </linearGradient>
    <linearGradient
       id="linearGradient3737">
      <stop
         id="stop3739"
         style="stop-color:#ffffff;stop-opacity:1"
         offset="0" />
      <stop
         id="stop3741"
         style="stop-color:#ffffff;stop-opacity:0"
         offset="1" />
    </linearGradient>
    <linearGradient
       id="linearGradient3700">
      <stop
         id="stop3702"
         style="stop-color:#236f23;stop-opacity:1"
         offset="0" />
      <stop
         id="stop3704"
         style="stop-color:#61a939;stop-opacity:1"
         offset="1" />
    </linearGradient>
    <filter
       color-interpolation-filters="sRGB"
       id="filter3174">
      <feGaussianBlur
         id="feGaussianBlur3176"
         stdDeviation="1.71" />
    </filter>
    <linearGradient
       x1="36.357143"
       y1="6"
       x2="36.357143"
       y2="63.893143"
       id="linearGradient3188"
       xlink:href="#linearGradient3737"
       gradientUnits="userSpaceOnUse" />
    <filter
       x="-0.192"
       y="-0.192"
       width="1.3839999"
       height="1.3839999"
       color-interpolation-filters="sRGB"
       id="filter3794">
      <feGaussianBlur
         id="feGaussianBlur3796"
         stdDeviation="5.28" />
    </filter>
    <linearGradient
       x1="48"
       y1="20.220806"
       x2="48"
       y2="138.66119"
       id="linearGradient3613"
       xlink:href="#linearGradient3737"
       gradientUnits="userSpaceOnUse" />
    <radialGradient
       cx="48"
       cy="90.171875"
       r="42"
       fx="48"
       fy="90.171875"
       id="radialGradient3619"
       xlink:href="#linearGradient3737"
       gradientUnits="userSpaceOnUse"
       gradientTransform="matrix(1.1573129,0,0,0.99590774,-7.5510206,0.19713193)" />
    <clipPath
       id="clipPath3613">
      <rect
         width="84"
         height="84"
         rx="6"
         ry="6"
         x="6"
         y="6"
         id="rect3615"
         style="fill:#ffffff;fill-opacity:1;fill-rule:nonzero;stroke:none" />
    </clipPath>
    <linearGradient
       x1="48"
       y1="90"
       x2="48"
       y2="5.9877172"
       id="linearGradient3617"
       xlink:href="#linearGradient3700"
       gradientUnits="userSpaceOnUse" />
    <linearGradient
       x1="45.447727"
       y1="92.539597"
       x2="45.447727"
       y2="7.0165396"
       id="ButtonShadow-0"
       gradientUnits="userSpaceOnUse"
       gradientTransform="matrix(1.0058652,0,0,0.994169,100,0)">
      <stop
         id="stop3750-8"
         style="stop-color:#000000;stop-opacity:1"
         offset="0" />
      <stop
         id="stop3752-5"
         style="stop-color:#000000;stop-opacity:0.58823532"
         offset="1" />
    </linearGradient>
    <linearGradient
       x1="32.251034"
       y1="6.1317081"
       x2="32.251034"
       y2="90.238609"
       id="linearGradient3780"
       xlink:href="#ButtonShadow-0"
       gradientUnits="userSpaceOnUse"
       gradientTransform="matrix(1.0238095,0,0,1.0119048,-1.1428571,-98.071429)" />
    <linearGradient
       x1="32.251034"
       y1="6.1317081"
       x2="32.251034"
       y2="90.238609"
       id="linearGradient3772"
       xlink:href="#ButtonShadow-0"
       gradientUnits="userSpaceOnUse"
       gradientTransform="matrix(1.0238095,0,0,1.0119048,-1.1428571,-98.071429)" />
    <linearGradient
       x1="32.251034"
       y1="6.1317081"
       x2="32.251034"
       y2="90.238609"
       id="linearGradient3725"
       xlink:href="#ButtonShadow-0"
       gradientUnits="userSpaceOnUse"
       gradientTransform="matrix(1.0238095,0,0,1.0119048,-1.1428571,-98.071429)" />
    <linearGradient
       x1="32.251034"
       y1="6.1317081"
       x2="32.251034"
       y2="90.238609"
       id="linearGradient3721"
       xlink:href="#ButtonShadow-0"
       gradientUnits="userSpaceOnUse"
       gradientTransform="translate(0,-97)" />
    <linearGradient
       x1="32.251034"
       y1="6.1317081"
       x2="32.251034"
       y2="90.238609"
       id="linearGradient3026"
       xlink:href="#ButtonShadow-0"
       gradientUnits="userSpaceOnUse"
       gradientTransform="matrix(1.0238095,0,0,1.0119048,-1.1428571,-98.071429)" />
    <linearGradient
       x1="48"
       y1="72"
       x2="48"
       y2="24"
       id="linearGradient3720"
       xlink:href="#linearGradient3714"
       gradientUnits="userSpaceOnUse"
       gradientTransform="translate(4,-4)" />
    <linearGradient
       x1="62.823048"
       y1="53.023079"
       x2="62.823048"
       y2="22.999353"
       id="linearGradient3742"
       xlink:href="#linearGradient3749"
       gradientUnits="userSpaceOnUse"
       gradientTransform="matrix(1,0,0,-1,4,66)" />
    <linearGradient
       x1="59"
       y1="32"
       x2="69.1875"
       y2="32"
       id="linearGradient3755"
       xlink:href="#linearGradient3749"
       gradientUnits="userSpaceOnUse"
       gradientTransform="matrix(0.25881905,0.96592583,-0.96592583,0.25881905,82.414693,-42.192018)" />
    <linearGradient
       x1="34"
       y1="58"
       x2="36"
       y2="60"
       id="linearGradient3808"
       xlink:href="#linearGradient3790"
       gradientUnits="userSpaceOnUse"
       gradientTransform="translate(4,-4)" />
    <linearGradient
       x1="24"
       y1="75"
       x2="59.503521"
       y2="39.496479"
       id="linearGradient3819"
       xlink:href="#linearGradient3813"
       gradientUnits="userSpaceOnUse"
       gradientTransform="translate(4,-4)" />
    <radialGradient
       cx="57"
       cy="37"
       r="15"
       fx="57"
       fy="37"
       id="radialGradient3827"
       xlink:href="#linearGradient3737"
       gradientUnits="userSpaceOnUse"
       gradientTransform="matrix(1.2,7.0502532e-8,-6.070424e-8,1.0332266,-7.399999,-5.2293852)" />
    <linearGradient
       x1="48"
       y1="72"
       x2="48"
       y2="-8"
       id="linearGradient3863"
       xlink:href="#linearGradient3700"
       gradientUnits="userSpaceOnUse"
       gradientTransform="translate(4,-4)" />
  </defs>
  <g
     id="layer2"
     style="display:none">
    <rect
       width="86"
       height="85"
       rx="6"
       ry="6"
       x="5"
       y="7"
       id="rect3745"
       style="opacity:0.9;fill:url(#ButtonShadow);fill-opacity:1;fill-rule:nonzero;stroke:none;filter:url(#filter3174)" />
  </g>
  <g
     id="layer3">
    <path
       d="m 12,-95.03125 c -5.5110903,0 -10.03125,4.52016 -10.03125,10.03125 l 0,71 c 0,5.5110902 4.5201598,10.03125 10.03125,10.03125 l 72,0 c 5.51109,0 10.03125,-4.5201597 10.03125,-10.03125 l 0,-71 c 0,-5.51109 -4.52016,-10.03125 -10.03125,-10.03125 l -72,0 z"
       transform="scale(1,-1)"
       id="path3786"
       style="opacity:0.07999998;fill:url(#linearGradient3026);fill-opacity:1;fill-rule:nonzero;stroke:none;display:inline" />
    <path
       d="m 12,-94.03125 c -4.971633,0 -9.03125,4.059617 -9.03125,9.03125 l 0,71 c 0,4.9716329 4.0596171,9.03125 9.03125,9.03125 l 72,0 c 4.971633,0 9.03125,-4.059617 9.03125,-9.03125 l 0,-71 c 0,-4.971633 -4.059617,-9.03125 -9.03125,-9.03125 l -72,0 z"
       transform="scale(1,-1)"
       id="path3778"
       style="opacity:0.1;fill:url(#linearGradient3780);fill-opacity:1;fill-rule:nonzero;stroke:none;display:inline" />
    <path
       d="m 12,-93 c -4.4091333,0 -8,3.590867 -8,8 l 0,71 c 0,4.4091333 3.5908667,8 8,8 l 72,0 c 4.409133,0 8,-3.5908667 8,-8 l 0,-71 c 0,-4.409133 -3.590867,-8 -8,-8 l -72,0 z"
       transform="scale(1,-1)"
       id="path3770"
       style="opacity:0.2;fill:url(#linearGradient3772);fill-opacity:1;fill-rule:nonzero;stroke:none;display:inline" />
    <rect
       width="86"
       height="85"
       rx="7"
       ry="7"
       x="5"
       y="-92"
       transform="scale(1,-1)"
       id="rect3723"
       style="opacity:0.3;fill:url(#linearGradient3725);fill-opacity:1;fill-rule:nonzero;stroke:none;display:inline" />
    <rect
       width="84"
       height="84"
       rx="6"
       ry="6"
       x="6"
       y="-91"
       transform="scale(1,-1)"
       id="rect3716"
       style="opacity:0.45;fill:url(#linearGradient3721);fill-opacity:1;fill-rule:nonzero;stroke:none;display:inline" />
  </g>
  <g
     id="layer1">
    <rect
       width="84"
       height="84"
       rx="6"
       ry="6"
       x="6"
       y="6"
       id="rect2419"
       style="fill:url(#linearGradient3617);fill-opacity:1;fill-rule:nonzero;stroke:none" />
    <path
       d="M 12,6 C 8.676,6 6,8.676 6,12 l 0,2 0,68 0,2 c 0,0.334721 0.04135,0.6507 0.09375,0.96875 0.0487,0.295596 0.09704,0.596915 0.1875,0.875 0.00988,0.03038 0.020892,0.0636 0.03125,0.09375 0.098865,0.287771 0.2348802,0.547452 0.375,0.8125 0.1445918,0.273507 0.3156161,0.535615 0.5,0.78125 0.1843839,0.245635 0.3737765,0.473472 0.59375,0.6875 0.439947,0.428056 0.94291,0.814526 1.5,1.09375 0.278545,0.139612 0.5734731,0.246947 0.875,0.34375 -0.2562018,-0.100222 -0.4867109,-0.236272 -0.71875,-0.375 -0.00741,-0.0044 -0.023866,0.0045 -0.03125,0 -0.031933,-0.0193 -0.062293,-0.04251 -0.09375,-0.0625 -0.120395,-0.0767 -0.2310226,-0.163513 -0.34375,-0.25 -0.1061728,-0.0808 -0.2132809,-0.161112 -0.3125,-0.25 C 8.4783201,88.557317 8.3087904,88.373362 8.15625,88.1875 8.0486711,88.057245 7.9378561,87.922215 7.84375,87.78125 7.818661,87.74287 7.805304,87.69538 7.78125,87.65625 7.716487,87.553218 7.6510225,87.451733 7.59375,87.34375 7.4927417,87.149044 7.3880752,86.928049 7.3125,86.71875 7.30454,86.69694 7.288911,86.6782 7.28125,86.65625 7.2494249,86.5643 7.2454455,86.469419 7.21875,86.375 7.1884177,86.268382 7.1483606,86.171969 7.125,86.0625 7.0521214,85.720988 7,85.364295 7,85 L 7,83 7,15 7,13 C 7,10.218152 9.2181517,8 12,8 l 2,0 68,0 2,0 c 2.781848,0 5,2.218152 5,5 l 0,2 0,68 0,2 c 0,0.364295 -0.05212,0.720988 -0.125,1.0625 -0.04415,0.206893 -0.08838,0.397658 -0.15625,0.59375 -0.0077,0.02195 -0.0233,0.04069 -0.03125,0.0625 -0.06274,0.173739 -0.138383,0.367449 -0.21875,0.53125 -0.04158,0.0828 -0.07904,0.169954 -0.125,0.25 -0.0546,0.09721 -0.126774,0.18835 -0.1875,0.28125 -0.09411,0.140965 -0.204921,0.275995 -0.3125,0.40625 -0.143174,0.17445 -0.303141,0.346998 -0.46875,0.5 -0.01117,0.0102 -0.01998,0.02115 -0.03125,0.03125 -0.138386,0.125556 -0.285091,0.234436 -0.4375,0.34375 -0.102571,0.07315 -0.204318,0.153364 -0.3125,0.21875 -0.0074,0.0045 -0.02384,-0.0044 -0.03125,0 -0.232039,0.138728 -0.462548,0.274778 -0.71875,0.375 0.301527,-0.0968 0.596455,-0.204138 0.875,-0.34375 0.55709,-0.279224 1.060053,-0.665694 1.5,-1.09375 0.219973,-0.214028 0.409366,-0.441865 0.59375,-0.6875 0.184384,-0.245635 0.355408,-0.507743 0.5,-0.78125 0.14012,-0.265048 0.276135,-0.524729 0.375,-0.8125 0.01041,-0.03078 0.02133,-0.06274 0.03125,-0.09375 0.09046,-0.278085 0.1388,-0.579404 0.1875,-0.875 C 89.95865,84.6507 90,84.334721 90,84 l 0,-2 0,-68 0,-2 C 90,8.676 87.324,6 84,6 L 12,6 z"
       id="rect3728"
       style="opacity:0.4;fill:url(#linearGradient3188);fill-opacity:1;fill-rule:nonzero;stroke:none" />
    <path
       d="M 12,90 C 8.676,90 6,87.324 6,84 L 6,82 6,14 6,12 c 0,-0.334721 0.04135,-0.6507 0.09375,-0.96875 0.0487,-0.295596 0.09704,-0.596915 0.1875,-0.875 C 6.29113,10.12587 6.302142,10.09265 6.3125,10.0625 6.411365,9.774729 6.5473802,9.515048 6.6875,9.25 6.8320918,8.976493 7.0031161,8.714385 7.1875,8.46875 7.3718839,8.223115 7.5612765,7.995278 7.78125,7.78125 8.221197,7.353194 8.72416,6.966724 9.28125,6.6875 9.559795,6.547888 9.8547231,6.440553 10.15625,6.34375 9.9000482,6.443972 9.6695391,6.580022 9.4375,6.71875 c -0.00741,0.0044 -0.023866,-0.0045 -0.03125,0 -0.031933,0.0193 -0.062293,0.04251 -0.09375,0.0625 -0.120395,0.0767 -0.2310226,0.163513 -0.34375,0.25 -0.1061728,0.0808 -0.2132809,0.161112 -0.3125,0.25 C 8.4783201,7.442683 8.3087904,7.626638 8.15625,7.8125 8.0486711,7.942755 7.9378561,8.077785 7.84375,8.21875 7.818661,8.25713 7.805304,8.30462 7.78125,8.34375 7.716487,8.446782 7.6510225,8.548267 7.59375,8.65625 7.4927417,8.850956 7.3880752,9.071951 7.3125,9.28125 7.30454,9.30306 7.288911,9.3218 7.28125,9.34375 7.2494249,9.4357 7.2454455,9.530581 7.21875,9.625 7.1884177,9.731618 7.1483606,9.828031 7.125,9.9375 7.0521214,10.279012 7,10.635705 7,11 l 0,2 0,68 0,2 c 0,2.781848 2.2181517,5 5,5 l 2,0 68,0 2,0 c 2.781848,0 5,-2.218152 5,-5 l 0,-2 0,-68 0,-2 C 89,10.635705 88.94788,10.279012 88.875,9.9375 88.83085,9.730607 88.78662,9.539842 88.71875,9.34375 88.71105,9.3218 88.69545,9.30306 88.6875,9.28125 88.62476,9.107511 88.549117,8.913801 88.46875,8.75 88.42717,8.6672 88.38971,8.580046 88.34375,8.5 88.28915,8.40279 88.216976,8.31165 88.15625,8.21875 88.06214,8.077785 87.951329,7.942755 87.84375,7.8125 87.700576,7.63805 87.540609,7.465502 87.375,7.3125 87.36383,7.3023 87.35502,7.29135 87.34375,7.28125 87.205364,7.155694 87.058659,7.046814 86.90625,6.9375 86.803679,6.86435 86.701932,6.784136 86.59375,6.71875 c -0.0074,-0.0045 -0.02384,0.0044 -0.03125,0 -0.232039,-0.138728 -0.462548,-0.274778 -0.71875,-0.375 0.301527,0.0968 0.596455,0.204138 0.875,0.34375 0.55709,0.279224 1.060053,0.665694 1.5,1.09375 0.219973,0.214028 0.409366,0.441865 0.59375,0.6875 0.184384,0.245635 0.355408,0.507743 0.5,0.78125 0.14012,0.265048 0.276135,0.524729 0.375,0.8125 0.01041,0.03078 0.02133,0.06274 0.03125,0.09375 0.09046,0.278085 0.1388,0.579404 0.1875,0.875 C 89.95865,11.3493 90,11.665279 90,12 l 0,2 0,68 0,2 c 0,3.324 -2.676,6 -6,6 l -72,0 z"
       id="path3615"
       style="opacity:0.2;fill:url(#radialGradient3619);fill-opacity:1;fill-rule:nonzero;stroke:none" />
  </g>
  <g
     id="layer5">
    <rect
       width="66"
       height="66"
       rx="12"
       ry="12"
       x="15"
       y="15"
       clip-path="url(#clipPath3613)"
       id="rect3171"
       style="opacity:0.1;fill:url(#linearGradient3613);fill-opacity:1;fill-rule:nonzero;stroke:#ffffff;stroke-width:0.5;stroke-linecap:round;stroke-linejoin:miter;stroke-miterlimit:4;stroke-opacity:1;stroke-dasharray:none;stroke-dashoffset:0;filter:url(#filter3794)" />
  </g>
  <g
     id="layer4">
    <path
       d="m 24,30 0,1 42,42 6,0 0,-1 -6,0 -42,-42 z"
       id="path3865"
       style="opacity:0.2;fill:#ffffff;fill-opacity:1;stroke:none" />
    <path
       d="m 24,24 0,6 42,42 6,0 0,-6 -42,-42 -6,0 z"
       id="path3855"
       style="fill:url(#linearGradient3863);fill-opacity:1;stroke:none" />
    <path
       d="m 24,24 0,6 42,42 6,0 0,-6 -42,-42 -6,0 z m 0.96875,0.96875 4.625,0 41.4375,41.4375 0,4.625 -4.625,0 -41.4375,-41.4375 0,-4.625 z"
       id="path3889"
       style="opacity:0.1;fill:#000000;fill-opacity:1;stroke:none" />
    <path
       d="m 24,24 0,6 42,42 6,0 0,-6 -42,-42 -6,0 z m 1.9375,1.9375 3.25,0 40.875,40.875 0,3.25 -3.25,0 -40.875,-40.875 0,-3.25 z"
       id="path3895"
       style="opacity:0.05;fill:#000000;fill-opacity:1;stroke:none" />
    <path
       d="m 24,24 0,1 6,0 42,42 0,-1 -42,-42 -6,0 z"
       id="path3880"
       style="opacity:0.2;fill:#000000;fill-opacity:1;stroke:none" />
    <path
       d="m 65,14 c -8.784767,-0.18464 -16.90967,6.9828 -17.855019,15.711755 -0.420681,2.9423 0.06987,5.959284 1.198769,8.694495 -8.949849,8.983403 -17.976822,17.910132 -26.879038,26.928415 -0.914901,1.619676 -0.273789,3.581537 -0.464712,5.34819 0.02294,1.633186 -0.375091,3.739728 1.25,4.785895 1.55258,1.009923 3.523035,0.335639 5.257481,0.53125 1.643874,-0.06768 3.730095,0.430258 4.865535,-1.123016 C 33.498058,73.672163 35.293936,72.558178 35,70.649252 34.712005,69.452315 36.243772,70.295118 36.90625,69.875 38.020312,69.67424 38.50362,68.398833 39.425374,68 41.094119,67.92039 43.215806,68.45298 44.373016,66.876984 45.498058,65.672163 47.293936,64.558178 47,62.649252 47.235934,61.847818 46.434497,60.073095 47.600748,60 c 1.657462,-0.03563 3.801107,0.400949 4.868002,-1.25 1.016984,-1.340591 0.217416,-3.193746 0.655258,-4.624008 1.823247,-1.823247 3.646495,-3.646495 5.469742,-5.469742 8.058778,3.598276 18.218794,-0.348081 22.229403,-8.085939 C 85.05012,33.150293 82.909219,22.949587 76.083689,17.828591 72.953465,15.359967 68.987559,13.985662 65,14 z m 3,14 c 2.920078,0.724448 -1.421101,3.588676 -0.930497,0.58351 C 67.195022,28.198793 67.613719,27.982089 68,28 z"
       id="path3849"
       style="opacity:0.05;fill:#000000;fill-opacity:1;stroke:none" />
    <path
       d="m 65,15.0625 c -8.418512,-0.184287 -16.165419,6.821358 -16.849838,15.208977 -0.327361,2.869787 0.238969,5.791081 1.412338,8.416023 -9.051514,9.093166 -18.190951,18.107638 -27.1875,27.25 -0.668338,1.423888 -0.148815,3.095004 -0.3125,4.618894 0.10133,1.420992 -0.505551,3.522831 1.1875,4.224856 1.782867,0.373967 3.6702,0.04608 5.491858,0.15625 1.213843,0.160057 2.50438,-0.07542 3.231892,-1.16125 0.952272,-0.941788 2.291,-1.920486 1.96375,-3.453658 -0.413885,-1.44009 0.488198,-1.56421 1.693521,-1.385092 1.434642,0.217447 2.262621,-1.167537 3.181479,-2 1.498595,-0.202314 3.299492,0.499874 4.5625,-0.5625 1.029921,-1.205282 2.918383,-2.19127 2.5625,-4.052408 0.138195,-1.118159 -0.45134,-2.537754 0.7185,-3.228592 1.167686,-0.430855 2.651019,0.07502 3.9065,-0.25025 1.571651,-0.409782 1.443715,-2.268465 1.375,-3.537271 -0.262446,-1.171209 0.284548,-2.007136 1.1975,-2.691479 1.725833,-1.725833 3.451667,-3.451667 5.1775,-5.1775 7.295763,3.544598 16.745817,0.531673 20.951769,-6.317052 C 83.825576,34.327687 82.36405,24.386083 76.057059,19.179521 73.021113,16.5399 69.024575,15.045354 65,15.0625 z m 3,11.875 c 3.538977,-0.01362 1.797813,5.775694 -1.165621,3.780232 C 65.169011,29.676317 66.002808,26.830421 68,26.9375 z"
       id="path3845"
       style="opacity:0.1;fill:#000000;fill-opacity:1;stroke:none" />
    <path
       d="m 61,20.03125 c -8.808792,0 -15.96875,7.159958 -15.96875,15.96875 0,2.49106 0.636312,4.832639 1.65625,6.9375 l -27.375,27.375 A 0.97064115,0.97064115 0 0 0 19.03125,71 l 0,6 A 0.97064115,0.97064115 0 0 0 20,77.96875 l 6,0 a 0.97064115,0.97064115 0 0 0 0.6875,-0.28125 l 2,-2 A 0.97064115,0.97064115 0 0 0 28.96875,75 l 0,-3.03125 3.03125,0 a 0.97064115,0.97064115 0 0 0 0.6875,-0.28125 l 1.71875,-1.71875 3.59375,0 a 0.97064115,0.97064115 0 0 0 0.6875,-0.28125 l 2,-2 A 0.97064115,0.97064115 0 0 0 40.96875,67 l 0,-3.59375 1.4375,-1.4375 3.59375,0 A 0.97064115,0.97064115 0 0 0 46.96875,61 l 0,-3.59375 7.09375,-7.09375 c 2.104861,1.019938 4.44644,1.65625 6.9375,1.65625 8.808792,0 15.96875,-7.159958 15.96875,-15.96875 l 0,-0.0625 C 76.940705,27.148524 69.787866,20.03125 61,20.03125 z m 3,9.9375 c 1.676983,0 3.025887,1.350522 3.03125,3.03125 0,1.684618 -1.346632,3.03125 -3.03125,3.03125 -1.684618,0 -3.03125,-1.346632 -3.03125,-3.03125 0,-1.684618 1.346632,-3.03125 3.03125,-3.03125 z"
       transform="translate(4,-4)"
       id="path3841"
       style="opacity:0.15;fill:#000000;fill-opacity:1;stroke:none" />
    <path
       d="m 65,17 c -8.284271,0 -15,6.715729 -15,15 0,2.588835 0.657914,5.030851 1.8125,7.15625 0.0043,0.0079 -0.0043,0.02335 0,0.03125 L 24,67 l 0,6 6,0 2,-2 0,-4 4,0 2,-2 4,0 2,-2 0,-4 2,-2 4,0 0,-4 7.8125,-7.8125 c 0.0079,0.0043 0.02334,-0.0043 0.03125,0 C 59.969149,46.342086 62.411165,47 65,47 73.284271,47 80,40.284271 80,32 l 0,-0.0625 C 79.973625,23.671957 73.265586,17 65,17 z m 3,8 c 2.204156,0 3.992967,1.795855 4,4 0,2.209139 -1.790861,4 -4,4 -2.209139,0 -4,-1.790861 -4,-4 0,-2.209139 1.790861,-4 4,-4 z"
       id="path3835"
       style="opacity:0.3;fill:#000000;fill-opacity:1;stroke:none" />
    <path
       d="m 65,16 c -8.284271,0 -15,6.715729 -15,15 0,2.588835 0.657914,5.030851 1.8125,7.15625 0.0043,0.0079 -0.0043,0.02335 0,0.03125 L 24,66 l 0,6 6,0 2,-2 0,-4 4,0 2,-2 4,0 2,-2 0,-4 2,-2 4,0 0,-4 7.8125,-7.8125 c 0.0079,0.0043 0.02334,-0.0043 0.03125,0 C 59.969149,45.342086 62.411165,46 65,46 73.284271,46 80,39.284271 80,31 l 0,-0.0625 C 79.973625,22.671957 73.265586,16 65,16 z m 3,8 c 2.204156,0 3.992967,1.795855 4,4 0,2.209139 -1.790861,4 -4,4 -2.209139,0 -4,-1.790861 -4,-4 0,-2.209139 1.790861,-4 4,-4 z"
       id="path3666"
       style="fill:url(#linearGradient3720);fill-opacity:1;stroke:none" />
    <path
       d="m 65,16 c -8.284271,0 -15,6.715729 -15,15 0,8.284271 6.715729,15 15,15 8.284271,0 15,-6.715729 15,-15 l 0,-0.0625 C 79.973625,22.671957 73.265586,16 65,16 z m 3,8.03125 c 2.204169,0 3.992967,1.782132 4,3.96875 0,2.191572 -1.790849,3.96875 -4,3.96875 -2.209151,0 -4,-1.777178 -4,-3.96875 0,-2.191572 1.790849,-3.96875 4,-3.96875 z"
       id="path3759"
       style="opacity:0.4;color:#000000;fill:url(#radialGradient3827);fill-opacity:1;fill-rule:nonzero;stroke:none;stroke-width:1;marker:none;visibility:visible;display:inline;overflow:visible;enable-background:accumulate" />
    <path
       d="m 114,24 0,6 42,42 6,0 0,-6 -42,-42 -6,0 z"
       id="path3679"
       style="fill:#ff00ff;stroke:none" />
    <path
       d="m 155,16 c -8.28427,0 -15,6.715729 -15,15 0,2.588835 0.65791,5.030851 1.8125,7.15625 0.004,0.0079 -0.004,0.02335 0,0.03125 L 114,66 l 0,6 6,0 8,-8 8,0 0,-8 4,0 2,-3 -2.09375,-0.90625 7.90625,-7.90625 c 0.008,0.0043 0.0233,-0.0043 0.0312,0 C 149.96915,45.342086 152.41116,46 155,46 c 8.28427,0 15,-6.715729 15,-15 l 0,-0.0625 C 169.97362,22.671957 163.26559,16 155,16 z m 3,8 c 2.20416,0 3.99297,1.795855 4,4 0,2.209139 -1.79086,4 -4,4 -2.20914,0 -4,-1.790861 -4,-4 0,-2.209139 1.79086,-4 4,-4 z"
       id="path3681"
       style="fill:#ff00ff;stroke:none" />
    <path
       d="m 65,16 c -8.284292,0 -15,6.715708 -15,15 0,4.269326 1.793515,8.1121 4.65625,10.84375 C 52.087347,39.151572 50.5,35.514966 50.5,31.5 c 0,-8.284292 6.715708,-15 15,-15 4.00591,0 7.652855,1.565283 10.34375,4.125 C 73.112751,17.772329 69.259696,16 65,16 z"
       id="path3722"
       style="opacity:0.8;color:#000000;fill:#ffffff;fill-opacity:1;fill-rule:nonzero;stroke:none;stroke-width:1;marker:none;visibility:visible;display:inline;overflow:visible;enable-background:accumulate" />
    <path
       d="m 65,44 c -7.179723,0 -13,-5.820277 -13,-13 0,-7.179723 5.820277,-13 13,-13 7.179723,0 13,5.820277 13,13 l 0,0.03125 C 77.977142,38.194743 72.163529,44 65,44 z m 0,-1 c 6.612447,0 11.9789,-5.356337 12,-11.96875 L 77,31 c 0,-6.627395 -5.372605,-12 -12,-12 -6.627395,0 -12,5.372605 -12,12 0,6.627395 5.372605,12 12,12 z"
       id="path3726"
       style="opacity:0.6;color:#000000;fill:url(#linearGradient3742);fill-opacity:1;fill-rule:nonzero;stroke:none;stroke-width:1;marker:none;visibility:visible;display:inline;overflow:visible;enable-background:accumulate" />
    <path
       d="m 61.151788,45.534131 c 8.002012,2.144133 16.227041,-2.60459 18.371174,-10.606601 1.104982,-4.123853 0.367163,-8.299883 -1.691024,-11.679385 1.784583,3.265326 2.37662,7.188853 1.33747,11.067012 -2.144132,8.002012 -10.369161,12.750734 -18.371173,10.606602 -3.869412,-1.036806 -6.986965,-3.492652 -8.923667,-6.661604 1.899617,3.462304 5.16267,6.171486 9.27722,7.273976 z"
       id="path3734"
       style="opacity:0.3;color:#000000;fill:#000000;fill-opacity:1;fill-rule:nonzero;stroke:none;stroke-width:1;marker:none;visibility:visible;display:inline;overflow:visible;enable-background:accumulate" />
    <path
       d="m 73.013935,26.68164 c -0.72801,-2.716967 -3.521577,-4.329834 -6.238545,-3.601825 -2.716967,0.72801 -4.329834,3.521577 -3.601825,6.238545 0.72801,2.716967 3.521577,4.329834 6.238545,3.601825 l 0.03019,-0.0081 c 2.708507,-0.735014 4.298007,-3.519617 3.57164,-6.230457 z m -1.116852,0.29926 c 0.5589,2.085844 -0.678086,4.218606 -2.762136,4.78416 l -0.03019,0.0081 c -2.090559,0.560163 -4.223996,-0.671577 -4.78416,-2.762136 -0.560163,-2.090559 0.663489,-4.254181 2.754048,-4.814345 2.090559,-0.560164 4.262269,0.693674 4.822433,2.784233 z"
       id="path3744"
       style="opacity:0.8;color:#000000;fill:url(#linearGradient3755);fill-opacity:1;fill-rule:nonzero;stroke:none;stroke-width:1;marker:none;visibility:visible;display:inline;overflow:visible;enable-background:accumulate" />
    <path
       d="M 51.8125,38.1875 24,66 24,67 52.21875,38.78125 C 52.092533,38.574459 51.928827,38.40072 51.8125,38.1875 z"
       id="path3772"
       style="opacity:0.6;fill:#ffffff;stroke:none" />
    <path
       d="m 75,35 a 15,15 0 1 1 -7.6e-5,-0.04786"
       transform="translate(61,0)"
       id="path3776"
       style="opacity:0.4;color:#000000;fill:#ff0000;fill-opacity:1;fill-rule:nonzero;stroke:none;stroke-width:1;marker:none;visibility:visible;display:inline;overflow:visible;enable-background:accumulate" />
    <path
       d="m 56.84375,43.1875 -0.03125,0 L 49,51 l 0,4 -4,0 -2,2 0,4 -2,2 -4,0 -2,2 -4,0 0,4 -2,2 -5,0 0,1 6,0 2,-2 0,-4 4,0 2,-2 4,0 2,-2 0,-4 2,-2 4,0 0,-4 7.8125,-7.8125 0.03125,0 -1,-1 z"
       id="path3779"
       style="opacity:0.3;fill:#000000;fill-opacity:1;stroke:none" />
    <path
       d="M 52.59375,39.40625 24,68 24,71 54.375,41.5625 c -0.656026,-0.659879 -1.256357,-1.384144 -1.78125,-2.15625 z"
       id="path3788"
       style="fill:url(#linearGradient3808);fill-opacity:1;stroke:none" />
    <path
       d="M 55.4375,42.5625 32,66 34,66 56.59375,43.40625 c -0.386155,-0.262516 -0.765771,-0.547288 -1.125,-0.84375 -0.0059,-0.0049 -0.02531,0.0049 -0.03125,0 z M 32,66 l -6,6 2,0 4,-4 0,-2 z"
       id="path3798"
       style="opacity:0.49590167;fill:url(#linearGradient3819);fill-opacity:1;stroke:none" />
  </g>
</svg>
