<?xml version="1.0" encoding="UTF-8" standalone="no"?>
<!-- Created with Inkscape (http://www.inkscape.org/) -->

<svg
   xmlns:svg="http://www.w3.org/2000/svg"
   xmlns="http://www.w3.org/2000/svg"
   xmlns:xlink="http://www.w3.org/1999/xlink"
   version="1.0"
   width="96"
   height="96"
   id="svg2408">
  <defs
     id="defs2410">
    <linearGradient
       id="linearGradient4127">
      <stop
         id="stop4129"
         style="stop-color:#3f3f3f;stop-opacity:1"
         offset="0" />
      <stop
         id="stop4131"
         style="stop-color:#949494;stop-opacity:1"
         offset="1" />
    </linearGradient>
    <linearGradient
       id="linearGradient4113">
      <stop
         id="stop4115"
         style="stop-color:#9fe765;stop-opacity:1"
         offset="0" />
      <stop
         id="stop4117"
         style="stop-color:#81cf32;stop-opacity:1"
         offset="1" />
    </linearGradient>
    <linearGradient
       id="linearGradient3942">
      <stop
         id="stop3944"
         style="stop-color:#ffffff;stop-opacity:1"
         offset="0" />
      <stop
         id="stop3946"
         style="stop-color:#ffffff;stop-opacity:0"
         offset="1" />
    </linearGradient>
    <linearGradient
       id="linearGradient3926">
      <stop
         id="stop3928"
         style="stop-color:#ffffff;stop-opacity:1"
         offset="0" />
      <stop
         id="stop3930"
         style="stop-color:#ffffff;stop-opacity:0"
         offset="1" />
    </linearGradient>
    <linearGradient
       x1="45.447727"
       y1="92.539597"
       x2="45.447727"
       y2="7.0165396"
       id="ButtonShadow"
       gradientUnits="userSpaceOnUse"
       gradientTransform="scale(1.0058652,0.994169)">
      <stop
         id="stop3750"
         style="stop-color:#000000;stop-opacity:1"
         offset="0" />
      <stop
         id="stop3752"
         style="stop-color:#000000;stop-opacity:0.58823532"
         offset="1" />
    </linearGradient>
    <linearGradient
       id="linearGradient3700">
      <stop
         id="stop3702"
         style="stop-color:#4da614;stop-opacity:1"
         offset="0" />
      <stop
         id="stop3704"
         style="stop-color:#80cd43;stop-opacity:1"
         offset="1" />
    </linearGradient>
    <linearGradient
       x1="48"
       y1="90"
       x2="48"
       y2="5.9877172"
       id="linearGradient3706"
       xlink:href="#linearGradient3700"
       gradientUnits="userSpaceOnUse" />
    <filter
       color-interpolation-filters="sRGB"
       id="filter3174">
      <feGaussianBlur
         id="feGaussianBlur3176"
         stdDeviation="1.71" />
    </filter>
    <linearGradient
       id="linearGradient3737-6">
      <stop
         id="stop3739-73"
         style="stop-color:#ffffff;stop-opacity:1"
         offset="0" />
      <stop
         id="stop3741-6"
         style="stop-color:#ffffff;stop-opacity:0"
         offset="1" />
    </linearGradient>
    <clipPath
       id="clipPath3613">
      <rect
         width="84"
         height="84"
         rx="6"
         ry="6"
         x="6"
         y="6"
         id="rect3615"
         style="fill:#ffffff;fill-opacity:1;fill-rule:nonzero;stroke:none" />
    </clipPath>
    <linearGradient
       x1="48"
       y1="20.220806"
       x2="48"
       y2="138.66119"
       id="linearGradient2885"
       xlink:href="#linearGradient3737-6"
       gradientUnits="userSpaceOnUse" />
    <linearGradient
       id="linearGradient3458">
      <stop
         id="stop3460"
         style="stop-color:#c0c0c0;stop-opacity:1"
         offset="0" />
      <stop
         id="stop3462"
         style="stop-color:#ffffff;stop-opacity:0"
         offset="1" />
    </linearGradient>
    <linearGradient
       id="linearGradient3412">
      <stop
         id="stop3414"
         style="stop-color:#ffffff;stop-opacity:0.59836066"
         offset="0" />
      <stop
         id="stop3416"
         style="stop-color:#ffffff;stop-opacity:0"
         offset="1" />
    </linearGradient>
    <radialGradient
       cx="48"
       cy="41.752277"
       r="42"
       fx="48"
       fy="41.752277"
       id="radialGradient2977"
       xlink:href="#linearGradient4113"
       gradientUnits="userSpaceOnUse"
       gradientTransform="matrix(1.7146179,6.6254866e-8,-4.2857144e-8,1.1091053,-34.30166,-5.082394)" />
    <linearGradient
       x1="33"
       y1="33"
       x2="4"
       y2="5"
       id="linearGradient2958"
       xlink:href="#linearGradient3458"
       gradientUnits="userSpaceOnUse"
       gradientTransform="matrix(1.1626866,0.3285437,-0.3285437,1.1626866,327.75135,406.92561)" />
    <linearGradient
       x1="13"
       y1="11"
       x2="40"
       y2="19"
       id="linearGradient2960"
       xlink:href="#linearGradient3412"
       gradientUnits="userSpaceOnUse"
       gradientTransform="matrix(1.1626866,0.3285437,-0.3285437,1.1626866,325.6313,407.16081)" />
    <linearGradient
       x1="95.057648"
       y1="19.725447"
       x2="119.22321"
       y2="39.725449"
       id="linearGradient3882"
       xlink:href="#linearGradient3412"
       gradientUnits="userSpaceOnUse"
       gradientTransform="translate(-50,0)" />
    <linearGradient
       x1="37.000748"
       y1="54.139942"
       x2="40.466858"
       y2="67.480682"
       id="linearGradient3932"
       xlink:href="#linearGradient3926"
       gradientUnits="userSpaceOnUse" />
    <linearGradient
       x1="37.706089"
       y1="53.947945"
       x2="41.441578"
       y2="67.277328"
       id="linearGradient3940"
       xlink:href="#linearGradient3926"
       gradientUnits="userSpaceOnUse" />
    <linearGradient
       x1="36.600811"
       y1="54.133232"
       x2="39.732433"
       y2="67.324722"
       id="linearGradient3948"
       xlink:href="#linearGradient3942"
       gradientUnits="userSpaceOnUse" />
    <linearGradient
       x1="105.34133"
       y1="60.37915"
       x2="80.756157"
       y2="16.272005"
       id="linearGradient4033"
       xlink:href="#linearGradient3458"
       gradientUnits="userSpaceOnUse"
       gradientTransform="translate(-50,0)" />
    <radialGradient
       cx="48"
       cy="90.171875"
       r="42"
       fx="48"
       fy="90.171875"
       id="radialGradient2855-1"
       xlink:href="#linearGradient3737-1-4"
       gradientUnits="userSpaceOnUse"
       gradientTransform="matrix(1.1573129,0,0,0.99590774,-7.551021,0.19713)" />
    <linearGradient
       id="linearGradient3737-1-4">
      <stop
         id="stop3739-7-1"
         style="stop-color:#ffffff;stop-opacity:1"
         offset="0" />
      <stop
         id="stop3741-2-0"
         style="stop-color:#ffffff;stop-opacity:0"
         offset="1" />
    </linearGradient>
    <linearGradient
       x1="36.357143"
       y1="6"
       x2="36.357143"
       y2="63.893143"
       id="linearGradient3188-9"
       xlink:href="#linearGradient3737-5"
       gradientUnits="userSpaceOnUse" />
    <linearGradient
       id="linearGradient3737-5">
      <stop
         id="stop3739-6"
         style="stop-color:#ffffff;stop-opacity:1"
         offset="0" />
      <stop
         id="stop3741-7"
         style="stop-color:#ffffff;stop-opacity:0"
         offset="1" />
    </linearGradient>
    <linearGradient
       id="linearGradient5226-7">
      <stop
         id="stop5228-2"
         style="stop-color:#227395;stop-opacity:1"
         offset="0" />
      <stop
         id="stop5230-4"
         style="stop-color:#44a2c9;stop-opacity:1"
         offset="1" />
    </linearGradient>
    <linearGradient
       id="linearGradient3424-7">
      <stop
         id="stop3426-4"
         style="stop-color:#ffffff;stop-opacity:1"
         offset="0" />
      <stop
         id="stop3432-0"
         style="stop-color:#ffffff;stop-opacity:1"
         offset="0.67213112" />
      <stop
         id="stop3428-2"
         style="stop-color:#ffffff;stop-opacity:0"
         offset="1" />
    </linearGradient>
    <filter
       color-interpolation-filters="sRGB"
       id="filter3434">
      <feGaussianBlur
         id="feGaussianBlur3436"
         stdDeviation="2.4779144" />
    </filter>
    <linearGradient
       id="linearGradient3700-1">
      <stop
         id="stop3702-4"
         style="stop-color:#2b91bc;stop-opacity:1"
         offset="0" />
      <stop
         id="stop3704-2"
         style="stop-color:#77bbd8;stop-opacity:1"
         offset="1" />
    </linearGradient>
    <filter
       x="-0.14399999"
       y="-0.14399999"
       width="1.288"
       height="1.288"
       color-interpolation-filters="sRGB"
       id="filter4123">
      <feGaussianBlur
         id="feGaussianBlur4125"
         stdDeviation="3.96" />
    </filter>
    <linearGradient
       x1="48.894489"
       y1="63.32412"
       x2="39.807999"
       y2="29.412874"
       id="linearGradient4133"
       xlink:href="#linearGradient4127"
       gradientUnits="userSpaceOnUse" />
    <linearGradient
       x1="48"
       y1="90"
       x2="48"
       y2="5.9877172"
       id="linearGradient4146"
       xlink:href="#linearGradient3700-1"
       gradientUnits="userSpaceOnUse"
       gradientTransform="translate(0,120)" />
    <radialGradient
       cx="48"
       cy="46.582424"
       r="42"
       fx="48"
       fy="46.582424"
       id="radialGradient4148"
       xlink:href="#linearGradient3424-7"
       gradientUnits="userSpaceOnUse"
       gradientTransform="matrix(1,0,0,0.9665987,3.0413897e-8,121.55591)" />
    <radialGradient
       cx="63.98003"
       cy="61.948856"
       r="58.01997"
       fx="63.98003"
       fy="61.948856"
       id="radialGradient4150"
       xlink:href="#linearGradient5226-7"
       gradientUnits="userSpaceOnUse"
       gradientTransform="matrix(1.090012,0,0,0.8408658,-21.739001,114.49175)" />
    <clipPath
       id="clipPath3775">
      <rect
         width="84"
         height="84"
         rx="6"
         ry="6"
         x="-34"
         y="-14"
         id="rect3777"
         style="fill:#ff0000;fill-opacity:1;fill-rule:nonzero;stroke:none" />
    </clipPath>
    <filter
       color-interpolation-filters="sRGB"
       id="filter3779">
      <feGaussianBlur
         id="feGaussianBlur3781"
         stdDeviation="1.6519426" />
    </filter>
    <linearGradient
       x1="45.447727"
       y1="92.539597"
       x2="45.447727"
       y2="7.0165396"
       id="ButtonShadow-0"
       gradientUnits="userSpaceOnUse"
       gradientTransform="matrix(1.0058652,0,0,0.994169,100,0)">
      <stop
         id="stop3750-8"
         style="stop-color:#000000;stop-opacity:1"
         offset="0" />
      <stop
         id="stop3752-5"
         style="stop-color:#000000;stop-opacity:0.58823532"
         offset="1" />
    </linearGradient>
    <linearGradient
       x1="32.251034"
       y1="6.1317081"
       x2="32.251034"
       y2="90.238609"
       id="linearGradient3780"
       xlink:href="#ButtonShadow-0"
       gradientUnits="userSpaceOnUse"
       gradientTransform="matrix(1.0238095,0,0,1.0119048,-1.1428571,-98.071429)" />
    <linearGradient
       x1="32.251034"
       y1="6.1317081"
       x2="32.251034"
       y2="90.238609"
       id="linearGradient3772"
       xlink:href="#ButtonShadow-0"
       gradientUnits="userSpaceOnUse"
       gradientTransform="matrix(1.0238095,0,0,1.0119048,-1.1428571,-98.071429)" />
    <linearGradient
       x1="32.251034"
       y1="6.1317081"
       x2="32.251034"
       y2="90.238609"
       id="linearGradient3725"
       xlink:href="#ButtonShadow-0"
       gradientUnits="userSpaceOnUse"
       gradientTransform="matrix(1.0238095,0,0,1.0119048,-1.1428571,-98.071429)" />
    <linearGradient
       x1="32.251034"
       y1="6.1317081"
       x2="32.251034"
       y2="90.238609"
       id="linearGradient3721"
       xlink:href="#ButtonShadow-0"
       gradientUnits="userSpaceOnUse"
       gradientTransform="translate(0,-97)" />
    <linearGradient
       x1="32.251034"
       y1="6.1317081"
       x2="32.251034"
       y2="90.238609"
       id="linearGradient3071"
       xlink:href="#ButtonShadow-0"
       gradientUnits="userSpaceOnUse"
       gradientTransform="matrix(1.0238095,0,0,1.0119048,-1.1428571,-98.071429)" />
  </defs>
  <g
     id="layer2"
     style="display:none">
    <rect
       width="86"
       height="85"
       rx="6"
       ry="6"
       x="5"
       y="7"
       id="rect3745"
       style="opacity:0.9;fill:url(#ButtonShadow);fill-opacity:1;fill-rule:nonzero;stroke:none;filter:url(#filter3174)" />
  </g>
  <g
     id="layer5"
     style="display:inline">
    <path
       d="m 12,-95.03125 c -5.5110903,0 -10.03125,4.52016 -10.03125,10.03125 l 0,71 c 0,5.5110902 4.5201598,10.03125 10.03125,10.03125 l 72,0 c 5.51109,0 10.03125,-4.5201597 10.03125,-10.03125 l 0,-71 c 0,-5.51109 -4.52016,-10.03125 -10.03125,-10.03125 l -72,0 z"
       transform="scale(1,-1)"
       id="path3786"
       style="opacity:0.07999998;fill:url(#linearGradient3071);fill-opacity:1;fill-rule:nonzero;stroke:none;display:inline" />
    <path
       d="m 12,-94.03125 c -4.971633,0 -9.03125,4.059617 -9.03125,9.03125 l 0,71 c 0,4.9716329 4.0596171,9.03125 9.03125,9.03125 l 72,0 c 4.971633,0 9.03125,-4.059617 9.03125,-9.03125 l 0,-71 c 0,-4.971633 -4.059617,-9.03125 -9.03125,-9.03125 l -72,0 z"
       transform="scale(1,-1)"
       id="path3778"
       style="opacity:0.1;fill:url(#linearGradient3780);fill-opacity:1;fill-rule:nonzero;stroke:none;display:inline" />
    <path
       d="m 12,-93 c -4.4091333,0 -8,3.590867 -8,8 l 0,71 c 0,4.4091333 3.5908667,8 8,8 l 72,0 c 4.409133,0 8,-3.5908667 8,-8 l 0,-71 c 0,-4.409133 -3.590867,-8 -8,-8 l -72,0 z"
       transform="scale(1,-1)"
       id="path3770"
       style="opacity:0.2;fill:url(#linearGradient3772);fill-opacity:1;fill-rule:nonzero;stroke:none;display:inline" />
    <rect
       width="86"
       height="85"
       rx="7"
       ry="7"
       x="5"
       y="-92"
       transform="scale(1,-1)"
       id="rect3723"
       style="opacity:0.3;fill:url(#linearGradient3725);fill-opacity:1;fill-rule:nonzero;stroke:none;display:inline" />
    <rect
       width="84"
       height="84"
       rx="6"
       ry="6"
       x="6"
       y="-91"
       transform="scale(1,-1)"
       id="rect3716"
       style="opacity:0.45;fill:url(#linearGradient3721);fill-opacity:1;fill-rule:nonzero;stroke:none;display:inline" />
  </g>
  <g
     id="layer1">
    <rect
       width="84"
       height="84"
       rx="6"
       ry="6"
       x="6"
       y="6"
       id="rect2419"
       style="fill:url(#linearGradient3706);fill-opacity:1;fill-rule:nonzero;stroke:none" />
    <path
       d="m -3.72611,-13.918298 c 1.65011,2.216692 0.11258,5.918337 2.60147,5.881591 1.2119,1.714016 -2.41545,0.511296 0.20359,1.832342 1.50611,1.186578 -1.59338,1.86454 0.27179,2.929374 -2.14969,1.109666 0.34845,5.803987 1.94512,6.978848 2.62796,2.213161 1.16221,-4.685722 4.0945,-5.044597 1.59336,-1.819699 4.39184,-2.987811 6.37927,-4.818381 -1.9423,-0.15774 -3.07646,-1.367135 -1.23703,-2.116304 3.38546,3.470394 0.84891,-1.643528 -1.02513,-2.45324 1.81337,-0.577046 3.57698,-0.154481 3.32537,-1.65137 1.91632,-1.402516 -1.84226,-1.855344 -3.18394,-1.538263 -4.45834,0 -8.91668,0 -13.37501,0 z m -27.80185,1.447777 c -2.44976,0.698195 -2.62065,6.554878 -0.15835,3.302739 0.60434,-1.335366 3.39707,-2.944672 0.15835,-3.302739 z m 11.44649,0.203593 c -1.41226,2.215341 0.20491,3.991499 1.37991,1.289427 0.83171,-1.128343 -0.61793,-1.248085 -1.37991,-1.289427 z m 3.52895,0.497674 c -2.72875,1.265212 -0.6726,4.215564 -0.60506,4.871738 2.87456,0.994829 4.47323,-0.650437 5.5607,2.161488 2.73516,1.576935 -0.0538,4.317061 -1.08055,5.030674 1.84934,-1.611189 5.40416,4.380481 4.47225,1.214924 -1.11178,-0.812076 2.98516,1.304563 0.85962,-1.334669 -1.95606,-3.152657 0.15527,-1.411414 0.97995,-0.675608 2.80489,-2.516097 -3.17359,-2.820214 -1.68121,-5.409578 -1.30776,-1.059583 -3.02289,-4.269493 -5.33868,-3.642063 -1.55024,2.005564 -0.21416,-4.36996 -2.48861,-1.179563 -0.11789,1.783415 -0.0429,4.046455 -0.70571,0.956824 -0.44407,-0.540872 0.764,-1.798298 0.0273,-1.994167 z m -5.56489,0.02262 c -1.8316,0.610853 -1.73323,3.086505 0.51896,3.351911 0.77143,-0.879633 0.30649,-3.185338 -0.51896,-3.351911 z m -7.1484,0.791753 c -2.37908,0.563878 -1.40799,2.482865 -0.67958,3.023321 -2.94491,0.737923 4.4957,0.943126 0.79269,1.410494 -3.0808,1.230835 2.96666,2.680942 3.95876,1.221561 3.80439,0.930735 0.13691,-3.046545 -0.19704,-5.202532 -1.61275,-1.731481 -0.0637,3.991533 -1.52187,0.184408 -0.50878,1.130543 -2.12652,0.166598 -2.35296,-0.637252 z m 75.60113,0.248837 c -3.19245,1.249862 1.98418,5.966434 0.69764,1.675494 -0.12817,-0.518125 0.2882,-1.887105 -0.69764,-1.675494 z m -66.66563,1.900205 c -2.29408,2.156707 2.91599,3.940201 -0.6589,5.546906 -0.53601,-2.002938 -1.45827,1.002105 -3.50346,-0.615417 -3.5159,1.464466 -5.31387,-0.762828 -8.25754,-2.28957 -1.76803,-0.220164 -1.10378,1.680533 -1.22088,3.460193 0,4.918306 0,9.836614 0,14.75492 1.73349,1.82448 0.67633,0.804976 0,0.301752 0.95147,3.241642 -0.41957,7.980231 3.33085,9.86583 0.63757,1.183033 3.31289,6.223076 3.43622,4.715046 -1.34121,-1.405066 -2.71735,-5.617387 -0.44789,-1.863024 2.03275,3.568795 4.77475,5.883507 8.78047,6.73276 2.19006,0.745225 3.99117,3.306965 5.91712,2.743325 1.08905,2.871967 -3.22742,5.629887 0.14491,8.308597 1.76052,2.7118 4.71619,4.4904 3.11596,8.29758 -1.11907,3.71826 -0.63992,7.76974 -1.60778,11.23409 -0.3004,2.10873 2.93803,7.46101 2.65747,3.17511 0.94557,-2.9784 0.92064,-6.25562 3.14758,-8.36483 3.04711,0.02413 0.58237,-3.27775 3.60701,-2.84642 1.84564,-2.42007 2.38023,-5.30712 5.49491,-6.26809 0.37204,-2.9376 5.17882,-7.43659 0.21313,-8.580318 -1.3496,-0.665451 -4.8245,-0.904732 -4.55895,-1.233078 0.53804,-2.914877 -4.49346,-3.744701 -6.63422,-4.937269 -2.81076,-1.995848 -7.03424,3.315594 -8.02452,-1.261025 -0.59087,-1.439948 -2.75132,-1.463301 -1.75843,-3.68521 -1.78939,1.780326 -5.28934,1.23924 -4.37303,-2.198916 1.39157,-2.895595 6.73564,-3.032599 7.64626,0.450282 -1.26435,-3.841203 2.44394,-6.83143 4.50253,-9.564217 0.41916,-1.3062 2.90974,-2.428425 2.05267,-0.692421 1.46016,-0.05269 3.6733,-2.688637 1.07941,-1.472012 -0.0367,-2.403896 -2.27297,-1.720272 -2.99799,-1.378934 1.34377,-2.133574 8.24499,-0.967127 5.3551,-4.454587 -2.23931,-0.907679 -2.05303,-6.204449 -4.318,-3.253597 0.19059,-1.818146 -4.61001,-5.377145 -4.50526,-2.328319 0.58599,2.728128 0.10714,5.870869 -1.13992,7.659113 -0.26025,-3.99762 -7.07568,-3.114085 -6.19943,-7.373995 1.26944,-2.030291 2.75285,-4.83791 2.89418,-4.585337 2.27505,-0.868941 4.10459,-3.396512 1.46783,-5.058122 -0.14091,1.448202 -1.98303,4.436139 -1.72366,0.822325 -1.70579,2.02318 -1.3162,-3.219407 -2.91375,-3.763121 z m 54.45,1.402533 c -3.99594,0.977838 -5.58006,4.795836 -7.55681,7.958163 -2.91386,1.314237 -2.80294,6.958318 0.45241,5.155674 0.87128,1.522277 -0.60951,3.921673 1.92831,1.931216 2.047,-2.709901 0.35794,-7.092756 3.84142,-8.801515 0.25373,1.32865 -3.21333,6.289871 0.837,5.474405 3.66156,0.138209 -2.66186,0.364969 -0.88101,2.704729 -1.85026,-1.098211 -0.88882,2.999333 -3.30397,2.045788 -2.09233,1.138533 -3.46434,-0.528629 -2.98503,-2.35496 -1.64596,0.960573 0.51769,3.67045 -2.33959,3.83331 -0.64004,2.273659 -5.90338,1.930962 -2.91021,4.246159 1.3289,3.445358 -4.95153,0.215986 -3.16853,4.35053 1.52545,4.088438 4.7224,-1.354722 6.01944,-2.406348 2.50247,-1.941872 6.21066,3.311089 3.95876,3.506335 2.52508,-0.338912 2.00619,-2.74125 -0.017,-3.671301 -1.09268,-2.834933 3.45903,1.390324 3.2066,2.811683 1.60594,3.008346 0.94461,-3.080088 2.57885,-0.384565 -0.1908,2.843378 6.57418,0.668556 3.34439,4.292415 -2.77687,0.559513 -5.51013,-0.716143 -7.90083,0.100926 -2.22511,-0.01969 -2.11347,-2.397964 -2.92358,-2.993542 -2.83037,0.23004 -6.32794,0.204027 -8.22277,2.491404 -2.04902,2.812343 -5.00383,6.743795 -2.77053,10.334807 2.23488,5.321462 7.77719,0.276028 10.96298,3.418767 0.94693,1.310381 -0.8206,2.868035 1.29671,4.287425 0.7967,3.02353 -0.90449,5.89433 1.05226,8.78464 1.01184,2.7182 1.63978,6.78664 5.40576,4.30281 3.98577,-2.39945 2.92416,-6.8227 6.21294,-9.27265 -2.60227,-5.038063 3.18363,-7.247103 4.62722,-11.337101 -3.15394,0.461909 -5.96377,-2.68376 -6.72579,-5.84994 -1.32493,-1.537885 -0.98367,-3.805502 0.49633,-0.916468 2.03426,1.971905 2.07822,7.823061 5.84127,4.813019 1.72035,-0.719835 6.41861,-3.465723 2.67511,-4.71532 -2.41304,1.748397 -5.07525,-5.224262 -1.53182,-1.179972 2.57604,1.093303 4.37998,1.744706 4.37998,-1.880149 0,-9.766125 0,-19.664578 0,-29.496868 -0.8024,0.82028 -2.8638,2.335242 -3.90428,1.328569 -1.79037,0.249406 -4.15389,3.734285 -3.59125,0.365539 -1.55624,-0.103093 -0.27859,3.020534 -2.41664,3.107891 -0.21529,1.605887 -2.15987,0.297377 -1.42943,1.822369 -1.50065,-1.064875 -2.77067,-4.427041 0.18614,-2.316729 4.39102,-1.317844 -2.8956,-4.290405 -3.45804,-5.008905 0.94545,-0.226615 -1.02861,-1.212248 -1.26681,-0.88224 z m -36.23967,0.88224 c -1.46151,1.2182 2.77853,1.447612 0,0 z m -19.52238,0.656023 c -1.63465,1.710504 2.60328,1.572448 0,0 z m 9.47842,1.696613 c -1.23787,2.028578 1.82903,0.748943 0,0 z m 27.10058,2.39788 c -1.44923,1.669078 -3.36205,-0.439263 -3.39323,0.995347 0.26265,0.433474 1.31468,3.527292 3.61944,1.244183 1.23699,-0.52171 0.74997,-1.836879 -0.22621,-2.23953 z m -30.85575,0.995347 c -2.74881,2.401478 4.6683,2.622741 0.58232,0.275426 l -0.58232,-0.275426 z M 20.34318,5.875522 C 18.3641,7.166563 21.29262,9.90833 20.30008,11.196245 19.05998,13.35771 24.90841,11.04399 21.7847,9.319485 21.56213,7.837869 19.95468,6.030129 20.34316,5.875522 z m -1.33466,2.601473 c -2.7574,0.779858 -0.62597,4.806237 0.35065,1.013998 0.055,-0.219858 0.12936,-1.021351 -0.35065,-1.013998 z M -3.07009,11.39517 c -2.56522,1.749832 -0.39843,3.496444 1.48156,2.709121 -0.38595,-1.055763 -1.46417,-1.720956 -1.48156,-2.709121 z m 48.4553,2.940797 c 1.27995,0.646198 -2.34553,1.750082 -0.0498,2.887358 1.33598,1.571671 0.83231,4.945457 -1.3392,2.557643 0.40344,-2.665992 -2.94356,-4.656978 1.38903,-5.445001 z m -6.58287,0.02262 c -0.17366,1.712793 3.69395,4.375139 -0.47504,3.506334 -2.20475,0.258725 -5.50697,-0.06739 -2.72943,-2.815681 0.87765,-0.527085 3.18206,1.818498 1.98292,-0.373952 0.42514,-0.02713 0.82107,-0.187672 1.22155,-0.316701 z m -12.73591,3.709927 c -1.60811,1.036413 1.11198,1.831121 0,0 z M -14.31299,27.7279 c -0.2711,0.904805 5.086,1.821755 1.38931,0.372149 l -0.55107,-0.194046 -0.83824,-0.178103 z m 4.16236,1.289426 c -1.62491,1.650213 3.34781,0.493017 0,0 z m 54.3369,15.133794 c -3.53072,0.09113 -3.06133,9.20159 -0.60013,3.81083 0.2334,-1.16979 1.1689,-2.71377 0.60013,-3.81083 z"
       transform="translate(40,20)"
       clip-path="url(#clipPath3775)"
       id="path3767"
       style="opacity:0.5;fill:#1d4f00;fill-opacity:1;stroke:none;display:inline;filter:url(#filter3779)" />
    <path
       d="m 36.27389,6.0817017 c 1.65011,2.216692 0.11258,5.9183373 2.60147,5.8815913 1.2119,1.714016 -2.41545,0.511296 0.20359,1.832342 1.50611,1.186578 -1.59338,1.86454 0.27179,2.929374 -2.14969,1.109666 0.34845,5.803987 1.94512,6.978848 2.62796,2.213161 1.16221,-4.685722 4.0945,-5.044597 1.59336,-1.819699 4.39184,-2.987811 6.37927,-4.818381 -1.9423,-0.15774 -3.07646,-1.367135 -1.23703,-2.116304 3.38546,3.470394 0.84891,-1.643528 -1.02513,-2.4532403 1.81337,-0.577046 3.57698,-0.154481 3.32537,-1.65137 1.91632,-1.402516 -1.84226,-1.855344 -3.18394,-1.538263 -4.45834,0 -8.91668,0 -13.37501,0 z M 8.47204,7.5294787 C 6.02228,8.2276737 5.85139,14.084357 8.31369,10.832218 8.91803,9.4968517 11.71076,7.8875457 8.47204,7.5294787 z m 11.44649,0.203593 c -1.41226,2.2153416 0.20491,3.9914993 1.37991,1.289427 0.83171,-1.128343 -0.61793,-1.248085 -1.37991,-1.289427 z m 3.52895,0.497674 c -2.72875,1.265212 -0.6726,4.2155643 -0.60506,4.8717383 2.87456,0.994829 4.47323,-0.650437 5.5607,2.161488 2.73516,1.576935 -0.0538,4.317061 -1.08055,5.030674 1.84934,-1.611189 5.40416,4.380481 4.47225,1.214924 -1.11178,-0.812076 2.98516,1.304563 0.85962,-1.334669 -1.95606,-3.152657 0.15527,-1.411414 0.97995,-0.675608 2.80489,-2.516097 -3.17359,-2.820214 -1.68121,-5.409578 -1.30776,-1.059583 -3.02289,-4.2694933 -5.33868,-3.642063 -1.55024,2.005564 -0.21416,-4.3699603 -2.48861,-1.1795633 -0.11789,1.7834153 -0.0429,4.0464553 -0.70571,0.9568243 -0.44407,-0.5408723 0.764,-1.7982983 0.0273,-1.9941673 z m -5.56489,0.022621 c -1.8316,0.610853 -1.73323,3.0865053 0.51896,3.3519113 0.77143,-0.879633 0.30649,-3.1853383 -0.51896,-3.3519113 z m -7.1484,0.791753 c -2.37908,0.563878 -1.40799,2.4828653 -0.67958,3.0233213 -2.94491,0.737923 4.4957,0.943126 0.79269,1.410494 -3.0808,1.230835 2.96666,2.680942 3.95876,1.221561 3.80439,0.930735 0.13691,-3.046545 -0.19704,-5.2025323 -1.61275,-1.731481 -0.0637,3.9915333 -1.52187,0.184408 -0.50878,1.1305433 -2.12652,0.166598 -2.35296,-0.637252 z m 75.60113,0.248837 c -3.19245,1.2498623 1.98418,5.9664343 0.69764,1.6754943 -0.12817,-0.518125 0.2882,-1.8871053 -0.69764,-1.6754943 z M 19.66969,11.194162 c -2.29408,2.156707 2.91599,3.940201 -0.6589,5.546906 -0.53601,-2.002938 -1.45827,1.002105 -3.50346,-0.615417 -3.5159,1.464466 -5.31387,-0.762828 -8.25754,-2.28957 -1.76803,-0.220164 -1.10378,1.680533 -1.22088,3.460193 0,4.918306 0,9.836614 0,14.75492 1.73349,1.82448 0.67633,0.804976 0,0.301752 0.95147,3.241642 -0.41957,7.980231 3.33085,9.86583 0.63757,1.183033 3.31289,6.223076 3.43622,4.715046 -1.34121,-1.405066 -2.71735,-5.617387 -0.44789,-1.863024 2.03275,3.568795 4.77475,5.883507 8.78047,6.73276 2.19006,0.745225 3.99117,3.306965 5.91712,2.743325 1.08905,2.871967 -3.22742,5.629887 0.14491,8.308597 1.76052,2.7118 4.71619,4.4904 3.11596,8.29758 -1.11907,3.71826 -0.63992,7.76974 -1.60778,11.23409 -0.3004,2.10873 2.93803,7.46101 2.65747,3.17511 0.94557,-2.9784 0.92064,-6.25562 3.14758,-8.36483 3.04711,0.02413 0.58237,-3.27775 3.60701,-2.84642 1.84564,-2.42007 2.38023,-5.30712 5.49491,-6.26809 0.37204,-2.9376 5.17882,-7.43659 0.21313,-8.580318 -1.3496,-0.665451 -4.8245,-0.904732 -4.55895,-1.233078 0.53804,-2.914877 -4.49346,-3.744701 -6.63422,-4.937269 -2.81076,-1.995848 -7.03424,3.315594 -8.02452,-1.261025 -0.59087,-1.439948 -2.75132,-1.463301 -1.75843,-3.68521 -1.78939,1.780326 -5.28934,1.23924 -4.37303,-2.198916 1.39157,-2.895595 6.73564,-3.032599 7.64626,0.450282 -1.26435,-3.841203 2.44394,-6.83143 4.50253,-9.564217 0.41916,-1.3062 2.90974,-2.428425 2.05267,-0.692421 1.46016,-0.05269 3.6733,-2.688637 1.07941,-1.472012 -0.0367,-2.403896 -2.27297,-1.720272 -2.99799,-1.378934 1.34377,-2.133574 8.24499,-0.967127 5.3551,-4.454587 -2.23931,-0.907679 -2.05303,-6.204449 -4.318,-3.253597 0.19059,-1.818146 -4.61001,-5.377145 -4.50526,-2.328319 0.58599,2.728128 0.10714,5.870869 -1.13992,7.659113 -0.26025,-3.99762 -7.07568,-3.114085 -6.19943,-7.373995 1.26944,-2.030291 2.75285,-4.83791 2.89418,-4.585337 2.27505,-0.868941 4.10459,-3.396512 1.46783,-5.058122 -0.14091,1.448202 -1.98303,4.436139 -1.72366,0.822325 -1.70579,2.02318 -1.3162,-3.219407 -2.91375,-3.763121 z m 54.45,1.402533 c -3.99594,0.977838 -5.58006,4.795836 -7.55681,7.958163 -2.91386,1.314237 -2.80294,6.958318 0.45241,5.155674 0.87128,1.522277 -0.60951,3.921673 1.92831,1.931216 2.047,-2.709901 0.35794,-7.092756 3.84142,-8.801515 0.25373,1.32865 -3.21333,6.289871 0.837,5.474405 3.66156,0.138209 -2.66186,0.364969 -0.88101,2.704729 -1.85026,-1.098211 -0.88882,2.999333 -3.30397,2.045788 -2.09233,1.138533 -3.46434,-0.528629 -2.98503,-2.35496 -1.64596,0.960573 0.51769,3.67045 -2.33959,3.83331 -0.64004,2.273659 -5.90338,1.930962 -2.91021,4.246159 1.3289,3.445358 -4.95153,0.215986 -3.16853,4.35053 1.52545,4.088438 4.7224,-1.354722 6.01944,-2.406348 2.50247,-1.941872 6.21066,3.311089 3.95876,3.506335 2.52508,-0.338912 2.00619,-2.74125 -0.017,-3.671301 -1.09268,-2.834933 3.45903,1.390324 3.2066,2.811683 1.60594,3.008346 0.94461,-3.080088 2.57885,-0.384565 -0.1908,2.843378 6.57418,0.668556 3.34439,4.292415 -2.77687,0.559513 -5.51013,-0.716143 -7.90083,0.100926 -2.22511,-0.01969 -2.11347,-2.397964 -2.92358,-2.993542 -2.83037,0.23004 -6.32794,0.204027 -8.22277,2.491404 -2.04902,2.812343 -5.00383,6.743795 -2.77053,10.334807 2.23488,5.321462 7.77719,0.276028 10.96298,3.418767 0.94693,1.310381 -0.8206,2.868035 1.29671,4.287425 0.7967,3.02353 -0.90449,5.89433 1.05226,8.78464 1.01184,2.7182 1.63978,6.78664 5.40576,4.30281 3.98577,-2.39945 2.92416,-6.8227 6.21294,-9.27265 -2.60227,-5.038063 3.18363,-7.247103 4.62722,-11.337101 -3.15394,0.461909 -5.96377,-2.68376 -6.72579,-5.84994 -1.32493,-1.537885 -0.98367,-3.805502 0.49633,-0.916468 2.03426,1.971905 2.07822,7.823061 5.84127,4.813019 1.72035,-0.719835 6.41861,-3.465723 2.67511,-4.71532 -2.41304,1.748397 -5.07525,-5.224262 -1.53182,-1.179972 2.57604,1.093303 4.37998,1.744706 4.37998,-1.880149 0,-9.766125 0,-19.664578 0,-29.496868 -0.8024,0.82028 -2.8638,2.335242 -3.90428,1.328569 -1.79037,0.249406 -4.15389,3.734285 -3.59125,0.365539 -1.55624,-0.103093 -0.27859,3.020534 -2.41664,3.107891 -0.21529,1.605887 -2.15987,0.297377 -1.42943,1.822369 -1.50065,-1.064875 -2.77067,-4.427041 0.18614,-2.316729 4.39102,-1.317844 -2.8956,-4.290405 -3.45804,-5.008905 0.94545,-0.226615 -1.02861,-1.212248 -1.26681,-0.88224 z m -36.23967,0.88224 c -1.46151,1.2182 2.77853,1.447612 0,0 z m -19.52238,0.656023 c -1.63465,1.710504 2.60328,1.572448 0,0 z m 9.47842,1.696613 c -1.23787,2.028578 1.82903,0.748943 0,0 z m 27.10058,2.39788 c -1.44923,1.669078 -3.36205,-0.439263 -3.39323,0.995347 0.26265,0.433474 1.31468,3.527292 3.61944,1.244183 1.23699,-0.52171 0.74997,-1.836879 -0.22621,-2.23953 z m -30.85575,0.995347 c -2.74881,2.401478 4.6683,2.622741 0.58232,0.275426 l -0.58232,-0.275426 z m 36.26229,6.650724 c -1.97908,1.291041 0.94944,4.032808 -0.0431,5.320723 -1.2401,2.161465 4.60833,-0.152255 1.48462,-1.87676 -0.22257,-1.481616 -1.83002,-3.289356 -1.44154,-3.443963 z m -1.33466,2.601473 c -2.7574,0.779858 -0.62597,4.806237 0.35065,1.013998 0.055,-0.219858 0.12936,-1.021351 -0.35065,-1.013998 z M 36.92991,31.39517 c -2.56522,1.749832 -0.39843,3.496444 1.48156,2.709121 -0.38595,-1.055763 -1.46417,-1.720956 -1.48156,-2.709121 z m 48.4553,2.940797 c 1.27995,0.646198 -2.34553,1.750082 -0.0498,2.887358 1.33598,1.571671 0.83231,4.945457 -1.3392,2.557643 0.40344,-2.665992 -2.94356,-4.656978 1.38903,-5.445001 z m -6.58287,0.02262 c -0.17366,1.712793 3.69395,4.375139 -0.47504,3.506334 -2.20475,0.258725 -5.50697,-0.06739 -2.72943,-2.815681 0.87765,-0.527085 3.18206,1.818498 1.98292,-0.373952 0.42514,-0.02713 0.82107,-0.187672 1.22155,-0.316701 z m -12.73591,3.709927 c -1.60811,1.036413 1.11198,1.831121 0,0 z M 25.68701,47.7279 c -0.2711,0.904805 5.086,1.821755 1.38931,0.372149 L 26.52525,47.906003 25.68701,47.7279 z m 4.16236,1.289426 c -1.62491,1.650213 3.34781,0.493017 0,0 z m 54.3369,15.133794 c -3.53072,0.09113 -3.06133,9.20159 -0.60013,3.81083 0.2334,-1.16979 1.1689,-2.71377 0.60013,-3.81083 z"
       id="path3522"
       style="fill:url(#radialGradient2977);fill-opacity:1;stroke:none;display:inline" />
    <g
       transform="translate(0,-10)"
       id="g4141">
      <rect
         width="84"
         height="84"
         rx="6"
         ry="6"
         x="6"
         y="126"
         id="rect2419-1"
         style="fill:url(#linearGradient4146);fill-opacity:1;fill-rule:nonzero;stroke:none" />
      <path
         d="m 36.273888,126.0817 c 1.650116,2.21669 0.112581,5.91834 2.601472,5.88159 1.2119,1.71402 -2.415455,0.5113 0.203594,1.83235 1.506105,1.18657 -1.593388,1.86454 0.27179,2.92937 -2.149689,1.10967 0.348443,5.80399 1.945119,6.97885 2.627954,2.21316 1.162204,-4.68572 4.094495,-5.0446 1.593359,-1.8197 4.391847,-2.98781 6.379273,-4.81838 -1.942301,-0.15774 -3.076464,-1.36714 -1.237028,-2.1163 3.385456,3.47039 0.848905,-1.64353 -1.025128,-2.45324 1.813361,-0.57705 3.576977,-0.15449 3.325361,-1.65137 1.916325,-1.40252 -1.842255,-1.85535 -3.183935,-1.53827 -4.458342,0 -8.916678,0 -13.375013,0 z m -27.8018524,1.44778 c -2.4497603,0.69819 -2.6206434,6.55488 -0.1583506,3.30274 0.6043433,-1.33537 3.397078,-2.94467 0.1583506,-3.30274 z m 11.4464914,0.20359 c -1.412257,2.21534 0.204915,3.9915 1.379912,1.28943 0.831709,-1.12834 -0.617926,-1.24809 -1.379912,-1.28943 z m 3.528956,0.49768 c -2.72875,1.26521 -0.672602,4.21556 -0.605059,4.87173 2.87456,0.99483 4.473227,-0.65043 5.560693,2.16149 2.73516,1.57694 -0.05382,4.31706 -1.080544,5.03068 1.849342,-1.61119 5.404158,4.38048 4.472249,1.21492 -1.11178,-0.81208 2.985161,1.30456 0.859619,-1.33467 -1.956059,-3.15266 0.155272,-1.41141 0.979953,-0.67561 2.804888,-2.51609 -3.173595,-2.82021 -1.681217,-5.40958 -1.307758,-1.05958 -3.02289,-4.26949 -5.33868,-3.64206 -1.550241,2.00557 -0.214153,-4.36996 -2.488605,-1.17956 -0.117891,1.78341 -0.04285,4.04645 -0.705711,0.95682 -0.444071,-0.54087 0.764001,-1.7983 0.0273,-1.99416 z m -5.564894,0.0226 c -1.8316,0.61085 -1.733228,3.0865 0.518957,3.35191 0.771435,-0.87964 0.306491,-3.18534 -0.518957,-3.35191 z m -7.148401,0.79175 c -2.3790789,0.56388 -1.4079923,2.48286 -0.679573,3.02332 -2.9449177,0.73792 4.495691,0.94313 0.792681,1.41049 -3.0807906,1.23084 2.966663,2.68095 3.958766,1.22156 3.804391,0.93074 0.136908,-3.04654 -0.19704,-5.20253 -1.612752,-1.73148 -0.06366,3.99154 -1.521869,0.18441 -0.508786,1.13054 -2.126527,0.1666 -2.352965,-0.63725 z m 75.601127,0.24884 c -3.192449,1.24986 1.98418,5.96643 0.697641,1.67549 -0.128164,-0.51813 0.288199,-1.88711 -0.697641,-1.67549 z m -66.665626,1.9002 c -2.29408,2.15671 2.915989,3.9402 -0.658895,5.54691 -0.536018,-2.00294 -1.458273,1.0021 -3.503464,-0.61542 -3.515899,1.46447 -5.313868,-0.76283 -8.2575357,-2.28957 -1.7680291,-0.22016 -1.1037806,1.68053 -1.220883,3.46019 0,4.91831 0,9.83662 0,14.75492 1.7334888,1.82448 0.6763288,0.80498 0,0.30175 0.9514666,3.24165 -0.4195722,7.98024 3.3308509,9.86584 0.6375636,1.18303 3.3128828,6.22307 3.4362208,4.71504 -1.341215,-1.40506 -2.717353,-5.61739 -0.447896,-1.86302 2.032755,3.56879 4.774749,5.8835 8.780477,6.73276 2.190057,0.74522 3.991169,3.30696 5.917116,2.74332 1.089051,2.87197 -3.227416,5.62989 0.144912,8.3086 1.760515,2.7118 4.716185,4.4904 3.11596,8.29758 -1.119073,3.71826 -0.639926,7.76974 -1.607786,11.23409 -0.300394,2.10873 2.938037,7.46101 2.65747,3.17511 0.945569,-2.9784 0.92064,-6.25562 3.147579,-8.36483 3.047115,0.0241 0.582377,-3.27775 3.60701,-2.84642 1.845644,-2.42007 2.380233,-5.30712 5.49491,-6.26809 0.372042,-2.9376 5.178821,-7.43659 0.213139,-8.58032 -1.349609,-0.66545 -4.824504,-0.90473 -4.55895,-1.23308 0.538034,-2.91487 -4.493466,-3.7447 -6.634228,-4.93727 -2.810759,-1.99584 -7.034237,3.3156 -8.024515,-1.26102 -0.590876,-1.43995 -2.751326,-1.4633 -1.758429,-3.68521 -1.789388,1.78033 -5.289343,1.23924 -4.373033,-2.19892 1.39157,-2.89559 6.735639,-3.0326 7.64626,0.45029 -1.264352,-3.84121 2.443938,-6.83144 4.502527,-9.56422 0.419165,-1.3062 2.909742,-2.42843 2.052679,-0.69242 1.460154,-0.0527 3.673291,-2.68864 1.079407,-1.47202 -0.03668,-2.40389 -2.272976,-1.72027 -2.997994,-1.37893 1.34377,-2.13357 8.24499,-0.96713 5.355098,-4.45459 -2.239305,-0.90768 -2.053024,-6.20445 -4.317999,-3.25359 0.190595,-1.81815 -4.610012,-5.37715 -4.505255,-2.32832 0.585986,2.72813 0.107133,5.87087 -1.139926,7.65911 -0.260245,-3.99762 -7.075678,-3.11408 -6.199423,-7.37399 1.26944,-2.03029 2.752851,-4.83791 2.894179,-4.58534 2.275048,-0.86894 4.104591,-3.39651 1.46783,-5.05812 -0.140917,1.4482 -1.98303,4.43614 -1.72366,0.82232 -1.705794,2.02318 -1.316199,-3.21941 -2.913753,-3.76312 z m 54.450004,1.40253 c -3.995941,0.97784 -5.580067,4.79584 -7.556815,7.95817 -2.913853,1.31423 -2.802938,6.95832 0.452411,5.15567 0.87128,1.52228 -0.609505,3.92167 1.928313,1.93122 2.046994,-2.7099 0.357939,-7.09276 3.841419,-8.80152 0.253727,1.32865 -3.213334,6.28987 0.836994,5.47441 3.66156,0.13821 -2.661851,0.36497 -0.881001,2.70473 -1.850264,-1.09821 -0.888827,2.99933 -3.303976,2.04578 -2.092333,1.13854 -3.464338,-0.52862 -2.985033,-2.35496 -1.645958,0.96058 0.517696,3.67045 -2.339585,3.83331 -0.640044,2.27366 -5.903378,1.93097 -2.910208,4.24616 1.328901,3.44536 -4.95153,0.21599 -3.16853,4.35053 1.525447,4.08844 4.722394,-1.35472 6.019433,-2.40634 2.502474,-1.94188 6.210661,3.31108 3.958763,3.50633 2.525083,-0.33891 2.006191,-2.74125 -0.01696,-3.6713 -1.092676,-2.83493 3.459035,1.39032 3.206601,2.81168 1.605944,3.00835 0.944615,-3.08009 2.578854,-0.38456 -0.190808,2.84338 6.574181,0.66855 3.344389,4.29241 -2.776877,0.55952 -5.510134,-0.71614 -7.900831,0.10093 -2.22511,-0.0197 -2.113469,-2.39797 -2.923585,-2.99354 -2.830365,0.23004 -6.327933,0.20402 -8.222767,2.4914 -2.049016,2.81234 -5.00383,6.7438 -2.770526,10.33481 2.234877,5.32146 7.777183,0.27603 10.962975,3.41876 0.946936,1.31039 -0.820594,2.86804 1.296711,4.28743 0.796704,3.02353 -0.904488,5.89433 1.052264,8.78464 1.011837,2.7182 1.639779,6.78664 5.40576,4.30281 3.985771,-2.39945 2.924161,-6.8227 6.212939,-9.27265 -2.60227,-5.03806 3.183628,-7.2471 4.627218,-11.3371 -3.153943,0.46191 -5.963772,-2.68376 -6.725787,-5.84994 -1.324936,-1.53789 -0.983676,-3.8055 0.496326,-0.91647 2.034259,1.97191 2.078217,7.82306 5.841274,4.81302 1.720349,-0.71984 6.418604,-3.46572 2.675109,-4.71532 -2.413043,1.7484 -5.075252,-5.22426 -1.531819,-1.17997 C 88.196064,166.6505 90,167.3019 90,163.67705 c 0,-9.76613 0,-19.66458 0,-29.49687 -0.802399,0.82028 -2.863802,2.33524 -3.904284,1.32857 -1.790368,0.24941 -4.153886,3.73428 -3.59125,0.36554 -1.556235,-0.10309 -0.278581,3.02053 -2.416637,3.10789 -0.215289,1.60589 -2.159868,0.29738 -1.429431,1.82237 -1.500645,-1.06488 -2.770669,-4.42704 0.186146,-2.31673 4.391021,-1.31784 -2.895608,-4.29041 -3.458045,-5.00891 0.945455,-0.22661 -1.028609,-1.21224 -1.266806,-0.88224 z m -36.239676,0.88224 c -1.461507,1.2182 2.778528,1.44762 0,0 z m -19.522376,0.65603 c -1.634652,1.7105 2.603281,1.57244 0,0 z m 9.478418,1.69661 c -1.237867,2.02858 1.829027,0.74894 0,0 z m 27.100586,2.39788 c -1.449235,1.66908 -3.362051,-0.43926 -3.39323,0.99535 0.262642,0.43347 1.314671,3.52729 3.619439,1.24418 1.236985,-0.52171 0.749963,-1.83688 -0.226209,-2.23953 z m -30.855759,0.99535 c -2.748806,2.40147 4.668304,2.62274 0.582324,0.27542 l -0.582324,-0.27542 z m 36.262298,6.65072 c -1.979083,1.29104 0.949434,4.03281 -0.04308,5.32072 -1.240104,2.16147 4.608325,-0.15225 1.484614,-1.87676 -0.222564,-1.48161 -1.830018,-3.28935 -1.441539,-3.44396 z m -1.334668,2.60147 c -2.757392,0.77986 -0.625964,4.80624 0.350657,1.014 0.05497,-0.21986 0.12936,-1.02135 -0.350657,-1.014 z m -22.078603,2.91818 c -2.565224,1.74983 -0.39843,3.49644 1.481561,2.70912 -0.385959,-1.05576 -1.46417,-1.72096 -1.481561,-2.70912 z m 48.455298,2.9408 c 1.279946,0.64619 -2.345536,1.75008 -0.04983,2.88736 1.335978,1.57167 0.832312,4.94545 -1.339202,2.55764 0.403442,-2.66599 -2.943559,-4.65698 1.389033,-5.445 z m -6.582867,0.0226 c -0.173666,1.71279 3.69395,4.37514 -0.475048,3.50633 -2.204744,0.25873 -5.506966,-0.0674 -2.729423,-2.81568 0.87765,-0.52709 3.182055,1.8185 1.982912,-0.37395 0.42514,-0.0271 0.821079,-0.18767 1.221559,-0.3167 z m -12.735913,3.70992 c -1.608116,1.03642 1.111982,1.83112 0,0 z m -40.379417,9.65939 c -0.271103,0.90481 5.085991,1.82176 1.389301,0.37215 l -0.551068,-0.19405 -0.838233,-0.1781 z m 4.16236,1.28943 c -1.624915,1.65021 3.347807,0.49301 0,0 z m 54.336901,15.13379 c -3.530727,0.0911 -3.061331,9.20159 -0.600138,3.81083 0.233406,-1.16979 1.168903,-2.71377 0.600138,-3.81083 z"
         id="path4119"
         style="fill:url(#radialGradient4148);fill-opacity:1;stroke:none;display:inline;filter:url(#filter3434)" />
      <path
         d="m 36.273888,126.0817 c 1.650116,2.21669 0.112581,5.91834 2.601472,5.88159 1.2119,1.71402 -2.415455,0.5113 0.203594,1.83235 1.506105,1.18657 -1.593388,1.86454 0.27179,2.92937 -2.149689,1.10967 0.348443,5.80399 1.945119,6.97885 2.627954,2.21316 1.162204,-4.68572 4.094495,-5.0446 1.593359,-1.8197 4.391847,-2.98781 6.379273,-4.81838 -1.942301,-0.15774 -3.076464,-1.36714 -1.237028,-2.1163 3.385456,3.47039 0.848905,-1.64353 -1.025128,-2.45324 1.813361,-0.57705 3.576977,-0.15449 3.325361,-1.65137 1.916325,-1.40252 -1.842255,-1.85535 -3.183935,-1.53827 -4.458342,0 -8.916678,0 -13.375013,0 z m -27.801852,1.44778 c -2.449761,0.69819 -2.620644,6.55488 -0.158351,3.30274 0.604343,-1.33537 3.397078,-2.94467 0.158351,-3.30274 z m 11.446491,0.20359 c -1.412257,2.21534 0.204915,3.9915 1.379912,1.28943 0.831709,-1.12834 -0.617926,-1.24809 -1.379912,-1.28943 z m 3.528956,0.49768 c -2.72875,1.26521 -0.672602,4.21556 -0.605059,4.87173 2.87456,0.99483 4.473227,-0.65043 5.560693,2.16149 2.73516,1.57694 -0.05382,4.31706 -1.080544,5.03068 1.849342,-1.61119 5.404158,4.38048 4.472249,1.21492 -1.11178,-0.81208 2.985161,1.30456 0.859619,-1.33467 -1.956059,-3.15266 0.155272,-1.41141 0.979953,-0.67561 2.804888,-2.51609 -3.173595,-2.82021 -1.681217,-5.40958 -1.307758,-1.05958 -3.02289,-4.26949 -5.33868,-3.64206 -1.550241,2.00557 -0.214153,-4.36996 -2.488605,-1.17956 -0.117891,1.78341 -0.04285,4.04645 -0.705711,0.95682 -0.444071,-0.54087 0.764001,-1.7983 0.0273,-1.99416 z m -5.564894,0.0226 c -1.8316,0.61085 -1.733228,3.0865 0.518957,3.35191 0.771435,-0.87964 0.306491,-3.18534 -0.518957,-3.35191 z m -7.148401,0.79175 c -2.379079,0.56388 -1.407992,2.48286 -0.679573,3.02332 -2.944918,0.73792 4.495691,0.94313 0.792681,1.41049 -3.080791,1.23084 2.966663,2.68095 3.958766,1.22156 3.804391,0.93074 0.136908,-3.04654 -0.19704,-5.20253 -1.612752,-1.73148 -0.06366,3.99154 -1.521869,0.18441 -0.508786,1.13054 -2.126527,0.1666 -2.352965,-0.63725 z m 75.601127,0.24884 c -3.192449,1.24986 1.98418,5.96643 0.697641,1.67549 -0.128164,-0.51813 0.288199,-1.88711 -0.697641,-1.67549 z m -66.665626,1.9002 c -2.29408,2.15671 2.915989,3.9402 -0.658895,5.54691 -0.536018,-2.00294 -1.458273,1.0021 -3.503464,-0.61542 -3.515899,1.46447 -5.313868,-0.76283 -8.257536,-2.28957 -1.768029,-0.22016 -1.10378,1.68053 -1.220883,3.46019 0,4.91831 0,9.83662 0,14.75492 1.733489,1.82448 0.676329,0.80498 0,0.30175 0.951467,3.24165 -0.419572,7.98024 3.330851,9.86584 0.637564,1.18303 3.312883,6.22307 3.436221,4.71504 -1.341215,-1.40506 -2.717353,-5.61739 -0.447896,-1.86302 2.032755,3.56879 4.774749,5.8835 8.780477,6.73276 2.190057,0.74522 3.991169,3.30696 5.917116,2.74332 1.089051,2.87197 -3.227416,5.62989 0.144912,8.3086 1.760515,2.7118 4.716185,4.4904 3.11596,8.29758 -1.119073,3.71826 -0.639926,7.76974 -1.607786,11.23409 -0.300394,2.10873 2.938037,7.46101 2.65747,3.17511 0.945569,-2.9784 0.92064,-6.25562 3.147579,-8.36483 3.047115,0.0241 0.582377,-3.27775 3.60701,-2.84642 1.845644,-2.42007 2.380233,-5.30712 5.49491,-6.26809 0.372042,-2.9376 5.178821,-7.43659 0.213139,-8.58032 -1.349609,-0.66545 -4.824504,-0.90473 -4.55895,-1.23308 0.538034,-2.91487 -4.493466,-3.7447 -6.634228,-4.93727 -2.810759,-1.99584 -7.034237,3.3156 -8.024515,-1.26102 -0.590876,-1.43995 -2.751326,-1.4633 -1.758429,-3.68521 -1.789388,1.78033 -5.289343,1.23924 -4.373033,-2.19892 1.39157,-2.89559 6.735639,-3.0326 7.64626,0.45029 -1.264352,-3.84121 2.443938,-6.83144 4.502527,-9.56422 0.419165,-1.3062 2.909742,-2.42843 2.052679,-0.69242 1.460154,-0.0527 3.673291,-2.68864 1.079407,-1.47202 -0.03668,-2.40389 -2.272976,-1.72027 -2.997994,-1.37893 1.34377,-2.13357 8.24499,-0.96713 5.355098,-4.45459 -2.239305,-0.90768 -2.053024,-6.20445 -4.317999,-3.25359 0.190595,-1.81815 -4.610012,-5.37715 -4.505255,-2.32832 0.585986,2.72813 0.107133,5.87087 -1.139926,7.65911 -0.260245,-3.99762 -7.075678,-3.11408 -6.199423,-7.37399 1.26944,-2.0303 2.752851,-4.83791 2.894179,-4.58534 2.275048,-0.86894 4.104591,-3.39651 1.46783,-5.05812 -0.140917,1.4482 -1.98303,4.43614 -1.72366,0.82232 -1.705794,2.02318 -1.316199,-3.21941 -2.913753,-3.76312 z m 54.450004,1.40253 c -3.995941,0.97784 -5.580067,4.79584 -7.556815,7.95817 -2.913853,1.31423 -2.802938,6.95832 0.452411,5.15567 0.87128,1.52228 -0.609505,3.92167 1.928313,1.93122 2.046994,-2.7099 0.357939,-7.09276 3.841419,-8.80152 0.253727,1.32865 -3.213334,6.28987 0.836994,5.47441 3.66156,0.13821 -2.661851,0.36497 -0.881001,2.70473 -1.850264,-1.09821 -0.888827,2.99933 -3.303976,2.04578 -2.092333,1.13854 -3.464338,-0.52862 -2.985033,-2.35496 -1.645958,0.96058 0.517696,3.67045 -2.339585,3.83331 -0.640044,2.27366 -5.903378,1.93097 -2.910208,4.24616 1.328901,3.44536 -4.95153,0.21599 -3.16853,4.35053 1.525447,4.08844 4.722394,-1.35472 6.019433,-2.40634 2.502474,-1.94188 6.210661,3.31108 3.958763,3.50633 2.525083,-0.33891 2.006191,-2.74125 -0.01696,-3.6713 -1.092676,-2.83493 3.459035,1.39032 3.206601,2.81168 1.605944,3.00835 0.944615,-3.08009 2.578854,-0.38456 -0.190808,2.84338 6.574181,0.66855 3.344389,4.29241 -2.776877,0.55952 -5.510134,-0.71614 -7.900831,0.10093 -2.22511,-0.0197 -2.113469,-2.39797 -2.923585,-2.99354 -2.830365,0.23004 -6.327933,0.20402 -8.222767,2.4914 -2.049016,2.81234 -5.00383,6.7438 -2.770526,10.33481 2.234877,5.32146 7.777183,0.27603 10.962975,3.41876 0.946936,1.31039 -0.820594,2.86804 1.296711,4.28743 0.796704,3.02353 -0.904488,5.89433 1.052264,8.78464 1.011837,2.7182 1.639779,6.78664 5.40576,4.30281 3.985771,-2.39945 2.924161,-6.8227 6.212939,-9.27265 -2.60227,-5.03806 3.183628,-7.2471 4.627218,-11.3371 -3.153943,0.46191 -5.963772,-2.68376 -6.725787,-5.84994 -1.324936,-1.53789 -0.983676,-3.8055 0.496326,-0.91647 2.034259,1.97191 2.078217,7.82306 5.841274,4.81302 1.720349,-0.71984 6.418604,-3.46572 2.675109,-4.71532 -2.413043,1.7484 -5.075252,-5.22426 -1.531819,-1.17997 C 88.196064,166.6505 90,167.3019 90,163.67705 c 0,-9.76613 0,-19.66458 0,-29.49687 -0.802399,0.82028 -2.863802,2.33524 -3.904284,1.32857 -1.790368,0.24941 -4.153886,3.73428 -3.59125,0.36554 -1.556235,-0.10309 -0.278581,3.02053 -2.416637,3.10789 -0.215289,1.60589 -2.159868,0.29738 -1.429431,1.82237 -1.500645,-1.06488 -2.770669,-4.42704 0.186146,-2.31673 4.391021,-1.31784 -2.895608,-4.29041 -3.458045,-5.00891 0.945455,-0.22661 -1.028609,-1.21224 -1.266806,-0.88224 z m -36.239676,0.88224 c -1.461507,1.2182 2.778528,1.44762 0,0 z m -19.522376,0.65603 c -1.634652,1.7105 2.603281,1.57244 0,0 z m 9.478418,1.69661 c -1.237867,2.02858 1.829027,0.74894 0,0 z m 27.100586,2.39788 c -1.449235,1.66908 -3.362051,-0.43926 -3.39323,0.99535 0.262642,0.43347 1.314671,3.52729 3.619439,1.24418 1.236985,-0.52171 0.749963,-1.83688 -0.226209,-2.23953 z m -30.855759,0.99535 c -2.748806,2.40147 4.668304,2.62274 0.582324,0.27542 l -0.582324,-0.27542 z m 36.262298,6.65072 c -1.979083,1.29104 0.949434,4.03281 -0.04308,5.32072 -1.240104,2.16147 4.608325,-0.15225 1.484614,-1.87675 -0.222564,-1.48162 -1.830018,-3.28936 -1.441539,-3.44397 z m -1.334668,2.60147 c -2.757392,0.77986 -0.625964,4.80624 0.350657,1.014 0.05497,-0.21986 0.12936,-1.02135 -0.350657,-1.014 z m -22.078603,2.91818 c -2.565224,1.74983 -0.39843,3.49644 1.481561,2.70912 -0.385959,-1.05576 -1.46417,-1.72096 -1.481561,-2.70912 z m 48.455298,2.9408 c 1.279946,0.64619 -2.345536,1.75008 -0.04983,2.88736 1.335978,1.57167 0.832312,4.94545 -1.339202,2.55764 0.403442,-2.66599 -2.943559,-4.65698 1.389033,-5.445 z m -6.582867,0.0226 c -0.173666,1.71279 3.69395,4.37514 -0.475048,3.50633 -2.204744,0.25873 -5.506966,-0.0674 -2.729423,-2.81568 0.87765,-0.52709 3.182055,1.8185 1.982912,-0.37395 0.42514,-0.0271 0.821079,-0.18767 1.221559,-0.3167 z m -12.735913,3.70992 c -1.608116,1.03642 1.111982,1.83112 0,0 z m -40.379417,9.65939 c -0.271103,0.90481 5.085991,1.82176 1.389301,0.37215 l -0.551068,-0.19405 -0.838233,-0.1781 z m 4.16236,1.28943 c -1.624915,1.65021 3.347807,0.49301 0,0 z m 54.336901,15.13379 c -3.530727,0.0911 -3.061331,9.20159 -0.600138,3.81083 0.233406,-1.16979 1.168903,-2.71377 0.600138,-3.81083 z"
         id="path3522-3"
         style="fill:url(#radialGradient4150);fill-opacity:1;stroke:none;display:inline" />
    </g>
    <path
       d="m 12,6.0000002 c -3.324,0 -6,2.676 -6,5.9999998 l 0,2 0,68 0,2 c 0,0.334721 0.04135,0.6507 0.09375,0.96875 0.0487,0.295596 0.09704,0.596915 0.1875,0.875 0.00988,0.03038 0.020892,0.0636 0.03125,0.09375 0.098865,0.287771 0.2348802,0.547452 0.375,0.8125 0.1445918,0.273507 0.3156161,0.535615 0.5,0.78125 0.1843839,0.245635 0.3737765,0.473472 0.59375,0.6875 0.439947,0.428056 0.94291,0.814526 1.5,1.09375 0.278545,0.139612 0.5734731,0.246947 0.875,0.34375 -0.2562018,-0.100222 -0.4867109,-0.236272 -0.71875,-0.375 -0.00741,-0.0044 -0.023866,0.0045 -0.03125,0 -0.031933,-0.0193 -0.062293,-0.04251 -0.09375,-0.0625 -0.120395,-0.0767 -0.2310226,-0.163513 -0.34375,-0.25 -0.1061728,-0.0808 -0.2132809,-0.161112 -0.3125,-0.25 C 8.4783201,88.557317 8.3087904,88.373362 8.15625,88.1875 8.0486711,88.057245 7.9378561,87.922215 7.84375,87.78125 7.818661,87.74287 7.805304,87.69538 7.78125,87.65625 7.716487,87.553218 7.6510225,87.451733 7.59375,87.34375 7.4927417,87.149044 7.3880752,86.928049 7.3125,86.71875 7.30454,86.69694 7.288911,86.6782 7.28125,86.65625 7.249425,86.5643 7.245445,86.469419 7.21875,86.375 7.188418,86.268382 7.148361,86.171969 7.125,86.0625 7.052121,85.720988 7,85.364295 7,85 L 7,83 7,15 7,13 C 7,10.218152 9.2181517,8.0000002 12,8.0000002 l 2,0 68,0 2,0 c 2.781848,0 5,2.2181518 5,4.9999998 l 0,2 0,68 0,2 c 0,0.364295 -0.05212,0.720988 -0.125,1.0625 -0.04415,0.206893 -0.08838,0.397658 -0.15625,0.59375 -0.0077,0.02195 -0.0233,0.04069 -0.03125,0.0625 -0.06274,0.173739 -0.138383,0.367449 -0.21875,0.53125 -0.04158,0.0828 -0.07904,0.169954 -0.125,0.25 -0.0546,0.09721 -0.126774,0.18835 -0.1875,0.28125 -0.09411,0.140965 -0.204921,0.275995 -0.3125,0.40625 -0.143174,0.17445 -0.303141,0.346998 -0.46875,0.5 -0.01117,0.0102 -0.01998,0.02115 -0.03125,0.03125 -0.138386,0.125556 -0.285091,0.234436 -0.4375,0.34375 -0.102571,0.07315 -0.204318,0.153364 -0.3125,0.21875 -0.0074,0.0045 -0.02384,-0.0044 -0.03125,0 -0.232039,0.138728 -0.462548,0.274778 -0.71875,0.375 0.301527,-0.0968 0.596455,-0.204138 0.875,-0.34375 0.55709,-0.279224 1.060053,-0.665694 1.5,-1.09375 0.219973,-0.214028 0.409366,-0.441865 0.59375,-0.6875 0.184384,-0.245635 0.355408,-0.507743 0.5,-0.78125 0.14012,-0.265048 0.276135,-0.524729 0.375,-0.8125 0.01041,-0.03078 0.02133,-0.06274 0.03125,-0.09375 0.09046,-0.278085 0.1388,-0.579404 0.1875,-0.875 C 89.95865,84.6507 90,84.334721 90,84 l 0,-2 0,-68 0,-2 C 90,8.6760002 87.324,6.0000002 84,6.0000002 l -72,0 z"
       id="rect3728"
       style="opacity:0.45;fill:url(#linearGradient3188-9);fill-opacity:1;fill-rule:nonzero;stroke:none" />
    <path
       d="M 12,90 C 8.676,90 6,87.324 6,84 L 6,82 6,14 6,12 c 0,-0.33472 0.04135,-0.6507 0.09375,-0.96875 0.0487,-0.2956 0.09704,-0.59691 0.1875,-0.875 0.00988,-0.0304 0.020892,-0.0636 0.03125,-0.0937 C 6.411365,9.77478 6.5473802,9.5151 6.6875,9.25005 6.8320918,8.97654 7.0031161,8.71443 7.1875,8.4688 7.3718839,8.22317 7.5612765,7.99533 7.78125,7.7813 8.221197,7.35324 8.72416,6.96677 9.28125,6.68755 9.559795,6.54794 9.8547231,6.4406 10.15625,6.3438 9.9000482,6.44402 9.6695391,6.58007 9.4375,6.7188 9.43009,6.7228 9.413634,6.7148 9.40625,6.7188 9.374317,6.7381 9.343957,6.7613 9.3125,6.7813 9.192105,6.858 9.0814774,6.94481 8.96875,7.0313 8.8625772,7.1121 8.7554691,7.19241 8.65625,7.2813 8.4783201,7.44273 8.3087904,7.62669 8.15625,7.81255 8.0486711,7.94281 7.9378561,8.07784 7.84375,8.2188 7.818661,8.2572 7.805304,8.3047 7.78125,8.3438 7.716487,8.44683 7.6510225,8.54832 7.59375,8.6563 7.4927417,8.85101 7.3880752,9.072 7.3125,9.2813 7.30454,9.3031 7.288911,9.3218 7.28125,9.3438 7.249425,9.4357 7.245445,9.53063 7.21875,9.62505 7.188418,9.73167 7.148361,9.82808 7.125,9.93755 7.052121,10.27901 7,10.63571 7,11 l 0,2 0,68 0,2 c 0,2.78185 2.2181517,5 5,5 l 2,0 68,0 2,0 c 2.781848,0 5,-2.21815 5,-5 l 0,-2 0,-68 0,-2 C 89,10.63571 88.94788,10.27901 88.875,9.9375 88.83085,9.73061 88.78662,9.53984 88.71875,9.34375 88.71105,9.32175 88.69545,9.30305 88.6875,9.28125 88.62476,9.10751 88.549117,8.9138 88.46875,8.75 88.42717,8.6672 88.38971,8.58005 88.34375,8.5 88.28915,8.4028 88.216976,8.31165 88.15625,8.21875 88.06214,8.07779 87.951329,7.94276 87.84375,7.8125 87.700576,7.63805 87.540609,7.4655 87.375,7.3125 87.36383,7.3023 87.35502,7.2913 87.34375,7.2813 87.205364,7.15574 87.058659,7.04686 86.90625,6.93755 86.803679,6.86445 86.701932,6.78419 86.59375,6.7188 c -0.0074,-0.004 -0.02384,0.004 -0.03125,0 -0.232039,-0.13873 -0.462548,-0.27478 -0.71875,-0.375 0.301527,0.0968 0.596455,0.20414 0.875,0.34375 0.55709,0.27922 1.060053,0.66569 1.5,1.09375 0.219973,0.21403 0.409366,0.44187 0.59375,0.6875 0.184384,0.24563 0.355408,0.50774 0.5,0.78125 0.14012,0.26505 0.276135,0.52473 0.375,0.8125 0.01041,0.0308 0.02133,0.0627 0.03125,0.0937 0.09046,0.27809 0.1388,0.5794 0.1875,0.875 C 89.95865,11.3493 90,11.66528 90,12 l 0,2 0,68 0,2 c 0,3.324 -2.676,6 -6,6 l -72,0 z"
       id="path3615"
       style="opacity:0.25;fill:url(#radialGradient2855-1);fill-opacity:1;fill-rule:nonzero;stroke:none" />
  </g>
  <g
     id="layer4"
     style="display:inline">
    <rect
       width="66"
       height="66"
       rx="12"
       ry="12"
       x="15"
       y="15"
       clip-path="url(#clipPath3613)"
       id="rect3171"
       style="opacity:0.15;fill:url(#linearGradient2885);fill-opacity:1;fill-rule:nonzero;stroke:#ffffff;stroke-width:0.5;stroke-linecap:round;stroke-linejoin:miter;stroke-miterlimit:4;stroke-opacity:1;stroke-dasharray:none;stroke-dashoffset:0;filter:url(#filter4123)" />
  </g>
  <g
     id="layer3">
    <path
       d="m 69.6875,17.6875 c -0.0035,5.71e-4 0.0031,0.03073 0,0.03125 -0.0063,0.001 -0.02221,-0.0015 -0.03125,0 -0.009,0.0015 -0.02021,-0.0018 -0.03125,0 0.0016,-7.3e-5 -0.0448,-0.0041 -0.09375,0 -0.03263,0.0027 -0.06358,1.31e-4 -0.0625,0 0.0027,-3.28e-4 -0.158912,0.03178 -0.15625,0.03125 0.0023,-4.53e-4 -0.12134,0.05419 -0.15625,0.0625 -0.0062,0.0015 -0.03164,1.1e-4 -0.03125,0 0.0026,-7.34e-4 -0.1588,0.03218 -0.15625,0.03125 -12.181021,1.904311 -25.0005,4.48413 -35.5,12.875 -7.964106,6.312267 -13.681658,16.355749 -12.65625,27.125 7.05e-4,0.0099 -7.21e-4,0.02136 0,0.03125 0.174215,2.392213 0.809754,4.965115 2.125,7.28125 1.336229,2.353084 3.505015,4.491167 6.53125,5.375 0.02241,0.0065 0.01058,-0.0052 0.03125,0 L 29.5,70.5 c 0.07009,0.0214 0.118365,0.01184 0.1875,0.03125 0.687305,0.193013 1.340106,0.349549 1.84375,0.40625 0.08601,0.0097 0.14099,0.02378 0.21875,0.03125 0.01144,0.03166 0.03056,0.09256 0.03125,0.09375 0.0034,0.0057 0.02667,0.02361 0.03125,0.03125 a 1.1560616,1.1560616 0 0 0 0,0.03125 c 0.0065,0.0108 0.02422,0.01956 0.03125,0.03125 a 1.1560616,1.1560616 0 0 0 0,0.03125 c 0.0069,0.01322 0.02434,0.01806 0.03125,0.03125 2.874591,5.492569 9.579383,8.393316 15.59375,6.15625 -0.0047,-9.22e-4 0.04054,1.48e-4 0.03125,0 0.08107,-0.0304 0.169199,0.0011 0.25,-0.03125 a 1.1560616,1.1560616 0 0 0 0.125,-0.03125 1.1560616,1.1560616 0 0 0 0.09375,-0.03125 c 0.02433,2.14e-4 0.03117,0.0018 0.0625,0 -0.129024,0.07409 -0.05682,0.09404 0.40625,-0.125 -0.05635,0.02984 -0.125188,0.06257 -0.125,0.0625 0.06565,-0.02123 0.124733,-0.03113 0.125,-0.03125 a 1.1560616,1.1560616 0 0 0 0.09375,-0.0625 c 0.02554,-0.01352 0.05014,-0.02472 0.0625,-0.03125 A 1.1560616,1.1560616 0 0 0 48.625,77.0625 1.1560616,1.1560616 0 0 0 48.6875,77.03125 c 0.02415,-0.01677 0.03833,-0.01452 0.0625,-0.03125 0.0083,-0.0042 0.02298,0.0042 0.03125,0 l 0,-0.03125 c 0.402317,-0.206475 0.749518,-0.452771 1.09375,-0.6875 4.433317,2.385302 10.037267,1.711287 13.65625,-1.90625 1.5e-5,-1.5e-5 -0.0016,-0.02883 0,-0.03125 -9e-5,8.9e-5 0.04351,-0.03661 0.0625,-0.0625 0.0092,-0.01387 0.02016,-0.01452 0.03125,-0.03125 a 1.1560616,1.1560616 0 0 0 0,-0.03125 c 0.05424,-0.08187 0.09565,-0.111894 0.125,-0.15625 4.31797,-4.285562 6.209635,-9.793515 7.90625,-14.4375 a 1.1560616,1.1560616 0 0 0 0.03125,-0.125 1.1560616,1.1560616 0 0 0 0.03125,-0.15625 1.1560616,1.1560616 0 0 0 0,-0.0625 1.1560616,1.1560616 0 0 0 0,-0.0625 c 0.0083,-0.03189 0.02297,-0.06186 0.03125,-0.09375 a 1.1560616,1.1560616 0 0 0 0,-0.0625 c 2.228238,-8.608642 3.126965,-17.358654 3.53125,-26 -1.22e-4,0.0027 -8.7e-5,-0.146861 0,-0.1875 -5e-6,-1.14e-4 7.17e-4,-0.02555 0,-0.03125 -0.0072,-0.05748 -0.03729,-0.354725 -0.03125,-0.3125 0,0 -0.02521,-0.03337 -0.03125,-0.0625 1.93e-4,-0.0071 -2.64e-4,-0.02382 0,-0.03125 6.61e-4,-0.01858 -4.65e-4,-0.04361 0,-0.0625 0.0014,-0.05666 -9.82e-4,-0.117208 0,-0.1875 0.0026,-0.187445 0.0196,-0.412141 0.03125,-0.6875 0.02775,-0.655772 0.05569,-1.492959 0,-2.34375 -0.05385,-0.822629 -0.206463,-2.059277 -1.03125,-3.21875 -0.833365,-1.171532 -2.170296,-1.625068 -3.53125,-1.65625 0.219333,-0.107773 0.273969,-0.170605 0.5,-0.28125 0.02335,-0.0069 0.05409,-0.01481 0.09375,-0.03125 0.02767,-0.01354 0.03473,-0.01767 0.0625,-0.03125 0.01653,-0.0072 0.06239,5.5e-5 0.0625,0 -0.239765,0.124581 0.217943,-0.09328 0.21875,-0.09375 0,0 0.08769,-0.08911 0.09375,-0.09375 0.0061,-0.0046 0.02936,0.0015 0.03125,0 0.0053,-0.0042 0.0237,-0.02521 0.03125,-0.03125 0.0151,-0.01207 0.04301,-0.01564 0.0625,-0.03125 0.03898,-0.03122 -4.49e-4,-0.03093 0,-0.03125 8.98e-4,-6.31e-4 0.217912,-0.155542 0.21875,-0.15625 4.19e-4,-3.54e-4 0.02349,-7e-5 0.0625,-0.03125 0.0195,-0.01559 0.01626,-0.01926 0.03125,-0.03125 0.0075,-0.006 0.02621,-0.02721 0.03125,-0.03125 0.0029,-0.0024 0.09373,-0.09373 0.09375,-0.09375 4.8e-5,-4.9e-5 0.09174,-0.09126 0.09375,-0.09375 0.004,-0.005 0.02526,-0.02377 0.03125,-0.03125 0.01198,-0.01496 0.01566,-0.01175 0.03125,-0.03125 0.03118,-0.03901 0.0309,-0.06208 0.03125,-0.0625 7.01e-4,-8.44e-4 0.186877,-0.249097 0.1875,-0.25 6.23e-4,-9.03e-4 0.155709,-0.249046 0.15625,-0.25 2.7e-4,-4.77e-4 0.0078,0.0077 0.03125,-0.03125 0.01171,-0.0195 0.02222,-0.04744 0.03125,-0.0625 0.0045,-0.0075 0.02815,-0.02606 0.03125,-0.03125 0.002,-0.0034 0.06249,-0.124969 0.0625,-0.125 2.8e-5,-6.2e-5 0.03023,-0.09073 0.03125,-0.09375 0.001,-0.003 -0.001,-0.02825 0,-0.03125 0.006,-0.01797 0.02346,-0.0391 0.03125,-0.0625 0.01558,-0.0468 0.03107,-0.09323 0.03125,-0.09375 3.65e-4,-0.001 0.09348,-0.280187 0.09375,-0.28125 2.72e-4,-0.0011 0.06232,-0.248917 0.0625,-0.25 0,0 -2.08e-4,-0.147682 0,-0.15625 2.08e-4,-0.0086 -3.3e-5,-0.02856 0,-0.03125 1.3e-5,-0.0066 -10e-7,-0.02213 0,-0.03125 2e-6,-0.01824 1.6e-5,-0.0391 0,-0.0625 4e-5,-5.47e-4 -0.0078,0.02333 0,-0.03125 0.0039,-0.02729 -0.003,-0.07271 0,-0.09375 0.0015,-0.01052 0.03024,-0.02407 0.03125,-0.03125 0,0 0.0011,-0.304684 0,-0.3125 -0.0011,-0.0078 3.81e-4,-0.02879 0,-0.03125 -6.26e-4,-0.0039 -0.03072,0.0032 -0.03125,0 -0.0011,-0.0065 0.0015,-0.02216 0,-0.03125 -0.003,-0.01817 0.0039,-0.0391 0,-0.0625 -0.0078,-0.0468 5.6e-5,-0.0307 0,-0.03125 -1.13e-4,-0.0011 -0.06229,-0.280173 -0.0625,-0.28125 -2.09e-4,-0.0011 -0.03095,-0.248946 -0.03125,-0.25 -3.04e-4,-0.0011 -0.124604,-0.280227 -0.125,-0.28125 -1.98e-4,-5.12e-4 0.01557,-0.0157 0,-0.0625 -0.0078,-0.0234 -0.02522,-0.04443 -0.03125,-0.0625 -0.001,-0.0031 0.0012,-0.02779 0,-0.03125 -4.84e-4,-9.84e-4 -0.186931,-0.374062 -0.1875,-0.375 0,0 -0.08974,-0.119797 -0.09375,-0.125 -0.0041,-0.0051 -0.02524,-0.02373 -0.03125,-0.03125 -0.01202,-0.01504 -0.01564,-0.04301 -0.03125,-0.0625 -0.03122,-0.03898 -0.03092,-0.03081 -0.03125,-0.03125 C 72.582064,19.011737 72.571681,19.0153 72.5625,19 c -0.0046,-0.0077 0.0034,-0.02555 0,-0.03125 0,0 -0.02596,0.0085 -0.03125,0 -0.0016,-0.0026 0.0053,-0.02297 0,-0.03125 -0.04436,-0.05256 -0.212837,-0.245028 -0.21875,-0.25 -0.0067,-0.0056 -0.02914,-0.02952 -0.03125,-0.03125 -0.0054,-0.0043 -0.02367,-0.02519 -0.03125,-0.03125 -0.01516,-0.01213 -0.01174,-0.01567 -0.03125,-0.03125 -0.03902,-0.03117 -0.03085,3.78e-4 -0.03125,0 -3.98e-4,-3.78e-4 -5.7e-5,-2.9e-5 -0.03125,-0.03125 -0.0156,-0.01561 -0.01918,-0.05043 -0.03125,-0.0625 -0.006,-0.006 -0.02704,0.0042 -0.03125,0 -0.0029,-0.0028 -0.09372,-0.09373 -0.09375,-0.09375 -8.59e-4,-6.82e-4 -0.249084,-0.186896 -0.25,-0.1875 -9.16e-4,-6.04e-4 -0.217784,-0.155729 -0.21875,-0.15625 0,0 -0.147962,-0.05951 -0.15625,-0.0625 -0.0083,-0.003 -0.02866,9.01e-4 -0.03125,0 -0.0065,-0.0022 -0.02215,0.003 -0.03125,0 -0.01821,-0.0061 -0.0391,-0.02347 -0.0625,-0.03125 -0.001,-4.33e-4 -0.248958,-0.09341 -0.25,-0.09375 -0.001,-3.42e-4 -0.311431,-0.0935 -0.3125,-0.09375 -0.0011,-2.49e-4 -0.280164,-0.06235 -0.28125,-0.0625 -5.43e-4,-7.7e-5 -0.0157,0.0078 -0.0625,0 -0.0234,-0.0039 -0.04447,0.003 -0.0625,0 -0.009,-0.0015 -0.02511,0.001 -0.03125,0 -0.0016,-2.66e-4 0.0038,-0.03065 0,-0.03125 -0.0038,-5.98e-4 -0.124966,2e-6 -0.125,0 -0.0011,-5.7e-5 -0.280154,-4e-5 -0.28125,0 0,0 -0.118312,-9.84e-4 -0.125,0 -0.0067,9.84e-4 -0.02912,-3.33e-4 -0.03125,0 z M 66.09375,26.75 c -4.663871,4.287039 -9.365851,8.277433 -14.65625,10.8125 1.98711,-2.893411 5.135695,-5.415268 8.4375,-7.5 1.577799,-0.996209 4.149207,-2.227527 6.21875,-3.3125 z m -18.5,48.34375 c 0.01574,0.0023 0.02219,-0.002 0.03125,0 0,0 0.02765,0.01845 0.0625,0.03125 -0.0029,-8.39e-4 -0.02714,0.0014 -0.03125,0 -0.0056,-0.0018 -0.0286,-0.02261 -0.0625,-0.03125 z m 2.5625,0.09375 -0.0625,0.09375 0,-0.03125 0,-0.03125 0.0625,-0.03125 z"
       id="path3989"
       style="font-size:medium;font-style:normal;font-variant:normal;font-weight:normal;font-stretch:normal;text-indent:0;text-align:start;text-decoration:none;line-height:normal;letter-spacing:normal;word-spacing:normal;text-transform:none;direction:ltr;block-progression:tb;writing-mode:lr-tb;text-anchor:start;opacity:0.05;color:#000000;fill:#000000;fill-opacity:1;stroke:none;stroke-width:0.82766795;marker:none;visibility:visible;display:inline;overflow:visible;enable-background:accumulate;font-family:Abandoned Bitplane;-inkscape-font-specification:Abandoned Bitplane" />
    <path
       d="m 69.875,18.84375 c -0.0011,4e-5 -0.186411,0.03111 -0.1875,0.03125 a 1.0491106,1.0491106 0 0 0 -0.3125,0.0625 1.0491106,1.0491106 0 0 0 -0.03125,0.03125 C 57.141814,20.870721 44.469161,23.40822 34.1875,31.625 26.480232,37.7337 20.988443,47.423163 21.96875,57.71875 c 0.001,0.01055 -0.001,0.0207 0,0.03125 0.161061,2.258325 0.755277,4.706837 1.96875,6.84375 1.220619,2.149496 3.14964,4.025666 5.84375,4.8125 0.0093,0.0027 0.02192,-0.0027 0.03125,0 1.365841,0.422646 2.628511,0.419723 2.875,0.46875 -0.0057,-0.01389 -0.0018,0.03587 0,0.0625 0.0018,0.02663 -0.01568,-0.05192 0,0.0625 0.0074,0.05135 -1.25e-4,0.12433 0,0.125 1.87e-4,0.001 0.06223,0.155264 0.0625,0.15625 2.69e-4,9.86e-4 0.0309,0.18654 0.03125,0.1875 3.49e-4,9.6e-4 0.09332,0.155322 0.09375,0.15625 a 1.0491106,1.0491106 0 0 0 0,0.03125 c 2.655969,5.118913 9.028156,7.878157 14.5625,5.59375 -0.05411,-0.0053 -0.12345,-0.03095 -0.125,-0.03125 -0.0023,-4.47e-4 0.03727,-0.0078 0.125,0 0.02193,0.0019 0.06297,-4.9e-4 0.09375,0 0.132811,-0.05632 0.274517,-0.03144 0.40625,-0.09375 l 0,0.03125 c 0.01523,-0.0067 0.01617,-0.02452 0.03125,-0.03125 0.02664,-0.01462 0.0349,-0.0161 0.0625,-0.03125 A 1.0491106,1.0491106 0 0 0 48.15625,76 a 1.0491106,1.0491106 0 0 0 0.0625,-0.03125 c 0.476971,-0.243286 0.937878,-0.513413 1.25,-0.75 0.201623,-0.152829 0.246333,-0.181224 0.375,-0.28125 0.01136,0.0096 0.03106,0.0311 0.03125,0.03125 8.06e-4,6.27e-4 0.124145,0.124441 0.125,0.125 6.54e-4,4.27e-4 0.08348,0.03777 0.125,0.0625 0.01278,0.0076 0.03104,0.03114 0.03125,0.03125 4.019121,2.301386 9.250718,1.685459 12.5625,-1.625 0.0041,-0.0041 -0.0058,-0.02544 0,-0.03125 l 0,-0.03125 c 4.256347,-4.079824 6.106246,-9.525343 7.84375,-14.28125 l -0.03125,0 c 4.05e-4,-0.0011 0.06219,-0.186414 0.0625,-0.1875 a 1.0491106,1.0491106 0 0 0 0,-0.03125 C 72.833409,50.436869 73.71931,41.67138 74.125,33 a 1.0491106,1.0491106 0 0 0 0,-0.09375 c -5.1e-5,-0.0013 -0.03107,-0.217499 -0.03125,-0.21875 -1.04e-4,-7.26e-4 -0.01953,-0.06502 -0.03125,-0.125 0.002,0.01319 -0.0015,-0.09611 0,-0.09375 0.01659,0.02603 0.0063,-0.441336 0.03125,-1.03125 0.02724,-0.643497 0.05079,-1.442834 0,-2.21875 -0.04986,-0.761813 -0.173533,-1.72675 -0.8125,-2.625 -0.78749,-1.107042 -2.145898,-1.546716 -3.46875,-1.25 a 1.0491106,1.0491106 0 0 0 -0.03125,0 c -8.04e-4,2.01e-4 -0.155461,0.06225 -0.15625,0.0625 -7.89e-4,2.54e-4 -0.12423,0.03094 -0.125,0.03125 -7.7e-4,3.06e-4 -0.124252,0.06214 -0.125,0.0625 -7.48e-4,3.57e-4 -0.124278,0.06209 -0.125,0.0625 -7.22e-4,4.06e-4 -0.124307,0.0933 -0.125,0.09375 -6.93e-4,4.54e-4 -0.124338,0.062 -0.125,0.0625 -6.62e-4,4.99e-4 -0.09312,0.09321 -0.09375,0.09375 -4.51e-4,3.9e-4 -0.06345,0.03447 -0.09375,0.0625 -0.01179,0.0109 -0.03109,0.03109 -0.03125,0.03125 C 63.273953,31.032749 57.774933,36.059496 51.25,39 c -0.0083,0.0038 -0.02291,-0.0038 -0.03125,0 -0.03199,0.01471 -0.09318,0.06221 -0.09375,0.0625 -7.14e-4,3.57e-4 -0.12431,0.0621 -0.125,0.0625 -0.139651,0.08446 -0.64135,0.275245 -1.125,0.375 -0.356164,0.07346 -0.625986,0.06531 -0.875,0.0625 1.770199,-4.33703 5.966733,-7.764331 10.25,-10.46875 2.97344,-1.877406 6.414308,-3.654619 11.59375,-6.1875 1.49e-4,-6.9e-5 0.02481,0.0033 0.03125,0 0.03651,-0.01897 0.155443,-0.06203 0.15625,-0.0625 9.5e-4,-5.49e-4 0.155352,-0.124369 0.15625,-0.125 8.98e-4,-6.31e-4 0.124162,-0.09304 0.125,-0.09375 8.38e-4,-7.08e-4 0.155477,-0.124221 0.15625,-0.125 7.73e-4,-7.79e-4 0.124299,-0.155406 0.125,-0.15625 7.01e-4,-8.44e-4 0.124377,-0.155347 0.125,-0.15625 6.23e-4,-9.03e-4 0.09321,-0.155296 0.09375,-0.15625 5.41e-4,-9.54e-4 0.09329,-0.155252 0.09375,-0.15625 4.55e-4,-9.98e-4 0.06213,-0.186465 0.0625,-0.1875 3.65e-4,-0.001 0.06223,-0.186437 0.0625,-0.1875 2.72e-4,-0.0011 0.03107,-0.155167 0.03125,-0.15625 1.77e-4,-0.0011 -8.1e-5,-0.186406 0,-0.1875 8.1e-5,-0.0011 0.03127,-0.217653 0.03125,-0.21875 -1.6e-5,-0.0011 -0.03114,-0.186409 -0.03125,-0.1875 -1.13e-4,-0.0011 -0.03104,-0.186423 -0.03125,-0.1875 -2.09e-4,-0.0011 -0.03095,-0.155196 -0.03125,-0.15625 -3.04e-4,-0.0011 -0.0621,-0.186477 -0.0625,-0.1875 -3.96e-4,-0.001 -0.06202,-0.186516 -0.0625,-0.1875 -4.84e-4,-9.84e-4 -0.09318,-0.155312 -0.09375,-0.15625 -5.69e-4,-9.38e-4 -0.12435,-0.155366 -0.125,-0.15625 -6.5e-4,-8.84e-4 -0.09302,-0.155427 -0.09375,-0.15625 -7.26e-4,-8.23e-4 -0.155454,-0.124244 -0.15625,-0.125 -7.96e-4,-7.56e-4 -0.124141,-0.124318 -0.125,-0.125 -8.59e-4,-6.82e-4 -0.155334,-0.124396 -0.15625,-0.125 -9.16e-4,-6.04e-4 -0.155284,-0.09323 -0.15625,-0.09375 -9.66e-4,-5.21e-4 -0.186492,-0.06207 -0.1875,-0.0625 -0.001,-4.33e-4 -0.155208,-0.06216 -0.15625,-0.0625 -0.001,-3.42e-4 -0.186431,-0.06225 -0.1875,-0.0625 -0.0011,-2.49e-4 -0.186414,-0.0311 -0.1875,-0.03125 -0.0011,-1.54e-4 -0.186404,-0.03119 -0.1875,-0.03125 -0.0011,-5.7e-5 -0.186404,-4e-5 -0.1875,0 z"
       id="path3985"
       style="font-size:medium;font-style:normal;font-variant:normal;font-weight:normal;font-stretch:normal;text-indent:0;text-align:start;text-decoration:none;line-height:normal;letter-spacing:normal;word-spacing:normal;text-transform:none;direction:ltr;block-progression:tb;writing-mode:lr-tb;text-anchor:start;opacity:0.1;color:#000000;fill:#000000;fill-opacity:1;stroke:none;stroke-width:0.82766795;marker:none;visibility:visible;display:inline;overflow:visible;enable-background:accumulate;font-family:Abandoned Bitplane;-inkscape-font-specification:Abandoned Bitplane" />
    <path
       d="m 69.8125,19.90625 a 1.0862138,1.0862138 0 0 0 -0.03125,0.03125 c -12.257284,1.901947 -24.824874,4.418308 -34.9375,12.5 C 27.362731,38.366877 22.047318,47.78371 23,57.65625 c 6.86e-4,0.0099 -7.04e-4,0.02138 0,0.03125 0.151464,2.123764 0.726041,4.406726 1.84375,6.375 1.122904,1.977421 2.844193,3.649291 5.25,4.34375 1.188318,0.375486 2.265052,0.307025 2.84375,0.4375 0.289349,0.06524 0.409231,0.156025 0.5,0.25 0.09077,0.09398 0.214844,0.265572 0.28125,0.75 a 1.0862138,1.0862138 0 0 0 0.09375,0.34375 c 2.482171,4.783948 8.605748,7.40373 13.6875,5 l 0,0.03125 c 0.01821,-0.0077 0.01326,-0.02339 0.03125,-0.03125 1.05759,-0.462028 1.735081,-1.180047 2.125,-1.40625 0.198275,-0.115025 0.229195,-0.09691 0.25,-0.09375 0.02081,0.0032 0.16376,0.01096 0.46875,0.34375 A 1.0862138,1.0862138 0 0 0 50.65625,74.25 c 3.611273,2.087066 8.338045,1.535767 11.3125,-1.4375 0.01045,-0.01045 0.02084,-0.02074 0.03125,-0.03125 4.033623,-3.856492 5.815762,-9.156319 7.5625,-13.9375 A 1.0862138,1.0862138 0 0 0 69.59375,58.75 c 2.211692,-8.456203 3.064741,-17.177044 3.46875,-25.8125 a 1.0862138,1.0862138 0 0 0 -0.03125,-0.21875 c -0.05965,-0.400928 0.123476,-2.028518 0.03125,-3.4375 -0.04611,-0.704491 -0.151604,-1.428257 -0.625,-2.09375 -0.473396,-0.665493 -1.499252,-1.01594 -2.40625,-0.8125 a 1.0862138,1.0862138 0 0 0 -0.5,0.28125 c -5.529078,5.14718 -11.120893,10.275429 -17.875,13.3125 a 1.0862138,1.0862138 0 0 0 -0.125,0.0625 C 50.871146,40.430483 49.352689,40.775131 48.5,40.625 c -0.426344,-0.07507 -0.601102,-0.226599 -0.65625,-0.3125 -0.05515,-0.0859 -0.14763,-0.287882 0.09375,-0.9375 1.864464,-4.791825 6.331511,-8.366453 10.75,-11.15625 3.03643,-1.917177 6.512558,-3.704412 11.71875,-6.25 a 1.0862138,1.0862138 0 0 0 -0.59375,-2.0625 z"
       id="path3981"
       style="font-size:medium;font-style:normal;font-variant:normal;font-weight:normal;font-stretch:normal;text-indent:0;text-align:start;text-decoration:none;line-height:normal;letter-spacing:normal;word-spacing:normal;text-transform:none;direction:ltr;block-progression:tb;writing-mode:lr-tb;text-anchor:start;opacity:0.15;color:#000000;fill:#000000;fill-opacity:1;stroke:none;stroke-width:0.82766795;marker:none;visibility:visible;display:inline;overflow:visible;enable-background:accumulate;font-family:Abandoned Bitplane;-inkscape-font-specification:Abandoned Bitplane" />
    <path
       d="m 69.94483,20.989373 c -12.22324,1.896664 -24.5609,4.427926 -34.41633,12.304075 -7.24429,5.741748 -12.35978,14.869248 -11.43717,24.298284 0.27766,3.989741 2.11264,8.573264 6.3038,9.783083 1.86429,0.58908 4.04256,-0.238615 4.39385,2.32404 2.22103,4.280644 7.79548,6.657343 12.28387,4.515841 1.60407,-0.678561 2.47487,-2.693535 4.10329,-0.916679 3.19083,1.844079 7.4371,1.353166 10.04358,-1.278197 3.80574,-3.62028 5.56797,-8.751599 7.32513,-13.561308 2.18272,-8.345429 3.03294,-16.991185 3.43519,-25.589051 -0.23267,-1.563931 0.81252,-5.994524 -1.6837,-5.43462 -5.53151,5.149444 -11.2495,10.408036 -18.21579,13.540518 -1.91027,1.155339 -6.43946,1.400775 -5.18308,-1.980485 1.99869,-5.183723 6.68705,-8.840098 11.18596,-11.680672 3.09621,-1.954921 6.64711,-3.775281 11.8614,-6.324829 z"
       id="path3977"
       style="font-size:medium;font-style:normal;font-variant:normal;font-weight:normal;font-stretch:normal;text-indent:0;text-align:start;text-decoration:none;line-height:normal;letter-spacing:normal;word-spacing:normal;text-transform:none;direction:ltr;block-progression:tb;writing-mode:lr-tb;text-anchor:start;opacity:0.3;color:#000000;fill:#000000;fill-opacity:1;stroke:none;stroke-width:0.82766795;marker:none;visibility:visible;display:inline;overflow:visible;enable-background:accumulate;font-family:Abandoned Bitplane;-inkscape-font-specification:Abandoned Bitplane" />
    <g
       transform="matrix(1.1907573,0,0,1.1907573,-444.50749,-485.80329)"
       id="g2912">
      <g
         transform="matrix(1.1626866,0.3285437,-0.3285437,1.1626866,327.85931,406.67587)"
         id="g2914"
         style="stroke:none">
        <path
           d="M 32.62692,6.6695339 C 28.943103,10.347154 11.111941,12.664469 9,33 c 0.3414198,5.11565 2.750163,11.619293 7.499797,10.597643 0.982779,-0.211397 2.038704,0.196803 2.703808,0.809838 4.351738,4.011057 8.52874,2.374752 9.651419,-0.445034 0.215237,-0.540601 0.899973,-0.596833 1.460892,-0.37289 C 36.857006,46.201039 38.613158,38.645886 39,33 39.096949,30.551387 37.800853,11.942617 35.822153,10.473066 35.232485,10.035129 33.801652,12.187441 32.644545,14.379307 23.397466,31.895713 11.762403,24.057082 32.238499,7.1548098 l 0.235001,-0.5271607 0.270917,0.030985"
           id="path2916"
           style="fill:#c5f199;fill-opacity:1;fill-rule:nonzero;stroke:none" />
        <g
           id="g2918"
           style="fill:#c5f199;fill-opacity:1;stroke:none">
          <path
             d="M 24,45 24,33"
             id="path2920"
             style="fill:#c5f199;fill-opacity:1;fill-rule:evenodd;stroke:none" />
          <path
             d="m 15,42 0,-7"
             id="path2922"
             style="fill:#c5f199;fill-opacity:1;fill-rule:evenodd;stroke:none" />
          <path
             d="m 33,42 0,-7"
             id="path2924"
             style="fill:#c5f199;fill-opacity:1;fill-rule:evenodd;stroke:none" />
        </g>
      </g>
      <g
         transform="matrix(1.1626866,0.3285437,-0.3285437,1.1626866,327.85931,406.67587)"
         id="g2926"
         style="fill:#73d216;fill-opacity:1;stroke:none">
        <path
           d="m 35.234589,13.724224 c -3.738051,8.081569 -13.234694,16.222743 -15.739843,10.908947 -1.235532,-2.620748 0.949841,-7.293696 5.475765,-12.587054 -5.917527,3.638792 -15.9656505,12.611852 -14.356426,21.845048 -0.373989,3.839534 2.603499,10.963452 6.460619,8.636853 1.02821,-0.620212 2.757632,0.276028 3.378232,1.331675 1.318547,2.242864 6.112369,1.587546 7.154116,0.151368 0.767834,-1.058552 2.373555,-1.67156 3.638431,-1.376939 5.533355,1.288856 5.920667,-6.12533 5.897326,-9.045945 1.628814,-10.746518 -1.787127,-15.883715 -1.90822,-19.863953 z"
           id="path2928"
           style="fill:#73d216;fill-opacity:1;fill-rule:nonzero;stroke:none" />
        <g
           id="g2930"
           style="fill:#73d216;fill-opacity:1;stroke:none">
          <path
             d="m 33,42 0,-7"
             id="path2932"
             style="fill:#73d216;fill-opacity:1;fill-rule:evenodd;stroke:none" />
          <path
             d="M 24,45 24,33"
             id="path2934"
             style="fill:#73d216;fill-opacity:1;fill-rule:evenodd;stroke:none" />
          <path
             d="m 15,42 0,-7"
             id="path2936"
             style="fill:#73d216;fill-opacity:1;fill-rule:evenodd;stroke:none" />
        </g>
      </g>
      <path
         d="m 329.51073,447.61372 c 2.70945,-5.29729 7.72564,-5.35843 16.51174,-2.48094 5.83445,-1e-5 13.67564,-5.52174 18.10988,-10.47125 0.99449,19.20592 -7.55957,38.54874 -15.17669,31.01647 -1.0185,-1.00714 -1.78528,0.0956 -3.28909,0.93678 -1.44022,0.80562 -2.13233,0.93033 -3.68606,0.52814 -5.12178,0.32433 -6.11533,-7.92901 -8.38856,-6.26434 -4.31118,3.15704 -5.86154,-5.78405 -4.08122,-13.26486 z"
         id="path2938"
         style="fill:url(#linearGradient2958);fill-opacity:1;fill-rule:evenodd;stroke:none" />
      <path
         d="m 334.53834,462.27896 c -0.33054,-2.87148 -0.69434,-8.27853 1.82008,-11.41736"
         id="path2940"
         style="fill:none;stroke:#c5f199;stroke-width:3.0439806;stroke-linecap:round;stroke-linejoin:miter;stroke-miterlimit:4;stroke-opacity:1;stroke-dasharray:none" />
      <path
         d="m 347.26802,454.03922 c -2.89829,7.56748 -1.014,8.84618 0.39521,12.96044 l 0,0 0,0 -0.17857,-0.625"
         id="path2942"
         style="fill:none;stroke:#c5f199;stroke-width:3.0439806;stroke-linecap:round;stroke-linejoin:miter;stroke-miterlimit:4;stroke-opacity:1;stroke-dasharray:none" />
      <g
         transform="matrix(1.1626866,0.3285437,-0.3285437,1.1626866,300.43486,392.47027)"
         id="g2944">
        <path
           d="m 58.836696,11.191679 c -4.235176,2.091939 -24.464819,10.347886 -24.72474,27.187481 0.127414,5.637667 2.911021,12.569848 8.883821,10.597263 0.423322,-0.13957 0.507366,-0.0109 0.761746,0.306711 4.154244,5.186839 9.978922,2.383602 10.704554,-0.314413 0.103348,-0.384263 -0.354974,-0.119596 0,0 7.446703,2.508907 9.176832,-4.364599 9.653317,-10.189428 1.1088,-5.250235 -2.802426,-24.700045 -3.739274,-23.1059 -15.961318,27.159858 -21.139489,8.674671 -1.539424,-4.481714"
           id="path2946"
           style="fill:none;stroke:#204c00;stroke-width:0.69507694;stroke-linecap:butt;stroke-linejoin:round;stroke-miterlimit:4;stroke-opacity:1;stroke-dasharray:none" />
        <g
           transform="translate(25,5)"
           id="g2948"
           style="fill:none;stroke:#306600;stroke-width:0.69507694;stroke-linecap:round;stroke-linejoin:bevel;stroke-miterlimit:4;stroke-opacity:1;stroke-dasharray:none">
          <g
             id="g2950"
             style="stroke:#204c00;stroke-width:0.69507694;stroke-miterlimit:4;stroke-opacity:1;stroke-dasharray:none">
            <path
               d="M 18.645566,43.903974 C 15.051587,37.187354 16.540541,35.406359 16.713974,33.280216"
               id="path2952"
               style="fill:none;stroke:#204c00;stroke-width:0.69507694;stroke-linecap:round;stroke-linejoin:bevel;stroke-miterlimit:4;stroke-opacity:1;stroke-dasharray:none" />
            <path
               d="M 29.35012,43.828988 C 26.087374,40.085035 25.418677,36.423326 26.118423,33.355781"
               id="path2954"
               style="fill:none;stroke:#204c00;stroke-width:0.69507694;stroke-linecap:round;stroke-linejoin:bevel;stroke-miterlimit:4;stroke-opacity:1;stroke-dasharray:none" />
          </g>
        </g>
      </g>
      <path
         d="m 351.92318,429.5918 c 0.1849,-2.30388 -22.60852,7.32517 -22.31824,18.16866 3.96808,-5.15634 7.82339,-5.58142 14.15003,-2.9991 4.61278,4.30852 -9.18208,-3.54784 8.16821,-15.16956 l 0,0 0,0 0,0 z"
         id="path2956"
         style="fill:url(#linearGradient2960);fill-opacity:1;fill-rule:evenodd;stroke:none" />
    </g>
    <path
       d="m 149.94483,19.989373 c -12.22324,1.896664 -24.5609,4.427926 -34.41633,12.304075 -7.24429,5.741748 -12.35978,14.869248 -11.43717,24.298284 0.27766,3.989741 2.11264,8.573264 6.3038,9.783083 1.86429,0.58908 4.04256,-0.238615 4.39385,2.32404 2.22103,4.280644 7.79548,6.657343 12.28387,4.515841 1.60407,-0.678561 2.47487,-2.693535 4.10329,-0.916679 3.19083,1.844079 7.4371,1.353166 10.04358,-1.278197 3.80574,-3.62028 5.56797,-8.751599 7.32513,-13.561308 2.18272,-8.345429 3.03294,-16.991185 3.43519,-25.589051 -0.23267,-1.563931 0.81252,-5.994524 -1.6837,-5.43462 -5.53151,5.149444 -11.2495,10.408036 -18.21579,13.540518 -1.91027,1.155339 -6.43946,1.400775 -5.18308,-1.980485 1.99869,-5.183723 6.68705,-8.840098 11.18596,-11.680672 3.09621,-1.954921 6.64711,-3.775281 11.8614,-6.324829 z"
       id="path2991"
       style="font-size:medium;font-style:normal;font-variant:normal;font-weight:normal;font-stretch:normal;text-indent:0;text-align:start;text-decoration:none;line-height:normal;letter-spacing:normal;word-spacing:normal;text-transform:none;direction:ltr;block-progression:tb;writing-mode:lr-tb;text-anchor:start;opacity:0.3;color:#000000;fill:#000000;fill-opacity:1;stroke:none;stroke-width:0.82766795;marker:none;visibility:visible;display:inline;overflow:visible;enable-background:accumulate;font-family:Abandoned Bitplane;-inkscape-font-specification:Abandoned Bitplane" />
    <path
       d="m 64.625,20.875 c -2.039548,0.364502 -4.081026,0.75853 -6.09375,1.21875 2.020664,-0.460555 4.045775,-0.853944 6.09375,-1.21875 z m -6.09375,1.21875 c -1.505147,0.34416 -2.990457,0.73706 -4.46875,1.15625 1.477673,-0.417785 2.964145,-0.813316 4.46875,-1.15625 z m 5.25,0.03125 c -9.994952,1.850663 -19.679245,4.587503 -27.625,10.9375 a 1.0194967,1.0194967 0 0 1 0,0.03125 C 29.141656,38.653443 24.212925,47.498009 25.09375,56.5 a 1.0194967,1.0194967 0 0 1 0.03125,0.03125 c 0.129857,1.865942 0.608759,3.875504 1.53125,5.5 0.922491,1.624496 2.226842,2.85414 4.03125,3.375 a 1.0194967,1.0194967 0 0 1 0.03125,0 c 0.691707,0.218566 1.615968,0.140456 2.65625,0.375 0.520141,0.117272 1.103001,0.368021 1.5625,0.84375 0.386349,0.399995 0.582023,0.996899 0.71875,1.625 l 0.03125,-0.03125 c 1.971546,3.799807 7.011309,5.967016 10.9375,4.09375 a 1.0194967,1.0194967 0 0 1 0.03125,-0.03125 c 0.532795,-0.225385 1.093839,-0.823069 1.9375,-1.3125 0.421831,-0.244716 1.021055,-0.47156 1.65625,-0.375 0.54051,0.08217 0.993384,0.453616 1.4375,0.875 l 0,-0.03125 c 2.784302,1.609134 6.549554,1.159549 8.8125,-1.125 a 1.0194967,1.0194967 0 0 1 0.03125,-0.03125 c 3.547225,-3.374362 5.249208,-8.267543 7,-13.0625 0.0082,-0.03148 0.02305,-0.06226 0.03125,-0.09375 2.137363,-8.212542 2.975931,-16.782626 3.375,-25.3125 l 0.03125,0 c -0.115363,-1.09682 0.06575,-2.370584 0,-3.375 -0.035,-0.534759 -0.16478,-0.95539 -0.21875,-1.03125 -0.0066,-0.0093 -0.03031,0.0069 -0.03125,0 -5.427472,5.051174 -11.091092,10.25666 -18.09375,13.4375 -0.0084,0.0038 -0.02285,-0.0038 -0.03125,0 -0.0299,0.01788 -0.06332,0.04505 -0.09375,0.0625 -1.22146,0.70031 -2.867214,1.046723 -4.375,0.78125 -0.777663,-0.136922 -1.574957,-0.490585 -2.0625,-1.25 -0.487543,-0.759415 -0.507344,-1.752258 -0.125,-2.78125 A 1.0194967,1.0194967 0 0 1 45.96875,37.625 c 2.133265,-5.53275 7.030728,-9.306446 11.59375,-12.1875 1.643026,-1.037393 4.175071,-2.239009 6.21875,-3.3125 z m 7.5625,4.46875 c 0.585715,0.453329 0.676477,1.576716 0.65625,2.71875 0.02101,-1.141444 -0.07104,-2.265804 -0.65625,-2.71875 z m 0.625,5.28125 c -0.146483,3.130998 -0.347849,6.278574 -0.65625,9.40625 0.309569,-3.13631 0.509322,-6.265749 0.65625,-9.40625 z m -39.0625,2.71875 c -0.210571,0.207056 -0.38855,0.443277 -0.59375,0.65625 0.210129,-0.2185 0.409229,-0.443982 0.625,-0.65625 -0.0055,0.0054 -0.0258,-0.0054 -0.03125,0 z M 71.25,41.90625 c -0.319959,3.105029 -0.7437,6.184465 -1.3125,9.25 0.566575,-3.054586 0.993318,-6.156299 1.3125,-9.25 z m -1.3125,9.25 c -0.393155,2.118898 -0.86057,4.226143 -1.40625,6.3125 0.54568,-2.086357 1.013312,-4.194043 1.40625,-6.3125 z m -2.75,9.9375 c -0.47059,1.214105 -0.964869,2.425312 -1.53125,3.59375 0.56796,-1.168289 1.059476,-2.379757 1.53125,-3.59375 z M 25.09375,61.125 c 0.194749,0.484644 0.433163,0.957294 0.6875,1.40625 -0.254881,-0.448842 -0.492242,-0.921714 -0.6875,-1.40625 z m 1.53125,2.6875 c 0.163178,0.204726 0.350835,0.374442 0.53125,0.5625 -0.175019,-0.183134 -0.372472,-0.363668 -0.53125,-0.5625 z m 7.1875,3.25 c 0.147553,0.08064 0.285528,0.156584 0.40625,0.28125 -0.119378,-0.127398 -0.259629,-0.199086 -0.40625,-0.28125 z"
       id="path3853"
       style="font-size:medium;font-style:normal;font-variant:normal;font-weight:normal;font-stretch:normal;text-indent:0;text-align:start;text-decoration:none;line-height:normal;letter-spacing:normal;word-spacing:normal;text-transform:none;direction:ltr;block-progression:tb;writing-mode:lr-tb;text-anchor:start;color:#000000;fill:#e6e6e6;fill-opacity:1;stroke:none;stroke-width:0.82766795;marker:none;visibility:visible;display:inline;overflow:visible;enable-background:accumulate;font-family:Abandoned Bitplane;-inkscape-font-specification:Abandoned Bitplane" />
    <path
       d="m 71.34375,26.59375 c 0.58571,0.453329 0.67648,1.576716 0.65625,2.71875 0.021,-1.141444 -0.071,-2.265804 -0.65625,-2.71875 z m -0.625,0.8125 c -5.42747,5.051174 -11.091092,10.25666 -18.09375,13.4375 -0.0084,0.0038 -0.02285,-0.0038 -0.03125,0 -0.0299,0.01788 -0.06332,0.04505 -0.09375,0.0625 -1.22146,0.70031 -2.867214,1.046723 -4.375,0.78125 -0.479401,-0.08441 -0.957844,-0.269078 -1.375,-0.5625 -0.007,-0.0049 -0.02428,0.005 -0.03125,0 -5.711989,-0.747322 -10.311227,-6.683866 -18.84375,2 -2.126729,4.13089 -3.235666,8.730894 -2.78125,13.375 a 1.0194967,1.0194967 0 0 1 0.03125,0.03125 c 0.129857,1.865942 0.608759,3.875504 1.53125,5.5 0.922491,1.624496 2.226842,2.85414 4.03125,3.375 a 1.0194967,1.0194967 0 0 1 0.03125,0 c 0.691707,0.218566 1.615968,0.140456 2.65625,0.375 0.520141,0.117272 1.103001,0.368021 1.5625,0.84375 0.386349,0.399995 0.582023,0.996899 0.71875,1.625 l 0.03125,-0.03125 c 1.971546,3.799807 7.011309,5.967016 10.9375,4.09375 a 1.0194967,1.0194967 0 0 1 0.03125,-0.03125 c 0.532795,-0.225385 1.093839,-0.823069 1.9375,-1.3125 0.421831,-0.244716 1.021055,-0.47156 1.65625,-0.375 0.54051,0.08217 0.993384,0.453616 1.4375,0.875 l 0,-0.03125 c 2.784302,1.609134 6.549554,1.159549 8.8125,-1.125 a 1.0194967,1.0194967 0 0 1 0.0312,-0.03125 c 3.54722,-3.374362 5.24921,-8.267543 7,-13.0625 0.008,-0.03148 0.023,-0.06226 0.0312,-0.09375 2.13736,-8.212542 2.97593,-16.782626 3.375,-25.3125 l 0.0312,0 c -0.11536,-1.09682 0.0657,-2.370584 0,-3.375 -0.035,-0.534759 -0.16478,-0.95539 -0.21875,-1.03125 -0.007,-0.0093 -0.0303,0.0069 -0.0312,0 z m 1.25,4.46875 c -0.14648,3.130998 -0.34785,6.278574 -0.65625,9.40625 0.30957,-3.13631 0.50932,-6.265749 0.65625,-9.40625 z M 71.25,41.90625 c -0.31996,3.105029 -0.7437,6.184465 -1.3125,9.25 0.56658,-3.054586 0.99332,-6.156299 1.3125,-9.25 z m -1.3125,9.25 c -0.39315,2.118898 -0.86057,4.226143 -1.40625,6.3125 0.54568,-2.086357 1.01331,-4.194043 1.40625,-6.3125 z m -2.75,9.9375 c -0.47059,1.214105 -0.96487,2.425312 -1.53125,3.59375 0.56796,-1.168289 1.05948,-2.379757 1.53125,-3.59375 z M 25.09375,61.125 c 0.194749,0.484644 0.433163,0.957294 0.6875,1.40625 -0.254881,-0.448842 -0.492242,-0.921714 -0.6875,-1.40625 z m 1.53125,2.6875 c 0.163178,0.204726 0.350835,0.374442 0.53125,0.5625 -0.175019,-0.183134 -0.372472,-0.363668 -0.53125,-0.5625 z m 7.1875,3.25 c 0.147553,0.08064 0.285528,0.156584 0.40625,0.28125 -0.119378,-0.127398 -0.259629,-0.199086 -0.40625,-0.28125 z"
       id="path3869"
       style="font-size:medium;font-style:normal;font-variant:normal;font-weight:normal;font-stretch:normal;text-indent:0;text-align:start;text-decoration:none;line-height:normal;letter-spacing:normal;word-spacing:normal;text-transform:none;direction:ltr;block-progression:tb;writing-mode:lr-tb;text-anchor:start;color:#000000;fill:url(#linearGradient4033);fill-opacity:1;stroke:none;stroke-width:0.82766795;marker:none;visibility:visible;display:inline;overflow:visible;enable-background:accumulate;font-family:Abandoned Bitplane;-inkscape-font-specification:Abandoned Bitplane" />
    <path
       d="m 63.78125,22.125 c -9.994952,1.850663 -19.679245,4.587503 -27.625,10.9375 a 1.0194967,1.0194967 0 0 1 0,0.03125 C 32.738695,35.802468 29.809174,39.281005 27.8125,43.1875 36.37539,34.43267 40.995824,40.381778 46.71875,41.125 46.46766,40.944793 46.244437,40.720891 46.0625,40.4375 45.574957,39.678085 45.555156,38.685242 45.9375,37.65625 A 1.0194967,1.0194967 0 0 1 45.96875,37.625 c 2.133265,-5.53275 7.030728,-9.306446 11.59375,-12.1875 1.643026,-1.037393 4.175071,-2.239009 6.21875,-3.3125 z"
       id="path3873"
       style="font-size:medium;font-style:normal;font-variant:normal;font-weight:normal;font-stretch:normal;text-indent:0;text-align:start;text-decoration:none;line-height:normal;letter-spacing:normal;word-spacing:normal;text-transform:none;direction:ltr;block-progression:tb;writing-mode:lr-tb;text-anchor:start;color:#000000;fill:url(#linearGradient3882);fill-opacity:1;stroke:none;stroke-width:0.82766795;marker:none;visibility:visible;display:inline;overflow:visible;enable-background:accumulate;font-family:Abandoned Bitplane;-inkscape-font-specification:Abandoned Bitplane" />
    <path
       d="m 69.9375,20 c -12.22324,1.896664 -24.55082,4.405101 -34.40625,12.28125 -7.24429,5.741748 -12.36011,14.883464 -11.4375,24.3125 0.27766,3.989741 2.12134,8.571431 6.3125,9.78125 1.86429,0.58908 4.02371,-0.250155 4.375,2.3125 2.22103,4.280644 7.79286,6.672752 12.28125,4.53125 1.60407,-0.678561 2.49658,-2.683106 4.125,-0.90625 3.19083,1.844079 7.42477,1.350113 10.03125,-1.28125 3.80574,-3.62028 5.55534,-8.752791 7.3125,-13.5625 2.18272,-8.345429 3.03525,-16.995884 3.4375,-25.59375 -0.23267,-1.563931 0.80872,-5.997404 -1.6875,-5.4375 C 64.74974,31.586944 59.06004,36.836268 52.09375,39.96875 50.18348,41.124089 45.64987,41.38126 46.90625,38 48.90494,32.816277 53.59484,29.153074 58.09375,26.3125 61.18996,24.357579 64.72321,22.549548 69.9375,20 z m -15.34375,5.75 c -4.002713,2.76177 -8.006775,6.286499 -9.96875,11.375 a 2.4519575,2.4519575 0 0 0 -0.03125,0.03125 c -0.478239,1.28707 -0.531689,2.844911 0.25,4.0625 0.781689,1.217589 2.014594,1.695999 3.03125,1.875 1.910723,0.336418 3.641454,-0.0501 5.1875,-0.90625 l 0.03125,0.03125 c 0.09913,-0.04458 0.182672,-0.110927 0.28125,-0.15625 6.280554,-2.887629 11.3607,-7.311504 16.15625,-11.71875 -0.02604,0.464225 -0.04469,0.8266 0,1.40625 -0.396246,8.469528 -1.250159,16.910831 -3.34375,24.96875 -1.75746,4.811252 -3.438341,9.470155 -6.65625,12.53125 a 2.4519575,2.4519575 0 0 0 -0.0625,0.0625 c -1.763975,1.780815 -4.791798,2.143779 -7,0.90625 C 52.44837,70.20733 52.42649,70.1992 52.40625,70.1875 51.989945,69.837503 51.533476,69.532327 51,69.34375 c -1.738413,-3.034581 -3.60376,-8.112211 -1.96875,-14.625 -2.950889,4.391205 -1.166411,11.600679 -0.21875,14.625 -0.363871,0.109524 -0.689215,0.230963 -0.9375,0.375 -1.14782,0.665882 -1.626756,1.184645 -1.78125,1.25 A 2.4519575,2.4519575 0 0 0 46,71 c -3.11602,1.486716 -7.355358,-0.287781 -9,-3.375 -0.09772,-0.357963 -0.24588,-0.698874 -0.40625,-1.03125 -0.004,-0.0082 0.004,-0.02308 0,-0.03125 -1.12234,-3.325647 -2.211733,-8.868056 -0.5625,-15.4375 -2.683093,3.992699 -2.319566,10.125673 -1.875,13.40625 -0.16483,-0.05287 -0.32049,-0.09157 -0.46875,-0.125 -1.354286,-0.30534 -2.177374,-0.263182 -2.53125,-0.375 a 2.4519575,2.4519575 0 0 0 -0.0625,0 c -1.395292,-0.402764 -2.401345,-1.33434 -3.1875,-2.71875 -0.786155,-1.38441 -1.25775,-3.190211 -1.375,-4.875 a 2.4519575,2.4519575 0 0 0 0,-0.09375 C 25.709137,47.941786 30.370645,39.491394 37.0625,34.1875 42.224749,30.061994 48.234317,27.56658 54.59375,25.75 z"
       id="path3970"
       style="font-size:medium;font-style:normal;font-variant:normal;font-weight:normal;font-stretch:normal;text-indent:0;text-align:start;text-decoration:none;line-height:normal;letter-spacing:normal;word-spacing:normal;text-transform:none;direction:ltr;block-progression:tb;writing-mode:lr-tb;text-anchor:start;opacity:0.2;color:#000000;fill:#ffffff;fill-opacity:1;stroke:none;stroke-width:0.82766795;marker:none;visibility:visible;display:inline;overflow:visible;enable-background:accumulate;font-family:Abandoned Bitplane;-inkscape-font-specification:Abandoned Bitplane" />
    <path
       d="m 38.183984,46.642496 c -6.301235,10.228718 -2.882545,21.461023 -2.882545,21.461023 l -1.125434,-1.959754 -2.781692,-0.04869 c 0,0 -1.447506,-12.218691 6.789671,-19.452579 z"
       id="path3924"
       style="opacity:0.3;fill:#3f3f3f;fill-opacity:1;stroke:none" />
    <path
       d="M 36.287338,50.371367 C 32.425072,58.9941 35.478957,67.976115 35.478957,67.976115 l -2.155684,-2.065863 c 0,0 -1.976043,-9.790396 2.964065,-15.538885 z"
       id="path3884"
       style="fill:#3f3f3f;fill-opacity:1;stroke:none" />
    <path
       d="m 50.827001,51.387687 c -6.283614,10.850831 -0.01594,19.93217 -0.01594,19.93217 l -1.443945,-0.430901 -2.080968,1.416461 c 0,0 -5.715555,-12.154988 3.540857,-20.91773 z"
       id="path3950"
       style="opacity:0.3;fill:#3f3f3f;fill-opacity:1;stroke:none" />
    <path
       d="m 49.248867,54.371367 c -3.862266,8.622733 1.862016,17.297704 1.862016,17.297704 l -1.710724,-0.715377 -0.691487,0.686073 c 0,0 -4.654722,-11.456209 0.540195,-17.2684 z"
       id="path3884-9"
       style="fill:#3f3f3f;fill-opacity:1;stroke:none" />
    <path
       d="m 41.666667,60.728977 a 2.532928,6.6489363 0 1 1 -5.065856,0 2.532928,6.6489363 0 1 1 5.065856,0 z"
       transform="matrix(1.375,0,0,1.4380953,-15.245062,-27.111661)"
       id="path3918"
       style="opacity:0.4;color:#000000;fill:url(#linearGradient3940);fill-opacity:1;fill-rule:nonzero;stroke:none;stroke-width:1;marker:none;visibility:visible;display:inline;overflow:visible;enable-background:accumulate" />
    <path
       d="m 41.666667,60.728977 a 2.532928,6.6489363 0 1 1 -5.065856,0 2.532928,6.6489363 0 1 1 5.065856,0 z"
       transform="matrix(1.375,0,0,1.1904763,-1.5672504,-10.807545)"
       id="path3920"
       style="opacity:0.4;color:#000000;fill:url(#linearGradient3948);fill-opacity:1;fill-rule:nonzero;stroke:none;stroke-width:1;marker:none;visibility:visible;display:inline;overflow:visible;enable-background:accumulate" />
    <path
       d="m 41.666667,60.728977 a 2.532928,6.6489363 0 1 1 -5.065856,0 2.532928,6.6489363 0 1 1 5.065856,0 z"
       transform="matrix(0.94999999,0,0,1.0571429,-9.1881967,-9.9291934)"
       id="path3922"
       style="opacity:0.4;color:#000000;fill:url(#linearGradient3932);fill-opacity:1;fill-rule:nonzero;stroke:none;stroke-width:1;marker:none;visibility:visible;display:inline;overflow:visible;enable-background:accumulate" />
    <path
       d="m 69.9375,20 c -12.22324,1.896664 -24.55082,4.405101 -34.40625,12.28125 -7.24429,5.741748 -12.36011,14.883464 -11.4375,24.3125 0.27766,3.989741 2.12134,8.571431 6.3125,9.78125 1.86429,0.58908 4.02371,-0.250155 4.375,2.3125 2.22103,4.280644 7.79286,6.672752 12.28125,4.53125 1.60407,-0.678561 2.49658,-2.683106 4.125,-0.90625 3.19083,1.844079 7.42477,1.350113 10.03125,-1.28125 3.80574,-3.62028 5.55534,-8.752791 7.3125,-13.5625 2.18272,-8.345429 3.03525,-16.995884 3.4375,-25.59375 -0.23267,-1.563931 0.80872,-5.997404 -1.6875,-5.4375 C 64.74974,31.586944 59.06004,36.836268 52.09375,39.96875 50.18348,41.124089 45.64987,41.38126 46.90625,38 48.90494,32.816277 53.59484,29.153074 58.09375,26.3125 61.18996,24.357579 64.72321,22.549548 69.9375,20 z m -6.15625,2.125 c -2.043679,1.073491 -4.575724,2.275107 -6.21875,3.3125 -4.563022,2.881054 -9.460485,6.65475 -11.59375,12.1875 a 1.0194967,1.0194967 0 0 0 -0.03125,0.03125 c -0.382344,1.028992 -0.362543,2.021835 0.125,2.78125 0.487543,0.759415 1.284837,1.113078 2.0625,1.25 1.507786,0.265473 3.15354,-0.08094 4.375,-0.78125 0.03043,-0.01745 0.06385,-0.04462 0.09375,-0.0625 0.0084,-0.0038 0.02286,0.0038 0.03125,0 7.002658,-3.18084 12.666278,-8.386326 18.09375,-13.4375 9.36e-4,0.0069 0.02461,-0.0093 0.03125,0 0.05397,0.07586 0.183747,0.496491 0.21875,1.03125 0.06575,1.004416 -0.115363,2.27818 0,3.375 l -0.03125,0 c -0.399069,8.529874 -1.237637,17.099958 -3.375,25.3125 -0.0082,0.03149 -0.02302,0.06227 -0.03125,0.09375 -1.750792,4.794957 -3.452775,9.688138 -7,13.0625 A 1.0194967,1.0194967 0 0 0 60.5,70.3125 c -2.262946,2.284549 -6.028198,2.734134 -8.8125,1.125 l 0,0.03125 c -0.444116,-0.421384 -0.89699,-0.792832 -1.4375,-0.875 -0.635195,-0.09656 -1.234419,0.130284 -1.65625,0.375 -0.843661,0.489431 -1.404705,1.087115 -1.9375,1.3125 A 1.0194967,1.0194967 0 0 0 46.625,72.3125 C 42.698809,74.185766 37.659046,72.018557 35.6875,68.21875 L 35.65625,68.25 c -0.136727,-0.628101 -0.332401,-1.225005 -0.71875,-1.625 -0.459499,-0.475729 -1.042359,-0.726478 -1.5625,-0.84375 -1.040282,-0.234544 -1.964543,-0.156434 -2.65625,-0.375 a 1.0194967,1.0194967 0 0 0 -0.03125,0 c -1.804408,-0.52086 -3.108759,-1.750504 -4.03125,-3.375 -0.922491,-1.624496 -1.401393,-3.634058 -1.53125,-5.5 A 1.0194967,1.0194967 0 0 0 25.09375,56.5 c -0.880825,-9.001991 4.047906,-17.846557 11.0625,-23.40625 a 1.0194967,1.0194967 0 0 0 0,-0.03125 c 7.945755,-6.349997 17.630048,-9.086837 27.625,-10.9375 z"
       id="path3998"
       style="font-size:medium;font-style:normal;font-variant:normal;font-weight:normal;font-stretch:normal;text-indent:0;text-align:start;text-decoration:none;line-height:normal;letter-spacing:normal;word-spacing:normal;text-transform:none;direction:ltr;block-progression:tb;writing-mode:lr-tb;text-anchor:start;color:#000000;fill:url(#linearGradient4133);fill-opacity:1;stroke:none;stroke-width:0.82766795;marker:none;visibility:visible;display:inline;overflow:visible;enable-background:accumulate;font-family:Abandoned Bitplane;-inkscape-font-specification:Abandoned Bitplane" />
    <path
       d="m 69.9375,20 c -12.22324,1.896664 -24.55082,4.405101 -34.40625,12.28125 -7.24429,5.741748 -12.36011,14.883464 -11.4375,24.3125 0.27766,3.989741 2.12134,8.571431 6.3125,9.78125 1.86429,0.58908 4.02371,-0.250155 4.375,2.3125 2.22103,4.280644 7.79286,6.672752 12.28125,4.53125 1.60407,-0.678561 2.49658,-2.683106 4.125,-0.90625 3.19083,1.844079 7.42477,1.350113 10.03125,-1.28125 3.80574,-3.62028 5.55534,-8.752791 7.3125,-13.5625 2.18272,-8.345429 3.03525,-16.995884 3.4375,-25.59375 -0.23267,-1.563931 0.80872,-5.997404 -1.6875,-5.4375 C 64.74974,31.586944 59.06004,36.836268 52.09375,39.96875 50.18348,41.124089 45.64987,41.38126 46.90625,38 48.90494,32.816277 53.59484,29.153074 58.09375,26.3125 61.18996,24.357579 64.72321,22.549548 69.9375,20 z m -6.15625,2.125 c -2.043679,1.073491 -4.575724,2.275107 -6.21875,3.3125 -4.563022,2.881054 -9.460485,6.65475 -11.59375,12.1875 a 1.0194967,1.0194967 0 0 0 -0.03125,0.03125 c -0.382344,1.028992 -0.362543,2.021835 0.125,2.78125 0.487543,0.759415 1.284837,1.113078 2.0625,1.25 1.507786,0.265473 3.15354,-0.08094 4.375,-0.78125 0.03043,-0.01745 0.06385,-0.04462 0.09375,-0.0625 0.0084,-0.0038 0.02286,0.0038 0.03125,0 7.002658,-3.18084 12.666278,-8.386326 18.09375,-13.4375 9.36e-4,0.0069 0.02461,-0.0093 0.03125,0 0.05397,0.07586 0.183747,0.496491 0.21875,1.03125 0.06575,1.004416 -0.115363,2.27818 0,3.375 l -0.03125,0 c -0.399069,8.529874 -1.237637,17.099958 -3.375,25.3125 -0.0082,0.03149 -0.02302,0.06227 -0.03125,0.09375 -1.750792,4.794957 -3.452775,9.688138 -7,13.0625 A 1.0194967,1.0194967 0 0 0 60.5,70.3125 c -2.262946,2.284549 -6.028198,2.734134 -8.8125,1.125 l 0,0.03125 c -0.444116,-0.421384 -0.89699,-0.792832 -1.4375,-0.875 -0.635195,-0.09656 -1.234419,0.130284 -1.65625,0.375 -0.843661,0.489431 -1.404705,1.087115 -1.9375,1.3125 A 1.0194967,1.0194967 0 0 0 46.625,72.3125 C 42.698809,74.185766 37.659046,72.018557 35.6875,68.21875 L 35.65625,68.25 c -0.136727,-0.628101 -0.332401,-1.225005 -0.71875,-1.625 -0.459499,-0.475729 -1.042359,-0.726478 -1.5625,-0.84375 -1.040282,-0.234544 -1.964543,-0.156434 -2.65625,-0.375 a 1.0194967,1.0194967 0 0 0 -0.03125,0 c -1.804408,-0.52086 -3.108759,-1.750504 -4.03125,-3.375 -0.922491,-1.624496 -1.401393,-3.634058 -1.53125,-5.5 A 1.0194967,1.0194967 0 0 0 25.09375,56.5 c -0.880825,-9.001991 4.047906,-17.846557 11.0625,-23.40625 a 1.0194967,1.0194967 0 0 0 0,-0.03125 c 7.945755,-6.349997 17.630048,-9.086837 27.625,-10.9375 z"
       id="path2979"
       style="font-size:medium;font-style:normal;font-variant:normal;font-weight:normal;font-stretch:normal;text-indent:0;text-align:start;text-decoration:none;line-height:normal;letter-spacing:normal;word-spacing:normal;text-transform:none;direction:ltr;block-progression:tb;writing-mode:lr-tb;text-anchor:start;color:#000000;fill:url(#linearGradient4133);fill-opacity:1;stroke:none;stroke-width:0.82766795;marker:none;visibility:visible;display:inline;overflow:visible;enable-background:accumulate;font-family:Abandoned Bitplane;-inkscape-font-specification:Abandoned Bitplane" />
  </g>
</svg>
