<?xml version="1.0" encoding="UTF-8" standalone="no"?>
<!-- Created with Inkscape (http://www.inkscape.org/) -->

<svg
   xmlns:dc="http://purl.org/dc/elements/1.1/"
   xmlns:cc="http://creativecommons.org/ns#"
   xmlns:rdf="http://www.w3.org/1999/02/22-rdf-syntax-ns#"
   xmlns:svg="http://www.w3.org/2000/svg"
   xmlns="http://www.w3.org/2000/svg"
   xmlns:xlink="http://www.w3.org/1999/xlink"
   xmlns:sodipodi="http://sodipodi.sourceforge.net/DTD/sodipodi-0.dtd"
   xmlns:inkscape="http://www.inkscape.org/namespaces/inkscape"
   version="1.0"
   width="96"
   height="96"
   id="svg2408"
   inkscape:version="0.48.4 r9939"
   sodipodi:docname="deadbeef.svg">
  <sodipodi:namedview
     pagecolor="#ffffff"
     bordercolor="#666666"
     borderopacity="1"
     objecttolerance="10"
     gridtolerance="10"
     guidetolerance="10"
     inkscape:pageopacity="0"
     inkscape:pageshadow="2"
     inkscape:window-width="1920"
     inkscape:window-height="1020"
     id="namedview59"
     showgrid="false"
     inkscape:zoom="4.9166667"
     inkscape:cx="86.635617"
     inkscape:cy="22.96664"
     inkscape:window-x="0"
     inkscape:window-y="0"
     inkscape:window-maximized="1"
     inkscape:current-layer="svg2408" />
  <defs
     id="defs2410">
    <linearGradient
       id="linearGradient3679">
      <stop
         id="stop3681"
         style="stop-color:#d8d5cc;stop-opacity:1"
         offset="0" />
      <stop
         id="stop3683"
         style="stop-color:#40474b;stop-opacity:1"
         offset="1" />
    </linearGradient>
    <linearGradient
       x1="45.447727"
       y1="92.539597"
       x2="45.447727"
       y2="7.0165396"
       id="ButtonShadow"
       gradientUnits="userSpaceOnUse"
       gradientTransform="scale(1.0058652,0.994169)">
      <stop
         id="stop3750"
         style="stop-color:#000000;stop-opacity:1"
         offset="0" />
      <stop
         id="stop3752"
         style="stop-color:#000000;stop-opacity:0.58823532"
         offset="1" />
    </linearGradient>
    <linearGradient
       id="linearGradient3737">
      <stop
         id="stop3739"
         style="stop-color:#ffffff;stop-opacity:1"
         offset="0" />
      <stop
         id="stop3741"
         style="stop-color:#ffffff;stop-opacity:0"
         offset="1" />
    </linearGradient>
    <linearGradient
       id="linearGradient3700">
      <stop
         id="stop3702"
         style="stop-color:#5c6061;stop-opacity:1"
         offset="0" />
      <stop
         id="stop3704"
         style="stop-color:#bab5af;stop-opacity:1"
         offset="1" />
    </linearGradient>
    <filter
       color-interpolation-filters="sRGB"
       id="filter3174">
      <feGaussianBlur
         id="feGaussianBlur3176"
         stdDeviation="1.71" />
    </filter>
    <linearGradient
       x1="36.357143"
       y1="6"
       x2="36.357143"
       y2="63.893143"
       id="linearGradient3188"
       xlink:href="#linearGradient3737"
       gradientUnits="userSpaceOnUse" />
    <filter
       x="-0.192"
       y="-0.192"
       width="1.3839999"
       height="1.3839999"
       color-interpolation-filters="sRGB"
       id="filter3794">
      <feGaussianBlur
         id="feGaussianBlur3796"
         stdDeviation="5.28" />
    </filter>
    <linearGradient
       x1="48"
       y1="20.220806"
       x2="48"
       y2="138.66119"
       id="linearGradient3613"
       xlink:href="#linearGradient3737"
       gradientUnits="userSpaceOnUse" />
    <radialGradient
       cx="48"
       cy="90.171875"
       r="42"
       fx="48"
       fy="90.171875"
       id="radialGradient3619"
       xlink:href="#linearGradient3737"
       gradientUnits="userSpaceOnUse"
       gradientTransform="matrix(1.1573129,0,0,0.99590774,-7.5510206,0.19713193)" />
    <clipPath
       id="clipPath3613">
      <rect
         width="84"
         height="84"
         rx="6"
         ry="6"
         x="6"
         y="6"
         id="rect3615"
         style="fill:#ffffff;fill-opacity:1;fill-rule:nonzero;stroke:none" />
    </clipPath>
    <linearGradient
       x1="48"
       y1="80"
       x2="48"
       y2="16"
       id="linearGradient3617"
       xlink:href="#linearGradient3700"
       gradientUnits="userSpaceOnUse" />
    <linearGradient
       x1="45.447727"
       y1="92.539597"
       x2="45.447727"
       y2="7.0165396"
       id="ButtonShadow-0"
       gradientUnits="userSpaceOnUse"
       gradientTransform="matrix(1.0058652,0,0,0.994169,100,0)">
      <stop
         id="stop3750-8"
         style="stop-color:#000000;stop-opacity:1"
         offset="0" />
      <stop
         id="stop3752-5"
         style="stop-color:#000000;stop-opacity:0.58823532"
         offset="1" />
    </linearGradient>
    <linearGradient
       x1="32.251034"
       y1="6.1317081"
       x2="32.251034"
       y2="90.238609"
       id="linearGradient3780"
       xlink:href="#ButtonShadow-0"
       gradientUnits="userSpaceOnUse"
       gradientTransform="matrix(1.0238095,0,0,1.0119048,-1.1428571,-98.071429)" />
    <linearGradient
       x1="32.251034"
       y1="6.1317081"
       x2="32.251034"
       y2="90.238609"
       id="linearGradient3772"
       xlink:href="#ButtonShadow-0"
       gradientUnits="userSpaceOnUse"
       gradientTransform="matrix(1.0238095,0,0,1.0119048,-1.1428571,-98.071429)" />
    <linearGradient
       x1="32.251034"
       y1="6.1317081"
       x2="32.251034"
       y2="90.238609"
       id="linearGradient3725"
       xlink:href="#ButtonShadow-0"
       gradientUnits="userSpaceOnUse"
       gradientTransform="matrix(1.0238095,0,0,1.0119048,-1.1428571,-98.071429)" />
    <linearGradient
       x1="32.251034"
       y1="6.1317081"
       x2="32.251034"
       y2="90.238609"
       id="linearGradient3721"
       xlink:href="#ButtonShadow-0"
       gradientUnits="userSpaceOnUse"
       gradientTransform="translate(0,-97)" />
    <linearGradient
       x1="32.251034"
       y1="6.1317081"
       x2="32.251034"
       y2="90.238609"
       id="linearGradient3026"
       xlink:href="#ButtonShadow-0"
       gradientUnits="userSpaceOnUse"
       gradientTransform="matrix(1.0238095,0,0,1.0119048,-1.1428571,-98.071429)" />
    <linearGradient
       x1="48"
       y1="80"
       x2="48"
       y2="16"
       id="linearGradient3685"
       xlink:href="#linearGradient3679"
       gradientUnits="userSpaceOnUse"
       gradientTransform="translate(-1,0)" />
  </defs>
  <metadata
     id="metadata2413">
    <rdf:RDF>
      <cc:Work
         rdf:about="">
        <dc:format>image/svg+xml</dc:format>
        <dc:type
           rdf:resource="http://purl.org/dc/dcmitype/StillImage" />
        <dc:title></dc:title>
      </cc:Work>
    </rdf:RDF>
  </metadata>
  <g
     id="layer2"
     style="display:none">
    <rect
       width="86"
       height="85"
       rx="6"
       ry="6"
       x="5"
       y="7"
       id="rect3745"
       style="opacity:0.9;fill:url(#ButtonShadow);fill-opacity:1;fill-rule:nonzero;stroke:none;filter:url(#filter3174)" />
  </g>
  <g
     id="layer3">
    <path
       d="m 12,-95.03125 c -5.5110903,0 -10.03125,4.52016 -10.03125,10.03125 l 0,71 c 0,5.5110902 4.5201598,10.03125 10.03125,10.03125 l 72,0 c 5.51109,0 10.03125,-4.5201597 10.03125,-10.03125 l 0,-71 c 0,-5.51109 -4.52016,-10.03125 -10.03125,-10.03125 l -72,0 z"
       transform="scale(1,-1)"
       id="path3786"
       style="opacity:0.07999998;fill:url(#linearGradient3026);fill-opacity:1;fill-rule:nonzero;stroke:none;display:inline" />
    <path
       d="m 12,-94.03125 c -4.971633,0 -9.03125,4.059617 -9.03125,9.03125 l 0,71 c 0,4.9716329 4.0596171,9.03125 9.03125,9.03125 l 72,0 c 4.971633,0 9.03125,-4.059617 9.03125,-9.03125 l 0,-71 c 0,-4.971633 -4.059617,-9.03125 -9.03125,-9.03125 l -72,0 z"
       transform="scale(1,-1)"
       id="path3778"
       style="opacity:0.1;fill:url(#linearGradient3780);fill-opacity:1;fill-rule:nonzero;stroke:none;display:inline" />
    <path
       d="m 12,-93 c -4.4091333,0 -8,3.590867 -8,8 l 0,71 c 0,4.4091333 3.5908667,8 8,8 l 72,0 c 4.409133,0 8,-3.5908667 8,-8 l 0,-71 c 0,-4.409133 -3.590867,-8 -8,-8 l -72,0 z"
       transform="scale(1,-1)"
       id="path3770"
       style="opacity:0.2;fill:url(#linearGradient3772);fill-opacity:1;fill-rule:nonzero;stroke:none;display:inline" />
    <rect
       width="86"
       height="85"
       rx="7"
       ry="7"
       x="5"
       y="-92"
       transform="scale(1,-1)"
       id="rect3723"
       style="opacity:0.3;fill:url(#linearGradient3725);fill-opacity:1;fill-rule:nonzero;stroke:none;display:inline" />
    <rect
       width="84"
       height="84"
       rx="6"
       ry="6"
       x="6"
       y="-91"
       transform="scale(1,-1)"
       id="rect3716"
       style="opacity:0.45;fill:url(#linearGradient3721);fill-opacity:1;fill-rule:nonzero;stroke:none;display:inline" />
  </g>
  <g
     id="layer1">
    <rect
       width="84"
       height="84"
       rx="6"
       ry="6"
       x="6"
       y="6"
       id="rect2419"
       style="fill:url(#linearGradient3617);fill-opacity:1;fill-rule:nonzero;stroke:none" />
    <path
       d="M 12,6 C 8.676,6 6,8.676 6,12 l 0,2 0,68 0,2 c 0,0.334721 0.04135,0.6507 0.09375,0.96875 0.0487,0.295596 0.09704,0.596915 0.1875,0.875 0.00988,0.03038 0.020892,0.0636 0.03125,0.09375 0.098865,0.287771 0.2348802,0.547452 0.375,0.8125 0.1445918,0.273507 0.3156161,0.535615 0.5,0.78125 0.1843839,0.245635 0.3737765,0.473472 0.59375,0.6875 0.439947,0.428056 0.94291,0.814526 1.5,1.09375 0.278545,0.139612 0.5734731,0.246947 0.875,0.34375 -0.2562018,-0.100222 -0.4867109,-0.236272 -0.71875,-0.375 -0.00741,-0.0044 -0.023866,0.0045 -0.03125,0 -0.031933,-0.0193 -0.062293,-0.04251 -0.09375,-0.0625 -0.120395,-0.0767 -0.2310226,-0.163513 -0.34375,-0.25 -0.1061728,-0.0808 -0.2132809,-0.161112 -0.3125,-0.25 C 8.4783201,88.557317 8.3087904,88.373362 8.15625,88.1875 8.0486711,88.057245 7.9378561,87.922215 7.84375,87.78125 7.818661,87.74287 7.805304,87.69538 7.78125,87.65625 7.716487,87.553218 7.6510225,87.451733 7.59375,87.34375 7.4927417,87.149044 7.3880752,86.928049 7.3125,86.71875 7.30454,86.69694 7.288911,86.6782 7.28125,86.65625 7.2494249,86.5643 7.2454455,86.469419 7.21875,86.375 7.1884177,86.268382 7.1483606,86.171969 7.125,86.0625 7.0521214,85.720988 7,85.364295 7,85 L 7,83 7,15 7,13 C 7,10.218152 9.2181517,8 12,8 l 2,0 68,0 2,0 c 2.781848,0 5,2.218152 5,5 l 0,2 0,68 0,2 c 0,0.364295 -0.05212,0.720988 -0.125,1.0625 -0.04415,0.206893 -0.08838,0.397658 -0.15625,0.59375 -0.0077,0.02195 -0.0233,0.04069 -0.03125,0.0625 -0.06274,0.173739 -0.138383,0.367449 -0.21875,0.53125 -0.04158,0.0828 -0.07904,0.169954 -0.125,0.25 -0.0546,0.09721 -0.126774,0.18835 -0.1875,0.28125 -0.09411,0.140965 -0.204921,0.275995 -0.3125,0.40625 -0.143174,0.17445 -0.303141,0.346998 -0.46875,0.5 -0.01117,0.0102 -0.01998,0.02115 -0.03125,0.03125 -0.138386,0.125556 -0.285091,0.234436 -0.4375,0.34375 -0.102571,0.07315 -0.204318,0.153364 -0.3125,0.21875 -0.0074,0.0045 -0.02384,-0.0044 -0.03125,0 -0.232039,0.138728 -0.462548,0.274778 -0.71875,0.375 0.301527,-0.0968 0.596455,-0.204138 0.875,-0.34375 0.55709,-0.279224 1.060053,-0.665694 1.5,-1.09375 0.219973,-0.214028 0.409366,-0.441865 0.59375,-0.6875 0.184384,-0.245635 0.355408,-0.507743 0.5,-0.78125 0.14012,-0.265048 0.276135,-0.524729 0.375,-0.8125 0.01041,-0.03078 0.02133,-0.06274 0.03125,-0.09375 0.09046,-0.278085 0.1388,-0.579404 0.1875,-0.875 C 89.95865,84.6507 90,84.334721 90,84 l 0,-2 0,-68 0,-2 C 90,8.676 87.324,6 84,6 L 12,6 z"
       inkscape:connector-curvature="0"
       id="rect3728"
       style="opacity:0.35;fill:url(#linearGradient3188);fill-opacity:1;fill-rule:nonzero;stroke:none" />
    <path
       d="M 12,90 C 8.676,90 6,87.324 6,84 L 6,82 6,14 6,12 c 0,-0.334721 0.04135,-0.6507 0.09375,-0.96875 0.0487,-0.295596 0.09704,-0.596915 0.1875,-0.875 C 6.29113,10.12587 6.302142,10.09265 6.3125,10.0625 6.411365,9.774729 6.5473802,9.515048 6.6875,9.25 6.8320918,8.976493 7.0031161,8.714385 7.1875,8.46875 7.3718839,8.223115 7.5612765,7.995278 7.78125,7.78125 8.221197,7.353194 8.72416,6.966724 9.28125,6.6875 9.559795,6.547888 9.8547231,6.440553 10.15625,6.34375 9.9000482,6.443972 9.6695391,6.580022 9.4375,6.71875 c -0.00741,0.0044 -0.023866,-0.0045 -0.03125,0 -0.031933,0.0193 -0.062293,0.04251 -0.09375,0.0625 -0.120395,0.0767 -0.2310226,0.163513 -0.34375,0.25 -0.1061728,0.0808 -0.2132809,0.161112 -0.3125,0.25 C 8.4783201,7.442683 8.3087904,7.626638 8.15625,7.8125 8.0486711,7.942755 7.9378561,8.077785 7.84375,8.21875 7.818661,8.25713 7.805304,8.30462 7.78125,8.34375 7.716487,8.446782 7.6510225,8.548267 7.59375,8.65625 7.4927417,8.850956 7.3880752,9.071951 7.3125,9.28125 7.30454,9.30306 7.288911,9.3218 7.28125,9.34375 7.2494249,9.4357 7.2454455,9.530581 7.21875,9.625 7.1884177,9.731618 7.1483606,9.828031 7.125,9.9375 7.0521214,10.279012 7,10.635705 7,11 l 0,2 0,68 0,2 c 0,2.781848 2.2181517,5 5,5 l 2,0 68,0 2,0 c 2.781848,0 5,-2.218152 5,-5 l 0,-2 0,-68 0,-2 C 89,10.635705 88.94788,10.279012 88.875,9.9375 88.83085,9.730607 88.78662,9.539842 88.71875,9.34375 88.71105,9.3218 88.69545,9.30306 88.6875,9.28125 88.62476,9.107511 88.549117,8.913801 88.46875,8.75 88.42717,8.6672 88.38971,8.580046 88.34375,8.5 88.28915,8.40279 88.216976,8.31165 88.15625,8.21875 88.06214,8.077785 87.951329,7.942755 87.84375,7.8125 87.700576,7.63805 87.540609,7.465502 87.375,7.3125 87.36383,7.3023 87.35502,7.29135 87.34375,7.28125 87.205364,7.155694 87.058659,7.046814 86.90625,6.9375 86.803679,6.86435 86.701932,6.784136 86.59375,6.71875 c -0.0074,-0.0045 -0.02384,0.0044 -0.03125,0 -0.232039,-0.138728 -0.462548,-0.274778 -0.71875,-0.375 0.301527,0.0968 0.596455,0.204138 0.875,0.34375 0.55709,0.279224 1.060053,0.665694 1.5,1.09375 0.219973,0.214028 0.409366,0.441865 0.59375,0.6875 0.184384,0.245635 0.355408,0.507743 0.5,0.78125 0.14012,0.265048 0.276135,0.524729 0.375,0.8125 0.01041,0.03078 0.02133,0.06274 0.03125,0.09375 0.09046,0.278085 0.1388,0.579404 0.1875,0.875 C 89.95865,11.3493 90,11.665279 90,12 l 0,2 0,68 0,2 c 0,3.324 -2.676,6 -6,6 l -72,0 z"
       inkscape:connector-curvature="0"
       id="path3615"
       style="opacity:0.2;fill:url(#radialGradient3619);fill-opacity:1;fill-rule:nonzero;stroke:none" />
  </g>
  <g
     id="g3047"
     transform="translate(-4.4583682,-1.4381832)">
    <path
       style="fill:#f6e351"
       d="M 45.803663,83.5805 C 38.636164,79.297605 27.231738,72.607433 20.751034,68.883892 c -2.457392,-1.411916 -4.71612,-2.752698 -5.019397,-2.979519 -0.503568,-0.376616 -0.553349,-1.400704 -0.573741,-11.803 -0.01228,-6.264833 0.02044,-11.422861 0.0727,-11.462288 0.05227,-0.03943 2.285139,-1.344189 4.961941,-2.899464 2.676801,-1.555276 4.866912,-2.96559 4.866912,-3.134031 0,-0.168441 -0.444985,-0.553789 -0.988856,-0.85633 -0.543871,-0.30254 -1.333747,-0.814911 -1.75528,-1.138601 l -0.766424,-0.588529 0,-7.229449 c 0,-6.756535 0.04074,-7.267237 0.62271,-7.80712 0.34249,-0.317719 3.205606,-2.074773 6.36248,-3.904564 l 5.73977,-3.326893 1.376708,0.710092 c 2.510365,1.29482 11.266069,6.538434 11.504573,6.889855 0.128959,0.190013 0.236669,1.253661 0.239356,2.363662 0.0026,1.110002 0.06077,2.018185 0.129068,2.018185 0.0683,0 1.10722,-0.581237 2.308713,-1.291638 1.201492,-0.710401 2.474038,-1.284863 2.82788,-1.276582 0.353842,0.0083 3.300203,1.578428 6.547471,3.489215 l 5.904122,3.474158 0.1623,1.825409 c 0.182926,2.057397 0.244274,2.14597 2.231264,3.221528 0.789876,0.427559 1.938786,1.093024 2.553134,1.47881 0.614348,0.385787 1.224706,0.701973 1.356352,0.702637 0.131646,6.78e-4 0.239357,-1.078233 0.239357,-2.39755 0,-2.736723 0.157078,-2.992382 2.611872,-4.251005 l 1.583817,-0.812056 1.811641,1.025991 c 0.996405,0.564295 1.88345,1.092334 1.971214,1.17342 0.08776,0.08109 0.231378,2.475294 0.319142,5.320462 l 0.15957,5.173032 2.073825,1.115671 c 1.140606,0.613619 2.720358,1.526462 3.51056,2.028538 0.790204,0.502079 1.580348,0.968651 1.755876,1.036827 0.175528,0.06818 0.857694,0.462949 1.515924,0.877274 l 1.196781,0.753319 0,9.454398 c 0,7.170888 -0.09635,9.534718 -0.398927,9.786943 -0.21941,0.182899 -3.917465,2.398317 -8.217901,4.92315 -4.300435,2.52483 -9.03969,5.320103 -10.531678,6.211711 -3.418615,2.042961 -7.467241,4.409788 -11.967816,6.996387 -1.930808,1.109689 -4.046032,2.367606 -4.700499,2.795374 -0.654467,0.427768 -1.444343,0.766532 -1.75528,0.752808 -0.310936,-0.01372 -3.365809,-1.698355 -6.788604,-3.743629 z"
       id="path3061"
       inkscape:connector-curvature="0" />
    <path
       style="fill:#e5b76c"
       d="M 46.522756,83.436682 C 39.355257,79.153787 27.950831,72.463615 21.470127,68.740074 c -2.457392,-1.411916 -4.71612,-2.752698 -5.019397,-2.979519 -0.503568,-0.376616 -0.553349,-1.400704 -0.573741,-11.803 -0.01228,-6.264833 0.02044,-11.422861 0.0727,-11.462288 0.05227,-0.03943 2.285139,-1.344189 4.961941,-2.899464 2.676801,-1.555276 4.866912,-2.96559 4.866912,-3.134031 0,-0.168441 -0.444985,-0.553789 -0.988856,-0.85633 -0.543871,-0.30254 -1.333747,-0.814911 -1.75528,-1.138601 l -0.766424,-0.588529 0,-7.229449 c 0,-6.756534 0.04074,-7.267236 0.62271,-7.807119 0.34249,-0.317719 3.205606,-2.074773 6.36248,-3.904564 l 5.73977,-3.326893 1.376708,0.710092 c 2.510365,1.29482 11.266069,6.538434 11.504573,6.889855 0.128959,0.190013 0.236669,1.253661 0.239356,2.363662 0.0026,1.110002 0.06077,2.018185 0.129068,2.018185 0.0683,0 1.10722,-0.581237 2.308713,-1.291638 1.201492,-0.710401 2.474038,-1.284863 2.82788,-1.276582 0.353842,0.0083 3.300203,1.578428 6.547471,3.489214 l 5.904122,3.474158 0.1623,1.825409 c 0.182926,2.057397 0.244274,2.14597 2.231264,3.221528 0.789876,0.427559 1.938786,1.093024 2.553134,1.47881 0.614348,0.385787 1.224706,0.701973 1.356352,0.702637 0.131646,6.78e-4 0.239357,-1.078233 0.239357,-2.39755 0,-2.736723 0.157078,-2.992382 2.611872,-4.251005 l 1.583817,-0.812056 1.811641,1.025991 c 0.996405,0.564295 1.88345,1.092334 1.971214,1.17342 0.08776,0.08109 0.231378,2.475294 0.319142,5.320462 l 0.15957,5.173032 2.073825,1.115671 c 1.140606,0.613619 2.720358,1.526462 3.51056,2.028538 0.790204,0.502079 1.580348,0.968651 1.755876,1.036827 0.82562,0.320671 2.712705,1.6632 2.712705,1.929901 0,0.383242 -3.748428,-1.620741 -7.34026,-3.924243 -1.421107,-0.911379 -2.817196,-1.553501 -2.992331,-1.376301 -0.109498,0.11079 -0.199087,0.976155 -0.199087,1.923029 0,1.703371 -0.01605,1.731787 -1.515924,2.684777 -1.850952,1.176056 -2.690575,1.183686 -4.54777,0.04133 l -1.436138,-0.883368 -0.0883,-4.343031 -0.0883,-4.343031 -2.783973,-1.665675 c -4.66674,-2.792147 -3.812461,-2.813901 -9.000924,0.229215 l -4.535876,2.660363 2.504136,1.456102 c 7.54222,4.385639 6.812551,3.805216 6.812551,5.41914 0,1.009415 0.179179,1.59724 0.59728,1.959454 0.328502,0.284593 3.236681,2.06542 6.462621,3.957389 l 5.86534,3.439949 0.09646,1.690364 c 0.05305,0.929702 0.245139,1.690367 0.426855,1.690367 0.46798,0 4.304916,-2.203496 5.325337,-3.058264 0.469327,-0.393136 2.109942,-1.461624 3.645812,-2.374418 l 2.79249,-1.659626 0,7.542986 c 0,5.641757 -0.100552,7.626801 -0.398927,7.875529 -0.21941,0.182899 -3.917465,2.398317 -8.217901,4.92315 -4.300435,2.52483 -9.03969,5.320103 -10.531678,6.211711 -3.418615,2.042961 -7.467241,4.409788 -11.967816,6.996387 -1.930808,1.109689 -4.046032,2.367606 -4.700499,2.795374 -0.654467,0.427768 -1.444343,0.766532 -1.75528,0.752808 -0.310936,-0.01372 -3.365809,-1.698355 -6.788604,-3.743629 z"
       id="path3059"
       inkscape:connector-curvature="0" />
    <path
       style="fill:#719ecd"
       d="m 32.98242,75.341799 c -3.515132,-2.069308 -7.572222,-4.456501 -9.015755,-5.304874 l -2.624604,-1.542501 0.0049,-5.077145 c 0.0027,-2.792432 0.143566,-5.295113 0.313062,-5.561513 0.271048,-0.426012 0.427371,-0.416286 1.297543,0.08073 1.401541,0.800509 1.575925,0.723937 1.575925,-0.691998 0,-0.737613 0.172526,-1.324078 0.417497,-1.419191 0.229623,-0.08916 2.067243,0.803483 4.083598,1.983636 6.002734,3.513347 5.357854,2.679646 5.461964,7.061232 l 0.08991,3.783841 1.276567,0.721609 c 1.214945,0.686774 1.28427,0.810739 1.436138,2.568048 0.151661,1.754917 0.230757,1.896936 1.595709,2.865173 1.351687,0.958829 1.44181,1.116945 1.532602,2.688842 0.08312,1.439111 0.01691,1.665713 -0.478713,1.638301 -0.316347,-0.0175 -3.451194,-1.724876 -6.966327,-3.794187 z m 15.32712,-2.179203 c -2.281864,-1.340072 -4.32836,-2.67187 -4.54777,-2.959554 -0.21941,-0.28768 -0.398927,-1.215706 -0.398927,-2.062278 0,-1.482826 -0.05261,-1.570415 -1.436138,-2.390787 l -1.436138,-0.851567 0,-1.902192 c 0,-1.843326 0.03704,-1.926476 1.196781,-2.686827 2.315192,-1.517892 23.426007,-13.75546 23.729297,-13.75546 0.374912,0 11.392589,6.378972 12.174151,7.048544 0.404372,0.346427 0.558498,0.958922 0.558498,2.219445 0,1.6093 -0.07422,1.782577 -0.981319,2.291046 -1.92709,1.080217 -2.0324,1.232307 -2.203834,3.182778 l -0.165835,1.886757 -10.531679,6.192365 c -5.792423,3.405799 -10.818905,6.199531 -11.16996,6.208292 -0.351056,0.0088 -2.505263,-1.080491 -4.787127,-2.420562 z m 26.648337,-3.025272 0,-3.54101 2.473348,-1.434381 c 3.954056,-2.293093 3.909488,-2.244951 3.909488,-4.222917 0,-1.708663 0.01787,-1.740844 1.432969,-2.579935 1.445865,-0.857337 1.66898,-1.272602 1.83187,-3.409501 0.07937,-1.041167 0.287241,-1.250891 2.639284,-2.662745 1.404223,-0.84291 2.732651,-1.533129 2.952061,-1.53382 0.307024,-9.69e-4 0.398927,1.626237 0.398927,7.063213 0,5.258424 -0.101985,7.149735 -0.398927,7.397994 -0.911893,0.762383 -14.362673,8.464112 -14.782258,8.464112 -0.368488,0 -0.456762,-0.684352 -0.456762,-3.54101 z M 28.36318,51.045309 c -6.406771,-3.745428 -11.828192,-6.959892 -12.047602,-7.143253 -0.648471,-0.541933 -0.482583,-1.798474 0.26931,-2.039933 0.36753,-0.118027 1.265116,-0.618659 1.994636,-1.112514 0.729519,-0.493857 2.116275,-1.32801 3.081678,-1.853673 2.789189,-1.518716 4.148843,-2.395752 4.148843,-2.676182 0,-0.143104 -0.789875,-0.711231 -1.755279,-1.262503 l -1.75528,-1.002314 0,-7.546075 c 0,-5.643808 0.100564,-7.630104 0.398927,-7.879408 1.137225,-0.950237 11.651735,-6.849232 12.202652,-6.846099 0.539804,0.0031 4.150369,2.015153 11.254268,6.271742 l 1.356353,0.812714 0,2.04228 c 0,2.688813 0.33918,2.998678 2.026298,1.851166 0.728578,-0.495551 1.885464,-1.136777 2.570853,-1.424946 1.161395,-0.488301 1.302506,-0.485854 2.074421,0.03597 0.945719,0.639322 2.309604,1.430189 3.700535,2.145806 0.526583,0.270921 1.890914,1.07643 3.031846,1.790019 1.140932,0.71359 2.543186,1.515137 3.116119,1.781216 1.356244,0.629861 1.65378,1.422108 0.797548,2.123627 -0.363416,0.297751 -2.901484,1.837193 -5.640148,3.420982 -2.949829,1.705909 -4.946074,3.05461 -4.897657,3.308951 0.04496,0.236135 2.523167,1.855743 5.507142,3.59913 3.593644,2.099587 5.42541,3.351278 5.42541,3.707321 0,0.367727 -3.830892,2.775066 -12.127386,7.620869 -6.670063,3.89584 -12.342808,7.083712 -12.6061,7.084158 -0.263292,3.23e-4 -5.720616,-3.063627 -12.127387,-6.809055 z m 45.637271,-5.425817 -1.436138,-0.883677 -0.08566,-7.4823 -0.08566,-7.4823 1.521796,-0.966883 c 1.908215,-1.2124 2.730063,-1.213056 4.633427,-0.0037 l 1.515924,0.963186 0,7.425734 0,7.425735 -1.515924,0.963184 c -1.851063,1.176127 -2.6907,1.183699 -4.54777,0.04102 z"
       id="path3057"
       inkscape:connector-curvature="0" />
    <path
       style="fill:#8e918c"
       d="M 35.384298,76.756179 C 33.014671,75.372515 29.78336,73.476535 28.203609,72.542891 26.623857,71.609246 24.433747,70.339324 23.336697,69.720845 l -1.994636,-1.124513 0.0049,-5.056192 c 0.0027,-2.780907 0.143566,-5.274156 0.313062,-5.540556 0.271048,-0.426012 0.427371,-0.416286 1.297543,0.08073 1.401541,0.800509 1.575925,0.723937 1.575925,-0.691998 0,-0.737613 0.172526,-1.324078 0.417497,-1.419191 0.229623,-0.08916 2.067243,0.803483 4.083598,1.983636 6.002734,3.513347 5.357854,2.679646 5.461964,7.061232 l 0.08991,3.783841 1.276567,0.721609 c 1.214945,0.686774 1.28427,0.810739 1.436138,2.568048 0.151661,1.754917 0.230757,1.896936 1.595709,2.865173 1.351687,0.958829 1.44181,1.116945 1.532602,2.688842 0.07011,1.213892 -0.01707,1.664693 -0.319142,1.650272 -0.228583,-0.01091 -2.354392,-1.151932 -4.72402,-2.535596 z M 48.30954,73.306414 c -2.281864,-1.340072 -4.32836,-2.67187 -4.54777,-2.959554 -0.21941,-0.28768 -0.398927,-1.215706 -0.398927,-2.062278 0,-1.482826 -0.05261,-1.570415 -1.436138,-2.390787 l -1.436138,-0.851567 0,-1.902192 c 0,-1.843326 0.03704,-1.926476 1.196781,-2.686827 2.701267,-1.771008 23.452225,-13.75546 23.817441,-13.75546 0.217316,0 0.673896,0.220324 1.014619,0.489612 0.576708,0.455796 0.560272,0.464008 -0.237975,0.118921 -0.80079,-0.346188 -1.671004,0.104574 -13.164597,6.81913 l -12.307128,7.18982 0,1.728673 c 0,1.684384 0.03475,1.75058 1.356353,2.583448 0.745994,0.470127 1.410642,0.902261 1.476994,0.960304 0.06636,0.05804 0.20997,0.945676 0.319142,1.972522 l 0.1985,1.866995 4.148843,2.481909 c 2.281864,1.365048 4.351654,2.49219 4.599532,2.504761 0.247877,0.01256 5.238457,-2.771068 11.090175,-6.185862 l 10.639488,-6.208715 0,-1.703105 c 0,-1.673795 0.02748,-1.723068 1.595709,-2.863042 1.544789,-1.122922 1.595708,-1.21084 1.595708,-2.755084 0,-1.480737 -0.08011,-1.642974 -1.116996,-2.261972 -1.234424,-0.736928 -1.533709,-1.16673 -0.398927,-0.572899 1.546545,0.809301 1.835065,1.297108 1.835065,3.102573 0,1.6093 -0.07422,1.782577 -0.981319,2.291046 -1.92709,1.080217 -2.0324,1.232307 -2.203834,3.182778 l -0.165835,1.886757 -10.531679,6.192365 c -5.792422,3.405799 -10.818905,6.199531 -11.16996,6.208292 -0.351056,0.0088 -2.505263,-1.080491 -4.787127,-2.420562 z m 26.648337,-3.025272 0,-3.54101 2.473348,-1.434381 c 3.954056,-2.293093 3.909488,-2.244951 3.909488,-4.222917 0,-1.708663 0.01787,-1.740844 1.432969,-2.579935 1.445865,-0.857337 1.66898,-1.272602 1.83187,-3.409501 0.07937,-1.041167 0.287241,-1.250891 2.639284,-2.662745 1.404223,-0.84291 2.735399,-1.533129 2.958166,-1.53382 0.317728,-9.69e-4 0.386519,1.543685 0.319142,7.166044 l -0.08589,7.167307 -2.872276,1.657475 c -1.579751,0.911613 -4.905952,2.844804 -7.391556,4.295986 -2.485605,1.451178 -4.675715,2.638507 -4.866913,2.638507 -0.229613,0 -0.347631,-1.202144 -0.347631,-3.54101 z M 28.36318,51.189127 c -6.406771,-3.745428 -11.828192,-6.959892 -12.047602,-7.143253 -0.648471,-0.541933 -0.482583,-1.798474 0.26931,-2.039933 0.36753,-0.118027 1.265116,-0.618659 1.994636,-1.112514 0.729519,-0.493857 2.116275,-1.32801 3.081678,-1.853673 2.789189,-1.518716 4.148843,-2.395752 4.148843,-2.676182 0,-0.143104 -0.789875,-0.711231 -1.755279,-1.262503 l -1.75528,-1.002314 0,-7.546075 c 0,-5.643808 0.100564,-7.630104 0.398927,-7.879408 1.137225,-0.950237 11.651735,-6.849232 12.202652,-6.846099 0.539804,0.0031 4.150369,2.015153 11.254268,6.271742 l 1.356353,0.812714 0,2.04228 c 0,2.688814 0.33918,2.998678 2.026298,1.851167 0.728578,-0.495552 1.885464,-1.136778 2.570853,-1.424947 1.161395,-0.488301 1.302506,-0.485854 2.074421,0.03597 0.945719,0.639322 2.309604,1.43019 3.700535,2.145807 0.526584,0.27092 1.890914,1.076429 3.031846,1.790018 1.140932,0.71359 2.543186,1.515137 3.116119,1.781216 1.356244,0.629861 1.65378,1.422108 0.797548,2.123627 -0.363416,0.297751 -2.901484,1.837193 -5.640148,3.420982 -2.949829,1.705909 -4.946074,3.05461 -4.897657,3.308951 0.04496,0.236135 2.523167,1.855743 5.507142,3.59913 3.593644,2.099587 5.42541,3.351278 5.42541,3.707321 0,0.367727 -3.830892,2.775066 -12.127386,7.620869 -6.670063,3.89584 -12.342808,7.083712 -12.6061,7.084158 -0.263292,3.23e-4 -5.720616,-3.063627 -12.127387,-6.809055 z m 45.876628,0.81339 c -1.193093,-0.654906 -1.120469,-0.927674 0.07979,-0.29967 0.526584,0.275523 0.957425,0.569871 0.957425,0.654112 0,0.207792 -0.03429,0.196074 -1.03721,-0.354442 z m -2.233993,-1.291638 c -1.193092,-0.654906 -1.120468,-0.927674 0.07979,-0.29967 0.526584,0.275523 0.957425,0.569871 0.957425,0.654111 0,0.207793 -0.03429,0.196074 -1.037211,-0.354441 z M 68.973968,48.92434 c -0.921521,-0.543544 -1.675494,-1.062728 -1.675494,-1.153743 0,-0.179283 2.838227,1.417489 3.335032,1.876269 0.540843,0.499447 0.04958,0.285562 -1.659538,-0.722526 z m 5.026483,-3.16103 -1.436138,-0.883677 -0.08566,-7.4823 -0.08566,-7.4823 1.521796,-0.966883 c 1.908215,-1.2124 2.730063,-1.213056 4.633427,-0.0037 l 1.515925,0.963186 0,7.425734 0,7.425735 -1.515925,0.963184 c -1.851063,1.176127 -2.6907,1.183699 -4.54777,0.04102 z"
       id="path3055"
       inkscape:connector-curvature="0" />
    <path
       style="fill:#72d015"
       d="m 31.635406,67.140345 c -1.491988,-0.875217 -2.827107,-1.59445 -2.966931,-1.598299 -0.139825,-0.0038 -1.374654,0.646895 -2.744066,1.446096 -1.369411,0.799201 -2.727051,1.453093 -3.016977,1.453093 -0.466568,0 -0.527138,-0.554358 -0.527138,-4.824585 0,-2.770758 0.13187,-4.90705 0.30977,-5.018296 0.170373,-0.106541 0.737696,0.03019 1.260718,0.303852 1.40238,0.73376 1.62093,0.629266 1.62093,-0.775019 0,-0.699919 0.120455,-1.347905 0.267678,-1.43997 0.147223,-0.09206 2.193719,0.958367 4.54777,2.334287 l 4.280092,2.501674 0.09153,3.350278 c 0.05034,1.842651 -0.02147,3.464557 -0.159571,3.604232 -0.138103,0.139678 -1.471814,-0.462129 -2.963801,-1.337343 z M 29.082272,51.620582 C 22.675501,47.875154 17.25408,44.66069 17.03467,44.477329 c -0.965879,-0.807193 -0.281984,-1.44061 4.63342,-4.291419 2.756687,-1.598808 5.054367,-3.128686 5.105956,-3.399727 0.05847,-0.307175 -0.54101,-0.859318 -1.591479,-1.46582 l -1.685276,-0.973018 -0.08549,-7.420877 -0.08549,-7.420876 5.799432,-3.383127 c 3.189688,-1.86072 6.005094,-3.43252 6.25646,-3.492889 0.405304,-0.09734 9.381679,4.897187 11.651792,6.48315 0.804394,0.561972 0.87764,0.787324 0.87764,2.700202 0,2.490809 0.427876,2.838711 2.184133,1.775894 0.641768,-0.388376 1.755043,-1.008444 2.473939,-1.37793 l 1.307083,-0.671793 5.714035,3.314059 c 6.84239,3.968488 6.918499,4.029607 5.984138,4.805604 -0.37803,0.313957 -2.92805,1.866657 -5.666714,3.450446 -2.949829,1.705909 -4.946074,3.05461 -4.897657,3.308951 0.04496,0.236135 2.523167,1.855743 5.507142,3.59913 3.593644,2.099587 5.42541,3.351278 5.42541,3.707321 0,0.367727 -3.830892,2.775066 -12.127386,7.620869 -6.670063,3.89584 -12.342808,7.083712 -12.6061,7.084158 -0.263292,3.23e-4 -5.720616,-3.063627 -12.127387,-6.809055 z m 45.637271,-5.430199 -1.436138,-0.888059 0.07112,-7.240027 0.07112,-7.240026 0.882411,-0.719177 c 1.848003,-1.506145 2.557803,-1.595795 4.44718,-0.561689 l 1.70886,0.935305 0,3.916735 c 0,2.154205 0.09282,5.451591 0.206256,7.327525 l 0.206258,3.41079 -1.562611,0.992585 c -1.900107,1.206971 -2.730086,1.2189 -4.594455,0.06604 z"
       id="path3053"
       inkscape:connector-curvature="0" />
    <path
       style="fill:#4e9906"
       d="m 31.34777,66.421254 c -1.491988,-0.875217 -2.827107,-1.59445 -2.966931,-1.598299 -0.139825,-0.0038 -1.374654,0.646895 -2.744066,1.446096 -1.369411,0.799201 -2.727051,1.453093 -3.016977,1.453093 -0.466568,0 -0.527138,-0.554358 -0.527138,-4.824585 0,-2.770758 0.13187,-4.90705 0.30977,-5.018296 0.170373,-0.106541 0.737696,0.03019 1.260718,0.303852 1.40238,0.73376 1.62093,0.629266 1.62093,-0.775019 0,-0.699919 0.120455,-1.347905 0.267678,-1.43997 0.147223,-0.09206 2.193719,0.958367 4.54777,2.334287 l 4.280092,2.501674 0.09153,3.350278 c 0.05034,1.842651 -0.02147,3.464557 -0.159571,3.604232 -0.138103,0.139678 -1.471814,-0.462129 -2.963801,-1.337343 z M 74.950943,45.284673 C 74.271012,44.876764 73.591045,44.345552 73.439909,44.1042 73.28877,43.862851 73.162913,40.596869 73.160226,36.846464 l -0.0049,-6.818918 1.350101,-0.904002 c 1.699554,-1.13799 2.621363,-1.13799 4.320918,0 l 1.3501,0.904002 0,6.837928 c 0,7.457119 0.02831,7.333513 -1.952519,8.526383 -1.404836,0.846 -1.700285,0.836326 -3.272997,-0.107184 z m -41.20961,-4.900579 c -0.526584,-0.280886 -1.289632,-0.819978 -1.695663,-1.197983 -0.669646,-0.623426 -2.571634,-1.851278 -7.320092,-4.72558 l -1.675494,-1.014197 0,-7.237185 0,-7.237185 1.196781,-0.76871 c 0.65823,-0.422791 2.130272,-1.297146 3.271203,-1.943012 1.140932,-0.645866 2.792491,-1.610846 3.670131,-2.144399 0.87764,-0.533553 2.144994,-1.268156 2.816344,-1.63245 l 1.220634,-0.662353 3.087779,1.749899 c 5.196931,2.945193 8.166857,4.683049 8.764089,5.128319 0.504416,0.376073 0.592863,1.213343 0.768305,7.273221 0.153367,5.297428 0.106603,6.959973 -0.20651,7.341704 -0.222627,0.271415 -2.076308,1.464103 -4.119294,2.650418 -2.042985,1.186315 -4.073554,2.481302 -4.512374,2.877751 -1.21382,1.096616 -2.957414,2.077252 -3.67013,2.064162 -0.351056,-0.0065 -1.069125,-0.241537 -1.595709,-0.52242 z"
       id="path3051"
       inkscape:connector-curvature="0" />
    <path
       style="fill:#1a140f"
       d="m 22.555617,63.453773 c 0,-5.103882 0.08603,-5.367858 1.41735,-4.34901 0.995919,0.76217 1.454426,0.581457 1.459813,-0.57536 0.0097,-2.087853 0.280803,-2.08153 4.023667,0.09385 5.673682,3.297581 5.226557,2.757279 5.226557,6.315739 0,2.232064 -0.113475,3.099845 -0.420964,3.219234 -0.23153,0.08989 -1.559958,-0.494823 -2.952061,-1.299372 -1.392104,-0.804548 -2.674711,-1.46226 -2.850239,-1.461575 -0.175528,6.45e-4 -1.396245,0.651854 -2.712705,1.447048 -1.31646,0.795194 -2.573081,1.447445 -2.792491,1.44945 -0.301571,0.0028 -0.398927,-1.178416 -0.398927,-4.840001 z"
       id="path3049"
       inkscape:connector-curvature="0" />
  </g>
  <rect
     style="fill:#ff0000;fill-opacity:1;stroke:#ff0000;stroke-width:1.16326797;stroke-linejoin:miter;stroke-miterlimit:4;stroke-opacity:1;stroke-dasharray:none"
     id="rect3081"
     width="1.5118212"
     height="0.0017288226"
     x="23.081976"
     y="59.828823"
     rx="36.041214"
     ry="0.0017288226" />
  <rect
     style="fill:#ff0000;fill-opacity:1;stroke:#ff0000;stroke-width:1.16326797;stroke-linejoin:miter;stroke-miterlimit:4;stroke-opacity:1;stroke-dasharray:none"
     id="rect3081-8"
     width="1.5118212"
     height="0.0017288226"
     x="26.929119"
     y="61.410828"
     rx="36.041214"
     ry="0.0017288226" />
  <g
     id="layer5"
     style="display:inline">
    <rect
       width="66"
       height="66"
       rx="12"
       ry="12"
       x="15"
       y="15"
       clip-path="url(#clipPath3613)"
       id="rect3171"
       style="opacity:0.1;fill:url(#linearGradient3613);fill-opacity:1;fill-rule:nonzero;stroke:#ffffff;stroke-width:0.5;stroke-linecap:round;stroke-linejoin:miter;stroke-miterlimit:4;stroke-opacity:1;stroke-dasharray:none;stroke-dashoffset:0;filter:url(#filter3794)" />
  </g>
</svg>
