<?xml version="1.0" encoding="UTF-8" standalone="no"?>
<!-- Created with Inkscape (http://www.inkscape.org/) -->

<svg
   xmlns:svg="http://www.w3.org/2000/svg"
   xmlns="http://www.w3.org/2000/svg"
   xmlns:xlink="http://www.w3.org/1999/xlink"
   version="1.0"
   width="96"
   height="96"
   id="svg2408">
  <defs
     id="defs2410">
    <linearGradient
       id="linearGradient4843">
      <stop
         id="stop4845"
         style="stop-color:#ff6600;stop-opacity:1"
         offset="0" />
      <stop
         id="stop4847"
         style="stop-color:#ff6600;stop-opacity:0"
         offset="1" />
    </linearGradient>
    <linearGradient
       id="linearGradient4797">
      <stop
         id="stop4799"
         style="stop-color:#000000;stop-opacity:1"
         offset="0" />
      <stop
         id="stop4801"
         style="stop-color:#000000;stop-opacity:0"
         offset="1" />
    </linearGradient>
    <linearGradient
       x1="45.447727"
       y1="92.539597"
       x2="45.447727"
       y2="7.0165396"
       id="ButtonShadow"
       gradientUnits="userSpaceOnUse"
       gradientTransform="scale(1.0058652,0.994169)">
      <stop
         id="stop3750"
         style="stop-color:#000000;stop-opacity:1"
         offset="0" />
      <stop
         id="stop3752"
         style="stop-color:#000000;stop-opacity:0.58823532"
         offset="1" />
    </linearGradient>
    <linearGradient
       id="linearGradient3737">
      <stop
         id="stop3739"
         style="stop-color:#ffffff;stop-opacity:1"
         offset="0" />
      <stop
         id="stop3741"
         style="stop-color:#ffffff;stop-opacity:0"
         offset="1" />
    </linearGradient>
    <filter
       color-interpolation-filters="sRGB"
       id="filter3174">
      <feGaussianBlur
         id="feGaussianBlur3176"
         stdDeviation="1.71" />
    </filter>
    <linearGradient
       x1="36.357143"
       y1="6"
       x2="36.357143"
       y2="63.893143"
       id="linearGradient3188"
       xlink:href="#linearGradient3737"
       gradientUnits="userSpaceOnUse" />
    <filter
       x="-0.192"
       y="-0.192"
       width="1.3839999"
       height="1.3839999"
       color-interpolation-filters="sRGB"
       id="filter3794">
      <feGaussianBlur
         id="feGaussianBlur3796"
         stdDeviation="5.28" />
    </filter>
    <linearGradient
       x1="48"
       y1="20.220806"
       x2="48"
       y2="138.66119"
       id="linearGradient3613"
       xlink:href="#linearGradient3737"
       gradientUnits="userSpaceOnUse" />
    <radialGradient
       cx="48"
       cy="90.171875"
       r="42"
       fx="48"
       fy="90.171875"
       id="radialGradient3619"
       xlink:href="#linearGradient3737"
       gradientUnits="userSpaceOnUse"
       gradientTransform="matrix(1.1573129,0,0,0.99590774,-7.5510206,0.19713193)" />
    <clipPath
       id="clipPath3613">
      <rect
         width="84"
         height="84"
         rx="6"
         ry="6"
         x="6"
         y="6"
         id="rect3615"
         style="fill:#ffffff;fill-opacity:1;fill-rule:nonzero;stroke:none" />
    </clipPath>
    <linearGradient
       x1="48"
       y1="90"
       x2="48"
       y2="5.9877172"
       id="linearGradient3617"
       xlink:href="#linearGradient3187"
       gradientUnits="userSpaceOnUse" />
    <linearGradient
       id="linearGradient3187">
      <stop
         id="stop3189"
         style="stop-color:#3c393e;stop-opacity:1"
         offset="0" />
      <stop
         id="stop3191"
         style="stop-color:#79727e;stop-opacity:1"
         offset="1" />
    </linearGradient>
    <linearGradient
       x1="61.502651"
       y1="69.817703"
       x2="47.803612"
       y2="87.809891"
       id="linearGradient4109"
       xlink:href="#linearGradient8076"
       gradientUnits="userSpaceOnUse" />
    <linearGradient
       id="linearGradient8076">
      <stop
         id="stop8078"
         style="stop-color:#cf6714;stop-opacity:1"
         offset="0" />
      <stop
         id="stop8080"
         style="stop-color:#d3790b;stop-opacity:1"
         offset="0.20227151" />
      <stop
         id="stop8082"
         style="stop-color:#f08300;stop-opacity:1"
         offset="0.51162791" />
      <stop
         id="stop8084"
         style="stop-color:#f3b230;stop-opacity:1"
         offset="0.7842077" />
      <stop
         id="stop8086"
         style="stop-color:#d24118;stop-opacity:0.92156863"
         offset="1" />
    </linearGradient>
    <linearGradient
       x1="61.502651"
       y1="69.817703"
       x2="47.803612"
       y2="87.809891"
       id="linearGradient4111"
       xlink:href="#linearGradient8076"
       gradientUnits="userSpaceOnUse"
       gradientTransform="matrix(-1,0,0,1,95.84375,0)" />
    <linearGradient
       x1="12.348506"
       y1="19.501543"
       x2="34.751446"
       y2="19.932304"
       id="linearGradient4113"
       xlink:href="#linearGradient3183"
       gradientUnits="userSpaceOnUse"
       gradientTransform="matrix(1.2762545,0,0,1.2762545,18.790566,17.46799)" />
    <linearGradient
       id="linearGradient3183">
      <stop
         id="stop5163"
         style="stop-color:#8a450c;stop-opacity:1"
         offset="0" />
      <stop
         id="stop3195"
         style="stop-color:#e8860e;stop-opacity:1"
         offset="0.20227151" />
      <stop
         id="stop3435"
         style="stop-color:#ffac24;stop-opacity:1"
         offset="0.51162791" />
      <stop
         id="stop3193"
         style="stop-color:#e8860e;stop-opacity:1"
         offset="0.75581396" />
      <stop
         id="stop3187"
         style="stop-color:#70440d;stop-opacity:0.92156863"
         offset="1" />
    </linearGradient>
    <filter
       x="-0.039040156"
       y="-0.11534591"
       width="1.0780803"
       height="1.2306918"
       color-interpolation-filters="sRGB"
       id="filter3950">
      <feGaussianBlur
         id="feGaussianBlur3952"
         stdDeviation="0.53403609" />
    </filter>
    <linearGradient
       x1="14.862838"
       y1="21.635897"
       x2="21.070415"
       y2="22.724205"
       id="linearGradient4115"
       xlink:href="#linearGradient4037"
       gradientUnits="userSpaceOnUse" />
    <linearGradient
       id="linearGradient4037">
      <stop
         id="stop4039"
         style="stop-color:#ea690e;stop-opacity:1"
         offset="0" />
      <stop
         id="stop4041"
         style="stop-color:#ea690e;stop-opacity:0"
         offset="1" />
    </linearGradient>
    <linearGradient
       x1="28.228096"
       y1="19.421204"
       x2="22.680347"
       y2="17.831375"
       id="linearGradient4117"
       xlink:href="#linearGradient4029"
       gradientUnits="userSpaceOnUse" />
    <linearGradient
       id="linearGradient4029">
      <stop
         id="stop4031"
         style="stop-color:#a54a0a;stop-opacity:1"
         offset="0" />
      <stop
         id="stop4033"
         style="stop-color:#f78300;stop-opacity:0"
         offset="1" />
    </linearGradient>
    <linearGradient
       x1="16.368952"
       y1="12.608516"
       x2="30.440506"
       y2="12.608516"
       id="linearGradient4119"
       xlink:href="#linearGradient556"
       gradientUnits="userSpaceOnUse" />
    <linearGradient
       id="linearGradient556">
      <stop
         id="stop557"
         style="stop-color:#7d7d7d;stop-opacity:1"
         offset="0" />
      <stop
         id="stop8106"
         style="stop-color:#dddddd;stop-opacity:1"
         offset="0.25" />
      <stop
         id="stop8096"
         style="stop-color:#ffffff;stop-opacity:1"
         offset="0.5" />
      <stop
         id="stop8108"
         style="stop-color:#c2c2c2;stop-opacity:1"
         offset="0.75" />
      <stop
         id="stop558"
         style="stop-color:#868686;stop-opacity:1"
         offset="1" />
    </linearGradient>
    <linearGradient
       x1="10.877795"
       y1="30.341204"
       x2="37.145557"
       y2="30.341204"
       id="linearGradient4121"
       xlink:href="#linearGradient556"
       gradientUnits="userSpaceOnUse" />
    <linearGradient
       x1="23.343441"
       y1="30.278925"
       x2="23.343441"
       y2="34.929935"
       id="linearGradient4125"
       xlink:href="#linearGradient4019"
       gradientUnits="userSpaceOnUse" />
    <linearGradient
       id="linearGradient4019">
      <stop
         id="stop4021"
         style="stop-color:#963304;stop-opacity:1"
         offset="0" />
      <stop
         id="stop4023"
         style="stop-color:#963304;stop-opacity:0"
         offset="1" />
    </linearGradient>
    <linearGradient
       x1="23.343441"
       y1="30.278925"
       x2="23.343441"
       y2="34.929935"
       id="linearGradient4123"
       xlink:href="#linearGradient4019"
       gradientUnits="userSpaceOnUse" />
    <linearGradient
       x1="41.295063"
       y1="45.366104"
       x2="36.99176"
       y2="66.958115"
       id="linearGradient4127"
       xlink:href="#linearGradient3737-6"
       gradientUnits="userSpaceOnUse" />
    <linearGradient
       id="linearGradient3737-6">
      <stop
         id="stop3739-9"
         style="stop-color:#ffffff;stop-opacity:1"
         offset="0" />
      <stop
         id="stop3741-4"
         style="stop-color:#ffffff;stop-opacity:0"
         offset="1" />
    </linearGradient>
    <linearGradient
       x1="39.522221"
       y1="54.331207"
       x2="36.99176"
       y2="66.958115"
       id="linearGradient4129"
       xlink:href="#linearGradient3997"
       gradientUnits="userSpaceOnUse" />
    <linearGradient
       id="linearGradient3997">
      <stop
         id="stop3999"
         style="stop-color:#ffffff;stop-opacity:0"
         offset="0" />
      <stop
         id="stop4001"
         style="stop-color:#ffffff;stop-opacity:0"
         offset="1" />
    </linearGradient>
    <filter
       x="-0.098802395"
       y="-0.15277778"
       width="1.1976048"
       height="1.3055555"
       color-interpolation-filters="sRGB"
       id="filter3967">
      <feGaussianBlur
         id="feGaussianBlur3969"
         stdDeviation="0.86809985" />
    </filter>
    <linearGradient
       x1="25.006351"
       y1="70.619919"
       x2="46.33567"
       y2="70.619919"
       id="linearGradient4131"
       xlink:href="#linearGradient3737-6"
       gradientUnits="userSpaceOnUse" />
    <linearGradient
       x1="41.295063"
       y1="45.366104"
       x2="36.99176"
       y2="66.958115"
       id="linearGradient4020"
       xlink:href="#linearGradient3737-6"
       gradientUnits="userSpaceOnUse" />
    <linearGradient
       x1="39.522221"
       y1="54.331207"
       x2="36.99176"
       y2="66.958115"
       id="linearGradient4022"
       xlink:href="#linearGradient3997"
       gradientUnits="userSpaceOnUse" />
    <linearGradient
       x1="48"
       y1="90"
       x2="48"
       y2="5.9877172"
       id="linearGradient4773"
       xlink:href="#linearGradient3187"
       gradientUnits="userSpaceOnUse"
       gradientTransform="translate(0,100)" />
    <clipPath
       id="clipPath4779">
      <rect
         width="84"
         height="84"
         rx="6"
         ry="6"
         x="6"
         y="6"
         id="rect4781"
         style="fill:url(#linearGradient4783);fill-opacity:1;fill-rule:nonzero;stroke:none;display:inline" />
    </clipPath>
    <linearGradient
       x1="48"
       y1="90"
       x2="48"
       y2="5.9877172"
       id="linearGradient4783"
       xlink:href="#linearGradient3187"
       gradientUnits="userSpaceOnUse" />
    <linearGradient
       x1="56.821079"
       y1="51.17448"
       x2="75.256371"
       y2="29.961277"
       id="linearGradient4825"
       xlink:href="#linearGradient4797"
       gradientUnits="userSpaceOnUse" />
    <clipPath
       id="clipPath4833">
      <rect
         width="72.901031"
         height="72.901031"
         rx="5.2072163"
         ry="5.2072163"
         x="12.963713"
         y="3.8613114"
         id="rect4835"
         style="fill:url(#linearGradient4837);fill-opacity:1;fill-rule:nonzero;stroke:none;display:inline" />
    </clipPath>
    <linearGradient
       x1="48"
       y1="90"
       x2="48"
       y2="5.9877172"
       id="linearGradient4837"
       xlink:href="#linearGradient3187"
       gradientUnits="userSpaceOnUse"
       gradientTransform="matrix(0.8678694,0,0,0.8678694,7.756496,-1.3459049)" />
    <filter
       color-interpolation-filters="sRGB"
       id="filter4839">
      <feGaussianBlur
         id="feGaussianBlur4841"
         stdDeviation="1.0679101" />
    </filter>
    <linearGradient
       x1="53.285545"
       y1="58.876896"
       x2="28.738491"
       y2="35.496246"
       id="linearGradient4849"
       xlink:href="#linearGradient4843"
       gradientUnits="userSpaceOnUse" />
    <linearGradient
       x1="45.447727"
       y1="92.539597"
       x2="45.447727"
       y2="7.0165396"
       id="ButtonShadow-0"
       gradientUnits="userSpaceOnUse"
       gradientTransform="matrix(1.0058652,0,0,0.994169,100,0)">
      <stop
         id="stop3750-8"
         style="stop-color:#000000;stop-opacity:1"
         offset="0" />
      <stop
         id="stop3752-5"
         style="stop-color:#000000;stop-opacity:0.58823532"
         offset="1" />
    </linearGradient>
    <linearGradient
       x1="32.251034"
       y1="6.1317081"
       x2="32.251034"
       y2="90.238609"
       id="linearGradient3780"
       xlink:href="#ButtonShadow-0"
       gradientUnits="userSpaceOnUse"
       gradientTransform="matrix(1.0238095,0,0,1.0119048,-1.1428571,-98.071429)" />
    <linearGradient
       x1="32.251034"
       y1="6.1317081"
       x2="32.251034"
       y2="90.238609"
       id="linearGradient3772"
       xlink:href="#ButtonShadow-0"
       gradientUnits="userSpaceOnUse"
       gradientTransform="matrix(1.0238095,0,0,1.0119048,-1.1428571,-98.071429)" />
    <linearGradient
       x1="32.251034"
       y1="6.1317081"
       x2="32.251034"
       y2="90.238609"
       id="linearGradient3725"
       xlink:href="#ButtonShadow-0"
       gradientUnits="userSpaceOnUse"
       gradientTransform="matrix(1.0238095,0,0,1.0119048,-1.1428571,-98.071429)" />
    <linearGradient
       x1="32.251034"
       y1="6.1317081"
       x2="32.251034"
       y2="90.238609"
       id="linearGradient3721"
       xlink:href="#ButtonShadow-0"
       gradientUnits="userSpaceOnUse"
       gradientTransform="translate(0,-97)" />
    <linearGradient
       x1="32.251034"
       y1="6.1317081"
       x2="32.251034"
       y2="90.238609"
       id="linearGradient2918"
       xlink:href="#ButtonShadow-0"
       gradientUnits="userSpaceOnUse"
       gradientTransform="matrix(1.0238095,0,0,1.0119048,-1.1428571,-98.071429)" />
    <filter
       x="-0.099796608"
       y="-0.25849757"
       width="1.1995932"
       height="1.5169951"
       color-interpolation-filters="sRGB"
       id="filter3830">
      <feGaussianBlur
         id="feGaussianBlur3832"
         stdDeviation="3.9428571" />
    </filter>
  </defs>
  <g
     id="layer2"
     style="display:none">
    <rect
       width="86"
       height="85"
       rx="6"
       ry="6"
       x="5"
       y="7"
       id="rect3745"
       style="opacity:0.9;fill:url(#ButtonShadow);fill-opacity:1;fill-rule:nonzero;stroke:none;filter:url(#filter3174)" />
  </g>
  <g
     id="layer4"
     style="display:inline">
    <path
       d="m 12,-95.03125 c -5.5110903,0 -10.03125,4.52016 -10.03125,10.03125 l 0,71 c 0,5.5110902 4.5201598,10.03125 10.03125,10.03125 l 72,0 c 5.51109,0 10.03125,-4.5201597 10.03125,-10.03125 l 0,-71 c 0,-5.51109 -4.52016,-10.03125 -10.03125,-10.03125 l -72,0 z"
       transform="scale(1,-1)"
       id="path3786"
       style="opacity:0.07999998;fill:url(#linearGradient2918);fill-opacity:1;fill-rule:nonzero;stroke:none;display:inline" />
    <path
       d="m 12,-94.03125 c -4.971633,0 -9.03125,4.059617 -9.03125,9.03125 l 0,71 c 0,4.9716329 4.0596171,9.03125 9.03125,9.03125 l 72,0 c 4.971633,0 9.03125,-4.059617 9.03125,-9.03125 l 0,-71 c 0,-4.971633 -4.059617,-9.03125 -9.03125,-9.03125 l -72,0 z"
       transform="scale(1,-1)"
       id="path3778"
       style="opacity:0.1;fill:url(#linearGradient3780);fill-opacity:1;fill-rule:nonzero;stroke:none;display:inline" />
    <path
       d="m 12,-93 c -4.4091333,0 -8,3.590867 -8,8 l 0,71 c 0,4.4091333 3.5908667,8 8,8 l 72,0 c 4.409133,0 8,-3.5908667 8,-8 l 0,-71 c 0,-4.409133 -3.590867,-8 -8,-8 l -72,0 z"
       transform="scale(1,-1)"
       id="path3770"
       style="opacity:0.2;fill:url(#linearGradient3772);fill-opacity:1;fill-rule:nonzero;stroke:none;display:inline" />
    <rect
       width="86"
       height="85"
       rx="7"
       ry="7"
       x="5"
       y="-92"
       transform="scale(1,-1)"
       id="rect3723"
       style="opacity:0.3;fill:url(#linearGradient3725);fill-opacity:1;fill-rule:nonzero;stroke:none;display:inline" />
    <rect
       width="84"
       height="84"
       rx="6"
       ry="6"
       x="6"
       y="-91"
       transform="scale(1,-1)"
       id="rect3716"
       style="opacity:0.45;fill:url(#linearGradient3721);fill-opacity:1;fill-rule:nonzero;stroke:none;display:inline" />
  </g>
  <g
     id="layer1"
     style="display:inline">
    <rect
       width="84"
       height="84"
       rx="6"
       ry="6"
       x="6"
       y="6"
       id="rect2419"
       style="fill:url(#linearGradient3617);fill-opacity:1;fill-rule:nonzero;stroke:none" />
    <path
       d="M 12,6 C 8.676,6 6,8.676 6,12 l 0,2 0,68 0,2 c 0,0.334721 0.04135,0.6507 0.09375,0.96875 0.0487,0.295596 0.09704,0.596915 0.1875,0.875 0.00988,0.03038 0.020892,0.0636 0.03125,0.09375 0.098865,0.287771 0.2348802,0.547452 0.375,0.8125 0.1445918,0.273507 0.3156161,0.535615 0.5,0.78125 0.1843839,0.245635 0.3737765,0.473472 0.59375,0.6875 0.439947,0.428056 0.94291,0.814526 1.5,1.09375 0.278545,0.139612 0.5734731,0.246947 0.875,0.34375 -0.2562018,-0.100222 -0.4867109,-0.236272 -0.71875,-0.375 -0.00741,-0.0044 -0.023866,0.0045 -0.03125,0 -0.031933,-0.0193 -0.062293,-0.04251 -0.09375,-0.0625 -0.120395,-0.0767 -0.2310226,-0.163513 -0.34375,-0.25 -0.1061728,-0.0808 -0.2132809,-0.161112 -0.3125,-0.25 C 8.4783201,88.557317 8.3087904,88.373362 8.15625,88.1875 8.0486711,88.057245 7.9378561,87.922215 7.84375,87.78125 7.818661,87.74287 7.805304,87.69538 7.78125,87.65625 7.716487,87.553218 7.6510225,87.451733 7.59375,87.34375 7.4927417,87.149044 7.3880752,86.928049 7.3125,86.71875 7.30454,86.69694 7.288911,86.6782 7.28125,86.65625 7.2494249,86.5643 7.2454455,86.469419 7.21875,86.375 7.1884177,86.268382 7.1483606,86.171969 7.125,86.0625 7.0521214,85.720988 7,85.364295 7,85 L 7,83 7,15 7,13 C 7,10.218152 9.2181517,8 12,8 l 2,0 68,0 2,0 c 2.781848,0 5,2.218152 5,5 l 0,2 0,68 0,2 c 0,0.364295 -0.05212,0.720988 -0.125,1.0625 -0.04415,0.206893 -0.08838,0.397658 -0.15625,0.59375 -0.0077,0.02195 -0.0233,0.04069 -0.03125,0.0625 -0.06274,0.173739 -0.138383,0.367449 -0.21875,0.53125 -0.04158,0.0828 -0.07904,0.169954 -0.125,0.25 -0.0546,0.09721 -0.126774,0.18835 -0.1875,0.28125 -0.09411,0.140965 -0.204921,0.275995 -0.3125,0.40625 -0.143174,0.17445 -0.303141,0.346998 -0.46875,0.5 -0.01117,0.0102 -0.01998,0.02115 -0.03125,0.03125 -0.138386,0.125556 -0.285091,0.234436 -0.4375,0.34375 -0.102571,0.07315 -0.204318,0.153364 -0.3125,0.21875 -0.0074,0.0045 -0.02384,-0.0044 -0.03125,0 -0.232039,0.138728 -0.462548,0.274778 -0.71875,0.375 0.301527,-0.0968 0.596455,-0.204138 0.875,-0.34375 0.55709,-0.279224 1.060053,-0.665694 1.5,-1.09375 0.219973,-0.214028 0.409366,-0.441865 0.59375,-0.6875 0.184384,-0.245635 0.355408,-0.507743 0.5,-0.78125 0.14012,-0.265048 0.276135,-0.524729 0.375,-0.8125 0.01041,-0.03078 0.02133,-0.06274 0.03125,-0.09375 0.09046,-0.278085 0.1388,-0.579404 0.1875,-0.875 C 89.95865,84.6507 90,84.334721 90,84 l 0,-2 0,-68 0,-2 C 90,8.676 87.324,6 84,6 L 12,6 z"
       id="rect3728"
       style="opacity:0.3;fill:url(#linearGradient3188);fill-opacity:1;fill-rule:nonzero;stroke:none" />
    <path
       d="M 12,90 C 8.676,90 6,87.324 6,84 L 6,82 6,14 6,12 c 0,-0.334721 0.04135,-0.6507 0.09375,-0.96875 0.0487,-0.295596 0.09704,-0.596915 0.1875,-0.875 C 6.29113,10.12587 6.302142,10.09265 6.3125,10.0625 6.411365,9.774729 6.5473802,9.515048 6.6875,9.25 6.8320918,8.976493 7.0031161,8.714385 7.1875,8.46875 7.3718839,8.223115 7.5612765,7.995278 7.78125,7.78125 8.221197,7.353194 8.72416,6.966724 9.28125,6.6875 9.559795,6.547888 9.8547231,6.440553 10.15625,6.34375 9.9000482,6.443972 9.6695391,6.580022 9.4375,6.71875 c -0.00741,0.0044 -0.023866,-0.0045 -0.03125,0 -0.031933,0.0193 -0.062293,0.04251 -0.09375,0.0625 -0.120395,0.0767 -0.2310226,0.163513 -0.34375,0.25 -0.1061728,0.0808 -0.2132809,0.161112 -0.3125,0.25 C 8.4783201,7.442683 8.3087904,7.626638 8.15625,7.8125 8.0486711,7.942755 7.9378561,8.077785 7.84375,8.21875 7.818661,8.25713 7.805304,8.30462 7.78125,8.34375 7.716487,8.446782 7.6510225,8.548267 7.59375,8.65625 7.4927417,8.850956 7.3880752,9.071951 7.3125,9.28125 7.30454,9.30306 7.288911,9.3218 7.28125,9.34375 7.2494249,9.4357 7.2454455,9.530581 7.21875,9.625 7.1884177,9.731618 7.1483606,9.828031 7.125,9.9375 7.0521214,10.279012 7,10.635705 7,11 l 0,2 0,68 0,2 c 0,2.781848 2.2181517,5 5,5 l 2,0 68,0 2,0 c 2.781848,0 5,-2.218152 5,-5 l 0,-2 0,-68 0,-2 C 89,10.635705 88.94788,10.279012 88.875,9.9375 88.83085,9.730607 88.78662,9.539842 88.71875,9.34375 88.71105,9.3218 88.69545,9.30306 88.6875,9.28125 88.62476,9.107511 88.549117,8.913801 88.46875,8.75 88.42717,8.6672 88.38971,8.580046 88.34375,8.5 88.28915,8.40279 88.216976,8.31165 88.15625,8.21875 88.06214,8.077785 87.951329,7.942755 87.84375,7.8125 87.700576,7.63805 87.540609,7.465502 87.375,7.3125 87.36383,7.3023 87.35502,7.29135 87.34375,7.28125 87.205364,7.155694 87.058659,7.046814 86.90625,6.9375 86.803679,6.86435 86.701932,6.784136 86.59375,6.71875 c -0.0074,-0.0045 -0.02384,0.0044 -0.03125,0 -0.232039,-0.138728 -0.462548,-0.274778 -0.71875,-0.375 0.301527,0.0968 0.596455,0.204138 0.875,0.34375 0.55709,0.279224 1.060053,0.665694 1.5,1.09375 0.219973,0.214028 0.409366,0.441865 0.59375,0.6875 0.184384,0.245635 0.355408,0.507743 0.5,0.78125 0.14012,0.265048 0.276135,0.524729 0.375,0.8125 0.01041,0.03078 0.02133,0.06274 0.03125,0.09375 0.09046,0.278085 0.1388,0.579404 0.1875,0.875 C 89.95865,11.3493 90,11.665279 90,12 l 0,2 0,68 0,2 c 0,3.324 -2.676,6 -6,6 l -72,0 z"
       id="path3615"
       style="opacity:0.2;fill:url(#radialGradient3619);fill-opacity:1;fill-rule:nonzero;stroke:none" />
  </g>
  <g
     id="layer5"
     style="display:inline">
    <rect
       width="66"
       height="66"
       rx="12"
       ry="12"
       x="15"
       y="15"
       clip-path="url(#clipPath3613)"
       id="rect3171"
       style="opacity:0.1;fill:url(#linearGradient3613);fill-opacity:1;fill-rule:nonzero;stroke:#ffffff;stroke-width:0.5;stroke-linecap:round;stroke-linejoin:miter;stroke-miterlimit:4;stroke-opacity:1;stroke-dasharray:none;stroke-dashoffset:0;filter:url(#filter3794)" />
  </g>
  <g
     id="layer3"
     style="display:inline">
    <path
       d="m 47.59375,41.46875 a 1.0176755,1.0176755 0 0 0 -0.25,0.0625 c -1.582875,0.736948 -2.86018,1.82938 -4.125,2.59375 a 1.0176755,1.0176755 0 0 0 -0.03125,0.03125 c -6.11878,4.048781 -12.27404,8.099493 -18.375,12.15625 a 1.0176755,1.0176755 0 0 0 -0.15625,0.125 c -0.675075,0.694559 -0.788502,1.602448 -0.78125,2.28125 0.0073,0.678802 0.07507,1.262034 0.03125,1.59375 A 1.0176755,1.0176755 0 0 0 23.875,60.40625 c -0.0174,0.441617 -0.06337,1.011294 0.0625,1.65625 0.11784,0.603821 0.489022,1.321779 1.15625,1.75 0.04546,0.02917 0.07665,0.06734 0.125,0.09375 7.146414,5.557366 14.276195,11.142422 21.4375,16.6875 a 1.0176755,1.0176755 0 0 0 0.15625,0.09375 c 0.979123,0.521026 2.061632,0.211962 2.71875,-0.21875 C 50.188368,80.038038 50.690093,79.512403 51,79.3125 a 1.0176755,1.0176755 0 0 0 0.0625,-0.03125 C 57.812248,74.000767 64.61344,68.760541 71.34375,63.4375 a 1.0176755,1.0176755 0 0 0 0.1875,-0.1875 c 0.556669,-0.731985 0.607633,-1.591525 0.59375,-2.25 -0.01388,-0.658475 -0.07574,-1.205137 -0.03125,-1.5625 a 1.0176755,1.0176755 0 0 0 0,-0.0625 c 0.02848,-0.453694 0.08777,-1.039017 -0.0625,-1.6875 -0.138004,-0.595533 -0.586768,-1.259309 -1.28125,-1.625 l 0.03125,-0.03125 C 63.525338,51.262526 56.28301,46.426026 49,41.6875 a 1.0176755,1.0176755 0 0 0 -0.375,-0.15625 c -0.225202,-0.04391 -0.546811,-0.09375 -0.9375,-0.0625 a 1.0176755,1.0176755 0 0 0 -0.09375,0 z"
       id="path4979"
       style="opacity:0.07999998;fill:#000000;fill-opacity:1;stroke:none" />
    <path
       d="m 47.78125,41.46875 c 0.0061,-7.51e-4 -0.06853,0.0323 -0.0625,0.03125 a 0.90368008,0.90368008 0 0 0 -0.15625,0.03125 c 0.0098,-0.0038 -0.13441,0.0671 -0.125,0.0625 0.0094,-0.0046 -0.133983,0.03664 -0.125,0.03125 0.009,-0.0054 -0.10224,0.09989 -0.09375,0.09375 0.0085,-0.0061 -0.101686,0.06934 -0.09375,0.0625 L 25.59375,56 25.5625,56 c -0.02257,0.01528 -0.06677,0.03432 -0.0625,0.03125 0.0061,-0.0044 -0.06831,0.06724 -0.0625,0.0625 0.0058,-0.0047 -0.06801,0.06759 -0.0625,0.0625 0.0055,-0.0051 -0.06769,0.06792 -0.0625,0.0625 0.0052,-0.0054 -0.06735,0.06823 -0.0625,0.0625 0.0048,-0.0057 -0.06699,0.06851 -0.0625,0.0625 0.0045,-0.006 -0.03536,0.06878 -0.03125,0.0625 0.0041,-0.0063 -0.06622,0.100265 -0.0625,0.09375 0.0037,-0.0065 -0.03457,0.06923 -0.03125,0.0625 0.0033,-0.0067 -0.03415,0.10067 -0.03125,0.09375 0.0029,-0.0069 -0.03372,0.06958 -0.03125,0.0625 0.0025,-0.0071 -0.03328,0.100973 -0.03125,0.09375 0.002,-0.0072 -0.03284,0.101083 -0.03125,0.09375 0.0016,-0.0073 -0.0011,0.101167 0,0.09375 0.0011,-0.0074 -0.03193,0.06997 -0.03125,0.0625 6.8e-4,-0.0075 -2.22e-4,0.10125 0,0.09375 a 0.90368008,0.90368008 0 0 0 0,0.03125 l 0,3.375 0,0.0625 c -3.7e-4,0.01305 5e-6,0.0336 0,0.03125 -1.5e-5,-0.0071 4.21e-4,0.100792 0,0.09375 -4.21e-4,-0.007 8.25e-4,0.06951 0,0.0625 -8.25e-4,-0.007 0.03248,0.100697 0.03125,0.09375 -0.0012,-0.0069 0.0016,0.100615 0,0.09375 -0.0016,-0.0069 0.03327,0.06926 0.03125,0.0625 -0.002,-0.0068 0.03365,0.100383 0.03125,0.09375 -0.0024,-0.0066 0.03403,0.06898 0.03125,0.0625 -0.0028,-0.0065 0.0344,0.06881 0.03125,0.0625 -0.0031,-0.0063 0.03476,0.09987 0.03125,0.09375 -0.0035,-0.0061 0.06635,0.06841 0.0625,0.0625 -0.0039,-0.0059 0.03543,0.06818 0.03125,0.0625 -0.0042,-0.0057 0.067,0.06793 0.0625,0.0625 -0.0045,-0.0054 0.03606,0.06766 0.03125,0.0625 -0.0048,-0.0052 0.0676,0.06738 0.0625,0.0625 -0.0051,-0.0049 0.06787,0.06708 0.0625,0.0625 a 0.90368008,0.90368008 0 0 0 0.03125,0.03125 L 47.0625,78.625 c -0.0023,-0.0019 0.01948,0.02232 0.03125,0.03125 0.03026,0.02296 0.100052,0.0669 0.09375,0.0625 -0.0088,-0.0061 0.103002,0.06783 0.09375,0.0625 -0.0093,-0.0053 0.13468,0.067 0.125,0.0625 -0.0097,-0.0045 0.103785,0.03489 0.09375,0.03125 -0.01004,-0.0036 0.135314,0.03401 0.125,0.03125 -0.01031,-0.0028 0.135514,0.0331 0.125,0.03125 -0.01051,-0.0019 0.135635,0.03218 0.125,0.03125 -0.01064,-9.28e-4 0.135676,0 0.125,0 -0.01068,0 0.135635,-9.28e-4 0.125,0 -0.01064,9.28e-4 0.135514,-0.0331 0.125,-0.03125 -0.01051,0.0019 0.135314,-0.03401 0.125,-0.03125 -0.01031,0.0028 0.135035,-0.03489 0.125,-0.03125 -0.01004,0.0036 0.10343,-0.03575 0.09375,-0.03125 -0.0097,0.0045 0.134252,-0.06783 0.125,-0.0625 -0.0093,0.0053 0.102503,-0.06861 0.09375,-0.0625 -0.0063,0.0044 0.06349,-0.03954 0.09375,-0.0625 0.01177,-0.0089 0.03354,-0.03317 0.03125,-0.03125 L 70.5625,61.78125 A 0.90368008,0.90368008 0 0 0 70.59375,61.75 c -0.0054,0.0046 0.0676,-0.06738 0.0625,-0.0625 -0.0051,0.0049 0.06731,-0.06766 0.0625,-0.0625 -0.0048,0.0052 0.03575,-0.06793 0.03125,-0.0625 -0.0045,0.0054 0.06669,-0.06818 0.0625,-0.0625 -0.0042,0.0057 0.0351,-0.06841 0.03125,-0.0625 -0.0039,0.0059 0.06601,-0.06862 0.0625,-0.0625 -0.0035,0.0061 0.0344,-0.100063 0.03125,-0.09375 -0.0031,0.0063 0.03403,-0.06898 0.03125,-0.0625 -0.0028,0.0065 0.03365,-0.06913 0.03125,-0.0625 -0.0024,0.0066 0.03327,-0.10051 0.03125,-0.09375 -0.002,0.0068 0.03287,-0.06936 0.03125,-0.0625 -0.0016,0.0069 0.0012,-0.100697 0,-0.09375 -0.0012,0.0069 0.03208,-0.100756 0.03125,-0.09375 -8.25e-4,0.007 4.21e-4,-0.06954 0,-0.0625 -4.21e-4,0.007 1.5e-5,-0.100804 0,-0.09375 -5e-6,0.0024 3.7e-4,-0.0182 0,-0.03125 -7.4e-4,-0.02609 -2.6e-4,-0.0672 0,-0.0625 l 0,-3.375 a 0.90368008,0.90368008 0 0 0 0,-0.03125 c 2.22e-4,0.0075 -6.8e-4,-0.101222 0,-0.09375 6.8e-4,0.0075 -0.03239,-0.06992 -0.03125,-0.0625 0.0011,0.0074 -0.0016,-0.101083 0,-0.09375 0.0016,0.0073 -0.03328,-0.100973 -0.03125,-0.09375 0.002,0.0072 -0.03372,-0.100835 -0.03125,-0.09375 0.0025,0.0071 -0.03415,-0.06942 -0.03125,-0.0625 0.0029,0.0069 -0.03457,-0.10048 -0.03125,-0.09375 0.0033,0.0067 -0.03497,-0.06902 -0.03125,-0.0625 0.0037,0.0065 -0.06661,-0.100025 -0.0625,-0.09375 0.0041,0.0063 -0.03574,-0.06851 -0.03125,-0.0625 0.0045,0.006 -0.06735,-0.06823 -0.0625,-0.0625 0.0048,0.0057 -0.06769,-0.06792 -0.0625,-0.0625 0.0052,0.0054 -0.06801,-0.06759 -0.0625,-0.0625 0.0055,0.0051 -0.06831,-0.06724 -0.0625,-0.0625 0.0058,0.0047 -0.06859,-0.06688 -0.0625,-0.0625 0.0043,0.0031 -0.03993,-0.01597 -0.0625,-0.03125 L 70.40625,56 48.8125,41.75 c 0.0025,0.0018 -0.01517,-0.02021 -0.03125,-0.03125 -0.01608,-0.01104 -0.03382,-0.03292 -0.03125,-0.03125 0.0051,0.0033 -0.06779,-0.03433 -0.0625,-0.03125 0.0053,0.0031 -0.06794,-0.03406 -0.0625,-0.03125 0.0054,0.0028 -0.06808,-0.03378 -0.0625,-0.03125 0.0056,0.0025 -0.0682,-0.0335 -0.0625,-0.03125 0.0057,0.0023 -0.0683,-0.03322 -0.0625,-0.03125 0.0058,0.002 -0.06839,-0.0017 -0.0625,0 0.0059,0.0017 -0.09972,-0.03263 -0.09375,-0.03125 0.006,0.0014 -0.06853,-0.0011 -0.0625,0 0.006,0.0011 -0.06858,-0.03202 -0.0625,-0.03125 0.0061,7.75e-4 -0.09986,-4.71e-4 -0.09375,0 0.0061,4.71e-4 -0.06862,-1.65e-4 -0.0625,0 0.0061,1.65e-4 -0.06862,1.41e-4 -0.0625,0 0.0061,-1.41e-4 -0.06861,4.46e-4 -0.0625,0 0.0061,-4.46e-4 -0.09983,7.51e-4 -0.09375,0 z"
       transform="translate(0,1)"
       id="path4972"
       style="opacity:0.2;fill:#000000;fill-opacity:1;stroke:none" />
    <path
       d="m 47.875,42.375 a 0.53576784,0.53576784 0 0 0 -0.15625,0.09375 L 26.0625,56.75 a 0.53576784,0.53576784 0 0 0 -0.25,0.4375 l 0,3.4375 A 0.53576784,0.53576784 0 0 0 26,61.0625 l 21.65625,16.875 a 0.53576784,0.53576784 0 0 0 0.6875,0 L 70,61.0625 a 0.53576784,0.53576784 0 0 0 0.1875,-0.4375 l 0,-3.4375 A 0.53576784,0.53576784 0 0 0 69.9375,56.75 L 48.28125,42.46875 A 0.53576784,0.53576784 0 0 0 47.875,42.375 z"
       transform="translate(0,1)"
       id="path4968"
       style="opacity:0.4;fill:#000000;fill-opacity:1;stroke:none" />
    <g
       transform="matrix(1.1522471,0,0,1.1522471,-9.9374,-8.449185)"
       clip-path="url(#clipPath4833)"
       id="g4813"
       style="opacity:0.6;filter:url(#filter4839)">
      <path
         d="M 65.154839,58.876894 84.347737,26.046936 79.549513,22.258864 45.961941,50.038059 65.154839,58.876894 z"
         id="path4793"
         style="opacity:0.5;fill:url(#linearGradient4825);fill-opacity:1;stroke:none" />
      <path
         d="M 38.195957,58.876894 23.106368,33.065755 26.878765,30.087546 53.285546,51.927741 38.195957,58.876894 z"
         id="path4795"
         style="opacity:0.35;fill:url(#linearGradient4849);fill-opacity:1;stroke:none" />
    </g>
    <g
       clip-path="url(#clipPath4779)"
       id="g4761"
       style="opacity:0.15;filter:url(#filter3830)">
      <g
         transform="translate(0.71428571,-0.71428571)"
         id="g4747">
        <path
           d="m 26.25,60.642857 -3.571429,1.428572 2.857143,2.321428 L 0.17857143,91 l 6.42857147,5.892857 35.5357141,-20 5.178572,3.75 0.535714,-3.571428 L 26.25,60.642857 z"
           id="path4227"
           style="fill:#ff6600;stroke:none" />
        <path
           d="M 20.65625,69.5 14.875,75.59375 26.0625,85.96875 34.375,81.28125 20.65625,69.5 z m -11.8125,12.4375 -5.28125,5.5 7.15625,7.15625 7.125,-4.03125 -9,-8.625 z"
           id="path4739"
           style="fill:#ffffff;fill-opacity:1;stroke:none" />
      </g>
      <g
         transform="matrix(-1,0,0,1,95.892857,-0.35714286)"
         id="g4755">
        <path
           d="m 26.25,60.642857 -3.571429,1.428572 2.857143,2.321428 L 0.17857143,91 l 6.42857147,5.892857 35.5357141,-20 5.178572,3.75 0.535714,-3.571428 L 26.25,60.642857 z"
           id="path4757"
           style="fill:#ff6600;stroke:none" />
        <path
           d="M 20.65625,69.5 14.875,75.59375 26.0625,85.96875 34.375,81.28125 20.65625,69.5 z m -11.8125,12.4375 -5.28125,5.5 7.15625,7.15625 7.125,-4.03125 -9,-8.625 z"
           id="path4759"
           style="fill:#ffffff;fill-opacity:1;stroke:none" />
      </g>
    </g>
    <g
       transform="matrix(0.86189928,0,0,0.86189928,6.6961701,2.5700492)"
       id="g4059">
      <g
         transform="translate(0,-1)"
         id="g3902">
        <path
           d="m 47.90625,47.78125 -25.125,16.59375 0,4 25.125,19.5625 25.15625,-19.5625 0,-4 -25.15625,-16.59375 z"
           id="rect3879"
           style="fill:url(#linearGradient4109);fill-opacity:1;stroke:#963304;stroke-width:1.16022849;stroke-opacity:1" />
        <path
           d="m 47.84375,47.84375 0,35.015625 0,5.015625 0.04687,0.03125 0.04687,0.03125 25.125,-19.5625 0,-4 -25.21875,-16.53125 z"
           id="path3893"
           style="fill:url(#linearGradient4111);fill-opacity:1;stroke:none" />
        <path
           d="m 47.90625,47.78125 -25.125,16.59375 0,4 25.125,19.5625 25.15625,-19.5625 0,-4 -25.15625,-16.59375 z"
           id="path3900"
           style="fill:none;stroke:#963304;stroke-width:1.16022849;stroke-opacity:1" />
      </g>
      <path
         d="m 32.168102,63.334875 c 0,0 2.526595,6.892641 15.759838,6.597142 C 58.841682,69.682526 64.604048,66.266939 64.420794,64.434399 64.237541,62.60186 52.390826,20.162855 52.390826,20.162855 c 0,0 -1.89733,-1.358683 -3.913124,-1.358683 -2.015793,0 -3.481824,1.282777 -3.481824,1.282777 L 32.168102,63.334875 z"
         id="path3247"
         style="fill:url(#linearGradient4113);fill-opacity:1;fill-rule:evenodd;stroke:#ea7b11;stroke-width:0;stroke-linecap:butt;stroke-linejoin:miter;stroke-miterlimit:4;stroke-opacity:1;stroke-dasharray:none" />
      <path
         d="m 64.649761,65.94796 a 16.414978,5.5558391 0 1 1 -32.829956,0 16.414978,5.5558391 0 1 1 32.829956,0 z"
         transform="matrix(1,0,0,1.1704545,0,-12.314416)"
         id="path3940"
         style="fill:#f29d1a;fill-opacity:1;stroke:none;filter:url(#filter3950)" />
      <path
         d="M 20.750477,2.8889544 11.482244,35.501928 c 0,0 -2.1645053,0.415327 -0.03562,1.760035 2.139608,1.351483 3.973068,2.762709 5.436693,2.494085 C 18.06366,39.539415 22.158725,4.0652772 22.158725,4.0652772 L 20.750477,2.8889544 z"
         transform="matrix(1.2762545,0,0,1.2762545,18.790566,17.46799)"
         id="path11904"
         style="opacity:0.8;fill:url(#linearGradient4115);fill-opacity:1;fill-rule:evenodd;stroke:#000000;stroke-width:0;stroke-linecap:butt;stroke-linejoin:miter;stroke-miterlimit:4;stroke-opacity:1;stroke-dasharray:none;display:inline" />
      <path
         d="M 28.384958,3.4365335 19.116725,36.049507 c 0,0 -1.177641,1.006858 0.95124,2.351566 2.139608,1.351483 4.567689,0.153478 6.031314,-0.115146 1.180347,-0.216633 4.154572,-34.0203713 4.154572,-34.0203713 L 28.384958,3.4365335 z"
         transform="matrix(1.1831385,-0.47854873,0.47854873,1.1831385,14.367573,30.921863)"
         id="path2245"
         style="opacity:0.8;fill:url(#linearGradient4117);fill-opacity:1;fill-rule:evenodd;stroke:#000000;stroke-width:0;stroke-linecap:butt;stroke-linejoin:miter;stroke-miterlimit:4;stroke-opacity:1;stroke-dasharray:none;display:inline" />
      <g
         transform="matrix(1.2762545,0,0,1.2762545,18.790566,17.46799)"
         id="g3464"
         style="display:inline">
        <path
           d="m 18.759169,7.8637439 c 0,0 1.161301,1.6123342 4.501971,1.6620774 2.838531,0.042918 4.747092,-1.315427 4.747092,-1.315427 l 2.330742,8.1829807 c 0,0 -4.204096,2.120424 -7.22142,2.027643 -4.053129,-0.124632 -6.748602,-2.297396 -6.748602,-2.297396 l 2.390217,-8.2598781 z"
           id="path3250"
           style="fill:url(#linearGradient4119);fill-opacity:1;fill-rule:evenodd;stroke:#ffffff;stroke-width:0;stroke-linecap:butt;stroke-linejoin:miter;stroke-miterlimit:4;stroke-opacity:1;stroke-dasharray:none" />
        <path
           d="m 13.724904,24.867345 c 0,0 4.221471,2.809079 9.823411,2.906586 4.022366,0.07185 9.138823,-2.552718 9.138823,-2.552718 l 2.060987,7.483957 c 0,0 -3.675488,4.003161 -11.427509,3.971174 -7.080385,-0.02977 -11.833632,-4.689109 -11.833632,-4.689109 l 2.23792,-7.11989 z"
           id="path3252"
           style="fill:url(#linearGradient4121);fill-opacity:1;fill-rule:evenodd;stroke:#ffffff;stroke-width:0;stroke-linecap:butt;stroke-linejoin:miter;stroke-miterlimit:4;stroke-opacity:1;stroke-dasharray:none" />
      </g>
      <g
         transform="matrix(1.2762545,0,0,1.2762545,18.790566,17.46799)"
         id="layer8"
         style="stroke:url(#linearGradient4125);stroke-width:1.16022849;display:inline">
        <path
           d="M 10.571706,35.814252 20.389395,2.1956544 c 0,0 1.292616,-1.32736686 3.158921,-1.29228559 1.945589,0.0358968 2.871745,1.29228559 2.871745,1.29228559 l 8.998223,34.1103286"
           id="path3222"
           style="fill:none;stroke:url(#linearGradient4123);stroke-width:1.12739849;stroke-linecap:square;stroke-linejoin:miter;stroke-miterlimit:4;stroke-opacity:1;stroke-dasharray:none" />
      </g>
      <path
         d="m 51.37996,20.773509 c 0,0.626194 -1.174804,1.133825 -2.623996,1.133825 -1.449194,0 -2.623997,-0.507631 -2.623997,-1.133825 0,-0.626195 1.174803,-1.133826 2.623997,-1.133826 1.449192,0 2.623996,0.507631 2.623996,1.133826 l 0,0 z"
         id="path8110"
         style="opacity:0.91135733;fill:#643108;fill-opacity:1;fill-rule:nonzero;stroke:#805400;stroke-width:0;stroke-miterlimit:4;stroke-opacity:1;stroke-dasharray:none" />
      <path
         d="m 46.845824,21.880057 -11.364216,44.446712 3.282996,1.515229 8.08122,-45.961941 z"
         id="path3936"
         style="opacity:0.4;fill:url(#linearGradient4127);fill-opacity:1;stroke:url(#linearGradient4129);stroke-width:1.16022849px;stroke-linecap:butt;stroke-linejoin:miter;stroke-opacity:1" />
      <path
         d="m 49.371205,22.385134 2.65165,46.593286 -2.399112,0.126269 -0.252538,-46.719555 z"
         id="path3938"
         style="opacity:0.2;fill:#ffffff;stroke:none" />
      <path
         d="m 37.333282,66.753015 c 0,0 3.553808,3.345659 10.604218,3.184485 10.913742,-0.249491 16.652004,-3.66746 16.46875,-5.5 -0.01083,-0.108314 -0.162531,-0.781367 -0.25,-1.15625 -7.794958,6.514246 -18.362941,7.259837 -26.822968,3.471765 z"
         id="path3958"
         style="opacity:0.4;fill:#882e00;fill-opacity:1;fill-rule:evenodd;stroke:#ea7b11;stroke-width:0;stroke-linecap:butt;stroke-linejoin:miter;stroke-miterlimit:4;stroke-opacity:1;stroke-dasharray:none" />
      <path
         d="m 63.63961,65.190347 -3.282995,5.42957 -11.111678,8.20749 c 0.126269,-7.449875 -6.692261,-9.975257 -6.692261,-9.975257 0,0 6.313453,1.262691 10.101525,0.505077 3.368187,-0.673637 10.985409,-4.16688 10.985409,-4.16688 z"
         id="path3965"
         style="opacity:0.6;fill:#cb5a0b;fill-opacity:0.74901961;stroke:none;filter:url(#filter3967)" />
      <path
         d="m 25.506352,63.043773 20.32932,15.152288"
         id="path3971"
         style="opacity:0.4;fill:none;stroke:url(#linearGradient4131);stroke-width:1.16022849px;stroke-linecap:butt;stroke-linejoin:miter;stroke-opacity:1" />
      <path
         d="m 45.583133,33.875618 -8.965103,32.703689 7.323606,2.525382 1.641497,-35.229071 z"
         id="path4047"
         style="opacity:0.2;fill:url(#linearGradient4020);fill-opacity:1;stroke:url(#linearGradient4022);stroke-width:1.16022849px;stroke-linecap:butt;stroke-linejoin:miter;stroke-opacity:1" />
    </g>
    <rect
       width="84"
       height="84"
       rx="6"
       ry="6"
       x="6"
       y="106"
       id="rect4769"
       style="fill:url(#linearGradient4773);fill-opacity:1;fill-rule:nonzero;stroke:none;display:inline" />
  </g>
</svg>
