<?xml version="1.0" encoding="UTF-8" standalone="no"?>
<!-- Created with Inkscape (http://www.inkscape.org/) -->

<svg
   xmlns:svg="http://www.w3.org/2000/svg"
   xmlns="http://www.w3.org/2000/svg"
   xmlns:xlink="http://www.w3.org/1999/xlink"
   version="1.0"
   width="96"
   height="96"
   id="svg2408">
  <defs
     id="defs2410">
    <linearGradient
       id="linearGradient3424">
      <stop
         id="stop3426"
         style="stop-color:#ffffff;stop-opacity:1"
         offset="0" />
      <stop
         id="stop3432"
         style="stop-color:#ffffff;stop-opacity:1"
         offset="0.67213112" />
      <stop
         id="stop3428"
         style="stop-color:#ffffff;stop-opacity:0"
         offset="1" />
    </linearGradient>
    <linearGradient
       id="linearGradient5226">
      <stop
         id="stop5228"
         style="stop-color:#115da6;stop-opacity:1"
         offset="0" />
      <stop
         id="stop5230"
         style="stop-color:#3989d4;stop-opacity:1"
         offset="1" />
    </linearGradient>
    <radialGradient
       cx="63.98003"
       cy="61.948856"
       r="58.01997"
       fx="63.98003"
       fy="61.948856"
       id="radialGradient5232"
       xlink:href="#linearGradient5226"
       gradientUnits="userSpaceOnUse"
       gradientTransform="matrix(1.090012,0,0,0.8408658,-21.739001,-5.5082501)" />
    <linearGradient
       x1="45.447727"
       y1="92.539597"
       x2="45.447727"
       y2="7.0165396"
       id="ButtonShadow"
       gradientUnits="userSpaceOnUse"
       gradientTransform="scale(1.0058652,0.994169)">
      <stop
         id="stop3750"
         style="stop-color:#000000;stop-opacity:1"
         offset="0" />
      <stop
         id="stop3752"
         style="stop-color:#000000;stop-opacity:0.58823532"
         offset="1" />
    </linearGradient>
    <linearGradient
       id="linearGradient3737">
      <stop
         id="stop3739"
         style="stop-color:#ffffff;stop-opacity:1"
         offset="0" />
      <stop
         id="stop3741"
         style="stop-color:#ffffff;stop-opacity:0"
         offset="1" />
    </linearGradient>
    <linearGradient
       id="linearGradient3700">
      <stop
         id="stop3702"
         style="stop-color:#2276c5;stop-opacity:1"
         offset="0" />
      <stop
         id="stop3704"
         style="stop-color:#69a9e6;stop-opacity:1"
         offset="1" />
    </linearGradient>
    <linearGradient
       x1="48"
       y1="90"
       x2="48"
       y2="5.9877172"
       id="linearGradient3706"
       xlink:href="#linearGradient3700"
       gradientUnits="userSpaceOnUse" />
    <filter
       color-interpolation-filters="sRGB"
       id="filter3174">
      <feGaussianBlur
         id="feGaussianBlur3176"
         stdDeviation="1.71" />
    </filter>
    <linearGradient
       x1="36.357143"
       y1="6"
       x2="36.357143"
       y2="63.893143"
       id="linearGradient3188"
       xlink:href="#linearGradient3737"
       gradientUnits="userSpaceOnUse" />
    <radialGradient
       cx="48"
       cy="46.582424"
       r="42"
       fx="48"
       fy="46.582424"
       id="radialGradient3430"
       xlink:href="#linearGradient3424"
       gradientUnits="userSpaceOnUse"
       gradientTransform="matrix(1,0,0,0.9665987,0,1.555912)" />
    <filter
       color-interpolation-filters="sRGB"
       id="filter3434">
      <feGaussianBlur
         id="feGaussianBlur3436"
         stdDeviation="2.4779144" />
    </filter>
    <linearGradient
       id="linearGradient3737-1">
      <stop
         id="stop3739-7"
         style="stop-color:#ffffff;stop-opacity:1"
         offset="0" />
      <stop
         id="stop3741-2"
         style="stop-color:#ffffff;stop-opacity:0"
         offset="1" />
    </linearGradient>
    <radialGradient
       cx="48"
       cy="90.171875"
       r="42"
       fx="48"
       fy="90.171875"
       id="radialGradient2855"
       xlink:href="#linearGradient3737-1"
       gradientUnits="userSpaceOnUse"
       gradientTransform="matrix(1.1573129,0,0,0.99590774,-7.551021,0.1971319)" />
    <linearGradient
       id="linearGradient3737-6">
      <stop
         id="stop3739-73"
         style="stop-color:#ffffff;stop-opacity:1"
         offset="0" />
      <stop
         id="stop3741-6"
         style="stop-color:#ffffff;stop-opacity:0"
         offset="1" />
    </linearGradient>
    <clipPath
       id="clipPath3613">
      <rect
         width="84"
         height="84"
         rx="6"
         ry="6"
         x="6"
         y="6"
         id="rect3615"
         style="fill:#ffffff;fill-opacity:1;fill-rule:nonzero;stroke:none" />
    </clipPath>
    <filter
       x="-0.192"
       y="-0.192"
       width="1.3839999"
       height="1.3839999"
       color-interpolation-filters="sRGB"
       id="filter3794">
      <feGaussianBlur
         id="feGaussianBlur3796"
         stdDeviation="5.28" />
    </filter>
    <linearGradient
       x1="48"
       y1="20.220806"
       x2="48"
       y2="138.66119"
       id="linearGradient2885"
       xlink:href="#linearGradient3737-6"
       gradientUnits="userSpaceOnUse" />
    <linearGradient
       x1="45.447727"
       y1="92.539597"
       x2="45.447727"
       y2="7.0165396"
       id="ButtonShadow-0"
       gradientUnits="userSpaceOnUse"
       gradientTransform="matrix(1.0058652,0,0,0.994169,100,0)">
      <stop
         id="stop3750-8"
         style="stop-color:#000000;stop-opacity:1"
         offset="0" />
      <stop
         id="stop3752-5"
         style="stop-color:#000000;stop-opacity:0.58823532"
         offset="1" />
    </linearGradient>
    <linearGradient
       x1="32.251034"
       y1="6.1317081"
       x2="32.251034"
       y2="90.238609"
       id="linearGradient3780"
       xlink:href="#ButtonShadow-0"
       gradientUnits="userSpaceOnUse"
       gradientTransform="matrix(1.0238095,0,0,1.0119048,-1.1428571,-98.071429)" />
    <linearGradient
       x1="32.251034"
       y1="6.1317081"
       x2="32.251034"
       y2="90.238609"
       id="linearGradient3772"
       xlink:href="#ButtonShadow-0"
       gradientUnits="userSpaceOnUse"
       gradientTransform="matrix(1.0238095,0,0,1.0119048,-1.1428571,-98.071429)" />
    <linearGradient
       x1="32.251034"
       y1="6.1317081"
       x2="32.251034"
       y2="90.238609"
       id="linearGradient3725"
       xlink:href="#ButtonShadow-0"
       gradientUnits="userSpaceOnUse"
       gradientTransform="matrix(1.0238095,0,0,1.0119048,-1.1428571,-98.071429)" />
    <linearGradient
       x1="32.251034"
       y1="6.1317081"
       x2="32.251034"
       y2="90.238609"
       id="linearGradient3721"
       xlink:href="#ButtonShadow-0"
       gradientUnits="userSpaceOnUse"
       gradientTransform="translate(0,-97)" />
    <linearGradient
       x1="32.251034"
       y1="6.1317081"
       x2="32.251034"
       y2="90.238609"
       id="linearGradient3059"
       xlink:href="#ButtonShadow-0"
       gradientUnits="userSpaceOnUse"
       gradientTransform="matrix(1.0238095,0,0,1.0119048,-1.1428571,-98.071429)" />
  </defs>
  <g
     id="layer2"
     style="display:none">
    <rect
       width="86"
       height="85"
       rx="6"
       ry="6"
       x="5"
       y="7"
       id="rect3745"
       style="opacity:0.9;fill:url(#ButtonShadow);fill-opacity:1;fill-rule:nonzero;stroke:none;filter:url(#filter3174)" />
  </g>
  <g
     id="layer5"
     style="display:inline">
    <path
       d="m 12,-95.03125 c -5.5110903,0 -10.03125,4.52016 -10.03125,10.03125 l 0,71 c 0,5.5110902 4.5201598,10.03125 10.03125,10.03125 l 72,0 c 5.51109,0 10.03125,-4.5201597 10.03125,-10.03125 l 0,-71 c 0,-5.51109 -4.52016,-10.03125 -10.03125,-10.03125 l -72,0 z"
       transform="scale(1,-1)"
       id="path3786"
       style="opacity:0.07999998;fill:url(#linearGradient3059);fill-opacity:1;fill-rule:nonzero;stroke:none;display:inline" />
    <path
       d="m 12,-94.03125 c -4.971633,0 -9.03125,4.059617 -9.03125,9.03125 l 0,71 c 0,4.9716329 4.0596171,9.03125 9.03125,9.03125 l 72,0 c 4.971633,0 9.03125,-4.059617 9.03125,-9.03125 l 0,-71 c 0,-4.971633 -4.059617,-9.03125 -9.03125,-9.03125 l -72,0 z"
       transform="scale(1,-1)"
       id="path3778"
       style="opacity:0.1;fill:url(#linearGradient3780);fill-opacity:1;fill-rule:nonzero;stroke:none;display:inline" />
    <path
       d="m 12,-93 c -4.4091333,0 -8,3.590867 -8,8 l 0,71 c 0,4.4091333 3.5908667,8 8,8 l 72,0 c 4.409133,0 8,-3.5908667 8,-8 l 0,-71 c 0,-4.409133 -3.590867,-8 -8,-8 l -72,0 z"
       transform="scale(1,-1)"
       id="path3770"
       style="opacity:0.2;fill:url(#linearGradient3772);fill-opacity:1;fill-rule:nonzero;stroke:none;display:inline" />
    <rect
       width="86"
       height="85"
       rx="7"
       ry="7"
       x="5"
       y="-92"
       transform="scale(1,-1)"
       id="rect3723"
       style="opacity:0.3;fill:url(#linearGradient3725);fill-opacity:1;fill-rule:nonzero;stroke:none;display:inline" />
    <rect
       width="84"
       height="84"
       rx="6"
       ry="6"
       x="6"
       y="-91"
       transform="scale(1,-1)"
       id="rect3716"
       style="opacity:0.45;fill:url(#linearGradient3721);fill-opacity:1;fill-rule:nonzero;stroke:none;display:inline" />
  </g>
  <g
     id="layer1">
    <rect
       width="84"
       height="84"
       rx="6"
       ry="6"
       x="6"
       y="6"
       id="rect2419"
       style="fill:url(#linearGradient3706);fill-opacity:1;fill-rule:nonzero;stroke:none" />
    <path
       d="m 36.273888,6.0817019 c 1.650116,2.216692 0.112581,5.9183371 2.601472,5.8815911 1.2119,1.714016 -2.415455,0.511296 0.203594,1.832342 1.506105,1.186578 -1.593388,1.86454 0.27179,2.929374 -2.149689,1.109666 0.348443,5.803987 1.945119,6.978848 2.627954,2.213161 1.162204,-4.685722 4.094495,-5.044597 1.593359,-1.819699 4.391847,-2.987811 6.379273,-4.818381 -1.942301,-0.15774 -3.076464,-1.367135 -1.237028,-2.116304 3.385456,3.470394 0.848905,-1.643528 -1.025128,-2.4532401 1.813361,-0.577046 3.576977,-0.154481 3.325361,-1.65137 1.916325,-1.402516 -1.842255,-1.855344 -3.183935,-1.538263 -4.458342,0 -8.916678,0 -13.375013,0 z M 8.4720356,7.5294789 C 6.0222753,8.2276739 5.8513922,14.084357 8.313685,10.832218 8.9180283,9.4968519 11.710763,7.8875459 8.4720356,7.5294789 z m 11.4464914,0.203593 c -1.412257,2.2153416 0.204915,3.9914991 1.379912,1.289427 0.831709,-1.128343 -0.617926,-1.248085 -1.379912,-1.289427 z m 3.528956,0.497674 c -2.72875,1.265212 -0.672602,4.2155641 -0.605059,4.8717381 2.87456,0.994829 4.473227,-0.650437 5.560693,2.161488 2.73516,1.576935 -0.05382,4.317061 -1.080544,5.030674 1.849342,-1.611189 5.404158,4.380481 4.472249,1.214924 -1.11178,-0.812076 2.985161,1.304563 0.859619,-1.334669 -1.956059,-3.152657 0.155272,-1.411414 0.979953,-0.675608 2.804888,-2.516097 -3.173595,-2.820214 -1.681217,-5.409578 -1.307758,-1.059583 -3.02289,-4.2694931 -5.33868,-3.642063 -1.550241,2.005564 -0.214153,-4.3699601 -2.488605,-1.1795631 -0.117891,1.7834151 -0.04285,4.0464551 -0.705711,0.9568241 -0.444071,-0.5408721 0.764001,-1.7982981 0.0273,-1.9941671 z m -5.564894,0.022621 c -1.8316,0.610853 -1.733228,3.0865051 0.518957,3.3519111 0.771435,-0.879633 0.306491,-3.1853381 -0.518957,-3.3519111 z m -7.148401,0.791753 c -2.3790789,0.563878 -1.4079923,2.4828651 -0.679573,3.0233211 -2.9449177,0.737923 4.495691,0.943126 0.792681,1.410494 -3.0807906,1.230835 2.966663,2.680942 3.958766,1.221561 3.804391,0.930735 0.136908,-3.046545 -0.19704,-5.2025321 -1.612752,-1.731481 -0.06366,3.9915331 -1.521869,0.184408 -0.508786,1.1305431 -2.126527,0.166598 -2.352965,-0.637252 z m 75.601127,0.248837 c -3.192449,1.2498621 1.98418,5.9664341 0.697641,1.6754941 -0.128164,-0.518125 0.288199,-1.8871051 -0.697641,-1.6754941 z M 19.669689,11.194162 c -2.29408,2.156707 2.915989,3.940201 -0.658895,5.546906 -0.536018,-2.002938 -1.458273,1.002105 -3.503464,-0.615417 -3.515899,1.464466 -5.313868,-0.762828 -8.2575357,-2.28957 -1.7680291,-0.220164 -1.1037806,1.680533 -1.220883,3.460193 0,4.918306 0,9.836614 0,14.75492 1.7334888,1.82448 0.6763288,0.804976 0,0.301752 0.9514666,3.241642 -0.4195722,7.980231 3.3308509,9.86583 0.6375636,1.183033 3.3128828,6.223076 3.4362208,4.715046 -1.341215,-1.405066 -2.717353,-5.617387 -0.447896,-1.863024 2.032755,3.568795 4.774749,5.883507 8.780477,6.73276 2.190057,0.745225 3.991169,3.306965 5.917116,2.743325 1.089051,2.871967 -3.227416,5.629887 0.144912,8.308597 1.760515,2.7118 4.716185,4.4904 3.11596,8.29758 -1.119073,3.71826 -0.639926,7.76974 -1.607786,11.23409 -0.300394,2.10873 2.938037,7.46101 2.65747,3.17511 0.945569,-2.9784 0.92064,-6.25562 3.147579,-8.36483 3.047115,0.02413 0.582377,-3.27775 3.60701,-2.84642 1.845644,-2.42007 2.380233,-5.30712 5.49491,-6.26809 0.372042,-2.9376 5.178821,-7.43659 0.213139,-8.580318 -1.349609,-0.665451 -4.824504,-0.904732 -4.55895,-1.233078 0.538034,-2.914877 -4.493466,-3.744701 -6.634228,-4.937269 -2.810759,-1.995848 -7.034237,3.315594 -8.024515,-1.261025 -0.590876,-1.439948 -2.751326,-1.463301 -1.758429,-3.68521 -1.789388,1.780326 -5.289343,1.23924 -4.373033,-2.198916 1.39157,-2.895595 6.735639,-3.032599 7.64626,0.450282 -1.264352,-3.841203 2.443938,-6.83143 4.502527,-9.564217 0.419165,-1.3062 2.909742,-2.428425 2.052679,-0.692421 1.460154,-0.05269 3.673291,-2.688637 1.079407,-1.472012 -0.03668,-2.403896 -2.272976,-1.720272 -2.997994,-1.378934 1.34377,-2.133574 8.24499,-0.967127 5.355098,-4.454587 -2.239305,-0.907679 -2.053024,-6.204449 -4.317999,-3.253597 0.190595,-1.818146 -4.610012,-5.377145 -4.505255,-2.328319 0.585986,2.728128 0.107133,5.870869 -1.139926,7.659113 -0.260245,-3.99762 -7.075678,-3.114085 -6.199423,-7.373995 1.26944,-2.030291 2.752851,-4.83791 2.894179,-4.585337 2.275048,-0.868941 4.104591,-3.396512 1.46783,-5.058122 -0.140917,1.448202 -1.98303,4.436139 -1.72366,0.822325 -1.705794,2.02318 -1.316199,-3.219407 -2.913753,-3.763121 z m 54.450004,1.402533 c -3.995941,0.977838 -5.580067,4.795836 -7.556815,7.958163 -2.913853,1.314237 -2.802938,6.958318 0.452411,5.155674 0.87128,1.522277 -0.609505,3.921673 1.928313,1.931216 2.046994,-2.709901 0.357939,-7.092756 3.841419,-8.801515 0.253727,1.32865 -3.213334,6.289871 0.836994,5.474405 3.66156,0.138209 -2.661851,0.364969 -0.881001,2.704729 -1.850264,-1.098211 -0.888827,2.999333 -3.303976,2.045788 -2.092333,1.138533 -3.464338,-0.528629 -2.985033,-2.35496 -1.645958,0.960573 0.517696,3.67045 -2.339585,3.83331 -0.640044,2.273659 -5.903378,1.930962 -2.910208,4.246159 1.328901,3.445358 -4.95153,0.215986 -3.16853,4.35053 1.525447,4.088438 4.722394,-1.354722 6.019433,-2.406348 2.502474,-1.941872 6.210661,3.311089 3.958763,3.506335 2.525083,-0.338912 2.006191,-2.74125 -0.01696,-3.671301 -1.092676,-2.834933 3.459035,1.390324 3.206601,2.811683 1.605944,3.008346 0.944615,-3.080088 2.578854,-0.384565 -0.190808,2.843378 6.574181,0.668556 3.344389,4.292415 -2.776877,0.559513 -5.510134,-0.716143 -7.900831,0.100926 -2.22511,-0.01969 -2.113469,-2.397964 -2.923585,-2.993542 -2.830365,0.23004 -6.327933,0.204027 -8.222767,2.491404 -2.049016,2.812343 -5.00383,6.743795 -2.770526,10.334807 2.234877,5.321462 7.777183,0.276028 10.962975,3.418767 0.946936,1.310381 -0.820594,2.868035 1.296711,4.287425 0.796704,3.02353 -0.904488,5.89433 1.052264,8.78464 1.011837,2.7182 1.639779,6.78664 5.40576,4.30281 3.985771,-2.39945 2.924161,-6.8227 6.212939,-9.27265 -2.60227,-5.038063 3.183628,-7.247103 4.627218,-11.337101 -3.153943,0.461909 -5.963772,-2.68376 -6.725787,-5.84994 -1.324936,-1.537885 -0.983676,-3.805502 0.496326,-0.916468 2.034259,1.971905 2.078217,7.823061 5.841274,4.813019 1.720349,-0.719835 6.418604,-3.465723 2.675109,-4.71532 C 84.738799,48.485587 82.07659,41.512928 85.620023,45.557218 88.196064,46.650521 90,47.301924 90,43.677069 c 0,-9.766125 0,-19.664578 0,-29.496868 -0.802399,0.82028 -2.863802,2.335242 -3.904284,1.328569 -1.790368,0.249406 -4.153886,3.734285 -3.59125,0.365539 -1.556235,-0.103093 -0.278581,3.020534 -2.416637,3.107891 -0.215289,1.605887 -2.159868,0.297377 -1.429431,1.822369 -1.500645,-1.064875 -2.770669,-4.427041 0.186146,-2.316729 4.391021,-1.317844 -2.895608,-4.290405 -3.458045,-5.008905 0.945455,-0.226615 -1.028609,-1.212248 -1.266806,-0.88224 z m -36.239676,0.88224 c -1.461507,1.2182 2.778528,1.447612 0,0 z m -19.522376,0.656023 c -1.634652,1.710504 2.603281,1.572448 0,0 z m 9.478418,1.696613 c -1.237867,2.028578 1.829027,0.748943 0,0 z m 27.100586,2.39788 c -1.449235,1.669078 -3.362051,-0.439263 -3.39323,0.995347 0.262642,0.433474 1.314671,3.527292 3.619439,1.244183 1.236985,-0.52171 0.749963,-1.836879 -0.226209,-2.23953 z m -30.855759,0.995347 c -2.748806,2.401478 4.668304,2.622741 0.582324,0.275426 l -0.582324,-0.275426 z m 36.262298,6.650724 c -1.979083,1.291041 0.949434,4.032808 -0.04308,5.320723 C 59.06,33.35771 64.908429,31.04399 61.784718,29.319485 61.562154,27.837869 59.9547,26.030129 60.343179,25.875522 z m -1.334668,2.601473 c -2.757392,0.779858 -0.625964,4.806237 0.350657,1.013998 0.05497,-0.219858 0.12936,-1.021351 -0.350657,-1.013998 z M 36.929913,31.39517 c -2.565224,1.749832 -0.39843,3.496444 1.481561,2.709121 -0.385959,-1.055763 -1.46417,-1.720956 -1.481561,-2.709121 z m 48.455298,2.940797 c 1.279946,0.646198 -2.345536,1.750082 -0.04983,2.887358 1.335978,1.571671 0.832312,4.945457 -1.339202,2.557643 0.403442,-2.665992 -2.943559,-4.656978 1.389033,-5.445001 z m -6.582867,0.02262 c -0.173666,1.712793 3.69395,4.375139 -0.475048,3.506334 -2.204744,0.258725 -5.506966,-0.06739 -2.729423,-2.815681 0.87765,-0.527085 3.182055,1.818498 1.982912,-0.373952 0.42514,-0.02713 0.821079,-0.187672 1.221559,-0.316701 z m -12.735913,3.709927 c -1.608116,1.036413 1.111982,1.831121 0,0 z M 25.687014,47.7279 c -0.271103,0.904805 5.085991,1.821755 1.389301,0.372149 L 26.525247,47.906003 25.687014,47.7279 z m 4.16236,1.289426 c -1.624915,1.650213 3.347807,0.493017 0,0 z M 84.186275,64.15112 c -3.530727,0.09113 -3.061331,9.20159 -0.600138,3.81083 0.233406,-1.16979 1.168903,-2.71377 0.600138,-3.81083 z"
       id="path3414"
       style="fill:url(#radialGradient3430);fill-opacity:1;stroke:none;display:inline;filter:url(#filter3434)" />
    <path
       d="m 36.273888,6.0817019 c 1.650116,2.216692 0.112581,5.9183371 2.601472,5.8815911 1.2119,1.714016 -2.415455,0.511296 0.203594,1.832342 1.506105,1.186578 -1.593388,1.86454 0.27179,2.929374 -2.149689,1.109666 0.348443,5.803987 1.945119,6.978848 2.627954,2.213161 1.162204,-4.685722 4.094495,-5.044597 1.593359,-1.819699 4.391847,-2.987811 6.379273,-4.818381 -1.942301,-0.15774 -3.076464,-1.367135 -1.237028,-2.116304 3.385456,3.470394 0.848905,-1.643528 -1.025128,-2.4532401 1.813361,-0.577046 3.576977,-0.154481 3.325361,-1.65137 1.916325,-1.402516 -1.842255,-1.855344 -3.183935,-1.538263 -4.458342,0 -8.916678,0 -13.375013,0 z M 8.472036,7.5294789 C 6.022275,8.2276739 5.851392,14.084357 8.313685,10.832218 8.918028,9.4968519 11.710763,7.8875459 8.472036,7.5294789 z m 11.446491,0.203593 c -1.412257,2.2153416 0.204915,3.9914991 1.379912,1.289427 0.831709,-1.128343 -0.617926,-1.248085 -1.379912,-1.289427 z m 3.528956,0.497674 c -2.72875,1.265212 -0.672602,4.2155641 -0.605059,4.8717381 2.87456,0.994829 4.473227,-0.650437 5.560693,2.161488 2.73516,1.576935 -0.05382,4.317061 -1.080544,5.030674 1.849342,-1.611189 5.404158,4.380481 4.472249,1.214924 -1.11178,-0.812076 2.985161,1.304563 0.859619,-1.334669 -1.956059,-3.152657 0.155272,-1.411414 0.979953,-0.675608 2.804888,-2.516097 -3.173595,-2.820214 -1.681217,-5.409578 -1.307758,-1.059583 -3.02289,-4.2694931 -5.33868,-3.642063 -1.550241,2.005564 -0.214153,-4.3699601 -2.488605,-1.1795631 -0.117891,1.7834151 -0.04285,4.0464551 -0.705711,0.9568241 -0.444071,-0.5408721 0.764001,-1.7982981 0.0273,-1.9941671 z m -5.564894,0.022621 c -1.8316,0.610853 -1.733228,3.0865051 0.518957,3.3519111 0.771435,-0.879633 0.306491,-3.1853381 -0.518957,-3.3519111 z m -7.148401,0.791753 c -2.379079,0.563878 -1.407992,2.4828651 -0.679573,3.0233211 -2.944918,0.737923 4.495691,0.943126 0.792681,1.410494 -3.080791,1.230835 2.966663,2.680942 3.958766,1.221561 3.804391,0.930735 0.136908,-3.046545 -0.19704,-5.2025321 -1.612752,-1.731481 -0.06366,3.9915331 -1.521869,0.184408 -0.508786,1.1305431 -2.126527,0.166598 -2.352965,-0.637252 z m 75.601127,0.248837 c -3.192449,1.2498621 1.98418,5.9664341 0.697641,1.6754941 -0.128164,-0.518125 0.288199,-1.8871051 -0.697641,-1.6754941 z M 19.669689,11.194162 c -2.29408,2.156707 2.915989,3.940201 -0.658895,5.546906 -0.536018,-2.002938 -1.458273,1.002105 -3.503464,-0.615417 -3.515899,1.464466 -5.313868,-0.762828 -8.257536,-2.28957 -1.768029,-0.220164 -1.10378,1.680533 -1.220883,3.460193 0,4.918306 0,9.836614 0,14.75492 1.733489,1.82448 0.676329,0.804976 0,0.301752 0.951467,3.241642 -0.419572,7.980231 3.330851,9.86583 0.637564,1.183033 3.312883,6.223076 3.436221,4.715046 -1.341215,-1.405066 -2.717353,-5.617387 -0.447896,-1.863024 2.032755,3.568795 4.774749,5.883507 8.780477,6.73276 2.190057,0.745225 3.991169,3.306965 5.917116,2.743325 1.089051,2.871967 -3.227416,5.629887 0.144912,8.308597 1.760515,2.7118 4.716185,4.4904 3.11596,8.29758 -1.119073,3.71826 -0.639926,7.76974 -1.607786,11.23409 -0.300394,2.10873 2.938037,7.46101 2.65747,3.17511 0.945569,-2.9784 0.92064,-6.25562 3.147579,-8.36483 3.047115,0.02413 0.582377,-3.27775 3.60701,-2.84642 1.845644,-2.42007 2.380233,-5.30712 5.49491,-6.26809 0.372042,-2.9376 5.178821,-7.43659 0.213139,-8.580318 -1.349609,-0.665451 -4.824504,-0.904732 -4.55895,-1.233078 0.538034,-2.914877 -4.493466,-3.744701 -6.634228,-4.937269 -2.810759,-1.995848 -7.034237,3.315594 -8.024515,-1.261025 -0.590876,-1.439948 -2.751326,-1.463301 -1.758429,-3.68521 -1.789388,1.780326 -5.289343,1.23924 -4.373033,-2.198916 1.39157,-2.895595 6.735639,-3.032599 7.64626,0.450282 -1.264352,-3.841203 2.443938,-6.83143 4.502527,-9.564217 0.419165,-1.3062 2.909742,-2.428425 2.052679,-0.692421 1.460154,-0.05269 3.673291,-2.688637 1.079407,-1.472012 -0.03668,-2.403896 -2.272976,-1.720272 -2.997994,-1.378934 1.34377,-2.133574 8.24499,-0.967127 5.355098,-4.454587 -2.239305,-0.907679 -2.053024,-6.204449 -4.317999,-3.253597 0.190595,-1.818146 -4.610012,-5.377145 -4.505255,-2.328319 0.585986,2.728128 0.107133,5.870869 -1.139926,7.659113 -0.260245,-3.99762 -7.075678,-3.114085 -6.199423,-7.373995 1.26944,-2.030291 2.752851,-4.83791 2.894179,-4.585337 2.275048,-0.868941 4.104591,-3.396512 1.46783,-5.058122 -0.140917,1.448202 -1.98303,4.436139 -1.72366,0.822325 -1.705794,2.02318 -1.316199,-3.219407 -2.913753,-3.763121 z m 54.450004,1.402533 c -3.995941,0.977838 -5.580067,4.795836 -7.556815,7.958163 -2.913853,1.314237 -2.802938,6.958318 0.452411,5.155674 0.87128,1.522277 -0.609505,3.921673 1.928313,1.931216 2.046994,-2.709901 0.357939,-7.092756 3.841419,-8.801515 0.253727,1.32865 -3.213334,6.289871 0.836994,5.474405 3.66156,0.138209 -2.661851,0.364969 -0.881001,2.704729 -1.850264,-1.098211 -0.888827,2.999333 -3.303976,2.045788 -2.092333,1.138533 -3.464338,-0.528629 -2.985033,-2.35496 -1.645958,0.960573 0.517696,3.67045 -2.339585,3.83331 -0.640044,2.273659 -5.903378,1.930962 -2.910208,4.246159 1.328901,3.445358 -4.95153,0.215986 -3.16853,4.35053 1.525447,4.088438 4.722394,-1.354722 6.019433,-2.406348 2.502474,-1.941872 6.210661,3.311089 3.958763,3.506335 2.525083,-0.338912 2.006191,-2.74125 -0.01696,-3.671301 -1.092676,-2.834933 3.459035,1.390324 3.206601,2.811683 1.605944,3.008346 0.944615,-3.080088 2.578854,-0.384565 -0.190808,2.843378 6.574181,0.668556 3.344389,4.292415 -2.776877,0.559513 -5.510134,-0.716143 -7.900831,0.100926 -2.22511,-0.01969 -2.113469,-2.397964 -2.923585,-2.993542 -2.830365,0.23004 -6.327933,0.204027 -8.222767,2.491404 -2.049016,2.812343 -5.00383,6.743795 -2.770526,10.334807 2.234877,5.321462 7.777183,0.276028 10.962975,3.418767 0.946936,1.310381 -0.820594,2.868035 1.296711,4.287425 0.796704,3.02353 -0.904488,5.89433 1.052264,8.78464 1.011837,2.7182 1.639779,6.78664 5.40576,4.30281 3.985771,-2.39945 2.924161,-6.8227 6.212939,-9.27265 -2.60227,-5.038063 3.183628,-7.247103 4.627218,-11.337101 -3.153943,0.461909 -5.963772,-2.68376 -6.725787,-5.84994 -1.324936,-1.537885 -0.983676,-3.805502 0.496326,-0.916468 2.034259,1.971905 2.078217,7.823061 5.841274,4.813019 1.720349,-0.719835 6.418604,-3.465723 2.675109,-4.71532 C 84.738799,48.485587 82.07659,41.512928 85.620023,45.557218 88.196064,46.650521 90,47.301924 90,43.677069 c 0,-9.766125 0,-19.664578 0,-29.496868 -0.802399,0.82028 -2.863802,2.335242 -3.904284,1.328569 -1.790368,0.249406 -4.153886,3.734285 -3.59125,0.365539 -1.556235,-0.103093 -0.278581,3.020534 -2.416637,3.107891 -0.215289,1.605887 -2.159868,0.297377 -1.429431,1.822369 -1.500645,-1.064875 -2.770669,-4.427041 0.186146,-2.316729 4.391021,-1.317844 -2.895608,-4.290405 -3.458045,-5.008905 0.945455,-0.226615 -1.028609,-1.212248 -1.266806,-0.88224 z m -36.239676,0.88224 c -1.461507,1.2182 2.778528,1.447612 0,0 z m -19.522376,0.656023 c -1.634652,1.710504 2.603281,1.572448 0,0 z m 9.478418,1.696613 c -1.237867,2.028578 1.829027,0.748943 0,0 z m 27.100586,2.39788 c -1.449235,1.669078 -3.362051,-0.439263 -3.39323,0.995347 0.262642,0.433474 1.314671,3.527292 3.619439,1.244183 1.236985,-0.52171 0.749963,-1.836879 -0.226209,-2.23953 z m -30.855759,0.995347 c -2.748806,2.401478 4.668304,2.622741 0.582324,0.275426 l -0.582324,-0.275426 z m 36.262298,6.650724 c -1.979083,1.291041 0.949434,4.032808 -0.04308,5.320723 C 59.06,33.35771 64.908429,31.04399 61.784718,29.319485 61.562154,27.837869 59.9547,26.030129 60.343179,25.875522 z m -1.334668,2.601473 c -2.757392,0.779858 -0.625964,4.806237 0.350657,1.013998 0.05497,-0.219858 0.12936,-1.021351 -0.350657,-1.013998 z M 36.929913,31.39517 c -2.565224,1.749832 -0.39843,3.496444 1.481561,2.709121 -0.385959,-1.055763 -1.46417,-1.720956 -1.481561,-2.709121 z m 48.455298,2.940797 c 1.279946,0.646198 -2.345536,1.750082 -0.04983,2.887358 1.335978,1.571671 0.832312,4.945457 -1.339202,2.557643 0.403442,-2.665992 -2.943559,-4.656978 1.389033,-5.445001 z m -6.582867,0.02262 c -0.173666,1.712793 3.69395,4.375139 -0.475048,3.506334 -2.204744,0.258725 -5.506966,-0.06739 -2.729423,-2.815681 0.87765,-0.527085 3.182055,1.818498 1.982912,-0.373952 0.42514,-0.02713 0.821079,-0.187672 1.221559,-0.316701 z m -12.735913,3.709927 c -1.608116,1.036413 1.111982,1.831121 0,0 z M 25.687014,47.7279 c -0.271103,0.904805 5.085991,1.821755 1.389301,0.372149 L 26.525247,47.906003 25.687014,47.7279 z m 4.16236,1.289426 c -1.624915,1.650213 3.347807,0.493017 0,0 z M 84.186275,64.15112 c -3.530727,0.09113 -3.061331,9.20159 -0.600138,3.81083 0.233406,-1.16979 1.168903,-2.71377 0.600138,-3.81083 z"
       id="path3522"
       style="fill:url(#radialGradient5232);fill-opacity:1;stroke:none;display:inline" />
    <path
       d="M 12,6 C 8.676,6 6,8.676 6,12 l 0,2 0,68 0,2 c 0,0.334721 0.04135,0.6507 0.09375,0.96875 0.0487,0.295596 0.09704,0.596915 0.1875,0.875 0.00988,0.03038 0.020892,0.0636 0.03125,0.09375 0.098865,0.287771 0.2348802,0.547452 0.375,0.8125 0.1445918,0.273507 0.3156161,0.535615 0.5,0.78125 0.1843839,0.245635 0.3737765,0.473472 0.59375,0.6875 0.439947,0.428056 0.94291,0.814526 1.5,1.09375 0.278545,0.139612 0.5734731,0.246947 0.875,0.34375 -0.2562018,-0.100222 -0.4867109,-0.236272 -0.71875,-0.375 -0.00741,-0.0044 -0.023866,0.0045 -0.03125,0 -0.031933,-0.0193 -0.062293,-0.04251 -0.09375,-0.0625 -0.120395,-0.0767 -0.2310226,-0.163513 -0.34375,-0.25 -0.1061728,-0.0808 -0.2132809,-0.161112 -0.3125,-0.25 C 8.4783201,88.557317 8.3087904,88.373362 8.15625,88.1875 8.0486711,88.057245 7.9378561,87.922215 7.84375,87.78125 7.818661,87.74287 7.805304,87.69538 7.78125,87.65625 7.716487,87.553218 7.6510225,87.451733 7.59375,87.34375 7.4927417,87.149044 7.3880752,86.928049 7.3125,86.71875 7.30454,86.69694 7.288911,86.6782 7.28125,86.65625 7.2494249,86.5643 7.2454455,86.469419 7.21875,86.375 7.1884177,86.268382 7.1483606,86.171969 7.125,86.0625 7.0521214,85.720988 7,85.364295 7,85 L 7,83 7,15 7,13 C 7,10.218152 9.2181517,8 12,8 l 2,0 68,0 2,0 c 2.781848,0 5,2.218152 5,5 l 0,2 0,68 0,2 c 0,0.364295 -0.05212,0.720988 -0.125,1.0625 -0.04415,0.206893 -0.08838,0.397658 -0.15625,0.59375 -0.0077,0.02195 -0.0233,0.04069 -0.03125,0.0625 -0.06274,0.173739 -0.138383,0.367449 -0.21875,0.53125 -0.04158,0.0828 -0.07904,0.169954 -0.125,0.25 -0.0546,0.09721 -0.126774,0.18835 -0.1875,0.28125 -0.09411,0.140965 -0.204921,0.275995 -0.3125,0.40625 -0.143174,0.17445 -0.303141,0.346998 -0.46875,0.5 -0.01117,0.0102 -0.01998,0.02115 -0.03125,0.03125 -0.138386,0.125556 -0.285091,0.234436 -0.4375,0.34375 -0.102571,0.07315 -0.204318,0.153364 -0.3125,0.21875 -0.0074,0.0045 -0.02384,-0.0044 -0.03125,0 -0.232039,0.138728 -0.462548,0.274778 -0.71875,0.375 0.301527,-0.0968 0.596455,-0.204138 0.875,-0.34375 0.55709,-0.279224 1.060053,-0.665694 1.5,-1.09375 0.219973,-0.214028 0.409366,-0.441865 0.59375,-0.6875 0.184384,-0.245635 0.355408,-0.507743 0.5,-0.78125 0.14012,-0.265048 0.276135,-0.524729 0.375,-0.8125 0.01041,-0.03078 0.02133,-0.06274 0.03125,-0.09375 0.09046,-0.278085 0.1388,-0.579404 0.1875,-0.875 C 89.95865,84.6507 90,84.334721 90,84 l 0,-2 0,-68 0,-2 C 90,8.676 87.324,6 84,6 L 12,6 z"
       id="rect3728"
       style="opacity:0.5;fill:url(#linearGradient3188);fill-opacity:1;fill-rule:nonzero;stroke:none" />
    <path
       d="M 12,90 C 8.676,90 6,87.324 6,84 L 6,82 6,14 6,12 c 0,-0.334721 0.04135,-0.6507 0.09375,-0.96875 0.0487,-0.295596 0.09704,-0.596915 0.1875,-0.875 C 6.29113,10.12587 6.302142,10.09265 6.3125,10.0625 6.411365,9.774729 6.5473802,9.515048 6.6875,9.25 6.8320918,8.976493 7.0031161,8.714385 7.1875,8.46875 7.3718839,8.223115 7.5612765,7.995278 7.78125,7.78125 8.221197,7.353194 8.72416,6.966724 9.28125,6.6875 9.559795,6.547888 9.8547231,6.440553 10.15625,6.34375 9.9000482,6.443972 9.6695391,6.580022 9.4375,6.71875 c -0.00741,0.0044 -0.023866,-0.0045 -0.03125,0 -0.031933,0.0193 -0.062293,0.04251 -0.09375,0.0625 -0.120395,0.0767 -0.2310226,0.163513 -0.34375,0.25 -0.1061728,0.0808 -0.2132809,0.161112 -0.3125,0.25 C 8.4783201,7.442683 8.3087904,7.626638 8.15625,7.8125 8.0486711,7.942755 7.9378561,8.077785 7.84375,8.21875 7.818661,8.25713 7.805304,8.30462 7.78125,8.34375 7.716487,8.446782 7.6510225,8.548267 7.59375,8.65625 7.4927417,8.850956 7.3880752,9.071951 7.3125,9.28125 7.30454,9.30306 7.288911,9.3218 7.28125,9.34375 7.2494249,9.4357 7.2454455,9.530581 7.21875,9.625 7.1884177,9.731618 7.1483606,9.828031 7.125,9.9375 7.0521214,10.279012 7,10.635705 7,11 l 0,2 0,68 0,2 c 0,2.781848 2.2181517,5 5,5 l 2,0 68,0 2,0 c 2.781848,0 5,-2.218152 5,-5 l 0,-2 0,-68 0,-2 C 89,10.635705 88.94788,10.279012 88.875,9.9375 88.83085,9.730607 88.78662,9.539842 88.71875,9.34375 88.71105,9.3218 88.69545,9.30306 88.6875,9.28125 88.62476,9.107511 88.549117,8.913801 88.46875,8.75 88.42717,8.6672 88.38971,8.580046 88.34375,8.5 88.28915,8.40279 88.216976,8.31165 88.15625,8.21875 88.06214,8.077785 87.951329,7.942755 87.84375,7.8125 87.700576,7.63805 87.540609,7.465502 87.375,7.3125 87.36383,7.3023 87.35502,7.29135 87.34375,7.28125 87.205364,7.155694 87.058659,7.046814 86.90625,6.9375 86.803679,6.86435 86.701932,6.784136 86.59375,6.71875 c -0.0074,-0.0045 -0.02384,0.0044 -0.03125,0 -0.232039,-0.138728 -0.462548,-0.274778 -0.71875,-0.375 0.301527,0.0968 0.596455,0.204138 0.875,0.34375 0.55709,0.279224 1.060053,0.665694 1.5,1.09375 0.219973,0.214028 0.409366,0.441865 0.59375,0.6875 0.184384,0.245635 0.355408,0.507743 0.5,0.78125 0.14012,0.265048 0.276135,0.524729 0.375,0.8125 0.01041,0.03078 0.02133,0.06274 0.03125,0.09375 0.09046,0.278085 0.1388,0.579404 0.1875,0.875 C 89.95865,11.3493 90,11.665279 90,12 l 0,2 0,68 0,2 c 0,3.324 -2.676,6 -6,6 l -72,0 z"
       id="path3615"
       style="opacity:0.2;fill:url(#radialGradient2855);fill-opacity:1;fill-rule:nonzero;stroke:none" />
  </g>
  <g
     id="layer4">
    <rect
       width="66"
       height="66"
       rx="12"
       ry="12"
       x="15"
       y="15"
       clip-path="url(#clipPath3613)"
       id="rect3171"
       style="opacity:0.15;fill:url(#linearGradient2885);fill-opacity:1;fill-rule:nonzero;stroke:#ffffff;stroke-width:0.5;stroke-linecap:round;stroke-linejoin:miter;stroke-miterlimit:4;stroke-opacity:1;stroke-dasharray:none;stroke-dashoffset:0;filter:url(#filter3794)" />
  </g>
  <g
     id="layer3">
    <path
       d="m 47.5625,14.03125 0.0625,1 L 47.8125,16 c 0,0 -0.56855,-1.872463 -0.5625,-1.875 -0.0029,0.0012 -0.02423,-0.0028 -0.03125,0 8.26e-4,-2.05e-4 -0.05616,0.01919 -0.09375,0.03125 -0.0043,0.001 -0.03069,-1.37e-4 -0.03125,0 -0.01211,0.003 -0.04685,0.02732 -0.0625,0.03125 -0.01565,0.0039 -0.02025,-0.0027 -0.03125,0 0.0078,-0.0018 -0.03125,0 -0.03125,0 0,0 -0.189616,0.09483 -0.1875,0.09375 -0.0029,0.0014 -0.0255,-0.0029 -0.03125,0 -0.0115,0.0058 -0.01559,0.02342 -0.03125,0.03125 -0.01566,0.0078 -0.05084,-0.0058 -0.0625,0 -0.0058,0.0029 0.0032,0.02964 0,0.03125 0,0 -0.161259,0.09763 -0.15625,0.09375 -0.0023,0.0017 -0.02564,-0.0042 -0.03125,0 -0.0056,0.0042 0.0073,0.0258 0,0.03125 -0.0073,0.0054 -0.02341,-0.0059 -0.03125,0 -0.0073,0.0036 -0.02569,-0.0028 -0.03125,0 0.0063,-0.003 0,0.03125 0,0.03125 -0.006,0.0045 -0.02725,0.02825 -0.03125,0.03125 -0.05331,0.03963 -0.254717,0.16115 -0.25,0.15625 -0.01186,0.0089 -0.01559,0.01949 -0.03125,0.03125 -0.01176,0.01173 -0.02217,0.02219 -0.03125,0.03125 -0.0057,0.0043 -0.02869,-0.0019 -0.03125,0 0.0037,-0.0027 0,0.03125 0,0.03125 0,0 -0.1256,0.09435 -0.125,0.09375 -0.0087,0.0087 -0.01951,0.0195 -0.03125,0.03125 -0.01174,0.01175 -0.02262,0.02263 -0.03125,0.03125 0.0016,-0.0016 0,0.03125 0,0.03125 -0.0014,0.0014 -0.02981,-0.0014 -0.03125,0 -0.0089,0.0089 -0.01951,0.0195 -0.03125,0.03125 -0.01174,0.01175 -0.02284,0.02285 -0.03125,0.03125 0.0041,-0.004 0,0.03125 0,0.03125 0,0 -0.15054,0.167328 -0.1875,0.21875 -0.003,0.0042 0.0014,0.02942 0,0.03125 -0.0012,0.0016 -0.03149,4.99e-4 -0.03125,0 -0.0055,0.0074 0.0059,0.02341 0,0.03125 -0.0059,0.0078 0.0055,0.02396 0,0.03125 -0.0055,0.0073 -0.02699,-0.0057 -0.03125,0 -0.0037,0.0074 0.0031,0.02515 0,0.03125 0,0 0.0036,0.02541 0,0.03125 0,0 -0.03393,0.0055 -0.03125,0 -0.02656,0.0435 -0.06332,0.126671 -0.0625,0.125 -0.0014,0.0029 -0.02838,-0.0058 -0.03125,0 -0.0057,0.0115 0.0078,0.04684 0,0.0625 -0.0078,0.01566 -0.02542,0.01959 -0.03125,0.03125 -0.0029,0.0058 0.0016,0.02801 0,0.03125 -0.0017,0.0035 -0.02831,-0.0059 -0.03125,0 -0.0059,0.01177 0.0078,0.04684 0,0.0625 -0.0078,0.01566 -0.02555,0.01986 -0.03125,0.03125 -0.0029,0.0057 0.0013,0.02861 0,0.03125 0,0 -0.09524,0.225144 -0.09375,0.21875 -0.0028,0.01113 0.0039,0.01559 0,0.03125 -0.0039,0.01566 -0.02825,0.05052 -0.03125,0.0625 0,0 -7.07e-4,0.03418 0,0.03125 -0.0029,0.01143 0.0039,0.01559 0,0.03125 -0.0039,0.01566 -0.02833,0.05083 -0.03125,0.0625 l -3.5625,13.0625 c -6.298719,2.068363 -11.156148,6.955026 -13.21875,13.25 l -12.9375,3.53125 -0.125,0.03125 a 0.99149819,0.99149819 0 0 0 -0.03125,0 c 0.0022,-5.96e-4 -0.03958,0.02562 -0.0625,0.03125 -0.01146,0.0028 -0.02415,-0.0017 -0.03125,0 l 0.21875,0.96875 0.3125,0.9375 c 0,0 -0.687441,-1.843775 -0.6875,-1.84375 -0.0036,0.0014 -0.02407,-0.0029 -0.03125,0 -0.01437,0.0058 -0.01167,0.02342 -0.03125,0.03125 -0.01958,0.0078 -0.04791,-0.0058 -0.0625,0 -0.0073,0.0029 -0.02715,-0.0016 -0.03125,0 -0.0014,5.46e-4 1.44e-4,0.03119 0,0.03125 -0.0043,0.0017 -0.02391,-0.0029 -0.03125,0 -0.01469,0.0059 -0.01168,0.02341 -0.03125,0.03125 -0.0098,0.0039 -0.02213,-0.0037 -0.03125,0 0,0 0.3125,0.9375 0.3125,0.9375 0,0 -0.536802,-0.840301 -0.53125,-0.84375 -0.01444,0.0087 -0.04292,0.0195 -0.0625,0.03125 -0.01958,0.01175 -0.04792,0.02251 -0.0625,0.03125 -0.0073,0.0044 0.0041,0.02882 0,0.03125 0,0 0.5,0.84375 0.5,0.84375 0,0 -0.624954,-0.781286 -0.625,-0.78125 -0.01142,0.0086 -0.01559,0.01951 -0.03125,0.03125 -0.01566,0.01174 -0.01954,0.02248 -0.03125,0.03125 -0.0059,0.0044 -0.0279,-0.0025 -0.03125,0 -0.0017,0.0013 8.29e-4,0.03063 0,0.03125 -0.0034,0.0025 -0.02539,-0.0044 -0.03125,0 -0.01171,0.0088 -0.01559,0.0195 -0.03125,0.03125 -0.01566,0.01175 -0.01984,0.0227 -0.03125,0.03125 0,0 0.5625,0.8125 0.5625,0.8125 0,0 -0.722983,-0.683144 -0.71875,-0.6875 -0.01156,0.01156 -0.01558,0.04684 -0.03125,0.0625 -0.01567,0.01566 -0.05086,0.01962 -0.0625,0.03125 0,0 0.6875,0.71875 0.6875,0.71875 0,0 -0.812466,-0.562548 -0.8125,-0.5625 -0.0085,0.01131 -0.0195,0.0156 -0.03125,0.03125 -0.01175,0.01565 -0.02238,0.01944 -0.03125,0.03125 -0.0044,0.0059 0.0027,0.02766 0,0.03125 -9.82e-4,-7.15e-4 -0.03125,0 -0.03125,0 -0.0023,0.0031 0.0044,0.02544 0,0.03125 -0.0087,0.01161 -0.01951,0.01559 -0.03125,0.03125 -0.01174,0.01566 -0.02261,0.01973 -0.03125,0.03125 0,0 0.78125,0.625 0.78125,0.625 0,0 -0.846297,-0.495636 -0.84375,-0.5 -0.0023,0.0039 -0.02691,-0.0072 -0.03125,0 -0.0035,0.0058 0.0043,0.02415 0,0.03125 -0.0064,0.01065 -0.0242,0.0195 -0.03125,0.03125 -0.0047,0.0078 0.0045,0.02374 0,0.03125 -0.0068,0.01127 -0.02602,0.02254 -0.03125,0.03125 0,0 0.120962,0.08364 0.1875,0.125 0.193621,0.183108 0.5625,0.53125 0.5625,0.53125 0,0 -0.939199,-0.339362 -0.9375,-0.34375 -0.0058,0.01449 0.0078,0.04292 0,0.0625 -0.0078,0.01958 -0.02545,0.01678 -0.03125,0.03125 -0.0029,0.0072 0.0015,0.02742 0,0.03125 0,0 0.90625,0.375 0.90625,0.375 0,0 -0.968741,-0.156309 -0.96875,-0.15625 -0.0028,0.01405 -0.02732,0.01168 -0.03125,0.03125 -0.0039,0.01957 0.003,0.04763 0,0.0625 -0.0015,0.0074 9.44e-4,0.02653 0,0.03125 0,0 0,0.03125 0,0.03125 -0.0029,0.01441 -0.02733,0.01167 -0.03125,0.03125 -0.0039,0.01958 0.0029,0.04798 0,0.0625 0,0 0.96875,0.21875 0.96875,0.21875 0,0 -0.9688,-0.155948 -0.96875,-0.15625 -8.36e-4,0.005 0.0015,0.02247 0,0.03125 -0.0029,0.01756 -0.02734,0.039 -0.03125,0.0625 -0.0039,0.0235 0.0029,0.04521 0,0.0625 0,0 0.96875,0.1875 0.96875,0.1875 0,0 -1.000001,0.03119 -1,0.03125 5e-6,0.01427 6e-6,0.01168 0,0.03125 -6e-6,0.01957 8e-6,0.04786 0,0.0625 -4e-6,0.0073 2e-6,0.02705 0,0.03125 2e-6,0.0042 -4e-6,0.02393 0,0.03125 8e-6,0.01464 -6e-6,0.04293 0,0.0625 6e-6,0.01957 5e-6,0.01698 0,0.03125 0,0 1,0.03125 1,0.03125 0,0 -0.968764,0.187426 -0.96875,0.1875 0.0029,0.01729 -0.0039,0.039 0,0.0625 0.0039,0.0235 0.02833,0.04494 0.03125,0.0625 0.0015,0.0088 -8.36e-4,0.02622 0,0.03125 0,0 0.96875,-0.15625 0.96875,-0.15625 0,0 -0.967993,0.191117 -0.96875,0.1875 7.88e-4,0.0039 -0.0015,0.02399 0,0.03125 0.0029,0.01452 -0.0039,0.04292 0,0.0625 0.0039,0.01958 0.02837,0.01684 0.03125,0.03125 0,0 0.96875,-0.15625 0.96875,-0.15625 0,0 -0.968761,0.187441 -0.96875,0.1875 9.44e-4,0.0047 -0.0015,0.02382 0,0.03125 0.003,0.01487 -0.0039,0.04293 0,0.0625 0.002,0.0098 0.02943,-0.0091 0.03125,0 0,0 0.96875,-0.125 0.96875,-0.125 0,0 -0.904281,0.379755 -0.90625,0.375 0.0015,0.0038 -0.0029,0.02401 0,0.03125 0.0058,0.01447 0.02342,0.01167 0.03125,0.03125 0.0078,0.01958 -0.0058,0.04801 0,0.0625 0,0 0.9375,-0.34375 0.9375,-0.34375 0,0 -0.750038,0.656205 -0.75,0.65625 0.01172,0.01568 0.02211,0.01905 0.03125,0.03125 0.0045,0.0075 -0.0047,0.02342 0,0.03125 0.007,0.01175 0.02486,0.0206 0.03125,0.03125 0.0043,0.0071 -0.0035,0.02545 0,0.03125 0,0 0.03004,6.94e-4 0.03125,0 0,0 0.05181,-0.05323 0.0625,-0.0625 0.15155,-0.08665 0.78125,-0.4375 0.78125,-0.4375 0,0 -0.781286,0.593704 -0.78125,0.59375 0.0022,0.0029 -0.0043,0.02549 0,0.03125 0.0086,0.01152 0.01951,0.01559 0.03125,0.03125 0.01174,0.01566 0.02255,0.01964 0.03125,0.03125 0.0044,0.0058 -0.0023,0.02812 0,0.03125 0,0 0.03027,7.13e-4 0.03125,0 0.0027,0.0036 -0.0044,0.02535 0,0.03125 0.0089,0.01181 0.0195,0.0156 0.03125,0.03125 0.0059,0.0078 0.02579,-0.0073 0.03125,0 0,0 0.8125,-0.53125 0.8125,-0.53125 0,0 -0.685314,0.720904 -0.6875,0.71875 0.01164,0.01163 0.04683,0.01559 0.0625,0.03125 0.01567,0.01566 0.01969,0.05094 0.03125,0.0625 0,0 0.71875,-0.6875 0.71875,-0.6875 0,0 -0.562548,0.812466 -0.5625,0.8125 0.01141,0.0086 0.01559,0.0195 0.03125,0.03125 0.01566,0.01175 0.01954,0.02246 0.03125,0.03125 0.0059,0.0044 0.02788,-0.0025 0.03125,0 8.29e-4,6.21e-4 -0.0017,0.03 0,0.03125 0.0033,0.0025 0.0254,-0.0044 0.03125,0 0.01171,0.0088 0.01559,0.01951 0.03125,0.03125 0.01566,0.01174 0.01983,0.02268 0.03125,0.03125 0,0 0.625,-0.78125 0.625,-0.78125 0,0 -0.498118,0.844865 -0.5,0.84375 0.0041,0.0024 -0.0073,0.02688 0,0.03125 0.01458,0.0087 0.04292,0.0195 0.0625,0.03125 0.01958,0.01175 0.04806,0.02258 0.0625,0.03125 0,0 0.53125,-0.84375 0.53125,-0.84375 0,0 -0.34381,0.937478 -0.34375,0.9375 0.01428,0.0057 0.04293,-0.0078 0.0625,0 0.01957,0.0078 0.01656,0.02537 0.03125,0.03125 0.0073,0.0029 0.02694,-0.0017 0.03125,0 -6.2e-4,0.0015 4e-5,0.03127 0,0.03125 0.0041,0.0016 0.02395,-0.0029 0.03125,0 0.01459,0.0058 0.04292,-0.0078 0.0625,0 0.01958,0.0078 0.01688,0.0255 0.03125,0.03125 0,0 0.40625,-0.90625 0.40625,-0.90625 l 0.3125,-0.9375 c 0,0 -0.525415,1.907559 -0.53125,1.90625 0.0071,0.0017 0.01979,-0.0028 0.03125,0 0.02292,0.0056 0.06467,0.03185 0.0625,0.03125 0.05391,0.01478 0.02675,-0.0071 0.0625,0 l 13.03125,3.5625 c 2.060012,6.280846 6.910832,11.146067 13.1875,13.21875 l 3.59375,13.03125 0,0.03125 a 0.99149819,0.99149819 0 0 0 0,0.0625 c 0.0039,0.01425 0.02758,0.01892 0.03125,0.03125 0.01153,0.03876 0.02261,0.100509 0.03125,0.125 0.0057,0.01614 -0.0041,0.02047 0,0.03125 9.17e-4,0.0024 -0.0016,0.02716 0,0.03125 8.09e-4,0.002 0.03122,-7.1e-5 0.03125,0 0.0014,0.0036 -0.0029,0.02407 0,0.03125 0.0058,0.01437 0.02342,0.01167 0.03125,0.03125 0.0078,0.01958 -0.0058,0.04791 0,0.0625 0.0029,0.0073 -0.0016,0.02715 0,0.03125 0,0 0.02977,5.81e-4 0.03125,0 0.0017,0.0043 -0.0029,0.02391 0,0.03125 0.0059,0.01469 0.02341,0.01167 0.03125,0.03125 0.0039,0.0098 -0.0037,0.02213 0,0.03125 0,0 0.09746,-0.02167 0.125,-0.03125 a 0.99149819,0.99149819 0 0 0 0.03125,0 0.99149819,0.99149819 0 0 0 0.15625,0.125 c -0.0804,0.0496 -0.217879,0.126402 -0.21875,0.125 0.0087,0.01444 0.0195,0.04292 0.03125,0.0625 0.01175,0.01958 0.02251,0.04792 0.03125,0.0625 0.0044,0.0073 0.02882,-0.0041 0.03125,0 0,0 0.16414,-0.100402 0.3125,-0.1875 a 0.99149819,0.99149819 0 0 0 0.09375,0.03125 c -0.170617,0.134525 -0.343766,0.28123 -0.34375,0.28125 0.0086,0.01142 0.01951,0.01559 0.03125,0.03125 0.01174,0.01566 0.02248,0.01954 0.03125,0.03125 0.0044,0.0059 -0.0025,0.0279 0,0.03125 0.0013,0.0017 0.03063,-8.29e-4 0.03125,0 0.0025,0.0034 -0.0044,0.0254 0,0.03125 0.0088,0.01171 0.0195,0.01559 0.03125,0.03125 0.01175,0.01566 0.0227,0.01984 0.03125,0.03125 0,0 0.65079,-0.463662 0.75,-0.53125 0.0028,-0.0019 0.02946,0.0012 0.03125,0 -0.0557,0.05802 -0.652088,0.691545 -0.65625,0.6875 0.01156,0.01156 0.04684,0.01559 0.0625,0.03125 0.01566,0.01566 0.01962,0.05086 0.03125,0.0625 0,0 0.71875,-0.6875 0.71875,-0.6875 0,0 -0.562548,0.812466 -0.5625,0.8125 0.01131,0.0085 0.0156,0.0195 0.03125,0.03125 0.01565,0.01175 0.01944,0.02238 0.03125,0.03125 0.0059,0.0044 0.02766,-0.0027 0.03125,0 -7.9e-4,9.27e-4 7.8e-5,0.03131 0,0.03125 0.0031,0.0023 0.02544,-0.0044 0.03125,0 0.01161,0.0087 0.01559,0.01951 0.03125,0.03125 0.01566,0.01174 0.01973,0.02261 0.03125,0.03125 0,0 0.625,-0.78125 0.625,-0.78125 0,0 -0.495636,0.846297 -0.5,0.84375 0.0039,0.0023 -0.0072,0.02691 0,0.03125 0.0058,0.0035 0.02415,-0.0043 0.03125,0 0.01065,0.0064 0.0195,0.0242 0.03125,0.03125 0.0026,0.0019 0.0282,-0.0023 0.03125,0 0,0 0.03125,0.03125 0.03125,0.03125 0,0 0.08364,-0.120962 0.125,-0.1875 0.183108,-0.193621 0.53125,-0.5625 0.53125,-0.5625 0,0 -0.339362,0.939199 -0.34375,0.9375 0.01449,0.0058 0.04292,-0.0078 0.0625,0 0.01958,0.0078 0.01678,0.02545 0.03125,0.03125 0.0072,0.0029 0.02742,-0.0015 0.03125,0 0,0 0.375,-0.90625 0.375,-0.90625 0,0 -0.156309,0.968741 -0.15625,0.96875 0.01405,0.0028 0.01168,0.02732 0.03125,0.03125 0.01957,0.0039 0.04763,-0.003 0.0625,0 0.0074,0.0015 0.02653,-9.44e-4 0.03125,0 0,0 0.03125,0 0.03125,0 0.01441,0.0029 0.01167,0.02733 0.03125,0.03125 0.01958,0.0039 0.04798,-0.0029 0.0625,0 0,0 0.21875,-0.96875 0.21875,-0.96875 0,0 -0.155948,0.9688 -0.15625,0.96875 0.005,8.36e-4 0.02247,-0.0015 0.03125,0 0.01756,0.0029 0.039,0.02734 0.0625,0.03125 0.0235,0.0039 0.04521,-0.0029 0.0625,0 0,0 0.1875,-0.96875 0.1875,-0.96875 0,0 0.03119,1.000001 0.03125,1 0.01427,-5e-6 0.01168,-6e-6 0.03125,0 0.01957,6e-6 0.04786,-8e-6 0.0625,0 0.0073,4e-6 0.02705,-2e-6 0.03125,0 0.0042,-2e-6 0.02393,4e-6 0.03125,0 0.01464,-8e-6 0.04293,6e-6 0.0625,0 0.01957,-6e-6 0.01698,-5e-6 0.03125,0 0,0 0.03125,-1 0.03125,-1 0,0 0.187426,0.968764 0.1875,0.96875 0.01729,-0.0029 0.039,0.0039 0.0625,0 0.0235,-0.0039 0.04494,-0.02833 0.0625,-0.03125 0.0088,-0.0015 0.02622,8.36e-4 0.03125,0 0,0 -0.15625,-0.96875 -0.15625,-0.96875 0,0 0.191117,0.967993 0.1875,0.96875 0.0039,-7.88e-4 0.02399,0.0015 0.03125,0 0.01452,-0.0029 0.04292,0.0039 0.0625,0 0.01958,-0.0039 0.01684,-0.02837 0.03125,-0.03125 0,0 -0.15625,-0.96875 -0.15625,-0.96875 0,0 0.187441,0.968761 0.1875,0.96875 0.0047,-9.44e-4 0.02382,0.0015 0.03125,0 0.01487,-0.003 0.04293,0.0039 0.0625,0 0.0098,-0.002 -0.0091,-0.02943 0,-0.03125 0,0 -0.125,-0.96875 -0.125,-0.96875 0,0 0.379755,0.904281 0.375,0.90625 0.0038,-0.0015 0.02401,0.0029 0.03125,0 0.01447,-0.0058 0.01167,-0.02342 0.03125,-0.03125 0.01958,-0.0078 0.04801,0.0058 0.0625,0 0,0 -0.34375,-0.9375 -0.34375,-0.9375 0,0 0.656205,0.750038 0.65625,0.75 0.01568,-0.01172 0.01905,-0.02211 0.03125,-0.03125 0.0031,-0.0023 0.02865,0.0019 0.03125,0 0.01175,-0.007 0.0206,-0.02486 0.03125,-0.03125 0.0071,-0.0043 0.02545,0.0035 0.03125,0 0,0 6.94e-4,-0.03004 0,-0.03125 0,0 -0.05323,-0.05181 -0.0625,-0.0625 -0.08665,-0.15155 -0.4375,-0.78125 -0.4375,-0.78125 0,0 0.593704,0.781286 0.59375,0.78125 0.0029,-0.0022 0.02549,0.0043 0.03125,0 0.01152,-0.0086 0.01559,-0.01951 0.03125,-0.03125 0.01566,-0.01174 0.01964,-0.02255 0.03125,-0.03125 0.0058,-0.0044 0.02812,0.0023 0.03125,0 0,0 7.13e-4,-0.03027 0,-0.03125 0.0036,-0.0027 0.02535,0.0044 0.03125,0 0.01181,-0.0089 0.0156,-0.0195 0.03125,-0.03125 0.0078,-0.0059 -0.0073,-0.02578 0,-0.03125 0,0 -0.53125,-0.8125 -0.53125,-0.8125 0,0 0.720904,0.685314 0.71875,0.6875 0.01163,-0.01164 0.01559,-0.04684 0.03125,-0.0625 0.01566,-0.01566 0.05094,-0.01969 0.0625,-0.03125 0,0 -0.6875,-0.71875 -0.6875,-0.71875 0,0 0.812466,0.562548 0.8125,0.5625 0.0086,-0.01141 0.0195,-0.01559 0.03125,-0.03125 0.01175,-0.01566 0.02246,-0.01954 0.03125,-0.03125 0.0044,-0.0059 -0.0025,-0.02788 0,-0.03125 6.21e-4,-8.29e-4 0.03,0.0017 0.03125,0 0.0025,-0.0033 -0.0044,-0.0254 0,-0.03125 0.0088,-0.01171 0.01951,-0.01559 0.03125,-0.03125 0.01174,-0.01566 0.02268,-0.01983 0.03125,-0.03125 0,0 -0.78125,-0.625 -0.78125,-0.625 0,0 0.844865,0.498118 0.84375,0.5 0.0024,-0.0041 0.02688,0.0073 0.03125,0 0.0087,-0.01458 0.0195,-0.04292 0.03125,-0.0625 0.01175,-0.01958 0.02258,-0.04806 0.03125,-0.0625 0,0 -0.84375,-0.53125 -0.84375,-0.53125 0,0 0.937478,0.34381 0.9375,0.34375 0.0057,-0.01428 -0.0078,-0.04292 0,-0.0625 0.0078,-0.01958 0.02537,-0.01656 0.03125,-0.03125 0.0029,-0.0073 -0.0017,-0.02694 0,-0.03125 0,0 0.03125,0 0.03125,0 0.0016,-0.0041 -0.0029,-0.02395 0,-0.03125 0.0058,-0.01459 -0.0078,-0.04292 0,-0.0625 0.0078,-0.01958 0.0255,-0.01688 0.03125,-0.03125 0,0 -0.90625,-0.40625 -0.90625,-0.40625 l -0.9375,-0.3125 c 0,0 1.907559,0.525415 1.90625,0.53125 0.0017,-0.0071 -0.0028,-0.01979 0,-0.03125 0.0056,-0.02292 0.03185,-0.06467 0.03125,-0.0625 0.0074,-0.02696 -0.0053,-0.0091 0,-0.03125 a 0.99149819,0.99149819 0 0 1 0,-0.03125 L 54.4375,68.65625 C 60.727589,66.591591 65.591591,61.72759 67.65625,55.4375 l 13.03125,-3.5625 0.03125,0 a 0.99149819,0.99149819 0 0 0 0.03125,0 0.99149819,0.99149819 0 0 0 0.09375,-0.0625 A 0.99149819,0.99149819 0 0 0 81,51.75 c 3.01e-4,8.1e-4 -10e-7,0.03125 0,0.03125 0.0036,-0.0014 0.02407,0.0029 0.03125,0 0.01437,-0.0058 0.01167,-0.02342 0.03125,-0.03125 0.01958,-0.0078 0.04791,0.0058 0.0625,0 0.0073,-0.0029 0.02715,0.0016 0.03125,0 0,0 5.81e-4,-0.02977 0,-0.03125 0.0043,-0.0017 0.02391,0.0029 0.03125,0 0.01469,-0.0059 0.01167,-0.02341 0.03125,-0.03125 0.0098,-0.0039 0.02213,0.0037 0.03125,0 0,0 -0.02167,-0.09746 -0.03125,-0.125 -0.0022,-0.0064 0.0026,-0.0237 0,-0.03125 a 0.99149819,0.99149819 0 0 0 0.125,-0.15625 c 0.0496,0.0804 0.126402,0.217879 0.125,0.21875 0.01444,-0.0087 0.04292,-0.0195 0.0625,-0.03125 0.01958,-0.01175 0.04792,-0.02251 0.0625,-0.03125 0.0073,-0.0044 -0.0041,-0.02882 0,-0.03125 0,0 -0.100402,-0.16414 -0.1875,-0.3125 a 0.99149819,0.99149819 0 0 0 0.03125,-0.09375 c 0.134525,0.170617 0.28123,0.343766 0.28125,0.34375 0.01142,-0.0086 0.01559,-0.01951 0.03125,-0.03125 0.01566,-0.01174 0.01954,-0.02248 0.03125,-0.03125 0.0059,-0.0044 0.0279,0.0025 0.03125,0 0.0017,-0.0013 -8.29e-4,-0.03063 0,-0.03125 0.0034,-0.0025 0.0254,0.0044 0.03125,0 0.01171,-0.0088 0.01559,-0.0195 0.03125,-0.03125 0.01566,-0.01175 0.01984,-0.0227 0.03125,-0.03125 0,0 -0.463662,-0.65079 -0.53125,-0.75 a 0.99149819,0.99149819 0 0 0 0,-0.03125 c 0.05802,0.0557 0.691545,0.652088 0.6875,0.65625 0.01156,-0.01156 0.01559,-0.04684 0.03125,-0.0625 0.01566,-0.01566 0.05086,-0.01962 0.0625,-0.03125 0,0 -0.6875,-0.71875 -0.6875,-0.71875 0,0 0.812466,0.562548 0.8125,0.5625 0.0085,-0.01131 0.0195,-0.0156 0.03125,-0.03125 0.01175,-0.01565 0.02238,-0.01944 0.03125,-0.03125 0.0044,-0.0059 -0.0027,-0.02766 0,-0.03125 9.27e-4,7.9e-4 0.03131,-7.8e-5 0.03125,0 0.0023,-0.0031 -0.0044,-0.02544 0,-0.03125 0.0087,-0.01161 0.01951,-0.01559 0.03125,-0.03125 0.01174,-0.01566 0.02261,-0.01973 0.03125,-0.03125 0,0 -0.78125,-0.625 -0.78125,-0.625 0,0 0.846297,0.495636 0.84375,0.5 0.0023,-0.0039 0.02691,0.0072 0.03125,0 0.0035,-0.0058 -0.0043,-0.02415 0,-0.03125 0.0064,-0.01065 0.0242,-0.0195 0.03125,-0.03125 0.0019,-0.0026 -0.0023,-0.0282 0,-0.03125 0,0 0.03125,-0.03125 0.03125,-0.03125 0,0 -0.120962,-0.08364 -0.1875,-0.125 -0.193621,-0.183108 -0.5625,-0.53125 -0.5625,-0.53125 0,0 0.939199,0.339362 0.9375,0.34375 0.0058,-0.01449 -0.0078,-0.04292 0,-0.0625 0.0078,-0.01958 0.02545,-0.01678 0.03125,-0.03125 0.0029,-0.0072 -0.0015,-0.02742 0,-0.03125 0,0 -0.90625,-0.375 -0.90625,-0.375 0,0 0.968741,0.156309 0.96875,0.15625 0.0028,-0.01405 0.02732,-0.01168 0.03125,-0.03125 0.0039,-0.01957 -0.003,-0.04763 0,-0.0625 0.0015,-0.0074 -9.44e-4,-0.02653 0,-0.03125 7.31e-4,-0.0037 -0.0014,-0.02405 0,-0.03125 0.0029,-0.01441 0.02733,-0.01167 0.03125,-0.03125 0.0039,-0.01958 -0.0029,-0.04798 0,-0.0625 0,0 -0.96875,-0.21875 -0.96875,-0.21875 0,0 0.9688,0.155948 0.96875,0.15625 8.36e-4,-0.005 -0.0015,-0.02247 0,-0.03125 0.0029,-0.01756 0.02734,-0.039 0.03125,-0.0625 0.0039,-0.0235 -0.0029,-0.04521 0,-0.0625 0,0 -0.96875,-0.1875 -0.96875,-0.1875 0,0 1.000001,-0.03119 1,-0.03125 -5e-6,-0.01427 -6e-6,-0.01168 0,-0.03125 6e-6,-0.01957 -8e-6,-0.04786 0,-0.0625 4e-6,-0.0073 -2e-6,-0.02705 0,-0.03125 -2e-6,-0.0042 4e-6,-0.02393 0,-0.03125 -8e-6,-0.01464 6e-6,-0.04293 0,-0.0625 -6e-6,-0.01957 -5e-6,-0.01698 0,-0.03125 0,0 -1,-0.03125 -1,-0.03125 0,0 0.968764,-0.187426 0.96875,-0.1875 -0.0029,-0.01729 0.0039,-0.039 0,-0.0625 -0.0039,-0.0235 -0.02833,-0.04494 -0.03125,-0.0625 -0.0015,-0.0088 8.36e-4,-0.02622 0,-0.03125 0,0 -0.96875,0.15625 -0.96875,0.15625 0,0 0.967993,-0.191117 0.96875,-0.1875 -7.88e-4,-0.0039 0.0015,-0.02399 0,-0.03125 -0.0029,-0.01452 0.0039,-0.04292 0,-0.0625 -0.0039,-0.01958 -0.02837,-0.01684 -0.03125,-0.03125 0,0 -0.96875,0.15625 -0.96875,0.15625 0,0 0.968761,-0.187441 0.96875,-0.1875 -9.44e-4,-0.0047 0.0015,-0.02382 0,-0.03125 -0.003,-0.01487 0.0039,-0.04293 0,-0.0625 -0.002,-0.0098 -0.02943,0.0091 -0.03125,0 0,0 -0.96875,0.125 -0.96875,0.125 0,0 0.904281,-0.379755 0.90625,-0.375 -0.0015,-0.0038 0.0029,-0.02401 0,-0.03125 -0.0058,-0.01447 -0.02342,-0.01167 -0.03125,-0.03125 -0.0078,-0.01958 0.0058,-0.04801 0,-0.0625 0,0 -0.9375,0.34375 -0.9375,0.34375 0,0 0.750038,-0.656205 0.75,-0.65625 -0.01172,-0.01568 -0.02211,-0.01905 -0.03125,-0.03125 -0.0023,-0.0031 0.0019,-0.02865 0,-0.03125 -0.0024,-0.0039 -0.02892,0.0039 -0.03125,0 -0.0022,-0.0028 3.7e-5,-0.0312 0,-0.03125 -0.0043,-0.0071 0.0035,-0.02545 0,-0.03125 0,0 -0.03125,0 -0.03125,0 0,0 -0.05181,0.05323 -0.0625,0.0625 -0.15155,0.08665 -0.78125,0.4375 -0.78125,0.4375 0,0 0.781286,-0.593704 0.78125,-0.59375 -0.0022,-0.0029 0.0043,-0.02549 0,-0.03125 -0.0086,-0.01152 -0.01951,-0.01559 -0.03125,-0.03125 -0.01174,-0.01566 -0.02255,-0.01964 -0.03125,-0.03125 -0.0044,-0.0058 0.0023,-0.02812 0,-0.03125 -0.0012,-0.0016 -0.03098,3.6e-4 -0.03125,0 -0.0027,-0.0036 0.0044,-0.02535 0,-0.03125 -0.0089,-0.01181 -0.0195,-0.0156 -0.03125,-0.03125 -0.0059,-0.0078 -0.02578,0.0073 -0.03125,0 0,0 -0.8125,0.53125 -0.8125,0.53125 0,0 0.685314,-0.720904 0.6875,-0.71875 -0.01164,-0.01163 -0.04684,-0.01559 -0.0625,-0.03125 -0.01566,-0.01566 -0.01969,-0.05094 -0.03125,-0.0625 0,0 -0.71875,0.6875 -0.71875,0.6875 0,0 0.562548,-0.812466 0.5625,-0.8125 -0.01141,-0.0086 -0.01559,-0.0195 -0.03125,-0.03125 -0.01566,-0.01175 -0.01954,-0.02246 -0.03125,-0.03125 -0.0059,-0.0044 -0.02788,0.0025 -0.03125,0 -8.29e-4,-6.21e-4 0.0017,-0.03 0,-0.03125 -0.0033,-0.0025 -0.0254,0.0044 -0.03125,0 -0.01171,-0.0088 -0.01559,-0.01951 -0.03125,-0.03125 -0.01566,-0.01174 -0.01983,-0.02268 -0.03125,-0.03125 0,0 -0.625,0.78125 -0.625,0.78125 0,0 0.498118,-0.844865 0.5,-0.84375 -0.0041,-0.0024 0.0073,-0.02688 0,-0.03125 -0.01458,-0.0087 -0.04292,-0.0195 -0.0625,-0.03125 -0.01958,-0.01175 -0.04806,-0.02258 -0.0625,-0.03125 0,0 -0.53125,0.84375 -0.53125,0.84375 0,0 0.34381,-0.937478 0.34375,-0.9375 -0.01428,-0.0057 -0.04292,0.0078 -0.0625,0 -0.01958,-0.0078 -0.01656,-0.02537 -0.03125,-0.03125 -0.0073,-0.0029 -0.02694,0.0017 -0.03125,0 -8.5e-4,-3.39e-4 0.002,-0.03043 0,-0.03125 -0.0041,-0.0016 -0.02395,0.0029 -0.03125,0 -0.01459,-0.0058 -0.04292,0.0078 -0.0625,0 -0.01958,-0.0078 -0.01688,-0.0255 -0.03125,-0.03125 0,0 -0.40625,0.90625 -0.40625,0.90625 l -0.3125,0.9375 c 0,0 0.525415,-1.907559 0.53125,-1.90625 -0.0071,-0.0017 -0.01979,0.0028 -0.03125,0 -0.02292,-0.0056 -0.06467,-0.03185 -0.0625,-0.03125 a 0.99149819,0.99149819 0 0 0 -0.03125,0 l -0.0625,0 A 0.99149819,0.99149819 0 0 0 80.5625,46.09375 L 67.65625,42.5625 C 65.591591,36.27241 60.72759,31.408409 54.4375,29.34375 L 50.875,16.25 a 0.99149819,0.99149819 0 0 0 -0.0625,-0.15625 c -0.0057,-0.01412 -0.02343,-0.01167 -0.03125,-0.03125 -0.0078,-0.01958 0.0059,-0.04769 0,-0.0625 -0.003,-0.0074 0.0018,-0.02667 0,-0.03125 -9.16e-4,-0.0023 -0.03049,0.0019 -0.03125,0 -0.0015,-0.0038 0.0029,-0.02402 0,-0.03125 -0.0058,-0.01447 -0.02342,-0.01168 -0.03125,-0.03125 -0.0078,-0.01957 0.0058,-0.04805 0,-0.0625 -0.0022,-0.0056 4.63e-4,-0.03008 0,-0.03125 -9.27e-4,-0.0023 -0.03085,0.001 -0.03125,0 -0.0019,-0.0046 0.003,-0.02384 0,-0.03125 -0.0059,-0.01482 -0.02341,-0.01168 -0.03125,-0.03125 -0.0039,-0.0098 0.0036,-0.02215 0,-0.03125 0,0 -0.09725,0.02233 -0.125,0.03125 A 0.99149819,0.99149819 0 0 0 50.375,15.625 c 0.06699,-0.04063 0.187192,-0.125506 0.1875,-0.125 -0.0087,-0.01456 -0.0195,-0.04292 -0.03125,-0.0625 -0.007,-0.01175 -0.02487,-0.02061 -0.03125,-0.03125 0,0 -0.173667,0.07857 -0.3125,0.15625 a 0.99149819,0.99149819 0 0 0 -0.15625,-0.03125 c 0.17198,-0.143007 0.341794,-0.283616 0.34375,-0.28125 -0.0023,-0.0029 0.0029,-0.02764 0,-0.03125 -0.01156,-0.01445 -0.01559,-0.01167 -0.03125,-0.03125 -0.01175,-0.01469 -0.02119,-0.04991 -0.03125,-0.0625 -3.4e-5,-4.7e-5 -0.03038,0.0012 -0.03125,0 -0.0028,-0.0038 0.0045,-0.0253 0,-0.03125 -0.0089,-0.01189 -0.0195,-0.0156 -0.03125,-0.03125 -0.0059,-0.0078 -0.0258,0.0073 -0.03125,0 -0.04213,0.02663 -0.8125,0.53125 -0.8125,0.53125 0,0 0.687351,-0.687649 0.6875,-0.6875 -8.42e-4,-8.41e-4 0.0017,-0.02957 0,-0.03125 -0.01171,-0.0117 -0.04683,-0.01559 -0.0625,-0.03125 -0.0094,-0.0094 -0.02276,-0.02276 -0.03125,-0.03125 0,0 -0.71875,0.65625 -0.71875,0.65625 0,0 0.468812,-0.874966 0.46875,-0.875 -0.01055,-0.0063 -0.01951,-0.02419 -0.03125,-0.03125 -0.01957,-0.01176 -0.04763,-0.02232 -0.0625,-0.03125 -0.0024,-0.0014 -0.02903,0.0013 -0.03125,0 -0.0037,-0.0022 0.0072,-0.02693 0,-0.03125 -0.01441,-0.0086 -0.04292,-0.0195 -0.0625,-0.03125 -0.01958,-0.01175 -0.04793,-0.0225 -0.0625,-0.03125 0,0 -0.53125,0.84375 -0.53125,0.84375 0,0 0.502002,-0.842537 0.5,-0.84375 -0.0044,-0.0026 0.0074,-0.02684 0,-0.03125 -0.01472,-0.0088 -0.04292,-0.01951 -0.0625,-0.03125 -0.0078,-0.0047 -0.02376,0.0045 -0.03125,0 0,0 -0.5625,0.8125 -0.5625,0.8125 0,0 0.343809,-0.937477 0.34375,-0.9375 -0.01444,-0.0058 -0.04292,0.0078 -0.0625,0 -0.01958,-0.0078 -0.01677,-0.02545 -0.03125,-0.03125 -0.0072,-0.0029 -0.0274,0.0015 -0.03125,0 0,0 -0.375,0.90625 -0.375,0.90625 0,0 0.156308,-0.968741 0.15625,-0.96875 -0.01399,-0.0028 -0.01168,-0.02732 -0.03125,-0.03125 -0.01957,-0.0039 -0.04762,0.003 -0.0625,0 -0.0074,-0.0015 -0.02649,9.51e-4 -0.03125,0 0,0 -0.03125,0 -0.03125,0 -0.0043,-7.12e-4 -0.02263,0.0014 -0.03125,0 -0.01724,-0.0029 -0.03901,-0.02733 -0.0625,-0.03125 -0.01175,-0.002 -0.02023,0.0018 -0.03125,0 -0.01102,-0.0018 -0.02247,0.0015 -0.03125,0 -0.0088,-0.0015 -0.02621,8.43e-4 -0.03125,0 -0.01479,-0.0029 -0.01168,-0.02735 -0.03125,-0.03125 -0.0098,-0.002 -0.02215,0.0018 -0.03125,0 0,0 -0.25,0.96875 -0.25,0.96875 0,0 -0.03118,-1.000001 -0.03125,-1 -0.01728,6e-6 -0.039,5e-6 -0.0625,0 -0.0235,-5e-6 -0.04498,8e-6 -0.0625,0 -0.0088,-4e-6 -0.02632,3e-6 -0.03125,0 0,0 0,1 0,1 l -0.0625,1 c 0,0 0.0593,-1.999974 0.0625,-2 -0.0021,3e-6 -0.0263,-2e-6 -0.03125,0 -0.0099,4e-6 -0.01524,2e-6 -0.03125,0 -0.03202,-3e-6 -0.06577,10e-6 -0.09375,0 -2.56e-4,-1.6e-5 -0.124744,0 -0.125,0 -2.56e-4,0 -0.124744,-1.6e-5 -0.125,0 z M 48,39.96875 c 5.032777,-10e-7 9.03125,3.998474 9.03125,9.03125 10e-7,5.032771 -3.998475,9.03125 -9.03125,9.03125 -5.032777,-3e-6 -9.03125,-3.998474 -9.03125,-9.03125 0,-5.032777 3.998474,-9.03125 9.03125,-9.03125 z"
       id="path3654"
       style="opacity:0.05;fill:#000000;fill-opacity:1;fill-rule:nonzero;stroke:none" />
    <path
       d="m 47.625,15.03125 c 9.78e-4,-1.92e-4 -0.157211,0.06276 -0.15625,0.0625 9.61e-4,-2.61e-4 -0.12594,0.03158 -0.125,0.03125 9.4e-4,-3.29e-4 -0.125915,0.03164 -0.125,0.03125 9.15e-4,-3.95e-4 -0.125884,0.06296 -0.125,0.0625 8.84e-4,-4.59e-4 -0.125849,0.09427 -0.125,0.09375 8.49e-4,-5.21e-4 -0.12581,0.06308 -0.125,0.0625 8.1e-4,-5.8e-4 -0.09452,0.09439 -0.09375,0.09375 7.67e-4,-6.36e-4 -0.125719,0.09444 -0.125,0.09375 7.19e-4,-6.89e-4 -0.09442,0.09449 -0.09375,0.09375 6.68e-4,-7.39e-4 -0.09436,0.09454 -0.09375,0.09375 6.14e-4,-7.85e-4 -0.06306,0.125826 -0.0625,0.125 5.57e-4,-8.26e-4 -0.09425,0.125864 -0.09375,0.125 4.96e-4,-8.64e-4 -0.06293,0.125897 -0.0625,0.125 4.33e-4,-8.97e-4 -0.06287,0.125926 -0.0625,0.125 3.68e-4,-9.26e-4 -0.03155,0.12595 -0.03125,0.125 3.02e-4,-9.5e-4 -0.03148,0.125969 -0.03125,0.125 L 42.40625,30 c -6.465018,1.911271 -11.467677,6.944164 -13.375,13.40625 l -13.5,3.6875 -0.03125,0 c -0.03993,0.01095 -0.125904,0.03154 -0.125,0.03125 0.0011,-3.57e-4 -0.157335,0.06295 -0.15625,0.0625 0.0011,-4.5e-4 -0.157294,0.06304 -0.15625,0.0625 0.001,-5.4e-4 -0.157245,0.09438 -0.15625,0.09375 9.95e-4,-6.26e-4 -0.125939,0.09446 -0.125,0.09375 9.39e-4,-7.07e-4 -0.125876,0.09453 -0.125,0.09375 8.76e-4,-7.83e-4 -0.125807,0.125854 -0.125,0.125 8.07e-4,-8.54e-4 -0.09448,0.125919 -0.09375,0.125 7.32e-4,-9.19e-4 -0.0944,0.125977 -0.09375,0.125 6.53e-4,-9.77e-4 -0.09432,0.157279 -0.09375,0.15625 5.68e-4,-0.001 -0.09423,0.126073 -0.09375,0.125 4.8e-4,-0.0011 -0.06289,0.157359 -0.0625,0.15625 3.88e-4,-0.0011 -0.03154,0.157388 -0.03125,0.15625 2.93e-4,-0.0011 -0.03145,0.157408 -0.03125,0.15625 1.97e-4,-0.0012 -0.03135,0.188671 -0.03125,0.1875 9.9e-5,-0.0012 0,0.157425 0,0.15625 0,-0.0012 9.9e-5,0.157421 0,0.15625 -9.9e-5,-0.0012 0.03145,0.188658 0.03125,0.1875 -1.97e-4,-0.0012 0.03154,0.157388 0.03125,0.15625 -2.93e-4,-0.0011 0.03164,0.157359 0.03125,0.15625 -3.88e-4,-0.0011 0.06298,0.157323 0.0625,0.15625 -4.8e-4,-0.0011 0.09432,0.126029 0.09375,0.125 -5.68e-4,-0.001 0.0944,0.157227 0.09375,0.15625 -6.53e-4,-9.77e-4 0.09448,0.125919 0.09375,0.125 -7.32e-4,-9.19e-4 0.09456,0.125854 0.09375,0.125 -8.07e-4,-8.54e-4 0.125876,0.125783 0.125,0.125 -8.76e-4,-7.83e-4 0.125939,0.09446 0.125,0.09375 -9.39e-4,-7.07e-4 0.125995,0.09438 0.125,0.09375 -9.95e-4,-6.26e-4 0.157294,0.09429 0.15625,0.09375 -0.001,-5.4e-4 0.157335,0.06295 0.15625,0.0625 -0.0011,-4.5e-4 0.157369,0.06286 0.15625,0.0625 -9.04e-4,-2.89e-4 0.08507,0.0203 0.125,0.03125 0.0095,0.0026 0.03147,5e-5 0.03125,0 l 13.5,3.6875 c 1.905149,6.448541 6.899166,11.458001 13.34375,13.375 l 3.71875,13.5 c -1.01e-4,-4.41e-4 -0.008,0.03329 0,0.0625 0.01279,0.04673 0.03147,0.09444 0.03125,0.09375 -3.57e-4,-0.0011 0.06295,0.157335 0.0625,0.15625 -4.5e-4,-0.0011 0.06304,0.157294 0.0625,0.15625 -5.4e-4,-0.001 0.09438,0.157245 0.09375,0.15625 -6.26e-4,-9.95e-4 0.09446,0.125939 0.09375,0.125 -7.07e-4,-9.39e-4 0.09453,0.125876 0.09375,0.125 -7.83e-4,-8.76e-4 0.125854,0.125807 0.125,0.125 -8.54e-4,-8.07e-4 0.125919,0.09448 0.125,0.09375 -9.19e-4,-7.32e-4 0.125977,0.0944 0.125,0.09375 -9.77e-4,-6.53e-4 0.157279,0.09432 0.15625,0.09375 -0.001,-5.68e-4 0.126073,0.09423 0.125,0.09375 -0.0011,-4.8e-4 0.157359,0.06289 0.15625,0.0625 -0.0011,-3.88e-4 0.157388,0.03154 0.15625,0.03125 -0.0011,-2.93e-4 0.157408,0.03145 0.15625,0.03125 -0.0012,-1.97e-4 0.188671,0.03135 0.1875,0.03125 -0.0012,-9.9e-5 0.157425,0 0.15625,0 -0.0012,0 0.157421,-9.9e-5 0.15625,0 -0.0012,9.9e-5 0.188658,-0.03145 0.1875,-0.03125 -0.0012,1.97e-4 0.157388,-0.03154 0.15625,-0.03125 -0.0011,2.93e-4 0.157359,-0.03164 0.15625,-0.03125 -0.0011,3.88e-4 0.157323,-0.06298 0.15625,-0.0625 -0.0011,4.8e-4 0.126029,-0.09432 0.125,-0.09375 -0.001,5.68e-4 0.157227,-0.0944 0.15625,-0.09375 -9.77e-4,6.53e-4 0.125919,-0.09448 0.125,-0.09375 -9.19e-4,7.32e-4 0.125854,-0.09456 0.125,-0.09375 -8.54e-4,8.07e-4 0.125783,-0.125876 0.125,-0.125 -7.83e-4,8.76e-4 0.09446,-0.125939 0.09375,-0.125 -7.07e-4,9.39e-4 0.09438,-0.125995 0.09375,-0.125 -6.26e-4,9.95e-4 0.09429,-0.157294 0.09375,-0.15625 -5.4e-4,0.001 0.06295,-0.157335 0.0625,-0.15625 -4.5e-4,0.0011 0.06286,-0.157369 0.0625,-0.15625 -2.89e-4,9.04e-4 0.0203,-0.08507 0.03125,-0.125 0.0026,-0.0095 5e-5,-0.03147 0,-0.03125 l 3.6875,-13.5 c 6.457558,-1.908918 11.466082,-6.917441 13.375,-13.375 l 13.5,-3.6875 c -2.2e-4,5e-5 0.02174,0.0026 0.03125,0 0.03993,-0.01095 0.125904,-0.03154 0.125,-0.03125 -0.0011,3.57e-4 0.157335,-0.06295 0.15625,-0.0625 -0.0011,4.5e-4 0.157294,-0.06304 0.15625,-0.0625 -0.001,5.4e-4 0.157245,-0.09438 0.15625,-0.09375 -9.95e-4,6.26e-4 0.125939,-0.09446 0.125,-0.09375 -9.39e-4,7.07e-4 0.125876,-0.09453 0.125,-0.09375 -8.76e-4,7.83e-4 0.125807,-0.125854 0.125,-0.125 -8.07e-4,8.54e-4 0.09448,-0.125919 0.09375,-0.125 -7.32e-4,9.19e-4 0.0944,-0.125977 0.09375,-0.125 -6.53e-4,9.77e-4 0.09432,-0.157279 0.09375,-0.15625 -5.68e-4,0.001 0.09423,-0.126073 0.09375,-0.125 -4.8e-4,0.0011 0.06289,-0.157359 0.0625,-0.15625 -3.88e-4,0.0011 0.03154,-0.157388 0.03125,-0.15625 -2.93e-4,0.0011 0.03145,-0.157408 0.03125,-0.15625 -1.97e-4,0.0012 0.03135,-0.188671 0.03125,-0.1875 -9.9e-5,0.0012 0,-0.157425 0,-0.15625 0,0.0012 -9.9e-5,-0.157421 0,-0.15625 9.9e-5,0.0012 -0.03145,-0.188658 -0.03125,-0.1875 1.97e-4,0.0012 -0.03154,-0.157388 -0.03125,-0.15625 2.93e-4,0.0011 -0.03164,-0.157359 -0.03125,-0.15625 3.88e-4,0.0011 -0.06298,-0.157323 -0.0625,-0.15625 4.8e-4,0.0011 -0.09432,-0.126029 -0.09375,-0.125 5.68e-4,0.001 -0.0944,-0.157227 -0.09375,-0.15625 6.53e-4,9.77e-4 -0.09448,-0.125919 -0.09375,-0.125 7.32e-4,9.19e-4 -0.09456,-0.125854 -0.09375,-0.125 8.07e-4,8.54e-4 -0.125876,-0.125783 -0.125,-0.125 8.76e-4,7.83e-4 -0.125939,-0.09446 -0.125,-0.09375 9.39e-4,7.07e-4 -0.125995,-0.09438 -0.125,-0.09375 9.95e-4,6.26e-4 -0.157294,-0.09429 -0.15625,-0.09375 0.001,5.4e-4 -0.157335,-0.06295 -0.15625,-0.0625 0.0011,4.5e-4 -0.157369,-0.06286 -0.15625,-0.0625 9.04e-4,2.89e-4 -0.08507,-0.0203 -0.125,-0.03125 l -0.03125,0 -13.5,-3.6875 c -1.908918,-6.457559 -6.917441,-11.466082 -13.375,-13.375 L 49.90625,16.5 c 3.08e-4,0.0012 -0.06291,-0.157423 -0.0625,-0.15625 4.13e-4,0.0012 -0.06302,-0.157382 -0.0625,-0.15625 5.16e-4,0.0011 -0.06312,-0.157331 -0.0625,-0.15625 6.15e-4,0.0011 -0.09446,-0.157272 -0.09375,-0.15625 7.08e-4,0.001 -0.125796,-0.157205 -0.125,-0.15625 7.96e-4,9.55e-4 -0.09463,-0.125881 -0.09375,-0.125 8.78e-4,8.81e-4 -0.125953,-0.125799 -0.125,-0.125 9.53e-4,7.99e-4 -0.15727,-0.09446 -0.15625,-0.09375 0.001,7.11e-4 -0.15733,-0.09437 -0.15625,-0.09375 0.0011,6.18e-4 -0.15738,-0.09427 -0.15625,-0.09375 0.0011,5.19e-4 -0.157422,-0.06292 -0.15625,-0.0625 0.0012,4.17e-4 -0.157454,-0.03156 -0.15625,-0.03125 0.0012,3.11e-4 -0.188727,-0.03145 -0.1875,-0.03125 0.0012,2.03e-4 -0.15749,-0.03134 -0.15625,-0.03125 0.0012,9.3e-5 -0.188744,1.8e-5 -0.1875,0 9.72e-4,4.7e-5 -0.100176,2e-5 -0.15625,0 -0.02243,-8e-6 -0.06289,1.9e-5 -0.0625,0 a 1.0037426,1.0037426 0 0 0 -0.125,0 z M 48,38.96875 C 53.563531,38.968749 58.03125,43.436471 58.03125,49 58.031251,54.563525 53.563529,59.03125 48,59.03125 42.43647,59.031247 37.96875,54.563529 37.96875,49 37.96875,43.43647 42.436471,38.96875 48,38.96875 z"
       id="path3650"
       style="opacity:0.1;fill:#000000;fill-opacity:1;fill-rule:nonzero;stroke:none" />
    <path
       d="M 47.90625,16.03125 A 0.96173271,0.96173271 0 0 0 47.0625,16.75 L 43.25,30.71875 C 36.621677,32.442683 31.47257,37.623684 29.75,44.25 l -14,3.8125 a 0.96173271,0.96173271 0 0 0 0,1.875 l 14,3.8125 c 1.720502,6.612289 6.860518,11.767962 13.46875,13.5 l 3.84375,14 a 0.96173271,0.96173271 0 0 0 1.875,0 l 3.8125,-14 c 6.621749,-1.723517 11.776483,-6.87825 13.5,-13.5 l 14,-3.8125 a 0.96173271,0.96173271 0 0 0 0,-1.875 L 66.25,44.25 C 64.526483,37.628251 59.371749,32.473517 52.75,30.75 l -3.8125,-14 A 0.96173271,0.96173271 0 0 0 47.90625,16.03125 z M 48,37.96875 C 54.103696,37.968749 59.03125,42.896306 59.03125,49 59.031251,55.103691 54.103694,60.03125 48,60.03125 41.896306,60.031247 36.96875,55.103694 36.96875,49 36.96875,42.896305 41.896306,37.96875 48,37.96875 z"
       id="path3646"
       style="opacity:0.15;fill:#000000;fill-opacity:1;fill-rule:nonzero;stroke:none" />
    <path
       d="m 48,17 -3.937499,14.4375 c -6.771954,1.514228 -12.07667,6.854121 -13.593751,13.625 L 16,49 30.46875,52.9375 c 1.514289,6.758414 6.808301,12.068282 13.5625,13.59375 L 48,81 51.9375,66.53125 C 58.70585,65.014736 64.014736,59.705851 65.53125,52.9375 L 80,49 65.53125,45.0625 C 64.014736,38.29415 58.70585,32.985264 51.9375,31.46875 L 48,17 z m 0,20 c 6.624002,-10e-7 12,5.376 12,12 10e-7,6.623997 -5.376,12 -12,12 -6.623999,-3e-6 -12,-5.376 -12,-12 0,-6.624001 5.376,-12 12,-12 z"
       id="path2870"
       style="opacity:0.3;fill:#000000;fill-opacity:1;fill-rule:nonzero;stroke:none" />
    <path
       d="m 48,16 -3.937499,14.4375 c -6.771954,1.514228 -12.07667,6.854121 -13.593751,13.625 L 16,48 30.46875,51.9375 c 1.514289,6.758414 6.808301,12.068282 13.5625,13.59375 L 48,80 51.9375,65.53125 C 58.70585,64.014736 64.014736,58.705851 65.53125,51.9375 L 80,48 65.53125,44.0625 C 64.014736,37.29415 58.70585,31.985264 51.9375,30.46875 L 48,16 z m 0,20 c 6.624002,-10e-7 12,5.376 12,12 10e-7,6.623997 -5.376,12 -12,12 -6.623999,-3e-6 -12,-5.376 -12,-12 0,-6.624001 5.376,-12 12,-12 z"
       id="path3439"
       style="fill:#ffffff;fill-opacity:1;fill-rule:nonzero;stroke:none" />
  </g>
</svg>
