<!-- Created with Inkscape (http://www.inkscape.org/) -->
<svg xmlns:dc="http://purl.org/dc/elements/1.1/" xmlns:cc="http://creativecommons.org/ns#" xmlns:rdf="http://www.w3.org/1999/02/22-rdf-syntax-ns#" xmlns:svg="http://www.w3.org/2000/svg" xmlns="http://www.w3.org/2000/svg" xmlns:xlink="http://www.w3.org/1999/xlink" xmlns:sodipodi="http://sodipodi.sourceforge.net/DTD/sodipodi-0.dtd" xmlns:inkscape="http://www.inkscape.org/namespaces/inkscape" width="128" height="128" id="svg26392" version="1.1" inkscape:version="0.48.4 r9939" sodipodi:docname="folder.svg">
  <defs id="defs26394">
    <linearGradient inkscape:collect="always" xlink:href="#linearGradient8272" id="linearGradient5891" gradientUnits="userSpaceOnUse" gradientTransform="matrix(2.6658408,0,0,2.7170994,-143.33283,-69.198823)" x1="97.538795" y1="16.962049" x2="97.538795" y2="44.260689"/>
    <linearGradient id="linearGradient8272">
      <stop offset="0" style="stop-color:#ffffff;stop-opacity:1" id="stop8274"/>
      <stop offset="0.0221225" style="stop-color:#ffffff;stop-opacity:0.23529412" id="stop8276"/>
      <stop offset="0.97909725" style="stop-color:#ffffff;stop-opacity:0.15686275" id="stop8278"/>
      <stop offset="1" style="stop-color:#ffffff;stop-opacity:0.39215687" id="stop8280"/>
    </linearGradient>
    <linearGradient inkscape:collect="always" xlink:href="#linearGradient6129-963-697-142-998-580-273" id="linearGradient5887" gradientUnits="userSpaceOnUse" gradientTransform="matrix(3.036796,0,0,2.6909701,-8.8831134,-65.364613)" x1="22.934725" y1="49.629246" x2="22.934725" y2="36.599415"/>
    <linearGradient id="linearGradient6129-963-697-142-998-580-273">
      <stop id="stop2661" style="stop-color:#0a0a0a;stop-opacity:0.498" offset="0"/>
      <stop id="stop2663" style="stop-color:#0a0a0a;stop-opacity:0" offset="1"/>
    </linearGradient>
    <linearGradient inkscape:collect="always" xlink:href="#linearGradient4632-0-6-4" id="linearGradient5883" gradientUnits="userSpaceOnUse" gradientTransform="matrix(1,0,0,1.0266674,147,-70.186593)" x1="-91" y1="43.999817" x2="-91" y2="119.05979"/>
    <linearGradient id="linearGradient4632-0-6-4">
      <stop style="stop-color:#c6c6c6;stop-opacity:1;" offset="0" id="stop4634-4-4-7"/>
      <stop style="stop-color:#9a9a9a;stop-opacity:1;" offset="1" id="stop4636-3-1-5"/>
    </linearGradient>
    <linearGradient inkscape:collect="always" xlink:href="#linearGradient5048-585" id="linearGradient5875" gradientUnits="userSpaceOnUse" gradientTransform="matrix(0.2134205,0,0,0.06641689,-13.147881,75.518568)" x1="302.85715" y1="366.64789" x2="302.85715" y2="609.50507"/>
    <linearGradient id="linearGradient5048-585">
      <stop id="stop2667" style="stop-color:#000000;stop-opacity:0" offset="0"/>
      <stop id="stop2669" style="stop-color:#000000;stop-opacity:1" offset="0.5"/>
      <stop id="stop2671" style="stop-color:#000000;stop-opacity:0" offset="1"/>
    </linearGradient>
    <radialGradient inkscape:collect="always" xlink:href="#linearGradient5060-179" id="radialGradient5877" gradientUnits="userSpaceOnUse" gradientTransform="matrix(0.08277507,0,0,0.06641689,65.628912,75.518568)" cx="605.71429" cy="486.64789" fx="605.71429" fy="486.64789" r="117.14286"/>
    <linearGradient id="linearGradient5060-179">
      <stop id="stop2675" style="stop-color:#000000;stop-opacity:1" offset="0"/>
      <stop id="stop2677" style="stop-color:#000000;stop-opacity:0" offset="1"/>
    </linearGradient>
    <radialGradient inkscape:collect="always" xlink:href="#linearGradient5060-820" id="radialGradient5879" gradientUnits="userSpaceOnUse" gradientTransform="matrix(-0.08277505,0,0,0.06641689,62.347829,75.518568)" cx="605.71429" cy="486.64789" fx="605.71429" fy="486.64789" r="117.14286"/>
    <linearGradient id="linearGradient5060-820">
      <stop id="stop2681" style="stop-color:#000000;stop-opacity:1" offset="0"/>
      <stop id="stop2683" style="stop-color:#000000;stop-opacity:0" offset="1"/>
    </linearGradient>
    <linearGradient inkscape:collect="always" xlink:href="#linearGradient9235" id="linearGradient5873" gradientUnits="userSpaceOnUse" gradientTransform="matrix(2.6658408,0,0,2.6469079,-143.33283,-66.049513)" x1="97.538795" y1="8.8103228" x2="97.538795" y2="44.260689"/>
    <linearGradient id="linearGradient9235">
      <stop id="stop9237" style="stop-color:#ffffff;stop-opacity:1" offset="0"/>
      <stop id="stop9239" style="stop-color:#ffffff;stop-opacity:0.23529412" offset="0.1088333"/>
      <stop id="stop9241" style="stop-color:#ffffff;stop-opacity:0.15686275" offset="0.97909725"/>
      <stop id="stop9243" style="stop-color:#ffffff;stop-opacity:0.39215687" offset="1"/>
    </linearGradient>
    <linearGradient inkscape:collect="always" xlink:href="#linearGradient3104-8-8-97-4-6-11-5-5-1-0" id="linearGradient5869" gradientUnits="userSpaceOnUse" gradientTransform="matrix(2.1683519,0,0,2.2464645,141.9485,-68.590473)" x1="-51.786404" y1="53.514328" x2="-51.786404" y2="3.6336823"/>
    <linearGradient id="linearGradient3104-8-8-97-4-6-11-5-5-1-0">
      <stop offset="0" style="stop-color:#000000;stop-opacity:0.32173914" id="stop3106-5-4-3-5-0-2-1-0-1-2"/>
      <stop offset="1" style="stop-color:#000000;stop-opacity:0.27826086" id="stop3108-4-3-7-8-2-0-7-9-4-9"/>
    </linearGradient>
    <linearGradient id="linearGradient6404-7-5">
      <stop id="stop6406-1-8" style="stop-color:#f9f9f9;stop-opacity:1" offset="0"/>
      <stop id="stop6408-9-6" style="stop-color:#c9c9c9;stop-opacity:1" offset="1"/>
    </linearGradient>
    <linearGradient y2="16.997795" x2="62.988873" y1="14.090554" x1="62.988873" gradientTransform="matrix(2.7209303,0,0,2.6722576,-117.2202,-66.213873)" gradientUnits="userSpaceOnUse" id="linearGradient26390" xlink:href="#linearGradient6404-7-5" inkscape:collect="always"/>
    <linearGradient gradientUnits="userSpaceOnUse" y2="55.16185" x2="59.568542" y1="-20.055233" x1="59.568542" id="linearGradient3828" xlink:href="#linearGradient7012-661-145-733-759-865-745" inkscape:collect="always"/>
    <radialGradient inkscape:collect="always" xlink:href="#linearGradient5060-820-5" id="radialGradient3371" gradientUnits="userSpaceOnUse" gradientTransform="matrix(-0.08277505,0,0,0.06641689,62.347829,75.518568)" cx="605.71429" cy="486.64789" fx="605.71429" fy="486.64789" r="117.14286"/>
    <linearGradient id="linearGradient5060-820-5">
      <stop offset="0" style="stop-color:#000000;stop-opacity:1" id="stop2681-9"/>
      <stop offset="1" style="stop-color:#000000;stop-opacity:0" id="stop2683-2"/>
    </linearGradient>
    <linearGradient id="linearGradient5060-179-6">
      <stop offset="0" style="stop-color:#000000;stop-opacity:1" id="stop2675-1"/>
      <stop offset="1" style="stop-color:#000000;stop-opacity:0" id="stop2677-9"/>
    </linearGradient>
    <radialGradient gradientTransform="matrix(0.08277507,0,0,0.06641689,65.628912,75.518568)" gradientUnits="userSpaceOnUse" xlink:href="#linearGradient5060-179-6" id="radialGradient2486" fy="486.64789" fx="605.71429" r="117.14286" cy="486.64789" cx="605.71429"/>
    <linearGradient id="linearGradient5048-585-6">
      <stop offset="0" style="stop-color:#000000;stop-opacity:0" id="stop2667-2"/>
      <stop offset="0.5" style="stop-color:#000000;stop-opacity:1" id="stop2669-8"/>
      <stop offset="1" style="stop-color:#000000;stop-opacity:0" id="stop2671-2"/>
    </linearGradient>
    <linearGradient gradientTransform="matrix(0.2134205,0,0,0.06641689,-13.147881,75.518568)" gradientUnits="userSpaceOnUse" xlink:href="#linearGradient5048-585-6" id="linearGradient2484" y2="609.50507" x2="302.85715" y1="366.64789" x1="302.85715"/>
    <linearGradient id="linearGradient3484">
      <stop offset="0" style="stop-color:#bdbdbd;stop-opacity:1" id="stop3486"/>
      <stop offset="1" style="stop-color:#d0d0d0;stop-opacity:1" id="stop3488"/>
    </linearGradient>
    <radialGradient r="21" fy="5.01718" fx="3" cy="5.01718" cx="3" gradientTransform="matrix(0,4.5810288,-7.2733208,0,40.564727,-55.579236)" gradientUnits="userSpaceOnUse" id="radialGradient2448" xlink:href="#linearGradient3484" inkscape:collect="always"/>
    <linearGradient id="linearGradient6404">
      <stop offset="0" style="stop-color:#f9f9f9;stop-opacity:1" id="stop6406"/>
      <stop offset="1" style="stop-color:#c9c9c9;stop-opacity:1" id="stop6408"/>
    </linearGradient>
    <linearGradient y2="17.324797" x2="62.988873" y1="12.724592" x1="62.988873" gradientTransform="matrix(2.7209303,0,0,2.6722576,-139.90895,-63.213879)" gradientUnits="userSpaceOnUse" id="linearGradient2446" xlink:href="#linearGradient6404" inkscape:collect="always"/>
    <linearGradient id="linearGradient3390">
      <stop offset="0" style="stop-color:#51751e;stop-opacity:1" id="stop3392"/>
      <stop offset="1" style="stop-color:#51751e;stop-opacity:1" id="stop3394"/>
    </linearGradient>
    <linearGradient y2="7.6327758" x2="82.453476" y1="45.114193" x1="82.453476" gradientTransform="matrix(2.6658408,0,0,2.6469079,-143.33284,-63.049513)" gradientUnits="userSpaceOnUse" id="linearGradient2443" xlink:href="#linearGradient3390" inkscape:collect="always"/>
    <linearGradient id="linearGradient7012-661-145-733-759-865-745">
      <stop offset="0" style="stop-color:#aacb7d;stop-opacity:1" id="stop2699"/>
      <stop offset="1" style="stop-color:#709937;stop-opacity:1" id="stop2701"/>
    </linearGradient>
    <linearGradient id="linearGradient6129-963-697-142-998-580-273-0">
      <stop offset="0" style="stop-color:#0a0a0a;stop-opacity:0.498" id="stop2661-9"/>
      <stop offset="1" style="stop-color:#0a0a0a;stop-opacity:0" id="stop2663-4"/>
    </linearGradient>
    <linearGradient y2="36.599415" x2="22.934725" y1="49.629246" x1="22.934725" gradientTransform="matrix(3.036796,0,0,2.6219687,-8.883109,-59.329533)" gradientUnits="userSpaceOnUse" id="linearGradient2438" xlink:href="#linearGradient6129-963-697-142-998-580-273-0" inkscape:collect="always"/>
    <linearGradient id="linearGradient6087-437-184-795-110-662-495">
      <stop offset="0" style="stop-color:#ffffff;stop-opacity:0.40000001" id="stop2693"/>
      <stop offset="1" style="stop-color:#ffffff;stop-opacity:0" id="stop2695"/>
    </linearGradient>
    <radialGradient r="61" fy="14.298984" fx="32.264069" cy="14.298984" cx="32.264069" gradientTransform="matrix(0,1.1019148,-1.5096234,0,53.85015,-54.743061)" gradientUnits="userSpaceOnUse" id="radialGradient2435" xlink:href="#linearGradient6087-437-184-795-110-662-495" inkscape:collect="always"/>
    <linearGradient id="linearGradient8265-821-176-38-919-66-249">
      <stop offset="0" style="stop-color:#ffffff;stop-opacity:0.2" id="stop2687"/>
      <stop offset="1" style="stop-color:#ffffff;stop-opacity:0" id="stop2689"/>
    </linearGradient>
    <linearGradient y2="33.95525" x2="15.214532" y1="22.292103" x1="11.566265" gradientTransform="matrix(2.6482074,0,0,2.640269,0.43155844,-62.206239)" gradientUnits="userSpaceOnUse" id="linearGradient2432" xlink:href="#linearGradient8265-821-176-38-919-66-249" inkscape:collect="always"/>
    <radialGradient r="21" fy="41.5" fx="32" cy="41.5" cx="32" gradientTransform="matrix(1.5278161,0,0,0.44561311,40.109879,36.923955)" gradientUnits="userSpaceOnUse" id="radialGradient3045" xlink:href="#linearGradient5060" inkscape:collect="always"/>
    <radialGradient r="16" fy="28.659998" fx="24.999998" cy="28.659998" cx="24.999998" gradientTransform="matrix(2.413307,0,0,0.71485147,19.473773,15.158232)" gradientUnits="userSpaceOnUse" id="radialGradient3042" xlink:href="#linearGradient6954" inkscape:collect="always"/>
    <linearGradient id="linearGradient3341-9">
      <stop id="stop3343-0" style="stop-color:#ffffff;stop-opacity:1" offset="0"/>
      <stop id="stop3345-3" style="stop-color:#ffffff;stop-opacity:0" offset="1"/>
    </linearGradient>
    <linearGradient y2="83.733253" x2="24.348665" y1="57.333424" x1="24.348665" gradientTransform="matrix(1.7783292,0,0,1.8434406,42.985775,-30.209167)" gradientUnits="userSpaceOnUse" id="linearGradient3157" xlink:href="#linearGradient3341-9" inkscape:collect="always"/>
    <linearGradient id="linearGradient6954">
      <stop id="stop6960" style="stop-color:#f5f5f5;stop-opacity:1" offset="0"/>
      <stop id="stop6962" style="stop-color:#d2d2d2;stop-opacity:1" offset="1"/>
    </linearGradient>
    <radialGradient r="8" fy="12.31301" fx="26.375898" cy="12.31301" cx="26.375898" gradientTransform="matrix(2.7336322,-0.23070537,0.21352492,2.7578424,8.3387072,-30.166807)" gradientUnits="userSpaceOnUse" id="radialGradient3036" xlink:href="#linearGradient6954" inkscape:collect="always"/>
    <linearGradient y2="37.4375" x2="17" y1="39" x1="22" gradientTransform="matrix(2.0357125,0,0,1.7632799,29.964349,-17.647783)" gradientUnits="userSpaceOnUse" id="linearGradient3033" xlink:href="#linearGradient5060" inkscape:collect="always"/>
    <linearGradient y2="38.599998" x2="43" y1="39" x1="38" gradientTransform="matrix(2.0357125,0,0,1.7632799,25.892925,-17.647783)" gradientUnits="userSpaceOnUse" id="linearGradient3030" xlink:href="#linearGradient5060" inkscape:collect="always"/>
    <linearGradient id="linearGradient5060">
      <stop id="stop5062" style="stop-color:#000000;stop-opacity:1" offset="0"/>
      <stop id="stop5064" style="stop-color:#000000;stop-opacity:0" offset="1"/>
    </linearGradient>
    <radialGradient r="4.6875" fy="33.1875" fx="30" cy="33.1875" cx="30" gradientTransform="matrix(3.5390736,-1.2733948e-6,4.9354815e-7,0.83069486,-17.172232,8.24621)" gradientUnits="userSpaceOnUse" id="radialGradient3027" xlink:href="#linearGradient5060" inkscape:collect="always"/>
    <linearGradient id="linearGradient3341-1">
      <stop id="stop3343-01" style="stop-color:#ffffff;stop-opacity:1" offset="0"/>
      <stop id="stop3345-37" style="stop-color:#ffffff;stop-opacity:0" offset="1"/>
    </linearGradient>
    <linearGradient y2="27.956825" x2="29.999992" y1="5.7028165" x1="29.999992" gradientTransform="matrix(1.4686816,0,0,1.6310829,44.939565,44.550264)" gradientUnits="userSpaceOnUse" id="linearGradient3255" xlink:href="#linearGradient3341-1" inkscape:collect="always"/>
  </defs>
  <sodipodi:namedview id="base" pagecolor="#ffffff" bordercolor="#666666" borderopacity="1.0" inkscape:pageopacity="0.0" inkscape:pageshadow="2" inkscape:zoom="1.9445437" inkscape:cx="91.690962" inkscape:cy="80.524204" inkscape:current-layer="layer1" showgrid="true" inkscape:document-units="px" inkscape:grid-bbox="true" inkscape:window-width="953" inkscape:window-height="731" inkscape:window-x="34" inkscape:window-y="55" inkscape:window-maximized="0"/>
  <metadata id="metadata26397">
    <rdf:RDF>
      <cc:Work rdf:about="">
        <dc:format>image/svg+xml</dc:format>
        <dc:type rdf:resource="http://purl.org/dc/dcmitype/StillImage"/>
        <dc:title/>
      </cc:Work>
    </rdf:RDF>
  </metadata>
  <g id="layer1" inkscape:label="Layer 1" inkscape:groupmode="layer" transform="translate(0,64)">
    <path inkscape:connector-curvature="0" style="color:#000000;fill:url(#linearGradient26390);fill-opacity:1;fill-rule:nonzero;stroke:none;stroke-width:1.00000012;marker:none;visibility:visible;display:inline;overflow:visible;enable-background:accumulate" d="m 12.999997,-42.968593 c -1.108,0 -2,0.892 -2,2 l 0,5.96875 -3.0000004,0 c -1.108,0 -2,0.892 -2,2 l 0,11 c 0,1.108 0.892,2 2,2 l 112.0000034,0 c 1.108,0 2,-0.892 2,-2 l 0,-11 c 0,-1.108 -0.892,-2 -2,-2 l -62.999999,0 0,-5.96875 c 0,-1.108 -0.892,-2 -2,-2 l -42.000004,0 z" id="rect8678-4"/>
    <path d="m 13.662787,-43.499683 c -1.87818,0.0205 -3.16279,0.9143 -3.16279,2.67225 l 0,5.32743 c -0.9606004,0 -1.4771004,-0.003 -2.1044004,0 -1.67856,0.008 -2.87762,0.94491 -2.87762,2.83298 0.0936,27.4976499 -0.018,28.9219399 -0.018,31.2565499 3.90581,0 117.0000034,-9.8866399 117.0000034,-14.1422999 l 0,-17.14209 c 0,-1.75796 -1.15786,-2.82564 -3.03605,-2.80514 l -61.963949,0 0,-5.19887 c 0,-1.75795 -1.18743,-2.80081 -2.94827,-2.80081 l -40.888944,0 z" inkscape:connector-curvature="0" id="path3468" style="opacity:0.8;color:#000000;fill:none;stroke:url(#linearGradient5869);stroke-width:1;stroke-linecap:butt;stroke-linejoin:miter;stroke-miterlimit:4;stroke-opacity:1;stroke-dasharray:none;stroke-dashoffset:0;marker:none;visibility:visible;display:inline;overflow:visible;enable-background:accumulate"/>
    <path style="color:#000000;fill:none;stroke:url(#linearGradient5873);stroke-width:0.99999982;stroke-linecap:round;stroke-linejoin:round;stroke-miterlimit:4;stroke-opacity:1;stroke-dasharray:none;stroke-dashoffset:0;marker:none;visibility:visible;display:inline;overflow:visible;enable-background:accumulate" d="m 13.499997,-42.499843 c -1.108,0 -2,0.892 -2,2 l 0,6 -3.0000004,0 c -1.108,0 -2,0.892 -2,2 l 0,11 c 0,1.108 0.892,2 2,2 l 111.0000034,0 c 1.108,0 2,-0.892 2,-2 l 0,-11 c 0,-1.108 -0.892,-2 -2,-2 l -62.999999,0 0,-6 c 0,-1.108 -0.892,-2 -2,-2 l -41.000004,0 z" id="rect8678" inkscape:connector-curvature="0"/>
    <g transform="matrix(1.0027339,0,0,0.9919518,-0.16331336,-57.066403)" id="g2479">
      <rect width="103.05159" height="16.129816" x="12.462574" y="99.870178" id="rect4173" style="opacity:0.3;fill:url(#linearGradient5875);fill-opacity:1;fill-rule:nonzero;stroke:none;stroke-width:1;marker:none;visibility:visible;display:inline;overflow:visible"/>
      <path d="m 115.51417,99.870734 c 0,0 0,16.128926 0,16.128926 4.26271,0.0304 10.30516,-3.61367 10.30516,-8.0655 0,-4.45183 -4.75687,-8.063426 -10.30516,-8.063426 z" inkscape:connector-curvature="0" id="path5058" style="opacity:0.3;fill:url(#radialGradient5877);fill-opacity:1;fill-rule:nonzero;stroke:none;stroke-width:1;marker:none;visibility:visible;display:inline;overflow:visible"/>
      <path d="m 12.462574,99.870734 c 0,0 0,16.128926 0,16.128926 -4.2627113,0.0304 -10.3051588,-3.61367 -10.3051588,-8.0655 0,-4.45183 4.7568636,-8.063426 10.3051588,-8.063426 z" inkscape:connector-curvature="0" id="path5018" style="opacity:0.3;fill:url(#radialGradient5879);fill-opacity:1;fill-rule:nonzero;stroke:none;stroke-width:1;marker:none;visibility:visible;display:inline;overflow:visible"/>
    </g>
    <path d="m 6.2499966,-24.500053 115.4999934,0.001 c 1.66861,0 2.75001,1.18375 2.75001,2.65543 l -2.71648,71.78068 c 0.0386,1.86211 -0.55015,2.60044 -2.48884,2.56139 L 9.3616366,52.451747 c -1.66859,0 -3.35116,-1.09895 -3.35116,-2.57064 l -2.51048,-71.72469 c 0,-1.47169 1.0814,-2.65647 2.75,-2.65647 z" inkscape:connector-curvature="0" id="path3369" style="fill:url(#linearGradient5883);fill-opacity:1;fill-rule:nonzero;stroke:none;stroke-width:0.99999982;marker:none;visibility:visible;display:inline;overflow:visible;enable-background:accumulate"/>
    <path d="m 5.7727166,-25.000063 116.4545434,0.001 c 1.6824,0 2.77274,1.19912 2.77274,2.68993 l -2.73893,72.7129 c 0.0389,1.88629 -0.5547,2.63421 -2.50941,2.59465 L 8.9100766,52.951017 c -1.68238,0 -3.37885,-1.11323 -3.37885,-2.60404 l -2.53123,-72.65607 c 0,-1.4908 1.09034,-2.69097 2.77272,-2.69097 z" inkscape:connector-curvature="0" id="path6127" style="opacity:0.4;fill:url(#linearGradient5887);fill-opacity:1;stroke:none"/>
    <path style="opacity:0.5;fill:none;stroke:url(#linearGradient5891);stroke-width:0.99999988;stroke-linecap:round;stroke-linejoin:round;stroke-miterlimit:4;stroke-opacity:1;stroke-dasharray:none;stroke-dashoffset:0;marker:none;visibility:visible;display:inline;overflow:visible;enable-background:accumulate" d="m 6.2499966,-23.499853 c -2.84882,0.29656 -1.40933,3.76689 -1.63989,5.72017 0.78584,22.5479499 1.57466,45.09583 2.35864,67.64381 1.18868,2.48974 4.4300904,1.28205 6.6383204,1.57433 35.235146,0.0205 70.470294,0.0412 105.705433,0.0617 2.566,-0.16531 1.15721,-3.81803 1.65357,-5.65555 0.85465,-22.56949 2.54292,-67.57135 2.54292,-67.57135 0,-1.16209 -0.77992,-1.7731 -2.20738,-1.7731 -37.089309,0 -77.962299,0 -115.0516134,0 z" id="path8263" inkscape:connector-curvature="0" sodipodi:nodetypes="cccccccccc"/>
    <path d="m 6.2499966,-24.500053 115.4999934,0.001 c 1.66861,0 2.75001,1.18375 2.75001,2.65543 l -2.71648,71.78068 c 0.0386,1.86211 -0.55015,2.60044 -2.48884,2.56139 L 9.3616366,52.451747 c -1.66859,0 -3.35116,-1.09895 -3.35116,-2.57064 l -2.51048,-71.72469 c 0,-1.47169 1.0814,-2.65647 2.75,-2.65647 z" inkscape:connector-curvature="0" id="path3369-7" style="opacity:0.3;fill:none;stroke:#000000;stroke-width:0.99999982;stroke-linecap:round;stroke-linejoin:round;stroke-miterlimit:4;stroke-opacity:1;stroke-dasharray:none;stroke-dashoffset:0;marker:none;visibility:visible;display:inline;overflow:visible;enable-background:accumulate"/>
    <g inkscape:label="Layer 1" id="layer1-1" transform="translate(1.37e-4,2.3e-4)">
      <g id="g3059">
        <path d="m 121.08413,55.416885 c 0,5.168225 -14.36455,9.357885 -32.08413,9.357885 -17.71958,0 -32.084137,-4.18966 -32.084137,-9.357885 0,-5.16821 14.364557,-9.35787 32.084137,-9.35787 17.71958,0 32.08413,4.18966 32.08413,9.35787 l 0,0 z" id="path3823" style="opacity:0.8;fill:url(#radialGradient3045);fill-opacity:1;stroke:none" inkscape:connector-curvature="0"/>
        <path d="m 80.998291,15.537099 c 0.846197,4.168698 1.587609,7.322027 0.901142,11.490723 -5.351925,4.624785 -19.581254,6.702924 -19.560729,11.490723 l -1.838718,14.3634 c 0,4.75962 12.759894,8.618065 28.500009,8.618065 15.740125,0 28.500015,-3.858445 28.500015,-8.618065 l -1.83871,-14.3634 c -0.022,-4.097708 -14.33417,-6.702919 -19.620451,-11.490723 -0.451543,-3.869189 0.179224,-7.621532 0.960856,-11.490723 l -16.003414,0 0,0 z" id="path3766" style="fill:url(#radialGradient3042);fill-opacity:1;stroke:#808080;stroke-width:0.99997264;stroke-miterlimit:4;stroke-opacity:1;stroke-dasharray:none" inkscape:connector-curvature="0"/>
        <path transform="translate(4.2584719e-8,-64.000005)" sodipodi:type="inkscape:offset" inkscape:radius="-1.0256431" inkscape:original="M 81 79.53125 C 81.846197 83.699948 82.592717 86.862554 81.90625 91.03125 C 76.554325 95.656035 62.323225 97.743451 62.34375 102.53125 L 60.5 116.875 C 60.5 121.63462 73.259885 125.5 89 125.5 C 104.74013 125.5 117.5 121.63462 117.5 116.875 L 115.65625 102.53125 C 115.63425 98.433542 101.31753 95.819054 96.03125 91.03125 C 95.579707 87.162061 96.218368 83.400441 97 79.53125 L 81 79.53125 z " style="color:#000000;fill:none;stroke:url(#linearGradient3157);stroke-width:0.99990523;stroke-linecap:butt;stroke-linejoin:miter;stroke-miterlimit:4;stroke-opacity:1;stroke-dasharray:none;stroke-dashoffset:0;marker:none;visibility:visible;display:inline;overflow:visible;enable-background:accumulate" id="path3155" d="m 82.21875,80.5625 c 0.72851,3.577131 1.330402,6.720859 0.6875,10.625 a 1.0257457,1.0257457 0 0 1 -0.34375,0.625 c -2.958489,2.556534 -7.875842,4.160418 -12.0625,5.84375 -2.093329,0.841666 -3.988808,1.702724 -5.28125,2.5625 -1.292442,0.85978 -1.846702,1.62395 -1.84375,2.3125 a 1.0257457,1.0257457 0 0 1 0,0.125 L 61.53125,116.875 c 0,0.009 -1.43e-4,0.0226 0,0.0312 0.01196,0.72602 0.52935,1.58206 1.8125,2.5 1.298445,0.92888 3.302952,1.83405 5.8125,2.59375 5.019097,1.5194 12.05765,2.46875 19.84375,2.46875 7.786108,0 14.82466,-0.94935 19.84375,-2.46875 2.50955,-0.7597 4.51406,-1.66487 5.8125,-2.59375 1.28315,-0.91794 1.80053,-1.77398 1.8125,-2.5 l 0,-0.0312 -1.84375,-14.21875 a 1.0257457,1.0257457 0 0 1 0,-0.125 c -0.001,-0.2139 -0.0751,-0.46123 -0.375,-0.8125 -0.29995,-0.35127 -0.80828,-0.74173 -1.46875,-1.15625 C 111.46032,99.733466 109.54697,98.877213 107.4375,98 103.21856,96.245575 98.259501,94.422057 95.34375,91.78125 A 1.0257457,1.0257457 0 0 1 95,91.15625 c -0.42406,-3.633688 0.140158,-7.10966 0.8125,-10.59375 l -13.59375,0 z"/>
        <path d="m 88.999998,-11.500113 c -6.903621,0 -12.500107,5.45346 -12.500107,12.180637 0.0541,2.489594 0.257634,5.447143 1.666681,12.180639 0.83334,2.610133 8.266339,10.116368 8.333405,10.986414 1.61613,0.870043 4.166703,0.870043 5.833382,0 0,-0.870046 6.666726,-8.376281 7.500065,-10.986414 1.585646,-6.998108 1.581646,-9.570501 1.666686,-12.180639 0,-6.727177 -5.596491,-12.180637 -12.500112,-12.180637 l 0,0 z" id="path3764" style="fill:url(#radialGradient3036);fill-opacity:1;stroke:#999999;stroke-width:0.99977899;stroke-miterlimit:4;stroke-opacity:1;stroke-dasharray:none" inkscape:connector-curvature="0"/>
        <path d="m 72.7143,58.525895 c -4.809063,-3.49517 -2.515874,-11.25477 -2.035712,-16.22217 -2.035709,3.52656 -2.035709,14.10624 -6.107137,14.10624 2.773884,0.80855 5.597314,1.70295 8.142849,2.11593 z" id="path3848" style="opacity:0.3;fill:url(#linearGradient3033);fill-opacity:1;stroke:none" inkscape:connector-curvature="0"/>
        <path d="m 105.28571,58.525895 c 4.78402,-3.07471 2.35474,-11.43648 2.0357,-16.22217 2.03572,3.52656 2.03572,14.10624 6.10714,14.10624 -2.77388,0.80855 -5.59731,1.70295 -8.14284,2.11593 z" id="path3850" style="opacity:0.3;fill:url(#linearGradient3030);fill-opacity:1;stroke:none" inkscape:connector-curvature="0"/>
        <path d="m 78.142868,30.407466 c 1.589606,3.144864 5.834267,5.407389 10.857133,5.407389 5.022865,0 9.267521,-2.262525 10.857133,-5.407389 l -21.714266,0 z" id="path3833" style="opacity:0.2;fill:url(#radialGradient3027);fill-opacity:1;stroke:none" inkscape:connector-curvature="0"/>
        <path transform="translate(4.2584719e-8,-64.000005)" sodipodi:type="inkscape:offset" inkscape:radius="-1.0486207" inkscape:original="M 89 52.5 C 82.09638 52.5 76.5 57.960324 76.5 64.6875 C 76.5541 67.177094 76.747202 70.141504 78.15625 76.875 C 78.98959 79.485133 86.432934 86.973704 86.5 87.84375 C 88.11613 88.713793 90.677071 88.713793 92.34375 87.84375 C 92.34375 86.973704 99.010411 79.485133 99.84375 76.875 C 101.4294 69.876892 101.41496 67.297638 101.5 64.6875 C 101.5 57.960324 95.903621 52.5 89 52.5 z " style="opacity:0.7;color:#000000;fill:none;stroke:url(#linearGradient3255);stroke-width:0.99956053;stroke-linecap:butt;stroke-linejoin:miter;stroke-miterlimit:4;stroke-opacity:1;stroke-dasharray:none;stroke-dashoffset:0;marker:none;visibility:visible;display:inline;overflow:visible;enable-background:accumulate" id="path3253" d="m 89,53.5625 c -6.339715,0 -11.41991,4.962754 -11.4375,11.09375 1.88e-4,0.0087 -1.91e-4,0.02258 0,0.03125 0.05369,2.432089 0.222492,5.297219 1.59375,11.875 0.0018,0.0055 0.02926,0.02542 0.03125,0.03125 0.127179,0.372917 0.658466,1.310163 1.4375,2.34375 0.791222,1.049757 1.79969,2.258669 2.78125,3.40625 0.98156,1.147581 1.952681,2.242331 2.6875,3.125 0.36741,0.441335 0.667601,0.82561 0.90625,1.15625 0.08077,0.111909 0.152452,0.207279 0.21875,0.3125 1.182726,0.535901 3.124857,0.569998 4.375,0.03125 0.05173,-0.09351 0.09441,-0.182691 0.15625,-0.28125 0.210254,-0.335102 0.485913,-0.744632 0.8125,-1.1875 0.653173,-0.885735 1.493228,-1.976165 2.375,-3.125 0.881772,-1.148835 1.809777,-2.35377 2.53125,-3.40625 0.696247,-1.01568 1.191603,-1.88465 1.34375,-2.3125 0.0099,-0.04382 0.02145,-0.05029 0.03125,-0.09375 1.5376,-6.817623 1.50948,-9.266087 1.59375,-11.875 0,-0.01062 3e-5,-0.02063 0,-0.03125 C 100.41991,58.525254 95.339716,53.5625 89,53.5625 z"/>
      </g>
    </g>
  </g>
</svg>
