<?xml version="1.0" encoding="UTF-8" standalone="no"?>
<!-- Created with Inkscape (http://www.inkscape.org/) -->

<svg
   xmlns:dc="http://purl.org/dc/elements/1.1/"
   xmlns:cc="http://creativecommons.org/ns#"
   xmlns:rdf="http://www.w3.org/1999/02/22-rdf-syntax-ns#"
   xmlns:svg="http://www.w3.org/2000/svg"
   xmlns="http://www.w3.org/2000/svg"
   xmlns:xlink="http://www.w3.org/1999/xlink"
   xmlns:sodipodi="http://sodipodi.sourceforge.net/DTD/sodipodi-0.dtd"
   xmlns:inkscape="http://www.inkscape.org/namespaces/inkscape"
   version="1.1"
   width="128"
   height="128"
   id="svg4737"
   inkscape:version="0.48.4 r9939"
   sodipodi:docname="folder-music.svg">
  <metadata
     id="metadata73">
    <rdf:RDF>
      <cc:Work
         rdf:about="">
        <dc:format>image/svg+xml</dc:format>
        <dc:type
           rdf:resource="http://purl.org/dc/dcmitype/StillImage" />
      </cc:Work>
    </rdf:RDF>
  </metadata>
  <sodipodi:namedview
     pagecolor="#ffffff"
     bordercolor="#666666"
     borderopacity="1"
     objecttolerance="10"
     gridtolerance="10"
     guidetolerance="10"
     inkscape:pageopacity="0"
     inkscape:pageshadow="2"
     inkscape:window-width="1088"
     inkscape:window-height="567"
     id="namedview71"
     showgrid="false"
     inkscape:zoom="1.84375"
     inkscape:cx="-77.830508"
     inkscape:cy="64"
     inkscape:window-x="342"
     inkscape:window-y="176"
     inkscape:window-maximized="0"
     inkscape:current-layer="svg4737" />
  <defs
     id="defs4739">
    <radialGradient
       cx="17.058823"
       cy="41.058823"
       r="5.7384715"
       fx="14.68769"
       fy="37.45607"
       id="radialGradient4126"
       xlink:href="#linearGradient7067"
       gradientUnits="userSpaceOnUse"
       gradientTransform="matrix(1.9168866,-0.34337478,0.067302,1.8255217,33.536835,-19.596267)" />
    <linearGradient
       id="linearGradient7067">
      <stop
         id="stop7069"
         style="stop-color:#ffffff;stop-opacity:1"
         offset="0" />
      <stop
         id="stop7071"
         style="stop-color:#ffffff;stop-opacity:0"
         offset="1" />
    </linearGradient>
    <linearGradient
       x1="33.399887"
       y1="120.82745"
       x2="33.399887"
       y2="233.02061"
       id="linearGradient4655"
       xlink:href="#linearGradient2372"
       gradientUnits="userSpaceOnUse"
       gradientTransform="matrix(0.59273948,0,0,0.59052393,62.337392,-77.419687)" />
    <linearGradient
       id="linearGradient2372">
      <stop
         id="stop2374"
         style="stop-color:#ffffff;stop-opacity:1"
         offset="0" />
      <stop
         id="stop2376"
         style="stop-color:#ffffff;stop-opacity:0"
         offset="1" />
    </linearGradient>
    <radialGradient
       cx="17.058823"
       cy="41.058823"
       r="5.7384715"
       fx="14.757765"
       fy="37.841019"
       id="radialGradient4132"
       xlink:href="#linearGradient3668"
       gradientUnits="userSpaceOnUse"
       gradientTransform="matrix(2.0040184,-0.33188368,0.04374149,1.9132533,66.517835,-30.894462)" />
    <linearGradient
       id="linearGradient3668">
      <stop
         id="stop3670"
         style="stop-color:#ffffff;stop-opacity:1"
         offset="0" />
      <stop
         id="stop3672"
         style="stop-color:#ffffff;stop-opacity:0"
         offset="1" />
    </linearGradient>
    <linearGradient
       x1="11.566265"
       y1="22.292103"
       x2="15.214532"
       y2="33.95525"
       id="linearGradient2432"
       xlink:href="#linearGradient8265-821-176-38-919-66-249"
       gradientUnits="userSpaceOnUse"
       gradientTransform="matrix(2.6482074,0,0,2.640269,0.43155844,-62.206239)" />
    <linearGradient
       id="linearGradient8265-821-176-38-919-66-249">
      <stop
         id="stop2687"
         style="stop-color:#ffffff;stop-opacity:0.2"
         offset="0" />
      <stop
         id="stop2689"
         style="stop-color:#ffffff;stop-opacity:0"
         offset="1" />
    </linearGradient>
    <radialGradient
       cx="32.264069"
       cy="14.298984"
       r="61"
       fx="32.264069"
       fy="14.298984"
       id="radialGradient2435"
       xlink:href="#linearGradient6087-437-184-795-110-662-495"
       gradientUnits="userSpaceOnUse"
       gradientTransform="matrix(0,1.1019148,-1.5096234,0,53.85015,-54.743061)" />
    <linearGradient
       id="linearGradient6087-437-184-795-110-662-495">
      <stop
         id="stop2693"
         style="stop-color:#ffffff;stop-opacity:0.40000001"
         offset="0" />
      <stop
         id="stop2695"
         style="stop-color:#ffffff;stop-opacity:0"
         offset="1" />
    </linearGradient>
    <linearGradient
       x1="22.934725"
       y1="49.629246"
       x2="22.934725"
       y2="36.599415"
       id="linearGradient2438"
       xlink:href="#linearGradient6129-963-697-142-998-580-273"
       gradientUnits="userSpaceOnUse"
       gradientTransform="matrix(3.036796,0,0,2.6219687,-8.883109,-59.329533)" />
    <linearGradient
       id="linearGradient6129-963-697-142-998-580-273">
      <stop
         id="stop2661"
         style="stop-color:#0a0a0a;stop-opacity:0.498"
         offset="0" />
      <stop
         id="stop2663"
         style="stop-color:#0a0a0a;stop-opacity:0"
         offset="1" />
    </linearGradient>
    <radialGradient
       cx="63.969177"
       cy="14.113381"
       r="23.097054"
       fx="63.969177"
       fy="14.113381"
       id="radialGradient2441"
       xlink:href="#linearGradient7012-661-145-733-759-865-745"
       gradientUnits="userSpaceOnUse"
       gradientTransform="matrix(4.1712212,-2.5183476e-7,1.6467508e-7,2.688962,-229.83186,-41.185231)" />
    <linearGradient
       id="linearGradient7012-661-145-733-759-865-745">
      <stop
         id="stop2699"
         style="stop-color:#cccccc;stop-opacity:1;"
         offset="0" />
      <stop
         id="stop2701"
         style="stop-color:#999999;stop-opacity:1;"
         offset="1" />
    </linearGradient>
    <linearGradient
       x1="82.453476"
       y1="45.114193"
       x2="82.453476"
       y2="7.6327758"
       id="linearGradient2443"
       xlink:href="#linearGradient3390"
       gradientUnits="userSpaceOnUse"
       gradientTransform="matrix(2.6658408,0,0,2.6469079,-143.33284,-63.049513)" />
    <linearGradient
       id="linearGradient3390">
      <stop
         id="stop3392"
         style="stop-color:#51751e;stop-opacity:1"
         offset="0" />
      <stop
         id="stop3394"
         style="stop-color:#51751e;stop-opacity:1"
         offset="1" />
    </linearGradient>
    <linearGradient
       x1="62.988873"
       y1="12.724592"
       x2="62.988873"
       y2="17.324797"
       id="linearGradient2446"
       xlink:href="#linearGradient6404"
       gradientUnits="userSpaceOnUse"
       gradientTransform="matrix(2.7209303,0,0,2.6722576,-139.90895,-63.213879)" />
    <linearGradient
       id="linearGradient6404">
      <stop
         id="stop6406"
         style="stop-color:#f9f9f9;stop-opacity:1"
         offset="0" />
      <stop
         id="stop6408"
         style="stop-color:#c9c9c9;stop-opacity:1"
         offset="1" />
    </linearGradient>
    <radialGradient
       cx="3"
       cy="5.01718"
       r="21"
       fx="3"
       fy="5.01718"
       id="radialGradient2448"
       xlink:href="#linearGradient3484"
       gradientUnits="userSpaceOnUse"
       gradientTransform="matrix(0,4.5810288,-7.2733208,0,40.564727,-55.579236)" />
    <linearGradient
       id="linearGradient3484">
      <stop
         id="stop3486"
         style="stop-color:#bdbdbd;stop-opacity:1"
         offset="0" />
      <stop
         id="stop3488"
         style="stop-color:#d0d0d0;stop-opacity:1"
         offset="1" />
    </linearGradient>
    <linearGradient
       x1="302.85715"
       y1="366.64789"
       x2="302.85715"
       y2="609.50507"
       id="linearGradient2484"
       xlink:href="#linearGradient5048-585"
       gradientUnits="userSpaceOnUse"
       gradientTransform="matrix(0.2134205,0,0,0.06641689,-13.147881,75.518568)" />
    <linearGradient
       id="linearGradient5048-585">
      <stop
         id="stop2667"
         style="stop-color:#000000;stop-opacity:0"
         offset="0" />
      <stop
         id="stop2669"
         style="stop-color:#000000;stop-opacity:1"
         offset="0.5" />
      <stop
         id="stop2671"
         style="stop-color:#000000;stop-opacity:0"
         offset="1" />
    </linearGradient>
    <radialGradient
       cx="605.71429"
       cy="486.64789"
       r="117.14286"
       fx="605.71429"
       fy="486.64789"
       id="radialGradient2486"
       xlink:href="#linearGradient5060-179"
       gradientUnits="userSpaceOnUse"
       gradientTransform="matrix(0.08277507,0,0,0.06641689,65.628912,75.518568)" />
    <linearGradient
       id="linearGradient5060-179">
      <stop
         id="stop2675"
         style="stop-color:#000000;stop-opacity:1"
         offset="0" />
      <stop
         id="stop2677"
         style="stop-color:#000000;stop-opacity:0"
         offset="1" />
    </linearGradient>
    <linearGradient
       id="linearGradient5060-820">
      <stop
         id="stop2681"
         style="stop-color:#000000;stop-opacity:1"
         offset="0" />
      <stop
         id="stop2683"
         style="stop-color:#000000;stop-opacity:0"
         offset="1" />
    </linearGradient>
    <radialGradient
       cx="605.71429"
       cy="486.64789"
       r="117.14286"
       fx="605.71429"
       fy="486.64789"
       id="radialGradient4735"
       xlink:href="#linearGradient5060-820"
       gradientUnits="userSpaceOnUse"
       gradientTransform="matrix(-0.08277505,0,0,0.06641689,62.347829,75.518568)" />
    <radialGradient
       inkscape:collect="always"
       xlink:href="#linearGradient7067"
       id="radialGradient3819"
       gradientUnits="userSpaceOnUse"
       gradientTransform="matrix(1.9168866,-0.34337478,0.067302,1.8255217,33.536835,44.403733)"
       cx="17.058823"
       cy="41.058823"
       fx="14.68769"
       fy="37.45607"
       r="5.7384715" />
    <linearGradient
       inkscape:collect="always"
       xlink:href="#linearGradient2372"
       id="linearGradient3822"
       gradientUnits="userSpaceOnUse"
       gradientTransform="matrix(0.59273948,0,0,0.59052393,62.337392,-13.419687)"
       x1="33.399887"
       y1="120.82745"
       x2="33.399887"
       y2="233.02061" />
    <radialGradient
       inkscape:collect="always"
       xlink:href="#linearGradient3668"
       id="radialGradient3825"
       gradientUnits="userSpaceOnUse"
       gradientTransform="matrix(2.0040184,-0.33188368,0.04374149,1.9132533,66.517835,33.105538)"
       cx="17.058823"
       cy="41.058823"
       fx="14.757765"
       fy="37.841019"
       r="5.7384715" />
    <linearGradient
       inkscape:collect="always"
       xlink:href="#linearGradient8265-821-176-38-919-66-249"
       id="linearGradient3829"
       gradientUnits="userSpaceOnUse"
       gradientTransform="matrix(2.6482074,0,0,2.640269,0.43155844,1.793761)"
       x1="11.566265"
       y1="22.292103"
       x2="15.214532"
       y2="33.95525" />
    <radialGradient
       inkscape:collect="always"
       xlink:href="#linearGradient6087-437-184-795-110-662-495"
       id="radialGradient3832"
       gradientUnits="userSpaceOnUse"
       gradientTransform="matrix(0,1.1019148,-1.5096234,0,53.85015,9.256939)"
       cx="32.264069"
       cy="14.298984"
       fx="32.264069"
       fy="14.298984"
       r="61" />
    <linearGradient
       inkscape:collect="always"
       xlink:href="#linearGradient6129-963-697-142-998-580-273"
       id="linearGradient3835"
       gradientUnits="userSpaceOnUse"
       gradientTransform="matrix(3.036796,0,0,2.6219687,-8.883109,4.670467)"
       x1="22.934725"
       y1="49.629246"
       x2="22.934725"
       y2="36.599415" />
    <radialGradient
       inkscape:collect="always"
       xlink:href="#linearGradient7012-661-145-733-759-865-745"
       id="radialGradient3838"
       gradientUnits="userSpaceOnUse"
       gradientTransform="matrix(4.1712212,-2.5183476e-7,1.6467508e-7,2.688962,-229.83186,22.814769)"
       cx="63.969177"
       cy="14.113381"
       fx="63.969177"
       fy="14.113381"
       r="23.097054" />
    <linearGradient
       inkscape:collect="always"
       xlink:href="#linearGradient6404"
       id="linearGradient3843"
       gradientUnits="userSpaceOnUse"
       gradientTransform="matrix(2.7209303,0,0,2.6722576,-139.90895,0.786121)"
       x1="62.988873"
       y1="12.724592"
       x2="62.988873"
       y2="17.324797" />
    <radialGradient
       inkscape:collect="always"
       xlink:href="#linearGradient3484"
       id="radialGradient3845"
       gradientUnits="userSpaceOnUse"
       gradientTransform="matrix(0,4.5810288,-7.2733208,0,40.564727,8.420764)"
       cx="3"
       cy="5.01718"
       fx="3"
       fy="5.01718"
       r="21" />
  </defs>
  <g
     id="g2479"
     transform="matrix(1.0027339,0,0,0.9919518,-0.16331036,9.933592)">
    <rect
       style="opacity:0.3;fill:url(#linearGradient2484);fill-opacity:1;fill-rule:nonzero;stroke:none;stroke-width:1;marker:none;visibility:visible;display:inline;overflow:visible"
       id="rect4173"
       y="99.870178"
       x="12.462574"
       height="16.129816"
       width="103.05159" />
    <path
       inkscape:connector-curvature="0"
       style="opacity:0.3;fill:url(#radialGradient2486);fill-opacity:1;fill-rule:nonzero;stroke:none;stroke-width:1;marker:none;visibility:visible;display:inline;overflow:visible"
       id="path5058"
       d="m 115.51417,99.870734 c 0,0 0,16.128926 0,16.128926 4.26271,0.0304 10.30516,-3.61367 10.30516,-8.0655 0,-4.45183 -4.75687,-8.063426 -10.30516,-8.063426 z" />
    <path
       inkscape:connector-curvature="0"
       style="opacity:0.3;fill:url(#radialGradient4735);fill-opacity:1;fill-rule:nonzero;stroke:none;stroke-width:1;marker:none;visibility:visible;display:inline;overflow:visible"
       id="path5018"
       d="m 12.462574,99.870734 c 0,0 0,16.128926 0,16.128926 -4.2627113,0.0304 -10.3051588,-3.61367 -10.3051588,-8.0655 0,-4.45183 4.7568636,-8.063426 10.3051588,-8.063426 z" />
  </g>
  <path
     inkscape:connector-curvature="0"
     style="fill:url(#linearGradient3843);fill-opacity:1;stroke:url(#radialGradient3845);stroke-width:1.00000012;stroke-linecap:round;stroke-linejoin:round;stroke-miterlimit:4;stroke-opacity:1;stroke-dasharray:none;display:inline"
     id="path3468"
     d="m 13.662787,23.50031 c -1.878179,0.0205 -3.162786,0.914302 -3.162786,2.672257 l 0,5.327428 c -0.9606038,0 -1.4771007,-0.0031 -2.1044011,0 C 6.7170422,31.508395 5.517981,32.444903 5.517981,34.332976 5.611611,61.830627 5.499999,63.254914 5.499999,65.589518 9.4058145,65.589518 122.5,55.702881 122.5,51.447225 l 0,-17.142097 c 0,-1.757952 -1.15786,-2.825632 -3.03605,-2.805133 l -61.963949,0 0,-5.19887 c 0,-1.757955 -1.187435,-2.800815 -2.948267,-2.800815 l -40.888947,0 z" />
  <path
     inkscape:connector-curvature="0"
     style="fill:url(#radialGradient3838);fill-opacity:1;fill-rule:nonzero;stroke:#505050;stroke-width:0.99999981999999998;stroke-linecap:round;stroke-linejoin:round;stroke-miterlimit:4;stroke-opacity:1;stroke-dasharray:none;stroke-dashoffset:0;marker:none;visibility:visible;display:inline;overflow:visible;enable-background:accumulate"
     id="path3369"
     d="m 6.2500001,44.499991 115.4999899,10e-4 c 1.66861,0 2.75001,1.153006 2.75001,2.586466 l -2.71648,69.916193 c 0.0386,1.81375 -0.55015,2.53289 -2.48884,2.49486 L 9.3616428,119.453 c -1.6685956,0 -3.3511615,-1.0704 -3.3511615,-2.50387 L 3.5,47.087461 c 0,-1.433462 1.0814044,-2.58747 2.7500001,-2.58747 z" />
  <path
     inkscape:connector-curvature="0"
     style="opacity:0.4;fill:url(#linearGradient3835);fill-opacity:1;stroke:none"
     id="path6127"
     d="m 5.7727205,43.999996 116.4545395,0.0011 c 1.6824,0 2.77274,1.16838 2.77274,2.620952 l -2.73893,70.848412 c 0.0389,1.83792 -0.5547,2.56667 -2.50941,2.52812 L 8.9100805,119.95238 c -1.68238,0 -3.37885,-1.08469 -3.37885,-2.53726 L 3.0000006,46.621966 c 0,-1.452575 1.0903399,-2.62197 2.7727199,-2.62197 z" />
  <path
     inkscape:connector-curvature="0"
     style="fill:none;stroke:url(#radialGradient3832);stroke-width:0.99999982;stroke-linecap:round;stroke-linejoin:round;stroke-miterlimit:4;stroke-opacity:1;stroke-dasharray:none;stroke-dashoffset:0;marker:none;visibility:visible;display:inline;overflow:visible;enable-background:accumulate"
     id="path3405"
     d="M 6.2683292,45.561609 C 3.7990813,45.450364 4.6063039,48.830953 4.7006757,51.348378 5.4832994,73.221836 6.2689057,95.09524 7.0496654,116.96874 74.055045,147.22182 142.28903,45.561609 117.55369,45.561609 c -37.095116,0 -74.190239,0 -111.2853608,0 z" />
  <path
     inkscape:connector-curvature="0"
     style="fill:url(#linearGradient3829);fill-opacity:1;fill-rule:nonzero;stroke:none;stroke-width:1;marker:none;visibility:visible;display:inline;overflow:visible;enable-background:accumulate"
     id="path3445"
     d="m 6.2797886,43.999996 c -1.9125577,0 -3.2795576,1.42446 -3.2795576,3.12208 -3.078e-4,0.0104 -3.078e-4,0.02082 0,0.03122 l 1.4055247,39.338208 c 0.00566,0.153467 0.077896,0.296864 0.1978652,0.392799 0.1199693,0.09593 0.2757829,0.1349 0.4268124,0.106734 L 123.75042,68.320999 c 0.24534,-0.04265 0.42755,-0.250802 0.43727,-0.499533 l 0.81208,-20.66817 c 3.1e-4,-0.0104 3.1e-4,-0.02082 0,-0.03122 0,-1.697614 -1.36698,-3.122079 -3.27956,-3.12208 l -115.4404214,0 z" />
  <path
     inkscape:connector-curvature="0"
     style="fill:#4d4d4d;fill-opacity:1;stroke:#333333;stroke-width:1;stroke-linecap:round;stroke-linejoin:round;stroke-miterlimit:4;stroke-opacity:1;stroke-dasharray:none"
     id="path3406"
     d="m 110.46413,51.506229 c 0,0 -33.443785,7.273649 -33.443785,7.273649 -2.384861,0.915767 -2.463347,2.809305 -2.520345,6.14492 0,0 0,37.848412 0,37.848412 -7.779166,-1.72718 -16.918764,4.31896 -16.985279,12.53209 -0.350247,5.27431 5.299249,9.6446 10.438231,9.16156 6.966078,-0.35589 13.292932,-7.07828 12.547048,-14.25637 0,-11.742062 0,-25.834732 0,-37.576788 0,0 28,-6.350756 28,-6.350756 0,0 0,19.932979 0,28.984549 -7.4543,-2.139358 -16.552438,2.764867 -17.787659,10.604825 -0.873621,5.59588 1.929316,9.83715 6.356112,11.15757 8.286477,2.70598 17.335357,-5.84821 16.358047,-14.38277 -0.0231,-16.008405 0.0698,-32.016856 0,-48.025209 -0.19473,-1.591208 -1.22263,-3.196138 -2.96237,-3.115682 z" />
  <path
     inkscape:connector-curvature="0"
     style="opacity:0.6;fill:url(#radialGradient3825);fill-opacity:1;stroke:none"
     id="path2716"
     d="m 114,104.00064 c 0,5.97284 -5.14871,11.70993 -11.5,12.81415 -6.351271,1.1042 -11.5,-2.84259 -11.5,-8.81543 0,-5.97285 5.148729,-11.709955 11.5,-12.814164 6.35129,-1.10422 11.5,2.842593 11.5,8.815444 z" />
  <path
     inkscape:connector-curvature="0"
     style="opacity:0.3;fill:url(#linearGradient3822);fill-opacity:1;fill-rule:evenodd;stroke:none"
     id="path2720"
     d="m 75,62.999995 c -0.04607,-1.796782 1,-4 3,-4 0.168813,0.289981 32.70773,-6.993323 32.70773,-6.993323 C 104.72616,57.133324 77.961335,58.01287 77,63.092138 c 0,0 0,19.645449 0,41.716512 C 76.568381,104.44335 75,103.5 75,103.5 l 0,-40.500005 z m 34,32.832984 0,-30.144604 c 0,0 2,-0.393683 2,-0.393683 0,0 0,31.688063 0,31.688063 l -2,-1.149776 z" />
  <path
     inkscape:connector-curvature="0"
     style="opacity:0.6;fill:url(#radialGradient3819);fill-opacity:1;stroke:none"
     id="path2712"
     d="m 80,111.5915 c 0,5.70136 -4.924864,11.17767 -10.999995,12.23171 C 62.924876,124.87723 58,121.10984 58,115.40848 58,109.70712 62.924876,104.23081 69.000005,103.17677 75.075136,102.12275 80,105.89016 80,111.5915 z" />
</svg>
