<?xml version="1.0" encoding="UTF-8" standalone="no"?>
<svg xmlns="http://www.w3.org/2000/svg" height="16" width="16" version="1.1">
 <path opacity=".45" d="m12.5 0-1.375 1.3438c1.776 1.6948 2.875 4.0702 2.875 6.6562 0 2.6155-1.1248 4.9882-2.9375 6.6875l1.407 1.312c2.175-2.045 3.531-4.859 3.531-8 0-3.126-1.343-5.9572-3.5-8zm-2.125 2-1.4375 1.3438c1.2665 1.1902 2.0625 2.8412 2.0625 4.6562 0 1.8296-0.80872 3.4638-2.0938 4.6562l1.4058 1.344c1.658-1.534 2.688-3.644 2.688-6 0-2.334-0.996-4.4696-2.625-6zm-5.125 1c-0.1237-0.0001-0.2318 0.0577-0.3438 0.1562l-1.9374 1.8438h-2c-0.54263 0.011-0.9688 0.462-0.9688 1.031v3.969c0 0.56894 0.42606 1 0.96875 1h1.9688l1.9688 1.8438c0.061891 0.05821 0.14821 0.09732 0.21875 0.125 0.0538 0.019 0.0704 0.031 0.1248 0.031 0.1632 0 0.3392-0.092 0.4688-0.25 0.1727-0.211 0.2844-0.539 0.2812-0.875v-7.75c0.0013-0.3922-0.151-0.7726-0.3751-0.969-0.1121-0.0981-0.2513-0.1561-0.375-0.1562zm3 1-1.4375 1.3438c0.724 0.68 1.1875 1.619 1.1875 2.656 0 1.052-0.476 1.974-1.2188 2.656l1.4376 1.344c1.1043-1.022 1.7812-2.4292 1.7812-4.0002 0-1.556-0.664-2.98-1.75-4z" fill="#bebebe"/>
</svg>
