<?xml version="1.0" encoding="UTF-8" standalone="no"?>
<svg xmlns="http://www.w3.org/2000/svg" height="16" width="16" version="1.1">
 <g fill="#bebebe">
  <path opacity=".45" d="m12.492 0-1.354 1.3505c1.777 1.6949 2.862 4.0495 2.862 6.6345 0 2.6155-1.1103 4.9943-2.9231 6.6936l1.385 1.321c2.174-2.045 3.538-4.873 3.538-8.015 0-3.126-1.351-5.9422-3.508-7.985z"/>
  <path opacity=".45" d="m10.375 1.9963-1.4375 1.3505c1.2665 1.1902 2.0625 2.8232 2.0625 4.6382 0 1.8296-0.80872 3.4754-2.0938 4.6679l1.4058 1.351c1.658-1.534 2.688-3.662 2.688-6.0192 0-2.333-0.996-4.4583-2.625-5.9887z"/>
  <path d="m5.25 12.991c-0.054405 0.000008-0.070953-0.01227-0.125-0.03125-0.070536-0.02768-0.15686-0.06679-0.21875-0.125l-1.9687-1.835h-1.9688c-0.54264 0-0.9687-0.431-0.9687-1v-3.969c0-0.569 0.42617-1.02 0.96875-1.031h2l1.9375-1.8525c0.22386-0.19707 0.49462-0.19639 0.71875 0s0.37645 0.57679 0.375 0.96875v7.75c0.00323 0.33586-0.10849 0.66414-0.28125 0.875-0.12957 0.15814-0.30553 0.24998-0.46875 0.25z"/>
  <path d="m8.25 3.9927-1.4375 1.3503c0.724 0.68 1.1875 1.605 1.1875 2.642 0 1.053-0.476 1.989-1.2188 2.672l1.4375 1.3505c1.1044-1.024 1.7813-2.453 1.7813-4.024 0-1.555-0.664-2.972-1.75-3.9923z"/>
 </g>
</svg>
