<?xml version="1.0" encoding="UTF-8" standalone="no"?>
<svg xmlns="http://www.w3.org/2000/svg" height="96" width="96" version="1.1" xmlns:xlink="http://www.w3.org/1999/xlink">
 <defs>
  <linearGradient id="b" y2="11.016" gradientUnits="userSpaceOnUse" x2="19" gradientTransform="matrix(0,-3,2.9653,0,27.336,93)" y1="11.016" x1="11">
   <stop stop-color="#c80000" offset="0"/>
   <stop stop-color="#f3604d" offset="1"/>
  </linearGradient>
  <linearGradient id="a" y2="-43.829" gradientUnits="userSpaceOnUse" x2="4.8829" gradientTransform="matrix(4.4444,0,0,4.4444,3.5556,221.04)" y1="-33.968" x1="4.8829">
   <stop stop-color="#aaa" offset="0"/>
   <stop stop-color="#f0f0f0" offset="1"/>
  </linearGradient>
 </defs>
 <g fill-rule="evenodd">
  <path opacity=".1" d="m53.844 35.031c0.000723-0.000084-0.09447 0.03137-0.09375 0.03125 0.000718-0.00012-0.09446 0.000155-0.09375 0 0.000711-0.000155-0.09445 0.03144-0.09375 0.03125 0.001-0.000262-0.126 0.03158-0.125 0.03125 0.001-0.000335-0.12598 0.06291-0.125 0.0625 0.000978-0.000408-0.1572 0.06298-0.15625 0.0625 0.000946-0.000478-0.12591 0.06305-0.125 0.0625 0.000908-0.000545-0.09462 0.09436-0.09375 0.09375 0.000866-0.00061-0.12582 0.06317-0.125 0.0625 0.00082-0.000671-0.09452 0.09448-0.09375 0.09375 0.000577-0.000547-0.06575 0.06523-0.09375 0.09375-0.0093 0.0095-0.03143 0.03145-0.03125 0.03125l-6 6.0625c0.000953-0.001-0.12585 0.15734-0.125 0.15625 0.000853-0.0011-0.0945 0.12616-0.09375 0.125 0.000746-0.0012-0.09438 0.15748-0.09375 0.15625 0.000632-0.0012-0.09426 0.18878-0.09375 0.1875 0.000513-0.0013-0.06289 0.15758-0.0625 0.15625 0.000389-0.0013-0.03151 0.18886-0.03125 0.1875 0.000261-0.0014-0.03138 0.18888-0.03125 0.1875 0.000131-0.0014 0 0.18888 0 0.1875 0-0.0014 0.000131 0.18888 0 0.1875-0.000131-0.0014 0.03151 0.18886 0.03125 0.1875-0.000261-0.0014 0.03164 0.18883 0.03125 0.1875-0.000389-0.0013 0.06301 0.15754 0.0625 0.15625-0.000513-0.0013 0.09438 0.18873 0.09375 0.1875-0.000632-0.0012 0.0945 0.15742 0.09375 0.15625-0.000746-0.0012 0.0946 0.12609 0.09375 0.125-0.000853-0.0011 0.12595 0.15725 0.125 0.15625l4.5 4.5625-4.5 4.5625c0.000953-0.001-0.12585 0.15734-0.125 0.15625 0.000853-0.0011-0.0945 0.12616-0.09375 0.125 0.000746-0.0012-0.09438 0.15748-0.09375 0.15625 0.000632-0.0012-0.09426 0.18878-0.09375 0.1875 0.000513-0.0013-0.06289 0.15758-0.0625 0.15625 0.000389-0.0013-0.03151 0.18886-0.03125 0.1875 0.000261-0.0014-0.03138 0.18888-0.03125 0.1875 0.000131-0.0014 0 0.18888 0 0.1875 0-0.0014 0.000131 0.18888 0 0.1875-0.000131-0.0014 0.03151 0.18886 0.03125 0.1875-0.000261-0.0014 0.03164 0.18883 0.03125 0.1875-0.000389-0.0013 0.06301 0.15754 0.0625 0.15625-0.000513-0.0013 0.09438 0.18873 0.09375 0.1875-0.000632-0.0012 0.0945 0.15742 0.09375 0.15625-0.000746-0.0012 0.0946 0.12609 0.09375 0.125-0.000853-0.0011 0.12595 0.15725 0.125 0.15625l6.0312 6.0938c-0.000987-0.001 0.12608 0.12593 0.125 0.125-0.0011-0.000927 0.15742 0.12582 0.15625 0.125-0.0012-0.000817 0.15749 0.09445 0.15625 0.09375-0.0012-0.000699 0.1888 0.09432 0.1875 0.09375-0.0013-0.000574 0.18885 0.06294 0.1875 0.0625-0.0014-0.000444 0.15764 0.06281 0.15625 0.0625-0.0014-0.00031 0.18892 0.03142 0.1875 0.03125-0.0014-0.000172 0.22018 0.000033 0.21875 0-0.0014-0.000033 0.18892-0.000106 0.1875 0-0.0014 0.000106 0.1889-0.03149 0.1875-0.03125-0.0014 0.000245 0.18887-0.03163 0.1875-0.03125-0.0014 0.000381 0.15758-0.06301 0.15625-0.0625-0.0013 0.000513 0.18877-0.06314 0.1875-0.0625-0.0013 0.000641 0.15746-0.09451 0.15625-0.09375-0.0012 0.000762 0.15737-0.12588 0.15625-0.125-0.0011 0.000876 0.15728-0.12598 0.15625-0.125l4.5938-4.5625 4.4062 4.5c-0.000508-0.000529 0.06303 0.063 0.0625 0.0625-0.000534-0.000503 0.09431 0.06298 0.09375 0.0625-0.000559-0.000476 0.06308 0.06295 0.0625 0.0625-0.000582-0.000447 0.09435 0.06292 0.09375 0.0625-0.000604-0.000417 0.06312 0.06289 0.0625 0.0625-0.000624-0.000386 0.09439 0.06285 0.09375 0.0625-0.000643-0.000354 0.09441 0.03157 0.09375 0.03125-0.00066-0.000321 0.09443 0.03154 0.09375 0.03125-0.000675-0.000288 0.06319 0.0315 0.0625 0.03125-0.000689-0.000253 0.09445 0.03147 0.09375 0.03125-0.0007-0.000218 0.09446 0.03143 0.09375 0.03125-0.000711-0.000183 0.12572 0.0314 0.125 0.03125-0.000719-0.000147 0.09448 0.03136 0.09375 0.03125-0.000725-0.00011 0.09448 0.000074 0.09375 0s0.09448 0.000037 0.09375 0c-0.000733-0.000037 0.09448 0 0.09375 0-0.000734 0 0.09448-0.000037 0.09375 0-0.000733 0.000037 0.09448-0.000074 0.09375 0s0.09448-0.00011 0.09375 0c-0.000725 0.00011 0.09447-0.0314 0.09375-0.03125-0.000719 0.000147 0.12571-0.03143 0.125-0.03125-0.000711 0.000183 0.09445-0.03147 0.09375-0.03125-0.0007 0.000218 0.09444-0.0315 0.09375-0.03125-0.000689 0.000253 0.06318-0.03154 0.0625-0.03125-0.000675 0.000288 0.09441-0.03157 0.09375-0.03125-0.00066 0.000321 0.09439-0.0316 0.09375-0.03125-0.000643 0.000354 0.09437-0.06289 0.09375-0.0625-0.000624 0.000386 0.0631-0.06292 0.0625-0.0625-0.000604 0.000417 0.09433-0.06295 0.09375-0.0625-0.000582 0.000447 0.06306-0.06298 0.0625-0.0625-0.000559 0.000476 0.09428-0.063 0.09375-0.0625-0.000534 0.000503 0.06301-0.06303 0.0625-0.0625l6.2188-6.2812c-0.000982 0.001 0.12588-0.15737 0.125-0.15625-0.000876 0.0011 0.12576-0.15746 0.125-0.15625-0.000762 0.0012 0.09439-0.15752 0.09375-0.15625-0.000641 0.0013 0.06301-0.18883 0.0625-0.1875-0.000513 0.0013 0.06288-0.15762 0.0625-0.15625-0.000381 0.0014 0.0315-0.1889 0.03125-0.1875-0.000245 0.0014 0.03136-0.18892 0.03125-0.1875-0.000106 0.0014-0.000033-0.18892 0-0.1875 0.000033 0.0014-0.000172-0.22016 0-0.21875 0.000172 0.0014-0.03156-0.18889-0.03125-0.1875 0.00031 0.0014-0.06294-0.1576-0.0625-0.15625 0.000444 0.0014-0.06307-0.1888-0.0625-0.1875 0.000574 0.0013-0.09445-0.18874-0.09375-0.1875 0.000699 0.0012-0.09457-0.15742-0.09375-0.15625 0.000817 0.0012-0.12593-0.15733-0.125-0.15625 0.000927 0.0011-0.12603-0.12599-0.125-0.125l-4.406-4.313 4.4062-4.3125c-0.001 0.000987 0.12593-0.12608 0.125-0.125-0.000927 0.0011 0.12582-0.15742 0.125-0.15625-0.000817 0.0012 0.09445-0.15749 0.09375-0.15625-0.000699 0.0012 0.09432-0.1888 0.09375-0.1875-0.000574 0.0013 0.06294-0.18885 0.0625-0.1875-0.000444 0.0014 0.06281-0.15764 0.0625-0.15625-0.00031 0.0014 0.03142-0.18892 0.03125-0.1875-0.000172 0.0014 0.000033-0.22018 0-0.21875-0.000033 0.0014-0.000106-0.18892 0-0.1875 0.000106 0.0014-0.0315-0.1889-0.03125-0.1875 0.000245 0.0014-0.03163-0.18887-0.03125-0.1875 0.000381 0.0014-0.06301-0.15758-0.0625-0.15625 0.000513 0.0013-0.06314-0.18877-0.0625-0.1875 0.000641 0.0013-0.09451-0.15746-0.09375-0.15625 0.000762 0.0012-0.12588-0.15737-0.125-0.15625 0.000876 0.0011-0.12598-0.15728-0.125-0.15625l-6.2188-6.2812c0.000508 0.000529-0.06303-0.063-0.0625-0.0625 0.000534 0.000503-0.09431-0.06298-0.09375-0.0625 0.000559 0.000476-0.06308-0.06295-0.0625-0.0625 0.000582 0.000447-0.09435-0.06292-0.09375-0.0625 0.000604 0.000417-0.06312-0.06289-0.0625-0.0625 0.000624 0.000386-0.09439-0.06285-0.09375-0.0625 0.000643 0.000354-0.09441-0.03157-0.09375-0.03125 0.00066 0.000321-0.09443-0.03154-0.09375-0.03125 0.000675 0.000288-0.06319-0.0315-0.0625-0.03125 0.000689 0.000253-0.09445-0.03147-0.09375-0.03125 0.0007 0.000218-0.09446-0.03143-0.09375-0.03125 0.000711 0.000183-0.12572-0.0314-0.125-0.03125 0.000719 0.000147-0.09448-0.03136-0.09375-0.03125 0.000725 0.00011-0.09448-0.000074-0.09375 0s-0.09448-0.000037-0.09375 0c0.000733 0.000037-0.09448 0-0.09375 0 0.000734 0-0.09448 0.000037-0.09375 0 0.000733-0.000037-0.09448 0.000074-0.09375 0s-0.09448 0.00011-0.09375 0c0.000725-0.00011-0.09447 0.0314-0.09375 0.03125 0.000719-0.000147-0.12571 0.03143-0.125 0.03125 0.000711-0.000183-0.09445 0.03147-0.09375 0.03125 0.0007-0.000218-0.09444 0.0315-0.09375 0.03125 0.000689-0.000253-0.06318 0.03154-0.0625 0.03125 0.000675-0.000288-0.09441 0.03157-0.09375 0.03125 0.00066-0.000321-0.09439 0.0316-0.09375 0.03125 0.000643-0.000354-0.09437 0.06289-0.09375 0.0625 0.000624-0.000386-0.0631 0.06292-0.0625 0.0625 0.000604-0.000417-0.09433 0.06295-0.09375 0.0625 0.000582-0.000447-0.06306 0.06298-0.0625 0.0625 0.000559-0.000476-0.09428 0.063-0.09375 0.0625 0.000534-0.000503-0.06301 0.06303-0.0625 0.0625l-4.4062 4.5-4.5625-4.5312c0.000171 0.000172-0.02075-0.0212-0.03125-0.03125-0.021-0.0201-0.06286-0.06283-0.0625-0.0625 0.000539 0.000491-0.06306-0.06296-0.0625-0.0625 0.000563 0.000463-0.06309-0.06294-0.0625-0.0625 0.000585 0.000435-0.09436-0.03166-0.09375-0.03125 0.000606 0.000405-0.09438-0.06287-0.09375-0.0625 0.000626 0.000374-0.06314-0.06284-0.0625-0.0625 0.000644 0.000342-0.09441-0.03156-0.09375-0.03125 0.00066 0.000309-0.09443-0.03153-0.09375-0.03125 0.000675 0.000276-0.09444-0.03149-0.09375-0.03125 0.000688 0.000242-0.09445-0.03146-0.09375-0.03125 0.000699 0.000207-0.09446-0.03142-0.09375-0.03125 0.000708 0.000172-0.09447-0.03139-0.09375-0.03125 0.000716 0.000136-0.09447-0.0001-0.09375 0 0.000722 0.0001-0.09448-0.03131-0.09375-0.03125 0.000726 0.000064-0.09448-0.000028-0.09375 0 0.000728 0.000028-0.09448 0.000009-0.09375 0a0.99658 0.99658 0 0 0 -0.0625 0c0.000726-0.000047-0.09447 0.000084-0.09375 0z"/>
  <path opacity=".15" d="m53.812 36.062a0.95278 0.95278 0 0 0 -0.46875 0.28125l-6.0312 6.0938a0.95278 0.95278 0 0 0 0 1.3125l5.188 5.25-5.1875 5.25a0.95278 0.95278 0 0 0 0 1.3125l6.0312 6.0938a0.95278 0.95278 0 0 0 1.3438 0.03125l5.2812-5.25 5.125 5.2188a0.95278 0.95278 0 0 0 1.375 0l6.22-6.281a0.95278 0.95278 0 0 0 -0.03 -1.344l-5.157-5.031 5.156-5.031a0.95278 0.95278 0 0 0 0.032 -1.344l-6.2188-6.2812a0.95278 0.95278 0 0 0 -1.375 0l-5.125 5.2188-5.2812-5.25a0.95278 0.95278 0 0 0 -0.875 -0.25z"/>
  <path opacity=".3" d="m48 54.906 6.023 6.094 5.931-5.906 5.838 5.906 6.208-6.281-5.838-5.719 5.838-5.719-6.208-6.281-5.838 5.906-5.931-5.906-6.023 6.094 5.838 5.906-5.838 5.906z"/>
 </g>
 <path opacity="0.08" d="m30.531 24.062c-1.7927 0.20235-3.165 1.1756-4.3125 2.2188-1.1475 1.0431-2.1164 2.1735-3.125 2.9375-1.3093 1.0352-2.306 2.2779-3.2812 2.8438-3.1967 0.12508-6.712-0.46705-10.219 0.53125a0.98188 0.98188 0 0 0 -0.0622 0.032c-1.9385 0.74179-3.1866 2.253-3.8438 3.9375-0.64541 1.6544-0.76937 3.4767-0.625 5.1562 0.0003985 0.03101-0.0003817 0.06273 0 0.09375 0.07303 5.9352-0.15928 11.925 0.125 17.938a0.98188 0.98188 0 0 0 0 0.125c0.65414 4.195 4.8514 6.5249 8.75 6.0312 0.04188-0.0053 0.0832 0.006 0.125 0h6.0312c2.5473 2.3332 4.9775 4.876 7.7188 7.1562a0.98188 0.98188 0 0 0 0.125 0.09375c1.2974 0.75429 2.6636 0.94414 3.875 0.65625s2.2461-1.0182 3.0625-1.9375c1.5915-1.7921 2.4321-4.3555 2.0625-6.7188-0.0096-0.06136 0.01126-0.12643 0-0.1875-0.01371-11.239 0.01905-22.472-0.03125-33.719a0.98188 0.98188 0 0 0 0 -0.0625c-0.09064-1.6312-0.64935-3.3148-1.6875-4.6875-1.0381-1.3727-2.6298-2.4185-4.5625-2.4375a0.98188 0.98188 0 0 0 -0.125 0z"/>
 <path opacity=".1" d="m30.656 25.031c-3.0019 0.33882-4.7128 3.2599-6.9688 4.9688-1.2032 0.95134-2.2258 2.343-3.5312 3.0312-3.4223 0.18072-6.9621-0.44488-10.281 0.5-3.3271 1.2732-4.1366 5.0136-3.8438 8.1875 0.077082 5.9996-0.15809 12.013 0.125 18 0.56836 3.6449 4.3264 5.7115 7.7812 5.2188h6.5312c2.6823 2.4328 5.1878 5.0617 7.9688 7.375 4.4375 2.5799 8.2838-3.0759 7.5312-7.1562-0.01432-11.305 0.01931-22.602-0.03125-33.906-0.15915-2.8643-2.0944-6.1874-5.2812-6.2188z"/>
 <path opacity=".15" d="m30.656 26.094c-0.3458-0.00005-0.63266 0.11439-0.84375 0.1875a0.90419 0.90419 0 0 0 -0.03125 0c-0.37429 0.14485-0.86239 0.3615-1.2812 0.75l-7.719 7.062h-8.4688c-2.8962 0-5.2188 2.3526-5.2188 5.3125v19.031c0 2.9599 2.2915 5.4375 5.2188 5.4375h8.5938l7.594 7.126a0.90419 0.90419 0 0 0 0.03125 0.03125c0.634 0.5504 1.402 0.87554 2.1875 0.875 0.78555-0.000542 1.5537-0.32731 2.1875-0.875 1.2774-1.1038 2.0074-2.9672 2-4.9375v-34.126c0.01644-1.6858-0.51911-3.2944-1.4688-4.4375-0.7279-0.87616-1.724-1.4373-2.7812-1.4375z"/>
 <path opacity=".3" d="m30.656 27c-0.24295-0.000035-0.32115 0.04141-0.5625 0.125-0.31499 0.1219-0.69237 0.30615-0.96875 0.5625l-8 7.3125h-8.8125c-2.4239 0-4.313 1.901-4.313 4.406v19.031c0 2.5055 1.8891 4.5312 4.3125 4.5312h8.9375l7.875 7.375c0.9997 0.86788 2.1866 0.86486 3.1875 0 1.0009-0.86487 1.694-2.5239 1.6875-4.25v-34.126c0.01442-1.4791-0.47854-2.9464-1.25-3.875-0.578-0.695-1.364-1.092-2.093-1.092z"/>
 <path d="m30.656 26c-0.24295-0.000035-0.32115 0.04141-0.5625 0.125-0.31499 0.1219-0.69237 0.30615-0.96875 0.5625l-8 7.3125h-8.8125c-2.4239 0-4.313 1.901-4.313 4.406v19.031c0 2.5055 1.8891 4.5312 4.3125 4.5312h8.9375l7.875 7.375c0.9997 0.86788 2.1866 0.86486 3.1875 0 1.0009-0.86487 1.694-2.5239 1.6875-4.25v-34.126c0.01442-1.4791-0.47854-2.9464-1.25-3.875-0.578-0.695-1.364-1.092-2.093-1.092z" fill="url(#a)"/>
 <path opacity=".6" d="m30.656 26c-0.24295-0.000035-0.32115 0.04141-0.5625 0.125-0.31499 0.1219-0.69237 0.30615-0.96875 0.5625l-8 7.3125h-8.8125c-2.4239 0-4.313 1.901-4.313 4.406v2c0-2.505 1.8891-4.406 4.312-4.406h8.8125l8-7.3125c0.27638-0.25635 0.65376-0.4406 0.96875-0.5625 0.24135-0.08359 0.31955-0.12504 0.5625-0.125 0.72886 0.000111 1.5152 0.3973 2.0938 1.0938 0.77146 0.92859 1.2644 2.3959 1.25 3.875v-2c0.01442-1.4791-0.47854-2.9464-1.25-3.875-0.578-0.697-1.364-1.094-2.093-1.094z" fill="#fff"/>
 <path fill="url(#b)" d="m48 53.906 6.023 6.094 5.931-5.906 5.838 5.906 6.208-6.281-5.838-5.719 5.838-5.719-6.208-6.281-5.838 5.906-5.931-5.906-6.023 6.094 5.838 5.906-5.838 5.906z" fill-rule="evenodd"/>
 <path opacity=".2" d="m54.031 36-6.031 6.094l1 1 5.031-5.094 5.938 5.906 5.812-5.906 5.219 5.25 1-0.969-6.219-6.281-5.812 5.906-5.938-5.906zm-0.195 11.976-5.836 5.93 1 1l4.844-4.906-0.008-2.024zm12.343 0.047-0.023 1.977 4.844 4.75 1-1.031-5.821-5.696z" fill-rule="evenodd" fill="#fff"/>
</svg>
