<?xml version="1.0" encoding="UTF-8" standalone="no"?>
<svg xmlns="http://www.w3.org/2000/svg" height="16" width="16" version="1.1">
 <g fill="#bebebe">
  <path d="m2.5 14.75c0 0.692 0.5575 1.25 1.25 1.25h8.5c0.692 0 1.25-0.558 1.25-1.25v-11.5c0-0.6925-0.558-1.25-1.25-1.25h-1.75v-1.5c0-0.277-0.223-0.5-0.5-0.5h-4c-0.277 0-0.5 0.223-0.5 0.5v1.5h-1.75c-0.6925 0-1.25 0.5575-1.25 1.25zm2-1.5v-8.5c0-0.416 0.3345-0.75 0.75-0.75h5.5c0.4155 0 0.75 0.3345 0.75 0.75v8.5c0 0.416-0.334 0.75-0.75 0.75h-5.5c-0.4155 0-0.75-0.334-0.75-0.75z"/>
  <rect opacity=".45" rx="0" ry="0" height="10" width="7" y="4" x="4.5"/>
 </g>
</svg>
