<?xml version="1.0" encoding="UTF-8" standalone="no"?>
<svg xmlns="http://www.w3.org/2000/svg" height="16" width="16" version="1.1">
 <path d="m8 1c-4.4183 0-8 2.9163-8 6.5312 0 2.3027 1.4592 4.3333 3.6562 5.5-0.08355 0.60818-0.4801 2.1159-2.2812 2.625 2.3328 0.25353 3.8963-0.89153 4.7188-1.75 0.61176 0.12255 1.2483 0.1875 1.9062 0.1875 4.4183 0 8-2.9475 8-6.5625s-3.5817-6.5312-8-6.5312zm0.15625 1.9375c0.30744-0.026412 0.57854 0.063643 0.8125 0.25 0.23775 0.18605 0.38146 0.4303 0.40625 0.71875 0.02479 0.28847-0.07873 0.52613-0.28125 0.75-0.19906 0.21976-0.44256 0.34859-0.75 0.375-0.3074 0.0264-0.5751-0.0365-0.8125-0.2188-0.2378-0.186-0.3815-0.4303-0.4063-0.7187-0.0248-0.2885 0.0788-0.5574 0.2813-0.7813s0.4425-0.3486 0.75-0.375zm-0.78125 3.125c0.45166-0.03881 0.83191 0.05074 1.0938 0.25 0.2653 0.19515 0.40742 0.46332 0.4375 0.8125 0.0062 0.07212 0.0033 0.19119 0 0.375 0.00048 0.18349-0.03001 0.37552-0.0625 0.53125l-0.3125 1.6875c-0.0265 0.1361-0.0468 0.2952-0.0625 0.4692-0.0156 0.173-0.0387 0.287-0.0312 0.374 0.0189 0.221 0.082 0.367 0.1875 0.438s0.2883 0.115 0.5312 0.094c0.1139-0.01 0.2653-0.044 0.4063-0.094 0.1406-0.054 0.2193-0.089 0.2812-0.125l-0.0625 0.5c-0.363 0.18-0.6575 0.311-0.875 0.406-0.2171 0.099-0.4852 0.162-0.7812 0.188-0.4555 0.039-0.8205-0.021-1.0938-0.219-0.2698-0.202-0.4081-0.471-0.4375-0.812-0.0115-0.13284-0.0072-0.26798 0-0.40625 0.0069-0.14206 0.0045-0.32182 0.03125-0.5l0.3125-1.6875c0.0281-0.1637 0.048-0.3268 0.0625-0.4695 0.018-0.1468 0.0414-0.2573 0.0313-0.375-0.0183-0.2125-0.093-0.3615-0.1875-0.4375s-0.2533-0.1149-0.5-0.0937c-0.1215 0.0104-0.2492 0.0447-0.375 0.0937-0.122 0.0487-0.2244 0.083-0.3125 0.125l0.09375-0.5c0.2961-0.1502 0.5698-0.2933 0.8432-0.4048 0.2731-0.1152 0.5308-0.1972 0.7813-0.2187z" fill="#bebebe"/>
</svg>
