<?xml version="1.0" encoding="UTF-8" standalone="no"?>
<svg xmlns="http://www.w3.org/2000/svg" height="16" width="16" version="1.1">
 <path d="m8 0-1 3h2l-1-3zm-5.6562 2.3438 1.4062 2.8124 1.4062-1.4062-2.8124-1.4062zm11.312 0-2.812 1.4062 1.406 1.4062 1.406-2.8124zm-5.6562 1.6562c-2.2091 0-4 1.7909-4 4s1.7909 4 4 4 4-1.7909 4-4-1.791-4-4-4zm0 1.5c1.3807 0 2.5 1.1193 2.5 2.5s-1.1193 2.5-2.5 2.5-2.5-1.1193-2.5-2.5 1.1193-2.5 2.5-2.5zm-5 1.5-3 1 3 1v-2zm10 0v2l3-1-3-1zm-9.2502 3.844-1.4062 2.812 2.8124-1.406-1.4062-1.406zm8.5 0-1.4062 1.4062 2.8125 1.4062-1.406-2.812zm-5.25 2.156 1 3 1-3h-2z" fill="#bebebe"/>
</svg>
