<?xml version="1.0" encoding="UTF-8" standalone="no"?>
<svg xmlns="http://www.w3.org/2000/svg" height="96" width="96" version="1.1" xmlns:xlink="http://www.w3.org/1999/xlink">
 <defs>
  <linearGradient id="b" y2="11.016" gradientUnits="userSpaceOnUse" x2="19" gradientTransform="matrix(0,-3,2.9653,0,13.336,93)" y1="11.016" x1="11">
   <stop stop-color="#c80000" offset="0"/>
   <stop stop-color="#f3604d" offset="1"/>
  </linearGradient>
  <linearGradient id="a" y2="24.267" gradientUnits="userSpaceOnUse" x2="39.196" y1="72" x1="39">
   <stop stop-color="#aaa" offset="0"/>
   <stop stop-color="#f0f0f0" offset="1"/>
  </linearGradient>
 </defs>
 <path opacity="0.08" d="m12 21.969c-4.9542 0-9.0312 4.077-9.0312 9.0312v36c0 4.9542 4.077 9.0312 9.0312 9.0312h66c4.9542 0 9.0312-4.077 9.0312-9.0312v-6.9688h0.96875c2.7526 0 5.0312-2.2787 5.0312-5.0312v-12c0-2.7526-2.2787-5.0312-5.0312-5.0312h-0.969v-6.969c0-4.954-4.077-9.031-9.031-9.031h-66zm4 12.062h58c0.6901 0 0.96875 0.27864 0.96875 0.96875v28c0 0.69011-0.27864 0.96875-0.96875 0.96875h-58c-0.69011 0-0.96875-0.27864-0.96875-0.96875v-28c0-0.6901 0.27864-0.96875 0.96875-0.96875z"/>
 <path opacity=".1" d="m12 23.031c-4.3781 0-7.9688 3.5907-7.9688 7.9688v36c0 4.3781 3.5907 7.9688 7.9688 7.9688h66c4.3781 0 7.9688-3.5907 7.9688-7.9688v-8.031h2.031c2.1707 0 3.9688-1.7981 3.9688-3.9688v-12c0-2.171-1.798-3.969-3.969-3.969h-2.031v-8.031c0-4.378-3.591-7.969-7.969-7.969h-66zm4 9.9375h58c1.1884 0 2.0312 0.84288 2.0312 2.0312v28c0 1.1884-0.84288 2.0312-2.0312 2.0312h-58c-1.1884 0-2.0312-0.84288-2.0312-2.0312v-28c0-1.1884 0.84288-2.0312 2.0312-2.0312z"/>
 <path opacity=".15" d="m12 23.969c-3.8714 0-7.0312 3.1598-7.0312 7.0312v36c0 3.8714 3.1598 7.0312 7.0312 7.0312h66c3.8714 0 7.0312-3.1598 7.0312-7.0312v-8.969h2.969c1.6533 0 3.0312-1.3779 3.0312-3.0312v-12c0-1.653-1.378-3.031-3.031-3.031h-2.969v-8.969c0-3.871-3.16-7.031-7.031-7.031h-66zm4 8.0625h58c1.6707 0 2.9688 1.2981 2.9688 2.9688v28c0 1.6707-1.2981 2.9688-2.9688 2.9688h-58c-1.6707 0-2.9688-1.2981-2.9688-2.9688v-28c0-1.6707 1.2981-2.9688 2.9688-2.9688z"/>
 <path opacity=".3" d="m12 25c-3.3273 0-6 2.6727-6 6v36c0 3.3273 2.6727 6 6 6h66c3.3273 0 6-2.6727 6-6v-10h4c1.108 0 2-0.892 2-2v-12c0-1.108-0.892-2-2-2h-4v-10c0-3.3273-2.6727-6-6-6h-66zm4 6h58c2.216 0 4 1.784 4 4v28c0 2.216-1.784 4-4 4h-58c-2.216 0-4-1.784-4-4v-28c0-2.216 1.784-4 4-4z"/>
 <path d="m12 24c-3.3273 0-6 2.6727-6 6v36c0 3.3273 2.6727 6 6 6h66c3.3273 0 6-2.6727 6-6v-10h4c1.108 0 2-0.892 2-2v-12c0-1.108-0.892-2-2-2h-4v-10c0-3.3273-2.6727-6-6-6h-66zm4 6h58c2.216 0 4 1.784 4 4v28c0 2.216-1.784 4-4 4h-58c-2.216 0-4-1.784-4-4v-28c0-2.216 1.784-4 4-4z" fill="url(#a)"/>
 <path opacity=".75" d="m12 24c-3.3273 0-6 2.6727-6 6v1c0-3.3273 2.6727-6 6-6h66c3.3273 0 6 2.6727 6 6v-1c0-3.3273-2.6727-6-6-6h-66zm72 16v1h4c1.108 0 2 0.892 2 2v-1c0-1.108-0.892-2-2-2h-4zm-72 22v1c0 2.216 1.784 4 4 4h58c2.216 0 4-1.784 4-4v-1c0 2.216-1.784 4-4 4h-58c-2.216 0-4-1.784-4-4z" fill="#fff"/>
 <path opacity=".15" d="m16 29c-2.216 0-4 1.784-4 4v1c0-2.216 1.784-4 4-4h58c2.216 0 4 1.784 4 4v-1c0-2.216-1.784-4-4-4h-58zm74 24c0 1.108-0.892 2-2 2h-4v1h4c1.108 0 2-0.892 2-2v-1zm-84 12v1c0 3.3273 2.6727 6 6 6h66c3.3273 0 6-2.6727 6-6v-1c0 3.3273-2.6727 6-6 6h-66c-3.3273 0-6-2.673-6-6z"/>
 <g fill-rule="evenodd">
  <path opacity=".1" d="m39.844 35.031c0.000723-0.000084-0.09447 0.03137-0.09375 0.03125 0.000718-0.00012-0.09446 0.000155-0.09375 0 0.000711-0.000155-0.09445 0.03144-0.09375 0.03125 0.001-0.000262-0.126 0.03158-0.125 0.03125 0.001-0.000335-0.12598 0.06291-0.125 0.0625 0.000978-0.000408-0.1572 0.06298-0.15625 0.0625 0.000946-0.000478-0.12591 0.06305-0.125 0.0625 0.000908-0.000545-0.09462 0.09436-0.09375 0.09375 0.000866-0.00061-0.12582 0.06317-0.125 0.0625 0.00082-0.000671-0.09452 0.09448-0.09375 0.09375 0.000577-0.000547-0.06575 0.06523-0.09375 0.09375-0.0093 0.0095-0.03143 0.03145-0.03125 0.03125l-6 6.0625c0.000953-0.001-0.12585 0.15734-0.125 0.15625 0.000853-0.0011-0.0945 0.12616-0.09375 0.125 0.000746-0.0012-0.09438 0.15748-0.09375 0.15625 0.000632-0.0012-0.09426 0.18878-0.09375 0.1875 0.000513-0.0013-0.06289 0.15758-0.0625 0.15625 0.000389-0.0013-0.03151 0.18886-0.03125 0.1875 0.000261-0.0014-0.03138 0.18888-0.03125 0.1875 0.000131-0.0014 0 0.18888 0 0.1875 0-0.0014 0.000131 0.18888 0 0.1875-0.000131-0.0014 0.03151 0.18886 0.03125 0.1875-0.000261-0.0014 0.03164 0.18883 0.03125 0.1875-0.000389-0.0013 0.06301 0.15754 0.0625 0.15625-0.000513-0.0013 0.09438 0.18873 0.09375 0.1875-0.000632-0.0012 0.0945 0.15742 0.09375 0.15625-0.000746-0.0012 0.0946 0.12609 0.09375 0.125-0.000853-0.0011 0.12595 0.15725 0.125 0.15625l4.5 4.5625-4.5 4.5625c0.000953-0.001-0.12585 0.15734-0.125 0.15625 0.000853-0.0011-0.0945 0.12616-0.09375 0.125 0.000746-0.0012-0.09438 0.15748-0.09375 0.15625 0.000632-0.0012-0.09426 0.18878-0.09375 0.1875 0.000513-0.0013-0.06289 0.15758-0.0625 0.15625 0.000389-0.0013-0.03151 0.18886-0.03125 0.1875 0.000261-0.0014-0.03138 0.18888-0.03125 0.1875 0.000131-0.0014 0 0.18888 0 0.1875 0-0.0014 0.000131 0.18888 0 0.1875-0.000131-0.0014 0.03151 0.18886 0.03125 0.1875-0.000261-0.0014 0.03164 0.18883 0.03125 0.1875-0.000389-0.0013 0.06301 0.15754 0.0625 0.15625-0.000513-0.0013 0.09438 0.18873 0.09375 0.1875-0.000632-0.0012 0.0945 0.15742 0.09375 0.15625-0.000746-0.0012 0.0946 0.12609 0.09375 0.125-0.000853-0.0011 0.12595 0.15725 0.125 0.15625l6.0312 6.0938c-0.000987-0.001 0.12608 0.12593 0.125 0.125-0.0011-0.000927 0.15742 0.12582 0.15625 0.125-0.0012-0.000817 0.15749 0.09445 0.15625 0.09375-0.0012-0.000699 0.1888 0.09432 0.1875 0.09375-0.0013-0.000574 0.18885 0.06294 0.1875 0.0625-0.0014-0.000444 0.15764 0.06281 0.15625 0.0625-0.0014-0.00031 0.18892 0.03142 0.1875 0.03125-0.0014-0.000172 0.22018 0.000033 0.21875 0-0.0014-0.000033 0.18892-0.000106 0.1875 0-0.0014 0.000106 0.1889-0.03149 0.1875-0.03125-0.0014 0.000245 0.18887-0.03163 0.1875-0.03125-0.0014 0.000381 0.15758-0.06301 0.15625-0.0625-0.0013 0.000513 0.18877-0.06314 0.1875-0.0625-0.0013 0.000641 0.15746-0.09451 0.15625-0.09375-0.0012 0.000762 0.15737-0.12588 0.15625-0.125-0.0011 0.000876 0.15728-0.12598 0.15625-0.125l4.5938-4.5625 4.4062 4.5c-0.000508-0.000529 0.06303 0.063 0.0625 0.0625-0.000534-0.000503 0.09431 0.06298 0.09375 0.0625-0.000559-0.000476 0.06308 0.06295 0.0625 0.0625-0.000582-0.000447 0.09435 0.06292 0.09375 0.0625-0.000604-0.000417 0.06312 0.06289 0.0625 0.0625-0.000624-0.000386 0.09439 0.06285 0.09375 0.0625-0.000643-0.000354 0.09441 0.03157 0.09375 0.03125-0.00066-0.000321 0.09443 0.03154 0.09375 0.03125-0.000675-0.000288 0.06319 0.0315 0.0625 0.03125-0.000689-0.000253 0.09445 0.03147 0.09375 0.03125-0.0007-0.000218 0.09446 0.03143 0.09375 0.03125-0.000711-0.000183 0.12572 0.0314 0.125 0.03125-0.000719-0.000147 0.09448 0.03136 0.09375 0.03125-0.000725-0.00011 0.09448 0.000074 0.09375 0s0.09448 0.000037 0.09375 0c-0.000733-0.000037 0.09448 0 0.09375 0-0.000734 0 0.09448-0.000037 0.09375 0-0.000733 0.000037 0.09448-0.000074 0.09375 0s0.09448-0.00011 0.09375 0c-0.000725 0.00011 0.09447-0.0314 0.09375-0.03125-0.000719 0.000147 0.12571-0.03143 0.125-0.03125-0.000711 0.000183 0.09445-0.03147 0.09375-0.03125-0.0007 0.000218 0.09444-0.0315 0.09375-0.03125-0.000689 0.000253 0.06318-0.03154 0.0625-0.03125-0.000675 0.000288 0.09441-0.03157 0.09375-0.03125-0.00066 0.000321 0.09439-0.0316 0.09375-0.03125-0.000643 0.000354 0.09437-0.06289 0.09375-0.0625-0.000624 0.000386 0.0631-0.06292 0.0625-0.0625-0.000604 0.000417 0.09433-0.06295 0.09375-0.0625-0.000582 0.000447 0.06306-0.06298 0.0625-0.0625-0.000559 0.000476 0.09428-0.063 0.09375-0.0625-0.000534 0.000503 0.06301-0.06303 0.0625-0.0625l6.2188-6.2812c-0.000982 0.001 0.12588-0.15737 0.125-0.15625-0.000876 0.0011 0.12576-0.15746 0.125-0.15625-0.000762 0.0012 0.09439-0.15752 0.09375-0.15625-0.000641 0.0013 0.06301-0.18883 0.0625-0.1875-0.000513 0.0013 0.06288-0.15762 0.0625-0.15625-0.000381 0.0014 0.0315-0.1889 0.03125-0.1875-0.000245 0.0014 0.03136-0.18892 0.03125-0.1875-0.000106 0.0014-0.000033-0.18892 0-0.1875 0.000033 0.0014-0.000172-0.22016 0-0.21875 0.000172 0.0014-0.03156-0.18889-0.03125-0.1875 0.00031 0.0014-0.06294-0.1576-0.0625-0.15625 0.000444 0.0014-0.06307-0.1888-0.0625-0.1875 0.000574 0.0013-0.09445-0.18874-0.09375-0.1875 0.000699 0.0012-0.09457-0.15742-0.09375-0.15625 0.000817 0.0012-0.12593-0.15733-0.125-0.15625 0.000927 0.0011-0.12603-0.12599-0.125-0.125l-4.406-4.313 4.4062-4.3125c-0.001 0.000987 0.12593-0.12608 0.125-0.125-0.000927 0.0011 0.12582-0.15742 0.125-0.15625-0.000817 0.0012 0.09445-0.15749 0.09375-0.15625-0.000699 0.0012 0.09432-0.1888 0.09375-0.1875-0.000574 0.0013 0.06294-0.18885 0.0625-0.1875-0.000444 0.0014 0.06281-0.15764 0.0625-0.15625-0.00031 0.0014 0.03142-0.18892 0.03125-0.1875-0.000172 0.0014 0.000033-0.22018 0-0.21875-0.000033 0.0014-0.000106-0.18892 0-0.1875 0.000106 0.0014-0.0315-0.1889-0.03125-0.1875 0.000245 0.0014-0.03163-0.18887-0.03125-0.1875 0.000381 0.0014-0.06301-0.15758-0.0625-0.15625 0.000513 0.0013-0.06314-0.18877-0.0625-0.1875 0.000641 0.0013-0.09451-0.15746-0.09375-0.15625 0.000762 0.0012-0.12588-0.15737-0.125-0.15625 0.000876 0.0011-0.12598-0.15728-0.125-0.15625l-6.2188-6.2812c0.000508 0.000529-0.06303-0.063-0.0625-0.0625 0.000534 0.000503-0.09431-0.06298-0.09375-0.0625 0.000559 0.000476-0.06308-0.06295-0.0625-0.0625 0.000582 0.000447-0.09435-0.06292-0.09375-0.0625 0.000604 0.000417-0.06312-0.06289-0.0625-0.0625 0.000624 0.000386-0.09439-0.06285-0.09375-0.0625 0.000643 0.000354-0.09441-0.03157-0.09375-0.03125 0.00066 0.000321-0.09443-0.03154-0.09375-0.03125 0.000675 0.000288-0.06319-0.0315-0.0625-0.03125 0.000689 0.000253-0.09445-0.03147-0.09375-0.03125 0.0007 0.000218-0.09446-0.03143-0.09375-0.03125 0.000711 0.000183-0.12572-0.0314-0.125-0.03125 0.000719 0.000147-0.09448-0.03136-0.09375-0.03125 0.000725 0.00011-0.09448-0.000074-0.09375 0s-0.09448-0.000037-0.09375 0c0.000733 0.000037-0.09448 0-0.09375 0 0.000734 0-0.09448 0.000037-0.09375 0 0.000733-0.000037-0.09448 0.000074-0.09375 0s-0.09448 0.00011-0.09375 0c0.000725-0.00011-0.09447 0.0314-0.09375 0.03125 0.000719-0.000147-0.12571 0.03143-0.125 0.03125 0.000711-0.000183-0.09445 0.03147-0.09375 0.03125 0.0007-0.000218-0.09444 0.0315-0.09375 0.03125 0.000689-0.000253-0.06318 0.03154-0.0625 0.03125 0.000675-0.000288-0.09441 0.03157-0.09375 0.03125 0.00066-0.000321-0.09439 0.0316-0.09375 0.03125 0.000643-0.000354-0.09437 0.06289-0.09375 0.0625 0.000624-0.000386-0.0631 0.06292-0.0625 0.0625 0.000604-0.000417-0.09433 0.06295-0.09375 0.0625 0.000582-0.000447-0.06306 0.06298-0.0625 0.0625 0.000559-0.000476-0.09428 0.063-0.09375 0.0625 0.000534-0.000503-0.06301 0.06303-0.0625 0.0625l-4.4062 4.5-4.5625-4.5312c0.000171 0.000172-0.02075-0.0212-0.03125-0.03125-0.021-0.0201-0.06286-0.06283-0.0625-0.0625 0.000539 0.000491-0.06306-0.06296-0.0625-0.0625 0.000563 0.000463-0.06309-0.06294-0.0625-0.0625 0.000585 0.000435-0.09436-0.03166-0.09375-0.03125 0.000606 0.000405-0.09438-0.06287-0.09375-0.0625 0.000626 0.000374-0.06314-0.06284-0.0625-0.0625 0.000644 0.000342-0.09441-0.03156-0.09375-0.03125 0.00066 0.000309-0.09443-0.03153-0.09375-0.03125 0.000675 0.000276-0.09444-0.03149-0.09375-0.03125 0.000688 0.000242-0.09445-0.03146-0.09375-0.03125 0.000699 0.000207-0.09446-0.03142-0.09375-0.03125 0.000708 0.000172-0.09447-0.03139-0.09375-0.03125 0.000716 0.000136-0.09447-0.0001-0.09375 0 0.000722 0.0001-0.09448-0.03131-0.09375-0.03125 0.000726 0.000064-0.09448-0.000028-0.09375 0 0.000728 0.000028-0.09448 0.000009-0.09375 0a0.99658 0.99658 0 0 0 -0.0625 0c0.000726-0.000047-0.09447 0.000084-0.09375 0z"/>
  <path opacity=".15" d="m39.812 36.062a0.95278 0.95278 0 0 0 -0.46875 0.28125l-6.0312 6.0938a0.95278 0.95278 0 0 0 0 1.3125l5.188 5.25-5.1875 5.25a0.95278 0.95278 0 0 0 0 1.3125l6.0312 6.0938a0.95278 0.95278 0 0 0 1.3438 0.03125l5.2812-5.25 5.125 5.2188a0.95278 0.95278 0 0 0 1.375 0l6.22-6.281a0.95278 0.95278 0 0 0 -0.03 -1.344l-5.157-5.031 5.156-5.031a0.95278 0.95278 0 0 0 0.032 -1.344l-6.2188-6.2812a0.95278 0.95278 0 0 0 -1.375 0l-5.125 5.2188-5.2812-5.25a0.95278 0.95278 0 0 0 -0.875 -0.25z"/>
  <path opacity=".3" d="m34 54.906 6.023 6.094 5.931-5.906 5.838 5.906 6.208-6.281-5.838-5.719 5.838-5.719-6.208-6.281-5.838 5.906-5.931-5.906l-6.0232 6.0938 5.8378 5.9063-5.8378 5.9062z"/>
  <path fill="url(#b)" d="m34 53.906 6.023 6.094 5.931-5.906 5.838 5.906 6.208-6.281-5.838-5.719 5.838-5.719-6.208-6.281-5.838 5.906-5.931-5.906l-6.0232 6.0938 5.8378 5.9063-5.8378 5.9062z"/>
  <path opacity=".2" d="m40.031 36-6.0312 6.0938 1 1 5.031-5.094 5.938 5.906 5.812-5.906 5.219 5.25 1-0.969-6.219-6.281-5.812 5.906-5.938-5.906zm-0.19483 11.976-5.8364 5.9304 1 1 4.8438-4.9062-0.0073-2.0242zm12.343 0.04727-0.02282 1.9769 4.8438 4.75 1-1.0312-5.8209-5.6957z" fill="#fff"/>
 </g>
</svg>
