<?xml version="1.0" encoding="UTF-8" standalone="no"?>
<svg xmlns="http://www.w3.org/2000/svg" height="16" width="16" version="1.1">
 <path d="m8.3023 1c-0.197 0.003-0.3989 0.077-0.5348 0.2188l-5.2759 5.2515c-0.1902 0.1842-0.2623 0.4735-0.1945 0.7294s0.2536 0.443 0.5106 0.5105c0.2569 0.0676 0.5444-0.005 0.7293-0.1945l5.057-5.0327h4.1331v4.2304l-6.5401 6.5158-2.6258-2.6258 4.3033-4.279h0.99681v1.0454l-2.723 2.723c-0.19023 0.18417-0.26232 0.44916-0.1945 0.70506 0.067822 0.25591 0.27794 0.44302 0.53488 0.51056 0.25694 0.06755 0.52015-0.005 0.70506-0.1945l2.9423-2.9418c0.1424-0.13538 0.24014-0.3143 0.24313-0.51056v-2.0666c0.0031-0.1987-0.07756-0.39419-0.21881-0.53488-0.141-0.1406-0.3353-0.2218-0.5348-0.2187h-2.0421c-0.1971 0.003-0.3989 0.077-0.5349 0.2188l-5.057 5.0327c-0.28721 0.28611-0.28786 0.75868 0 1.0454l3.6712 3.6469c0.28792 0.2867 0.75817 0.28605 1.0454 0l7.2934-7.2692c0.1424-0.13538 0.24015-0.3143 0.24312-0.51056l-0.02431-5.2515c-0.001-0.2294-0.107-0.4451-0.291-0.5835-0.13-0.1037-0.272-0.1686-0.438-0.1702h-5.1786z" fill="#bebebe"/>
</svg>
