<?xml version="1.0" encoding="UTF-8" standalone="no"?>
<svg xmlns="http://www.w3.org/2000/svg" height="16" width="16" version="1.1">
 <g fill="#bebebe">
  <rect rx="2.5" height="12" width="5" y="0" x="3"/>
  <path d="m0 5v2h1v2.5c0 2.2918 1.7702 4.1824 4 4.4375v1.062h-2v1h5v-1h-2v-1.062c2.2298-0.256 4-2.146 4-4.438v-2.5h1v-2h-1.9688v4.5c0 1.9219-1.6094 3.5312-3.5312 3.5312-1.9219 0-3.5312-1.6094-3.5312-3.5312v-4.5z"/>
  <rect rx=".5" height="3" width="4" y="13" x="12"/>
  <rect rx=".5" height="3" width="4" y="9" x="12"/>
  <rect rx=".5" height="3" width="4" y="5" x="12"/>
 </g>
</svg>
