<?xml version="1.0" encoding="UTF-8" standalone="no"?>
<svg xmlns="http://www.w3.org/2000/svg" height="16" width="16" version="1.1">
 <g fill="#bebebe">
  <path opacity=".45" d="m8 2c-3.1188 0-5.9562 1.3284-8 3.5l1.3529 1.4375c1.7032-1.8096 4.0481-2.9375 6.6471-2.9375s4.9439 1.1279 6.6471 2.9375l1.353-1.4375c-2.044-2.1716-4.881-3.5-7.9999-3.5z"/>
  <path opacity=".45" d="m8 5c-2.3391 0-4.4671 0.9963-6 2.625l1.3529 1.4375c1.1923-1.2668 2.8278-2.0625 4.6471-2.0625s3.455 0.7957 4.647 2.0625l1.353-1.4375c-1.533-1.6287-3.661-2.625-6-2.625z"/>
  <path d="m8 8c-1.5594 0-2.9781 0.6642-4 1.75l1.3235 1.4062c0.6813-0.724 1.6369-1.156 2.6765-1.156s1.9952 0.43239 2.6765 1.1562l1.324-1.406c-1.022-1.0858-2.4406-1.75-4-1.75z"/>
  <path d="m8 11c-0.7797 0-1.489 0.332-2 0.875l2 2.125 2-2.125c-0.511-0.543-1.2203-0.875-2-0.875z"/>
 </g>
</svg>
