<?xml version="1.0" encoding="UTF-8" standalone="no"?>
<svg xmlns="http://www.w3.org/2000/svg" height="16" width="16" version="1.1">
 <g fill="#bebebe">
  <path opacity=".45" d="m4.8438 8c-0.1085 0.0357-0.2068 0.1012-0.2813 0.1875l-2.375 2.3745c-0.1159 0.115-0.1846 0.275-0.1875 0.438v1.875l-1.75 1.75c-0.31442 0.31442-0.31442 0.81058 0 1.125s0.81058 0.31442 1.125 0l1.75-1.75h1.875c0.1627-0.0033 0.32313-0.07206 0.4375-0.1875l2.375-2.375c0.22391-0.23233 0.22391-0.64267 0-0.875l-2.375-2.374c-0.1479-0.1584-0.3814-0.2321-0.5937-0.1875z"/>
  <path opacity=".45" d="m11.16 7.9723c0.1084-0.035684 0.20675-0.10125 0.28125-0.1875l2.375-2.375c0.11586-0.11443 0.18464-0.27492 0.1875-0.4375v-1.875l1.75-1.75c0.31442-0.31442 0.31442-0.81058 0-1.125s-0.81058-0.31442-1.125 0l-1.75 1.75h-1.875c-0.1627 0.0033-0.32313 0.072059-0.4375 0.1875l-2.375 2.375c-0.22391 0.23233-0.22391 0.64267 0 0.875l2.375 2.375c0.14793 0.15838 0.38136 0.2321 0.59375 0.1875z"/>
 </g>
</svg>
