<?xml version="1.0" encoding="UTF-8" standalone="no"?>
<svg xmlns="http://www.w3.org/2000/svg" height="16" width="16" version="1.1">
 <g fill="#bebebe">
  <path opacity=".45" d="m8 0c-3.1188 0-5.9562 1.3284-8 3.5l1.3438 1.4375c1.7031-1.8096 4.0572-2.9375 6.6562-2.9375s4.9531 1.1279 6.6562 2.9375l1.344-1.4375c-2.044-2.1716-4.881-3.5-7.9998-3.5zm0 3c-2.3391 0-4.4671 0.9963-6 2.625l1.3438 1.4375c0.4703-0.4997 1.0327-0.9168 1.625-1.25v-0.3125c0-0.82604 0.67396-1.5 1.5-1.5h3.0312c0.826 0 1.5 0.674 1.5 1.5v0.28125c0.60708 0.33618 1.176 0.77103 1.6562 1.2812l1.344-1.4374c-1.533-1.6287-3.661-2.625-6-2.625zm-0.5 3.5v1.5625c0.1677-0.0234 0.3267-0.0625 0.5-0.0625s0.3323 0.0391 0.5 0.0625v-1.5625h-1zm-2.5312 0.4375c-0.3493 0.2351-0.6779 0.5035-0.9688 0.8125l0.7188 0.7812c0.0858-0.0172 0.1596-0.0293 0.25-0.0312v-1.5625zm6.0312 0v1.5625c0.09303 0 0.19282 0.014898 0.28125 0.03125l0.719-0.7812c-0.297-0.3153-0.643-0.5742-1-0.8125z"/>
  <path d="m6.4652 4.4864c-0.554 0-1 0.446-1 1v3.5136h-0.4652c-0.554 0-1 0.446-1 1v5c0 0.554 0.446 1 1 1h6c0.554 0 1-0.446 1-1v-5c0-0.554-0.446-1-1-1h-0.5075v-3.5136c0-0.554-0.446-1-1-1zm0.5348 1.5136h2v3h-2z"/>
 </g>
</svg>
