<?xml version="1.0" encoding="UTF-8" standalone="no"?>
<svg xmlns="http://www.w3.org/2000/svg" height="16" width="16" version="1.1">
 <g fill="#bebebe">
  <path opacity=".45" d="m15.188 0c-0.203 0-0.406 0.06154-0.563 0.21875l-2.75 2.75h-1.875a0.63313 0.63137 0 0 0 -0.4375 0.1875l-2.375 2.375a0.63313 0.63137 0 0 0 0 0.875l2.375 2.375a0.63313 0.63137 0 0 0 0.59375 0.1875 0.63313 0.63137 0 0 0 0.28125 -0.1875l2.375-2.375a0.63313 0.63137 0 0 0 0.187 -0.4375v-1.875l2.75-2.75c0.31442-0.31442 0.31442-0.81058 0-1.125-0.157-0.15726-0.36-0.2188-0.562-0.2188zm-9.3442 7a0.63313 0.63137 0 0 0 -0.2813 0.1875l-2.375 2.375a0.63313 0.63137 0 0 0 -0.1875 0.4375v1.875l-2.75 2.75c-0.31442 0.31442-0.31442 0.81058 0 1.125s0.81058 0.31442 1.125 0l2.75-2.75h1.875a0.63313 0.63137 0 0 0 0.4375 -0.1875l2.375-2.375a0.63313 0.63137 0 0 0 0 -0.875l-2.375-2.374a0.63313 0.63137 0 0 0 -0.5937 -0.1875z"/>
  <path d="m11.625 9c-0.346 0-0.625 0.2788-0.625 0.625v2.375h-0.375c-0.346 0-0.625 0.279-0.625 0.625v2.75c0 0.346 0.279 0.625 0.625 0.625h4.75c0.346 0 0.625-0.279 0.625-0.625v-2.75c0-0.346-0.279-0.625-0.625-0.625h-0.375v-2.375c0-0.3462-0.279-0.625-0.625-0.625zm0.375 1h2v2h-2z"/>
  <path d="m9 15a1 1 0 0 1 -2 0 1 1 0 1 1 2 0z"/>
  <path d="m6 15a1 1 0 0 1 -2 0 1 1 0 1 1 2 0z"/>
 </g>
</svg>
