<?xml version="1.0" encoding="UTF-8" standalone="no"?>
<svg
   xmlns:dc="http://purl.org/dc/elements/1.1/"
   xmlns:cc="http://creativecommons.org/ns#"
   xmlns:rdf="http://www.w3.org/1999/02/22-rdf-syntax-ns#"
   xmlns:svg="http://www.w3.org/2000/svg"
   xmlns="http://www.w3.org/2000/svg"
   xmlns:sodipodi="http://sodipodi.sourceforge.net/DTD/sodipodi-0.dtd"
   xmlns:inkscape="http://www.inkscape.org/namespaces/inkscape"
   height="16"
   width="16"
   version="1.1"
   id="svg12"
   sodipodi:docname="network-wireless-signal-none-secure-symbolic.svg"
   inkscape:version="0.92.3 (2405546, 2018-03-11)">
  <metadata
     id="metadata18">
    <rdf:RDF>
      <cc:Work
         rdf:about="">
        <dc:format>image/svg+xml</dc:format>
        <dc:type
           rdf:resource="http://purl.org/dc/dcmitype/StillImage" />
      </cc:Work>
    </rdf:RDF>
  </metadata>
  <defs
     id="defs16" />
  <sodipodi:namedview
     pagecolor="#ffffff"
     bordercolor="#666666"
     borderopacity="1"
     objecttolerance="10"
     gridtolerance="10"
     guidetolerance="10"
     inkscape:pageopacity="0"
     inkscape:pageshadow="2"
     inkscape:window-width="1920"
     inkscape:window-height="1012"
     id="namedview14"
     showgrid="false"
     inkscape:zoom="29.5"
     inkscape:cx="16.580859"
     inkscape:cy="1.556842"
     inkscape:window-x="0"
     inkscape:window-y="0"
     inkscape:window-maximized="1"
     inkscape:current-layer="svg12">
    <inkscape:grid
       type="xygrid"
       id="grid859" />
  </sodipodi:namedview>
  <g
     id="g888">
    <g
       id="g880">
      <path
         style="opacity:0.45;fill:#bebebe"
         inkscape:connector-curvature="0"
         id="path2"
         d="M 8,2 C 4.8812,2 2.0438,3.3284 0,5.5 L 1.3529,6.9375 C 3.0561,5.1279 5.401,4 8,4 c 2.599,0 4.9439,1.1279 6.6471,2.9375 L 16.0001,5.5 C 13.9561,3.3284 11.1191,2 8.0002,2 Z" />
      <path
         style="opacity:0.45;fill:#bebebe"
         d="M 8 5 C 5.6609 5 3.5329 5.9963 2 7.625 L 3.3535156 9.0625 C 4.5458156 7.7957 6.1807 7 8 7 C 9.2455163 7 10.400673 7.3797592 11.390625 8.0214844 C 11.4671 8.0119246 11.54244 8 11.625 8 L 13.646484 8 L 14 7.625 C 12.467 5.9963 10.339 5 8 5 z "
         id="path4" />
      <path
         style="opacity:0.45;fill:#bebebe"
         d="M 8 8 C 6.4406 8 5.0219 8.6642 4 9.75 L 5.3242188 11.15625 C 6.0055188 10.43225 6.9604 10 8 10 C 8.7323842 10 9.4175304 10.223613 10 10.603516 L 10 9.625 C 9.9731467 9.2022764 10.153042 8.8069984 10.375 8.5566406 C 9.6513787 8.2027858 8.8480466 8 8 8 z "
         id="path6" />
      <path
         style="opacity:0.45;fill:#bebebe"
         d="M 8 11 C 7.2203 11 6.511 11.332 6 11.875 L 8 14 L 9 12.9375 L 9 12.625 C 9 12.154264 9.2419742 11.783993 9.5878906 11.515625 C 9.1349661 11.190218 8.5876784 11 8 11 z "
         id="path8" />
    </g>
    <path
       d="m 11.625005,8.999999 c -0.346,0 -0.759,0.3059 -0.625,0.625 V 12 h -0.375 c -0.346,0 -0.625,0.278999 -0.625,0.625 v 2.75 c 0,0.346 0.279,0.625 0.625,0.625 h 4.75 c 0.346,0 0.625,-0.279 0.625,-0.625 v -2.75 c 0,-0.346001 -0.279,-0.625 -0.625,-0.625 h -0.375 V 9.624999 c 0,-0.3462 -0.279,-0.625 -0.625,-0.625 z m 0.375,1 h 2 V 12 h -2 z"
       id="path6-3"
       inkscape:connector-curvature="0"
       style="fill:#bebebe" />
  </g>
</svg>
