<?xml version="1.0" encoding="UTF-8" standalone="no"?>
<svg xmlns="http://www.w3.org/2000/svg" height="16" width="16" version="1.1">
 <g fill="#bebebe">
  <rect opacity=".45" rx="1" height="13" width="3" y="0" x="12"/>
  <rect opacity=".45" rx="1" height="10" width="3" y="3" x="8"/>
  <rect opacity=".45" rx="1" height="7" width="3" y="6" x="4"/>
  <rect opacity=".45" rx="1" height="4" width="3" y="9" x="0"/>
  <path d="m9 15a1 1 0 0 1 -2 0 1 1 0 1 1 2 0z"/>
  <path d="m12 15a1 1 0 0 1 -2 0 1 1 0 1 1 2 0z"/>
  <path d="m6 15a1 1 0 0 1 -2 0 1 1 0 1 1 2 0z"/>
 </g>
</svg>
