<?xml version="1.0" encoding="UTF-8" standalone="no"?>
<svg xmlns="http://www.w3.org/2000/svg" height="16" width="16" version="1.1">
 <path d="m3.5 0s-0.5 0.223-0.5 0.5v14.5c0 0.554 0.446 1 1 1h8c0.554 0 1-0.446 1-1v-12c0-0.554-0.446-1-1-1h-7v-1.5c0-0.277-0.5-0.5-0.5-0.5zm1 4h7c0.277 0 0.5 0.223 0.5 0.5v3c0 0.277-0.223 0.5-0.5 0.5h-7c-0.277 0-0.5-0.223-0.5-0.5v-3c0-0.277 0.223-0.5 0.5-0.5zm-0.5 5h2v1h-2zm3 0h2v1h-2zm3 0h2v1h-2zm-6 2h2v1h-2zm3 0h2v1h-2zm3 0h2v1h-2zm-6 2h2v1h-2zm3 0h2v1h-2zm3 0h2v1h-2z" fill="#bebebe"/>
</svg>
