<?xml version="1.0" encoding="UTF-8" standalone="no"?>
<svg xmlns="http://www.w3.org/2000/svg" height="16" width="16" version="1.1">
 <path d="m8 1.4688-2.1562 4.375-4.8126 0.7187 3.4688 3.4063-0.8125 4.8122 4.3125-2.281 4.312 2.281-0.812-4.8122 3.5-3.4063-4.844-0.7187-2.156-4.375zm0.0312 2.0937 1.2813 2.6875a0.93319 0.93319 0 0 0 0.71875 0.5l2.969 0.4375-2.156 2.0937a0.93319 0.93319 0 0 0 -0.281 0.8128l0.531 2.968-2.6565-1.406a0.93319 0.93319 0 0 0 -0.875 0l-2.6562 1.4062 0.5-2.9688a0.93319 0.93319 0 0 0 -0.25 -0.8124l-2.1563-2.0617 3-0.4376a0.93319 0.93319 0 0 0 0.6875 -0.5l1.3437-2.7187z" fill="#bebebe"/>
</svg>
