<?xml version="1.0" encoding="UTF-8" standalone="no"?>
<svg xmlns="http://www.w3.org/2000/svg" height="96" width="96" version="1.1" xmlns:xlink="http://www.w3.org/1999/xlink">
 <defs>
  <linearGradient id="a">
   <stop stop-color="#ffdf39" offset="0"/>
   <stop stop-color="#eb9c00" stop-opacity="0" offset="1"/>
  </linearGradient>
  <linearGradient id="b" stop-color="#fff">
   <stop offset="0"/>
   <stop stop-opacity="0" offset="1"/>
  </linearGradient>
  <clipPath id="q">
   <rect rx="6" ry="6" height="84" width="84" y="6" x="6" fill="#fff"/>
  </clipPath>
  <filter id="r" height="1.384" width="1.384" color-interpolation-filters="sRGB" y="-.192" x="-.192">
   <feGaussianBlur stdDeviation="5.28"/>
  </filter>
  <linearGradient id="c" stop-color="#fff" y2="138.66" gradientUnits="userSpaceOnUse" x2="48" y1="20.221" x1="48">
   <stop offset="0"/>
   <stop stop-opacity="0" offset="1"/>
  </linearGradient>
  <linearGradient id="p" y2="61" xlink:href="#a" gradientUnits="userSpaceOnUse" x2="33" gradientTransform="matrix(.5 0 0 1 46 0)" y1="68" x1="33"/>
  <linearGradient id="o" y2="61" xlink:href="#a" gradientUnits="userSpaceOnUse" x2="33" gradientTransform="matrix(.5 0 0 1 42 0)" y1="68" x1="33"/>
  <linearGradient id="n" y2="61" xlink:href="#a" gradientUnits="userSpaceOnUse" x2="33" gradientTransform="matrix(.5 0 0 1 38 0)" y1="68" x1="33"/>
  <linearGradient id="m" y2="61" xlink:href="#a" gradientUnits="userSpaceOnUse" x2="33" gradientTransform="matrix(.5 0 0 1 34 0)" y1="68" x1="33"/>
  <linearGradient id="l" y2="61" xlink:href="#a" gradientUnits="userSpaceOnUse" x2="33" gradientTransform="matrix(.5 0 0 1 30 0)" y1="68" x1="33"/>
  <linearGradient id="k" y2="61" xlink:href="#a" gradientUnits="userSpaceOnUse" x2="33" gradientTransform="matrix(.5 0 0 1 26 0)" y1="68" x1="33"/>
  <linearGradient id="j" y2="61" xlink:href="#a" gradientUnits="userSpaceOnUse" x2="33" gradientTransform="matrix(.5 0 0 1 22 0)" y1="68" x1="33"/>
  <linearGradient id="i" y2="61" xlink:href="#a" gradientUnits="userSpaceOnUse" x2="33" gradientTransform="matrix(.5 0 0 1 18 0)" y1="68" x1="33"/>
  <radialGradient id="d" xlink:href="#b" gradientUnits="userSpaceOnUse" cy="70" cx="48" gradientTransform="matrix(1.1875 0 0 .5625 -9 27)" r="16"/>
  <linearGradient id="h" y2="24" xlink:href="#b" gradientUnits="userSpaceOnUse" x2="48" y1="72" x1="48"/>
  <linearGradient id="g" y2="72" gradientUnits="userSpaceOnUse" x2="48" y1="24" x1="48">
   <stop offset="0"/>
   <stop stop-color="#393939" offset="1"/>
  </linearGradient>
  <linearGradient id="f" y2="32.988" xlink:href="#b" gradientUnits="userSpaceOnUse" x2="53" y1="74" x1="53"/>
  <linearGradient id="e" y2="11.016" gradientUnits="userSpaceOnUse" x2="19" gradientTransform="matrix(0,-3,2.9653,0,45.336,123)" y1="11.016" x1="11">
   <stop stop-color="#c80000" offset="0"/>
   <stop stop-color="#f3604d" offset="1"/>
  </linearGradient>
 </defs>
 <rect opacity=".2" rx="4" ry="4" height="80" width="80" y="8" x="8" fill="#fff"/>
 <rect opacity=".15" clip-path="url(#q)" rx="12" ry="12" height="66" filter="url(#r)" width="66" stroke="#fff" stroke-linecap="round" y="15" x="15" stroke-width=".5" fill="url(#c)"/>
 <path opacity=".4" d="m39.812 22.031a1.9844 1.9844 0 0 0 -1.781 1.969v2.0312h-2.0312a1.9844 1.9844 0 0 0 -1.969 1.969v2.0312h-7.0312c-2.7269 0-4.9688 2.2418-4.9688 4.9688v34c0 2.7269 2.2418 4.9688 4.9688 4.9688h42c2.7269 0 4.9688-2.2418 4.9688-4.9688v-34c0-2.7269-2.2418-4.9688-4.9688-4.9688h-7.0312v-2.0312a1.9844 1.9844 0 0 0 -1.969 -1.969h-2.032v-2.031a1.9844 1.9844 0 0 0 -1.969 -1.969h-16a1.9844 1.9844 0 0 0 -0.1875 0z" fill="url(#f)"/>
 <path d="m40 24v4h-4v4h-9c-1.662 0-3 1.338-3 3v34c0 1.662 1.338 3 3 3h42c1.662 0 3-1.338 3-3v-34c0-1.662-1.338-3-3-3h-9v-4h-4v-4h-16z" fill="url(#g)"/>
 <path opacity=".15" d="m40 22v2h16v-2h-16zm-4 4v2h4v-2h-4zm20 0v2h4v-2h-4zm-29 4c-1.662 0-3 1.338-3 3v2c0-1.662 1.338-3 3-3h9v-2h-9zm33 0v2h9c1.662 0 3 1.338 3 3v-2c0-1.662-1.338-3-3-3h-9z"/>
 <path opacity=".2" d="m40 24v4h-4v4h-9c-1.662 0-3 1.338-3 3v34c0 1.662 1.338 3 3 3h42c1.662 0 3-1.338 3-3v-34c0-1.662-1.338-3-3-3h-9v-4h-4v-4h-16zm1.9688 1.9688h12.062v2.031a1.975 1.975 0 0 0 1.969 1.969h2.0312v2.0312a1.975 1.975 0 0 0 1.969 1.969h9c0.60214 0 1.0312 0.42911 1.0312 1.0312v34c0 0.60214-0.42911 1.0312-1.0312 1.0312h-42c-0.60214 0-1.0312-0.42911-1.0312-1.0312v-34c0-0.60214 0.42911-1.0312 1.0312-1.0312h9a1.975 1.975 0 0 0 1.969 -1.969v-2.031h2.0312a1.975 1.975 0 0 0 1.969 -1.969v-2.0312z" fill="url(#h)"/>
 <rect opacity=".2" height="18" width="38" y="54" x="29" fill="url(#d)"/>
 <rect height="7" width="1" y="61" x="34" fill="url(#i)"/>
 <path opacity=".3" d="m40 23v1h16v-1h-16zm-4 4v1h4v-1h-4zm20 0v1h4v-1h-4zm-29 4c-1.662 0-3 1.338-3 3v1c0-1.662 1.338-3 3-3h9v-1h-9zm33 0v1h9c1.662 0 3 1.338 3 3v-1c0-1.662-1.338-3-3-3h-9z"/>
 <rect height="7" width="1" y="61" x="38" fill="url(#j)"/>
 <rect height="7" width="1" y="61" x="42" fill="url(#k)"/>
 <rect height="7" width="1" y="61" x="46" fill="url(#l)"/>
 <rect height="7" width="1" y="61" x="50" fill="url(#m)"/>
 <rect height="7" width="1" y="61" x="54" fill="url(#n)"/>
 <rect height="7" width="1" y="61" x="58" fill="url(#o)"/>
 <rect height="7" width="1" y="61" x="62" fill="url(#p)"/>
 <g fill-rule="evenodd">
  <path opacity=".1" d="m71.844 65.031c0.000723-0.000084-0.09447 0.03137-0.09375 0.03125 0.000718-0.00012-0.09446 0.000155-0.09375 0 0.000711-0.000155-0.09445 0.03144-0.09375 0.03125 0.001-0.000262-0.126 0.03158-0.125 0.03125 0.001-0.000335-0.12598 0.06291-0.125 0.0625 0.000978-0.000408-0.1572 0.06298-0.15625 0.0625 0.000946-0.000478-0.12591 0.06305-0.125 0.0625 0.000908-0.000545-0.09462 0.09436-0.09375 0.09375 0.000866-0.00061-0.12582 0.06317-0.125 0.0625 0.00082-0.000671-0.09452 0.09448-0.09375 0.09375 0.000577-0.000547-0.06575 0.06523-0.09375 0.09375-0.0093 0.0095-0.03143 0.03145-0.03125 0.03125l-6 6.0625c0.000953-0.001-0.12585 0.15734-0.125 0.15625 0.000853-0.0011-0.0945 0.12616-0.09375 0.125 0.000746-0.0012-0.09438 0.15748-0.09375 0.15625 0.000632-0.0012-0.09426 0.18878-0.09375 0.1875 0.000513-0.0013-0.06289 0.15758-0.0625 0.15625 0.000389-0.0013-0.03151 0.18886-0.03125 0.1875 0.000261-0.0014-0.03138 0.18888-0.03125 0.1875 0.000131-0.0014 0 0.18888 0 0.1875 0-0.0014 0.000131 0.18888 0 0.1875-0.000131-0.0014 0.03151 0.18886 0.03125 0.1875-0.000261-0.0014 0.03164 0.18883 0.03125 0.1875-0.000389-0.0013 0.06301 0.15754 0.0625 0.15625-0.000513-0.0013 0.09438 0.18873 0.09375 0.1875-0.000632-0.0012 0.0945 0.15742 0.09375 0.15625-0.000746-0.0012 0.0946 0.12609 0.09375 0.125-0.000853-0.0011 0.12595 0.15725 0.125 0.15625l4.5 4.5625-4.5 4.5625c0.000953-0.001-0.12585 0.15734-0.125 0.15625 0.000853-0.0011-0.0945 0.12616-0.09375 0.125 0.000746-0.0012-0.09438 0.15748-0.09375 0.15625 0.000632-0.0012-0.09426 0.18878-0.09375 0.1875 0.000513-0.0013-0.06289 0.15758-0.0625 0.15625 0.000389-0.0013-0.03151 0.18886-0.03125 0.1875 0.000261-0.0014-0.03138 0.18888-0.03125 0.1875 0.000131-0.0014 0 0.18888 0 0.1875 0-0.0014 0.000131 0.18888 0 0.1875-0.000131-0.0014 0.03151 0.18886 0.03125 0.1875-0.000261-0.0014 0.03164 0.18883 0.03125 0.1875-0.000389-0.0013 0.06301 0.15754 0.0625 0.15625-0.000513-0.0013 0.09438 0.18873 0.09375 0.1875-0.000632-0.0012 0.0945 0.15742 0.09375 0.15625-0.000746-0.0012 0.0946 0.12609 0.09375 0.125-0.000853-0.0011 0.12595 0.15725 0.125 0.15625l6.0312 6.0938c-0.000987-0.001 0.12608 0.12593 0.125 0.125-0.0011-0.000927 0.15742 0.12582 0.15625 0.125-0.0012-0.000817 0.15749 0.09445 0.15625 0.09375-0.0012-0.000699 0.1888 0.09432 0.1875 0.09375-0.0013-0.000574 0.18885 0.06294 0.1875 0.0625-0.0014-0.000444 0.15764 0.06281 0.15625 0.0625-0.0014-0.00031 0.18892 0.03142 0.1875 0.03125-0.0014-0.000172 0.22018 0.000033 0.21875 0-0.0014-0.000033 0.18892-0.000106 0.1875 0-0.0014 0.000106 0.1889-0.03149 0.1875-0.03125-0.0014 0.000245 0.18887-0.03163 0.1875-0.03125-0.0014 0.000381 0.15758-0.06301 0.15625-0.0625-0.0013 0.000513 0.18877-0.06314 0.1875-0.0625-0.0013 0.000641 0.15746-0.09451 0.15625-0.09375-0.0012 0.000762 0.15737-0.12588 0.15625-0.125-0.0011 0.000876 0.15728-0.12598 0.15625-0.125l4.5938-4.5625 4.4062 4.5c-0.000508-0.000529 0.06303 0.063 0.0625 0.0625-0.000534-0.000503 0.09431 0.06298 0.09375 0.0625-0.000559-0.000476 0.06308 0.06295 0.0625 0.0625-0.000582-0.000447 0.09435 0.06292 0.09375 0.0625-0.000604-0.000417 0.06312 0.06289 0.0625 0.0625-0.000624-0.000386 0.09439 0.06285 0.09375 0.0625-0.000643-0.000354 0.09441 0.03157 0.09375 0.03125-0.00066-0.000321 0.09443 0.03154 0.09375 0.03125-0.000675-0.000288 0.06319 0.0315 0.0625 0.03125-0.000689-0.000253 0.09445 0.03147 0.09375 0.03125-0.0007-0.000218 0.09446 0.03143 0.09375 0.03125-0.000711-0.000183 0.12572 0.0314 0.125 0.03125-0.000719-0.000147 0.09448 0.03136 0.09375 0.03125-0.000725-0.00011 0.09448 0.000074 0.09375 0s0.09448 0.000037 0.09375 0c-0.000733-0.000037 0.09448 0 0.09375 0-0.000734 0 0.09448-0.000037 0.09375 0-0.000733 0.000037 0.09448-0.000074 0.09375 0s0.09448-0.00011 0.09375 0c-0.000725 0.00011 0.09447-0.0314 0.09375-0.03125-0.000719 0.000147 0.12571-0.03143 0.125-0.03125-0.000711 0.000183 0.09445-0.03147 0.09375-0.03125-0.0007 0.000218 0.09444-0.0315 0.09375-0.03125-0.000689 0.000253 0.06318-0.03154 0.0625-0.03125-0.000675 0.000288 0.09441-0.03157 0.09375-0.03125-0.00066 0.000321 0.09439-0.0316 0.09375-0.03125-0.000643 0.000354 0.09437-0.06289 0.09375-0.0625-0.000624 0.000386 0.0631-0.06292 0.0625-0.0625-0.000604 0.000417 0.09433-0.06295 0.09375-0.0625-0.000582 0.000447 0.06306-0.06298 0.0625-0.0625-0.000559 0.000476 0.09428-0.063 0.09375-0.0625-0.000534 0.000503 0.06301-0.06303 0.0625-0.0625l6.2188-6.2812c-0.000982 0.001 0.12588-0.15737 0.125-0.15625-0.000876 0.0011 0.12576-0.15746 0.125-0.15625-0.000762 0.0012 0.09439-0.15752 0.09375-0.15625-0.000641 0.0013 0.06301-0.18883 0.0625-0.1875-0.000513 0.0013 0.06288-0.15762 0.0625-0.15625-0.000381 0.0014 0.0315-0.1889 0.03125-0.1875-0.000245 0.0014 0.03136-0.18892 0.03125-0.1875-0.000106 0.0014-0.000033-0.18892 0-0.1875 0.000033 0.0014-0.000172-0.22016 0-0.21875 0.000172 0.0014-0.03156-0.18889-0.03125-0.1875 0.00031 0.0014-0.06294-0.1576-0.0625-0.15625 0.000444 0.0014-0.06307-0.1888-0.0625-0.1875 0.000574 0.0013-0.09445-0.18874-0.09375-0.1875 0.000699 0.0012-0.09457-0.15742-0.09375-0.15625 0.000817 0.0012-0.12593-0.15733-0.125-0.15625 0.000927 0.0011-0.12603-0.12599-0.125-0.125l-4.406-4.313 4.4062-4.3125c-0.001 0.000987 0.12593-0.12608 0.125-0.125-0.000927 0.0011 0.12582-0.15742 0.125-0.15625-0.000817 0.0012 0.09445-0.15749 0.09375-0.15625-0.000699 0.0012 0.09432-0.1888 0.09375-0.1875-0.000574 0.0013 0.06294-0.18885 0.0625-0.1875-0.000444 0.0014 0.06281-0.15764 0.0625-0.15625-0.00031 0.0014 0.03142-0.18892 0.03125-0.1875-0.000172 0.0014 0.000033-0.22018 0-0.21875-0.000033 0.0014-0.000106-0.18892 0-0.1875 0.000106 0.0014-0.0315-0.1889-0.03125-0.1875 0.000245 0.0014-0.03163-0.18887-0.03125-0.1875 0.000381 0.0014-0.06301-0.15758-0.0625-0.15625 0.000513 0.0013-0.06314-0.18877-0.0625-0.1875 0.000641 0.0013-0.09451-0.15746-0.09375-0.15625 0.000762 0.0012-0.12588-0.15737-0.125-0.15625 0.000876 0.0011-0.12598-0.15728-0.125-0.15625l-6.2188-6.2812c0.000508 0.000529-0.06303-0.063-0.0625-0.0625 0.000534 0.000503-0.09431-0.06298-0.09375-0.0625 0.000559 0.000476-0.06308-0.06295-0.0625-0.0625 0.000582 0.000447-0.09435-0.06292-0.09375-0.0625 0.000604 0.000417-0.06312-0.06289-0.0625-0.0625 0.000624 0.000386-0.09439-0.06285-0.09375-0.0625 0.000643 0.000354-0.09441-0.03157-0.09375-0.03125 0.00066 0.000321-0.09443-0.03154-0.09375-0.03125 0.000675 0.000288-0.06319-0.0315-0.0625-0.03125 0.000689 0.000253-0.09445-0.03147-0.09375-0.03125 0.0007 0.000218-0.09446-0.03143-0.09375-0.03125 0.000711 0.000183-0.12572-0.0314-0.125-0.03125 0.000719 0.000147-0.09448-0.03136-0.09375-0.03125 0.000725 0.00011-0.09448-0.000074-0.09375 0s-0.09448-0.000037-0.09375 0c0.000733 0.000037-0.09448 0-0.09375 0 0.000734 0-0.09448 0.000037-0.09375 0 0.000733-0.000037-0.09448 0.000074-0.09375 0s-0.09448 0.00011-0.09375 0c0.000725-0.00011-0.09447 0.0314-0.09375 0.03125 0.000719-0.000147-0.12571 0.03143-0.125 0.03125 0.000711-0.000183-0.09445 0.03147-0.09375 0.03125 0.0007-0.000218-0.09444 0.0315-0.09375 0.03125 0.000689-0.000253-0.06318 0.03154-0.0625 0.03125 0.000675-0.000288-0.09441 0.03157-0.09375 0.03125 0.00066-0.000321-0.09439 0.0316-0.09375 0.03125 0.000643-0.000354-0.09437 0.06289-0.09375 0.0625 0.000624-0.000386-0.0631 0.06292-0.0625 0.0625 0.000604-0.000417-0.09433 0.06295-0.09375 0.0625 0.000582-0.000447-0.06306 0.06298-0.0625 0.0625 0.000559-0.000476-0.09428 0.063-0.09375 0.0625 0.000534-0.000503-0.06301 0.06303-0.0625 0.0625l-4.4062 4.5-4.5625-4.5312c0.000171 0.000172-0.02075-0.0212-0.03125-0.03125-0.021-0.0201-0.06286-0.06283-0.0625-0.0625 0.000539 0.000491-0.06306-0.06296-0.0625-0.0625 0.000563 0.000463-0.06309-0.06294-0.0625-0.0625 0.000585 0.000435-0.09436-0.03166-0.09375-0.03125 0.000606 0.000405-0.09438-0.06287-0.09375-0.0625 0.000626 0.000374-0.06314-0.06284-0.0625-0.0625 0.000644 0.000342-0.09441-0.03156-0.09375-0.03125 0.00066 0.000309-0.09443-0.03153-0.09375-0.03125 0.000675 0.000276-0.09444-0.03149-0.09375-0.03125 0.000688 0.000242-0.09445-0.03146-0.09375-0.03125 0.000699 0.000207-0.09446-0.03142-0.09375-0.03125 0.000708 0.000172-0.09447-0.03139-0.09375-0.03125 0.000716 0.000136-0.09447-0.0001-0.09375 0 0.000722 0.0001-0.09448-0.03131-0.09375-0.03125 0.000726 0.000064-0.09448-0.000028-0.09375 0 0.000728 0.000028-0.09448 0.000009-0.09375 0a0.99658 0.99658 0 0 0 -0.0625 0c0.000726-0.000047-0.09447 0.000084-0.09375 0z"/>
  <path opacity=".15" d="m71.812 66.062a0.95278 0.95278 0 0 0 -0.46875 0.28125l-6.0312 6.0938a0.95278 0.95278 0 0 0 0 1.3125l5.188 5.25-5.1875 5.25a0.95278 0.95278 0 0 0 0 1.3125l6.0312 6.0938a0.95278 0.95278 0 0 0 1.3438 0.03125l5.2812-5.25 5.125 5.2188a0.95278 0.95278 0 0 0 1.375 0l6.22-6.281a0.95278 0.95278 0 0 0 -0.03 -1.344l-5.157-5.031 5.156-5.031a0.95278 0.95278 0 0 0 0.032 -1.344l-6.2188-6.2812a0.95278 0.95278 0 0 0 -1.375 0l-5.125 5.2188-5.2812-5.25a0.95278 0.95278 0 0 0 -0.875 -0.25z"/>
  <path opacity=".3" d="m66 84.906 6.023 6.094 5.931-5.906 5.838 5.906 6.208-6.281-5.838-5.719 5.838-5.719-6.208-6.281-5.838 5.906-5.931-5.906l-6.0232 6.0938 5.8378 5.9063-5.8378 5.9062z"/>
  <path fill="url(#e)" d="m66 83.906 6.023 6.094 5.931-5.906 5.838 5.906 6.208-6.281-5.838-5.719 5.838-5.719-6.208-6.281-5.838 5.906-5.931-5.906l-6.0232 6.0938 5.8378 5.9063-5.8378 5.9062z"/>
  <path opacity=".2" d="m72.031 66-6.0312 6.0938 1 1 5.031-5.094 5.938 5.906 5.812-5.906 5.219 5.25 1-0.969-6.219-6.281-5.812 5.906-5.938-5.906zm-0.19483 11.976-5.8364 5.9304 1 1 4.844-4.906-0.008-2.024zm12.343 0.047-0.023 1.977 4.8438 4.75 1-1.0312-5.8209-5.6957z" fill="#fff"/>
 </g>
</svg>
