<?xml version="1.0" encoding="UTF-8" standalone="no"?>
<!-- Created with Inkscape (http://www.inkscape.org/) -->

<svg
   xmlns:svg="http://www.w3.org/2000/svg"
   xmlns="http://www.w3.org/2000/svg"
   xmlns:xlink="http://www.w3.org/1999/xlink"
   version="1.0"
   width="96"
   height="96"
   id="svg2"
   style="display:inline">
  <defs
     id="defs4">
    <linearGradient
       id="linearGradient4081">
      <stop
         id="stop4083"
         style="stop-color:#aaaaaa;stop-opacity:1"
         offset="0" />
      <stop
         id="stop4085"
         style="stop-color:#f0f0f0;stop-opacity:1"
         offset="1" />
    </linearGradient>
    <linearGradient
       x1="48"
       y1="68"
       x2="48"
       y2="8"
       id="linearGradient3702"
       xlink:href="#linearGradient4081"
       gradientUnits="userSpaceOnUse"
       gradientTransform="translate(0,10)" />
  </defs>
  <g
     transform="translate(0,74)"
     id="layer1"
     style="display:inline">
    <path
       d="m 12,-57.96875 c -1.783254,-0.0501 -3.5594658,0.728811 -4.875,1.96875 -1.3231343,1.247102 -2.2162635,3.059519 -1.84375,5 a 0.97669908,0.97669908 0 0 0 0.25,0.46875 c -0.012267,0.03022 -0.00916,-0.0022 -0.0625,0.09375 -0.1000118,0.179857 -0.2492335,0.438604 -0.375,0.8125 -0.097183,0.288919 -0.06311,0.674362 0,1.0625 l -0.0625,0 c 0.020916,15.625506 -0.04181,31.245515 0.03125,46.875 A 0.97669908,0.97669908 0 0 0 5.25,-1.125 c 0.2931318,0.41076779 0.2422071,0.43355887 0.21875,0.59375 -0.023457,0.16019113 -0.199853,0.54487609 -0.40625,1.1875 A 0.97669908,0.97669908 0 0 0 5.03125,0.9375 c -0.1615105,4.4174832 4.1126954,7.5688959 8.25,7.03125 0.05211,-0.00677 0.10419,0.00795 0.15625,0 23.72685,-0.02029 47.456051,0.041129 71.1875,-0.03125 a 0.97669908,0.97669908 0 0 0 0.0625,0 C 86.655848,7.8208761 88.443205,6.68816 89.625,5.125 90.806795,3.56184 91.404926,1.4591093 90.5625,-0.5 a 0.97669908,0.97669908 0 0 0 -0.03125,-0.0625 c 0.0245,-0.0546012 0.02181,-0.0851909 0.09375,-0.21875 0.114162,-0.21195256 0.272264,-0.4901246 0.375,-0.875 0.07242,-0.2713056 -0.02319,-0.6222748 -0.09375,-0.96875 l 0.0625,0 c -0.02092,-15.555087 0.04181,-31.128388 -0.03125,-46.6875 a 0.97669908,0.97669908 0 0 0 -0.0625,-0.34375 c -0.209124,-0.541035 -0.387107,-0.892704 -0.40625,-0.96875 -0.01914,-0.07605 -0.09482,0.06866 0.125,-0.21875 a 0.97669908,0.97669908 0 0 0 0.1875,-0.53125 c 0.161476,-2.064156 -0.908702,-3.852308 -2.40625,-5.03125 -1.46453,-1.152949 -3.356615,-1.777565 -5.21875,-1.5625 l -0.125,0 -71,0 -0.03125,0 z"
       id="path3770"
       style="opacity:0.07999998;color:#000000;fill:#000000;fill-opacity:1;fill-rule:nonzero;stroke:none;stroke-width:1;marker:none;visibility:visible;display:inline;overflow:visible;enable-background:accumulate" />
    <path
       d="m 12,-57 c -2.939356,-0.0985 -6.3441102,2.717688 -5.75,5.8125 0.9365977,0.844758 -0.6445328,1.497697 -0.25,2.609913 C 6.020921,-32.948598 5.958216,-17.311329 6.03125,-1.6875 6.791325,-0.62240118 6.368734,-0.17931541 6,0.96875 5.8609737,4.7712675 9.6698721,7.5496826 13.267239,7 37.048411,6.9793023 60.831689,7.0414215 84.611544,6.9688946 87.831816,6.7780947 91.0121,3.0281066 89.65625,-0.125 88.992855,-0.75042533 90.472825,-1.6449551 90,-2.6336194 89.979078,-18.192206 90.041785,-33.759074 89.96875,-49.3125 89.626054,-50.199106 89.152783,-50.574931 89.8125,-51.4375 90.076444,-54.811514 86.335549,-57.433299 83.155174,-57 59.436783,-57 35.718391,-57 12,-57 z"
       id="path3764"
       style="opacity:0.1;color:#000000;fill:#000000;fill-opacity:1;fill-rule:nonzero;stroke:none;stroke-width:1;marker:none;visibility:visible;display:inline;overflow:visible;enable-background:accumulate" />
    <path
       d="m 12,-56.03125 c -2.3947562,0 -4.3766874,1.692491 -4.875,3.9375 a 1.034152,1.034152 0 0 0 0.28125,0.9375 l 39.875,39.875 a 1.034152,1.034152 0 0 0 1.4375,0 l 39.875,-39.875 a 1.034152,1.034152 0 0 0 0.28125,-0.9375 c -0.498313,-2.245008 -2.480244,-3.9375 -4.875,-3.9375 l -72,0 z m -4.125,6 A 1.034152,1.034152 0 0 0 6.96875,-49 l 0,47 a 1.034152,1.034152 0 0 0 1.75,0.71875 L 29.5,-22.0625 29.5625,-22 7.28125,0.28125 A 1.034152,1.034152 0 0 0 6.96875,1 c 0,2.7709767 2.2602733,5.03125 5.03125,5.03125 l 72,0 c 2.770977,0 5.03125,-2.2602733 5.03125,-5.03125 A 1.034152,1.034152 0 0 0 88.71875,0.28125 L 66.4375,-22 66.5,-22.0625 87.28125,-1.28125 A 1.034152,1.034152 0 0 0 89.03125,-2 l 0,-47 a 1.034152,1.034152 0 0 0 -1.75,-0.71875 L 48,-10.4375 8.71875,-49.71875 A 1.034152,1.034152 0 0 0 7.875,-50.03125 z"
       id="path3760"
       style="opacity:0.15;color:#000000;fill:#000000;fill-opacity:1;fill-rule:nonzero;stroke:none;stroke-width:1;marker:none;visibility:visible;display:inline;overflow:visible;enable-background:accumulate" />
    <path
       d="m 12,-55 c -1.914624,0 -3.4773514,1.333505 -3.875,3.125 L 48,-12 87.875,-51.875 C 87.477351,-53.666495 85.914624,-55 84,-55 l -72,0 z M 8,-49 8,-2 29.5,-23.5 31,-22 8,1 c 0,2.216 1.784,4 4,4 l 72,0 c 2.216,0 4,-1.784 4,-4 L 65,-22 66.5,-23.5 88,-2 88,-49 48,-9 8,-49 z"
       id="path3753"
       style="opacity:0.3;color:#000000;fill:#000000;fill-opacity:1;fill-rule:nonzero;stroke:none;stroke-width:1;marker:none;visibility:visible;display:inline;overflow:visible;enable-background:accumulate" />
    <path
       d="m 12,18 c -1.914624,0 -3.4773514,1.333505 -3.875,3.125 L 48,61 87.875,21.125 C 87.477351,19.333505 85.914624,18 84,18 L 12,18 z M 8,24 8,71 29.5,49.5 31,51 8,74 c 0,2.216 1.784,4 4,4 l 72,0 c 2.216,0 4,-1.784 4,-4 L 65,51 66.5,49.5 88,71 88,24 48,64 8,24 z"
       transform="translate(0,-74)"
       id="rect2922"
       style="color:#000000;fill:url(#linearGradient3702);fill-opacity:1;fill-rule:nonzero;stroke:none;stroke-width:1;marker:none;visibility:visible;display:inline;overflow:visible;enable-background:accumulate" />
    <path
       d="m 12,18 c -1.914624,0 -3.4773514,1.333505 -3.875,3.125 l 0.25,0.25 C 8.9901926,19.974888 10.364679,19 12,19 l 72,0 c 1.635321,0 3.009807,0.974888 3.625,2.375 l 0.25,-0.25 C 87.477351,19.333505 85.914624,18 84,18 L 12,18 z M 8,24 8,25 48,65 88,25 88,24 48,64 8,24 z M 30.5,51.5 8,74 c 0,0.301376 0.062407,0.593005 0.125,0.875 L 31,52 30.5,51.5 z m 35,0 L 65,52 87.875,74.875 C 87.937593,74.593005 88,74.301376 88,74 L 65.5,51.5 z"
       transform="translate(0,-74)"
       id="path3734"
       style="opacity:0.75;color:#000000;fill:#ffffff;fill-opacity:1;fill-rule:nonzero;stroke:none;stroke-width:1;marker:none;visibility:visible;display:inline;overflow:visible;enable-background:accumulate" />
    <path
       d="m 8.375,20.375 c -0.105071,0.23913 -0.1919916,0.488659 -0.25,0.75 L 48,61 87.875,21.125 c -0.05801,-0.261341 -0.144929,-0.51087 -0.25,-0.75 L 48,60 8.375,20.375 z M 29.5,48.5 8,70 l 0,1 21.5,-21.5 1,1 L 31,50 29.5,48.5 z m 37,0 -1.5,1.5 0.5,0.5 1,-1 L 88,71 88,70 66.5,48.5 z M 8.125,73.875 8,74 c 0,2.216 1.784,4 4,4 l 72,0 c 2.216,0 4,-1.784 4,-4 L 87.875,73.875 C 87.477351,75.666495 85.914624,77 84,77 L 12,77 C 10.085376,77 8.5226486,75.666495 8.125,73.875 z"
       transform="translate(0,-74)"
       id="path3744"
       style="opacity:0.15;color:#000000;fill:#000000;fill-opacity:1;fill-rule:nonzero;stroke:none;stroke-width:1;marker:none;visibility:visible;display:inline;overflow:visible;enable-background:accumulate" />
  </g>
</svg>
