<?xml version="1.0" encoding="UTF-8" standalone="no"?>
<svg xmlns="http://www.w3.org/2000/svg" height="16" width="16" version="1.1">
 <path d="m3.5 0c-0.831 0-1.5 0.669-1.5 1.5v4.5h-0.5c-0.831 0-1.5 0.669-1.5 1.5v4c0 0.831 0.669 1.5 1.5 1.5h0.5v1.5c0 0.831 0.669 1.5 1.5 1.5h7.5312v-2h-6.531c-0.277 0-0.5-0.223-0.5-0.5v-1.5h7.0312v-2.3125c-0.025-0.0598-0.031-0.1185-0.031-0.1875s0.0059-0.12769 0.03125-0.1875v-0.3125c-0.0061-0.44988 0.34029-0.87941 0.78125-0.96875 0.7151-0.00374 1.4598 0 2.1875 0 0.50645 0.00308 0.96582 0.46235 0.969 0.9688v3.9062c0.601-0.195 1.031-0.738 1.031-1.406v-4c0-0.831-0.669-1.5-1.5-1.5h-0.5v-4.5c0-0.831-0.669-1.5-1.5-1.5-2.9997-0.000062282-6 0.00080093-9 0zm1 2h7c0.277 0 0.5 0.223 0.5 0.5v4.5h-8v-4.5c0-0.277 0.223-0.5 0.5-0.5zm0.5 1v1h6.0312v-1h-6.031zm0 2v1h4v-1z" fill="#bebebe"/>
 <path d="m12 9v4h2v-4zm0 5v2h2v-2z" fill="#ff9000"/>
</svg>
