<?xml version="1.0" encoding="UTF-8" standalone="no"?>
<svg xmlns="http://www.w3.org/2000/svg" height="16" width="16" version="1.1">
 <path d="m3.5 0c-0.831 0-1.5 0.669-1.5 1.5v4.5h-0.5c-0.831 0-1.5 0.669-1.5 1.5v4c0 0.831 0.669 1.5 1.5 1.5h0.5v1.5c0 0.831 0.669 1.5 1.5 1.5h6.5625l-0.78125-0.78125c-0.31396-0.31023-0.38179-0.83963-0.1562-1.219h-4.625c-0.277 0-0.5-0.223-0.5-0.5v-1.5h5.125c-0.2254-0.38-0.1576-0.909 0.1563-1.219l1.5-1.5c0.15905-0.1566 0.37205-0.25736 0.594-0.281 0.01042-0.0001632 0.02083-0.0001632 0.03125 0 0.06231-0.00588 0.12518-0.00588 0.1875 0 0.2326 0.016789 0.45817 0.11829 0.625 0.28125l0.781 0.7808 0.188-0.187c-0.109-0.0917-0.188-0.2219-0.188-0.375 0-0.276 0.224-0.5 0.5-0.5 0.16156 0 0.28357 0.099741 0.375 0.21875 0.37837-0.31473 0.99628-0.28599 1.3438 0.0625l0.781 0.7807v-2.562c0-0.831-0.669-1.5-1.5-1.5h-0.5v-4.5c0-0.831-0.669-1.5-1.5-1.5-3 0.0001125-6.0007-0.00006024-9 0.0001zm1 2h7c0.277 0 0.5 0.223 0.5 0.5v4.5h-8v-4.5c0-0.277 0.223-0.5 0.5-0.5zm0.5 1v1h6.0312v-1h-6.031zm0 2v1h4v-1z" fill="#bebebe"/>
 <path d="m10.006 11.505 1.4984-1.4984 1.4984 1.4984 1.4984-1.4984 1.5 1.498-1.498 1.498 1.498 1.499-1.498 1.498-1.499-1.498-1.498 1.498-1.499-1.498 1.499-1.499-1.499-1.498z" fill="#d40000"/>
</svg>
