<?xml version="1.0" encoding="UTF-8" standalone="no"?>
<svg xmlns="http://www.w3.org/2000/svg" height="16" width="16" version="1.1">
 <g fill="#bebebe">
  <path d="m8 0s-2 3-6 3c0 11 6 13 6 13s6-2 6-13c-4 0-6-3-6-3zm0 3c0.90021 0.74015 2.0821 1.3257 3.6875 1.75-0.27972 3.9231-1.3831 6.221-2.4062 7.5-0.5349 0.669-0.9399 1.038-1.2813 1.281-0.3414-0.243-0.7464-0.612-1.2812-1.281-1.0232-1.279-2.1266-3.5769-2.4063-7.5 1.6054-0.4243 2.7873-1.0098 3.6875-1.75z"/>
  <path opacity=".45" d="m8 4c-0.7519 0.5264-1.6526 0.9648-2.7188 1.3125 0.3483 3.3104 1.2585 5.3625 2.0938 6.4065 0.2773 0.346 0.4306 0.44 0.625 0.625 0.1944-0.185 0.3477-0.279 0.625-0.625 0.8353-1.044 1.746-3.0961 2.094-6.4065-1.0664-0.3477-1.9671-0.7861-2.719-1.3125z"/>
 </g>
</svg>
