<?xml version="1.0" encoding="UTF-8" standalone="no"?>
<svg xmlns="http://www.w3.org/2000/svg" height="16" width="16" version="1.1">
 <path d="m7 2c-1.8769 0-3.4437 1.2876-3.875 3.0312-1.201 0.1826-2.125 1.2169-2.125 2.4688 0 1.3807 1.1193 2.5 2.5 2.5h4.5v-2c-0.0068-0.4949 0.4131-0.9582 0.9062-1 0.6895-0.0006 1.3978 0 2.0938 0 0.52504-0.00536 1.0054 0.47496 1 1v2h0.5c1.381 0 2.5-1.1193 2.5-2.5 0-1.2081-0.861-2.2044-2-2.4375 0.001-0.021 0-0.0414 0-0.0625 0-1.1046-0.895-2-2-2-0.38 0-0.729 0.1286-1.0312 0.3125-0.732-0.8099-1.7912-1.3125-2.9688-1.3125z" fill="#bebebe"/>
 <path d="m9 8v4h2v-4zm0 5v2h2v-2z" fill="#ff9000"/>
</svg>
