<?xml version="1.0" encoding="UTF-8" standalone="no"?>
<svg xmlns="http://www.w3.org/2000/svg" height="16" width="16" version="1.1">
 <g fill="#bebebe">
  <path d="m6.625 0-0.875 3.125-2.9375-1.375 0.8125 3.1562-3.25 0.2813 2.2812 2.3125-2.6562 1.875 3.125 0.875-0.3438 0.781c0.68551-1.134 1.8003-2 3.2188-2 1.8758 0 3.4128 1.3644 3.8125 3.125 0.86162 0.1278 1.6251 0.6802 1.9688 1.4375l1.407 0.656-0.813-3.156 3.25-0.282-2.281-2.312 2.656-1.875-3.125-0.875 1.375-2.9375-3.156 0.8125-0.282-3.25-2.312 2.2812-1.875-2.6562z"/>
  <path d="m6 10c-1.3013 0-2.397 0.842-2.8125 2-0.0527-0.004-0.1025 0-0.1563 0-1.1243 0-2.0312 0.907-2.0312 2.031 0 1.125 0.9069 2.031 2.0312 2.031l6.4688-0.062c0.828 0 1.5-0.672 1.5-1.5s-0.672-1.5-1.5-1.5c-0.1726 0-0.3457 0.04-0.5 0.094 0.001-0.032 0-0.062 0-0.094 0-1.657-1.3431-3-3-3z"/>
 </g>
</svg>
