<?xml version="1.0" encoding="UTF-8" standalone="no"?>
<svg xmlns="http://www.w3.org/2000/svg" height="16" width="16" version="1.1">
 <g fill="#bebebe">
  <path opacity=".45" d="m8 0c-3.3137 0-6 2.6863-6 6 0 1.1439 0.3195 2.2153 0.875 3.125 0.9056-1.3277 2.4067-2.2188 4.125-2.2188 1.2134 0 2.277 0.53255 3.1562 1.25 0.27979-0.094142 0.51314-0.25 0.84375-0.25 0.9059 0 1.6673 0.4368 2.1875 1.0938 0.51-0.8825 0.812-1.9071 0.812-3 0-3.3137-2.686-6-6-6z"/>
  <path d="m8 0c-3.3137 0-6 2.6863-6 6 0 1.1757 0.3531 2.2617 0.9375 3.1875 0.7272-1.072 1.8436-1.8464 3.1563-2.0937-0.4137-0.7013-0.6563-1.502-0.6563-2.375 0-2.258 1.5991-4.1324 3.7187-4.5938-0.3745-0.073208-0.7602-0.125-1.1562-0.125zm5.7188 7.7812c-0.29007 0.33756-0.62431 0.63203-1 0.875 0.1433 0.12616 0.28809 0.28429 0.40625 0.4375 0.2473-0.40837 0.44908-0.84736 0.59375-1.3125z"/>
  <path d="m7 8c-1.8769 0-3.4437 1.2876-3.875 3.031-1.201 0.183-2.125 1.217-2.125 2.469 0 1.381 1.1193 2.5 2.5 2.5h9c1.381 0 2.5-1.119 2.5-2.5 0-1.208-0.861-2.204-2-2.438 0.001-0.02 0-0.041 0-0.062 0-1.1046-0.895-2-2-2-0.38 0-0.729 0.1286-1.0312 0.3125-0.732-0.8099-1.7912-1.3125-2.9688-1.3125z"/>
 </g>
</svg>
