<?xml version="1.0" encoding="UTF-8" standalone="no"?>
<svg xmlns="http://www.w3.org/2000/svg" height="16" width="16" version="1.1">
 <g fill="#bebebe">
  <path d="m8 1c-1.8769 0-3.4437 1.2876-3.875 3.0312-1.201 0.1826-2.125 1.2169-2.125 2.4688 0 0.4315 0.1201 0.8333 0.3125 1.1875 0.9059-1.0311 2.2075-1.6875 3.6875-1.6875 1.2301 0 2.3113 0.5061 3.1875 1.25 0.2692-0.0892 0.4964-0.25 0.8125-0.25 1.273 0 2.2199 0.8595 2.625 2h0.875c1.381 0 2.5-1.1193 2.5-2.5 0-1.2081-0.861-2.2044-2-2.4375 0.001-0.021 0-0.0414 0-0.0625 0-1.1046-0.895-2-2-2-0.38 0-0.729 0.1286-1.031 0.3125-0.732-0.8099-1.7914-1.3125-2.969-1.3125z"/>
  <path d="m6 7c-1.8769 0-3.4437 1.2876-3.875 3.031-1.201 0.183-2.125 1.217-2.125 2.469 0 1.381 1.1193 2.5 2.5 2.5h9c1.381 0 2.5-1.119 2.5-2.5 0-1.208-0.861-2.204-2-2.438 0.001-0.02 0-0.041 0-0.062 0-1.1046-0.895-2-2-2-0.3799 0-0.7287 0.1286-1.0312 0.3125-0.732-0.8099-1.7912-1.3125-2.9688-1.3125z"/>
 </g>
</svg>
