<?xml version="1.0" encoding="UTF-8" standalone="no"?>
<svg xmlns="http://www.w3.org/2000/svg" height="16" width="16" version="1.1">
 <g fill="#bebebe">
  <path opacity=".45" d="m10 1c-3.3137 0-6 2.6863-6 6 0 0.7939 0.1574 1.5564 0.4375 2.25 0.4703-0.2238 0.9995-0.3438 1.5625-0.3438 1.9124 0 3.4723 1.3706 3.9062 3.1562 0.5695 0.10406 1.0776 0.39006 1.4688 0.78125 2.655-0.619 4.625-3.0009 4.625-5.844 0-3.3137-2.686-6-6-6z"/>
  <path d="m10 1c-3.3137 0-6 2.6863-6 6 0 0.8284 0.1651 1.6259 0.4688 2.3438 0.4626-0.2201 0.9768-0.3438 1.5312-0.3438 1.8839 0 3.4039 1.3594 3.8125 3.125 0.56707 0.08288 1.0777 0.33734 1.4688 0.71875 2.1185-0.4557 3.8012-2.0168 4.4375-4.0625-0.86458 1.0062-2.1319 1.6562-3.5625 1.6562-2.6034 0-4.7185-2.1156-4.7185-4.7192 0-2.258 1.5991-4.1324 3.7185-4.5938-0.374-0.0732-0.76-0.125-1.156-0.125z"/>
  <path d="m6 10c-1.3013 0-2.397 0.842-2.8125 2-0.0527-0.004-0.1025 0-0.1563 0-1.1243 0-2.0312 0.907-2.0312 2.031 0 1.125 0.9069 2.031 2.0312 2.031l6.4688-0.062c0.828 0 1.5-0.672 1.5-1.5s-0.672-1.5-1.5-1.5c-0.1726 0-0.3457 0.04-0.5 0.094 0.001-0.032 0-0.062 0-0.094 0-1.657-1.3431-3-3-3z"/>
 </g>
</svg>
