<?xml version="1.0" encoding="UTF-8" standalone="no"?>
<svg xmlns="http://www.w3.org/2000/svg" height="16" width="16" version="1.1">
 <g fill="#bebebe">
  <path d="m7 8c-1.8769 0-3.4437 1.2876-3.875 3.031-1.201 0.183-2.125 1.217-2.125 2.469 0 1.381 1.1193 2.5 2.5 2.5h9c1.381 0 2.5-1.119 2.5-2.5 0-1.208-0.861-2.204-2-2.438 0.001-0.02 0-0.041 0-0.062 0-1.1046-0.895-2-2-2-0.38 0-0.729 0.1286-1.0312 0.3125-0.732-0.8099-1.7912-1.3125-2.9688-1.3125z"/>
  <path d="m6.625 0-0.875 3.125-2.9375-1.375 0.8125 3.1562-3.25 0.2813 2.2812 2.3125-2.6562 1.875 2.4375 0.687c0.7555-1.797 2.5003-3.062 4.5625-3.062 1.2154 0 2.2849 0.5214 3.156 1.25 0.277-0.0946 0.517-0.25 0.844-0.25 1.4289 0 2.4882 1.0907 2.7812 2.4375 0.29036 0.12476 0.56051 0.28597 0.8125 0.46875l1.031-0.094-2.281-2.312 2.656-1.875-3.125-0.875 1.375-2.9375-3.156 0.8125-0.282-3.25-2.312 2.2812-1.875-2.6562z"/>
 </g>
</svg>
