<?xml version="1.0" encoding="UTF-8" standalone="no"?>
<svg xmlns="http://www.w3.org/2000/svg" height="16" width="16" version="1.1">
 <g fill="#bebebe">
  <path d="m7 1c-1.8769 0-3.4437 1.2876-3.875 3.0312-1.201 0.1826-2.125 1.2169-2.125 2.4688 0 1.3807 1.1193 2.5 2.5 2.5h9c1.381 0 2.5-1.1193 2.5-2.5 0-1.2081-0.861-2.2044-2-2.4375 0.001-0.021 0-0.0414 0-0.0625 0-1.1046-0.895-2-2-2-0.38 0-0.729 0.1286-1.0312 0.3125-0.732-0.8099-1.7912-1.3125-2.9688-1.3125z"/>
  <rect height="1" width="1" y="14" x="1"/>
  <rect height="1" width="1" y="12" x="2"/>
  <rect height="1" width="1" y="10" x="3"/>
  <rect height="1" width="1" y="14" x="3"/>
  <rect height="1" width="1" y="12" x="4"/>
  <rect height="1" width="1" y="10" x="5"/>
  <rect height="1" width="1" y="14" x="5"/>
  <rect height="1" width="1" y="12" x="6"/>
  <rect height="1" width="1" y="10" x="7"/>
  <rect height="1" width="1" y="14" x="7"/>
  <rect height="1" width="1" y="12" x="8"/>
  <rect height="1" width="1" y="10" x="9"/>
  <rect height="1" width="1" y="14" x="9"/>
  <rect height="1" width="1" y="12" x="10"/>
  <rect height="1" width="1" y="10" x="11"/>
 </g>
</svg>
