<!-- Created with Inkscape (http://www.inkscape.org/) -->
<svg xmlns:dc="http://purl.org/dc/elements/1.1/" xmlns:cc="http://creativecommons.org/ns#" xmlns:rdf="http://www.w3.org/1999/02/22-rdf-syntax-ns#" xmlns:svg="http://www.w3.org/2000/svg" xmlns="http://www.w3.org/2000/svg" xmlns:xlink="http://www.w3.org/1999/xlink" xmlns:sodipodi="http://sodipodi.sourceforge.net/DTD/sodipodi-0.dtd" xmlns:inkscape="http://www.inkscape.org/namespaces/inkscape" width="48px" height="48px" id="svg21169" version="1.1" inkscape:version="0.48.4 r9939" sodipodi:docname="folder-publicshare.svg">
  <defs id="defs21171">
    <linearGradient inkscape:collect="always" xlink:href="#linearGradient3454-2-8-6-1-1-8-0-6-7-3-1" id="linearGradient3381-56-2-7-5-0-8-0-0-4-6-1" gradientUnits="userSpaceOnUse" gradientTransform="matrix(0.89189031,0,0,1.0580283,3.1206609,5.3536023)" x1="42.470848" y1="11.952797" x2="42.470848" y2="35.581654"/>
    <linearGradient id="linearGradient3454-2-8-6-1-1-8-0-6-7-3-1">
      <stop offset="0" style="stop-color:#ffffff;stop-opacity:1" id="stop3456-4-7-9-4-0-3-6-2-9-6-7"/>
      <stop offset="0.0097359" style="stop-color:#ffffff;stop-opacity:0.23529412" id="stop3458-39-0-8-61-3-8-9-0-4-7-1"/>
      <stop offset="0.99001008" style="stop-color:#ffffff;stop-opacity:0.15686275" id="stop3460-7-5-4-1-6-6-6-2-1-4-0"/>
      <stop offset="1" style="stop-color:#ffffff;stop-opacity:0.39215687" id="stop3462-0-5-6-6-2-1-6-0-3-1-3"/>
    </linearGradient>
    <linearGradient inkscape:collect="always" xlink:href="#linearGradient6129-963-697-142-998-580-273-0-8-4-9-0-0-0-1-3-6" id="linearGradient3072-0-3-0-7-4-8-7-3-6-5" gradientUnits="userSpaceOnUse" gradientTransform="matrix(1.1446925,0,0,0.9977536,-3.4660853,1.0988278)" x1="22.934725" y1="49.629246" x2="22.809399" y2="36.657963"/>
    <linearGradient id="linearGradient6129-963-697-142-998-580-273-0-8-4-9-0-0-0-1-3-6">
      <stop id="stop2661-3-02-4-8-0-4-3-4-7-9" style="stop-color:#0a0a0a;stop-opacity:0.498" offset="0"/>
      <stop id="stop2663-2-8-06-2-4-6-4-3-8-8" style="stop-color:#0a0a0a;stop-opacity:0" offset="1"/>
    </linearGradient>
    <linearGradient inkscape:collect="always" xlink:href="#linearGradient4632-0-6-4" id="linearGradient4638-4-6-8-9-9-5-8-7-2-3" x1="35.792694" y1="17.118193" x2="35.792694" y2="43.761127" gradientUnits="userSpaceOnUse" gradientTransform="matrix(1,0,0,1.0357143,1.4680025e-5,-1.5891022)"/>
    <linearGradient id="linearGradient4632-0-6-4">
      <stop style="stop-color:#e799c5;stop-opacity:1;" offset="0" id="stop4634-4-4-7"/>
      <stop style="stop-color:#a7276b;stop-opacity:1;" offset="1" id="stop4636-3-1-5"/>
    </linearGradient>
    <radialGradient inkscape:collect="always" xlink:href="#linearGradient5060-820-9-0-7-1-7-7-1-6-6-0" id="radialGradient3080-2-3-9-9-8-8-9-6-1-3" gradientUnits="userSpaceOnUse" gradientTransform="matrix(-0.03079083,0,0,0.02470588,23.389815,31.941628)" cx="605.71429" cy="486.64789" fx="605.71429" fy="486.64789" r="117.14286"/>
    <linearGradient id="linearGradient5060-820-9-0-7-1-7-7-1-6-6-0">
      <stop id="stop2681-5-4-3-6-3-8-2-6-8-6" style="stop-color:#000000;stop-opacity:1" offset="0"/>
      <stop id="stop2683-8-6-9-4-6-6-2-9-6-6" style="stop-color:#000000;stop-opacity:0" offset="1"/>
    </linearGradient>
    <radialGradient inkscape:collect="always" xlink:href="#linearGradient5060-179-2-0-3-6-2-2-8-9-8-8" id="radialGradient3083-4-5-6-4-5-0-5-1-0-7" gradientUnits="userSpaceOnUse" gradientTransform="matrix(0.03079083,0,0,0.02470588,24.610215,31.941628)" cx="605.71429" cy="486.64789" fx="605.71429" fy="486.64789" r="117.14286"/>
    <linearGradient id="linearGradient5060-179-2-0-3-6-2-2-8-9-8-8">
      <stop id="stop2675-9-9-4-1-4-4-9-5-7-2" style="stop-color:#000000;stop-opacity:1" offset="0"/>
      <stop id="stop2677-1-7-2-6-1-8-3-8-0-8" style="stop-color:#000000;stop-opacity:0" offset="1"/>
    </linearGradient>
    <linearGradient inkscape:collect="always" xlink:href="#linearGradient5048-585-4-0-56-2-5-2-1-1-6-8" id="linearGradient3086-4-4-0-5-5-7-4-8-7-0" gradientUnits="userSpaceOnUse" gradientTransform="matrix(0.07938856,0,0,0.02470588,-4.6932853,31.941628)" x1="302.85715" y1="366.64789" x2="302.85715" y2="609.50507"/>
    <linearGradient id="linearGradient5048-585-4-0-56-2-5-2-1-1-6-8">
      <stop id="stop2667-5-0-7-4-7-7-2-4-6-2" style="stop-color:#000000;stop-opacity:0" offset="0"/>
      <stop id="stop2669-4-1-8-0-6-9-3-7-4-6" style="stop-color:#000000;stop-opacity:1" offset="0.5"/>
      <stop id="stop2671-2-6-3-2-0-6-0-0-8-2" style="stop-color:#000000;stop-opacity:0" offset="1"/>
    </linearGradient>
    <linearGradient inkscape:collect="always" xlink:href="#linearGradient4507-9-2-2-3-6-9-9-4-9-0" id="linearGradient3381-5-5-29-4-6-5-0-4-9-2-5" gradientUnits="userSpaceOnUse" gradientTransform="matrix(0.89189031,0,0,1.0580283,3.1207147,5.3535878)" x1="21.37039" y1="4.2476678" x2="21.37039" y2="34.143417"/>
    <linearGradient id="linearGradient4507-9-2-2-3-6-9-9-4-9-0">
      <stop id="stop4509-9-8-4-2-3-4-5-1-6-1" style="stop-color:#ffffff;stop-opacity:1" offset="0"/>
      <stop id="stop4511-7-50-2-1-3-9-4-5-9-8" style="stop-color:#ffffff;stop-opacity:0.23529412" offset="0.07395859"/>
      <stop id="stop4513-2-0-2-9-2-6-2-6-3-0" style="stop-color:#ffffff;stop-opacity:0.15686275" offset="0.99001008"/>
      <stop id="stop4515-3-9-8-6-6-0-7-5-8-6" style="stop-color:#ffffff;stop-opacity:0.39215687" offset="1"/>
    </linearGradient>
    <linearGradient inkscape:collect="always" xlink:href="#linearGradient4646-6-91-5-0-5-8-4-9-9-6" id="linearGradient3089-5-2-9-8-6-8-0-7-1-8-7-4" gradientUnits="userSpaceOnUse" gradientTransform="translate(-50.94088,-1.2229149e-5)" x1="62.988873" y1="13" x2="62.988873" y2="16"/>
    <linearGradient id="linearGradient4646-6-91-5-0-5-8-4-9-9-6">
      <stop offset="0" style="stop-color:#f9f9f9;stop-opacity:1" id="stop4648-2-4-6-6-8-7-1-1-7-5"/>
      <stop offset="1" style="stop-color:#d8d8d8;stop-opacity:1" id="stop4650-3-8-5-3-4-5-7-4-8-2"/>
    </linearGradient>
    <linearGradient id="linearGradient3104-8-8-97-4-6-2-0-1-4-0-5-8-3-5-7">
      <stop offset="0" style="stop-color:#000000;stop-opacity:0.32173914" id="stop3106-5-4-3-5-0-1-61-9-2-7-3-3-1-3-4"/>
      <stop offset="1" style="stop-color:#000000;stop-opacity:0.27826086" id="stop3108-4-3-7-8-2-4-01-9-9-0-6-4-4-0-4"/>
    </linearGradient>
    <linearGradient y2="3.6336823" x2="-51.786404" y1="53.514328" x1="-51.786404" gradientTransform="matrix(0.80749834,0,0,0.83374395,106.8767,-0.06985223)" gradientUnits="userSpaceOnUse" id="linearGradient21167" xlink:href="#linearGradient3104-8-8-97-4-6-2-0-1-4-0-5-8-3-5-7" inkscape:collect="always"/>
    <linearGradient gradientUnits="userSpaceOnUse" y2="44.347122" x2="22.355932" y1="16.268967" x1="22.355932" id="linearGradient3907" xlink:href="#linearGradient7012-661-145-733-759-865-745" inkscape:collect="always"/>
    <radialGradient r="21" fy="5.01718" fx="3" cy="5.01718" cx="3" gradientTransform="matrix(-1.274898e-8,1.7142916,-2.159331,-1.4599595e-8,12.809361,2.8570011)" gradientUnits="userSpaceOnUse" id="radialGradient3137" xlink:href="#linearGradient3484" inkscape:collect="always"/>
    <linearGradient y2="16.19013" x2="62.988873" y1="13.182598" x1="62.988873" gradientTransform="translate(-50.940898,0)" gradientUnits="userSpaceOnUse" id="linearGradient3135" xlink:href="#linearGradient6404" inkscape:collect="always"/>
    <linearGradient y2="609.50507" x2="302.85715" y1="366.64789" x1="302.85715" gradientTransform="matrix(0.07938856,0,0,0.02470588,-4.693293,31.941642)" gradientUnits="userSpaceOnUse" id="linearGradient3132" xlink:href="#linearGradient5048-585" inkscape:collect="always"/>
    <radialGradient r="117.14286" fy="486.64789" fx="605.71429" cy="486.64789" cx="605.71429" gradientTransform="matrix(0.03079083,0,0,0.02470588,24.610252,31.941642)" gradientUnits="userSpaceOnUse" id="radialGradient3129" xlink:href="#linearGradient5060-179" inkscape:collect="always"/>
    <radialGradient r="117.14286" fy="486.64789" fx="605.71429" cy="486.64789" cx="605.71429" gradientTransform="matrix(-0.03079083,0,0,0.02470588,23.389748,31.941642)" gradientUnits="userSpaceOnUse" id="radialGradient3126" xlink:href="#linearGradient5060-820" inkscape:collect="always"/>
    <linearGradient y2="16.047026" x2="82.453476" y1="45.114193" x1="82.453476" gradientTransform="translate(-53.765393,-0.1141929)" gradientUnits="userSpaceOnUse" id="linearGradient3123" xlink:href="#linearGradient3390" inkscape:collect="always"/>
    <linearGradient y2="36.657963" x2="22.809399" y1="49.629246" x1="22.934725" gradientTransform="matrix(1.1446925,0,0,0.9977536,-3.4661413,1.0988425)" gradientUnits="userSpaceOnUse" id="linearGradient3118" xlink:href="#linearGradient6129-963-697-142-998-580-273" inkscape:collect="always"/>
    <radialGradient r="20.979567" fy="8.3021259" fx="7.2646537" cy="8.3021259" cx="7.2646537" gradientTransform="matrix(0,1.2079744,-1.6271642,0,26.371748,8.2664685)" gradientUnits="userSpaceOnUse" id="radialGradient3115" xlink:href="#linearGradient6087-437-184-795-110-662-495" inkscape:collect="always"/>
    <linearGradient y2="33.95525" x2="15.214532" y1="22.292103" x1="11.566265" gradientUnits="userSpaceOnUse" id="linearGradient3112" xlink:href="#linearGradient8265-821-176-38-919-66-249" inkscape:collect="always"/>
    <linearGradient y2="33.95525" x2="15.214532" y1="22.292103" x1="11.566265" gradientUnits="userSpaceOnUse" id="linearGradient3109" xlink:href="#linearGradient8265-821-176-38-919-66-249" inkscape:collect="always"/>
    <radialGradient r="20.979567" fy="8.3021259" fx="7.2646537" cy="8.3021259" cx="7.2646537" gradientTransform="matrix(0,1.2079744,-1.6271642,0,26.371748,8.2664685)" gradientUnits="userSpaceOnUse" id="radialGradient3107" xlink:href="#linearGradient6087-437-184-795-110-662-495" inkscape:collect="always"/>
    <linearGradient y2="36.657963" x2="22.809399" y1="49.629246" x1="22.934725" gradientTransform="matrix(1.1446925,0,0,0.9977536,-3.4661413,1.0988425)" gradientUnits="userSpaceOnUse" id="linearGradient3105" xlink:href="#linearGradient6129-963-697-142-998-580-273" inkscape:collect="always"/>
    <linearGradient y2="16.047026" x2="82.453476" y1="45.114193" x1="82.453476" gradientTransform="translate(-53.765393,-0.1141929)" gradientUnits="userSpaceOnUse" id="linearGradient3103" xlink:href="#linearGradient3390" inkscape:collect="always"/>
    <radialGradient r="23.097054" fy="14.113381" fx="63.969177" cy="14.113381" cx="63.969177" gradientTransform="matrix(1.5646925,-9.5143002e-8,6.1772287e-8,1.015888,-86.212573,8.1461173)" gradientUnits="userSpaceOnUse" id="radialGradient3101" xlink:href="#linearGradient7012-661-145-733-759-865-745" inkscape:collect="always"/>
    <radialGradient r="117.14286" fy="486.64789" fx="605.71429" cy="486.64789" cx="605.71429" gradientTransform="matrix(-0.03079083,0,0,0.02470588,23.389748,31.941642)" gradientUnits="userSpaceOnUse" id="radialGradient3099" xlink:href="#linearGradient5060-820" inkscape:collect="always"/>
    <radialGradient r="117.14286" fy="486.64789" fx="605.71429" cy="486.64789" cx="605.71429" gradientTransform="matrix(0.03079083,0,0,0.02470588,24.610252,31.941642)" gradientUnits="userSpaceOnUse" id="radialGradient3097" xlink:href="#linearGradient5060-179" inkscape:collect="always"/>
    <linearGradient y2="609.50507" x2="302.85715" y1="366.64789" x1="302.85715" gradientTransform="matrix(0.07938856,0,0,0.02470588,-4.693293,31.941642)" gradientUnits="userSpaceOnUse" id="linearGradient3095" xlink:href="#linearGradient5048-585" inkscape:collect="always"/>
    <radialGradient r="21" fy="5.01718" fx="3" cy="5.01718" cx="3" gradientTransform="matrix(-1.274898e-8,1.7142916,-2.159331,-1.4599595e-8,12.809361,2.8570011)" gradientUnits="userSpaceOnUse" id="radialGradient3093" xlink:href="#linearGradient3484" inkscape:collect="always"/>
    <linearGradient y2="16.19013" x2="62.988873" y1="13.182598" x1="62.988873" gradientTransform="translate(-50.940898,0)" gradientUnits="userSpaceOnUse" id="linearGradient3091" xlink:href="#linearGradient6404" inkscape:collect="always"/>
    <radialGradient r="21" fy="41.5" fx="32" cy="41.5" cx="32" gradientTransform="matrix(0.5714286,0,0,0.1666667,14.714283,37.583334)" gradientUnits="userSpaceOnUse" id="radialGradient3080" xlink:href="#linearGradient5060" inkscape:collect="always"/>
    <radialGradient r="16" fy="28.659998" fx="24.999998" cy="28.659998" cx="24.999998" gradientTransform="matrix(0.8891139,0,0,0.2643979,7.3850515,29.359857)" gradientUnits="userSpaceOnUse" id="radialGradient3077" xlink:href="#linearGradient6954" inkscape:collect="always"/>
    <linearGradient y2="83.733253" x2="24.348665" y1="57.333424" x1="24.348665" gradientTransform="matrix(0.6551745,0,0,0.6818225,16.047376,-11.09122)" gradientUnits="userSpaceOnUse" id="linearGradient3074" xlink:href="#linearGradient3341" inkscape:collect="always"/>
    <radialGradient r="8" fy="12.31301" fx="26.375898" cy="12.31301" cx="26.375898" gradientTransform="matrix(0.9841231,-0.08459387,0.07687018,1.0112316,3.9614759,12.655281)" gradientUnits="userSpaceOnUse" id="radialGradient3071" xlink:href="#linearGradient6954" inkscape:collect="always"/>
    <linearGradient y2="37.4375" x2="17" y1="39" x1="22" gradientTransform="matrix(0.75,0,0,0.6521739,11.250004,17.226089)" gradientUnits="userSpaceOnUse" id="linearGradient3068" xlink:href="#linearGradient5060" inkscape:collect="always"/>
    <linearGradient y2="38.599998" x2="43" y1="39" x1="38" gradientTransform="matrix(0.75,0,0,0.6521739,9.7500044,17.226089)" gradientUnits="userSpaceOnUse" id="linearGradient3065" xlink:href="#linearGradient5060" inkscape:collect="always"/>
    <radialGradient r="4.6875" fy="33.1875" fx="30" cy="33.1875" cx="30" gradientTransform="matrix(1.3038704,-4.7098302e-7,1.8183369e-7,0.3072442,-6.11612,26.803347)" gradientUnits="userSpaceOnUse" id="radialGradient3062" xlink:href="#linearGradient5060" inkscape:collect="always"/>
    <linearGradient y2="27.956825" x2="29.999992" y1="5.7028165" x1="29.999992" gradientTransform="matrix(0.5410937,0,0,0.603279,16.767194,16.55961)" gradientUnits="userSpaceOnUse" id="linearGradient3059" xlink:href="#linearGradient3341" inkscape:collect="always"/>
    <linearGradient gradientTransform="matrix(0.5410937,0,0,0.603279,16.767194,16.55961)" gradientUnits="userSpaceOnUse" xlink:href="#linearGradient3341" id="linearGradient2517" y2="27.956825" x2="29.999992" y1="5.7028165" x1="29.999992"/>
    <linearGradient id="linearGradient3341">
      <stop offset="0" style="stop-color:#ffffff;stop-opacity:1" id="stop3343"/>
      <stop offset="1" style="stop-color:#ffffff;stop-opacity:0" id="stop3345"/>
    </linearGradient>
    <radialGradient gradientTransform="matrix(1.3038704,-4.7098302e-7,1.8183369e-7,0.3072442,-6.11612,26.803347)" gradientUnits="userSpaceOnUse" xlink:href="#linearGradient5060" id="radialGradient2520" fy="33.1875" fx="30" r="4.6875" cy="33.1875" cx="30"/>
    <linearGradient id="linearGradient5060">
      <stop offset="0" style="stop-color:#000000;stop-opacity:1" id="stop5062"/>
      <stop offset="1" style="stop-color:#000000;stop-opacity:0" id="stop5064"/>
    </linearGradient>
    <linearGradient gradientTransform="matrix(0.75,0,0,0.6521739,9.7500044,17.226089)" gradientUnits="userSpaceOnUse" xlink:href="#linearGradient5060" id="linearGradient2523" y2="38.599998" x2="43" y1="39" x1="38"/>
    <linearGradient gradientTransform="matrix(0.75,0,0,0.6521739,11.250004,17.226089)" gradientUnits="userSpaceOnUse" xlink:href="#linearGradient5060" id="linearGradient2526" y2="37.4375" x2="17" y1="39" x1="22"/>
    <radialGradient gradientTransform="matrix(0.9841231,-0.08459387,0.07687018,1.0112316,3.9614759,12.655281)" gradientUnits="userSpaceOnUse" xlink:href="#linearGradient6954" id="radialGradient2529" fy="12.31301" fx="26.375898" r="8" cy="12.31301" cx="26.375898"/>
    <linearGradient id="linearGradient6954">
      <stop offset="0" style="stop-color:#f5f5f5;stop-opacity:1" id="stop6960"/>
      <stop offset="1" style="stop-color:#d2d2d2;stop-opacity:1" id="stop6962"/>
    </linearGradient>
    <linearGradient gradientTransform="matrix(0.6551745,0,0,0.6818225,16.047376,-11.09122)" gradientUnits="userSpaceOnUse" xlink:href="#linearGradient3341" id="linearGradient2534" y2="83.733253" x2="24.348665" y1="57.333424" x1="24.348665"/>
    <radialGradient gradientTransform="matrix(0.8891139,0,0,0.2643979,7.3850515,29.359857)" gradientUnits="userSpaceOnUse" xlink:href="#linearGradient6954" id="radialGradient2537" fy="28.659998" fx="24.999998" r="16" cy="28.659998" cx="24.999998"/>
    <radialGradient gradientTransform="matrix(0.5714286,0,0,0.1666667,14.714283,37.583334)" gradientUnits="userSpaceOnUse" xlink:href="#linearGradient5060" id="radialGradient2542" fy="41.5" fx="32" r="21" cy="41.5" cx="32"/>
    <linearGradient gradientTransform="translate(-50.940898,0)" gradientUnits="userSpaceOnUse" xlink:href="#linearGradient6404" id="linearGradient2450" y2="16.19013" x2="62.988873" y1="13.182598" x1="62.988873"/>
    <linearGradient id="linearGradient6404">
      <stop offset="0" style="stop-color:#f9f9f9;stop-opacity:1" id="stop6406"/>
      <stop offset="1" style="stop-color:#c9c9c9;stop-opacity:1" id="stop6408"/>
    </linearGradient>
    <radialGradient gradientTransform="matrix(-1.274898e-8,1.7142916,-2.159331,-1.4599595e-8,12.809361,2.8570011)" gradientUnits="userSpaceOnUse" xlink:href="#linearGradient3484" id="radialGradient2452" fy="5.01718" fx="3" r="21" cy="5.01718" cx="3"/>
    <linearGradient id="linearGradient3484">
      <stop offset="0" style="stop-color:#bdbdbd;stop-opacity:1" id="stop3486"/>
      <stop offset="1" style="stop-color:#d0d0d0;stop-opacity:1" id="stop3488"/>
    </linearGradient>
    <linearGradient gradientTransform="matrix(0.07938856,0,0,0.02470588,-4.693293,31.941642)" gradientUnits="userSpaceOnUse" xlink:href="#linearGradient5048-585" id="linearGradient2467" y2="609.50507" x2="302.85715" y1="366.64789" x1="302.85715"/>
    <linearGradient id="linearGradient5048-585">
      <stop offset="0" style="stop-color:#000000;stop-opacity:0" id="stop2667"/>
      <stop offset="0.5" style="stop-color:#000000;stop-opacity:1" id="stop2669"/>
      <stop offset="1" style="stop-color:#000000;stop-opacity:0" id="stop2671"/>
    </linearGradient>
    <radialGradient gradientTransform="matrix(0.03079083,0,0,0.02470588,24.610252,31.941642)" gradientUnits="userSpaceOnUse" xlink:href="#linearGradient5060-179" id="radialGradient2464" fy="486.64789" fx="605.71429" r="117.14286" cy="486.64789" cx="605.71429"/>
    <linearGradient id="linearGradient5060-179">
      <stop offset="0" style="stop-color:#000000;stop-opacity:1" id="stop2675"/>
      <stop offset="1" style="stop-color:#000000;stop-opacity:0" id="stop2677"/>
    </linearGradient>
    <radialGradient gradientTransform="matrix(-0.03079083,0,0,0.02470588,23.389748,31.941642)" gradientUnits="userSpaceOnUse" xlink:href="#linearGradient5060-820" id="radialGradient2461" fy="486.64789" fx="605.71429" r="117.14286" cy="486.64789" cx="605.71429"/>
    <linearGradient id="linearGradient5060-820">
      <stop offset="0" style="stop-color:#000000;stop-opacity:1" id="stop2681"/>
      <stop offset="1" style="stop-color:#000000;stop-opacity:0" id="stop2683"/>
    </linearGradient>
    <radialGradient gradientTransform="matrix(1.5646925,-9.5143002e-8,6.1772287e-8,1.015888,-86.212573,8.1461173)" gradientUnits="userSpaceOnUse" xlink:href="#linearGradient7012-661-145-733-759-865-745" id="radialGradient2441" fy="14.113381" fx="63.969177" r="23.097054" cy="14.113381" cx="63.969177"/>
    <linearGradient id="linearGradient7012-661-145-733-759-865-745">
      <stop offset="0" style="stop-color:#aacb7d;stop-opacity:1" id="stop2699"/>
      <stop offset="1" style="stop-color:#709937;stop-opacity:1" id="stop2701"/>
    </linearGradient>
    <linearGradient gradientTransform="translate(-53.765393,-0.1141929)" gradientUnits="userSpaceOnUse" xlink:href="#linearGradient3390" id="linearGradient2443" y2="16.047026" x2="82.453476" y1="45.114193" x1="82.453476"/>
    <linearGradient id="linearGradient3390">
      <stop offset="0" style="stop-color:#51751e;stop-opacity:1" id="stop3392"/>
      <stop offset="1" style="stop-color:#51751e;stop-opacity:1" id="stop3394"/>
    </linearGradient>
    <linearGradient gradientTransform="matrix(1.1446925,0,0,0.9977536,-3.4661413,1.0988425)" gradientUnits="userSpaceOnUse" xlink:href="#linearGradient6129-963-697-142-998-580-273" id="linearGradient2438" y2="36.657963" x2="22.809399" y1="49.629246" x1="22.934725"/>
    <linearGradient id="linearGradient6129-963-697-142-998-580-273">
      <stop offset="0" style="stop-color:#0a0a0a;stop-opacity:0.498" id="stop2661"/>
      <stop offset="1" style="stop-color:#0a0a0a;stop-opacity:0" id="stop2663"/>
    </linearGradient>
    <radialGradient gradientTransform="matrix(0,1.2079744,-1.6271642,0,26.371748,8.2664685)" gradientUnits="userSpaceOnUse" xlink:href="#linearGradient6087-437-184-795-110-662-495" id="radialGradient2435" fy="8.3021259" fx="7.2646537" r="20.979567" cy="8.3021259" cx="7.2646537"/>
    <linearGradient id="linearGradient6087-437-184-795-110-662-495">
      <stop offset="0" style="stop-color:#ffffff;stop-opacity:0.40000001" id="stop2693"/>
      <stop offset="1" style="stop-color:#ffffff;stop-opacity:0" id="stop2695"/>
    </linearGradient>
    <linearGradient gradientUnits="userSpaceOnUse" xlink:href="#linearGradient8265-821-176-38-919-66-249" id="linearGradient2432" y2="33.95525" x2="15.214532" y1="22.292103" x1="11.566265"/>
    <linearGradient id="linearGradient8265-821-176-38-919-66-249">
      <stop offset="0" style="stop-color:#ffffff;stop-opacity:0.2" id="stop2687"/>
      <stop offset="1" style="stop-color:#ffffff;stop-opacity:0" id="stop2689"/>
    </linearGradient>
    <inkscape:perspective id="perspective84" inkscape:persp3d-origin="24 : 16 : 1" inkscape:vp_z="48 : 24 : 1" inkscape:vp_y="0 : 1000 : 0" inkscape:vp_x="0 : 24 : 1" sodipodi:type="inkscape:persp3d"/>
  </defs>
  <sodipodi:namedview id="base" pagecolor="#ffffff" bordercolor="#666666" borderopacity="1.0" inkscape:pageopacity="0.0" inkscape:pageshadow="2" inkscape:zoom="7" inkscape:cx="10.44" inkscape:cy="24" inkscape:current-layer="layer1" showgrid="true" inkscape:grid-bbox="true" inkscape:document-units="px" inkscape:window-width="825" inkscape:window-height="414" inkscape:window-x="76" inkscape:window-y="224" inkscape:window-maximized="0"/>
  <metadata id="metadata21174">
    <rdf:RDF>
      <cc:Work rdf:about="">
        <dc:format>image/svg+xml</dc:format>
        <dc:type rdf:resource="http://purl.org/dc/dcmitype/StillImage"/>
        <dc:title/>
      </cc:Work>
    </rdf:RDF>
  </metadata>
  <g id="layer1" inkscape:label="Layer 1" inkscape:groupmode="layer">
    <path inkscape:connector-curvature="0" style="opacity:0.8;color:#000000;fill:none;stroke:url(#linearGradient21167);stroke-width:1;stroke-linecap:butt;stroke-linejoin:miter;stroke-miterlimit:4;stroke-opacity:1;stroke-dasharray:none;stroke-dashoffset:0;marker:none;visibility:visible;display:inline;overflow:visible;enable-background:accumulate" d="m 5.5000147,8.4999878 c -0.554,0 -1,0.446 -1,1 l 0,2.0000002 -1,0 c -0.554,0 -1,0.446 -1,1 l 0,6 c 0,0.554 0.446,1 1,1 l 40.9999903,0 c 0.554,0 1,-0.446 1,-1 l 0,-6 c 0,-0.554 -0.446,-1 -1,-1 l -22.99999,0 0,-2.0000002 c 0,-0.554 -0.446,-1 -1,-1 l -15.0000003,0 z" id="rect4251-0-0-1-1-9-5-2-3-2-5-9"/>
    <path inkscape:connector-curvature="0" style="color:#000000;fill:url(#linearGradient3089-5-2-9-8-6-8-0-7-1-8-7-4);fill-opacity:1;fill-rule:nonzero;stroke:none;stroke-width:0.99992168;marker:none;visibility:visible;display:inline;overflow:visible;enable-background:accumulate" d="m 5.5000147,8.9999878 c -0.277,0 -0.5,0.223 -0.5,0.5 l 0,2.5000002 -1.5,0 c -0.277,0 -0.5,0.223 -0.5,0.5 l 0,6 c 0,0.277 0.223,0.5 0.5,0.5 l 40.9999903,0 c 0.277,0 0.5,-0.223 0.5,-0.5 l 0,-6 c 0,-0.277 -0.223,-0.5 -0.5,-0.5 l -23.49999,0 0,-2.5000002 c 0,-0.277 -0.223,-0.5 -0.5,-0.5 l -15.0000003,0 z" id="rect4251-4-7-62-4-4-9-2-5-6-0"/>
    <path inkscape:connector-curvature="0" style="color:#000000;fill:none;stroke:url(#linearGradient3381-5-5-29-4-6-5-0-4-9-2-5);stroke-width:1;stroke-linecap:round;stroke-linejoin:round;stroke-miterlimit:4;stroke-opacity:1;stroke-dasharray:none;stroke-dashoffset:0;marker:none;visibility:visible;display:inline;overflow:visible;enable-background:accumulate" d="m 5.5000147,9.4999878 0,3.0000002 -2,0 0,7 40.9999903,0 0,-7 -23.99999,0 0,-3.0000002 -15.0000003,0 z" id="rect4251-9-9-0-05-2-0-5-9-2-3-8"/>
    <rect style="opacity:0.3;fill:url(#linearGradient3086-4-4-0-5-5-7-4-8-7-0);fill-opacity:1;fill-rule:nonzero;stroke:none;stroke-width:1;marker:none;visibility:visible;display:inline;overflow:visible" id="rect4173-6-7-7-3-5-1-4-5-7-0" y="41" x="4.8333807" height="6.0000005" width="38.333332"/>
    <path style="opacity:0.3;fill:url(#radialGradient3083-4-5-6-4-5-0-5-1-0-7);fill-opacity:1;fill-rule:nonzero;stroke:none;stroke-width:1;marker:none;visibility:visible;display:inline;overflow:visible" id="path5058-7-9-1-3-0-3-4-8-9-3" inkscape:connector-curvature="0" d="m 43.166705,41.000198 c 0,0 0,5.99967 0,5.99967 1.5856,0.0113 3.8333,-1.34422 3.8333,-3.00022 0,-1.656 -1.7695,-2.99945 -3.8333,-2.99945 z"/>
    <path style="opacity:0.3;fill:url(#radialGradient3080-2-3-9-9-8-8-9-6-1-3);fill-opacity:1;fill-rule:nonzero;stroke:none;stroke-width:1;marker:none;visibility:visible;display:inline;overflow:visible" id="path5018-8-1-1-6-9-4-9-7-5-7" inkscape:connector-curvature="0" d="m 4.8333147,41.000198 c 0,0 0,5.99967 0,5.99967 -1.5856,0.0113 -3.8333,-1.34422 -3.8333,-3.00022 0,-1.656 1.7695,-2.99945 3.8333,-2.99945 z"/>
    <path style="fill:url(#linearGradient4638-4-6-8-9-9-5-8-7-2-3);fill-opacity:1;stroke:none" id="path3388-1-43-0-7-6-2-7-8-5-7" inkscape:connector-curvature="0" d="m 2.1626147,15.500178 c -1.0723,0.12829 -0.4996,1.45416 -0.5851,2.19974 0.1245,0.48182 0.9275,26.17643 0.9275,26.17643 0,0.7414 0.3517,0.61579 1.2429,0.61579 13.1886003,0 27.7725903,0 40.9610903,0 0.9601,0.0231 0.7572,0.0121 0.7572,-0.62748 0,0 0.993,-27.35421 1.0285,-27.7811 0,-0.44949 0.09,-0.58338 -0.4732,-0.58338 -14.084,0 -29.77479,0 -43.8588903,0 z" sodipodi:nodetypes="ccsscccsc"/>
    <path style="opacity:0.4;fill:url(#linearGradient3072-0-3-0-7-4-8-7-3-6-5);fill-opacity:1;stroke:none" id="path6127-7-1-6-4-8-5-0-8-2-3" inkscape:connector-curvature="0" d="m 2.0582147,16.065138 43.8964903,4e-4 c 0.6342,0 1.0452,0.44461 1.0452,0.99737 l -1.0324,26.96037 c 0.015,0.6994 -0.2091,0.97671 -0.9459,0.96204 l -41.7807903,-0.0176 c -0.6341,0 -1.2736,-0.41276 -1.2736,-0.96551 l -0.9541,-26.93932 c 0,-0.55276 0.411,-0.99775 1.0451,-0.99775 z"/>
    <path sodipodi:type="inkscape:offset" inkscape:radius="-1.0151105" inkscape:original="M 2.15625 16.5 C 1.0839484 16.623862 1.6479947 17.905133 1.5625 18.625 C 1.6869357 19.090206 2.5 43.90625 2.5 43.90625 C 2.5 44.622082 2.8587963 44.5 3.75 44.5 L 44.71875 44.5 C 45.67883 44.52232 45.46875 44.492483 45.46875 43.875 C 45.46875 43.875 46.464479 17.474672 46.5 17.0625 C 46.5 16.628509 46.594572 16.5 46.03125 16.5 L 2.15625 16.5 z " style="opacity:0.5;color:#000000;fill:none;stroke:url(#linearGradient3381-56-2-7-5-0-8-0-0-4-6-1);stroke-width:0.98133707;stroke-linecap:round;stroke-linejoin:miter;stroke-miterlimit:4;stroke-opacity:1;stroke-dasharray:none;stroke-dashoffset:0;marker:none;visibility:visible;display:inline;overflow:visible;enable-background:accumulate" id="path4587-4-6-3-0-1-2-6-8-9-5" d="m 2.5,17.5 c 0.016793,0.176427 0.022163,0.517935 0.03125,0.875 0.023112,0.08641 0.025524,0.05923 0.03125,0.09375 0.011058,0.06665 0.027034,0.138257 0.03125,0.1875 0.0064,0.07474 -0.00668,0.173042 0,0.28125 0.013352,0.216416 0.045306,0.510844 0.0625,0.875 0.034388,0.728313 0.078083,1.708883 0.125,2.90625 0.093834,2.394734 0.2030642,5.55569 0.3125,8.6875 C 3.3060459,37.481691 3.4883163,43.143759 3.5,43.5 c 0.1225025,0.0036 0.071108,0 0.25,0 l 40.71875,0 c 0.0124,-0.328836 0.253182,-6.426721 0.5,-12.90625 0.126691,-3.325928 0.245386,-6.68527 0.34375,-9.21875 0.04918,-1.26674 0.09434,-2.331501 0.125,-3.09375 0.01322,-0.328618 0.02246,-0.572975 0.03125,-0.78125 L 2.5,17.5 z" transform="matrix(1,0,0,1.0383977,1.4680025e-5,-1.6703722)"/>
    <path style="opacity:0.3;fill:none;stroke:#000000;stroke-width:1;stroke-linecap:round;stroke-linejoin:round;stroke-miterlimit:4;stroke-opacity:1;stroke-dashoffset:0" id="path3388-1-43-0-7-6-2-7-8-5-7-1" inkscape:connector-curvature="0" d="m 2.1626147,15.500178 c -1.0723,0.12829 -0.4996,1.45416 -0.5851,2.19974 0.1245,0.48182 0.9275,26.17643 0.9275,26.17643 0,0.7414 0.3517,0.61579 1.2429,0.61579 13.1886003,0 27.7725903,0 40.9610903,0 0.9601,0.0231 0.7572,0.0121 0.7572,-0.62748 0,0 0.993,-27.35421 1.0285,-27.7811 0,-0.44949 0.09,-0.58338 -0.4732,-0.58338 -14.084,0 -29.77479,0 -43.8588903,0 z" sodipodi:nodetypes="ccsscccsc"/>
    <g id="g3083">
      <path inkscape:connector-curvature="0" style="opacity:0.8;fill:url(#radialGradient3080);fill-opacity:1;stroke:none" id="path3823" d="M 45,44.5 C 45,46.432997 39.627417,48 33,48 26.372583,48 21,46.432997 21,44.5 21,42.567003 26.372583,41 33,41 c 6.627417,0 12,1.567003 12,3.5 l 0,0 z"/>
      <path inkscape:connector-curvature="0" style="fill:url(#radialGradient3077);fill-opacity:1;stroke:#808080;stroke-width:0.99997276;stroke-miterlimit:4;stroke-opacity:1;stroke-dasharray:none" id="path3766" d="m 30.052,29.499986 c 0.311757,1.541852 0.584909,2.708155 0.332,4.250006 -1.971764,1.710542 -7.214153,2.479171 -7.206591,4.250007 l -0.677423,5.312509 c 0,1.760409 4.701018,3.187506 10.500013,3.187506 5.798999,0 10.500015,-1.427097 10.500015,-3.187506 l -0.677422,-5.312509 c -0.0081,-1.515596 -5.281011,-2.47917 -7.228592,-4.250007 -0.166358,-1.431074 0.06603,-2.818931 0.354,-4.250006 l -5.896,0 0,0 z"/>
      <path inkscape:connector-curvature="0" style="fill:none;stroke:url(#linearGradient3074);stroke-width:0.99990517;stroke-miterlimit:4;stroke-opacity:1;stroke-dasharray:none" id="path3894" d="m 31.109,30.499954 c 0.207393,1.218146 0.570657,2.497463 0.262,3.709711 -0.585769,0.734972 -2.025119,1.099427 -2.851104,1.502651 -1.402263,0.659278 -2.992252,1.011179 -4.207909,2.009432 -0.266813,0.372919 -0.178552,0.888667 -0.282572,1.3286 -0.175558,1.361602 -0.358458,2.722727 -0.529428,4.084626 0.372246,0.828351 1.400214,1.075215 2.17834,1.390329 3.317714,1.00997 6.848903,1.122646 10.285027,0.837892 2.001225,-0.219888 4.070287,-0.507484 5.854322,-1.497126 0.548661,-0.230487 0.801396,-0.764344 0.609573,-1.311147 -0.190493,-1.518534 -0.410223,-3.035237 -0.582372,-4.55492 -0.763945,-0.784676 -1.874787,-1.099534 -2.846897,-1.555017 -1.343902,-0.592332 -3.411526,-1.104157 -4.45398,-2.178649 -0.2021,-1.20712 0.253539,-2.749145 0.191,-3.766385 -1.375118,2e-6 -2.250884,-4e-6 -3.626,3e-6 l 0,0 z"/>
      <path inkscape:connector-curvature="0" style="fill:url(#radialGradient3071);fill-opacity:1;stroke:#999999;stroke-width:0.99977899;stroke-miterlimit:4;stroke-opacity:1;stroke-dasharray:none" id="path3764" d="m 32.999999,19.499889 c -2.485343,0 -4.50011,1.999647 -4.50011,4.466334 0.01948,0.912872 0.09275,1.997331 0.600015,4.466335 0.300007,0.95707 2.975929,3.709418 3.000073,4.028442 0.581816,0.319023 1.500037,0.319023 2.100051,0 0,-0.319024 2.400059,-3.071372 2.700066,-4.028442 0.57084,-2.566031 0.569398,-3.509263 0.600015,-4.466335 0,-2.466687 -2.014767,-4.466334 -4.50011,-4.466334 l 0,0 z"/>
      <path inkscape:connector-curvature="0" style="opacity:0.3;fill:url(#linearGradient3068);fill-opacity:1;stroke:none" id="path3848" d="m 27,45.4 c -1.771762,-1.292736 -0.926902,-4.162735 -0.75,-6 -0.749999,1.304348 -0.749999,5.217391 -2.25,5.217391 1.021958,0.299057 2.06217,0.629863 3,0.782609 z"/>
      <path inkscape:connector-curvature="0" style="opacity:0.3;fill:url(#linearGradient3065);fill-opacity:1;stroke:none" id="path3850" d="m 39,45.4 c 1.762535,-1.137226 0.867541,-4.229946 0.749999,-6 0.75,1.304347 0.75,5.217391 2.250001,5.217391 -1.021958,0.299057 -2.062172,0.629862 -3,0.782609 z"/>
      <path inkscape:connector-curvature="0" style="opacity:0.2;fill:url(#radialGradient3062);fill-opacity:1;stroke:none" id="path3833" d="m 29,35 c 0.585645,1.163172 2.149469,2 4,2 1.850531,0 3.414353,-0.836828 4,-2 l -8,0 z"/>
      <path inkscape:connector-curvature="0" style="opacity:0.7;fill:none;stroke:url(#linearGradient3059);stroke-width:0.99956059;stroke-miterlimit:4;stroke-opacity:1;stroke-dasharray:none" id="path3906" d="m 33.000002,20.499776 c -1.578445,-0.03146 -3.034642,1.166464 -3.388069,2.690947 -0.233174,1.003411 -0.04469,2.040658 0.07761,3.047058 0.113228,0.667899 0.192524,1.351298 0.375784,2.000751 0.66871,1.163508 1.691301,2.069914 2.461217,3.157989 0.412903,0.122857 1.079832,0.241399 1.323731,-0.198062 0.691144,-1.019356 1.571217,-1.917699 2.125742,-3.02571 0.298455,-1.492339 0.602683,-3.015117 0.494485,-4.5447 -0.172022,-1.614338 -1.561563,-3.020868 -3.198417,-3.117721 -0.09051,-0.007 -0.181338,-0.0105 -0.272086,-0.01055 l 3e-6,-10e-7 z"/>
    </g>
  </g>
</svg>
