/* XPM */
static char *lock[] = {
/* columns rows colors chars-per-pixel */
"24 24 18 1",
"  c #A1A1A1",
". c #ADADAD",
"X c #B2B2B2",
"o c #B7B7B7",
"O c #BDBDBD",
"+ c #C2C2C2",
"@ c #C8C8C8",
"# c #CDCDCD",
"$ c #D2D2D2",
"% c #D5D5D5",
"& c #D8D8D8",
"* c #DDDDDD",
"= c #E1E1E1",
"- c #E3E3E3",
"; c #ECECEC",
": c #EDEDED",
"> c #F8F8F8",
", c None",
/* pixels */
",,,,,,,,,,,,,,,,,,,,,,,,",
",,,,,,,,,,,,,,,,,,,,,,,,",
",,,,,,,,,,,,,,,,,,,,,,,,",
",,,,,,,,,,,,,,,,,,,,,,,,",
",,,,,,,,,,,,,,,,,,,,,,,,",
",,,,,,,,,:>>>>:,,,,,,,,,",
",,,,,,,,,:,,,,:,,,,,,,,,",
",,,,,,,,,-,,,,-,,,,,,,,,",
",,,,,,,,,*,,,,*,,,,,,,,,",
",,,,,,,,,&,,,,&,,,,,,,,,",
",,,,,,,-:$::::$:-,,,,,,,",
",,,,,,,%########%,,,,,,,",
",,,,,,,@@@@@@@@@@,,,,,,,",
",,,,,,,++++++++++,,,,,,,",
",,,,,,,OOOOOOOOOO,,,,,,,",
",,,,,,,oooooooooo,,,,,,,",
",,,,,,,XXXXXXXXXX,,,,,,,",
",,,,,,, ........ ,,,,,,,",
",,,,,,,,,,,,,,,,,,,,,,,,",
",,,,,,,,,,,,,,,,,,,,,,,,",
",,,,,,,,,,,,,,,,,,,,,,,,",
",,,,,,,,,,,,,,,,,,,,,,,,",
",,,,,,,,,,,,,,,,,,,,,,,,",
",,,,,,,,,,,,,,,,,,,,,,,,"
};
