<!-- Created with Inkscape (http://www.inkscape.org/) -->
<svg xmlns:dc="http://purl.org/dc/elements/1.1/" xmlns:cc="http://creativecommons.org/ns#" xmlns:rdf="http://www.w3.org/1999/02/22-rdf-syntax-ns#" xmlns:svg="http://www.w3.org/2000/svg" xmlns="http://www.w3.org/2000/svg" xmlns:xlink="http://www.w3.org/1999/xlink" xmlns:sodipodi="http://sodipodi.sourceforge.net/DTD/sodipodi-0.dtd" xmlns:inkscape="http://www.inkscape.org/namespaces/inkscape" width="32px" height="32px" id="svg16378" version="1.1" inkscape:version="0.48.4 r9939" sodipodi:docname="folder-system.svg">
  <defs id="defs16380">
    <linearGradient inkscape:collect="always" xlink:href="#linearGradient3454-2-5-0-3-4" id="linearGradient15169" gradientUnits="userSpaceOnUse" gradientTransform="matrix(0.89186139,0,0,1.0539115,3.1212694,5.412539)" x1="27.557428" y1="7.162672" x2="27.557428" y2="21.386522"/>
    <linearGradient id="linearGradient3454-2-5-0-3-4">
      <stop offset="0" style="stop-color:#ffffff;stop-opacity:1" id="stop3456-4-9-38-1-8"/>
      <stop offset="0.0097359" style="stop-color:#ffffff;stop-opacity:0.23529412" id="stop3458-39-80-3-5-5"/>
      <stop offset="0.99001008" style="stop-color:#ffffff;stop-opacity:0.15686275" id="stop3460-7-0-2-4-2"/>
      <stop offset="1" style="stop-color:#ffffff;stop-opacity:0.39215687" id="stop3462-0-9-8-7-2"/>
    </linearGradient>
    <linearGradient inkscape:collect="always" xlink:href="#linearGradient6129-963-697-142-998-580-273-5" id="linearGradient15177" gradientUnits="userSpaceOnUse" gradientTransform="matrix(0.7467531,0,0,0.6554922,-1.9214506,1.167619)" x1="22.934725" y1="49.629246" x2="22.809399" y2="36.657963"/>
    <linearGradient id="linearGradient6129-963-697-142-998-580-273-5">
      <stop id="stop2661-1" style="stop-color:#0a0a0a;stop-opacity:0.498" offset="0"/>
      <stop id="stop2663-85" style="stop-color:#0a0a0a;stop-opacity:0" offset="1"/>
    </linearGradient>
    <linearGradient inkscape:collect="always" xlink:href="#linearGradient4632-0-6-4-3-4" id="linearGradient15185" gradientUnits="userSpaceOnUse" gradientTransform="matrix(0.64444432,0,0,0.64285702,0.53395936,0.89285905)" x1="35.792694" y1="17.118193" x2="35.792694" y2="43.761127"/>
    <linearGradient id="linearGradient4632-0-6-4-3-4">
      <stop style="stop-color:#9ed8c7;stop-opacity:1;" offset="0" id="stop4634-4-4-7-7-4"/>
      <stop style="stop-color:#238576;stop-opacity:1;" offset="1" id="stop4636-3-1-5-1-3"/>
    </linearGradient>
    <linearGradient inkscape:collect="always" xlink:href="#linearGradient5048-585-0" id="linearGradient15195" gradientUnits="userSpaceOnUse" gradientTransform="matrix(0.05114282,0,0,0.01591575,-2.4899573,22.29927)" x1="302.85715" y1="366.64789" x2="302.85715" y2="609.50507"/>
    <linearGradient id="linearGradient5048-585-0">
      <stop id="stop2667-18" style="stop-color:#000000;stop-opacity:0" offset="0"/>
      <stop id="stop2669-9" style="stop-color:#000000;stop-opacity:1" offset="0.5"/>
      <stop id="stop2671-33" style="stop-color:#000000;stop-opacity:0" offset="1"/>
    </linearGradient>
    <radialGradient inkscape:collect="always" xlink:href="#linearGradient5060-179-67" id="radialGradient15197" gradientUnits="userSpaceOnUse" gradientTransform="matrix(0.01983573,0,0,0.01591575,16.38765,22.29927)" cx="605.71429" cy="486.64789" fx="605.71429" fy="486.64789" r="117.14286"/>
    <linearGradient id="linearGradient5060-179-67">
      <stop id="stop2675-81" style="stop-color:#000000;stop-opacity:1" offset="0"/>
      <stop id="stop2677-2" style="stop-color:#000000;stop-opacity:0" offset="1"/>
    </linearGradient>
    <radialGradient inkscape:collect="always" xlink:href="#linearGradient5060-820-4" id="radialGradient15199" gradientUnits="userSpaceOnUse" gradientTransform="matrix(-0.01983573,0,0,0.01591575,15.60139,22.29927)" cx="605.71429" cy="486.64789" fx="605.71429" fy="486.64789" r="117.14286"/>
    <linearGradient id="linearGradient5060-820-4">
      <stop id="stop2681-5" style="stop-color:#000000;stop-opacity:1" offset="0"/>
      <stop id="stop2683-00" style="stop-color:#000000;stop-opacity:0" offset="1"/>
    </linearGradient>
    <linearGradient inkscape:collect="always" xlink:href="#linearGradient4325" id="linearGradient15217" gradientUnits="userSpaceOnUse" gradientTransform="matrix(0.54383556,0,0,0.61466406,3.2693194,5.091139)" x1="21.37039" y1="4.73244" x2="21.37039" y2="34.143417"/>
    <linearGradient id="linearGradient4325">
      <stop offset="0" style="stop-color:#ffffff;stop-opacity:1" id="stop4327"/>
      <stop offset="0.1106325" style="stop-color:#ffffff;stop-opacity:0.23529412" id="stop4329"/>
      <stop offset="0.99001008" style="stop-color:#ffffff;stop-opacity:0.15686275" id="stop4331"/>
      <stop offset="1" style="stop-color:#ffffff;stop-opacity:0.39215687" id="stop4333"/>
    </linearGradient>
    <linearGradient inkscape:collect="always" xlink:href="#linearGradient4646-7-4-3-5" id="linearGradient15225" gradientUnits="userSpaceOnUse" gradientTransform="matrix(0.61904762,0,0,0.61904762,-30.391371,1.428569)" x1="62.988873" y1="13" x2="62.988873" y2="16"/>
    <linearGradient id="linearGradient4646-7-4-3-5">
      <stop offset="0" style="stop-color:#f9f9f9;stop-opacity:1" id="stop4648-8-0-3-6"/>
      <stop offset="1" style="stop-color:#d8d8d8;stop-opacity:1" id="stop4650-1-7-3-4"/>
    </linearGradient>
    <linearGradient id="linearGradient3104-8-8-97-4-6-11-5-5-0">
      <stop offset="0" style="stop-color:#000000;stop-opacity:0.32173914" id="stop3106-5-4-3-5-0-2-1-0-6"/>
      <stop offset="1" style="stop-color:#000000;stop-opacity:0.27826086" id="stop3108-4-3-7-8-2-0-7-9-1"/>
    </linearGradient>
    <linearGradient y2="3.6336823" x2="-51.786404" y1="53.514328" x1="-51.786404" gradientTransform="matrix(0.50703384,0,0,0.50300255,68.029659,1.329769)" gradientUnits="userSpaceOnUse" id="linearGradient16376" xlink:href="#linearGradient3104-8-8-97-4-6-11-5-5-0" inkscape:collect="always"/>
    <radialGradient gradientTransform="matrix(-1.9835727e-2,0,0,1.5915752e-2,15.60139,22.29927)" gradientUnits="userSpaceOnUse" xlink:href="#linearGradient5060-820" id="radialGradient2467" fy="486.64789" fx="605.71429" r="117.14286" cy="486.64789" cx="605.71429"/>
    <radialGradient gradientTransform="matrix(1.9835731e-2,0,0,1.5915752e-2,16.38765,22.29927)" gradientUnits="userSpaceOnUse" xlink:href="#linearGradient5060-179" id="radialGradient2465" fy="486.64789" fx="605.71429" r="117.14286" cy="486.64789" cx="605.71429"/>
    <linearGradient gradientTransform="matrix(5.1142824e-2,0,0,1.5915752e-2,-2.4899573,22.29927)" gradientUnits="userSpaceOnUse" xlink:href="#linearGradient5048-585" id="linearGradient2463" y2="609.50507" x2="302.85715" y1="366.64789" x1="302.85715"/>
    <radialGradient gradientTransform="matrix(0,1.0884009,-1.355859,0,8.9733195,2.9173483)" gradientUnits="userSpaceOnUse" xlink:href="#linearGradient3484" id="radialGradient2456" fy="5.01718" fx="3" r="21" cy="5.01718" cx="3"/>
    <linearGradient gradientTransform="matrix(0.627907,0,0,0.6348983,-31.055913,1.1034431)" gradientUnits="userSpaceOnUse" xlink:href="#linearGradient6404" id="linearGradient2454" y2="16.19013" x2="62.988873" y1="13.182598" x1="62.988873"/>
    <linearGradient gradientTransform="matrix(0.644209,0,0,0.643728,-34.102646,0.7887616)" gradientUnits="userSpaceOnUse" xlink:href="#linearGradient3390" id="linearGradient2442" y2="10.82615" x2="82.453476" y1="45.114193" x1="82.453476"/>
    <radialGradient gradientTransform="matrix(1.007989,-6.1246211e-8,3.9794263e-8,0.6539555,-55.005411,6.1061543)" gradientUnits="userSpaceOnUse" xlink:href="#linearGradient7012-661-145-733-759-865-745" id="radialGradient2440" fy="14.113381" fx="63.969177" r="23.097054" cy="14.113381" cx="63.969177"/>
    <linearGradient gradientTransform="matrix(0.7467531,0,0,0.6554922,-1.9220764,1.1676179)" gradientUnits="userSpaceOnUse" xlink:href="#linearGradient6129-963-697-142-998-580-273" id="linearGradient2437" y2="36.657963" x2="22.809399" y1="49.629246" x1="22.934725"/>
    <radialGradient gradientTransform="matrix(0,0.7386341,-0.9984871,0,17.148572,6.8540185)" gradientUnits="userSpaceOnUse" xlink:href="#linearGradient6087-437-184-795-110-662-495" id="radialGradient2434" fy="8.3021259" fx="7.2646537" r="20.979567" cy="8.3021259" cx="7.2646537"/>
    <linearGradient gradientTransform="matrix(0.6515346,0,0,0.6760494,0.3603499,0.1849652)" gradientUnits="userSpaceOnUse" xlink:href="#linearGradient8265-821-176-38-919-66-249" id="linearGradient2431" y2="33.95525" x2="15.214532" y1="22.292103" x1="11.566265"/>
    <linearGradient id="linearGradient8265-821-176-38-919-66-249">
      <stop offset="0" style="stop-color:#ffffff;stop-opacity:0.2" id="stop2687"/>
      <stop offset="1" style="stop-color:#ffffff;stop-opacity:0" id="stop2689"/>
    </linearGradient>
    <linearGradient id="linearGradient6087-437-184-795-110-662-495">
      <stop offset="0" style="stop-color:#ffffff;stop-opacity:0.40000001" id="stop2693"/>
      <stop offset="1" style="stop-color:#ffffff;stop-opacity:0" id="stop2695"/>
    </linearGradient>
    <linearGradient id="linearGradient6129-963-697-142-998-580-273">
      <stop offset="0" style="stop-color:#0a0a0a;stop-opacity:0.498" id="stop2661"/>
      <stop offset="1" style="stop-color:#0a0a0a;stop-opacity:0" id="stop2663"/>
    </linearGradient>
    <linearGradient id="linearGradient7012-661-145-733-759-865-745">
      <stop offset="0" style="stop-color:#aacb7d;stop-opacity:1" id="stop2699"/>
      <stop offset="1" style="stop-color:#709937;stop-opacity:1" id="stop2701"/>
    </linearGradient>
    <linearGradient id="linearGradient3390">
      <stop offset="0" style="stop-color:#51751e;stop-opacity:1" id="stop3392"/>
      <stop offset="1" style="stop-color:#51751e;stop-opacity:1" id="stop3394"/>
    </linearGradient>
    <linearGradient id="linearGradient5060-820">
      <stop offset="0" style="stop-color:#000000;stop-opacity:1" id="stop2681"/>
      <stop offset="1" style="stop-color:#000000;stop-opacity:0" id="stop2683"/>
    </linearGradient>
    <linearGradient id="linearGradient5060-179">
      <stop offset="0" style="stop-color:#000000;stop-opacity:1" id="stop2675"/>
      <stop offset="1" style="stop-color:#000000;stop-opacity:0" id="stop2677"/>
    </linearGradient>
    <linearGradient id="linearGradient5048-585">
      <stop offset="0" style="stop-color:#000000;stop-opacity:0" id="stop2667"/>
      <stop offset="0.5" style="stop-color:#000000;stop-opacity:1" id="stop2669"/>
      <stop offset="1" style="stop-color:#000000;stop-opacity:0" id="stop2671"/>
    </linearGradient>
    <linearGradient id="linearGradient6404">
      <stop offset="0" style="stop-color:#f9f9f9;stop-opacity:1" id="stop6406"/>
      <stop offset="1" style="stop-color:#c9c9c9;stop-opacity:1" id="stop6408"/>
    </linearGradient>
    <linearGradient id="linearGradient3484">
      <stop offset="0" style="stop-color:#bdbdbd;stop-opacity:1" id="stop3486"/>
      <stop offset="1" style="stop-color:#d0d0d0;stop-opacity:1" id="stop3488"/>
    </linearGradient>
    <linearGradient gradientTransform="translate(-17.058189,0)" gradientUnits="userSpaceOnUse" xlink:href="#linearGradient3309" id="linearGradient3262" y2="16.000105" x2="25" y1="0" x1="25"/>
    <linearGradient gradientUnits="userSpaceOnUse" id="linearGradient3309" y2="122.8994" x2="63.9995" y1="3.1001" x1="63.9995">
      <stop offset="0" style="stop-color:#f6f6f6;stop-opacity:1" id="stop3311"/>
      <stop offset="1" style="stop-color:#cccccc;stop-opacity:1" id="stop3313"/>
    </linearGradient>
    <linearGradient gradientTransform="translate(-17.058189,0)" gradientUnits="userSpaceOnUse" xlink:href="#linearGradient3397" id="linearGradient3264" y2="16.004715" x2="21" y1="0" x1="21"/>
    <linearGradient id="linearGradient3397">
      <stop offset="0" style="stop-color:#aaaaaa;stop-opacity:1" id="stop3399"/>
      <stop offset="1" style="stop-color:#8c8c8c;stop-opacity:1" id="stop3401"/>
    </linearGradient>
    <linearGradient gradientTransform="matrix(0.09614231,0,0,0.09614231,1.8468935,1.9430362)" gradientUnits="userSpaceOnUse" xlink:href="#linearGradient5128" id="linearGradient3260" y2="20.895" x2="84.63858" y1="105.105" x1="86.132919"/>
    <linearGradient id="linearGradient5128">
      <stop offset="0" style="stop-color:#e5e5e5;stop-opacity:1" id="stop5130"/>
      <stop offset="1" style="stop-color:#ababab;stop-opacity:1" id="stop5132"/>
    </linearGradient>
  </defs>
  <sodipodi:namedview id="base" pagecolor="#ffffff" bordercolor="#666666" borderopacity="1.0" inkscape:pageopacity="0.0" inkscape:pageshadow="2" inkscape:zoom="13.331884" inkscape:cx="23.411074" inkscape:cy="12.812094" inkscape:current-layer="layer1" showgrid="true" inkscape:grid-bbox="true" inkscape:document-units="px" inkscape:window-width="825" inkscape:window-height="753" inkscape:window-x="296" inkscape:window-y="34" inkscape:window-maximized="0">
    <inkscape:grid type="xygrid" id="grid3036"/>
  </sodipodi:namedview>
  <metadata id="metadata16383">
    <rdf:RDF>
      <cc:Work rdf:about="">
        <dc:format>image/svg+xml</dc:format>
        <dc:type rdf:resource="http://purl.org/dc/dcmitype/StillImage"/>
        <dc:title/>
      </cc:Work>
    </rdf:RDF>
  </metadata>
  <g id="layer1" inkscape:label="Layer 1" inkscape:groupmode="layer">
    <path d="m 4.0006194,6.500079 c -0.43342,0.005 -0.5,0.21723 -0.5,0.6349 l 0,1.36502 c -1.24568,0 -1,-0.002 -1,0.54389 0.0216,6.53313 0,6.90143 0,7.456109 0.90135,0 26.9999996,-2.348949 26.9999996,-3.360049 l 0,-4.09606 c 0,-0.41767 -0.34799,-0.54876 -0.78141,-0.54389 l -14.21859,0 0,-1.36502 c 0,-0.41767 -0.26424,-0.63977 -0.69767,-0.6349 l -9.8023296,0 z" inkscape:connector-curvature="0" id="use7687" style="opacity:0.8;color:#000000;fill:none;stroke:url(#linearGradient16376);stroke-width:1;stroke-linecap:butt;stroke-linejoin:miter;stroke-miterlimit:4;stroke-opacity:1;stroke-dasharray:none;stroke-dashoffset:0;marker:none;visibility:visible;display:inline;overflow:visible;enable-background:accumulate"/>
    <path inkscape:connector-curvature="0" style="color:#000000;fill:url(#linearGradient15225);fill-opacity:1;fill-rule:nonzero;stroke:none;stroke-width:1;marker:none;visibility:visible;display:inline;overflow:visible;enable-background:accumulate" d="m 4.0006194,6.999999 0,2 -1,0 0,4 25.9999996,0 0,-4 -15,0 0,-2 -9.9999996,0 z" id="use7689"/>
    <path inkscape:connector-curvature="0" style="color:#000000;fill:none;stroke:url(#linearGradient15217);stroke-width:1;stroke-linecap:round;stroke-linejoin:miter;stroke-miterlimit:4;stroke-opacity:1;stroke-dasharray:none;stroke-dashoffset:0;marker:none;visibility:visible;display:inline;overflow:visible;enable-background:accumulate" d="m 4.5006194,7.499999 0,2 -1,0 0,4 24.9999996,0 0,-4 -15,0 0,-2 -8.9999996,0 z" id="use7691"/>
    <g transform="translate(6.1935663e-4,-1.000001)" id="use7693">
      <rect width="24.694677" height="3.8652544" x="3.6471815" y="28.134747" id="rect15189" style="opacity:0.3;fill:url(#linearGradient15195);fill-opacity:1;fill-rule:nonzero;stroke:none;stroke-width:1;marker:none;visibility:visible;display:inline;overflow:visible"/>
      <path d="m 28.341859,28.13488 c 0,0 0,3.865041 0,3.865041 1.021491,0.0073 2.469468,-0.86596 2.469468,-1.932769 0,-1.06681 -1.139908,-1.932272 -2.469468,-1.932272 z" inkscape:connector-curvature="0" id="path15191" style="opacity:0.3;fill:url(#radialGradient15197);fill-opacity:1;fill-rule:nonzero;stroke:none;stroke-width:1;marker:none;visibility:visible;display:inline;overflow:visible"/>
      <path d="m 3.6471816,28.13488 c 0,0 0,3.865041 0,3.865041 -1.0214912,0.0073 -2.4694678,-0.86596 -2.4694678,-1.932769 0,-1.06681 1.1399068,-1.932272 2.4694678,-1.932272 z" inkscape:connector-curvature="0" id="path15193" style="opacity:0.3;fill:url(#radialGradient15199);fill-opacity:1;fill-rule:nonzero;stroke:none;stroke-width:1;marker:none;visibility:visible;display:inline;overflow:visible"/>
    </g>
    <path d="m 1.9274594,11.499999 c -0.69105,0.0796 -0.32196,0.90258 -0.37705,1.36535 0.0802,0.29906 0.59771,15.717989 0.59771,16.247439 0,0.46018 0.22667,0.38222 0.80101,0.38222 8.4993996,0 17.8980796,0 26.3974796,0 0.61872,0.0143 0.48796,0.007 0.48796,-0.38947 0.0452,-0.20269 0.63993,-16.978479 0.66282,-17.243439 0,-0.279 0.0581,-0.3621 -0.30493,-0.3621 -9.0765,0 -19.18849,0 -28.2649996,0 z" inkscape:connector-curvature="0" id="use7695" style="color:#000000;fill:url(#linearGradient15185);fill-opacity:1;fill-rule:nonzero;stroke:none;stroke-width:0.99999994;marker:none;visibility:visible;display:inline;overflow:visible;enable-background:accumulate"/>
    <path d="m 1.6824394,10.999999 28.6363696,2.7e-4 c 0.4137,0 0.68181,0.29209 0.68181,0.65523 l -0.6735,17.712109 c 0.01,0.45948 -0.1364,0.64166 -0.61707,0.63203 l -27.2561296,-0.0115 c -0.4137,0 -0.83086,-0.27118 -0.83086,-0.63432 l -0.62244,-17.698289 c 0,-0.36314 0.26812,-0.65549 0.68182,-0.65549 z" inkscape:connector-curvature="0" id="use7697" style="opacity:0.4;fill:url(#linearGradient15177);fill-opacity:1;stroke:none"/>
    <path style="opacity:0.5;color:#000000;fill:none;stroke:url(#linearGradient15169);stroke-width:1.00000012;stroke-linecap:round;stroke-linejoin:miter;stroke-miterlimit:4;stroke-opacity:1;stroke-dasharray:none;stroke-dashoffset:0;marker:none;visibility:visible;display:inline;overflow:visible;enable-background:accumulate" d="m 2.5006194,12.499999 0.62498,15.999999 25.7491696,0 0.62498,-15.999999 z" id="use7699" inkscape:connector-curvature="0" sodipodi:nodetypes="ccccc"/>
    <path d="m 1.9270194,11.499999 c -0.69105,0.0796 -0.32196,0.90258 -0.37705,1.36535 0.0802,0.29906 0.59771,15.717989 0.59771,16.247439 0,0.46018 0.22667,0.38222 0.80101,0.38222 8.4993996,0 17.8980796,0 26.3974796,0 0.61872,0.0143 0.48796,0.007 0.48796,-0.38947 0.0452,-0.20269 0.63993,-16.978479 0.66282,-17.243439 0,-0.279 0.0581,-0.3621 -0.30493,-0.3621 -9.0765,0 -19.18849,0 -28.2649996,0 z" inkscape:connector-curvature="0" id="path3388-5-53" style="opacity:0.3;color:#000000;fill:none;stroke:#000000;stroke-width:0.99999994;stroke-linecap:round;stroke-linejoin:round;stroke-miterlimit:4;stroke-opacity:1;stroke-dasharray:none;stroke-dashoffset:0;marker:none;visibility:visible;display:inline;overflow:visible;enable-background:accumulate"/>
    <g id="g2467" transform="translate(13,15)">
      <g id="g2479">
        <path style="fill:url(#linearGradient3262);fill-opacity:1;fill-rule:nonzero;stroke:url(#linearGradient3264);stroke-width:0.99999994;stroke-linecap:butt;stroke-linejoin:round;stroke-miterlimit:4;stroke-opacity:1;stroke-dasharray:none;stroke-dashoffset:0;marker:none;visibility:visible;display:block;overflow:visible;enable-background:accumulate" id="path2426" d="M 6.9375,0.5 C 6.6890831,0.5 6.5,0.68908218 6.5,0.9375 l 0,1.25 C 5.9460971,2.3297005 5.448836,2.5593783 4.96875,2.84375 L 4.0625,1.9375 c -0.1756569,-0.1756579 -0.449342,-0.1756579 -0.625,0 l -1.5,1.5 c -0.175657,0.1756579 -0.175657,0.4493421 0,0.625 L 2.84375,4.96875 C 2.5593789,5.4488356 2.329701,5.9460968 2.1875,6.5 l -1.25,0 C 0.68908301,6.5 0.5,6.6890821 0.5,6.9375 l 0,2.125 c 1e-8,0.2484178 0.189083,0.4375 0.4375,0.4375 l 1.25,0 c 0.1422009,0.553903 0.371879,1.051164 0.65625,1.53125 L 1.9375,11.9375 c -0.175657,0.175658 -0.175657,0.449342 0,0.625 l 1.5,1.5 c 0.1756579,0.175658 0.449342,0.175658 0.625,0 L 4.96875,13.15625 C 5.4488361,13.440622 5.946097,13.6703 6.5,13.8125 l 0,1.25 c 1e-7,0.248418 0.189083,0.4375 0.4375,0.4375 l 2.125,0 C 9.3109176,15.5 9.5,15.310918 9.5,15.0625 l 0,-1.25 c 0.553903,-0.1422 1.051164,-0.371878 1.53125,-0.65625 l 0.90625,0.90625 c 0.175658,0.175658 0.449342,0.175658 0.625,0 l 1.5,-1.5 c 0.175658,-0.175658 0.175658,-0.449342 0,-0.625 L 13.15625,11.03125 C 13.440622,10.551164 13.6703,10.053903 13.8125,9.5 l 1.25,0 C 15.310918,9.5 15.5,9.3109174 15.5,9.0625 l 0,-2.125 C 15.5,6.6890822 15.310917,6.5 15.0625,6.5 l -1.25,0 C 13.6703,5.9460968 13.440622,5.4488356 13.15625,4.96875 L 14.0625,4.0625 c 0.175658,-0.1756579 0.175658,-0.449342 0,-0.625 l -1.5,-1.5 c -0.175658,-0.1756579 -0.449342,-0.1756579 -0.625,0 L 11.03125,2.84375 C 10.551164,2.5593783 10.053903,2.3297005 9.5,2.1875 l 0,-1.25 C 9.4999996,0.68908218 9.310918,0.5 9.0625,0.5 l -2.125,0 0,0 z M 8,6 c 1.104,0 2,0.896 2,2 0,1.104 -0.896,2 -2,2 C 6.896,10 6,9.104 6,8 6,6.896 6.896,6 8,6 z" inkscape:connector-curvature="0"/>
        <path style="opacity:0.05;fill:#000000;fill-opacity:1;stroke:none" id="path3315" d="M 8,3.465116 C 5.4994229,3.465116 3.4651163,5.499423 3.4651163,8 3.4651163,10.500577 5.4994229,12.534884 8,12.534884 10.500576,12.534883 12.534884,10.500577 12.534884,8 12.534884,5.499423 10.500576,3.465116 8,3.465116 z M 8,5.55814 c 1.347907,0 2.44186,1.093953 2.44186,2.44186 0,1.347907 -1.093953,2.44186 -2.44186,2.44186 C 6.652093,10.44186 5.5581395,9.347907 5.5581395,8 5.5581395,6.652093 6.652093,5.55814 8,5.55814 z" inkscape:connector-curvature="0"/>
        <path style="fill:none;stroke:url(#linearGradient3260);stroke-width:1;stroke-miterlimit:4;stroke-dasharray:none" id="path28" d="M 8.0000001,4 C 5.7943997,4 3.9999999,5.7944001 3.9999999,8.0000008 3.9999999,10.2056 5.7943997,12 8.0000001,12 10.2056,12 12,10.2056 12,8.0000008 12,5.7944001 10.2056,4 8.0000001,4 z" inkscape:connector-curvature="0"/>
      </g>
    </g>
  </g>
</svg>
