<?xml version="1.0" encoding="UTF-8" standalone="no"?>
<!-- Created with Inkscape (http://www.inkscape.org/) -->

<svg
   xmlns:dc="http://purl.org/dc/elements/1.1/"
   xmlns:cc="http://creativecommons.org/ns#"
   xmlns:rdf="http://www.w3.org/1999/02/22-rdf-syntax-ns#"
   xmlns:svg="http://www.w3.org/2000/svg"
   xmlns="http://www.w3.org/2000/svg"
   xmlns:xlink="http://www.w3.org/1999/xlink"
   xmlns:sodipodi="http://sodipodi.sourceforge.net/DTD/sodipodi-0.dtd"
   xmlns:inkscape="http://www.inkscape.org/namespaces/inkscape"
   version="1.0"
   width="64"
   height="64"
   id="svg3415"
   inkscape:version="0.48.4 r9939"
   sodipodi:docname="folder-music.svg">
  <metadata
     id="metadata76">
    <rdf:RDF>
      <cc:Work
         rdf:about="">
        <dc:format>image/svg+xml</dc:format>
        <dc:type
           rdf:resource="http://purl.org/dc/dcmitype/StillImage" />
      </cc:Work>
    </rdf:RDF>
  </metadata>
  <sodipodi:namedview
     pagecolor="#ffffff"
     bordercolor="#666666"
     borderopacity="1"
     objecttolerance="10"
     gridtolerance="10"
     guidetolerance="10"
     inkscape:pageopacity="0"
     inkscape:pageshadow="2"
     inkscape:window-width="1070"
     inkscape:window-height="480"
     id="namedview74"
     showgrid="false"
     inkscape:zoom="3.6875"
     inkscape:cx="-36.474576"
     inkscape:cy="32"
     inkscape:window-x="0"
     inkscape:window-y="0"
     inkscape:window-maximized="0"
     inkscape:current-layer="svg3415" />
  <defs
     id="defs3417">
    <linearGradient
       id="linearGradient5670-612-8">
      <stop
         id="stop3203-1"
         style="stop-color:#000000;stop-opacity:1"
         offset="0" />
      <stop
         id="stop3205-0"
         style="stop-color:#000000;stop-opacity:0"
         offset="1" />
    </linearGradient>
    <radialGradient
       cx="22.90196"
       cy="45.866665"
       r="7.9058824"
       fx="22.90196"
       fy="45.866665"
       id="radialGradient3075"
       xlink:href="#linearGradient5670-612-8"
       gradientUnits="userSpaceOnUse"
       gradientTransform="matrix(1.0091312,0,0,0.4333737,9.3721941,39.147916)" />
    <linearGradient
       x1="28.739122"
       y1="144.11652"
       x2="26.256771"
       y2="125.39074"
       id="linearGradient2454"
       xlink:href="#linearGradient2372"
       gradientUnits="userSpaceOnUse"
       gradientTransform="matrix(0.4456368,0,0,0.3243297,44.6525,-18.437266)" />
    <linearGradient
       id="linearGradient3668">
      <stop
         id="stop3670"
         style="stop-color:#ffffff;stop-opacity:1"
         offset="0" />
      <stop
         id="stop3672"
         style="stop-color:#ffffff;stop-opacity:0"
         offset="1" />
    </linearGradient>
    <radialGradient
       cx="17.058823"
       cy="41.058823"
       r="5.7384715"
       fx="14.757765"
       fy="37.841019"
       id="radialGradient2954"
       xlink:href="#linearGradient3668"
       gradientUnits="userSpaceOnUse"
       gradientTransform="matrix(1.0091641,-0.1636283,2.202691e-2,0.9432895,33.038227,14.99091)" />
    <linearGradient
       id="linearGradient2372">
      <stop
         id="stop2374"
         style="stop-color:#ffffff;stop-opacity:1"
         offset="0" />
      <stop
         id="stop2376"
         style="stop-color:#ffffff;stop-opacity:0.34482759"
         offset="1" />
    </linearGradient>
    <linearGradient
       x1="28.503141"
       y1="137.53885"
       x2="26.256771"
       y2="125.39074"
       id="linearGradient2952"
       xlink:href="#linearGradient2372"
       gradientUnits="userSpaceOnUse"
       gradientTransform="matrix(0.3228678,0,0,0.3243297,29.718801,-13.757826)" />
    <linearGradient
       id="linearGradient7067">
      <stop
         id="stop7069"
         style="stop-color:#ffffff;stop-opacity:1"
         offset="0" />
      <stop
         id="stop7071"
         style="stop-color:#ffffff;stop-opacity:0"
         offset="1" />
    </linearGradient>
    <radialGradient
       cx="17.058823"
       cy="41.058823"
       r="5.7384715"
       fx="14.68769"
       fy="37.45607"
       id="radialGradient2950"
       xlink:href="#linearGradient7067"
       gradientUnits="userSpaceOnUse"
       gradientTransform="matrix(0.9584434,-0.1715415,3.3651e-2,0.9119853,15.85347,19.166362)" />
    <radialGradient
       cx="605.71429"
       cy="486.64789"
       r="117.14286"
       fx="605.71429"
       fy="486.64789"
       id="radialGradient3413"
       xlink:href="#linearGradient5060-820"
       gradientUnits="userSpaceOnUse"
       gradientTransform="matrix(0.04016195,0,0,0.0329426,33.795982,40.921317)" />
    <linearGradient
       id="linearGradient3484">
      <stop
         id="stop3486"
         style="stop-color:#bdbdbd;stop-opacity:1"
         offset="0" />
      <stop
         id="stop3488"
         style="stop-color:#d0d0d0;stop-opacity:1"
         offset="1" />
    </linearGradient>
    <radialGradient
       cx="2.9999998"
       cy="-17.82061"
       r="21"
       fx="2.9999998"
       fy="-17.82061"
       id="radialGradient3396"
       xlink:href="#linearGradient3484"
       gradientUnits="userSpaceOnUse"
       gradientTransform="matrix(-1.7093459e-8,2.2713251,-2.8951677,-1.9343515e-8,-48.593318,2.3972382)" />
    <linearGradient
       id="linearGradient6404">
      <stop
         id="stop6406"
         style="stop-color:#f9f9f9;stop-opacity:1"
         offset="0" />
      <stop
         id="stop6408"
         style="stop-color:#c9c9c9;stop-opacity:1"
         offset="1" />
    </linearGradient>
    <linearGradient
       x1="62.988873"
       y1="13.182598"
       x2="62.988873"
       y2="16.19013"
       id="linearGradient3398"
       xlink:href="#linearGradient6404"
       gradientUnits="userSpaceOnUse"
       gradientTransform="matrix(1.3407707,0,0,1.3249351,-134.0678,-1.3881028)" />
    <linearGradient
       id="linearGradient5048-585">
      <stop
         id="stop2667"
         style="stop-color:#000000;stop-opacity:0"
         offset="0" />
      <stop
         id="stop2669"
         style="stop-color:#000000;stop-opacity:1"
         offset="0.5" />
      <stop
         id="stop2671"
         style="stop-color:#000000;stop-opacity:0"
         offset="1" />
    </linearGradient>
    <linearGradient
       x1="302.85715"
       y1="366.64789"
       x2="302.85715"
       y2="609.50507"
       id="linearGradient3409"
       xlink:href="#linearGradient5048-585"
       gradientUnits="userSpaceOnUse"
       gradientTransform="matrix(0.1076923,0,0,0.03294117,-6.9230773,40.922188)" />
    <linearGradient
       id="linearGradient5060-820">
      <stop
         id="stop2681"
         style="stop-color:#000000;stop-opacity:1"
         offset="0" />
      <stop
         id="stop2683"
         style="stop-color:#000000;stop-opacity:0"
         offset="1" />
    </linearGradient>
    <radialGradient
       cx="605.71429"
       cy="486.64789"
       r="117.14286"
       fx="605.71429"
       fy="486.64789"
       id="radialGradient3403"
       xlink:href="#linearGradient5060-820"
       gradientUnits="userSpaceOnUse"
       gradientTransform="matrix(-0.04016195,0,0,0.0329426,30.204018,40.921317)" />
    <linearGradient
       id="linearGradient3390">
      <stop
         id="stop3392"
         style="stop-color:#51751e;stop-opacity:1"
         offset="0" />
      <stop
         id="stop3394"
         style="stop-color:#51751e;stop-opacity:1"
         offset="1" />
    </linearGradient>
    <linearGradient
       x1="82.453476"
       y1="45.114193"
       x2="65.340263"
       y2="15.943953"
       id="linearGradient2587"
       xlink:href="#linearGradient3390"
       gradientUnits="userSpaceOnUse"
       gradientTransform="matrix(1.3407998,0,0,1.3264587,-72.462643,-1.6032277)" />
    <linearGradient
       id="linearGradient7012-661-145-733-759-865-745">
      <stop
         id="stop2699"
         style="stop-color:#cccccc;stop-opacity:1;"
         offset="0" />
      <stop
         id="stop2701"
         style="stop-color:#999999;stop-opacity:1;"
         offset="1" />
    </linearGradient>
    <radialGradient
       cx="63.969177"
       cy="14.113381"
       r="23.097054"
       fx="63.969177"
       fy="14.113381"
       id="radialGradient2585"
       xlink:href="#linearGradient7012-661-145-733-759-865-745"
       gradientUnits="userSpaceOnUse"
       gradientTransform="matrix(2.0979394,-1.2620327e-7,8.2824269e-8,1.3475335,-115.96782,9.3537334)" />
    <linearGradient
       id="linearGradient6129-963-697-142-998-580-273">
      <stop
         id="stop2661"
         style="stop-color:#0a0a0a;stop-opacity:0.498"
         offset="0" />
      <stop
         id="stop2663"
         style="stop-color:#0a0a0a;stop-opacity:0"
         offset="1" />
    </linearGradient>
    <linearGradient
       x1="22.934725"
       y1="49.629246"
       x2="22.809399"
       y2="36.657963"
       id="linearGradient2582"
       xlink:href="#linearGradient6129-963-697-142-998-580-273"
       gradientUnits="userSpaceOnUse"
       gradientTransform="matrix(1.5347702,0,0,1.3270123,-5.0206145,-0.04854157)" />
    <linearGradient
       id="linearGradient6087-437-184-795-110-662-495">
      <stop
         id="stop2693"
         style="stop-color:#ffffff;stop-opacity:0.40000001"
         offset="0" />
      <stop
         id="stop2695"
         style="stop-color:#ffffff;stop-opacity:0"
         offset="1" />
    </linearGradient>
    <radialGradient
       cx="7.2646537"
       cy="8.3021259"
       r="20.979567"
       fx="7.2646537"
       fy="8.3021259"
       id="radialGradient2579"
       xlink:href="#linearGradient6087-437-184-795-110-662-495"
       gradientUnits="userSpaceOnUse"
       gradientTransform="matrix(0,1.606606,-2.1816541,0,34.685541,9.28484)" />
    <linearGradient
       id="linearGradient8265-821-176-38-919-66-249">
      <stop
         id="stop2687"
         style="stop-color:#ffffff;stop-opacity:0.27450982"
         offset="0" />
      <stop
         id="stop2689"
         style="stop-color:#ffffff;stop-opacity:0.07843138"
         offset="1" />
    </linearGradient>
    <linearGradient
       x1="11.566265"
       y1="22.292103"
       x2="15.214532"
       y2="33.95525"
       id="linearGradient2576"
       xlink:href="#linearGradient8265-821-176-38-919-66-249"
       gradientUnits="userSpaceOnUse"
       gradientTransform="matrix(1.3407707,0,0,1.33,-0.3733138,-1.3099814)" />
    <linearGradient
       inkscape:collect="always"
       xlink:href="#linearGradient8265-821-176-38-919-66-249"
       id="linearGradient3822"
       gradientUnits="userSpaceOnUse"
       gradientTransform="matrix(1.3407707,0,0,1.33,-0.3733138,-1.3099814)"
       x1="11.566265"
       y1="22.292103"
       x2="15.214532"
       y2="33.95525" />
    <radialGradient
       inkscape:collect="always"
       xlink:href="#linearGradient6087-437-184-795-110-662-495"
       id="radialGradient3825"
       gradientUnits="userSpaceOnUse"
       gradientTransform="matrix(0,1.606606,-2.1816541,0,34.685541,9.28484)"
       cx="7.2646537"
       cy="8.3021259"
       fx="7.2646537"
       fy="8.3021259"
       r="20.979567" />
    <linearGradient
       inkscape:collect="always"
       xlink:href="#linearGradient6129-963-697-142-998-580-273"
       id="linearGradient3828"
       gradientUnits="userSpaceOnUse"
       gradientTransform="matrix(1.5347702,0,0,1.3270123,-5.0206145,-0.04854157)"
       x1="22.934725"
       y1="49.629246"
       x2="22.809399"
       y2="36.657963" />
    <radialGradient
       inkscape:collect="always"
       xlink:href="#linearGradient7012-661-145-733-759-865-745"
       id="radialGradient3831"
       gradientUnits="userSpaceOnUse"
       gradientTransform="matrix(2.0979394,-1.2620327e-7,8.2824269e-8,1.3475335,-115.96782,9.3537334)"
       cx="63.969177"
       cy="14.113381"
       fx="63.969177"
       fy="14.113381"
       r="23.097054" />
    <radialGradient
       inkscape:collect="always"
       xlink:href="#linearGradient5060-820"
       id="radialGradient3836"
       gradientUnits="userSpaceOnUse"
       gradientTransform="matrix(-0.04016195,0,0,0.0329426,30.204018,40.921317)"
       cx="605.71429"
       cy="486.64789"
       fx="605.71429"
       fy="486.64789"
       r="117.14286" />
    <linearGradient
       inkscape:collect="always"
       xlink:href="#linearGradient5048-585"
       id="linearGradient3839"
       gradientUnits="userSpaceOnUse"
       gradientTransform="matrix(0.1076923,0,0,0.03294117,-6.9230773,40.922188)"
       x1="302.85715"
       y1="366.64789"
       x2="302.85715"
       y2="609.50507" />
    <linearGradient
       inkscape:collect="always"
       xlink:href="#linearGradient6404"
       id="linearGradient3842"
       gradientUnits="userSpaceOnUse"
       gradientTransform="matrix(1.3407707,0,0,1.3249351,-134.0678,-1.3881028)"
       x1="62.988873"
       y1="13.182598"
       x2="62.988873"
       y2="16.19013" />
    <radialGradient
       inkscape:collect="always"
       xlink:href="#linearGradient3484"
       id="radialGradient3844"
       gradientUnits="userSpaceOnUse"
       gradientTransform="matrix(-1.7093459e-8,2.2713251,-2.8951677,-1.9343515e-8,-48.593318,2.3972382)"
       cx="2.9999998"
       cy="-17.82061"
       fx="2.9999998"
       fy="-17.82061"
       r="21" />
    <radialGradient
       inkscape:collect="always"
       xlink:href="#linearGradient5060-820"
       id="radialGradient3847"
       gradientUnits="userSpaceOnUse"
       gradientTransform="matrix(0.04016195,0,0,0.0329426,33.795982,40.921317)"
       cx="605.71429"
       cy="486.64789"
       fx="605.71429"
       fy="486.64789"
       r="117.14286" />
  </defs>
  <path
     inkscape:connector-curvature="0"
     style="opacity:0.3;fill:url(#radialGradient3847);fill-opacity:1;fill-rule:nonzero;stroke:none;stroke-width:1;marker:none;visibility:visible;display:inline;overflow:visible"
     id="path3411"
     d="m 58,52.999928 c 0,0 0,7.999907 0,7.999907 2.068242,0.01506 5,-1.792375 5,-4.000468 0,-2.208095 -2.308001,-3.999439 -5,-3.999439 z" />
  <path
     inkscape:connector-curvature="0"
     style="fill:url(#linearGradient3842);fill-opacity:1;fill-rule:nonzero;stroke:url(#radialGradient3844);stroke-width:0.99999994;stroke-linecap:round;stroke-linejoin:round;stroke-miterlimit:4;stroke-opacity:1;stroke-dasharray:none;stroke-dashoffset:0;marker:none;visibility:visible;display:inline;overflow:visible;enable-background:accumulate"
     id="path2558"
     d="M 8,9.5001644 C 7.0849896,9.5103921 6.5,9.9563421 6.5,10.83345 L 6.5,13.5 c 0,0 -1.505998,0 -1.505998,0 C 3.999085,13.5 3.5,13.973582 3.5,14.842172 c 0.045615,13.719577 0,14.493007 0,15.657827 1.9028336,0 56.999998,-4.932803 56.999998,-7.056104 l 0,-8.443895 c 0,-1.000069 -0.499946,-1.5 -1.499998,-1.5 L 28.64966,13.5 28.5,10.83345 C 28.5,9.9563421 28.275474,9.4899354 27.360464,9.5001644 L 8,9.5001644 z" />
  <rect
     style="opacity:0.3;fill:url(#linearGradient3839);fill-opacity:1;fill-rule:nonzero;stroke:none;stroke-width:1;marker:none;visibility:visible;display:inline;overflow:visible"
     id="rect4173"
     y="53"
     x="6"
     height="8"
     width="52" />
  <path
     inkscape:connector-curvature="0"
     style="opacity:0.3;fill:url(#radialGradient3836);fill-opacity:1;fill-rule:nonzero;stroke:none;stroke-width:1;marker:none;visibility:visible;display:inline;overflow:visible"
     id="path5018"
     d="m 6,52.999928 c 0,0 0,7.999907 0,7.999907 -2.0682415,0.01506 -5,-1.792375 -5,-4.000468 0,-2.208095 2.308001,-3.999439 5,-3.999439 z" />
  <path
     inkscape:connector-curvature="0"
     style="fill:url(#radialGradient3831);fill-opacity:1;stroke:#505050;stroke-width:0.99867868000000004;stroke-linecap:round;stroke-linejoin:round;stroke-miterlimit:4;stroke-opacity:1;stroke-dasharray:none;stroke-dashoffset:0"
     id="path3388"
     d="m 2.5259407,20.468232 c -1.4382853,0.164074 -0.8699263,1.859851 -0.984601,2.813434 0.526307,11.235226 1.2576348,22.243991 1.7807009,33.479292 0.4583337,1.280953 2.137818,0.624975 3.2019868,0.787585 17.6899006,0 35.3798046,0 53.0697076,0 1.46064,-0.141468 0.853366,-1.867231 1.058829,-2.854886 0.526317,-11.235226 1.258036,-22.243991 1.781096,-33.479292 -0.336769,-1.265825 -2.237584,-0.562437 -3.234621,-0.746133 -18.891029,0 -37.782063,0 -56.6730983,0 l 0,0 z" />
  <path
     inkscape:connector-curvature="0"
     style="opacity:0.4;fill:url(#linearGradient3828);fill-opacity:1;stroke:none"
     id="path6127"
     d="m 2.3863178,19.856642 58.8551082,5.36e-4 c 0.850263,0 1.401313,0.591333 1.401313,1.326499 l -1.668235,35.82931 c 0,0.735164 -0.684507,1.327011 -1.534767,1.327011 l -55.2517325,0 c -0.850263,0 -1.5347705,-0.591847 -1.5347705,-1.327011 L 0.98500571,21.183655 c 0,-0.735167 0.55104909,-1.327013 1.40131209,-1.327013 z" />
  <path
     inkscape:connector-curvature="0"
     style="fill:none;stroke:url(#radialGradient3825);stroke-width:1;stroke-linecap:round;stroke-linejoin:round;stroke-miterlimit:4;stroke-opacity:1;stroke-dasharray:none"
     id="path2435"
     d="m 61.672911,21.565438 c -18.142303,0 -40.851607,0 -58.993911,0 C 3,32 3.7125107,43.316481 4.2292662,54.192001" />
  <path
     inkscape:connector-curvature="0"
     style="fill:url(#linearGradient3822);fill-opacity:1;stroke:none"
     id="path3455"
     d="m 60.966946,19.970018 c -19.507664,0.09756 -39.022574,-0.02813 -58.5330211,0 C 0.01147377,20.516804 1.3151768,23.25061 1.130124,24.986147 1.4278147,30.523398 1.5632824,36.084915 1.9620206,41.607 22.074269,38.464478 42.086655,35.479352 61.846826,32.230956 c 1.04713,-3.440149 1.055694,-7.54189 0.881366,-11.210868 -0.307219,-0.671068 -1.055198,-1.065123 -1.761246,-1.05007 z" />
  <path
     d="M 40.461351,59.025337 C 40.460653,60.917366 36.888953,62.451 32.483278,62.451 C 28.077603,62.451 24.505903,60.917366 24.505205,59.025337 C 24.504507,57.132884 28.076617,55.598589 32.483278,55.598589 C 36.889939,55.598589 40.462049,57.132884 40.461351,59.025337 L 40.461351,59.025337 z"
     id="path4121"
     style="opacity:0.3;fill:url(#radialGradient3075);fill-opacity:1;stroke:none" />
  <path
     d="M 55.769114,22.519 C 49.761824,23.479668 43.737896,25.342358 37.735315,26.327565 C 36.101535,27.147441 36.686168,29.229727 36.580902,30.69858 C 36.580901,37.053659 36.580902,41.408739 36.580902,47.763818 C 32.386166,46.828923 27.545054,50.101598 27.509188,54.547214 C 27.320326,57.402107 30.074853,59.767668 32.845931,59.506212 C 36.602227,59.313572 40.040736,55.674859 39.638536,51.789486 C 39.638535,45.433716 39.638536,40.087469 39.638536,33.731699 C 44.592588,33.017364 49.536047,31.231685 54.4899,30.516 C 54.489898,35.415456 54.4899,40.30541 54.4899,45.204866 C 50.470339,44.046869 45.634194,46.701439 44.968128,50.945071 C 44.411194,53.445898 46.158751,55.959466 48.5458,56.674189 C 53.014095,58.138885 58.012125,53.818942 57.485133,49.199327 C 57.472663,40.534259 57.522763,32.969042 57.485133,24.304 C 57.380128,23.442707 56.707233,22.47545 55.769114,22.519 L 55.769114,22.519 z"
     id="path3406"
     style="fill:#4d4d4d;fill-opacity:1;stroke:#333333;stroke-width:1.00000012;stroke-linecap:round;stroke-linejoin:round;stroke-miterlimit:4;stroke-dasharray:none;stroke-opacity:1" />
  <path
     d="M 55.008865,45.657101 L 55.068255,30.135 C 55.694174,30.05364 55.164355,30.12184 56.008383,30 C 56.019953,33.086113 56.024243,34.165018 56.024243,45.820442 C 56.024243,45.907172 55.659703,45.776912 55.008862,45.657101 L 55.008865,45.657101 L 55.008865,45.657101 z"
     id="path3996"
     style="opacity:0.4;fill:url(#linearGradient2454);fill-opacity:1;fill-rule:evenodd;stroke:none" />
  <path
     d="M 56.948836,49.944255 C 56.948836,52.889042 54.356091,55.717596 51.157777,56.262007 C 47.959463,56.806418 45.366717,54.860529 45.366717,51.915742 C 45.366717,48.970954 47.959463,46.142398 51.157777,45.597987 C 54.356091,45.053576 56.948836,46.999467 56.948836,49.944255 z"
     id="path2716"
     style="opacity:0.6;fill:url(#radialGradient2954);fill-opacity:1;stroke:none" />
  <path
     d="M 37.085055,48.486235 L 37.085055,28.015291 C 37.085055,28.015291 37.202034,26.768467 38.260416,26.76417 C 38.352366,26.923434 56.116522,22.882 56.116522,22.882 C 56.116522,22.882 57,24 49.114151,25.689 C 38.312456,28.002519 38.085055,27.721966 38.085055,28.850623 C 38.085055,32.179779 38.085055,36.893344 38.085055,49.015291 C 37.849953,48.81467 37.556589,48.606048 37.085055,48.486235 L 37.085055,48.486235 L 37.085055,48.486235 z"
     id="path2720"
     style="opacity:0.4;fill:url(#linearGradient2952);fill-opacity:1;fill-rule:evenodd;stroke:none" />
  <path
     d="M 39.085056,52.731709 C 39.085056,55.579963 36.622623,58.315794 33.585057,58.842359 C 30.54749,59.368924 28.085056,57.486823 28.085056,54.638568 C 28.085056,51.790314 30.54749,49.054481 33.585057,48.527916 C 36.622623,48.001351 39.085056,49.883454 39.085056,52.731709 L 39.085056,52.731709 z"
     id="path2712"
     style="opacity:0.6;fill:url(#radialGradient2950);fill-opacity:1;stroke:none" />
</svg>
