/* XPM */
static char *bluefish[] = {
/* columns rows colors chars-per-pixel */
"48 48 256 2",
"   c #000000",
".  c #0D0904",
"X  c #2D2D2D",
"o  c #665D35",
"O  c #695F36",
"+  c #304B5F",
"@  c #3E5A5C",
"#  c #2A4563",
"$  c #2E4965",
"%  c #24426C",
"&  c #294668",
"*  c #314B66",
"=  c #3B5564",
"-  c #224374",
";  c #23467A",
":  c #24497D",
">  c #2A4973",
",  c #3E5F78",
"<  c #4D4D4D",
"1  c #5A5A5A",
"2  c #445D63",
"3  c #476367",
"4  c #4F6D67",
"5  c #4C6868",
"6  c #516E6A",
"7  c #53746B",
"8  c #557F6D",
"9  c #587B6F",
"0  c #44687A",
"q  c #516975",
"w  c #5C7574",
"e  c #597A72",
"r  c #59787C",
"t  c #696969",
"y  c #607A77",
"u  c #637A79",
"i  c #71815F",
"p  c #56806E",
"a  c #5B8473",
"s  c #5F8877",
"d  c #608677",
"f  c #608977",
"g  c #63847A",
"h  c #68867F",
"j  c #648C7B",
"k  c #698D7F",
"l  c #67907E",
"z  c #68907F",
"x  c #254D83",
"c  c #284D83",
"v  c #264F88",
"b  c #2C5487",
"n  c #26518A",
"m  c #29538D",
"M  c #2F598F",
"N  c #305789",
"B  c #345B8D",
"V  c #285693",
"C  c #2A5996",
"Z  c #2B5C9C",
"A  c #325C92",
"S  c #395F93",
"D  c #305E99",
"F  c #3C6284",
"G  c #3D658B",
"H  c #31619F",
"J  c #3D6899",
"K  c #3C669D",
"L  c #2C5FA1",
"P  c #2C61A4",
"I  c #2D66AA",
"U  c #2E69AE",
"Y  c #336AAD",
"T  c #3868A3",
"R  c #3D70A8",
"E  c #2F6CB3",
"W  c #316EB6",
"Q  c #306FB8",
"!  c #3172BC",
"~  c #3F78BA",
"^  c #3975BA",
"/  c #486680",
"(  c #456B8E",
")  c #4A6C87",
"_  c #557680",
"`  c #5E7980",
"'  c #54788F",
"]  c #587988",
"[  c #496E90",
"{  c #496F9C",
"}  c #476C98",
"|  c #4C739C",
" . c #4D7196",
".. c #587B97",
"X. c #436DA2",
"o. c #4770A5",
"O. c #4A73A3",
"+. c #4978A2",
"@. c #4575A8",
"#. c #4A75AA",
"$. c #4D79AE",
"%. c #527CAC",
"&. c #4977B0",
"*. c #4D7CB4",
"=. c #4B7FBA",
"-. c #527EB2",
";. c #587FB1",
":. c #3176C2",
">. c #3278C6",
",. c #5E8294",
"<. c #698781",
"1. c #6B8E81",
"2. c #738D8B",
"3. c #6D9382",
"4. c #6F9886",
"5. c #729686",
"6. c #749689",
"7. c #7A978E",
"8. c #759B8B",
"9. c #7A9C8D",
"0. c #67879B",
"q. c #6D8A93",
"w. c #768E98",
"e. c #6B909B",
"r. c #769790",
"t. c #7A9590",
"y. c #7C9F90",
"u. c #72989E",
"i. c #7A9E9F",
"p. c #73969A",
"a. c #77A08E",
"s. c #78A08F",
"d. c #7CA292",
"f. c #7DA19B",
"g. c #5580AF",
"h. c #5D80AE",
"j. c #5982A7",
"k. c #4E82BF",
"l. c #5380B7",
"z. c #5B84B2",
"x. c #5B88B6",
"c. c #5583B9",
"v. c #5886BC",
"b. c #5B8ABF",
"n. c #6187A7",
"m. c #688DA2",
"M. c #638CAC",
"N. c #6C8BA9",
"B. c #6385AE",
"V. c #6C93AD",
"C. c #7095A9",
"Z. c #7E9CA4",
"A. c #6085B2",
"S. c #608DBF",
"D. c #6893B4",
"F. c #729EBF",
"G. c #7292B8",
"H. c #5587C0",
"J. c #5D8DC2",
"K. c #5D94CF",
"L. c #6091C6",
"P. c #6896C0",
"I. c #6495CA",
"U. c #6798CE",
"Y. c #6A9ACD",
"T. c #7E9FC7",
"R. c #799EC8",
"E. c #749EC6",
"W. c #6B9DD3",
"Q. c #729ED0",
"!. c #77A0CF",
"~. c #6EA1D5",
"^. c #76A6D6",
"/. c #72A5DA",
"(. c #75A8DC",
"). c #7CABDC",
"_. c #8B8B8B",
"`. c #829C95",
"'. c #859596",
"]. c #9C9C9C",
"[. c #82A495",
"{. c #82A897",
"}. c #85A699",
"|. c #8BA19E",
" X c #86AA9B",
".X c #8BAB9D",
"XX c #89B09F",
"oX c #B2B382",
"OX c #BABC89",
"+X c #809FAB",
"@X c #8597A6",
"#X c #839DBD",
"$X c #8EAEA0",
"%X c #91AFA2",
"&X c #96A1AE",
"*X c #91ABAC",
"=X c #8CB4A4",
"-X c #8FB8A7",
";X c #91B5A6",
":X c #90B8A7",
">X c #93B6A8",
",X c #9CB5AD",
"<X c #91B9A8",
"1X c #9ABBAE",
"2X c #91A3B8",
"3X c #9EBDB0",
"4X c #A3A3A3",
"5X c #ABABAB",
"6X c #A2BDB2",
"7X c #ACB0B5",
"8X c #BCBCBC",
"9X c #9DC0B1",
"0X c #BBCBAF",
"qX c #A4C2B5",
"wX c #A8C3B7",
"eX c #A7C4B8",
"rX c #ABC6BA",
"tX c #ADC9BD",
"yX c #B0C7BE",
"uX c #B0CABF",
"iX c #C6D4BB",
"pX c #80A4CE",
"aX c #80AFDF",
"sX c #92AFD1",
"dX c #82B0DF",
"fX c #99B7DA",
"gX c #AEBAC9",
"hX c #AFCCC0",
"jX c #BFC0C2",
"kX c #B3CCC2",
"lX c #B8CEC4",
"zX c #B7D0C6",
"xX c #B9D0C6",
"cX c #BDD4CB",
"vX c #AFC1D9",
"bX c #B9C3D0",
"nX c #C0C0C0",
"mX c #CDCDCD",
"MX c #C1D7CD",
"NX c #C2D8CF",
"BX c #C7DCD3",
"VX c #C6D0DC",
"CX c #CBD2DB",
"ZX c #D1D2D3",
"AX c #DEDEDE",
"SX c #CDE0D8",
"DX c #D4E4DD",
"FX c #D9E8E1",
"GX c #E1E1E1",
"HX c #E0ECE7",
"JX c #EFEFEF",
"KX c #E6ECF4",
"LX c #EEF2F7",
"PX c #F2F2F2",
"IX c #FFFFFF",
"UX c None",
/* pixels */
"UXUXUXUXUXUXUXUXUXUXUXUXUXUXUXUXUXUXUXUXUXUXUXUXUXUXUXUXUXUXUXUXUXUXUXUXUXUXUXUXUXUXUXUXUXUXUXUX",
"UXUXUXUXUXUXUXUXUXUXUXUXUXUXUXUXUXUXUXUXUXUXUXUXUXUXUXUXUXUXUXUXUXUXUXUXUXUXUXUXUXUXUXUXUXUXUXUX",
"UXUXUXUXUXUXUXUXUXUXUXUXUXUXUXUXUXUXUXUXUXUXUXUXUXUXUXUXUXUXUXUXUXUXUXUXUXUXUXUXUXUXUXUXUXUXUXUX",
"UXUXUXUXOXiXBXBXBXBXSXHXHXHXHXHXHXHXHXFXBXBXBXBXBXBXBXBXFXHXHXHXHXHXHXFXHXFXBXBXBXBXiXOXUXUXUXUX",
"UXUXUXoXkX9X-X-X-X-X<XhXcXBXcXBXBXNXBXcX<X<X<X<X<X<X<X<XcXcXBXcXBXcXBXBXzX1X-X-X<X<X9XhXoXUXUXUX",
"UXUXUX0X-X-X-X-X-X-X-X<XcXcXBXcXNXcXNXNX1X<X<X<X<X<X<X1XcXBXBXcXcXBXcXcX1X-X-X-X-X-X-X-X0XUXUXUX",
"UXUXUXtX=X=X=X-X-X-X-X-X9XcXcXBXcXNXcXcX9X<X<X<X<X<X-X9XcXBXcXcXcXcXcXrX=X-X-X=X=X-X=X=XtXUXUXUX",
"UXUXUX9X=X=X=X=X=X-X-X<X-XkXcXcXcXcXcXNXhX<X<X-X<X<X<XrXcXcXcXcXcXcXzX-X-X-X-X=X=X=X=X=X9XUXUXUX",
"UXUXUXeX=X=X=X=X=X-X-X-X;X1XxXcXcXcXcXcXlX<X:X<X<X-X<XkXcXcXcXcXcXcX3X-X-X-X=X=X=X=X=X=XeXUXUXUX",
"UXUXUX9XXXXXXX=X=X=X=X-X-X;XeXxXcXcXcXcXcX<X;X;X-X-X<XxXcXcXcXcXcXrX-X-X=X X$X=X=XXXXX=X3XUXUXUX",
"UXUXUXtXXXXXXX=X=X=X=X-X;X-X-XkXcXxXxXxXxX3X-X;X-X;X1XcXxXxXzXxXlX;X=X{.Z.C.d.=X=XXXXXXXqXUXUXUX",
"UXUXUXNXtX=XXXXX=X=X;X=X;X=X-X1XxXxXlXkXkX3X=X-X-X-X3XxXcXcXxXcX3X=Xf.E./.,.y.=XXXXX=XqXMXUXUXUX",
"UXUXUXMXkXuX1X=X.X=X=X=X=X.X X X3X6XZ.B.@.R +.j.u..XeXlXzXzXzXrX=X[.E.).~.<. X.XXX1XtXhXMXUXUXUX",
"UXUXUXcXuXuXuXtX;XXX=X Xp.n.x.z.@.Q Q Q E H.I.J.b.$.*XkXlXkXkX;X{.V.aX(.P.6.=X;X9XhXkXhXcXUXUXUX",
"UXUXUXzXtXyXuXuXkX6X}.m.I.U.J.^ ! ! ! Q H.K.~.Y.J.v.K @XrXkX1X=Xr.).)./.M.y.1XuXkXuXrXhXzXUXUXUX",
"UXUXUXzXtXtXtXyXuXwXZ.I.W.K.! ! ! :.! ! J.U.~.Y.I.v.$.C 0.1X$X{.e.aX)./.B.>XuXuXrXuXrXrXzXUXUXUX",
"UXUXUXkXwXrXtXtXtX,Xz.L.I.! ! ! :.:.:.~ H.L.I.L.J.;.$.A Z [ `.y.D.aX(.(.N.6XhXhXrXrXrXrXkXUXUXUX",
"UXUXUXkXwXeXwXrXeX|.z.!.=.Q ! ! :.>.:.=.;.J.pXR.c.*.#.;.L C G 6.!.aX(./.N.,XrXrXrXwXwXwXkXUXUXUX",
"UXUXUXyXeXeXwXwX6X`.ZXCXE Q ! ! :.:.:.!.KXIXIXIXLXgX*.A.C C V [ aXaX/.W.m.,XrXrXwXwXwX6XuXUXUXUX",
"UXUXUX3X1X6XqXeX6X`.4XA E E ! ! ! :.! fXPXPXJXJXmX_.CXP.V V V V Y.).W.W.0.,XwXwXeXeXeX6XqXUXUXUX",
"UXUXUX.Xd.f.XX-X,X'.t P E E E ! ! ! ! sXGXGXGXAX< X 4XgXV V m n M Q.Y.P.2.3XeX9X>X$Xf.d.XXUXUXUX",
"UXUXUX{.a.a.s.d.y.h 7XI U E E E Q E W !.ZXZXmXmX4X1 jXgXv V n v x X.I.;.t. X{.d.d.d.a.a. XUXUXUX",
"UXUXUX{.a.a.d.a.y.1.w.I I E E E E E E *.nXiX8X8X8X8X8X#XB n n v x c J.' 6.d.d.d.d.d.y.a.d.UXUXUX",
"UXUXUXd.a.8.a.a.y.5.) I I I I E E E E Y 2X5X5X5X4X5X&X;.N x v x x ; o._ 8.d.d.d.a.a.8.a.d.UXUXUX",
"UXUXUXd.8.8.a.a.d.4.F P P I I U Y I I Y $.@X].].].@XA.#.; x x x ; ; S ` 8.d.d.a.a.a.a.8.d.UXUXUX",
"UXUXUXs.8.8.8.8.9.5.0 P P I P I I I I I T #.;.N.B.%.#.B ; x x x ; - #._ 8.y.a.9.8.8.8.4.9.UXUXUX",
"UXUXUX9.4.4.8.8.8.8.r L P P P P I L P L Z V X.#.#.o.N - x x ; ; ; ; ;.] y.`.9.9.8.4.4.8.9.UXUXUX",
"UXUXUX8.4.a.d. X%X%X2.Z Z L L P L L L Z Z C n x ; ; x x x x ; ; - B &.| }.>X;X.X{.d.8.4.8.UXUXUX",
"UXUXUX}.=X%X;X%X%X%Xt.K Z Z Z Z L Z Z Z C C V D V n v x x ; ; - - X.#.#.q.$X>X%X;X;X$X}.}.UXUXUX",
"UXUXUX%X.X.X$X$X%X}.N.~.=.H Z Z Z C C C T &.L.I.v x x ; ; ; - - = q { #.o.t.|.%X$X$X%X.X%XUXUXUX",
"UXUXUX.X.X.X.X$X$X`...L.J.J.l.=.*.&.=.J.b.J.I.o.x x x ; ; - - # w 1.u 0 [ { 7..X$X.X.X.X.XUXUXUX",
"UXUXUX}.}..X}..X.X`.u %.#.$.#.#.#.#.#.#.-.J.$.x x ; ; - - % % 6 1.5.1.<.u u 2.}..X.X}.}.}.UXUXUX",
"UXUXUX}.}.}.}.}. X[.h  .;.O.} X.o.#.%.;.*.X.x ; ; ; ; - % & 3 j 3.5.4.3.4.y.}. X}.}.}.}.[.UXUXUX",
"UXUXUX[.[.[.}.}.}.9.d 5 ( #.#.#.#.#.#.X.m x ; ; ; - - % * w k 3.4.3.4.3.3.3.y.}.}.{.[.{.[.UXUXUX",
"UXUXUX[.d.[.d.9.3.z z d 5 2 , F S A c ; ; ; ; - - - % = y 7.[.3.3.3.3.3.3.3.3.4.d.{.[.[.[.UXUXUX",
"UXUXUX9.d.9.4.l k l z z j d e 4 2 > ; ; ; - - - % & 3 u 9.`.[.9.1.l 1.1.1.l l l j 5.9.9.9.UXUXUX",
"UXUXUX9.5.j j j j l l z z z j 1.1.w 2 = * $ # + 2 4 k `.[.9.[.[.4.l 3.l l j l j j j j 6.9.UXUXUX",
"UXUXUXj s f s s j j j j j l z 9.9.6.1.h g 4 7 9 e d z d.`.s.s.s.8.l l j l j j f j f s s 3.UXUXUX",
"UXUXUXd s s s s s j f j j j 4.9.9.9.9.7.5.j f j j j j 9.9.9.9.9.9.3.f j j f j s s s s s f UXUXUX",
"UXUXUXs s a a s a a f d f j 8.8.5.9.5.8.5.d f f j f f 5.5.9.5.9.8.8.f f s s s s a a a a s UXUXUX",
"UXUXUXa a a a a a s a a f 3.5.4.6.5.5.5.z f d d d d f k 5.5.5.5.5.5.5.a s a a a a a a a a UXUXUX",
"UXUXUXa p p p a a a a a j 3.z 5.k 5.k 5.j a a a a a a j 5.k 5.k z 5.z j a a a a a a p a a UXUXUX",
"UXUXUXi p p p a p p p a k k z k k k k k a a 9 a p a a a z k k k k k k k p p a p p p p p i UXUXUX",
"UXUXUXO a p p p p p p j k k k k j k j j 8 8 p p p p p p j k k k k k j k f p p p p p p p O UXUXUX",
"UXUXUX. O t f a d j k 6.5.7.7.8.9.9.`.9.5.5.6.7.5.6.6.5.9.s.9.9.7.9.5.6.5.k d d s s i O . UXUXUX",
"UXUXUXUXUX  .                                                                         UXUXUXUXUX",
"UXUXUXUXUXUXUXUXUXUXUXUXUXUXUXUXUXUXUXUXUXUXUXUXUXUXUXUXUXUXUXUXUXUXUXUXUXUXUXUXUXUXUXUXUXUXUXUX",
"UXUXUXUXUXUXUXUXUXUXUXUXUXUXUXUXUXUXUXUXUXUXUXUXUXUXUXUXUXUXUXUXUXUXUXUXUXUXUXUXUXUXUXUXUXUXUXUX"
};
