/* XPM */
static char *control_center_[] = {
/* columns rows colors chars-per-pixel */
"48 48 223 2",
"   c #000000",
".  c #1C2A39",
"X  c #7E6031",
"o  c #253244",
"O  c #2B3D50",
"+  c #304864",
"@  c #3B536D",
"#  c #345273",
"$  c #3D5774",
"%  c #3E5875",
"&  c #395678",
"*  c #3C5A7C",
"=  c #535046",
"-  c #454A50",
";  c #40505F",
":  c #5A5B54",
">  c #6B5B41",
",  c #6D6D5E",
"<  c #455463",
"1  c #465769",
"2  c #46586B",
"3  c #4A596A",
"4  c #445B75",
"5  c #415D7E",
"6  c #5E6368",
"7  c #476079",
"8  c #4A627E",
"9  c #5B6673",
"0  c #596979",
"q  c #646560",
"w  c #646E7B",
"e  c #61717D",
"r  c #6D757D",
"t  c #707474",
"y  c #B6781B",
"u  c #85652F",
"i  c #926B2E",
"p  c #836633",
"a  c #836B36",
"s  c #866F3A",
"d  c #946F33",
"f  c #9D793C",
"g  c #BA7F21",
"h  c #947E4C",
"j  c #877B53",
"k  c #927C51",
"l  c #7D8176",
"z  c #BE801B",
"x  c #DD8708",
"c  c #DD8C0E",
"v  c #ED8C06",
"b  c #E38D0D",
"n  c #EE8E09",
"m  c #F99605",
"M  c #F2910B",
"N  c #FA9909",
"B  c #E49311",
"V  c #E39814",
"C  c #E59C1B",
"Z  c #F99710",
"A  c #F39D17",
"S  c #F09A1A",
"D  c #FCA413",
"F  c #FEAC1A",
"G  c #FFB31F",
"H  c #FEBA1F",
"J  c #C38422",
"K  c #D6A13B",
"L  c #E5A324",
"P  c #E6A72D",
"I  c #F1A427",
"U  c #FBA624",
"Y  c #FEAF28",
"T  c #FFB621",
"R  c #FFBB23",
"E  c #FEB32C",
"W  c #FFBC2B",
"Q  c #E7AA33",
"!  c #E8AB37",
"~  c #E9AC38",
"^  c #F3AD32",
"/  c #ECB036",
"(  c #FCB336",
")  c #FFBE33",
"_  c #FEBC38",
"`  c #FFC226",
"'  c #FFC32A",
"]  c #FFC929",
"[  c #FEC637",
"{  c #FEC23B",
"}  c #958452",
"|  c #998756",
" . c #9B8957",
".. c #928862",
"X. c #DDA842",
"o. c #E0AB45",
"O. c #E3AE48",
"+. c #F5B842",
"@. c #FCBD44",
"#. c #F1BD49",
"$. c #F0BC51",
"%. c #FDC544",
"&. c #FECA41",
"*. c #FCC54E",
"=. c #FFD34C",
"-. c #F1C153",
";. c #FCC550",
":. c #FDCB5A",
">. c #FED854",
",. c #3F5F81",
"<. c #415F82",
"1. c #446284",
"2. c #4A6584",
"3. c #4E6984",
"4. c #476688",
"5. c #496689",
"6. c #4C6A8C",
"7. c #526A85",
"8. c #536E8C",
"9. c #53708F",
"0. c #59718C",
"q. c #4E6D91",
"w. c #516E92",
"e. c #4F7095",
"r. c #547294",
"t. c #597695",
"y. c #5F7896",
"u. c #557599",
"i. c #597799",
"p. c #5C7A9C",
"a. c #657282",
"s. c #627488",
"d. c #6F7C8E",
"f. c #617791",
"g. c #667D95",
"h. c #627D9C",
"j. c #5E7DA1",
"k. c #617FA1",
"l. c #7C8289",
"z. c #7B8693",
"x. c #5F80A4",
"c. c #6382A5",
"v. c #6A85A5",
"b. c #6C88A6",
"n. c #6685A9",
"m. c #6986AA",
"M. c #6C8AAD",
"N. c #7087A1",
"B. c #7D8DA2",
"V. c #718DAD",
"C. c #7E92AA",
"Z. c #6D8CB1",
"A. c #718FB2",
"S. c #6F90B4",
"D. c #7492B5",
"F. c #7595BA",
"G. c #7996BA",
"H. c #7798BD",
"J. c #7C9ABD",
"K. c #7D9EC2",
"L. c #7FA1C6",
"P. c #828A94",
"I. c #8A8E92",
"U. c #838F9D",
"Y. c #89929D",
"T. c #939393",
"R. c #9E9E9E",
"E. c #8F99A7",
"W. c #8191A9",
"Q. c #8F9AAA",
"!. c #969EA8",
"~. c #8199B3",
"^. c #8D9FB1",
"/. c #819EBD",
"(. c #8A9FB9",
"). c #8BA0B9",
"_. c #93A2B5",
"`. c #96A5B9",
"'. c #A3A3A3",
"]. c #ADADAD",
"[. c #A9AEB5",
"{. c #AFB0B0",
"}. c #A7B1BE",
"|. c #B3B3B3",
" X c #B2B7BE",
".X c #B6B9BD",
"XX c #BBBBBB",
"oX c #809EC2",
"OX c #82A1C5",
"+X c #89A5C5",
"@X c #8CA8C7",
"#X c #83A4CA",
"$X c #89A7CB",
"%X c #87A8CD",
"&X c #8AA9CE",
"*X c #95ACC4",
"=X c #93AECC",
"-X c #97B0CC",
";X c #86A7D0",
":X c #89ABD2",
">X c #93B2D6",
",X c #9DB7D4",
"<X c #98B6D8",
"1X c #9FB9D9",
"2X c #A1B1C5",
"3X c #A9B5C3",
"4X c #A9B7C8",
"5X c #A6BDD5",
"6X c #BCC2CB",
"7X c #B2C6DD",
"8X c #AFC6E1",
"9X c #AEC8E5",
"0X c #B0C7E2",
"qX c #C4C4C4",
"wX c #CCCCCC",
"eX c #CED2D8",
"rX c #D5D5D5",
"tX c #DCDCDC",
"yX c #DFE0E2",
"uX c #E3E3E3",
"iX c #EBEBEB",
"pX c #F2F2F2",
"aX c None",
/* pixels */
"aXaXaXaXaXaXaXaXaXaXaXaXaXaXaXaXaXaXaXaXaXaXaXaXaXaXaXaXaXaXaXaXaXaXaXaXaXaXaXaXaXaXaXaXaXaXaXaX",
"aXaXaXaXaXaXaXaXaXaXaXaXaXaXaXaXaXaXaXaXaXaXaXaXaXaXaXaXaXaXaXaXaXaXaXaXaXaXaXaXaXaXaXaXaXaXaXaX",
"aXaXaXaXaXaXaXaXaXaXaXaXaXaXaXaXaXaXaXaXaXaXaXaXaXaXaXaXaXaXaXaXaXaXaXaXaXaXaXaXaXaXaXaXaXaXaXaX",
"aXaXaXaX(.5X7X7X0X8X9X9X0X0X0X0X0X7X7X7X7X7X7X7X7X7X7X7X7X7X0X0X9X9X9X9X9X9X9X9X8X8X8X).aXaXaXaX",
"aXaXaXW.5X:XL.K.L.L.;X;X#X;X:X;X%XOXL.L.L.L.L.L.L.L.L.L.OX#X#X%X:X:X:X:X:X:X;XL.#X#XL.<XB.aXaXaX",
"aXaXaX>XL.;X;XK.K.K.L.;X;X;X;X:X;XOXK.L.K.L.L.L.L.K.L.K.L.#X%X#X:X:X:X:X:X:XL.%X#X#XK.K.*XaXaXaX",
"aXaXaX<XL.K.K.;XK.K.K.;XoX;X;X:X%X#XK.K.L.K.L.J.J.L.L.L.oX#X#X;X:X:X:X:XL.L.L.L.L.K.K.K.=XaXaXaX",
"aXaXaX>X;X;XL.K.oXK.K.oXoXoXoX;X;XOXoXK.K.K.J.OXK.K.J.K.OX#X#X:X:X:X:X:XL.:X+XL.K.K.F.K.&XaXaXaX",
"aXaXaX>XL.L.L.L.L.L.L.L.oXoX;X;X:XL.).K.K.K.K.J.J.).K.K.OX+X%X%X:X:X&X#XOXOXOXJ.H.H.H.F.@XaXaXaX",
"aXaXaX:XL.L.L.L.L.;XL.L.oXoXoXoXL.+XL.J.K.K.J.K.J.K.J.K.+XOX%X:X&X&X%XOXOXOXJ.H.H.H.F.F.+XaXaXaX",
"aXaXaX&XK.K.L.L.#XL.L.L.oX~.~.(.-X6X4XJ.C.G.K.J.K.J.K.J.OXOX&X%X%X%X+XL.OXJ.H.H.F.F.F.F.OXaXaXaX",
"aXaXaX@XK.K.K.K.#X#XK.#XoXoXk.Y.uXpXpXpXeXC.F.J.J.J.J.K.+X%X&X&X&XL.L.).K.J.F.G.F.S.D.D.OXaXaXaX",
"aXaXaX+XH.J.K.K.#X#X;XoXoXoXA.f.z.uXpXpXiXiX^.S.G.G.J./.L.@X%X%XL.K.L.J.J.G.F.D.F.S.S.S./.aXaXaX",
"aXaXaXOXF.H.F.K.K.K.oXoXoXoXoXk.g.z.yXiXiXiXyXz.D.G.G.OXOX#X#XL.L.).J.D.D.F.D.D.S.S.S.S./.aXaXaX",
"aXaXaXOXF.F.F.K.K.oXK.oXoXoXoXD.b.g.{.iXiXiXuX.Xb.D.G.J.#X#XOX).K.G.G.G.D.D.D.D.S.S.M.S.J.aXaXaX",
"aXaXaXoXF.F.F.G.K.k.W.2XoXoXoXoXV._.uXiXiXiXuXrXN.V.J./.OXOXK.J.D.D.C.D.D.D.D.S.M.Z.M.M.J.aXaXaX",
"aXaXaX/.S.D.F.F.H.V.E.iX}.D.L.C._.uXiXuXuXuXuXtXd.b.G.oXOXoXG.D.A.A.D.D.D.A.A.A.M.Z.S.S.K.aXaXaX",
"aXaXaXK.S.S.D.D.G.b.E.iXiX}.V.`.uXuXuXyXuXuXuXrXz.N.J.oXoXG.D.A.A.V.V.V.V.V.Z.A.D.D.S.S.K.aXaXaX",
"aXaXaXH.Z.S.S.D.D.b.U.uXuXuX6XyXyXuXyXyXyXyXtXqXe b.K.K.G.A.V.V.V.V.V.V.A.D.D.D.S.F.F.F.K.aXaXaX",
"aXaXaXZ.n.M.Z.V.D.M.a.yXyXyXyXyXyXtXtXtXtXtXtX{.0 V.K.F.V.b.M.M.M.M.V.D.D.F.G.F.F.S.Z.Z.H.aXaXaX",
"aXaXaXM.x.x.c.n.b.M.t..XtXtXtXtXtXtXtXtXtXrXXXR.l.N.G.V.M.M.b.M.A.A.F.F.F.D.D.S.Z.Z.Z.k.K.aXaXaX",
"aXaXaXm.x.x.c.c.c.c.y.0 qXtXtXtXrXtXrXtXrXqXR.T.XX!...t h.M.A.A.D.D.D.A.D.D.Z.Z.Z.Z.Z.Z.K.aXaXaX",
"aXaXaXc.p.j.j.h.c.c.h.7.w {.rXrXrXrXrXwX].R.T.R.wXX.$.~ | M.A.A.D.A.A.A.A.Z.Z.M.m.Z.Z.k.Z.aXaXaX",
"aXaXaXm.x.x.c.c.c.n.m.h.7.3 I.'.|.].'.R.T.T.XXwXX.-.U @.Q | v.V.M.A.M.A.M.M.Z.M.m.k.k.Z.m.aXaXaX",
"aXaXaXm.n.n.n.n.m.m.M.M.n.p.7 3 9 r 9 2 6 T.wXO.$.E N m @.Q | c.M.M.M.M.M.M.M.n.n.n.n.n.m.aXaXaX",
"aXaXaXm.c.c.n.n.m.b.M.M.V.M.N.x.y.t.9.t.7 r K #.{ D F D N %.P } x.n.b.M.M.b.b.v.n.c.n.c.m.aXaXaX",
"aXaXaXc.j.n.n.M.S.M.M.M.m.v.c.x.y.p.p.y.y.j / =.H H G F F D %.L h t.h.x.c.c.n.v.c.c.k.j.c.aXaXaX",
"aXaXaXZ.n.n.c.c.c.c.c.x.x.p.p.p.p.x.c.M.b., L >.] ` R R R T F &.L h 0.i.i.p.i.i.u.j.p.j.c.aXaXaX",
"aXaXaXj.j.j.j.j.x.r.t.i.i.i.i.i.y.c.M.M.x.0 a L =.] ' ` R R R R &.C h r.t.i.i.i.u.r.r.q.r.aXaXaX",
"aXaXaXp.j.q.q.q.r.r.r.i.t.i.i.p.c.M.b.c.c.9.7 s C &.] ' ' ' ' ' ' [ V h 9.t.r.r.r.q.q.q.r.aXaXaX",
"aXaXaX6.6.6.q.q.e.9.9.t.9.i.j.c.M.b.c.x.i.r.9.8 s C [ ' ` W ' W W ) ) V } t.r.9.q.e.q.6.6.aXaXaX",
"aXaXaX6.6.6.6.q.9.9.9.9.p.x.n.M.n.p.c.p.r.9.t.r.4 a V W W W W %.:.+.*._ c e p.p.e.6.6.5.6.aXaXaX",
"aXaXaX5.4.6.6.6.6.q.r.p.j.n.n.c.h.p.h.r.r.9.t.u.3.4 a B R W W *.z = z @.S f t.h.i.r.w.<.5.aXaXaX",
"aXaXaX4.4.5.4.5.6.i.i.j.c.n.n.p.p.p.i.6.8.6.t.t.6.3.% X B E E ^ q 3.: I A g w.i.i.i.u.u.q.aXaXaX",
"aXaXaX4.1.1.4.q.i.i.p.c.c.c.i.p.i.p.8.6.6.6.t.r.6.3.2.% u B E ( J t J U v i 8.t.r.r.r.r.u.aXaXaX",
"aXaXaX1.<.4.w.e.r.p.c.n.c.i.i.i.i.r.6.5.6.6.t.r.6.6.5.8 @ u b U U S U Z b ; <.t.r.e.e.e.w.aXaXaX",
"aXaXaX1.4.w.q.e.j.j.k.j.u.r.t.r.t.3.2.2.3.5.r.8.5.2.5.2.8 @ X x n M v b > $ <.5.6.w.w.q.q.aXaXaX",
"aXaXaX6.6.6.q.u.j.j.j.r.r.r.r.w.6.1.1.1.2.5.r.5.1.1.1.1.8 5 @ - i y i < 5 2.<.<.<.<.6.6.w.aXaXaX",
"aXaXaX6.6.e.i.j.u.u.w.q.w.w.w.w.1.1.<.<.<.5.w.5.8 5 1.,.,.,.5 & 5 4 5 8.t.w.<.<.* ,.,.4.6.aXaXaX",
"aXaXaX6.q.u.j.u.u.q.6.6.8.6.w.2.5 5 5 5 5 6.6.1.5 5 5 5 5 5 5 5 2.5.6.w.i.r.w.<.* & & * 4.aXaXaX",
"aXaXaXe.e.u.u.u.5.5.5.5.q.5.5.,.* * * * & 5.5.,.* * * * * * * * * 5.6.5.q.u.q.4.<.& & & & aXaXaX",
"aXaXaXu.e.u.w.5.5.5.5.5.5.5.,.& & & & & * 5.5.* & & & # & & & & & ,.5.4.4.q.u.q.4.<.# # & aXaXaX",
"aXaXaX2.e.e.4.1.<.<.5.5.<.,.# # # # # # * 1.1.& # # # # # # # # # # <.4.<.4.q.w.4.4.,.# + aXaXaX",
"aXaXaXO e.4.<.<.<.<.<.<.<.# # # # # # # * <.1.# # # # # # # # # # # & <.<.<.1.q.q.<.<.,.. aXaXaX",
"aXaXaX  o % 5.5.6.6.8.8.6.2.2.2.3.3.7.7.t.h.g.0.7.0.7.7.8.7.3.3.2.2.8 3.8.8.6.6.u.u.* o   aXaXaX",
"aXaXaXaXaX                                                                            aXaXaXaXaX",
"aXaXaXaXaXaXaXaXaXaXaXaXaXaXaXaXaXaXaXaXaXaXaXaXaXaXaXaXaXaXaXaXaXaXaXaXaXaXaXaXaXaXaXaXaXaXaXaX",
"aXaXaXaXaXaXaXaXaXaXaXaXaXaXaXaXaXaXaXaXaXaXaXaXaXaXaXaXaXaXaXaXaXaXaXaXaXaXaXaXaXaXaXaXaXaXaXaX"
};
