/* XPM */
static char *gnome_activity_journal[] = {
/* columns rows colors chars-per-pixel */
"48 48 181 2",
"   c #000000",
".  c #16414F",
"X  c #174453",
"o  c #1F596B",
"O  c #285D6E",
"+  c #205E73",
"@  c #216176",
"#  c #22657B",
"$  c #28657A",
"%  c #366575",
"&  c #316678",
"*  c #35697B",
"=  c #3E6B79",
"-  c #45707D",
";  c #246F87",
":  c #2B6A80",
">  c #336F84",
",  c #26748D",
"<  c #2A758D",
"1  c #317185",
"2  c #3D7385",
"3  c #347489",
"4  c #3A768C",
"5  c #31788E",
"6  c #3D7A8E",
"7  c #277790",
"8  c #2C7A94",
"9  c #2A7E99",
"0  c #337C93",
"q  c #3B7F96",
"w  c #347E99",
"e  c #437687",
"r  c #4F7A87",
"t  c #447789",
"y  c #447B8C",
"u  c #4B7B8B",
"i  c #507783",
"p  c #547A87",
"a  c #547D8C",
"s  c #5A7F8C",
"d  c #497F91",
"f  c #2C819D",
"g  c #36829C",
"h  c #3B849C",
"j  c #2786A5",
"k  c #2987A5",
"l  c #2B88A7",
"z  c #2D8CAB",
"x  c #3486A2",
"c  c #3887A0",
"v  c #3489A5",
"b  c #3C8AA4",
"n  c #338EAC",
"m  c #3A8EAA",
"M  c #3390AF",
"N  c #3C91AD",
"B  c #3493B3",
"V  c #3A95B4",
"C  c #3C98B7",
"Z  c #3597B8",
"A  c #3698BA",
"S  c #3B9BBB",
"D  c #498094",
"F  c #568696",
"G  c #5D8896",
"H  c #538898",
"J  c #62838E",
"K  c #628591",
"L  c #628997",
"P  c #748F98",
"I  c #6C919E",
"U  c #74929C",
"Y  c #408CA5",
"T  c #428FAA",
"R  c #4193AE",
"E  c #4993AC",
"W  c #5096AD",
"Q  c #4396B2",
"!  c #4399B5",
"~  c #4B9AB4",
"^  c #439DBC",
"/  c #499EBB",
"(  c #509DB6",
")  c #6195A6",
"_  c #6A94A2",
"`  c #6399AA",
"'  c #6A9CAC",
"]  c #729BA7",
"[  c #789BA5",
"{  c #759FAD",
"}  c #7E9DA8",
"|  c #44A0BF",
" . c #4AA1BE",
".. c #56A1BC",
"X. c #58A5BF",
"o. c #69A3B6",
"O. c #64A3B8",
"+. c #69A7BC",
"@. c #70A2B2",
"#. c #7CA4B1",
"$. c #72A6B8",
"%. c #74ABBD",
"&. c #7AA9BA",
"*. c #3B9FC1",
"=. c #3EA1C3",
"-. c #3FA5C8",
";. c #44A3C3",
":. c #49A5C4",
">. c #4BA8C7",
",. c #42A7C9",
"<. c #44AACC",
"1. c #4CACCC",
"2. c #54AECB",
"3. c #5AB2CE",
"4. c #46AED2",
"5. c #4AAFD2",
"6. c #56B6D6",
"7. c #5EB3D1",
"8. c #63A9C2",
"9. c #6EACC1",
"0. c #61B6D2",
"q. c #66B9D6",
"w. c #69BCD8",
"e. c #7FBED2",
"r. c #70C0DB",
"t. c #7EC7E0",
"y. c #819EA8",
"u. c #86A3AD",
"i. c #8EA6AE",
"p. c #8FACB6",
"a. c #84AEBC",
"s. c #93ACB4",
"d. c #9CADB3",
"f. c #87B0BF",
"g. c #8FB3BF",
"h. c #9DB3BA",
"j. c #88B4C2",
"k. c #8BBAC8",
"l. c #90B7C4",
"z. c #92B8C5",
"x. c #9FB8C1",
"c. c #9BBECA",
"v. c #A2BAC1",
"b. c #A9BCC2",
"n. c #93C1D1",
"m. c #93C9DD",
"M. c #A5C2CB",
"N. c #ACC3CB",
"B. c #B3C1C6",
"V. c #B4C4CA",
"C. c #BBC6CA",
"Z. c #B9C9CE",
"A. c #ACCAD4",
"S. c #B3CBD4",
"D. c #BBCDD2",
"F. c #B5D2DC",
"G. c #BAD0D8",
"H. c #A2D6E9",
"J. c #C3CDD1",
"K. c #C4D1D6",
"L. c #C4D6DC",
"P. c #CAD5D8",
"I. c #CBD8DD",
"U. c #D9DDDF",
"Y. c #C7DDE4",
"T. c #D5DFE1",
"R. c #DADFE1",
"E. c #D4E2E6",
"W. c #DDE4E6",
"Q. c #DCE5E8",
"!. c #DEE8EC",
"~. c #E2E6E7",
"^. c #E2E7E8",
"/. c #E4EAEC",
"(. c #EDEDEE",
"). c #EBEFF0",
"_. c #EEF0F1",
"`. c #F3F3F3",
"'. c #F7F8F8",
"]. c #F9F9F9",
"[. c None",
/* pixels */
"[.[.[.[.[.[.[.[.[.[.[.[.[.[.[.[.[.[.[.[.[.[.[.[.[.[.[.[.[.[.[.[.[.[.[.[.[.[.[.[.[.[.[.[.[.[.[.[.",
"[.[.[.[.[.[.[.[.[.[.[.[.[.[.[.[.[.[.[.[.[.[.[.[.[.[.[.[.[.[.[.[.[.[.[.[.[.[.[.[.[.[.[.[.[.[.[.[.",
"[.[.[.[.[.[.[.[.[.[.[.[.[.[.[.[.[.[.[.[.[.[.[.[.[.[.[.[.[.[.[.[.[.[.[.[.[.[.[.[.[.[.[.[.[.[.[.[.",
"[.[.[.[.%.m.H.H.H.H.H.H.H.H.H.H.H.H.H.H.H.H.H.H.H.H.H.H.H.H.H.H.H.H.H.H.H.H.H.H.H.H.m.9.[.[.[.[.",
"[.[.[.' t.6.4.4.4.4.5.4.4.4.5.5.4.5.4.4.4.4.4.5.5.5.5.4.5.5.5.5.5.4.4.5.4.4.4.4.5.4.6.t.' [.[.[.",
"[.[.[.e.4.4.4.4.4.4.4.4.4.5.5.5.5.5.5.5.5.5.5.5.5.5.4.4.5.4.5.5.5.5.4.5.5.4.4.5.4.4.4.4.e.[.[.[.",
"[.[.[.r.-.4.<.4.4.4.5.5.5.5.5.5.5.5.5.5.4.5.<.4.4.5.5.5.5.5.5.5.5.5.5.5.5.4.4.4.4.4.4.-.r.[.[.[.",
"[.[.[.w.4.4.<.4.4.5.5.5.5.5.5.5.5.5.1.:.2.c.F.Y.F.n.8. .1.5.5.5.5.5.5.5.5.5.5.5.4.<.<.4.w.[.[.[.",
"[.[.[.w.4.<.4.4.<.5.5.1.6.1.5.5.1.| A.^.].].].].].].].'.Y.2.:.2.5.5.5.5.2.5.5.<.4.<.-.<.w.[.[.[.",
"[.[.[.w.-.<.<.<.<.5.5.5.5.5.2.:.O.^.].].].].].].].].].].].].T.( 1.1.2.5.5.5.<.5.<.4.4.<.q.[.[.[.",
"[.[.[.q.<.<.<.<.1.5.1.5.1.1.~ A.`.].].].].].].~.Z.s.b.T.'.].].).9.1.5.2.2.5.1.1.<.<.<.,.q.[.[.[.",
"[.[.[.0.,.,.<.<.1.1.1.2.2./ E.].].].'.].].x.t 3 q Y q 4 2 y.`.].`.k.>.1.5.2.1.<.<.<.<.,.0.[.[.[.",
"[.[.[.0.,.,.<.>.<.1.1.1. .A.].].].].].~.L q Q  .:.2.>. ./ b u P.'._.+.2.2.1.1.<.<.,.<.,.0.[.[.[.",
"[.[.[.7.-.,.,.<.1.1.1.:.%.`.`.'.`.].W.4 T  .2.1.1.>. ./ 1.:.T 4 J.'.Q.! 1.1.1.>.<.<.,.,.7.[.[.[.",
"[.[.[.7.-.,.,.>.<.<.>.~ Q.'.`.'.].].I T :.1.1.2.>.Q L.c./ 2.1.Q d ).'.L...^ :.<.,.,.,.-.3.[.[.[.",
"[.[.[.3.-.-.,.,.>.>.^ S.'.'.'.`.'.b.q  .>.2.1.>.Q l.(.Y.Q >.2.:.b } '.].]./.G.! ;.,.,.=.3.[.[.[.",
"[.[.[.2.=.-.;.,.,.:.T (.].`.`.].`.d ^ 1.1.1.1.:.T ' e I Y >.1.>. .q W.`.'.'.'.D.S ,.;.=.2.[.[.[.",
"[.[.[.2.=.=.;.,.:./ a.'.`.].`.`.^.q :.>.>.>. .O./.]._.f.R >.>.>.>.b V.'.`.`.'.(.b ;.=.=.2.[.[.[.",
"[.[.[.2.=.=.=.,.;.! V.`.`.].].`.Z.b :.1.>.>.Q N.`.`.'.I.R :.>.>.>.R s.`.`.`.'.(.g S =.=.2.[.[.[.",
"[.[.[.1.=.=.=.;.;.m J.].`.`.`.`.s.T :.:.:.:.m Z.'.`.`.^.c :.:.>.:.! _ '.'.`.`.B.x *.=.=.2.[.[.[.",
"[.[.[.>.*.*.=.;.| c W.`.`.`.`.`.v.! :.:.:.:.Q _ `.`.'.s.b  .:.:.:.^ #.`.`.`.~.y N *.=.S >.[.[.[.",
"[.[.[.>.*.*.S ;.^ l.`.`.`.`.`.`.P.m  .:.;.:.! 0 K b.U 6 T :.:.;.;.Q v.`.`.W.u c S ;.=.S >.[.[.[.",
"[.[.[.:.*.S S ^ o.).`.`.`.`.`.`.(.c | :.;.:.;.Q h ) M./.` ^ ;.:.;.T K.`.`.[ c V ^ S *.=.;.[.[.[.",
"[.[.[.;.S *.S n P.`.`.`.`.`.`.`.`.@.^ | ;.| ;.| m ] _.`.{ Q | ;.^ Y (.`.`.F V | S =.S S ;.[.[.[.",
"[.[.[.| S A S g `.`._.`.`.`.`.`.`.T.m ^ ;.| | | ! q U _.p.m ;.| Q D.`._.(.0 ! *.*.*.S A ;.[.[.[.",
"[.[.[.^ A S Z q _._.`.`.`.`.(.`.`.`.b.Q | | | | | N 5 s.b.b ^ ^ #.`._.`.J.w S ^ S S S A ^ [.[.[.",
"[.[.[.^ A A V 8 C.(.`._.(.(.`.`.).`.(.$.! ^ ^ | ^ ^ m 3 u.h V W ~.`.(.`.s.b S ^ S S C A S [.[.[.",
"[.[.[.S Z Z C v e J.`._.`.`.(.`.`._._.`.A.m ! ^ ^ S ^ c > w l.(.(.`.`.`.L m S S S C A Z S [.[.[.",
"[.[.[.C Z Z C B g : & s.(.`.(.(.)._._._.`.R.j.E m Q R Y &.I.`.)._.`.`.b.5 V S S C C Z Z C [.[.[.",
"[.[.[.Z Z Z Z C V n x F `.(.`.`.`._.`._.`.`.`.`./.E.^.'.`.`.(.`._._.(.e x C C C Z Z B Z A [.[.[.",
"[.[.[.Z B Z B C C C V 4 (.(.`.(.`.(.(.(.(.(.(.`._._.(.(.(.`.).(._._.i.0 V ! C C Z Z B Z B [.[.[.",
"[.[.[.B B B B Z V V V 4 R.(.(.(.(.(.(.`.(.`.(._.(._.(.`.(._.(._.).R.> v C C C C B Z B B B [.[.[.",
"[.[.[.B B B B B Z Z V 5 R.).(.(.(.(.(.(.(.(.(.(.(.`.(.(.(.(.(.(./.a w V C V C V B B B B B [.[.[.",
"[.[.[.M B B B B B Z V 0 (.(.(.(.(.(.(.(.(.(.(.(.(.(.(.(.(.(.(.(.s 5 m V V V V B B B B z z [.[.[.",
"[.[.[.M z B B B B B n ) (.(.(.(.(.(.(.(.`.(.(.(.(.(.(.(.(.(.(.J < m V V V B B B B M M B B [.[.[.",
"[.[.[.M B z z B B B x v.(.(.(.(.(.(.(.(.(.(.(.(.(.(.(.(.(.U.i < v M V V V V M B M B z B B [.[.[.",
"[.[.[.M z z B z B B 0 R.(.(.(.(.(.(.(.(.(.(.(.(.(.(.(.(.C.* 8 v V N B N B B B M B z z z z [.[.[.",
"[.[.[.M z z z B z v _ (.(.(.(.(.(.(.(.~.(.(.~.(.(.(.J.K $ 9 v M M B B M M M M M z z B z z [.[.[.",
"[.[.[.z z z z z z 9 s.(.(.(.~.(.(.(.(.(.(.(.(.(.B.p @ < g n n B n B M M M M n z z z z z z [.[.[.",
"[.[.[.z z z z z l 8 i J.~.~.(.(.(.~.(.~.~.J.d.- O 1 w v n z n n n n n n n z z z z z z z z [.[.[.",
"[.[.[.z l l l l l k ; + O = i J P P p % O + # , 9 k v z z n n z n z n z z n l l z l j z z [.[.[.",
"[.[.[.l l l l l l l k 9 9 7 7 ; ; ; < 7 9 9 k l z z l z z z l l l z l l z l l k l l z j l [.[.[.",
"[.[.[.7 l j k k l l l l k k k k k f k l j l l l k z l l l l l l z l l l l l z k j j j l 7 [.[.[.",
"[.[.[.X l l j j k k k j k k k k l k k l j l k k k k k l k k j j k k k k k k k k j j l l X [.[.[.",
"[.[.[.  . < n n n m N N N Q R Q Q Q ~ ~ ~ ( ( ( ( ( ~ ~ ~ ~ ~ ~ R R R N N N n n n n 8 X   [.[.[.",
"[.[.[.[.[.                                                                            [.[.[.[.[.",
"[.[.[.[.[.[.[.[.[.[.[.[.[.[.[.[.[.[.[.[.[.[.[.[.[.[.[.[.[.[.[.[.[.[.[.[.[.[.[.[.[.[.[.[.[.[.[.[.",
"[.[.[.[.[.[.[.[.[.[.[.[.[.[.[.[.[.[.[.[.[.[.[.[.[.[.[.[.[.[.[.[.[.[.[.[.[.[.[.[.[.[.[.[.[.[.[.[."
};
