<?xml version="1.0" encoding="UTF-8" standalone="no"?>
<!-- Created with Inkscape (http://www.inkscape.org/) -->

<svg
   xmlns:dc="http://purl.org/dc/elements/1.1/"
   xmlns:cc="http://creativecommons.org/ns#"
   xmlns:rdf="http://www.w3.org/1999/02/22-rdf-syntax-ns#"
   xmlns:svg="http://www.w3.org/2000/svg"
   xmlns="http://www.w3.org/2000/svg"
   xmlns:xlink="http://www.w3.org/1999/xlink"
   xmlns:sodipodi="http://sodipodi.sourceforge.net/DTD/sodipodi-0.dtd"
   xmlns:inkscape="http://www.inkscape.org/namespaces/inkscape"
   version="1.0"
   width="64"
   height="64"
   id="svg3415"
   inkscape:version="0.48.4 r9939"
   sodipodi:docname="folder-system.svg">
  <metadata
     id="metadata69">
    <rdf:RDF>
      <cc:Work
         rdf:about="">
        <dc:format>image/svg+xml</dc:format>
        <dc:type
           rdf:resource="http://purl.org/dc/dcmitype/StillImage" />
      </cc:Work>
    </rdf:RDF>
  </metadata>
  <sodipodi:namedview
     pagecolor="#ffffff"
     bordercolor="#666666"
     borderopacity="1"
     objecttolerance="10"
     gridtolerance="10"
     guidetolerance="10"
     inkscape:pageopacity="0"
     inkscape:pageshadow="2"
     inkscape:window-width="1042"
     inkscape:window-height="480"
     id="namedview67"
     showgrid="false"
     inkscape:zoom="3.6875"
     inkscape:cx="-32.677966"
     inkscape:cy="32"
     inkscape:window-x="0"
     inkscape:window-y="0"
     inkscape:window-maximized="0"
     inkscape:current-layer="svg3415" />
  <defs
     id="defs3417">
    <linearGradient
       id="linearGradient6404-1">
      <stop
         id="stop6406-5"
         style="stop-color:#f9f9f9;stop-opacity:1"
         offset="0" />
      <stop
         id="stop6408-9"
         style="stop-color:#c9c9c9;stop-opacity:1"
         offset="1" />
    </linearGradient>
    <linearGradient
       x1="62.988873"
       y1="13.182598"
       x2="62.988873"
       y2="16.19013"
       id="linearGradient2939"
       xlink:href="#linearGradient6404-1"
       gradientUnits="userSpaceOnUse"
       gradientTransform="translate(-112.21338,-10.504231)" />
    <linearGradient
       id="linearGradient3397">
      <stop
         id="stop3399"
         style="stop-color:#a0a0a0;stop-opacity:1"
         offset="0" />
      <stop
         id="stop3401"
         style="stop-color:#787878;stop-opacity:1"
         offset="1" />
    </linearGradient>
    <linearGradient
       x1="25.922546"
       y1="19"
       x2="25.922546"
       y2="47.044857"
       id="linearGradient2646"
       xlink:href="#linearGradient3397"
       gradientUnits="userSpaceOnUse"
       gradientTransform="translate(-61.272483,-10.504231)" />
    <linearGradient
       x1="63.9995"
       y1="3.1001"
       x2="63.9995"
       y2="122.8994"
       id="linearGradient3309"
       gradientUnits="userSpaceOnUse">
      <stop
         id="stop3311"
         style="stop-color:#f6f6f6;stop-opacity:1"
         offset="0" />
      <stop
         id="stop3313"
         style="stop-color:#d2d2d2;stop-opacity:1"
         offset="1" />
    </linearGradient>
    <linearGradient
       x1="32.036148"
       y1="19"
       x2="32.036148"
       y2="47.012184"
       id="linearGradient2644"
       xlink:href="#linearGradient3309"
       gradientUnits="userSpaceOnUse"
       gradientTransform="translate(-61.272483,-10.504231)" />
    <radialGradient
       cx="605.71429"
       cy="486.64789"
       r="117.14286"
       fx="605.71429"
       fy="486.64789"
       id="radialGradient3413"
       xlink:href="#linearGradient5060-820"
       gradientUnits="userSpaceOnUse"
       gradientTransform="matrix(0.04016195,0,0,0.0329426,33.795982,40.921317)" />
    <linearGradient
       id="linearGradient3484">
      <stop
         id="stop3486"
         style="stop-color:#bdbdbd;stop-opacity:1"
         offset="0" />
      <stop
         id="stop3488"
         style="stop-color:#d0d0d0;stop-opacity:1"
         offset="1" />
    </linearGradient>
    <radialGradient
       cx="2.9999998"
       cy="-17.82061"
       r="21"
       fx="2.9999998"
       fy="-17.82061"
       id="radialGradient3396"
       xlink:href="#linearGradient3484"
       gradientUnits="userSpaceOnUse"
       gradientTransform="matrix(-1.7093459e-8,2.2713251,-2.8951677,-1.9343515e-8,-48.593318,2.3972382)" />
    <linearGradient
       id="linearGradient6404">
      <stop
         id="stop6406"
         style="stop-color:#f9f9f9;stop-opacity:1"
         offset="0" />
      <stop
         id="stop6408"
         style="stop-color:#c9c9c9;stop-opacity:1"
         offset="1" />
    </linearGradient>
    <linearGradient
       x1="62.988873"
       y1="13.182598"
       x2="62.988873"
       y2="16.19013"
       id="linearGradient3398"
       xlink:href="#linearGradient6404"
       gradientUnits="userSpaceOnUse"
       gradientTransform="matrix(1.3407707,0,0,1.3249351,-134.0678,-1.3881028)" />
    <linearGradient
       id="linearGradient5048-585">
      <stop
         id="stop2667"
         style="stop-color:#000000;stop-opacity:0"
         offset="0" />
      <stop
         id="stop2669"
         style="stop-color:#000000;stop-opacity:1"
         offset="0.5" />
      <stop
         id="stop2671"
         style="stop-color:#000000;stop-opacity:0"
         offset="1" />
    </linearGradient>
    <linearGradient
       x1="302.85715"
       y1="366.64789"
       x2="302.85715"
       y2="609.50507"
       id="linearGradient3409"
       xlink:href="#linearGradient5048-585"
       gradientUnits="userSpaceOnUse"
       gradientTransform="matrix(0.1076923,0,0,0.03294117,-6.9230773,40.922188)" />
    <linearGradient
       id="linearGradient5060-820">
      <stop
         id="stop2681"
         style="stop-color:#000000;stop-opacity:1"
         offset="0" />
      <stop
         id="stop2683"
         style="stop-color:#000000;stop-opacity:0"
         offset="1" />
    </linearGradient>
    <radialGradient
       cx="605.71429"
       cy="486.64789"
       r="117.14286"
       fx="605.71429"
       fy="486.64789"
       id="radialGradient3403"
       xlink:href="#linearGradient5060-820"
       gradientUnits="userSpaceOnUse"
       gradientTransform="matrix(-0.04016195,0,0,0.0329426,30.204018,40.921317)" />
    <linearGradient
       id="linearGradient3390">
      <stop
         id="stop3392"
         style="stop-color:#51751e;stop-opacity:1"
         offset="0" />
      <stop
         id="stop3394"
         style="stop-color:#51751e;stop-opacity:1"
         offset="1" />
    </linearGradient>
    <linearGradient
       x1="82.453476"
       y1="45.114193"
       x2="65.340263"
       y2="15.943953"
       id="linearGradient2587"
       xlink:href="#linearGradient3390"
       gradientUnits="userSpaceOnUse"
       gradientTransform="matrix(1.3407998,0,0,1.3264587,-72.462643,-1.6032277)" />
    <linearGradient
       id="linearGradient7012-661-145-733-759-865-745">
      <stop
         id="stop2699"
         style="stop-color:#ffe791;stop-opacity:1;"
         offset="0" />
      <stop
         id="stop2701"
         style="stop-color:#f0cf80;stop-opacity:1;"
         offset="1" />
    </linearGradient>
    <radialGradient
       cx="63.969177"
       cy="14.113381"
       r="23.097054"
       fx="63.969177"
       fy="14.113381"
       id="radialGradient2585"
       xlink:href="#linearGradient7012-661-145-733-759-865-745"
       gradientUnits="userSpaceOnUse"
       gradientTransform="matrix(2.0979394,-1.2620327e-7,8.2824269e-8,1.3475335,-115.96782,9.3537334)" />
    <linearGradient
       id="linearGradient6129-963-697-142-998-580-273">
      <stop
         id="stop2661"
         style="stop-color:#0a0a0a;stop-opacity:0.498"
         offset="0" />
      <stop
         id="stop2663"
         style="stop-color:#0a0a0a;stop-opacity:0"
         offset="1" />
    </linearGradient>
    <linearGradient
       x1="22.934725"
       y1="49.629246"
       x2="22.809399"
       y2="36.657963"
       id="linearGradient2582"
       xlink:href="#linearGradient6129-963-697-142-998-580-273"
       gradientUnits="userSpaceOnUse"
       gradientTransform="matrix(1.5347702,0,0,1.3270123,-5.0206145,-0.04854157)" />
    <linearGradient
       id="linearGradient6087-437-184-795-110-662-495">
      <stop
         id="stop2693"
         style="stop-color:#ffffff;stop-opacity:0.40000001"
         offset="0" />
      <stop
         id="stop2695"
         style="stop-color:#ffffff;stop-opacity:0"
         offset="1" />
    </linearGradient>
    <radialGradient
       cx="7.2646537"
       cy="8.3021259"
       r="20.979567"
       fx="7.2646537"
       fy="8.3021259"
       id="radialGradient2579"
       xlink:href="#linearGradient6087-437-184-795-110-662-495"
       gradientUnits="userSpaceOnUse"
       gradientTransform="matrix(0,1.606606,-2.1816541,0,34.685541,9.28484)" />
    <linearGradient
       id="linearGradient8265-821-176-38-919-66-249">
      <stop
         id="stop2687"
         style="stop-color:#ffffff;stop-opacity:0.27450982"
         offset="0" />
      <stop
         id="stop2689"
         style="stop-color:#ffffff;stop-opacity:0.07843138"
         offset="1" />
    </linearGradient>
    <linearGradient
       x1="11.566265"
       y1="22.292103"
       x2="15.214532"
       y2="33.95525"
       id="linearGradient2576"
       xlink:href="#linearGradient8265-821-176-38-919-66-249"
       gradientUnits="userSpaceOnUse"
       gradientTransform="matrix(1.3407707,0,0,1.33,-0.3733138,-1.3099814)" />
    <linearGradient
       inkscape:collect="always"
       xlink:href="#linearGradient8265-821-176-38-919-66-249"
       id="linearGradient3815"
       gradientUnits="userSpaceOnUse"
       gradientTransform="matrix(1.3407707,0,0,1.33,-0.3733138,-1.3099814)"
       x1="11.566265"
       y1="22.292103"
       x2="15.214532"
       y2="33.95525" />
    <radialGradient
       inkscape:collect="always"
       xlink:href="#linearGradient6087-437-184-795-110-662-495"
       id="radialGradient3818"
       gradientUnits="userSpaceOnUse"
       gradientTransform="matrix(0,1.606606,-2.1816541,0,34.685541,9.28484)"
       cx="7.2646537"
       cy="8.3021259"
       fx="7.2646537"
       fy="8.3021259"
       r="20.979567" />
    <linearGradient
       inkscape:collect="always"
       xlink:href="#linearGradient6129-963-697-142-998-580-273"
       id="linearGradient3821"
       gradientUnits="userSpaceOnUse"
       gradientTransform="matrix(1.5347702,0,0,1.3270123,-5.0206145,-0.04854157)"
       x1="22.934725"
       y1="49.629246"
       x2="22.809399"
       y2="36.657963" />
    <radialGradient
       inkscape:collect="always"
       xlink:href="#linearGradient7012-661-145-733-759-865-745"
       id="radialGradient3824"
       gradientUnits="userSpaceOnUse"
       gradientTransform="matrix(2.0979394,-1.2620327e-7,8.2824269e-8,1.3475335,-115.96782,9.3537334)"
       cx="63.969177"
       cy="14.113381"
       fx="63.969177"
       fy="14.113381"
       r="23.097054" />
    <radialGradient
       inkscape:collect="always"
       xlink:href="#linearGradient5060-820"
       id="radialGradient3829"
       gradientUnits="userSpaceOnUse"
       gradientTransform="matrix(-0.04016195,0,0,0.0329426,30.204018,40.921317)"
       cx="605.71429"
       cy="486.64789"
       fx="605.71429"
       fy="486.64789"
       r="117.14286" />
    <linearGradient
       inkscape:collect="always"
       xlink:href="#linearGradient5048-585"
       id="linearGradient3832"
       gradientUnits="userSpaceOnUse"
       gradientTransform="matrix(0.1076923,0,0,0.03294117,-6.9230773,40.922188)"
       x1="302.85715"
       y1="366.64789"
       x2="302.85715"
       y2="609.50507" />
    <linearGradient
       inkscape:collect="always"
       xlink:href="#linearGradient6404"
       id="linearGradient3835"
       gradientUnits="userSpaceOnUse"
       gradientTransform="matrix(1.3407707,0,0,1.3249351,-134.0678,-1.3881028)"
       x1="62.988873"
       y1="13.182598"
       x2="62.988873"
       y2="16.19013" />
    <radialGradient
       inkscape:collect="always"
       xlink:href="#linearGradient3484"
       id="radialGradient3837"
       gradientUnits="userSpaceOnUse"
       gradientTransform="matrix(-1.7093459e-8,2.2713251,-2.8951677,-1.9343515e-8,-48.593318,2.3972382)"
       cx="2.9999998"
       cy="-17.82061"
       fx="2.9999998"
       fy="-17.82061"
       r="21" />
    <radialGradient
       inkscape:collect="always"
       xlink:href="#linearGradient5060-820"
       id="radialGradient3840"
       gradientUnits="userSpaceOnUse"
       gradientTransform="matrix(0.04016195,0,0,0.0329426,33.795982,40.921317)"
       cx="605.71429"
       cy="486.64789"
       fx="605.71429"
       fy="486.64789"
       r="117.14286" />
  </defs>
  <path
     inkscape:connector-curvature="0"
     style="opacity:0.3;fill:url(#radialGradient3840);fill-opacity:1;fill-rule:nonzero;stroke:none;stroke-width:1;marker:none;visibility:visible;display:inline;overflow:visible"
     id="path3411"
     d="m 58,52.999928 c 0,0 0,7.999907 0,7.999907 2.068242,0.01506 5,-1.792375 5,-4.000468 0,-2.208095 -2.308001,-3.999439 -5,-3.999439 z" />
  <path
     inkscape:connector-curvature="0"
     style="fill:url(#linearGradient3835);fill-opacity:1;fill-rule:nonzero;stroke:url(#radialGradient3837);stroke-width:0.99999994;stroke-linecap:round;stroke-linejoin:round;stroke-miterlimit:4;stroke-opacity:1;stroke-dasharray:none;stroke-dashoffset:0;marker:none;visibility:visible;display:inline;overflow:visible;enable-background:accumulate"
     id="path2558"
     d="M 8,9.5001644 C 7.0849896,9.5103921 6.5,9.9563421 6.5,10.83345 L 6.5,13.5 c 0,0 -1.505998,0 -1.505998,0 C 3.999085,13.5 3.5,13.973582 3.5,14.842172 c 0.045615,13.719577 0,14.493007 0,15.657827 1.9028336,0 56.999998,-4.932803 56.999998,-7.056104 l 0,-8.443895 c 0,-1.000069 -0.499946,-1.5 -1.499998,-1.5 L 28.64966,13.5 28.5,10.83345 C 28.5,9.9563421 28.275474,9.4899354 27.360464,9.5001644 L 8,9.5001644 z" />
  <rect
     style="opacity:0.3;fill:url(#linearGradient3832);fill-opacity:1;fill-rule:nonzero;stroke:none;stroke-width:1;marker:none;visibility:visible;display:inline;overflow:visible"
     id="rect4173"
     y="53"
     x="6"
     height="8"
     width="52" />
  <path
     inkscape:connector-curvature="0"
     style="opacity:0.3;fill:url(#radialGradient3829);fill-opacity:1;fill-rule:nonzero;stroke:none;stroke-width:1;marker:none;visibility:visible;display:inline;overflow:visible"
     id="path5018"
     d="m 6,52.999928 c 0,0 0,7.999907 0,7.999907 -2.0682415,0.01506 -5,-1.792375 -5,-4.000468 0,-2.208095 2.308001,-3.999439 5,-3.999439 z" />
  <path
     inkscape:connector-curvature="0"
     style="fill:url(#radialGradient3824);fill-opacity:1;stroke:#828282;stroke-width:0.99867868000000004;stroke-linecap:round;stroke-linejoin:round;stroke-miterlimit:4;stroke-opacity:1;stroke-dasharray:none;stroke-dashoffset:0"
     id="path3388"
     d="m 2.5259407,20.468232 c -1.4382853,0.164074 -0.8699263,1.859851 -0.984601,2.813434 0.526307,11.235226 1.2576348,22.243991 1.7807009,33.479292 0.4583337,1.280953 2.137818,0.624975 3.2019868,0.787585 17.6899006,0 35.3798046,0 53.0697076,0 1.46064,-0.141468 0.853366,-1.867231 1.058829,-2.854886 0.526317,-11.235226 1.258036,-22.243991 1.781096,-33.479292 -0.336769,-1.265825 -2.237584,-0.562437 -3.234621,-0.746133 -18.891029,0 -37.782063,0 -56.6730983,0 l 0,0 z" />
  <path
     inkscape:connector-curvature="0"
     style="opacity:0.4;fill:url(#linearGradient3821);fill-opacity:1;stroke:none"
     id="path6127"
     d="m 2.3863178,19.856642 58.8551082,5.36e-4 c 0.850263,0 1.401313,0.591333 1.401313,1.326499 l -1.668235,35.82931 c 0,0.735164 -0.684507,1.327011 -1.534767,1.327011 l -55.2517325,0 c -0.850263,0 -1.5347705,-0.591847 -1.5347705,-1.327011 L 0.98500571,21.183655 c 0,-0.735167 0.55104909,-1.327013 1.40131209,-1.327013 z" />
  <path
     inkscape:connector-curvature="0"
     style="fill:none;stroke:url(#radialGradient3818);stroke-width:1;stroke-linecap:round;stroke-linejoin:round;stroke-miterlimit:4;stroke-opacity:1;stroke-dasharray:none"
     id="path2435"
     d="m 61.672911,21.565438 c -18.142303,0 -40.851607,0 -58.993911,0 C 3,32 3.7125107,43.316481 4.2292662,54.192001" />
  <path
     inkscape:connector-curvature="0"
     style="fill:url(#linearGradient3815);fill-opacity:1;stroke:none"
     id="path3455"
     d="m 60.966946,19.970018 c -19.507664,0.09756 -39.022574,-0.02813 -58.5330211,0 C 0.01147377,20.516804 1.3151768,23.25061 1.130124,24.986147 1.4278147,30.523398 1.5632824,36.084915 1.9620206,41.607 22.074269,38.464478 42.086655,35.479352 61.846826,32.230956 c 1.04713,-3.440149 1.055694,-7.54189 0.881366,-11.210868 -0.307219,-0.671068 -1.055198,-1.065123 -1.761246,-1.05007 z" />
  <g
     transform="matrix(1.33,0,0,1.33,79.901402,11.715627)"
     id="g2639">
    <path
       d="M -32.397483,8.995769 C -33.146222,8.995769 -33.772483,9.590781 -33.772483,10.339519 L -33.772483,12.089519 C -34.245885,12.248395 -34.705234,12.432925 -35.147483,12.652019 L -36.366233,11.433269 C -36.895672,10.903831 -37.743045,10.903831 -38.272483,11.433269 L -41.334983,14.464519 C -41.864422,14.993957 -41.864419,15.841332 -41.334983,16.370769 L -40.116233,17.589519 C -40.34056,18.039451 -40.516865,18.513451 -40.678733,18.995769 L -42.397483,18.995769 C -43.146222,18.995769 -43.772485,19.590781 -43.772483,20.339519 L -43.772483,24.652019 C -43.772484,25.400757 -43.146219,25.995771 -42.397483,25.995769 L -40.678733,25.995769 C -40.516865,26.478087 -40.34056,26.952087 -40.116233,27.402019 L -41.334983,28.620769 C -41.864422,29.150207 -41.864423,29.997581 -41.334983,30.527019 L -38.272483,33.558269 C -37.743046,34.087707 -36.89567,34.087705 -36.366233,33.558269 L -35.147483,32.339519 C -34.705234,32.558613 -34.245885,32.743143 -33.772483,32.902019 L -33.772483,34.652019 C -33.772484,35.400757 -33.146217,35.995771 -32.397483,35.995769 L -28.116233,35.995769 C -27.367494,35.995769 -26.772483,35.400755 -26.772483,34.652019 L -26.772483,32.902019 C -26.290165,32.740151 -25.816165,32.563846 -25.366233,32.339519 L -24.147483,33.558269 C -23.618044,34.087707 -22.770672,34.087707 -22.241233,33.558269 L -19.178733,30.527019 C -18.649294,29.997581 -18.649299,29.150205 -19.178733,28.620769 L -20.428733,27.370769 C -20.209639,26.92852 -20.025109,26.469171 -19.866233,25.995769 L -18.116233,25.995769 C -17.367494,25.995769 -16.772483,25.400755 -16.772483,24.652019 L -16.772483,20.339519 C -16.772482,19.590781 -17.367499,18.995769 -18.116233,18.995769 L -19.866233,18.995769 C -20.025109,18.522367 -20.209639,18.063018 -20.428733,17.620769 L -19.178733,16.370769 C -18.649294,15.841331 -18.649295,14.993957 -19.178733,14.464519 L -22.241233,11.433269 C -22.77067,10.903831 -23.618047,10.903831 -24.147483,11.433269 L -25.366233,12.652019 C -25.816165,12.427692 -26.290165,12.251387 -26.772483,12.089519 L -26.772483,10.339519 C -26.772482,9.590781 -27.367499,8.995769 -28.116233,8.995769 L -32.397483,8.995769 L -32.397483,8.995769 z M -30.272483,18.995769 C -28.340483,18.995769 -26.772483,20.563769 -26.772483,22.495769 C -26.772483,24.427769 -28.340483,25.995769 -30.272483,25.995769 C -32.204484,25.995769 -33.772483,24.427769 -33.772483,22.495769 C -33.772484,20.563769 -32.204483,18.995769 -30.272483,18.995769 z"
       id="rect2576"
       style="fill:url(#linearGradient2644);fill-opacity:1;fill-rule:nonzero;stroke:url(#linearGradient2646);stroke-width:0.75187969;stroke-linecap:butt;stroke-linejoin:round;marker:none;stroke-miterlimit:4;stroke-dasharray:none;stroke-dashoffset:0;stroke-opacity:1;visibility:visible;display:block;overflow:visible;enable-background:accumulate" />
    <path
       d="M -30.272483,14.495769 C -34.683756,14.495769 -38.272481,18.084496 -38.272481,22.495769 C -38.272481,26.907043 -34.683756,30.495769 -30.272483,30.495769 C -25.86121,30.495769 -22.272483,26.907043 -22.272483,22.495769 C -22.272483,18.084496 -25.86121,14.495769 -30.272483,14.495769 L -30.272483,14.495769 z M -30.272483,18.188078 C -27.894639,18.188078 -25.96479,20.117924 -25.96479,22.495769 C -25.96479,24.873616 -27.894639,26.803462 -30.272483,26.803462 C -32.650329,26.803462 -34.580174,24.873616 -34.580174,22.495769 C -34.580174,20.117924 -32.650329,18.188078 -30.272483,18.188078 L -30.272483,18.188078 z"
       id="path3315"
       style="opacity:0.05;fill:#000000;fill-opacity:1;stroke:none" />
    <path
       d="M -30.272483,14.11646 C -34.892836,14.11646 -38.651791,17.875417 -38.651791,22.495768 C -38.651791,27.11612 -34.892836,30.875078 -30.272483,30.875078 C -25.65213,30.875078 -21.893173,27.11612 -21.893173,22.495768 C -21.893173,17.875417 -25.65213,14.11646 -30.272483,14.11646 L -30.272483,14.11646 z"
       id="path28"
       style="fill:none;stroke:url(#linearGradient2939);stroke-width:0.75187969;stroke-miterlimit:4;stroke-dasharray:none" />
  </g>
</svg>
