<?xml version="1.0" encoding="UTF-8" standalone="no"?>
<!-- Created with Inkscape (http://www.inkscape.org/) -->

<svg
   version="1.0"
   width="96"
   height="96"
   id="svg2408"
   sodipodi:docname="ardour.svg"
   inkscape:version="1.2.2 (b0a8486541, 2022-12-01)"
   xmlns:inkscape="http://www.inkscape.org/namespaces/inkscape"
   xmlns:sodipodi="http://sodipodi.sourceforge.net/DTD/sodipodi-0.dtd"
   xmlns:xlink="http://www.w3.org/1999/xlink"
   xmlns="http://www.w3.org/2000/svg"
   xmlns:svg="http://www.w3.org/2000/svg"
   xmlns:rdf="http://www.w3.org/1999/02/22-rdf-syntax-ns#"
   xmlns:cc="http://creativecommons.org/ns#"
   xmlns:dc="http://purl.org/dc/elements/1.1/">
  <sodipodi:namedview
     id="namedview24059"
     pagecolor="#ffffff"
     bordercolor="#000000"
     borderopacity="0.25"
     inkscape:showpageshadow="2"
     inkscape:pageopacity="0.0"
     inkscape:pagecheckerboard="0"
     inkscape:deskcolor="#d1d1d1"
     showgrid="false"
     inkscape:zoom="8"
     inkscape:cx="7.875"
     inkscape:cy="42.25"
     inkscape:current-layer="svg2408" />
  <defs
     id="defs2410">
    <linearGradient
       inkscape:collect="always"
       id="linearGradient28028">
      <stop
         style="stop-color:#e6e6e6;stop-opacity:1;"
         offset="0"
         id="stop28024" />
      <stop
         style="stop-color:#f5f5f5;stop-opacity:1;"
         offset="1"
         id="stop28026" />
    </linearGradient>
    <linearGradient
       inkscape:collect="always"
       id="linearGradient25107">
      <stop
         style="stop-color:#663500;stop-opacity:1;"
         offset="0"
         id="stop25103" />
      <stop
         style="stop-color:#965300;stop-opacity:0;"
         offset="1"
         id="stop25105" />
    </linearGradient>
    <linearGradient
       id="linearGradient3729">
      <stop
         id="stop3731"
         style="stop-color:#1c59ad;stop-opacity:1"
         offset="0" />
      <stop
         id="stop3733"
         style="stop-color:#377ad6;stop-opacity:1"
         offset="1" />
    </linearGradient>
    <linearGradient
       x1="45.447727"
       y1="92.539597"
       x2="45.447727"
       y2="7.0165396"
       id="ButtonShadow"
       gradientUnits="userSpaceOnUse"
       gradientTransform="scale(1.0058652,0.994169)">
      <stop
         id="stop3750"
         style="stop-color:#000000;stop-opacity:1"
         offset="0" />
      <stop
         id="stop3752"
         style="stop-color:#000000;stop-opacity:0.58823532"
         offset="1" />
    </linearGradient>
    <linearGradient
       id="linearGradient3737">
      <stop
         id="stop3739"
         style="stop-color:#ffffff;stop-opacity:1"
         offset="0" />
      <stop
         id="stop3741"
         style="stop-color:#ffffff;stop-opacity:0"
         offset="1" />
    </linearGradient>
    <linearGradient
       id="linearGradient3700">
      <stop
         id="stop3702"
         style="stop-color:#b60000;stop-opacity:1;"
         offset="0" />
      <stop
         id="stop3704"
         style="stop-color:#cf7d00;stop-opacity:1;"
         offset="1" />
    </linearGradient>
    <linearGradient
       x1="48"
       y1="90"
       x2="48"
       y2="5.9877172"
       id="linearGradient3706"
       xlink:href="#linearGradient3700"
       gradientUnits="userSpaceOnUse" />
    <filter
       color-interpolation-filters="sRGB"
       id="filter3174"
       x="-0.047720931"
       y="-0.048282354"
       width="1.0954419"
       height="1.0965647">
      <feGaussianBlur
         stdDeviation="1.71"
         id="feGaussianBlur3176" />
    </filter>
    <linearGradient
       x1="36.357143"
       y1="6"
       x2="36.357143"
       y2="63.893143"
       id="linearGradient3188"
       xlink:href="#linearGradient3737"
       gradientUnits="userSpaceOnUse" />
    <linearGradient
       x1="45.447727"
       y1="92.539597"
       x2="45.447727"
       y2="7.0165396"
       id="ButtonShadow-0"
       gradientUnits="userSpaceOnUse"
       gradientTransform="matrix(1.0058652,0,0,0.994169,100,0)">
      <stop
         id="stop3750-8"
         style="stop-color:#000000;stop-opacity:1"
         offset="0" />
      <stop
         id="stop3752-5"
         style="stop-color:#000000;stop-opacity:0.58823532"
         offset="1" />
    </linearGradient>
    <linearGradient
       x1="32.251034"
       y1="6.1317081"
       x2="32.251034"
       y2="90.238609"
       id="linearGradient3780"
       xlink:href="#ButtonShadow-0"
       gradientUnits="userSpaceOnUse"
       gradientTransform="matrix(1.0238095,0,0,1.0119048,-1.1428571,-98.071429)" />
    <linearGradient
       x1="32.251034"
       y1="6.1317081"
       x2="32.251034"
       y2="90.238609"
       id="linearGradient3772"
       xlink:href="#ButtonShadow-0"
       gradientUnits="userSpaceOnUse"
       gradientTransform="matrix(1.0238095,0,0,1.0119048,-1.1428571,-98.071429)" />
    <linearGradient
       x1="32.251034"
       y1="6.1317081"
       x2="32.251034"
       y2="90.238609"
       id="linearGradient3725"
       xlink:href="#ButtonShadow-0"
       gradientUnits="userSpaceOnUse"
       gradientTransform="matrix(1.0238095,0,0,1.0119048,-1.1428571,-98.071429)" />
    <linearGradient
       x1="32.251034"
       y1="6.1317081"
       x2="32.251034"
       y2="90.238609"
       id="linearGradient3721"
       xlink:href="#ButtonShadow-0"
       gradientUnits="userSpaceOnUse"
       gradientTransform="translate(0,-97)" />
    <linearGradient
       x1="32.251034"
       y1="6.1317081"
       x2="32.251034"
       y2="90.238609"
       id="linearGradient3760"
       xlink:href="#ButtonShadow-0"
       gradientUnits="userSpaceOnUse"
       gradientTransform="matrix(1.0238095,0,0,1.0119048,-1.1428571,-98.071429)" />
    <linearGradient
       id="linearGradient3737-0">
      <stop
         id="stop3739-6"
         style="stop-color:#ffffff;stop-opacity:1"
         offset="0" />
      <stop
         id="stop3741-0"
         style="stop-color:#ffffff;stop-opacity:0"
         offset="1" />
    </linearGradient>
    <radialGradient
       cx="48"
       cy="90.171875"
       r="42"
       fx="48"
       fy="90.171875"
       id="radialGradient2903"
       xlink:href="#linearGradient3737-0"
       gradientUnits="userSpaceOnUse"
       gradientTransform="matrix(1.1573129,0,0,0.99590774,-7.551021,0.1971319)" />
    <clipPath
       id="clipPath3782">
      <path
         d="m -98,6 c -3.324,0 -6,2.676 -6,6 l 0,72 c 0,3.324 2.676,6 6,6 l 72,0 c 3.324,0 6,-2.676 6,-6 l 0,-72 c 0,-3.324 -2.676,-6 -6,-6 l -72,0 z m 59.0625,12 C -38.336494,17.9909 -38,18.03125 -38,18.03125 l 0,12.0625 C -50.051065,30.305506 -53,42.0625 -53,42.0625 l 9.0625,0 0,12.0625 -14.09375,0 C -66.507844,80.276885 -86,77.9375 -86,77.9375 l 0,-12.0625 c 0,0 12.376145,2.298313 18.6875,-20.75 6.908061,-25.227422 24.167961,-27.061294 28.375,-27.125 z"
         inkscape:connector-curvature="0"
         id="path3784"
         style="fill:#ff00ff;fill-opacity:1;fill-rule:nonzero;stroke:none" />
    </clipPath>
    <filter
       x="-0.18283333"
       y="-0.14622227"
       width="1.3656667"
       height="1.2924143"
       color-interpolation-filters="sRGB"
       id="filter3786">
      <feGaussianBlur
         id="feGaussianBlur3788"
         stdDeviation="3.24" />
    </filter>
    <linearGradient
       x1="46.906918"
       y1="75.471306"
       x2="46.906918"
       y2="36.246487"
       id="linearGradient3745"
       xlink:href="#linearGradient3729"
       gradientUnits="userSpaceOnUse"
       gradientTransform="translate(-2)" />
    <linearGradient
       id="linearGradient3737-9">
      <stop
         id="stop3739-2"
         style="stop-color:#ffffff;stop-opacity:1"
         offset="0" />
      <stop
         id="stop3741-1"
         style="stop-color:#ffffff;stop-opacity:0"
         offset="1" />
    </linearGradient>
    <clipPath
       id="clipPath3613">
      <rect
         width="84"
         height="84"
         rx="6"
         ry="6"
         x="6"
         y="6"
         id="rect3615"
         style="fill:#ffffff;fill-opacity:1;fill-rule:nonzero;stroke:none" />
    </clipPath>
    <filter
       x="-0.19578789"
       y="-0.19578789"
       width="1.3915758"
       height="1.3915758"
       color-interpolation-filters="sRGB"
       id="filter3794">
      <feGaussianBlur
         id="feGaussianBlur3796"
         stdDeviation="5.28" />
    </filter>
    <linearGradient
       x1="48"
       y1="20.220806"
       x2="48"
       y2="138.66119"
       id="linearGradient4186"
       xlink:href="#linearGradient3737-9"
       gradientUnits="userSpaceOnUse" />
    <linearGradient
       id="linearGradient2660">
      <stop
         style="stop-color:#edeeec;stop-opacity:1;"
         offset="0"
         id="stop2662" />
      <stop
         style="stop-color:#babdb6;stop-opacity:1;"
         offset="1"
         id="stop2664" />
    </linearGradient>
    <linearGradient
       id="linearGradient15653">
      <stop
         style="stop-color:#f0f1ee;stop-opacity:1;"
         offset="0"
         id="stop15655" />
      <stop
         style="stop-color:#d5d9d1;stop-opacity:1;"
         offset="1"
         id="stop15657" />
    </linearGradient>
    <linearGradient
       inkscape:collect="always"
       xlink:href="#linearGradient25107"
       id="linearGradient25109"
       x1="48.054688"
       y1="15.775391"
       x2="48.054688"
       y2="79.133934"
       gradientUnits="userSpaceOnUse" />
    <linearGradient
       inkscape:collect="always"
       xlink:href="#linearGradient28028"
       id="linearGradient28030"
       x1="46.505413"
       y1="77.995705"
       x2="46.505413"
       y2="15.859162"
       gradientUnits="userSpaceOnUse" />
    <clipPath
       id="clipPath3613-7">
      <rect
         width="84"
         height="84"
         rx="6"
         ry="6"
         x="6"
         y="6"
         id="rect3615-5"
         style="fill:#ffffff;fill-opacity:1;fill-rule:nonzero;stroke:none" />
    </clipPath>
    <filter
       x="-0.19578789"
       y="-0.19578789"
       width="1.3915758"
       height="1.3915758"
       color-interpolation-filters="sRGB"
       id="filter3794-3">
      <feGaussianBlur
         id="feGaussianBlur3796-5"
         stdDeviation="5.28" />
    </filter>
  </defs>
  <metadata
     id="metadata2413">
    <rdf:RDF>
      <cc:Work
         rdf:about="">
        <dc:format>image/svg+xml</dc:format>
        <dc:type
           rdf:resource="http://purl.org/dc/dcmitype/StillImage" />
      </cc:Work>
    </rdf:RDF>
  </metadata>
  <g
     id="layer7"
     style="display:inline">
    <path
       d="m 12,-95.03125 c -5.5110903,0 -10.03125,4.52016 -10.03125,10.03125 l 0,71 c 0,5.5110902 4.5201598,10.03125 10.03125,10.03125 l 72,0 c 5.51109,0 10.03125,-4.5201597 10.03125,-10.03125 l 0,-71 c 0,-5.51109 -4.52016,-10.03125 -10.03125,-10.03125 l -72,0 z"
       transform="scale(1,-1)"
       id="path3786"
       style="opacity:0.07999998;fill:url(#linearGradient3760);fill-opacity:1;fill-rule:nonzero;stroke:none;display:inline" />
    <path
       d="m 12,-94.03125 c -4.971633,0 -9.03125,4.059617 -9.03125,9.03125 l 0,71 c 0,4.9716329 4.0596171,9.03125 9.03125,9.03125 l 72,0 c 4.971633,0 9.03125,-4.059617 9.03125,-9.03125 l 0,-71 c 0,-4.971633 -4.059617,-9.03125 -9.03125,-9.03125 l -72,0 z"
       transform="scale(1,-1)"
       id="path3778"
       style="opacity:0.1;fill:url(#linearGradient3780);fill-opacity:1;fill-rule:nonzero;stroke:none;display:inline" />
    <path
       d="m 12,-93 c -4.4091333,0 -8,3.590867 -8,8 l 0,71 c 0,4.4091333 3.5908667,8 8,8 l 72,0 c 4.409133,0 8,-3.5908667 8,-8 l 0,-71 c 0,-4.409133 -3.590867,-8 -8,-8 l -72,0 z"
       transform="scale(1,-1)"
       id="path3770"
       style="opacity:0.2;fill:url(#linearGradient3772);fill-opacity:1;fill-rule:nonzero;stroke:none;display:inline" />
    <rect
       width="86"
       height="85"
       rx="7"
       ry="7"
       x="5"
       y="-92"
       transform="scale(1,-1)"
       id="rect3723"
       style="opacity:0.3;fill:url(#linearGradient3725);fill-opacity:1;fill-rule:nonzero;stroke:none;display:inline" />
    <rect
       width="84"
       height="84"
       rx="6"
       ry="6"
       x="6"
       y="-91"
       transform="scale(1,-1)"
       id="rect3716"
       style="opacity:0.45;fill:url(#linearGradient3721);fill-opacity:1;fill-rule:nonzero;stroke:none;display:inline" />
  </g>
  <g
     id="layer1">
    <rect
       width="84"
       height="84"
       rx="6"
       ry="6"
       x="6"
       y="6"
       id="rect2419"
       style="fill:url(#linearGradient3706);fill-opacity:1;fill-rule:nonzero;stroke:none" />
    <path
       d="M 12,6 C 8.676,6 6,8.676 6,12 l 0,2 0,68 0,2 c 0,0.334721 0.04135,0.6507 0.09375,0.96875 0.0487,0.295596 0.09704,0.596915 0.1875,0.875 0.00988,0.03038 0.020892,0.0636 0.03125,0.09375 0.098865,0.287771 0.2348802,0.547452 0.375,0.8125 0.1445918,0.273507 0.3156161,0.535615 0.5,0.78125 0.1843839,0.245635 0.3737765,0.473472 0.59375,0.6875 0.439947,0.428056 0.94291,0.814526 1.5,1.09375 0.278545,0.139612 0.5734731,0.246947 0.875,0.34375 -0.2562018,-0.100222 -0.4867109,-0.236272 -0.71875,-0.375 -0.00741,-0.0044 -0.023866,0.0045 -0.03125,0 -0.031933,-0.0193 -0.062293,-0.04251 -0.09375,-0.0625 -0.120395,-0.0767 -0.2310226,-0.163513 -0.34375,-0.25 -0.1061728,-0.0808 -0.2132809,-0.161112 -0.3125,-0.25 C 8.4783201,88.557317 8.3087904,88.373362 8.15625,88.1875 8.0486711,88.057245 7.9378561,87.922215 7.84375,87.78125 7.818661,87.74287 7.805304,87.69538 7.78125,87.65625 7.716487,87.553218 7.6510225,87.451733 7.59375,87.34375 7.4927417,87.149044 7.3880752,86.928049 7.3125,86.71875 7.30454,86.69694 7.288911,86.6782 7.28125,86.65625 7.2494249,86.5643 7.2454455,86.469419 7.21875,86.375 7.1884177,86.268382 7.1483606,86.171969 7.125,86.0625 7.0521214,85.720988 7,85.364295 7,85 L 7,83 7,15 7,13 C 7,10.218152 9.2181517,8 12,8 l 2,0 68,0 2,0 c 2.781848,0 5,2.218152 5,5 l 0,2 0,68 0,2 c 0,0.364295 -0.05212,0.720988 -0.125,1.0625 -0.04415,0.206893 -0.08838,0.397658 -0.15625,0.59375 -0.0077,0.02195 -0.0233,0.04069 -0.03125,0.0625 -0.06274,0.173739 -0.138383,0.367449 -0.21875,0.53125 -0.04158,0.0828 -0.07904,0.169954 -0.125,0.25 -0.0546,0.09721 -0.126774,0.18835 -0.1875,0.28125 -0.09411,0.140965 -0.204921,0.275995 -0.3125,0.40625 -0.143174,0.17445 -0.303141,0.346998 -0.46875,0.5 -0.01117,0.0102 -0.01998,0.02115 -0.03125,0.03125 -0.138386,0.125556 -0.285091,0.234436 -0.4375,0.34375 -0.102571,0.07315 -0.204318,0.153364 -0.3125,0.21875 -0.0074,0.0045 -0.02384,-0.0044 -0.03125,0 -0.232039,0.138728 -0.462548,0.274778 -0.71875,0.375 0.301527,-0.0968 0.596455,-0.204138 0.875,-0.34375 0.55709,-0.279224 1.060053,-0.665694 1.5,-1.09375 0.219973,-0.214028 0.409366,-0.441865 0.59375,-0.6875 0.184384,-0.245635 0.355408,-0.507743 0.5,-0.78125 0.14012,-0.265048 0.276135,-0.524729 0.375,-0.8125 0.01041,-0.03078 0.02133,-0.06274 0.03125,-0.09375 0.09046,-0.278085 0.1388,-0.579404 0.1875,-0.875 C 89.95865,84.6507 90,84.334721 90,84 l 0,-2 0,-68 0,-2 C 90,8.676 87.324,6 84,6 L 12,6 z"
       inkscape:connector-curvature="0"
       id="rect3728"
       style="opacity:0.5;fill:url(#linearGradient3188);fill-opacity:1;fill-rule:nonzero;stroke:none" />
    <path
       d="M 12,90 C 8.676,90 6,87.324 6,84 V 82 14 12 c 0,-0.334721 0.04135,-0.6507 0.09375,-0.96875 0.0487,-0.295596 0.09704,-0.596915 0.1875,-0.875 C 6.29113,10.12587 6.302142,10.09265 6.3125,10.0625 6.411365,9.774729 6.5473802,9.515048 6.6875,9.25 6.8320918,8.976493 7.0031161,8.714385 7.1875,8.46875 7.3718839,8.223115 7.5612765,7.995278 7.78125,7.78125 8.221197,7.353194 8.72416,6.966724 9.28125,6.6875 9.559795,6.547888 9.8547231,6.440553 10.15625,6.34375 9.9000482,6.443972 9.6695391,6.580022 9.4375,6.71875 c -0.00741,0.0044 -0.023866,-0.0045 -0.03125,0 -0.031933,0.0193 -0.062293,0.04251 -0.09375,0.0625 -0.120395,0.0767 -0.2310226,0.163513 -0.34375,0.25 -0.1061728,0.0808 -0.2132809,0.161112 -0.3125,0.25 C 8.4783201,7.442683 8.3087904,7.626638 8.15625,7.8125 8.0486711,7.942755 7.9378561,8.077785 7.84375,8.21875 7.818661,8.25713 7.805304,8.30462 7.78125,8.34375 7.716487,8.446782 7.6510225,8.548267 7.59375,8.65625 7.4927417,8.850956 7.3880752,9.071951 7.3125,9.28125 7.30454,9.30306 7.288911,9.3218 7.28125,9.34375 7.2494249,9.4357 7.2454455,9.530581 7.21875,9.625 7.1884177,9.731618 7.1483606,9.828031 7.125,9.9375 7.0521214,10.279012 7,10.635705 7,11 v 2 68 2 c 0,2.781848 2.2181517,5 5,5 h 2 68 2 c 2.781848,0 5,-2.218152 5,-5 V 81 13 11 C 89,10.635705 88.94788,10.279012 88.875,9.9375 88.83085,9.730607 88.78662,9.539842 88.71875,9.34375 88.71105,9.3218 88.69545,9.30306 88.6875,9.28125 88.62476,9.107511 88.549117,8.913801 88.46875,8.75 88.42717,8.6672 88.38971,8.580046 88.34375,8.5 88.28915,8.40279 88.216976,8.31165 88.15625,8.21875 88.06214,8.077785 87.951329,7.942755 87.84375,7.8125 87.700576,7.63805 87.540609,7.465502 87.375,7.3125 87.36383,7.3023 87.35502,7.29135 87.34375,7.28125 87.205364,7.155694 87.058659,7.046814 86.90625,6.9375 86.803679,6.86435 86.701932,6.784136 86.59375,6.71875 c -0.0074,-0.0045 -0.02384,0.0044 -0.03125,0 -0.232039,-0.138728 -0.462548,-0.274778 -0.71875,-0.375 0.301527,0.0968 0.596455,0.204138 0.875,0.34375 0.55709,0.279224 1.060053,0.665694 1.5,1.09375 0.219973,0.214028 0.409366,0.441865 0.59375,0.6875 0.184384,0.245635 0.355408,0.507743 0.5,0.78125 0.14012,0.265048 0.276135,0.524729 0.375,0.8125 0.01041,0.03078 0.02133,0.06274 0.03125,0.09375 0.09046,0.278085 0.1388,0.579404 0.1875,0.875 C 89.95865,11.3493 90,11.665279 90,12 v 2 68 2 c 0,3.324 -2.676,6 -6,6 z"
       inkscape:connector-curvature="0"
       id="path3615"
       style="display:inline;opacity:0.3;fill:url(#radialGradient2903);fill-opacity:1;fill-rule:nonzero;stroke:none" />
  </g>
  <path
     style="display:inline;fill:url(#linearGradient28030);fill-opacity:1;stroke-width:0.60764;opacity:1"
     d="m 11.238461,77.769523 c 0,-0.250469 8.176922,-14.40777 18.170941,-31.460691 9.993989,-17.05292 18.384811,-30.793214 18.646226,-30.533985 0.261281,0.259238 7.951948,13.221545 17.090063,28.805152 9.138122,15.583607 17.29002,29.477253 18.115308,30.874771 l 1.50054,2.540937 -3.437496,-0.182619 c -1.930358,-0.102589 -3.648037,-0.517973 -3.91772,-0.947476 -0.339547,-0.540909 -0.602886,-0.569489 -0.899173,-0.09763 -0.230472,0.366968 -0.678298,0.667207 -0.995272,0.667207 -0.317086,0 -0.576331,-0.406918 -0.576331,-0.90427 0,-0.497353 -0.17648,-0.90427 -0.391838,-0.90427 -0.21562,0 -0.733131,0.459405 -1.150268,1.020904 -0.673009,0.905937 -0.806763,0.804117 -1.187986,-0.904271 -0.236268,-1.058851 -0.683298,-1.925174 -0.993387,-1.925174 -0.310201,0 -0.723965,0.506851 -0.723965,1.15041 0,0.643567 -0.246779,1.418729 -0.548313,1.602179 -0.301504,0.183441 -0.614884,-0.153125 -0.818617,-0.675691 -0.203655,-0.522558 -0.314542,-1.55801 -0.319615,-2.276917 -0.0039,-0.718905 -0.262004,-1.699874 -0.570392,-2.179932 -0.437568,-0.680771 -0.637637,-0.51496 -0.909317,0.753561 -0.191697,0.894512 -0.505086,2.35826 -0.69664,3.25278 -0.271782,1.268516 -0.471781,1.434334 -0.90935,0.753557 -0.308387,-0.480058 -0.565208,-2.139228 -0.570383,-3.68705 -0.0039,-1.54782 -0.176845,-3.243328 -0.38112,-3.767797 -0.204378,-0.524466 -0.590856,-0.953576 -0.858584,-0.953576 -0.267793,0 -0.678806,1.628173 -0.913445,3.618168 -0.23482,1.98999 -0.693451,3.780486 -1.019592,3.978874 -0.326142,0.198389 -0.712151,0.243402 -0.857822,0.09998 -0.145679,-0.143381 -0.444932,-2.75724 -0.664972,-5.808554 -0.219961,-3.051314 -0.616044,-5.67922 -0.879996,-5.839797 -0.263817,-0.160579 -0.625107,0.866246 -0.802525,2.281819 -0.177569,1.415573 -0.486641,3.856034 -0.687186,5.423243 -0.200395,1.567212 -0.589084,2.986047 -0.863475,3.152976 C 56.94244,74.86327 56.547884,73.987933 56.340167,72.751143 56.13252,71.514352 55.9401,68.603466 55.912742,66.282504 55.883722,63.961538 55.655087,61.539841 55.40062,60.900951 55.008345,59.915388 54.882202,59.883204 54.5682,60.68858 c -0.203654,0.522091 -0.540052,2.943788 -0.747801,5.38155 -0.207646,2.437765 -0.520597,5.341682 -0.695224,6.453155 -0.174667,1.111469 -0.472942,1.867839 -0.662936,1.680824 -0.189893,-0.18701 -0.537342,-3.961591 -0.771797,-8.387939 -0.234463,-4.42635 -0.675546,-8.438098 -0.980125,-8.914997 -0.423084,-0.662413 -0.648189,-0.440184 -0.953674,0.941459 -0.219969,0.994698 -0.465079,4.114434 -0.544807,6.932743 -0.07972,2.818312 -0.344618,5.938049 -0.588718,6.932746 -0.2986,1.216413 -0.560382,1.512479 -0.799917,0.904271 -0.196046,-0.497347 -0.478634,-4.602735 -0.628368,-9.123084 -0.149662,-4.520347 -0.465253,-8.526174 -0.701132,-8.901835 -0.235909,-0.375659 -0.685436,-0.52694 -0.999008,-0.336175 -0.313452,0.190754 -0.590602,3.382741 -0.615567,7.09329 -0.02536,3.710552 -0.25403,7.967221 -0.508925,9.459269 -0.393006,2.2999 -0.519985,2.483418 -0.834344,1.205695 -0.204021,-0.828915 -0.528787,-5.131692 -0.721858,-9.561724 -0.193153,-4.430035 -0.543353,-8.36088 -0.778396,-8.735213 -0.258736,-0.411963 -0.59488,-0.08814 -0.851803,0.820439 -0.233375,0.825573 -0.451928,5.079508 -0.485519,9.453191 -0.0326,4.373684 -0.297512,8.096017 -0.586587,8.271856 -0.289172,0.175845 -0.700512,-1.503666 -0.91435,-3.732222 -0.213808,-2.228556 -0.41014,-6.35781 -0.436234,-9.176122 -0.02536,-2.818313 -0.256201,-5.648759 -0.511176,-6.289886 -0.32215,-0.809621 -0.601876,-0.94571 -0.915948,-0.445539 -0.248591,0.396077 -0.60807,4.718572 -0.798646,9.605546 -0.190616,4.88697 -0.577491,9.292327 -0.859778,9.789674 -0.41417,0.729588 -0.52248,0.67136 -0.560747,-0.301434 -0.02536,-0.663131 -0.267077,-4.621854 -0.535378,-8.797156 -0.268523,-4.175305 -0.733927,-7.973245 -1.034483,-8.439864 -0.387059,-0.600904 -0.669751,-0.05699 -0.969003,1.864409 -0.232285,1.492048 -0.442975,5.629089 -0.467941,9.193426 -0.02536,3.564336 -0.298966,6.480608 -0.609127,6.480608 -0.310192,0 -0.731678,-1.831148 -0.937001,-4.06922 -0.205468,-2.238068 -0.523133,-5.497108 -0.706315,-7.242309 -0.183365,-1.745198 -0.545451,-3.043878 -0.805062,-2.885947 -0.259611,0.157939 -0.653412,3.607524 -0.875107,7.665776 -0.221702,4.058248 -0.658793,7.630332 -0.971332,7.937962 -0.349373,0.343881 -0.690279,-0.225638 -0.885029,-1.478452 -0.174237,-1.120774 -0.47791,-3.651563 -0.674855,-5.623973 -0.196951,-1.972406 -0.487028,-3.713127 -0.644649,-3.868271 -0.157597,-0.155158 -0.450377,-0.120845 -0.650574,0.07619 -0.200179,0.197068 -0.544712,2.824869 -0.765594,5.839594 -0.220868,3.014724 -0.677201,5.527689 -1.01406,5.584366 -0.336867,0.05668 -0.840679,-1.308094 -1.119595,-3.032822 -0.278922,-1.724732 -0.761245,-2.981289 -1.071828,-2.792353 -0.310598,0.188935 -0.568468,1.344815 -0.57307,2.568618 -0.0048,1.223807 -0.174556,2.835484 -0.37767,3.581502 -0.203106,0.746029 -0.589799,1.356414 -0.8593,1.356414 -0.269502,0 -0.760689,-0.746028 -1.091522,-1.657831 l -0.601534,-1.657799 -0.734373,1.959256 c -0.403898,1.077585 -1.168029,1.959247 -1.698051,1.959247 -0.530028,0 -1.467709,0.448966 -2.08374,0.997709 -0.616029,0.548736 -1.120051,0.792778 -1.120051,0.542327 z"
     id="path18541"
     sodipodi:nodetypes="sssssccssssssssssscssssccssscssscsscssssscssscsssscssssscsscsssscssssssssssssccsssssssscssss" />
  <path
     id="path18535"
     style="display:inline;fill:url(#linearGradient25109);fill-opacity:1;stroke-width:0.60764;opacity:0.25"
     d="M 48.054688 15.775391 C 47.793273 15.516162 39.404135 29.255691 29.410156 46.308594 C 19.416147 63.361498 11.238281 77.519063 11.238281 77.769531 C 11.238281 78.019982 11.743347 77.775298 12.359375 77.226562 C 12.975405 76.67782 13.911379 76.228516 14.441406 76.228516 C 14.971428 76.228516 15.736727 75.347115 16.140625 74.269531 L 16.875 72.310547 L 17.476562 73.96875 C 17.807395 74.880552 18.298858 75.626953 18.568359 75.626953 C 18.83786 75.626953 19.224629 75.01556 19.427734 74.269531 C 19.630848 73.523514 19.799888 71.913259 19.804688 70.689453 C 19.809289 69.465651 20.066355 68.308075 20.376953 68.119141 C 20.687536 67.930205 21.170297 69.187379 21.449219 70.912109 C 21.728134 72.636836 22.231493 74.001992 22.568359 73.945312 C 22.905218 73.888636 23.363117 71.376049 23.583984 68.361328 C 23.804866 65.346606 24.149431 62.718552 24.349609 62.521484 C 24.549806 62.32445 24.842403 62.290155 25 62.445312 C 25.157621 62.600456 25.44758 64.340096 25.644531 66.3125 C 25.841476 68.284908 26.144123 70.816727 26.318359 71.9375 C 26.513109 73.190313 26.853752 73.759896 27.203125 73.416016 C 27.515664 73.108386 27.954079 69.53676 28.175781 65.478516 C 28.397476 61.420268 28.791171 57.970439 29.050781 57.8125 C 29.310392 57.654569 29.672104 58.952069 29.855469 60.697266 C 30.038651 62.442465 30.357032 65.701387 30.5625 67.939453 C 30.767823 70.177523 31.187855 72.009766 31.498047 72.009766 C 31.808208 72.009766 32.082062 69.093629 32.107422 65.529297 C 32.132388 61.964963 32.343887 57.827984 32.576172 56.335938 C 32.875424 54.41454 33.157863 53.8698 33.544922 54.470703 C 33.845478 54.937322 34.311555 58.734855 34.580078 62.910156 C 34.848379 67.085454 35.089874 71.045854 35.115234 71.708984 C 35.153501 72.681777 35.261612 72.739353 35.675781 72.009766 C 35.958068 71.512419 36.34454 67.107668 36.535156 62.220703 C 36.725732 57.333734 37.085394 53.011311 37.333984 52.615234 C 37.648056 52.115064 37.92785 52.250927 38.25 53.060547 C 38.504975 53.701673 38.736359 56.531299 38.761719 59.349609 C 38.787813 62.167919 38.983458 66.296837 39.197266 68.525391 C 39.411103 70.753944 39.822156 72.433657 40.111328 72.257812 C 40.400403 72.081974 40.666619 68.360008 40.699219 63.986328 C 40.73281 59.612649 40.950219 55.358775 41.183594 54.533203 C 41.440516 53.624625 41.776421 53.300928 42.035156 53.712891 C 42.270199 54.087223 42.6213 58.017235 42.814453 62.447266 C 43.007524 66.877293 43.331135 71.180851 43.535156 72.009766 C 43.849515 73.287487 43.978088 73.104585 44.371094 70.804688 C 44.625988 69.312641 44.853546 65.054298 44.878906 61.34375 C 44.903871 57.633205 45.180689 54.442707 45.494141 54.251953 C 45.807712 54.061188 46.258232 54.212232 46.494141 54.587891 C 46.730019 54.963551 47.045651 58.969892 47.195312 63.490234 C 47.345046 68.010579 47.62622 72.115935 47.822266 72.613281 C 48.0618 73.221489 48.324447 72.925396 48.623047 71.708984 C 48.867147 70.714288 49.131218 67.5937 49.210938 64.775391 C 49.290665 61.957084 49.535891 58.836494 49.755859 57.841797 C 50.061344 56.460155 50.287854 56.237978 50.710938 56.900391 C 51.015516 57.377289 51.456943 61.390061 51.691406 65.816406 C 51.925861 70.24275 52.272998 74.018068 52.462891 74.205078 C 52.652884 74.392093 52.950333 73.634905 53.125 72.523438 C 53.299627 71.411966 53.612667 68.508075 53.820312 66.070312 C 54.028061 63.632553 54.364706 61.211544 54.568359 60.689453 C 54.882361 59.884078 55.008116 59.914829 55.400391 60.900391 C 55.654857 61.53928 55.883089 63.962239 55.912109 66.283203 C 55.939467 68.604163 56.132197 71.515163 56.339844 72.751953 C 56.547561 73.988742 56.942478 74.864194 57.216797 74.697266 C 57.491188 74.530337 57.879683 73.110179 58.080078 71.542969 C 58.280623 69.975761 58.590009 67.536665 58.767578 66.121094 C 58.944996 64.705522 59.306496 63.677312 59.570312 63.837891 C 59.834264 63.998467 60.229258 66.626423 60.449219 69.677734 C 60.669259 72.729045 60.969556 75.342947 61.115234 75.486328 C 61.260905 75.62975 61.646515 75.585108 61.972656 75.386719 C 62.298797 75.188331 62.757368 73.398191 62.992188 71.408203 C 63.226826 69.41821 63.638457 67.789062 63.90625 67.789062 C 64.173978 67.789062 64.559294 68.219675 64.763672 68.744141 C 64.967947 69.268609 65.140631 70.9639 65.144531 72.511719 C 65.149706 74.059539 65.40841 75.717208 65.716797 76.197266 C 66.154365 76.878042 66.353218 76.713827 66.625 75.445312 C 66.816554 74.550793 67.130569 73.085917 67.322266 72.191406 C 67.593945 70.922887 67.792901 70.75673 68.230469 71.4375 C 68.538856 71.917558 68.796881 72.898283 68.800781 73.617188 C 68.805854 74.336094 68.917439 75.371974 69.121094 75.894531 C 69.324827 76.417097 69.637949 76.753753 69.939453 76.570312 C 70.240987 76.386863 70.488281 75.612316 70.488281 74.96875 C 70.488281 74.325192 70.90269 73.818359 71.212891 73.818359 C 71.522979 73.818359 71.96881 74.685291 72.205078 75.744141 C 72.586301 77.452527 72.71957 77.554374 73.392578 76.648438 C 73.809715 76.086939 74.327349 75.626953 74.542969 75.626953 C 74.758327 75.626953 74.935547 76.033897 74.935547 76.53125 C 74.935547 77.028602 75.194633 77.435547 75.511719 77.435547 C 75.828692 77.435547 76.277341 77.134546 76.507812 76.767578 C 76.804099 76.29572 77.066703 76.324326 77.40625 76.865234 C 77.675933 77.294737 79.393863 77.709911 81.324219 77.8125 L 84.761719 77.996094 L 83.261719 75.455078 C 82.436432 74.057562 74.284597 60.16367 65.146484 44.580078 C 56.008379 28.996487 48.315968 16.034628 48.054688 15.775391 z M 47.974609 17.666016 C 48.174057 17.99155 48.3533 18.282109 48.632812 18.746094 C 49.531179 20.237361 50.801261 22.369226 52.349609 24.978516 C 55.446228 30.196962 59.654392 37.332596 64.222656 45.123047 C 73.359734 60.704874 81.498735 74.580446 82.335938 75.998047 L 82.337891 76 A 0.40565303 0.40565303 0 0 1 82.337891 76.001953 L 82.822266 76.818359 L 81.380859 76.742188 C 80.475526 76.694074 79.612414 76.569386 78.994141 76.419922 C 78.686158 76.345469 78.431495 76.260239 78.292969 76.199219 C 78.251549 76.180979 78.232596 76.166815 78.197266 76.140625 C 78.196366 76.139925 78.190114 76.137355 78.189453 76.136719 C 78.103541 76.006164 78.026318 75.872513 77.884766 75.742188 C 77.685521 75.558745 77.401178 75.408564 77.056641 75.371094 C 76.657595 75.327696 76.316936 75.46992 76.070312 75.660156 C 75.983372 75.727219 75.946929 75.80207 75.880859 75.875 C 75.849139 75.739427 75.859114 75.59459 75.802734 75.464844 C 75.731236 75.30031 75.623559 75.108127 75.445312 74.933594 C 75.248268 74.740653 74.941397 74.554688 74.542969 74.554688 C 74.16354 74.554687 73.890488 74.721809 73.773438 74.792969 C 73.609011 74.892928 73.467445 75.006682 73.332031 75.126953 C 73.276474 75.176301 73.231224 75.243185 73.177734 75.296875 C 73.048102 74.783713 72.896324 74.29054 72.691406 73.892578 C 72.574771 73.666065 72.44215 73.448292 72.259766 73.248047 C 72.096258 73.068528 71.743149 72.746094 71.212891 72.746094 C 70.544189 72.746094 70.111114 73.177055 69.863281 73.533203 C 69.84613 72.609803 69.619084 71.616338 69.132812 70.859375 A 0.40565303 0.40565303 0 0 0 69.128906 70.857422 L 69.132812 70.857422 C 69.004927 70.658456 68.851152 70.420283 68.566406 70.216797 C 68.409438 70.10463 68.167001 69.980603 67.857422 69.970703 C 67.520145 69.959935 67.240999 70.081888 67.029297 70.257812 C 66.695526 70.535183 66.580486 70.87139 66.503906 71.091797 C 66.415056 71.347527 66.345557 71.628294 66.273438 71.964844 A 0.40565303 0.40565303 0 0 0 66.273438 71.96875 C 66.254798 72.055744 66.225628 72.189366 66.205078 72.285156 C 66.195871 71.545624 66.161953 70.790585 66.095703 70.136719 C 66.023542 69.424567 65.959138 68.85732 65.763672 68.355469 C 65.616262 67.977194 65.412329 67.636874 65.158203 67.353516 C 64.936314 67.106102 64.539557 66.716797 63.90625 66.716797 C 63.381781 66.716797 63.051346 67.077102 62.951172 67.207031 C 62.829644 67.364656 62.757392 67.51716 62.701172 67.646484 C 62.58133 67.922152 62.489107 68.230899 62.398438 68.589844 C 62.216138 69.311548 62.04959 70.249732 61.927734 71.283203 C 61.885002 71.645342 61.811739 71.903381 61.755859 72.242188 C 61.67379 71.405862 61.590558 70.611617 61.517578 69.599609 C 61.405892 68.05029 61.251066 66.611309 61.085938 65.513672 C 61.003425 64.965202 60.920888 64.50535 60.830078 64.134766 C 60.784775 63.949878 60.735725 63.782189 60.671875 63.619141 C 60.66654 63.605518 60.552642 63.180847 60.126953 62.921875 C 59.772552 62.706166 59.397952 62.692699 59.039062 62.849609 C 58.76753 62.968326 58.595832 63.158964 58.507812 63.273438 C 58.315084 63.524093 58.21401 63.780036 58.125 64.033203 C 57.939766 64.560068 57.798885 65.224272 57.703125 65.988281 C 57.577795 66.987408 57.389012 68.465168 57.216797 69.818359 C 57.124286 68.562871 56.999435 67.549389 56.984375 66.271484 A 0.40565303 0.40565303 0 0 1 56.984375 66.269531 C 56.969486 65.078752 56.904384 63.869881 56.808594 62.859375 C 56.713728 61.858632 56.639503 61.11405 56.396484 60.503906 C 56.292578 60.242849 56.199967 60.024443 56.083984 59.816406 C 56.01606 59.694571 55.779886 59.226078 55.216797 59.083984 C 54.842491 58.989534 54.521792 59.078362 54.261719 59.255859 C 54.06365 59.391038 53.942213 59.5564 53.876953 59.65625 C 53.733891 59.875131 53.655062 60.083396 53.570312 60.300781 C 53.356517 60.848872 53.270376 61.524217 53.132812 62.513672 C 52.999528 63.472359 52.871205 64.652806 52.767578 65.839844 C 52.765878 65.809344 52.763319 65.790426 52.761719 65.759766 C 52.643515 63.528239 52.473718 61.403244 52.292969 59.759766 C 52.202603 58.938104 52.111458 58.238803 52.017578 57.691406 C 51.970556 57.417224 51.921501 57.180639 51.869141 56.974609 C 51.824536 56.799079 51.779592 56.579613 51.615234 56.322266 C 51.487591 56.122417 51.312881 55.852263 50.972656 55.650391 C 50.772424 55.531586 50.496301 55.437326 50.169922 55.478516 C 49.845728 55.519436 49.601359 55.67656 49.435547 55.839844 C 49.153687 56.117409 49.045967 56.422058 48.960938 56.667969 C 48.866971 56.939724 48.789734 57.244166 48.708984 57.609375 C 48.491229 58.594064 48.339131 60.663857 48.234375 62.84375 C 48.159349 60.825846 48.061177 58.871335 47.945312 57.400391 C 47.880905 56.582703 47.815264 55.893529 47.746094 55.363281 C 47.711416 55.097457 47.674256 54.871228 47.634766 54.677734 C 47.606959 54.541485 47.587021 54.313648 47.402344 54.019531 C 46.906216 53.229499 45.832823 52.791256 44.9375 53.335938 C 44.477977 53.615585 44.376218 54.074511 44.361328 54.119141 C 44.297704 54.309827 44.255014 54.507589 44.214844 54.726562 C 44.133862 55.168048 44.067256 55.722104 44.009766 56.384766 C 43.897067 57.683736 43.825437 59.400647 43.810547 61.236328 C 43.72072 59.495803 43.623002 57.755367 43.507812 56.464844 C 43.436184 55.662347 43.364326 54.9839 43.291016 54.462891 C 43.254361 54.202328 43.216681 53.982378 43.175781 53.791016 C 43.146665 53.654779 43.123163 53.430889 42.943359 53.144531 A 0.40565303 0.40565303 0 0 1 42.943359 53.142578 C 42.791096 52.900139 42.498232 52.574398 42.025391 52.486328 C 41.522235 52.392617 41.111502 52.618211 40.865234 52.855469 C 40.455488 53.250218 40.298659 53.722807 40.152344 54.240234 A 0.40565303 0.40565303 0 0 1 40.152344 54.242188 C 40.046167 54.617792 40.000692 55.043282 39.945312 55.644531 C 39.889466 56.250746 39.841225 57.006865 39.796875 57.873047 C 39.791475 57.977312 39.792209 58.132906 39.787109 58.240234 C 39.758286 57.210766 39.729626 56.153266 39.660156 55.300781 C 39.612453 54.715404 39.558874 54.196492 39.496094 53.763672 C 39.434559 53.339447 39.3805 53.002024 39.246094 52.664062 C 39.159525 52.446502 39.083834 52.219689 38.939453 51.988281 C 38.795072 51.756874 38.570989 51.53502 38.257812 51.382812 C 37.83942 51.179465 37.392699 51.214755 37.015625 51.439453 C 36.718543 51.616484 36.544063 51.858508 36.425781 52.046875 C 36.2376 52.34671 36.21799 52.576067 36.1875 52.724609 C 36.145389 52.929779 36.106189 53.171387 36.068359 53.455078 C 35.992784 54.021768 35.91708 54.762873 35.84375 55.644531 C 35.716437 57.175145 35.605922 59.223647 35.513672 61.318359 C 35.397297 59.834904 35.278407 58.308942 35.138672 57.169922 C 35.043147 56.391275 34.946269 55.725122 34.849609 55.203125 C 34.801341 54.942487 34.754642 54.716868 34.701172 54.517578 C 34.655205 54.346265 34.605685 54.136576 34.447266 53.890625 C 34.306327 53.671819 33.954088 53.191506 33.314453 53.166016 C 32.938968 53.15105 32.642022 53.304114 32.433594 53.490234 C 32.255963 53.648853 32.147942 53.824664 32.076172 53.962891 C 31.784223 54.525226 31.671397 55.182304 31.517578 56.169922 A 0.40565303 0.40565303 0 0 1 31.517578 56.171875 C 31.32633 57.400321 31.196837 59.939192 31.117188 62.591797 C 31.050818 61.929572 30.972825 61.069356 30.921875 60.583984 C 30.825502 59.666747 30.684924 58.865997 30.513672 58.251953 C 30.430088 57.952255 30.344114 57.681456 30.189453 57.414062 C 30.124348 57.301501 29.991722 57.094058 29.751953 56.931641 C 29.564624 56.80475 29.372161 56.76249 29.160156 56.75 C 28.948152 56.73751 28.717088 56.760856 28.494141 56.896484 C 28.191071 57.080863 28.050252 57.38353 28.039062 57.40625 C 27.984696 57.516668 27.948795 57.617398 27.921875 57.705078 C 27.86628 57.886126 27.82385 58.081975 27.78125 58.308594 C 27.69579 58.763277 27.616086 59.351407 27.535156 60.060547 C 27.373126 61.480195 27.217305 63.37268 27.105469 65.419922 C 27.055954 66.326292 26.971467 66.989461 26.904297 67.814453 C 26.836659 67.214728 26.769251 66.769548 26.712891 66.205078 C 26.612324 65.197934 26.487339 64.254096 26.365234 63.521484 C 26.304217 63.155385 26.244421 62.842328 26.181641 62.583984 C 26.150502 62.455833 26.118242 62.337883 26.076172 62.21875 C 26.074171 62.213082 26.001945 61.927705 25.751953 61.681641 C 25.424211 61.358974 24.989694 61.237524 24.601562 61.277344 C 24.213432 61.317164 23.863281 61.496385 23.597656 61.757812 C 23.294199 62.056557 23.244587 62.388584 23.242188 62.396484 C 23.19748 62.545369 23.16083 62.702718 23.125 62.882812 C 23.053173 63.243823 22.983329 63.702863 22.912109 64.246094 C 22.76959 65.333157 22.627375 66.75798 22.515625 68.283203 C 22.467413 68.941268 22.381613 69.387018 22.314453 69.972656 C 22.194005 69.416421 22.083631 68.82519 21.925781 68.414062 C 21.810954 68.114989 21.687557 67.833303 21.478516 67.568359 C 21.381657 67.445601 21.211349 67.259895 20.943359 67.138672 C 20.58761 66.977759 20.193873 66.975877 19.820312 67.203125 C 19.429577 67.440808 19.267631 67.78733 19.175781 67.996094 C 19.066864 68.243647 18.991557 68.505102 18.929688 68.783203 C 18.805052 69.343461 18.735022 70.000758 18.732422 70.685547 C 18.728673 71.641292 18.571779 72.80397 18.445312 73.494141 L 17.882812 71.945312 A 0.40565303 0.40565303 0 0 0 17.121094 72.220703 C 17.150094 72.301502 17.062576 72.110087 17.103516 72.185547 C 17.144456 72.261002 17.030101 72.082021 17.082031 72.150391 C 17.133961 72.218751 16.994931 72.061414 17.056641 72.121094 C 17.118351 72.180774 16.955331 72.046083 17.025391 72.095703 C 17.095453 72.145323 16.915408 72.037772 16.992188 72.076172 C 17.06897 72.114562 16.873358 72.034257 16.955078 72.060547 C 17.036806 72.086807 16.831246 72.037211 16.916016 72.050781 C 17.000789 72.064301 16.791103 72.048292 16.876953 72.048828 C 16.962796 72.049428 16.751008 72.063291 16.835938 72.050781 C 16.920873 72.038301 16.714825 72.085817 16.796875 72.060547 C 16.878921 72.035277 16.682506 72.111659 16.759766 72.074219 C 16.837026 72.036779 16.655893 72.14249 16.726562 72.09375 C 16.797236 72.04501 16.632863 72.178051 16.695312 72.119141 C 16.757762 72.060231 16.615189 72.216147 16.667969 72.148438 C 16.720749 72.080723 16.604604 72.256581 16.646484 72.181641 C 16.688354 72.106699 16.600849 72.29918 16.630859 72.21875 A 0.4057579 0.4057579 0 0 0 15.871094 71.933594 L 15.136719 73.892578 C 14.980079 74.310489 14.732557 74.714662 14.527344 74.951172 C 14.439483 75.052431 14.353962 75.113167 14.289062 75.154297 C 14.275243 75.163047 14.250191 75.1811 14.238281 75.1875 C 14.106133 75.1988 13.976687 75.216714 13.851562 75.246094 C 14.762181 73.642417 15.963463 71.547256 17.505859 68.876953 C 20.797898 63.177548 25.337935 55.376384 30.333984 46.851562 C 35.328315 38.329648 39.92281 30.633088 43.296875 25.107422 C 44.983907 22.344588 46.367643 20.124987 47.337891 18.621094 C 47.612237 18.195852 47.780664 17.951954 47.974609 17.666016 z " />
  <path
     id="path17052"
     style="display:inline;opacity:0.3;fill:#000000;fill-opacity:1;stroke-width:0.621439"
     d="M 48.289629,14.37333 C 48.022232,14.10826 39.441111,28.157391 29.218421,45.594558 18.995701,63.031727 10.630686,77.508313 10.630686,77.764426 c 0,0.163466 0.291953,0.09641 0.607775,-0.101672 1.909615,-3.463397 8.965158,-15.651003 17.751672,-30.638398 10.222689,-17.437168 18.798098,-31.514579 19.065495,-31.249509 0.26726,0.26508 8.1238,13.520076 17.471029,29.454824 9.347237,15.934747 17.727433,30.21264 18.571606,31.641649 l 0.663276,1.124387 1.075156,3.92e-4 -1.534328,-2.598274 C 83.458194,73.968812 75.119805,59.76184 65.772568,43.827092 56.425339,27.892345 48.55689,14.638409 48.289629,14.37333 Z"
     sodipodi:nodetypes="ccscccsccccsc" />
  <path
     id="path25111"
     style="display:inline;opacity:0.406;fill:#ffffff;fill-opacity:1;stroke-width:0.60764"
     d="m 37.677734,52.322266 c -0.112165,0.0067 -0.225973,0.105404 -0.34375,0.292968 -0.24859,0.396077 -0.608252,4.7185 -0.798828,9.605469 -0.190616,4.886965 -0.577088,9.291716 -0.859375,9.789063 -0.414169,0.729587 -0.52228,0.672011 -0.560547,-0.300782 -0.02536,-0.66313 -0.266855,-4.62353 -0.535156,-8.798828 -0.268523,-4.175301 -0.7346,-7.972834 -1.035156,-8.439453 -0.387059,-0.600903 -0.669498,-0.05616 -0.96875,1.865235 -0.232285,1.492046 -0.443784,5.629025 -0.46875,9.193359 -0.02536,3.564332 -0.299214,6.480469 -0.609375,6.480469 -0.310192,0 -0.730224,-1.832243 -0.935547,-4.070313 -0.205468,-2.238066 -0.523849,-5.496988 -0.707031,-7.242187 -0.183365,-1.745197 -0.545077,-3.042697 -0.804688,-2.884766 -0.25961,0.157939 -0.653305,3.607768 -0.875,7.666016 -0.221702,4.058244 -0.660117,7.62987 -0.972656,7.9375 -0.349373,0.34388 -0.690016,-0.225703 -0.884766,-1.478516 -0.174236,-1.120773 -0.476883,-3.652592 -0.673828,-5.625 C 25.44758,64.340096 25.157621,62.600456 25,62.445312 c -0.157597,-0.155157 -0.450194,-0.120862 -0.650391,0.07617 -0.200178,0.197068 -0.544743,2.825122 -0.765625,5.839844 -0.220867,3.014721 -0.678766,5.527308 -1.015625,5.583984 -0.336866,0.05668 -0.840225,-1.308476 -1.11914,-3.033203 -0.278922,-1.72473 -0.761683,-2.981904 -1.072266,-2.792968 -0.310598,0.188934 -0.567664,1.34651 -0.572265,2.570312 -0.0048,1.223806 -0.17384,2.834061 -0.376954,3.580078 -0.203105,0.746029 -0.589874,1.357422 -0.859375,1.357422 -0.269501,0 -0.760964,-0.746401 -1.091797,-1.658203 L 16.875,72.310547 16.140625,74.269531 c -0.403898,1.077584 -1.169197,1.958985 -1.699219,1.958985 -0.520805,0 -2.270626,0.435024 -2.886719,0.970703 -0.613437,1.09223 -1.15625,2.066655 -1.15625,2.117187 0,0.250451 1.34491,0.0058 1.960938,-0.542968 0.61603,-0.548743 1.552004,-0.998047 2.082031,-0.998047 0.530022,0 1.295321,-0.881401 1.699219,-1.958985 l 0.734375,-1.958984 0.601562,1.658203 c 0.330833,0.911802 0.822296,1.658203 1.091797,1.658203 0.269501,0 0.65627,-0.611393 0.859375,-1.357422 0.203114,-0.746017 0.372154,-2.356272 0.376954,-3.580078 0.0046,-1.223802 0.261667,-2.381378 0.572265,-2.570312 0.310583,-0.188936 0.793344,1.068238 1.072266,2.792968 0.278915,1.724727 0.782274,3.089883 1.11914,3.033204 0.336859,-0.05668 0.794758,-2.569264 1.015625,-5.583985 0.220882,-3.014722 0.565447,-5.642776 0.765625,-5.839844 0.200197,-0.197034 0.492794,-0.231329 0.650391,-0.07617 0.157621,0.155143 0.44758,1.894783 0.644531,3.867187 0.196945,1.972408 0.499592,4.504227 0.673828,5.625 0.19475,1.252813 0.535393,1.822396 0.884766,1.478516 0.312539,-0.30763 0.750954,-3.879256 0.972656,-7.9375 0.221695,-4.058248 0.61539,-7.508077 0.875,-7.666016 0.259611,-0.157931 0.621323,1.139569 0.804688,2.884766 0.183182,1.745199 0.501563,5.004121 0.707031,7.242187 0.205323,2.23807 0.625355,4.070313 0.935547,4.070313 0.310161,0 0.584015,-2.916137 0.609375,-6.480469 0.02497,-3.564334 0.236465,-7.701313 0.46875,-9.19336 0.299252,-1.921397 0.581691,-2.466137 0.96875,-1.865234 0.300556,0.466619 0.766633,4.264152 1.035156,8.439453 0.268301,4.175298 0.509796,8.135698 0.535156,8.798828 0.03827,0.972793 0.146378,1.030369 0.560547,0.300782 0.282287,-0.497347 0.668759,-4.902098 0.859375,-9.789063 0.190576,-4.886969 0.550238,-9.211345 0.798828,-9.607422 0.314072,-0.50017 0.593866,-0.362354 0.916016,0.447266 0.254975,0.641126 0.486359,3.470752 0.511719,6.289062 0.02609,2.81831 0.221739,6.947228 0.435547,9.175782 0.213837,2.228553 0.62489,3.908266 0.914062,3.732422 0.289075,-0.175839 0.555291,-3.897805 0.587891,-8.271485 0.03359,-4.373679 0.251,-8.627553 0.484375,-9.453125 0.256922,-0.908578 0.592827,-1.232275 0.851562,-0.820312 0.235043,0.374332 0.586144,4.304344 0.779297,8.734375 0.193071,4.430027 0.516682,8.733585 0.720703,9.5625 0.314359,1.277721 0.442932,1.094819 0.835938,-1.205079 0.254894,-1.492046 0.482452,-5.750389 0.507812,-9.460937 0.02497,-3.710545 0.301783,-6.901043 0.615235,-7.091797 0.313571,-0.190765 0.764091,-0.03972 1,0.335938 0.235878,0.37566 0.55151,4.380048 0.701171,8.90039 0.149734,4.520345 0.430908,8.627654 0.626954,9.125 0.239534,0.608208 0.502181,0.312115 0.800781,-0.904297 0.2441,-0.994696 0.508171,-4.115284 0.587891,-6.933593 0.07973,-2.818307 0.324953,-5.938897 0.544921,-6.933594 0.305485,-1.381642 0.531995,-1.603819 0.955079,-0.941406 0.304578,0.476898 0.746005,4.48967 0.980468,8.916015 0.234455,4.426344 0.581592,8.199709 0.771485,8.386719 0.189993,0.187015 0.487442,-0.56822 0.662109,-1.679688 0.174627,-1.111471 0.487667,-4.015362 0.695312,-6.453124 0.207749,-2.43776 0.544394,-4.858769 0.748047,-5.38086 0.314002,-0.805375 0.439757,-0.774624 0.832032,0.210938 0.254466,0.638889 0.482698,3.061848 0.511718,5.382812 0.02736,2.32096 0.220088,5.23196 0.427735,6.46875 0.207717,1.236789 0.602634,2.110288 0.876953,1.94336 0.274391,-0.166929 0.662886,-1.585134 0.863281,-3.152344 0.200545,-1.567208 0.509931,-4.008257 0.6875,-5.423828 0.177418,-1.415572 0.538918,-2.441829 0.802734,-2.28125 0.263952,0.160576 0.658946,2.788532 0.878907,5.839843 0.22004,3.051311 0.520337,5.665213 0.666015,5.808594 0.145671,0.143422 0.531281,0.09878 0.857422,-0.09961 0.326141,-0.198388 0.784712,-1.988528 1.019532,-3.978516 0.234638,-1.989993 0.646269,-3.61914 0.914062,-3.61914 0.267728,0 0.653044,0.428659 0.857422,0.953124 0.204275,0.524469 0.376959,2.221713 0.380859,3.769532 0.0052,1.54782 0.263879,3.205489 0.572266,3.685547 0.437568,0.680776 0.636421,0.516561 0.908203,-0.751953 0.191554,-0.89452 0.505569,-2.359396 0.697266,-3.253907 0.271679,-1.268519 0.470635,-1.434676 0.908203,-0.753906 0.308387,0.480058 0.566412,1.460783 0.570312,2.179687 0.0051,0.718907 0.116658,1.754787 0.320313,2.277344 0.203733,0.522566 0.516855,0.859222 0.818359,0.675782 0.301534,-0.18345 0.548828,-0.957997 0.548828,-1.601563 0,-0.643558 0.414409,-1.150391 0.72461,-1.150391 0.310088,0 0.755919,0.866932 0.992187,1.925782 0.381223,1.708386 0.514492,1.810233 1.1875,0.904296 0.417137,-0.561498 0.934771,-1.021484 1.150391,-1.021484 0.215358,0 0.392578,0.406944 0.392578,0.904297 0,0.497352 0.259086,0.904297 0.576172,0.904297 0.316973,0 0.765622,-0.301001 0.996093,-0.667969 0.296287,-0.471858 0.558891,-0.443252 0.898438,0.09766 0.269683,0.429503 1.987613,0.844677 3.917969,0.947266 l 4.354529,0.183594 -0.94336,-1.597657 -3.411169,-0.132812 c -1.930356,-0.102589 -3.648286,-0.517763 -3.917969,-0.947266 -0.339547,-0.540908 -0.602151,-0.569514 -0.898438,-0.09766 -0.230471,0.366968 -0.67912,0.667969 -0.996093,0.667969 -0.317086,0 -0.576172,-0.406945 -0.576172,-0.904297 0,-0.497353 -0.17722,-0.904297 -0.392578,-0.904297 -0.21562,0 -0.733254,0.459986 -1.150391,1.021485 -0.673008,0.905936 -0.806277,0.804089 -1.1875,-0.904297 -0.236268,-1.05885 -0.682099,-1.925782 -0.992187,-1.925782 -0.310201,0 -0.72461,0.506833 -0.72461,1.150391 0,0.643566 -0.247294,1.418113 -0.548828,1.601562 -0.301504,0.183441 -0.614626,-0.153215 -0.818359,-0.675781 -0.203655,-0.522557 -0.31524,-1.558437 -0.320313,-2.277343 -0.0039,-0.718905 -0.261925,-1.69963 -0.570312,-2.179688 -0.437568,-0.68077 -0.636524,-0.514613 -0.908203,0.753906 -0.191697,0.894511 -0.505712,2.359387 -0.697266,3.253906 -0.271782,1.268515 -0.470635,1.43273 -0.908203,0.751954 -0.308387,-0.480058 -0.567091,-2.137727 -0.572266,-3.685547 -0.0039,-1.547819 -0.176584,-3.24311 -0.380859,-3.767578 -0.204378,-0.524466 -0.589694,-0.955079 -0.857422,-0.955079 -0.267793,0 -0.679424,1.629148 -0.914062,3.619141 -0.23482,1.989988 -0.693391,3.780128 -1.019532,3.978516 -0.326141,0.198389 -0.711751,0.243031 -0.857422,0.09961 -0.145678,-0.143381 -0.445975,-2.757283 -0.666015,-5.808594 -0.219961,-3.051311 -0.614955,-5.679267 -0.878907,-5.839843 -0.263816,-0.160579 -0.625316,0.867631 -0.802734,2.283203 -0.177569,1.415571 -0.486955,3.854667 -0.6875,5.421875 -0.200395,1.56721 -0.58889,2.987368 -0.863281,3.154297 -0.274319,0.166928 -0.669236,-0.708524 -0.876953,-1.945313 -0.207647,-1.23679 -0.400377,-4.14779 -0.427735,-6.46875 -0.02902,-2.320964 -0.257252,-4.743923 -0.511718,-5.382812 -0.392275,-0.985562 -0.51803,-1.016313 -0.832032,-0.210938 -0.203653,0.522091 -0.540298,2.9431 -0.748047,5.380859 -0.207645,2.437763 -0.520685,5.341654 -0.695312,6.453126 -0.174667,1.111467 -0.472116,1.868655 -0.662109,1.68164 -0.189893,-0.18701 -0.53703,-3.962328 -0.771485,-8.388672 -0.234463,-4.426345 -0.67589,-8.439117 -0.980468,-8.916015 -0.423084,-0.662413 -0.649594,-0.440236 -0.955079,0.941406 -0.219968,0.994697 -0.465194,4.115287 -0.544921,6.933594 -0.07972,2.818309 -0.343791,5.938897 -0.587891,6.933593 -0.2986,1.216412 -0.561247,1.512505 -0.800781,0.904297 -0.196046,-0.497346 -0.47722,-4.602702 -0.626954,-9.123047 -0.149661,-4.520342 -0.465293,-8.526683 -0.701171,-8.902343 -0.235909,-0.375659 -0.686429,-0.526703 -1,-0.335938 -0.313452,0.190754 -0.59027,3.381252 -0.615235,7.091797 -0.02536,3.710548 -0.252918,7.968891 -0.507812,9.460938 -0.393006,2.299897 -0.521579,2.482799 -0.835938,1.205078 -0.204021,-0.828915 -0.527632,-5.132473 -0.720703,-9.5625 -0.193153,-4.430031 -0.544254,-8.360043 -0.779297,-8.734375 -0.258735,-0.411963 -0.59464,-0.08827 -0.851562,0.820312 -0.233375,0.825572 -0.450784,5.079446 -0.484375,9.453125 -0.0326,4.37368 -0.298816,8.095646 -0.587891,8.271484 -0.289172,0.175845 -0.700225,-1.503868 -0.914062,-3.732421 -0.213808,-2.228554 -0.409453,-6.357472 -0.435547,-9.175782 -0.02536,-2.81831 -0.256744,-5.647936 -0.511719,-6.289062 -0.201344,-0.506013 -0.385323,-0.749366 -0.572266,-0.738281 z"
     sodipodi:nodetypes="scccccsccsccssssscccssscsscccscssscccsscssscccsssssccsccscccccccccccccccccccccscsscccccccccccccscsccccccccssssssssccccccccssssssssccccccccscscccccccccccccsccsccccccccccccccccs" />
  <rect
     width="66"
     height="66"
     rx="12"
     ry="12"
     x="15"
     y="15"
     clip-path="url(#clipPath3613-7)"
     id="rect3171"
     style="display:inline;opacity:0.1;fill:url(#linearGradient4186);fill-opacity:1;fill-rule:nonzero;stroke:#ffffff;stroke-width:0.5;stroke-linecap:round;stroke-linejoin:miter;stroke-miterlimit:4;stroke-dasharray:none;stroke-dashoffset:0;stroke-opacity:1;filter:url(#filter3794-3)" />
</svg>
