<?xml version="1.0" encoding="UTF-8" standalone="no"?>
<!-- Created with Inkscape (http://www.inkscape.org/) -->

<svg
   xmlns:dc="http://purl.org/dc/elements/1.1/"
   xmlns:cc="http://creativecommons.org/ns#"
   xmlns:rdf="http://www.w3.org/1999/02/22-rdf-syntax-ns#"
   xmlns:svg="http://www.w3.org/2000/svg"
   xmlns="http://www.w3.org/2000/svg"
   xmlns:xlink="http://www.w3.org/1999/xlink"
   xmlns:sodipodi="http://sodipodi.sourceforge.net/DTD/sodipodi-0.dtd"
   xmlns:inkscape="http://www.inkscape.org/namespaces/inkscape"
   version="1.0"
   width="96"
   height="96"
   id="svg2408"
   inkscape:version="0.91 r"
   sodipodi:docname="birdie.svg">
  <sodipodi:namedview
     pagecolor="#ffffff"
     bordercolor="#666666"
     borderopacity="1"
     objecttolerance="10"
     gridtolerance="10"
     guidetolerance="10"
     inkscape:pageopacity="0"
     inkscape:pageshadow="2"
     inkscape:window-width="1535"
     inkscape:window-height="876"
     id="namedview101"
     showgrid="false"
     inkscape:zoom="5.33"
     inkscape:cx="40.531321"
     inkscape:cy="40.577357"
     inkscape:window-x="65"
     inkscape:window-y="24"
     inkscape:window-maximized="1"
     inkscape:current-layer="svg2408" />
  <defs
     id="defs2410">
    <linearGradient
       x1="45.447727"
       y1="92.539597"
       x2="45.447727"
       y2="7.0165396"
       id="ButtonShadow"
       gradientUnits="userSpaceOnUse"
       gradientTransform="scale(1.0058652,0.994169)">
      <stop
         id="stop3750"
         style="stop-color:#000000;stop-opacity:1"
         offset="0" />
      <stop
         id="stop3752"
         style="stop-color:#000000;stop-opacity:0.58823532"
         offset="1" />
    </linearGradient>
    <linearGradient
       id="linearGradient3737">
      <stop
         id="stop3739"
         style="stop-color:#ffffff;stop-opacity:1"
         offset="0" />
      <stop
         id="stop3741"
         style="stop-color:#ffffff;stop-opacity:0"
         offset="1" />
    </linearGradient>
    <filter
       color-interpolation-filters="sRGB"
       id="filter3174">
      <feGaussianBlur
         id="feGaussianBlur3176"
         stdDeviation="1.71" />
    </filter>
    <linearGradient
       x1="36.357143"
       y1="6"
       x2="36.357143"
       y2="63.893143"
       id="linearGradient3188"
       xlink:href="#linearGradient3737"
       gradientUnits="userSpaceOnUse" />
    <radialGradient
       cx="48"
       cy="90.171875"
       r="42"
       fx="48"
       fy="90.171875"
       id="radialGradient3619"
       xlink:href="#linearGradient3737"
       gradientUnits="userSpaceOnUse"
       gradientTransform="matrix(1.1573129,0,0,0.99590774,-7.5510206,0.19713193)" />
    <linearGradient
       x1="48"
       y1="90"
       x2="48"
       y2="5.9877172"
       id="linearGradient3617"
       xlink:href="#linearGradient2867-449-88-871-390-598-476-591-434-148-57-177-3-8-8-5"
       gradientUnits="userSpaceOnUse"
       gradientTransform="translate(0,-96)" />
    <linearGradient
       x1="45.447727"
       y1="92.539597"
       x2="45.447727"
       y2="7.0165396"
       id="ButtonShadow-0"
       gradientUnits="userSpaceOnUse"
       gradientTransform="matrix(1.0058652,0,0,0.994169,100,0)">
      <stop
         id="stop3750-8"
         style="stop-color:#000000;stop-opacity:1"
         offset="0" />
      <stop
         id="stop3752-5"
         style="stop-color:#000000;stop-opacity:0.58823532"
         offset="1" />
    </linearGradient>
    <linearGradient
       x1="32.251034"
       y1="6.1317081"
       x2="32.251034"
       y2="90.238609"
       id="linearGradient3780"
       xlink:href="#ButtonShadow-0"
       gradientUnits="userSpaceOnUse"
       gradientTransform="matrix(1.0238095,0,0,-1.0119048,-1.1428571,98.071429)" />
    <linearGradient
       x1="32.251034"
       y1="6.1317081"
       x2="32.251034"
       y2="90.238609"
       id="linearGradient3772"
       xlink:href="#ButtonShadow-0"
       gradientUnits="userSpaceOnUse"
       gradientTransform="matrix(1.0238095,0,0,-1.0119048,-1.1428571,98.071429)" />
    <linearGradient
       x1="32.251034"
       y1="6.1317081"
       x2="32.251034"
       y2="90.238609"
       id="linearGradient3725"
       xlink:href="#ButtonShadow-0"
       gradientUnits="userSpaceOnUse"
       gradientTransform="matrix(1.0238095,0,0,1.0119048,-1.1428571,-98.071429)" />
    <linearGradient
       x1="32.251034"
       y1="6.1317081"
       x2="32.251034"
       y2="90.238609"
       id="linearGradient3721"
       xlink:href="#ButtonShadow-0"
       gradientUnits="userSpaceOnUse"
       gradientTransform="translate(0,-97)" />
    <linearGradient
       x1="32.251034"
       y1="6.1317081"
       x2="32.251034"
       y2="90.238609"
       id="linearGradient3026"
       xlink:href="#ButtonShadow-0"
       gradientUnits="userSpaceOnUse"
       gradientTransform="matrix(1.0238095,0,0,-1.0119048,-1.1428571,98.071429)" />
    <linearGradient
       id="linearGradient2867-449-88-871-390-598-476-591-434-148-57-177-3-8-8-5">
      <stop
         offset="0"
         stop-color="#90dbec"
         id="stop3750-8-9-7-0" />
      <stop
         offset=".26238"
         stop-color="#42baea"
         id="stop3752-3-2-9-2" />
      <stop
         offset=".70495"
         stop-color="#3689e6"
         id="stop3754-7-2-1-1" />
      <stop
         offset="1"
         stop-color="#2b63a0"
         id="stop3756-9-3-9-2" />
    </linearGradient>
    <filter
       color-interpolation-filters="sRGB"
       height="1.2051"
       x="-.061440"
       y="-.10257"
       width="1.1229"
       id="filter4767">
      <feGaussianBlur
         stdDeviation="1.2621591"
         id="feGaussianBlur4769" />
    </filter>
    <filter
       color-interpolation-filters="sRGB"
       id="filter4829">
      <feGaussianBlur
         stdDeviation="0.87596037"
         id="feGaussianBlur4831" />
    </filter>
    <linearGradient
       x1="-103.59"
       y1="-244.76"
       x2="-82.024"
       gradientUnits="userSpaceOnUse"
       y2="-210.12"
       id="linearGradient4603">
      <stop
         offset="0"
         id="stop4992-44-3" />
      <stop
         offset="1"
         stop-color="#0b1e38"
         id="stop4994-1-9" />
    </linearGradient>
    <radialGradient
       r="20"
       gradientTransform="matrix(4.2611267,-1.4877651,-1.126782,-4.3158706,-123.66073,-118.51102)"
       cx="6.5013"
       cy="-41.631"
       gradientUnits="userSpaceOnUse"
       id="radialGradient4609">
      <stop
         offset="0"
         stop-color="#90dbec"
         id="stop3750-8-9-7-0-5" />
      <stop
         offset=".26238"
         stop-color="#42baea"
         id="stop3752-3-2-9-2-5" />
      <stop
         offset=".70495"
         stop-color="#3689e6"
         id="stop3754-7-2-1-1-23" />
      <stop
         offset="1"
         stop-color="#2b63a0"
         id="stop3756-9-3-9-2-3" />
    </radialGradient>
    <linearGradient
       x1="24"
       y1="44"
       gradientTransform="matrix(0.49204455,1.8846599,1.9684737,-0.68728923,-122.46732,-208.07499)"
       x2="24"
       gradientUnits="userSpaceOnUse"
       y2="3.899"
       id="linearGradient4611">
      <stop
         offset="0"
         stop-color="#185f9a"
         id="stop3760-7-3-3-4-8" />
      <stop
         offset="1"
         stop-color="#599ec9"
         id="stop3762-8-4-3-2-16" />
    </linearGradient>
    <radialGradient
       r="25.986"
       gradientTransform="matrix(0.79634,0.19566,-0.21773,0.74512,111.06,182.04)"
       cx="-85.24"
       cy="-213.51"
       gradientUnits="userSpaceOnUse"
       id="radialGradient4615">
      <stop
         offset="0"
         stop-color="#51ffbe"
         id="stop4931-7-6-8" />
      <stop
         offset=".25"
         stop-opacity=".74902"
         stop-color="#51e3ff"
         id="stop4939-7-0-0" />
      <stop
         offset=".5"
         stop-opacity=".49804"
         id="stop4937-3-9-0" />
      <stop
         offset="1"
         stop-opacity="0"
         stop-color="#51ffbe"
         id="stop4933-3-6-7" />
    </radialGradient>
    <radialGradient
       r="20"
       gradientTransform="matrix(-0.00684967,-1.3702191,-4.548686,0.01889078,-157.3891,39.498173)"
       cx="15.715"
       cy="-37.329"
       gradientUnits="userSpaceOnUse"
       id="radialGradient4617">
      <stop
         offset="0"
         stop-color="#90dbec"
         id="stop3750-8-9-7-0-2-0" />
      <stop
         offset=".26238"
         stop-color="#42baea"
         id="stop3752-3-2-9-2-6-7" />
      <stop
         offset=".70495"
         stop-color="#3689e6"
         id="stop3754-7-2-1-1-2-3" />
      <stop
         offset="1"
         stop-color="#2b63a0"
         id="stop3756-9-3-9-2-4-4" />
    </radialGradient>
    <radialGradient
       r="24.651"
       gradientTransform="matrix(-0.47641721,0,0,0.1621343,-77.680261,5.690926)"
       cx="-263.27"
       cy="339.48"
       gradientUnits="userSpaceOnUse"
       id="radialGradient4619">
      <stop
         offset="0"
         stop-color="#9b4d07"
         id="stop4773" />
      <stop
         offset=".074060"
         stop-color="#aa5508"
         id="stop4779" />
      <stop
         offset="1"
         stop-color="#663305"
         id="stop4775" />
    </radialGradient>
    <radialGradient
       r="31.7"
       gradientTransform="matrix(1.8259,-0.075642,0.05097,1.2044,201.1,-73.967)"
       cx="-262.26"
       cy="304.17"
       gradientUnits="userSpaceOnUse"
       id="radialGradient4621">
      <stop
         offset="0"
         stop-color="#fde09a"
         id="stop5205" />
      <stop
         offset="1"
         stop-opacity="0"
         stop-color="#fde09a"
         id="stop5207" />
    </radialGradient>
    <linearGradient
       x1="64.282"
       y1="11.429"
       gradientTransform="matrix(1.2861131,0,0,0.74840689,-35.041841,67.686505)"
       x2="64.282"
       gradientUnits="userSpaceOnUse"
       y2="57.703"
       id="linearGradient4623">
      <stop
         offset="0"
         stop-color="#fff"
         id="stop4680" />
      <stop
         offset=".5"
         stop-color="#fff"
         id="stop4686" />
      <stop
         offset="1"
         stop-color="#029bff"
         id="stop4682" />
    </linearGradient>
    <linearGradient
       inkscape:collect="always"
       xlink:href="#linearGradient4603"
       id="linearGradient4426"
       gradientUnits="userSpaceOnUse"
       x1="-103.59"
       y1="-244.76"
       x2="-82.024"
       y2="-210.12" />
    <radialGradient
       inkscape:collect="always"
       xlink:href="#radialGradient4609"
       id="radialGradient4281"
       gradientUnits="userSpaceOnUse"
       gradientTransform="matrix(4.2611267,-1.4877651,-1.126782,-4.3158706,-123.66073,-118.51102)"
       cx="6.5013"
       cy="-41.631"
       r="20" />
    <linearGradient
       inkscape:collect="always"
       xlink:href="#linearGradient4611"
       id="linearGradient4283"
       gradientUnits="userSpaceOnUse"
       gradientTransform="matrix(0.49204455,1.8846599,1.9684737,-0.68728923,-122.46732,-208.07499)"
       x1="24"
       y1="44"
       x2="24"
       y2="3.899" />
    <linearGradient
       inkscape:collect="always"
       xlink:href="#linearGradient4603"
       id="linearGradient4285"
       gradientUnits="userSpaceOnUse"
       x1="-103.59"
       y1="-244.76"
       x2="-82.024"
       y2="-210.12" />
    <radialGradient
       inkscape:collect="always"
       xlink:href="#radialGradient4615"
       id="radialGradient4287"
       gradientUnits="userSpaceOnUse"
       gradientTransform="matrix(0.79634,0.19566,-0.21773,0.74512,111.06,182.04)"
       cx="-85.24"
       cy="-213.51"
       r="25.986" />
    <radialGradient
       inkscape:collect="always"
       xlink:href="#radialGradient4617"
       id="radialGradient4289"
       gradientUnits="userSpaceOnUse"
       gradientTransform="matrix(-0.00684967,-1.3702191,-4.548686,0.01889078,-157.3891,39.498173)"
       cx="15.715"
       cy="-37.329"
       r="20" />
  </defs>
  <metadata
     id="metadata2413">
    <rdf:RDF>
      <cc:Work
         rdf:about="">
        <dc:format>image/svg+xml</dc:format>
        <dc:type
           rdf:resource="http://purl.org/dc/dcmitype/StillImage" />
        <dc:title />
      </cc:Work>
    </rdf:RDF>
  </metadata>
  <g
     id="layer2"
     style="display:none">
    <rect
       width="86"
       height="85"
       rx="6"
       ry="6"
       x="5"
       y="7"
       id="rect3745"
       style="opacity:0.9;fill:url(#ButtonShadow);fill-opacity:1;fill-rule:nonzero;stroke:none;filter:url(#filter3174)" />
  </g>
  <path
     inkscape:connector-curvature="0"
     style="display:inline;opacity:0.07999998;fill:url(#linearGradient3026);fill-opacity:1;fill-rule:nonzero;stroke:none"
     id="path3786"
     d="M 12,95.03125 C 6.4889097,95.03125 1.96875,90.51109 1.96875,85 l 0,-71 C 1.96875,8.4889098 6.4889098,3.96875 12,3.96875 l 72,0 c 5.51109,0 10.03125,4.5201597 10.03125,10.03125 l 0,71 c 0,5.51109 -4.52016,10.03125 -10.03125,10.03125 l -72,0 z" />
  <path
     inkscape:connector-curvature="0"
     style="display:inline;opacity:0.1;fill:url(#linearGradient3780);fill-opacity:1;fill-rule:nonzero;stroke:none"
     id="path3778"
     d="M 12,94.03125 C 7.028367,94.03125 2.96875,89.971633 2.96875,85 l 0,-71 C 2.96875,9.0283671 7.0283671,4.96875 12,4.96875 l 72,0 c 4.971633,0 9.03125,4.059617 9.03125,9.03125 l 0,71 c 0,4.971633 -4.059617,9.03125 -9.03125,9.03125 l -72,0 z" />
  <path
     inkscape:connector-curvature="0"
     style="display:inline;opacity:0.2;fill:url(#linearGradient3772);fill-opacity:1;fill-rule:nonzero;stroke:none"
     id="path3770"
     d="M 12,93 C 7.5908667,93 4,89.409133 4,85 L 4,14 C 4,9.5908667 7.5908667,6 12,6 l 72,0 c 4.409133,0 8,3.5908667 8,8 l 0,71 c 0,4.409133 -3.590867,8 -8,8 l -72,0 z" />
  <rect
     style="display:inline;opacity:0.3;fill:url(#linearGradient3725);fill-opacity:1;fill-rule:nonzero;stroke:none"
     id="rect3723"
     transform="scale(1,-1)"
     y="-92"
     x="5"
     ry="7"
     rx="7"
     height="85"
     width="86" />
  <rect
     style="display:inline;opacity:0.45;fill:url(#linearGradient3721);fill-opacity:1;fill-rule:nonzero;stroke:none"
     id="rect3716"
     transform="scale(1,-1)"
     y="-91"
     x="6"
     ry="6"
     rx="6"
     height="84"
     width="84" />
  <rect
     style="fill:url(#linearGradient3617);fill-opacity:1.0;fill-rule:nonzero;stroke:none"
     id="rect2419"
     transform="scale(1,-1)"
     y="-90"
     x="6"
     ry="6"
     rx="6"
     height="84"
     width="84" />
  <path
     style="opacity:0.4;fill:url(#linearGradient3188);fill-opacity:1;fill-rule:nonzero;stroke:none"
     id="rect3728"
     inkscape:connector-curvature="0"
     d="M 12,6 C 8.676,6 6,8.676 6,12 l 0,2 0,68 0,2 c 0,0.334721 0.04135,0.6507 0.09375,0.96875 0.0487,0.295596 0.09704,0.596915 0.1875,0.875 0.00988,0.03038 0.020892,0.0636 0.03125,0.09375 0.098865,0.287771 0.2348802,0.547452 0.375,0.8125 0.1445918,0.273507 0.3156161,0.535615 0.5,0.78125 0.1843839,0.245635 0.3737765,0.473472 0.59375,0.6875 0.439947,0.428056 0.94291,0.814526 1.5,1.09375 0.278545,0.139612 0.5734731,0.246947 0.875,0.34375 -0.2562018,-0.100222 -0.4867109,-0.236272 -0.71875,-0.375 -0.00741,-0.0044 -0.023866,0.0045 -0.03125,0 -0.031933,-0.0193 -0.062293,-0.04251 -0.09375,-0.0625 -0.120395,-0.0767 -0.2310226,-0.163513 -0.34375,-0.25 -0.1061728,-0.0808 -0.2132809,-0.161112 -0.3125,-0.25 C 8.4783201,88.557317 8.3087904,88.373362 8.15625,88.1875 8.0486711,88.057245 7.9378561,87.922215 7.84375,87.78125 7.818661,87.74287 7.805304,87.69538 7.78125,87.65625 7.716487,87.553218 7.6510225,87.451733 7.59375,87.34375 7.4927417,87.149044 7.3880752,86.928049 7.3125,86.71875 7.30454,86.69694 7.288911,86.6782 7.28125,86.65625 7.2494249,86.5643 7.2454455,86.469419 7.21875,86.375 7.1884177,86.268382 7.1483606,86.171969 7.125,86.0625 7.0521214,85.720988 7,85.364295 7,85 L 7,83 7,15 7,13 C 7,10.218152 9.2181517,8 12,8 l 2,0 68,0 2,0 c 2.781848,0 5,2.218152 5,5 l 0,2 0,68 0,2 c 0,0.364295 -0.05212,0.720988 -0.125,1.0625 -0.04415,0.206893 -0.08838,0.397658 -0.15625,0.59375 -0.0077,0.02195 -0.0233,0.04069 -0.03125,0.0625 -0.06274,0.173739 -0.138383,0.367449 -0.21875,0.53125 -0.04158,0.0828 -0.07904,0.169954 -0.125,0.25 -0.0546,0.09721 -0.126774,0.18835 -0.1875,0.28125 -0.09411,0.140965 -0.204921,0.275995 -0.3125,0.40625 -0.143174,0.17445 -0.303141,0.346998 -0.46875,0.5 -0.01117,0.0102 -0.01998,0.02115 -0.03125,0.03125 -0.138386,0.125556 -0.285091,0.234436 -0.4375,0.34375 -0.102571,0.07315 -0.204318,0.153364 -0.3125,0.21875 -0.0074,0.0045 -0.02384,-0.0044 -0.03125,0 -0.232039,0.138728 -0.462548,0.274778 -0.71875,0.375 0.301527,-0.0968 0.596455,-0.204138 0.875,-0.34375 0.55709,-0.279224 1.060053,-0.665694 1.5,-1.09375 0.219973,-0.214028 0.409366,-0.441865 0.59375,-0.6875 0.184384,-0.245635 0.355408,-0.507743 0.5,-0.78125 0.14012,-0.265048 0.276135,-0.524729 0.375,-0.8125 0.01041,-0.03078 0.02133,-0.06274 0.03125,-0.09375 0.09046,-0.278085 0.1388,-0.579404 0.1875,-0.875 C 89.95865,84.6507 90,84.334721 90,84 l 0,-2 0,-68 0,-2 C 90,8.676 87.324,6 84,6 L 12,6 Z" />
  <path
     style="opacity:0.2;fill:url(#radialGradient3619);fill-opacity:1;fill-rule:nonzero;stroke:none"
     id="path3615"
     inkscape:connector-curvature="0"
     d="M 12,90 C 8.676,90 6,87.324 6,84 L 6,82 6,14 6,12 c 0,-0.334721 0.04135,-0.6507 0.09375,-0.96875 0.0487,-0.295596 0.09704,-0.596915 0.1875,-0.875 C 6.29113,10.12587 6.302142,10.09265 6.3125,10.0625 6.411365,9.774729 6.5473802,9.515048 6.6875,9.25 6.8320918,8.976493 7.0031161,8.714385 7.1875,8.46875 7.3718839,8.223115 7.5612765,7.995278 7.78125,7.78125 8.221197,7.353194 8.72416,6.966724 9.28125,6.6875 9.559795,6.547888 9.8547231,6.440553 10.15625,6.34375 9.9000482,6.443972 9.6695391,6.580022 9.4375,6.71875 c -0.00741,0.0044 -0.023866,-0.0045 -0.03125,0 -0.031933,0.0193 -0.062293,0.04251 -0.09375,0.0625 -0.120395,0.0767 -0.2310226,0.163513 -0.34375,0.25 -0.1061728,0.0808 -0.2132809,0.161112 -0.3125,0.25 C 8.4783201,7.442683 8.3087904,7.626638 8.15625,7.8125 8.0486711,7.942755 7.9378561,8.077785 7.84375,8.21875 7.818661,8.25713 7.805304,8.30462 7.78125,8.34375 7.716487,8.446782 7.6510225,8.548267 7.59375,8.65625 7.4927417,8.850956 7.3880752,9.071951 7.3125,9.28125 7.30454,9.30306 7.288911,9.3218 7.28125,9.34375 7.2494249,9.4357 7.2454455,9.530581 7.21875,9.625 7.1884177,9.731618 7.1483606,9.828031 7.125,9.9375 7.0521214,10.279012 7,10.635705 7,11 l 0,2 0,68 0,2 c 0,2.781848 2.2181517,5 5,5 l 2,0 68,0 2,0 c 2.781848,0 5,-2.218152 5,-5 l 0,-2 0,-68 0,-2 C 89,10.635705 88.94788,10.279012 88.875,9.9375 88.83085,9.730607 88.78662,9.539842 88.71875,9.34375 88.71105,9.3218 88.69545,9.30306 88.6875,9.28125 88.62476,9.107511 88.549117,8.913801 88.46875,8.75 88.42717,8.6672 88.38971,8.580046 88.34375,8.5 88.28915,8.40279 88.216976,8.31165 88.15625,8.21875 88.06214,8.077785 87.951329,7.942755 87.84375,7.8125 87.700576,7.63805 87.540609,7.465502 87.375,7.3125 87.36383,7.3023 87.35502,7.29135 87.34375,7.28125 87.205364,7.155694 87.058659,7.046814 86.90625,6.9375 86.803679,6.86435 86.701932,6.784136 86.59375,6.71875 c -0.0074,-0.0045 -0.02384,0.0044 -0.03125,0 -0.232039,-0.138728 -0.462548,-0.274778 -0.71875,-0.375 0.301527,0.0968 0.596455,0.204138 0.875,0.34375 0.55709,0.279224 1.060053,0.665694 1.5,1.09375 0.219973,0.214028 0.409366,0.441865 0.59375,0.6875 0.184384,0.245635 0.355408,0.507743 0.5,0.78125 0.14012,0.265048 0.276135,0.524729 0.375,0.8125 0.01041,0.03078 0.02133,0.06274 0.03125,0.09375 0.09046,0.278085 0.1388,0.579404 0.1875,0.875 C 89.95865,11.3493 90,11.665279 90,12 l 0,2 0,68 0,2 c 0,3.324 -2.676,6 -6,6 l -72,0 z" />
  <g
     id="g4259"
     transform="matrix(1.0146814,0,0,0.9972108,-0.27130072,0.04815779)">
    <path
       d="m 28.753033,42.262966 c 4.382178,-1.53003 7.046712,-6.17167 5.951335,-10.367264 -1.095381,-4.195593 -5.53592,-6.356507 -9.918089,-4.826479 -4.382189,1.53003 -7.046718,6.17167 -5.951343,10.367264 1.095375,4.195593 5.535909,6.356509 9.918097,4.826479 z"
       style="color:#000000;fill:url(#radialGradient4609);stroke:url(#linearGradient4611);stroke-width:1.11934495;stroke-linecap:round;stroke-linejoin:round"
       id="path3269-8"
       inkscape:connector-curvature="0" />
    <g
       transform="matrix(-0.76353884,0.18707119,0.11734112,0.72175883,96.932198,16.133505)"
       id="g4695-6-5"
       style="fill-rule:evenodd">
      <path
         transform="matrix(0.38278,0,0,0.39059,125.96,90.396)"
         d="m -62.756,-226.57 c 0,14.352 -11.634,25.986 -25.986,25.986 -14.352,0 -25.986,-11.634 -25.986,-25.986 0,-14.352 11.634,-25.986 25.986,-25.986 14.352,0 25.986,11.634 25.986,25.986 z"
         style="color:#000000;fill:url(#linearGradient4426)"
         id="path4859-1-8-1"
         inkscape:connector-curvature="0" />
      <path
         transform="matrix(-0.11876,0.24656,0.32286,0.13034,150,68.439)"
         d="m -152.74,-237.27 c 0,5.2233 -3.7198,9.4576 -8.3085,9.4576 -4.5887,0 -8.3085,-4.2343 -8.3085,-9.4576 0,-5.2233 3.7198,-9.4576 8.3085,-9.4576 4.5887,0 8.3085,4.2343 8.3085,9.4576 z"
         style="color:#000000;opacity:0.76381998;fill:#ffffff"
         id="path4891-51-1-4"
         inkscape:connector-curvature="0" />
      <path
         d="m 96.83,-4.0364 c 1.0418,1.1305 1.678,2.6062 1.678,4.2161 0,3.5646 -3.0928,6.4524 -6.9024,6.4524 -3.8096,0 -6.8912,-2.8878 -6.8912,-6.4524 0,-1.4589 0.51489,-2.8069 1.3872,-3.8878 -1.6685,1.419 -2.7184,3.4687 -2.7184,5.7446 0,4.284 3.7111,7.7552 8.2896,7.7552 4.5785,0 8.2896,-3.4711 8.2896,-7.7552 0,-2.4579 -1.2261,-4.6516 -3.1324,-6.0728 z"
         style="color:#000000;opacity:0.36616002;fill:url(#radialGradient4615)"
         id="path4859-84-5-5-1"
         inkscape:connector-curvature="0" />
    </g>
    <path
       d="m 35.63598,34.978618 c 0.716932,4.365697 -2.119443,8.98959 -6.618093,10.567587 -4.753082,1.667189 -9.556043,-0.699568 -10.744248,-5.271532 -0.297037,-1.142968 -0.338897,-2.313966 -0.160724,-3.457222 1.048038,2.047046 3.150803,3.593289 5.94815,4.045484 4.719077,0.76318 9.709021,-1.841166 11.57481,-5.884558 z"
       style="color:#000000;fill:url(#radialGradient4617)"
       id="path3269-0-4"
       inkscape:connector-curvature="0" />
  </g>
  <path
     transform="matrix(-0.47641721,0,0,0.41070273,-77.680261,-79.861404)"
     d="m -263.61,332.33 0,0.026 c -0.49848,0.0608 -6.7459,0.83331 -13.708,2.4588 -6.6799,1.5595 -10.851,3.9341 -10.851,3.9341 0,0 0.57348,7.6147 10.196,15.814 7.2169,6.1495 11.272,7.2348 13.551,7.2988 0.31409,0.01 0.56883,-0.0243 0.81254,-0.0516 0.009,-8.4e-4 0.0177,8.1e-4 0.0263,0 2.026,0.18101 6.1327,-0.0995 14.521,-7.247 9.6226,-8.1994 10.196,-15.814 10.196,-15.814 0,0 -4.1714,-2.3746 -10.851,-3.9341 -6.9624,-1.6255 -13.21,-2.3982 -13.708,-2.4588 l 0,-0.026 c 0,0 -0.075,-4.3e-4 -0.0786,0 -0.007,-7.8e-4 -0.10485,0 -0.10485,0 z"
     id="path4695-1-8"
     inkscape:connector-curvature="0"
     style="opacity:0.39698002;filter:url(#filter4767)" />
  <g
     id="g4296"
     transform="matrix(0.99979558,0,0,1.0195138,0.14615978,-0.60337865)">
    <path
       style="fill:url(#radialGradient4619)"
       inkscape:connector-curvature="0"
       id="path4695-1"
       d="m 47.90841,57.333596 0,0.0087 c 0.237483,0.01611 3.213831,0.225521 6.531054,0.665577 3.182445,0.422025 5.169824,1.06486 5.169824,1.06486 0,0 -0.273222,2.060942 -4.85754,4.280357 -3.438286,1.664423 -5.370013,1.958195 -6.455885,1.97548 -0.149653,0 -0.271006,-0.0087 -0.38711,-0.0137 -0.004,-2.19e-4 -0.0084,2.21e-4 -0.0124,0 -0.965204,0.0487 -2.921856,-0.02762 -6.917979,-1.961536 -4.584293,-2.219247 -4.857541,-4.280357 -4.857541,-4.280357 0,0 1.987353,-0.642667 5.169824,-1.064789 3.316959,-0.439983 6.293413,-0.649133 6.531054,-0.665577 l 0,-0.0087 c 0,0 0.03574,-7.5e-5 0.03748,0 0.0032,-1.47e-4 0.04993,0 0.04993,0 z" />
    <path
       style="fill:#fbba1e"
       inkscape:connector-curvature="0"
       id="path4695"
       d="m 33.86092,58.812069 c 0,0 0.323942,-3.995241 5.789644,-8.294109 5.465703,-4.298868 7.728757,-3.864702 8.681697,-3.75604 0.952835,0.108565 -0.238222,5.428036 -0.238222,5.428036 l -0.178666,9.98774 c 0,0 -3.774043,-0.414693 -7.892811,-1.302281 -3.794352,-0.81768 -6.1618,-2.063202 -6.1618,-2.063202 z" />
    <path
       style="fill:#ea8616"
       inkscape:connector-curvature="0"
       id="path4695-5"
       d="m 48.37789,46.693405 c 1.294659,0.03358 3.597856,0.602568 7.697107,3.826719 5.465755,4.298868 5.79149,8.291223 5.79149,8.291223 0,0 -2.369426,1.245018 -6.163646,2.062625 -4.118768,0.887588 -7.890701,1.302859 -7.890701,1.302859 l -0.07448,-4.166166 0,-11.276776 c 0.183124,-0.01803 0.385502,-0.04731 0.640182,-0.0407 z" />
  </g>
  <path
     transform="matrix(-0.47137952,0,0,0.43423808,-76.203244,-87.128755)"
     d="m -264.34,308.71 c -2.7175,0.0773 -7.5519,1.3876 -16.156,8.8125 -5.618,4.8479 -8.6197,9.5187 -10.25,13.031 1.6304,-3.0692 4.6324,-7.1705 10.25,-11.406 7.7687,-5.8577 12.442,-7.3408 15.281,-7.625 0.0221,1.9949 0.0766,5.2098 0.34375,8.5938 0.375,4.75 0.875,19.875 1.75,20.5 0.875,0.625 0.875,-1.875 1.375,-5.625 0.42681,-3.201 0.12877,-18.76 0.0313,-23.469 2.7868,0.169 7.5152,1.463 15.688,7.625 5.6256,4.2418 8.6525,8.3356 10.281,11.406 -1.629,-3.5139 -4.6569,-8.1779 -10.281,-13.031 -10.001,-8.6299 -14.897,-8.9686 -17.312,-8.75 -0.0102,-10e-4 -0.021,0.001 -0.0313,0 -0.29057,-0.0331 -0.59428,-0.0732 -0.96875,-0.0625 z m -28.281,27.781 c -0.003,0.0275 -0.0313,0.125 -0.0313,0.125 0,0 0.0308,-2.6e-4 0.0313,0 -0.002,-0.0619 0.002,-0.0722 0,-0.125 z"
     id="path4695-9"
     inkscape:connector-curvature="0"
     style="fill:url(#radialGradient4621);filter:url(#filter4829)" />
  <path
     style="color:#000000;opacity:0.30751002;fill:url(#linearGradient4623);stroke:none;stroke-width:1.00434422;stroke-linecap:round;stroke-linejoin:round"
     d="M 47.418083,76 C 8.5768194,76 9.006793,85.292062 9.0077202,88.600566 c 0.0066,0.125951 0.048947,0.261329 0.1138743,0.401724 C 10.070717,89.632264 11.218013,90 12.456759,90 l 71.150174,0 C 84.871986,90 86.039383,89.613599 87,88.958912 86.85453,85.311185 84.449803,76 47.418083,76 Z M 9.0077202,88.600566 c -7.303e-4,-0.01394 -0.00772,-0.02963 -0.00772,-0.04338 l 0.00772,0.05469 c 0,-0.0034 1e-6,-0.0079 0,-0.01132 z"
     id="rect3212-0"
     inkscape:connector-curvature="0" />
  <g
     transform="matrix(-1.0146814,0,0,0.9972108,96.271301,0.04815779)"
     id="g4267">
    <path
       inkscape:connector-curvature="0"
       id="path4269"
       style="color:#000000;fill:url(#radialGradient4281);stroke:url(#linearGradient4283);stroke-width:1.11934495;stroke-linecap:round;stroke-linejoin:round"
       d="m 28.753033,42.262966 c 4.382178,-1.53003 7.046712,-6.17167 5.951335,-10.367264 -1.095381,-4.195593 -5.53592,-6.356507 -9.918089,-4.826479 -4.382189,1.53003 -7.046718,6.17167 -5.951343,10.367264 1.095375,4.195593 5.535909,6.356509 9.918097,4.826479 z" />
    <g
       style="fill-rule:evenodd"
       id="g4271"
       transform="matrix(-0.76353884,0.18707119,0.11734112,0.72175883,96.932198,16.133505)">
      <path
         inkscape:connector-curvature="0"
         id="path4273"
         style="color:#000000;fill:url(#linearGradient4285)"
         d="m -62.756,-226.57 c 0,14.352 -11.634,25.986 -25.986,25.986 -14.352,0 -25.986,-11.634 -25.986,-25.986 0,-14.352 11.634,-25.986 25.986,-25.986 14.352,0 25.986,11.634 25.986,25.986 z"
         transform="matrix(0.38278,0,0,0.39059,125.96,90.396)" />
      <path
         inkscape:connector-curvature="0"
         id="path4275"
         style="color:#000000;opacity:0.76381998;fill:#ffffff"
         d="m -152.74,-237.27 c 0,5.2233 -3.7198,9.4576 -8.3085,9.4576 -4.5887,0 -8.3085,-4.2343 -8.3085,-9.4576 0,-5.2233 3.7198,-9.4576 8.3085,-9.4576 4.5887,0 8.3085,4.2343 8.3085,9.4576 z"
         transform="matrix(-0.11876,0.24656,0.32286,0.13034,150,68.439)" />
      <path
         inkscape:connector-curvature="0"
         id="path4277"
         style="color:#000000;opacity:0.36616002;fill:url(#radialGradient4287)"
         d="m 96.83,-4.0364 c 1.0418,1.1305 1.678,2.6062 1.678,4.2161 0,3.5646 -3.0928,6.4524 -6.9024,6.4524 -3.8096,0 -6.8912,-2.8878 -6.8912,-6.4524 0,-1.4589 0.51489,-2.8069 1.3872,-3.8878 -1.6685,1.419 -2.7184,3.4687 -2.7184,5.7446 0,4.284 3.7111,7.7552 8.2896,7.7552 4.5785,0 8.2896,-3.4711 8.2896,-7.7552 0,-2.4579 -1.2261,-4.6516 -3.1324,-6.0728 z" />
    </g>
    <path
       inkscape:connector-curvature="0"
       id="path4279"
       style="color:#000000;fill:url(#radialGradient4289)"
       d="m 35.63598,34.978618 c 0.716932,4.365697 -2.119443,8.98959 -6.618093,10.567587 -4.753082,1.667189 -9.556043,-0.699568 -10.744248,-5.271532 -0.297037,-1.142968 -0.338897,-2.313966 -0.160724,-3.457222 1.048038,2.047046 3.150803,3.593289 5.94815,4.045484 4.719077,0.76318 9.709021,-1.841166 11.57481,-5.884558 z" />
  </g>
</svg>
