<?xml version="1.0" encoding="UTF-8" standalone="no"?>
<!-- Created with Inkscape (http://www.inkscape.org/) -->

<svg
   version="1.0"
   width="96"
   height="96"
   id="svg2408"
   sodipodi:docname="bitwarden.svg"
   inkscape:version="1.2.2 (b0a8486541, 2022-12-01)"
   xml:space="preserve"
   xmlns:inkscape="http://www.inkscape.org/namespaces/inkscape"
   xmlns:sodipodi="http://sodipodi.sourceforge.net/DTD/sodipodi-0.dtd"
   xmlns:xlink="http://www.w3.org/1999/xlink"
   xmlns="http://www.w3.org/2000/svg"
   xmlns:svg="http://www.w3.org/2000/svg"
   xmlns:rdf="http://www.w3.org/1999/02/22-rdf-syntax-ns#"
   xmlns:cc="http://creativecommons.org/ns#"
   xmlns:dc="http://purl.org/dc/elements/1.1/"><sodipodi:namedview
     id="namedview28510"
     pagecolor="#ffffff"
     bordercolor="#000000"
     borderopacity="0.25"
     inkscape:showpageshadow="2"
     inkscape:pageopacity="0.0"
     inkscape:pagecheckerboard="0"
     inkscape:deskcolor="#d1d1d1"
     showgrid="false"
     inkscape:zoom="2.8284271"
     inkscape:cx="236.17366"
     inkscape:cy="5.3033008"
     inkscape:current-layer="svg2408" /><defs
     id="defs2410"><linearGradient
       inkscape:collect="always"
       id="linearGradient12656"><stop
         style="stop-color:#e5e5e5;stop-opacity:1;"
         offset="0"
         id="stop12652" /><stop
         style="stop-color:#ffffff;stop-opacity:1;"
         offset="1"
         id="stop12654" /></linearGradient><linearGradient
       id="linearGradient53344"><stop
         id="stop53340"
         style="stop-color:#0d3b4c;stop-opacity:1;"
         offset="0" /><stop
         id="stop53342"
         style="stop-color:#000000;stop-opacity:0;"
         offset="1" /></linearGradient><linearGradient
       id="linearGradient3710"><stop
         id="stop3712"
         style="stop-color:#d9822e;stop-opacity:1"
         offset="0" /><stop
         id="stop3714"
         style="stop-color:#d9822e;stop-opacity:0"
         offset="1" /></linearGradient><linearGradient
       x1="45.447727"
       y1="92.539597"
       x2="45.447727"
       y2="7.0165396"
       id="ButtonShadow"
       gradientUnits="userSpaceOnUse"
       gradientTransform="scale(1.0058652,0.994169)"><stop
         id="stop3750"
         style="stop-color:#000000;stop-opacity:1"
         offset="0" /><stop
         id="stop3752"
         style="stop-color:#000000;stop-opacity:0.58823532"
         offset="1" /></linearGradient><linearGradient
       id="linearGradient3737"><stop
         id="stop3739"
         style="stop-color:#ffffff;stop-opacity:1"
         offset="0" /><stop
         id="stop3741"
         style="stop-color:#ffffff;stop-opacity:0"
         offset="1" /></linearGradient><linearGradient
       id="linearGradient3700"><stop
         id="stop3702"
         style="stop-color:#1d4b8f;stop-opacity:1;"
         offset="0" /><stop
         id="stop3704"
         style="stop-color:#1993dc;stop-opacity:1;"
         offset="1" /></linearGradient><filter
       color-interpolation-filters="sRGB"
       id="filter3174"
       x="-0.047720931"
       y="-0.048282354"
       width="1.0954419"
       height="1.0965647"><feGaussianBlur
         id="feGaussianBlur3176"
         stdDeviation="1.71" /></filter><linearGradient
       x1="36.357143"
       y1="6"
       x2="36.357143"
       y2="63.893143"
       id="linearGradient3188"
       xlink:href="#linearGradient3737"
       gradientUnits="userSpaceOnUse" /><filter
       x="-0.19578789"
       y="-0.19578789"
       width="1.3915758"
       height="1.3915758"
       color-interpolation-filters="sRGB"
       id="filter3794"><feGaussianBlur
         id="feGaussianBlur3796"
         stdDeviation="5.28" /></filter><linearGradient
       x1="48"
       y1="20.220806"
       x2="48"
       y2="138.66119"
       id="linearGradient3613"
       xlink:href="#linearGradient3737"
       gradientUnits="userSpaceOnUse" /><radialGradient
       cx="48"
       cy="90.171875"
       r="42"
       fx="48"
       fy="90.171875"
       id="radialGradient3619"
       xlink:href="#linearGradient3737"
       gradientUnits="userSpaceOnUse"
       gradientTransform="matrix(1.1573129,0,0,0.99590774,-7.5510206,0.19713193)" /><clipPath
       id="clipPath3613"><rect
         width="84"
         height="84"
         rx="6"
         ry="6"
         x="6"
         y="6"
         id="rect3615"
         style="fill:#ffffff;fill-opacity:1;fill-rule:nonzero;stroke:none" /></clipPath><linearGradient
       x1="48"
       y1="90"
       x2="48"
       y2="5.9877172"
       id="linearGradient3617"
       xlink:href="#linearGradient3700"
       gradientUnits="userSpaceOnUse" /><linearGradient
       x1="45.447727"
       y1="92.539597"
       x2="45.447727"
       y2="7.0165396"
       id="ButtonShadow-0"
       gradientUnits="userSpaceOnUse"
       gradientTransform="matrix(1.0058652,0,0,0.994169,100,0)"><stop
         id="stop3750-8"
         style="stop-color:#000000;stop-opacity:1"
         offset="0" /><stop
         id="stop3752-5"
         style="stop-color:#000000;stop-opacity:0.58823532"
         offset="1" /></linearGradient><linearGradient
       x1="32.251034"
       y1="6.1317081"
       x2="32.251034"
       y2="90.238609"
       id="linearGradient3780"
       xlink:href="#ButtonShadow-0"
       gradientUnits="userSpaceOnUse"
       gradientTransform="matrix(1.0238095,0,0,1.0119048,-1.1428571,-98.071429)" /><linearGradient
       x1="32.251034"
       y1="6.1317081"
       x2="32.251034"
       y2="90.238609"
       id="linearGradient3772"
       xlink:href="#ButtonShadow-0"
       gradientUnits="userSpaceOnUse"
       gradientTransform="matrix(1.0238095,0,0,1.0119048,-1.1428571,-98.071429)" /><linearGradient
       x1="32.251034"
       y1="6.1317081"
       x2="32.251034"
       y2="90.238609"
       id="linearGradient3725"
       xlink:href="#ButtonShadow-0"
       gradientUnits="userSpaceOnUse"
       gradientTransform="matrix(1.0238095,0,0,1.0119048,-1.1428571,-98.071429)" /><linearGradient
       x1="32.251034"
       y1="6.1317081"
       x2="32.251034"
       y2="90.238609"
       id="linearGradient3721"
       xlink:href="#ButtonShadow-0"
       gradientUnits="userSpaceOnUse"
       gradientTransform="translate(0,-97)" /><linearGradient
       x1="32.251034"
       y1="6.1317081"
       x2="32.251034"
       y2="90.238609"
       id="linearGradient3026"
       xlink:href="#ButtonShadow-0"
       gradientUnits="userSpaceOnUse"
       gradientTransform="matrix(1.0238095,0,0,1.0119048,-1.1428571,-98.071429)" /><linearGradient
       x1="56"
       y1="64"
       x2="16"
       y2="64"
       id="linearGradient3716"
       xlink:href="#linearGradient3710"
       gradientUnits="userSpaceOnUse" /><radialGradient
       inkscape:collect="always"
       xlink:href="#linearGradient5293"
       id="radialGradient5302"
       gradientUnits="userSpaceOnUse"
       gradientTransform="matrix(4.6723113,0,0,1.398978,-177.62389,-36.894191)"
       cx="48.397247"
       cy="57.980881"
       fx="48.397247"
       fy="57.980881"
       r="42" /><linearGradient
       id="linearGradient5293"><stop
         id="stop5295"
         style="stop-color:#ffffff;stop-opacity:0;"
         offset="0" /><stop
         id="stop5297"
         style="stop-color:#ffffff;stop-opacity:1;"
         offset="1" /></linearGradient><linearGradient
       x1="48"
       y1="72"
       x2="48"
       y2="24"
       id="linearGradient3131"
       xlink:href="#linearGradient3714"
       gradientUnits="userSpaceOnUse"
       gradientTransform="translate(2,-2)" /><linearGradient
       id="linearGradient3714"><stop
         id="stop3716"
         style="stop-color:#d7d7d7;stop-opacity:1"
         offset="0" /><stop
         id="stop3718"
         style="stop-color:#c8c8c8;stop-opacity:1"
         offset="1" /></linearGradient><linearGradient
       x1="34"
       y1="58"
       x2="36"
       y2="60"
       id="linearGradient3127"
       xlink:href="#linearGradient3790"
       gradientUnits="userSpaceOnUse"
       gradientTransform="translate(2,-2)" /><linearGradient
       id="linearGradient3790"><stop
         id="stop3792"
         style="stop-color:#969696;stop-opacity:1"
         offset="0" /><stop
         id="stop3794"
         style="stop-color:#ffffff;stop-opacity:0.79069769"
         offset="1" /></linearGradient><linearGradient
       x1="24"
       y1="75"
       x2="59.503521"
       y2="39.496479"
       id="linearGradient3123"
       xlink:href="#linearGradient3813"
       gradientUnits="userSpaceOnUse"
       gradientTransform="translate(3,-3)" /><linearGradient
       id="linearGradient3813"><stop
         id="stop3815"
         style="stop-color:#666666;stop-opacity:1"
         offset="0" /><stop
         id="stop3817"
         style="stop-color:#666666;stop-opacity:0"
         offset="1" /></linearGradient><linearGradient
       x1="48"
       y1="72"
       x2="48"
       y2="24"
       id="linearGradient3149"
       xlink:href="#linearGradient3714"
       gradientUnits="userSpaceOnUse"
       gradientTransform="translate(4,-4)" /><radialGradient
       cx="57"
       cy="37"
       r="15"
       fx="57"
       fy="37"
       id="radialGradient3827"
       xlink:href="#linearGradient3737"
       gradientUnits="userSpaceOnUse"
       gradientTransform="matrix(1.2,7.0502532e-8,-6.070424e-8,1.0332266,-7.399999,-5.2293852)" /><linearGradient
       x1="62.823048"
       y1="53.023079"
       x2="62.823048"
       y2="22.999353"
       id="linearGradient3742"
       xlink:href="#linearGradient3749"
       gradientUnits="userSpaceOnUse"
       gradientTransform="matrix(1,0,0,-1,4,66)" /><linearGradient
       id="linearGradient3749"><stop
         id="stop3751"
         style="stop-color:#000000;stop-opacity:0.5271318"
         offset="0" /><stop
         id="stop3757"
         style="stop-color:#7f7f7f;stop-opacity:0"
         offset="0.5" /><stop
         id="stop3753"
         style="stop-color:#ffffff;stop-opacity:1"
         offset="1" /></linearGradient><linearGradient
       x1="59"
       y1="32"
       x2="69.1875"
       y2="32"
       id="linearGradient3755"
       xlink:href="#linearGradient3749"
       gradientUnits="userSpaceOnUse"
       gradientTransform="rotate(75,68.700201,32.606451)" /><linearGradient
       inkscape:collect="always"
       xlink:href="#linearGradient12656"
       id="linearGradient12658"
       x1="44.38863"
       y1="75.039566"
       x2="44.38863"
       y2="25.915293"
       gradientUnits="userSpaceOnUse" /></defs><metadata
     id="metadata2413"><rdf:RDF><cc:Work
         rdf:about=""><dc:format>image/svg+xml</dc:format><dc:type
           rdf:resource="http://purl.org/dc/dcmitype/StillImage" /></cc:Work></rdf:RDF></metadata><g
     id="layer2"
     style="display:none"><rect
       width="86"
       height="85"
       rx="6"
       ry="6"
       x="5"
       y="7"
       id="rect3745"
       style="opacity:0.9;fill:url(#ButtonShadow);fill-opacity:1;fill-rule:nonzero;stroke:none;filter:url(#filter3174)" /></g><g
     id="layer3"><path
       d="m 12,-95.03125 c -5.5110903,0 -10.03125,4.52016 -10.03125,10.03125 l 0,71 c 0,5.5110902 4.5201598,10.03125 10.03125,10.03125 l 72,0 c 5.51109,0 10.03125,-4.5201597 10.03125,-10.03125 l 0,-71 c 0,-5.51109 -4.52016,-10.03125 -10.03125,-10.03125 l -72,0 z"
       transform="scale(1,-1)"
       id="path3786"
       style="opacity:0.07999998;fill:url(#linearGradient3026);fill-opacity:1;fill-rule:nonzero;stroke:none;display:inline" /><path
       d="m 12,-94.03125 c -4.971633,0 -9.03125,4.059617 -9.03125,9.03125 l 0,71 c 0,4.9716329 4.0596171,9.03125 9.03125,9.03125 l 72,0 c 4.971633,0 9.03125,-4.059617 9.03125,-9.03125 l 0,-71 c 0,-4.971633 -4.059617,-9.03125 -9.03125,-9.03125 l -72,0 z"
       transform="scale(1,-1)"
       id="path3778"
       style="opacity:0.1;fill:url(#linearGradient3780);fill-opacity:1;fill-rule:nonzero;stroke:none;display:inline" /><path
       d="m 12,-93 c -4.4091333,0 -8,3.590867 -8,8 l 0,71 c 0,4.4091333 3.5908667,8 8,8 l 72,0 c 4.409133,0 8,-3.5908667 8,-8 l 0,-71 c 0,-4.409133 -3.590867,-8 -8,-8 l -72,0 z"
       transform="scale(1,-1)"
       id="path3770"
       style="opacity:0.2;fill:url(#linearGradient3772);fill-opacity:1;fill-rule:nonzero;stroke:none;display:inline" /><rect
       width="86"
       height="85"
       rx="7"
       ry="7"
       x="5"
       y="-92"
       transform="scale(1,-1)"
       id="rect3723"
       style="opacity:0.3;fill:url(#linearGradient3725);fill-opacity:1;fill-rule:nonzero;stroke:none;display:inline" /><rect
       width="84"
       height="84"
       rx="6"
       ry="6"
       x="6"
       y="-91"
       transform="scale(1,-1)"
       id="rect3716"
       style="opacity:0.45;fill:url(#linearGradient3721);fill-opacity:1;fill-rule:nonzero;stroke:none;display:inline" /></g><g
     id="layer1"
     style="display:inline"><rect
       width="84"
       height="84"
       rx="6"
       ry="6"
       x="6"
       y="6"
       id="rect2419"
       style="fill:url(#linearGradient3617);fill-opacity:1;fill-rule:nonzero;stroke:none" /><path
       d="M 12,6 C 8.676,6 6,8.676 6,12 l 0,2 0,68 0,2 c 0,0.334721 0.04135,0.6507 0.09375,0.96875 0.0487,0.295596 0.09704,0.596915 0.1875,0.875 0.00988,0.03038 0.020892,0.0636 0.03125,0.09375 0.098865,0.287771 0.2348802,0.547452 0.375,0.8125 0.1445918,0.273507 0.3156161,0.535615 0.5,0.78125 0.1843839,0.245635 0.3737765,0.473472 0.59375,0.6875 0.439947,0.428056 0.94291,0.814526 1.5,1.09375 0.278545,0.139612 0.5734731,0.246947 0.875,0.34375 -0.2562018,-0.100222 -0.4867109,-0.236272 -0.71875,-0.375 -0.00741,-0.0044 -0.023866,0.0045 -0.03125,0 -0.031933,-0.0193 -0.062293,-0.04251 -0.09375,-0.0625 -0.120395,-0.0767 -0.2310226,-0.163513 -0.34375,-0.25 -0.1061728,-0.0808 -0.2132809,-0.161112 -0.3125,-0.25 C 8.4783201,88.557317 8.3087904,88.373362 8.15625,88.1875 8.0486711,88.057245 7.9378561,87.922215 7.84375,87.78125 7.818661,87.74287 7.805304,87.69538 7.78125,87.65625 7.716487,87.553218 7.6510225,87.451733 7.59375,87.34375 7.4927417,87.149044 7.3880752,86.928049 7.3125,86.71875 7.30454,86.69694 7.288911,86.6782 7.28125,86.65625 7.2494249,86.5643 7.2454455,86.469419 7.21875,86.375 7.1884177,86.268382 7.1483606,86.171969 7.125,86.0625 7.0521214,85.720988 7,85.364295 7,85 L 7,83 7,15 7,13 C 7,10.218152 9.2181517,8 12,8 l 2,0 68,0 2,0 c 2.781848,0 5,2.218152 5,5 l 0,2 0,68 0,2 c 0,0.364295 -0.05212,0.720988 -0.125,1.0625 -0.04415,0.206893 -0.08838,0.397658 -0.15625,0.59375 -0.0077,0.02195 -0.0233,0.04069 -0.03125,0.0625 -0.06274,0.173739 -0.138383,0.367449 -0.21875,0.53125 -0.04158,0.0828 -0.07904,0.169954 -0.125,0.25 -0.0546,0.09721 -0.126774,0.18835 -0.1875,0.28125 -0.09411,0.140965 -0.204921,0.275995 -0.3125,0.40625 -0.143174,0.17445 -0.303141,0.346998 -0.46875,0.5 -0.01117,0.0102 -0.01998,0.02115 -0.03125,0.03125 -0.138386,0.125556 -0.285091,0.234436 -0.4375,0.34375 -0.102571,0.07315 -0.204318,0.153364 -0.3125,0.21875 -0.0074,0.0045 -0.02384,-0.0044 -0.03125,0 -0.232039,0.138728 -0.462548,0.274778 -0.71875,0.375 0.301527,-0.0968 0.596455,-0.204138 0.875,-0.34375 0.55709,-0.279224 1.060053,-0.665694 1.5,-1.09375 0.219973,-0.214028 0.409366,-0.441865 0.59375,-0.6875 0.184384,-0.245635 0.355408,-0.507743 0.5,-0.78125 0.14012,-0.265048 0.276135,-0.524729 0.375,-0.8125 0.01041,-0.03078 0.02133,-0.06274 0.03125,-0.09375 0.09046,-0.278085 0.1388,-0.579404 0.1875,-0.875 C 89.95865,84.6507 90,84.334721 90,84 l 0,-2 0,-68 0,-2 C 90,8.676 87.324,6 84,6 L 12,6 z"
       inkscape:connector-curvature="0"
       id="rect3728"
       style="opacity:0.35;fill:url(#linearGradient3188);fill-opacity:1;fill-rule:nonzero;stroke:none" /><path
       d="M 12,90 C 8.676,90 6,87.324 6,84 L 6,82 6,14 6,12 c 0,-0.334721 0.04135,-0.6507 0.09375,-0.96875 0.0487,-0.295596 0.09704,-0.596915 0.1875,-0.875 C 6.29113,10.12587 6.302142,10.09265 6.3125,10.0625 6.411365,9.774729 6.5473802,9.515048 6.6875,9.25 6.8320918,8.976493 7.0031161,8.714385 7.1875,8.46875 7.3718839,8.223115 7.5612765,7.995278 7.78125,7.78125 8.221197,7.353194 8.72416,6.966724 9.28125,6.6875 9.559795,6.547888 9.8547231,6.440553 10.15625,6.34375 9.9000482,6.443972 9.6695391,6.580022 9.4375,6.71875 c -0.00741,0.0044 -0.023866,-0.0045 -0.03125,0 -0.031933,0.0193 -0.062293,0.04251 -0.09375,0.0625 -0.120395,0.0767 -0.2310226,0.163513 -0.34375,0.25 -0.1061728,0.0808 -0.2132809,0.161112 -0.3125,0.25 C 8.4783201,7.442683 8.3087904,7.626638 8.15625,7.8125 8.0486711,7.942755 7.9378561,8.077785 7.84375,8.21875 7.818661,8.25713 7.805304,8.30462 7.78125,8.34375 7.716487,8.446782 7.6510225,8.548267 7.59375,8.65625 7.4927417,8.850956 7.3880752,9.071951 7.3125,9.28125 7.30454,9.30306 7.288911,9.3218 7.28125,9.34375 7.2494249,9.4357 7.2454455,9.530581 7.21875,9.625 7.1884177,9.731618 7.1483606,9.828031 7.125,9.9375 7.0521214,10.279012 7,10.635705 7,11 l 0,2 0,68 0,2 c 0,2.781848 2.2181517,5 5,5 l 2,0 68,0 2,0 c 2.781848,0 5,-2.218152 5,-5 l 0,-2 0,-68 0,-2 C 89,10.635705 88.94788,10.279012 88.875,9.9375 88.83085,9.730607 88.78662,9.539842 88.71875,9.34375 88.71105,9.3218 88.69545,9.30306 88.6875,9.28125 88.62476,9.107511 88.549117,8.913801 88.46875,8.75 88.42717,8.6672 88.38971,8.580046 88.34375,8.5 88.28915,8.40279 88.216976,8.31165 88.15625,8.21875 88.06214,8.077785 87.951329,7.942755 87.84375,7.8125 87.700576,7.63805 87.540609,7.465502 87.375,7.3125 87.36383,7.3023 87.35502,7.29135 87.34375,7.28125 87.205364,7.155694 87.058659,7.046814 86.90625,6.9375 86.803679,6.86435 86.701932,6.784136 86.59375,6.71875 c -0.0074,-0.0045 -0.02384,0.0044 -0.03125,0 -0.232039,-0.138728 -0.462548,-0.274778 -0.71875,-0.375 0.301527,0.0968 0.596455,0.204138 0.875,0.34375 0.55709,0.279224 1.060053,0.665694 1.5,1.09375 0.219973,0.214028 0.409366,0.441865 0.59375,0.6875 0.184384,0.245635 0.355408,0.507743 0.5,0.78125 0.14012,0.265048 0.276135,0.524729 0.375,0.8125 0.01041,0.03078 0.02133,0.06274 0.03125,0.09375 0.09046,0.278085 0.1388,0.579404 0.1875,0.875 C 89.95865,11.3493 90,11.665279 90,12 l 0,2 0,68 0,2 c 0,3.324 -2.676,6 -6,6 l -72,0 z"
       inkscape:connector-curvature="0"
       id="path3615"
       style="opacity:0.2;fill:url(#radialGradient3619);fill-opacity:1;fill-rule:nonzero;stroke:none" /></g><g
     id="layer5"
     style="display:inline"><rect
       width="66"
       height="66"
       rx="12"
       ry="12"
       x="15"
       y="15"
       clip-path="url(#clipPath3613)"
       id="rect3171"
       style="opacity:0.1;fill:url(#linearGradient3613);fill-opacity:1;fill-rule:nonzero;stroke:#ffffff;stroke-width:0.5;stroke-linecap:round;stroke-linejoin:miter;stroke-miterlimit:4;stroke-dasharray:none;stroke-dashoffset:0;stroke-opacity:1;filter:url(#filter3794)" /></g><g
     id="g5029"><path
       id="rect2676"
       style="display:inline;opacity:1;fill:url(#linearGradient12658);fill-opacity:1;stroke-width:2.43;stroke-linecap:round"
       d="m 48.0722,25.918475 c -18.223931,0 -19.545411,-0.231576 -20.160881,0.448501 -0.58823,0.649992 -0.45576,2.223673 -0.45576,15.549546 l -0.0289,14.572265 c 4.64363,8.042996 10.75865,13.705809 16.969751,17.117188 1.70854,0.917379 3.33578,1.672291 3.61718,1.675781 0.28141,0.0034 1.89853,-0.715702 3.59376,-1.597656 8.28714,-5.020649 12.19669,-8.890358 16.99156,-17.195313 l 0.0432,-14.572265 c 0,-13.327949 0.17729,-14.949128 -0.41098,-15.59912 -0.61546,-0.680081 -2.06857,-0.398927 -20.15892,-0.398927 z m 0,5.300781 7.5,0.103516 7.5,0.101562 v 11.583985 c 0,12.334218 -0.23819,12.486855 -2.16509,15.405068 -1.58754,2.404187 -5.18885,5.590574 -8.69429,8.36251 -1.89059,1.494993 -3.75578,2.435547 -3.89257,2.435547 -0.13679,0 -0.24805,-8.548184 -0.24805,-18.996094 z"
       sodipodi:nodetypes="csccccccccscccssssscc" /><path
       style="display:none;fill:url(#radialGradient5302);fill-opacity:1;fill-rule:nonzero;stroke:none;stroke-width:1.01492"
       d="M 12,8 C 9.316153,8 7,10.119819 7,13 v 17.302742 c 10.17826,9.297804 24.775572,15.131746 40.999999,15.131746 16.224433,0 30.821745,-5.833942 41.000001,-15.131746 V 13 C 89,10.08677 86.683847,8 84,8 Z"
       id="rect5284"
       inkscape:connector-curvature="0"
       sodipodi:nodetypes="sscscsss" /><path
       id="path2982"
       style="display:inline;opacity:0.5;fill:#ffffff;fill-opacity:1;stroke-width:2.43;stroke-linecap:round"
       d="m 27.456949,30.768084 c -0.01482,0.744903 -0.01279,1.992577 -0.01367,3.189453 -0.0023,-1.418411 0.0065,-2.264567 0.01367,-3.189453 z m -0.01367,3.189453 c -0.0016,2.224932 0.0059,5.015668 0.0059,9.392578 l -0.0293,14.572266 c 4.643625,8.042988 10.757655,13.705812 16.96875,17.117187 1.708538,0.917379 3.335788,1.672292 3.617187,1.675782 0.28141,0.0034 1.898522,-0.715703 3.59375,-1.597656 8.287132,-5.020644 12.197323,-8.890366 16.992188,-17.195313 l 0.0039,-1.427734 C 63.802403,64.795284 59.892392,68.664716 51.60734,73.6841 c -1.695228,0.881953 -3.31234,1.601056 -3.59375,1.597656 -0.2814,-0.0035 -1.908649,-0.758403 -3.617188,-1.675781 -6.211094,-3.411376 -12.327077,-9.0742 -16.970703,-17.117188 l 0.0293,-14.572265 c 0,-3.331465 -0.0085,-5.927347 -0.01172,-7.958985 z m 20.628907,-2.738281 v 1.433594 l 7.492187,0.103515 7.5,0.101563 v 11.583984 c 0,1.080939 -0.0051,1.959399 -0.0098,2.863282 0.01195,-1.24822 0.01758,-2.649802 0.01758,-4.296876 V 31.424334 l -7.5,-0.101562 z" /><path
       id="path2988"
       style="display:inline;opacity:0.5;fill:#002354;fill-opacity:1;stroke-width:2.43;stroke-linecap:round"
       d="M 64.705078 25.863281 C 62.003577 25.84856 57.117432 25.917969 48.072266 25.917969 C 29.848353 25.917969 28.527579 25.687111 27.912109 26.367188 C 27.45643 26.870711 27.432624 28.096135 27.445312 34.742188 C 27.437724 28.963834 27.479677 27.901665 27.912109 27.423828 C 28.527579 26.743752 29.848353 26.976562 48.072266 26.976562 C 66.162598 26.976562 67.615009 26.69492 68.230469 27.375 C 68.524603 27.699996 68.627039 28.267387 68.65625 30.419922 C 68.64083 27.592024 68.558503 26.680812 68.230469 26.318359 C 67.922739 25.978319 67.406579 25.878003 64.705078 25.863281 z M 27.455078 42.363281 L 27.425781 56.488281 C 27.426513 56.489549 27.427002 56.49092 27.427734 56.492188 L 27.455078 42.974609 C 27.455078 42.718784 27.45517 42.610521 27.455078 42.363281 z M 63.072266 43.007812 C 63.072266 55.342018 62.833148 55.495852 60.90625 58.414062 C 59.318712 60.818247 55.718327 64.003457 52.212891 66.775391 C 50.322303 68.270382 48.457102 69.210938 48.320312 69.210938 C 48.183523 69.210938 48.072266 60.662743 48.072266 50.214844 L 48.072266 51.273438 C 48.072266 61.721337 48.183523 70.269531 48.320312 70.269531 C 48.457102 70.269531 50.322303 69.328976 52.212891 67.833984 C 55.718327 65.062051 59.318712 61.874888 60.90625 59.470703 C 62.833148 56.552493 63.072266 56.400612 63.072266 44.066406 L 63.072266 43.007812 z " /><path
       id="path2993"
       style="display:inline;opacity:0.25;fill:#002354;fill-opacity:1;stroke-width:2.43;stroke-linecap:round"
       d="M 64.705078 25.863281 C 62.003577 25.84856 57.117432 25.917969 48.072266 25.917969 C 29.848353 25.917969 28.527579 25.687111 27.912109 26.367188 C 27.446542 26.881638 27.430949 28.236868 27.445312 35.277344 C 27.439253 29.706608 27.483633 28.613884 27.910156 28.142578 C 28.525626 27.462502 29.848353 27.695312 48.072266 27.695312 C 66.162598 27.695312 67.615009 27.41367 68.230469 28.09375 C 68.630582 28.535844 68.669736 29.724817 68.658203 34.443359 C 68.682171 27.99043 68.680827 26.815969 68.230469 26.318359 C 67.922739 25.978319 67.406579 25.878003 64.705078 25.863281 z M 27.453125 42.667969 L 27.425781 56.488281 C 27.426964 56.490329 27.428505 56.492093 27.429688 56.494141 L 27.455078 43.693359 C 27.455078 43.264257 27.453371 43.073061 27.453125 42.667969 z M 63.072266 43.007812 C 63.072266 55.342018 62.833148 55.495852 60.90625 58.414062 C 59.318712 60.818247 55.718327 64.003457 52.212891 66.775391 C 50.322303 68.270382 48.457102 69.210938 48.320312 69.210938 C 48.183523 69.210938 48.072266 60.662743 48.072266 50.214844 L 48.072266 51.992188 C 48.072266 62.440087 48.183523 70.988281 48.320312 70.988281 C 48.457102 70.988281 50.322303 70.047726 52.212891 68.552734 C 55.718327 65.780801 59.318712 62.593638 60.90625 60.189453 C 62.833148 57.271243 63.072266 57.119362 63.072266 44.785156 L 63.072266 43.007812 z " /><path
       id="path3000"
       style="display:inline;opacity:0.1;fill:#002354;fill-opacity:1;stroke-width:2.43;stroke-linecap:round"
       d="M 64.705078 25.863281 C 62.003577 25.84856 57.117432 25.917969 48.072266 25.917969 C 29.848353 25.917969 28.527579 25.687111 27.912109 26.367188 C 27.434308 26.895156 27.429336 28.389398 27.445312 35.939453 C 27.441254 30.617866 27.492879 29.494498 27.912109 29.03125 C 28.527579 28.351174 29.848353 28.582031 48.072266 28.582031 C 66.162598 28.582031 67.615009 28.302342 68.230469 28.982422 C 68.610012 29.401787 68.662791 30.578323 68.658203 34.689453 C 68.682891 28.061221 68.685368 26.820988 68.230469 26.318359 C 67.922739 25.978319 67.406579 25.878003 64.705078 25.863281 z M 63.072266 43.007812 C 63.072266 55.342018 62.833148 55.495852 60.90625 58.414062 C 59.318712 60.818247 55.718327 64.003457 52.212891 66.775391 C 50.322303 68.270382 48.457102 69.210938 48.320312 69.210938 C 48.183523 69.210938 48.072266 60.662743 48.072266 50.214844 L 48.072266 52.878906 C 48.072266 63.326806 48.183523 71.875 48.320312 71.875 C 48.457102 71.875 50.322303 70.934445 52.212891 69.439453 C 55.718327 66.66752 59.318712 63.48231 60.90625 61.078125 C 62.833148 58.159915 63.072266 58.006081 63.072266 45.671875 L 63.072266 43.007812 z M 27.453125 43.042969 L 27.425781 56.488281 C 27.427695 56.491597 27.429726 56.494732 27.431641 56.498047 L 27.455078 44.580078 C 27.455078 43.936676 27.453647 43.632797 27.453125 43.042969 z " /><path
       id="path19707"
       style="display:inline;opacity:0.2;fill:#0039f0;fill-opacity:1;stroke-width:2.43;stroke-linecap:round"
       d="M 64.705078 25.863281 C 62.003577 25.84856 57.117432 25.917969 48.072266 25.917969 C 29.848353 25.917969 28.527579 25.687111 27.912109 26.367188 C 27.32388 27.017179 27.455078 28.590156 27.455078 41.916016 L 27.425781 56.488281 C 32.069407 64.531269 38.18539 70.194093 44.396484 73.605469 C 46.105023 74.522847 47.732272 75.27776 48.013672 75.28125 C 48.295082 75.28465 49.912194 74.565547 51.607422 73.683594 C 59.894554 68.66295 63.804744 64.793228 68.599609 56.488281 L 68.642578 41.916016 C 68.642578 28.58808 68.818738 26.968351 68.230469 26.318359 C 67.922739 25.978319 67.406579 25.878003 64.705078 25.863281 z M 64.699219 26.859375 C 66.037988 26.866665 66.829783 26.900018 67.230469 26.955078 C 67.631153 27.010138 67.491512 26.985582 67.492188 26.986328 C 67.484578 26.977917 67.506284 26.944101 67.558594 27.300781 C 67.610899 27.657463 67.647569 28.315556 67.662109 29.376953 C 67.691189 31.499085 67.646512 35.24765 67.646484 41.912109 L 67.646484 41.916016 L 67.603516 56.197266 C 62.928651 64.241941 59.229483 67.898519 51.113281 72.818359 C 50.295835 73.242716 49.491654 73.630131 48.875 73.904297 C 48.561801 74.043546 48.295008 74.153816 48.109375 74.222656 C 48.07787 74.234333 48.057931 74.234628 48.025391 74.242188 C 48.183283 74.281601 48.322091 74.288835 48.025391 74.285156 C 47.722152 74.281503 47.866202 74.279167 48.025391 74.242188 C 47.990147 74.23339 47.967896 74.232168 47.933594 74.21875 C 47.745617 74.145218 47.474046 74.0292 47.158203 73.882812 C 46.528668 73.591036 45.710507 73.180836 44.875 72.732422 C 38.884635 69.442279 32.961658 63.965696 28.421875 56.189453 L 28.451172 41.917969 A 0.99600433 0.99600433 0 0 1 28.451172 41.916016 C 28.451172 35.249817 28.418864 31.514325 28.458984 29.40625 C 28.479042 28.352212 28.520952 27.702154 28.576172 27.351562 C 28.631392 27.000967 28.649786 27.035824 28.650391 27.035156 C 28.666537 27.017306 28.519456 27.051941 28.90625 26.994141 C 29.293044 26.936332 30.069156 26.896322 31.398438 26.882812 C 34.057 26.855783 38.956104 26.914062 48.072266 26.914062 C 57.122526 26.914062 62.021318 26.844785 64.699219 26.859375 z M 48.085938 30.222656 A 0.99600433 0.99600433 0 0 0 47.076172 31.21875 L 47.076172 50.214844 C 47.076172 55.442329 47.103438 60.19492 47.148438 63.644531 C 47.170937 65.369338 47.198506 66.766432 47.228516 67.742188 C 47.243526 68.230064 47.259854 68.611226 47.277344 68.886719 C 47.286094 69.024465 47.293001 69.131539 47.306641 69.238281 C 47.313461 69.291652 47.31973 69.339774 47.34375 69.433594 C 47.35575 69.480502 47.364214 69.534169 47.427734 69.658203 C 47.443614 69.689211 47.462598 69.726201 47.492188 69.769531 C 47.521773 69.812867 47.620561 69.921355 47.621094 69.921875 C 47.621627 69.922395 47.880326 70.105208 47.880859 70.105469 C 47.881393 70.105729 48.319779 70.207031 48.320312 70.207031 C 48.614181 70.207031 48.621931 70.164551 48.681641 70.144531 C 48.741348 70.124521 48.786968 70.106627 48.835938 70.085938 C 48.933868 70.044563 49.039323 69.993851 49.164062 69.931641 C 49.413544 69.807216 49.73615 69.633243 50.113281 69.412109 C 50.867545 68.969844 51.839501 68.339944 52.830078 67.556641 C 56.366429 64.760261 59.992098 61.607329 61.738281 58.962891 C 62.695726 57.512878 63.37314 56.478838 63.695312 54.394531 C 64.017489 52.310225 64.068359 49.181351 64.068359 43.007812 L 64.068359 31.423828 A 0.99600433 0.99600433 0 0 0 63.085938 30.427734 L 55.585938 30.326172 L 48.085938 30.222656 z M 48.072266 31.21875 L 55.572266 31.322266 L 63.072266 31.423828 L 63.072266 43.007812 C 63.072266 55.342018 62.833148 55.495852 60.90625 58.414062 C 59.318712 60.818247 55.718327 64.003457 52.212891 66.775391 C 50.322303 68.270382 48.457102 69.210938 48.320312 69.210938 C 48.183523 69.210938 48.072266 60.662743 48.072266 50.214844 L 48.072266 31.21875 z " /></g><g
     id="g7190"
     style="display:inline"
     transform="translate(2.5778586,2.216469)"><path
       d="m 70.030384,67.5 a 2.5,2.5 0 0 1 -5,0 2.5,2.5 0 1 1 5,0 z"
       id="path3661-3-3-9"
       style="color:#000000;display:inline;overflow:visible;visibility:visible;fill:#ffffff;fill-opacity:0.196078;fill-rule:nonzero;stroke:none;stroke-width:0.588235;marker:none;enable-background:accumulate"
       inkscape:connector-curvature="0" /><path
       d="m 77.035656,67.497786 a 2.5,2.5 0 0 1 -5,0 2.5,2.5 0 1 1 5,0 z"
       id="path3661-6-5-2"
       style="color:#000000;display:inline;overflow:visible;visibility:visible;fill:#ffffff;fill-opacity:0.196078;fill-rule:nonzero;stroke:none;stroke-width:0.588235;marker:none;enable-background:accumulate"
       inkscape:connector-curvature="0" /><path
       d="m 84.066041,67.498893 a 2.5000005,2.5000005 0 0 1 -5.000001,0 2.5000005,2.5000005 0 1 1 5.000001,0 z"
       id="path3661-3-7-6-2"
       style="color:#000000;display:inline;overflow:visible;visibility:visible;fill:#ffffff;fill-opacity:0.196078;fill-rule:nonzero;stroke:none;stroke-width:0.588235;marker:none;enable-background:accumulate"
       inkscape:connector-curvature="0" /><path
       d="m 35,74.498893 a 2.5,2.5 0 0 1 -5,0 2.5,2.5 0 1 1 5,0 z"
       id="path3661-2-8"
       style="color:#000000;display:inline;overflow:visible;visibility:visible;fill:#ffffff;fill-opacity:0.196078;fill-rule:nonzero;stroke:none;stroke-width:0.588235;marker:none;enable-background:accumulate"
       inkscape:connector-curvature="0" /><path
       d="m 63,74.497786 a 2.5,2.5 0 0 1 -5,0 2.5,2.5 0 1 1 5,0 z"
       id="path3661-5-7-61"
       style="color:#000000;display:inline;overflow:visible;visibility:visible;fill:#ffffff;fill-opacity:0.196078;fill-rule:nonzero;stroke:none;stroke-width:0.588235;marker:none;enable-background:accumulate"
       inkscape:connector-curvature="0" /><path
       d="m 84.066041,74.497786 a 2.5000005,2.5000005 0 0 1 -5.000001,0 2.5000005,2.5000005 0 1 1 5.000001,0 z"
       id="path3661-3-7-6-3-3"
       style="color:#000000;display:inline;overflow:visible;visibility:visible;fill:#ffffff;fill-opacity:0.196078;fill-rule:nonzero;stroke:none;stroke-width:0.588235;marker:none;enable-background:accumulate"
       inkscape:connector-curvature="0" /><path
       d="m 42.030384,81.5 a 2.5,2.5 0 0 1 -5,0 2.5,2.5 0 1 1 5,0 z"
       id="path3661-3-9-0-9"
       style="color:#000000;display:inline;overflow:visible;visibility:visible;fill:#ffffff;fill-opacity:0.196078;fill-rule:nonzero;stroke:none;stroke-width:0.588235;marker:none;enable-background:accumulate"
       inkscape:connector-curvature="0" /><path
       d="m 49.035656,81.497786 a 2.5,2.5 0 0 1 -5,0 2.5,2.5 0 1 1 5,0 z"
       id="path3661-6-1-6-4"
       style="color:#000000;display:inline;overflow:visible;visibility:visible;fill:#ffffff;fill-opacity:0.196078;fill-rule:nonzero;stroke:none;stroke-width:0.588235;marker:none;enable-background:accumulate"
       inkscape:connector-curvature="0" /><path
       d="m 63,81.497786 a 2.5,2.5 0 0 1 -5,0 2.5,2.5 0 1 1 5,0 z"
       id="path3661-5-7-6-8"
       style="color:#000000;display:inline;overflow:visible;visibility:visible;fill:#ffffff;fill-opacity:0.196078;fill-rule:nonzero;stroke:none;stroke-width:0.588235;marker:none;enable-background:accumulate"
       inkscape:connector-curvature="0" /><path
       d="m 70.030384,81.498893 a 2.5,2.5 0 0 1 -5,0 2.5,2.5 0 1 1 5,0 z"
       id="path3661-3-3-0-1-4"
       style="color:#000000;display:inline;overflow:visible;visibility:visible;fill:#ffffff;fill-opacity:0.196078;fill-rule:nonzero;stroke:none;stroke-width:0.588235;marker:none;enable-background:accumulate"
       inkscape:connector-curvature="0" /><path
       d="m 77.035656,81.496679 a 2.5,2.5 0 0 1 -5,0 2.5,2.5 0 1 1 5,0 z"
       id="path3661-6-5-9-8-5"
       style="color:#000000;display:inline;overflow:visible;visibility:visible;fill:#ffffff;fill-opacity:0.196078;fill-rule:nonzero;stroke:none;stroke-width:0.588235;marker:none;enable-background:accumulate"
       inkscape:connector-curvature="0" /><path
       d="m 84.066041,81.497786 a 2.5000005,2.5000005 0 0 1 -5.000001,0 2.5000005,2.5000005 0 1 1 5.000001,0 z"
       id="path3661-3-7-6-3-7-0"
       style="color:#000000;display:inline;overflow:visible;visibility:visible;fill:#ffffff;fill-opacity:0.196078;fill-rule:nonzero;stroke:none;stroke-width:0.588235;marker:none;enable-background:accumulate"
       inkscape:connector-curvature="0" /></g><g
     id="g8780"
     style="display:inline"
     transform="translate(-3.123547,-1.073958)"><path
       d="m 17,14.5 a 2.5,2.5 0 0 1 -5,0 2.5,2.5 0 1 1 5,0 z"
       id="path3661"
       style="color:#000000;display:inline;overflow:visible;visibility:visible;fill:#ffffff;fill-opacity:0.196078;fill-rule:nonzero;stroke:none;stroke-width:0.588235;marker:none;enable-background:accumulate"
       inkscape:connector-curvature="0" /><path
       d="m 24.030384,14.501107 a 2.5,2.5 0 0 1 -5,0 2.5,2.5 0 1 1 5,0 z"
       id="path3661-3"
       style="color:#000000;display:inline;overflow:visible;visibility:visible;fill:#ffffff;fill-opacity:0.196078;fill-rule:nonzero;stroke:none;stroke-width:0.588235;marker:none;enable-background:accumulate"
       inkscape:connector-curvature="0" /><path
       d="m 31.035656,14.498893 a 2.5,2.5 0 0 1 -5,0 2.5,2.5 0 1 1 5,0 z"
       id="path3661-6"
       style="color:#000000;display:inline;overflow:visible;visibility:visible;fill:#ffffff;fill-opacity:0.196078;fill-rule:nonzero;stroke:none;stroke-width:0.588235;marker:none;enable-background:accumulate"
       inkscape:connector-curvature="0" /><path
       d="m 38.06604,14.5 a 2.5,2.5 0 0 1 -5,0 2.5,2.5 0 1 1 5,0 z"
       id="path3661-3-7"
       style="color:#000000;display:inline;overflow:visible;visibility:visible;fill:#ffffff;fill-opacity:0.196078;fill-rule:nonzero;stroke:none;stroke-width:0.588235;marker:none;enable-background:accumulate"
       inkscape:connector-curvature="0" /><path
       d="m 45,14.498893 a 2.5,2.5 0 0 1 -5,0 2.5,2.5 0 1 1 5,0 z"
       id="path3661-5"
       style="color:#000000;display:inline;overflow:visible;visibility:visible;fill:#ffffff;fill-opacity:0.196078;fill-rule:nonzero;stroke:none;stroke-width:0.588235;marker:none;enable-background:accumulate"
       inkscape:connector-curvature="0" /><path
       d="m 59.035656,14.497786 a 2.5,2.5 0 0 1 -5,0 2.5,2.5 0 1 1 5,0 z"
       id="path3661-6-5"
       style="color:#000000;display:inline;overflow:visible;visibility:visible;fill:#ffffff;fill-opacity:0.196078;fill-rule:nonzero;stroke:none;stroke-width:0.588235;marker:none;enable-background:accumulate"
       inkscape:connector-curvature="0" /><path
       d="m 66.06604,14.498893 a 2.5,2.5 0 0 1 -5,0 2.5,2.5 0 1 1 5,0 z"
       id="path3661-3-7-6"
       style="color:#000000;display:inline;overflow:visible;visibility:visible;fill:#ffffff;fill-opacity:0.196078;fill-rule:nonzero;stroke:none;stroke-width:0.588235;marker:none;enable-background:accumulate"
       inkscape:connector-curvature="0" /><path
       d="m 24.030384,21.5 a 2.5,2.5 0 0 1 -5,0 2.5,2.5 0 1 1 5,0 z"
       id="path3661-3-9"
       style="color:#000000;display:inline;overflow:visible;visibility:visible;fill:#ffffff;fill-opacity:0.196078;fill-rule:nonzero;stroke:none;stroke-width:0.588235;marker:none;enable-background:accumulate"
       inkscape:connector-curvature="0" /><path
       d="m 38.06604,21.498893 a 2.5,2.5 0 0 1 -5,0 2.5,2.5 0 1 1 5,0 z"
       id="path3661-3-7-2"
       style="color:#000000;display:inline;overflow:visible;visibility:visible;fill:#ffffff;fill-opacity:0.196078;fill-rule:nonzero;stroke:none;stroke-width:0.588235;marker:none;enable-background:accumulate"
       inkscape:connector-curvature="0" /><path
       d="m 45,21.497786 a 2.5,2.5 0 0 1 -5,0 2.5,2.5 0 1 1 5,0 z"
       id="path3661-5-7"
       style="color:#000000;display:inline;overflow:visible;visibility:visible;fill:#ffffff;fill-opacity:0.196078;fill-rule:nonzero;stroke:none;stroke-width:0.588235;marker:none;enable-background:accumulate"
       inkscape:connector-curvature="0" /><path
       d="m 52.030384,21.498893 a 2.5,2.5 0 0 1 -5,0 2.5,2.5 0 1 1 5,0 z"
       id="path3661-3-3-0"
       style="color:#000000;display:inline;overflow:visible;visibility:visible;fill:#ffffff;fill-opacity:0.196078;fill-rule:nonzero;stroke:none;stroke-width:0.588235;marker:none;enable-background:accumulate"
       inkscape:connector-curvature="0" /><path
       d="m 59.035656,21.496679 a 2.5,2.5 0 0 1 -5,0 2.5,2.5 0 1 1 5,0 z"
       id="path3661-6-5-9"
       style="color:#000000;display:inline;overflow:visible;visibility:visible;fill:#ffffff;fill-opacity:0.196078;fill-rule:nonzero;stroke:none;stroke-width:0.588235;marker:none;enable-background:accumulate"
       inkscape:connector-curvature="0" /></g></svg>
