<?xml version="1.0" encoding="UTF-8" standalone="no"?>
<!-- Created with Inkscape (http://www.inkscape.org/) -->

<svg
   version="1.0"
   width="96"
   height="96"
   id="svg2408"
   sodipodi:docname="bulky.svg"
   inkscape:version="1.2.2 (b0a8486541, 2022-12-01)"
   xml:space="preserve"
   xmlns:inkscape="http://www.inkscape.org/namespaces/inkscape"
   xmlns:sodipodi="http://sodipodi.sourceforge.net/DTD/sodipodi-0.dtd"
   xmlns:xlink="http://www.w3.org/1999/xlink"
   xmlns="http://www.w3.org/2000/svg"
   xmlns:svg="http://www.w3.org/2000/svg"
   xmlns:rdf="http://www.w3.org/1999/02/22-rdf-syntax-ns#"
   xmlns:cc="http://creativecommons.org/ns#"
   xmlns:dc="http://purl.org/dc/elements/1.1/"><sodipodi:namedview
     id="namedview24059"
     pagecolor="#ffffff"
     bordercolor="#000000"
     borderopacity="0.25"
     inkscape:showpageshadow="2"
     inkscape:pageopacity="0.0"
     inkscape:pagecheckerboard="0"
     inkscape:deskcolor="#d1d1d1"
     showgrid="false"
     inkscape:zoom="5.6568542"
     inkscape:cx="58.336309"
     inkscape:cy="37.123106"
     inkscape:current-layer="svg2408" /><defs
     id="defs2410"><linearGradient
       inkscape:collect="always"
       id="linearGradient39719"><stop
         style="stop-color:#ffffff;stop-opacity:1;"
         offset="0.37820512"
         id="stop39715" /><stop
         style="stop-color:#ffffff;stop-opacity:1;"
         offset="1"
         id="stop39717" /></linearGradient><linearGradient
       inkscape:collect="always"
       id="linearGradient35765"><stop
         style="stop-color:#3476d1;stop-opacity:1;"
         offset="0"
         id="stop35761" /><stop
         style="stop-color:#3476d1;stop-opacity:0;"
         offset="1"
         id="stop35763" /></linearGradient><linearGradient
       inkscape:collect="always"
       id="linearGradient32366"><stop
         style="stop-color:#559614;stop-opacity:0.97254908;"
         offset="0"
         id="stop32362" /><stop
         style="stop-color:#8fe23c;stop-opacity:0.99607843;"
         offset="1"
         id="stop32364" /></linearGradient><linearGradient
       id="linearGradient3729"><stop
         id="stop3731"
         style="stop-color:#1c59ad;stop-opacity:1"
         offset="0" /><stop
         id="stop3733"
         style="stop-color:#377ad6;stop-opacity:1"
         offset="1" /></linearGradient><linearGradient
       x1="45.447727"
       y1="92.539597"
       x2="45.447727"
       y2="7.0165396"
       id="ButtonShadow"
       gradientUnits="userSpaceOnUse"
       gradientTransform="scale(1.0058652,0.994169)"><stop
         id="stop3750"
         style="stop-color:#000000;stop-opacity:1"
         offset="0" /><stop
         id="stop3752"
         style="stop-color:#000000;stop-opacity:0.58823532"
         offset="1" /></linearGradient><linearGradient
       id="linearGradient3737"><stop
         id="stop3739"
         style="stop-color:#ffffff;stop-opacity:1"
         offset="0" /><stop
         id="stop3741"
         style="stop-color:#ffffff;stop-opacity:0"
         offset="1" /></linearGradient><linearGradient
       id="linearGradient3700"><stop
         id="stop3702"
         style="stop-color:#e6e6e6;stop-opacity:1"
         offset="0" /><stop
         id="stop3704"
         style="stop-color:#f5f5f5;stop-opacity:1"
         offset="1" /></linearGradient><linearGradient
       x1="48"
       y1="90"
       x2="48"
       y2="5.9877172"
       id="linearGradient3706"
       xlink:href="#linearGradient3700"
       gradientUnits="userSpaceOnUse" /><filter
       color-interpolation-filters="sRGB"
       id="filter3174"
       x="-0.047720931"
       y="-0.048282354"
       width="1.0954419"
       height="1.0965647"><feGaussianBlur
         stdDeviation="1.71"
         id="feGaussianBlur3176" /></filter><linearGradient
       x1="36.357143"
       y1="6"
       x2="36.357143"
       y2="63.893143"
       id="linearGradient3188"
       xlink:href="#linearGradient3737"
       gradientUnits="userSpaceOnUse" /><linearGradient
       x1="45.447727"
       y1="92.539597"
       x2="45.447727"
       y2="7.0165396"
       id="ButtonShadow-0"
       gradientUnits="userSpaceOnUse"
       gradientTransform="matrix(1.0058652,0,0,0.994169,100,0)"><stop
         id="stop3750-8"
         style="stop-color:#000000;stop-opacity:1"
         offset="0" /><stop
         id="stop3752-5"
         style="stop-color:#000000;stop-opacity:0.58823532"
         offset="1" /></linearGradient><linearGradient
       x1="32.251034"
       y1="6.1317081"
       x2="32.251034"
       y2="90.238609"
       id="linearGradient3780"
       xlink:href="#ButtonShadow-0"
       gradientUnits="userSpaceOnUse"
       gradientTransform="matrix(1.0238095,0,0,1.0119048,-1.1428571,-98.071429)" /><linearGradient
       x1="32.251034"
       y1="6.1317081"
       x2="32.251034"
       y2="90.238609"
       id="linearGradient3772"
       xlink:href="#ButtonShadow-0"
       gradientUnits="userSpaceOnUse"
       gradientTransform="matrix(1.0238095,0,0,1.0119048,-1.1428571,-98.071429)" /><linearGradient
       x1="32.251034"
       y1="6.1317081"
       x2="32.251034"
       y2="90.238609"
       id="linearGradient3725"
       xlink:href="#ButtonShadow-0"
       gradientUnits="userSpaceOnUse"
       gradientTransform="matrix(1.0238095,0,0,1.0119048,-1.1428571,-98.071429)" /><linearGradient
       x1="32.251034"
       y1="6.1317081"
       x2="32.251034"
       y2="90.238609"
       id="linearGradient3721"
       xlink:href="#ButtonShadow-0"
       gradientUnits="userSpaceOnUse"
       gradientTransform="translate(0,-97)" /><linearGradient
       x1="32.251034"
       y1="6.1317081"
       x2="32.251034"
       y2="90.238609"
       id="linearGradient3760"
       xlink:href="#ButtonShadow-0"
       gradientUnits="userSpaceOnUse"
       gradientTransform="matrix(1.0238095,0,0,1.0119048,-1.1428571,-98.071429)" /><linearGradient
       id="linearGradient3737-0"><stop
         id="stop3739-6"
         style="stop-color:#ffffff;stop-opacity:1"
         offset="0" /><stop
         id="stop3741-0"
         style="stop-color:#ffffff;stop-opacity:0"
         offset="1" /></linearGradient><radialGradient
       cx="48"
       cy="90.171875"
       r="42"
       fx="48"
       fy="90.171875"
       id="radialGradient2903"
       xlink:href="#linearGradient3737-0"
       gradientUnits="userSpaceOnUse"
       gradientTransform="matrix(1.1573129,0,0,0.99590774,-7.551021,0.1971319)" /><clipPath
       id="clipPath3782"><path
         d="m -98,6 c -3.324,0 -6,2.676 -6,6 l 0,72 c 0,3.324 2.676,6 6,6 l 72,0 c 3.324,0 6,-2.676 6,-6 l 0,-72 c 0,-3.324 -2.676,-6 -6,-6 l -72,0 z m 59.0625,12 C -38.336494,17.9909 -38,18.03125 -38,18.03125 l 0,12.0625 C -50.051065,30.305506 -53,42.0625 -53,42.0625 l 9.0625,0 0,12.0625 -14.09375,0 C -66.507844,80.276885 -86,77.9375 -86,77.9375 l 0,-12.0625 c 0,0 12.376145,2.298313 18.6875,-20.75 6.908061,-25.227422 24.167961,-27.061294 28.375,-27.125 z"
         inkscape:connector-curvature="0"
         id="path3784"
         style="fill:#ff00ff;fill-opacity:1;fill-rule:nonzero;stroke:none" /></clipPath><filter
       x="-0.18283333"
       y="-0.14622227"
       width="1.3656667"
       height="1.2924143"
       color-interpolation-filters="sRGB"
       id="filter3786"><feGaussianBlur
         id="feGaussianBlur3788"
         stdDeviation="3.24" /></filter><linearGradient
       x1="46.906918"
       y1="75.471306"
       x2="46.906918"
       y2="36.246487"
       id="linearGradient3745"
       xlink:href="#linearGradient3729"
       gradientUnits="userSpaceOnUse"
       gradientTransform="translate(-2)" /><linearGradient
       id="linearGradient3737-9"><stop
         id="stop3739-2"
         style="stop-color:#ffffff;stop-opacity:1"
         offset="0" /><stop
         id="stop3741-1"
         style="stop-color:#ffffff;stop-opacity:0"
         offset="1" /></linearGradient><clipPath
       id="clipPath3613"><rect
         width="84"
         height="84"
         rx="6"
         ry="6"
         x="6"
         y="6"
         id="rect3615"
         style="fill:#ffffff;fill-opacity:1;fill-rule:nonzero;stroke:none" /></clipPath><filter
       x="-0.19578789"
       y="-0.19578789"
       width="1.3915758"
       height="1.3915758"
       color-interpolation-filters="sRGB"
       id="filter3794"><feGaussianBlur
         id="feGaussianBlur3796"
         stdDeviation="5.28" /></filter><linearGradient
       x1="48"
       y1="20.220806"
       x2="48"
       y2="138.66119"
       id="linearGradient4186"
       xlink:href="#linearGradient3737-9"
       gradientUnits="userSpaceOnUse" /><linearGradient
       inkscape:collect="always"
       xlink:href="#linearGradient32366"
       id="linearGradient32368"
       x1="52.75"
       y1="90.75"
       x2="52.75"
       y2="5.125"
       gradientUnits="userSpaceOnUse" /><linearGradient
       inkscape:collect="always"
       xlink:href="#linearGradient35765"
       id="linearGradient35767"
       x1="12.392578"
       y1="47.761719"
       x2="82.439453"
       y2="47.761719"
       gradientUnits="userSpaceOnUse" /><linearGradient
       inkscape:collect="always"
       xlink:href="#linearGradient39719"
       id="linearGradient38394"
       gradientUnits="userSpaceOnUse"
       x1="55.039066"
       y1="76.48793"
       x2="55.039066"
       y2="18.416788" /><clipPath
       id="clipPath3613-1"><rect
         width="84"
         height="84"
         rx="6"
         ry="6"
         x="6"
         y="6"
         id="rect3615-2"
         style="fill:#ffffff;fill-opacity:1;fill-rule:nonzero;stroke:none" /></clipPath><filter
       x="-0.19578789"
       y="-0.19578789"
       width="1.3915758"
       height="1.3915758"
       color-interpolation-filters="sRGB"
       id="filter3794-9"><feGaussianBlur
         id="feGaussianBlur3796-3"
         stdDeviation="5.28" /></filter><radialGradient
       cx="48"
       cy="48"
       r="42"
       fx="48"
       fy="48"
       id="radialGradient3988"
       xlink:href="#linearGradient3982"
       gradientUnits="userSpaceOnUse"
       gradientTransform="matrix(1.7161502,0,1.3855817e-8,1.7387599,-34.369354,-34.341334)" /><linearGradient
       id="linearGradient3982"><stop
         id="stop3984"
         style="stop-color:#d5e9af;stop-opacity:1;"
         offset="0" /><stop
         id="stop3986"
         style="stop-color:#d5e9af;stop-opacity:1;"
         offset="1" /></linearGradient></defs><metadata
     id="metadata2413"><rdf:RDF><cc:Work
         rdf:about=""><dc:format>image/svg+xml</dc:format><dc:type
           rdf:resource="http://purl.org/dc/dcmitype/StillImage" /></cc:Work></rdf:RDF></metadata><g
     id="layer7"
     style="display:inline"><path
       d="m 12,-95.03125 c -5.5110903,0 -10.03125,4.52016 -10.03125,10.03125 l 0,71 c 0,5.5110902 4.5201598,10.03125 10.03125,10.03125 l 72,0 c 5.51109,0 10.03125,-4.5201597 10.03125,-10.03125 l 0,-71 c 0,-5.51109 -4.52016,-10.03125 -10.03125,-10.03125 l -72,0 z"
       transform="scale(1,-1)"
       id="path3786"
       style="opacity:0.07999998;fill:url(#linearGradient3760);fill-opacity:1;fill-rule:nonzero;stroke:none;display:inline" /><path
       d="m 12,-94.03125 c -4.971633,0 -9.03125,4.059617 -9.03125,9.03125 l 0,71 c 0,4.9716329 4.0596171,9.03125 9.03125,9.03125 l 72,0 c 4.971633,0 9.03125,-4.059617 9.03125,-9.03125 l 0,-71 c 0,-4.971633 -4.059617,-9.03125 -9.03125,-9.03125 l -72,0 z"
       transform="scale(1,-1)"
       id="path3778"
       style="opacity:0.1;fill:url(#linearGradient3780);fill-opacity:1;fill-rule:nonzero;stroke:none;display:inline" /><path
       d="m 12,-93 c -4.4091333,0 -8,3.590867 -8,8 l 0,71 c 0,4.4091333 3.5908667,8 8,8 l 72,0 c 4.409133,0 8,-3.5908667 8,-8 l 0,-71 c 0,-4.409133 -3.590867,-8 -8,-8 l -72,0 z"
       transform="scale(1,-1)"
       id="path3770"
       style="opacity:0.2;fill:url(#linearGradient3772);fill-opacity:1;fill-rule:nonzero;stroke:none;display:inline" /><rect
       width="86"
       height="85"
       rx="7"
       ry="7"
       x="5"
       y="-92"
       transform="scale(1,-1)"
       id="rect3723"
       style="opacity:0.3;fill:url(#linearGradient3725);fill-opacity:1;fill-rule:nonzero;stroke:none;display:inline" /><rect
       width="84"
       height="84"
       rx="6"
       ry="6"
       x="6"
       y="-91"
       transform="scale(1,-1)"
       id="rect3716"
       style="opacity:0.45;fill:url(#linearGradient3721);fill-opacity:1;fill-rule:nonzero;stroke:none;display:inline" /></g><g
     id="layer1"
     style="display:inline"><rect
       width="84"
       height="84"
       rx="6"
       ry="6"
       x="6"
       y="6"
       id="rect2419"
       style="fill:url(#linearGradient32368);fill-opacity:1;fill-rule:nonzero;stroke:none" /><path
       d="M 12,6 C 8.676,6 6,8.676 6,12 v 2 68 2 c 0,0.334721 0.04135,0.6507 0.09375,0.96875 0.0487,0.295596 0.09704,0.596915 0.1875,0.875 0.00988,0.03038 0.020892,0.0636 0.03125,0.09375 0.098865,0.287771 0.2348802,0.547452 0.375,0.8125 0.1445918,0.273507 0.3156161,0.535615 0.5,0.78125 0.1843839,0.245635 0.3737765,0.473472 0.59375,0.6875 0.439947,0.428056 0.94291,0.814526 1.5,1.09375 0.278545,0.139612 0.5734731,0.246947 0.875,0.34375 -0.2562018,-0.100222 -0.4867109,-0.236272 -0.71875,-0.375 -0.00741,-0.0044 -0.023866,0.0045 -0.03125,0 -0.031933,-0.0193 -0.062293,-0.04251 -0.09375,-0.0625 -0.120395,-0.0767 -0.2310226,-0.163513 -0.34375,-0.25 -0.1061728,-0.0808 -0.2132809,-0.161112 -0.3125,-0.25 C 8.4783201,88.557317 8.3087904,88.373362 8.15625,88.1875 8.0486711,88.057245 7.9378561,87.922215 7.84375,87.78125 7.818661,87.74287 7.805304,87.69538 7.78125,87.65625 7.716487,87.553218 7.6510225,87.451733 7.59375,87.34375 7.4927417,87.149044 7.3880752,86.928049 7.3125,86.71875 7.30454,86.69694 7.288911,86.6782 7.28125,86.65625 7.2494249,86.5643 7.2454455,86.469419 7.21875,86.375 7.1884177,86.268382 7.1483606,86.171969 7.125,86.0625 7.0521214,85.720988 7,85.364295 7,85 V 83 15 13 C 7,10.218152 9.2181517,8 12,8 h 2 68 2 c 2.781848,0 5,2.218152 5,5 v 2 68 2 c 0,0.364295 -0.05212,0.720988 -0.125,1.0625 -0.04415,0.206893 -0.08838,0.397658 -0.15625,0.59375 -0.0077,0.02195 -0.0233,0.04069 -0.03125,0.0625 -0.06274,0.173739 -0.138383,0.367449 -0.21875,0.53125 -0.04158,0.0828 -0.07904,0.169954 -0.125,0.25 -0.0546,0.09721 -0.126774,0.18835 -0.1875,0.28125 -0.09411,0.140965 -0.204921,0.275995 -0.3125,0.40625 -0.143174,0.17445 -0.303141,0.346998 -0.46875,0.5 -0.01117,0.0102 -0.01998,0.02115 -0.03125,0.03125 -0.138386,0.125556 -0.285091,0.234436 -0.4375,0.34375 -0.102571,0.07315 -0.204318,0.153364 -0.3125,0.21875 -0.0074,0.0045 -0.02384,-0.0044 -0.03125,0 -0.232039,0.138728 -0.462548,0.274778 -0.71875,0.375 0.301527,-0.0968 0.596455,-0.204138 0.875,-0.34375 0.55709,-0.279224 1.060053,-0.665694 1.5,-1.09375 0.219973,-0.214028 0.409366,-0.441865 0.59375,-0.6875 0.184384,-0.245635 0.355408,-0.507743 0.5,-0.78125 0.14012,-0.265048 0.276135,-0.524729 0.375,-0.8125 0.01041,-0.03078 0.02133,-0.06274 0.03125,-0.09375 0.09046,-0.278085 0.1388,-0.579404 0.1875,-0.875 C 89.95865,84.6507 90,84.334721 90,84 V 82 14 12 C 90,8.676 87.324,6 84,6 Z"
       inkscape:connector-curvature="0"
       id="rect3728"
       style="opacity:0.5;fill:url(#linearGradient3188);fill-opacity:1;fill-rule:nonzero;stroke:none" /><path
       d="M 12,90 C 8.676,90 6,87.324 6,84 V 82 14 12 c 0,-0.334721 0.04135,-0.6507 0.09375,-0.96875 0.0487,-0.295596 0.09704,-0.596915 0.1875,-0.875 C 6.29113,10.12587 6.302142,10.09265 6.3125,10.0625 6.411365,9.774729 6.5473802,9.515048 6.6875,9.25 6.8320918,8.976493 7.0031161,8.714385 7.1875,8.46875 7.3718839,8.223115 7.5612765,7.995278 7.78125,7.78125 8.221197,7.353194 8.72416,6.966724 9.28125,6.6875 9.559795,6.547888 9.8547231,6.440553 10.15625,6.34375 9.9000482,6.443972 9.6695391,6.580022 9.4375,6.71875 c -0.00741,0.0044 -0.023866,-0.0045 -0.03125,0 -0.031933,0.0193 -0.062293,0.04251 -0.09375,0.0625 -0.120395,0.0767 -0.2310226,0.163513 -0.34375,0.25 -0.1061728,0.0808 -0.2132809,0.161112 -0.3125,0.25 C 8.4783201,7.442683 8.3087904,7.626638 8.15625,7.8125 8.0486711,7.942755 7.9378561,8.077785 7.84375,8.21875 7.818661,8.25713 7.805304,8.30462 7.78125,8.34375 7.716487,8.446782 7.6510225,8.548267 7.59375,8.65625 7.4927417,8.850956 7.3880752,9.071951 7.3125,9.28125 7.30454,9.30306 7.288911,9.3218 7.28125,9.34375 7.2494249,9.4357 7.2454455,9.530581 7.21875,9.625 7.1884177,9.731618 7.1483606,9.828031 7.125,9.9375 7.0521214,10.279012 7,10.635705 7,11 v 2 68 2 c 0,2.781848 2.2181517,5 5,5 h 2 68 2 c 2.781848,0 5,-2.218152 5,-5 V 81 13 11 C 89,10.635705 88.94788,10.279012 88.875,9.9375 88.83085,9.730607 88.78662,9.539842 88.71875,9.34375 88.71105,9.3218 88.69545,9.30306 88.6875,9.28125 88.62476,9.107511 88.549117,8.913801 88.46875,8.75 88.42717,8.6672 88.38971,8.580046 88.34375,8.5 88.28915,8.40279 88.216976,8.31165 88.15625,8.21875 88.06214,8.077785 87.951329,7.942755 87.84375,7.8125 87.700576,7.63805 87.540609,7.465502 87.375,7.3125 87.36383,7.3023 87.35502,7.29135 87.34375,7.28125 87.205364,7.155694 87.058659,7.046814 86.90625,6.9375 86.803679,6.86435 86.701932,6.784136 86.59375,6.71875 c -0.0074,-0.0045 -0.02384,0.0044 -0.03125,0 -0.232039,-0.138728 -0.462548,-0.274778 -0.71875,-0.375 0.301527,0.0968 0.596455,0.204138 0.875,0.34375 0.55709,0.279224 1.060053,0.665694 1.5,1.09375 0.219973,0.214028 0.409366,0.441865 0.59375,0.6875 0.184384,0.245635 0.355408,0.507743 0.5,0.78125 0.14012,0.265048 0.276135,0.524729 0.375,0.8125 0.01041,0.03078 0.02133,0.06274 0.03125,0.09375 0.09046,0.278085 0.1388,0.579404 0.1875,0.875 C 89.95865,11.3493 90,11.665279 90,12 v 2 68 2 c 0,3.324 -2.676,6 -6,6 z"
       inkscape:connector-curvature="0"
       id="path3615"
       style="display:inline;opacity:0.3;fill:url(#radialGradient2903);fill-opacity:1;fill-rule:nonzero;stroke:none" /><path
       d="M 20.880859,7.1191404 46.662109,47.775391 6.005859,21.619141 v 18.5 l 40.21875,9 -40.21875,8.75 v 18.375 l 40.65625,-25.78125 -26.15625,40.65625 h 18.5 l 9,-40.21875 8.75,40.21875 h 18.375 l -25.78125,-40.65625 40.65625,26.15625 v -18.5 l -40.21875,-9 40.21875,-8.75 v -18.375 l -40.65625,25.78125 26.15625,-40.6562506 h -18.5 l -9,40.2187506 -8.75,-40.2187506 z"
       inkscape:connector-curvature="0"
       id="path4141"
       style="display:inline;opacity:0.09848485;fill:url(#radialGradient3988);fill-opacity:1;stroke:none" /></g><g
     id="g32374"
     transform="matrix(0.80629592,0,0,0.77492053,9.183737,10.690837)"
     style="fill:url(#linearGradient35767);fill-opacity:1"><path
       id="path78732"
       style="display:inline;opacity:0.3;fill:#ffffff;fill-opacity:1;stroke-width:5.51669;stroke-linecap:round"
       d="m 47.475687,19.140185 v 4.250722 h 10.51108 V 73.635135 H 47.79569 v 4.250721 H 73.08112 V 73.635135 H 62.422943 V 23.390907 H 72.761119 V 19.140185 Z M 64.98039,34.029617 V 37.78041 H 78.319888 V 58.89912 H 64.977811 v 4.242788 h 15.133063 c 0,0 2.345831,-0.128731 2.345831,-2.534034 V 36.809647 c 0,-2.629892 -2.183943,-2.78003 -2.103248,-2.78003 z m -9.889136,0.436445 -40.4314,0.008 c 0,0 -2.294217,-0.165814 -2.294217,2.777384 v 23.800833 c 0,2.405303 2.345831,2.531388 2.345831,2.531388 H 55.096413 V 59.343502 H 16.502456 V 38.224791 H 55.098994 Z M 23.00833,44.938129 v 7.541264 h 24.524132 v -7.541264 z"
       inkscape:label="light" /><path
       id="path32235"
       style="display:inline;opacity:1;fill:url(#linearGradient38394);fill-opacity:1;stroke-width:5.48583;stroke-linecap:round"
       d="m 47.480492,18.698243 v 4.205953 H 57.984944 V 72.619244 H 47.800293 v 4.205952 H 73.069781 V 72.619244 H 62.418323 V 22.904196 h 10.331656 v -4.205953 z m 17.493666,14.732614 v 3.711289 H 78.305244 V 58.038431 H 64.971579 v 4.198102 H 80.0951 c 0,0 2.344353,-0.127375 2.344353,-2.507345 v -23.54758 c 0,-2.602194 -2.182565,-2.750751 -2.101922,-2.750751 z m -9.882903,0.431849 -40.405906,0.0079 c 0,0 -2.292771,-0.164068 -2.292771,2.748133 v 23.550197 c 0,2.534647 1.858217,2.504727 2.344353,2.504727 H 55.096413 V 58.478132 H 16.526789 V 37.581847 H 55.098992 Z M 23.028562,44.224479 v 7.461838 H 47.53723 v -7.461838 z"
       inkscape:label="base"
       sodipodi:nodetypes="ccccccccccccccccccccssccccsscccccccccccc" /><path
       id="path75822"
       style="display:inline;opacity:0.15;fill:#3b6412;fill-opacity:1;stroke-width:5.48583;stroke-linecap:round"
       d="m 47.480469,18.698243 v 4.205078 H 57.984375 V 72.620118 H 47.800781 v 4.205078 H 73.070312 V 72.620118 H 62.417969 V 22.903321 H 72.75 v -4.205078 z m 0.875,0.875 H 71.875 v 2.455078 h -9.457031 c -0.483229,4.8e-5 -0.874952,0.391771 -0.875,0.875 v 50.371094 c 2.3e-5,0.23323 -0.0067,0.218724 0.25,0.21875 h 10.402343 v 2.457031 H 48.675781 v -2.457031 h 9.894531 c 0.303562,0 0.28904,0.0067 0.289063,-0.226562 V 22.903321 c -4.8e-5,-0.483229 -0.391771,-0.874952 -0.875,-0.875 h -9.628906 z m 16.61914,13.857422 v 3.710938 H 78.304688 V 58.038087 H 64.970703 v 4.199219 h 15.125 c 0,0 2.34375,-0.127845 2.34375,-2.507813 V 36.180665 c 0,-2.602191 -2.182205,-2.75 -2.101562,-2.75 z m -9.882812,0.431641 -40.40625,0.0078 c 0,0 -2.292969,-0.164151 -2.292969,2.748047 v 23.550781 c 0,2.770593 2.34375,2.503907 2.34375,2.503907 H 55.095703 V 58.47754 H 16.527344 V 37.581056 h 38.572265 z m 10.757812,0.443359 h 14.41211 c 0.02954,0.0053 0.07331,0.01446 0.132812,0.03125 0.126036,0.03556 0.305443,0.102362 0.47461,0.216797 0.338331,0.228869 0.695312,0.570449 0.695312,1.626953 V 59.72754 c 0,0.902756 -0.336776,1.163646 -0.726562,1.382813 -0.386881,0.217532 -0.777294,0.249529 -0.783203,0.25 H 65.845703 v -2.447266 h 12.990235 c 0.319163,-3.2e-5 0.343721,-0.009 0.34375,-0.296875 V 36.680666 c 0,-0.381985 -0.01287,-0.414028 -0.367188,-0.414063 H 65.849609 Z m -11.630859,0.431641 0.0039,1.96875 H 16.011719 c -0.366042,3.6e-5 -0.359375,0.02451 -0.359375,0.40625 v 21.884516 c 3.2e-5,0.317501 -4.49e-4,0.355684 0.34467,0.355718 h 38.223689 v 2.445313 H 14.777344 c -0.0059,-4.66e-4 -0.39848,-0.03095 -0.785156,-0.248047 -0.389578,-0.218724 -0.72461,-0.480057 -0.72461,-1.382813 V 36.618165 c 0,-1.226451 0.372894,-1.518161 0.701172,-1.703125 0.328278,-0.184965 0.654297,-0.171875 0.654297,-0.171875 0.0208,0.0014 0.04165,0.0021 0.0625,0.002 z m -31.189453,9.486328 v 7.46289 h 24.507812 v -7.46289 z m 0.875,0.875 h 22.757812 v 5.710937 H 23.904297 Z"
       inkscape:label="inner"
       sodipodi:nodetypes="cccccccccccccccccccccccccccccccccccccssccccsscccccccccsssssccccccccccccccccccssssccccccccccccc" /><path
       id="path81645"
       style="display:inline;opacity:0.4;fill:#3b6412;fill-opacity:1;stroke-width:5.48583;stroke-linecap:round"
       inkscape:label="inner2"
       transform="matrix(1.008088,0,0,1,-0.53975405,0.21875)"
       d="m 47.634974,18.479493 v 4.205953 H 58.055148 V 72.400494 H 47.95221 v 4.205952 h 25.066748 v -4.205952 h -10.566 V 22.685446 h 10.248764 v -4.205953 z m 0.643776,0.954101 h 23.782568 v 2.845703 H 61.792969 v 50.744758 l 10.712336,0.01733 v 3.175412 H 48.381288 v -3.175412 l 10.228087,-0.02838 V 22.31836 L 48.27875,22.279297 Z m 16.709537,13.778513 v 3.711289 H 78.212416 V 57.819681 H 64.985728 v 4.198102 h 15.002184 c 1.535461,-0.146737 2.366973,-1.217601 2.325544,-2.507345 V 36.173829 c 0.07898,-1.473202 -0.626057,-2.727235 -2.085058,-2.961722 z m 0.631164,0.844534 h 14.642268 c 0.661598,0.06774 1.041422,0.40385 1.302732,0.882807 0.155774,0.291407 0.25,0.685778 0.25,1.242188 v 23.546875 c 0,0.482465 -0.09259,0.828586 -0.257812,1.083984 -0.165222,0.255398 -0.390683,0.4023 -0.595703,0.517578 -0.440383,0.247614 -0.856437,0.278836 -0.886719,0.28125 -0.0065,2.54e-4 -0.01302,2.54e-4 -0.01953,0 H 65.615545 V 58.46162 l 13.097148,7.48e-4 -0.05926,-21.94479 H 65.619451 Z m -10.434776,-0.412685 -40.27514,0.01077 c -1.722208,0.144926 -2.169951,1.661378 -2.08096,2.977067 v 23.318389 c 0,1.893648 1.024342,2.537877 2.325544,2.504731 l 40.035673,-4e-6 V 58.259382 H 16.929616 c 5.51e-4,-5.92e-4 0,-20.896285 0,-20.896285 H 55.19235 Z m -0.640433,0.844327 0.0039,2.46875 -37.999164,-0.07658 V 58.870946 L 54.56046,58.816256 V 62.04883 L 14.734204,62 c -1.018179,-0.228107 -1.42079,-0.951304 -1.453125,-1.832031 V 36.619141 c 0,-1.301815 0.466958,-2.123 1.668004,-2.123 z m -31.165017,9.517446 -0.0094,7.461838 h 24.321471 l -9e-6,-7.461838 z m 23.886819,0.622909 v 6.431909 H 23.811433 l 0.0021,-6.40746 z"
       sodipodi:nodetypes="ccccccccccccccccccccccccccccccccccccccccsssscccccccccccccccccccccccccccccccccccccccc" /><path
       id="path80188"
       style="display:inline;opacity:0.5;fill:#3b6412;fill-opacity:1;stroke-width:5.48583;stroke-linecap:round"
       inkscape:label="shadow"
       d="m 47.480469,18.698243 v 0.464844 H 72.75 v -0.464844 z m 17.49414,14.732422 v 0.464844 h 15.363282 c -0.08064,0 2.101562,0.147808 2.101562,2.75 v -0.464844 c 0,-2.602191 -2.182205,-2.75 -2.101562,-2.75 z m -9.882812,0.431641 -40.40625,0.0078 c 0,0 -2.292969,-0.164151 -2.292969,2.748047 v 0.464844 c 0,-2.912198 2.292969,-2.748047 2.292969,-2.748047 l 40.40625,-0.0078 z m 0,0.464843 0.0059,3.253907 h 0.002 z m -32.0625,9.896485 v 0.464844 h 24.507812 v -0.464844 z m 41.941406,13.814453 v 0.464844 H 78.304688 V 58.038087 Z M 16.527344,58.47754 v 0.464844 H 55.095703 V 58.47754 Z m 31.273437,14.142578 v 0.462891 h 10.183594 v -0.462891 z m 14.617188,0 v 0.462891 h 10.652343 v -0.462891 z" /></g><rect
     width="66"
     height="66"
     rx="12"
     ry="12"
     x="15"
     y="15"
     clip-path="url(#clipPath3613-1)"
     id="rect3171"
     style="display:none;opacity:0.1;fill:#69ffff;fill-opacity:1;fill-rule:nonzero;stroke:#ffffff;stroke-width:0.5;stroke-linecap:round;stroke-linejoin:miter;stroke-miterlimit:4;stroke-dasharray:none;stroke-dashoffset:0;stroke-opacity:1;filter:url(#filter3794-9)"
     inkscape:label="highlight" /></svg>
