<?xml version="1.0" encoding="UTF-8" standalone="no"?>
<!-- Created with Inkscape (http://www.inkscape.org/) -->

<svg
   version="1.0"
   width="96"
   height="96"
   id="svg2408"
   sodipodi:docname="manager.svg"
   xml:space="preserve"
   inkscape:version="1.4.1 (93de688d07, 2025-03-30)"
   xmlns:inkscape="http://www.inkscape.org/namespaces/inkscape"
   xmlns:sodipodi="http://sodipodi.sourceforge.net/DTD/sodipodi-0.dtd"
   xmlns:xlink="http://www.w3.org/1999/xlink"
   xmlns="http://www.w3.org/2000/svg"
   xmlns:svg="http://www.w3.org/2000/svg"
   xmlns:rdf="http://www.w3.org/1999/02/22-rdf-syntax-ns#"
   xmlns:cc="http://creativecommons.org/ns#"
   xmlns:dc="http://purl.org/dc/elements/1.1/"><sodipodi:namedview
     id="namedview1"
     pagecolor="#ffffff"
     bordercolor="#000000"
     borderopacity="0.25"
     inkscape:showpageshadow="2"
     inkscape:pageopacity="0.0"
     inkscape:pagecheckerboard="0"
     inkscape:deskcolor="#d1d1d1"
     inkscape:zoom="6.1510417"
     inkscape:cx="13.249788"
     inkscape:cy="53.893311"
     inkscape:window-width="2544"
     inkscape:window-height="1374"
     inkscape:window-x="16"
     inkscape:window-y="1440"
     inkscape:window-maximized="0"
     inkscape:current-layer="svg2408" /><defs
     id="defs2410"><linearGradient
       id="linearGradient15"><stop
         id="stop14"
         style="stop-color:#2071c5;stop-opacity:1;"
         offset="0" /><stop
         id="stop15"
         style="stop-color:#53afe4;stop-opacity:1;"
         offset="1" /></linearGradient><linearGradient
       x1="45.447727"
       y1="92.539597"
       x2="45.447727"
       y2="7.0165396"
       id="ButtonShadow"
       gradientUnits="userSpaceOnUse"
       gradientTransform="scale(1.0058652,0.994169)"><stop
         id="stop3750"
         style="stop-color:#000000;stop-opacity:1"
         offset="0" /><stop
         id="stop3752"
         style="stop-color:#000000;stop-opacity:0.58823532"
         offset="1" /></linearGradient><linearGradient
       id="linearGradient3737"><stop
         id="stop3739"
         style="stop-color:#ffffff;stop-opacity:1"
         offset="0" /><stop
         id="stop3741"
         style="stop-color:#ffffff;stop-opacity:0"
         offset="1" /></linearGradient><filter
       color-interpolation-filters="sRGB"
       id="filter3174"
       x="-0.047720931"
       y="-0.048282354"
       width="1.0954419"
       height="1.0965647"><feGaussianBlur
         id="feGaussianBlur3176"
         stdDeviation="1.71" /></filter><linearGradient
       x1="36.357143"
       y1="6"
       x2="36.357143"
       y2="63.893143"
       id="linearGradient3188"
       xlink:href="#linearGradient3737"
       gradientUnits="userSpaceOnUse" /><filter
       x="-0.19578789"
       y="-0.19578789"
       width="1.3915758"
       height="1.3915758"
       color-interpolation-filters="sRGB"
       id="filter3794"><feGaussianBlur
         id="feGaussianBlur3796"
         stdDeviation="5.28" /></filter><linearGradient
       x1="48"
       y1="20.220806"
       x2="48"
       y2="138.66119"
       id="linearGradient3613"
       xlink:href="#linearGradient3737"
       gradientUnits="userSpaceOnUse" /><radialGradient
       cx="48"
       cy="90.171875"
       r="42"
       fx="48"
       fy="90.171875"
       id="radialGradient3619"
       xlink:href="#linearGradient3737"
       gradientUnits="userSpaceOnUse"
       gradientTransform="matrix(1.1573129,0,0,0.99590774,-7.5510206,0.19713193)" /><clipPath
       id="clipPath3613"><rect
         width="84"
         height="84"
         rx="6"
         ry="6"
         x="6"
         y="6"
         id="rect3615"
         style="fill:#ffffff;fill-opacity:1;fill-rule:nonzero;stroke:none" /></clipPath><linearGradient
       x1="45.447727"
       y1="92.539597"
       x2="45.447727"
       y2="7.0165396"
       id="ButtonShadow-0"
       gradientUnits="userSpaceOnUse"
       gradientTransform="matrix(1.0058652,0,0,0.994169,100,0)"><stop
         id="stop3750-8"
         style="stop-color:#000000;stop-opacity:1"
         offset="0" /><stop
         id="stop3752-5"
         style="stop-color:#000000;stop-opacity:0.58823532"
         offset="1" /></linearGradient><linearGradient
       x1="32.251034"
       y1="6.1317081"
       x2="32.251034"
       y2="90.238609"
       id="linearGradient3780"
       xlink:href="#ButtonShadow-0"
       gradientUnits="userSpaceOnUse"
       gradientTransform="matrix(1.0238095,0,0,1.0119048,-1.1428571,-98.071429)" /><linearGradient
       x1="32.251034"
       y1="6.1317081"
       x2="32.251034"
       y2="90.238609"
       id="linearGradient3772"
       xlink:href="#ButtonShadow-0"
       gradientUnits="userSpaceOnUse"
       gradientTransform="matrix(1.0238095,0,0,1.0119048,-1.1428571,-98.071429)" /><linearGradient
       x1="32.251034"
       y1="6.1317081"
       x2="32.251034"
       y2="90.238609"
       id="linearGradient3725"
       xlink:href="#ButtonShadow-0"
       gradientUnits="userSpaceOnUse"
       gradientTransform="matrix(1.0238095,0,0,1.0119048,-1.1428571,-98.071429)" /><linearGradient
       x1="32.251034"
       y1="6.1317081"
       x2="32.251034"
       y2="90.238609"
       id="linearGradient3721"
       xlink:href="#ButtonShadow-0"
       gradientUnits="userSpaceOnUse"
       gradientTransform="translate(0,-97)" /><linearGradient
       x1="32.251034"
       y1="6.1317081"
       x2="32.251034"
       y2="90.238609"
       id="linearGradient3026"
       xlink:href="#ButtonShadow-0"
       gradientUnits="userSpaceOnUse"
       gradientTransform="matrix(1.0238095,0,0,1.0119048,-1.1428571,-98.071429)" /><linearGradient
       x1="6"
       y1="48"
       x2="90"
       y2="48"
       id="linearGradient3849"
       xlink:href="#linearGradient15"
       gradientUnits="userSpaceOnUse"
       gradientTransform="translate(-96,0)" /><linearGradient
       id="linearGradient3843-5"><stop
         id="stop3845-0"
         style="stop-color:#65216c;stop-opacity:1"
         offset="0" /><stop
         id="stop3847-4"
         style="stop-color:#982ea4;stop-opacity:1"
         offset="1" /></linearGradient><clipPath
       clipPathUnits="userSpaceOnUse"
       id="clipPath22"><rect
         width="84"
         height="84"
         rx="6"
         ry="6"
         x="-90"
         y="6.0000038"
         transform="rotate(-90)"
         id="rect22"
         style="display:inline;opacity:1;fill:url(#linearGradient22);fill-opacity:1;fill-rule:nonzero;stroke:none" /></clipPath><linearGradient
       inkscape:collect="always"
       xlink:href="#linearGradient3843-5"
       id="linearGradient22"
       gradientUnits="userSpaceOnUse"
       gradientTransform="translate(-96.000003)"
       x1="6"
       y1="48"
       x2="90"
       y2="48" /><clipPath
       clipPathUnits="userSpaceOnUse"
       id="clipPath23"><rect
         width="84"
         height="84"
         rx="6"
         ry="6"
         x="-90"
         y="6.0000038"
         transform="rotate(-90)"
         id="rect23"
         style="display:inline;opacity:1;fill:url(#linearGradient23);fill-opacity:1;fill-rule:nonzero;stroke:none" /></clipPath><linearGradient
       inkscape:collect="always"
       xlink:href="#linearGradient3843-5"
       id="linearGradient23"
       gradientUnits="userSpaceOnUse"
       gradientTransform="translate(-96.000003)"
       x1="6"
       y1="48"
       x2="90"
       y2="48" /><clipPath
       clipPathUnits="userSpaceOnUse"
       id="clipPath24"><rect
         width="84"
         height="84"
         rx="6"
         ry="6"
         x="-90"
         y="6.0000038"
         transform="rotate(-90)"
         id="rect24"
         style="display:inline;opacity:1;fill:url(#linearGradient24);fill-opacity:1;fill-rule:nonzero;stroke:none" /></clipPath><linearGradient
       inkscape:collect="always"
       xlink:href="#linearGradient3843-5"
       id="linearGradient24"
       gradientUnits="userSpaceOnUse"
       gradientTransform="translate(-96.000003)"
       x1="6"
       y1="48"
       x2="90"
       y2="48" /></defs><metadata
     id="metadata2413"><rdf:RDF><cc:Work
         rdf:about=""><dc:format>image/svg+xml</dc:format><dc:type
           rdf:resource="http://purl.org/dc/dcmitype/StillImage" /></cc:Work></rdf:RDF></metadata><g
     id="layer3"
     style="display:inline"><path
       d="m 12,-95.03125 c -5.5110903,0 -10.03125,4.52016 -10.03125,10.03125 v 71 c 0,5.5110902 4.5201598,10.03125 10.03125,10.03125 h 72 c 5.51109,0 10.03125,-4.5201597 10.03125,-10.03125 v -71 c 0,-5.51109 -4.52016,-10.03125 -10.03125,-10.03125 z"
       transform="scale(1,-1)"
       id="path3786"
       style="display:inline;opacity:0.08;fill:url(#linearGradient3026);fill-opacity:1;fill-rule:nonzero;stroke:none" /><path
       d="m 12,-94.03125 c -4.971633,0 -9.03125,4.059617 -9.03125,9.03125 v 71 c 0,4.9716329 4.0596171,9.03125 9.03125,9.03125 h 72 c 4.971633,0 9.03125,-4.059617 9.03125,-9.03125 v -71 c 0,-4.971633 -4.059617,-9.03125 -9.03125,-9.03125 z"
       transform="scale(1,-1)"
       id="path3778"
       style="display:inline;opacity:0.1;fill:url(#linearGradient3780);fill-opacity:1;fill-rule:nonzero;stroke:none" /><path
       d="m 12,-93 c -4.4091333,0 -8,3.590867 -8,8 v 71 c 0,4.4091333 3.5908667,8 8,8 h 72 c 4.409133,0 8,-3.5908667 8,-8 v -71 c 0,-4.409133 -3.590867,-8 -8,-8 z"
       transform="scale(1,-1)"
       id="path3770"
       style="display:inline;opacity:0.2;fill:url(#linearGradient3772);fill-opacity:1;fill-rule:nonzero;stroke:none" /><rect
       width="86"
       height="85"
       rx="7"
       ry="7"
       x="5"
       y="-92"
       transform="scale(1,-1)"
       id="rect3723"
       style="display:inline;opacity:0.3;fill:url(#linearGradient3725);fill-opacity:1;fill-rule:nonzero;stroke:none" /><rect
       width="84"
       height="84"
       rx="6"
       ry="6"
       x="6"
       y="-91"
       transform="scale(1,-1)"
       id="rect3716"
       style="display:inline;opacity:0.45;fill:url(#linearGradient3721);fill-opacity:1;fill-rule:nonzero;stroke:none" /></g><g
     id="layer1"
     style="display:inline"><rect
       width="84"
       height="84"
       rx="6"
       ry="6"
       x="-90"
       y="6"
       transform="rotate(-90)"
       id="rect2419"
       style="display:inline;fill:url(#linearGradient3849);fill-opacity:1;fill-rule:nonzero;stroke:none" /><path
       d="M 12,6 C 8.676,6 6,8.676 6,12 v 2 68 2 c 0,0.334721 0.04135,0.6507 0.09375,0.96875 0.0487,0.295596 0.09704,0.596915 0.1875,0.875 0.00988,0.03038 0.020892,0.0636 0.03125,0.09375 0.098865,0.287771 0.2348802,0.547452 0.375,0.8125 0.1445918,0.273507 0.3156161,0.535615 0.5,0.78125 0.1843839,0.245635 0.3737765,0.473472 0.59375,0.6875 0.439947,0.428056 0.94291,0.814526 1.5,1.09375 0.278545,0.139612 0.5734731,0.246947 0.875,0.34375 -0.2562018,-0.100222 -0.4867109,-0.236272 -0.71875,-0.375 -0.00741,-0.0044 -0.023866,0.0045 -0.03125,0 -0.031933,-0.0193 -0.062293,-0.04251 -0.09375,-0.0625 -0.120395,-0.0767 -0.2310226,-0.163513 -0.34375,-0.25 -0.1061728,-0.0808 -0.2132809,-0.161112 -0.3125,-0.25 C 8.4783201,88.557317 8.3087904,88.373362 8.15625,88.1875 8.0486711,88.057245 7.9378561,87.922215 7.84375,87.78125 7.818661,87.74287 7.805304,87.69538 7.78125,87.65625 7.716487,87.553218 7.6510225,87.451733 7.59375,87.34375 7.4927417,87.149044 7.3880752,86.928049 7.3125,86.71875 7.30454,86.69694 7.288911,86.6782 7.28125,86.65625 7.2494249,86.5643 7.2454455,86.469419 7.21875,86.375 7.1884177,86.268382 7.1483606,86.171969 7.125,86.0625 7.0521214,85.720988 7,85.364295 7,85 V 83 15 13 C 7,10.218152 9.2181517,8 12,8 h 2 68 2 c 2.781848,0 5,2.218152 5,5 v 2 68 2 c 0,0.364295 -0.05212,0.720988 -0.125,1.0625 -0.04415,0.206893 -0.08838,0.397658 -0.15625,0.59375 -0.0077,0.02195 -0.0233,0.04069 -0.03125,0.0625 -0.06274,0.173739 -0.138383,0.367449 -0.21875,0.53125 -0.04158,0.0828 -0.07904,0.169954 -0.125,0.25 -0.0546,0.09721 -0.126774,0.18835 -0.1875,0.28125 -0.09411,0.140965 -0.204921,0.275995 -0.3125,0.40625 -0.143174,0.17445 -0.303141,0.346998 -0.46875,0.5 -0.01117,0.0102 -0.01998,0.02115 -0.03125,0.03125 -0.138386,0.125556 -0.285091,0.234436 -0.4375,0.34375 -0.102571,0.07315 -0.204318,0.153364 -0.3125,0.21875 -0.0074,0.0045 -0.02384,-0.0044 -0.03125,0 -0.232039,0.138728 -0.462548,0.274778 -0.71875,0.375 0.301527,-0.0968 0.596455,-0.204138 0.875,-0.34375 0.55709,-0.279224 1.060053,-0.665694 1.5,-1.09375 0.219973,-0.214028 0.409366,-0.441865 0.59375,-0.6875 0.184384,-0.245635 0.355408,-0.507743 0.5,-0.78125 0.14012,-0.265048 0.276135,-0.524729 0.375,-0.8125 0.01041,-0.03078 0.02133,-0.06274 0.03125,-0.09375 0.09046,-0.278085 0.1388,-0.579404 0.1875,-0.875 C 89.95865,84.6507 90,84.334721 90,84 V 82 14 12 C 90,8.676 87.324,6 84,6 Z"
       inkscape:connector-curvature="0"
       id="rect3728"
       style="display:inline;opacity:0.25;fill:url(#linearGradient3188);fill-opacity:1;fill-rule:nonzero;stroke:none" /><path
       d="M 12,90 C 8.676,90 6,87.324 6,84 V 82 14 12 c 0,-0.334721 0.04135,-0.6507 0.09375,-0.96875 0.0487,-0.295596 0.09704,-0.596915 0.1875,-0.875 C 6.29113,10.12587 6.302142,10.09265 6.3125,10.0625 6.411365,9.774729 6.5473802,9.515048 6.6875,9.25 6.8320918,8.976493 7.0031161,8.714385 7.1875,8.46875 7.3718839,8.223115 7.5612765,7.995278 7.78125,7.78125 8.221197,7.353194 8.72416,6.966724 9.28125,6.6875 9.559795,6.547888 9.8547231,6.440553 10.15625,6.34375 9.9000482,6.443972 9.6695391,6.580022 9.4375,6.71875 c -0.00741,0.0044 -0.023866,-0.0045 -0.03125,0 -0.031933,0.0193 -0.062293,0.04251 -0.09375,0.0625 -0.120395,0.0767 -0.2310226,0.163513 -0.34375,0.25 -0.1061728,0.0808 -0.2132809,0.161112 -0.3125,0.25 C 8.4783201,7.442683 8.3087904,7.626638 8.15625,7.8125 8.0486711,7.942755 7.9378561,8.077785 7.84375,8.21875 7.818661,8.25713 7.805304,8.30462 7.78125,8.34375 7.716487,8.446782 7.6510225,8.548267 7.59375,8.65625 7.4927417,8.850956 7.3880752,9.071951 7.3125,9.28125 7.30454,9.30306 7.288911,9.3218 7.28125,9.34375 7.2494249,9.4357 7.2454455,9.530581 7.21875,9.625 7.1884177,9.731618 7.1483606,9.828031 7.125,9.9375 7.0521214,10.279012 7,10.635705 7,11 v 2 68 2 c 0,2.781848 2.2181517,5 5,5 h 2 68 2 c 2.781848,0 5,-2.218152 5,-5 V 81 13 11 C 89,10.635705 88.94788,10.279012 88.875,9.9375 88.83085,9.730607 88.78662,9.539842 88.71875,9.34375 88.71105,9.3218 88.69545,9.30306 88.6875,9.28125 88.62476,9.107511 88.549117,8.913801 88.46875,8.75 88.42717,8.6672 88.38971,8.580046 88.34375,8.5 88.28915,8.40279 88.216976,8.31165 88.15625,8.21875 88.06214,8.077785 87.951329,7.942755 87.84375,7.8125 87.700576,7.63805 87.540609,7.465502 87.375,7.3125 87.36383,7.3023 87.35502,7.29135 87.34375,7.28125 87.205364,7.155694 87.058659,7.046814 86.90625,6.9375 86.803679,6.86435 86.701932,6.784136 86.59375,6.71875 c -0.0074,-0.0045 -0.02384,0.0044 -0.03125,0 -0.232039,-0.138728 -0.462548,-0.274778 -0.71875,-0.375 0.301527,0.0968 0.596455,0.204138 0.875,0.34375 0.55709,0.279224 1.060053,0.665694 1.5,1.09375 0.219973,0.214028 0.409366,0.441865 0.59375,0.6875 0.184384,0.245635 0.355408,0.507743 0.5,0.78125 0.14012,0.265048 0.276135,0.524729 0.375,0.8125 0.01041,0.03078 0.02133,0.06274 0.03125,0.09375 0.09046,0.278085 0.1388,0.579404 0.1875,0.875 C 89.95865,11.3493 90,11.665279 90,12 v 2 68 2 c 0,3.324 -2.676,6 -6,6 z"
       inkscape:connector-curvature="0"
       id="path3615"
       style="display:inline;opacity:0.1;fill:url(#radialGradient3619);fill-opacity:1;fill-rule:nonzero;stroke:none" /></g><g
     id="layer5"
     style="display:inline"><rect
       width="66"
       height="66"
       rx="12"
       ry="12"
       x="15"
       y="15"
       clip-path="url(#clipPath3613)"
       id="rect3171"
       style="display:inline;opacity:0.1;fill:url(#linearGradient3613);fill-opacity:1;fill-rule:nonzero;stroke:#ffffff;stroke-width:0.5;stroke-linecap:round;stroke-linejoin:miter;stroke-miterlimit:4;stroke-dasharray:none;stroke-dashoffset:0;stroke-opacity:1;filter:url(#filter3794)" /></g><g
     id="g29"
     style="opacity:1;stroke-width:1.1;stroke-dasharray:none"><ellipse
       style="display:inline;opacity:0.05;fill:#000000;stroke-width:4.4;stroke-linejoin:round;stroke-dasharray:none;fill-opacity:1;stroke:#000000;stroke-opacity:1"
       id="ellipse27"
       cx="35.641045"
       cy="60.104176"
       rx="6.7607703"
       ry="6.8330235"
       clip-path="url(#clipPath24)" /><path
       style="display:inline;opacity:0.05;fill:none;fill-opacity:1;stroke:#000000;stroke-width:15.7;stroke-linecap:round;stroke-linejoin:round;stroke-dasharray:none;stroke-opacity:1"
       id="path28"
       sodipodi:type="arc"
       sodipodi:cx="35.199169"
       sodipodi:cy="60.372128"
       sodipodi:rx="23.154087"
       sodipodi:ry="23.401539"
       sodipodi:start="0.04543672"
       sodipodi:end="4.7402754"
       sodipodi:arc-type="arc"
       d="M 58.32936,61.435051 A 23.154087,23.401539 0 0 1 34.282816,83.755332 23.154087,23.401539 0 0 1 12.058257,59.582791 23.154087,23.401539 0 0 1 35.84477,36.979687"
       sodipodi:open="true"
       clip-path="url(#clipPath23)" /><path
       style="display:inline;fill:none;fill-opacity:1;stroke:#000000;stroke-width:16.9;stroke-linecap:round;stroke-linejoin:round;stroke-dasharray:none;stroke-opacity:1;opacity:0.05"
       id="path29"
       sodipodi:type="arc"
       sodipodi:cx="35.199169"
       sodipodi:cy="60.372139"
       sodipodi:rx="45.328274"
       sodipodi:ry="45.738842"
       sodipodi:start="0"
       sodipodi:end="4.7094713"
       sodipodi:open="true"
       sodipodi:arc-type="arc"
       d="M 80.527443,60.372139 A 45.328274,45.738842 0 0 1 35.243254,106.11096 45.328274,45.738842 0 0 1 -10.129019,60.461106 45.328274,45.738842 0 0 1 35.066916,14.633492"
       clip-path="url(#clipPath22)" /></g><g
     id="g27"
     style="opacity:1;stroke-width:1.1;stroke-dasharray:none"><ellipse
       style="display:inline;opacity:0.1;fill:#000000;stroke-width:2.9;stroke-linejoin:round;stroke-dasharray:none;fill-opacity:1;stroke:#000000;stroke-opacity:1"
       id="ellipse25"
       cx="35.641045"
       cy="60.104176"
       rx="6.7607703"
       ry="6.8330235"
       clip-path="url(#clipPath24)" /><path
       style="display:inline;opacity:0.1;fill:none;fill-opacity:1;stroke:#000000;stroke-width:14.1;stroke-linecap:round;stroke-linejoin:round;stroke-dasharray:none;stroke-opacity:1"
       id="path26"
       sodipodi:type="arc"
       sodipodi:cx="35.199169"
       sodipodi:cy="60.372128"
       sodipodi:rx="23.154087"
       sodipodi:ry="23.401539"
       sodipodi:start="0.04543672"
       sodipodi:end="4.7402754"
       sodipodi:arc-type="arc"
       d="M 58.32936,61.435051 A 23.154087,23.401539 0 0 1 34.282816,83.755332 23.154087,23.401539 0 0 1 12.058257,59.582791 23.154087,23.401539 0 0 1 35.84477,36.979687"
       sodipodi:open="true"
       clip-path="url(#clipPath23)" /><path
       style="display:inline;fill:none;fill-opacity:1;stroke:#000000;stroke-width:15.3;stroke-linecap:round;stroke-linejoin:round;stroke-dasharray:none;stroke-opacity:1;opacity:0.1"
       id="path27"
       sodipodi:type="arc"
       sodipodi:cx="35.199169"
       sodipodi:cy="60.372139"
       sodipodi:rx="45.328274"
       sodipodi:ry="45.738842"
       sodipodi:start="0"
       sodipodi:end="4.7094713"
       sodipodi:open="true"
       sodipodi:arc-type="arc"
       d="M 80.527443,60.372139 A 45.328274,45.738842 0 0 1 35.243254,106.11096 45.328274,45.738842 0 0 1 -10.129019,60.461106 45.328274,45.738842 0 0 1 35.066916,14.633492"
       clip-path="url(#clipPath22)" /></g><g
     id="g25"
     style="opacity:1;stroke-width:1.1;stroke-dasharray:none"><ellipse
       style="display:inline;opacity:0.2;fill:#000000;stroke-width:1.5;stroke-linejoin:round;stroke-dasharray:none;fill-opacity:1;stroke:#000000;stroke-opacity:1"
       id="ellipse24"
       cx="35.641045"
       cy="60.104176"
       rx="6.7607703"
       ry="6.8330235"
       clip-path="url(#clipPath24)" /><path
       style="display:inline;opacity:0.2;fill:none;fill-opacity:1;stroke:#000000;stroke-width:12.6;stroke-linecap:round;stroke-linejoin:round;stroke-dasharray:none;stroke-opacity:1"
       id="path24"
       sodipodi:type="arc"
       sodipodi:cx="35.199169"
       sodipodi:cy="60.372128"
       sodipodi:rx="23.154087"
       sodipodi:ry="23.401539"
       sodipodi:start="0.04543672"
       sodipodi:end="4.7402754"
       sodipodi:arc-type="arc"
       d="M 58.32936,61.435051 A 23.154087,23.401539 0 0 1 34.282816,83.755332 23.154087,23.401539 0 0 1 12.058257,59.582791 23.154087,23.401539 0 0 1 35.84477,36.979687"
       sodipodi:open="true"
       clip-path="url(#clipPath23)" /><path
       style="display:inline;fill:none;fill-opacity:1;stroke:#000000;stroke-width:14;stroke-linecap:round;stroke-linejoin:round;stroke-dasharray:none;stroke-opacity:1;opacity:0.2"
       id="path25"
       sodipodi:type="arc"
       sodipodi:cx="35.199169"
       sodipodi:cy="60.372139"
       sodipodi:rx="45.328274"
       sodipodi:ry="45.738842"
       sodipodi:start="0"
       sodipodi:end="4.7094713"
       sodipodi:open="true"
       sodipodi:arc-type="arc"
       d="M 80.527443,60.372139 A 45.328274,45.738842 0 0 1 35.243254,106.11096 45.328274,45.738842 0 0 1 -10.129019,60.461106 45.328274,45.738842 0 0 1 35.066916,14.633492"
       clip-path="url(#clipPath22)" /></g><g
     id="g3"><ellipse
       style="display:inline;opacity:1;fill:#ededed;stroke-width:4.25322;stroke-linejoin:round;stroke-dasharray:none"
       id="path1"
       cx="35.641045"
       cy="60.104176"
       rx="6.7607703"
       ry="6.8330235"
       clip-path="url(#clipPath24)" /><path
       style="display:inline;opacity:1;fill:none;fill-opacity:1;stroke:#ffffff;stroke-width:10.7894;stroke-linecap:round;stroke-linejoin:round;stroke-dasharray:none;stroke-opacity:1"
       id="path3"
       sodipodi:type="arc"
       sodipodi:cx="35.199169"
       sodipodi:cy="60.372128"
       sodipodi:rx="23.154087"
       sodipodi:ry="23.401539"
       sodipodi:start="0.04543672"
       sodipodi:end="4.7402754"
       sodipodi:arc-type="arc"
       d="M 58.32936,61.435051 A 23.154087,23.401539 0 0 1 34.282816,83.755332 23.154087,23.401539 0 0 1 12.058257,59.582791 23.154087,23.401539 0 0 1 35.84477,36.979687"
       sodipodi:open="true"
       clip-path="url(#clipPath23)" /><path
       style="display:inline;fill:none;fill-opacity:1;stroke:#ffffff;stroke-width:12.2312;stroke-linecap:round;stroke-linejoin:round;stroke-dasharray:none;stroke-opacity:1"
       id="path3-3"
       sodipodi:type="arc"
       sodipodi:cx="35.199169"
       sodipodi:cy="60.372139"
       sodipodi:rx="45.328274"
       sodipodi:ry="45.738842"
       sodipodi:start="0"
       sodipodi:end="4.7094713"
       sodipodi:open="true"
       sodipodi:arc-type="arc"
       d="M 80.527443,60.372139 A 45.328274,45.738842 0 0 1 35.243254,106.11096 45.328274,45.738842 0 0 1 -10.129019,60.461106 45.328274,45.738842 0 0 1 35.066916,14.633492"
       clip-path="url(#clipPath22)" /></g></svg>
