<?xml version="1.0" encoding="UTF-8" standalone="no"?>
<!-- Created with Inkscape (http://www.inkscape.org/) -->

<svg
   xmlns:dc="http://purl.org/dc/elements/1.1/"
   xmlns:cc="http://creativecommons.org/ns#"
   xmlns:rdf="http://www.w3.org/1999/02/22-rdf-syntax-ns#"
   xmlns:svg="http://www.w3.org/2000/svg"
   xmlns="http://www.w3.org/2000/svg"
   xmlns:xlink="http://www.w3.org/1999/xlink"
   xmlns:sodipodi="http://sodipodi.sourceforge.net/DTD/sodipodi-0.dtd"
   xmlns:inkscape="http://www.inkscape.org/namespaces/inkscape"
   version="1.0"
   width="96"
   height="96"
   id="svg2408"
   inkscape:version="0.91 r"
   sodipodi:docname="corebird.svg">
  <sodipodi:namedview
     pagecolor="#ffffff"
     bordercolor="#666666"
     borderopacity="1"
     objecttolerance="10"
     gridtolerance="10"
     guidetolerance="10"
     inkscape:pageopacity="0"
     inkscape:pageshadow="2"
     inkscape:window-width="1535"
     inkscape:window-height="876"
     id="namedview143"
     showgrid="false"
     showguides="true"
     inkscape:zoom="1"
     inkscape:cx="48"
     inkscape:cy="53.30504"
     inkscape:window-x="65"
     inkscape:window-y="24"
     inkscape:window-maximized="1"
     inkscape:current-layer="svg2408" />
  <defs
     id="defs2410">
    <linearGradient
       inkscape:collect="always"
       id="linearGradient4406">
      <stop
         style="stop-color:#ffffff;stop-opacity:1;"
         offset="0"
         id="stop4408" />
      <stop
         style="stop-color:#ffffff;stop-opacity:0;"
         offset="1"
         id="stop4410" />
    </linearGradient>
    <linearGradient
       id="linearGradient4068">
      <stop
         id="stop4070"
         style="stop-color:#528ccb;stop-opacity:1"
         offset="0" />
      <stop
         id="stop4072"
         style="stop-color:#a7d2e6;stop-opacity:1"
         offset="1" />
    </linearGradient>
    <linearGradient
       x1="45.447727"
       y1="92.539597"
       x2="45.447727"
       y2="7.0165396"
       id="ButtonShadow"
       gradientUnits="userSpaceOnUse"
       gradientTransform="scale(1.0058652,0.994169)">
      <stop
         id="stop3750"
         style="stop-color:#000000;stop-opacity:1"
         offset="0" />
      <stop
         id="stop3752"
         style="stop-color:#000000;stop-opacity:0.58823532"
         offset="1" />
    </linearGradient>
    <linearGradient
       id="linearGradient3737">
      <stop
         id="stop3739"
         style="stop-color:#ffffff;stop-opacity:1"
         offset="0" />
      <stop
         id="stop3741"
         style="stop-color:#ffffff;stop-opacity:0"
         offset="1" />
    </linearGradient>
    <filter
       color-interpolation-filters="sRGB"
       id="filter3174">
      <feGaussianBlur
         id="feGaussianBlur3176"
         stdDeviation="1.71" />
    </filter>
    <linearGradient
       x1="36.357143"
       y1="6"
       x2="36.357143"
       y2="63.893143"
       id="linearGradient3188"
       xlink:href="#linearGradient3737"
       gradientUnits="userSpaceOnUse" />
    <radialGradient
       cx="48"
       cy="90.171875"
       r="42"
       fx="48"
       fy="90.171875"
       id="radialGradient3619"
       xlink:href="#linearGradient3737"
       gradientUnits="userSpaceOnUse"
       gradientTransform="matrix(1.1573129,0,0,0.99590774,-7.5510206,0.19713193)" />
    <linearGradient
       x1="48"
       y1="90"
       x2="48"
       y2="5.9877172"
       id="linearGradient3617"
       xlink:href="#linearGradient4068"
       gradientUnits="userSpaceOnUse" />
    <linearGradient
       x1="45.447727"
       y1="92.539597"
       x2="45.447727"
       y2="7.0165396"
       id="ButtonShadow-0"
       gradientUnits="userSpaceOnUse"
       gradientTransform="matrix(1.0058652,0,0,0.994169,100,0)">
      <stop
         id="stop3750-8"
         style="stop-color:#000000;stop-opacity:1"
         offset="0" />
      <stop
         id="stop3752-5"
         style="stop-color:#000000;stop-opacity:0.58823532"
         offset="1" />
    </linearGradient>
    <linearGradient
       x1="32.251034"
       y1="6.1317081"
       x2="32.251034"
       y2="90.238609"
       id="linearGradient3780"
       xlink:href="#ButtonShadow-0"
       gradientUnits="userSpaceOnUse"
       gradientTransform="matrix(1.0238095,0,0,-1.0119048,-1.1428571,98.071429)" />
    <linearGradient
       x1="32.251034"
       y1="6.1317081"
       x2="32.251034"
       y2="90.238609"
       id="linearGradient3772"
       xlink:href="#ButtonShadow-0"
       gradientUnits="userSpaceOnUse"
       gradientTransform="matrix(1.0238095,0,0,-1.0119048,-1.1428571,98.071429)" />
    <linearGradient
       x1="32.251034"
       y1="6.1317081"
       x2="32.251034"
       y2="90.238609"
       id="linearGradient3725"
       xlink:href="#ButtonShadow-0"
       gradientUnits="userSpaceOnUse"
       gradientTransform="matrix(1.0238095,0,0,1.0119048,-1.1428571,-98.071429)" />
    <linearGradient
       x1="32.251034"
       y1="6.1317081"
       x2="32.251034"
       y2="90.238609"
       id="linearGradient3721"
       xlink:href="#ButtonShadow-0"
       gradientUnits="userSpaceOnUse"
       gradientTransform="translate(0,-97)" />
    <linearGradient
       x1="32.251034"
       y1="6.1317081"
       x2="32.251034"
       y2="90.238609"
       id="linearGradient3026"
       xlink:href="#ButtonShadow-0"
       gradientUnits="userSpaceOnUse"
       gradientTransform="matrix(1.0238095,0,0,-1.0119048,-1.1428571,98.071429)" />
    <linearGradient
       id="linearGradient4251"
       gradientUnits="userSpaceOnUse"
       x2="0"
       gradientTransform="matrix(0.3600235,0,0,0.3567695,-22.143912,23.317124)"
       y1="105.44"
       y2="132.00999">
      <stop
         id="stop24"
         stop-color="#eca200"
         offset="0" />
      <stop
         id="stop26"
         stop-color="#fbda4c"
         offset="1" />
    </linearGradient>
    <linearGradient
       inkscape:collect="always"
       xlink:href="#linearGradient4406"
       id="linearGradient4412"
       x1="46.67683"
       y1="89.920349"
       x2="47.341465"
       y2="6.2313218"
       gradientUnits="userSpaceOnUse" />
  </defs>
  <metadata
     id="metadata2413">
    <rdf:RDF>
      <cc:Work
         rdf:about="">
        <dc:format>image/svg+xml</dc:format>
        <dc:type
           rdf:resource="http://purl.org/dc/dcmitype/StillImage" />
        <dc:title></dc:title>
      </cc:Work>
    </rdf:RDF>
  </metadata>
  <g
     id="layer2"
     style="display:none">
    <rect
       width="86"
       height="85"
       rx="6"
       ry="6"
       x="5"
       y="7"
       id="rect3745"
       style="opacity:0.9;fill:url(#ButtonShadow);fill-opacity:1;fill-rule:nonzero;stroke:none;filter:url(#filter3174)" />
  </g>
  <path
     inkscape:connector-curvature="0"
     style="display:inline;opacity:0.07999998;fill:url(#linearGradient3026);fill-opacity:1;fill-rule:nonzero;stroke:none"
     id="path3786"
     d="M 12,95.03125 C 6.4889097,95.03125 1.96875,90.51109 1.96875,85 l 0,-71 C 1.96875,8.4889098 6.4889098,3.96875 12,3.96875 l 72,0 c 5.51109,0 10.03125,4.5201597 10.03125,10.03125 l 0,71 c 0,5.51109 -4.52016,10.03125 -10.03125,10.03125 l -72,0 z" />
  <path
     inkscape:connector-curvature="0"
     style="display:inline;opacity:0.1;fill:url(#linearGradient3780);fill-opacity:1;fill-rule:nonzero;stroke:none"
     id="path3778"
     d="M 12,94.03125 C 7.028367,94.03125 2.96875,89.971633 2.96875,85 l 0,-71 C 2.96875,9.0283671 7.0283671,4.96875 12,4.96875 l 72,0 c 4.971633,0 9.03125,4.059617 9.03125,9.03125 l 0,71 c 0,4.971633 -4.059617,9.03125 -9.03125,9.03125 l -72,0 z" />
  <path
     inkscape:connector-curvature="0"
     style="display:inline;opacity:0.2;fill:url(#linearGradient3772);fill-opacity:1;fill-rule:nonzero;stroke:none"
     id="path3770"
     d="M 12,93 C 7.5908667,93 4,89.409133 4,85 L 4,14 C 4,9.5908667 7.5908667,6 12,6 l 72,0 c 4.409133,0 8,3.5908667 8,8 l 0,71 c 0,4.409133 -3.590867,8 -8,8 l -72,0 z" />
  <rect
     style="display:inline;opacity:0.3;fill:url(#linearGradient3725);fill-opacity:1;fill-rule:nonzero;stroke:none"
     id="rect3723"
     transform="scale(1,-1)"
     y="-92"
     x="5"
     ry="7"
     rx="7"
     height="85"
     width="86" />
  <rect
     style="display:inline;opacity:0.45;fill:url(#linearGradient3721);fill-opacity:1;fill-rule:nonzero;stroke:none"
     id="rect3716"
     transform="scale(1,-1)"
     y="-91"
     x="6"
     ry="6"
     rx="6"
     height="84"
     width="84" />
  <rect
     style="fill:url(#linearGradient3617);fill-opacity:1;fill-rule:nonzero;stroke:none"
     id="rect2419"
     y="6"
     x="6"
     ry="6"
     rx="6"
     height="84"
     width="84" />
  <path
     style="opacity:0.4;fill:url(#linearGradient3188);fill-opacity:1;fill-rule:nonzero;stroke:none"
     id="rect3728"
     inkscape:connector-curvature="0"
     d="M 12,6 C 8.676,6 6,8.676 6,12 l 0,2 0,68 0,2 c 0,0.334721 0.04135,0.6507 0.09375,0.96875 0.0487,0.295596 0.09704,0.596915 0.1875,0.875 0.00988,0.03038 0.020892,0.0636 0.03125,0.09375 0.098865,0.287771 0.2348802,0.547452 0.375,0.8125 0.1445918,0.273507 0.3156161,0.535615 0.5,0.78125 0.1843839,0.245635 0.3737765,0.473472 0.59375,0.6875 0.439947,0.428056 0.94291,0.814526 1.5,1.09375 0.278545,0.139612 0.5734731,0.246947 0.875,0.34375 -0.2562018,-0.100222 -0.4867109,-0.236272 -0.71875,-0.375 -0.00741,-0.0044 -0.023866,0.0045 -0.03125,0 -0.031933,-0.0193 -0.062293,-0.04251 -0.09375,-0.0625 -0.120395,-0.0767 -0.2310226,-0.163513 -0.34375,-0.25 -0.1061728,-0.0808 -0.2132809,-0.161112 -0.3125,-0.25 C 8.4783201,88.557317 8.3087904,88.373362 8.15625,88.1875 8.0486711,88.057245 7.9378561,87.922215 7.84375,87.78125 7.818661,87.74287 7.805304,87.69538 7.78125,87.65625 7.716487,87.553218 7.6510225,87.451733 7.59375,87.34375 7.4927417,87.149044 7.3880752,86.928049 7.3125,86.71875 7.30454,86.69694 7.288911,86.6782 7.28125,86.65625 7.2494249,86.5643 7.2454455,86.469419 7.21875,86.375 7.1884177,86.268382 7.1483606,86.171969 7.125,86.0625 7.0521214,85.720988 7,85.364295 7,85 L 7,83 7,15 7,13 C 7,10.218152 9.2181517,8 12,8 l 2,0 68,0 2,0 c 2.781848,0 5,2.218152 5,5 l 0,2 0,68 0,2 c 0,0.364295 -0.05212,0.720988 -0.125,1.0625 -0.04415,0.206893 -0.08838,0.397658 -0.15625,0.59375 -0.0077,0.02195 -0.0233,0.04069 -0.03125,0.0625 -0.06274,0.173739 -0.138383,0.367449 -0.21875,0.53125 -0.04158,0.0828 -0.07904,0.169954 -0.125,0.25 -0.0546,0.09721 -0.126774,0.18835 -0.1875,0.28125 -0.09411,0.140965 -0.204921,0.275995 -0.3125,0.40625 -0.143174,0.17445 -0.303141,0.346998 -0.46875,0.5 -0.01117,0.0102 -0.01998,0.02115 -0.03125,0.03125 -0.138386,0.125556 -0.285091,0.234436 -0.4375,0.34375 -0.102571,0.07315 -0.204318,0.153364 -0.3125,0.21875 -0.0074,0.0045 -0.02384,-0.0044 -0.03125,0 -0.232039,0.138728 -0.462548,0.274778 -0.71875,0.375 0.301527,-0.0968 0.596455,-0.204138 0.875,-0.34375 0.55709,-0.279224 1.060053,-0.665694 1.5,-1.09375 0.219973,-0.214028 0.409366,-0.441865 0.59375,-0.6875 0.184384,-0.245635 0.355408,-0.507743 0.5,-0.78125 0.14012,-0.265048 0.276135,-0.524729 0.375,-0.8125 0.01041,-0.03078 0.02133,-0.06274 0.03125,-0.09375 0.09046,-0.278085 0.1388,-0.579404 0.1875,-0.875 C 89.95865,84.6507 90,84.334721 90,84 l 0,-2 0,-68 0,-2 C 90,8.676 87.324,6 84,6 L 12,6 Z" />
  <path
     style="opacity:0.2;fill:url(#radialGradient3619);fill-opacity:1;fill-rule:nonzero;stroke:none"
     id="path3615"
     inkscape:connector-curvature="0"
     d="M 12,90 C 8.676,90 6,87.324 6,84 L 6,82 6,14 6,12 c 0,-0.334721 0.04135,-0.6507 0.09375,-0.96875 0.0487,-0.295596 0.09704,-0.596915 0.1875,-0.875 C 6.29113,10.12587 6.302142,10.09265 6.3125,10.0625 6.411365,9.774729 6.5473802,9.515048 6.6875,9.25 6.8320918,8.976493 7.0031161,8.714385 7.1875,8.46875 7.3718839,8.223115 7.5612765,7.995278 7.78125,7.78125 8.221197,7.353194 8.72416,6.966724 9.28125,6.6875 9.559795,6.547888 9.8547231,6.440553 10.15625,6.34375 9.9000482,6.443972 9.6695391,6.580022 9.4375,6.71875 c -0.00741,0.0044 -0.023866,-0.0045 -0.03125,0 -0.031933,0.0193 -0.062293,0.04251 -0.09375,0.0625 -0.120395,0.0767 -0.2310226,0.163513 -0.34375,0.25 -0.1061728,0.0808 -0.2132809,0.161112 -0.3125,0.25 C 8.4783201,7.442683 8.3087904,7.626638 8.15625,7.8125 8.0486711,7.942755 7.9378561,8.077785 7.84375,8.21875 7.818661,8.25713 7.805304,8.30462 7.78125,8.34375 7.716487,8.446782 7.6510225,8.548267 7.59375,8.65625 7.4927417,8.850956 7.3880752,9.071951 7.3125,9.28125 7.30454,9.30306 7.288911,9.3218 7.28125,9.34375 7.2494249,9.4357 7.2454455,9.530581 7.21875,9.625 7.1884177,9.731618 7.1483606,9.828031 7.125,9.9375 7.0521214,10.279012 7,10.635705 7,11 l 0,2 0,68 0,2 c 0,2.781848 2.2181517,5 5,5 l 2,0 68,0 2,0 c 2.781848,0 5,-2.218152 5,-5 l 0,-2 0,-68 0,-2 C 89,10.635705 88.94788,10.279012 88.875,9.9375 88.83085,9.730607 88.78662,9.539842 88.71875,9.34375 88.71105,9.3218 88.69545,9.30306 88.6875,9.28125 88.62476,9.107511 88.549117,8.913801 88.46875,8.75 88.42717,8.6672 88.38971,8.580046 88.34375,8.5 88.28915,8.40279 88.216976,8.31165 88.15625,8.21875 88.06214,8.077785 87.951329,7.942755 87.84375,7.8125 87.700576,7.63805 87.540609,7.465502 87.375,7.3125 87.36383,7.3023 87.35502,7.29135 87.34375,7.28125 87.205364,7.155694 87.058659,7.046814 86.90625,6.9375 86.803679,6.86435 86.701932,6.784136 86.59375,6.71875 c -0.0074,-0.0045 -0.02384,0.0044 -0.03125,0 -0.232039,-0.138728 -0.462548,-0.274778 -0.71875,-0.375 0.301527,0.0968 0.596455,0.204138 0.875,0.34375 0.55709,0.279224 1.060053,0.665694 1.5,1.09375 0.219973,0.214028 0.409366,0.441865 0.59375,0.6875 0.184384,0.245635 0.355408,0.507743 0.5,0.78125 0.14012,0.265048 0.276135,0.524729 0.375,0.8125 0.01041,0.03078 0.02133,0.06274 0.03125,0.09375 0.09046,0.278085 0.1388,0.579404 0.1875,0.875 C 89.95865,11.3493 90,11.665279 90,12 l 0,2 0,68 0,2 c 0,3.324 -2.676,6 -6,6 l -72,0 z" />
  <path
     style="opacity:1;fill:#567ba6;fill-opacity:1;stroke:none;stroke-width:2;stroke-linecap:round;stroke-linejoin:round;stroke-miterlimit:4;stroke-dasharray:none;stroke-opacity:1"
     d="m 74,50.000001 c 0,6.153583 -2.489235,9.837561 -5.613601,14.458452 C 63.659224,71.449872 56.645361,78 48,78 40.440737,78 34.442395,72.687064 29.691678,67.14054 25.41804,62.151013 22,57.323229 22,50.000001 22,34.536027 33.640597,22 48,22 62.359403,22 74,34.536027 74,50.000001 Z"
     id="path4476"
     inkscape:connector-curvature="0"
     sodipodi:nodetypes="sssssss" />
  <path
     style="fill:#c3dcee;stroke:#000000;stroke-width:2;stroke-linecap:round;stroke-linejoin:round;fill-opacity:1;stroke-opacity:1;stroke-miterlimit:4;stroke-dasharray:none;opacity:0.1"
     d="M 40.535156 40.185547 C 35.353272 40.185547 31.144531 45.002472 31.144531 50.945312 C 31.144531 56.880333 35.353272 61.707031 40.535156 61.707031 C 40.805191 61.707031 41.069855 61.677979 41.333984 61.652344 C 41.135539 62.088293 41.035787 62.51214 41.0625 62.894531 C 41.206253 65.008391 47.069162 73.814453 48.388672 73.814453 C 49.709212 73.814453 54.837235 65.181886 54.689453 62.712891 C 54.668438 62.359854 54.551395 61.996723 54.375 61.632812 C 54.732612 61.680333 55.096278 61.707031 55.464844 61.707031 C 60.646728 61.707031 64.855469 56.884242 64.855469 50.945312 C 64.855469 45.000458 60.646728 40.185547 55.464844 40.185547 C 52.421283 40.185547 49.709163 41.850907 47.998047 44.427734 C 46.282924 41.851026 43.582609 40.185547 40.535156 40.185547 z "
     id="path4522" />
  <path
     style="fill:#f9f9f9"
     inkscape:connector-curvature="0"
     d="m 40.53596,40.184994 c -5.181884,0 -9.391221,4.818189 -9.391221,10.76103 0,5.93502 4.209337,10.76103 9.391221,10.76103 3.047453,0 5.747029,-1.665707 7.462037,-4.246444 1.712146,2.580737 4.422482,4.246444 7.466043,4.246444 5.181884,0 9.39122,-4.8221 9.39122,-10.76103 0,-5.944855 -4.209336,-10.76103 -9.39122,-10.76103 -3.043561,0 -5.754927,1.665706 -7.466043,4.242533 -1.715123,-2.576708 -4.414584,-4.242533 -7.462037,-4.242533"
     id="path80" />
  <path
     inkscape:connector-curvature="0"
     style="fill:url(#linearGradient4251)"
     d="m 47.946828,57.434541 c -3.36866,0 -7.03277,3.346343 -6.885102,5.460204 0.143753,2.11386 6.00768,10.920289 7.32719,10.920289 1.32054,0 6.447936,-8.632357 6.300154,-11.101352 -0.14673,-2.464966 -4.542448,-5.460204 -6.742356,-5.282103"
     id="path82" />
  <path
     id="path84"
     d="m 54.38469,61.63406 c -0.80202,3.241474 -4.996555,10.080504 -6.169313,10.080504 -1.145971,0 -5.716236,-6.642207 -6.989156,-9.775849 -0.119954,0.332359 -0.174477,0.656802 -0.15465,0.954537 0.146729,2.11386 6.007679,10.920289 7.327189,10.920289 1.32054,0 6.451828,-8.632357 6.30416,-11.093413 -0.0228,-0.35511 -0.13582,-0.71912 -0.310297,-1.09005 m -0.004,0.0039"
     inkscape:connector-curvature="0"
     style="fill:#ecc100" />
  <path
     id="path86"
     d="m 43.644998,48.465535 c -1.785407,0 -3.237819,1.441155 -3.237819,3.206873 0,1.769628 1.456304,3.210783 3.237819,3.210783 1.781516,0 3.237819,-1.441155 3.237819,-3.210783 0,-1.765599 -1.456303,-3.206873 -3.237819,-3.206873 m -0.979473,1.564866 c 0.391595,0 0.704868,0.31257 0.704868,0.699343 0,0.382803 -0.313273,0.695385 -0.704868,0.695385 -0.391594,0 -0.704868,-0.31257 -0.704868,-0.695385 0,-0.386761 0.313274,-0.699343 0.704868,-0.699343"
     inkscape:connector-curvature="0"
     style="fill:#3d3d3d" />
  <path
     id="path88"
     d="m 52.808421,48.465535 c -1.781516,0 -3.237819,1.441155 -3.237819,3.206873 0,1.769628 1.46031,3.210783 3.237819,3.210783 1.781516,0 3.241826,-1.441155 3.241826,-3.210783 0,-1.765599 -1.46031,-3.206873 -3.241826,-3.206873 m -0.979473,1.564866 c 0.391595,0 0.708829,0.31257 0.708829,0.699343 0,0.382803 -0.317234,0.695385 -0.708829,0.695385 -0.387622,0 -0.704868,-0.31257 -0.704868,-0.695385 0,-0.386761 0.317234,-0.699343 0.704868,-0.699343"
     inkscape:connector-curvature="0"
     style="fill:#3d3d3d" />
  <path
     style="fill:#dd5b97"
     d="m 30.39074,22.642678 c 1.348072,-1.295105 4.584055,-1.459617 5.935776,-0.301765 0.761237,0.652064 1.280417,0.519069 2.712375,-0.694801 1.22644,-1.03965 2.60919,-1.508013 4.497256,-1.523317 1.589645,-0.01288 3.136278,-0.447407 3.709625,-1.042209 1.693554,-1.75694 5.750056,-1.309 8.065279,0.890606 1.794239,1.704642 2.410942,1.895832 5.718171,1.772738 3.308822,-0.123148 3.871122,0.05141 5.234627,1.625077 0.840183,0.969671 2.520615,1.934402 2.595394,2.468774 2.556389,18.267948 -30.47016,10.939715 -37.175104,9.491228 -7.340247,0.115793 -4.676663,-9.057732 -1.293399,-12.686331 z"
     id="path4392"
     inkscape:connector-curvature="0"
     sodipodi:nodetypes="csssssssscc" />
  <path
     inkscape:connector-curvature="0"
     style="fill:#952f5b"
     d="m 50.263985,21.999995 0.0014,0.0059 c -1.9773,0 -3.687474,0.843423 -4.546095,2.089998 -0.773259,-0.316919 -1.650222,-0.476076 -2.581116,-0.476077 -2.421131,0 -4.460392,1.184283 -5.220516,2.860415 -0.222132,-0.28981 -0.494089,-0.538392 -0.790988,-0.76844 -0.05116,0.04411 -1.109943,-0.725586 -2.392389,-1.039073 -1.728323,-0.237135 -3.878851,0.168738 -4.974892,2.048513 -0.983653,1.805936 -0.730936,3.887791 -0.728541,4.162219 1.683052,-3.009999 2.469575,-5.061018 5.095622,-4.98992 0.896868,0.03735 3.627559,1.49133 4.143664,2.165063 0.760125,-1.676145 2.803177,-2.862389 5.220515,-2.862389 0.934666,0 1.807881,0.163479 2.581116,0.478052 0.853962,-1.24306 2.5712,-2.091973 4.544706,-2.091973 2.322634,0 4.27736,1.18699 4.898572,2.789299 0.08821,-0.007 0.201772,0 0.292803,0 l -0.469042,0.32792 c 0.121056,-0.08452 0.246483,-0.126573 0.381617,-0.18174 0.158591,-0.06221 0.307634,-0.12154 0.469041,-0.14618 0.47766,0.01761 0.932155,0.07374 1.348841,0.181738 0.917774,0.412007 1.74092,1.393332 2.171747,2.678674 0.399773,1.197277 0.369736,2.417415 0,3.374026 -0.898063,-0.600992 -2.094803,-0.790664 -3.31382,-0.476077 l 0.02915,-0.110605 c -0.0066,0.007 -0.02258,-0.0035 -0.02915,0 -0.289031,-1.395657 -1.244492,-2.758324 -2.669929,-3.595271 -2.27658,-1.326405 -4.871436,-0.791208 -5.806124,1.208959 -0.09009,0.178412 -0.15846,0.362169 -0.205379,0.551144 l 0,0.03556 -0.352476,1.578364 c 0.05725,-0.188988 0.121869,-0.369199 0.205381,-0.551144 0.938414,-2.000125 3.554436,-2.57637 5.836653,-1.246493 1.005044,0.583389 1.762163,1.441788 2.22864,2.384338 -0.208328,0.09155 -0.407811,0.21134 -0.616137,0.329895 -1.425437,0.83457 -2.380528,2.200781 -2.668541,3.595273 -0.0066,-0.0036 -0.02257,0.0035 -0.02915,0 l 0.352475,1.576388 c 0.0039,0.0035 0.02632,-0.0036 0.02915,0 0.289031,-1.396824 1.243105,-2.758326 2.668542,-3.595272 2.282215,-1.326404 4.894074,-0.789231 5.835265,1.210934 0.08445,0.178414 0.149532,0.360194 0.206766,0.549168 l -0.381617,-1.540831 0.02915,-0.03557 c -0.05064,-0.188967 -0.121832,-0.37271 -0.205342,-0.551123 -0.238364,-0.509424 -0.577351,-0.927209 -0.997753,-1.246492 l 0.703561,-0.515585 c -0.0066,0 -0.02633,-0.03204 -0.02915,-0.03556 0.490793,-0.988347 0.568394,-2.34193 0.117953,-3.668363 -0.212086,-0.635021 -0.506759,-1.198691 -0.881187,-1.649479 0.467333,-0.23006 0.966676,-0.459663 1.495938,-0.440519 2.755204,0.09967 3.268037,2.631714 3.827268,3.002645 -0.02767,-0.02827 -0.01973,0.0055 0.0083,0.07507 -0.05549,-0.06995 -0.120199,-0.143963 -0.173462,-0.213347 0.11824,0.247684 0.201286,0.53562 0.294192,0.807949 0.557421,1.67966 0.477886,3.403192 -0.147096,4.658051 l 1.201746,-0.916596 c 0.266514,-0.537605 0.653141,-1.162989 0.718826,-1.833194 -0.01739,-0.02959 -0.04037,-0.05745 -0.05828,-0.08692 0.258835,-0.526542 -0.318627,-3.26695 -0.520386,-3.443165 -0.170891,-0.149263 -1.130587,-1.928711 -2.384059,-2.680654 -1.443164,-0.865736 -3.20324,-0.716272 -3.410959,-0.875113 -0.693485,0.125571 -1.346489,0.370223 -1.906695,0.770417 -0.753081,-0.537575 -1.87739,-0.88104 -3.137583,-0.88104 -0.13419,0 -0.27281,0.03049 -0.410759,0.03753 -0.626326,-1.609341 -2.583306,-2.789288 -4.899979,-2.789288 z m -10.736609,6.388521 c -0.661348,-0.0028 -1.367848,0.152781 -2.049629,0.476077 -0.638127,0.300498 -1.171491,0.726148 -1.612504,1.210936 -1.03508,-0.252364 -2.047156,-0.121989 -2.87392,0.292362 -0.630616,0.921443 -1.202109,1.874402 -1.730458,2.897947 1.029446,-1.81001 3.502195,-2.266847 5.686781,-0.989687 0.934666,0.544649 1.663166,1.299964 2.139829,2.165065 -0.03003,0.01408 -0.06066,0.02147 -0.08881,0.03557 l 0.412146,0.661766 c 0.08821,0.238288 0.155643,0.487564 0.205378,0.732883 0.0039,-0.0036 0.02632,0.0035 0.02915,0 l 0.05828,-0.294338 0.05967,0.148155 c 0.685986,-0.199547 1.468618,-0.235868 2.257783,-0.07507 1.458268,0.293451 2.62393,1.203165 3.226395,2.348779 0.0039,-0.0036 0.02633,0.0036 0.02915,0 l -0.08881,-1.505273 c -0.601535,-1.140946 -1.793477,-2.053337 -3.255539,-2.346805 -0.692552,-0.143202 -1.372042,-0.107644 -1.994119,0.03556 -0.31249,-1.354567 -1.259905,-2.673575 -2.639399,-3.484648 0.299357,-0.23476 0.640218,-0.450875 0.997754,-0.622258 1.36443,-0.643249 2.811744,-0.586903 3.870286,0 l 0,-0.03752 -0.820128,-1.173401 C 40.816646,28.571788 40.18883,28.392791 39.531551,28.388534 l -0.0042,0 z m -8.498256,5.319818 c -0.02533,0.05165 -0.06208,0.09454 -0.08743,0.146181 -0.0047,0.0094 0.0047,0.02931 0,0.03752 l -0.02915,0.146182 c 0.03003,-0.112689 0.07433,-0.221902 0.116567,-0.329896 z"
     id="path78" />
  <path
     style="opacity:0.1;fill:#000000;fill-opacity:1;stroke:none;stroke-width:2;stroke-linecap:round;stroke-linejoin:round;stroke-miterlimit:4;stroke-dasharray:none;stroke-opacity:1"
     d="M 50.621094 18.007812 C 50.38734 17.996235 50.157313 17.996718 49.931641 18.009766 C 48.848413 18.072396 47.881177 18.421226 47.246094 19.080078 C 46.672747 19.67488 45.126754 20.110167 43.537109 20.123047 C 41.649043 20.138351 40.265502 20.606834 39.039062 21.646484 C 37.607104 22.860354 37.087409 22.993861 36.326172 22.341797 C 34.974451 21.183945 31.738697 21.347473 30.390625 22.642578 C 28.116874 25.081209 26.182455 30.014323 27.376953 32.958984 C 24.008153 37.680079 22 43.585744 22 50 C 22 57.323228 25.417768 62.151098 29.691406 67.140625 C 34.442123 72.687149 40.440737 78 48 78 C 56.645361 78 63.659544 71.450403 68.386719 64.458984 C 71.511085 59.838093 74 56.153583 74 50 C 74 43.188132 71.739263 36.946146 67.984375 32.091797 C 68.857176 30.448888 69.218331 28.402991 68.859375 25.837891 C 68.784596 25.303519 67.103855 24.338812 66.263672 23.369141 C 64.900167 21.795474 64.338119 21.620993 61.029297 21.744141 C 57.722068 21.867235 57.104786 21.675345 55.310547 19.970703 C 54.04441 18.767793 52.257368 18.088858 50.621094 18.007812 z M 50.046875 20.005859 C 51.254445 19.936039 52.953464 20.488737 53.933594 21.419922 C 54.886576 22.325316 55.796602 23.076822 57.009766 23.453125 C 58.22293 23.829428 59.406679 23.805342 61.103516 23.742188 C 62.718639 23.682077 63.519654 23.748288 63.783203 23.830078 C 64.046752 23.911898 64.135305 23.967993 64.751953 24.679688 C 65.389305 25.415267 66.087643 25.918262 66.595703 26.326172 C 66.733064 26.436456 66.789219 26.488165 66.884766 26.570312 C 67.083785 28.536741 66.824376 30.014303 66.21875 31.154297 A 2.0002 2.0002 0 0 0 66.402344 33.316406 C 69.887278 37.821757 72 43.630641 72 50 C 72 55.614295 69.854577 58.717381 66.730469 63.337891 C 62.192847 70.048963 55.635247 76 48 76 C 41.377839 76 35.831035 71.233869 31.210938 65.839844 C 27.009236 60.934303 24 56.700958 24 50 C 24 44.003179 25.876837 38.50616 29.005859 34.121094 A 2.0002 2.0002 0 0 0 29.230469 32.207031 C 28.92082 31.443689 28.956502 29.861386 29.486328 28.228516 C 30.006342 26.625886 30.946433 25.017104 31.804688 24.074219 C 31.952001 23.945803 32.681721 23.609662 33.458984 23.570312 C 34.250123 23.530262 34.983677 23.825597 35.025391 23.861328 C 35.628005 24.377518 36.888598 24.897289 37.927734 24.630859 C 38.966871 24.36443 39.552605 23.832594 40.332031 23.171875 C 41.218598 22.420334 41.987555 22.135734 43.552734 22.123047 C 44.524837 22.115147 45.461163 21.984176 46.314453 21.744141 C 47.167743 21.504105 47.944697 21.237323 48.685547 20.46875 C 48.861254 20.286466 49.322382 20.047748 50.046875 20.005859 z "
     id="path4385" />
  <path
     style="color:#000000;font-style:normal;font-variant:normal;font-weight:normal;font-stretch:normal;font-size:medium;line-height:normal;font-family:sans-serif;text-indent:0;text-align:start;text-decoration:none;text-decoration-line:none;text-decoration-style:solid;text-decoration-color:#000000;letter-spacing:normal;word-spacing:normal;text-transform:none;direction:ltr;block-progression:tb;writing-mode:lr-tb;baseline-shift:baseline;text-anchor:start;white-space:normal;clip-rule:nonzero;display:inline;overflow:visible;visibility:visible;opacity:0.1;isolation:auto;mix-blend-mode:normal;color-interpolation:sRGB;color-interpolation-filters:linearRGB;solid-color:#000000;solid-opacity:1;fill:url(#linearGradient4412);fill-opacity:1;fill-rule:nonzero;stroke:none;stroke-width:4;stroke-linecap:round;stroke-linejoin:round;stroke-miterlimit:4;stroke-dasharray:none;stroke-dashoffset:0;stroke-opacity:1;color-rendering:auto;image-rendering:auto;shape-rendering:auto;text-rendering:auto;enable-background:accumulate"
     d="M 50.722656 16.007812 C 50.419089 15.994906 50.116805 15.996303 49.816406 16.013672 C 48.374443 16.097042 46.901099 16.555986 45.806641 17.691406 C 45.974144 17.517635 45.690923 17.765006 45.230469 17.894531 C 44.770015 18.02406 44.139027 18.118043 43.521484 18.123047 C 41.310532 18.140967 39.312407 18.793334 37.746094 20.121094 C 37.271359 20.523526 37.213051 20.53408 37.154297 20.582031 C 35.944651 19.761163 34.589553 19.506699 33.255859 19.574219 C 31.754173 19.650249 30.226078 20.028896 29.005859 21.201172 A 2.0002 2.0002 0 0 0 28.927734 21.279297 C 27.525064 22.783682 26.388837 24.814631 25.681641 26.994141 C 25.103556 28.77574 24.951645 30.658678 25.333984 32.484375 C 22.001209 37.426786 20 43.460566 20 50 C 20 57.945498 23.826301 63.367893 28.171875 68.441406 C 33.05321 74.140429 39.503635 80 48 80 C 57.655475 80 65.12624 72.851844 70.042969 65.580078 C 73.167593 60.958805 76 56.692871 76 50 C 76 43.141102 73.792853 36.844192 70.15625 31.775391 C 70.836914 29.961981 71.170299 27.921982 70.839844 25.560547 C 70.690088 24.490388 70.24333 24.236711 69.953125 23.947266 C 69.66292 23.657821 69.382088 23.432258 69.101562 23.207031 C 68.540513 22.756577 67.978222 22.292686 67.775391 22.058594 C 67.028534 21.196621 66.154307 20.377818 64.96875 20.009766 C 63.783193 19.641713 62.648777 19.683058 60.955078 19.746094 C 59.344686 19.806034 58.566156 19.747794 58.195312 19.632812 C 57.824469 19.517784 57.528757 19.320732 56.6875 18.521484 C 55.012839 16.930452 52.847625 16.098156 50.722656 16.007812 z M 50.621094 18.007812 C 52.257368 18.088858 54.04441 18.767793 55.310547 19.970703 C 57.104786 21.675345 57.722068 21.867235 61.029297 21.744141 C 64.338119 21.620993 64.900167 21.795474 66.263672 23.369141 C 67.103855 24.338812 68.784596 25.303519 68.859375 25.837891 C 69.218331 28.402991 68.857176 30.448888 67.984375 32.091797 C 71.739263 36.946146 74 43.188132 74 50 C 74 56.153583 71.511085 59.838093 68.386719 64.458984 C 63.659544 71.450403 56.645361 78 48 78 C 40.440737 78 34.442123 72.687149 29.691406 67.140625 C 25.417768 62.151098 22 57.323228 22 50 C 22 43.585744 24.008153 37.680079 27.376953 32.958984 C 26.182455 30.014323 28.116874 25.081209 30.390625 22.642578 C 31.738697 21.347473 34.974451 21.183945 36.326172 22.341797 C 37.087409 22.993861 37.607104 22.860354 39.039062 21.646484 C 40.265502 20.606834 41.649043 20.138351 43.537109 20.123047 C 45.126754 20.110167 46.672747 19.67488 47.246094 19.080078 C 47.881177 18.421226 48.848413 18.072396 49.931641 18.009766 C 50.157313 17.996718 50.38734 17.996235 50.621094 18.007812 z "
     id="path4401" />
  <path
     style="opacity:0.1;fill:#000000;fill-opacity:1;stroke:none;stroke-width:2;stroke-linecap:round;stroke-linejoin:round;stroke-miterlimit:4;stroke-dasharray:none;stroke-opacity:1"
     d="M 50.621094 18.007812 C 50.38734 17.996235 50.157313 17.996718 49.931641 18.009766 C 48.848413 18.072396 47.881177 18.421226 47.246094 19.080078 C 46.672747 19.67488 45.126754 20.110167 43.537109 20.123047 C 41.649043 20.138351 40.265502 20.606834 39.039062 21.646484 C 37.607104 22.860354 37.087409 22.993861 36.326172 22.341797 C 34.974451 21.183945 31.738697 21.347473 30.390625 22.642578 C 28.387977 24.790447 26.652197 28.871103 27.082031 31.826172 C 27.400272 29.228872 28.812271 26.335385 30.390625 24.642578 C 31.738697 23.347473 34.974451 23.183945 36.326172 24.341797 C 37.087409 24.993861 37.607104 24.860354 39.039062 23.646484 C 40.265502 22.606834 41.649043 22.138347 43.537109 22.123047 C 45.126754 22.110167 46.672747 21.67488 47.246094 21.080078 C 47.881177 20.421226 48.848413 20.072396 49.931641 20.009766 C 51.737021 19.905382 53.863533 20.595949 55.310547 21.970703 C 57.104786 23.675341 57.722068 23.867235 61.029297 23.744141 C 64.338119 23.620993 64.900167 23.795474 66.263672 25.369141 C 67.103855 26.338812 68.784595 27.303519 68.859375 27.837891 C 68.899944 28.127799 68.928698 28.408735 68.951172 28.685547 C 69.026384 27.813846 69.003834 26.870197 68.859375 25.837891 C 68.784596 25.303519 67.103855 24.338812 66.263672 23.369141 C 64.900167 21.795474 64.338119 21.620993 61.029297 21.744141 C 57.722068 21.867235 57.104786 21.675345 55.310547 19.970703 C 54.04441 18.767793 52.257368 18.088858 50.621094 18.007812 z M 68.517578 32.84375 C 68.370332 33.283699 68.192833 33.699407 67.984375 34.091797 C 71.530214 38.675885 73.741093 44.498832 73.976562 50.869141 C 73.98796 50.583135 74 50.297137 74 50 C 74 43.527888 71.941757 37.585564 68.517578 32.84375 z M 27.044922 33.462891 C 23.884051 38.099111 22 43.807377 22 50 C 22 50.391838 22.014026 50.772433 22.033203 51.150391 C 22.203131 45.06688 24.158421 39.469492 27.376953 34.958984 C 27.192226 34.503599 27.090304 33.996808 27.044922 33.462891 z "
     id="path4414" />
</svg>
