<?xml version="1.0" encoding="UTF-8" standalone="no"?>
<!-- Created with Inkscape (http://www.inkscape.org/) -->

<svg
   version="1.0"
   width="96"
   height="96"
   id="svg2408"
   sodipodi:docname="discord.svg"
   inkscape:version="1.2.2 (b0a8486541, 2022-12-01)"
   xmlns:inkscape="http://www.inkscape.org/namespaces/inkscape"
   xmlns:sodipodi="http://sodipodi.sourceforge.net/DTD/sodipodi-0.dtd"
   xmlns:xlink="http://www.w3.org/1999/xlink"
   xmlns="http://www.w3.org/2000/svg"
   xmlns:svg="http://www.w3.org/2000/svg"
   xmlns:rdf="http://www.w3.org/1999/02/22-rdf-syntax-ns#"
   xmlns:cc="http://creativecommons.org/ns#"
   xmlns:dc="http://purl.org/dc/elements/1.1/">
  <sodipodi:namedview
     id="namedview15843"
     pagecolor="#ffffff"
     bordercolor="#000000"
     borderopacity="0.25"
     inkscape:showpageshadow="2"
     inkscape:pageopacity="0.0"
     inkscape:pagecheckerboard="0"
     inkscape:deskcolor="#d1d1d1"
     showgrid="false"
     inkscape:zoom="1.4142136"
     inkscape:cx="383.95898"
     inkscape:cy="174.65537"
     inkscape:current-layer="g36866" />
  <defs
     id="defs2410">
    <linearGradient
       inkscape:collect="always"
       id="linearGradient48486">
      <stop
         style="stop-color:#e6e6e6;stop-opacity:1;"
         offset="0"
         id="stop48482" />
      <stop
         style="stop-color:#f5f5f5;stop-opacity:1;"
         offset="1"
         id="stop48484" />
    </linearGradient>
    <linearGradient
       id="linearGradient47754">
      <stop
         id="stop47750"
         style="stop-color:#e6e6e6;stop-opacity:1;"
         offset="0" />
      <stop
         id="stop47752"
         style="stop-color:#f5f5f5;stop-opacity:1"
         offset="1" />
    </linearGradient>
    <linearGradient
       inkscape:collect="always"
       id="linearGradient47746">
      <stop
         style="stop-color:#f5f5f5;stop-opacity:1;"
         offset="0"
         id="stop47742" />
      <stop
         style="stop-color:#e6e6e6;stop-opacity:1;"
         offset="1"
         id="stop47744" />
    </linearGradient>
    <linearGradient
       inkscape:collect="always"
       id="linearGradient47733">
      <stop
         style="stop-color:#09204d;stop-opacity:1;"
         offset="0"
         id="stop47729" />
      <stop
         style="stop-color:#092b70;stop-opacity:0;"
         offset="1"
         id="stop47731" />
    </linearGradient>
    <linearGradient
       id="linearGradient4085">
      <stop
         id="stop4087"
         style="stop-color:#782121;stop-opacity:1"
         offset="0" />
      <stop
         id="stop4089"
         style="stop-color:#782121;stop-opacity:0"
         offset="1" />
    </linearGradient>
    <linearGradient
       id="linearGradient3694">
      <stop
         id="stop3696"
         style="stop-color:#e6e6e6;stop-opacity:1"
         offset="0" />
      <stop
         id="stop3698"
         style="stop-color:#f5f5f5;stop-opacity:1"
         offset="1" />
    </linearGradient>
    <linearGradient
       id="linearGradient3688">
      <stop
         id="stop3690"
         style="stop-color:#444fce;stop-opacity:1;"
         offset="0" />
      <stop
         id="stop3692"
         style="stop-color:#5c84d6;stop-opacity:1;"
         offset="1" />
    </linearGradient>
    <linearGradient
       x1="45.447727"
       y1="92.539597"
       x2="45.447727"
       y2="7.0165396"
       id="ButtonShadow"
       gradientUnits="userSpaceOnUse"
       gradientTransform="scale(1.0058652,0.994169)">
      <stop
         id="stop3750"
         style="stop-color:#000000;stop-opacity:1"
         offset="0" />
      <stop
         id="stop3752"
         style="stop-color:#000000;stop-opacity:0.58823532"
         offset="1" />
    </linearGradient>
    <linearGradient
       id="linearGradient3737">
      <stop
         id="stop3739"
         style="stop-color:#ffffff;stop-opacity:1"
         offset="0" />
      <stop
         id="stop3741"
         style="stop-color:#ffffff;stop-opacity:0"
         offset="1" />
    </linearGradient>
    <filter
       color-interpolation-filters="sRGB"
       id="filter3174"
       x="-0.047720931"
       y="-0.048282354"
       width="1.0954419"
       height="1.0965647">
      <feGaussianBlur
         id="feGaussianBlur3176"
         stdDeviation="1.71" />
    </filter>
    <linearGradient
       x1="36.357143"
       y1="6"
       x2="36.357143"
       y2="63.893143"
       id="linearGradient3188"
       xlink:href="#linearGradient3737"
       gradientUnits="userSpaceOnUse" />
    <filter
       x="-0.19578789"
       y="-0.19578789"
       width="1.3915758"
       height="1.3915758"
       color-interpolation-filters="sRGB"
       id="filter3794">
      <feGaussianBlur
         id="feGaussianBlur3796"
         stdDeviation="5.28" />
    </filter>
    <linearGradient
       x1="48"
       y1="20.220806"
       x2="48"
       y2="138.66119"
       id="linearGradient3613"
       xlink:href="#linearGradient3737"
       gradientUnits="userSpaceOnUse" />
    <radialGradient
       cx="48"
       cy="90.171875"
       r="42"
       fx="48"
       fy="90.171875"
       id="radialGradient3619"
       xlink:href="#linearGradient3737"
       gradientUnits="userSpaceOnUse"
       gradientTransform="matrix(1.1573129,0,0,0.99590774,-7.5510206,0.19713193)" />
    <clipPath
       id="clipPath3613">
      <rect
         width="84"
         height="84"
         rx="6"
         ry="6"
         x="6"
         y="6"
         id="rect3615"
         style="fill:#ffffff;fill-opacity:1;fill-rule:nonzero;stroke:none" />
    </clipPath>
    <linearGradient
       x1="48"
       y1="90"
       x2="48"
       y2="5.9877172"
       id="linearGradient3617"
       xlink:href="#linearGradient3688"
       gradientUnits="userSpaceOnUse" />
    <linearGradient
       x1="45.447727"
       y1="92.539597"
       x2="45.447727"
       y2="7.0165396"
       id="ButtonShadow-0"
       gradientUnits="userSpaceOnUse"
       gradientTransform="matrix(1.0058652,0,0,0.994169,100,0)">
      <stop
         id="stop3750-8"
         style="stop-color:#000000;stop-opacity:1"
         offset="0" />
      <stop
         id="stop3752-5"
         style="stop-color:#000000;stop-opacity:0.58823532"
         offset="1" />
    </linearGradient>
    <linearGradient
       x1="32.251034"
       y1="6.1317081"
       x2="32.251034"
       y2="90.238609"
       id="linearGradient3780"
       xlink:href="#ButtonShadow-0"
       gradientUnits="userSpaceOnUse"
       gradientTransform="matrix(1.0238095,0,0,1.0119048,-1.1428571,-98.071429)" />
    <linearGradient
       x1="32.251034"
       y1="6.1317081"
       x2="32.251034"
       y2="90.238609"
       id="linearGradient3772"
       xlink:href="#ButtonShadow-0"
       gradientUnits="userSpaceOnUse"
       gradientTransform="matrix(1.0238095,0,0,1.0119048,-1.1428571,-98.071429)" />
    <linearGradient
       x1="32.251034"
       y1="6.1317081"
       x2="32.251034"
       y2="90.238609"
       id="linearGradient3725"
       xlink:href="#ButtonShadow-0"
       gradientUnits="userSpaceOnUse"
       gradientTransform="matrix(1.0238095,0,0,1.0119048,-1.1428571,-98.071429)" />
    <linearGradient
       x1="32.251034"
       y1="6.1317081"
       x2="32.251034"
       y2="90.238609"
       id="linearGradient3721"
       xlink:href="#ButtonShadow-0"
       gradientUnits="userSpaceOnUse"
       gradientTransform="translate(0,-97)" />
    <linearGradient
       x1="32.251034"
       y1="6.1317081"
       x2="32.251034"
       y2="90.238609"
       id="linearGradient3026"
       xlink:href="#ButtonShadow-0"
       gradientUnits="userSpaceOnUse"
       gradientTransform="matrix(1.0238095,0,0,1.0119048,-1.1428571,-98.071429)" />
    <linearGradient
       x1="-73.494293"
       y1="72.699486"
       x2="-50.243786"
       y2="159.47563"
       id="linearGradient4018"
       xlink:href="#linearGradient3694"
       gradientUnits="userSpaceOnUse"
       gradientTransform="matrix(0.59136097,-0.15844727,-0.15844727,-0.59136097,103.35407,108.29989)" />
    <linearGradient
       x1="-73.494293"
       y1="72.699486"
       x2="-50.243786"
       y2="159.47563"
       id="linearGradient4071"
       xlink:href="#linearGradient47754"
       gradientUnits="userSpaceOnUse"
       gradientTransform="matrix(0.59136097,-0.15844727,-0.15844727,-0.59136097,103.35407,109.29989)" />
    <linearGradient
       x1="58"
       y1="19"
       x2="58"
       y2="120"
       id="linearGradient4091"
       xlink:href="#linearGradient4085"
       gradientUnits="userSpaceOnUse" />
    <linearGradient
       inkscape:collect="always"
       xlink:href="#linearGradient47733"
       id="linearGradient47735"
       x1="106.41936"
       y1="98.975731"
       x2="106.41936"
       y2="115.09776"
       gradientUnits="userSpaceOnUse" />
    <linearGradient
       inkscape:collect="always"
       xlink:href="#linearGradient47746"
       id="linearGradient47748"
       x1="107.14453"
       y1="100.16483"
       x2="107.14453"
       y2="115.69289"
       gradientUnits="userSpaceOnUse" />
    <linearGradient
       inkscape:collect="always"
       xlink:href="#linearGradient48486"
       id="linearGradient48488"
       x1="106.53261"
       y1="114.87142"
       x2="106.53261"
       y2="99.088799"
       gradientUnits="userSpaceOnUse" />
    <filter
       inkscape:collect="always"
       style="color-interpolation-filters:sRGB"
       id="filter51707"
       x="-0.20833334"
       y="-0.20833334"
       width="1.4166667"
       height="1.4166667">
      <feGaussianBlur
         inkscape:collect="always"
         stdDeviation="5.6930688"
         id="feGaussianBlur51709" />
    </filter>
    <radialGradient
       inkscape:collect="always"
       xlink:href="#linearGradient5293"
       id="radialGradient5302"
       gradientUnits="userSpaceOnUse"
       gradientTransform="matrix(4.6723113,0,0,1.398978,-177.6239,-36.894191)"
       cx="48.397247"
       cy="57.980881"
       fx="48.397247"
       fy="57.980881"
       r="42" />
    <linearGradient
       id="linearGradient5293">
      <stop
         id="stop5295"
         style="stop-color:#ffffff;stop-opacity:0;"
         offset="0" />
      <stop
         id="stop5297"
         style="stop-color:#ffffff;stop-opacity:1;"
         offset="1" />
    </linearGradient>
  </defs>
  <metadata
     id="metadata2413">
    <rdf:RDF>
      <cc:Work
         rdf:about="">
        <dc:format>image/svg+xml</dc:format>
        <dc:type
           rdf:resource="http://purl.org/dc/dcmitype/StillImage" />
      </cc:Work>
    </rdf:RDF>
  </metadata>
  <g
     id="layer2"
     style="display:none">
    <rect
       width="86"
       height="85"
       rx="6"
       ry="6"
       x="5"
       y="7"
       id="rect3745"
       style="opacity:0.9;fill:url(#ButtonShadow);fill-opacity:1;fill-rule:nonzero;stroke:none;filter:url(#filter3174)" />
  </g>
  <g
     id="layer3">
    <path
       d="m 12,-95.03125 c -5.5110903,0 -10.03125,4.52016 -10.03125,10.03125 l 0,71 c 0,5.5110902 4.5201598,10.03125 10.03125,10.03125 l 72,0 c 5.51109,0 10.03125,-4.5201597 10.03125,-10.03125 l 0,-71 c 0,-5.51109 -4.52016,-10.03125 -10.03125,-10.03125 l -72,0 z"
       transform="scale(1,-1)"
       id="path3786"
       style="opacity:0.07999998;fill:url(#linearGradient3026);fill-opacity:1;fill-rule:nonzero;stroke:none;display:inline" />
    <path
       d="m 12,-94.03125 c -4.971633,0 -9.03125,4.059617 -9.03125,9.03125 l 0,71 c 0,4.9716329 4.0596171,9.03125 9.03125,9.03125 l 72,0 c 4.971633,0 9.03125,-4.059617 9.03125,-9.03125 l 0,-71 c 0,-4.971633 -4.059617,-9.03125 -9.03125,-9.03125 l -72,0 z"
       transform="scale(1,-1)"
       id="path3778"
       style="opacity:0.1;fill:url(#linearGradient3780);fill-opacity:1;fill-rule:nonzero;stroke:none;display:inline" />
    <path
       d="m 12,-93 c -4.4091333,0 -8,3.590867 -8,8 l 0,71 c 0,4.4091333 3.5908667,8 8,8 l 72,0 c 4.409133,0 8,-3.5908667 8,-8 l 0,-71 c 0,-4.409133 -3.590867,-8 -8,-8 l -72,0 z"
       transform="scale(1,-1)"
       id="path3770"
       style="opacity:0.2;fill:url(#linearGradient3772);fill-opacity:1;fill-rule:nonzero;stroke:none;display:inline" />
    <rect
       width="86"
       height="85"
       rx="7"
       ry="7"
       x="5"
       y="-92"
       transform="scale(1,-1)"
       id="rect3723"
       style="opacity:0.3;fill:url(#linearGradient3725);fill-opacity:1;fill-rule:nonzero;stroke:none;display:inline" />
    <rect
       width="84"
       height="84"
       rx="6"
       ry="6"
       x="6"
       y="-91"
       transform="scale(1,-1)"
       id="rect3716"
       style="display:inline;opacity:0.45;fill:url(#linearGradient3721);fill-opacity:1;fill-rule:nonzero;stroke:none" />
  </g>
  <g
     id="layer1">
    <rect
       width="84"
       height="84"
       rx="6"
       ry="6"
       x="6"
       y="6"
       id="rect2419"
       style="fill:url(#linearGradient3617);fill-opacity:1;fill-rule:nonzero;stroke:none" />
    <path
       d="M 12,6 C 8.676,6 6,8.676 6,12 l 0,2 0,68 0,2 c 0,0.334721 0.04135,0.6507 0.09375,0.96875 0.0487,0.295596 0.09704,0.596915 0.1875,0.875 0.00988,0.03038 0.020892,0.0636 0.03125,0.09375 0.098865,0.287771 0.2348802,0.547452 0.375,0.8125 0.1445918,0.273507 0.3156161,0.535615 0.5,0.78125 0.1843839,0.245635 0.3737765,0.473472 0.59375,0.6875 0.439947,0.428056 0.94291,0.814526 1.5,1.09375 0.278545,0.139612 0.5734731,0.246947 0.875,0.34375 -0.2562018,-0.100222 -0.4867109,-0.236272 -0.71875,-0.375 -0.00741,-0.0044 -0.023866,0.0045 -0.03125,0 -0.031933,-0.0193 -0.062293,-0.04251 -0.09375,-0.0625 -0.120395,-0.0767 -0.2310226,-0.163513 -0.34375,-0.25 -0.1061728,-0.0808 -0.2132809,-0.161112 -0.3125,-0.25 C 8.4783201,88.557317 8.3087904,88.373362 8.15625,88.1875 8.0486711,88.057245 7.9378561,87.922215 7.84375,87.78125 7.818661,87.74287 7.805304,87.69538 7.78125,87.65625 7.716487,87.553218 7.6510225,87.451733 7.59375,87.34375 7.4927417,87.149044 7.3880752,86.928049 7.3125,86.71875 7.30454,86.69694 7.288911,86.6782 7.28125,86.65625 7.2494249,86.5643 7.2454455,86.469419 7.21875,86.375 7.1884177,86.268382 7.1483606,86.171969 7.125,86.0625 7.0521214,85.720988 7,85.364295 7,85 L 7,83 7,15 7,13 C 7,10.218152 9.2181517,8 12,8 l 2,0 68,0 2,0 c 2.781848,0 5,2.218152 5,5 l 0,2 0,68 0,2 c 0,0.364295 -0.05212,0.720988 -0.125,1.0625 -0.04415,0.206893 -0.08838,0.397658 -0.15625,0.59375 -0.0077,0.02195 -0.0233,0.04069 -0.03125,0.0625 -0.06274,0.173739 -0.138383,0.367449 -0.21875,0.53125 -0.04158,0.0828 -0.07904,0.169954 -0.125,0.25 -0.0546,0.09721 -0.126774,0.18835 -0.1875,0.28125 -0.09411,0.140965 -0.204921,0.275995 -0.3125,0.40625 -0.143174,0.17445 -0.303141,0.346998 -0.46875,0.5 -0.01117,0.0102 -0.01998,0.02115 -0.03125,0.03125 -0.138386,0.125556 -0.285091,0.234436 -0.4375,0.34375 -0.102571,0.07315 -0.204318,0.153364 -0.3125,0.21875 -0.0074,0.0045 -0.02384,-0.0044 -0.03125,0 -0.232039,0.138728 -0.462548,0.274778 -0.71875,0.375 0.301527,-0.0968 0.596455,-0.204138 0.875,-0.34375 0.55709,-0.279224 1.060053,-0.665694 1.5,-1.09375 0.219973,-0.214028 0.409366,-0.441865 0.59375,-0.6875 0.184384,-0.245635 0.355408,-0.507743 0.5,-0.78125 0.14012,-0.265048 0.276135,-0.524729 0.375,-0.8125 0.01041,-0.03078 0.02133,-0.06274 0.03125,-0.09375 0.09046,-0.278085 0.1388,-0.579404 0.1875,-0.875 C 89.95865,84.6507 90,84.334721 90,84 l 0,-2 0,-68 0,-2 C 90,8.676 87.324,6 84,6 L 12,6 z"
       inkscape:connector-curvature="0"
       id="rect3728"
       style="opacity:0.35;fill:url(#linearGradient3188);fill-opacity:1;fill-rule:nonzero;stroke:none" />
    <path
       d="M 12,90 C 8.676,90 6,87.324 6,84 L 6,82 6,14 6,12 c 0,-0.334721 0.04135,-0.6507 0.09375,-0.96875 0.0487,-0.295596 0.09704,-0.596915 0.1875,-0.875 C 6.29113,10.12587 6.302142,10.09265 6.3125,10.0625 6.411365,9.774729 6.5473802,9.515048 6.6875,9.25 6.8320918,8.976493 7.0031161,8.714385 7.1875,8.46875 7.3718839,8.223115 7.5612765,7.995278 7.78125,7.78125 8.221197,7.353194 8.72416,6.966724 9.28125,6.6875 9.559795,6.547888 9.8547231,6.440553 10.15625,6.34375 9.9000482,6.443972 9.6695391,6.580022 9.4375,6.71875 c -0.00741,0.0044 -0.023866,-0.0045 -0.03125,0 -0.031933,0.0193 -0.062293,0.04251 -0.09375,0.0625 -0.120395,0.0767 -0.2310226,0.163513 -0.34375,0.25 -0.1061728,0.0808 -0.2132809,0.161112 -0.3125,0.25 C 8.4783201,7.442683 8.3087904,7.626638 8.15625,7.8125 8.0486711,7.942755 7.9378561,8.077785 7.84375,8.21875 7.818661,8.25713 7.805304,8.30462 7.78125,8.34375 7.716487,8.446782 7.6510225,8.548267 7.59375,8.65625 7.4927417,8.850956 7.3880752,9.071951 7.3125,9.28125 7.30454,9.30306 7.288911,9.3218 7.28125,9.34375 7.2494249,9.4357 7.2454455,9.530581 7.21875,9.625 7.1884177,9.731618 7.1483606,9.828031 7.125,9.9375 7.0521214,10.279012 7,10.635705 7,11 l 0,2 0,68 0,2 c 0,2.781848 2.2181517,5 5,5 l 2,0 68,0 2,0 c 2.781848,0 5,-2.218152 5,-5 l 0,-2 0,-68 0,-2 C 89,10.635705 88.94788,10.279012 88.875,9.9375 88.83085,9.730607 88.78662,9.539842 88.71875,9.34375 88.71105,9.3218 88.69545,9.30306 88.6875,9.28125 88.62476,9.107511 88.549117,8.913801 88.46875,8.75 88.42717,8.6672 88.38971,8.580046 88.34375,8.5 88.28915,8.40279 88.216976,8.31165 88.15625,8.21875 88.06214,8.077785 87.951329,7.942755 87.84375,7.8125 87.700576,7.63805 87.540609,7.465502 87.375,7.3125 87.36383,7.3023 87.35502,7.29135 87.34375,7.28125 87.205364,7.155694 87.058659,7.046814 86.90625,6.9375 86.803679,6.86435 86.701932,6.784136 86.59375,6.71875 c -0.0074,-0.0045 -0.02384,0.0044 -0.03125,0 -0.232039,-0.138728 -0.462548,-0.274778 -0.71875,-0.375 0.301527,0.0968 0.596455,0.204138 0.875,0.34375 0.55709,0.279224 1.060053,0.665694 1.5,1.09375 0.219973,0.214028 0.409366,0.441865 0.59375,0.6875 0.184384,0.245635 0.355408,0.507743 0.5,0.78125 0.14012,0.265048 0.276135,0.524729 0.375,0.8125 0.01041,0.03078 0.02133,0.06274 0.03125,0.09375 0.09046,0.278085 0.1388,0.579404 0.1875,0.875 C 89.95865,11.3493 90,11.665279 90,12 l 0,2 0,68 0,2 c 0,3.324 -2.676,6 -6,6 l -72,0 z"
       inkscape:connector-curvature="0"
       id="path3615"
       style="opacity:0.2;fill:url(#radialGradient3619);fill-opacity:1;fill-rule:nonzero;stroke:none" />
  </g>
  <g
     id="layer5">
    <rect
       width="66"
       height="66"
       rx="12"
       ry="12"
       x="15"
       y="15"
       clip-path="url(#clipPath3613)"
       id="rect3171"
       style="display:inline;opacity:0.1;fill:url(#linearGradient3613);fill-opacity:1;fill-rule:nonzero;stroke:#ffffff;stroke-width:0.5;stroke-linecap:round;stroke-linejoin:miter;stroke-miterlimit:4;stroke-dasharray:none;stroke-dashoffset:0;stroke-opacity:1;filter:url(#filter3794)" />
  </g>
  <g
     id="layer4"
     style="display:inline"
     transform="translate(93.198533,0.21513681)">
    <path
       d="m 75.463619,59.577234 c -0.1751,-0.236936 -0.45245,-0.569994 -0.76469,-0.890194 -3.24854,-3.333638 -5.674837,-7.269718 -6.981966,-11.629467 -0.06,-0.202651 -0.119999,-0.405302 -0.173876,-0.608565 -0.05633,-0.204487 -0.105305,-0.413261 -0.155508,-0.620809 -1.046315,-4.426483 -0.918358,-9.050719 0.233263,-13.559854 0,0 0.175712,-0.744482 0.221018,-1.051213 0.967948,-5.69749 -2.539565,-11.298246 -8.23032,-12.823944 -5.802182,-1.554473 -11.748853,1.698962 -13.646179,7.310738 -0.07837,0.209385 -0.238161,0.738359 -0.239998,0.746318 -1.247129,4.420361 -3.41384,8.433583 -6.475032,11.718854 -3.477513,3.650164 -7.898486,6.245442 -12.855167,7.573387 -6.037895,1.617534 -9.624999,7.834814 -8.006853,13.875157 1.620595,6.039118 7.828079,9.626223 13.870259,8.00624 4.508523,-1.151008 9.132758,-1.281415 13.561078,-0.235712 0.206324,0.05143 0.413873,0.102244 0.619585,0.157958 0.206325,0.0551 0.410812,0.115101 0.6153,0.173263 4.357912,1.308354 8.298278,3.732814 11.627017,6.983194 0.408975,0.40959 0.762237,0.69795 1.092233,0.93121 4.47485,3.41017 10.842126,3.14874 14.922086,-0.93121 4.14118,-4.13873 4.38118,-10.678052 0.76775,-15.125351 z m -27.437464,2.046713 c -5.911161,-1.583861 -9.420511,-7.662163 -7.83665,-13.573323 1.585085,-5.911773 7.662162,-9.421123 13.573323,-7.837263 5.913609,1.585085 9.421735,7.66155 7.837262,13.573323 -1.584473,5.911773 -7.660325,9.421736 -13.573935,7.837263 z"
       inkscape:connector-curvature="0"
       id="path3860"
       style="display:inline;fill:url(#linearGradient4018);fill-opacity:1" />
    <path
       d="m 153.20187,87.015227 v 0.359 h -0.695 v 1.815 h -0.432 v -1.815 h -0.695 v -0.359 z m 2.351,2.175 -0.08,-1.279 c -0.008,-0.168 -0.008,-0.376 -0.017,-0.608 h -0.024 c -0.055,0.192 -0.119,0.448 -0.184,0.648 l -0.392,1.207 h -0.448 l -0.391,-1.239 c -0.041,-0.168 -0.104,-0.424 -0.152,-0.616 h -0.023 c 0,0.2 -0.009,0.408 -0.017,0.608 l -0.08,1.279 h -0.415 l 0.159,-2.175 h 0.647 l 0.376,1.063 c 0.048,0.167 0.088,0.327 0.144,0.552 h 0.008 c 0.057,-0.2 0.104,-0.385 0.152,-0.544 l 0.376,-1.071 h 0.624 l 0.168,2.175 z"
       inkscape:connector-curvature="0"
       id="path3903"
       style="display:inline;opacity:0.5" />
    <path
       d="m 56.375,17 c -4.638502,0.13193 -8.864673,3.159182 -10.40625,7.71875 -0.07837,0.209385 -0.248163,0.710791 -0.25,0.71875 -1.247129,4.420361 -3.407558,8.433479 -6.46875,11.71875 -3.477513,3.650164 -7.887069,6.265805 -12.84375,7.59375 -5.157466,1.38167 -8.510544,6.101872 -8.375,11.21875 0.295987,-4.722895 3.555754,-8.927688 8.375,-10.21875 4.956681,-1.327945 9.366237,-3.943586 12.84375,-7.59375 3.061192,-3.285271 5.221621,-7.298389 6.46875,-11.71875 0.0018,-0.008 0.17163,-0.509365 0.25,-0.71875 1.897326,-5.611776 7.854068,-8.866973 13.65625,-7.3125 4.871375,1.306021 8.10978,5.592307 8.34375,10.375 C 68.177129,23.606427 64.83466,18.802966 59.625,17.40625 58.537091,17.114786 57.445424,16.969555 56.375,17 Z m 10.3125,22.78125 c 0.0099,2.039246 0.217627,4.074681 0.6875,6.0625 0.0502,0.207548 0.09992,0.389263 0.15625,0.59375 0.05388,0.203263 0.1275,0.422349 0.1875,0.625 1.307129,4.359749 3.72021,8.291362 6.96875,11.625 0.31224,0.3202 0.60615,0.638064 0.78125,0.875 1.580876,1.945693 2.429514,4.317167 2.53125,6.6875 0.125969,-2.708084 -0.724535,-5.46385 -2.53125,-7.6875 -0.1751,-0.236936 -0.46901,-0.5548 -0.78125,-0.875 -3.24854,-3.333638 -5.661621,-7.265251 -6.96875,-11.625 -0.06,-0.202651 -0.133623,-0.421737 -0.1875,-0.625 -0.05633,-0.204487 -0.106047,-0.386202 -0.15625,-0.59375 -0.392368,-1.659931 -0.617454,-3.363449 -0.6875,-5.0625 z M 61.96875,50.5625 c -0.04416,0.735024 -0.176941,1.479778 -0.375,2.21875 -1.584473,5.911773 -7.64889,9.428223 -13.5625,7.84375 -4.71561,-1.26352 -7.895301,-5.382577 -8.1875,-10 -0.142785,5.014198 3.131252,9.645208 8.1875,11 5.91361,1.584473 11.978027,-1.931977 13.5625,-7.84375 0.2886,-1.076787 0.408066,-2.159171 0.375,-3.21875 z"
       inkscape:connector-curvature="0"
       id="path4060"
       style="display:inline;opacity:0.3;fill:#000000;fill-opacity:1" />
    <path
       d="m 67.96875,29.78125 c -0.01924,0.477878 -0.04317,0.955836 -0.125,1.4375 -0.04531,0.306731 -0.21875,1.0625 -0.21875,1.0625 -0.661116,2.588577 -0.979598,5.207247 -0.9375,7.8125 0.04515,-2.273011 0.36169,-4.557932 0.9375,-6.8125 0,0 0.173444,-0.755769 0.21875,-1.0625 0.139369,-0.82035 0.164354,-1.633036 0.125,-2.4375 z M 50.4375,39.84375 c -4.72032,0.18809 -8.962118,3.415434 -10.25,8.21875 -0.320341,1.195551 -0.417831,2.391842 -0.34375,3.5625 0.02414,-0.847803 0.114681,-1.707588 0.34375,-2.5625 1.585085,-5.911773 7.651339,-9.42761 13.5625,-7.84375 4.804807,1.287882 8.031239,5.529503 8.21875,10.25 0.262999,-5.109665 -3.076022,-9.871542 -8.21875,-11.25 -1.108343,-0.296974 -2.223195,-0.418405 -3.3125,-0.375 z m -32.40625,17.125 c -0.07485,1.194285 0.01715,2.437107 0.34375,3.65625 1.620595,6.039118 7.83282,9.619983 13.875,8 4.508523,-1.151008 9.13418,-1.295703 13.5625,-0.25 0.206324,0.05143 0.419288,0.100536 0.625,0.15625 0.206325,0.0551 0.420512,0.129338 0.625,0.1875 4.357912,1.308354 8.296261,3.71837 11.625,6.96875 0.408975,0.40959 0.763754,0.70424 1.09375,0.9375 4.47485,3.41017 10.82629,3.14245 14.90625,-0.9375 2.329414,-2.328036 3.443303,-5.389929 3.3125,-8.4375 -0.125969,2.708084 -1.24191,5.368135 -3.3125,7.4375 -4.07996,4.07995 -10.4314,4.34767 -14.90625,0.9375 -0.329996,-0.23326 -0.684775,-0.52791 -1.09375,-0.9375 -3.328739,-3.25038 -7.267088,-5.660396 -11.625,-6.96875 -0.204488,-0.05816 -0.418675,-0.1324 -0.625,-0.1875 -0.205712,-0.05571 -0.418676,-0.10482 -0.625,-0.15625 -4.42832,-1.045703 -9.053977,-0.901008 -13.5625,0.25 -6.04218,1.619983 -12.254405,-1.960882 -13.875,-8 -0.235954,-0.880786 -0.320611,-1.782749 -0.34375,-2.65625 z"
       inkscape:connector-curvature="0"
       id="path4069"
       style="display:inline;opacity:0.4;fill:url(#linearGradient4071);fill-opacity:1" />
    <path
       d="m 56.375,18 c -4.638502,0.13193 -8.864673,3.159182 -10.40625,7.71875 -0.07837,0.209385 -0.248163,0.710791 -0.25,0.71875 -1.247129,4.420361 -3.407558,8.433479 -6.46875,11.71875 -3.477513,3.650164 -7.887069,6.265805 -12.84375,7.59375 -6.037895,1.617534 -9.649396,7.834657 -8.03125,13.875 1.620595,6.039118 7.83282,9.619983 13.875,8 4.508523,-1.151008 9.13418,-1.295703 13.5625,-0.25 0.206324,0.05143 0.419288,0.100536 0.625,0.15625 0.206325,0.0551 0.420512,0.129338 0.625,0.1875 4.357912,1.308354 8.296261,3.71837 11.625,6.96875 0.408975,0.40959 0.763754,0.70424 1.09375,0.9375 4.47485,3.41017 10.82629,3.14245 14.90625,-0.9375 4.14118,-4.13873 4.39468,-10.677701 0.78125,-15.125 -0.1751,-0.236936 -0.46901,-0.5548 -0.78125,-0.875 -3.24854,-3.333638 -5.661621,-7.265251 -6.96875,-11.625 -0.06,-0.202651 -0.133623,-0.421737 -0.1875,-0.625 -0.05633,-0.204487 -0.106047,-0.386202 -0.15625,-0.59375 -1.046315,-4.426483 -0.901621,-9.053365 0.25,-13.5625 0,0 0.173444,-0.755769 0.21875,-1.0625 C 68.811698,25.52126 65.315755,19.931948 59.625,18.40625 58.537091,18.114786 57.445424,17.969555 56.375,18 Z m 0.03125,1.0625 c 0.966465,-0.02631 1.9431,0.07734 2.9375,0.34375 5.186023,1.390379 8.380917,6.439789 7.5,11.625 A 1.0278728,1.0278728 0 0 0 66.8125,31.0625 c -0.02479,0.167828 -0.177359,0.922615 -0.1875,0.96875 -3.16e-4,0.0014 0,0.03125 0,0.03125 -1.181134,4.642945 -1.335704,9.438128 -0.25,14.03125 0.05187,0.214428 0.10259,0.398809 0.15625,0.59375 0.0029,0.01103 -0.003,0.02031 0,0.03125 0.06431,0.237483 0.137529,0.456223 0.1875,0.625 1.358244,4.530237 3.865866,8.621785 7.21875,12.0625 0.299948,0.307594 0.609238,0.633064 0.71875,0.78125 a 1.0278728,1.0278728 0 0 0 0,0.03125 c 3.287681,4.046376 3.085662,9.97907 -0.6875,13.75 -3.718739,3.718729 -9.48118,3.95402 -13.5625,0.84375 A 1.0278728,1.0278728 0 0 0 60.375,74.78125 c -0.280394,-0.198198 -0.595626,-0.438815 -0.96875,-0.8125 a 1.0278728,1.0278728 0 0 0 0,-0.03125 C 55.969279,70.581436 51.871241,68.109266 47.34375,66.75 a 1.0278728,1.0278728 0 0 0 0,-0.03125 c -0.157526,-0.0448 -0.382246,-0.121228 -0.625,-0.1875 -0.01118,-0.0031 -0.01992,0.003 -0.03125,0 C 46.467593,66.472443 46.247998,66.421239 46.0625,66.375 41.457745,65.287634 36.651771,65.437421 32,66.625 a 1.0278728,1.0278728 0 0 0 -0.03125,0 C 26.46268,68.101245 20.851549,64.846085 19.375,59.34375 17.901377,53.842894 21.186507,48.2237 26.6875,46.75 31.822867,45.374183 36.392329,42.661784 40,38.875 a 1.0278728,1.0278728 0 0 0 0,-0.03125 c 3.181357,-3.414232 5.431536,-7.56256 6.71875,-12.125 a 1.0278728,1.0278728 0 0 0 0,-0.0625 c 9.18e-4,-0.004 0.01121,-0.0072 0.0625,-0.15625 0.05129,-0.149085 0.126058,-0.325585 0.15625,-0.40625 a 1.0278728,1.0278728 0 0 0 0,-0.03125 c 1.295105,-3.830571 4.677893,-6.463248 8.5,-6.9375 0.31748,-0.03939 0.646595,-0.05373 0.96875,-0.0625 z m -6,19.75 c -0.398744,0.01454 -0.797335,0.03939 -1.1875,0.09375 -4.678291,0.651803 -8.734476,4.03852 -10.03125,8.875 -1.727793,6.448332 2.115935,13.116431 8.5625,14.84375 6.450472,1.728318 13.115894,-2.115757 14.84375,-8.5625 1.72837,-6.448664 -2.113923,-13.115272 -8.5625,-14.84375 -1.2056,-0.323033 -2.428767,-0.449885 -3.625,-0.40625 z m 0.03125,1.03125 c 1.089305,-0.0434 2.204157,0.07803 3.3125,0.375 5.913609,1.585085 9.428223,7.650727 7.84375,13.5625 -1.584473,5.911773 -7.64889,9.428223 -13.5625,7.84375 -5.911161,-1.583861 -9.427611,-7.65134 -7.84375,-13.5625 1.287882,-4.803316 5.52968,-8.03066 10.25,-8.21875 z"
       inkscape:connector-curvature="0"
       id="path4078"
       style="display:inline;opacity:0.25;fill:url(#linearGradient4091);fill-opacity:1" />
  </g>
  <g
     id="g36866"
     transform="matrix(3.125,0,0,3.125,-285.11782,-288.04596)">
    <path
       style="display:inline;opacity:0.784091;fill:url(#radialGradient5302);fill-opacity:1;fill-rule:nonzero;stroke:none;stroke-width:1.01493"
       d="M 12,8 C 9.316152,8 7,10.119819 7,13 v 17.302741 c 10.178259,9.297805 24.775572,15.131746 40.999999,15.131746 16.224433,0 30.821746,-5.833942 41.000001,-15.131746 V 13 C 89,10.086769 86.683847,8 84,8 Z"
       id="rect5284"
       inkscape:connector-curvature="0"
       sodipodi:nodetypes="sscscsss"
       transform="matrix(0.32,0,0,0.32,91.237702,92.174707)" />
    <path
       d="m 114.16453,100.31827 c -1.344,-0.628824 -2.78108,-1.085829 -4.28351,-1.346053 -0.18451,0.333597 -0.40008,0.782294 -0.5487,1.139233 -1.59712,-0.24019 -3.17954,-0.24019 -4.74729,0 -0.1486,-0.356939 -0.36906,-0.805636 -0.55523,-1.139233 -1.50404,0.260224 -2.94276,0.718914 -4.286775,1.349393 -2.710873,4.09648 -3.445746,8.09122 -3.078309,12.02923 1.797994,1.34269 3.540464,2.15834 5.253534,2.69208 0.42296,-0.58212 0.8002,-1.20093 1.12516,-1.85309 -0.61892,-0.23518 -1.21171,-0.52541 -1.77183,-0.86233 0.1486,-0.11009 0.29395,-0.22519 0.43437,-0.34362 3.41635,1.59791 7.12829,1.59791 10.50382,0 0.14208,0.11843 0.2874,0.23353 0.43438,0.34362 -0.56177,0.33858 -1.15619,0.6288 -1.77512,0.864 0.32498,0.65049 0.70058,1.27098 1.12517,1.85307 1.71472,-0.53374 3.4588,-1.34935 5.2568,-2.69373 0.43113,-4.56516 -0.7365,-8.52321 -3.08647,-12.03257 z m -10.65569,9.61073 c -1.02554,0 -1.86658,-0.95742 -1.86658,-2.12332 0,-1.16589 0.82308,-2.12495 1.86658,-2.12495 1.04354,0 1.88456,0.95739 1.8666,2.12495 0.002,1.1659 -0.82306,2.12332 -1.8666,2.12332 z m 6.89804,0 c -1.02556,0 -1.86659,-0.95742 -1.86659,-2.12332 0,-1.16589 0.82305,-2.12495 1.86659,-2.12495 1.04351,0 1.88454,0.95739 1.86658,2.12495 0,1.1659 -0.82307,2.12332 -1.86658,2.12332 z"
       fill="#5865f2"
       fill-rule="nonzero"
       id="path36864"
       style="display:none;fill:#ffffff;fill-opacity:1;stroke-width:0.0811043" />
    <path
       d="m 114.16453,100.31827 c -1.344,-0.628824 -2.78108,-1.085829 -4.28351,-1.346053 -0.18451,0.333597 -0.40008,0.782294 -0.5487,1.139233 -1.59712,-0.24019 -3.17954,-0.24019 -4.74729,0 -0.1486,-0.356939 -0.36906,-0.805636 -0.55523,-1.139233 -1.50404,0.260224 -2.94276,0.718914 -4.286775,1.349393 -2.710873,4.09648 -3.445746,8.09122 -3.078309,12.02923 1.797994,1.34269 3.540464,2.15834 5.253534,2.69208 0.42296,-0.58212 0.8002,-1.20093 1.12516,-1.85309 -0.61892,-0.23518 -1.21171,-0.52541 -1.77183,-0.86233 0.1486,-0.11009 0.29395,-0.22519 0.43437,-0.34362 3.41635,1.59791 7.12829,1.59791 10.50382,0 0.14208,0.11843 0.2874,0.23353 0.43438,0.34362 -0.56177,0.33858 -1.15619,0.6288 -1.77512,0.864 0.32498,0.65049 0.70058,1.27098 1.12517,1.85307 1.71472,-0.53374 3.4588,-1.34935 5.2568,-2.69373 0.43113,-4.56516 -0.7365,-8.52321 -3.08647,-12.03257 z m -10.65569,9.61073 c -1.02554,0 -1.86658,-0.95742 -1.86658,-2.12332 0,-1.16589 0.82308,-2.12495 1.86658,-2.12495 1.04354,0 1.88456,0.95739 1.8666,2.12495 0.002,1.1659 -0.82306,2.12332 -1.8666,2.12332 z m 6.89804,0 c -1.02556,0 -1.86659,-0.95742 -1.86659,-2.12332 0,-1.16589 0.82305,-2.12495 1.86659,-2.12495 1.04351,0 1.88454,0.95739 1.86658,2.12495 0,1.1659 -0.82307,2.12332 -1.86658,2.12332 z"
       fill="#5865f2"
       fill-rule="nonzero"
       id="path45264"
       style="display:inline;fill:url(#linearGradient48488);fill-opacity:1;stroke-width:0.0811043" />
    <path
       id="path45266"
       style="display:inline;opacity:0.4;fill:#000000;fill-opacity:1;stroke-width:0.0811043"
       d="m 104.03212,98.612052 c -1.50404,0.260224 -2.94224,0.718897 -4.286249,1.349373 -2.328228,3.518265 -3.198362,6.961455 -3.165,10.358135 0.02992,-3.28024 0.918778,-6.60504 3.165,-9.99938 1.344009,-0.630485 2.782209,-1.089154 4.286249,-1.349378 0.18617,0.333597 0.40702,0.782433 0.55562,1.139378 1.56775,-0.240195 3.14976,-0.240195 4.74688,0 0.14862,-0.356945 0.36424,-0.805781 0.54875,-1.139378 1.50243,0.260224 2.93975,0.717423 4.28375,1.346258 1.99691,2.98212 3.13925,6.2883 3.17312,10.01562 0.0385,-3.87436 -1.11237,-7.29692 -3.17312,-10.374375 -1.344,-0.628826 -2.78132,-1.086029 -4.28375,-1.346253 -0.18451,0.333597 -0.40013,0.782437 -0.54875,1.139373 -1.59712,-0.240188 -3.17913,-0.240188 -4.74688,0 -0.1486,-0.356936 -0.36945,-0.805776 -0.55562,-1.139373 z m 8.23812,8.989378 c -0.0697,1.09397 -0.86413,1.9675 -1.86062,1.9675 -0.9732,0 -1.7795,-0.86256 -1.85938,-1.94687 -0.004,0.0602 -0.008,0.12106 -0.008,0.1825 0,1.1659 0.84132,2.12312 1.86688,2.12312 1.04351,0 1.86625,-0.95722 1.86625,-2.12312 0.001,-0.0685 -9e-4,-0.13621 -0.006,-0.20313 z m -6.8975,0.006 c -0.0704,1.09135 -0.86643,1.96187 -1.86125,1.96187 -0.97317,0 -1.7795,-0.86256 -1.85937,-1.94687 -0.004,0.0602 -0.007,0.12106 -0.007,0.1825 0,1.1659 0.84133,2.12312 1.86687,2.12312 1.04354,0 1.86825,-0.95722 1.86625,-2.12312 10e-4,-0.0666 -5.5e-4,-0.13241 -0.005,-0.1975 z m 7.01,4.51375 c -0.48302,0.27325 -1.14524,0.57355 -1.66817,0.77227 0.0501,0.10022 0.10191,0.19936 0.15438,0.29813 0.56346,-0.22395 1.26266,-0.55446 1.77754,-0.86478 -0.0889,-0.0666 -0.17643,-0.13575 -0.26375,-0.20562 z m -10.84375,6.2e-4 c -0.087,0.0697 -0.17529,0.13854 -0.265,0.205 0.5134,0.30882 1.20608,0.63898 1.76934,0.86291 0.0524,-0.0986 0.10383,-0.19794 0.15375,-0.29812 -0.52234,-0.19848 -1.1769,-0.49791 -1.65809,-0.76979 z"
       sodipodi:nodetypes="ccccccccccccccccscssccccscssccccccccccccc" />
    <path
       id="path45997"
       style="display:inline;opacity:0.30681818;fill:url(#linearGradient47735);fill-opacity:1;stroke-width:0.0811043"
       d="m 104.02958,98.972207 c -1.50404,0.260224 -2.94224,0.718897 -4.286253,1.349373 -2.71087,4.09648 -3.446186,8.09137 -3.07875,12.02938 1.797993,1.34269 3.540683,2.15813 5.253753,2.69187 0.42296,-0.58212 0.80004,-1.20096 1.125,-1.85312 -0.61892,-0.23518 -1.21176,-0.52558 -1.77188,-0.8625 0.1486,-0.11009 0.29396,-0.2247 0.43438,-0.34313 3.41634,1.59791 7.12822,1.59791 10.50375,0 0.14208,0.11843 0.28739,0.23304 0.43437,0.34313 -0.56177,0.33858 -1.15607,0.62917 -1.775,0.86437 0.32498,0.65049 0.70041,1.27104 1.125,1.85313 1.71472,-0.53374 3.45888,-1.34937 5.25688,-2.69375 0.43113,-4.56516 -0.73628,-8.52315 -3.08625,-12.0325 -1.344,-0.628826 -2.78132,-1.086029 -4.28375,-1.346253 -0.18451,0.333597 -0.40013,0.782437 -0.54875,1.139373 -1.59712,-0.240188 -3.17913,-0.240188 -4.74688,0 -0.1486,-0.356936 -0.36945,-0.805776 -0.55562,-1.139373 z m -0.13313,0.28375 c 0.16205,0.302806 0.34278,0.655172 0.465,0.948753 a 0.24394947,0.24394947 0 0 0 0.26188,0.14687 c 1.54348,-0.23643 3.09817,-0.2348 4.67187,0.002 a 0.24394947,0.24394947 0 0 0 0.26125,-0.14813 c 0.12279,-0.29491 0.29842,-0.647699 0.4575,-0.949373 1.3947,0.257069 2.73177,0.67836 3.98625,1.259373 2.27663,3.42531 3.40956,7.26502 3.01563,11.70125 -1.68296,1.24292 -3.31231,2.0077 -4.92,2.52563 -0.32506,-0.46004 -0.61532,-0.94591 -0.87875,-1.44938 0.5351,-0.21933 1.06099,-0.45939 1.5525,-0.75562 a 0.24394947,0.24394947 0 0 0 0.0212,-0.40438 c -0.14387,-0.10775 -0.28712,-0.2208 -0.42563,-0.33625 a 0.24394947,0.24394947 0 0 0 -0.26,-0.0331 c -3.31301,1.56832 -6.94195,1.56917 -10.29687,0 a 0.24394947,0.24394947 0 0 0 -0.26125,0.0356 c -0.13695,0.1155 -0.27601,0.22709 -0.42,0.33375 a 0.24394947,0.24394947 0 0 0 0.0194,0.40438 c 0.4897,0.29456 1.0143,0.53454 1.54875,0.75375 -0.26328,0.5035 -0.55455,0.98941 -0.87875,1.44937 -1.60462,-0.51744 -3.230521,-1.27988 -4.911873,-2.51937 -0.338349,-3.83776 0.380185,-7.70801 3.00375,-11.70125 1.254163,-0.582236 2.592523,-1.006665 3.988123,-1.263753 z m -0.38687,6.181253 c -1.19297,0 -2.11125,1.08859 -2.11125,2.36937 0,1.28329 0.93393,2.3675 2.11125,2.3675 1.19145,0 2.10965,-1.08448 2.10937,-2.36375 0.0198,-1.28652 -0.91663,-2.37312 -2.10937,-2.37312 z m 6.89687,0 c -1.193,0 -2.10937,1.08887 -2.10937,2.36937 -10e-6,1.28302 0.93204,2.3675 2.10937,2.3675 1.19143,0 2.10925,-1.08471 2.11125,-2.36375 0.0198,-1.28679 -0.91854,-2.37312 -2.11125,-2.37312 z m -6.8975,0.24375 c 1.04354,0 1.88421,0.95744 1.86625,2.125 0.002,1.1659 -0.82271,2.12312 -1.86625,2.12312 -1.02554,0 -1.86687,-0.95722 -1.86687,-2.12312 0,-1.16589 0.82337,-2.125 1.86687,-2.125 z m 6.89813,0 c 1.04351,0 1.88421,0.95744 1.86625,2.125 0,1.1659 -0.82274,2.12312 -1.86625,2.12312 -1.02556,0 -1.86688,-0.95722 -1.86688,-2.12312 0,-1.16589 0.82334,-2.125 1.86688,-2.125 z" />
    <path
       id="path47737"
       style="display:inline;opacity:0.4;fill:url(#linearGradient47748);fill-opacity:1;stroke-width:0.0811043"
       d="m 103.50895,105.68096 c -1.03338,0 -1.8505,0.94071 -1.86625,2.09125 0.0993,-1.06007 0.8812,-1.89625 1.85563,-1.89625 1.04354,0 1.88483,0.95744 1.86687,2.125 3e-5,0.0134 -4.3e-4,0.0266 -6.2e-4,0.04 0.007,-0.0774 0.0108,-0.15546 0.0106,-0.235 0.018,-1.16756 -0.82271,-2.125 -1.86625,-2.125 z m 6.89813,0 c -1.03323,0 -1.85021,0.94037 -1.86625,2.09062 0.0995,-1.05977 0.88135,-1.89562 1.85562,-1.89562 1.04351,0 1.88484,0.95744 1.86688,2.125 0,0.0111 -4.8e-4,0.0221 -6.3e-4,0.0331 0.007,-0.0751 0.0106,-0.15095 0.0106,-0.22812 0.018,-1.16756 -0.82274,-2.125 -1.86625,-2.125 z m -13.805628,3.86062 c -0.06258,1.00552 -0.03995,2.00687 0.05313,3.00438 1.797993,1.34269 3.540048,2.15813 5.253118,2.69187 0.42296,-0.58212 0.80004,-1.20096 1.125,-1.85312 -0.025,-0.009 -0.0495,-0.0197 -0.0744,-0.0294 -0.30538,0.59137 -0.65308,1.15499 -1.04,1.6875 -1.71307,-0.53374 -3.455755,-1.34918 -5.253748,-2.69187 -0.08705,-0.933 -0.111439,-1.86941 -0.06312,-2.80938 z m 20.704378,2.07438 c -0.014,0.24338 -0.0317,0.48809 -0.055,0.735 -1.798,1.34438 -3.54216,2.16001 -5.25688,2.69375 -0.38986,-0.53448 -0.73776,-1.10165 -1.04375,-1.69438 -0.0306,0.012 -0.0611,0.0246 -0.0919,0.0362 0.32498,0.65049 0.70103,1.27104 1.12562,1.85313 1.71472,-0.53374 3.45888,-1.34937 5.25688,-2.69375 0.0296,-0.31296 0.0503,-0.6227 0.065,-0.93 z m -15.6,0.36812 -0.14125,0.1113 c 3.41634,1.59791 7.39822,1.59541 10.77375,-0.003 l -0.12875,-0.10873 c -3.37553,1.59791 -7.08741,1.59791 -10.50375,0 z"
       sodipodi:nodetypes="ccscccccccsccccccccccccccccccccccccccccc" />
  </g>
  <path
     style="display:inline;opacity:0.0416667;fill:#ffffff;fill-opacity:1;stroke-width:2.43;stroke-linecap:round;filter:url(#filter51707)"
     id="path51705"
     sodipodi:type="arc"
     sodipodi:cx="48.61359"
     sodipodi:cy="46.403881"
     sodipodi:rx="32.792076"
     sodipodi:ry="32.792076"
     sodipodi:start="4.1642857"
     sodipodi:end="4.1641466"
     sodipodi:arc-type="slice"
     d="M 31.526646,18.415373 A 32.792076,32.792076 0 0 1 76.601505,29.315964 32.792076,32.792076 0 0 1 65.702481,74.391201 32.792076,32.792076 0 0 1 20.626865,63.493745 32.792076,32.792076 0 0 1 31.522753,18.41775 L 48.61359,46.403881 Z" />
</svg>
