<?xml version="1.0" encoding="UTF-8" standalone="no"?>
<!-- Created with Inkscape (http://www.inkscape.org/) -->

<svg
   version="1.0"
   width="96"
   height="96"
   id="svg2408"
   sodipodi:docname="element-desktop.svg"
   inkscape:version="1.2.2 (b0a8486541, 2022-12-01)"
   xml:space="preserve"
   xmlns:inkscape="http://www.inkscape.org/namespaces/inkscape"
   xmlns:sodipodi="http://sodipodi.sourceforge.net/DTD/sodipodi-0.dtd"
   xmlns:xlink="http://www.w3.org/1999/xlink"
   xmlns="http://www.w3.org/2000/svg"
   xmlns:svg="http://www.w3.org/2000/svg"
   xmlns:rdf="http://www.w3.org/1999/02/22-rdf-syntax-ns#"
   xmlns:cc="http://creativecommons.org/ns#"
   xmlns:dc="http://purl.org/dc/elements/1.1/"><sodipodi:namedview
     id="namedview68"
     pagecolor="#ffffff"
     bordercolor="#000000"
     borderopacity="0.25"
     inkscape:showpageshadow="2"
     inkscape:pageopacity="0.0"
     inkscape:pagecheckerboard="0"
     inkscape:deskcolor="#d1d1d1"
     showgrid="false"
     inkscape:zoom="5.3489585"
     inkscape:cx="58.516065"
     inkscape:cy="32.529697"
     inkscape:current-layer="svg2408" /><defs
     id="defs2410"><linearGradient
       id="linearGradient17177"><stop
         id="stop17173"
         style="stop-color:#ffffff;stop-opacity:1;"
         offset="0" /><stop
         id="stop17175"
         style="stop-color:#a9a9a9;stop-opacity:1;"
         offset="1" /></linearGradient><linearGradient
       id="linearGradient12892"><stop
         id="stop12888"
         style="stop-color:#ffffff;stop-opacity:1;"
         offset="0" /><stop
         id="stop12890"
         style="stop-color:#ffffff;stop-opacity:1;"
         offset="1" /></linearGradient><linearGradient
       id="linearGradient3729"><stop
         id="stop3731"
         style="stop-color:#1c59ad;stop-opacity:1"
         offset="0" /><stop
         id="stop3733"
         style="stop-color:#377ad6;stop-opacity:1"
         offset="1" /></linearGradient><linearGradient
       x1="45.447727"
       y1="92.539597"
       x2="45.447727"
       y2="7.0165396"
       id="ButtonShadow"
       gradientUnits="userSpaceOnUse"
       gradientTransform="scale(1.0058652,0.994169)"><stop
         id="stop3750"
         style="stop-color:#000000;stop-opacity:1"
         offset="0" /><stop
         id="stop3752"
         style="stop-color:#000000;stop-opacity:0.58823532"
         offset="1" /></linearGradient><linearGradient
       id="linearGradient3737"><stop
         id="stop3739"
         style="stop-color:#ffffff;stop-opacity:1"
         offset="0" /><stop
         id="stop3741"
         style="stop-color:#ffffff;stop-opacity:0"
         offset="1" /></linearGradient><linearGradient
       id="linearGradient3700"><stop
         id="stop3702"
         style="stop-color:#e6e6e6;stop-opacity:1"
         offset="0" /><stop
         id="stop3704"
         style="stop-color:#f5f5f5;stop-opacity:1"
         offset="1" /></linearGradient><linearGradient
       x1="48"
       y1="90"
       x2="48"
       y2="5.9877172"
       id="linearGradient3706"
       xlink:href="#linearGradient3700"
       gradientUnits="userSpaceOnUse" /><filter
       color-interpolation-filters="sRGB"
       id="filter3174"
       x="-0.047720931"
       y="-0.048282354"
       width="1.0954419"
       height="1.0965647"><feGaussianBlur
         stdDeviation="1.71"
         id="feGaussianBlur3176" /></filter><linearGradient
       x1="36.357143"
       y1="6"
       x2="36.357143"
       y2="63.893143"
       id="linearGradient3188"
       xlink:href="#linearGradient3737"
       gradientUnits="userSpaceOnUse" /><linearGradient
       x1="45.447727"
       y1="92.539597"
       x2="45.447727"
       y2="7.0165396"
       id="ButtonShadow-0"
       gradientUnits="userSpaceOnUse"
       gradientTransform="matrix(1.0058652,0,0,0.994169,100,0)"><stop
         id="stop3750-8"
         style="stop-color:#000000;stop-opacity:1"
         offset="0" /><stop
         id="stop3752-5"
         style="stop-color:#000000;stop-opacity:0.58823532"
         offset="1" /></linearGradient><linearGradient
       x1="32.251034"
       y1="6.1317081"
       x2="32.251034"
       y2="90.238609"
       id="linearGradient3780"
       xlink:href="#ButtonShadow-0"
       gradientUnits="userSpaceOnUse"
       gradientTransform="matrix(1.0238095,0,0,1.0119048,-1.1428571,-98.071429)" /><linearGradient
       x1="32.251034"
       y1="6.1317081"
       x2="32.251034"
       y2="90.238609"
       id="linearGradient3772"
       xlink:href="#ButtonShadow-0"
       gradientUnits="userSpaceOnUse"
       gradientTransform="matrix(1.0238095,0,0,1.0119048,-1.1428571,-98.071429)" /><linearGradient
       x1="32.251034"
       y1="6.1317081"
       x2="32.251034"
       y2="90.238609"
       id="linearGradient3725"
       xlink:href="#ButtonShadow-0"
       gradientUnits="userSpaceOnUse"
       gradientTransform="matrix(1.0238095,0,0,1.0119048,-1.1428571,-98.071429)" /><linearGradient
       x1="32.251034"
       y1="6.1317081"
       x2="32.251034"
       y2="90.238609"
       id="linearGradient3721"
       xlink:href="#ButtonShadow-0"
       gradientUnits="userSpaceOnUse"
       gradientTransform="translate(0,-97)" /><linearGradient
       x1="32.251034"
       y1="6.1317081"
       x2="32.251034"
       y2="90.238609"
       id="linearGradient3760"
       xlink:href="#ButtonShadow-0"
       gradientUnits="userSpaceOnUse"
       gradientTransform="matrix(1.0238095,0,0,1.0119048,-1.1428571,-98.071429)" /><linearGradient
       id="linearGradient3737-0"><stop
         id="stop3739-6"
         style="stop-color:#ffffff;stop-opacity:1"
         offset="0" /><stop
         id="stop3741-0"
         style="stop-color:#ffffff;stop-opacity:0"
         offset="1" /></linearGradient><radialGradient
       cx="48"
       cy="90.171875"
       r="42"
       fx="48"
       fy="90.171875"
       id="radialGradient2903"
       xlink:href="#linearGradient3737-0"
       gradientUnits="userSpaceOnUse"
       gradientTransform="matrix(1.1573129,0,0,0.99590774,-7.551021,0.1971319)" /><clipPath
       id="clipPath3782"><path
         d="m -98,6 c -3.324,0 -6,2.676 -6,6 l 0,72 c 0,3.324 2.676,6 6,6 l 72,0 c 3.324,0 6,-2.676 6,-6 l 0,-72 c 0,-3.324 -2.676,-6 -6,-6 l -72,0 z m 59.0625,12 C -38.336494,17.9909 -38,18.03125 -38,18.03125 l 0,12.0625 C -50.051065,30.305506 -53,42.0625 -53,42.0625 l 9.0625,0 0,12.0625 -14.09375,0 C -66.507844,80.276885 -86,77.9375 -86,77.9375 l 0,-12.0625 c 0,0 12.376145,2.298313 18.6875,-20.75 6.908061,-25.227422 24.167961,-27.061294 28.375,-27.125 z"
         inkscape:connector-curvature="0"
         id="path3784"
         style="fill:#ff00ff;fill-opacity:1;fill-rule:nonzero;stroke:none" /></clipPath><filter
       x="-0.18283333"
       y="-0.14622227"
       width="1.3656667"
       height="1.2924143"
       color-interpolation-filters="sRGB"
       id="filter3786"><feGaussianBlur
         id="feGaussianBlur3788"
         stdDeviation="3.24" /></filter><linearGradient
       x1="46.906918"
       y1="75.471306"
       x2="46.906918"
       y2="36.246487"
       id="linearGradient3745"
       xlink:href="#linearGradient3729"
       gradientUnits="userSpaceOnUse"
       gradientTransform="translate(-2)" /><linearGradient
       id="linearGradient3737-9"><stop
         id="stop3739-2"
         style="stop-color:#ffffff;stop-opacity:1"
         offset="0" /><stop
         id="stop3741-1"
         style="stop-color:#ffffff;stop-opacity:0"
         offset="1" /></linearGradient><clipPath
       id="clipPath3613"><rect
         width="84"
         height="84"
         rx="6"
         ry="6"
         x="6"
         y="6"
         id="rect3615"
         style="fill:#ffffff;fill-opacity:1;fill-rule:nonzero;stroke:none" /></clipPath><filter
       x="-0.19578789"
       y="-0.19578789"
       width="1.3915758"
       height="1.3915758"
       color-interpolation-filters="sRGB"
       id="filter3794"><feGaussianBlur
         id="feGaussianBlur3796"
         stdDeviation="5.28" /></filter><linearGradient
       x1="48"
       y1="20.220806"
       x2="48"
       y2="138.66119"
       id="linearGradient4186"
       xlink:href="#linearGradient3737-9"
       gradientUnits="userSpaceOnUse" /><linearGradient
       x1="56"
       y1="48"
       x2="56"
       y2="8"
       id="linearGradient3922"
       xlink:href="#linearGradient3737"
       gradientUnits="userSpaceOnUse"
       gradientTransform="translate(9.9999999e-7,-0.91343895)" /><filter
       inkscape:collect="always"
       style="color-interpolation-filters:sRGB"
       id="filter11081"
       x="-0.33214303"
       y="-0.33214303"
       width="1.6642861"
       height="1.6642861"><feGaussianBlur
         inkscape:collect="always"
         stdDeviation="7.5009027"
         id="feGaussianBlur11083" /></filter><linearGradient
       x1="48"
       y1="90"
       x2="48"
       y2="5.9877172"
       id="linearGradient3617"
       xlink:href="#linearGradient3700-6"
       gradientUnits="userSpaceOnUse" /><linearGradient
       id="linearGradient3700-6"><stop
         id="stop3702-1"
         style="stop-color:#3f9fc5;stop-opacity:1"
         offset="0" /><stop
         id="stop3704-8"
         style="stop-color:#89cde9;stop-opacity:1"
         offset="1" /></linearGradient><linearGradient
       x1="56"
       y1="48"
       x2="56"
       y2="8"
       id="linearGradient3922-7"
       xlink:href="#linearGradient3737"
       gradientUnits="userSpaceOnUse" /><linearGradient
       x1="47.432148"
       y1="45.338814"
       x2="64.315697"
       y2="30.27107"
       id="linearGradient3699"
       xlink:href="#linearGradient12892"
       gradientUnits="userSpaceOnUse"
       gradientTransform="matrix(0.77373857,-0.86698151,0.86698151,0.77373857,-27.952531,51.463822)" /><linearGradient
       id="linearGradient3701"><stop
         id="stop3703"
         style="stop-color:#1c4a5b;stop-opacity:1"
         offset="0" /><stop
         id="stop3705"
         style="stop-color:#228cb8;stop-opacity:1"
         offset="1" /></linearGradient><radialGradient
       cx="48"
       cy="90.171875"
       r="42"
       fx="48"
       fy="90.171875"
       id="radialGradient3619"
       xlink:href="#linearGradient3737"
       gradientUnits="userSpaceOnUse"
       gradientTransform="matrix(1.1573129,0,0,0.99590774,-7.5510206,0.19713193)" /><radialGradient
       inkscape:collect="always"
       xlink:href="#linearGradient5293"
       id="radialGradient5302"
       gradientUnits="userSpaceOnUse"
       gradientTransform="matrix(4.6723113,0,0,1.398978,-177.62389,-36.894191)"
       cx="48.397247"
       cy="57.980881"
       fx="48.397247"
       fy="57.980881"
       r="42" /><linearGradient
       id="linearGradient5293"><stop
         id="stop5295"
         style="stop-color:#ffffff;stop-opacity:0;"
         offset="0" /><stop
         id="stop5297"
         style="stop-color:#ffffff;stop-opacity:1;"
         offset="1" /></linearGradient></defs><metadata
     id="metadata2413"><rdf:RDF><cc:Work
         rdf:about=""><dc:format>image/svg+xml</dc:format><dc:type
           rdf:resource="http://purl.org/dc/dcmitype/StillImage" /></cc:Work></rdf:RDF></metadata><g
     id="layer2"
     style="display:none"><rect
       width="86"
       height="85"
       rx="6"
       ry="6"
       x="5"
       y="7"
       id="rect3745"
       style="opacity:0.9;fill:url(#ButtonShadow);fill-opacity:1;fill-rule:nonzero;stroke:none;filter:url(#filter3174)" /></g><g
     id="layer7"
     style="display:inline"><path
       d="m 12,-95.03125 c -5.5110903,0 -10.03125,4.52016 -10.03125,10.03125 v 71 c 0,5.5110902 4.5201598,10.03125 10.03125,10.03125 h 72 c 5.51109,0 10.03125,-4.5201597 10.03125,-10.03125 v -71 c 0,-5.51109 -4.52016,-10.03125 -10.03125,-10.03125 z"
       transform="scale(1,-1)"
       id="path3786"
       style="display:inline;opacity:0.08;fill:url(#linearGradient3760);fill-opacity:1;fill-rule:nonzero;stroke:none" /><path
       d="m 12,-94.03125 c -4.971633,0 -9.03125,4.059617 -9.03125,9.03125 v 71 c 0,4.9716329 4.0596171,9.03125 9.03125,9.03125 h 72 c 4.971633,0 9.03125,-4.059617 9.03125,-9.03125 v -71 c 0,-4.971633 -4.059617,-9.03125 -9.03125,-9.03125 z"
       transform="scale(1,-1)"
       id="path3778"
       style="display:inline;opacity:0.1;fill:url(#linearGradient3780);fill-opacity:1;fill-rule:nonzero;stroke:none" /><path
       d="m 12,-93 c -4.4091333,0 -8,3.590867 -8,8 v 71 c 0,4.4091333 3.5908667,8 8,8 h 72 c 4.409133,0 8,-3.5908667 8,-8 v -71 c 0,-4.409133 -3.590867,-8 -8,-8 z"
       transform="scale(1,-1)"
       id="path3770"
       style="display:inline;opacity:0.2;fill:url(#linearGradient3772);fill-opacity:1;fill-rule:nonzero;stroke:none" /><rect
       width="86"
       height="85"
       rx="7"
       ry="7"
       x="5"
       y="-92"
       transform="scale(1,-1)"
       id="rect3723"
       style="display:inline;opacity:0.3;fill:url(#linearGradient3725);fill-opacity:1;fill-rule:nonzero;stroke:none" /><rect
       width="84"
       height="84"
       rx="6"
       ry="6"
       x="6"
       y="-91"
       transform="scale(1,-1)"
       id="rect3716"
       style="display:inline;opacity:0.45;fill:url(#linearGradient3721);fill-opacity:1;fill-rule:nonzero;stroke:none" /></g><g
     id="layer1"
     style="display:inline"><rect
       width="84"
       height="84"
       rx="6"
       ry="6"
       x="6"
       y="6"
       id="rect2419"
       style="fill:#0dbd8b;fill-opacity:1;fill-rule:nonzero;stroke:none" /><path
       d="M 12,6 C 8.676,6 6,8.676 6,12 v 2 68 2 c 0,0.334721 0.04135,0.6507 0.09375,0.96875 0.0487,0.295596 0.09704,0.596915 0.1875,0.875 0.00988,0.03038 0.020892,0.0636 0.03125,0.09375 0.098865,0.287771 0.2348802,0.547452 0.375,0.8125 0.1445918,0.273507 0.3156161,0.535615 0.5,0.78125 0.1843839,0.245635 0.3737765,0.473472 0.59375,0.6875 0.439947,0.428056 0.94291,0.814526 1.5,1.09375 0.278545,0.139612 0.5734731,0.246947 0.875,0.34375 -0.2562018,-0.100222 -0.4867109,-0.236272 -0.71875,-0.375 -0.00741,-0.0044 -0.023866,0.0045 -0.03125,0 -0.031933,-0.0193 -0.062293,-0.04251 -0.09375,-0.0625 -0.120395,-0.0767 -0.2310226,-0.163513 -0.34375,-0.25 -0.1061728,-0.0808 -0.2132809,-0.161112 -0.3125,-0.25 C 8.4783201,88.557317 8.3087904,88.373362 8.15625,88.1875 8.0486711,88.057245 7.9378561,87.922215 7.84375,87.78125 7.818661,87.74287 7.805304,87.69538 7.78125,87.65625 7.716487,87.553218 7.6510225,87.451733 7.59375,87.34375 7.4927417,87.149044 7.3880752,86.928049 7.3125,86.71875 7.30454,86.69694 7.288911,86.6782 7.28125,86.65625 7.2494249,86.5643 7.2454455,86.469419 7.21875,86.375 7.1884177,86.268382 7.1483606,86.171969 7.125,86.0625 7.0521214,85.720988 7,85.364295 7,85 V 83 15 13 C 7,10.218152 9.2181517,8 12,8 h 2 68 2 c 2.781848,0 5,2.218152 5,5 v 2 68 2 c 0,0.364295 -0.05212,0.720988 -0.125,1.0625 -0.04415,0.206893 -0.08838,0.397658 -0.15625,0.59375 -0.0077,0.02195 -0.0233,0.04069 -0.03125,0.0625 -0.06274,0.173739 -0.138383,0.367449 -0.21875,0.53125 -0.04158,0.0828 -0.07904,0.169954 -0.125,0.25 -0.0546,0.09721 -0.126774,0.18835 -0.1875,0.28125 -0.09411,0.140965 -0.204921,0.275995 -0.3125,0.40625 -0.143174,0.17445 -0.303141,0.346998 -0.46875,0.5 -0.01117,0.0102 -0.01998,0.02115 -0.03125,0.03125 -0.138386,0.125556 -0.285091,0.234436 -0.4375,0.34375 -0.102571,0.07315 -0.204318,0.153364 -0.3125,0.21875 -0.0074,0.0045 -0.02384,-0.0044 -0.03125,0 -0.232039,0.138728 -0.462548,0.274778 -0.71875,0.375 0.301527,-0.0968 0.596455,-0.204138 0.875,-0.34375 0.55709,-0.279224 1.060053,-0.665694 1.5,-1.09375 0.219973,-0.214028 0.409366,-0.441865 0.59375,-0.6875 0.184384,-0.245635 0.355408,-0.507743 0.5,-0.78125 0.14012,-0.265048 0.276135,-0.524729 0.375,-0.8125 0.01041,-0.03078 0.02133,-0.06274 0.03125,-0.09375 0.09046,-0.278085 0.1388,-0.579404 0.1875,-0.875 C 89.95865,84.6507 90,84.334721 90,84 V 82 14 12 C 90,8.676 87.324,6 84,6 Z"
       inkscape:connector-curvature="0"
       id="rect3728"
       style="opacity:0.5;fill:url(#linearGradient3188);fill-opacity:1;fill-rule:nonzero;stroke:none" /><path
       d="M 12,90 C 8.676,90 6,87.324 6,84 V 82 14 12 c 0,-0.334721 0.04135,-0.6507 0.09375,-0.96875 0.0487,-0.295596 0.09704,-0.596915 0.1875,-0.875 C 6.29113,10.12587 6.302142,10.09265 6.3125,10.0625 6.411365,9.774729 6.5473802,9.515048 6.6875,9.25 6.8320918,8.976493 7.0031161,8.714385 7.1875,8.46875 7.3718839,8.223115 7.5612765,7.995278 7.78125,7.78125 8.221197,7.353194 8.72416,6.966724 9.28125,6.6875 9.559795,6.547888 9.8547231,6.440553 10.15625,6.34375 9.9000482,6.443972 9.6695391,6.580022 9.4375,6.71875 c -0.00741,0.0044 -0.023866,-0.0045 -0.03125,0 -0.031933,0.0193 -0.062293,0.04251 -0.09375,0.0625 -0.120395,0.0767 -0.2310226,0.163513 -0.34375,0.25 -0.1061728,0.0808 -0.2132809,0.161112 -0.3125,0.25 C 8.4783201,7.442683 8.3087904,7.626638 8.15625,7.8125 8.0486711,7.942755 7.9378561,8.077785 7.84375,8.21875 7.818661,8.25713 7.805304,8.30462 7.78125,8.34375 7.716487,8.446782 7.6510225,8.548267 7.59375,8.65625 7.4927417,8.850956 7.3880752,9.071951 7.3125,9.28125 7.30454,9.30306 7.288911,9.3218 7.28125,9.34375 7.2494249,9.4357 7.2454455,9.530581 7.21875,9.625 7.1884177,9.731618 7.1483606,9.828031 7.125,9.9375 7.0521214,10.279012 7,10.635705 7,11 v 2 68 2 c 0,2.781848 2.2181517,5 5,5 h 2 68 2 c 2.781848,0 5,-2.218152 5,-5 V 81 13 11 C 89,10.635705 88.94788,10.279012 88.875,9.9375 88.83085,9.730607 88.78662,9.539842 88.71875,9.34375 88.71105,9.3218 88.69545,9.30306 88.6875,9.28125 88.62476,9.107511 88.549117,8.913801 88.46875,8.75 88.42717,8.6672 88.38971,8.580046 88.34375,8.5 88.28915,8.40279 88.216976,8.31165 88.15625,8.21875 88.06214,8.077785 87.951329,7.942755 87.84375,7.8125 87.700576,7.63805 87.540609,7.465502 87.375,7.3125 87.36383,7.3023 87.35502,7.29135 87.34375,7.28125 87.205364,7.155694 87.058659,7.046814 86.90625,6.9375 86.803679,6.86435 86.701932,6.784136 86.59375,6.71875 c -0.0074,-0.0045 -0.02384,0.0044 -0.03125,0 -0.232039,-0.138728 -0.462548,-0.274778 -0.71875,-0.375 0.301527,0.0968 0.596455,0.204138 0.875,0.34375 0.55709,0.279224 1.060053,0.665694 1.5,1.09375 0.219973,0.214028 0.409366,0.441865 0.59375,0.6875 0.184384,0.245635 0.355408,0.507743 0.5,0.78125 0.14012,0.265048 0.276135,0.524729 0.375,0.8125 0.01041,0.03078 0.02133,0.06274 0.03125,0.09375 0.09046,0.278085 0.1388,0.579404 0.1875,0.875 C 89.95865,11.3493 90,11.665279 90,12 v 2 68 2 c 0,3.324 -2.676,6 -6,6 z"
       inkscape:connector-curvature="0"
       id="path3615"
       style="display:inline;opacity:0.3;fill:url(#radialGradient2903);fill-opacity:1;fill-rule:nonzero;stroke:none" /><path
       style="display:inline;opacity:0.285141;fill:#ffffff;fill-opacity:1;stroke:none;stroke-width:0.654;stroke-linecap:round;stroke-dasharray:none;stroke-opacity:1;filter:url(#filter11081)"
       id="path11070"
       sodipodi:type="arc"
       sodipodi:cx="48"
       sodipodi:cy="48"
       sodipodi:rx="27.100021"
       sodipodi:ry="27.100021"
       sodipodi:start="4.1642857"
       sodipodi:end="4.1641466"
       sodipodi:arc-type="slice"
       d="M 33.879011,24.869742 A 27.100021,27.100021 0 0 1 71.129767,33.878207 27.100021,27.100021 0 0 1 62.122598,71.129276 27.100021,27.100021 0 0 1 24.871215,62.123402 27.100021,27.100021 0 0 1 33.875794,24.871707 L 48,48 Z" /></g><path
     style="display:inline;fill:url(#radialGradient5302);fill-opacity:1;fill-rule:nonzero;stroke:none;stroke-width:1.01492"
     d="M 12,8 C 9.3161525,8 7,10.119819 7,13 v 17.302742 c 10.17826,9.297804 24.775572,15.131746 40.999999,15.131746 16.224433,0 30.821745,-5.833942 41.000001,-15.131746 V 13 C 89,10.08677 86.683847,8 84,8 Z"
     id="rect5284"
     inkscape:connector-curvature="0"
     sodipodi:nodetypes="sscscsss" /><g
     id="g17149"
     style="display:inline"><path
       id="path3665"
       style="color:#000000;font-style:normal;font-variant:normal;font-weight:normal;font-stretch:normal;font-size:medium;line-height:normal;font-family:'Abandoned Bitplane';-inkscape-font-specification:'Abandoned Bitplane';text-indent:0;text-align:start;text-decoration:none;text-decoration-line:none;letter-spacing:normal;word-spacing:normal;text-transform:none;writing-mode:lr-tb;direction:ltr;text-anchor:start;display:inline;overflow:visible;visibility:visible;fill:#818181;fill-opacity:1;stroke:none;stroke-width:4.06713;marker:none;enable-background:accumulate"
       d="m 44.736328,18.376953 c -0.395113,0.0022 -0.792661,0.0164 -1.191406,0.03906 -1.426947,0.04814 -2.750913,0.747949 -3.59375,1.90039 -0.640364,0.894422 -0.942782,1.987587 -0.853516,3.083985 0.188288,2.560187 2.414397,4.482852 4.97461,4.294921 7.743852,-0.440087 14.272804,5.385054 14.71289,13.128907 0.230392,6.321299 9.766561,5.779359 9.279297,-0.527344 C 67.361966,27.935781 56.984827,18.307365 44.736328,18.376953 Z M 39.523438,29 c -0.185792,-0.0038 -0.379088,0.0024 -0.576172,0.01758 -12.75984,0.725148 -22.606007,11.759691 -21.88086,24.519531 0.04814,1.426947 0.74795,2.752866 1.900391,3.595703 0.894422,0.640365 1.987586,0.942782 3.083984,0.853516 2.560188,-0.188288 4.482853,-2.41635 4.294922,-4.976562 C 25.905616,45.265913 31.73271,38.736962 39.476562,38.296875 45.600322,38.073683 45.282982,29.116624 39.523438,29 Z m 34.4375,12.091797 c -0.13655,-9.78e-4 -0.273107,0.0045 -0.410157,0.01563 -2.560187,0.188288 -4.484806,2.41635 -4.296875,4.976562 0.440088,7.743853 -5.385054,14.270851 -13.128906,14.710938 -6.3213,0.230392 -5.779359,9.768513 0.527344,9.28125 12.759839,-0.725148 22.60796,-11.759691 21.882812,-24.519531 -0.04814,-1.426947 -0.749903,-2.752866 -1.902344,-3.595703 -0.782619,-0.560319 -1.716028,-0.862299 -2.671874,-0.869141 z M 32.876953,53.789062 c -2.501084,-0.06818 -5.071359,1.655424 -4.8125,5.00586 0.725148,12.759839 11.759691,22.60796 24.519531,21.882812 1.426947,-0.04814 2.752866,-0.749903 3.595704,-1.902343 0.640364,-0.894422 0.942781,-1.987587 0.853515,-3.083985 -0.188288,-2.560187 -2.41635,-4.482852 -4.976562,-4.294922 C 44.312788,71.836572 37.78579,66.01143 37.345703,58.267578 37.237707,55.304469 35.083792,53.849225 32.876953,53.789062 Z" /><path
       id="path17168"
       style="color:#000000;font-style:normal;font-variant:normal;font-weight:normal;font-stretch:normal;font-size:medium;line-height:normal;font-family:'Abandoned Bitplane';-inkscape-font-specification:'Abandoned Bitplane';text-indent:0;text-align:start;text-decoration:none;text-decoration-line:none;letter-spacing:normal;word-spacing:normal;text-transform:none;writing-mode:lr-tb;direction:ltr;text-anchor:start;display:inline;overflow:visible;visibility:visible;fill:#a1a1a1;fill-opacity:1;stroke:none;stroke-width:4.06713;marker:none;enable-background:accumulate"
       sodipodi:type="inkscape:offset"
       inkscape:radius="-0.61499935"
       inkscape:original="M 44.736328 18.376953 C 44.341215 18.379153 43.943667 18.393356 43.544922 18.416016 C 42.117975 18.464156 40.794009 19.163965 39.951172 20.316406 C 39.310808 21.210828 39.00839 22.303993 39.097656 23.400391 C 39.285944 25.960578 41.512053 27.883244 44.072266 27.695312 C 51.816118 27.255226 58.34507 33.080366 58.785156 40.824219 C 59.015548 47.145518 68.551717 46.603578 68.064453 40.296875 C 67.361966 27.935784 56.984827 18.307365 44.736328 18.376953 z M 39.523438 29 C 39.337646 28.9962 39.14435 29.002398 38.947266 29.017578 C 26.187426 29.742726 16.341259 40.777269 17.066406 53.537109 C 17.114546 54.964056 17.814356 56.289976 18.966797 57.132812 C 19.861219 57.773178 20.954383 58.075594 22.050781 57.986328 C 24.610969 57.79804 26.533634 55.569978 26.345703 53.009766 C 25.905616 45.265911 31.73271 38.736962 39.476562 38.296875 C 45.600322 38.073683 45.282981 29.116624 39.523438 29 z M 73.960938 41.091797 C 73.824388 41.090819 73.687831 41.096292 73.550781 41.107422 C 70.990594 41.29571 69.065975 43.523772 69.253906 46.083984 C 69.693994 53.827837 63.868852 60.354835 56.125 60.794922 C 49.8037 61.025314 50.345641 70.563435 56.652344 70.076172 C 69.412183 69.351024 79.260304 58.316481 78.535156 45.556641 C 78.487016 44.129694 77.785253 42.803775 76.632812 41.960938 C 75.850194 41.400619 74.916784 41.098639 73.960938 41.091797 z M 32.876953 53.789062 C 30.375869 53.720883 27.805594 55.444486 28.064453 58.794922 C 28.789601 71.554761 39.824144 81.402882 52.583984 80.677734 C 54.010931 80.629594 55.33685 79.927831 56.179688 78.775391 C 56.820051 77.880969 57.122469 76.787804 57.033203 75.691406 C 56.844915 73.131219 54.616853 71.208554 52.056641 71.396484 C 44.312788 71.836572 37.78579 66.01143 37.345703 58.267578 C 37.237707 55.304469 35.083792 53.849225 32.876953 53.789062 z "
       d="m 44.740234,18.992188 c -0.382672,0.0021 -0.769995,0.01494 -1.160156,0.03711 a 0.61506085,0.61506085 0 0 1 -0.01367,0.002 c -1.238085,0.04177 -2.385403,0.647354 -3.117187,1.646484 -5.58e-4,7.61e-4 -0.0014,0.0012 -0.002,0.002 -0.552824,0.775018 -0.813603,1.720803 -0.736328,2.669921 a 0.61506085,0.61506085 0 0 1 0,0.0059 c 0.163932,2.229023 2.08758,3.890169 4.316406,3.726562 a 0.61506085,0.61506085 0 0 1 0.0098,0 c 8.070327,-0.458639 14.902684,5.636613 15.361329,13.707031 a 0.61506085,0.61506085 0 0 1 0.002,0.01367 c 0.05196,1.425684 0.602251,2.38222 1.386718,3.013672 0.784468,0.631453 1.832491,0.924258 2.871094,0.865235 1.038603,-0.05902 2.049937,-0.469285 2.757813,-1.185547 0.707876,-0.716263 1.145052,-1.729952 1.035156,-3.152344 a 0.61506085,0.61506085 0 0 1 0,-0.01172 C 66.767125,28.295412 56.664479,18.924442 44.740234,18.992188 Z m -5.228515,10.623046 c -0.163404,-0.0033 -0.338413,0.0018 -0.517578,0.01563 a 0.61506085,0.61506085 0 0 1 -0.01172,0 C 26.55754,30.336972 16.973573,41.077017 17.679688,53.501953 a 0.61506085,0.61506085 0 0 1 0.002,0.01367 c 0.04177,1.238104 0.647717,2.387621 1.646484,3.119141 7.61e-4,5.57e-4 0.0012,0.0014 0.002,0.002 0.775018,0.552825 1.720802,0.813603 2.669922,0.736328 a 0.61506085,0.61506085 0 0 1 0.0059,0 c 2.228715,-0.16391 3.890167,-2.089558 3.726563,-4.318359 a 0.61506085,0.61506085 0 0 1 0,-0.0098 C 25.273775,44.974489 31.370994,38.142239 39.441406,37.683594 a 0.61506085,0.61506085 0 0 1 0.01367,-0.002 c 1.381121,-0.05034 2.32076,-0.567957 2.953125,-1.3125 0.632365,-0.744544 0.948521,-1.744511 0.933594,-2.751953 -0.01493,-1.007443 -0.362409,-2.007476 -1,-2.744141 -0.637591,-0.736665 -1.549385,-1.23188 -2.830078,-1.257813 z m 34.445312,12.091797 c -0.117182,-8.39e-4 -0.23701,0.0039 -0.357422,0.01367 a 0.61506085,0.61506085 0 0 1 -0.0039,0 c -2.228736,0.163912 -3.892097,2.089868 -3.728515,4.318359 a 0.61506085,0.61506085 0 0 1 0,0.0098 c 0.458641,8.070322 -5.636717,14.900735 -13.707032,15.359375 a 0.61506085,0.61506085 0 0 1 -0.01367,0.002 c -1.425652,0.05196 -2.382202,0.602074 -3.013672,1.386719 -0.631469,0.784645 -0.924261,1.834172 -0.865234,2.873047 0.05903,1.038875 0.46927,2.047812 1.185547,2.755859 0.716277,0.708047 1.729983,1.147003 3.152344,1.03711 a 0.61506085,0.61506085 0 0 1 0.01172,0 C 69.042072,68.756778 78.627987,58.016671 77.921875,45.591797 a 0.61506085,0.61506085 0 0 1 -0.002,-0.01367 C 77.878172,44.34058 77.270523,43.190701 76.271484,42.458984 75.592762,41.974171 74.784757,41.712956 73.957031,41.707031 Z M 32.859375,54.404297 c -1.103689,-0.03009 -2.219951,0.340624 -3.009766,1.060547 -0.789814,0.719923 -1.288638,1.771928 -1.171875,3.283203 a 0.61506085,0.61506085 0 0 1 0,0.01172 c 0.706113,12.424884 11.44622,22.010799 23.871094,21.304687 a 0.61506085,0.61506085 0 0 1 0.01367,-0.002 c 1.237545,-0.04175 2.387423,-0.6494 3.119141,-1.648438 0.553874,-0.775418 0.815627,-1.721878 0.738281,-2.671874 a 0.61506085,0.61506085 0 0 1 0,-0.0059 c -0.16391,-2.228713 -2.089558,-3.890166 -4.31836,-3.726562 a 0.61506085,0.61506085 0 0 1 -0.0098,0 C 44.021475,72.468407 37.191062,66.373049 36.732422,58.302734 a 0.61506085,0.61506085 0 0 1 -0.002,-0.01367 c -0.04871,-1.336496 -0.536698,-2.258521 -1.242188,-2.890624 -0.70549,-0.632104 -1.655069,-0.967592 -2.628906,-0.994141 z"
       transform="translate(0.06609762,0.49945667)" /><path
       id="path20121"
       style="color:#000000;font-style:normal;font-variant:normal;font-weight:normal;font-stretch:normal;font-size:medium;line-height:normal;font-family:'Abandoned Bitplane';-inkscape-font-specification:'Abandoned Bitplane';text-indent:0;text-align:start;text-decoration:none;text-decoration-line:none;letter-spacing:normal;word-spacing:normal;text-transform:none;writing-mode:lr-tb;direction:ltr;text-anchor:start;display:inline;overflow:visible;visibility:visible;fill:#ffffff;fill-opacity:1;stroke:none;stroke-width:4.06713;marker:none;enable-background:accumulate"
       sodipodi:type="inkscape:offset"
       inkscape:radius="-1.2040712"
       inkscape:original="M 44.736328 18.376953 C 44.341215 18.379153 43.943667 18.393356 43.544922 18.416016 C 42.117975 18.464156 40.794009 19.163965 39.951172 20.316406 C 39.310808 21.210828 39.00839 22.303993 39.097656 23.400391 C 39.285944 25.960578 41.512053 27.883244 44.072266 27.695312 C 51.816118 27.255226 58.34507 33.080366 58.785156 40.824219 C 59.015548 47.145518 68.551717 46.603578 68.064453 40.296875 C 67.361966 27.935784 56.984827 18.307365 44.736328 18.376953 z M 39.523438 29 C 39.337646 28.9962 39.14435 29.002398 38.947266 29.017578 C 26.187426 29.742726 16.341259 40.777269 17.066406 53.537109 C 17.114546 54.964056 17.814356 56.289976 18.966797 57.132812 C 19.861219 57.773178 20.954383 58.075594 22.050781 57.986328 C 24.610969 57.79804 26.533634 55.569978 26.345703 53.009766 C 25.905616 45.265911 31.73271 38.736962 39.476562 38.296875 C 45.600322 38.073683 45.282981 29.116624 39.523438 29 z M 73.960938 41.091797 C 73.824388 41.090819 73.687831 41.096292 73.550781 41.107422 C 70.990594 41.29571 69.065975 43.523772 69.253906 46.083984 C 69.693994 53.827837 63.868852 60.354835 56.125 60.794922 C 49.8037 61.025314 50.345641 70.563435 56.652344 70.076172 C 69.412183 69.351024 79.260304 58.316481 78.535156 45.556641 C 78.487016 44.129694 77.785253 42.803775 76.632812 41.960938 C 75.850194 41.400619 74.916784 41.098639 73.960938 41.091797 z M 32.876953 53.789062 C 30.375869 53.720883 27.805594 55.444486 28.064453 58.794922 C 28.789601 71.554761 39.824144 81.402882 52.583984 80.677734 C 54.010931 80.629594 55.33685 79.927831 56.179688 78.775391 C 56.820051 77.880969 57.122469 76.787804 57.033203 75.691406 C 56.844915 73.131219 54.616853 71.208554 52.056641 71.396484 C 44.312788 71.836572 37.78579 66.01143 37.345703 58.267578 C 37.237707 55.304469 35.083792 53.849225 32.876953 53.789062 z "
       d="m 44.742188,19.580078 c -0.370757,0.0021 -0.746968,0.01541 -1.128907,0.03711 a 1.2041916,1.2041916 0 0 1 -0.02734,0.002 c -1.057144,0.03566 -2.032797,0.552075 -2.658204,1.404297 -0.471956,0.661778 -0.696851,1.46876 -0.630859,2.279296 a 1.2041916,1.2041916 0 0 1 0.002,0.0098 c 0.140604,1.911821 1.774138,3.321947 3.685547,3.181641 a 1.2041916,1.2041916 0 0 1 0.01953,0 c 8.383039,-0.476412 15.506001,5.878501 15.982422,14.261718 a 1.2041916,1.2041916 0 0 1 0.002,0.02539 c 0.04656,1.277562 0.512172,2.048292 1.167969,2.576172 0.655797,0.52788 1.56172,0.787875 2.46875,0.736328 0.90703,-0.05155 1.779326,-0.41294 2.371094,-1.011719 0.591768,-0.598779 0.965665,-1.418747 0.867187,-2.693359 a 1.2041916,1.2041916 0 0 1 0,-0.02344 C 66.196897,28.639408 56.357801,19.514097 44.744141,19.580078 a 1.2041916,1.2041916 0 0 1 -0.002,0 z m -5.244141,10.623047 c -0.14196,-0.0029 -0.296983,0.0031 -0.458985,0.01563 a 1.2041916,1.2041916 0 0 1 -0.02344,0 c -12.104045,0.687879 -21.435931,11.145848 -20.748047,23.25 a 1.2041916,1.2041916 0 0 1 0.002,0.02734 c 0.03567,1.057179 0.552786,2.035263 1.404297,2.660156 0.661778,0.471957 1.468759,0.696851 2.279297,0.630859 a 1.2041916,1.2041916 0 0 1 0.0098,-0.002 c 1.911214,-0.140559 3.321943,-1.776136 3.18164,-3.6875 a 1.2041916,1.2041916 0 0 1 0,-0.01953 c -0.476423,-8.383243 5.880468,-15.506 14.263672,-15.982422 a 1.2041916,1.2041916 0 0 1 0.02539,-0.002 c 1.237618,-0.04511 1.997474,-0.485855 2.52539,-1.107422 0.527917,-0.621566 0.806003,-1.479736 0.792969,-2.359375 C 42.73892,32.747314 42.43215,31.876714 41.896484,31.257812 41.360819,30.638911 40.628212,30.22597 39.5,30.203125 a 1.2041916,1.2041916 0 0 1 -0.002,0 z m 34.455078,12.091797 c -0.09863,-7.07e-4 -0.200214,0.0032 -0.304687,0.01172 a 1.2041916,1.2041916 0 0 1 -0.0098,0.002 c -1.911258,0.140563 -3.323852,1.776744 -3.183594,3.6875 a 1.2041916,1.2041916 0 0 1 0,0.01953 c 0.476413,8.383028 -5.878704,15.504058 -14.261719,15.980469 a 1.2041916,1.2041916 0 0 1 -0.02539,0.002 c -1.277501,0.04656 -2.048259,0.512 -2.576172,1.167969 -0.527913,0.655968 -0.787881,1.563374 -0.736328,2.470703 0.05155,0.907329 0.41291,1.779166 1.011719,2.371093 0.598808,0.591928 1.418808,0.965661 2.693359,0.867188 a 1.2041916,1.2041916 0 0 1 0.02344,0 c 12.104051,-0.687879 21.437878,-11.14597 20.75,-23.25 a 1.2041916,1.2041916 0 0 1 -0.002,-0.02734 C 77.296403,44.54157 76.777822,43.562778 75.925781,42.9375 75.346194,42.524148 74.658899,42.299974 73.953125,42.294922 Z M 32.84375,54.992188 c -0.963027,-0.02625 -1.935265,0.304428 -2.597656,0.908203 -0.662391,0.603775 -1.0851,1.44849 -0.980469,2.802734 a 1.2041916,1.2041916 0 0 1 0,0.02344 c 0.687879,12.104051 11.14597,21.437878 23.25,20.75 a 1.2041916,1.2041916 0 0 1 0.02734,-0.002 c 1.056086,-0.03563 2.034877,-0.554209 2.660156,-1.40625 0.471956,-0.661779 0.696851,-1.46876 0.630859,-2.279297 a 1.2041916,1.2041916 0 0 1 -0.002,-0.0098 c -0.140559,-1.911214 -1.776136,-3.321943 -3.6875,-3.181641 a 1.2041916,1.2041916 0 0 1 -0.01953,0 C 43.741972,73.074069 36.620942,66.718952 36.144531,58.335938 a 1.2041916,1.2041916 0 0 1 -0.002,-0.02539 c -0.04365,-1.197554 -0.458571,-1.947502 -1.046875,-2.474609 -0.588304,-0.527108 -1.402236,-0.820585 -2.251953,-0.84375 z"
       transform="translate(0.06609762,1.0650109)" /><path
       id="path17213"
       style="color:#000000;font-style:normal;font-variant:normal;font-weight:normal;font-stretch:normal;font-size:medium;line-height:normal;font-family:'Abandoned Bitplane';-inkscape-font-specification:'Abandoned Bitplane';text-indent:0;text-align:start;text-decoration:none;text-decoration-line:none;letter-spacing:normal;word-spacing:normal;text-transform:none;writing-mode:lr-tb;direction:ltr;text-anchor:start;display:inline;overflow:visible;visibility:visible;opacity:0.3;fill:#000000;fill-opacity:1;stroke:none;stroke-width:4.06713;marker:none;enable-background:accumulate"
       d="m 44.736328,18.376953 c -0.395112,0.0022 -0.792662,0.0164 -1.191406,0.03906 -1.426946,0.04814 -2.750914,0.74795 -3.59375,1.90039 -0.640363,0.894421 -0.942782,1.987588 -0.853516,3.083985 0.0151,0.205334 0.04745,0.405189 0.08789,0.601562 -0.0018,-0.02107 -0.0063,-0.04134 -0.0078,-0.0625 -0.08927,-1.096397 0.213153,-2.189563 0.853516,-3.083984 0.842836,-1.15244 2.166804,-1.852251 3.59375,-1.900391 0.398745,-0.02266 0.796294,-0.03686 1.191406,-0.03906 C 56.237656,18.851125 66.026782,27.22064 67.8672,38.373046 66.25804,26.952581 56.340677,18.311025 44.736328,18.376953 Z M 39.523438,29 c -0.185792,-0.0038 -0.379089,0.0024 -0.576172,0.01758 -12.759828,0.725147 -22.606006,11.759704 -21.88086,24.519531 0.0092,0.271576 0.04852,0.537205 0.103516,0.798829 -0.0078,-0.08667 -0.02049,-0.172244 -0.02344,-0.259766 -0.725146,-12.759827 9.121033,-23.794384 21.88086,-24.519531 0.197084,-0.01518 0.39038,-0.02138 0.576172,-0.01758 2.448035,0.04957 3.901675,1.699455 4.30664,3.59375 C 43.685965,31.022457 42.201714,29.054232 39.523438,29 Z m 19.144531,10.716797 c 0.04939,0.36586 0.09586,0.73205 0.117187,1.107422 0.01174,0.321981 0.05386,0.62169 0.111328,0.908203 -0.01205,-0.121849 -0.02661,-0.241724 -0.03125,-0.369141 -0.03187,-0.560809 -0.103378,-1.107452 -0.197265,-1.646484 z m 15.292969,1.375 c -0.13655,-9.78e-4 -0.273107,0.0045 -0.410157,0.01563 -2.560184,0.188288 -4.484806,2.416353 -4.296875,4.976562 0.440088,7.743846 -5.385062,14.270851 -13.128906,14.710938 -3.563226,0.129869 -4.943303,3.21674 -4.341797,5.798828 -0.305979,-2.454411 1.102973,-5.138802 4.421875,-5.259766 7.743844,-0.440086 13.568994,-6.967092 13.128906,-14.710937 -0.18793,-2.56021 1.736691,-4.788275 4.296875,-4.976563 0.13705,-0.01113 0.273607,-0.0166 0.410157,-0.01563 0.955845,0.0068 1.889256,0.308823 2.671875,0.869141 0.935257,0.684 1.56568,1.688571 1.798828,2.804688 -0.11776,-1.329454 -0.795044,-2.551068 -1.878907,-3.34375 -0.782618,-0.560319 -1.716029,-0.862299 -2.671874,-0.869141 z M 32.876953,53.789062 c -2.501081,-0.06818 -5.071359,1.655427 -4.8125,5.00586 0.04837,0.851089 0.14565,1.688811 0.283203,2.511719 -0.09298,-0.649819 -0.165229,-1.30584 -0.203125,-1.972657 -0.258858,-3.350432 2.311419,-5.074039 4.8125,-5.005859 1.966288,0.0536 3.886849,1.217979 4.359375,3.566406 -0.26961,-2.709485 -2.328402,-4.047917 -4.439453,-4.105469 z m 4.666016,6.125 c 0.969369,7.181758 7.225277,12.44024 14.59375,12.021485 2.354872,-0.172857 4.424638,1.441286 4.888672,3.693359 -0.220057,-2.528471 -2.429702,-4.418798 -4.96875,-4.232422 -7.183037,0.408217 -13.311369,-4.578311 -14.513672,-11.482422 z" /><path
       id="path20146"
       style="color:#000000;font-style:normal;font-variant:normal;font-weight:normal;font-stretch:normal;font-size:medium;line-height:normal;font-family:'Abandoned Bitplane';-inkscape-font-specification:'Abandoned Bitplane';text-indent:0;text-align:start;text-decoration:none;text-decoration-line:none;letter-spacing:normal;word-spacing:normal;text-transform:none;writing-mode:lr-tb;direction:ltr;text-anchor:start;display:inline;overflow:visible;visibility:visible;opacity:0.318182;fill:#ffffff;fill-opacity:1;stroke:none;stroke-width:4.06713;marker:none;enable-background:accumulate"
       d="m 39.099609,23.027344 c -0.08761,0.427764 -0.131656,0.867007 -0.0957,1.308594 0.188288,2.560184 2.414399,4.482852 4.97461,4.294921 7.743844,-0.440086 14.272805,5.385061 14.71289,13.128907 0.224123,6.149281 9.25219,5.80175 9.294922,-0.02734 -0.946546,4.910283 -8.989738,4.892942 -9.201172,-0.908203 -0.440085,-7.743846 -6.969046,-13.568993 -14.71289,-13.128907 -2.560211,0.187931 -4.786322,-1.734737 -4.97461,-4.294921 -0.01017,-0.124946 0.002,-0.248475 0.002,-0.373047 z m 4.757813,11.607422 c -0.355177,1.897299 -1.782194,3.567396 -4.38086,3.662109 -7.077612,0.402224 -12.537851,5.894464 -13.091796,12.748047 0.951972,-6.413168 6.244408,-11.428687 12.998046,-11.8125 3.020633,-0.110093 4.468461,-2.346692 4.47461,-4.597656 z m 25.388672,11.111328 c -0.08381,0.409413 -0.118038,0.836133 -0.08594,1.273437 0.03779,0.664917 0.01278,1.315094 -0.03906,1.958985 0.138868,-0.938469 0.188974,-1.906308 0.132812,-2.894532 -0.0083,-0.113447 -0.0077,-0.225895 -0.0078,-0.33789 z m 9.154297,3.888672 C 77.082648,60.587189 68.0284,69.429665 56.652344,70.076172 c -3.302472,0.255153 -5.006931,-2.238187 -4.990235,-4.705078 -0.52283,2.723242 1.171987,5.928384 4.896485,5.640625 11.697836,-0.664794 20.941723,-9.996917 21.841797,-21.376953 z m -61.292969,0.761718 c -0.16006,1.331628 -0.213368,2.693069 -0.134766,4.076172 0.04814,1.426946 0.747951,2.752867 1.900391,3.595703 0.894421,0.640365 1.987587,0.942782 3.083984,0.853516 2.446272,-0.17991 4.305629,-2.223849 4.302735,-4.638672 -0.406391,1.987508 -2.086099,3.546998 -4.208985,3.703125 -1.096397,0.08927 -2.189563,-0.213151 -3.083984,-0.853516 -1.15244,-0.842836 -1.852251,-2.168757 -1.900391,-3.595703 -0.06028,-1.06066 -0.0404,-2.108737 0.04102,-3.140625 z m 10.943359,7.894532 c -0.08558,0.441547 -0.120314,0.918677 -0.08008,1.439453 0.725147,12.759826 11.759704,22.60796 24.519531,21.882812 1.426946,-0.04814 2.752866,-0.749905 3.595704,-1.902343 0.566623,-0.791426 0.85136,-1.739842 0.851562,-2.707032 -0.130326,0.632178 -0.376542,1.238949 -0.757812,1.771485 -0.842838,1.152438 -2.168758,1.854203 -3.595704,1.902343 C 39.824157,81.402882 28.7896,71.554748 28.064453,58.794922 c -0.01338,-0.173166 -0.01501,-0.339455 -0.01367,-0.503906 z" /></g><path
     d="m 12.000001,5.0865608 c -3.324,0 -6,2.676 -6,6.0000002 v 24.125 c 11.823123,5.258282 26.321675,8.375 42,8.375 15.678325,0 30.176873,-3.116718 41.999999,-8.375 v -24.125 C 90,7.7625608 87.324,5.0865608 84,5.0865608 Z"
     inkscape:connector-curvature="0"
     id="path3911"
     style="color:#000000;display:none;overflow:visible;visibility:visible;opacity:0.219697;fill:url(#linearGradient3922);fill-opacity:1;fill-rule:nonzero;stroke:none;stroke-width:8;marker:none;enable-background:accumulate" /></svg>
