<?xml version="1.0" encoding="UTF-8" standalone="no"?>
<!-- Created with Inkscape (http://www.inkscape.org/) -->

<svg
   version="1.0"
   width="96"
   height="96"
   id="svg2408"
   sodipodi:docname="firefox-new.svg"
   inkscape:version="1.2.2 (b0a8486541, 2022-12-01)"
   xmlns:inkscape="http://www.inkscape.org/namespaces/inkscape"
   xmlns:sodipodi="http://sodipodi.sourceforge.net/DTD/sodipodi-0.dtd"
   xmlns:xlink="http://www.w3.org/1999/xlink"
   xmlns="http://www.w3.org/2000/svg"
   xmlns:svg="http://www.w3.org/2000/svg"
   xmlns:rdf="http://www.w3.org/1999/02/22-rdf-syntax-ns#"
   xmlns:cc="http://creativecommons.org/ns#"
   xmlns:dc="http://purl.org/dc/elements/1.1/">
  <sodipodi:namedview
     id="namedview15843"
     pagecolor="#ffffff"
     bordercolor="#000000"
     borderopacity="0.25"
     inkscape:showpageshadow="2"
     inkscape:pageopacity="0.0"
     inkscape:pagecheckerboard="0"
     inkscape:deskcolor="#d1d1d1"
     showgrid="false"
     inkscape:zoom="8"
     inkscape:cx="50.375"
     inkscape:cy="12.75"
     inkscape:current-layer="g4093" />
  <defs
     id="defs2410">
    <radialGradient
       id="radialGradient21052"
       cx="475.58807"
       cy="-41.588268"
       r="779.90861"
       gradientTransform="scale(0.68818401,1.4530997)"
       fx="475.58807"
       fy="-41.588268"
       gradientUnits="userSpaceOnUse">
      <stop
         offset="0"
         stop-color="#fff44f"
         id="stop21044"
         style="stop-color:#ffffff;stop-opacity:1;" />
      <stop
         offset="0.68551284"
         stop-color="#e31587"
         id="stop21050"
         style="stop-color:#ffffff;stop-opacity:0;" />
    </radialGradient>
    <linearGradient
       inkscape:collect="always"
       id="linearGradient12466">
      <stop
         style="stop-color:#fefefe;stop-opacity:1;"
         offset="0.4679487"
         id="stop12462" />
      <stop
         style="stop-color:#fefefe;stop-opacity:0;"
         offset="1"
         id="stop12464" />
    </linearGradient>
    <radialGradient
       gradientUnits="userSpaceOnUse"
       fy="14.1758"
       fx="64.553703"
       r="52.228901"
       cy="14.1758"
       cx="64.553703"
       id="radialGradient11734">
      <stop
         id="stop11728"
         style="stop-color:#660fbc;stop-opacity:1;"
         offset="0" />
      <stop
         id="stop11730"
         style="stop-color:#540a9e;stop-opacity:1;"
         offset="0.33759999" />
      <stop
         id="stop11732"
         style="stop-color:#2d005a;stop-opacity:1;"
         offset="1" />
    </radialGradient>
    <radialGradient
       gradientUnits="userSpaceOnUse"
       fy="14.1758"
       fx="64.553703"
       r="52.228901"
       cy="14.1758"
       cx="64.553703"
       id="radialGradient11726">
      <stop
         id="stop11720"
         style="stop-color:#660fbc;stop-opacity:1;"
         offset="0" />
      <stop
         id="stop11722"
         style="stop-color:#540a9e;stop-opacity:1;"
         offset="0.33759999" />
      <stop
         id="stop11724"
         style="stop-color:#2d005a;stop-opacity:1;"
         offset="1" />
    </radialGradient>
    <radialGradient
       gradientUnits="userSpaceOnUse"
       fy="14.1758"
       fx="64.553703"
       r="52.228901"
       cy="14.1758"
       cx="64.553703"
       id="radialGradient11718">
      <stop
         id="stop11712"
         style="stop-color:#660fbc;stop-opacity:1;"
         offset="0" />
      <stop
         id="stop11714"
         style="stop-color:#540a9e;stop-opacity:1;"
         offset="0.33759999" />
      <stop
         id="stop11716"
         style="stop-color:#2d005a;stop-opacity:1;"
         offset="1" />
    </radialGradient>
    <radialGradient
       gradientUnits="userSpaceOnUse"
       fy="14.1758"
       fx="64.553703"
       r="52.228901"
       cy="14.1758"
       cx="64.553703"
       id="radialGradient11710">
      <stop
         id="stop11704"
         style="stop-color:#660fbc;stop-opacity:1;"
         offset="0" />
      <stop
         id="stop11706"
         style="stop-color:#540a9e;stop-opacity:1;"
         offset="0.33759999" />
      <stop
         id="stop11708"
         style="stop-color:#2d005a;stop-opacity:1;"
         offset="1" />
    </radialGradient>
    <radialGradient
       gradientUnits="userSpaceOnUse"
       fy="14.1758"
       fx="64.553703"
       r="52.228901"
       cy="14.1758"
       cx="64.553703"
       id="radialGradient11702">
      <stop
         id="stop11696"
         style="stop-color:#660fbc;stop-opacity:1;"
         offset="0" />
      <stop
         id="stop11698"
         style="stop-color:#540a9e;stop-opacity:1;"
         offset="0.33759999" />
      <stop
         id="stop11700"
         style="stop-color:#2d005a;stop-opacity:1;"
         offset="1" />
    </radialGradient>
    <radialGradient
       gradientUnits="userSpaceOnUse"
       fy="14.1758"
       fx="64.553703"
       r="52.228901"
       cy="14.1758"
       cx="64.553703"
       id="radialGradient11694">
      <stop
         id="stop11688"
         style="stop-color:#660fbc;stop-opacity:1;"
         offset="0" />
      <stop
         id="stop11690"
         style="stop-color:#540a9e;stop-opacity:1;"
         offset="0.33759999" />
      <stop
         id="stop11692"
         style="stop-color:#2d005a;stop-opacity:1;"
         offset="1" />
    </radialGradient>
    <radialGradient
       gradientUnits="userSpaceOnUse"
       fy="14.1758"
       fx="64.553703"
       r="52.228901"
       cy="14.1758"
       cx="64.553703"
       id="radialGradient11686">
      <stop
         id="stop11680"
         style="stop-color:#660fbc;stop-opacity:1;"
         offset="0" />
      <stop
         id="stop11682"
         style="stop-color:#540a9e;stop-opacity:1;"
         offset="0.33759999" />
      <stop
         id="stop11684"
         style="stop-color:#2d005a;stop-opacity:1;"
         offset="1" />
    </radialGradient>
    <radialGradient
       gradientUnits="userSpaceOnUse"
       fy="14.1758"
       fx="64.553703"
       r="52.228901"
       cy="14.1758"
       cx="64.553703"
       id="radialGradient11678">
      <stop
         id="stop11672"
         style="stop-color:#660fbc;stop-opacity:1;"
         offset="0" />
      <stop
         id="stop11674"
         style="stop-color:#540a9e;stop-opacity:1;"
         offset="0.33759999" />
      <stop
         id="stop11676"
         style="stop-color:#2d005a;stop-opacity:1;"
         offset="1" />
    </radialGradient>
    <radialGradient
       gradientUnits="userSpaceOnUse"
       fy="14.1758"
       fx="64.553703"
       r="52.228901"
       cy="14.1758"
       cx="64.553703"
       id="radialGradient11670">
      <stop
         id="stop11664"
         style="stop-color:#ffffff;stop-opacity:1;"
         offset="0" />
      <stop
         id="stop11666"
         style="stop-color:#ffffff;stop-opacity:1;"
         offset="0.33759999" />
      <stop
         id="stop11668"
         style="stop-color:#45005a;stop-opacity:1;"
         offset="1" />
    </radialGradient>
    <radialGradient
       id="radialGradient6956"
       cx="206.27053"
       cy="373.24011"
       r="223.49659"
       gradientTransform="scale(0.95519576,1.0469058)"
       fx="206.27053"
       fy="373.24011"
       gradientUnits="userSpaceOnUse">
      <stop
         offset="0"
         stop-color="#3a8ee6"
         id="stop6950"
         style="stop-color:#ffffff;stop-opacity:1;" />
      <stop
         offset="1"
         stop-color="#9059ff"
         id="stop6952"
         style="stop-color:#ffffff;stop-opacity:0;" />
    </radialGradient>
    <linearGradient
       id="linearGradient5270">
      <stop
         id="stop5266"
         style="stop-color:#000000;stop-opacity:1;"
         offset="0" />
      <stop
         id="stop5268"
         style="stop-color:#e02f11;stop-opacity:1"
         offset="1" />
    </linearGradient>
    <linearGradient
       id="linearGradient4085">
      <stop
         id="stop4087"
         style="stop-color:#782121;stop-opacity:1"
         offset="0" />
      <stop
         id="stop4089"
         style="stop-color:#782121;stop-opacity:0"
         offset="1" />
    </linearGradient>
    <linearGradient
       id="linearGradient3694">
      <stop
         id="stop3696"
         style="stop-color:#e6e6e6;stop-opacity:1"
         offset="0" />
      <stop
         id="stop3698"
         style="stop-color:#f5f5f5;stop-opacity:1"
         offset="1" />
    </linearGradient>
    <linearGradient
       id="linearGradient3688">
      <stop
         id="stop3690"
         style="stop-color:#9200a0;stop-opacity:1;"
         offset="0.375" />
      <stop
         id="stop3692"
         style="stop-color:#2a9ae8;stop-opacity:1;"
         offset="1" />
    </linearGradient>
    <linearGradient
       x1="45.447727"
       y1="92.539597"
       x2="45.447727"
       y2="7.0165396"
       id="ButtonShadow"
       gradientUnits="userSpaceOnUse"
       gradientTransform="scale(1.0058652,0.994169)">
      <stop
         id="stop3750"
         style="stop-color:#000000;stop-opacity:1"
         offset="0" />
      <stop
         id="stop3752"
         style="stop-color:#000000;stop-opacity:0.58823532"
         offset="1" />
    </linearGradient>
    <linearGradient
       id="linearGradient3737">
      <stop
         id="stop3739"
         style="stop-color:#ffffff;stop-opacity:1"
         offset="0" />
      <stop
         id="stop3741"
         style="stop-color:#ffffff;stop-opacity:0"
         offset="1" />
    </linearGradient>
    <filter
       color-interpolation-filters="sRGB"
       id="filter3174"
       x="-0.047720931"
       y="-0.048282354"
       width="1.0954419"
       height="1.0965647">
      <feGaussianBlur
         id="feGaussianBlur3176"
         stdDeviation="1.71" />
    </filter>
    <linearGradient
       x1="36.357143"
       y1="6"
       x2="36.357143"
       y2="63.893143"
       id="linearGradient3188"
       xlink:href="#linearGradient3737"
       gradientUnits="userSpaceOnUse" />
    <filter
       x="-0.19578789"
       y="-0.19578789"
       width="1.3915758"
       height="1.3915758"
       color-interpolation-filters="sRGB"
       id="filter3794">
      <feGaussianBlur
         id="feGaussianBlur3796"
         stdDeviation="5.28" />
    </filter>
    <linearGradient
       x1="48"
       y1="20.220806"
       x2="48"
       y2="138.66119"
       id="linearGradient3613"
       xlink:href="#linearGradient3737"
       gradientUnits="userSpaceOnUse" />
    <radialGradient
       cx="48"
       cy="90.171875"
       r="42"
       fx="48"
       fy="90.171875"
       id="radialGradient3619"
       xlink:href="#linearGradient3737"
       gradientUnits="userSpaceOnUse"
       gradientTransform="matrix(1.1573129,0,0,0.99590774,-7.5510206,0.19713193)" />
    <clipPath
       id="clipPath3613">
      <rect
         width="84"
         height="84"
         rx="6"
         ry="6"
         x="6"
         y="6"
         id="rect3615"
         style="fill:#ffffff;fill-opacity:1;fill-rule:nonzero;stroke:none" />
    </clipPath>
    <linearGradient
       x1="48"
       y1="90"
       x2="48"
       y2="5.9877172"
       id="linearGradient3617"
       xlink:href="#linearGradient3688"
       gradientUnits="userSpaceOnUse" />
    <linearGradient
       x1="45.447727"
       y1="92.539597"
       x2="45.447727"
       y2="7.0165396"
       id="ButtonShadow-0"
       gradientUnits="userSpaceOnUse"
       gradientTransform="matrix(1.0058652,0,0,0.994169,100,0)">
      <stop
         id="stop3750-8"
         style="stop-color:#000000;stop-opacity:1"
         offset="0" />
      <stop
         id="stop3752-5"
         style="stop-color:#000000;stop-opacity:0.58823532"
         offset="1" />
    </linearGradient>
    <linearGradient
       x1="32.251034"
       y1="6.1317081"
       x2="32.251034"
       y2="90.238609"
       id="linearGradient3780"
       xlink:href="#ButtonShadow-0"
       gradientUnits="userSpaceOnUse"
       gradientTransform="matrix(1.0238095,0,0,1.0119048,-1.1428571,-98.071429)" />
    <linearGradient
       x1="32.251034"
       y1="6.1317081"
       x2="32.251034"
       y2="90.238609"
       id="linearGradient3772"
       xlink:href="#ButtonShadow-0"
       gradientUnits="userSpaceOnUse"
       gradientTransform="matrix(1.0238095,0,0,1.0119048,-1.1428571,-98.071429)" />
    <linearGradient
       x1="32.251034"
       y1="6.1317081"
       x2="32.251034"
       y2="90.238609"
       id="linearGradient3725"
       xlink:href="#ButtonShadow-0"
       gradientUnits="userSpaceOnUse"
       gradientTransform="matrix(1.0238095,0,0,1.0119048,-1.1428571,-98.071429)" />
    <linearGradient
       x1="32.251034"
       y1="6.1317081"
       x2="32.251034"
       y2="90.238609"
       id="linearGradient3721"
       xlink:href="#ButtonShadow-0"
       gradientUnits="userSpaceOnUse"
       gradientTransform="translate(0,-97)" />
    <linearGradient
       x1="32.251034"
       y1="6.1317081"
       x2="32.251034"
       y2="90.238609"
       id="linearGradient3026"
       xlink:href="#ButtonShadow-0"
       gradientUnits="userSpaceOnUse"
       gradientTransform="matrix(1.0238095,0,0,1.0119048,-1.1428571,-98.071429)" />
    <linearGradient
       x1="-73.494293"
       y1="72.699486"
       x2="-50.243786"
       y2="159.47563"
       id="linearGradient4018"
       xlink:href="#linearGradient3694"
       gradientUnits="userSpaceOnUse"
       gradientTransform="matrix(0.59136097,-0.15844727,-0.15844727,-0.59136097,103.35407,108.29989)" />
    <linearGradient
       x1="-73.494293"
       y1="72.699486"
       x2="-50.243786"
       y2="159.47563"
       id="linearGradient4071"
       xlink:href="#linearGradient3694"
       gradientUnits="userSpaceOnUse"
       gradientTransform="matrix(0.59136097,-0.15844727,-0.15844727,-0.59136097,103.35407,109.29989)" />
    <linearGradient
       x1="58"
       y1="19"
       x2="58"
       y2="120"
       id="linearGradient4091"
       xlink:href="#linearGradient4085"
       gradientUnits="userSpaceOnUse" />
    <linearGradient
       id="a"
       x1="441.98419"
       y1="75.63131"
       x2="62.126281"
       y2="454.26937"
       gradientTransform="scale(0.98374383,1.0165248)"
       gradientUnits="userSpaceOnUse">
      <stop
         offset=".05"
         stop-color="#fff44f"
         id="stop1228" />
      <stop
         offset=".37"
         stop-color="#ff980e"
         id="stop1230" />
      <stop
         offset=".53"
         stop-color="#ff3647"
         id="stop1232" />
      <stop
         offset=".7"
         stop-color="#e31587"
         id="stop1234" />
    </linearGradient>
    <radialGradient
       id="b"
       cx="392.80674"
       cy="61.159757"
       r="554.14583"
       gradientTransform="scale(1.1087373,0.9019269)"
       fx="392.80674"
       fy="61.159757"
       gradientUnits="userSpaceOnUse">
      <stop
         offset=".13"
         stop-color="#ffbd4f"
         id="stop1185" />
      <stop
         offset=".28"
         stop-color="#ff980e"
         id="stop1187" />
      <stop
         offset=".47"
         stop-color="#ff3750"
         id="stop1189" />
      <stop
         offset=".78"
         stop-color="#eb0878"
         id="stop1191" />
      <stop
         offset=".86"
         stop-color="#e50080"
         id="stop1193" />
    </radialGradient>
    <radialGradient
       id="c"
       cx="226.56298"
       cy="290.17784"
       r="554.14583"
       gradientTransform="scale(1.1087373,0.9019269)"
       fx="226.56298"
       fy="290.17784"
       gradientUnits="userSpaceOnUse">
      <stop
         offset=".3"
         stop-color="#960e18"
         id="stop1157" />
      <stop
         offset=".35"
         stop-color="#b11927"
         stop-opacity=".74"
         id="stop1159" />
      <stop
         offset=".43"
         stop-color="#db293d"
         stop-opacity=".34"
         id="stop1161" />
      <stop
         offset=".5"
         stop-color="#f5334b"
         stop-opacity=".09"
         id="stop1163" />
      <stop
         offset=".53"
         stop-color="#ff3750"
         stop-opacity="0"
         id="stop1165" />
    </radialGradient>
    <radialGradient
       id="d"
       cx="395.44365"
       cy="-17.973478"
       r="210.2099"
       gradientTransform="scale(0.76747288,1.3029776)"
       fx="395.44365"
       fy="-17.973478"
       gradientUnits="userSpaceOnUse">
      <stop
         offset=".13"
         stop-color="#fff44f"
         id="stop1168" />
      <stop
         offset=".53"
         stop-color="#ff980e"
         id="stop1170" />
    </radialGradient>
    <radialGradient
       id="e"
       cx="206.27053"
       cy="373.24011"
       r="223.49659"
       gradientTransform="scale(0.95519576,1.0469058)"
       fx="206.27053"
       fy="373.24011"
       gradientUnits="userSpaceOnUse">
      <stop
         offset=".35"
         stop-color="#3a8ee6"
         id="stop1173" />
      <stop
         offset=".67"
         stop-color="#9059ff"
         id="stop1175" />
      <stop
         offset="1"
         stop-color="#c139e6"
         id="stop1177" />
    </radialGradient>
    <radialGradient
       id="f"
       cx="271.62092"
       cy="200.9019"
       r="131.86298"
       gradientTransform="scale(0.95519576,1.0469058)"
       fx="271.62092"
       fy="200.9019"
       gradientUnits="userSpaceOnUse">
      <stop
         offset=".21"
         stop-color="#9059ff"
         stop-opacity="0"
         id="stop1180" />
      <stop
         offset=".97"
         stop-color="#6e008b"
         stop-opacity=".6"
         id="stop1182" />
    </radialGradient>
    <radialGradient
       id="g"
       cx="240.61284"
       cy="36.806651"
       r="170.02094"
       gradientTransform="scale(0.99822767,1.0017755)"
       fx="240.61284"
       fy="36.806651"
       gradientUnits="userSpaceOnUse">
      <stop
         offset=".1"
         stop-color="#ffe226"
         id="stop1152" />
      <stop
         offset=".79"
         stop-color="#ff7139"
         id="stop1154" />
    </radialGradient>
    <radialGradient
       id="h"
       cx="362.075"
       cy="-81.709216"
       r="742.38693"
       gradientTransform="scale(1.0914501,0.91621229)"
       fx="362.075"
       fy="-81.709216"
       gradientUnits="userSpaceOnUse">
      <stop
         offset=".11"
         stop-color="#fff44f"
         id="stop1196" />
      <stop
         offset=".46"
         stop-color="#ff980e"
         id="stop1198" />
      <stop
         offset=".72"
         stop-color="#ff3647"
         id="stop1200" />
      <stop
         offset=".9"
         stop-color="#e31587"
         id="stop1202" />
    </radialGradient>
    <radialGradient
       id="i"
       cx="475.58807"
       cy="-41.588268"
       r="779.90861"
       gradientTransform="scale(0.68818401,1.4530997)"
       fx="475.58807"
       fy="-41.588268"
       gradientUnits="userSpaceOnUse">
      <stop
         offset="0"
         stop-color="#fff44f"
         id="stop1205" />
      <stop
         offset=".3"
         stop-color="#ff980e"
         id="stop1207" />
      <stop
         offset=".57"
         stop-color="#ff3647"
         id="stop1209" />
      <stop
         offset=".74"
         stop-color="#e31587"
         id="stop1211" />
    </radialGradient>
    <radialGradient
       id="j"
       cx="239.79737"
       cy="99.00617"
       r="461.1138"
       gradientTransform="scale(1.008901,0.9911775)"
       fx="239.79737"
       fy="99.00617"
       gradientUnits="userSpaceOnUse">
      <stop
         offset=".14"
         stop-color="#fff44f"
         id="stop1214" />
      <stop
         offset=".48"
         stop-color="#ff980e"
         id="stop1216" />
      <stop
         offset=".66"
         stop-color="#ff3647"
         id="stop1218" />
      <stop
         offset=".9"
         stop-color="#e31587"
         id="stop1220" />
    </radialGradient>
    <radialGradient
       id="k"
       cx="343.03801"
       cy="132.0125"
       r="528.89329"
       gradientTransform="scale(1.0572577,0.94584319)"
       fx="343.03801"
       fy="132.0125"
       gradientUnits="userSpaceOnUse">
      <stop
         offset=".09"
         stop-color="#fff44f"
         id="stop1223" />
      <stop
         offset=".63"
         stop-color="#ff980e"
         id="stop1225" />
    </radialGradient>
    <linearGradient
       id="l"
       x1="406.61137"
       y1="68.31199"
       x2="104.09252"
       y2="409.86551"
       gradientTransform="scale(0.98373973,1.016529)"
       gradientUnits="userSpaceOnUse">
      <stop
         offset=".17"
         stop-color="#fff44f"
         stop-opacity=".8"
         id="stop1237" />
      <stop
         offset=".6"
         stop-color="#fff44f"
         stop-opacity="0"
         id="stop1239" />
    </linearGradient>
    <clipPath
       clipPathUnits="userSpaceOnUse"
       id="clipPath5274">
      <rect
         width="415.63559"
         height="415.63559"
         rx="29.688257"
         ry="29.688257"
         x="46.025879"
         y="-28.257561"
         id="rect5276"
         style="fill:#000000;fill-opacity:1;fill-rule:nonzero;stroke:none;stroke-width:4.94804" />
    </clipPath>
    <clipPath
       clipPathUnits="userSpaceOnUse"
       id="clipPath5278">
      <rect
         width="415.63559"
         height="415.63559"
         rx="29.688257"
         ry="29.688257"
         x="46.025879"
         y="-28.257561"
         id="rect5280"
         style="fill:#000000;fill-opacity:1;fill-rule:nonzero;stroke:none;stroke-width:4.94804" />
    </clipPath>
    <clipPath
       clipPathUnits="userSpaceOnUse"
       id="clipPath5282">
      <rect
         width="415.63559"
         height="415.63559"
         rx="29.688257"
         ry="29.688257"
         x="46.025879"
         y="-28.257561"
         id="rect5284"
         style="fill:#000000;fill-opacity:1;fill-rule:nonzero;stroke:none;stroke-width:4.94804" />
    </clipPath>
    <clipPath
       clipPathUnits="userSpaceOnUse"
       id="clipPath5286">
      <rect
         width="415.63559"
         height="415.63559"
         rx="29.688257"
         ry="29.688257"
         x="46.025879"
         y="-28.257561"
         id="rect5288"
         style="fill:#000000;fill-opacity:1;fill-rule:nonzero;stroke:none;stroke-width:4.94804" />
    </clipPath>
    <clipPath
       clipPathUnits="userSpaceOnUse"
       id="clipPath5290">
      <rect
         width="415.63559"
         height="415.63559"
         rx="29.688257"
         ry="29.688257"
         x="46.025879"
         y="-28.257561"
         id="rect5292"
         style="fill:#000000;fill-opacity:1;fill-rule:nonzero;stroke:none;stroke-width:4.94804" />
    </clipPath>
    <clipPath
       clipPathUnits="userSpaceOnUse"
       id="clipPath5294">
      <rect
         width="415.63559"
         height="415.63559"
         rx="29.688257"
         ry="29.688257"
         x="46.025879"
         y="-28.257561"
         id="rect5296"
         style="fill:#000000;fill-opacity:1;fill-rule:nonzero;stroke:none;stroke-width:4.94804" />
    </clipPath>
    <clipPath
       clipPathUnits="userSpaceOnUse"
       id="clipPath5298">
      <rect
         width="415.63559"
         height="415.63559"
         rx="29.688257"
         ry="29.688257"
         x="46.025879"
         y="-28.257561"
         id="rect5300"
         style="fill:#000000;fill-opacity:1;fill-rule:nonzero;stroke:none;stroke-width:4.94804" />
    </clipPath>
    <clipPath
       clipPathUnits="userSpaceOnUse"
       id="clipPath5302">
      <rect
         width="415.63559"
         height="415.63559"
         rx="29.688257"
         ry="29.688257"
         x="46.025879"
         y="-28.257561"
         id="rect5304"
         style="fill:#000000;fill-opacity:1;fill-rule:nonzero;stroke:none;stroke-width:4.94804" />
    </clipPath>
    <clipPath
       clipPathUnits="userSpaceOnUse"
       id="clipPath5306">
      <rect
         width="415.63559"
         height="415.63559"
         rx="29.688257"
         ry="29.688257"
         x="46.025879"
         y="-28.257561"
         id="rect5308"
         style="fill:#000000;fill-opacity:1;fill-rule:nonzero;stroke:none;stroke-width:4.94804" />
    </clipPath>
    <clipPath
       clipPathUnits="userSpaceOnUse"
       id="clipPath5310">
      <rect
         width="415.63559"
         height="415.63559"
         rx="29.688257"
         ry="29.688257"
         x="46.025879"
         y="-28.257561"
         id="rect5312"
         style="fill:#000000;fill-opacity:1;fill-rule:nonzero;stroke:none;stroke-width:4.94804" />
    </clipPath>
    <clipPath
       clipPathUnits="userSpaceOnUse"
       id="clipPath5314">
      <rect
         width="415.63559"
         height="415.63559"
         rx="29.688257"
         ry="29.688257"
         x="46.025879"
         y="-28.257561"
         id="rect5316"
         style="fill:#000000;fill-opacity:1;fill-rule:nonzero;stroke:none;stroke-width:4.94804" />
    </clipPath>
    <clipPath
       clipPathUnits="userSpaceOnUse"
       id="clipPath5318">
      <rect
         width="415.63559"
         height="415.63559"
         rx="29.688257"
         ry="29.688257"
         x="46.025879"
         y="-28.257561"
         id="rect5320"
         style="fill:#000000;fill-opacity:1;fill-rule:nonzero;stroke:none;stroke-width:4.94804" />
    </clipPath>
    <linearGradient
       inkscape:collect="always"
       xlink:href="#radialGradient6956"
       id="linearGradient6948"
       x1="250.77974"
       y1="133.76703"
       x2="250.77974"
       y2="368.18625"
       gradientUnits="userSpaceOnUse" />
    <radialGradient
       inkscape:collect="always"
       xlink:href="#radialGradient11670"
       id="radialGradient4794"
       cx="44.061657"
       cy="10.848473"
       fx="44.061657"
       fy="10.848473"
       r="42"
       gradientTransform="matrix(1.9058628,-0.04959706,0.03353694,1.2887218,-40.277644,1.9473418)"
       gradientUnits="userSpaceOnUse" />
    <radialGradient
       gradientUnits="userSpaceOnUse"
       fy="14.1758"
       fx="64.553703"
       r="52.228901"
       cy="14.1758"
       cx="64.553703"
       id="radialGradient4771">
      <stop
         id="stop4773"
         style="stop-color:#0F80BC"
         offset="0" />
      <stop
         id="stop4775"
         style="stop-color:#0A5F9E"
         offset="0.3376" />
      <stop
         id="stop4777"
         style="stop-color:#00145A"
         offset="1" />
    </radialGradient>
    <radialGradient
       inkscape:collect="always"
       xlink:href="#radialGradient4771"
       id="radialGradient10552"
       cx="44.061657"
       cy="10.848473"
       fx="44.061657"
       fy="10.848473"
       r="42"
       gradientTransform="matrix(1.9058628,-0.04959706,0.03353694,1.2887218,-40.277644,1.9473418)"
       gradientUnits="userSpaceOnUse" />
    <radialGradient
       gradientUnits="userSpaceOnUse"
       fy="14.1758"
       fx="64.553703"
       r="52.228901"
       cy="14.1758"
       cx="64.553703"
       id="radialGradient10560">
      <stop
         id="stop10554"
         style="stop-color:#0F80BC"
         offset="0" />
      <stop
         id="stop10556"
         style="stop-color:#0A5F9E"
         offset="0.3376" />
      <stop
         id="stop10558"
         style="stop-color:#00145A"
         offset="1" />
    </radialGradient>
    <radialGradient
       inkscape:collect="always"
       xlink:href="#radialGradient4771"
       id="radialGradient10562"
       cx="44.061657"
       cy="10.848473"
       fx="44.061657"
       fy="10.848473"
       r="42"
       gradientTransform="matrix(1.9058628,-0.04959706,0.03353694,1.2887218,-40.277644,1.9473418)"
       gradientUnits="userSpaceOnUse" />
    <radialGradient
       gradientUnits="userSpaceOnUse"
       fy="14.1758"
       fx="64.553703"
       r="52.228901"
       cy="14.1758"
       cx="64.553703"
       id="radialGradient10570">
      <stop
         id="stop10564"
         style="stop-color:#0F80BC"
         offset="0" />
      <stop
         id="stop10566"
         style="stop-color:#0A5F9E"
         offset="0.3376" />
      <stop
         id="stop10568"
         style="stop-color:#00145A"
         offset="1" />
    </radialGradient>
    <radialGradient
       inkscape:collect="always"
       xlink:href="#radialGradient4771"
       id="radialGradient10572"
       cx="44.061657"
       cy="10.848473"
       fx="44.061657"
       fy="10.848473"
       r="42"
       gradientTransform="matrix(1.9058628,-0.04959706,0.03353694,1.2887218,-40.277644,1.9473418)"
       gradientUnits="userSpaceOnUse" />
    <radialGradient
       gradientUnits="userSpaceOnUse"
       fy="14.1758"
       fx="64.553703"
       r="52.228901"
       cy="14.1758"
       cx="64.553703"
       id="radialGradient10580">
      <stop
         id="stop10574"
         style="stop-color:#0F80BC"
         offset="0" />
      <stop
         id="stop10576"
         style="stop-color:#0A5F9E"
         offset="0.3376" />
      <stop
         id="stop10578"
         style="stop-color:#00145A"
         offset="1" />
    </radialGradient>
    <radialGradient
       inkscape:collect="always"
       xlink:href="#radialGradient4771"
       id="radialGradient10582"
       cx="44.061657"
       cy="10.848473"
       fx="44.061657"
       fy="10.848473"
       r="42"
       gradientTransform="matrix(1.9058628,-0.04959706,0.03353694,1.2887218,-40.277644,1.9473418)"
       gradientUnits="userSpaceOnUse" />
    <radialGradient
       gradientUnits="userSpaceOnUse"
       fy="14.1758"
       fx="64.553703"
       r="52.228901"
       cy="14.1758"
       cx="64.553703"
       id="radialGradient10590">
      <stop
         id="stop10584"
         style="stop-color:#0F80BC"
         offset="0" />
      <stop
         id="stop10586"
         style="stop-color:#0A5F9E"
         offset="0.3376" />
      <stop
         id="stop10588"
         style="stop-color:#00145A"
         offset="1" />
    </radialGradient>
    <radialGradient
       inkscape:collect="always"
       xlink:href="#radialGradient4771"
       id="radialGradient10592"
       cx="44.061657"
       cy="10.848473"
       fx="44.061657"
       fy="10.848473"
       r="42"
       gradientTransform="matrix(1.9058628,-0.04959706,0.03353694,1.2887218,-40.277644,1.9473418)"
       gradientUnits="userSpaceOnUse" />
    <radialGradient
       gradientUnits="userSpaceOnUse"
       fy="14.1758"
       fx="64.553703"
       r="52.228901"
       cy="14.1758"
       cx="64.553703"
       id="radialGradient10600">
      <stop
         id="stop10594"
         style="stop-color:#0F80BC"
         offset="0" />
      <stop
         id="stop10596"
         style="stop-color:#0A5F9E"
         offset="0.3376" />
      <stop
         id="stop10598"
         style="stop-color:#00145A"
         offset="1" />
    </radialGradient>
    <radialGradient
       inkscape:collect="always"
       xlink:href="#radialGradient4771"
       id="radialGradient10602"
       cx="44.061657"
       cy="10.848473"
       fx="44.061657"
       fy="10.848473"
       r="42"
       gradientTransform="matrix(1.9058628,-0.04959706,0.03353694,1.2887218,-40.277644,1.9473418)"
       gradientUnits="userSpaceOnUse" />
    <radialGradient
       gradientUnits="userSpaceOnUse"
       fy="14.1758"
       fx="64.553703"
       r="52.228901"
       cy="14.1758"
       cx="64.553703"
       id="radialGradient10610">
      <stop
         id="stop10604"
         style="stop-color:#0F80BC"
         offset="0" />
      <stop
         id="stop10606"
         style="stop-color:#0A5F9E"
         offset="0.3376" />
      <stop
         id="stop10608"
         style="stop-color:#00145A"
         offset="1" />
    </radialGradient>
    <radialGradient
       inkscape:collect="always"
       xlink:href="#radialGradient4771"
       id="radialGradient10612"
       cx="44.061657"
       cy="10.848473"
       fx="44.061657"
       fy="10.848473"
       r="42"
       gradientTransform="matrix(1.9058628,-0.04959706,0.03353694,1.2887218,-40.277644,1.9473418)"
       gradientUnits="userSpaceOnUse" />
    <radialGradient
       gradientUnits="userSpaceOnUse"
       fy="14.1758"
       fx="64.553703"
       r="52.228901"
       cy="14.1758"
       cx="64.553703"
       id="radialGradient10620">
      <stop
         id="stop10614"
         style="stop-color:#0F80BC"
         offset="0" />
      <stop
         id="stop10616"
         style="stop-color:#0A5F9E"
         offset="0.3376" />
      <stop
         id="stop10618"
         style="stop-color:#00145A"
         offset="1" />
    </radialGradient>
    <radialGradient
       inkscape:collect="always"
       xlink:href="#radialGradient4771"
       id="radialGradient10622"
       cx="44.061657"
       cy="10.848473"
       fx="44.061657"
       fy="10.848473"
       r="42"
       gradientTransform="matrix(1.9058628,-0.04959706,0.03353694,1.2887218,-40.277644,1.9473418)"
       gradientUnits="userSpaceOnUse" />
    <radialGradient
       gradientUnits="userSpaceOnUse"
       fy="14.1758"
       fx="64.553703"
       r="52.228901"
       cy="14.1758"
       cx="64.553703"
       id="radialGradient10630">
      <stop
         id="stop10624"
         style="stop-color:#0F80BC"
         offset="0" />
      <stop
         id="stop10626"
         style="stop-color:#0A5F9E"
         offset="0.3376" />
      <stop
         id="stop10628"
         style="stop-color:#00145A"
         offset="1" />
    </radialGradient>
    <radialGradient
       inkscape:collect="always"
       xlink:href="#radialGradient11734"
       id="radialGradient10643"
       gradientUnits="userSpaceOnUse"
       gradientTransform="matrix(1.9058628,-0.04959706,0.03353694,1.2887218,-40.277644,1.9473418)"
       cx="44.061657"
       cy="10.848473"
       fx="44.061657"
       fy="10.848473"
       r="42" />
    <radialGradient
       inkscape:collect="always"
       xlink:href="#radialGradient11726"
       id="radialGradient10645"
       gradientUnits="userSpaceOnUse"
       gradientTransform="matrix(1.9058628,-0.04959706,0.03353694,1.2887218,-40.277644,1.9473418)"
       cx="44.061657"
       cy="10.848473"
       fx="44.061657"
       fy="10.848473"
       r="42" />
    <radialGradient
       inkscape:collect="always"
       xlink:href="#radialGradient11718"
       id="radialGradient10647"
       gradientUnits="userSpaceOnUse"
       gradientTransform="matrix(1.9058628,-0.04959706,0.03353694,1.2887218,-40.277644,1.9473418)"
       cx="44.061657"
       cy="10.848473"
       fx="44.061657"
       fy="10.848473"
       r="42" />
    <radialGradient
       inkscape:collect="always"
       xlink:href="#radialGradient11710"
       id="radialGradient10649"
       gradientUnits="userSpaceOnUse"
       gradientTransform="matrix(1.9058628,-0.04959706,0.03353694,1.2887218,-40.277644,1.9473418)"
       cx="44.061657"
       cy="10.848473"
       fx="44.061657"
       fy="10.848473"
       r="42" />
    <radialGradient
       inkscape:collect="always"
       xlink:href="#radialGradient11702"
       id="radialGradient10651"
       gradientUnits="userSpaceOnUse"
       gradientTransform="matrix(1.9058628,-0.04959706,0.03353694,1.2887218,-40.277644,1.9473418)"
       cx="44.061657"
       cy="10.848473"
       fx="44.061657"
       fy="10.848473"
       r="42" />
    <radialGradient
       inkscape:collect="always"
       xlink:href="#radialGradient11694"
       id="radialGradient10653"
       gradientUnits="userSpaceOnUse"
       gradientTransform="matrix(1.9058628,-0.04959706,0.03353694,1.2887218,-40.277644,1.9473418)"
       cx="44.061657"
       cy="10.848473"
       fx="44.061657"
       fy="10.848473"
       r="42" />
    <radialGradient
       inkscape:collect="always"
       xlink:href="#radialGradient11686"
       id="radialGradient10655"
       gradientUnits="userSpaceOnUse"
       gradientTransform="matrix(1.9058628,-0.04959706,0.03353694,1.2887218,-40.277644,1.9473418)"
       cx="44.061657"
       cy="10.848473"
       fx="44.061657"
       fy="10.848473"
       r="42" />
    <radialGradient
       inkscape:collect="always"
       xlink:href="#radialGradient11678"
       id="radialGradient10657"
       gradientUnits="userSpaceOnUse"
       gradientTransform="matrix(1.9058628,-0.04959706,0.03353694,1.2887218,-40.277644,1.9473418)"
       cx="44.061657"
       cy="10.848473"
       fx="44.061657"
       fy="10.848473"
       r="42" />
    <linearGradient
       inkscape:collect="always"
       xlink:href="#linearGradient12466"
       id="linearGradient12468"
       x1="173.82687"
       y1="139.08997"
       x2="173.82687"
       y2="203.38031"
       gradientUnits="userSpaceOnUse" />
    <linearGradient
       inkscape:collect="always"
       xlink:href="#radialGradient21052"
       id="linearGradient21042"
       x1="401.75766"
       y1="132.37854"
       x2="333.72211"
       y2="179.80133"
       gradientUnits="userSpaceOnUse" />
  </defs>
  <metadata
     id="metadata2413">
    <rdf:RDF>
      <cc:Work
         rdf:about="">
        <dc:format>image/svg+xml</dc:format>
        <dc:type
           rdf:resource="http://purl.org/dc/dcmitype/StillImage" />
      </cc:Work>
    </rdf:RDF>
  </metadata>
  <g
     id="layer2"
     style="display:none">
    <rect
       width="86"
       height="85"
       rx="6"
       ry="6"
       x="5"
       y="7"
       id="rect3745"
       style="opacity:0.9;fill:url(#ButtonShadow);fill-opacity:1;fill-rule:nonzero;stroke:none;filter:url(#filter3174)" />
  </g>
  <g
     id="layer3">
    <path
       d="m 12,-95.03125 c -5.5110903,0 -10.03125,4.52016 -10.03125,10.03125 l 0,71 c 0,5.5110902 4.5201598,10.03125 10.03125,10.03125 l 72,0 c 5.51109,0 10.03125,-4.5201597 10.03125,-10.03125 l 0,-71 c 0,-5.51109 -4.52016,-10.03125 -10.03125,-10.03125 l -72,0 z"
       transform="scale(1,-1)"
       id="path3786"
       style="opacity:0.07999998;fill:url(#linearGradient3026);fill-opacity:1;fill-rule:nonzero;stroke:none;display:inline" />
    <path
       d="m 12,-94.03125 c -4.971633,0 -9.03125,4.059617 -9.03125,9.03125 l 0,71 c 0,4.9716329 4.0596171,9.03125 9.03125,9.03125 l 72,0 c 4.971633,0 9.03125,-4.059617 9.03125,-9.03125 l 0,-71 c 0,-4.971633 -4.059617,-9.03125 -9.03125,-9.03125 l -72,0 z"
       transform="scale(1,-1)"
       id="path3778"
       style="opacity:0.1;fill:url(#linearGradient3780);fill-opacity:1;fill-rule:nonzero;stroke:none;display:inline" />
    <path
       d="m 12,-93 c -4.4091333,0 -8,3.590867 -8,8 l 0,71 c 0,4.4091333 3.5908667,8 8,8 l 72,0 c 4.409133,0 8,-3.5908667 8,-8 l 0,-71 c 0,-4.409133 -3.590867,-8 -8,-8 l -72,0 z"
       transform="scale(1,-1)"
       id="path3770"
       style="opacity:0.2;fill:url(#linearGradient3772);fill-opacity:1;fill-rule:nonzero;stroke:none;display:inline" />
    <rect
       width="86"
       height="85"
       rx="7"
       ry="7"
       x="5"
       y="-92"
       transform="scale(1,-1)"
       id="rect3723"
       style="opacity:0.3;fill:url(#linearGradient3725);fill-opacity:1;fill-rule:nonzero;stroke:none;display:inline" />
    <rect
       width="84"
       height="84"
       rx="6"
       ry="6"
       x="6"
       y="-91"
       transform="scale(1,-1)"
       id="rect3716"
       style="display:inline;opacity:0.45;fill:url(#linearGradient3721);fill-opacity:1;fill-rule:nonzero;stroke:none" />
  </g>
  <g
     id="layer1">
    <rect
       width="84"
       height="84"
       rx="6"
       ry="6"
       x="6"
       y="6"
       id="rect2419"
       style="fill:url(#linearGradient3617);fill-opacity:1;fill-rule:nonzero;stroke:none" />
    <path
       id="path6074"
       clip-path="url(#clipPath5318)"
       style="fill:#000000;fill-opacity:1;opacity:0.15"
       sodipodi:type="inkscape:offset"
       inkscape:radius="4.9687095"
       inkscape:original="M 331.10352 0.033203125 C 284.35887 26.955748 252.86638 79.608491 248.16992 133.53906 C 224.28306 135.20332 200.71651 144.01132 182.02734 159.0332 C 166.49916 145.06623 174.37565 119.57798 174.24219 99.339844 C 181.48966 86.158805 154.26548 107.33715 149.66016 110.56836 C 123.87257 128.17752 123.18018 136.62543 115.49023 137.69336 C 107.84228 119.63382 108.72557 98.600803 109.01367 79.378906 C 73.098316 98.951892 49.700157 136.00522 32.171875 171.85352 C 5.2195384 225.31486 -9.6372098 291.67569 17.542969 348.03906 C 46.037071 407.3121 109.20454 440.27679 170.63086 455.14844 C 249.19417 473.35256 334.89518 470.4301 409.00391 436.77344 C 451.52334 417.52073 490.63146 380.01848 494.69727 331.25 C 496.80563 313.51173 491.82256 296.08007 494.59961 278.41602 C 495.13829 227.00837 490.18912 171.15132 457.96484 128.89062 C 452.20288 121.19335 434.82253 105.19288 431.74219 108.01758 C 442.73069 130.37055 451.06008 154.20241 454.875 178.86523 C 430.0628 111.80704 367.86547 69.132662 334.58594 7.890625 C 333.22813 5.3919474 333.57369 0.95861855 331.10352 0.033203125 z "
       d="m 332.8457,-4.6191406 a 4.9692063,4.9692063 0 0 0 -4.22265,0.3476562 C 281.47404,22.883948 249.72682,74.914023 243.70117,129.02344 c -21.84453,2.24561 -43.15439,10.18497 -60.89844,23.26172 -4.11271,-5.40549 -5.48168,-12.32195 -5.47265,-20.74219 0.0103,-9.65001 1.76055,-20.54312 1.83984,-30.9375 0.79417,-1.446595 1.44087,-2.804172 1.23438,-5.138673 -0.12962,-1.465334 -1.22054,-3.612548 -2.84766,-4.558594 -1.62712,-0.946046 -3.00984,-0.879464 -4.01172,-0.765625 -4.00752,0.455355 -6.37003,2.310235 -9.7832,4.445313 -6.82635,4.270155 -15.06221,10.584019 -16.95508,11.912109 -13.14597,8.98271 -20.15218,15.85127 -24.56641,20.35547 -1.80884,1.84572 -2.94228,2.93951 -3.98046,3.86133 -5.06105,-15.62994 -4.53846,-33.842285 -4.27735,-51.263675 a 4.9692063,4.9692063 0 0 0 -7.3457,-4.4375 c -37.431431,20.39921 -61.224718,58.451435 -78.925782,94.652345 -6.33e-4,0.001 -0.0013,0.003 -0.002,0.004 -27.34924518,54.27298 -42.78209,122.1686 -14.640625,180.52539 29.426213,61.20499 94.093511,94.6983 156.392581,109.78125 a 4.9692063,4.9692063 0 0 0 0.0488,0.01 c 79.44936,18.40943 166.22099,15.51639 241.54296,-18.68945 l 0.006,-0.002 c 43.65943,-19.7706 84.27573,-58.40901 88.58008,-109.55274 2.23465,-18.9919 -2.68423,-36.31534 -0.13086,-52.55664 a 4.9692063,4.9692063 0 0 0 0.0605,-0.71875 c 0.54233,-51.75582 -4.29581,-108.82876 -37.63672,-152.57031 -3.32898,-4.4437 -9.15066,-10.34273 -14.875,-15.1836 -2.86477,-2.42263 -5.64043,-4.53325 -8.27344,-6.02929 -1.3165,-0.74803 -2.56889,-1.37068 -4.13672,-1.73633 -1.56782,-0.36565 -4.15785,-0.52301 -6.26171,1.40625 a 4.9692063,4.9692063 0 0 0 -1.10157,5.85351 c 3.91753,7.96909 7.33221,16.17108 10.4668,24.46875 C 407.6741,88.385455 364.2417,52.058008 338.95117,5.5175781 c -0.006,-0.010742 -0.38816,-1.4674976 -0.875,-3.375 -0.24342,-0.9537512 -0.54607,-2.0598854 -1.26953,-3.3183593 -0.72346,-1.258474 -2.08726,-2.7414108 -3.96094,-3.4433594 z"
       transform="matrix(0.20210011,0,0,0.20210011,-3.3018353,11.710856)" />
    <path
       id="path6212"
       clip-path="url(#clipPath5318)"
       style="opacity:0.08;fill:#000000;fill-opacity:1"
       sodipodi:type="inkscape:offset"
       inkscape:radius="9.0674286"
       inkscape:original="M 331.10352 0.033203125 C 284.35887 26.955748 252.86638 79.608491 248.16992 133.53906 C 224.28306 135.20332 200.71651 144.01132 182.02734 159.0332 C 166.49916 145.06623 174.37565 119.57798 174.24219 99.339844 C 181.48966 86.158805 154.26548 107.33715 149.66016 110.56836 C 123.87257 128.17752 123.18018 136.62543 115.49023 137.69336 C 107.84228 119.63382 108.72557 98.600803 109.01367 79.378906 C 73.098316 98.951892 49.700157 136.00522 32.171875 171.85352 C 5.2195384 225.31486 -9.6372098 291.67569 17.542969 348.03906 C 46.037071 407.3121 109.20454 440.27679 170.63086 455.14844 C 249.19417 473.35256 334.89518 470.4301 409.00391 436.77344 C 451.52334 417.52073 490.63146 380.01848 494.69727 331.25 C 496.80563 313.51173 491.82256 296.08007 494.59961 278.41602 C 495.13829 227.00837 490.18912 171.15132 457.96484 128.89062 C 452.20288 121.19335 434.82253 105.19288 431.74219 108.01758 C 442.73069 130.37055 451.06008 154.20241 454.875 178.86523 C 430.0628 111.80704 367.86547 69.132662 334.58594 7.890625 C 333.22813 5.3919474 333.57369 0.95861855 331.10352 0.033203125 z "
       d="m 334.28516,-8.4570312 a 9.0683353,9.0683353 0 0 0 -7.70704,0.6328124 C 279.10228,19.519458 247.06836,71.076795 240.01562,125.29883 c -19.94855,2.55627 -39.36466,9.65792 -56.0625,21.04492 -1.78475,-3.93354 -2.52997,-8.69856 -2.52343,-14.79492 0.01,-8.86361 1.6199,-19.31362 1.80273,-29.81445 0.84366,-1.54041 1.55466,-3.24895 1.25586,-6.626958 -0.21187,-2.395255 -2.09109,-6.125825 -4.87109,-7.742188 -2.78001,-1.616363 -5.03783,-1.465056 -6.53516,-1.294922 -5.98933,0.680539 -7.93637,2.815489 -11.49414,5.041016 -7.11554,4.451055 -15.57993,10.944242 -17.13477,12.035152 -12.56032,8.58739 -19.51767,15.23473 -24.04296,19.80469 -2.87502,-13.28173 -2.55471,-28.448612 -2.33008,-43.435545 A 9.0683353,9.0683353 0 0 0 104.67383,71.417969 C 66.010683,92.488434 41.897674,131.33416 24.056641,167.81055 -3.6370929,222.7597 -19.566121,291.94716 9.3710938,351.9668 39.563611,414.77286 105.4751,448.70273 168.49805,463.96094 a 9.0683353,9.0683353 0 0 0 0.0859,0.0215 c 80.18052,18.57885 167.83725,15.70992 244.16016,-18.94922 l 0.01,-0.004 c 44.60721,-20.20096 86.47249,-59.78468 90.96289,-112.89844 2.33414,-20.01028 -2.52901,-37.23905 -0.16016,-52.30664 a 9.0683353,9.0683353 0 0 0 0.10938,-1.3125 c 0.54531,-52.04106 -4.19926,-110.11228 -38.45704,-155.07422 -3.69652,-4.93349 -9.55313,-10.8195 -15.50586,-15.85352 -2.97991,-2.52 -5.86524,-4.74168 -8.89453,-6.46289 -1.51464,-0.8606 -3.01578,-1.647094 -5.23242,-2.164059 -2.21663,-0.516964 -6.44117,-0.852498 -9.96289,2.376949 a 9.0683353,9.0683353 0 0 0 -2.72266,5.44336 C 395.11679,71.370102 362.66315,40.568357 342.55273,3.5605469 c 0.54938,1.0109844 0.0591,-0.2179673 -0.50585,-2.4316407 -0.28249,-1.10683664 -0.64458,-2.5334669 -1.6875,-4.3476562 -1.04293,-1.8141893 -3.16435,-4.1481361 -6.07422,-5.2382812 z"
       transform="matrix(0.20210011,0,0,0.20210011,-3.3018353,11.710856)" />
    <path
       id="path6215"
       clip-path="url(#clipPath5318)"
       style="opacity:0.05;fill:#000000;fill-opacity:1"
       sodipodi:type="inkscape:offset"
       inkscape:radius="14.185691"
       inkscape:original="M 331.10352 0.033203125 C 284.35887 26.955748 252.86638 79.608491 248.16992 133.53906 C 224.28306 135.20332 200.71651 144.01132 182.02734 159.0332 C 166.49916 145.06623 174.37565 119.57798 174.24219 99.339844 C 181.48966 86.158805 154.26548 107.33715 149.66016 110.56836 C 123.87257 128.17752 123.18018 136.62543 115.49023 137.69336 C 107.84228 119.63382 108.72557 98.600803 109.01367 79.378906 C 73.098316 98.951892 49.700157 136.00522 32.171875 171.85352 C 5.2195384 225.31486 -9.6372098 291.67569 17.542969 348.03906 C 46.037071 407.3121 109.20454 440.27679 170.63086 455.14844 C 249.19417 473.35256 334.89518 470.4301 409.00391 436.77344 C 451.52334 417.52073 490.63146 380.01848 494.69727 331.25 C 496.80563 313.51173 491.82256 296.08007 494.59961 278.41602 C 495.13829 227.00837 490.18912 171.15132 457.96484 128.89062 C 452.20288 121.19335 434.82253 105.19288 431.74219 108.01758 C 442.73069 130.37055 451.06008 154.20241 454.875 178.86523 C 430.0628 111.80704 367.86547 69.132662 334.58594 7.890625 C 333.22813 5.3919474 333.57369 0.95861855 331.10352 0.033203125 z "
       d="m 329.94141,-14.105469 a 14.187109,14.187109 0 0 0 -5.91797,1.845703 C 276.1111,15.33531 243.65687,66.402793 235.42969,120.77539 c -17.06283,2.69091 -33.60664,8.64684 -48.46289,17.63867 -0.25904,-1.98919 -0.42279,-4.18672 -0.41992,-6.86133 0.009,-7.94586 1.47871,-17.85002 1.76562,-28.37109 0.92781,-1.79631 1.67088,-4.032152 1.27344,-8.52539 -0.31459,-3.556489 -3.17682,-9.261425 -7.39649,-11.714844 -4.21967,-2.453419 -7.56951,-2.197465 -9.68554,-1.957031 -8.46412,0.961736 -9.89253,3.450586 -13.63086,5.789063 -7.47667,4.676952 -16.22862,11.386899 -17.36133,12.18164 l 0.14844,-0.101562 c -7.65342,5.226164 -13.13443,9.691074 -17.55078,13.595704 -1.09535,-10.22347 -1.08404,-21.386484 -0.91211,-32.857423 A 14.187109,14.187109 0 0 0 102.22461,66.921875 C 62.033296,88.825154 37.520987,128.65153 19.505859,165.4668 c -0.0045,0.009 -0.0092,0.0184 -0.01367,0.0273 -28.1226428,55.79491 -44.670008,126.59615 -14.7343755,188.69141 0.00191,0.004 0.00395,0.008 0.00586,0.0117 6.38e-4,0.001 0.00132,0.003 0.00195,0.004 31.154605,64.79008 98.608375,99.25924 162.527345,114.73438 a 14.187109,14.187109 0 0 0 0.13476,0.0332 c 81.0939,18.79049 169.8547,15.95218 247.42774,-19.27344 45.78548,-20.73157 89.20883,-61.48678 93.94922,-117.04492 2.47091,-21.29129 -2.33236,-38.41326 -0.19141,-52.03125 a 14.187109,14.187109 0 0 0 0.17188,-2.05469 c 0.54904,-52.39687 -4.08352,-111.71224 -39.48438,-158.19726 -4.15484,-5.54515 -10.05366,-11.41505 -16.29297,-16.69141 -3.12369,-2.6416 -6.14773,-5.001528 -9.67187,-7.003905 -1.76207,-1.001188 -3.57082,-1.993299 -6.59766,-2.699219 -3.02098,-0.704554 -9.26695,-1.254449 -14.55273,3.56836 C 395.67079,64.682542 366.25722,35.785871 347.72852,2.2734375 347.6377,1.9805666 347.33255,1.1356403 347.00781,-0.13671875 346.67653,-1.4347205 346.23873,-3.2613942 344.79688,-5.7695312 343.35502,-8.2776683 340.2839,-11.675096 336.08008,-13.25 a 14.187109,14.187109 0 0 0 -6.13867,-0.855469 z"
       transform="matrix(0.20210011,0,0,0.20210011,-3.3018353,11.710856)" />
    <g
       id="g4093"
       transform="matrix(0.20210011,0,0,0.20210011,-3.3018353,11.710856)">
      <path
         d="m 478.711,166.353 c -10.445,-25.124 -31.6,-52.248 -48.212,-60.821 13.52,26.505 21.345,53.093 24.335,72.936 0,0.039 0.015,0.136 0.047,0.4 C 427.706,111.135 381.627,83.823 344,24.355 c -1.9,-3.007 -3.805,-6.022 -5.661,-9.2 a 73.716,73.716 0 0 1 -2.646,-4.972 43.7,43.7 0 0 1 -3.593,-9.506 0.626,0.626 0 0 0 -0.546,-0.644 0.818,0.818 0 0 0 -0.451,0 c -0.034,0.012 -0.084,0.051 -0.12,0.065 -0.053,0.021 -0.12,0.069 -0.176,0.1 0.027,-0.036 0.083,-0.117 0.1,-0.136 -60.37,35.356 -80.85,100.761 -82.732,133.484 a 120.249,120.249 0 0 0 -66.142,25.488 71.355,71.355 0 0 0 -6.225,-4.7 111.338,111.338 0 0 1 -0.674,-58.732 c -24.688,11.241 -43.89,29.01 -57.85,44.7 h -0.111 c -9.527,-12.067 -8.855,-51.873 -8.312,-60.184 -0.114,-0.515 -7.107,3.63 -8.023,4.255 a 175.073,175.073 0 0 0 -23.486,20.12 210.478,210.478 0 0 0 -22.442,26.913 c 0,0.012 -0.007,0.026 -0.011,0.038 0,-0.013 0.007,-0.026 0.011,-0.038 a 202.838,202.838 0 0 0 -32.247,72.805 c -0.115,0.521 -0.212,1.061 -0.324,1.586 -0.452,2.116 -2.08,12.7 -2.365,15 -0.022,0.177 -0.032,0.347 -0.053,0.524 a 229.066,229.066 0 0 0 -3.9,33.157 c 0,0.41 -0.025,0.816 -0.025,1.227 C 16,388.418 123.6,496 256.324,496 c 118.865,0 217.56,-86.288 236.882,-199.63 0.407,-3.076 0.733,-6.168 1.092,-9.271 4.777,-41.21 -0.53,-84.525 -15.587,-120.746 z M 201.716,354.447 c 1.124,0.537 2.18,1.124 3.334,1.639 0.048,0.033 0.114,0.07 0.163,0.1 a 126.191,126.191 0 0 1 -3.497,-1.739 z m 55.053,-144.93 z m 198.131,-30.59 -0.032,-0.233 c 0.012,0.085 0.027,0.174 0.04,0.259 z"
         fill="url(#a)"
         id="path1244"
         style="fill:url(#a)"
         clip-path="url(#clipPath5318)" />
      <path
         d="m 478.711,166.353 c -10.445,-25.124 -31.6,-52.248 -48.212,-60.821 13.52,26.505 21.345,53.093 24.335,72.936 0,-0.058 0.011,0.048 0.036,0.226 0.012,0.085 0.027,0.174 0.04,0.259 22.675,61.47 10.322,123.978 -7.479,162.175 -27.539,59.1 -94.215,119.67 -198.576,116.716 C 136.1,454.651 36.766,370.988 18.223,261.41 c -3.379,-17.28 0,-26.054 1.7,-40.084 -2.071,10.816 -2.86,13.94 -3.9,33.157 0,0.41 -0.025,0.816 -0.025,1.227 C 16,388.418 123.6,496 256.324,496 c 118.865,0 217.56,-86.288 236.882,-199.63 0.407,-3.076 0.733,-6.168 1.092,-9.271 4.777,-41.21 -0.53,-84.525 -15.587,-120.746 z"
         fill="url(#b)"
         id="path1246"
         style="fill:url(#b)"
         clip-path="url(#clipPath5314)" />
      <path
         d="m 478.711,166.353 c -10.445,-25.124 -31.6,-52.248 -48.212,-60.821 13.52,26.505 21.345,53.093 24.335,72.936 0,-0.058 0.011,0.048 0.036,0.226 0.012,0.085 0.027,0.174 0.04,0.259 22.675,61.47 10.322,123.978 -7.479,162.175 -27.539,59.1 -94.215,119.67 -198.576,116.716 C 136.1,454.651 36.766,370.988 18.223,261.41 c -3.379,-17.28 0,-26.054 1.7,-40.084 -2.071,10.816 -2.86,13.94 -3.9,33.157 0,0.41 -0.025,0.816 -0.025,1.227 C 16,388.418 123.6,496 256.324,496 c 118.865,0 217.56,-86.288 236.882,-199.63 0.407,-3.076 0.733,-6.168 1.092,-9.271 4.777,-41.21 -0.53,-84.525 -15.587,-120.746 z"
         fill="url(#c)"
         id="path1248"
         style="fill:url(#c)"
         clip-path="url(#clipPath5310)" />
      <path
         d="m 361.922,194.6 c 0.524,0.368 1,0.734 1.493,1.1 a 130.706,130.706 0 0 0 -22.31,-29.112 C 266.4,91.892 321.516,4.626 330.811,0.194 c 0.027,-0.036 0.083,-0.117 0.1,-0.136 -60.37,35.356 -80.85,100.761 -82.732,133.484 2.8,-0.194 5.592,-0.429 8.442,-0.429 45.051,0 84.289,24.77 105.301,61.487 z"
         fill="url(#d)"
         id="path1250"
         style="display:inline;fill:url(#d)"
         clip-path="url(#clipPath5306)" />
      <path
         d="m 256.772,209.514 c -0.393,5.978 -21.514,26.593 -28.9,26.593 -68.339,0 -79.432,41.335 -79.432,41.335 3.027,34.81 27.261,63.475 56.611,78.643 1.339,0.692 2.694,1.317 4.05,1.935 a 132.768,132.768 0 0 0 7.059,2.886 106.743,106.743 0 0 0 31.271,6.031 c 119.78,5.618 142.986,-143.194 56.545,-186.408 22.137,-3.85 45.115,5.053 57.947,14.067 -21.012,-36.714 -60.25,-61.484 -105.3,-61.484 -2.85,0 -5.641,0.235 -8.442,0.429 a 120.249,120.249 0 0 0 -66.142,25.488 c 3.664,3.1 7.8,7.244 16.514,15.828 16.302,16.067 58.13,32.705 58.219,34.657 z"
         fill="url(#e)"
         id="path1252"
         style="display:inline;fill:url(#e)"
         clip-path="url(#clipPath5302)" />
      <g
         style="display:inline;opacity:0.75378788;mix-blend-mode:overlay;fill:url(#radialGradient4794);fill-opacity:1"
         id="g4659"
         transform="matrix(2.4378909,0,0,2.4166912,130.71582,141.61618)">
        <path
           id="path4811"
           d="m 49.124199,30.314497 c -0.267003,0.695985 0.871274,1.826866 1.443001,1.462972 0.573207,-0.366113 1.394187,-1.096119 1.394187,-1.096119 0,0 0.870534,0.698943 0.518474,1.197447 -0.354279,0.497025 -1.764737,1.056179 0.276618,0.829855 2.093869,-0.231501 2.475514,-0.66344 2.465159,-1.062836 -0.01109,-0.397917 0.104286,-1.826125 0.4667,-1.925234 0.01109,-0.732226 -1.42377,-0.664181 -0.926745,-1.397146 0.497026,-0.729266 -0.669357,-1.927453 -0.669357,-1.927453 0,0 -0.908255,0.531788 -1.022157,1.396405 -0.114641,0.863139 -0.964466,0.397916 -1.36682,0.596136 0.104286,0.431938 -0.01923,0.89642 -0.01923,0.89642 l -0.525874,-0.465221 c 7.16e-4,-7.16e-4 -1.901567,0.863877 -2.033959,1.494774 z"
           inkscape:connector-curvature="0"
           style="display:inline;fill:url(#radialGradient10643);fill-opacity:1" />
        <path
           style="fill:url(#radialGradient10645);fill-opacity:1"
           inkscape:connector-curvature="0"
           d="m 32.186387,77.465595 c -0.08176,-0.358856 -0.973227,-1.40022 -1.655735,-1.633023 -0.680237,-0.232802 -1.349118,1.00389 -1.787468,-1.049314 -1.437695,0.824461 -2.057746,-0.227124 -2.057746,-0.227124 0,0 -1.550122,0.09086 -1.849925,1.988473 -0.738154,0.873293 -2.630099,4.049623 -1.625073,0.746103 1.011838,-3.323963 -1.067485,-0.261193 -1.260539,1.408168 -0.361128,0.741562 -0.970957,0.816512 -0.587117,-2.518805 -1.332083,-0.459927 -2.012319,-3.551087 -1.282117,-3.610139 -0.848307,-1.182182 -0.181698,-2.99009 0.524659,-2.893562 0.706356,0.09086 1.919199,-1.544445 1.881724,-1.923743 -0.03749,-0.378161 0.547369,-0.10788 0.511029,-2.65281 -0.03749,-2.55174 0.96187,-3.183144 1.043634,-1.049313 0.08629,2.125882 1.355934,-0.696136 1.225335,-1.778384 -0.131728,-1.077704 0.127191,-3.513612 0.900548,-2.073643 -0.900548,-3.562443 -0.189648,-3.703259 0.350907,-1.332084 1.354796,0.106756 1.401356,0.829005 1.401356,0.829005 1.500156,-0.369077 2.219004,0.760865 2.334837,1.394542 1.39,-1.640974 2.793628,0.128329 2.793628,0.128329 0,0 0.968684,-0.321381 0.505351,1.362744 -0.465605,1.678447 2.012319,0.769952 1.420662,-0.436078 1.218521,-0.616643 3.027565,1.251454 3.597646,2.52562 0.570083,1.279845 -0.976634,3.092295 0.229397,3.530644 1.212842,0.436081 0.681372,2.546064 0.681372,2.546064 0,0 2.534706,1.405899 0.775629,2.613062 l -0.599608,1.436562 c 0,0 1.146977,1.279845 1.537631,0.517842 0.390654,-0.763137 0.529198,0.775631 0.529198,0.775631 -0.146494,-0.272551 0.281635,1.585326 1.862419,1.975979 1.587597,0.387247 2.592623,2.895834 0.830139,2.92763 -1.755669,0.02839 -1.891945,-0.01931 -2.367768,1.006161 -0.473555,1.020923 -2.715271,1.057264 -3.875876,-0.264599 -1.234421,0.417908 -3.43071,-0.12038 -2.784543,-1.108366 -1.065211,0.621184 -2.071372,-1.047043 -1.238962,-1.790874 0.832411,-0.741561 -0.467875,-1.702297 -0.905088,-0.639355 -0.432673,1.061807 -2.730034,1.585326 -2.569911,-0.221446 0.0477,-0.536014 1.271896,-0.849444 1.287794,-0.402011 0.223717,0.516708 0.314567,-0.04088 0.222581,-0.107879 z"
           id="path4767" />
        <path
           id="path4779"
           d="m 72.065656,55.144186 c 0.439425,0.435158 1.304052,0.338456 1.783295,0.20478 0.482087,-0.137942 0.413826,-0.479243 0.829075,-0.612919 0.408139,-0.137942 1.986653,0.612919 1.574248,2.252583 -0.957063,0.133676 -1.304052,1.296941 -1.304052,1.296941 0,0 -0.957063,0.408139 -1.440572,0.20478 -0.480664,-0.20478 -0.480664,-0.137942 -1.167531,-0.0711 -0.686867,0.0711 -2.336486,-0.884537 -0.550347,-0.884537 1.787561,0 -0.203358,-0.820543 -0.959907,-0.820543 -0.753705,0 -0.137943,-0.75086 0.756549,-0.54608 -0.620029,-1.023901 -0.277307,-1.779028 0.479242,-1.023901 z"
           inkscape:connector-curvature="0"
           style="fill:url(#radialGradient10647);fill-opacity:1" />
        <path
           id="path4789"
           d="m 78.039192,60.8149 c -0.479242,0.474976 0.06968,1.911282 0.686867,1.840178 0.615763,-0.06684 1.578514,-0.338456 1.578514,-0.338456 0,0 0.479243,0.955641 0,1.231525 -0.479242,0.270196 -1.87573,0.150741 -0.06684,0.817699 1.854399,0.681179 2.33222,0.474976 2.470162,0.133676 0.137942,-0.338456 0.753705,-1.498878 1.099272,-1.430617 0.274462,-0.612919 -0.96133,-1.159 -0.273041,-1.571404 0.681179,-0.409561 0.13652,-1.90986 0.13652,-1.90986 0,0 -0.962751,0.06684 -1.373734,0.750861 -0.412404,0.6826 -0.958485,-0.06684 -1.370889,-0.06684 -0.06968,0.408138 -0.345567,0.749438 -0.345567,0.749438 l -0.274462,-0.617185 c -0.0014,-0.0014 -1.925503,-0.06684 -2.266804,0.410983 z"
           inkscape:connector-curvature="0"
           style="fill:url(#radialGradient10649);fill-opacity:1" />
        <path
           style="fill:url(#radialGradient10651);fill-opacity:1"
           inkscape:connector-curvature="0"
           d="m 76.102672,40.983864 c -0.03594,-0.105206 0.3285,-0.530387 0.230977,0.02052 -0.224132,0.391803 0.90508,0.744254 1.221602,0.307968 1.06163,-1.454289 -1.000892,-2.15748 -1.895709,-1.481664 -0.903368,0.681806 -1.401249,-0.780183 -0.363572,-0.988059 1.034256,-0.20959 1.121513,-2.078778 -0.01796,-2.085623 1.006027,-0.496167 -0.387525,-1.982962 -1.538979,-2.237035 -0.185634,-1.599716 -1.872609,-2.616862 -2.759725,-2.036003 -0.89567,0.58257 -0.972661,0.479914 -2.284943,-0.316522 -1.307148,-0.793014 -1.936769,1.649334 -0.975229,2.716097 0.96753,1.074462 0.26605,2.806776 0.306258,2.510783 0,0 -0.364428,0.655287 -0.340476,0.900805 -1.106969,0.375549 -1.430334,-1.183104 -2.117273,-1.527857 -0.500444,0.65272 -1.308859,1.000892 -1.308859,1.000892 l 0.06074,-1.328536 c 0,0 -3.436394,-1.871753 -4.492038,-1.347353 -1.301161,0.402066 -1.609127,3.414154 -0.42773,3.854717 1.183103,0.445697 -1.484232,1.555234 1.191657,4.376553 2.748606,2.896598 3.811091,2.979578 4.372277,2.508218 0.138582,-0.118915 0.378114,-0.296847 0.670682,-0.494456 0.02651,0.111207 0.07099,0.218141 0.13945,0.319086 0.687793,1.034255 -1.598863,1.849511 -1.917949,3.331174 -0.324221,1.497916 -0.02567,4.283306 1.3311,4.378263 0.258351,-1.48423 2.797365,-0.959831 1.415793,0.384959 -1.40638,1.371308 -0.420034,1.613404 -0.420034,1.613404 0,0 0.06673,2.568957 2.217362,1.747711 -0.06244,0.147146 -0.112928,0.335342 -0.142867,0.540654 -0.60139,-0.121474 -2.071076,-0.305401 -2.430371,0.719443 -0.453395,1.293463 -2.373058,-0.437995 -3.716133,0.142868 -1.337091,0.576583 -3.288403,2.469725 -2.631407,3.800825 1.262663,-0.598824 2.229337,2.101019 0.465373,1.546678 -1.769956,-0.556051 -1.426057,0.498735 -1.426057,0.498735 0,0 -1.842668,1.453433 -0.117208,3.000965 -0.662986,0.100939 -1.84096,0.83921 -1.444025,2.458603 0,0 -0.757084,0.02737 -0.858884,1.47653 -2.469723,0.497879 -2.319162,1.264376 1.396971,0.424311 -1.499627,0.778472 1.048799,1.14461 2.178011,1.041099 1.13092,-0.10266 4.099382,1.361041 1.869187,1.375583 -2.234471,0.01379 -1.568921,1.106971 1.106971,1.159154 2.671611,0.05477 2.391019,0.674106 2.787953,0.64673 0.396937,-0.02738 2.124972,1.335379 2.030871,2.090754 -0.09666,0.756229 1.810162,1.54069 3.050583,0.674105 0.0633,0.786171 3.324332,0.172805 3.806814,-1.244698 3.531353,0.539796 3.450082,-0.118915 2.663912,-0.538089 -1.768241,-0.270325 -5.013014,-2.620283 -1.493638,-1.411513 3.501412,1.20706 0.128314,-0.949566 -0.794727,-1.778509 -2.010337,-0.390948 -2.112995,-2.0668 -2.112995,-2.0668 0,0 1.110393,-0.632188 0.234397,-2.212229 2.172024,-0.402924 0.860596,-1.166851 1.104404,-1.89485 0.243806,-0.730566 1.3465,-1.661311 1.724615,-1.736593 0.07186,-0.09838 0.662984,0.01967 0.114634,0.242097 -0.473927,0.0053 -0.137743,1.339656 0.429443,1.408093 1.917949,0.233542 1.356763,-2.2704 0.23012,-2.774269 -1.129212,-0.508143 -0.115487,-1.88544 0.677525,-0.958119 0.793016,0.925612 2.560403,-0.113781 1.897419,-1.286618 1.053931,0.730567 1.62196,-1.633079 1.173696,-2.989843 1.409804,-1.222457 1.364464,-3.659673 0.273749,-4.204604 -0.536377,-0.26776 -0.795582,-0.441418 -0.925613,-0.774194 0.647588,-0.306256 1.506473,-0.532099 1.843524,-0.23012 0.548353,0.495313 2.074499,-0.870861 1.977832,-2.468012 0.642452,0.35245 1.665588,-2.904299 0.796437,-4.043776 1.989808,-2.781967 1.453432,-3.03433 0.787881,-2.568102 -1.000892,1.387564 -4.288438,3.048016 -1.740011,0.588558 2.474,-2.387598 -0.657852,-0.577436 -1.705796,-0.189912 -1.232722,1.544111 -2.540726,0.802424 -2.540726,0.802424 0,0 0.05562,-1.265229 -1.536413,-1.290892 0.735705,-2.03002 -0.449968,-1.296889 -0.864867,-1.851229 -0.415755,-0.553485 -0.565462,-1.906828 -0.437998,-2.253292 z"
           id="path4801" />
        <path
           style="fill:url(#radialGradient10653);fill-opacity:1"
           inkscape:connector-curvature="0"
           d="m 54.619034,72.477742 c 0.588584,0.583346 -0.08733,2.345608 -0.843581,2.263519 -0.757999,-0.08558 -1.938661,-0.419169 -1.938661,-0.419169 0,0 -0.588585,1.173676 0,1.510759 0.592076,0.331843 2.303689,0.188625 0.08558,1.004262 -2.275744,0.83834 -2.867822,0.586838 -3.037236,0.167668 -0.165922,-0.419171 -0.923922,-1.844349 -1.346585,-1.762262 -0.340575,-0.752759 1.180663,-1.421686 0.337082,-1.924691 -0.843579,-0.508243 -0.172907,-2.350845 -0.172907,-2.350845 0,0 1.180662,0.08383 1.68716,0.923921 0.506497,0.836594 1.180663,-0.08558 1.68716,-0.08558 0.08558,0.503004 0.41917,0.922175 0.41917,0.922175 l 0.337081,-0.752761 c 0.0017,0 2.364819,-0.08383 2.785736,0.503005 z"
           id="path4821" />
        <path
           id="path4841"
           d="M 65.045231,1.2406069 C 64.133231,1.4436069 65.674,4.505 65.674,4.505 c 0,0 -0.055,2.216 0.321,2.329 0.374,0.113 2.852,0.733 4.147,2.345 1.301,1.614 0.625,2.463 -0.458,1.997 -1.084,-0.465 -0.797,0.959 -0.797,0.959 0,0 3.27,1.063 0.8,0.995 -2.475,-0.066 1.666,1.741 1.393,1.93 -0.273,0.191 -0.429,1.231 -0.429,1.231 0,0 -2.183,0.182 -0.333,0.959 6.26,2.637 -0.669,1.925 -0.669,1.925 l -0.884,1.087 1.749,2.194 1.345,0.962 c 0,0 2.833,-0.945 3.716,-1.093 0.884,-0.146 3.114,-1.815 3.114,-1.815 0,0 0.669,0.478 0.169,-0.497 -0.501,-0.976 1.841,-0.54 2.425,0.186 l 4.134,1.867 c 0.054,0.144 0.146,0.274 0.292,0.375 0.806,0.565 -0.729,1.535 -0.573,2.562 0.156,1.016 1.093,2.704 2.121,2.526 -0.18,-0.969 1.851,-1.086 1.144,-0.006 -0.706,1.077 0.077,1.056 0.077,1.056 0,0 0.653,1.521 2.034,0.676 -0.056,0.464 0.227,1.397 1.413,1.459 0,0 -0.126,0.506 0.848,0.865 -0.132,1.737 0.424,1.792 0.561,-0.846 0.245,1.157 0.992,-0.471 1.141,-1.25 0.15,-0.784 1.756,-2.505 1.322,-0.984 -0.431,1.508 4.735,2.06 5.308,0.259 0.578,-1.815 2.637,-2.763 2.699,-3.038 0.062,-0.281 -4.583,-0.712 -4.07,-0.493 0.514,0.219 1.47,-0.948 1.115,-1.986 0.576,0.116 0.83,-2.301 -0.083,-2.927 1.143,-2.405 0.651,-2.48 0.182,-2.001 -0.57,1.205 -2.922,3.023 -1.327,0.783 1.609,-2.263 -0.999914,0.169353 -1.784914,0.661353 -0.689,1.341 -1.552086,0.626647 -1.552086,0.626647 0,0 -0.222,-0.911 -1.516,-0.607 0.151,-1.612 -0.653,-0.838 -1.12,-1.154 -0.285,-0.193 -0.558,-0.627 -0.726,-0.999 1.115,0.452 2.73815,1.537471 2.48015,0.708471 -0.167,-0.542 1.418173,1.311099 1.498173,1.064099 l 0.761923,0.10862 C 96.502687,17.328591 95.103491,15.492168 93.621806,13.605109 81.50488,-0.72586268 65.045231,1.2406069 65.045231,1.2406069 Z"
           clip-path="url(#XMLID_68_)"
           inkscape:connector-curvature="0"
           style="fill:url(#radialGradient10655);fill-opacity:1"
           transform="matrix(1.4220849,0,0,1.4220849,-43.629693,-5.1499876)"
           sodipodi:nodetypes="ccccccccccccccccccccccccccccccccccccccccccccccc" />
        <path
           id="path4851"
           d="M 41.810799,12.58647 C 31.237799,17.33347 20.201,20.626 20.201,20.626 c 0,0 0.938,2.145 1.265,1.987 0.33,-0.156 -2.361,5.628 -0.386,5.954 1.985,0.325 7.696,-3.578 6.637,-3.22 -1.056,0.356 0.595,-2.112 0.595,-2.112 0,0 2.972,-1.318 1.214,0.202 -1.743,1.511 2.318,0.187 2.255,0.496 -0.064,0.311 0.525,1.147 0.525,1.147 0,0 -1.393,1.494 0.406,0.892 6.172,-2.075 0.812,1.779 0.812,1.779 l 0.106,1.312 2.67,0.464 1.578,-0.15 c 0,0 1.381,-2.436 1.914,-3.098 0.535,-0.663 1.028,-3.284 1.028,-3.284 0,0 0.803,-0.084 -0.213,-0.468 -1.016,-0.385 0.972,-1.583 1.886,-1.434 l 4.303,-1.336 c 0.138,0.068 0.292,0.103 0.47,0.082 0.985,-0.114 0.489,1.603 1.294,2.25 0.796,0.644 2.627,1.264 3.283,0.469 -0.784,-0.594 0.674,-2.011 0.86,-0.751 0.187,1.249 0.767,0.723 0.767,0.723 0,0 1.543,-2.654 2.036,-4.177 0.27,0.377 2.788,-3.309 2.025,-5.067 -0.771,-1.78 0.479,-3.456 0.34,-3.715 -0.143,-0.256 -0.896,0.528 -0.34,0.34 0.561,-0.192 -1.589,0.772 -1.874,-2.061 -0.288,-2.89 -0.707,0.243 -0.985,1.169 0.377,1.508 3.222306,-4.259087 3.222306,-4.259087 l 5.013393,-2.1547725 c 0,0.004 -10.979386,-0.2437857 -21.0969,9.9813295 z"
           clip-path="url(#XMLID_68_)"
           inkscape:connector-curvature="0"
           style="fill:url(#radialGradient10657);fill-opacity:1"
           transform="matrix(1.554208,0,0,1.554208,-49.591797,-7.3835563)"
           sodipodi:nodetypes="ccccccccccccccccccccccccccccccccc" />
      </g>
      <path
         d="m 256.772,209.514 c -0.393,5.978 -21.514,26.593 -28.9,26.593 -68.339,0 -79.432,41.335 -79.432,41.335 3.027,34.81 27.261,63.475 56.611,78.643 1.339,0.692 2.694,1.317 4.05,1.935 a 132.768,132.768 0 0 0 7.059,2.886 106.743,106.743 0 0 0 31.271,6.031 c 119.78,5.618 142.986,-143.194 56.545,-186.408 22.137,-3.85 45.115,5.053 57.947,14.067 -21.012,-36.714 -60.25,-61.484 -105.3,-61.484 -2.85,0 -5.641,0.235 -8.442,0.429 a 120.249,120.249 0 0 0 -66.142,25.488 c 3.664,3.1 7.8,7.244 16.514,15.828 16.302,16.067 58.13,32.705 58.219,34.657 z"
         fill="url(#f)"
         id="path1254"
         style="display:inline;fill:url(#f)"
         clip-path="url(#clipPath5298)" />
      <path
         d="m 244.94822,230.12722 c -0.393,5.978 -9.69022,5.97978 -17.07622,5.97978 -68.339,0 -82.18688,34.39398 -82.18688,34.39398 3.027,34.81 30.01588,70.41602 59.36588,85.58402 1.339,0.692 2.694,1.317 4.05,1.935 2.32488,1.02939 4.67885,1.99179 7.059,2.886 10.06344,3.56275 20.6044,5.5957 31.271,6.031 119.78,5.618 163.96284,-124.40326 77.52184,-167.61726 22.137,-3.85 20.87203,0.73831 33.70403,9.75231 -10.90169,-38.89784 -58.10724,-70.71882 -103.15724,-70.71882 -2.85,0 -5.641,0.235 -8.442,0.429 -24.10747,1.6573 -61.11718,21.51072 -76.84241,40.85999 3.664,3.1 7.8,7.244 16.514,15.828 16.302,16.067 55.50881,36.19915 58.219,34.657 z"
         fill="url(#e)"
         id="path6944"
         style="display:inline;opacity:0.80303;fill:url(#linearGradient6948);fill-opacity:1"
         clip-path="url(#clipPath5302)"
         transform="matrix(0.82587162,0,0,0.70804667,44.680595,40.496667)"
         sodipodi:nodetypes="cscscccccscccc" />
      <path
         d="m 170.829,151.036 a 244.042,244.042 0 0 1 4.981,3.3 111.338,111.338 0 0 1 -0.674,-58.732 c -24.688,11.241 -43.89,29.01 -57.85,44.7 1.155,-0.033 36.014,-0.66 53.543,10.732 z"
         fill="url(#g)"
         id="path1256"
         style="fill:url(#g)"
         clip-path="url(#clipPath5294)" />
      <path
         d="m 18.223,261.41 c 18.543,109.578 117.877,193.241 230.632,196.434 104.361,2.954 171.037,-57.62 198.576,-116.716 17.8,-38.2 30.154,-100.7 7.479,-162.175 l -0.008,-0.026 -0.032,-0.233 c -0.025,-0.178 -0.04,-0.284 -0.036,-0.226 0,0.039 0.015,0.136 0.047,0.4 8.524,55.661 -19.79,109.584 -64.051,146.044 l -0.133,0.313 c -86.245,70.223 -168.774,42.368 -185.484,30.966 a 144.108,144.108 0 0 1 -3.5,-1.743 c -50.282,-24.029 -71.054,-69.838 -66.6,-109.124 -42.457,0 -56.934,-35.809 -56.934,-35.809 0,0 38.119,-27.179 88.358,-3.541 46.53,21.893 90.228,3.543 90.233,3.541 -0.089,-1.952 -41.917,-18.59 -58.223,-34.656 -8.713,-8.584 -12.85,-12.723 -16.514,-15.828 a 71.355,71.355 0 0 0 -6.225,-4.7 282.929,282.929 0 0 0 -4.981,-3.3 c -17.528,-11.392 -52.388,-10.765 -53.543,-10.735 h -0.111 c -9.527,-12.067 -8.855,-51.873 -8.312,-60.184 -0.114,-0.515 -7.107,3.63 -8.023,4.255 a 175.073,175.073 0 0 0 -23.486,20.12 210.478,210.478 0 0 0 -22.442,26.919 c 0,0.012 -0.007,0.026 -0.011,0.038 0,-0.013 0.007,-0.026 0.011,-0.038 a 202.838,202.838 0 0 0 -32.247,72.805 c -0.115,0.521 -8.65,37.842 -4.44,57.199 z"
         fill="url(#h)"
         id="path1258"
         style="display:inline;fill:url(#h)"
         clip-path="url(#clipPath5290)" />
      <path
         d="m 341.105,166.587 a 130.706,130.706 0 0 1 22.31,29.112 c 1.323,0.994 2.559,1.985 3.608,2.952 54.482,50.2 25.936,121.2 23.807,126.26 44.261,-36.46 72.575,-90.383 64.051,-146.044 C 427.706,111.135 381.627,83.823 344,24.355 c -1.9,-3.007 -3.805,-6.022 -5.661,-9.2 a 73.716,73.716 0 0 1 -2.646,-4.972 43.7,43.7 0 0 1 -3.593,-9.506 0.626,0.626 0 0 0 -0.546,-0.644 0.818,0.818 0 0 0 -0.451,0 c -0.034,0.012 -0.084,0.051 -0.12,0.065 -0.053,0.021 -0.12,0.069 -0.176,0.1 -9.291,4.428 -64.407,91.694 10.298,166.389 z"
         fill="url(#i)"
         id="path1260"
         style="display:inline;fill:url(#i)"
         clip-path="url(#clipPath5286)" />
      <path
         d="m 367.023,198.651 c -1.049,-0.967 -2.285,-1.958 -3.608,-2.952 -0.489,-0.368 -0.969,-0.734 -1.493,-1.1 -12.832,-9.014 -35.81,-17.917 -57.947,-14.067 86.441,43.214 63.235,192.026 -56.545,186.408 a 106.743,106.743 0 0 1 -31.271,-6.031 134.51,134.51 0 0 1 -7.059,-2.886 c -1.356,-0.618 -2.711,-1.243 -4.05,-1.935 0.048,0.033 0.114,0.07 0.163,0.1 16.71,11.4 99.239,39.257 185.484,-30.966 l 0.133,-0.313 c 2.129,-5.054 30.675,-76.057 -23.807,-126.258 z"
         fill="url(#j)"
         id="path1262"
         style="display:inline;fill:url(#j)"
         clip-path="url(#clipPath5282)" />
      <path
         d="m 148.439,277.443 c 0,0 11.093,-41.335 79.432,-41.335 7.388,0 28.509,-20.615 28.9,-26.593 0.391,-5.978 -43.7,18.352 -90.233,-3.541 -50.239,-23.638 -88.358,3.541 -88.358,3.541 0,0 14.477,35.809 56.934,35.809 -4.453,39.286 16.319,85.1 66.6,109.124 1.124,0.537 2.18,1.124 3.334,1.639 -29.348,-15.169 -53.582,-43.834 -56.609,-78.644 z"
         fill="url(#k)"
         id="path1264"
         style="fill:url(#k)"
         clip-path="url(#clipPath5278)" />
      <path
         d="m 478.711,166.353 c -10.445,-25.124 -31.6,-52.248 -48.212,-60.821 13.52,26.505 21.345,53.093 24.335,72.936 0,0.039 0.015,0.136 0.047,0.4 C 427.706,111.135 381.627,83.823 344,24.355 c -1.9,-3.007 -3.805,-6.022 -5.661,-9.2 a 73.716,73.716 0 0 1 -2.646,-4.972 43.7,43.7 0 0 1 -3.593,-9.506 0.626,0.626 0 0 0 -0.546,-0.644 0.818,0.818 0 0 0 -0.451,0 c -0.034,0.012 -0.084,0.051 -0.12,0.065 -0.053,0.021 -0.12,0.069 -0.176,0.1 0.027,-0.036 0.083,-0.117 0.1,-0.136 -60.37,35.356 -80.85,100.761 -82.732,133.484 2.8,-0.194 5.592,-0.429 8.442,-0.429 45.053,0 84.291,24.77 105.3,61.484 -12.832,-9.014 -35.81,-17.917 -57.947,-14.067 86.441,43.214 63.235,192.026 -56.545,186.408 a 106.743,106.743 0 0 1 -31.271,-6.031 134.51,134.51 0 0 1 -7.059,-2.886 c -1.356,-0.618 -2.711,-1.243 -4.05,-1.935 0.048,0.033 0.114,0.07 0.163,0.1 a 144.108,144.108 0 0 1 -3.5,-1.743 c 1.124,0.537 2.18,1.124 3.334,1.639 -29.35,-15.168 -53.584,-43.833 -56.611,-78.643 0,0 11.093,-41.335 79.432,-41.335 7.388,0 28.509,-20.615 28.9,-26.593 -0.089,-1.952 -41.917,-18.59 -58.223,-34.656 -8.713,-8.584 -12.85,-12.723 -16.514,-15.828 a 71.355,71.355 0 0 0 -6.225,-4.7 111.338,111.338 0 0 1 -0.674,-58.732 c -24.688,11.241 -43.89,29.01 -57.85,44.7 h -0.111 c -9.527,-12.067 -8.855,-51.873 -8.312,-60.184 -0.114,-0.515 -7.107,3.63 -8.023,4.255 A 175.073,175.073 0 0 0 77.345,104.49 210.478,210.478 0 0 0 54.91,131.406 c 0,0.012 -0.007,0.026 -0.011,0.038 0,-0.013 0.007,-0.026 0.011,-0.038 a 202.838,202.838 0 0 0 -32.247,72.805 c -0.115,0.521 -0.212,1.061 -0.324,1.586 -0.452,2.116 -2.486,12.853 -2.77,15.156 -0.022,0.177 0.021,-0.176 0,0 a 279.565,279.565 0 0 0 -3.544,33.53 c 0,0.41 -0.025,0.816 -0.025,1.227 C 16,388.418 123.6,496 256.324,496 c 118.865,0 217.56,-86.288 236.882,-199.63 0.407,-3.076 0.733,-6.168 1.092,-9.271 4.777,-41.21 -0.53,-84.525 -15.587,-120.746 z m -23.841,12.341 c 0.012,0.085 0.027,0.174 0.04,0.259 l -0.008,-0.026 z"
         fill="url(#l)"
         id="path1266"
         style="display:inline;fill:url(#l)"
         clip-path="url(#clipPath5274)" />
      <path
         d="m 256.77,209.515 c -0.089,-1.952 -41.917,-18.59 -58.223,-34.656 -8.713,-8.584 -12.85,-12.723 -16.514,-15.828 -1.98776,-1.67899 -4.06586,-3.248 -6.225,-4.7 -1.64867,-1.1175 -5.0585,-3.96696 -6.7304,-5.0494 -38.02222,-12.67097 -47.58852,-8.04301 -53.41819,-8.16455 56.86931,11.94234 43.30064,39.62469 141.11059,68.39795 z"
         fill="url(#h)"
         id="path7746"
         style="display:inline;opacity:0.337121;fill:url(#linearGradient12468);fill-opacity:1"
         clip-path="url(#clipPath5290)"
         sodipodi:nodetypes="ccccccc" />
      <path
         d="m 341.105,166.587 a 130.706,130.706 0 0 1 22.31,29.112 c 1.323,0.994 2.559,1.985 3.608,2.952 54.482,50.2 25.936,121.2 23.807,126.26 44.261,-36.46 72.575,-90.383 64.051,-146.044 C 427.706,111.135 381.627,83.823 344,24.355 c -1.9,-3.007 -3.805,-6.022 -5.661,-9.2 a 73.716,73.716 0 0 1 -2.646,-4.972 43.7,43.7 0 0 1 -3.593,-9.506 0.626,0.626 0 0 0 -0.546,-0.644 0.818,0.818 0 0 0 -0.451,0 c -0.034,0.012 -0.084,0.051 -0.12,0.065 -0.053,0.021 -0.12,0.069 -0.176,0.1 -9.291,4.428 -64.407,91.694 10.298,166.389 z"
         fill="url(#i)"
         id="path21040"
         style="display:inline;opacity:0.39015152;fill:url(#linearGradient21042);fill-opacity:1"
         clip-path="url(#clipPath5286)" />
    </g>
    <path
       d="M 12,6 C 8.676,6 6,8.676 6,12 l 0,2 0,68 0,2 c 0,0.334721 0.04135,0.6507 0.09375,0.96875 0.0487,0.295596 0.09704,0.596915 0.1875,0.875 0.00988,0.03038 0.020892,0.0636 0.03125,0.09375 0.098865,0.287771 0.2348802,0.547452 0.375,0.8125 0.1445918,0.273507 0.3156161,0.535615 0.5,0.78125 0.1843839,0.245635 0.3737765,0.473472 0.59375,0.6875 0.439947,0.428056 0.94291,0.814526 1.5,1.09375 0.278545,0.139612 0.5734731,0.246947 0.875,0.34375 -0.2562018,-0.100222 -0.4867109,-0.236272 -0.71875,-0.375 -0.00741,-0.0044 -0.023866,0.0045 -0.03125,0 -0.031933,-0.0193 -0.062293,-0.04251 -0.09375,-0.0625 -0.120395,-0.0767 -0.2310226,-0.163513 -0.34375,-0.25 -0.1061728,-0.0808 -0.2132809,-0.161112 -0.3125,-0.25 C 8.4783201,88.557317 8.3087904,88.373362 8.15625,88.1875 8.0486711,88.057245 7.9378561,87.922215 7.84375,87.78125 7.818661,87.74287 7.805304,87.69538 7.78125,87.65625 7.716487,87.553218 7.6510225,87.451733 7.59375,87.34375 7.4927417,87.149044 7.3880752,86.928049 7.3125,86.71875 7.30454,86.69694 7.288911,86.6782 7.28125,86.65625 7.2494249,86.5643 7.2454455,86.469419 7.21875,86.375 7.1884177,86.268382 7.1483606,86.171969 7.125,86.0625 7.0521214,85.720988 7,85.364295 7,85 L 7,83 7,15 7,13 C 7,10.218152 9.2181517,8 12,8 l 2,0 68,0 2,0 c 2.781848,0 5,2.218152 5,5 l 0,2 0,68 0,2 c 0,0.364295 -0.05212,0.720988 -0.125,1.0625 -0.04415,0.206893 -0.08838,0.397658 -0.15625,0.59375 -0.0077,0.02195 -0.0233,0.04069 -0.03125,0.0625 -0.06274,0.173739 -0.138383,0.367449 -0.21875,0.53125 -0.04158,0.0828 -0.07904,0.169954 -0.125,0.25 -0.0546,0.09721 -0.126774,0.18835 -0.1875,0.28125 -0.09411,0.140965 -0.204921,0.275995 -0.3125,0.40625 -0.143174,0.17445 -0.303141,0.346998 -0.46875,0.5 -0.01117,0.0102 -0.01998,0.02115 -0.03125,0.03125 -0.138386,0.125556 -0.285091,0.234436 -0.4375,0.34375 -0.102571,0.07315 -0.204318,0.153364 -0.3125,0.21875 -0.0074,0.0045 -0.02384,-0.0044 -0.03125,0 -0.232039,0.138728 -0.462548,0.274778 -0.71875,0.375 0.301527,-0.0968 0.596455,-0.204138 0.875,-0.34375 0.55709,-0.279224 1.060053,-0.665694 1.5,-1.09375 0.219973,-0.214028 0.409366,-0.441865 0.59375,-0.6875 0.184384,-0.245635 0.355408,-0.507743 0.5,-0.78125 0.14012,-0.265048 0.276135,-0.524729 0.375,-0.8125 0.01041,-0.03078 0.02133,-0.06274 0.03125,-0.09375 0.09046,-0.278085 0.1388,-0.579404 0.1875,-0.875 C 89.95865,84.6507 90,84.334721 90,84 l 0,-2 0,-68 0,-2 C 90,8.676 87.324,6 84,6 L 12,6 z"
       inkscape:connector-curvature="0"
       id="rect3728"
       style="opacity:0.4;fill:url(#linearGradient3188);fill-opacity:1;fill-rule:nonzero;stroke:none" />
    <path
       d="M 12,90 C 8.676,90 6,87.324 6,84 V 82 14 12 c 0,-0.334721 0.04135,-0.6507 0.09375,-0.96875 0.0487,-0.295596 0.09704,-0.596915 0.1875,-0.875 C 6.29113,10.12587 6.302142,10.09265 6.3125,10.0625 6.411365,9.774729 6.5473802,9.515048 6.6875,9.25 6.8320918,8.976493 7.0031161,8.714385 7.1875,8.46875 7.3718839,8.223115 7.5612765,7.995278 7.78125,7.78125 8.221197,7.353194 8.72416,6.966724 9.28125,6.6875 9.559795,6.547888 9.8547231,6.440553 10.15625,6.34375 9.9000482,6.443972 9.6695391,6.580022 9.4375,6.71875 c -0.00741,0.0044 -0.023866,-0.0045 -0.03125,0 -0.031933,0.0193 -0.062293,0.04251 -0.09375,0.0625 -0.120395,0.0767 -0.2310226,0.163513 -0.34375,0.25 -0.1061728,0.0808 -0.2132809,0.161112 -0.3125,0.25 C 8.4783201,7.442683 8.3087904,7.626638 8.15625,7.8125 8.0486711,7.942755 7.9378561,8.077785 7.84375,8.21875 7.818661,8.25713 7.805304,8.30462 7.78125,8.34375 7.716487,8.446782 7.6510225,8.548267 7.59375,8.65625 7.4927417,8.850956 7.3880752,9.071951 7.3125,9.28125 7.30454,9.30306 7.288911,9.3218 7.28125,9.34375 7.2494249,9.4357 7.2454455,9.530581 7.21875,9.625 7.1884177,9.731618 7.1483606,9.828031 7.125,9.9375 7.0521214,10.279012 7,10.635705 7,11 v 2 68 2 c 0,2.781848 2.2181517,5 5,5 h 2 68 2 c 2.781848,0 5,-2.218152 5,-5 V 81 13 11 C 89,10.635705 88.94788,10.279012 88.875,9.9375 88.83085,9.730607 88.78662,9.539842 88.71875,9.34375 88.71105,9.3218 88.69545,9.30306 88.6875,9.28125 88.62476,9.107511 88.549117,8.913801 88.46875,8.75 88.42717,8.6672 88.38971,8.580046 88.34375,8.5 88.28915,8.40279 88.216976,8.31165 88.15625,8.21875 88.06214,8.077785 87.951329,7.942755 87.84375,7.8125 87.700576,7.63805 87.540609,7.465502 87.375,7.3125 87.36383,7.3023 87.35502,7.29135 87.34375,7.28125 87.205364,7.155694 87.058659,7.046814 86.90625,6.9375 86.803679,6.86435 86.701932,6.784136 86.59375,6.71875 c -0.0074,-0.0045 -0.02384,0.0044 -0.03125,0 -0.232039,-0.138728 -0.462548,-0.274778 -0.71875,-0.375 0.301527,0.0968 0.596455,0.204138 0.875,0.34375 0.55709,0.279224 1.060053,0.665694 1.5,1.09375 0.219973,0.214028 0.409366,0.441865 0.59375,0.6875 0.184384,0.245635 0.355408,0.507743 0.5,0.78125 0.14012,0.265048 0.276135,0.524729 0.375,0.8125 0.01041,0.03078 0.02133,0.06274 0.03125,0.09375 0.09046,0.278085 0.1388,0.579404 0.1875,0.875 C 89.95865,11.3493 90,11.665279 90,12 v 2 68 2 c 0,3.324 -2.676,6 -6,6 z"
       inkscape:connector-curvature="0"
       id="path3615"
       style="display:inline;opacity:0.3;fill:url(#radialGradient3619);fill-opacity:1;fill-rule:nonzero;stroke:none" />
  </g>
  <g
     id="layer5"
     transform="translate(0.04733496,2.0133252)"
     style="display:none">
    <rect
       width="66"
       height="66"
       rx="12"
       ry="12"
       x="15"
       y="15"
       clip-path="url(#clipPath3613)"
       id="rect3171"
       style="display:inline;opacity:0.1;fill:url(#linearGradient3613);fill-opacity:1;fill-rule:nonzero;stroke:#ffffff;stroke-width:0.5;stroke-linecap:round;stroke-linejoin:miter;stroke-miterlimit:4;stroke-dasharray:none;stroke-dashoffset:0;stroke-opacity:1;filter:url(#filter3794)" />
  </g>
  <g
     id="g6098"
     transform="matrix(0.20210011,0,0,0.20210011,-3.3018353,11.710856)" />
</svg>
