<?xml version="1.0" encoding="UTF-8" standalone="no"?>
<!-- Created with Inkscape (http://www.inkscape.org/) -->

<svg
   version="1.0"
   width="96"
   height="96"
   id="svg2408"
   style="display:inline"
   sodipodi:docname="godot2.svg"
   inkscape:version="1.2.2 (b0a8486541, 2022-12-01)"
   xmlns:inkscape="http://www.inkscape.org/namespaces/inkscape"
   xmlns:sodipodi="http://sodipodi.sourceforge.net/DTD/sodipodi-0.dtd"
   xmlns:xlink="http://www.w3.org/1999/xlink"
   xmlns="http://www.w3.org/2000/svg"
   xmlns:svg="http://www.w3.org/2000/svg"
   xmlns:rdf="http://www.w3.org/1999/02/22-rdf-syntax-ns#"
   xmlns:cc="http://creativecommons.org/ns#"
   xmlns:dc="http://purl.org/dc/elements/1.1/">
  <sodipodi:namedview
     id="namedview119"
     pagecolor="#ffffff"
     bordercolor="#000000"
     borderopacity="0.25"
     inkscape:showpageshadow="2"
     inkscape:pageopacity="0.0"
     inkscape:pagecheckerboard="0"
     inkscape:deskcolor="#d1d1d1"
     showgrid="false"
     inkscape:zoom="11.313709"
     inkscape:cx="46.669047"
     inkscape:cy="45.961941"
     inkscape:current-layer="svg2408" />
  <defs
     id="defs2410">
    <linearGradient
       inkscape:collect="always"
       id="linearGradient21536">
      <stop
         style="stop-color:#ffffff;stop-opacity:1;"
         offset="0"
         id="stop21532" />
      <stop
         style="stop-color:#ffffff;stop-opacity:1;"
         offset="1"
         id="stop21534" />
    </linearGradient>
    <linearGradient
       inkscape:collect="always"
       id="linearGradient20800">
      <stop
         style="stop-color:#ffffff;stop-opacity:1;"
         offset="0"
         id="stop20796" />
      <stop
         style="stop-color:#ffffff;stop-opacity:1;"
         offset="1"
         id="stop20798" />
    </linearGradient>
    <linearGradient
       inkscape:collect="always"
       id="linearGradient5665">
      <stop
         style="stop-color:#ffffff;stop-opacity:1;"
         offset="0"
         id="stop5661" />
      <stop
         style="stop-color:#efefef;stop-opacity:1;"
         offset="1"
         id="stop5663" />
    </linearGradient>
    <linearGradient
       id="linearGradient3875">
      <stop
         id="stop3877"
         style="stop-color:#ffffff;stop-opacity:1"
         offset="0" />
      <stop
         id="stop3879"
         style="stop-color:#ffffff;stop-opacity:0.42635658"
         offset="1" />
    </linearGradient>
    <linearGradient
       x1="45.447727"
       y1="92.539597"
       x2="45.447727"
       y2="7.0165396"
       id="ButtonShadow"
       gradientUnits="userSpaceOnUse"
       gradientTransform="scale(1.0058652,0.994169)">
      <stop
         id="stop3750"
         style="stop-color:#000000;stop-opacity:1"
         offset="0" />
      <stop
         id="stop3752"
         style="stop-color:#000000;stop-opacity:0.58823532"
         offset="1" />
    </linearGradient>
    <filter
       color-interpolation-filters="sRGB"
       id="filter3174"
       x="-0.047720931"
       y="-0.048282354"
       width="1.0954419"
       height="1.0965647">
      <feGaussianBlur
         id="feGaussianBlur3176"
         stdDeviation="1.71" />
    </filter>
    <linearGradient
       id="linearGradient3737-6">
      <stop
         id="stop3739-73"
         style="stop-color:#ffffff;stop-opacity:1"
         offset="0" />
      <stop
         id="stop3741-6"
         style="stop-color:#ffffff;stop-opacity:0"
         offset="1" />
    </linearGradient>
    <clipPath
       id="clipPath3613">
      <rect
         width="84"
         height="84"
         rx="6"
         ry="6"
         x="6"
         y="6"
         id="rect3615"
         style="fill:#ffffff;fill-opacity:1;fill-rule:nonzero;stroke:none" />
    </clipPath>
    <linearGradient
       x1="48"
       y1="20.220806"
       x2="48"
       y2="138.66119"
       id="linearGradient2885"
       xlink:href="#linearGradient3737-6"
       gradientUnits="userSpaceOnUse" />
    <radialGradient
       cx="48"
       cy="41.752277"
       r="42"
       fx="48"
       fy="41.752277"
       id="radialGradient2977"
       xlink:href="#linearGradient3737-5"
       gradientUnits="userSpaceOnUse"
       gradientTransform="matrix(1.7146179,6.6254866e-8,-4.2857144e-8,1.1091053,-134.30166,-5.082394)" />
    <radialGradient
       cx="48"
       cy="90.171875"
       r="42"
       fx="48"
       fy="90.171875"
       id="radialGradient2855-1"
       xlink:href="#linearGradient3737-1-4"
       gradientUnits="userSpaceOnUse"
       gradientTransform="matrix(1.1573129,0,0,0.99590774,-7.551021,0.19713)" />
    <linearGradient
       id="linearGradient3737-1-4">
      <stop
         id="stop3739-7-1"
         style="stop-color:#ffffff;stop-opacity:1"
         offset="0" />
      <stop
         id="stop3741-2-0"
         style="stop-color:#ffffff;stop-opacity:0"
         offset="1" />
    </linearGradient>
    <linearGradient
       x1="36.357143"
       y1="6"
       x2="36.357143"
       y2="63.893143"
       id="linearGradient3188-9"
       xlink:href="#linearGradient3737-5"
       gradientUnits="userSpaceOnUse" />
    <linearGradient
       id="linearGradient3737-5">
      <stop
         id="stop3739-6"
         style="stop-color:#ffffff;stop-opacity:1"
         offset="0" />
      <stop
         id="stop3741-7"
         style="stop-color:#ffffff;stop-opacity:0"
         offset="1" />
    </linearGradient>
    <linearGradient
       id="linearGradient5226-7">
      <stop
         id="stop5228-2"
         style="stop-color:#227395;stop-opacity:1"
         offset="0" />
      <stop
         id="stop5230-4"
         style="stop-color:#44a2c9;stop-opacity:1"
         offset="1" />
    </linearGradient>
    <linearGradient
       id="linearGradient3424-7">
      <stop
         id="stop3426-4"
         style="stop-color:#ffffff;stop-opacity:1"
         offset="0" />
      <stop
         id="stop3432-0"
         style="stop-color:#ffffff;stop-opacity:1"
         offset="0.67213112" />
      <stop
         id="stop3428-2"
         style="stop-color:#ffffff;stop-opacity:0"
         offset="1" />
    </linearGradient>
    <filter
       color-interpolation-filters="sRGB"
       id="filter3434"
       x="-0.070797552"
       y="-0.073244012"
       width="1.1415951"
       height="1.146488">
      <feGaussianBlur
         id="feGaussianBlur3436"
         stdDeviation="2.4779144" />
    </filter>
    <linearGradient
       id="linearGradient3700-1">
      <stop
         id="stop3702-4"
         style="stop-color:#2b91bc;stop-opacity:1"
         offset="0" />
      <stop
         id="stop3704-2"
         style="stop-color:#77bbd8;stop-opacity:1"
         offset="1" />
    </linearGradient>
    <filter
       x="-0.14778788"
       y="-0.14778788"
       width="1.2955758"
       height="1.2955758"
       color-interpolation-filters="sRGB"
       id="filter4123">
      <feGaussianBlur
         id="feGaussianBlur4125"
         stdDeviation="3.96" />
    </filter>
    <linearGradient
       x1="45.447727"
       y1="92.539597"
       x2="45.447727"
       y2="7.0165396"
       id="ButtonShadow-0"
       gradientUnits="userSpaceOnUse"
       gradientTransform="matrix(1.0058652,0,0,0.994169,100,0)">
      <stop
         id="stop3750-8"
         style="stop-color:#000000;stop-opacity:1"
         offset="0" />
      <stop
         id="stop3752-5"
         style="stop-color:#000000;stop-opacity:0.58823532"
         offset="1" />
    </linearGradient>
    <linearGradient
       x1="32.251034"
       y1="6.1317081"
       x2="32.251034"
       y2="90.238609"
       id="linearGradient3780"
       xlink:href="#ButtonShadow-0"
       gradientUnits="userSpaceOnUse"
       gradientTransform="matrix(1.0238095,0,0,1.0119048,-1.1428571,-98.071429)" />
    <linearGradient
       x1="32.251034"
       y1="6.1317081"
       x2="32.251034"
       y2="90.238609"
       id="linearGradient3772"
       xlink:href="#ButtonShadow-0"
       gradientUnits="userSpaceOnUse"
       gradientTransform="matrix(1.0238095,0,0,1.0119048,-1.1428571,-98.071429)" />
    <linearGradient
       x1="32.251034"
       y1="6.1317081"
       x2="32.251034"
       y2="90.238609"
       id="linearGradient3725"
       xlink:href="#ButtonShadow-0"
       gradientUnits="userSpaceOnUse"
       gradientTransform="matrix(1.0238095,0,0,1.0119048,-1.1428571,-98.071429)" />
    <linearGradient
       x1="32.251034"
       y1="6.1317081"
       x2="32.251034"
       y2="90.238609"
       id="linearGradient3721"
       xlink:href="#ButtonShadow-0"
       gradientUnits="userSpaceOnUse"
       gradientTransform="translate(0,-97)" />
    <linearGradient
       x1="32.251034"
       y1="6.1317081"
       x2="32.251034"
       y2="90.238609"
       id="linearGradient3071"
       xlink:href="#ButtonShadow-0"
       gradientUnits="userSpaceOnUse"
       gradientTransform="matrix(1.0238095,0,0,1.0119048,-1.1428571,-98.071429)" />
    <radialGradient
       cx="63.98003"
       cy="61.948856"
       r="58.01997"
       fx="63.98003"
       fy="61.948856"
       id="radialGradient4197"
       xlink:href="#linearGradient5226-7"
       gradientUnits="userSpaceOnUse"
       gradientTransform="matrix(1.090012,0,0,0.8408658,-21.739001,104.49175)" />
    <radialGradient
       cx="48"
       cy="46.582424"
       r="42"
       fx="48"
       fy="46.582424"
       id="radialGradient4200"
       xlink:href="#linearGradient3424-7"
       gradientUnits="userSpaceOnUse"
       gradientTransform="matrix(1,0,0,0.9665987,3.0413897e-8,111.55591)" />
    <linearGradient
       x1="48"
       y1="90"
       x2="48"
       y2="5.9877172"
       id="linearGradient4203"
       xlink:href="#linearGradient3700-1"
       gradientUnits="userSpaceOnUse"
       gradientTransform="translate(0,110)" />
    <radialGradient
       cx="63.98003"
       cy="61.948856"
       r="58.01997"
       fx="63.98003"
       fy="61.948856"
       id="radialGradient5232-9"
       xlink:href="#linearGradient3875"
       gradientUnits="userSpaceOnUse"
       gradientTransform="matrix(1.090012,0,0,0.84044811,-21.739002,-5.4878171)" />
    <linearGradient
       id="linearGradient3700-5-1">
      <stop
         id="stop3702-0-2"
         style="stop-color:#3781c6;stop-opacity:1"
         offset="0" />
      <stop
         id="stop3704-4-9"
         style="stop-color:#88b2db;stop-opacity:1"
         offset="1" />
    </linearGradient>
    <linearGradient
       x1="48"
       y1="90"
       x2="48"
       y2="5.9877172"
       id="linearGradient3345"
       xlink:href="#linearGradient3700-5-1"
       gradientUnits="userSpaceOnUse" />
    <linearGradient
       id="linearGradient3543">
      <stop
         id="stop3545"
         style="stop-color:#ffffff;stop-opacity:1"
         offset="0" />
      <stop
         id="stop3555"
         style="stop-color:#ffffff;stop-opacity:1"
         offset="0.30645162" />
      <stop
         id="stop3551"
         style="stop-color:#ffffff;stop-opacity:0.640625"
         offset="0.51899064" />
      <stop
         id="stop3547"
         style="stop-color:#ffffff;stop-opacity:0"
         offset="1" />
    </linearGradient>
    <radialGradient
       cx="74.375"
       cy="67.125"
       r="3.125"
       fx="74.375"
       fy="67.125"
       id="radialGradient3443"
       xlink:href="#linearGradient3543"
       gradientUnits="userSpaceOnUse" />
    <radialGradient
       cx="74.375"
       cy="67.125"
       r="3.125"
       fx="74.375"
       fy="67.125"
       id="radialGradient3445"
       xlink:href="#linearGradient3543"
       gradientUnits="userSpaceOnUse" />
    <radialGradient
       cx="74.375"
       cy="67.125"
       r="3.125"
       fx="74.375"
       fy="67.125"
       id="radialGradient3447"
       xlink:href="#linearGradient3543"
       gradientUnits="userSpaceOnUse" />
    <radialGradient
       cx="74.375"
       cy="67.125"
       r="3.125"
       fx="74.375"
       fy="67.125"
       id="radialGradient3449"
       xlink:href="#linearGradient3543"
       gradientUnits="userSpaceOnUse" />
    <radialGradient
       cx="74.375"
       cy="67.125"
       r="3.125"
       fx="74.375"
       fy="67.125"
       id="radialGradient3451"
       xlink:href="#linearGradient3543"
       gradientUnits="userSpaceOnUse" />
    <linearGradient
       id="linearGradient5226-0">
      <stop
         id="stop5228-7"
         style="stop-color:#ffffff;stop-opacity:1"
         offset="0" />
      <stop
         id="stop5230-6"
         style="stop-color:#ffffff;stop-opacity:0"
         offset="1" />
    </linearGradient>
    <radialGradient
       cx="74.375"
       cy="67.125"
       r="3.125"
       fx="74.375"
       fy="67.125"
       id="radialGradient3216"
       xlink:href="#linearGradient3543"
       gradientUnits="userSpaceOnUse" />
    <radialGradient
       cx="49.233551"
       cy="70.608253"
       r="25.483549"
       fx="49.233551"
       fy="70.608253"
       id="radialGradient4246"
       xlink:href="#linearGradient5226-0"
       gradientUnits="userSpaceOnUse"
       gradientTransform="matrix(0.46811249,-0.52911558,1.7948202,1.5821666,-112.03757,-37.344561)" />
    <radialGradient
       cx="63.875"
       cy="2.2173476"
       r="58.375"
       fx="63.875"
       fy="2.2173476"
       id="radialGradient4248"
       xlink:href="#linearGradient5226-0"
       gradientUnits="userSpaceOnUse"
       gradientTransform="matrix(1.0948456,0,0,0.33117465,-21.844872,32.792567)" />
    <radialGradient
       cx="69.75"
       cy="75.973572"
       r="58.5"
       fx="69.75"
       fy="75.973572"
       id="radialGradient4250"
       xlink:href="#linearGradient5226-0"
       gradientUnits="userSpaceOnUse"
       gradientTransform="matrix(2.2593878,-0.06832043,0.00797869,0.26385907,-105.95706,38.8624)" />
    <radialGradient
       cx="64.230392"
       cy="68.449158"
       r="43.769611"
       fx="64.230392"
       fy="68.449158"
       id="radialGradient4252"
       xlink:href="#linearGradient5226-0"
       gradientUnits="userSpaceOnUse"
       gradientTransform="matrix(1.4544425,0,0,0.92610887,-45.079796,-12.6013)" />
    <radialGradient
       cx="74.375"
       cy="67.125"
       r="3.125"
       fx="74.375"
       fy="67.125"
       id="radialGradient3354"
       xlink:href="#linearGradient3543"
       gradientUnits="userSpaceOnUse" />
    <linearGradient
       x1="11.998966"
       y1="0.92195445"
       x2="11.998966"
       y2="19.387045"
       id="linearGradient4121-9"
       gradientUnits="userSpaceOnUse"
       gradientTransform="scale(0.9219544,1.0846523)">
      <stop
         id="stop4123-7"
         style="stop-color:#313233;stop-opacity:1"
         offset="0" />
      <stop
         id="stop4125-7"
         style="stop-color:#23486a;stop-opacity:1"
         offset="1" />
    </linearGradient>
    <linearGradient
       x1="56"
       y1="16"
       x2="56"
       y2="80"
       id="linearGradient3175"
       xlink:href="#linearGradient4121-9"
       gradientUnits="userSpaceOnUse"
       gradientTransform="matrix(0.88281209,0,0,0.89965146,5.62502,13.562884)" />
    <linearGradient
       inkscape:collect="always"
       xlink:href="#linearGradient5665"
       id="linearGradient5667"
       x1="-36.083862"
       y1="75.668488"
       x2="-36.083862"
       y2="20.025522"
       gradientUnits="userSpaceOnUse" />
    <clipPath
       id="clipPath3836">
      <path
         d="m 112,6 c -3.324,0 -6,2.676 -6,6 v 23.71875 c 4.16476,5.590927 10.83896,9.218751 18.34375,9.21875 12.61273,0 22.84375,-10.231021 22.84375,-22.84375 0,-6.274884 -2.52698,-11.964405 -6.625,-16.09375 h -7.34375 c 5.78119,3.1123067 9.71875,9.225149 9.71875,16.25 0,10.181526 -8.25597,18.4375 -18.4375,18.4375 -10.18153,0 -18.4375,-8.255974 -18.4375,-18.4375 0,-7.024851 3.93756,-13.1376933 9.71875,-16.25 z m 34.375,0 0.46875,0.59375 0.5625,-0.40625 0.5,-0.1875 z m 5.96875,0 0.40625,0.75 -1.65625,2.15625 -1.4375,1.1875 -0.625,0.28125 1.0625,2.5625 0.65625,-0.25 1.84375,-0.15625 2.71875,0.34375 0.4375,1.71875 -2.15625,1.6875 -1.6875,0.75 -0.6875,0.125 0.375,2.75 0.6875,-0.0625 1.8125,0.3125 2.53125,1.0625 V 23 l -2.53125,1.03125 -1.8125,0.3125 -0.6875,-0.0625 -0.375,2.75 0.6875,0.125 1.6875,0.75 2.15625,1.6875 -0.4375,1.71875 -2.71875,0.375 L 150.75,31.5 l -0.65625,-0.21875 -1.0625,2.5625 0.625,0.25 1.4375,1.1875 1.65625,2.1875 L 151.875,39 149.15625,38.65625 147.40625,38 l -0.5625,-0.375 -1.6875,2.1875 0.53125,0.4375 1.0625,1.5 1.0625,2.53125 -1.25,1.28125 L 144,44.5 l -1.5,-1.0625 -0.4375,-0.53125 -2.1875,1.6875 0.375,0.5625 0.65625,1.75 0.34375,2.71875 -1.53125,0.875 -2.1875,-1.65625 -1.15625,-1.4375 -0.3125,-0.625 -2.53125,1.0625 0.21875,0.65625 0.1875,1.84375 -0.375,2.71875 -1.71875,0.46875 -1.65625,-2.1875 -0.78125,-1.6875 -0.125,-0.6875 -2.71875,0.375 L 126.625,50 126.3125,51.84375 125.25,54.375 h -1.78125 L 122.40625,51.84375 122.125,50 l 0.0625,-0.65625 -2.75,-0.375 -0.125,0.6875 -0.75,1.6875 -1.6875,2.1875 -1.71875,-0.46875 -0.375,-2.71875 0.15625,-1.84375 0.25,-0.65625 -2.53125,-1.0625 -0.3125,0.625 -1.1875,1.4375 L 109,50.5 l -1.5625,-0.875 0.375,-2.71875 0.625,-1.75 0.40625,-0.5625 -2.1875,-1.6875 -0.4375,0.53125 L 106,43.59375 V 84 c 0,3.324 2.676,6 6,6 h 25.875 l -0.25,-0.40625 1.84375,-2.4375 1.59375,-1.28125 0.65625,-0.34375 -1.15625,-2.8125 -0.71875,0.25 -2.03125,0.21875 -3,-0.40625 -0.53125,-1.90625 2.40625,-1.875 1.875,-0.8125 0.75,-0.15625 L 138.90625,75 l -0.75,0.0625 -2.03125,-0.34375 -2.8125,-1.15625 v -1.96875 l 2.8125,-1.1875 2.03125,-0.3125 0.75,0.0625 0.40625,-3.03125 -0.75,-0.15625 -1.875,-0.84375 -2.40625,-1.84375 0.53125,-1.90625 3,-0.40625 2.03125,0.1875 0.71875,0.25 1.15625,-2.8125 -0.65625,-0.3125 -1.59375,-1.3125 -1.84375,-2.40625 1,-1.71875 3,0.40625 1.90625,0.71875 0.625,0.4375 1.875,-2.4375 -0.59375,-0.5 L 144.25,50.8125 143.09375,48 144.5,46.625 l 2.8125,1.125 1.65625,1.21875 0.5,0.5625 2.40625,-1.84375 -0.4375,-0.65625 -0.6875,-1.875 -0.40625,-3.03125 1.6875,-1 2.4375,1.84375 1.3125,1.59375 0.3125,0.6875 2.8125,-1.1875 -0.25,-0.6875 -0.1875,-2.0625 0.40625,-3 1.875,-0.5 1.875,2.40625 0.84375,1.875 0.125,0.71875 3.03125,-0.375 -0.0625,-0.78125 0.34375,-2 1.1875,-2.8125 h 1.96875 l 1.15625,2.8125 0.34375,2 -0.0625,0.78125 3.03125,0.375 0.125,-0.71875 0.84375,-1.875 1.875,-2.40625 1.875,0.5 0.4375,3 -0.21875,2.0625 -0.25,0.6875 2.8125,1.1875 0.34375,-0.6875 1.28125,-1.59375 2.40625,-1.84375 1.71875,1 -0.375,3.03125 -0.75,1.875 -0.40625,0.65625 2.40625,1.84375 0.5,-0.5625 L 190,48.34375 V 12 c 0,-3.324 -2.676,-6 -6,-6 z M 124.5,8.625 c -7.53154,0 -13.65625,6.09346 -13.65625,13.625 0,7.53154 6.12471,13.65625 13.65625,13.65625 7.53154,0 13.625,-6.12471 13.625,-13.65625 0,-7.53154 -6.09346,-13.625 -13.625,-13.625 z m 44.5625,38.53125 c -5.74578,0 -11.05193,1.907852 -15.3125,5.125 l 8.15625,8.78125 c 2.0761,-1.293182 4.53192,-2.03125 7.15625,-2.03125 1.32352,0 2.60305,0.17696 3.8125,0.53125 l 5.5,-10.625 c -2.88236,-1.135296 -6.0278,-1.78125 -9.3125,-1.78125 z m 13.90625,4.15625 -5.5,10.65625 c 3.0873,2.451345 5.10585,6.203919 5.15625,10.4375 L 190,73.75 V 58.1875 c -1.87421,-2.717952 -4.26324,-5.061314 -7.03125,-6.875 z m -62.65625,2.15625 h 1.21875 l 0.9375,2.09375 0.0625,0.71875 -0.1875,1.28125 2.21875,0.59375 0.46875,-1.1875 0.4375,-0.59375 1.875,-1.3125 1.0625,0.625 -0.25,2.25 -0.28125,0.6875 -0.8125,0.96875 1.625,1.65625 1,-0.78125 0.6875,-0.3125 2.25,-0.21875 0.625,1.0625 -1.34375,1.84375 -0.59375,0.4375 -1.1875,0.46875 0.59375,2.21875 1.25,-0.1875 0.75,0.09375 2.0625,0.9375 v 1.25 L 132.6875,69 l -0.71875,0.0625 -1.25,-0.1875 -0.625,2.21875 1.1875,0.46875 0.59375,0.4375 1.34375,1.84375 -0.625,1.0625 -2.28125,-0.21875 -0.65625,-0.3125 -1,-0.78125 -1.625,1.625 0.78125,1 0.28125,0.65625 0.21875,2.28125 -1.0625,0.59375 -1.84375,-1.3125 -0.4375,-0.625 -0.46875,-1.15625 -2.21875,0.5625 0.1875,1.28125 -0.0625,0.71875 -0.96875,2.09375 h -1.21875 l -0.9375,-2.09375 -0.0625,-0.75 0.1875,-1.25 -2.21875,-0.59375 -0.5,1.1875 -0.40625,0.59375 -1.875,1.3125 -1.0625,-0.625 0.21875,-2.25 0.3125,-0.6875 0.8125,-1 -1.625,-1.625 -1,0.78125 -0.6875,0.3125 -2.28125,0.21875 -0.59375,-1.0625 1.34375,-1.875 0.59375,-0.40625 1.1875,-0.46875 -0.59375,-2.21875 -1.25,0.15625 -0.75,-0.0625 -2.0625,-0.9375 v -1.25 l 2.0625,-0.9375 0.75,-0.0625 1.25,0.1875 0.59375,-2.21875 -1.15625,-0.46875 -0.59375,-0.4375 -1.34375,-1.84375 0.625,-1.0625 2.28125,0.21875 0.65625,0.3125 1,0.78125 1.625,-1.625 -0.78125,-1 L 113.625,57.90625 113.40625,55.625 114.5,55 l 1.84375,1.34375 0.4375,0.59375 0.4375,1.1875 2.25,-0.59375 -0.1875,-1.25 0.0625,-0.71875 z m 29.625,2.34375 c -3.93256,4.474843 -6.3125,10.329221 -6.3125,16.75 0,2.868692 0.49734,5.613964 1.375,8.1875 l 10.90625,-4.96875 C 155.65791,74.755862 155.5,73.663871 155.5,72.5625 c 0,-2.983379 0.9581,-5.72947 2.59375,-7.96875 z m -29.09375,8.375 c -1.81315,0 -3.28125,1.468102 -3.28125,3.28125 0,1.813148 1.4681,3.28125 3.28125,3.28125 1.81315,0 3.28125,-1.468102 3.28125,-3.28125 0,-1.813148 -1.4681,-3.28125 -3.28125,-3.28125 z m 48.21875,3.28125 c -2.78946,0 -5.03125,2.241791 -5.03125,5.03125 0,2.789459 2.24179,5.0625 5.03125,5.0625 2.78946,0 5.0625,-2.273041 5.0625,-5.0625 0,-2.789459 -2.27304,-5.03125 -5.0625,-5.03125 z M 181.6875,77.5 c -1.44987,3.708793 -4.49322,6.621554 -8.28125,7.90625 L 174.03125,90 H 184 c 3.324,0 6,-2.676 6,-6 v -4.96875 z m -23.625,2.96875 -10.90625,5 c 0.96641,1.636602 2.11102,3.15601 3.40625,4.53125 h 18.25 l -0.53125,-3.90625 c -4.20392,-0.242792 -7.90236,-2.407521 -10.21875,-5.625 z M 144.15625,89.75 143.8125,90 h 0.53125 z"
         id="path3838"
         style="fill:#ffffff;fill-opacity:1;fill-rule:nonzero;stroke:none" />
    </clipPath>
    <filter
       x="-1.7217632e-05"
       y="-1.7217632e-05"
       width="1.0000344"
       height="1.0000344"
       color-interpolation-filters="sRGB"
       id="filter3879">
      <feGaussianBlur
         id="feGaussianBlur3881"
         stdDeviation="0.00060261708" />
    </filter>
    <linearGradient
       x1="57.51778"
       y1="90"
       x2="57.51778"
       y2="5.5969558"
       id="linearGradient3846"
       xlink:href="#linearGradient3848"
       gradientUnits="userSpaceOnUse" />
    <linearGradient
       x1="58.650177"
       y1="122"
       x2="58.650177"
       y2="5.4252338"
       id="linearGradient3848"
       gradientUnits="userSpaceOnUse"
       gradientTransform="matrix(1.0172414,0,0,1.0172414,-1.1034483,-1.1034483)">
      <stop
         id="stop3850"
         style="stop-color:#ffffff;stop-opacity:1;"
         offset="0" />
      <stop
         id="stop3852"
         style="stop-color:#77a9d7;stop-opacity:1;"
         offset="1" />
    </linearGradient>
    <clipPath
       id="clipPath3867">
      <path
         d="m 115.78125,6 c -5.78119,3.1123067 -9.71875,9.225149 -9.71875,16.25 0,10.181526 8.25597,18.4375 18.4375,18.4375 10.18153,0 18.4375,-8.255974 18.4375,-18.4375 0,-7.024851 -3.93756,-13.1376933 -9.71875,-16.25 z m 24.78125,0 c 4.09802,4.129345 6.625,9.818866 6.625,16.09375 0,12.612729 -10.23102,22.84375 -22.84375,22.84375 -7.50479,10e-7 -14.17899,-3.627823 -18.34375,-9.21875 v 7.875 l 0.21875,-0.15625 0.4375,-0.53125 2.1875,1.6875 -0.40625,0.5625 -0.625,1.75 -0.375,2.71875 1.5625,0.875 2.15625,-1.65625 1.1875,-1.4375 0.3125,-0.625 2.53125,1.0625 -0.25,0.65625 -0.15625,1.84375 0.375,2.71875 1.71875,0.46875 1.6875,-2.1875 0.75,-1.6875 0.125,-0.6875 2.75,0.375 L 122.125,50 l 0.28125,1.84375 1.0625,2.53125 H 125.25 L 126.3125,51.84375 126.625,50 l -0.0625,-0.65625 2.71875,-0.375 0.125,0.6875 0.78125,1.6875 1.65625,2.1875 1.71875,-0.46875 0.375,-2.71875 L 133.75,48.5 l -0.21875,-0.65625 2.53125,-1.0625 0.3125,0.625 1.15625,1.4375 2.1875,1.65625 1.53125,-0.875 -0.34375,-2.71875 -0.65625,-1.75 -0.375,-0.5625 2.1875,-1.6875 0.4375,0.53125 1.5,1.0625 2.5625,1.0625 1.25,-1.28125 -1.0625,-2.53125 -1.0625,-1.5 -0.53125,-0.4375 1.6875,-2.1875 0.5625,0.375 1.75,0.65625 L 151.875,39 l 0.875,-1.53125 -1.65625,-2.1875 -1.4375,-1.1875 -0.625,-0.25 1.0625,-2.5625 0.65625,0.21875 1.84375,0.1875 2.71875,-0.375 0.4375,-1.71875 -2.15625,-1.6875 -1.6875,-0.75 -0.6875,-0.125 0.375,-2.75 0.6875,0.0625 1.8125,-0.3125 L 156.625,23 v -1.78125 l -2.53125,-1.0625 -1.8125,-0.3125 -0.6875,0.0625 -0.375,-2.75 0.6875,-0.125 1.6875,-0.75 2.15625,-1.6875 -0.4375,-1.71875 -2.71875,-0.34375 -1.84375,0.15625 -0.65625,0.25 -1.0625,-2.5625 0.625,-0.28125 1.4375,-1.1875 L 152.75,6.75 152.34375,6 h -4.4375 l -0.5,0.1875 -0.5625,0.40625 L 146.375,6 Z M 124.5,8.625 c 7.53154,0 13.625,6.09346 13.625,13.625 0,7.53154 -6.09346,13.65625 -13.625,13.65625 -7.53154,0 -13.65625,-6.12471 -13.65625,-13.65625 0,-7.53154 6.12471,-13.625 13.65625,-13.625 z m 43.59375,28.21875 -1.1875,2.8125 -0.34375,2 0.0625,0.78125 -3.03125,0.375 -0.125,-0.71875 -0.84375,-1.875 -1.875,-2.40625 -1.875,0.5 -0.40625,3 0.1875,2.0625 0.25,0.6875 -2.8125,1.1875 -0.3125,-0.6875 -1.3125,-1.59375 -2.4375,-1.84375 -1.6875,1 0.40625,3.03125 0.6875,1.875 0.4375,0.65625 -2.40625,1.84375 -0.5,-0.5625 L 147.3125,47.75 144.5,46.625 143.09375,48 l 1.15625,2.8125 1.1875,1.65625 0.59375,0.5 -1.875,2.4375 -0.625,-0.4375 -1.90625,-0.71875 -3,-0.40625 -1,1.71875 1.84375,2.40625 1.59375,1.3125 0.65625,0.3125 -1.15625,2.8125 -0.71875,-0.25 -2.03125,-0.1875 -3,0.40625 -0.53125,1.90625 2.40625,1.84375 1.875,0.84375 0.75,0.15625 -0.40625,3.03125 -0.75,-0.0625 -2.03125,0.3125 -2.8125,1.1875 v 1.96875 l 2.8125,1.15625 2.03125,0.34375 0.75,-0.0625 0.40625,3.03125 -0.75,0.15625 -1.875,0.8125 -2.40625,1.875 0.53125,1.90625 3,0.40625 2.03125,-0.21875 0.71875,-0.25 1.15625,2.8125 -0.65625,0.34375 -1.59375,1.28125 -1.84375,2.4375 0.25,0.40625 h 5.9375 l 0.34375,-0.25 0.1875,0.25 h 6.21875 c -1.29523,-1.37524 -2.43984,-2.894648 -3.40625,-4.53125 l 10.90625,-5 c 2.31639,3.217479 6.01482,5.382208 10.21875,5.625 L 168.8125,90 h 5.21875 l -0.625,-4.59375 c 3.78803,-1.284696 6.83138,-4.197457 8.28125,-7.90625 L 190,79.03125 V 73.75 l -7.375,-1.34375 c -0.0504,-4.233581 -2.06895,-7.986155 -5.15625,-10.4375 l 5.5,-10.65625 c 2.76801,1.813686 5.15704,4.157048 7.03125,6.875 v -9.84375 l -0.84375,0.625 -0.5,0.5625 -2.40625,-1.84375 0.40625,-0.65625 0.75,-1.875 0.375,-3.03125 -1.71875,-1 -2.40625,1.84375 -1.28125,1.59375 -0.34375,0.6875 -2.8125,-1.1875 0.25,-0.6875 0.21875,-2.0625 -0.4375,-3 -1.875,-0.5 -1.875,2.40625 -0.84375,1.875 -0.125,0.71875 -3.03125,-0.375 0.0625,-0.78125 -0.34375,-2 -1.15625,-2.8125 z m 0.96875,10.3125 c 3.2847,0 6.43014,0.645954 9.3125,1.78125 l -5.5,10.625 c -1.20945,-0.35429 -2.48898,-0.53125 -3.8125,-0.53125 -2.62433,0 -5.08015,0.738068 -7.15625,2.03125 L 153.75,52.28125 c 4.26057,-3.217148 9.56672,-5.125 15.3125,-5.125 z m -48.75,6.3125 -0.96875,2.09375 -0.0625,0.71875 0.1875,1.25 -2.25,0.59375 -0.4375,-1.1875 -0.4375,-0.59375 L 114.5,55 l -1.09375,0.625 0.21875,2.28125 0.3125,0.65625 0.78125,1 -1.625,1.625 -1,-0.78125 -0.65625,-0.3125 -2.28125,-0.21875 -0.625,1.0625 1.34375,1.84375 0.59375,0.4375 1.15625,0.46875 -0.59375,2.21875 -1.25,-0.1875 -0.75,0.0625 -2.0625,0.9375 v 1.25 l 2.0625,0.9375 0.75,0.0625 1.25,-0.15625 0.59375,2.21875 -1.1875,0.46875 -0.59375,0.40625 -1.34375,1.875 0.59375,1.0625 2.28125,-0.21875 0.6875,-0.3125 1,-0.78125 1.625,1.625 -0.8125,1 -0.3125,0.6875 -0.21875,2.25 1.0625,0.625 1.875,-1.3125 0.40625,-0.59375 0.5,-1.1875 2.21875,0.59375 -0.1875,1.25 0.0625,0.75 0.9375,2.09375 h 1.21875 l 0.96875,-2.09375 0.0625,-0.71875 -0.1875,-1.28125 2.21875,-0.5625 0.46875,1.15625 0.4375,0.625 1.84375,1.3125 1.0625,-0.59375 -0.21875,-2.28125 -0.28125,-0.65625 -0.78125,-1 1.625,-1.625 1,0.78125 0.65625,0.3125 2.28125,0.21875 0.625,-1.0625 L 131.875,72 l -0.59375,-0.4375 -1.1875,-0.46875 0.625,-2.21875 1.25,0.1875 0.71875,-0.0625 2.09375,-0.9375 v -1.25 l -2.0625,-0.9375 -0.75,-0.09375 -1.25,0.1875 -0.59375,-2.21875 1.1875,-0.46875 0.59375,-0.4375 L 133.25,61 l -0.625,-1.0625 -2.25,0.21875 -0.6875,0.3125 -1,0.78125 -1.625,-1.65625 0.8125,-0.96875 0.28125,-0.6875 0.25,-2.25 -1.0625,-0.625 -1.875,1.3125 -0.4375,0.59375 -0.46875,1.1875 -2.21875,-0.59375 0.1875,-1.28125 -0.0625,-0.71875 -0.9375,-2.09375 z m 29.625,2.34375 8.15625,8.78125 C 156.4581,66.83303 155.5,69.579121 155.5,72.5625 c 0,1.101371 0.15791,2.193362 0.40625,3.21875 L 145,80.75 c -0.87766,-2.573536 -1.375,-5.318808 -1.375,-8.1875 0,-6.420779 2.37994,-12.275157 6.3125,-16.75 z m -29.09375,8.375 c 1.81315,0 3.28125,1.468102 3.28125,3.28125 0,1.813148 -1.4681,3.28125 -3.28125,3.28125 -1.81315,0 -3.28125,-1.468102 -3.28125,-3.28125 0,-1.813148 1.4681,-3.28125 3.28125,-3.28125 z m 48.21875,3.28125 c 2.78946,0 5.0625,2.241791 5.0625,5.03125 0,2.789459 -2.27304,5.0625 -5.0625,5.0625 -2.78946,0 -5.03125,-2.273041 -5.03125,-5.0625 0,-2.789459 2.24179,-5.03125 5.03125,-5.03125 z"
         id="path3869"
         style="display:inline;fill:#ffffff;fill-opacity:1;stroke:none" />
    </clipPath>
    <filter
       color-interpolation-filters="sRGB"
       id="filter3875"
       x="-0.0089457891"
       y="-0.0089457891"
       width="1.0178916"
       height="1.0183825">
      <feGaussianBlur
         id="feGaussianBlur3877"
         stdDeviation="0.00060261708" />
    </filter>
    <linearGradient
       inkscape:collect="always"
       xlink:href="#linearGradient20800"
       id="linearGradient20802"
       x1="-47.754326"
       y1="52.579823"
       x2="-47.754326"
       y2="45.682644"
       gradientUnits="userSpaceOnUse" />
    <linearGradient
       inkscape:collect="always"
       xlink:href="#linearGradient21536"
       id="linearGradient21538"
       x1="-24.302359"
       y1="52.579823"
       x2="-24.302359"
       y2="45.682644"
       gradientUnits="userSpaceOnUse" />
  </defs>
  <metadata
     id="metadata2413">
    <rdf:RDF>
      <cc:Work
         rdf:about="">
        <dc:format>image/svg+xml</dc:format>
        <dc:type
           rdf:resource="http://purl.org/dc/dcmitype/StillImage" />
      </cc:Work>
    </rdf:RDF>
  </metadata>
  <g
     id="layer2"
     style="display:none">
    <rect
       width="86"
       height="85"
       rx="6"
       ry="6"
       x="5"
       y="7"
       id="rect3745"
       style="opacity:0.9;fill:url(#ButtonShadow);fill-opacity:1;fill-rule:nonzero;stroke:none;filter:url(#filter3174)" />
  </g>
  <g
     id="layer5"
     style="display:inline">
    <path
       d="m 12,-95.03125 c -5.5110903,0 -10.03125,4.52016 -10.03125,10.03125 v 71 c 0,5.5110902 4.5201598,10.03125 10.03125,10.03125 h 72 c 5.51109,0 10.03125,-4.5201597 10.03125,-10.03125 v -71 c 0,-5.51109 -4.52016,-10.03125 -10.03125,-10.03125 z"
       transform="scale(1,-1)"
       id="path3786"
       style="display:inline;opacity:0.08;fill:url(#linearGradient3071);fill-opacity:1;fill-rule:nonzero;stroke:none" />
    <path
       d="m 12,-94.03125 c -4.971633,0 -9.03125,4.059617 -9.03125,9.03125 v 71 c 0,4.9716329 4.0596171,9.03125 9.03125,9.03125 h 72 c 4.971633,0 9.03125,-4.059617 9.03125,-9.03125 v -71 c 0,-4.971633 -4.059617,-9.03125 -9.03125,-9.03125 z"
       transform="scale(1,-1)"
       id="path3778"
       style="display:inline;opacity:0.1;fill:url(#linearGradient3780);fill-opacity:1;fill-rule:nonzero;stroke:none" />
    <path
       d="m 12,-93 c -4.4091333,0 -8,3.590867 -8,8 v 71 c 0,4.4091333 3.5908667,8 8,8 h 72 c 4.409133,0 8,-3.5908667 8,-8 v -71 c 0,-4.409133 -3.590867,-8 -8,-8 z"
       transform="scale(1,-1)"
       id="path3770"
       style="display:inline;opacity:0.2;fill:url(#linearGradient3772);fill-opacity:1;fill-rule:nonzero;stroke:none" />
    <rect
       width="86"
       height="85"
       rx="7"
       ry="7"
       x="5"
       y="-92"
       transform="scale(1,-1)"
       id="rect3723"
       style="display:inline;opacity:0.3;fill:url(#linearGradient3725);fill-opacity:1;fill-rule:nonzero;stroke:none" />
    <rect
       width="84"
       height="84"
       rx="6"
       ry="6"
       x="6"
       y="-91"
       transform="scale(1,-1)"
       id="rect3716"
       style="display:inline;opacity:0.45;fill:url(#linearGradient3721);fill-opacity:1;fill-rule:nonzero;stroke:none" />
  </g>
  <g
     id="layer1"
     style="display:inline">
    <rect
       width="84"
       height="84"
       rx="6"
       ry="6"
       x="6"
       y="6"
       id="rect2419-8"
       style="display:inline;fill:url(#linearGradient3345);fill-opacity:1;fill-rule:nonzero;stroke:none" />
    <path
       d="m 12,6.0000002 c -3.324,0 -6,2.676 -6,5.9999998 v 2 68 2 c 0,0.334721 0.04135,0.6507 0.09375,0.96875 0.0487,0.295596 0.09704,0.596915 0.1875,0.875 0.00988,0.03038 0.020892,0.0636 0.03125,0.09375 0.098865,0.287771 0.2348802,0.547452 0.375,0.8125 0.1445918,0.273507 0.3156161,0.535615 0.5,0.78125 0.1843839,0.245635 0.3737765,0.473472 0.59375,0.6875 0.439947,0.428056 0.94291,0.814526 1.5,1.09375 0.278545,0.139612 0.5734731,0.246947 0.875,0.34375 -0.2562018,-0.100222 -0.4867109,-0.236272 -0.71875,-0.375 -0.00741,-0.0044 -0.023866,0.0045 -0.03125,0 -0.031933,-0.0193 -0.062293,-0.04251 -0.09375,-0.0625 -0.120395,-0.0767 -0.2310226,-0.163513 -0.34375,-0.25 -0.1061728,-0.0808 -0.2132809,-0.161112 -0.3125,-0.25 C 8.4783201,88.557317 8.3087904,88.373362 8.15625,88.1875 8.0486711,88.057245 7.9378561,87.922215 7.84375,87.78125 7.818661,87.74287 7.805304,87.69538 7.78125,87.65625 7.716487,87.553218 7.6510225,87.451733 7.59375,87.34375 7.4927417,87.149044 7.3880752,86.928049 7.3125,86.71875 7.30454,86.69694 7.288911,86.6782 7.28125,86.65625 7.249425,86.5643 7.245445,86.469419 7.21875,86.375 7.188418,86.268382 7.148361,86.171969 7.125,86.0625 7.052121,85.720988 7,85.364295 7,85 V 83 15 13 C 7,10.218152 9.2181517,8.0000002 12,8.0000002 h 2 68 2 c 2.781848,0 5,2.2181518 5,4.9999998 v 2 68 2 c 0,0.364295 -0.05212,0.720988 -0.125,1.0625 -0.04415,0.206893 -0.08838,0.397658 -0.15625,0.59375 -0.0077,0.02195 -0.0233,0.04069 -0.03125,0.0625 -0.06274,0.173739 -0.138383,0.367449 -0.21875,0.53125 -0.04158,0.0828 -0.07904,0.169954 -0.125,0.25 -0.0546,0.09721 -0.126774,0.18835 -0.1875,0.28125 -0.09411,0.140965 -0.204921,0.275995 -0.3125,0.40625 -0.143174,0.17445 -0.303141,0.346998 -0.46875,0.5 -0.01117,0.0102 -0.01998,0.02115 -0.03125,0.03125 -0.138386,0.125556 -0.285091,0.234436 -0.4375,0.34375 -0.102571,0.07315 -0.204318,0.153364 -0.3125,0.21875 -0.0074,0.0045 -0.02384,-0.0044 -0.03125,0 -0.232039,0.138728 -0.462548,0.274778 -0.71875,0.375 0.301527,-0.0968 0.596455,-0.204138 0.875,-0.34375 0.55709,-0.279224 1.060053,-0.665694 1.5,-1.09375 0.219973,-0.214028 0.409366,-0.441865 0.59375,-0.6875 0.184384,-0.245635 0.355408,-0.507743 0.5,-0.78125 0.14012,-0.265048 0.276135,-0.524729 0.375,-0.8125 0.01041,-0.03078 0.02133,-0.06274 0.03125,-0.09375 0.09046,-0.278085 0.1388,-0.579404 0.1875,-0.875 C 89.95865,84.6507 90,84.334721 90,84 V 82 14 12 C 90,8.6760002 87.324,6.0000002 84,6.0000002 Z"
       inkscape:connector-curvature="0"
       id="rect3728"
       style="display:inline;opacity:0.35;fill:url(#linearGradient3188-9);fill-opacity:1;fill-rule:nonzero;stroke:none" />
    <path
       d="M 12,90 C 8.676,90 6,87.324 6,84 V 82 14 12 c 0,-0.33472 0.04135,-0.6507 0.09375,-0.96875 0.0487,-0.2956 0.09704,-0.59691 0.1875,-0.875 0.00988,-0.0304 0.020892,-0.0636 0.03125,-0.0937 C 6.411365,9.77478 6.5473802,9.5151 6.6875,9.25005 6.8320918,8.97654 7.0031161,8.71443 7.1875,8.4688 7.3718839,8.22317 7.5612765,7.99533 7.78125,7.7813 8.221197,7.35324 8.72416,6.96677 9.28125,6.68755 9.559795,6.54794 9.8547231,6.4406 10.15625,6.3438 9.9000482,6.44402 9.6695391,6.58007 9.4375,6.7188 9.43009,6.7228 9.413634,6.7148 9.40625,6.7188 9.374317,6.7381 9.343957,6.7613 9.3125,6.7813 9.192105,6.858 9.0814774,6.94481 8.96875,7.0313 8.8625772,7.1121 8.7554691,7.19241 8.65625,7.2813 8.4783201,7.44273 8.3087904,7.62669 8.15625,7.81255 8.0486711,7.94281 7.9378561,8.07784 7.84375,8.2188 7.818661,8.2572 7.805304,8.3047 7.78125,8.3438 7.716487,8.44683 7.6510225,8.54832 7.59375,8.6563 7.4927417,8.85101 7.3880752,9.072 7.3125,9.2813 7.30454,9.3031 7.288911,9.3218 7.28125,9.3438 7.249425,9.4357 7.245445,9.53063 7.21875,9.62505 7.188418,9.73167 7.148361,9.82808 7.125,9.93755 7.052121,10.27901 7,10.63571 7,11 v 2 68 2 c 0,2.78185 2.2181517,5 5,5 h 2 68 2 c 2.781848,0 5,-2.21815 5,-5 V 81 13 11 C 89,10.63571 88.94788,10.27901 88.875,9.9375 88.83085,9.73061 88.78662,9.53984 88.71875,9.34375 88.71105,9.32175 88.69545,9.30305 88.6875,9.28125 88.62476,9.10751 88.549117,8.9138 88.46875,8.75 88.42717,8.6672 88.38971,8.58005 88.34375,8.5 88.28915,8.4028 88.216976,8.31165 88.15625,8.21875 88.06214,8.07779 87.951329,7.94276 87.84375,7.8125 87.700576,7.63805 87.540609,7.4655 87.375,7.3125 87.36383,7.3023 87.35502,7.2913 87.34375,7.2813 87.205364,7.15574 87.058659,7.04686 86.90625,6.93755 86.803679,6.86445 86.701932,6.78419 86.59375,6.7188 c -0.0074,-0.004 -0.02384,0.004 -0.03125,0 -0.232039,-0.13873 -0.462548,-0.27478 -0.71875,-0.375 0.301527,0.0968 0.596455,0.20414 0.875,0.34375 0.55709,0.27922 1.060053,0.66569 1.5,1.09375 0.219973,0.21403 0.409366,0.44187 0.59375,0.6875 0.184384,0.24563 0.355408,0.50774 0.5,0.78125 0.14012,0.26505 0.276135,0.52473 0.375,0.8125 0.01041,0.0308 0.02133,0.0627 0.03125,0.0937 0.09046,0.27809 0.1388,0.5794 0.1875,0.875 C 89.95865,11.3493 90,11.66528 90,12 v 2 68 2 c 0,3.324 -2.676,6 -6,6 z"
       inkscape:connector-curvature="0"
       id="path3615"
       style="display:inline;opacity:0.25;fill:url(#radialGradient2855-1);fill-opacity:1;fill-rule:nonzero;stroke:none" />
    <path
       d="m 36.27388,6.096377 c 1.65012,2.2155912 0.11259,5.915398 2.60148,5.878671 1.2119,1.713164 -2.41545,0.511042 0.2036,1.831432 1.5061,1.185988 -1.5934,1.863613 0.27178,2.927919 -2.14968,1.109114 0.34844,5.801103 1.94512,6.97538 2.62795,2.212061 1.1622,-4.683394 4.0945,-5.04209 1.59336,-1.818795 4.39184,-2.986327 6.37927,-4.815989 -1.9423,-0.15766 -3.07647,-1.366454 -1.23702,-2.115252 3.38545,3.468671 0.8489,-1.642711 -1.02514,-2.452023 1.81336,-0.5767594 3.57698,-0.154404 3.32537,-1.6505493 1.91632,-1.4018192 -1.84226,-1.8544226 -3.18394,-1.5374987 -4.45834,0 -8.91667,0 -13.37502,0 z M 8.472035,7.5434349 C 6.022275,8.2412831 5.851393,14.095058 8.313685,10.844535 8.918028,9.50983 11.710762,7.901324 8.472035,7.5434349 Z M 19.918529,7.746927 c -1.41226,2.214241 0.204911,3.989518 1.379911,1.288786 0.83171,-1.1277826 -0.617931,-1.2474651 -1.379911,-1.288786 z m 3.528951,0.4974263 c -2.728751,1.2645837 -0.6726,4.2134717 -0.60506,4.8693197 2.87457,0.994334 4.47323,-0.650114 5.56069,2.160413 2.73516,1.576152 -0.0538,4.314918 -1.08054,5.028176 1.84934,-1.610389 5.40416,4.378304 4.47226,1.214321 -1.11179,-0.811673 2.98515,1.303915 0.85962,-1.334006 -1.95607,-3.151091 0.15527,-1.410713 0.97995,-0.675273 2.80488,-2.514847 -3.1736,-2.818813 -1.68123,-5.40689 C 30.64542,13.041357 28.93028,9.83304 26.6145,10.46016 25.06426,12.464727 26.40035,6.0923691 24.12589,9.281181 c -0.11789,1.782531 -0.0429,4.044447 -0.70571,0.956351 -0.44407,-0.540606 0.764,-1.7974072 0.0273,-1.9931787 z m -5.56489,0.022612 C 16.050988,8.8775146 16.149361,11.351938 18.401546,11.617212 19.17298,10.738016 18.70804,8.4334551 17.88259,8.2669653 Z M 10.734187,9.058325 c -2.379078,0.563598 -1.407992,2.481632 -0.679572,3.02182 -2.944918,0.737557 4.49569,0.942657 0.79268,1.409793 -3.08079,1.230224 2.966663,2.67961 3.958767,1.220954 3.804388,0.930273 0.136908,-3.045031 -0.197041,-5.199948 -1.612752,-1.7306215 -0.06365,3.989551 -1.521868,0.184316 -0.508787,1.129983 -2.126528,0.166515 -2.352966,-0.636935 z M 86.33531,9.307037 c -3.19244,1.249243 1.98418,5.963472 0.69765,1.674664 -0.12817,-0.517868 0.28819,-1.886169 -0.69765,-1.674664 z M 19.66969,11.2063 c -2.294083,2.155636 2.91599,3.938244 -0.658894,5.54415 -0.53602,-2.001942 -1.458276,1.001608 -3.503467,-0.615111 -3.515899,1.46374 -5.313868,-0.762449 -8.257534,-2.288432 -1.768029,-0.220055 -1.103781,1.679698 -1.220884,3.458474 0,4.915862 0,9.831727 0,14.74759 1.733489,1.823574 0.676329,0.804576 0,0.301602 0.951467,3.240031 -0.419572,7.976266 3.330851,9.860928 0.637563,1.182446 3.312882,6.219986 3.43622,4.712704 -1.341214,-1.404368 -2.717353,-5.614596 -0.447896,-1.862098 2.032756,3.567022 4.774753,5.880584 8.780474,6.729415 2.19006,0.744855 3.99117,3.305322 5.91712,2.741963 1.08905,2.870539 -3.22741,5.627088 0.14491,8.30447 1.76052,2.71045 4.71618,4.488168 3.11596,8.29345 -1.11907,3.716413 -0.63993,7.765882 -1.60779,11.228513 -0.30039,2.107681 2.93804,7.457302 2.65747,3.173531 0.94557,-2.976918 0.92064,-6.252508 3.14759,-8.360679 3.04711,0.02412 0.58237,-3.276114 3.607,-2.844995 1.84565,-2.418872 2.38023,-5.304486 5.49491,-6.264978 0.37205,-2.936144 5.17882,-7.4329 0.21314,-8.576056 -1.34961,-0.665119 -4.8245,-0.904282 -4.55894,-1.232465 0.53803,-2.913429 -4.49347,-3.742841 -6.63424,-4.934817 -2.81075,-1.994856 -7.03423,3.313948 -8.02451,-1.260398 -0.59088,-1.439233 -2.75133,-1.462574 -1.75843,-3.683379 -1.78939,1.779441 -5.28934,1.238624 -4.373028,-2.197824 1.391566,-2.894156 6.735638,-3.031092 7.646258,0.450058 -1.26435,-3.839294 2.44394,-6.828036 4.50253,-9.559465 0.41916,-1.305551 2.90974,-2.427219 2.05268,-0.692077 1.46015,-0.05266 3.67328,-2.687302 1.07941,-1.471281 -0.0367,-2.402702 -2.27298,-1.719417 -2.998,-1.378249 1.34377,-2.132514 8.24498,-0.966646 5.35509,-4.452373 -2.2393,-0.907229 -2.05302,-6.201368 -4.318,-3.251981 0.1906,-1.817243 -4.61001,-5.374474 -4.50525,-2.327163 0.58599,2.726773 0.10714,5.867952 -1.13992,7.655308 -0.26025,-3.995633 -7.075686,-3.112538 -6.199431,-7.370332 1.269451,-2.029282 2.752851,-4.835506 2.894181,-4.583059 2.27505,-0.868509 4.10459,-3.394824 1.46783,-5.055609 -0.14092,1.447483 -1.98303,4.433935 -1.72366,0.821917 -1.705794,2.022175 -1.3162,-3.217808 -2.91375,-3.761252 z m 54.45,1.401837 c -3.99594,0.977352 -5.58007,4.793453 -7.55681,7.954209 -2.91386,1.313584 -2.80294,6.954861 0.45241,5.153113 0.87128,1.52152 -0.60951,3.919724 1.92831,1.930256 2.047,-2.708555 0.35794,-7.089232 3.84142,-8.797142 0.25374,1.32799 -3.21334,6.286746 0.83699,5.471685 3.66156,0.13814 -2.66185,0.364788 -0.88099,2.703385 -1.85027,-1.097665 -0.88884,2.997843 -3.30399,2.044772 -2.09232,1.137967 -3.46433,-0.528366 -2.98503,-2.353789 -1.64596,0.960095 0.5177,3.668626 -2.33958,3.831405 -0.64005,2.272529 -5.90338,1.930002 -2.9102,4.244049 1.3289,3.443647 -4.95154,0.215879 -3.16854,4.348369 1.52545,4.086407 4.7224,-1.354049 6.01943,-2.405153 2.50248,-1.940907 6.21066,3.309444 3.95877,3.504593 2.52508,-0.338743 2.00619,-2.739888 -0.0169,-3.669477 -1.09268,-2.833524 3.45903,1.389634 3.2066,2.810286 1.60595,3.006852 0.94462,-3.078557 2.57885,-0.384373 -0.1908,2.841965 6.57418,0.668223 3.34439,4.290282 -2.77688,0.559235 -5.51013,-0.715787 -7.90083,0.100876 -2.22511,-0.01969 -2.11347,-2.396773 -2.92358,-2.992055 -2.83037,0.229926 -6.32794,0.203926 -8.22277,2.490166 -2.04902,2.810946 -5.00383,6.740445 -2.77053,10.329674 2.23487,5.318818 7.77718,0.27589 10.96298,3.417068 0.94693,1.309731 -0.8206,2.86661 1.2967,4.285291 0.79672,3.022035 -0.90448,5.891404 1.05227,8.780282 1.01184,2.716843 1.63978,6.783262 5.40576,4.300665 3.98577,-2.398255 2.92416,-6.819304 6.21294,-9.268036 -2.60227,-5.035562 3.18363,-7.243505 4.62722,-11.33147 -3.15395,0.461678 -5.96377,-2.682428 -6.72579,-5.847035 -1.32494,-1.53712 -0.98368,-3.80361 0.49633,-0.916013 2.03426,1.970926 2.07821,7.819175 5.84127,4.810628 1.72035,-0.719477 6.4186,-3.464001 2.67511,-4.712977 -2.41304,1.747528 -5.07525,-5.221667 -1.53182,-1.179385 2.57602,1.092759 4.37996,1.743838 4.37996,-1.879216 0,-9.761273 0,-19.654809 0,-29.482214 -0.8024,0.819872 -2.8638,2.334082 -3.90428,1.32791 -1.79037,0.249281 -4.15389,3.732429 -3.59125,0.365356 -1.55624,-0.103042 -0.27858,3.019034 -2.41664,3.106347 -0.21529,1.605089 -2.15987,0.29723 -1.42943,1.821464 -1.50065,-1.064346 -2.77067,-4.424842 0.18614,-2.315577 4.39103,-1.31719 -2.8956,-4.288275 -3.45804,-5.006418 0.94545,-0.226501 -1.02861,-1.211646 -1.26681,-0.881801 z m -36.23968,0.881801 c -1.4615,1.217596 2.77854,1.446893 0,0 z m -19.522371,0.655697 c -1.634647,1.709655 2.603281,1.571667 0,0 z m 9.478421,1.69577 c -1.23786,2.027571 1.82903,0.748571 0,0 z m 27.10058,2.39669 c -1.44923,1.668248 -3.36205,-0.439045 -3.39323,0.994852 0.26265,0.433258 1.31467,3.52554 3.61945,1.243565 1.23698,-0.521451 0.74995,-1.835967 -0.22622,-2.238417 z m -30.85575,0.994852 c -2.74881,2.400285 4.6683,2.621438 0.58232,0.275289 z m 36.2623,6.647418 c -1.97909,1.2904 0.94943,4.030804 -0.0431,5.318079 -1.2401,2.160392 4.60832,-0.152179 1.48461,-1.875826 -0.22257,-1.48088 -1.83002,-3.287723 -1.44154,-3.442253 z m -1.33468,2.600181 c -2.75739,0.779471 -0.62595,4.803849 0.35067,1.013493 0.0549,-0.219748 0.12936,-1.020842 -0.35067,-1.013493 z m -22.0786,2.916726 c -2.56522,1.748962 -0.39843,3.494707 1.48156,2.707775 -0.38596,-1.055239 -1.46417,-1.720102 -1.48156,-2.707775 z m 48.4553,2.939335 c 1.27995,0.645878 -2.34554,1.749213 -0.0498,2.885924 1.33598,1.570889 0.83231,4.942999 -1.3392,2.556372 0.40344,-2.664667 -2.94356,-4.654664 1.38903,-5.442296 z m -6.58287,0.02261 c -0.17366,1.711943 3.69395,4.372967 -0.47504,3.504593 -2.20475,0.258597 -5.50697,-0.06736 -2.72943,-2.814283 0.87765,-0.526822 3.18206,1.817596 1.98292,-0.373765 0.42513,-0.02712 0.82107,-0.18758 1.22155,-0.316545 z M 66.06643,38.0673 c -1.60811,1.035898 1.11199,1.830212 0,0 z m -40.37941,9.654585 c -0.27111,0.904354 5.08598,1.82085 1.38929,0.371963 l -0.55107,-0.193949 z m 4.16235,1.288785 c -1.62491,1.649392 3.34782,0.492772 0,0 z m 54.3369,15.126272 c -3.53072,0.09109 -3.06133,9.197024 -0.60013,3.808943 0.2334,-1.169216 1.1689,-2.712425 0.60013,-3.808943 z"
       inkscape:connector-curvature="0"
       id="path3522-9"
       style="display:none;opacity:0.7;fill:url(#radialGradient5232-9);fill-opacity:1;stroke:none" />
  </g>
  <g
     id="layer4"
     style="display:inline">
    <rect
       width="66"
       height="66"
       rx="12"
       ry="12"
       x="15"
       y="15"
       clip-path="url(#clipPath3613)"
       id="rect3171"
       style="opacity:0.15;fill:url(#linearGradient2885);fill-opacity:1;fill-rule:nonzero;stroke:#ffffff;stroke-width:0.5;stroke-linecap:round;stroke-linejoin:miter;stroke-miterlimit:4;stroke-dasharray:none;stroke-dashoffset:0;stroke-opacity:1;filter:url(#filter4123)" />
  </g>
  <g
     id="g8289"
     style="display:inline;opacity:0.60984848">
    <path
       d="m 115.78125,6 c -5.78119,3.1123067 -9.71875,9.225149 -9.71875,16.25 0,10.181526 8.25597,18.4375 18.4375,18.4375 10.18153,0 18.4375,-8.255974 18.4375,-18.4375 0,-7.024851 -3.93756,-13.1376933 -9.71875,-16.25 z m 24.78125,0 c 4.09802,4.129345 6.625,9.818866 6.625,16.09375 0,12.612729 -10.23102,22.84375 -22.84375,22.84375 -7.50479,10e-7 -14.17899,-3.627823 -18.34375,-9.21875 v 7.875 l 0.21875,-0.15625 0.4375,-0.53125 2.1875,1.6875 -0.40625,0.5625 -0.625,1.75 -0.375,2.71875 1.5625,0.875 2.15625,-1.65625 1.1875,-1.4375 0.3125,-0.625 2.53125,1.0625 -0.25,0.65625 -0.15625,1.84375 0.375,2.71875 1.71875,0.46875 1.6875,-2.1875 0.75,-1.6875 0.125,-0.6875 2.75,0.375 L 122.125,50 l 0.28125,1.84375 1.0625,2.53125 H 125.25 L 126.3125,51.84375 126.625,50 l -0.0625,-0.65625 2.71875,-0.375 0.125,0.6875 0.78125,1.6875 1.65625,2.1875 1.71875,-0.46875 0.375,-2.71875 L 133.75,48.5 l -0.21875,-0.65625 2.53125,-1.0625 0.3125,0.625 1.15625,1.4375 2.1875,1.65625 1.53125,-0.875 -0.34375,-2.71875 -0.65625,-1.75 -0.375,-0.5625 2.1875,-1.6875 0.4375,0.53125 1.5,1.0625 2.5625,1.0625 1.25,-1.28125 -1.0625,-2.53125 -1.0625,-1.5 -0.53125,-0.4375 1.6875,-2.1875 0.5625,0.375 1.75,0.65625 L 151.875,39 l 0.875,-1.53125 -1.65625,-2.1875 -1.4375,-1.1875 -0.625,-0.25 1.0625,-2.5625 0.65625,0.21875 1.84375,0.1875 2.71875,-0.375 0.4375,-1.71875 -2.15625,-1.6875 -1.6875,-0.75 -0.6875,-0.125 0.375,-2.75 0.6875,0.0625 1.8125,-0.3125 L 156.625,23 v -1.78125 l -2.53125,-1.0625 -1.8125,-0.3125 -0.6875,0.0625 -0.375,-2.75 0.6875,-0.125 1.6875,-0.75 2.15625,-1.6875 -0.4375,-1.71875 -2.71875,-0.34375 -1.84375,0.15625 -0.65625,0.25 -1.0625,-2.5625 0.625,-0.28125 1.4375,-1.1875 L 152.75,6.75 152.34375,6 h -4.4375 l -0.5,0.1875 -0.5625,0.40625 L 146.375,6 Z M 124.5,8.625 c 7.53154,0 13.625,6.09346 13.625,13.625 0,7.53154 -6.09346,13.65625 -13.625,13.65625 -7.53154,0 -13.65625,-6.12471 -13.65625,-13.65625 0,-7.53154 6.12471,-13.625 13.65625,-13.625 z m 43.59375,28.21875 -1.1875,2.8125 -0.34375,2 0.0625,0.78125 -3.03125,0.375 -0.125,-0.71875 -0.84375,-1.875 -1.875,-2.40625 -1.875,0.5 -0.40625,3 0.1875,2.0625 0.25,0.6875 -2.8125,1.1875 -0.3125,-0.6875 -1.3125,-1.59375 -2.4375,-1.84375 -1.6875,1 0.40625,3.03125 0.6875,1.875 0.4375,0.65625 -2.40625,1.84375 -0.5,-0.5625 L 147.3125,47.75 144.5,46.625 143.09375,48 l 1.15625,2.8125 1.1875,1.65625 0.59375,0.5 -1.875,2.4375 -0.625,-0.4375 -1.90625,-0.71875 -3,-0.40625 -1,1.71875 1.84375,2.40625 1.59375,1.3125 0.65625,0.3125 -1.15625,2.8125 -0.71875,-0.25 -2.03125,-0.1875 -3,0.40625 -0.53125,1.90625 2.40625,1.84375 1.875,0.84375 0.75,0.15625 -0.40625,3.03125 -0.75,-0.0625 -2.03125,0.3125 -2.8125,1.1875 v 1.96875 l 2.8125,1.15625 2.03125,0.34375 0.75,-0.0625 0.40625,3.03125 -0.75,0.15625 -1.875,0.8125 -2.40625,1.875 0.53125,1.90625 3,0.40625 2.03125,-0.21875 0.71875,-0.25 1.15625,2.8125 -0.65625,0.34375 -1.59375,1.28125 -1.84375,2.4375 0.25,0.40625 h 5.9375 l 0.34375,-0.25 0.1875,0.25 h 6.21875 c -1.29523,-1.37524 -2.43984,-2.894648 -3.40625,-4.53125 l 10.90625,-5 c 2.31639,3.217479 6.01483,5.382208 10.21875,5.625 L 168.8125,90 h 5.21875 l -0.625,-4.59375 c 3.78803,-1.284696 6.83138,-4.197457 8.28125,-7.90625 L 190,79.03125 V 73.75 l -7.375,-1.34375 c -0.0504,-4.233581 -2.06895,-7.986155 -5.15625,-10.4375 l 5.5,-10.65625 c 2.76801,1.813686 5.15704,4.157048 7.03125,6.875 v -9.84375 l -0.84375,0.625 -0.5,0.5625 -2.40625,-1.84375 0.40625,-0.65625 0.75,-1.875 0.375,-3.03125 -1.71875,-1 -2.40625,1.84375 -1.28125,1.59375 -0.34375,0.6875 -2.8125,-1.1875 0.25,-0.6875 0.21875,-2.0625 -0.4375,-3 -1.875,-0.5 -1.875,2.40625 -0.84375,1.875 -0.125,0.71875 -3.03125,-0.375 0.0625,-0.78125 -0.34375,-2 -1.15625,-2.8125 z m 0.96875,10.3125 c 3.2847,0 6.43014,0.645954 9.3125,1.78125 l -5.5,10.625 c -1.20945,-0.35429 -2.48898,-0.53125 -3.8125,-0.53125 -2.62433,0 -5.08015,0.738068 -7.15625,2.03125 L 153.75,52.28125 c 4.26057,-3.217148 9.56672,-5.125 15.3125,-5.125 z m -48.75,6.3125 -0.96875,2.09375 -0.0625,0.71875 0.1875,1.25 -2.25,0.59375 -0.4375,-1.1875 -0.4375,-0.59375 L 114.5,55 l -1.09375,0.625 0.21875,2.28125 0.3125,0.65625 0.78125,1 -1.625,1.625 -1,-0.78125 -0.65625,-0.3125 -2.28125,-0.21875 -0.625,1.0625 1.34375,1.84375 0.59375,0.4375 1.15625,0.46875 -0.59375,2.21875 -1.25,-0.1875 -0.75,0.0625 -2.0625,0.9375 v 1.25 l 2.0625,0.9375 0.75,0.0625 1.25,-0.15625 0.59375,2.21875 -1.1875,0.46875 -0.59375,0.40625 -1.34375,1.875 0.59375,1.0625 2.28125,-0.21875 0.6875,-0.3125 1,-0.78125 1.625,1.625 -0.8125,1 -0.3125,0.6875 -0.21875,2.25 1.0625,0.625 1.875,-1.3125 0.40625,-0.59375 0.5,-1.1875 2.21875,0.59375 -0.1875,1.25 0.0625,0.75 0.9375,2.09375 h 1.21875 l 0.96875,-2.09375 0.0625,-0.71875 -0.1875,-1.28125 2.21875,-0.5625 0.46875,1.15625 0.4375,0.625 1.84375,1.3125 1.0625,-0.59375 -0.21875,-2.28125 -0.28125,-0.65625 -0.78125,-1 1.625,-1.625 1,0.78125 0.65625,0.3125 2.28125,0.21875 0.625,-1.0625 L 131.875,72 l -0.59375,-0.4375 -1.1875,-0.46875 0.625,-2.21875 1.25,0.1875 0.71875,-0.0625 2.09375,-0.9375 v -1.25 l -2.0625,-0.9375 -0.75,-0.09375 -1.25,0.1875 -0.59375,-2.21875 1.1875,-0.46875 0.59375,-0.4375 L 133.25,61 l -0.625,-1.0625 -2.25,0.21875 -0.6875,0.3125 -1,0.78125 -1.625,-1.65625 0.8125,-0.96875 0.28125,-0.6875 0.25,-2.25 -1.0625,-0.625 -1.875,1.3125 -0.4375,0.59375 -0.46875,1.1875 -2.21875,-0.59375 0.1875,-1.28125 -0.0625,-0.71875 -0.9375,-2.09375 z m 29.625,2.34375 8.15625,8.78125 C 156.4581,66.83303 155.5,69.579121 155.5,72.5625 c 0,1.101371 0.15791,2.193362 0.40625,3.21875 L 145,80.75 c -0.87766,-2.573536 -1.375,-5.318808 -1.375,-8.1875 0,-6.420779 2.37994,-12.275157 6.3125,-16.75 z m -29.09375,8.375 c 1.81315,0 3.28125,1.468102 3.28125,3.28125 0,1.813148 -1.4681,3.28125 -3.28125,3.28125 -1.81315,0 -3.28125,-1.468102 -3.28125,-3.28125 0,-1.813148 1.4681,-3.28125 3.28125,-3.28125 z m 48.21875,3.28125 c 2.78946,0 5.0625,2.241791 5.0625,5.03125 0,2.789459 -2.27304,5.0625 -5.0625,5.0625 -2.78946,0 -5.03125,-2.273041 -5.03125,-5.0625 0,-2.789459 2.24179,-5.03125 5.03125,-5.03125 z"
       transform="translate(-100)"
       clip-path="url(#clipPath3836)"
       id="path3830"
       style="display:inline;opacity:0.5;fill:#ffffff;fill-opacity:1;stroke:none" />
    <path
       d="M 15.78125,6.0000002 C 10.000055,9.1123072 6.0625,15.225149 6.0625,22.25 c 0,10.181526 8.255974,18.4375 18.4375,18.4375 10.181526,0 18.4375,-8.255974 18.4375,-18.4375 0,-7.024851 -3.937555,-13.1376928 -9.71875,-16.2499998 z m 24.78125,0 c 4.098026,4.1293448 6.624996,9.8188658 6.624996,16.0937498 0,12.612729 -10.231014,22.84375 -22.843746,22.84375 C 16.838963,44.937501 10.164764,41.309677 6,35.71875 v 7.875 l 0.21875,-0.15625 0.4375,-0.53125 2.1875,1.6875 -0.40625,0.5625 -0.625,1.75 L 7.4375,49.625 9,50.5 l 2.15625,-1.65625 1.1875,-1.4375 0.3125,-0.625 2.53125,1.0625 -0.25,0.65625 -0.15625,1.84375 0.375,2.71875 1.71875,0.46875 1.6875,-2.1875 0.75,-1.6875 0.125,-0.6875 2.75,0.375 L 22.125,50 l 0.28125,1.84375 1.0625,2.53125 H 25.25 L 26.3125,51.84375 26.625,50 l -0.0625,-0.65625 2.71875,-0.375 0.125,0.6875 0.78125,1.6875 1.65625,2.1875 1.71875,-0.46875 0.375,-2.71875 L 33.75,48.5 l -0.21875,-0.65625 2.53125,-1.0625 0.3125,0.625 1.15625,1.4375 L 39.71875,50.5 41.25,49.625 40.90625,46.90625 40.25,45.15625 39.875,44.59375 42.0625,42.90625 42.5,43.4375 44,44.5 l 2.562496,1.0625 1.25,-1.28125 -1.0625,-2.53125 -1.0625,-1.5 -0.53125,-0.4375 1.6875,-2.1875 0.5625,0.375 1.75,0.65625 2.71875,0.34375 0.875,-1.53125 -1.65625,-2.1875 -1.4375,-1.1875 -0.625,-0.25 1.0625,-2.5625 0.65625,0.21875 1.84375,0.1875 2.71875,-0.375 0.4375,-1.71875 -2.15625,-1.6875 -1.6875,-0.75 -0.6875,-0.125 0.375,-2.75 0.6875,0.0625 1.8125,-0.3125 L 56.624996,23 v -1.78125 l -2.53125,-1.0625 -1.8125,-0.3125 -0.6875,0.0625 -0.375,-2.75 0.6875,-0.125 1.6875,-0.75 2.15625,-1.6875 -0.4375,-1.71875 -2.71875,-0.34375 -1.84375,0.15625 -0.65625,0.25 -1.0625,-2.5625 0.625,-0.28125 1.4375,-1.1874998 1.65625,-2.15625 -0.40625,-0.75 h -4.4375 l -0.5,0.1875 -0.5625,0.40625 -0.46875,-0.59375 z m -16.0625,2.625 c 7.53154,0 13.625,6.0934598 13.625,13.6249998 0,7.53154 -6.09346,13.65625 -13.625,13.65625 -7.53154,0 -13.65625,-6.12471 -13.65625,-13.65625 0,-7.53154 6.12471,-13.6249998 13.65625,-13.6249998 z m 43.593746,28.2187498 -1.1875,2.8125 -0.34375,2 0.0625,0.78125 -3.03125,0.375 -0.125,-0.71875 -0.84375,-1.875 -1.875,-2.40625 -1.875,0.5 -0.40625,3 0.1875,2.0625 0.25,0.6875 -2.8125,1.1875 -0.3125,-0.6875 -1.3125,-1.59375 -2.4375,-1.84375 -1.6875,1 0.40625,3.03125 0.6875,1.875 0.4375,0.65625 -2.40625,1.84375 -0.5,-0.5625 -1.65625,-1.21875 -2.8125,-1.125 -1.406246,1.375 1.156246,2.8125 1.1875,1.65625 0.59375,0.5 -1.874996,2.4375 -0.625,-0.4375 L 41.625,54.25 l -3,-0.40625 -1,1.71875 1.84375,2.40625 1.59375,1.3125 0.65625,0.3125 -1.15625,2.8125 -0.71875,-0.25 -2.03125,-0.1875 -3,0.40625 -0.53125,1.90625 2.40625,1.84375 1.875,0.84375 0.75,0.15625 -0.40625,3.03125 -0.75,-0.0625 -2.03125,0.3125 -2.8125,1.1875 v 1.96875 l 2.8125,1.15625 2.03125,0.34375 0.75,-0.0625 0.40625,3.03125 -0.75,0.15625 -1.875,0.8125 -2.40625,1.875 0.53125,1.90625 3,0.40625 2.03125,-0.21875 0.71875,-0.25 1.15625,2.8125 L 41.0625,85.875 39.46875,87.15625 37.625,89.59375 37.875,90 h 5.9375 l 0.34375,-0.25 0.187496,0.25 h 6.21875 c -1.29523,-1.37524 -2.43984,-2.894648 -3.40625,-4.53125 l 10.90625,-5 c 2.31639,3.217479 6.01483,5.382208 10.21875,5.625 L 68.812496,90 h 5.21875 l -0.625,-4.59375 c 3.78803,-1.284696 6.83139,-4.197457 8.28125,-7.90625 l 8.3125,1.53125 V 73.75 l -7.375,-1.34375 c -0.0504,-4.233581 -2.06895,-7.986155 -5.15625,-10.4375 l 5.5,-10.65625 c 2.76801,1.813686 5.15705,4.157048 7.03125,6.875 v -9.84375 l -0.84375,0.625 -0.5,0.5625 -2.40625,-1.84375 0.40625,-0.65625 0.75,-1.875 0.375,-3.03125 -1.71875,-1 -2.40625,1.84375 -1.28125,1.59375 -0.34375,0.6875 -2.8125,-1.1875 0.25,-0.6875 0.21875,-2.0625 -0.4375,-3 -1.875,-0.5 -1.875,2.40625 -0.84375,1.875 -0.125,0.71875 -3.03125,-0.375 0.0625,-0.78125 -0.34375,-2 -1.15625,-2.8125 z m 0.96875,10.3125 c 3.2847,0 6.43015,0.645954 9.3125,1.78125 l -5.5,10.625 c -1.20944,-0.35429 -2.48897,-0.53125 -3.8125,-0.53125 -2.62432,0 -5.08014,0.738068 -7.15625,2.03125 l -8.15625,-8.78125 c 4.26058,-3.217148 9.56673,-5.125 15.3125,-5.125 z m -48.749996,6.3125 -0.96875,2.09375 -0.0625,0.71875 0.1875,1.25 -2.25,0.59375 -0.4375,-1.1875 -0.4375,-0.59375 L 14.5,55 l -1.09375,0.625 0.21875,2.28125 0.3125,0.65625 0.78125,1 -1.625,1.625 -1,-0.78125 -0.65625,-0.3125 -2.28125,-0.21875 -0.625,1.0625 1.34375,1.84375 0.59375,0.4375 1.15625,0.46875 -0.59375,2.21875 -1.25,-0.1875 -0.75,0.0625 -2.0625,0.9375 v 1.25 l 2.0625,0.9375 0.75,0.0625 1.25,-0.15625 L 11.625,71.03125 10.4375,71.5 9.84375,71.90625 8.5,73.78125 9.09375,74.84375 11.375,74.625 l 0.6875,-0.3125 1,-0.78125 1.625,1.625 -0.8125,1 -0.3125,0.6875 -0.21875,2.25 1.0625,0.625 1.875,-1.3125 0.40625,-0.59375 0.5,-1.1875 2.21875,0.59375 -0.1875,1.25 0.0625,0.75 0.9375,2.09375 h 1.21875 l 0.96875,-2.09375 0.0625,-0.71875 -0.1875,-1.28125 2.21875,-0.5625 0.46875,1.15625 0.4375,0.625 L 27.25,79.75 28.3125,79.15625 28.09375,76.875 27.8125,76.21875 l -0.78125,-1 1.625,-1.625 1,0.78125 0.65625,0.3125 2.28125,0.21875 0.625,-1.0625 L 31.875,72 l -0.59375,-0.4375 -1.1875,-0.46875 0.625,-2.21875 1.25,0.1875 L 32.6875,69 34.78125,68.0625 v -1.25 l -2.0625,-0.9375 -0.75,-0.09375 -1.25,0.1875 L 30.125,63.75 31.3125,63.28125 31.90625,62.84375 33.25,61 l -0.625,-1.0625 -2.25,0.21875 -0.6875,0.3125 -1,0.78125 -1.625,-1.65625 0.8125,-0.96875 0.28125,-0.6875 0.25,-2.25 -1.0625,-0.625 -1.875,1.3125 -0.4375,0.59375 -0.46875,1.1875 -2.21875,-0.59375 0.1875,-1.28125 -0.0625,-0.71875 -0.9375,-2.09375 z m 29.624996,2.34375 8.15625,8.78125 c -1.63564,2.23928 -2.59375,4.985371 -2.59375,7.96875 0,1.101371 0.15792,2.193362 0.40625,3.21875 L 44.999996,80.75 C 44.122339,78.176464 43.625,75.431192 43.625,72.5625 c 0,-6.420779 2.379936,-12.275157 6.312496,-16.75 z m -29.093746,8.375 c 1.813148,0 3.28125,1.468102 3.28125,3.28125 0,1.813148 -1.468102,3.28125 -3.28125,3.28125 -1.813148,0 -3.28125,-1.468102 -3.28125,-3.28125 0,-1.813148 1.468102,-3.28125 3.28125,-3.28125 z m 48.218746,3.28125 c 2.78946,0 5.0625,2.241791 5.0625,5.03125 0,2.789459 -2.27304,5.0625 -5.0625,5.0625 -2.78945,0 -5.03125,-2.273041 -5.03125,-5.0625 0,-2.789459 2.2418,-5.03125 5.03125,-5.03125 z"
       id="path6159"
       style="display:inline;opacity:1;fill:#366999;fill-opacity:1;stroke:none" />
    <path
       d="m 115.78125,6.5 c -5.78119,3.112307 -9.71875,9.225149 -9.71875,16.25 0,10.181526 8.25597,18.4375 18.4375,18.4375 10.18153,0 18.4375,-8.255974 18.4375,-18.4375 0,-7.024851 -3.93756,-13.137693 -9.71875,-16.25 z m 24.78125,0 c 4.09802,4.129345 6.625,9.818866 6.625,16.09375 0,12.612729 -10.23102,22.84375 -22.84375,22.84375 -7.50479,10e-7 -14.17899,-3.627823 -18.34375,-9.21875 v 7.875 l 0.21875,-0.15625 0.4375,-0.53125 2.1875,1.6875 -0.40625,0.5625 -0.625,1.75 -0.375,2.71875 L 109,51 l 2.15625,-1.65625 1.1875,-1.4375 0.3125,-0.625 2.53125,1.0625 -0.25,0.65625 -0.15625,1.84375 0.375,2.71875 1.71875,0.46875 1.6875,-2.1875 0.75,-1.6875 0.125,-0.6875 2.75,0.375 -0.0625,0.65625 0.28125,1.84375 1.0625,2.53125 H 125.25 l 1.0625,-2.53125 0.3125,-1.84375 -0.0625,-0.65625 2.71875,-0.375 0.125,0.6875 0.78125,1.6875 1.65625,2.1875 1.71875,-0.46875 0.375,-2.71875 L 133.75,49 l -0.21875,-0.65625 2.53125,-1.0625 0.3125,0.625 1.15625,1.4375 2.1875,1.65625 1.53125,-0.875 -0.34375,-2.71875 -0.65625,-1.75 -0.375,-0.5625 2.1875,-1.6875 L 142.5,43.9375 144,45 l 2.5625,1.0625 1.25,-1.28125 -1.0625,-2.53125 -1.0625,-1.5 -0.53125,-0.4375 1.6875,-2.1875 0.5625,0.375 1.75,0.65625 2.71875,0.34375 0.875,-1.53125 -1.65625,-2.1875 -1.4375,-1.1875 -0.625,-0.25 1.0625,-2.5625 L 150.75,32 l 1.84375,0.1875 2.71875,-0.375 0.4375,-1.71875 -2.15625,-1.6875 -1.6875,-0.75 -0.6875,-0.125 0.375,-2.75 0.6875,0.0625 1.8125,-0.3125 L 156.625,23.5 v -1.78125 l -2.53125,-1.0625 -1.8125,-0.3125 -0.6875,0.0625 -0.375,-2.75 0.6875,-0.125 1.6875,-0.75 2.15625,-1.6875 -0.4375,-1.71875 -2.71875,-0.34375 -1.84375,0.15625 -0.65625,0.25 -1.0625,-2.5625 0.625,-0.28125 1.4375,-1.1875 L 152.75,7.25 152.34375,6.5 h -4.4375 l -0.5,0.1875 -0.5625,0.40625 L 146.375,6.5 Z M 124.5,9.125 c 7.53154,0 13.625,6.09346 13.625,13.625 0,7.53154 -6.09346,13.65625 -13.625,13.65625 -7.53154,0 -13.65625,-6.12471 -13.65625,-13.65625 0,-7.53154 6.12471,-13.625 13.65625,-13.625 z m 43.59375,28.21875 -1.1875,2.8125 -0.34375,2 0.0625,0.78125 -3.03125,0.375 -0.125,-0.71875 -0.84375,-1.875 -1.875,-2.40625 -1.875,0.5 -0.40625,3 0.1875,2.0625 0.25,0.6875 -2.8125,1.1875 -0.3125,-0.6875 -1.3125,-1.59375 -2.4375,-1.84375 -1.6875,1 0.40625,3.03125 0.6875,1.875 0.4375,0.65625 -2.40625,1.84375 -0.5,-0.5625 L 147.3125,48.25 144.5,47.125 l -1.40625,1.375 1.15625,2.8125 1.1875,1.65625 0.59375,0.5 -1.875,2.4375 -0.625,-0.4375 -1.90625,-0.71875 -3,-0.40625 -1,1.71875 1.84375,2.40625 1.59375,1.3125 0.65625,0.3125 -1.15625,2.8125 -0.71875,-0.25 -2.03125,-0.1875 -3,0.40625 -0.53125,1.90625 2.40625,1.84375 1.875,0.84375 0.75,0.15625 -0.40625,3.03125 -0.75,-0.0625 -2.03125,0.3125 -2.8125,1.1875 v 1.96875 l 2.8125,1.15625 2.03125,0.34375 0.75,-0.0625 0.40625,3.03125 -0.75,0.15625 -1.875,0.8125 -2.40625,1.875 0.53125,1.90625 3,0.40625 2.03125,-0.21875 0.71875,-0.25 1.15625,2.8125 -0.65625,0.34375 -1.59375,1.28125 -1.84375,2.4375 0.25,0.40625 h 5.9375 l 0.34375,-0.25 0.1875,0.25 h 6.21875 c -1.29523,-1.37524 -2.43984,-2.894648 -3.40625,-4.53125 l 10.90625,-5 c 2.31639,3.217479 6.01482,5.382208 10.21875,5.625 L 168.8125,90.5 h 5.21875 l -0.625,-4.59375 C 177.19428,84.621554 180.23763,81.708793 181.6875,78 L 190,79.53125 V 74.25 l -7.375,-1.34375 c -0.0504,-4.233581 -2.06895,-7.986155 -5.15625,-10.4375 l 5.5,-10.65625 c 2.76801,1.813686 5.15704,4.157048 7.03125,6.875 v -9.84375 l -0.84375,0.625 -0.5,0.5625 -2.40625,-1.84375 0.40625,-0.65625 0.75,-1.875 0.375,-3.03125 -1.71875,-1 -2.40625,1.84375 -1.28125,1.59375 -0.34375,0.6875 -2.8125,-1.1875 0.25,-0.6875 0.21875,-2.0625 -0.4375,-3 -1.875,-0.5 -1.875,2.40625 -0.84375,1.875 -0.125,0.71875 -3.03125,-0.375 0.0625,-0.78125 -0.34375,-2 -1.15625,-2.8125 z m 0.96875,10.3125 c 3.2847,0 6.43014,0.645954 9.3125,1.78125 l -5.5,10.625 c -1.20945,-0.35429 -2.48898,-0.53125 -3.8125,-0.53125 -2.62433,0 -5.08015,0.738068 -7.15625,2.03125 L 153.75,52.78125 c 4.26057,-3.217148 9.56672,-5.125 15.3125,-5.125 z m -48.75,6.3125 -0.96875,2.09375 -0.0625,0.71875 0.1875,1.25 -2.25,0.59375 -0.4375,-1.1875 -0.4375,-0.59375 L 114.5,55.5 l -1.09375,0.625 0.21875,2.28125 0.3125,0.65625 0.78125,1 -1.625,1.625 -1,-0.78125 -0.65625,-0.3125 -2.28125,-0.21875 -0.625,1.0625 1.34375,1.84375 0.59375,0.4375 1.15625,0.46875 -0.59375,2.21875 -1.25,-0.1875 -0.75,0.0625 -2.0625,0.9375 v 1.25 l 2.0625,0.9375 0.75,0.0625 1.25,-0.15625 0.59375,2.21875 -1.1875,0.46875 -0.59375,0.40625 -1.34375,1.875 0.59375,1.0625 2.28125,-0.21875 0.6875,-0.3125 1,-0.78125 1.625,1.625 -0.8125,1 -0.3125,0.6875 -0.21875,2.25 1.0625,0.625 1.875,-1.3125 0.40625,-0.59375 0.5,-1.1875 2.21875,0.59375 -0.1875,1.25 0.0625,0.75 0.9375,2.09375 h 1.21875 l 0.96875,-2.09375 0.0625,-0.71875 -0.1875,-1.28125 2.21875,-0.5625 0.46875,1.15625 0.4375,0.625 1.84375,1.3125 1.0625,-0.59375 -0.21875,-2.28125 -0.28125,-0.65625 -0.78125,-1 1.625,-1.625 1,0.78125 0.65625,0.3125 2.28125,0.21875 0.625,-1.0625 L 131.875,72.5 l -0.59375,-0.4375 -1.1875,-0.46875 0.625,-2.21875 1.25,0.1875 0.71875,-0.0625 2.09375,-0.9375 v -1.25 l -2.0625,-0.9375 -0.75,-0.09375 -1.25,0.1875 -0.59375,-2.21875 1.1875,-0.46875 0.59375,-0.4375 L 133.25,61.5 l -0.625,-1.0625 -2.25,0.21875 -0.6875,0.3125 -1,0.78125 -1.625,-1.65625 0.8125,-0.96875 0.28125,-0.6875 0.25,-2.25 -1.0625,-0.625 -1.875,1.3125 -0.4375,0.59375 -0.46875,1.1875 -2.21875,-0.59375 0.1875,-1.28125 -0.0625,-0.71875 -0.9375,-2.09375 z m 29.625,2.34375 8.15625,8.78125 C 156.4581,67.33303 155.5,70.079121 155.5,73.0625 c 0,1.101371 0.15791,2.193362 0.40625,3.21875 L 145,81.25 c -0.87766,-2.573536 -1.375,-5.318808 -1.375,-8.1875 0,-6.420779 2.37994,-12.275157 6.3125,-16.75 z m -29.09375,8.375 c 1.81315,0 3.28125,1.468102 3.28125,3.28125 0,1.813148 -1.4681,3.28125 -3.28125,3.28125 -1.81315,0 -3.28125,-1.468102 -3.28125,-3.28125 0,-1.813148 1.4681,-3.28125 3.28125,-3.28125 z m 48.21875,3.28125 c 2.78946,0 5.0625,2.241791 5.0625,5.03125 0,2.789459 -2.27304,5.0625 -5.0625,5.0625 -2.78946,0 -5.03125,-2.273041 -5.03125,-5.0625 0,-2.789459 2.24179,-5.03125 5.03125,-5.03125 z"
       transform="translate(-100)"
       clip-path="url(#clipPath3867)"
       id="path3786-3"
       style="display:inline;opacity:0.2;fill:none;stroke:#000000;stroke-width:1.5;stroke-miterlimit:4;stroke-dasharray:none" />
  </g>
  <g
     id="g6523"
     transform="translate(85.547282,-1.374166)"
     style="display:inline">
    <path
       id="path88-5"
       style="display:inline;fill:url(#linearGradient5667);fill-opacity:1;fill-rule:nonzero;stroke:none;stroke-width:0.0847768"
       d="m -42.067596,20.025522 c -2.695391,0.599213 -5.361744,1.433474 -7.861547,2.691714 0.05717,2.20735 0.19988,4.322356 0.489165,6.470676 -0.970811,0.621976 -1.991105,1.155787 -2.897867,1.883892 -0.921311,0.708785 -1.862319,1.386894 -2.696559,2.215839 -1.666627,-1.102353 -3.430597,-2.138292 -5.247823,-3.052722 -1.958817,2.108091 -3.790386,4.383416 -5.286566,6.929541 1.12564,1.820922 2.300759,3.527825 3.569582,5.147602 h 0.03549 v 12.575625 1.597273 1.453588 c 0.02862,2.54e-4 0.05712,0.0016 0.08544,0.0042 l 9.580027,0.923691 c 0.501812,0.04845 0.895084,0.45236 0.930022,0.955236 l 0.295437,4.228878 8.356679,0.596214 0.57572,-3.903019 c 0.07464,-0.506049 0.508682,-0.881095 1.020553,-0.881095 h 10.107197 c 0.511607,0 0.945673,0.375046 1.020305,0.881095 l 0.575726,3.903019 8.356927,-0.596214 0.295187,-4.228878 c 0.03522,-0.502876 0.428211,-0.906535 0.930023,-0.955236 l 9.576303,-0.923697 c 0.0283,-0.0026 0.0566,-0.0037 0.08519,-0.0042 v -1.246947 l 0.0042,-0.0011 V 42.312245 h 0.03554 c 1.269089,-1.619778 2.443409,-3.326681 3.569579,-5.147604 -1.495651,-2.546124 -3.328247,-4.821448 -5.287069,-6.929541 -1.816696,0.914431 -3.581323,1.95037 -5.247945,3.052723 -0.833974,-0.828945 -1.7733,-1.507054 -2.695939,-2.215839 -0.906492,-0.728106 -1.92804,-1.261915 -2.896994,-1.883893 0.288491,-2.14832 0.431114,-4.263325 0.488546,-6.470675 -2.500073,-1.25824 -5.166072,-2.0925 -7.862794,-2.691714 -1.076675,1.809546 -2.061317,3.76915 -2.918849,5.68483 -1.016862,-0.169919 -2.038468,-0.232841 -3.061418,-0.245016 v -0.0016 c -0.0072,0 -0.0138,0.0016 -0.01989,0.0016 -0.0063,0 -0.01301,-0.0016 -0.01936,-0.0016 v 0.0016 c -1.0248,0.01216 -2.045528,0.07509 -3.062656,0.245016 -0.857003,-1.91568 -1.841083,-3.875284 -2.91935,-5.68483 z m -7.579027,22.859533 c 3.18874,0 5.773252,2.582587 5.773252,5.770269 0,3.189802 -2.584512,5.773875 -5.773252,5.773875 -3.187153,0 -5.772505,-2.584073 -5.772505,-5.773875 0,-3.187682 2.585352,-5.770269 5.772505,-5.770269 z m 27.161188,0 c 3.186893,0 5.772008,2.582582 5.772008,5.770269 0,3.189807 -2.585115,5.773875 -5.772008,5.773875 -3.189273,0 -5.773748,-2.584068 -5.773748,-5.773875 0,-3.187687 2.584475,-5.770269 5.773748,-5.770269 z m -13.581279,3.376847 c 1.026393,0 1.86005,0.757158 1.86005,1.688794 v 5.314882 c 0,0.932435 -0.833657,1.688921 -1.86005,1.688921 -1.026387,0 -1.858305,-0.756486 -1.858305,-1.688921 v -5.314882 c 0,-0.931636 0.831918,-1.688794 1.858305,-1.688794 z m -25.912753,13.743587 c 0.0042,0.925818 0.01576,1.940131 0.01576,2.142074 0,9.097785 11.541054,13.470633 25.879846,13.520921 h 0.0174 0.01777 c 14.338791,-0.0503 25.875867,-4.423136 25.875867,-13.520921 0,-0.205651 0.01243,-1.215727 0.01666,-2.142074 l -8.611008,0.830553 -0.296806,4.251483 c -0.03576,0.512401 -0.443327,0.920185 -0.955727,0.95697 l -10.204306,0.7281 c -0.02486,0.0021 -0.04977,0.0026 -0.07439,0.0026 -0.507106,0 -0.944657,-0.372115 -1.019559,-0.881342 l -0.585157,-3.968549 h -8.326257 l -0.585161,3.968593 c -0.0786,0.534106 -0.556134,0.918048 -1.093943,0.878608 l -10.204311,-0.7281 c -0.5124,-0.03676 -0.919994,-0.44457 -0.955727,-0.95697 l -0.296679,-4.251483 z" />
    <path
       id="path5767"
       style="display:inline;opacity:0.5;fill:#000000;fill-opacity:1;fill-rule:nonzero;stroke:none;stroke-width:0.0847768"
       d="m -42.068498,20.026856 c -2.695389,0.599212 -5.361528,1.433167 -7.861329,2.691406 0.01082,0.417808 0.02756,0.830144 0.04492,1.242187 2.486909,-1.245759 5.137035,-2.07427 7.816407,-2.669921 1.078266,1.809544 2.062919,3.769868 2.919921,5.685547 1.017127,-0.169926 2.037702,-0.233934 3.0625,-0.246094 h 0.01953 0.01953 c 1.022949,0.01218 2.045639,0.07618 3.0625,0.246094 0.857531,-1.915679 1.841295,-3.876003 2.917969,-5.685547 2.675073,0.594403 5.320097,1.420709 7.802734,2.662109 0.01741,-0.412414 0.04967,-0.816186 0.06055,-1.234375 -2.50007,-1.258239 -5.166562,-2.092193 -7.863281,-2.691406 -1.076674,1.809544 -2.060438,3.767915 -2.917969,5.683593 -1.016861,-0.169918 -2.039551,-0.231965 -3.0625,-0.24414 v -0.002 c -0.0072,0 -0.01344,0.002 -0.01953,0.002 -0.0063,0 -0.01318,-0.002 -0.01953,-0.002 v 0.002 c -1.024798,0.01216 -2.045373,0.07422 -3.0625,0.24414 -0.857002,-1.915678 -1.841655,-3.874049 -2.919922,-5.683593 z m -7.511719,9.248047 c -0.928635,0.584901 -1.894314,1.103509 -2.757813,1.796875 -0.92131,0.708784 -1.863026,1.387852 -2.697265,2.216797 -1.666626,-1.102352 -3.430823,-2.138306 -5.248047,-3.052735 -1.958815,2.108089 -3.788978,4.383565 -5.285156,6.929688 0.132562,0.214442 0.268337,0.421488 0.402343,0.632812 1.419886,-2.288536 3.090318,-4.369734 4.882813,-6.298828 1.817224,0.914429 3.581421,1.950382 5.248047,3.052734 0.834239,-0.828944 1.775955,-1.506059 2.697265,-2.214843 0.906761,-0.728105 1.927628,-1.262791 2.898438,-1.884766 -0.05299,-0.393525 -0.0971,-0.785672 -0.140625,-1.177734 z m 27.027344,0 c -0.04347,0.392511 -0.08577,0.783757 -0.138672,1.177734 0.968953,0.621977 1.989993,1.15666 2.896484,1.884766 0.922638,0.708784 1.861339,1.385899 2.695313,2.214843 1.66662,-1.102352 3.431352,-2.138304 5.248047,-3.052734 1.792499,1.929096 3.4651386,4.010292 4.8847651,6.298828 0.1340362,-0.211324 0.2697193,-0.41837 0.4023438,-0.632812 -1.4956495,-2.546122 -3.3282894,-4.821597 -5.2871089,-6.929688 -1.816695,0.91443 -3.581427,1.950383 -5.248047,3.052735 -0.833974,-0.828945 -1.772675,-1.508013 -2.695313,-2.216797 -0.863679,-0.693718 -1.830245,-1.211608 -2.757812,-1.796875 z m -32.830078,20.013672 c -0.0226,0.207471 -0.03711,0.419318 -0.03711,0.632812 0,3.189799 2.586288,5.773438 5.773438,5.773438 3.188736,-1e-6 5.773437,-2.583639 5.773437,-5.773438 0,-0.213486 -0.01257,-0.425348 -0.03516,-0.632812 -0.315527,2.891327 -2.763717,5.140625 -5.738281,5.140624 -2.973076,0 -5.4207,-2.249309 -5.736328,-5.140624 z m 27.160156,0 c -0.02259,0.207471 -0.03711,0.419318 -0.03711,0.632812 0,3.189804 2.584168,5.773438 5.773438,5.773438 3.18689,-1e-6 5.773437,-2.583634 5.773437,-5.773438 0,-0.213494 -0.01451,-0.425341 -0.03711,-0.632812 -0.3156,2.891319 -2.763495,5.140625 -5.736328,5.140624 -2.975054,0 -5.420793,-2.249305 -5.736327,-5.140624 z m -9.703125,3.978515 v 1.263672 c 0,0.932434 0.832989,1.689453 1.859375,1.689453 1.026392,0 1.859375,-0.757019 1.859375,-1.689453 V 53.26709 c 0,0.932434 -0.832983,1.6875 -1.859375,1.6875 -1.026386,0 -1.859375,-0.755066 -1.859375,-1.6875 z m -24.052735,6.738281 c 0.0025,0.546884 0.006,0.842666 0.0098,1.265625 l 8.603516,0.830079 0.296875,4.251953 c 0.03573,0.512399 0.442678,0.920271 0.955078,0.957031 l 10.205078,0.728516 c 0.537808,0.03944 1.01515,-0.344801 1.09375,-0.878907 l 0.585937,-3.96875 h 8.326172 l 0.583985,3.96875 c 0.0749,0.509227 0.512425,0.88086 1.019531,0.88086 0.02462,0 0.04936,1.46e-4 0.07422,-0.002 l 10.205078,-0.728516 c 0.512399,-0.03678 0.919318,-0.444631 0.955078,-0.957031 l 0.296875,-4.251953 8.601562,-0.830079 c 0.004,-0.422565 0.0073,-0.718429 0.0098,-1.265625 l -8.611328,0.832032 -0.296875,4.25 c -0.03576,0.5124 -0.442679,0.920246 -0.955078,0.957031 l -10.205078,0.728515 c -0.02486,0.0021 -0.0496,0.002 -0.07422,0.002 -0.507106,0 -0.944629,-0.371633 -1.019531,-0.88086 l -0.583985,-3.96875 h -8.326172 l -0.585937,3.96875 c -0.0786,0.534106 -0.555942,0.918346 -1.09375,0.878906 L -52.11342,66.044434 c -0.5124,-0.03676 -0.919345,-0.444632 -0.955078,-0.957031 l -0.296875,-4.25 z" />
    <path
       id="path5772"
       style="display:inline;opacity:0.15;fill:#000000;fill-opacity:1;fill-rule:nonzero;stroke:none;stroke-width:0.0847768"
       d="m -42.068359,20.025391 c -2.695389,0.599212 -5.361528,1.433167 -7.861329,2.691406 0.05717,2.207348 0.20095,4.322385 0.490235,6.470703 -0.97081,0.621975 -1.991677,1.156661 -2.898438,1.884766 -0.92131,0.708784 -1.863026,1.385899 -2.697265,2.214843 -1.666626,-1.102352 -3.430823,-2.138305 -5.248047,-3.052734 -1.958815,2.108089 -3.788978,4.383565 -5.285156,6.929687 1.125638,1.820921 2.299537,3.528663 3.568359,5.148438 h 0.03711 v 12.574219 1.597656 1.455078 c 0.02862,2.54e-4 0.05566,0.0013 0.08398,0.0039 l 9.580078,0.923829 c 0.501811,0.04845 0.894749,0.452202 0.929687,0.955078 l 0.296875,4.228515 8.355469,0.595703 0.576172,-3.902343 c 0.07464,-0.506049 0.509614,-0.88086 1.021484,-0.88086 h 10.107422 c 0.511607,0 0.9449,0.374811 1.019531,0.88086 l 0.576172,3.902343 8.355469,-0.595703 0.296875,-4.228515 c 0.03522,-0.502876 0.427876,-0.906378 0.929688,-0.955078 l 9.576172,-0.923829 c 0.0283,-0.0026 0.05539,-0.0034 0.08398,-0.0039 v -1.248047 h 0.0059 V 42.3125 h 0.03516 c 1.2690872,-1.619776 2.44219,-3.327516 3.5683589,-5.148438 -1.4956495,-2.546121 -3.3282894,-4.821596 -5.2871089,-6.929687 -1.816695,0.91443 -3.581427,1.950382 -5.248047,3.052734 -0.833974,-0.828944 -1.772675,-1.506059 -2.695313,-2.214843 -0.906491,-0.728106 -1.927531,-1.262789 -2.896484,-1.884766 0.28849,-2.148318 0.430849,-4.263355 0.488281,-6.470703 -2.50007,-1.258239 -5.166562,-2.092193 -7.863281,-2.691406 -1.076674,1.809544 -2.060438,3.769868 -2.917969,5.685547 -1.016861,-0.169919 -2.039551,-0.233919 -3.0625,-0.246094 h -0.01953 -0.01953 c -1.024798,0.01216 -2.045373,0.07617 -3.0625,0.246094 -0.857002,-1.915679 -1.841655,-3.876003 -2.919921,-5.685547 z m -0.476563,1.083984 c 0.922169,1.605167 1.804081,3.294343 2.556641,4.976563 0.170741,0.382918 0.57863,0.602118 0.992187,0.533203 0.951663,-0.15899 1.92056,-0.22223 2.910156,-0.234375 h 0.01172 0.0078 0.01953 c 0.987775,0.01216 1.959004,0.07544 2.910156,0.234375 0.413067,0.06921 0.820797,-0.149098 0.992188,-0.53125 0.75318,-1.682565 1.633669,-3.37319 2.554687,-4.978516 2.212822,0.527435 4.373481,1.231136 6.419922,2.201172 -0.06643,1.954698 -0.177829,3.849292 -0.433594,5.753906 -0.04827,0.354493 0.113201,0.704848 0.414063,0.898438 1.014525,0.65123 2.003446,1.171623 2.818359,1.826171 0.0052,0.0046 0.01037,0.0092 0.01563,0.01367 0.937237,0.720001 1.84064,1.374561 2.607422,2.136719 0.309439,0.307498 0.792208,0.355612 1.15625,0.115235 1.443044,-0.954473 2.980903,-1.826252 4.539063,-2.640626 1.613341,1.781595 3.1059169,3.678439 4.3730465,5.744141 -1.3466903,1.821078 -2.3985265,3.611301 -3.4082015,5.154296 v 14.373047 c -0.002,0.002 -0.0039,0.0039 -0.0059,0.0059 v 0.408203 l -8.828125,0.851563 c -6.67e-4,10e-7 -0.0013,10e-7 -0.002,0 -0.942444,0.09146 -1.691674,0.862308 -1.757813,1.80664 l -0.242187,3.431641 -6.707031,0.478516 -0.451172,-3.058594 c -0.140095,-0.949925 -0.968468,-1.666016 -1.929688,-1.666016 h -10.107422 c -0.961251,0 -1.791241,0.714127 -1.93164,1.666016 l -0.451172,3.058594 -6.707031,-0.478516 -0.242188,-3.431641 c -0.06565,-0.944977 -0.816751,-1.715592 -1.759766,-1.80664 l -8.832031,-0.851563 V 56.484375 54.886719 42.3125 c -0.01384,-0.216614 -0.103767,-0.421372 -0.253906,-0.578125 l -0.630859,-0.306641 c 0.231703,0.0092 0.451417,0.105415 0.615234,0.269532 -1.113231,-1.425781 -2.138212,-2.949794 -3.140625,-4.539063 1.267443,-2.065998 2.758288,-3.962791 4.371094,-5.744141 1.558329,0.814327 3.095948,1.686108 4.539062,2.640626 0.364042,0.240377 0.846811,0.192263 1.15625,-0.115235 0.76633,-0.761465 1.672355,-1.415847 2.609375,-2.136719 0.0053,-0.0039 0.01046,-0.0078 0.01563,-0.01172 0.815303,-0.654667 1.802505,-1.177291 2.81836,-1.828125 0.301605,-0.193081 0.463881,-0.543537 0.416015,-0.898438 -0.25649,-1.904784 -0.369094,-3.799569 -0.435547,-5.753906 2.046109,-0.969988 4.206218,-1.673746 6.417969,-2.201172 z M -61.3125,41.697266 c 0.0055,0.01226 0.01069,0.02463 0.01563,0.03711 l 0.02148,0.0098 c -0.01224,-0.01563 -0.02489,-0.03122 -0.03711,-0.04687 z m 11.666016,0.267578 c -3.684681,0 -6.69336,3.005802 -6.69336,6.691406 0,3.687393 3.008711,6.693359 6.69336,6.693359 3.685986,-10e-7 6.693359,-3.006271 6.693359,-6.693359 0,-3.685298 -3.00734,-6.691406 -6.693359,-6.691406 z m 27.160156,0 c -3.686468,0 -6.69336,3.006206 -6.69336,6.691406 10e-7,3.68699 3.006924,6.693359 6.69336,6.693359 3.684427,-10e-7 6.693359,-3.005912 6.693359,-6.693359 0,-3.685658 -3.0089,-6.691406 -6.693359,-6.691406 z m -27.160156,0.919922 c 3.188736,0 5.773437,2.583805 5.773437,5.771484 0,3.189799 -2.584701,5.773437 -5.773437,5.773438 -3.18715,0 -5.773438,-2.583639 -5.773438,-5.773438 0,-3.187679 2.586288,-5.771484 5.773438,-5.771484 z m 27.160156,0 c 3.18689,0 5.773437,2.5838 5.773437,5.771484 0,3.189804 -2.586547,5.773437 -5.773437,5.773438 -3.18927,0 -5.773438,-2.583634 -5.773438,-5.773438 0,-3.187684 2.584168,-5.771484 5.773438,-5.771484 z m -13.580078,2.457031 c -1.47951,0 -2.779297,1.129013 -2.779297,2.609375 v 5.314453 c 0,1.48069 1.300265,2.609375 2.779297,2.609375 1.479034,0 2.779297,-1.128689 2.779297,-2.609375 v -5.314453 c 0,-1.480358 -1.299785,-2.609375 -2.779297,-2.609375 z m 0,0.919922 c 1.026392,0 1.859375,0.757818 1.859375,1.689453 v 5.314453 c 0,0.932434 -0.832983,1.689453 -1.859375,1.689453 -1.026386,0 -1.859375,-0.757019 -1.859375,-1.689453 v -5.314453 c 0,-0.931635 0.832989,-1.689453 1.859375,-1.689453 z m -25.91211,13.74414 c 0.0042,0.925817 0.01563,1.940636 0.01563,2.142579 0,9.097775 11.540129,13.469243 25.878907,13.519531 h 0.01758 0.01758 c 14.338777,-0.0503 25.876953,-4.421756 25.876953,-13.519531 0,-0.205651 0.0114,-1.216233 0.01563,-2.142579 l -8.611328,0.830079 -0.296875,4.251953 c -0.03576,0.5124 -0.442679,0.920246 -0.955078,0.957031 l -10.205078,0.728516 c -0.02486,0.0021 -0.0496,0.002 -0.07422,0.002 -0.507106,0 -0.944629,-0.371633 -1.019531,-0.88086 l -0.583985,-3.96875 h -8.326172 l -0.585937,3.96875 c -0.0786,0.534106 -0.555942,0.918346 -1.09375,0.878907 l -10.205078,-0.728516 c -0.5124,-0.03676 -0.919345,-0.444632 -0.955078,-0.957031 l -0.296875,-4.251953 z m 0.927735,1.013672 6.822265,0.658203 0.242188,3.47461 c 0.06712,0.96245 0.844173,1.741498 1.80664,1.810547 l 10.205079,0.728515 c 1.012387,0.07424 1.922808,-0.659784 2.070312,-1.662109 l 0.470703,-3.183594 h 6.736328 l 0.46875,3.183594 c 0.140627,0.956062 0.972825,1.666016 1.929688,1.666015 0.01937,10e-7 0.0713,0.0012 0.140625,-0.0039 l 10.205078,-0.728515 c 0.96241,-0.06909 1.739476,-0.848158 1.806641,-1.810547 l 0.242187,-3.47461 6.820313,-0.658203 c -0.0036,0.420829 -0.0078,1.002863 -0.0078,1.128907 0,4.159721 -2.553726,7.177489 -7.039062,9.322265 -4.485338,2.144777 -10.845169,3.252519 -17.921875,3.277344 h -0.01367 -0.01758 c -7.075045,-0.02524 -13.434956,-1.132967 -17.919922,-3.277344 -4.485843,-2.144796 -7.039063,-5.16261 -7.039063,-9.322265 0,-0.12447 -0.0042,-0.707589 -0.0078,-1.128907 z"
       sodipodi:nodetypes="scccccccccccccccccssccccccccccccccccccccccccscccccccccccccccccccccccccccccssccccccccccccccccccccccccccccsssssssssssssssssssssssssssssssssscscccscccccsccccccccccccccccccscccccsscccsscc" />
    <path
       id="path6506"
       style="display:inline;opacity:0.4;fill:#ffffff;fill-opacity:1;fill-rule:nonzero;stroke:none;stroke-width:0.0847768"
       d="m -22.246094,23.597656 c -0.07055,1.889322 -0.195824,3.731964 -0.445312,5.589844 0.04501,0.02889 0.0915,0.05544 0.136718,0.08398 0.218886,-1.863356 0.34066,-3.714365 0.390626,-5.634765 -0.02709,-0.01363 -0.05491,-0.02553 -0.08203,-0.03906 z m -27.609375,0.976563 c 0.05969,1.573114 0.169243,3.11142 0.34961,4.654297 0.02198,-0.01397 0.04447,-0.02696 0.06641,-0.04102 -0.207267,-1.539227 -0.336787,-3.06204 -0.416016,-4.613281 z M -6.8359375,37.59375 c -1.0437097,1.659149 -2.1289817,3.228131 -3.2968745,4.71875 h -0.03516 v 14.378906 h -0.0059 v 1.248047 c -0.02859,5e-4 -0.05569,0.0013 -0.08398,0.0039 l -9.576172,0.923829 c -0.501812,0.0487 -0.894468,0.452202 -0.929688,0.955078 l -0.296875,4.228515 -8.355469,0.595703 -0.576172,-3.902343 c -0.07463,-0.506049 -0.507924,-0.88086 -1.019531,-0.88086 h -10.107422 c -0.51187,0 -0.946844,0.374811 -1.021484,0.88086 l -0.576172,3.902343 -8.355469,-0.595703 -0.296875,-4.228515 c -0.03494,-0.502876 -0.427876,-0.906629 -0.929687,-0.955078 l -9.580078,-0.923829 c -0.0158,-0.0014 -0.03097,-0.0013 -0.04687,-0.002 v 0.916016 c 0.02862,2.54e-4 0.05762,0.0013 0.08594,0.0039 l 9.580078,0.923828 c 0.501812,0.04845 0.89475,0.452203 0.929688,0.955078 l 0.294922,4.230469 8.357422,0.595703 0.576172,-3.904297 c 0.07464,-0.506048 0.50766,-0.880859 1.019531,-0.880859 h 10.107422 c 0.511606,0 0.946852,0.374811 1.021484,0.880859 l 0.574219,3.904297 8.357422,-0.595703 0.294922,-4.230469 c 0.03522,-0.502875 0.427876,-0.906377 0.929687,-0.955078 l 9.578125,-0.923828 c 0.0283,-0.0026 0.05539,-0.0034 0.08398,-0.0039 v -1.246094 l 0.0039,-0.002 V 43.232422 h 0.03516 c 1.2690876,-1.619777 2.4441435,-3.327516 3.5703124,-5.148438 -0.09842,-0.167544 -0.2092694,-0.325005 -0.3105469,-0.490234 z M -65.257812,37.6543 c -0.08856,0.14519 -0.187071,0.282713 -0.273438,0.429687 1.12514,1.820114 2.300183,3.525397 3.568359,5.144532 V 42.3125 H -62 c -1.153306,-1.472308 -2.226131,-3.021731 -3.257812,-4.658203 z m 15.611328,5.230469 c -3.18715,0 -5.773438,2.583805 -5.773438,5.771484 0,0.241517 0.02005,0.477224 0.04883,0.710938 0.109995,-3.090867 2.64643,-5.5625 5.763672,-5.5625 2.947987,0 5.374249,2.20843 5.72461,5.060546 0.0025,-0.07001 0.0098,-0.138359 0.0098,-0.208984 0,-3.187679 -2.584701,-5.771484 -5.773437,-5.771484 z m 27.160156,0 c -3.18927,0 -5.773438,2.5838 -5.773438,5.771484 0,0.241518 0.02005,0.477224 0.04883,0.710938 0.10996,-3.090871 2.644357,-5.5625 5.763672,-5.5625 2.945513,0 5.371237,2.207551 5.722657,5.058593 0.0025,-0.06938 0.01172,-0.137043 0.01172,-0.207031 0,-3.187684 -2.586547,-5.771484 -5.773437,-5.771484 z m -13.580078,3.376953 c -1.026386,0 -1.859375,0.757818 -1.859375,1.689453 v 5.314453 c 0,0.116554 0.01431,0.229922 0.03906,0.339844 v -4.736328 c 0,-0.931635 0.832989,-1.6875 1.859375,-1.6875 0.895726,0 1.644141,0.575774 1.820313,1.341797 v -0.572266 c 0,-0.931635 -0.832983,-1.689453 -1.859375,-1.689453 z m 25.949218,14.662109 -0.04492,0.0039 c -0.0043,0.47515 -0.0098,1.103536 -0.0098,1.220704 0,9.097775 -11.538176,13.469231 -25.876953,13.519531 h -0.01758 -0.01758 c -13.874513,-0.04866 -25.127507,-4.144794 -25.841797,-12.652344 1.2e-5,0.0057 0,0.04599 0,0.05078 0,9.097776 11.542081,13.471197 25.880859,13.521485 h 0.01758 0.01758 c 14.338777,-0.0503 25.875,-4.423709 25.875,-13.521485 0,-0.205651 0.01335,-1.216232 0.01758,-2.142578 z" />
    <path
       id="path6512"
       style="display:inline;opacity:0.1;fill:#000000;fill-opacity:1;fill-rule:nonzero;stroke:none;stroke-width:0.0847768"
       d="m -42.068359,20.025391 c -2.695389,0.599212 -5.361528,1.433167 -7.861329,2.691406 0.05717,2.207348 0.20095,4.322385 0.490235,6.470703 -0.97081,0.621975 -1.991677,1.156661 -2.898438,1.884766 -0.92131,0.708784 -1.863026,1.385899 -2.697265,2.214843 -1.666626,-1.102352 -3.430823,-2.138305 -5.248047,-3.052734 -1.958815,2.108089 -3.788978,4.383565 -5.285156,6.929687 0.915757,1.4814 1.863455,2.887892 2.86822,4.233052 0.230281,0.308296 0.46356,0.61337 0.700139,0.915386 h 0.03711 v 12.574219 1.597656 1.455078 c 0.02862,2.54e-4 0.05566,0.0013 0.08398,0.0039 l 9.580078,0.923829 c 0.501811,0.04845 0.894749,0.452202 0.929687,0.955078 l 0.296875,4.228515 8.355469,0.595703 0.576172,-3.902343 c 0.07464,-0.506049 0.509614,-0.88086 1.021484,-0.88086 h 10.107422 c 0.511607,0 0.9449,0.374811 1.019531,0.88086 l 0.576172,3.902343 8.355469,-0.595703 0.296875,-4.228515 c 0.03522,-0.502876 0.427876,-0.906378 0.929688,-0.955078 l 9.576172,-0.923829 c 0.0283,-0.0026 0.05539,-0.0034 0.08398,-0.0039 v -1.248047 h 0.0059 V 42.3125 h 0.03516 c 1.2690872,-1.619776 2.44219,-3.327516 3.5683589,-5.148438 -1.4956495,-2.546121 -3.3282894,-4.821596 -5.2871089,-6.929687 -1.816695,0.91443 -3.581427,1.950382 -5.248047,3.052734 -0.833974,-0.828944 -1.772675,-1.506059 -2.695313,-2.214843 -0.906491,-0.728106 -1.927531,-1.262789 -2.896484,-1.884766 0.28849,-2.148318 0.430849,-4.263355 0.488281,-6.470703 -2.50007,-1.258239 -5.166562,-2.092193 -7.863281,-2.691406 -1.076674,1.809544 -2.060438,3.769868 -2.917969,5.685547 -1.016861,-0.169919 -2.039551,-0.233919 -3.0625,-0.246094 h -0.01953 -0.01953 c -1.024798,0.01216 -2.045373,0.07617 -3.0625,0.246094 -0.857002,-1.915679 -1.841655,-3.876003 -2.919921,-5.685547 z m -1.017579,2.318359 c 0.753143,1.365975 1.507702,2.755131 2.140626,4.169922 0.365436,0.818103 1.237302,1.286149 2.121093,1.138672 0.882823,-0.147489 1.79846,-0.207137 2.753907,-0.21875 h 0.0078 c 0.953599,0.01163 1.871875,0.07136 2.753906,0.21875 0.883302,0.147776 1.755008,-0.319382 2.121094,-1.136719 0.633423,-1.415033 1.386462,-2.805905 2.138672,-4.171875 1.649119,0.427929 3.247191,0.967762 4.779297,1.642578 -0.07358,1.667411 -0.15433,3.310722 -0.373047,4.939453 -0.101336,0.757646 0.24515,1.505445 0.888672,1.917969 1.066381,0.684517 2.015854,1.192821 2.726562,1.763672 0.01098,0.0086 0.02204,0.01704 0.0332,0.02539 0.95385,0.732763 1.817487,1.364617 2.507813,2.050782 0.662216,0.657066 1.694728,0.759012 2.472656,0.24414 1.187587,-0.785504 2.462191,-1.478341 3.730469,-2.169922 1.218221,1.391225 2.3405037,2.849605 3.3359374,4.394532 -2.1610724,3.743087 -2.4235604,3.833591 -3.1894534,5.160156 v 13.833984 l -7.886719,0.761719 c -1.443212,0.140065 -2.600937,1.329573 -2.703124,2.775391 v 0.002 l -0.177735,2.523437 -4.832031,0.34375 -0.308594,-2.095703 c -0.214585,-1.45501 -1.493964,-2.5625 -2.966797,-2.5625 h -10.107422 c -1.4726,0 -2.753522,1.103291 -2.96875,2.5625 l -0.308593,2.095703 -4.832032,-0.34375 -0.177734,-2.523437 C -49.50687,58.23755 -50.664333,57.047771 -52.10939,56.90825 l -7.884766,-0.759765 V 54.886719 42.3125 c -1.849657,-3.072668 -1.925095,-3.200736 -3.191406,-5.158203 0.995543,-1.545403 2.116472,-3.005522 3.333985,-4.396485 1.268211,0.691512 2.542757,1.384338 3.730468,2.169922 0.777928,0.514872 1.81044,0.412926 2.472656,-0.24414 0.689057,-0.684683 1.554869,-1.316157 2.509766,-2.050782 0.01116,-0.0083 0.02222,-0.01681 0.0332,-0.02539 0.711234,-0.571101 1.661405,-1.08 2.728516,-1.763672 0.643522,-0.412524 0.990008,-1.160323 0.888672,-1.917969 -0.219363,-1.629052 -0.301187,-3.272595 -0.375,-4.939453 1.53175,-0.674701 3.129024,-1.214697 4.777343,-1.642578 z m -6.560546,18.572266 c -4.250818,0 -7.742188,3.488041 -7.742188,7.740234 0,4.253605 3.491438,7.742188 7.742188,7.742188 4.251805,-2e-6 7.742187,-3.489236 7.742187,-7.742188 0,-4.251539 -3.490313,-7.740234 -7.742187,-7.740234 z m 27.160156,0 c -4.252229,0 -7.742188,3.488911 -7.742188,7.740234 0,4.252736 3.490027,7.742188 7.742188,7.742188 4.250574,-2e-6 7.742187,-3.488473 7.742187,-7.742188 0,-4.252302 -3.491544,-7.740234 -7.742187,-7.740234 z m -27.160156,1.96875 c 3.188736,0 5.773437,2.583805 5.773437,5.771484 0,3.189799 -2.584701,5.773437 -5.773437,5.773438 -3.18715,0 -5.773438,-2.583639 -5.773438,-5.773438 0,-3.187679 2.586288,-5.771484 5.773438,-5.771484 z m 27.160156,0 c 3.18689,0 5.773437,2.5838 5.773437,5.771484 0,3.189804 -2.586547,5.773437 -5.773437,5.773438 -3.18927,0 -5.773438,-2.583634 -5.773438,-5.773438 0,-3.187684 2.584168,-5.771484 5.773438,-5.771484 z m -13.580078,1.408203 c -1.995117,0 -3.828125,1.553448 -3.828125,3.658203 v 5.314453 c 0,2.104548 1.83403,3.658203 3.828125,3.658203 1.994095,0 3.828125,-1.553663 3.828125,-3.658203 v -5.314453 c 0,-2.104746 -1.833008,-3.658203 -3.828125,-3.658203 z m 0,1.96875 c 1.026392,0 1.859375,0.757818 1.859375,1.689453 v 5.314453 c 0,0.932434 -0.832983,1.689453 -1.859375,1.689453 -1.026386,0 -1.859375,-0.757019 -1.859375,-1.689453 v -5.314453 c 0,-0.931635 0.832989,-1.689453 1.859375,-1.689453 z m -25.91211,13.74414 c 0.0042,0.925817 0.01563,1.940636 0.01563,2.142579 0,9.097775 11.540129,13.469243 25.878907,13.519531 h 0.01758 0.01758 c 14.338777,-0.0503 25.876953,-4.421756 25.876953,-13.519531 0,-0.205651 0.0114,-1.216233 0.01563,-2.142579 l -8.611328,0.830079 -0.296875,4.251953 c -0.03576,0.5124 -0.442679,0.920246 -0.955078,0.957031 l -10.205078,0.728516 c -0.02486,0.0021 -0.0496,0.002 -0.07422,0.002 -0.507106,0 -0.944629,-0.371633 -1.019531,-0.88086 l -0.583985,-3.96875 h -8.326172 l -0.585937,3.96875 c -0.0786,0.534106 -0.555942,0.918346 -1.09375,0.878907 l -10.205078,-0.728516 c -0.5124,-0.03676 -0.919345,-0.444632 -0.955078,-0.957031 l -0.296875,-4.251953 z m 1.988282,2.167969 4.777343,0.460938 0.181641,2.589843 c 0.102831,1.474562 1.302745,2.677416 2.777344,2.783203 l 10.205078,0.728516 c 1.550841,0.111628 2.955924,-1.020882 3.18164,-2.554687 l 0.337891,-2.28711 h 4.927735 l 0.335937,2.28711 c 0.215415,1.464513 1.498155,2.5625 2.966797,2.5625 0.01506,0 0.0997,2.2e-4 0.214844,-0.0078 l 10.205078,-0.728516 c 1.474476,-0.105851 2.674444,-1.308771 2.777344,-2.783203 l 0.18164,-2.589843 4.775391,-0.460938 c -0.01063,3.702427 -2.180581,6.316009 -6.4375,8.351563 -4.267375,2.040552 -10.503367,3.149373 -17.47461,3.173828 h -0.0098 -0.01758 c -6.967885,-0.0253 -13.200595,-1.134048 -17.466797,-3.173828 -4.257445,-2.035593 -6.428821,-4.649276 -6.439453,-8.351563 z"
       sodipodi:nodetypes="sccccccscccccccccccssccccccccccccccccccccccccscccccccccccccccccccccccccsscccccccccccccccccscsssssssssssssssssssssssssssssssssscscccscccccsccccccccccccccccccscccccscccscc" />
  </g>
  <g
     id="g1137"
     style="display:inline"
     transform="translate(85.675015,-0.866263)">
    <path
       d="m -44.305023,49.131949 c 0,1.904395 -1.543479,3.447875 -3.449303,3.447875 -1.904866,0 -3.449302,-1.54348 -3.449302,-3.447875 0,-1.904397 1.544436,-3.449304 3.449302,-3.449304 1.905824,0 3.449303,1.544907 3.449303,3.449304"
       style="display:inline;fill:url(#linearGradient20802);fill-opacity:1;fill-rule:nonzero;stroke:none;stroke-width:0.0763071"
       id="path96-2"
       inkscape:connector-curvature="0" />
    <path
       d="m -27.749755,49.131949 c 0,1.904395 1.543005,3.447875 3.447397,3.447875 1.906304,0 3.449306,-1.54348 3.449306,-3.447875 0,-1.904397 -1.543002,-3.449304 -3.449306,-3.449304 -1.904392,0 -3.447397,1.544907 -3.447397,3.449304"
       style="display:inline;fill:url(#linearGradient21538);fill-opacity:1;fill-rule:nonzero;stroke:none;stroke-width:0.0763071"
       id="path108-9"
       inkscape:connector-curvature="0" />
    <path
       d="m -44.59689,49.131888 c 0,1.74322 -1.412875,3.156069 -3.157435,3.156069 -1.743684,0 -3.157436,-1.412849 -3.157436,-3.156069 0,-1.743222 1.413752,-3.157376 3.157436,-3.157376 1.74456,0 3.157435,1.414154 3.157435,3.157376"
       style="display:inline;opacity:0.5;fill:none;fill-opacity:1;fill-rule:nonzero;stroke:#000000;stroke-width:0.583733;stroke-dasharray:none;stroke-opacity:1"
       id="path20058"
       inkscape:connector-curvature="0" />
    <path
       d="m -21.144919,49.131888 c 0,1.74322 -1.412875,3.156069 -3.157435,3.156069 -1.743684,0 -3.157436,-1.412849 -3.157436,-3.156069 0,-1.743222 1.413752,-3.157376 3.157436,-3.157376 1.74456,0 3.157435,1.414154 3.157435,3.157376"
       style="display:inline;opacity:0.5;fill:none;fill-opacity:1;fill-rule:nonzero;stroke:#000000;stroke-width:0.583733;stroke-dasharray:none;stroke-opacity:1"
       id="path20058-6"
       inkscape:connector-curvature="0" />
    <path
       d="m -21.326368,49.13185 c 0,1.644071 -1.331681,2.97656 -2.975987,2.97656 -1.643479,0 -2.975986,-1.332489 -2.975986,-2.97656 0,-1.644071 1.332507,-2.977791 2.975986,-2.977791 1.644306,0 2.975987,1.33372 2.975987,2.977791"
       style="display:inline;opacity:0.4;fill:none;fill-opacity:1;fill-rule:nonzero;stroke:#000000;stroke-width:0.942828;stroke-dasharray:none;stroke-opacity:1"
       id="path993"
       inkscape:connector-curvature="0" />
    <path
       d="m -44.778339,49.13185 c 0,1.644071 -1.331681,2.97656 -2.975987,2.97656 -1.643479,0 -2.975986,-1.332489 -2.975986,-2.97656 0,-1.644071 1.332507,-2.977791 2.975986,-2.977791 1.644306,0 2.975987,1.33372 2.975987,2.977791"
       style="display:inline;opacity:0.4;fill:none;fill-opacity:1;fill-rule:nonzero;stroke:#000000;stroke-width:0.942828;stroke-dasharray:none;stroke-opacity:1"
       id="path995"
       inkscape:connector-curvature="0" />
  </g>
</svg>
