<?xml version="1.0" encoding="UTF-8" standalone="no"?>
<!-- Created with Inkscape (http://www.inkscape.org/) -->

<svg
   version="1.0"
   width="96"
   height="96"
   id="svg2408"
   sodipodi:docname="jellyfin.svg"
   xml:space="preserve"
   inkscape:version="1.4.1 (93de688d07, 2025-03-30)"
   xmlns:inkscape="http://www.inkscape.org/namespaces/inkscape"
   xmlns:sodipodi="http://sodipodi.sourceforge.net/DTD/sodipodi-0.dtd"
   xmlns:xlink="http://www.w3.org/1999/xlink"
   xmlns="http://www.w3.org/2000/svg"
   xmlns:svg="http://www.w3.org/2000/svg"
   xmlns:rdf="http://www.w3.org/1999/02/22-rdf-syntax-ns#"
   xmlns:cc="http://creativecommons.org/ns#"
   xmlns:dc="http://purl.org/dc/elements/1.1/"><sodipodi:namedview
     id="namedview1"
     pagecolor="#ffffff"
     bordercolor="#000000"
     borderopacity="0.25"
     inkscape:showpageshadow="2"
     inkscape:pageopacity="0.0"
     inkscape:pagecheckerboard="0"
     inkscape:deskcolor="#d1d1d1"
     inkscape:zoom="1.0873608"
     inkscape:cx="-265.32132"
     inkscape:cy="-45.523068"
     inkscape:window-width="2544"
     inkscape:window-height="1374"
     inkscape:window-x="2560"
     inkscape:window-y="1440"
     inkscape:window-maximized="0"
     inkscape:current-layer="svg2408" /><defs
     id="defs2410"><linearGradient
       id="linearGradient15"><stop
         id="stop14"
         style="stop-color:#501474;stop-opacity:1;"
         offset="0" /><stop
         id="stop15"
         style="stop-color:#000000;stop-opacity:1;"
         offset="1" /></linearGradient><linearGradient
       x1="45.447727"
       y1="92.539597"
       x2="45.447727"
       y2="7.0165396"
       id="ButtonShadow"
       gradientUnits="userSpaceOnUse"
       gradientTransform="scale(1.0058652,0.994169)"><stop
         id="stop3750"
         style="stop-color:#000000;stop-opacity:1"
         offset="0" /><stop
         id="stop3752"
         style="stop-color:#000000;stop-opacity:0.58823532"
         offset="1" /></linearGradient><linearGradient
       id="linearGradient3737"><stop
         id="stop3739"
         style="stop-color:#ffffff;stop-opacity:1"
         offset="0" /><stop
         id="stop3741"
         style="stop-color:#ffffff;stop-opacity:0"
         offset="1" /></linearGradient><filter
       color-interpolation-filters="sRGB"
       id="filter3174"
       x="-0.047720931"
       y="-0.048282354"
       width="1.0954419"
       height="1.0965647"><feGaussianBlur
         id="feGaussianBlur3176"
         stdDeviation="1.71" /></filter><linearGradient
       x1="36.357143"
       y1="6"
       x2="36.357143"
       y2="63.893143"
       id="linearGradient3188"
       xlink:href="#linearGradient3737"
       gradientUnits="userSpaceOnUse" /><filter
       x="-0.19578789"
       y="-0.19578789"
       width="1.3915758"
       height="1.3915758"
       color-interpolation-filters="sRGB"
       id="filter3794"><feGaussianBlur
         id="feGaussianBlur3796"
         stdDeviation="5.28" /></filter><linearGradient
       x1="48"
       y1="20.220806"
       x2="48"
       y2="138.66119"
       id="linearGradient3613"
       xlink:href="#linearGradient3737"
       gradientUnits="userSpaceOnUse" /><radialGradient
       cx="48"
       cy="90.171875"
       r="42"
       fx="48"
       fy="90.171875"
       id="radialGradient3619"
       xlink:href="#linearGradient3737"
       gradientUnits="userSpaceOnUse"
       gradientTransform="matrix(1.1573129,0,0,0.99590774,-7.5510206,0.19713193)" /><clipPath
       id="clipPath3613"><rect
         width="84"
         height="84"
         rx="6"
         ry="6"
         x="6"
         y="6"
         id="rect3615"
         style="fill:#ffffff;fill-opacity:1;fill-rule:nonzero;stroke:none" /></clipPath><linearGradient
       x1="45.447727"
       y1="92.539597"
       x2="45.447727"
       y2="7.0165396"
       id="ButtonShadow-0"
       gradientUnits="userSpaceOnUse"
       gradientTransform="matrix(1.0058652,0,0,0.994169,100,0)"><stop
         id="stop3750-8"
         style="stop-color:#000000;stop-opacity:1"
         offset="0" /><stop
         id="stop3752-5"
         style="stop-color:#000000;stop-opacity:0.58823532"
         offset="1" /></linearGradient><linearGradient
       x1="32.251034"
       y1="6.1317081"
       x2="32.251034"
       y2="90.238609"
       id="linearGradient3780"
       xlink:href="#ButtonShadow-0"
       gradientUnits="userSpaceOnUse"
       gradientTransform="matrix(1.0238095,0,0,1.0119048,-1.1428571,-98.071429)" /><linearGradient
       x1="32.251034"
       y1="6.1317081"
       x2="32.251034"
       y2="90.238609"
       id="linearGradient3772"
       xlink:href="#ButtonShadow-0"
       gradientUnits="userSpaceOnUse"
       gradientTransform="matrix(1.0238095,0,0,1.0119048,-1.1428571,-98.071429)" /><linearGradient
       x1="32.251034"
       y1="6.1317081"
       x2="32.251034"
       y2="90.238609"
       id="linearGradient3725"
       xlink:href="#ButtonShadow-0"
       gradientUnits="userSpaceOnUse"
       gradientTransform="matrix(1.0238095,0,0,1.0119048,-1.1428571,-98.071429)" /><linearGradient
       x1="32.251034"
       y1="6.1317081"
       x2="32.251034"
       y2="90.238609"
       id="linearGradient3721"
       xlink:href="#ButtonShadow-0"
       gradientUnits="userSpaceOnUse"
       gradientTransform="translate(0,-97)" /><linearGradient
       x1="32.251034"
       y1="6.1317081"
       x2="32.251034"
       y2="90.238609"
       id="linearGradient3026"
       xlink:href="#ButtonShadow-0"
       gradientUnits="userSpaceOnUse"
       gradientTransform="matrix(1.0238095,0,0,1.0119048,-1.1428571,-98.071429)" /><linearGradient
       x1="6"
       y1="48"
       x2="90"
       y2="48"
       id="linearGradient3849"
       xlink:href="#linearGradient15"
       gradientUnits="userSpaceOnUse"
       gradientTransform="translate(-96,0)" /><linearGradient
       id="linearGradient3843-5"><stop
         id="stop3845-0"
         style="stop-color:#65216c;stop-opacity:1"
         offset="0" /><stop
         id="stop3847-4"
         style="stop-color:#982ea4;stop-opacity:1"
         offset="1" /></linearGradient><clipPath
       clipPathUnits="userSpaceOnUse"
       id="clipPath22"><rect
         width="84"
         height="84"
         rx="6"
         ry="6"
         x="-90"
         y="6.0000038"
         transform="rotate(-90)"
         id="rect22"
         style="display:inline;opacity:1;fill:url(#linearGradient22);fill-opacity:1;fill-rule:nonzero;stroke:none" /></clipPath><linearGradient
       inkscape:collect="always"
       xlink:href="#linearGradient3843-5"
       id="linearGradient22"
       gradientUnits="userSpaceOnUse"
       gradientTransform="translate(-96.000003)"
       x1="6"
       y1="48"
       x2="90"
       y2="48" /><clipPath
       clipPathUnits="userSpaceOnUse"
       id="clipPath23"><rect
         width="84"
         height="84"
         rx="6"
         ry="6"
         x="-90"
         y="6.0000038"
         transform="rotate(-90)"
         id="rect23"
         style="display:inline;opacity:1;fill:url(#linearGradient23);fill-opacity:1;fill-rule:nonzero;stroke:none" /></clipPath><linearGradient
       inkscape:collect="always"
       xlink:href="#linearGradient3843-5"
       id="linearGradient23"
       gradientUnits="userSpaceOnUse"
       gradientTransform="translate(-96.000003)"
       x1="6"
       y1="48"
       x2="90"
       y2="48" /><clipPath
       clipPathUnits="userSpaceOnUse"
       id="clipPath24"><rect
         width="84"
         height="84"
         rx="6"
         ry="6"
         x="-90"
         y="6.0000038"
         transform="rotate(-90)"
         id="rect24"
         style="display:inline;opacity:1;fill:url(#linearGradient24);fill-opacity:1;fill-rule:nonzero;stroke:none" /></clipPath><linearGradient
       inkscape:collect="always"
       xlink:href="#linearGradient3843-5"
       id="linearGradient24"
       gradientUnits="userSpaceOnUse"
       gradientTransform="translate(-96.000003)"
       x1="6"
       y1="48"
       x2="90"
       y2="48" /><linearGradient
       y2="20.913509"
       x2="19.249098"
       y1="-1.4776937"
       x1="19.249098"
       gradientTransform="matrix(2.333332,0,0,2.1359591,-3.3333349,-2.4849959)"
       gradientUnits="userSpaceOnUse"
       id="linearGradient3053"
       xlink:href="#linearGradient3737"
       inkscape:collect="always" /><linearGradient
       id="B"
       gradientUnits="userSpaceOnUse"
       x1="126.15"
       y1="219.32"
       x2="457.68"
       y2="410.73"><stop
         offset="0%"
         stop-color="#aa5cc3"
         id="stop1" /><stop
         offset="100%"
         stop-color="#00a4dc"
         id="stop2" /></linearGradient><linearGradient
       inkscape:collect="always"
       xlink:href="#B"
       id="linearGradient1"
       gradientUnits="userSpaceOnUse"
       x1="126.15"
       y1="219.32"
       x2="457.68"
       y2="410.73"
       gradientTransform="matrix(0.35755224,0,0,0.35755224,-56.808878,-29.69158)" /><linearGradient
       inkscape:collect="always"
       xlink:href="#B"
       id="linearGradient2"
       gradientUnits="userSpaceOnUse"
       x1="126.15"
       y1="219.32"
       x2="457.68"
       y2="410.73"
       gradientTransform="matrix(0.35755224,0,0,0.35755224,-56.808878,-29.69158)" /><clipPath
       clipPathUnits="userSpaceOnUse"
       id="clipPath34"><rect
         width="119.47133"
         height="118.08213"
         rx="8.5336666"
         ry="8.4344378"
         x="-118.52041"
         y="-14.253231"
         transform="rotate(-90)"
         id="rect34"
         style="display:inline;fill:#527eb2;fill-opacity:1;fill-rule:nonzero;stroke:none;stroke-width:1.41398"
         sodipodi:insensitive="true" /></clipPath><clipPath
       clipPathUnits="userSpaceOnUse"
       id="clipPath35"><rect
         width="119.47133"
         height="118.08213"
         rx="8.5336666"
         ry="8.4344378"
         x="-118.52041"
         y="-14.253231"
         transform="rotate(-90)"
         id="rect35"
         style="display:inline;fill:#527eb2;fill-opacity:1;fill-rule:nonzero;stroke:none;stroke-width:1.41398"
         sodipodi:insensitive="true" /></clipPath><clipPath
       clipPathUnits="userSpaceOnUse"
       id="clipPath36"><rect
         width="119.47133"
         height="118.08213"
         rx="8.5336666"
         ry="8.4344378"
         x="-118.52041"
         y="-14.253231"
         transform="rotate(-90)"
         id="rect36"
         style="display:inline;fill:#527eb2;fill-opacity:1;fill-rule:nonzero;stroke:none;stroke-width:1.41398"
         sodipodi:insensitive="true" /></clipPath><clipPath
       clipPathUnits="userSpaceOnUse"
       id="clipPath37"><rect
         width="119.47133"
         height="118.08213"
         rx="8.5336666"
         ry="8.4344378"
         x="-118.52041"
         y="-14.253231"
         transform="rotate(-90)"
         id="rect37"
         style="display:inline;fill:#527eb2;fill-opacity:1;fill-rule:nonzero;stroke:none;stroke-width:1.41398"
         sodipodi:insensitive="true" /></clipPath><clipPath
       clipPathUnits="userSpaceOnUse"
       id="clipPath38"><rect
         width="118.47713"
         height="118.47713"
         rx="8.4626522"
         ry="8.4626522"
         x="-113.5247"
         y="-22.746861"
         transform="rotate(-90)"
         id="rect38"
         style="display:inline;fill:#000000;fill-opacity:1;fill-rule:nonzero;stroke:none;stroke-width:1.41044" /></clipPath><clipPath
       clipPathUnits="userSpaceOnUse"
       id="clipPath39"><rect
         width="118.47713"
         height="118.47713"
         rx="8.4626522"
         ry="8.4626522"
         x="-113.5247"
         y="-22.746861"
         transform="rotate(-90)"
         id="rect39"
         style="display:inline;fill:#000000;fill-opacity:1;fill-rule:nonzero;stroke:none;stroke-width:1.41044" /></clipPath><clipPath
       clipPathUnits="userSpaceOnUse"
       id="clipPath40"><rect
         width="118.47713"
         height="118.47713"
         rx="8.4626522"
         ry="8.4626522"
         x="-113.5247"
         y="-22.746861"
         transform="rotate(-90)"
         id="rect40"
         style="display:inline;fill:#000000;fill-opacity:1;fill-rule:nonzero;stroke:none;stroke-width:1.41044" /></clipPath><clipPath
       clipPathUnits="userSpaceOnUse"
       id="clipPath41"><rect
         width="118.47713"
         height="118.47713"
         rx="8.4626522"
         ry="8.4626522"
         x="-113.5247"
         y="-22.746861"
         transform="rotate(-90)"
         id="rect41"
         style="display:inline;fill:#000000;fill-opacity:1;fill-rule:nonzero;stroke:none;stroke-width:1.41044" /></clipPath><clipPath
       clipPathUnits="userSpaceOnUse"
       id="clipPath42"><rect
         width="118.47713"
         height="118.47713"
         rx="8.4626522"
         ry="8.4626522"
         x="-113.5247"
         y="-22.746861"
         transform="rotate(-90)"
         id="rect42"
         style="display:inline;fill:#000000;fill-opacity:1;fill-rule:nonzero;stroke:none;stroke-width:1.41044" /></clipPath><clipPath
       clipPathUnits="userSpaceOnUse"
       id="clipPath43"><rect
         width="118.47713"
         height="118.47713"
         rx="8.4626522"
         ry="8.4626522"
         x="-113.5247"
         y="-22.746861"
         transform="rotate(-90)"
         id="rect43"
         style="display:inline;fill:#000000;fill-opacity:1;fill-rule:nonzero;stroke:none;stroke-width:1.41044" /></clipPath></defs><metadata
     id="metadata2413"><rdf:RDF><cc:Work
         rdf:about=""><dc:format>image/svg+xml</dc:format><dc:type
           rdf:resource="http://purl.org/dc/dcmitype/StillImage" /></cc:Work></rdf:RDF></metadata><g
     id="layer3"
     style="display:inline"><path
       d="m 12,-95.03125 c -5.5110903,0 -10.03125,4.52016 -10.03125,10.03125 v 71 c 0,5.5110902 4.5201598,10.03125 10.03125,10.03125 h 72 c 5.51109,0 10.03125,-4.5201597 10.03125,-10.03125 v -71 c 0,-5.51109 -4.52016,-10.03125 -10.03125,-10.03125 z"
       transform="scale(1,-1)"
       id="path3786"
       style="display:inline;opacity:0.08;fill:url(#linearGradient3026);fill-opacity:1;fill-rule:nonzero;stroke:none" /><path
       d="m 12,-94.03125 c -4.971633,0 -9.03125,4.059617 -9.03125,9.03125 v 71 c 0,4.9716329 4.0596171,9.03125 9.03125,9.03125 h 72 c 4.971633,0 9.03125,-4.059617 9.03125,-9.03125 v -71 c 0,-4.971633 -4.059617,-9.03125 -9.03125,-9.03125 z"
       transform="scale(1,-1)"
       id="path3778"
       style="display:inline;opacity:0.1;fill:url(#linearGradient3780);fill-opacity:1;fill-rule:nonzero;stroke:none" /><path
       d="m 12,-93 c -4.4091333,0 -8,3.590867 -8,8 v 71 c 0,4.4091333 3.5908667,8 8,8 h 72 c 4.409133,0 8,-3.5908667 8,-8 v -71 c 0,-4.409133 -3.590867,-8 -8,-8 z"
       transform="scale(1,-1)"
       id="path3770"
       style="display:inline;opacity:0.2;fill:url(#linearGradient3772);fill-opacity:1;fill-rule:nonzero;stroke:none" /><rect
       width="86"
       height="85"
       rx="7"
       ry="7"
       x="5"
       y="-92"
       transform="scale(1,-1)"
       id="rect3723"
       style="display:inline;opacity:0.3;fill:url(#linearGradient3725);fill-opacity:1;fill-rule:nonzero;stroke:none" /><rect
       width="84"
       height="84"
       rx="6"
       ry="6"
       x="6"
       y="-91"
       transform="scale(1,-1)"
       id="rect3716"
       style="display:inline;opacity:0.45;fill:url(#linearGradient3721);fill-opacity:1;fill-rule:nonzero;stroke:none" /></g><g
     id="layer1"
     style="display:inline"><rect
       width="84"
       height="84"
       rx="6"
       ry="6"
       x="-90"
       y="6"
       transform="rotate(-90)"
       id="rect2419"
       style="display:inline;fill:url(#linearGradient3849);fill-opacity:1;fill-rule:nonzero;stroke:none" /><path
       d="M 12,6 C 8.676,6 6,8.676 6,12 v 2 68 2 c 0,0.334721 0.04135,0.6507 0.09375,0.96875 0.0487,0.295596 0.09704,0.596915 0.1875,0.875 0.00988,0.03038 0.020892,0.0636 0.03125,0.09375 0.098865,0.287771 0.2348802,0.547452 0.375,0.8125 0.1445918,0.273507 0.3156161,0.535615 0.5,0.78125 0.1843839,0.245635 0.3737765,0.473472 0.59375,0.6875 0.439947,0.428056 0.94291,0.814526 1.5,1.09375 0.278545,0.139612 0.5734731,0.246947 0.875,0.34375 -0.2562018,-0.100222 -0.4867109,-0.236272 -0.71875,-0.375 -0.00741,-0.0044 -0.023866,0.0045 -0.03125,0 -0.031933,-0.0193 -0.062293,-0.04251 -0.09375,-0.0625 -0.120395,-0.0767 -0.2310226,-0.163513 -0.34375,-0.25 -0.1061728,-0.0808 -0.2132809,-0.161112 -0.3125,-0.25 C 8.4783201,88.557317 8.3087904,88.373362 8.15625,88.1875 8.0486711,88.057245 7.9378561,87.922215 7.84375,87.78125 7.818661,87.74287 7.805304,87.69538 7.78125,87.65625 7.716487,87.553218 7.6510225,87.451733 7.59375,87.34375 7.4927417,87.149044 7.3880752,86.928049 7.3125,86.71875 7.30454,86.69694 7.288911,86.6782 7.28125,86.65625 7.2494249,86.5643 7.2454455,86.469419 7.21875,86.375 7.1884177,86.268382 7.1483606,86.171969 7.125,86.0625 7.0521214,85.720988 7,85.364295 7,85 V 83 15 13 C 7,10.218152 9.2181517,8 12,8 h 2 68 2 c 2.781848,0 5,2.218152 5,5 v 2 68 2 c 0,0.364295 -0.05212,0.720988 -0.125,1.0625 -0.04415,0.206893 -0.08838,0.397658 -0.15625,0.59375 -0.0077,0.02195 -0.0233,0.04069 -0.03125,0.0625 -0.06274,0.173739 -0.138383,0.367449 -0.21875,0.53125 -0.04158,0.0828 -0.07904,0.169954 -0.125,0.25 -0.0546,0.09721 -0.126774,0.18835 -0.1875,0.28125 -0.09411,0.140965 -0.204921,0.275995 -0.3125,0.40625 -0.143174,0.17445 -0.303141,0.346998 -0.46875,0.5 -0.01117,0.0102 -0.01998,0.02115 -0.03125,0.03125 -0.138386,0.125556 -0.285091,0.234436 -0.4375,0.34375 -0.102571,0.07315 -0.204318,0.153364 -0.3125,0.21875 -0.0074,0.0045 -0.02384,-0.0044 -0.03125,0 -0.232039,0.138728 -0.462548,0.274778 -0.71875,0.375 0.301527,-0.0968 0.596455,-0.204138 0.875,-0.34375 0.55709,-0.279224 1.060053,-0.665694 1.5,-1.09375 0.219973,-0.214028 0.409366,-0.441865 0.59375,-0.6875 0.184384,-0.245635 0.355408,-0.507743 0.5,-0.78125 0.14012,-0.265048 0.276135,-0.524729 0.375,-0.8125 0.01041,-0.03078 0.02133,-0.06274 0.03125,-0.09375 0.09046,-0.278085 0.1388,-0.579404 0.1875,-0.875 C 89.95865,84.6507 90,84.334721 90,84 V 82 14 12 C 90,8.676 87.324,6 84,6 Z"
       inkscape:connector-curvature="0"
       id="rect3728"
       style="display:inline;opacity:0.25;fill:url(#linearGradient3188);fill-opacity:1;fill-rule:nonzero;stroke:none" /><path
       d="M 12,90 C 8.676,90 6,87.324 6,84 V 82 14 12 c 0,-0.334721 0.04135,-0.6507 0.09375,-0.96875 0.0487,-0.295596 0.09704,-0.596915 0.1875,-0.875 C 6.29113,10.12587 6.302142,10.09265 6.3125,10.0625 6.411365,9.774729 6.5473802,9.515048 6.6875,9.25 6.8320918,8.976493 7.0031161,8.714385 7.1875,8.46875 7.3718839,8.223115 7.5612765,7.995278 7.78125,7.78125 8.221197,7.353194 8.72416,6.966724 9.28125,6.6875 9.559795,6.547888 9.8547231,6.440553 10.15625,6.34375 9.9000482,6.443972 9.6695391,6.580022 9.4375,6.71875 c -0.00741,0.0044 -0.023866,-0.0045 -0.03125,0 -0.031933,0.0193 -0.062293,0.04251 -0.09375,0.0625 -0.120395,0.0767 -0.2310226,0.163513 -0.34375,0.25 -0.1061728,0.0808 -0.2132809,0.161112 -0.3125,0.25 C 8.4783201,7.442683 8.3087904,7.626638 8.15625,7.8125 8.0486711,7.942755 7.9378561,8.077785 7.84375,8.21875 7.818661,8.25713 7.805304,8.30462 7.78125,8.34375 7.716487,8.446782 7.6510225,8.548267 7.59375,8.65625 7.4927417,8.850956 7.3880752,9.071951 7.3125,9.28125 7.30454,9.30306 7.288911,9.3218 7.28125,9.34375 7.2494249,9.4357 7.2454455,9.530581 7.21875,9.625 7.1884177,9.731618 7.1483606,9.828031 7.125,9.9375 7.0521214,10.279012 7,10.635705 7,11 v 2 68 2 c 0,2.781848 2.2181517,5 5,5 h 2 68 2 c 2.781848,0 5,-2.218152 5,-5 V 81 13 11 C 89,10.635705 88.94788,10.279012 88.875,9.9375 88.83085,9.730607 88.78662,9.539842 88.71875,9.34375 88.71105,9.3218 88.69545,9.30306 88.6875,9.28125 88.62476,9.107511 88.549117,8.913801 88.46875,8.75 88.42717,8.6672 88.38971,8.580046 88.34375,8.5 88.28915,8.40279 88.216976,8.31165 88.15625,8.21875 88.06214,8.077785 87.951329,7.942755 87.84375,7.8125 87.700576,7.63805 87.540609,7.465502 87.375,7.3125 87.36383,7.3023 87.35502,7.29135 87.34375,7.28125 87.205364,7.155694 87.058659,7.046814 86.90625,6.9375 86.803679,6.86435 86.701932,6.784136 86.59375,6.71875 c -0.0074,-0.0045 -0.02384,0.0044 -0.03125,0 -0.232039,-0.138728 -0.462548,-0.274778 -0.71875,-0.375 0.301527,0.0968 0.596455,0.204138 0.875,0.34375 0.55709,0.279224 1.060053,0.665694 1.5,1.09375 0.219973,0.214028 0.409366,0.441865 0.59375,0.6875 0.184384,0.245635 0.355408,0.507743 0.5,0.78125 0.14012,0.265048 0.276135,0.524729 0.375,0.8125 0.01041,0.03078 0.02133,0.06274 0.03125,0.09375 0.09046,0.278085 0.1388,0.579404 0.1875,0.875 C 89.95865,11.3493 90,11.665279 90,12 v 2 68 2 c 0,3.324 -2.676,6 -6,6 z"
       inkscape:connector-curvature="0"
       id="path3615"
       style="display:inline;opacity:0.1;fill:url(#radialGradient3619);fill-opacity:1;fill-rule:nonzero;stroke:none" /></g><g
     id="layer5"
     style="display:inline"><rect
       width="66"
       height="66"
       rx="12"
       ry="12"
       x="15"
       y="15"
       clip-path="url(#clipPath3613)"
       id="rect3171"
       style="display:inline;opacity:0.1;fill:url(#linearGradient3613);fill-opacity:1;fill-rule:nonzero;stroke:#ffffff;stroke-width:0.5;stroke-linecap:round;stroke-linejoin:miter;stroke-miterlimit:4;stroke-dasharray:none;stroke-dashoffset:0;stroke-opacity:1;filter:url(#filter3794)" /></g><g
     id="g8"
     style="fill:#000000;fill-opacity:1"
     transform="translate(-0.19617614,-0.59241818)"><path
       id="path5"
       clip-path="url(#clipPath43)"
       style="opacity:0.1;fill:#000000;fill-opacity:1;stroke-width:0.357552"
       sodipodi:type="inkscape:offset"
       inkscape:radius="3.1023667"
       inkscape:original="M 24.59375 45.166016 C 18.31156 45.166016 -1.9001331 81.81434 1.1855469 88 C 4.2712169 94.18565 44.950079 94.12129 48 88 C 51.046345 81.88585 30.87237 45.173166 24.59375 45.166016 z "
       d="m 24.59375,42.064453 c -2.29346,0 -3.604648,1.139058 -4.990234,2.363281 -1.385587,1.224224 -2.766807,2.800557 -4.207032,4.664063 -2.880448,3.727012 -5.9525936,8.600168 -8.740234,13.679687 -2.7876404,5.079519 -5.2752838,10.338013 -6.91601563,14.869141 -0.82036587,2.265564 -1.43332047,4.340769 -1.75195317,6.224609 -0.3186326,1.883841 -0.5388973,3.593534 0.4218751,5.519532 0.99389899,1.992407 2.6375864,2.803724 4.3730468,3.513671 1.7354605,0.709948 3.7581135,1.216366 6.0429688,1.625 4.5697101,0.81727 10.1694091,1.197489 15.7832031,1.19336 5.613794,-0.0041 11.208286,-0.391844 15.771484,-1.210938 2.2816,-0.409546 4.300917,-0.916907 6.03125,-1.623047 1.730334,-0.706139 3.370674,-1.503883 4.365235,-3.5 0.961883,-1.930541 0.727924,-3.625155 0.40625,-5.501953 -0.321674,-1.876797 -0.934845,-3.948455 -1.75586,-6.210937 -1.642029,-4.524964 -4.129424,-9.784408 -6.914062,-14.867188 -2.784638,-5.082779 -5.852133,-9.962641 -8.728516,-13.695312 -1.438191,-1.866336 -2.81545,-3.445094 -4.199219,-4.671875 -1.383768,-1.226781 -2.692708,-2.36848 -4.988281,-2.371094 a 3.1026769,3.1026769 0 0 0 -0.0039,0 z"
       transform="matrix(0.70899762,0,0,0.70899762,22.127472,9.5112652)" /><path
       id="path6"
       clip-path="url(#clipPath42)"
       style="opacity:0.2;fill:#000000;fill-opacity:1;stroke:#000000;stroke-width:0.357552;stroke-opacity:0"
       sodipodi:type="inkscape:offset"
       inkscape:radius="1.6905811"
       inkscape:original="M 24.59375 45.166016 C 18.31156 45.166016 -1.9001331 81.81434 1.1855469 88 C 4.2712169 94.18565 44.950079 94.12129 48 88 C 51.046345 81.88585 30.87237 45.173166 24.59375 45.166016 z "
       d="m 24.59375,43.474609 c -1.607134,0 -2.777282,0.883078 -4.054688,2.011719 -1.277405,1.128642 -2.619383,2.649518 -4.02539,4.46875 -2.812014,3.638465 -5.85944,8.465532 -8.6191408,13.494141 -2.7597006,5.028608 -5.2225963,10.24336 -6.8261718,14.671875 -0.80178779,2.214257 -1.39116954,4.228484 -1.68750002,5.980468 -0.29633049,1.751985 -0.40806468,3.250944 0.29101562,4.652344 0.71713153,1.437589 2.0575022,2.187865 3.6464844,2.837891 1.5889822,0.650025 3.5354129,1.145504 5.7578125,1.542969 4.4447991,0.794929 9.9836511,1.175955 15.5312501,1.171875 5.547599,-0.0041 11.08422,-0.392615 15.523437,-1.189454 2.219609,-0.398419 4.163384,-0.894323 5.748047,-1.541015 1.584664,-0.646692 2.919307,-1.386317 3.634766,-2.822266 0.697448,-1.399809 0.578525,-2.888926 0.279297,-4.634765 -0.299229,-1.74584 -0.890777,-3.755109 -1.69336,-5.966797 -1.605165,-4.423377 -4.065329,-9.63966 -6.822265,-14.671875 -2.756936,-5.032216 -5.801135,-9.865522 -8.609375,-13.509766 -1.404121,-1.822122 -2.743706,-3.347432 -4.019532,-4.478516 -1.275825,-1.131083 -2.444652,-2.015746 -4.052734,-2.017578 a 1.6907501,1.6907501 0 0 0 -0.002,0 z"
       transform="matrix(0.70899762,0,0,0.70899762,22.127472,9.5112652)" /><path
       id="path9"
       clip-path="url(#clipPath41)"
       style="opacity:0.05;fill:#000000;fill-opacity:1;stroke-width:0.357552"
       sodipodi:type="inkscape:offset"
       inkscape:radius="4.7333522"
       inkscape:original="M 24.59375 45.166016 C 18.31156 45.166016 -1.9001331 81.81434 1.1855469 88 C 4.2712169 94.18565 44.950079 94.12129 48 88 C 51.046345 81.88585 30.87237 45.173166 24.59375 45.166016 z "
       d="m 24.59375,40.433594 c -3.086348,0 -4.559748,1.436838 -6.070313,2.771484 -1.510564,1.334647 -2.936261,2.974018 -4.416015,4.888672 -2.959509,3.829308 -6.0609413,8.754244 -8.8808595,13.892578 -2.8199182,5.138334 -5.33587406,10.449937 -7.0195312,15.099609 -0.8418286,2.324837 -1.4817744,4.471644 -1.8261719,6.507813 -0.3443975,2.036169 -0.6947366,3.987486 0.5683593,6.519531 1.3136387,2.63337 3.31211533,3.515749 5.2167969,4.294922 1.9046816,0.779173 4.0160388,1.299164 6.3730469,1.720703 4.7140165,0.843078 10.3800465,1.222936 16.0703125,1.21875 5.690266,-0.0042 11.352164,-0.391524 16.058594,-1.236328 2.353215,-0.422402 4.460753,-0.94198 6.359375,-1.716797 1.898621,-0.774816 3.891986,-1.639945 5.208984,-4.283203 1.267375,-2.543678 0.902292,-4.47777 0.554688,-6.505859 -0.347605,-2.02809 -0.98777,-4.171026 -1.830079,-6.492188 C 49.27632,72.470957 46.761953,67.160725 43.945312,62.019531 41.128672,56.878338 38.03323,51.94811 35.078125,48.113281 33.600572,46.195867 32.17644,44.554133 30.667969,43.216797 29.159497,41.879461 27.689415,40.437112 24.599609,40.433594 a 4.7338255,4.7338255 0 0 0 -0.0059,0 z"
       transform="matrix(0.70899762,0,0,0.70899762,22.127472,9.5112652)" /><path
       id="path7"
       clip-path="url(#clipPath40)"
       style="opacity:0.2;fill:#000000;fill-opacity:1;stroke-width:0.357552"
       sodipodi:type="inkscape:offset"
       inkscape:radius="1.1495725"
       inkscape:original="M 24.59375 -9.6074219 C 5.67209 -9.6074219 -55.228989 100.80482 -45.943359 119.45117 C -36.657729 138.09752 85.943389 137.88299 95.128906 119.45117 C 104.31443 101.01935 43.508267 -9.6074219 24.59375 -9.6074219 z M 24.601562 18.708984 C 36.997903 18.708984 76.839539 91.186224 70.818359 103.27148 C 64.800755 115.35675 -15.529694 115.48904 -21.615234 103.27148 C -27.700774 91.053924 12.208803 18.708984 24.601562 18.708984 z "
       d="m 24.59375,-10.757813 c -2.924209,0 -6.059409,1.9369909 -9.605469,5.070313 C 11.442222,-2.5541779 7.515478,1.8751327 3.375,7.2324219 -4.9059561,17.947 -14.022134,32.368586 -22.259766,47.376953 c -8.237632,15.008367 -15.590726,30.593589 -20.320312,43.650391 -2.364793,6.528401 -4.076476,12.421146 -4.908203,17.332036 -0.831728,4.91088 -0.85774,8.84567 0.515625,11.60351 1.385886,2.78298 4.56697,4.87062 8.945312,6.66211 4.378343,1.79149 10.028319,3.2499 16.550782,4.41602 13.0449251,2.33222 29.57395,3.47829 46.107421,3.46484 16.533472,-0.0135 33.058306,-1.18655 46.089844,-3.52539 6.515769,-1.16942 12.155287,-2.62641 16.523438,-4.4082 4.36815,-1.78179 7.538399,-3.847 8.914062,-6.60743 1.363488,-2.73599 1.325133,-6.64931 0.486328,-11.54492 C 95.805726,103.52431 94.089874,97.640183 91.722656,91.117187 86.988221,78.071196 79.637653,62.478556 71.40625,47.457031 63.174847,32.435507 54.069317,17.994969 45.796875,7.2636719 41.660654,1.8980231 37.73627,-2.5388145 34.193359,-5.6777344 30.650448,-8.8166543 27.518364,-10.757812 24.59375,-10.757813 Z m 0.0078,30.617188 c 0.989446,0 2.853292,0.920221 5.029297,2.847656 2.176006,1.927436 4.693046,4.761038 7.357422,8.216797 5.328754,6.911518 11.265024,16.312162 16.621094,26.085938 5.35607,9.773776 10.137377,19.93036 13.189453,28.341796 1.526038,4.205719 2.619556,7.978066 3.138672,11.009766 0.519116,3.0317 0.38912,5.319492 -0.148438,6.398442 -0.52495,1.05426 -2.189767,2.33002 -4.855468,3.41796 -2.665702,1.08794 -6.257688,2.02787 -10.44336,2.7793 -8.371343,1.50287 -19.119432,2.27107 -29.863281,2.2793 -10.743849,0.008 -21.4959685,-0.74353 -29.8749999,-2.24219 -4.1895156,-0.74933 -7.7876331,-1.69 -10.4589841,-2.7832 -2.671351,-1.0932 -4.343403,-2.37608 -4.878906,-3.45117 -0.547974,-1.10014 -0.680919,-3.397372 -0.166016,-6.437504 0.514902,-3.040133 1.604343,-6.818886 3.128906,-11.027344 C -14.573921,76.878007 -9.7878903,66.72622 -4.4277344,56.960937 0.93242154,47.195655 6.8715998,37.807429 12.205078,30.90625 c 2.666739,-3.450589 5.185907,-6.278888 7.363281,-8.203125 2.177375,-1.924237 4.043345,-2.84375 5.033203,-2.84375 z"
       transform="matrix(0.70899762,0,0,0.70899762,22.127472,9.5112652)" /><path
       id="path8"
       clip-path="url(#clipPath39)"
       style="opacity:0.1;fill:#000000;fill-opacity:1;stroke:#000000;stroke-width:0.357552;stroke-opacity:0"
       sodipodi:type="inkscape:offset"
       inkscape:radius="2.9000731"
       inkscape:original="M 24.59375 -9.6074219 C 5.67209 -9.6074219 -55.228989 100.80482 -45.943359 119.45117 C -36.657729 138.09752 85.943389 137.88299 95.128906 119.45117 C 104.31443 101.01935 43.508267 -9.6074219 24.59375 -9.6074219 z M 24.601562 18.708984 C 36.997903 18.708984 76.839539 91.186224 70.818359 103.27148 C 64.800755 115.35675 -15.529694 115.48904 -21.615234 103.27148 C -27.700774 91.053924 12.208803 18.708984 24.601562 18.708984 z "
       d="m 24.59375,-12.507813 c -3.775424,0 -7.083506,2.255993 -10.763672,5.507813 C 10.149912,-3.7481801 6.1731279,0.74993952 1.9902344,6.1621094 -6.3755528,16.986449 -15.522655,31.461734 -23.794922,46.533203 c -8.272267,15.07147 -15.655991,30.71447 -20.43164,43.898438 -2.387825,6.591983 -4.128884,12.562449 -4.988282,17.636719 -0.859397,5.07427 -1.021412,9.26767 0.675782,12.67578 1.72878,3.47154 5.287553,5.63414 9.847656,7.5 4.560102,1.86586 10.306313,3.33957 16.90625,4.51953 13.1998724,2.35993 29.8024443,3.50571 46.417968,3.49219 16.615525,-0.0135 33.211329,-1.18632 46.396485,-3.55274 6.592578,-1.1832 12.32827,-2.65433 16.876953,-4.50976 4.548683,-1.85543 8.096312,-3.99373 9.818359,-7.44922 1.69133,-3.39385 1.511168,-7.56305 0.644532,-12.62109 -0.866637,-5.05805 -2.609917,-11.015562 -5,-17.601566 C 88.588973,77.349477 81.207179,61.701433 72.941406,46.617187 64.675634,31.532942 55.540599,17.036309 47.183594,6.1953125 43.005091,0.77481426 39.032388,-3.730634 35.355469,-6.9882812 31.67855,-10.245928 28.371554,-12.507813 24.59375,-12.507813 Z m 0.0078,34.117188 c 0.136564,0 1.827172,0.599493 3.869141,2.408203 2.041969,1.808711 4.510734,4.573712 7.132813,7.974609 5.244158,6.801796 11.149019,16.148348 16.470703,25.859375 5.321684,9.711028 10.073748,19.812294 13.080078,28.097657 1.503165,4.142681 2.565344,7.839755 3.05664,10.708984 0.491297,2.869229 0.22175,4.898757 0.01172,5.320317 -0.178909,0.3593 -1.46415,1.5639 -3.949219,2.57812 -2.485068,1.01422 -5.984937,1.9401 -10.09375,2.67774 -8.217624,1.47527 -18.89292,2.24183 -29.554687,2.25 -10.661767,0.008 -21.3423174,-0.7439 -29.5664062,-2.21485 -4.1120445,-0.73547 -7.6138928,-1.6589 -10.1035158,-2.67773 -2.489623,-1.01883 -3.78201,-2.22661 -3.974609,-2.61328 -0.224057,-0.44983 -0.493087,-2.486554 -0.0059,-5.363286 0.487228,-2.876731 1.547301,-6.577785 3.048828,-10.722656 3.003056,-8.289741 7.7565066,-18.3857 13.0820317,-28.087891 5.3255252,-9.70219 11.2376507,-19.036673 16.4863283,-25.828125 2.624339,-3.395725 5.09341,-6.157133 7.136719,-7.96289 2.043308,-1.805757 3.734759,-2.404297 3.873046,-2.404297 z"
       transform="matrix(0.70899762,0,0,0.70899762,22.127472,9.5112652)" /><path
       id="path10"
       clip-path="url(#clipPath38)"
       style="opacity:0.05;fill:#000000;fill-opacity:1;stroke:#000000;stroke-width:0.357552;stroke-opacity:0"
       sodipodi:type="inkscape:offset"
       inkscape:radius="4.6304607"
       inkscape:original="M 24.59375 -9.6074219 C 5.67209 -9.6074219 -55.228989 100.80482 -45.943359 119.45117 C -36.657729 138.09752 85.943389 137.88299 95.128906 119.45117 C 104.31443 101.01935 43.508267 -9.6074219 24.59375 -9.6074219 z M 24.601562 18.708984 C 36.997903 18.708984 76.839539 91.186224 70.818359 103.27148 C 64.800755 115.35675 -15.529694 115.48904 -21.615234 103.27148 C -27.700774 91.053924 12.208803 18.708984 24.601562 18.708984 z "
       d="m 24.59375,-14.238281 c -4.616858,0 -8.097424,2.57245 -11.910156,5.941406 C 8.8708615,-4.9279188 4.8459155,-0.36290435 0.62109375,5.1035156 -7.8285498,16.036356 -17.005996,30.567325 -25.3125,45.701172 c -8.306504,15.133847 -15.719832,30.830953 -20.541016,44.140625 -2.410591,6.654836 -4.179656,12.701733 -5.066406,17.937503 -0.88675,5.23576 -1.185269,9.68541 0.832031,13.73633 2.067736,4.15219 6.002414,6.3907 10.742188,8.33007 4.739774,1.93938 10.57934,3.42744 17.255859,4.6211 13.3530396,2.38731 30.0279753,3.53311 46.72461,3.51953 16.696634,-0.0136 33.364163,-1.18641 46.701171,-3.58008 6.668505,-1.19683 12.497469,-2.6831 17.22461,-4.61133 4.727141,-1.92822 8.64844,-4.13673 10.71289,-8.27929 2.015403,-4.04415 1.694933,-8.46498 0.800783,-13.6836 C 99.18007,102.61341 97.408781,96.577976 94.996094,89.929687 90.17072,76.633111 82.758731,60.931402 74.458984,45.785156 66.159237,30.63891 56.993332,16.088107 48.552734,5.1386719 44.332436,-0.33604563 40.31134,-4.9081928 36.501953,-8.2832031 32.692566,-11.658213 29.214942,-14.238281 24.59375,-14.238281 Z m 0.0078,37.578125 c -0.706519,0 0.813184,0.281306 2.722657,1.972656 1.909472,1.69135 4.327935,4.389661 6.908203,7.736328 5.160535,6.693335 11.036526,15.985765 16.324219,25.634766 5.287692,9.649 10.009593,19.694732 12.970703,27.855468 1.480555,4.080369 2.514719,7.701531 2.978515,10.410157 0.463797,2.708625 0.05424,4.486091 0.167969,4.257811 0.163157,-0.32767 -0.748176,0.8067 -3.054687,1.74805 -2.306512,0.94134 -5.711305,1.85217 -9.744141,2.57617 -8.065673,1.448 -18.671324,2.21455 -29.251953,2.22266 -10.580629,0.008 -21.1888391,-0.74395 -29.2597657,-2.1875 -4.0354634,-0.72178 -7.4419703,-1.63086 -9.7519533,-2.57618 -2.309983,-0.94531 -3.228396,-2.07705 -3.082031,-1.7832 0.09614,0.19301 -0.30948,-1.587526 0.150391,-4.302733 0.45987,-2.715207 1.491945,-6.339861 2.970703,-10.421875 2.957514,-8.164028 7.6813636,-18.205879 12.9726559,-27.845703 5.2912922,-9.639825 11.1730397,-18.918577 16.3378911,-25.601563 2.582425,-3.341493 5.00328,-6.035971 6.914062,-7.724609 1.910782,-1.688639 3.430063,-1.970703 2.726562,-1.970703 z"
       transform="matrix(0.70899762,0,0,0.70899762,22.127472,9.5112652)" /></g><g
     id="g2"
     transform="matrix(0.71983796,0,0,0.71983796,15.260017,6.6845135)"><path
       d="m 11.326282,87.968138 c 3.08567,6.18565 43.764392,6.12129 46.814313,0 3.046345,-6.11415 -17.126753,-42.82761 -23.405373,-42.83476 -6.28219,0 -26.4946203,36.6491 -23.40894,42.83476 z"
       id="use2"
       style="display:inline;fill:url(#linearGradient2);stroke-width:0.357552"
       clip-path="url(#clipPath37)" /><path
       d="m 11.326282,87.968138 c 3.08567,6.18565 43.764392,6.12129 46.814313,0 3.046345,-6.11415 -17.126753,-42.82761 -23.405373,-42.83476 -6.28219,0 -26.4946203,36.6491 -23.40894,42.83476 z"
       id="use3"
       style="display:inline;fill-opacity:0;stroke:#000000;stroke-width:0.357552;stroke-opacity:0"
       clip-path="url(#clipPath36)" /><path
       d="m -35.802678,119.41843 c 9.28563,18.64635 131.886717,18.43182 141.072238,0 9.18551,-18.43182 -51.619821,-129.058483 -70.534338,-129.058483 -18.92166,0 -79.82353,110.412133 -70.5379,129.058483 z m 24.32785,-16.17924 c -6.08554,-12.217562 33.82444,-84.561102 46.2172,-84.561102 12.39634,0 52.238387,72.47584 46.217207,84.561102 -6.017604,12.08527 -86.3488673,12.21756 -92.434407,0 z"
       id="use4"
       style="display:inline;fill:url(#linearGradient1);stroke-width:0.357552"
       clip-path="url(#clipPath35)" /><path
       d="m -35.802678,119.41843 c 9.28563,18.64635 131.886717,18.43182 141.072238,0 9.18551,-18.43182 -51.619821,-129.058483 -70.534338,-129.058483 -18.92166,0 -79.82353,110.412133 -70.5379,129.058483 z m 24.32785,-16.17924 c -6.08554,-12.217562 33.82444,-84.561102 46.2172,-84.561102 12.39634,0 52.238387,72.47584 46.217207,84.561102 -6.017604,12.08527 -86.3488673,12.21756 -92.434407,0 z"
       id="use5"
       style="display:inline;fill-opacity:0;stroke:#000000;stroke-width:0.357552;stroke-opacity:0"
       clip-path="url(#clipPath34)" /></g><path
     d="M 12.000005,6 C 8.2230151,6 6.1053921,9.2414 6.0937551,11.673956 l -0.09375,19.597818 c 9.2973999,2.490371 34.5411299,5.864415 55.4999999,4.275504 9.11695,-0.691164 19.86149,-2.662609 28.49999,-5.255875 V 11.986456 C 89.999995,8.503673 87.144307,6 83.999995,6 Z"
     inkscape:connector-curvature="0"
     id="path3976"
     style="color:#000000;display:inline;overflow:visible;visibility:visible;opacity:0.743478;fill:url(#linearGradient3053);fill-opacity:1;fill-rule:evenodd;stroke:none;stroke-width:0.93351px;marker:none;enable-background:accumulate"
     sodipodi:nodetypes="sscscsss" /></svg>
