<?xml version="1.0" encoding="UTF-8" standalone="no"?>
<svg
   version="1.0"
   width="96"
   height="96"
   id="svg2408"
   sodipodi:docname="kdenlive.svg"
   inkscape:version="1.2.2 (b0a8486541, 2022-12-01)"
   xmlns:inkscape="http://www.inkscape.org/namespaces/inkscape"
   xmlns:sodipodi="http://sodipodi.sourceforge.net/DTD/sodipodi-0.dtd"
   xmlns:xlink="http://www.w3.org/1999/xlink"
   xmlns="http://www.w3.org/2000/svg"
   xmlns:svg="http://www.w3.org/2000/svg"
   xmlns:rdf="http://www.w3.org/1999/02/22-rdf-syntax-ns#"
   xmlns:cc="http://creativecommons.org/ns#"
   xmlns:dc="http://purl.org/dc/elements/1.1/">
  <sodipodi:namedview
     id="namedview102992"
     pagecolor="#ffffff"
     bordercolor="#000000"
     borderopacity="0.25"
     inkscape:showpageshadow="2"
     inkscape:pageopacity="0.0"
     inkscape:pagecheckerboard="0"
     inkscape:deskcolor="#d1d1d1"
     showgrid="false"
     inkscape:zoom="7.5645694"
     inkscape:cx="50.366383"
     inkscape:cy="43.360036"
     inkscape:current-layer="svg2408" />
  <defs
     id="defs2410">
    <linearGradient
       x1="58.650177"
       y1="122"
       x2="58.650177"
       y2="5.4252338"
       id="linearGradient119841"
       gradientUnits="userSpaceOnUse"
       gradientTransform="matrix(1.0172414,0,0,1.0172414,-1.1034483,-1.1034483)">
      <stop
         id="stop119837"
         style="stop-color:#1b1b1b;stop-opacity:1;"
         offset="0" />
      <stop
         id="stop119839"
         style="stop-color:#464646;stop-opacity:1"
         offset="1" />
    </linearGradient>
    <linearGradient
       inkscape:collect="always"
       id="linearGradient116648">
      <stop
         style="stop-color:#ffffff;stop-opacity:1;"
         offset="0"
         id="stop116644" />
      <stop
         style="stop-color:#ffffff;stop-opacity:0;"
         offset="0.46153846"
         id="stop116646" />
    </linearGradient>
    <linearGradient
       id="linearGradient4696">
      <stop
         style="stop-color:#0e56b6;stop-opacity:1"
         offset="0"
         id="stop4692" />
      <stop
         style="stop-color:#047aff;stop-opacity:1"
         offset="1"
         id="stop4694" />
    </linearGradient>
    <linearGradient
       id="linearGradient3832">
      <stop
         id="stop3834"
         style="stop-color:#fefefe;stop-opacity:1"
         offset="0" />
      <stop
         id="stop3836"
         style="stop-color:#9e9e9e;stop-opacity:1"
         offset="1" />
    </linearGradient>
    <linearGradient
       id="linearGradient3813">
      <stop
         id="stop3815"
         style="stop-color:#89b5fe;stop-opacity:1"
         offset="0" />
      <stop
         id="stop3817"
         style="stop-color:#89b5fe;stop-opacity:0.38759691"
         offset="1" />
    </linearGradient>
    <linearGradient
       id="linearGradient3795">
      <stop
         id="stop3797"
         style="stop-color:#fefefe;stop-opacity:1"
         offset="0" />
      <stop
         id="stop3801"
         style="stop-color:#fefefe;stop-opacity:0.37984496"
         offset="0.5" />
      <stop
         id="stop3799"
         style="stop-color:#fefefe;stop-opacity:0"
         offset="1" />
    </linearGradient>
    <linearGradient
       id="linearGradient3770">
      <stop
         id="stop3772"
         style="stop-color:#07337d;stop-opacity:1"
         offset="0" />
      <stop
         id="stop3774"
         style="stop-color:#07337d;stop-opacity:0"
         offset="1" />
    </linearGradient>
    <linearGradient
       id="linearGradient3753">
      <stop
         id="stop3755"
         style="stop-color:#f8fcfe;stop-opacity:1"
         offset="0" />
      <stop
         id="stop3761"
         style="stop-color:#85cfed;stop-opacity:1"
         offset="0.17041366" />
      <stop
         id="stop3763"
         style="stop-color:#629dce;stop-opacity:1"
         offset="0.43049213" />
      <stop
         id="stop3757"
         style="stop-color:#1048a0;stop-opacity:1"
         offset="1" />
    </linearGradient>
    <linearGradient
       id="linearGradient3743">
      <stop
         id="stop3745"
         style="stop-color:#fefefe;stop-opacity:1"
         offset="0" />
      <stop
         id="stop3747"
         style="stop-color:#fefefe;stop-opacity:0"
         offset="1" />
    </linearGradient>
    <linearGradient
       x1="45.447727"
       y1="92.539597"
       x2="45.447727"
       y2="7.0165396"
       id="ButtonShadow"
       gradientUnits="userSpaceOnUse"
       gradientTransform="scale(1.0058652,0.994169)">
      <stop
         id="stop3750"
         style="stop-color:#000000;stop-opacity:1"
         offset="0" />
      <stop
         id="stop3752"
         style="stop-color:#000000;stop-opacity:0.58823532"
         offset="1" />
    </linearGradient>
    <linearGradient
       id="linearGradient3737">
      <stop
         id="stop3739"
         style="stop-color:#dcceaf;stop-opacity:1"
         offset="0" />
      <stop
         id="stop3741"
         style="stop-color:#fefefe;stop-opacity:0"
         offset="1" />
    </linearGradient>
    <filter
       color-interpolation-filters="sRGB"
       id="filter3174"
       x="-0.047720931"
       y="-0.048282354"
       width="1.0954419"
       height="1.0965647">
      <feGaussianBlur
         id="feGaussianBlur3176"
         stdDeviation="1.71" />
    </filter>
    <linearGradient
       x1="36.357143"
       y1="6"
       x2="36.357143"
       y2="63.893143"
       id="linearGradient3188"
       xlink:href="#linearGradient3743"
       gradientUnits="userSpaceOnUse" />
    <filter
       x="-0.19578789"
       y="-0.19578789"
       width="1.3915758"
       height="1.3915758"
       color-interpolation-filters="sRGB"
       id="filter3794">
      <feGaussianBlur
         id="feGaussianBlur3796"
         stdDeviation="5.28" />
    </filter>
    <linearGradient
       x1="48"
       y1="20.220806"
       x2="48"
       y2="138.66119"
       id="linearGradient3613"
       xlink:href="#linearGradient3737"
       gradientUnits="userSpaceOnUse" />
    <radialGradient
       cx="48"
       cy="90.171875"
       r="42"
       fx="48"
       fy="90.171875"
       id="radialGradient3619"
       xlink:href="#linearGradient3743"
       gradientUnits="userSpaceOnUse"
       gradientTransform="matrix(1.1573129,0,0,0.99590774,-7.5510206,0.19713193)" />
    <clipPath
       id="clipPath3613">
      <rect
         width="84"
         height="84"
         rx="6"
         ry="6"
         x="6"
         y="6"
         id="rect3615"
         style="fill:#fefefe;fill-opacity:1;fill-rule:nonzero;stroke:none" />
    </clipPath>
    <linearGradient
       x1="45.447727"
       y1="92.539597"
       x2="45.447727"
       y2="7.0165396"
       id="ButtonShadow-0"
       gradientUnits="userSpaceOnUse"
       gradientTransform="matrix(1.0058652,0,0,0.994169,100,0)">
      <stop
         id="stop3750-8"
         style="stop-color:#000000;stop-opacity:1"
         offset="0" />
      <stop
         id="stop3752-5"
         style="stop-color:#000000;stop-opacity:0.58823532"
         offset="1" />
    </linearGradient>
    <linearGradient
       x1="32.251034"
       y1="6.1317081"
       x2="32.251034"
       y2="90.238609"
       id="linearGradient3725"
       xlink:href="#ButtonShadow-0"
       gradientUnits="userSpaceOnUse"
       gradientTransform="matrix(1.0238095,0,0,-1.0119048,-1.1428571,98.071429)" />
    <linearGradient
       x1="32.251034"
       y1="6.1317081"
       x2="32.251034"
       y2="90.238609"
       id="linearGradient3721"
       xlink:href="#ButtonShadow-0"
       gradientUnits="userSpaceOnUse"
       gradientTransform="matrix(1,0,0,-1,0,97)" />
    <linearGradient
       x1="58.650177"
       y1="122"
       x2="58.650177"
       y2="5.4252338"
       id="ButtonColor"
       gradientUnits="userSpaceOnUse"
       gradientTransform="matrix(1.0172414,0,0,1.0172414,-1.1034483,-1.1034483)">
      <stop
         id="stop3189"
         style="stop-color:#141414;stop-opacity:1"
         offset="0" />
      <stop
         id="stop3191"
         style="stop-color:#464646;stop-opacity:1"
         offset="1" />
    </linearGradient>
    <linearGradient
       x1="48"
       y1="90"
       x2="48"
       y2="5.9877172"
       id="linearGradient3686"
       xlink:href="#ButtonColor"
       gradientUnits="userSpaceOnUse"
       gradientTransform="translate(-110,0)" />
    <linearGradient
       x1="32.251034"
       y1="6.1317081"
       x2="32.251034"
       y2="90.238609"
       id="linearGradient3702"
       xlink:href="#ButtonShadow-0"
       gradientUnits="userSpaceOnUse"
       gradientTransform="matrix(1.0238095,0,0,-1.0119048,-1.1428571,98.071429)" />
    <linearGradient
       x1="32.251034"
       y1="6.1317081"
       x2="32.251034"
       y2="90.238609"
       id="linearGradient3711"
       xlink:href="#ButtonShadow-0"
       gradientUnits="userSpaceOnUse"
       gradientTransform="matrix(1.0238095,0,0,-1.0119048,-1.1428571,98.071429)" />
    <linearGradient
       x1="32.251034"
       y1="6.1317081"
       x2="32.251034"
       y2="90.238609"
       id="linearGradient3719"
       xlink:href="#ButtonShadow-0"
       gradientUnits="userSpaceOnUse"
       gradientTransform="matrix(1.0238095,0,0,-1.0119048,-1.1428571,98.071429)" />
    <linearGradient
       x1="48"
       y1="90"
       x2="48"
       y2="5.9877172"
       id="linearGradient3885"
       xlink:href="#linearGradient119841"
       gradientUnits="userSpaceOnUse" />
    <radialGradient
       cx="48"
       cy="70.878891"
       r="32"
       fx="48"
       fy="70.878891"
       id="radialGradient3759"
       xlink:href="#linearGradient3753"
       gradientUnits="userSpaceOnUse"
       gradientTransform="matrix(1.2186657,-8.6867406e-8,8.071592e-8,1.1323663,-10.495954,-9.3819743)" />
    <linearGradient
       x1="20"
       y1="48"
       x2="63.596588"
       y2="48"
       id="linearGradient3776"
       xlink:href="#linearGradient3770"
       gradientUnits="userSpaceOnUse"
       gradientTransform="matrix(0,1,-1,0,96,0)" />
    <linearGradient
       x1="48"
       y1="24"
       x2="48"
       y2="48"
       id="linearGradient3793"
       xlink:href="#linearGradient3795"
       gradientUnits="userSpaceOnUse" />
    <linearGradient
       x1="16"
       y1="48"
       x2="80"
       y2="48"
       id="linearGradient3819"
       xlink:href="#linearGradient3813"
       gradientUnits="userSpaceOnUse" />
    <linearGradient
       x1="122.01786"
       y1="40.413242"
       x2="117.41071"
       y2="50.727177"
       id="linearGradient3838"
       xlink:href="#linearGradient3832"
       gradientUnits="userSpaceOnUse" />
    <radialGradient
       gradientUnits="userSpaceOnUse"
       xlink:href="#linearGradient3743"
       id="radialGradient4037"
       fy="55.9258"
       fx="47.988014"
       r="30.644978"
       cy="55.9258"
       cx="47.988014" />
    <linearGradient
       gradientTransform="matrix(-3.5581987,0,0,3.7662662,94.48264,20.462947)"
       y2="10"
       x2="10.915476"
       y1="10"
       x1="2.1690483"
       gradientUnits="userSpaceOnUse"
       id="linearGradient1066"
       xlink:href="#linearGradient1062" />
    <linearGradient
       id="linearGradient1062">
      <stop
         id="stop1058"
         offset="0"
         style="stop-color:#0e2f61;stop-opacity:1" />
      <stop
         id="stop1060"
         offset="1"
         style="stop-color:#044c8f;stop-opacity:1" />
    </linearGradient>
    <radialGradient
       gradientUnits="userSpaceOnUse"
       xlink:href="#linearGradient3743"
       id="radialGradient4037-5"
       fy="55.9258"
       fx="47.988014"
       r="30.644978"
       cy="55.9258"
       cx="47.988014"
       gradientTransform="matrix(1,0,0,1.141506,0,-7.1619394)" />
    <linearGradient
       xlink:href="#linearGradient4696"
       id="linearGradient4690"
       gradientUnits="userSpaceOnUse"
       gradientTransform="matrix(-3.5581987,0,0,4.2992155,94.48264,16.196637)"
       x1="2.1690483"
       y1="10"
       x2="10.915476"
       y2="10" />
    <linearGradient
       gradientUnits="userSpaceOnUse"
       y2="24"
       x2="21"
       y1="20.242001"
       x1="6"
       id="linearGradient4241"
       xlink:href="#linearGradient4235"
       gradientTransform="matrix(6.8141563,0,0,5.4924863,15.431449,24.730536)" />
    <linearGradient
       id="linearGradient4235">
      <stop
         id="stop7"
         offset="0"
         style="stop-color:#abdaf9;stop-opacity:1" />
      <stop
         id="stop9"
         offset="1"
         style="stop-color:#7cbcec;stop-opacity:1" />
    </linearGradient>
    <linearGradient
       y2="20.913509"
       x2="19.249098"
       y1="-1.4776937"
       x1="19.249098"
       gradientTransform="matrix(2.2790245,0,0,1.9968013,-2.1610305,0.01950141)"
       gradientUnits="userSpaceOnUse"
       id="linearGradient3053"
       xlink:href="#linearGradient3737-6"
       inkscape:collect="always" />
    <linearGradient
       id="linearGradient3737-6">
      <stop
         id="stop3739-7"
         style="stop-color:#ffffff;stop-opacity:1"
         offset="0" />
      <stop
         id="stop3741-5"
         style="stop-color:#ffffff;stop-opacity:0"
         offset="1" />
    </linearGradient>
    <radialGradient
       inkscape:collect="always"
       xlink:href="#linearGradient116648"
       id="radialGradient116652"
       cx="30.42827"
       cy="18.091204"
       fx="30.42827"
       fy="18.091204"
       r="30.30957"
       gradientTransform="matrix(3.2544113,0,0,0.98359525,-66.846028,0.19938342)"
       gradientUnits="userSpaceOnUse" />
    <radialGradient
       inkscape:collect="always"
       xlink:href="#linearGradient116648"
       id="radialGradient116652-6"
       cx="30.42827"
       cy="18.091204"
       fx="30.42827"
       fy="18.091204"
       r="30.30957"
       gradientTransform="matrix(3.2544113,0,0,0.98359525,-66.823568,26.653484)"
       gradientUnits="userSpaceOnUse" />
    <radialGradient
       inkscape:collect="always"
       xlink:href="#linearGradient116648"
       id="radialGradient116652-6-2"
       cx="30.42827"
       cy="18.091204"
       fx="30.42827"
       fy="18.091204"
       r="30.30957"
       gradientTransform="matrix(3.2544113,0,0,0.98359525,-66.823569,53.107584)"
       gradientUnits="userSpaceOnUse" />
  </defs>
  <metadata
     id="metadata2413">
    <rdf:RDF>
      <cc:Work
         rdf:about="">
        <dc:format>image/svg+xml</dc:format>
        <dc:type
           rdf:resource="http://purl.org/dc/dcmitype/StillImage" />
      </cc:Work>
    </rdf:RDF>
  </metadata>
  <g
     id="layer2"
     style="display:none">
    <path
       d="M 11,7 C 7.676,7 5,9.676 5,13 v 73 c 0,3.324 2.676,6 6,6 h 74 c 3.324,0 6,-2.676 6,-6 V 13 C 91,9.676 88.324,7 85,7 Z m -1,4 h 6 v 4 h -6 z m 70,0 h 6 v 4 h -6 z m -70,8 h 6 v 4 h -6 z m 70,0 h 6 v 4 h -6 z m -70,8 h 6 v 4 h -6 z m 70,0 h 6 v 4 h -6 z m -70,8 h 6 v 4 h -6 z m 70,0 h 6 v 4 h -6 z m -70,8 h 6 v 4 h -6 z m 70,0 h 6 v 4 h -6 z m -70,8 h 6 v 4 h -6 z m 70,0 h 6 v 4 h -6 z m -70,8 h 6 v 4 h -6 z m 70,0 h 6 v 4 h -6 z m -70,8 h 6 v 4 h -6 z m 70,0 h 6 v 4 h -6 z m -70,8 h 6 v 4 h -6 z m 70,0 h 6 v 4 h -6 z m -70,8 h 6 v 4 h -6 z m 70,0 h 6 v 4 h -6 z"
       id="rect3745"
       style="opacity:0.9;fill:url(#ButtonShadow);fill-opacity:1;fill-rule:nonzero;stroke:none;filter:url(#filter3174)" />
  </g>
  <g
     id="layer3"
     style="display:inline">
    <path
       d="M 12,4 C 6.4912778,4 2,8.4912778 2,14 v 71 c 0,5.508722 4.4912778,10 10,10 h 72 c 5.508722,0 10,-4.491278 10,-10 V 14 C 94,8.4912778 89.508722,4 84,4 Z"
       id="path3717"
       style="display:inline;opacity:0.08;fill:url(#linearGradient3719);fill-opacity:1;fill-rule:nonzero;stroke:none" />
    <path
       d="M 12,5.03125 C 7.053585,5.03125 3.03125,9.053585 3.03125,14 v 71 c 0,4.946415 4.022335,8.96875 8.96875,8.96875 h 72 c 4.946415,0 8.96875,-4.022335 8.96875,-8.96875 V 14 C 92.96875,9.053585 88.946415,5.03125 84,5.03125 Z m -0.03125,7.9375 h 2.0625 v 0.0625 h -2.0625 z m 70,0 h 2.0625 v 0.0625 h -2.0625 z m -70,8 h 2.0625 v 0.0625 h -2.0625 z m 70,0 h 2.0625 v 0.0625 h -2.0625 z m -70,8 h 2.0625 v 0.0625 h -2.0625 z m 70,0 h 2.0625 v 0.0625 h -2.0625 z m -70,8 h 2.0625 v 0.0625 h -2.0625 z m 70,0 h 2.0625 v 0.0625 h -2.0625 z m -70,8 h 2.0625 v 0.0625 h -2.0625 z m 70,0 h 2.0625 v 0.0625 h -2.0625 z m -70,8 h 2.0625 v 0.0625 h -2.0625 z m 70,0 h 2.0625 v 0.0625 h -2.0625 z m -70,8 h 2.0625 v 0.0625 h -2.0625 z m 70,0 h 2.0625 v 0.0625 h -2.0625 z m -70,8 h 2.0625 v 0.0625 h -2.0625 z m 70,0 h 2.0625 v 0.0625 h -2.0625 z m -70,8 h 2.0625 v 0.0625 h -2.0625 z m 70,0 h 2.0625 v 0.0625 h -2.0625 z m -70,8 h 2.0625 v 0.0625 h -2.0625 z m 70,0 h 2.0625 v 0.0625 h -2.0625 z"
       id="path3709"
       style="display:inline;opacity:0.1;fill:url(#linearGradient3711);fill-opacity:1;fill-rule:nonzero;stroke:none" />
    <path
       d="M 12,6 C 7.5798064,6 4,9.5798064 4,14 v 71 c 0,4.420194 3.5798064,8 8,8 h 72 c 4.420194,0 8,-3.579806 8,-8 V 14 C 92,9.5798064 88.420194,6 84,6 Z m -1,6 h 4 v 2 h -4 z m 70,0 h 4 v 2 h -4 z m -70,8 h 4 v 2 h -4 z m 70,0 h 4 v 2 h -4 z m -70,8 h 4 v 2 h -4 z m 70,0 h 4 v 2 h -4 z m -70,8 h 4 v 2 h -4 z m 70,0 h 4 v 2 h -4 z m -70,8 h 4 v 2 h -4 z m 70,0 h 4 v 2 h -4 z m -70,8 h 4 v 2 h -4 z m 70,0 h 4 v 2 h -4 z m -70,8 h 4 v 2 h -4 z m 70,0 h 4 v 2 h -4 z m -70,8 h 4 v 2 h -4 z m 70,0 h 4 v 2 h -4 z m -70,8 h 4 v 2 h -4 z m 70,0 h 4 v 2 h -4 z m -70,8 h 4 v 2 h -4 z m 70,0 h 4 v 2 h -4 z"
       id="path3700"
       style="display:inline;opacity:0.2;fill:url(#linearGradient3702);fill-opacity:1;fill-rule:nonzero;stroke:none" />
    <path
       d="M 12,7 C 8.122,7 5,10.122 5,14 v 71 c 0,3.878 3.122,7 7,7 h 72 c 3.878,0 7,-3.122 7,-7 V 14 C 91,10.122 87.878,7 84,7 Z m -2,4 h 6 v 4 h -6 z m 70,0 h 6 v 4 h -6 z m -70,8 h 6 v 4 h -6 z m 70,0 h 6 v 4 h -6 z m -70,8 h 6 v 4 h -6 z m 70,0 h 6 v 4 h -6 z m -70,8 h 6 v 4 h -6 z m 70,0 h 6 v 4 h -6 z m -70,8 h 6 v 4 h -6 z m 70,0 h 6 v 4 h -6 z m -70,8 h 6 v 4 h -6 z m 70,0 h 6 v 4 h -6 z m -70,8 h 6 v 4 h -6 z m 70,0 h 6 v 4 h -6 z m -70,8 h 6 v 4 h -6 z m 70,0 h 6 v 4 h -6 z m -70,8 h 6 v 4 h -6 z m 70,0 h 6 v 4 h -6 z m -70,8 h 6 v 4 h -6 z m 70,0 h 6 v 4 h -6 z"
       id="rect3723"
       style="display:inline;opacity:0.3;fill:url(#linearGradient3725);fill-opacity:1;fill-rule:nonzero;stroke:none" />
    <path
       d="M 12,7 C 8.676,7 6,9.676 6,13 v 72 c 0,3.324 2.676,6 6,6 h 72 c 3.324,0 6,-2.676 6,-6 V 13 C 90,9.676 87.324,7 84,7 Z m -2,4 h 6 v 4 h -6 z m 70,0 h 6 v 4 h -6 z m -70,8 h 6 v 4 h -6 z m 70,0 h 6 v 4 h -6 z m -70,8 h 6 v 4 h -6 z m 70,0 h 6 v 4 h -6 z m -70,8 h 6 v 4 h -6 z m 70,0 h 6 v 4 h -6 z m -70,8 h 6 v 4 h -6 z m 70,0 h 6 v 4 h -6 z m -70,8 h 6 v 4 h -6 z m 70,0 h 6 v 4 h -6 z m -70,8 h 6 v 4 h -6 z m 70,0 h 6 v 4 h -6 z m -70,8 h 6 v 4 h -6 z m 70,0 h 6 v 4 h -6 z m -70,8 h 6 v 4 h -6 z m 70,0 h 6 v 4 h -6 z m -70,8 h 6 v 4 h -6 z m 70,0 h 6 v 4 h -6 z"
       id="rect3716"
       style="display:inline;opacity:0.45;fill:url(#linearGradient3721);fill-opacity:1;fill-rule:nonzero;stroke:none" />
  </g>
  <g
     id="layer1"
     style="display:inline">
    <path
       d="M 12,6 C 8.676,6 6,8.676 6,12 v 72 c 0,3.324 2.676,6 6,6 h 72 c 3.324,0 6,-2.676 6,-6 V 12 C 90,8.676 87.324,6 84,6 Z m -2,4 h 6 v 4 h -6 z m 70,0 h 6 v 4 h -6 z m -70,8 h 6 v 4 h -6 z m 70,0 h 6 v 4 h -6 z m -70,8 h 6 v 4 h -6 z m 70,0 h 6 v 4 h -6 z m -70,8 h 6 v 4 h -6 z m 70,0 h 6 v 4 h -6 z m -70,8 h 6 v 4 h -6 z m 70,0 h 6 v 4 h -6 z m -70,8 h 6 v 4 h -6 z m 70,0 h 6 v 4 h -6 z m -70,8 h 6 v 4 h -6 z m 70,0 h 6 v 4 h -6 z m -70,8 h 6 v 4 h -6 z m 70,0 h 6 v 4 h -6 z m -70,8 h 6 v 4 h -6 z m 70,0 h 6 v 4 h -6 z m -70,8 h 6 v 4 h -6 z m 70,0 h 6 v 4 h -6 z"
       id="rect2419"
       style="fill:url(#linearGradient3885);fill-opacity:1;fill-rule:nonzero;stroke:none" />
  </g>
  <g
     id="layer5"
     style="display:inline">
    <path
       id="rect116397"
       style="display:inline;opacity:0.704545;mix-blend-mode:overlay;fill:#130e0e;fill-opacity:1;stroke-linecap:round"
       d="M 17.667969,9.8144531 V 33.277344 H 78.240234 V 9.8144531 Z m 0.04492,26.2441409 v 23.46289 h 60.574218 v -23.46289 z m 0,26.24414 v 23.460938 h 60.57422 V 62.302734 Z" />
    <rect
       width="66"
       height="66"
       rx="12"
       ry="12"
       x="15"
       y="15"
       clip-path="url(#clipPath3613)"
       id="rect3171"
       style="display:inline;opacity:0.15;fill:url(#linearGradient3613);fill-opacity:1;fill-rule:nonzero;stroke:#fefefe;stroke-width:0.5;stroke-linecap:round;stroke-linejoin:miter;stroke-miterlimit:4;stroke-dasharray:none;stroke-dashoffset:0;stroke-opacity:1;filter:url(#filter3794)" />
    <path
       d="M 12,6 C 8.676,6 6,8.676 6,12 v 2 68 2 c 0,0.334721 0.04135,0.6507 0.09375,0.96875 0.0487,0.295596 0.09704,0.596915 0.1875,0.875 0.00988,0.03038 0.020892,0.0636 0.03125,0.09375 0.098865,0.287771 0.2348802,0.547452 0.375,0.8125 0.1445918,0.273507 0.3156161,0.535615 0.5,0.78125 0.1843839,0.245635 0.3737765,0.473472 0.59375,0.6875 0.439947,0.428056 0.94291,0.814526 1.5,1.09375 0.278545,0.139612 0.5734731,0.246947 0.875,0.34375 -0.2562018,-0.100222 -0.4867109,-0.236272 -0.71875,-0.375 -0.00741,-0.0044 -0.023866,0.0045 -0.03125,0 -0.031933,-0.0193 -0.062293,-0.04251 -0.09375,-0.0625 -0.120395,-0.0767 -0.2310226,-0.163513 -0.34375,-0.25 -0.1061728,-0.0808 -0.2132809,-0.161112 -0.3125,-0.25 C 8.4783201,88.557317 8.3087904,88.373362 8.15625,88.1875 8.0486711,88.057245 7.9378561,87.922215 7.84375,87.78125 7.818661,87.74287 7.805304,87.69538 7.78125,87.65625 7.716487,87.553218 7.6510225,87.451733 7.59375,87.34375 7.4927417,87.149044 7.3880752,86.928049 7.3125,86.71875 7.30454,86.69694 7.288911,86.6782 7.28125,86.65625 7.2494249,86.5643 7.2454455,86.469419 7.21875,86.375 7.1884177,86.268382 7.1483606,86.171969 7.125,86.0625 7.0521214,85.720988 7,85.364295 7,85 V 83 15 13 C 7,10.218152 9.2181517,8 12,8 h 2 68 2 c 2.781848,0 5,2.218152 5,5 v 2 68 2 c 0,0.364295 -0.05212,0.720988 -0.125,1.0625 -0.04415,0.206893 -0.08838,0.397658 -0.15625,0.59375 -0.0077,0.02195 -0.0233,0.04069 -0.03125,0.0625 -0.06274,0.173739 -0.138383,0.367449 -0.21875,0.53125 -0.04158,0.0828 -0.07904,0.169954 -0.125,0.25 -0.0546,0.09721 -0.126774,0.18835 -0.1875,0.28125 -0.09411,0.140965 -0.204921,0.275995 -0.3125,0.40625 -0.143174,0.17445 -0.303141,0.346998 -0.46875,0.5 -0.01117,0.0102 -0.01998,0.02115 -0.03125,0.03125 -0.138386,0.125556 -0.285091,0.234436 -0.4375,0.34375 -0.102571,0.07315 -0.204318,0.153364 -0.3125,0.21875 -0.0074,0.0045 -0.02384,-0.0044 -0.03125,0 -0.232039,0.138728 -0.462548,0.274778 -0.71875,0.375 0.301527,-0.0968 0.596455,-0.204138 0.875,-0.34375 0.55709,-0.279224 1.060053,-0.665694 1.5,-1.09375 0.219973,-0.214028 0.409366,-0.441865 0.59375,-0.6875 0.184384,-0.245635 0.355408,-0.507743 0.5,-0.78125 0.14012,-0.265048 0.276135,-0.524729 0.375,-0.8125 0.01041,-0.03078 0.02133,-0.06274 0.03125,-0.09375 0.09046,-0.278085 0.1388,-0.579404 0.1875,-0.875 C 89.95865,84.6507 90,84.334721 90,84 V 82 14 12 C 90,8.676 87.324,6 84,6 Z"
       id="rect3728"
       style="display:inline;opacity:0.25;fill:url(#linearGradient3188);fill-opacity:1;fill-rule:nonzero;stroke:none" />
    <path
       d="M 12,90 C 8.676,90 6,87.324 6,84 V 82 14 12 c 0,-0.334721 0.04135,-0.6507 0.09375,-0.96875 0.0487,-0.295596 0.09704,-0.596915 0.1875,-0.875 C 6.29113,10.12587 6.302142,10.09265 6.3125,10.0625 6.411365,9.774729 6.5473802,9.515048 6.6875,9.25 6.8320918,8.976493 7.0031161,8.714385 7.1875,8.46875 7.3718839,8.223115 7.5612765,7.995278 7.78125,7.78125 8.221197,7.353194 8.72416,6.966724 9.28125,6.6875 9.559795,6.547888 9.8547231,6.440553 10.15625,6.34375 9.9000482,6.443972 9.6695391,6.580022 9.4375,6.71875 c -0.00741,0.0044 -0.023866,-0.0045 -0.03125,0 -0.031933,0.0193 -0.062293,0.04251 -0.09375,0.0625 -0.120395,0.0767 -0.2310226,0.163513 -0.34375,0.25 -0.1061728,0.0808 -0.2132809,0.161112 -0.3125,0.25 C 8.4783201,7.442683 8.3087904,7.626638 8.15625,7.8125 8.0486711,7.942755 7.9378561,8.077785 7.84375,8.21875 7.818661,8.25713 7.805304,8.30462 7.78125,8.34375 7.716487,8.446782 7.6510225,8.548267 7.59375,8.65625 7.4927417,8.850956 7.3880752,9.071951 7.3125,9.28125 7.30454,9.30306 7.288911,9.3218 7.28125,9.34375 7.2494249,9.4357 7.2454455,9.530581 7.21875,9.625 7.1884177,9.731618 7.1483606,9.828031 7.125,9.9375 7.0521214,10.279012 7,10.635705 7,11 v 2 68 2 c 0,2.781848 2.2181517,5 5,5 h 2 68 2 c 2.781848,0 5,-2.218152 5,-5 V 81 13 11 C 89,10.635705 88.94788,10.279012 88.875,9.9375 88.83085,9.730607 88.78662,9.539842 88.71875,9.34375 88.71105,9.3218 88.69545,9.30306 88.6875,9.28125 88.62476,9.107511 88.549117,8.913801 88.46875,8.75 88.42717,8.6672 88.38971,8.580046 88.34375,8.5 88.28915,8.40279 88.216976,8.31165 88.15625,8.21875 88.06214,8.077785 87.951329,7.942755 87.84375,7.8125 87.700576,7.63805 87.540609,7.465502 87.375,7.3125 87.36383,7.3023 87.35502,7.29135 87.34375,7.28125 87.205364,7.155694 87.058659,7.046814 86.90625,6.9375 86.803679,6.86435 86.701932,6.784136 86.59375,6.71875 c -0.0074,-0.0045 -0.02384,0.0044 -0.03125,0 -0.232039,-0.138728 -0.462548,-0.274778 -0.71875,-0.375 0.301527,0.0968 0.596455,0.204138 0.875,0.34375 0.55709,0.279224 1.060053,0.665694 1.5,1.09375 0.219973,0.214028 0.409366,0.441865 0.59375,0.6875 0.184384,0.245635 0.355408,0.507743 0.5,0.78125 0.14012,0.265048 0.276135,0.524729 0.375,0.8125 0.01041,0.03078 0.02133,0.06274 0.03125,0.09375 0.09046,0.278085 0.1388,0.579404 0.1875,0.875 C 89.95865,11.3493 90,11.665279 90,12 v 2 68 2 c 0,3.324 -2.676,6 -6,6 z"
       id="path3615"
       style="display:inline;opacity:0.15;fill:url(#radialGradient3619);fill-opacity:1;fill-rule:nonzero;stroke:none" />
    <g
       inkscape:label="Camada 1"
       inkscape:groupmode="layer"
       transform="matrix(0.30062075,0,0,0.30062075,32.084312,40.613561)"
       id="layer1-6"
       style="display:inline">
      <g
         id="g49"
         style="display:inline">
        <g
           transform="matrix(1.1846011,0,0,1.1846011,1931.6035,2348.6271)"
           id="g36"
           style="display:inline;opacity:0.207;fill:#000000;fill-opacity:1">
          <g
             transform="matrix(1.0048356,0,0,1.0048356,-4.816092,7.0112194)"
             id="g33"
             style="fill:#000000;fill-opacity:1">
            <path
               d="m -1598.1,-2004.7 v 7.5 h 10.3 v -7.5 z"
               class="st0"
               inkscape:connector-curvature="0"
               id="path25"
               style="fill:#000000;fill-opacity:1" />
            <path
               d="m -1606.2,-1992.6 v 7.5 h 18.5 v -7.5 z"
               class="st0"
               inkscape:connector-curvature="0"
               id="path26"
               style="fill:#000000;fill-opacity:1" />
            <path
               d="m -1627.9,-1980.5 v 7.5 h 40.1 v -7.5 z"
               class="st0"
               inkscape:connector-curvature="0"
               id="path27"
               style="fill:#000000;fill-opacity:1" />
            <path
               d="m -1650,-1968.5 v 7.5 h 62.2 v -7.5 z"
               class="st0"
               inkscape:connector-curvature="0"
               id="path28"
               style="fill:#000000;fill-opacity:1" />
            <path
               d="m -1664.6,-1956.4 v 7.5 h 76.8 v -7.5 z"
               class="st0"
               inkscape:connector-curvature="0"
               id="path29"
               style="fill:#000000;fill-opacity:1" />
            <path
               d="m -1640.3,-1944.4 v 7.5 h 52.5 v -7.5 z"
               class="st0"
               inkscape:connector-curvature="0"
               id="path30"
               style="fill:#000000;fill-opacity:1" />
            <path
               d="m -1618.9,-1932.3 v 7.5 h 31.2 v -7.5 z"
               class="st0"
               inkscape:connector-curvature="0"
               id="path31"
               style="fill:#000000;fill-opacity:1" />
            <path
               d="m -1627.3,-1920.3 v 7.5 h 39.6 v -7.5 z"
               class="st0"
               inkscape:connector-curvature="0"
               id="path32"
               style="fill:#000000;fill-opacity:1" />
            <path
               d="m -1606.9,-1908.8 v 7.5 h 19.1 v -7.5 z"
               class="st0"
               inkscape:connector-curvature="0"
               id="path33"
               style="fill:#000000;fill-opacity:1" />
          </g>
          <g
             transform="matrix(-3.5139599,0,0,3.5139599,1727.6665,-3255.5496)"
             id="g35"
             style="fill:#000000;fill-opacity:1">
            <path
               d="m 938.1,349.6 h 9.3 l -4.6,7.1 z"
               class="st1"
               sodipodi:nodetypes="cccc"
               inkscape:connector-curvature="0"
               id="path34"
               style="fill:#000000;fill-opacity:1" />
            <path
               d="m 942.2,350.9 v 37.2 h 1.2 v -37.2 z"
               class="st1"
               inkscape:connector-curvature="0"
               id="path35"
               style="fill:#000000;fill-opacity:1" />
          </g>
          <path
             d="m -1567.7,-2007.4 c -1.5,0 -2.8,1.2 -2.8,2.7 v 98.7 c 0,2.2 2.5,3.5 4.3,2.2 l 68,-49.3 c 1.5,-1.1 1.5,-3.3 0,-4.4 l -68,-49.3 c -0.4,-0.4 -0.9,-0.6 -1.5,-0.6 z"
             class="st2"
             sodipodi:nodetypes="cccccccc"
             inkscape:connector-curvature="0"
             id="path36"
             style="fill:#000000;fill-opacity:1" />
        </g>
        <g
           transform="matrix(1.1846011,0,0,1.1846011,1935.6382,2350.3082)"
           id="g48"
           style="display:inline;opacity:0.03;fill:#000000;fill-opacity:1">
          <g
             transform="matrix(1.0048356,0,0,1.0048356,-4.816092,7.0112194)"
             id="g45"
             style="fill:#000000;fill-opacity:1">
            <path
               d="m -1598.1,-2004.7 v 7.5 h 10.3 v -7.5 z"
               class="st0"
               inkscape:connector-curvature="0"
               id="path37"
               style="fill:#000000;fill-opacity:1" />
            <path
               d="m -1606.2,-1992.6 v 7.5 h 18.5 v -7.5 z"
               class="st0"
               inkscape:connector-curvature="0"
               id="path38"
               style="fill:#000000;fill-opacity:1" />
            <path
               d="m -1627.9,-1980.5 v 7.5 h 40.1 v -7.5 z"
               class="st0"
               inkscape:connector-curvature="0"
               id="path39"
               style="fill:#000000;fill-opacity:1" />
            <path
               d="m -1650,-1968.5 v 7.5 h 62.2 v -7.5 z"
               class="st0"
               inkscape:connector-curvature="0"
               id="path40"
               style="fill:#000000;fill-opacity:1" />
            <path
               d="m -1664.6,-1956.4 v 7.5 h 76.8 v -7.5 z"
               class="st0"
               inkscape:connector-curvature="0"
               id="path41"
               style="fill:#000000;fill-opacity:1" />
            <path
               d="m -1640.3,-1944.4 v 7.5 h 52.5 v -7.5 z"
               class="st0"
               inkscape:connector-curvature="0"
               id="path42"
               style="fill:#000000;fill-opacity:1" />
            <path
               d="m -1618.9,-1932.3 v 7.5 h 31.2 v -7.5 z"
               class="st0"
               inkscape:connector-curvature="0"
               id="path43"
               style="fill:#000000;fill-opacity:1" />
            <path
               d="m -1627.3,-1920.3 v 7.5 h 39.6 v -7.5 z"
               class="st0"
               inkscape:connector-curvature="0"
               id="path44"
               style="fill:#000000;fill-opacity:1" />
            <path
               d="m -1606.9,-1908.8 v 7.5 h 19.1 v -7.5 z"
               class="st0"
               inkscape:connector-curvature="0"
               id="path45"
               style="fill:#000000;fill-opacity:1" />
          </g>
          <g
             transform="matrix(-3.5139599,0,0,3.5139599,1727.6665,-3255.5496)"
             id="g47"
             style="fill:#000000;fill-opacity:1">
            <path
               d="m 938.1,349.6 h 9.3 l -4.6,7.1 z"
               class="st1"
               sodipodi:nodetypes="cccc"
               inkscape:connector-curvature="0"
               id="path46"
               style="fill:#000000;fill-opacity:1" />
            <path
               d="m 942.2,350.9 v 37.2 h 1.2 v -37.2 z"
               class="st1"
               inkscape:connector-curvature="0"
               id="path47"
               style="fill:#000000;fill-opacity:1" />
          </g>
          <path
             d="m -1567.7,-2007.4 c -1.5,0 -2.8,1.2 -2.8,2.7 v 98.7 c 0,2.2 2.5,3.5 4.3,2.2 l 68,-49.3 c 1.5,-1.1 1.5,-3.3 0,-4.4 l -68,-49.3 c -0.4,-0.4 -0.9,-0.6 -1.5,-0.6 z"
             class="st2"
             sodipodi:nodetypes="cccccccc"
             inkscape:connector-curvature="0"
             id="path48"
             style="fill:#000000;fill-opacity:1" />
        </g>
        <g
           transform="matrix(1.1846011,0,0,1.1846011,1933.4527,2349.1314)"
           id="g24"
           style="display:inline;opacity:0.107;fill:#000000;fill-opacity:1">
          <g
             transform="matrix(1.0048356,0,0,1.0048356,-4.816092,7.0112194)"
             id="g21"
             style="fill:#000000;fill-opacity:1">
            <path
               d="m -1598.1,-2004.7 v 7.5 h 10.3 v -7.5 z"
               class="st0"
               inkscape:connector-curvature="0"
               id="path1"
               style="fill:#000000;fill-opacity:1" />
            <path
               d="m -1606.2,-1992.6 v 7.5 h 18.5 v -7.5 z"
               class="st0"
               inkscape:connector-curvature="0"
               id="path2"
               style="fill:#000000;fill-opacity:1" />
            <path
               d="m -1627.9,-1980.5 v 7.5 h 40.1 v -7.5 z"
               class="st0"
               inkscape:connector-curvature="0"
               id="path15"
               style="fill:#000000;fill-opacity:1" />
            <path
               d="m -1650,-1968.5 v 7.5 h 62.2 v -7.5 z"
               class="st0"
               inkscape:connector-curvature="0"
               id="path16"
               style="fill:#000000;fill-opacity:1" />
            <path
               d="m -1664.6,-1956.4 v 7.5 h 76.8 v -7.5 z"
               class="st0"
               inkscape:connector-curvature="0"
               id="path17"
               style="fill:#000000;fill-opacity:1" />
            <path
               d="m -1640.3,-1944.4 v 7.5 h 52.5 v -7.5 z"
               class="st0"
               inkscape:connector-curvature="0"
               id="path18"
               style="fill:#000000;fill-opacity:1" />
            <path
               d="m -1618.9,-1932.3 v 7.5 h 31.2 v -7.5 z"
               class="st0"
               inkscape:connector-curvature="0"
               id="path19"
               style="fill:#000000;fill-opacity:1" />
            <path
               d="m -1627.3,-1920.3 v 7.5 h 39.6 v -7.5 z"
               class="st0"
               inkscape:connector-curvature="0"
               id="path20"
               style="fill:#000000;fill-opacity:1" />
            <path
               d="m -1606.9,-1908.8 v 7.5 h 19.1 v -7.5 z"
               class="st0"
               inkscape:connector-curvature="0"
               id="path21"
               style="fill:#000000;fill-opacity:1" />
          </g>
          <g
             transform="matrix(-3.5139599,0,0,3.5139599,1727.6665,-3255.5496)"
             id="g23"
             style="fill:#000000;fill-opacity:1">
            <path
               d="m 938.1,349.6 h 9.3 l -4.6,7.1 z"
               class="st1"
               sodipodi:nodetypes="cccc"
               inkscape:connector-curvature="0"
               id="path22"
               style="fill:#000000;fill-opacity:1" />
            <path
               d="m 942.2,350.9 v 37.2 h 1.2 v -37.2 z"
               class="st1"
               inkscape:connector-curvature="0"
               id="path23"
               style="fill:#000000;fill-opacity:1" />
          </g>
          <path
             d="m -1567.7,-2007.4 c -1.5,0 -2.8,1.2 -2.8,2.7 v 98.7 c 0,2.2 2.5,3.5 4.3,2.2 l 68,-49.3 c 1.5,-1.1 1.5,-3.3 0,-4.4 l -68,-49.3 c -0.4,-0.4 -0.9,-0.6 -1.5,-0.6 z"
             class="st2"
             sodipodi:nodetypes="cccccccc"
             inkscape:connector-curvature="0"
             id="path24"
             style="fill:#000000;fill-opacity:1" />
        </g>
        <g
           transform="matrix(1.1846011,0,0,1.1846011,1932.283,2339.5153)"
           id="g5995-0-6">
          <g
             transform="matrix(1.0048356,0,0,1.0048356,-4.816092,7.0112194)"
             id="g5997-6-2">
            <path
               d="m -1598.1,-2004.7 v 7.5 h 10.3 v -7.5 z"
               class="st0"
               inkscape:connector-curvature="0"
               id="path5999-1-9"
               style="fill:#83b9f5" />
            <path
               d="m -1606.2,-1992.6 v 7.5 h 18.5 v -7.5 z"
               class="st0"
               inkscape:connector-curvature="0"
               id="path6001-5-1"
               style="fill:#83b9f5" />
            <path
               d="m -1627.9,-1980.5 v 7.5 h 40.1 v -7.5 z"
               class="st0"
               inkscape:connector-curvature="0"
               id="path6003-54-2"
               style="fill:#83b9f5" />
            <path
               d="m -1650,-1968.5 v 7.5 h 62.2 v -7.5 z"
               class="st0"
               inkscape:connector-curvature="0"
               id="path6005-7-7"
               style="fill:#83b9f5" />
            <path
               d="m -1664.6,-1956.4 v 7.5 h 76.8 v -7.5 z"
               class="st0"
               inkscape:connector-curvature="0"
               id="path6007-6-09"
               style="fill:#83b9f5" />
            <path
               d="m -1640.3,-1944.4 v 7.5 h 52.5 v -7.5 z"
               class="st0"
               inkscape:connector-curvature="0"
               id="path6009-5-3"
               style="fill:#83b9f5" />
            <path
               d="m -1618.9,-1932.3 v 7.5 h 31.2 v -7.5 z"
               class="st0"
               inkscape:connector-curvature="0"
               id="path6011-6-6"
               style="fill:#83b9f5" />
            <path
               d="m -1627.3,-1920.3 v 7.5 h 39.6 v -7.5 z"
               class="st0"
               inkscape:connector-curvature="0"
               id="path6013-9-0"
               style="fill:#83b9f5" />
            <path
               d="m -1606.9,-1908.8 v 7.5 h 19.1 v -7.5 z"
               class="st0"
               inkscape:connector-curvature="0"
               id="path6015-3-6"
               style="fill:#83b9f5" />
          </g>
          <g
             transform="matrix(-3.5139599,0,0,3.5139599,1727.6665,-3255.5496)"
             id="g6017-7-2">
            <path
               d="m 938.1,349.6 h 9.3 l -4.6,7.1 z"
               class="st1"
               sodipodi:nodetypes="cccc"
               inkscape:connector-curvature="0"
               id="path6019-4-61"
               style="fill:#f16f5e;fill-opacity:1" />
            <path
               d="m 942.2,350.9 v 37.2 h 1.2 v -37.2 z"
               class="st1"
               inkscape:connector-curvature="0"
               id="path6021-5-8"
               style="fill:#f16d5d;fill-opacity:1" />
          </g>
          <path
             d="m -1567.7,-2007.4 c -1.5,0 -2.8,1.2 -2.8,2.7 v 98.7 c 0,2.2 2.5,3.5 4.3,2.2 l 68,-49.3 c 1.5,-1.1 1.5,-3.3 0,-4.4 l -68,-49.3 c -0.4,-0.4 -0.9,-0.6 -1.5,-0.6 z"
             class="st2"
             sodipodi:nodetypes="cccccccc"
             inkscape:connector-curvature="0"
             id="path6023-2-7"
             style="fill:#526fb2;fill-opacity:1" />
        </g>
      </g>
    </g>
  </g>
  <path
     d="M 11.68684,8.0094311 C 9.3119896,8.0094311 7.005227,10.328524 7,12.543243 L 6.9550781,31.577018 C 16.036085,33.905142 40.692276,37.059367 61.163336,35.573973 70.068094,34.927838 80.562558,33.084833 89,30.660518 V 13 C 89,10.223329 86.888356,7.9490622 83.602331,7.9517001 Z"
     inkscape:connector-curvature="0"
     id="path3976"
     style="color:#000000;display:inline;overflow:visible;visibility:visible;opacity:0.743478;fill:url(#linearGradient3053);fill-opacity:1;fill-rule:evenodd;stroke:none;stroke-width:0.892022px;marker:none;enable-background:accumulate"
     sodipodi:nodetypes="cscscssc" />
  <g
     id="g116751"
     style="opacity:0.3219697">
    <rect
       style="opacity:0.704545;fill:url(#radialGradient116652);fill-opacity:1;stroke-width:1.19074;stroke-linecap:round"
       id="rect116516"
       width="60.619141"
       height="23.462891"
       x="17.667969"
       y="9.8144531" />
    <rect
       style="opacity:0.704545;fill:url(#radialGradient116652-6);fill-opacity:1;stroke-width:1.19074;stroke-linecap:round"
       id="rect116516-1"
       width="60.619141"
       height="23.42417"
       x="17.69043"
       y="36.073586"
       rx="0"
       ry="0" />
    <rect
       style="opacity:0.704545;fill:url(#radialGradient116652-6-2);fill-opacity:1;stroke-width:1.19074;stroke-linecap:round"
       id="rect116516-1-9"
       width="60.619141"
       height="23.485027"
       x="17.69043"
       y="62.278645" />
  </g>
</svg>
