<?xml version="1.0" encoding="UTF-8" standalone="no"?>
<!-- Created with Inkscape (http://www.inkscape.org/) -->

<svg
   version="1.0"
   width="96"
   height="96"
   id="svg2408"
   sodipodi:docname="librewolf2.svg"
   inkscape:version="1.2.2 (b0a8486541, 2022-12-01)"
   xmlns:inkscape="http://www.inkscape.org/namespaces/inkscape"
   xmlns:sodipodi="http://sodipodi.sourceforge.net/DTD/sodipodi-0.dtd"
   xmlns:xlink="http://www.w3.org/1999/xlink"
   xmlns="http://www.w3.org/2000/svg"
   xmlns:svg="http://www.w3.org/2000/svg"
   xmlns:rdf="http://www.w3.org/1999/02/22-rdf-syntax-ns#"
   xmlns:cc="http://creativecommons.org/ns#"
   xmlns:dc="http://purl.org/dc/elements/1.1/">
  <sodipodi:namedview
     id="namedview15843"
     pagecolor="#ffffff"
     bordercolor="#000000"
     borderopacity="0.25"
     inkscape:showpageshadow="2"
     inkscape:pageopacity="0.0"
     inkscape:pagecheckerboard="0"
     inkscape:deskcolor="#d1d1d1"
     showgrid="false"
     inkscape:zoom="5.6568543"
     inkscape:cx="25.102291"
     inkscape:cy="55.507882"
     inkscape:current-layer="g43934" />
  <defs
     id="defs2410">
    <linearGradient
       inkscape:collect="always"
       id="linearGradient48813">
      <stop
         style="stop-color:#ffffff;stop-opacity:1;"
         offset="0"
         id="stop48809" />
      <stop
         style="stop-color:#ffffff;stop-opacity:0;"
         offset="1"
         id="stop48811" />
    </linearGradient>
    <linearGradient
       inkscape:collect="always"
       id="linearGradient34840">
      <stop
         style="stop-color:#d4d4d4;stop-opacity:1;"
         offset="0"
         id="stop34836" />
      <stop
         style="stop-color:#ffffff;stop-opacity:1;"
         offset="1"
         id="stop34838" />
    </linearGradient>
    <linearGradient
       id="linearGradient4085">
      <stop
         id="stop4087"
         style="stop-color:#782121;stop-opacity:1"
         offset="0" />
      <stop
         id="stop4089"
         style="stop-color:#782121;stop-opacity:0"
         offset="1" />
    </linearGradient>
    <linearGradient
       id="linearGradient3694">
      <stop
         id="stop3696"
         style="stop-color:#e6e6e6;stop-opacity:1"
         offset="0" />
      <stop
         id="stop3698"
         style="stop-color:#f5f5f5;stop-opacity:1"
         offset="1" />
    </linearGradient>
    <linearGradient
       id="linearGradient3688">
      <stop
         id="stop3690"
         style="stop-color:#005a80;stop-opacity:1;"
         offset="0" />
      <stop
         id="stop3692"
         style="stop-color:#002c3d;stop-opacity:1;"
         offset="1" />
    </linearGradient>
    <linearGradient
       x1="45.447727"
       y1="92.539597"
       x2="45.447727"
       y2="7.0165396"
       id="ButtonShadow"
       gradientUnits="userSpaceOnUse"
       gradientTransform="scale(1.0058652,0.994169)">
      <stop
         id="stop3750"
         style="stop-color:#000000;stop-opacity:1"
         offset="0" />
      <stop
         id="stop3752"
         style="stop-color:#000000;stop-opacity:0.58823532"
         offset="1" />
    </linearGradient>
    <linearGradient
       id="linearGradient3737">
      <stop
         id="stop3739"
         style="stop-color:#ffffff;stop-opacity:1"
         offset="0" />
      <stop
         id="stop3741"
         style="stop-color:#ffffff;stop-opacity:0"
         offset="1" />
    </linearGradient>
    <filter
       color-interpolation-filters="sRGB"
       id="filter3174"
       x="-0.047720931"
       y="-0.048282354"
       width="1.0954419"
       height="1.0965647">
      <feGaussianBlur
         id="feGaussianBlur3176"
         stdDeviation="1.71" />
    </filter>
    <linearGradient
       x1="36.357143"
       y1="6"
       x2="36.357143"
       y2="63.893143"
       id="linearGradient3188"
       xlink:href="#linearGradient3737"
       gradientUnits="userSpaceOnUse" />
    <filter
       x="-0.19578789"
       y="-0.19578789"
       width="1.3915758"
       height="1.3915758"
       color-interpolation-filters="sRGB"
       id="filter3794">
      <feGaussianBlur
         id="feGaussianBlur3796"
         stdDeviation="5.28" />
    </filter>
    <linearGradient
       x1="48"
       y1="20.220806"
       x2="48"
       y2="138.66119"
       id="linearGradient3613"
       xlink:href="#linearGradient3737"
       gradientUnits="userSpaceOnUse" />
    <radialGradient
       cx="48"
       cy="90.171875"
       r="42"
       fx="48"
       fy="90.171875"
       id="radialGradient3619"
       xlink:href="#linearGradient3737"
       gradientUnits="userSpaceOnUse"
       gradientTransform="matrix(1.1573129,0,0,0.99590774,-7.5510206,0.19713193)" />
    <clipPath
       id="clipPath3613">
      <rect
         width="84"
         height="84"
         rx="6"
         ry="6"
         x="6"
         y="6"
         id="rect3615"
         style="fill:#ffffff;fill-opacity:1;fill-rule:nonzero;stroke:none" />
    </clipPath>
    <linearGradient
       x1="48"
       y1="90"
       x2="48"
       y2="5.9877172"
       id="linearGradient3617"
       xlink:href="#linearGradient3688"
       gradientUnits="userSpaceOnUse" />
    <linearGradient
       x1="45.447727"
       y1="92.539597"
       x2="45.447727"
       y2="7.0165396"
       id="ButtonShadow-0"
       gradientUnits="userSpaceOnUse"
       gradientTransform="matrix(1.0058652,0,0,0.994169,100,0)">
      <stop
         id="stop3750-8"
         style="stop-color:#000000;stop-opacity:1"
         offset="0" />
      <stop
         id="stop3752-5"
         style="stop-color:#000000;stop-opacity:0.58823532"
         offset="1" />
    </linearGradient>
    <linearGradient
       x1="32.251034"
       y1="6.1317081"
       x2="32.251034"
       y2="90.238609"
       id="linearGradient3780"
       xlink:href="#ButtonShadow-0"
       gradientUnits="userSpaceOnUse"
       gradientTransform="matrix(1.0238095,0,0,1.0119048,-1.1428571,-98.071429)" />
    <linearGradient
       x1="32.251034"
       y1="6.1317081"
       x2="32.251034"
       y2="90.238609"
       id="linearGradient3772"
       xlink:href="#ButtonShadow-0"
       gradientUnits="userSpaceOnUse"
       gradientTransform="matrix(1.0238095,0,0,1.0119048,-1.1428571,-98.071429)" />
    <linearGradient
       x1="32.251034"
       y1="6.1317081"
       x2="32.251034"
       y2="90.238609"
       id="linearGradient3725"
       xlink:href="#ButtonShadow-0"
       gradientUnits="userSpaceOnUse"
       gradientTransform="matrix(1.0238095,0,0,1.0119048,-1.1428571,-98.071429)" />
    <linearGradient
       x1="32.251034"
       y1="6.1317081"
       x2="32.251034"
       y2="90.238609"
       id="linearGradient3721"
       xlink:href="#ButtonShadow-0"
       gradientUnits="userSpaceOnUse"
       gradientTransform="translate(0,-97)" />
    <linearGradient
       x1="32.251034"
       y1="6.1317081"
       x2="32.251034"
       y2="90.238609"
       id="linearGradient3026"
       xlink:href="#ButtonShadow-0"
       gradientUnits="userSpaceOnUse"
       gradientTransform="matrix(1.0238095,0,0,1.0119048,-1.1428571,-98.071429)" />
    <linearGradient
       x1="-73.494293"
       y1="72.699486"
       x2="-50.243786"
       y2="159.47563"
       id="linearGradient4018"
       xlink:href="#linearGradient3694"
       gradientUnits="userSpaceOnUse"
       gradientTransform="matrix(0.59136097,-0.15844727,-0.15844727,-0.59136097,103.35407,108.29989)" />
    <linearGradient
       x1="-73.494293"
       y1="72.699486"
       x2="-50.243786"
       y2="159.47563"
       id="linearGradient4071"
       xlink:href="#linearGradient3694"
       gradientUnits="userSpaceOnUse"
       gradientTransform="matrix(0.59136097,-0.15844727,-0.15844727,-0.59136097,103.35407,109.29989)" />
    <linearGradient
       x1="58"
       y1="19"
       x2="58"
       y2="120"
       id="linearGradient4091"
       xlink:href="#linearGradient4085"
       gradientUnits="userSpaceOnUse" />
    <clipPath
       clipPathUnits="userSpaceOnUse"
       id="clipPath28916">
      <rect
         width="84"
         height="84"
         rx="6"
         ry="6"
         x="6"
         y="6"
         id="rect28918"
         style="fill:#000000;fill-opacity:1;fill-rule:nonzero;stroke:none" />
    </clipPath>
    <linearGradient
       inkscape:collect="always"
       xlink:href="#linearGradient34840"
       id="linearGradient34842"
       x1="43.390457"
       y1="89.786324"
       x2="43.390457"
       y2="17.061884"
       gradientUnits="userSpaceOnUse" />
    <radialGradient
       id="s"
       gradientUnits="userSpaceOnUse"
       cy="32"
       cx="64"
       gradientTransform="matrix(1.0312,0,0,1.0312,-18,10)"
       r="32">
      <stop
         stop-color="#fff"
         offset="0"
         id="stop36799" />
      <stop
         stop-color="#fff"
         offset=".77642"
         id="stop36801" />
      <stop
         stop-color="#bebdc7"
         stop-opacity="0"
         offset="1"
         id="stop36803" />
    </radialGradient>
    <radialGradient
       id="t"
       gradientUnits="userSpaceOnUse"
       cy="43.852001"
       cx="52.147999"
       gradientTransform="matrix(1.0667,-4.4234e-8,4.4761e-8,1.0793,-17.623,5.6683)"
       r="32">
      <stop
         stop-color="#f7edc4"
         offset="0"
         id="stop36792" />
      <stop
         stop-color="#c7b586"
         offset="0.8"
         id="stop36794" />
      <stop
         stop-color="#9d8c64"
         offset="1"
         id="stop36796" />
    </radialGradient>
    <linearGradient
       id="w"
       y2="43"
       gradientUnits="userSpaceOnUse"
       x2="75"
       gradientTransform="rotate(90,48,43)"
       y1="43"
       x1="21">
      <stop
         stop-color="#a49265"
         offset="0"
         id="stop36787" />
      <stop
         stop-color="#ece8df"
         offset="1"
         id="stop36789" />
    </linearGradient>
    <linearGradient
       id="ac"
       y2="87.367996"
       gradientUnits="userSpaceOnUse"
       x2="28.572001"
       y1="22.917999"
       x1="59.577999">
      <stop
         stop-color="#a18a56"
         offset="0"
         id="stop36763" />
      <stop
         stop-color="#a18a56"
         stop-opacity="0"
         offset="1"
         id="stop36765" />
    </linearGradient>
    <filter
       id="d"
       color-interpolation-filters="sRGB"
       x="-0.021921525"
       y="-0.026513687"
       width="1.043843"
       height="1.0530274">
      <feGaussianBlur
         stdDeviation="0.46710064"
         id="feGaussianBlur36768" />
    </filter>
    <filter
       id="e"
       color-interpolation-filters="sRGB"
       x="-0.023624077"
       y="-0.024388199"
       width="1.0472482"
       height="1.0487764">
      <feGaussianBlur
         stdDeviation="0.4121875"
         id="feGaussianBlur36771" />
    </filter>
    <filter
       id="f"
       color-interpolation-filters="sRGB"
       x="-0.023027137"
       y="-0.025058491"
       width="1.0460543"
       height="1.050117">
      <feGaussianBlur
         stdDeviation="0.3846875"
         id="feGaussianBlur36774" />
    </filter>
    <linearGradient
       id="v"
       stop-color="#ffffff"
       y2="55.535999"
       gradientUnits="userSpaceOnUse"
       x2="64.996002"
       gradientTransform="matrix(0.58747,0,0,0.37002,10.402,18.734)"
       y1="-0.90906"
       x1="64.996002">
      <stop
         offset="0"
         id="stop36806"
         style="stop-color:#ffffff;stop-opacity:1;" />
      <stop
         stop-opacity="0"
         offset="1"
         id="stop36808"
         style="stop-color:#ffffff;stop-opacity:0;" />
    </linearGradient>
    <radialGradient
       id="s-3"
       gradientUnits="userSpaceOnUse"
       cy="32"
       cx="64"
       gradientTransform="matrix(0.88582406,0,0,0.88582406,-7.202344,25.155347)"
       r="32">
      <stop
         stop-color="#fff"
         offset="0"
         id="stop18" />
      <stop
         stop-color="#fff"
         offset="0.68026614"
         id="stop19" />
      <stop
         stop-color="#bebdc7"
         stop-opacity="0"
         offset="0.86217946"
         id="stop20" />
    </radialGradient>
    <radialGradient
       id="t-6"
       gradientUnits="userSpaceOnUse"
       cy="43.852001"
       cx="52.147999"
       gradientTransform="matrix(0.85523143,0,0,0.8653335,-2.941149,23.519087)"
       r="32">
      <stop
         stop-color="#f7edc4"
         offset="0"
         id="stop15"
         style="stop-color:#efede6;stop-opacity:1;" />
      <stop
         stop-color="#c7b586"
         offset="0.80000001"
         id="stop16"
         style="stop-color:#b7b7b7;stop-opacity:1;" />
      <stop
         stop-color="#9d8c64"
         offset="1"
         id="stop17"
         style="stop-color:#878f8f;stop-opacity:1;" />
    </radialGradient>
    <linearGradient
       id="w-0"
       y2="43"
       gradientUnits="userSpaceOnUse"
       x2="75"
       gradientTransform="matrix(0,0.8017544,-0.8017544,0,84.14782,14.9617)"
       y1="43"
       x1="21">
      <stop
         stop-color="#a49265"
         offset="0"
         id="stop13-9"
         style="stop-color:#939393;stop-opacity:1;" />
      <stop
         stop-color="#ece8df"
         offset="1"
         id="stop14-1"
         style="stop-color:#c6c2bb;stop-opacity:1;" />
    </linearGradient>
    <linearGradient
       id="ac-6"
       y2="87.367996"
       gradientUnits="userSpaceOnUse"
       x2="28.572001"
       y1="22.917999"
       x1="59.577999"
       gradientTransform="translate(3.0253641,5.1972762)">
      <stop
         stop-color="#a18a56"
         offset="0"
         id="stop8-2"
         style="stop-color:#7c7c7c;stop-opacity:1;" />
      <stop
         stop-color="#a18a56"
         stop-opacity="0"
         offset="1"
         id="stop9-7"
         style="stop-color:#8c8c8c;stop-opacity:0;" />
    </linearGradient>
    <filter
       id="d-0"
       color-interpolation-filters="sRGB"
       x="-0.021921525"
       y="-0.026513687"
       width="1.043843"
       height="1.0530274">
      <feGaussianBlur
         stdDeviation="0.46710064"
         id="feGaussianBlur9" />
    </filter>
    <filter
       id="e-9"
       color-interpolation-filters="sRGB"
       x="-0.023624077"
       y="-0.024388199"
       width="1.0472482"
       height="1.0487764">
      <feGaussianBlur
         stdDeviation="0.4121875"
         id="feGaussianBlur10" />
    </filter>
    <filter
       id="f-3"
       color-interpolation-filters="sRGB"
       x="-0.023027137"
       y="-0.025058491"
       width="1.0460543"
       height="1.050117">
      <feGaussianBlur
         stdDeviation="0.3846875"
         id="feGaussianBlur11" />
    </filter>
    <linearGradient
       id="v-2"
       stop-color="#ffffff"
       y2="55.535999"
       gradientUnits="userSpaceOnUse"
       x2="64.996002"
       gradientTransform="matrix(0.12515505,0,0,0.07882934,-6.0460047,37.178918)"
       y1="-0.90906"
       x1="64.996002">
      <stop
         offset="0"
         id="stop21" />
      <stop
         stop-opacity="0"
         offset="1"
         id="stop22"
         style="stop-color:#ffffff;stop-opacity:0;" />
    </linearGradient>
    <filter
       inkscape:collect="always"
       style="color-interpolation-filters:sRGB"
       id="filter2"
       x="-0.021785398"
       y="-0.034586917"
       width="1.0435708"
       height="1.0691738">
      <feGaussianBlur
         inkscape:collect="always"
         stdDeviation="0.072707917"
         id="feGaussianBlur2" />
    </filter>
    <filter
       inkscape:collect="always"
       style="color-interpolation-filters:sRGB"
       id="filter43971"
       x="-0.023516308"
       y="-0.021228741"
       width="1.0470326"
       height="1.0424575">
      <feGaussianBlur
         inkscape:collect="always"
         stdDeviation="0.7314058"
         id="feGaussianBlur43973" />
    </filter>
    <linearGradient
       inkscape:collect="always"
       xlink:href="#linearGradient48813"
       id="linearGradient48815"
       x1="-35.178558"
       y1="2.1213198"
       x2="-35.178558"
       y2="56.745319"
       gradientUnits="userSpaceOnUse"
       gradientTransform="matrix(0.55033966,0,0,0.54621915,69.19144,31.571334)" />
  </defs>
  <metadata
     id="metadata2413">
    <rdf:RDF>
      <cc:Work
         rdf:about="">
        <dc:format>image/svg+xml</dc:format>
        <dc:type
           rdf:resource="http://purl.org/dc/dcmitype/StillImage" />
      </cc:Work>
    </rdf:RDF>
  </metadata>
  <g
     id="layer2"
     style="display:none">
    <rect
       width="86"
       height="85"
       rx="6"
       ry="6"
       x="5"
       y="7"
       id="rect3745"
       style="opacity:0.9;fill:url(#ButtonShadow);fill-opacity:1;fill-rule:nonzero;stroke:none;filter:url(#filter3174)" />
  </g>
  <g
     id="layer3">
    <path
       d="m 12,-95.03125 c -5.5110903,0 -10.03125,4.52016 -10.03125,10.03125 l 0,71 c 0,5.5110902 4.5201598,10.03125 10.03125,10.03125 l 72,0 c 5.51109,0 10.03125,-4.5201597 10.03125,-10.03125 l 0,-71 c 0,-5.51109 -4.52016,-10.03125 -10.03125,-10.03125 l -72,0 z"
       transform="scale(1,-1)"
       id="path3786"
       style="opacity:0.07999998;fill:url(#linearGradient3026);fill-opacity:1;fill-rule:nonzero;stroke:none;display:inline" />
    <path
       d="m 12,-94.03125 c -4.971633,0 -9.03125,4.059617 -9.03125,9.03125 l 0,71 c 0,4.9716329 4.0596171,9.03125 9.03125,9.03125 l 72,0 c 4.971633,0 9.03125,-4.059617 9.03125,-9.03125 l 0,-71 c 0,-4.971633 -4.059617,-9.03125 -9.03125,-9.03125 l -72,0 z"
       transform="scale(1,-1)"
       id="path3778"
       style="opacity:0.1;fill:url(#linearGradient3780);fill-opacity:1;fill-rule:nonzero;stroke:none;display:inline" />
    <path
       d="m 12,-93 c -4.4091333,0 -8,3.590867 -8,8 l 0,71 c 0,4.4091333 3.5908667,8 8,8 l 72,0 c 4.409133,0 8,-3.5908667 8,-8 l 0,-71 c 0,-4.409133 -3.590867,-8 -8,-8 l -72,0 z"
       transform="scale(1,-1)"
       id="path3770"
       style="opacity:0.2;fill:url(#linearGradient3772);fill-opacity:1;fill-rule:nonzero;stroke:none;display:inline" />
    <rect
       width="86"
       height="85"
       rx="7"
       ry="7"
       x="5"
       y="-92"
       transform="scale(1,-1)"
       id="rect3723"
       style="opacity:0.3;fill:url(#linearGradient3725);fill-opacity:1;fill-rule:nonzero;stroke:none;display:inline" />
    <rect
       width="84"
       height="84"
       rx="6"
       ry="6"
       x="6"
       y="-91"
       transform="scale(1,-1)"
       id="rect3716"
       style="display:inline;opacity:0.45;fill:url(#linearGradient3721);fill-opacity:1;fill-rule:nonzero;stroke:none" />
  </g>
  <g
     id="layer1"
     style="display:inline">
    <rect
       width="84"
       height="84"
       rx="6"
       ry="6"
       x="6"
       y="6"
       id="rect2419"
       style="fill:url(#linearGradient3617);fill-opacity:1;fill-rule:nonzero;stroke:none" />
    <g
       id="g43934"
       style="display:inline;opacity:0.579545"
       transform="matrix(1.6702777,0,0,1.6702777,-33.314083,-41.394508)">
      <path
         opacity="0.25"
         d="m 77.836598,53.50137 a 28.346457,28.346457 0 0 1 -56.692909,0 28.346457,28.346457 0 1 1 56.692909,0 z"
         fill="url(#s)"
         id="path26"
         style="display:inline;fill:url(#s-3);stroke-width:0.859019" />
      <path
         d="m 71.319748,53.449938 a 21.647368,21.647368 0 0 1 -43.294734,0 21.647368,21.647368 0 1 1 43.294734,0 z"
         fill="url(#t)"
         id="path27"
         style="fill:url(#t-6);stroke-width:0.801751" />
      <path
         opacity="0.6"
         d="m 71.319748,53.445901 c 0,-11.95576 -9.691608,-21.647365 -21.647369,-21.647365 -11.955761,0 -21.647365,9.691605 -21.647365,21.647365 0,11.955765 9.691604,21.647369 21.647365,21.647369 11.955761,0 21.647369,-9.691604 21.647369,-21.647369 z m -0.801759,0 c 0,11.512392 -9.333218,20.845618 -20.84561,20.845618 -11.512389,0 -20.845614,-9.333226 -20.845614,-20.845618 0,-11.512392 9.333225,-20.845614 20.845614,-20.845614 11.512392,0 20.84561,9.333222 20.84561,20.845614 z"
         fill="url(#w)"
         id="path28"
         style="fill:url(#w-0);stroke-width:0.801751" />
      <path
         opacity="0.4"
         d="m 44.150364,22.072276 c -2.6301,0.69019 -5.0914,1.7882 -7.3438,3.1875 -0.68559,0.94402 -1.3241,1.9093 -2,2.8125 -0.44835,0.97474 -1.8406,0.83498 -3,1.1875 -0.06669,0.06767 -0.15277,0.11914 -0.21875,0.1875 -1.5872,2.0861 -3.4998,4.031 -4.5,6.4688 -1.2855,2.5334 4.1736,2.0034 1.4375,4.5 -1.0401,1.5092 -0.61372,4.8138 1.25,5.875 1.601,1.5614 -3.1816,3.1704 -1,5.1562 2.0378,0.73589 4.2898,-0.98819 6.2188,-0.25 1.3054,1.4218 -0.7982,3.0113 0.59375,4.3438 -1.7701,-0.07326 -3.5754,0.4308 -2.9688,2.6562 -0.29197,2.7503 4.4792,2.6209 3.875,-0.3125 0.1098,-1.3721 1.5049,-2.7989 2.3438,-0.84375 -0.12123,2.0713 3.7972,0.92391 2.0312,3.25 -3.68,0.0401 -1.4122,5.5623 0.84375,3.625 0.19786,-2.1792 2.2637,-1.9169 3.5312,-1.0625 3.1599,-0.74717 -0.3395,-4.4046 0.78125,-6.0625 1.1605,0.02707 1.3284,2.549 2.375,0.3125 1.4659,-2.6601 -0.73326,-4.896 -3.1562,-5.625 -2.399,-0.83518 -0.7641,-3.1485 -1,-4.5625 -2.1749,-1.6884 -3.1512,0.84978 -2.9688,2.5938 -2.6243,0.40125 -1.9803,-3.0004 -3.9375,-4.0938 -1.3587,-0.98452 -4.425,-0.96683 -2.5625,-3.5625 1.8829,-0.8553 4.1589,-1.6 3.4688,-4.25 0.90293,-2.5218 -4.2017,-1.5295 -2.0625,-3.8125 2.7269,-0.04313 4.4938,-2.2037 3.7812,-4.9062 0.6186,-1.8762 3.3812,-1.4157 4.2812,-2.9375 0.24257,0.33937 0.51576,0.67548 0.875,0.90625 0.51749,0.48859 1.3315,0.07499 1.8438,-0.25 0.03671,-0.5471 0.08066,-1.4451 0.9375,-1.25 0.89458,0.08748 1.8053,0.04968 2.6562,-0.1875 0.13244,-0.62698 -0.82857,-1.4179 -1.5938,-1.3438 -0.69089,0.2469 -1.5754,-0.2789 -2.125,0.25 -0.68361,5.91e-4 -1.3789,1.85e-4 -2.0625,0 0.03031,-0.71964 -0.21557,-1.434 -0.625,-2 z m 12.156,2.875 c -0.49783,0.14127 -0.77761,0.55806 -0.6875,1.0938 0.28182,0.50293 0.65538,0.80476 1,1.4688 0.72553,0.77285 1.1719,1.6062 1.5625,2.5625 0.67915,0.63615 0.92496,2.0582 2.125,1.7812 0.89226,-0.13706 1.7511,0.04415 2.625,0.1875 0.81732,-0.11595 1.5191,1.0114 2.3438,0.5625 1.2188,0.20939 1.1796,-1.2451 0.53125,-1.875 -0.72764,-0.82903 -2.0189,-0.21868 -3,-0.40625 -0.6743,0.40594 -2.7682,0.25916 -1.9688,-0.8125 0.06822,-1.3448 -0.9582,-2.0785 -2.2188,-2.2188 -0.715,-0.339 -0.21,-0.622 0.219,-0.844 0.155,-1.303 -1.634,-1.243 -2.531,-1.5 z m -2.906,2.812 c -1.7691,0.20815 -1.5697,3.3208 -2.5312,4.4688 -1.7814,0.71071 -2.7896,-1.271 -2.5312,-2.625 -0.95357,-0.68666 -1.3939,-0.9838 -1.625,0.28125 -1.4811,0.99581 -2.7795,-1.9018 -4.4062,-1.2812 1.6504,-0.29336 -2.3793,1.4411 -0.96875,2.6562 0.88257,1.3337 0.54781,2.8096 -1.2188,2.7812 -1.7682,0.77981 -0.9348,2.3716 0.625,2.375 1.9278,2.2716 -2.1462,3.9386 -0.96875,6.4062 0.8291,2.8137 4.2936,-0.08276 2.75,-2.125 -0.63476,-3.1038 3.5167,-2.0519 3.1875,0.46875 1.0975,0.71463 4.2437,0.75758 2.8125,3.125 -1.9898,0.4136 -1.6349,3.0069 0,3.6562 -1.2734,0.81022 -1.0704,4.5212 0.6875,2.5938 2.5503,-2.294 2.2384,3.3449 5.0312,1.8125 1.476,-2.1551 -1.9225,-3.2937 -2.9375,-4.7188 -1.6957,-2.3202 3.5134,-1.2581 1.4688,-3.2188 -2.2168,-1.0744 -0.91523,-3.6625 1.2812,-2.625 2.5979,0.48816 -1.2498,-3.7752 1.4688,-2.6562 0.21477,1.8354 3.6296,1.4258 1.5938,-0.375 -0.55258,-2.0387 2.8375,-3.7251 0.75,-5.875 -2.498,-0.742 -1.952,-3.633 -3.593,-5.031 -0.343,-0.103 -0.622,-0.123 -0.875,-0.094 z m 14.5,9.1875 c -0.15918,0.0062 -0.35248,0.04505 -0.53125,0.09375 -1.1362,1.201 -2.4506,1.5776 -4.0625,1.125 -0.45334,-0.25339 -1.4925,-0.72051 -1.9062,-0.5625 -1.6014,-0.15718 -1.201,1.5848 -1.375,2.4062 -1.0836,0.16904 -1.8586,0.98938 -0.90625,1.9688 0.59466,1.888 -1.7501,0.54745 -2.5625,0.75 -1.5429,0.59052 0.94523,1.3236 -0.34375,2.1875 -1.1489,0.11566 -3.0841,1.5388 -1.625,2.4688 1.0596,0.31895 3.3659,-0.85616 3,1.2812 -0.63107,1.4577 2.5559,3.1035 1.9062,0.90625 -0.55365,-1.031 -1.9648,-3.6495 0.34375,-3.125 0.43383,0.71075 0.81144,1.1619 1.875,0.78125 0.29434,-1.512 2.4246,-1.1232 3.4375,-0.40625 1.8148,0.38138 0.40729,-2.7539 2.3125,-2.9375 1.2841,-1.0528 0.56874,-3.0046 -0.75,-3.625 0.19235,-1.5172 2.5911,-1.4186 3.6875,-1.6875 -0.73147,-0.75719 -1.3858,-1.6682 -2.5,-1.625 z m 9.7812,7 c -0.25994,0.02868 -0.53625,0.30012 -0.6875,0.5 -0.29098,0.5982 -1.001,0.52622 -1.2188,0.9375 -0.14153,0.37803 -0.49505,0.10317 -0.6875,0.46875 -0.19099,-0.13956 -1.3073,-0.02574 -0.8125,0.25 -0.6862,0.34335 -0.16029,1.299 -0.3125,1.9062 -0.17303,0.70354 0.44968,1.0582 0.65625,1.625 0.16489,0.17637 0.42437,-0.04738 0.53125,0.3125 0.0051,0.32446 0.59115,0.02429 0.625,0.375 -0.43559,0.20829 0.82273,0.4871 0.875,0 0.28535,-0.36319 0.63666,-1.0147 0.96875,-1.4062 0.064,-0.147 0.23,-0.202 0.407,-0.25 0.003,-0.158 0,-0.31 0,-0.469 0,-1.443 -0.126,-2.868 -0.344,-4.25 z m -8.1875,0.875 c -0.37996,0.04703 -0.73359,0.29326 -0.875,0.75 -0.49716,0.76901 -0.63786,2.0665 -1.75,2.0938 -0.56535,0.2637 -1.0696,0.83367 -1.75,0.75 -0.85311,-0.52782 -2.0506,-0.57879 -2.9062,-0.03125 -0.97964,0.62659 0.92095,1.6452 -0.28125,2 -1.1816,0.04876 -1.2901,1.3639 -0.53125,2.0312 0.7827,0.69818 2.1469,0.7128 2.5625,1.8125 0.27615,0.72932 0.98701,1.4634 0.65625,2.3125 -0.47251,0.90254 -1.5361,0.13307 -2.25,0.4375 -1.0299,0.43094 -0.52332,1.8332 0.53125,1.5 1.2136,0.13831 1.8731,1.5249 1.5312,2.625 -0.05927,0.9616 -1.4506,1.4808 -0.96875,2.5 0.35582,0.69829 1.6231,1.1316 2.0312,0.28125 0.0049,-0.93472 0.77327,-1.6486 0.875,-2.5938 0.16108,-0.88259 0.16206,-1.9097 -0.3125,-2.6875 -0.95486,-0.70967 -0.23324,-1.9177 0.46875,-2.5 0.57935,-0.41083 1.0879,-1.2863 1.625,-1.5 0.57674,0.35422 1.4761,1.6638 1.8125,0.34375 0.42309,-1.0331 0.17236,-2.3017 0.9375,-3.1875 0.51083,-0.51359 2.0839,-0.10724 1.6562,-1.25 -0.525,-0.733 -1.841,-0.14 -1.842,-1.281 -0.245,-1.288 0.356,-2.66 -0.188,-3.906 -0.24769,-0.40748 -0.65129,-0.54703 -1.0312,-0.5 z m 8.2188,7.4375 c -0.09061,0.0746 -0.09338,0.09269 -0.3125,0.25 l 0.188,-0.062 c -0.07924,0.07122 -0.07566,0.05184 -0.1875,0.15625 -1.077,0.99467 -1.6564,2.5292 -2.8438,3.1875 -1.889,0.0592 -0.73836,-2.535 -2,-3 -1.6473,0.06331 -0.88277,2.2333 -1.8125,3.0312 -1.082,0.62902 -2.4987,1.7262 -1.1562,2.9375 0.876,1.0467 0.49585,2.4916 0.34375,3.7188 -0.5717,0.71729 -0.30535,2.4183 0.84375,1.5625 0.395,-1.2407 -0.22737,-2.9684 1,-3.9062 0.75973,-1.1888 2.4825,-0.54026 3.5938,-1.1562 0.14132,0.04149 0.25163,0.04979 0.375,0.0625 0.92284,-2.1 1.6058,-4.3171 1.9688,-6.6562 l -0.09375,0.03125 c 0.0398,-0.03553 0.05177,-0.05233 0.09375,-0.09375 0.003,-0.01994 -0.003,-0.04254 0,-0.0625 z"
         filter="url(#d)"
         fill="url(#ac)"
         id="path29"
         style="fill:url(#ac-6);filter:url(#d-0)"
         transform="matrix(0.775506,0,0,0.775506,10.167849,17.072665)" />
      <path
         opacity="0.4"
         d="m 65.275364,29.291276 c -0.7621,0 -1.375,0.6129 -1.375,1.375 0,0.7621 0.6129,1.375 1.375,1.375 0.7621,0 1.375,-0.6129 1.375,-1.375 0,-0.7621 -0.6129,-1.375 -1.375,-1.375 z m -20.406,1.625 c -0.6288,0.12867 -1.0938,0.70816 -1.0938,1.375 0,0.7621 0.6129,1.375 1.375,1.375 0.7621,0 1.375,-0.6129 1.375,-1.375 0,-0.7621 -0.6129,-1.375 -1.375,-1.375 -0.09526,0 -0.19142,-0.01838 -0.28125,0 z m -9.938,0.156 c -0.493,0 -0.906,0.382 -0.906,0.875 0,0.49312 0.41313,0.90625 0.90625,0.90625 0.49312,0 0.875,-0.41313 0.875,-0.90625 0,-0.49312 -0.38188,-0.875 -0.875,-0.875 z m 28,2.5938 c -0.80693,0 -1.4688,0.66182 -1.4688,1.4688 0,0.80693 0.66182,1.4375 1.4688,1.4375 0.80693,0 1.4688,-0.63057 1.4688,-1.4375 0,-0.80693 -0.66182,-1.4688 -1.4688,-1.4688 z m -3.9688,2.75 c -0.40346,0 -0.75,0.34654 -0.75,0.75 0,0.40346 0.34654,0.71875 0.75,0.71875 0.40346,0 0.71875,-0.31529 0.71875,-0.71875 0,-0.40346 -0.31529,-0.75 -0.71875,-0.75 z m -10.062,0.156 c -0.40346,0 -0.75,0.34654 -0.75,0.75 0,0.40346 0.34654,0.71875 0.75,0.71875 0.40346,0 0.71875,-0.31529 0.71875,-0.71875 0,-0.40346 -0.31529,-0.75 -0.71875,-0.75 z m -15.438,0.5 c -1.0311,0 -1.875,0.84393 -1.875,1.875 0,1.03107 0.84393,1.8438 1.875,1.8438 1.03107,0 1.875,-0.81268 1.875,-1.8438 0,-1.03112 -0.84393,-1.875 -1.875,-1.875 z m 38,4.875 c -0.58278,0 -1.0625,0.47972 -1.0625,1.0625 0,0.58278 0.47972,1.0312 1.0625,1.0312 0.58278,0 1.0312,-0.44847 1.0312,-1.0312 0,-0.58278 -0.44847,-1.0625 -1.0312,-1.0625 z m -31.093,2.75 c -0.62761,0 -1.1562,0.52864 -1.1562,1.1562 0,0.62761 0.52864,1.125 1.1562,1.125 0.62761,0 1.125,-0.49739 1.125,-1.125 0,-0.62761 -0.49739,-1.1562 -1.125,-1.1562 z m 26.375,0.65625 c -0.85176,0 -1.5312,0.67949 -1.5312,1.5312 0,0.85176 0.67949,1.5625 1.5312,1.5625 0.85176,0 1.5312,-0.71074 1.5312,-1.5625 0,-0.85176 -0.67949,-1.5312 -1.5312,-1.5312 z m -34.688,3.25 c -0.43521,0 -0.78125,0.19977 -0.78125,0.46875 0,0.26898 0.34604,0.5 0.78125,0.5 0.43521,0 0.78125,-0.23102 0.78125,-0.5 0,-0.26898 -0.34604,-0.46875 -0.78125,-0.46875 z m 9.5938,2.75 c -0.71727,0 -1.2812,0.59523 -1.2812,1.3125 0,0.71727 0.56398,1.2812 1.2812,1.2812 0.71727,0 1.3125,-0.56398 1.3125,-1.2812 0,-0.71727 -0.59523,-1.3125 -1.3125,-1.3125 z m -10.125,1.782 c -0.49312,0 -0.90625,0.41313 -0.90625,0.90625 0,0.49312 0.41313,0.875 0.90625,0.875 0.49312,0 0.875,-0.38188 0.875,-0.875 0,-0.49312 -0.38188,-0.90625 -0.875,-0.90625 z m 29.375,0 c -0.49312,0 -0.90625,0.41313 -0.90625,0.90625 0,0.49312 0.41313,0.875 0.90625,0.875 0.49312,0 0.90625,-0.38188 0.90625,-0.875 0,-0.49312 -0.41313,-0.90625 -0.90625,-0.90625 z m -4.3125,0.5 c -0.80693,0 -1.4375,0.66182 -1.4375,1.4688 0,0.80693 0.63057,1.4375 1.4375,1.4375 0.80693,0 1.4688,-0.63057 1.4688,-1.4375 0,-0.80693 -0.66182,-1.4688 -1.4688,-1.4688 z m 4.0625,6.1562 c -0.44829,0 -0.8125,0.36421 -0.8125,0.8125 0,0.44829 0.36421,0.8125 0.8125,0.8125 0.44829,0 0.8125,-0.36421 0.8125,-0.8125 0,-0.44829 -0.36421,-0.8125 -0.8125,-0.8125 z m -27.843,0.656 c -0.85176,0 -1.5312,0.67949 -1.5312,1.5312 0,0.85176 0.67949,1.5625 1.5312,1.5625 0.85176,0 1.5625,-0.71074 1.5625,-1.5625 0,-0.85176 -0.71074,-1.5312 -1.5625,-1.5312 z m 5.375,3.0938 c -0.40346,0 -0.75,0.31529 -0.75,0.71875 0,0.40346 0.34654,0.75 0.75,0.75 0.40346,0 0.71875,-0.34654 0.71875,-0.75 0,-0.40346 -0.31529,-0.71875 -0.71875,-0.71875 z m 17.688,3.875 c -0.67244,0 -1.2188,0.54631 -1.2188,1.2188 0,0.67244 0.54631,1.2188 1.2188,1.2188 0.67244,0 1.2188,-0.54631 1.2188,-1.2188 0,-0.67244 -0.54631,-1.2188 -1.2188,-1.2188 z"
         filter="url(#e)"
         fill="#a18a56"
         id="path30"
         style="fill:#797775;fill-opacity:1;filter:url(#e-9)"
         transform="matrix(0.80175436,0,0,0.80175436,10.048521,14.032526)" />
      <path
         opacity="0.5"
         d="m 60.494364,33.666276 c -0.53795,0 -0.96875,0.4308 -0.96875,0.96875 0,0.53795 0.4308,0.96875 0.96875,0.96875 0.53795,0 0.96875,-0.4308 0.96875,-0.96875 0,-0.53795 -0.4308,-0.96875 -0.96875,-0.96875 z m -15.031,7.781 c -1.2104,0 -2.1875,0.97711 -2.1875,2.1875 0,1.21039 0.97711,2.2188 2.1875,2.2188 1.21039,0 2.2188,-1.0084 2.2188,-2.2188 0,-1.2104 -1.0084,-2.1875 -2.2188,-2.1875 z m -7.938,0.5 c -0.58278,0 -1.0625,0.47972 -1.0625,1.0625 0,0.58278 0.47972,1.0312 1.0625,1.0312 0.58278,0 1.0625,-0.44847 1.0625,-1.0312 0,-0.58278 -0.47972,-1.0625 -1.0625,-1.0625 z m -10.406,3.0938 c -1.0311,0 -1.8438,0.81268 -1.8438,1.8438 0,1.03112 0.81268,1.875 1.8438,1.875 1.03112,0 1.875,-0.84393 1.875,-1.875 0,-1.03107 -0.84393,-1.8438 -1.875,-1.8438 z m 0.656,5.344 c -0.67244,0 -1.2188,0.54631 -1.2188,1.2188 0,0.67244 0.54631,1.2188 1.2188,1.2188 0.67244,0 1.2188,-0.54631 1.2188,-1.2188 0,-0.67244 -0.54631,-1.2188 -1.2188,-1.2188 z m 30.438,0.15625 c -0.53795,0 -0.96875,0.4308 -0.96875,0.96875 0,0.53795 0.4308,1 0.96875,1 0.53795,0 0.96875,-0.46205 0.96875,-1 0,-0.53795 -0.4308,-0.96875 -0.96875,-0.96875 z m -5.8438,7 c -0.80693,0 -1.4375,0.63057 -1.4375,1.4375 0,0.80693 0.63057,1.4688 1.4375,1.4688 0.80693,0 1.4688,-0.66182 1.4688,-1.4688 0,-0.80693 -0.66182,-1.4375 -1.4688,-1.4375 z m -3.9688,6.8125 c -1.3897,0 -2.5312,1.1103 -2.5312,2.5 0,1.3897 1.1415,2.5312 2.5312,2.5312 1.3897,0 2.5312,-1.1415 2.5312,-2.5312 0,-1.3897 -1.1415,-2.5 -2.5312,-2.5 z m 15.5,0.46875 c -0.80693,0 -1.4688,0.66182 -1.4688,1.4688 0,0.80693 0.66182,1.4688 1.4688,1.4688 0.80693,0 1.4688,-0.66182 1.4688,-1.4688 0,-0.80693 -0.66182,-1.4688 -1.4688,-1.4688 z m -21.094,1.7812 c -1.0759,0 -1.9688,0.89285 -1.9688,1.9688 0,1.0759 0.89285,1.9375 1.9688,1.9375 1.0759,0 1.9375,-0.8616 1.9375,-1.9375 0,-1.0759 -0.8616,-1.9688 -1.9375,-1.9688 z"
         filter="url(#f)"
         fill="#ffffff"
         id="path31"
         style="fill:#ffffff;fill-opacity:1;filter:url(#f-3)"
         transform="matrix(0.80175436,0,0,0.73987586,9.6444935,16.465794)" />
      <path
         opacity="0.5"
         d="m 5.9688543,39.701533 a 4.0049531,2.5226156 0 0 1 -8.009906,0 4.0049531,2.5226156 0 1 1 8.009906,0 z"
         fill="url(#v)"
         id="path32"
         style="opacity:0.362732;mix-blend-mode:normal;fill:url(#v-2);stroke-width:0.21304;filter:url(#filter2)"
         transform="matrix(3.7633847,0,0,3.7633847,42.144372,-107.42529)" />
      <ellipse
         style="display:inline;opacity:0.579545;fill:url(#linearGradient48815);fill-opacity:1;stroke-width:0.548275;stroke-linecap:round"
         id="path48599"
         cx="49.685352"
         cy="47.696655"
         rx="17.463058"
         ry="14.870057" />
    </g>
    <path
       id="path43968"
       clip-path="url(#clipPath28916)"
       style="display:inline;fill:#000000;fill-opacity:1;stroke-width:0.252148;filter:url(#filter43971);opacity:0.82575758"
       d="m 71.257812,17.035156 c -4.211084,2.676057 -7.749398,6.363152 -11.880859,9.201172 -3.119196,2.480823 -6.548062,4.897961 -10.748047,4.085938 -5.266267,1.007158 -8.98466,6.045638 -14.523437,6.267578 -3.237376,0.582855 -10.229607,0.130056 -9.541016,4.873047 1.278895,2.479541 3.33806,4.408626 5.308594,6.335937 -2.770461,3.73579 -3.863478,8.460165 -7.138672,11.84961 -3.139729,3.707216 -4.737993,8.412384 -7.632813,12.255859 -2.337319,2.160358 -5.364692,3.349311 -7.5957026,5.142578 -0.8259502,1.195732 -1.9896917,1.944517 -2.7636719,2.763672 1.1737198,3.163977 -1.0362668,7.370231 2.15625,10.066406 9.5931105,7.17671 28.6360955,10.562107 40.6269535,9.720703 2.460897,-0.640034 9.179925,0.769334 8.080078,-2.833984 -0.47932,-2.814901 1.132053,-5.674548 0.02148,-7.101563 0.727962,-3.939966 0.745736,-8.127733 3.005859,-11.626953 2.825445,-2.952184 3.491669,-6.921816 3.199219,-10.880859 -0.42985,-6.402327 1.892476,-12.693678 5.548828,-17.871094 2.186123,-4.129714 4.83684,-8.292077 9.101563,-10.525391 3.078979,-1.725173 4.694836,-9.561535 -0.253906,-9.326171 -2.072446,-1.568871 -2.307342,-0.374017 -3.597657,1.08789 0.945986,-3.409892 2.175083,-7.115203 0.408203,-10.560547 -0.457375,-1.014207 -0.775866,-2.315151 -1.78125,-2.923828 z m -20.386718,16.310547 -1.232422,1.710938 -0.949219,1.015625 -1.833984,0.40625 -1.669922,0.130859 c 0.04957,-0.07436 0.859375,-1.503906 0.859375,-1.503906 0,0 2.056795,-1.41211 2.089844,-1.41211 0.03305,0 2.736328,-0.347656 2.736328,-0.347656 z" />
    <path
       id="path847"
       clip-path="url(#clipPath28916)"
       style="display:inline;fill:url(#linearGradient34842);fill-opacity:1;stroke-width:0.252148"
       d="m 71.257812,17.035156 c -4.211084,2.676057 -7.749398,6.363152 -11.880859,9.201172 -3.119196,2.480823 -6.548062,4.897961 -10.748047,4.085938 -5.266267,1.007158 -8.98466,6.045638 -14.523437,6.267578 -3.237376,0.582855 -10.229607,0.130056 -9.541016,4.873047 1.278895,2.479541 3.33806,4.408626 5.308594,6.335937 -2.770461,3.73579 -3.863478,8.460165 -7.138672,11.84961 -3.139729,3.707216 -4.737993,8.412384 -7.632813,12.255859 -2.337319,2.160358 -5.364692,3.349311 -7.5957026,5.142578 -0.8259502,1.195732 -1.9896917,1.944517 -2.7636719,2.763672 1.1737198,3.163977 -1.0362668,7.370231 2.15625,10.066406 9.5931105,7.17671 28.6360955,10.562107 40.6269535,9.720703 2.460897,-0.640034 9.179925,0.769334 8.080078,-2.833984 -0.47932,-2.814901 1.132053,-5.674548 0.02148,-7.101563 0.727962,-3.939966 0.745736,-8.127733 3.005859,-11.626953 2.825445,-2.952184 3.491669,-6.921816 3.199219,-10.880859 -0.42985,-6.402327 1.892476,-12.693678 5.548828,-17.871094 2.186123,-4.129714 4.83684,-8.292077 9.101563,-10.525391 3.078979,-1.725173 4.694836,-9.561535 -0.253906,-9.326171 -2.072446,-1.568871 -2.307342,-0.374017 -3.597657,1.08789 0.945986,-3.409892 2.175083,-7.115203 0.408203,-10.560547 -0.457375,-1.014207 -0.775866,-2.315151 -1.78125,-2.923828 z m -20.386718,16.310547 -1.232422,1.710938 -0.949219,1.015625 -1.833984,0.40625 -1.669922,0.130859 c 0.04957,-0.07436 0.859375,-1.503906 0.859375,-1.503906 0,0 2.056795,-1.41211 2.089844,-1.41211 0.03305,0 2.736328,-0.347656 2.736328,-0.347656 z" />
    <path
       d="M 12,6 C 8.676,6 6,8.676 6,12 v 2 68 2 c 0,0.334721 0.04135,0.6507 0.09375,0.96875 0.0487,0.295596 0.09704,0.596915 0.1875,0.875 0.00988,0.03038 0.020892,0.0636 0.03125,0.09375 0.098865,0.287771 0.2348802,0.547452 0.375,0.8125 0.1445918,0.273507 0.3156161,0.535615 0.5,0.78125 0.1843839,0.245635 0.3737765,0.473472 0.59375,0.6875 0.439947,0.428056 0.94291,0.814526 1.5,1.09375 0.278545,0.139612 0.5734731,0.246947 0.875,0.34375 -0.2562018,-0.100222 -0.4867109,-0.236272 -0.71875,-0.375 -0.00741,-0.0044 -0.023866,0.0045 -0.03125,0 -0.031933,-0.0193 -0.062293,-0.04251 -0.09375,-0.0625 -0.120395,-0.0767 -0.2310226,-0.163513 -0.34375,-0.25 -0.1061728,-0.0808 -0.2132809,-0.161112 -0.3125,-0.25 C 8.4783201,88.557317 8.3087904,88.373362 8.15625,88.1875 8.0486711,88.057245 7.9378561,87.922215 7.84375,87.78125 7.818661,87.74287 7.805304,87.69538 7.78125,87.65625 7.716487,87.553218 7.6510225,87.451733 7.59375,87.34375 7.4927417,87.149044 7.3880752,86.928049 7.3125,86.71875 7.30454,86.69694 7.288911,86.6782 7.28125,86.65625 7.2494249,86.5643 7.2454455,86.469419 7.21875,86.375 7.1884177,86.268382 7.1483606,86.171969 7.125,86.0625 7.0521214,85.720988 7,85.364295 7,85 V 83 15 13 C 7,10.218152 9.2181517,8 12,8 h 2 68 2 c 2.781848,0 5,2.218152 5,5 v 2 68 2 c 0,0.364295 -0.05212,0.720988 -0.125,1.0625 -0.04415,0.206893 -0.08838,0.397658 -0.15625,0.59375 -0.0077,0.02195 -0.0233,0.04069 -0.03125,0.0625 -0.06274,0.173739 -0.138383,0.367449 -0.21875,0.53125 -0.04158,0.0828 -0.07904,0.169954 -0.125,0.25 -0.0546,0.09721 -0.126774,0.18835 -0.1875,0.28125 -0.09411,0.140965 -0.204921,0.275995 -0.3125,0.40625 -0.143174,0.17445 -0.303141,0.346998 -0.46875,0.5 -0.01117,0.0102 -0.01998,0.02115 -0.03125,0.03125 -0.138386,0.125556 -0.285091,0.234436 -0.4375,0.34375 -0.102571,0.07315 -0.204318,0.153364 -0.3125,0.21875 -0.0074,0.0045 -0.02384,-0.0044 -0.03125,0 -0.232039,0.138728 -0.462548,0.274778 -0.71875,0.375 0.301527,-0.0968 0.596455,-0.204138 0.875,-0.34375 0.55709,-0.279224 1.060053,-0.665694 1.5,-1.09375 0.219973,-0.214028 0.409366,-0.441865 0.59375,-0.6875 0.184384,-0.245635 0.355408,-0.507743 0.5,-0.78125 0.14012,-0.265048 0.276135,-0.524729 0.375,-0.8125 0.01041,-0.03078 0.02133,-0.06274 0.03125,-0.09375 0.09046,-0.278085 0.1388,-0.579404 0.1875,-0.875 C 89.95865,84.6507 90,84.334721 90,84 V 82 14 12 C 90,8.676 87.324,6 84,6 Z"
       inkscape:connector-curvature="0"
       id="rect3728"
       style="display:inline;opacity:0.35;fill:url(#linearGradient3188);fill-opacity:1;fill-rule:nonzero;stroke:none" />
    <path
       d="M 12,90 C 8.676,90 6,87.324 6,84 V 82 14 12 c 0,-0.334721 0.04135,-0.6507 0.09375,-0.96875 0.0487,-0.295596 0.09704,-0.596915 0.1875,-0.875 C 6.29113,10.12587 6.302142,10.09265 6.3125,10.0625 6.411365,9.774729 6.5473802,9.515048 6.6875,9.25 6.8320918,8.976493 7.0031161,8.714385 7.1875,8.46875 7.3718839,8.223115 7.5612765,7.995278 7.78125,7.78125 8.221197,7.353194 8.72416,6.966724 9.28125,6.6875 9.559795,6.547888 9.8547231,6.440553 10.15625,6.34375 9.9000482,6.443972 9.6695391,6.580022 9.4375,6.71875 c -0.00741,0.0044 -0.023866,-0.0045 -0.03125,0 -0.031933,0.0193 -0.062293,0.04251 -0.09375,0.0625 -0.120395,0.0767 -0.2310226,0.163513 -0.34375,0.25 -0.1061728,0.0808 -0.2132809,0.161112 -0.3125,0.25 C 8.4783201,7.442683 8.3087904,7.626638 8.15625,7.8125 8.0486711,7.942755 7.9378561,8.077785 7.84375,8.21875 7.818661,8.25713 7.805304,8.30462 7.78125,8.34375 7.716487,8.446782 7.6510225,8.548267 7.59375,8.65625 7.4927417,8.850956 7.3880752,9.071951 7.3125,9.28125 7.30454,9.30306 7.288911,9.3218 7.28125,9.34375 7.2494249,9.4357 7.2454455,9.530581 7.21875,9.625 7.1884177,9.731618 7.1483606,9.828031 7.125,9.9375 7.0521214,10.279012 7,10.635705 7,11 v 2 68 2 c 0,2.781848 2.2181517,5 5,5 h 2 68 2 c 2.781848,0 5,-2.218152 5,-5 V 81 13 11 C 89,10.635705 88.94788,10.279012 88.875,9.9375 88.83085,9.730607 88.78662,9.539842 88.71875,9.34375 88.71105,9.3218 88.69545,9.30306 88.6875,9.28125 88.62476,9.107511 88.549117,8.913801 88.46875,8.75 88.42717,8.6672 88.38971,8.580046 88.34375,8.5 88.28915,8.40279 88.216976,8.31165 88.15625,8.21875 88.06214,8.077785 87.951329,7.942755 87.84375,7.8125 87.700576,7.63805 87.540609,7.465502 87.375,7.3125 87.36383,7.3023 87.35502,7.29135 87.34375,7.28125 87.205364,7.155694 87.058659,7.046814 86.90625,6.9375 86.803679,6.86435 86.701932,6.784136 86.59375,6.71875 c -0.0074,-0.0045 -0.02384,0.0044 -0.03125,0 -0.232039,-0.138728 -0.462548,-0.274778 -0.71875,-0.375 0.301527,0.0968 0.596455,0.204138 0.875,0.34375 0.55709,0.279224 1.060053,0.665694 1.5,1.09375 0.219973,0.214028 0.409366,0.441865 0.59375,0.6875 0.184384,0.245635 0.355408,0.507743 0.5,0.78125 0.14012,0.265048 0.276135,0.524729 0.375,0.8125 0.01041,0.03078 0.02133,0.06274 0.03125,0.09375 0.09046,0.278085 0.1388,0.579404 0.1875,0.875 C 89.95865,11.3493 90,11.665279 90,12 v 2 68 2 c 0,3.324 -2.676,6 -6,6 z"
       inkscape:connector-curvature="0"
       id="path3615"
       style="display:inline;opacity:0.2;fill:url(#radialGradient3619);fill-opacity:1;fill-rule:nonzero;stroke:none" />
    <path
       id="path32635"
       clip-path="url(#clipPath28916)"
       style="display:inline;opacity:0.2;fill:#000000;fill-opacity:1;stroke-width:0.252148"
       d="m 71.257195,17.035359 c -4.21108,2.676054 -7.749402,6.363155 -11.880859,9.201172 -3.119193,2.48082 -6.548066,4.897959 -10.748047,4.085937 -5.266262,1.007157 -8.984666,6.045639 -14.523438,6.267578 -3.237372,0.582855 -10.229605,0.130061 -9.541015,4.873047 0.0317,0.06146 0.06892,0.118901 0.101562,0.179688 -0.0034,-4.078909 6.484395,-3.703828 9.572266,-4.259766 5.538771,-0.22194 9.257176,-5.260421 14.523437,-6.267578 4.199981,0.812022 7.628854,-1.605117 10.748047,-4.085938 4.131457,-2.838017 7.66978,-6.525117 11.88086,-9.201171 1.005383,0.608676 1.323875,1.909622 1.78125,2.923828 0.323133,0.630097 0.544718,1.268019 0.6875,1.912109 -0.113527,-0.912857 -0.365004,-1.817244 -0.820313,-2.705078 -0.457374,-1.014206 -0.775867,-2.315152 -1.78125,-2.923828 z m 3.261719,11.666015 c -0.510478,0.07085 -0.886137,0.560336 -1.361328,1.167969 -0.133266,0.482506 -0.263411,0.970726 -0.394531,1.44336 1.290313,-1.461906 1.525212,-2.65676 3.597656,-1.087891 1.751156,-0.08329 2.666791,0.852402 3,2.162109 -0.133253,-1.710379 -1.043866,-3.054429 -3.132813,-2.955078 -0.777166,-0.588326 -1.296069,-0.787779 -1.708984,-0.730469 z m -24.04225,5.55962 c 0,0 0.0013,0.03421 -0.240235,-0.02343 l -0.589843,0.8125 -0.953125,1.003906 -1.888673,0.429688 -1.013671,0.07812 c -0.228739,0.402365 -0.226168,0.425187 -0.253906,0.466797 l 1.205078,-0.107422 1.833984,-0.40625 0.949219,-1.015625 z M 29.604851,48.199421 c -2.566712,3.669782 -3.70939,8.177224 -6.871093,11.449219 -3.139726,3.707212 -4.737996,8.412388 -7.632813,12.255859 -2.337316,2.160356 -5.3646945,3.349313 -7.5957029,5.142579 -0.8259494,1.19573 -1.9896924,1.944517 -2.7636719,2.763671 0.087331,0.235417 0.1515934,0.478704 0.2050782,0.72461 0.7729627,-0.792706 1.8886512,-1.53316 2.6914062,-2.695313 2.2310084,-1.793265 5.2583864,-2.982222 7.5957034,-5.142578 2.894817,-3.843471 4.493086,-8.548647 7.632812,-12.255859 3.275191,-3.389442 4.368214,-8.113823 7.138672,-11.84961 -0.133074,-0.130155 -0.266775,-0.262237 -0.400391,-0.392578 z M 5.050164,81.189656 C 5.2757108,83.102017 4.8356508,85.225921 5.2552421,87.119343 5.0469136,85.164782 5.4986508,83.036838 5.050164,81.189656 Z m 50.777344,8.818359 c -0.02542,0.14815 -0.04111,0.299762 -0.06836,0.447266 0.118308,0.152018 0.201326,0.32311 0.263672,0.505859 -0.01028,-0.351922 -0.06962,-0.672015 -0.195312,-0.953125 z"
       transform="translate(6.18e-4,-2.05e-4)"
       sodipodi:nodetypes="ccccccccccccccscccccsccccccccccccccccccccccccccccc" />
    <path
       id="path32640"
       clip-path="url(#clipPath28916)"
       style="display:inline;opacity:0.4;fill:#000000;fill-opacity:1;stroke-width:0.252148"
       d="m 71.257812,17.035156 c -4.211079,2.676055 -7.749402,6.363155 -11.880859,9.201172 -3.119193,2.480821 -6.548066,4.89796 -10.748047,4.085938 -5.266261,1.007157 -8.984666,6.045638 -14.523437,6.267578 -3.237373,0.582854 -10.229606,0.13006 -9.541016,4.873047 0.07354,0.142589 0.157788,0.276962 0.236328,0.416015 0.30524,-3.765263 6.558959,-3.416822 9.570313,-3.958984 5.538771,-0.22194 9.257176,-5.260421 14.523437,-6.267578 4.199981,0.812022 7.628854,-1.605117 10.748047,-4.085938 4.131457,-2.838017 7.66978,-6.525117 11.88086,-9.201172 1.005382,0.608677 1.323875,1.909623 1.78125,2.923828 0.239495,0.467007 0.419069,0.938887 0.55664,1.414063 -0.111152,-0.925437 -0.360787,-1.844276 -0.822266,-2.744141 -0.457374,-1.014206 -0.775867,-2.315151 -1.78125,-2.923828 z m 3.261719,11.666016 c -0.360719,0.05007 -0.642487,0.307573 -0.943359,0.662109 -0.213514,0.840287 -0.453819,1.672165 -0.679688,2.486328 1.290314,-1.461905 1.525213,-2.65676 3.597657,-1.08789 1.558066,-0.0741 2.46306,0.652842 2.878906,1.736328 -0.100862,-1.76446 -1.009393,-3.167954 -3.144531,-3.066406 -0.777167,-0.588326 -1.29607,-0.78778 -1.708985,-0.730469 z m -23.76864,5.597277 c 0,0 0.03012,0.0046 -0.522221,-0.06217 l -0.591797,0.81836 -0.949219,1.015625 -1.865234,0.410157 -1.032004,0.07411 c -0.08551,0.1509 -0.450369,0.806713 -0.496985,0.876642 l 1.523866,-0.16007 1.833984,-0.40625 0.949219,-1.015625 z M 29.439453,48.443359 C 26.989311,52.067897 25.826618,56.448326 22.734375,59.648438 19.594649,63.35565 17.99638,68.060826 15.101562,71.904297 12.764246,74.064653 9.7368677,75.25361 7.5058594,77.046875 6.67991,78.242606 5.5161669,78.991393 4.7421875,79.810547 4.896181,80.225665 4.9875777,80.660232 5.0449219,81.105469 5.8186688,80.300053 6.9574732,79.555401 7.7714844,78.376953 10.002493,76.583688 13.029871,75.394731 15.367188,73.234375 18.262005,69.390904 19.860274,64.685728 23,60.978516 c 3.275191,-3.389442 4.368214,-8.113823 7.138672,-11.84961 -0.232386,-0.227289 -0.465793,-0.457308 -0.699219,-0.685547 z M 5.0585938,81.308594 C 5.270806,83.363622 4.7534657,85.650834 5.3847656,87.626953 5.168471,85.530454 5.6975682,83.239107 5.0585938,81.308594 Z M 55.962891,90.53125 c -0.02614,0.15269 -0.04223,0.308931 -0.07031,0.460938 0.04796,0.06163 0.0829,0.130412 0.121094,0.197265 0.0047,-0.233646 -0.01586,-0.451254 -0.05078,-0.658203 z"
       sodipodi:nodetypes="ccccccccccccccscccccscccccccccccccccccccccccccsccss" />
    <path
       id="path32648"
       clip-path="url(#clipPath28916)"
       style="display:inline;opacity:0.1;fill:#000000;fill-opacity:1;stroke-width:0.252148"
       d="m 71.257812,17.035156 c -4.211079,2.676055 -7.749402,6.363155 -11.880859,9.201172 -3.119193,2.480821 -6.548066,4.89796 -10.748047,4.085938 -5.266261,1.007157 -8.984666,6.045638 -14.523437,6.267578 -3.237373,0.582854 -10.229606,0.13006 -9.541016,4.873047 0.142248,0.275793 0.296672,0.541759 0.457031,0.804687 0.445934,-3.61842 6.572869,-3.290734 9.546875,-3.826172 5.538772,-0.22194 9.257176,-5.260421 14.523438,-6.267578 4.199981,0.812022 7.628854,-1.605117 10.748047,-4.085937 4.131457,-2.838018 7.669779,-6.525118 11.880859,-9.201172 1.005383,0.608676 1.323876,1.909622 1.78125,2.923828 0.137447,0.268016 0.250785,0.537692 0.353516,0.808594 -0.116395,-0.897031 -0.36886,-1.787459 -0.816407,-2.660157 -0.457374,-1.014206 -0.775867,-2.315151 -1.78125,-2.923828 z m 3.261719,11.666016 c -0.197231,0.02737 -0.367645,0.129472 -0.533203,0.259766 -0.25492,1.154642 -0.584326,2.299032 -0.892578,3.410156 1.290314,-1.461906 1.525212,-2.65676 3.597656,-1.087891 1.363877,-0.06487 2.214071,0.49495 2.6875,1.359375 -0.05839,-1.832115 -0.956987,-3.315256 -3.15039,-3.210937 -0.777167,-0.588326 -1.29607,-0.78778 -1.708985,-0.730469 z m -23.60619,5.63144 c 0,0 -0.02012,-0.0025 -0.675965,-0.09855 l -1.518712,1.820676 -1.296875,0.287109 c -0.509406,0.175016 -1.591679,0.200382 -1.591679,0.200382 0,0 -0.552746,0.979693 -0.602315,1.054053 l 1.669921,-0.13086 1.833985,-0.40625 0.949218,-1.015625 z M 29.308594,48.640625 C 26.947729,52.226298 25.770867,56.506021 22.734375,59.648438 19.594649,63.35565 17.99638,68.060826 15.101562,71.904297 12.764246,74.064653 9.7368677,75.25361 7.5058594,77.046875 6.67991,78.242606 5.5161669,78.991393 4.7421875,79.810547 5.6859543,82.354643 4.4479174,85.571772 5.5839844,88.136719 5.3641598,85.98252 5.9325871,83.623243 5.2050781,81.662109 5.9790576,80.842955 7.1428006,80.094168 7.96875,78.898438 10.199758,77.105172 13.227136,75.916215 15.564453,73.755859 18.45927,69.912388 20.05754,65.207212 23.197266,61.5 c 3.27519,-3.389442 4.368213,-8.113823 7.138672,-11.849609 -0.341861,-0.334362 -0.684686,-0.672432 -1.027344,-1.009766 z"
       sodipodi:nodetypes="ccccccccccccccscccccscccccccccccccccccccccc" />
    <path
       id="path34831"
       clip-path="url(#clipPath28916)"
       style="display:inline;opacity:0.3;fill:#ffffff;stroke-width:0.252148"
       d="m 71.443359,17.173828 c 0.433166,0.643673 0.692397,1.442905 1,2.125 1.766879,3.445341 0.537782,7.150658 -0.408203,10.560547 0.482562,-0.546735 0.819551,-1.05505 1.158203,-1.396484 0.746239,-2.812667 1.263608,-5.739051 -0.154297,-8.503907 -0.426748,-0.946294 -0.740015,-2.134831 -1.595703,-2.785156 z m 6.802735,12.814453 c 1.385122,2.224539 -0.08288,6.833839 -2.359375,8.109375 -4.264719,2.233312 -6.915442,6.395681 -9.101563,10.525391 -3.656348,5.177411 -5.978677,11.468773 -5.548828,17.871094 0.29245,3.959039 -0.373776,7.928678 -3.199219,10.880859 -2.26012,3.499217 -2.277898,7.686991 -3.005859,11.626953 1.110572,1.427014 -0.500804,4.286664 -0.02148,7.101563 1.099846,3.603314 -5.619184,2.193951 -8.080078,2.833984 -11.990847,0.841403 -31.033853,-2.544 -40.6269536,-9.720703 -0.067984,-0.05741 -0.1204251,-0.118976 -0.1835938,-0.177735 0.2175172,0.291198 0.4660636,0.573356 0.7792969,0.837891 9.5931005,7.176703 28.6361075,10.562107 40.6269535,9.720703 2.460894,-0.640033 9.179924,0.769334 8.080078,-2.833984 -0.47932,-2.814898 1.132056,-5.674549 0.02148,-7.101563 0.727961,-3.939962 0.745739,-8.127736 3.005859,-11.626953 2.825443,-2.952181 3.491669,-6.92182 3.199219,-10.880859 -0.429849,-6.402321 1.89248,-12.693683 5.548828,-17.871094 2.186121,-4.12971 4.836844,-8.292079 9.101563,-10.525391 2.538081,-1.422104 4.071558,-6.986587 1.763672,-8.769531 z m -27.970703,2.697266 c 0,0 -2.703279,0.347656 -2.736329,0.347656 -0.03305,0 -2.089843,1.412109 -2.089843,1.412109 0,0 -0.809805,1.429547 -0.859375,1.503907 l 1.017578,-0.08008 c 0.212184,-0.372844 0.4375,-0.763672 0.4375,-0.763672 0,0 2.056795,-1.41211 2.089844,-1.41211 0.0188,0 0.79884,-0.100258 1.55664,-0.197265 z M 26.667969,44.496094 c 0.808213,0.940895 1.692199,1.820144 2.580078,2.6875 0.01065,-0.01446 0.0186,-0.03049 0.0293,-0.04492 -0.881106,-0.861779 -1.770508,-1.731038 -2.609375,-2.642578 z"
       transform="translate(0.52878091,0.66097613)" />
  </g>
  <g
     id="layer5"
     style="display:none">
    <rect
       width="66"
       height="66"
       rx="12"
       ry="12"
       x="15"
       y="15"
       clip-path="url(#clipPath3613)"
       id="rect3171"
       style="display:inline;opacity:0.1;fill:url(#linearGradient3613);fill-opacity:1;fill-rule:nonzero;stroke:#ffffff;stroke-width:0.5;stroke-linecap:round;stroke-linejoin:miter;stroke-miterlimit:4;stroke-dasharray:none;stroke-dashoffset:0;stroke-opacity:1;filter:url(#filter3794)" />
  </g>
  <path
     fill="none"
     stroke="#333333"
     stroke-linecap="round"
     stroke-linejoin="round"
     stroke-width="0.0999999"
     d="m 48.023554,17.803367 v 1.711176"
     id="path16" />
  <path
     id="path8-7-1"
     d="m 33.485246,12.610341 c 0.198727,-1.529862 0.359886,-1.691036 1.889763,-1.889764 -1.529862,-0.198879 -1.691036,-0.359886 -1.889763,-1.889764 -0.198879,1.529862 -0.359887,1.690878 -1.889764,1.889764 1.529862,0.198728 1.690873,0.359887 1.889764,1.889764"
     style="fill:#ffffff;fill-opacity:1;fill-rule:nonzero;stroke:none;stroke-width:0.00161174" />
  <path
     id="path8-7-1-27"
     d="m 17.735201,19.610319 c 0.198728,-1.529863 0.359887,-1.691037 1.889763,-1.889764 -1.529861,-0.198879 -1.691035,-0.359887 -1.889763,-1.889764 -0.198879,1.529862 -0.359886,1.690877 -1.889763,1.889764 1.529865,0.198727 1.690877,0.359886 1.889763,1.889764"
     style="fill:#ffffff;fill-opacity:1;fill-rule:nonzero;stroke:none;stroke-width:0.00161174" />
  <path
     id="path8-7-1-8"
     d="m 12.374965,33.639841 c 0.397456,-3.059724 0.719774,-3.382072 3.779528,-3.779528 -3.059724,-0.397757 -3.382072,-0.719777 -3.779528,-3.779531 -0.397758,3.059724 -0.719773,3.381759 -3.779527,3.779531 3.059731,0.397456 3.381754,0.719774 3.779527,3.779528"
     style="fill:#ffffff;fill-opacity:1;fill-rule:nonzero;stroke:none;stroke-width:0.00322349" />
  <path
     id="path8-7-1-2"
     d="m 10.8602,52.110323 c 0.198728,-1.529862 0.359887,-1.691037 1.889763,-1.889764 -1.529861,-0.198879 -1.691035,-0.359887 -1.889763,-1.889764 -0.198879,1.529862 -0.359887,1.690878 -1.889763,1.889764 1.529861,0.198727 1.690873,0.359887 1.889763,1.889764"
     style="fill:#ffffff;fill-opacity:1;fill-rule:nonzero;stroke:none;stroke-width:0.00161174" />
  <path
     id="path8-7-5-0"
     d="m 73.124975,17.51485 c 0.397452,-3.059728 0.7198,-3.382077 3.779528,-3.779536 -3.059728,-0.397772 -3.382076,-0.719799 -3.779528,-3.779527 -0.39778,3.059728 -0.719803,3.381755 -3.779527,3.779527 3.059724,0.397459 3.381747,0.719808 3.779527,3.779536"
     style="fill:#ffffff;fill-opacity:1;fill-rule:nonzero;stroke:none;stroke-width:0.00322348" />
  <path
     id="path8-7-9"
     d="m 83.250243,74.772581 c 0.198728,-1.529862 0.359887,-1.691037 1.889764,-1.889764 -1.529862,-0.198879 -1.691036,-0.359887 -1.889764,-1.889764 -0.198879,1.529862 -0.359886,1.690877 -1.889764,1.889764 1.529862,0.198727 1.690874,0.359886 1.889764,1.889764"
     style="fill:#ffffff;fill-opacity:1;fill-rule:nonzero;stroke:none;stroke-width:0.00161174" />
  <path
     id="path8-7-9-8"
     d="m 12.735207,70.514906 c 0.397455,-3.059724 0.719804,-3.382073 3.779526,-3.779528 -3.059722,-0.397776 -3.382071,-0.719803 -3.779526,-3.779527 -0.397776,3.059724 -0.719802,3.381751 -3.779525,3.779527 3.059723,0.397455 3.381749,0.719804 3.779525,3.779528"
     style="fill:#ffffff;fill-opacity:1;fill-rule:nonzero;stroke:none;stroke-width:0.00322348" />
  <path
     id="path8-7-9-7-0"
     d="m 82.937547,26.139864 c 0.259432,-1.997187 0.46984,-2.207595 2.467022,-2.467028 -1.997182,-0.259642 -2.20759,-0.46984 -2.467022,-2.467027 -0.259643,1.997187 -0.469841,2.207385 -2.467023,2.467027 1.997182,0.259433 2.20738,0.469841 2.467023,2.467028"
     style="fill:#ffffff;fill-opacity:1;fill-rule:nonzero;stroke:none;stroke-width:0.00210408" />
  <path
     id="path8-7-9-7-0-6"
     d="m 72.624998,87.467027 c 0.364592,-2.806739 0.660288,-3.102435 3.46702,-3.467028 -2.806732,-0.364887 -3.102428,-0.660288 -3.46702,-3.467027 -0.364888,2.806739 -0.660289,3.10214 -3.467021,3.467027 2.806732,0.364593 3.102133,0.660289 3.467021,3.467028"
     style="fill:#ffffff;fill-opacity:1;fill-rule:nonzero;stroke:none;stroke-width:0.00295696" />
</svg>
