<?xml version="1.0" encoding="UTF-8" standalone="no"?>
<!-- Created with Inkscape (http://www.inkscape.org/) -->

<svg
   version="1.0"
   width="96"
   height="96"
   id="svg2408"
   sodipodi:docname="mpv.svg"
   xml:space="preserve"
   inkscape:version="1.4.1 (93de688d07, 2025-03-30)"
   xmlns:inkscape="http://www.inkscape.org/namespaces/inkscape"
   xmlns:sodipodi="http://sodipodi.sourceforge.net/DTD/sodipodi-0.dtd"
   xmlns:xlink="http://www.w3.org/1999/xlink"
   xmlns="http://www.w3.org/2000/svg"
   xmlns:svg="http://www.w3.org/2000/svg"
   xmlns:rdf="http://www.w3.org/1999/02/22-rdf-syntax-ns#"
   xmlns:cc="http://creativecommons.org/ns#"
   xmlns:dc="http://purl.org/dc/elements/1.1/"><sodipodi:namedview
     id="namedview1"
     pagecolor="#ffffff"
     bordercolor="#000000"
     borderopacity="0.25"
     inkscape:showpageshadow="2"
     inkscape:pageopacity="0.0"
     inkscape:pagecheckerboard="0"
     inkscape:deskcolor="#d1d1d1"
     inkscape:zoom="4"
     inkscape:cx="-6.625"
     inkscape:cy="72.875"
     inkscape:window-width="2544"
     inkscape:window-height="1374"
     inkscape:window-x="16"
     inkscape:window-y="1440"
     inkscape:window-maximized="0"
     inkscape:current-layer="svg2408" /><defs
     id="defs2410"><rect
       x="27.231161"
       y="23.329383"
       width="50.397969"
       height="18.939882"
       id="rect3" /><rect
       x="19.102456"
       y="24.792549"
       width="40.480949"
       height="27.881457"
       id="rect2" /><rect
       x="-111.20068"
       y="36.741744"
       width="77.385267"
       height="20.159187"
       id="rect1" /><linearGradient
       id="linearGradient15"><stop
         id="stop14"
         style="stop-color:#0e3712;stop-opacity:1;"
         offset="0" /><stop
         id="stop15"
         style="stop-color:#2e8733;stop-opacity:1;"
         offset="1" /></linearGradient><linearGradient
       x1="45.447727"
       y1="92.539597"
       x2="45.447727"
       y2="7.0165396"
       id="ButtonShadow"
       gradientUnits="userSpaceOnUse"
       gradientTransform="scale(1.0058652,0.994169)"><stop
         id="stop3750"
         style="stop-color:#000000;stop-opacity:1"
         offset="0" /><stop
         id="stop3752"
         style="stop-color:#000000;stop-opacity:0.58823532"
         offset="1" /></linearGradient><linearGradient
       id="linearGradient3737"><stop
         id="stop3739"
         style="stop-color:#ffffff;stop-opacity:1"
         offset="0" /><stop
         id="stop3741"
         style="stop-color:#ffffff;stop-opacity:0"
         offset="1" /></linearGradient><filter
       color-interpolation-filters="sRGB"
       id="filter3174"
       x="-0.047720931"
       y="-0.048282354"
       width="1.0954419"
       height="1.0965647"><feGaussianBlur
         id="feGaussianBlur3176"
         stdDeviation="1.71" /></filter><linearGradient
       x1="36.357143"
       y1="6"
       x2="36.357143"
       y2="63.893143"
       id="linearGradient3188"
       xlink:href="#linearGradient3737"
       gradientUnits="userSpaceOnUse" /><filter
       x="-0.19578789"
       y="-0.19578789"
       width="1.3915758"
       height="1.3915758"
       color-interpolation-filters="sRGB"
       id="filter3794"><feGaussianBlur
         id="feGaussianBlur3796"
         stdDeviation="5.28" /></filter><linearGradient
       x1="48"
       y1="20.220806"
       x2="48"
       y2="138.66119"
       id="linearGradient3613"
       xlink:href="#linearGradient3737"
       gradientUnits="userSpaceOnUse" /><radialGradient
       cx="48"
       cy="90.171875"
       r="42"
       fx="48"
       fy="90.171875"
       id="radialGradient3619"
       xlink:href="#linearGradient3737"
       gradientUnits="userSpaceOnUse"
       gradientTransform="matrix(1.1573129,0,0,0.99590774,-7.5510206,0.19713193)" /><clipPath
       id="clipPath3613"><rect
         width="84"
         height="84"
         rx="6"
         ry="6"
         x="6"
         y="6"
         id="rect3615"
         style="fill:#ffffff;fill-opacity:1;fill-rule:nonzero;stroke:none" /></clipPath><linearGradient
       x1="45.447727"
       y1="92.539597"
       x2="45.447727"
       y2="7.0165396"
       id="ButtonShadow-0"
       gradientUnits="userSpaceOnUse"
       gradientTransform="matrix(1.0058652,0,0,0.994169,100,0)"><stop
         id="stop3750-8"
         style="stop-color:#000000;stop-opacity:1"
         offset="0" /><stop
         id="stop3752-5"
         style="stop-color:#000000;stop-opacity:0.58823532"
         offset="1" /></linearGradient><linearGradient
       x1="32.251034"
       y1="6.1317081"
       x2="32.251034"
       y2="90.238609"
       id="linearGradient3780"
       xlink:href="#ButtonShadow-0"
       gradientUnits="userSpaceOnUse"
       gradientTransform="matrix(1.0238095,0,0,1.0119048,-1.1428571,-98.071429)" /><linearGradient
       x1="32.251034"
       y1="6.1317081"
       x2="32.251034"
       y2="90.238609"
       id="linearGradient3772"
       xlink:href="#ButtonShadow-0"
       gradientUnits="userSpaceOnUse"
       gradientTransform="matrix(1.0238095,0,0,1.0119048,-1.1428571,-98.071429)" /><linearGradient
       x1="32.251034"
       y1="6.1317081"
       x2="32.251034"
       y2="90.238609"
       id="linearGradient3725"
       xlink:href="#ButtonShadow-0"
       gradientUnits="userSpaceOnUse"
       gradientTransform="matrix(1.0238095,0,0,1.0119048,-1.1428571,-98.071429)" /><linearGradient
       x1="32.251034"
       y1="6.1317081"
       x2="32.251034"
       y2="90.238609"
       id="linearGradient3721"
       xlink:href="#ButtonShadow-0"
       gradientUnits="userSpaceOnUse"
       gradientTransform="translate(0,-97)" /><linearGradient
       x1="32.251034"
       y1="6.1317081"
       x2="32.251034"
       y2="90.238609"
       id="linearGradient3026"
       xlink:href="#ButtonShadow-0"
       gradientUnits="userSpaceOnUse"
       gradientTransform="matrix(1.0238095,0,0,1.0119048,-1.1428571,-98.071429)" /><linearGradient
       x1="6"
       y1="48"
       x2="90"
       y2="48"
       id="linearGradient3849"
       xlink:href="#linearGradient15"
       gradientUnits="userSpaceOnUse"
       gradientTransform="translate(-96,0)" /><linearGradient
       id="linearGradient3843-5"><stop
         id="stop3845-0"
         style="stop-color:#65216c;stop-opacity:1"
         offset="0" /><stop
         id="stop3847-4"
         style="stop-color:#982ea4;stop-opacity:1"
         offset="1" /></linearGradient><clipPath
       clipPathUnits="userSpaceOnUse"
       id="clipPath22"><rect
         width="84"
         height="84"
         rx="6"
         ry="6"
         x="-90"
         y="6.0000038"
         transform="rotate(-90)"
         id="rect22"
         style="display:inline;opacity:1;fill:url(#linearGradient22);fill-opacity:1;fill-rule:nonzero;stroke:none" /></clipPath><linearGradient
       inkscape:collect="always"
       xlink:href="#linearGradient3843-5"
       id="linearGradient22"
       gradientUnits="userSpaceOnUse"
       gradientTransform="translate(-96.000003)"
       x1="6"
       y1="48"
       x2="90"
       y2="48" /><clipPath
       clipPathUnits="userSpaceOnUse"
       id="clipPath23"><rect
         width="84"
         height="84"
         rx="6"
         ry="6"
         x="-90"
         y="6.0000038"
         transform="rotate(-90)"
         id="rect23"
         style="display:inline;opacity:1;fill:url(#linearGradient23);fill-opacity:1;fill-rule:nonzero;stroke:none" /></clipPath><linearGradient
       inkscape:collect="always"
       xlink:href="#linearGradient3843-5"
       id="linearGradient23"
       gradientUnits="userSpaceOnUse"
       gradientTransform="translate(-96.000003)"
       x1="6"
       y1="48"
       x2="90"
       y2="48" /><clipPath
       clipPathUnits="userSpaceOnUse"
       id="clipPath24"><rect
         width="84"
         height="84"
         rx="6"
         ry="6"
         x="-90"
         y="6.0000038"
         transform="rotate(-90)"
         id="rect24"
         style="display:inline;opacity:1;fill:url(#linearGradient24);fill-opacity:1;fill-rule:nonzero;stroke:none" /></clipPath><linearGradient
       inkscape:collect="always"
       xlink:href="#linearGradient3843-5"
       id="linearGradient24"
       gradientUnits="userSpaceOnUse"
       gradientTransform="translate(-96.000003)"
       x1="6"
       y1="48"
       x2="90"
       y2="48" /><linearGradient
       x1="373.12482"
       y1="91.875"
       x2="363.62491"
       y2="258.54688"
       id="linearGradient4006"
       xlink:href="#linearGradient3737"
       gradientUnits="userSpaceOnUse"
       gradientTransform="matrix(0.43977693,0,0,0.2681874,-111.91515,-17.63628)" /><linearGradient
       y2="20.913509"
       x2="19.249098"
       y1="-1.4776937"
       x1="19.249098"
       gradientTransform="matrix(2.333332,0,0,2.1359591,-3.333335,-2.4849959)"
       gradientUnits="userSpaceOnUse"
       id="linearGradient3053"
       xlink:href="#linearGradient3737"
       inkscape:collect="always" /><filter
       inkscape:collect="always"
       style="color-interpolation-filters:sRGB"
       id="filter4746"
       x="-0.048000004"
       width="1.096"
       y="-0.048000004"
       height="1.096"><feGaussianBlur
         inkscape:collect="always"
         stdDeviation="1.1179678"
         id="feGaussianBlur4748" /></filter><linearGradient
       inkscape:collect="always"
       xlink:href="#linearGradient4798"
       id="linearGradient4804"
       x1="13.166298"
       y1="999.77069"
       x2="52.926327"
       y2="1039.5308"
       gradientUnits="userSpaceOnUse"
       gradientTransform="matrix(1.019005,0,0,1.0454966,-0.06223043,-47.520621)" /><linearGradient
       inkscape:collect="always"
       id="linearGradient4798"><stop
         style="stop-color:#f9f9f9;stop-opacity:1"
         offset="0"
         id="stop4800" /><stop
         style="stop-color:#b9b9b9;stop-opacity:1"
         offset="1"
         id="stop4802" /></linearGradient><linearGradient
       inkscape:collect="always"
       xlink:href="#linearGradient4782"
       id="linearGradient4788"
       x1="43.718754"
       y1="1042.293"
       x2="17.89813"
       y2="997.57031"
       gradientUnits="userSpaceOnUse"
       gradientTransform="matrix(1.019005,0,0,1.0454966,-0.06223043,-47.520621)" /><linearGradient
       inkscape:collect="always"
       id="linearGradient4782"><stop
         style="stop-color:#451b4c;stop-opacity:1"
         offset="0"
         id="stop4784" /><stop
         style="stop-color:#6c3c76;stop-opacity:1"
         offset="1"
         id="stop4786" /></linearGradient><linearGradient
       inkscape:collect="always"
       xlink:href="#linearGradient4774"
       id="linearGradient4780"
       x1="25.219868"
       y1="1004.4582"
       x2="49.414917"
       y2="1029.5907"
       gradientUnits="userSpaceOnUse"
       gradientTransform="matrix(1.019005,0,0,1.0454966,-0.06223043,-47.520621)" /><linearGradient
       inkscape:collect="always"
       id="linearGradient4774"><stop
         style="stop-color:#2f0e35;stop-opacity:1"
         offset="0"
         id="stop4776" /><stop
         style="stop-color:#732e7d;stop-opacity:1"
         offset="1"
         id="stop4778" /></linearGradient><linearGradient
       inkscape:collect="always"
       xlink:href="#linearGradient4806"
       id="linearGradient4812"
       x1="25.219868"
       y1="1004.4582"
       x2="49.740456"
       y2="1029.3835"
       gradientUnits="userSpaceOnUse"
       gradientTransform="matrix(1.019005,0,0,1.0454966,-0.06223043,-47.520621)" /><linearGradient
       inkscape:collect="always"
       id="linearGradient4806"><stop
         style="stop-color:#6b3e75;stop-opacity:1;"
         offset="0"
         id="stop4808" /><stop
         style="stop-color:#ffffff;stop-opacity:1"
         offset="1"
         id="stop4810" /></linearGradient><filter
       inkscape:collect="always"
       style="color-interpolation-filters:sRGB"
       id="filter4310"
       x="-0.084000016"
       width="1.168"
       y="-0.083999984"
       height="1.168"><feGaussianBlur
         inkscape:collect="always"
         stdDeviation="0.89942283"
         id="feGaussianBlur4312" /></filter><linearGradient
       inkscape:collect="always"
       xlink:href="#linearGradient4766"
       id="linearGradient4772"
       x1="24.46652"
       y1="1011.908"
       x2="41.667931"
       y2="1029.1094"
       gradientUnits="userSpaceOnUse"
       gradientTransform="matrix(1.019005,0,0,1.0454966,-0.06223043,-47.520621)" /><linearGradient
       inkscape:collect="always"
       id="linearGradient4766"><stop
         style="stop-color:#f1f0f1;stop-opacity:1"
         offset="0"
         id="stop4768" /><stop
         style="stop-color:#ada7af;stop-opacity:1"
         offset="1"
         id="stop4770" /></linearGradient><linearGradient
       inkscape:collect="always"
       xlink:href="#linearGradient4758"
       id="linearGradient4764"
       x1="29.15402"
       y1="1018.1021"
       x2="33.088173"
       y2="1023.2919"
       gradientUnits="userSpaceOnUse"
       gradientTransform="matrix(1.019005,0,0,1.0454966,-0.06223043,-47.520621)" /><linearGradient
       inkscape:collect="always"
       id="linearGradient4758"><stop
         style="stop-color:#66386f;stop-opacity:1"
         offset="0"
         id="stop4760" /><stop
         style="stop-color:#461d4d;stop-opacity:1"
         offset="1"
         id="stop4762" /></linearGradient><clipPath
       clipPathUnits="userSpaceOnUse"
       id="clipPath16"><rect
         width="38.508213"
         height="37.733521"
         rx="2.7505865"
         ry="2.6952515"
         x="-1037.7958"
         y="15.357635"
         transform="rotate(-90)"
         id="rect16"
         style="display:inline;fill:#cc0dc2;fill-opacity:1;fill-rule:nonzero;stroke:none;stroke-width:0.453796" /></clipPath><clipPath
       clipPathUnits="userSpaceOnUse"
       id="clipPath17"><rect
         width="38.508213"
         height="37.733521"
         rx="2.7505865"
         ry="2.6952515"
         x="-1037.7958"
         y="15.357635"
         transform="rotate(-90)"
         id="rect17"
         style="display:inline;fill:#cc0dc2;fill-opacity:1;fill-rule:nonzero;stroke:none;stroke-width:0.453796" /></clipPath><clipPath
       clipPathUnits="userSpaceOnUse"
       id="clipPath18"><rect
         width="36.832458"
         height="37.02977"
         rx="2.6308897"
         ry="2.6449835"
         x="-1038.0868"
         y="15.132276"
         transform="rotate(-90)"
         id="rect18"
         style="display:inline;fill:#cc0dc2;fill-opacity:1;fill-rule:nonzero;stroke:none;stroke-width:0.439654" /></clipPath><clipPath
       clipPathUnits="userSpaceOnUse"
       id="clipPath19"><rect
         width="38.508213"
         height="37.733521"
         rx="2.7505865"
         ry="2.6952515"
         x="-1037.7958"
         y="15.357635"
         transform="rotate(-90)"
         id="rect19"
         style="display:inline;fill:#cc0dc2;fill-opacity:1;fill-rule:nonzero;stroke:none;stroke-width:0.453796" /></clipPath><clipPath
       clipPathUnits="userSpaceOnUse"
       id="clipPath20"><rect
         width="38.508213"
         height="37.733521"
         rx="2.7505865"
         ry="2.6952515"
         x="-1037.7958"
         y="15.357635"
         transform="rotate(-90)"
         id="rect20"
         style="display:inline;fill:#cc0dc2;fill-opacity:1;fill-rule:nonzero;stroke:none;stroke-width:0.453796" /></clipPath><clipPath
       clipPathUnits="userSpaceOnUse"
       id="clipPath21"><rect
         width="38.508213"
         height="37.733521"
         rx="2.7505865"
         ry="2.6952515"
         x="-1037.7958"
         y="15.357635"
         transform="rotate(-90)"
         id="rect21"
         style="display:inline;fill:#cc0dc2;fill-opacity:1;fill-rule:nonzero;stroke:none;stroke-width:0.453796" /></clipPath><clipPath
       clipPathUnits="userSpaceOnUse"
       id="clipPath25"><rect
         width="36.832458"
         height="37.02977"
         rx="2.6308897"
         ry="2.6449835"
         x="-1038.0868"
         y="15.132276"
         transform="rotate(-90)"
         id="rect25"
         style="display:inline;fill:#cc0dc2;fill-opacity:1;fill-rule:nonzero;stroke:none;stroke-width:0.439654" /></clipPath></defs><metadata
     id="metadata2413"><rdf:RDF><cc:Work
         rdf:about=""><dc:format>image/svg+xml</dc:format><dc:type
           rdf:resource="http://purl.org/dc/dcmitype/StillImage" /></cc:Work></rdf:RDF></metadata><g
     id="layer3"
     style="display:inline"><path
       d="m 12,-95.03125 c -5.5110903,0 -10.03125,4.52016 -10.03125,10.03125 v 71 c 0,5.5110902 4.5201598,10.03125 10.03125,10.03125 h 72 c 5.51109,0 10.03125,-4.5201597 10.03125,-10.03125 v -71 c 0,-5.51109 -4.52016,-10.03125 -10.03125,-10.03125 z"
       transform="scale(1,-1)"
       id="path3786"
       style="display:inline;opacity:0.08;fill:url(#linearGradient3026);fill-opacity:1;fill-rule:nonzero;stroke:none" /><path
       d="m 12,-94.03125 c -4.971633,0 -9.03125,4.059617 -9.03125,9.03125 v 71 c 0,4.9716329 4.0596171,9.03125 9.03125,9.03125 h 72 c 4.971633,0 9.03125,-4.059617 9.03125,-9.03125 v -71 c 0,-4.971633 -4.059617,-9.03125 -9.03125,-9.03125 z"
       transform="scale(1,-1)"
       id="path3778"
       style="display:inline;opacity:0.1;fill:url(#linearGradient3780);fill-opacity:1;fill-rule:nonzero;stroke:none" /><path
       d="m 12,-93 c -4.4091333,0 -8,3.590867 -8,8 v 71 c 0,4.4091333 3.5908667,8 8,8 h 72 c 4.409133,0 8,-3.5908667 8,-8 v -71 c 0,-4.409133 -3.590867,-8 -8,-8 z"
       transform="scale(1,-1)"
       id="path3770"
       style="display:inline;opacity:0.2;fill:url(#linearGradient3772);fill-opacity:1;fill-rule:nonzero;stroke:none" /><rect
       width="86"
       height="85"
       rx="7"
       ry="7"
       x="5"
       y="-92"
       transform="scale(1,-1)"
       id="rect3723"
       style="display:inline;opacity:0.3;fill:url(#linearGradient3725);fill-opacity:1;fill-rule:nonzero;stroke:none" /><rect
       width="84"
       height="84"
       rx="6"
       ry="6"
       x="6"
       y="-91"
       transform="scale(1,-1)"
       id="rect3716"
       style="display:inline;opacity:0.45;fill:url(#linearGradient3721);fill-opacity:1;fill-rule:nonzero;stroke:none" /></g><g
     id="layer1"
     style="display:inline"><rect
       width="84"
       height="84"
       rx="6"
       ry="6"
       x="-90"
       y="6"
       transform="rotate(-90)"
       id="rect2419"
       style="display:inline;fill:url(#linearGradient3849);fill-opacity:1;fill-rule:nonzero;stroke:none" /><path
       d="M 12,6 C 8.676,6 6,8.676 6,12 v 2 68 2 c 0,0.334721 0.04135,0.6507 0.09375,0.96875 0.0487,0.295596 0.09704,0.596915 0.1875,0.875 0.00988,0.03038 0.020892,0.0636 0.03125,0.09375 0.098865,0.287771 0.2348802,0.547452 0.375,0.8125 0.1445918,0.273507 0.3156161,0.535615 0.5,0.78125 0.1843839,0.245635 0.3737765,0.473472 0.59375,0.6875 0.439947,0.428056 0.94291,0.814526 1.5,1.09375 0.278545,0.139612 0.5734731,0.246947 0.875,0.34375 -0.2562018,-0.100222 -0.4867109,-0.236272 -0.71875,-0.375 -0.00741,-0.0044 -0.023866,0.0045 -0.03125,0 -0.031933,-0.0193 -0.062293,-0.04251 -0.09375,-0.0625 -0.120395,-0.0767 -0.2310226,-0.163513 -0.34375,-0.25 -0.1061728,-0.0808 -0.2132809,-0.161112 -0.3125,-0.25 C 8.4783201,88.557317 8.3087904,88.373362 8.15625,88.1875 8.0486711,88.057245 7.9378561,87.922215 7.84375,87.78125 7.818661,87.74287 7.805304,87.69538 7.78125,87.65625 7.716487,87.553218 7.6510225,87.451733 7.59375,87.34375 7.4927417,87.149044 7.3880752,86.928049 7.3125,86.71875 7.30454,86.69694 7.288911,86.6782 7.28125,86.65625 7.2494249,86.5643 7.2454455,86.469419 7.21875,86.375 7.1884177,86.268382 7.1483606,86.171969 7.125,86.0625 7.0521214,85.720988 7,85.364295 7,85 V 83 15 13 C 7,10.218152 9.2181517,8 12,8 h 2 68 2 c 2.781848,0 5,2.218152 5,5 v 2 68 2 c 0,0.364295 -0.05212,0.720988 -0.125,1.0625 -0.04415,0.206893 -0.08838,0.397658 -0.15625,0.59375 -0.0077,0.02195 -0.0233,0.04069 -0.03125,0.0625 -0.06274,0.173739 -0.138383,0.367449 -0.21875,0.53125 -0.04158,0.0828 -0.07904,0.169954 -0.125,0.25 -0.0546,0.09721 -0.126774,0.18835 -0.1875,0.28125 -0.09411,0.140965 -0.204921,0.275995 -0.3125,0.40625 -0.143174,0.17445 -0.303141,0.346998 -0.46875,0.5 -0.01117,0.0102 -0.01998,0.02115 -0.03125,0.03125 -0.138386,0.125556 -0.285091,0.234436 -0.4375,0.34375 -0.102571,0.07315 -0.204318,0.153364 -0.3125,0.21875 -0.0074,0.0045 -0.02384,-0.0044 -0.03125,0 -0.232039,0.138728 -0.462548,0.274778 -0.71875,0.375 0.301527,-0.0968 0.596455,-0.204138 0.875,-0.34375 0.55709,-0.279224 1.060053,-0.665694 1.5,-1.09375 0.219973,-0.214028 0.409366,-0.441865 0.59375,-0.6875 0.184384,-0.245635 0.355408,-0.507743 0.5,-0.78125 0.14012,-0.265048 0.276135,-0.524729 0.375,-0.8125 0.01041,-0.03078 0.02133,-0.06274 0.03125,-0.09375 0.09046,-0.278085 0.1388,-0.579404 0.1875,-0.875 C 89.95865,84.6507 90,84.334721 90,84 V 82 14 12 C 90,8.676 87.324,6 84,6 Z"
       inkscape:connector-curvature="0"
       id="rect3728"
       style="display:inline;opacity:0.25;fill:url(#linearGradient3188);fill-opacity:1;fill-rule:nonzero;stroke:none" /><path
       d="M 12,90 C 8.676,90 6,87.324 6,84 V 82 14 12 c 0,-0.334721 0.04135,-0.6507 0.09375,-0.96875 0.0487,-0.295596 0.09704,-0.596915 0.1875,-0.875 C 6.29113,10.12587 6.302142,10.09265 6.3125,10.0625 6.411365,9.774729 6.5473802,9.515048 6.6875,9.25 6.8320918,8.976493 7.0031161,8.714385 7.1875,8.46875 7.3718839,8.223115 7.5612765,7.995278 7.78125,7.78125 8.221197,7.353194 8.72416,6.966724 9.28125,6.6875 9.559795,6.547888 9.8547231,6.440553 10.15625,6.34375 9.9000482,6.443972 9.6695391,6.580022 9.4375,6.71875 c -0.00741,0.0044 -0.023866,-0.0045 -0.03125,0 -0.031933,0.0193 -0.062293,0.04251 -0.09375,0.0625 -0.120395,0.0767 -0.2310226,0.163513 -0.34375,0.25 -0.1061728,0.0808 -0.2132809,0.161112 -0.3125,0.25 C 8.4783201,7.442683 8.3087904,7.626638 8.15625,7.8125 8.0486711,7.942755 7.9378561,8.077785 7.84375,8.21875 7.818661,8.25713 7.805304,8.30462 7.78125,8.34375 7.716487,8.446782 7.6510225,8.548267 7.59375,8.65625 7.4927417,8.850956 7.3880752,9.071951 7.3125,9.28125 7.30454,9.30306 7.288911,9.3218 7.28125,9.34375 7.2494249,9.4357 7.2454455,9.530581 7.21875,9.625 7.1884177,9.731618 7.1483606,9.828031 7.125,9.9375 7.0521214,10.279012 7,10.635705 7,11 v 2 68 2 c 0,2.781848 2.2181517,5 5,5 h 2 68 2 c 2.781848,0 5,-2.218152 5,-5 V 81 13 11 C 89,10.635705 88.94788,10.279012 88.875,9.9375 88.83085,9.730607 88.78662,9.539842 88.71875,9.34375 88.71105,9.3218 88.69545,9.30306 88.6875,9.28125 88.62476,9.107511 88.549117,8.913801 88.46875,8.75 88.42717,8.6672 88.38971,8.580046 88.34375,8.5 88.28915,8.40279 88.216976,8.31165 88.15625,8.21875 88.06214,8.077785 87.951329,7.942755 87.84375,7.8125 87.700576,7.63805 87.540609,7.465502 87.375,7.3125 87.36383,7.3023 87.35502,7.29135 87.34375,7.28125 87.205364,7.155694 87.058659,7.046814 86.90625,6.9375 86.803679,6.86435 86.701932,6.784136 86.59375,6.71875 c -0.0074,-0.0045 -0.02384,0.0044 -0.03125,0 -0.232039,-0.138728 -0.462548,-0.274778 -0.71875,-0.375 0.301527,0.0968 0.596455,0.204138 0.875,0.34375 0.55709,0.279224 1.060053,0.665694 1.5,1.09375 0.219973,0.214028 0.409366,0.441865 0.59375,0.6875 0.184384,0.245635 0.355408,0.507743 0.5,0.78125 0.14012,0.265048 0.276135,0.524729 0.375,0.8125 0.01041,0.03078 0.02133,0.06274 0.03125,0.09375 0.09046,0.278085 0.1388,0.579404 0.1875,0.875 C 89.95865,11.3493 90,11.665279 90,12 v 2 68 2 c 0,3.324 -2.676,6 -6,6 z"
       inkscape:connector-curvature="0"
       id="path3615"
       style="display:inline;opacity:0.1;fill:url(#radialGradient3619);fill-opacity:1;fill-rule:nonzero;stroke:none" /></g><g
     id="layer5"
     style="display:inline"><rect
       width="66"
       height="66"
       rx="12"
       ry="12"
       x="15"
       y="15"
       clip-path="url(#clipPath3613)"
       id="rect3171"
       style="display:inline;opacity:0.1;fill:url(#linearGradient3613);fill-opacity:1;fill-rule:nonzero;stroke:#ffffff;stroke-width:0.5;stroke-linecap:round;stroke-linejoin:miter;stroke-miterlimit:4;stroke-dasharray:none;stroke-dashoffset:0;stroke-opacity:1;filter:url(#filter3794)" /></g><g
     id="layer1-3"
     transform="matrix(2.2261373,0,0,2.1813529,-28.188204,-2173.7987)"
     style="display:inline"><circle
       r="27.949194"
       cy="1020.3622"
       cx="32"
       id="circle4728"
       style="opacity:1;fill:#3d3d3d;fill-opacity:1;fill-rule:nonzero;stroke:none;stroke-width:0.10161;stroke-linecap:round;stroke-linejoin:bevel;stroke-miterlimit:1;stroke-dasharray:none;stroke-dashoffset:0;stroke-opacity:0.992157;filter:url(#filter4746)"
       transform="matrix(1.019005,0,0,1.0454967,-0.06223042,-47.520622)"
       clip-path="url(#clipPath25)" /><ellipse
       style="opacity:1;fill:url(#linearGradient4804);fill-opacity:1;fill-rule:nonzero;stroke:none;stroke-width:0.104878;stroke-linecap:round;stroke-linejoin:bevel;stroke-miterlimit:1;stroke-dasharray:none;stroke-dashoffset:0;stroke-opacity:0.992157"
       id="path4380"
       cx="32.545933"
       cy="1019.2646"
       rx="28.480368"
       ry="29.220787"
       clip-path="url(#clipPath21)" /><ellipse
       style="opacity:1;fill:url(#linearGradient4788);fill-opacity:1;fill-rule:nonzero;stroke:none;stroke-width:0.102003;stroke-linecap:round;stroke-linejoin:bevel;stroke-miterlimit:1;stroke-dasharray:none;stroke-dashoffset:0;stroke-opacity:0.992157"
       id="path4390"
       cx="33.286808"
       cy="1018.3713"
       rx="26.443779"
       ry="27.131252"
       clip-path="url(#clipPath20)" /><ellipse
       style="opacity:1;fill:url(#linearGradient4780);fill-opacity:1;fill-rule:nonzero;stroke:url(#linearGradient4812);stroke-width:0.00967656;stroke-linecap:round;stroke-linejoin:bevel;stroke-miterlimit:1;stroke-dasharray:none;stroke-dashoffset:0;stroke-opacity:1"
       id="path4400"
       cx="34.812599"
       cy="1016.5814"
       rx="20.3801"
       ry="20.909933"
       clip-path="url(#clipPath19)" /><path
       inkscape:connector-curvature="0"
       id="path4304"
       d="m 44.481446,1020.4807 a 12.848894,12.848894 0 0 1 -12.84889,12.8489 12.848894,12.848894 0 0 1 -12.8489,-12.8489 12.848894,12.848894 0 0 1 12.8489,-12.8489 12.848894,12.848894 0 0 1 12.84889,12.8489 z"
       style="fill:#000000;fill-opacity:1;fill-rule:evenodd;stroke:none;stroke-width:0.1;stroke-linecap:butt;stroke-linejoin:miter;stroke-miterlimit:4;stroke-dasharray:none;stroke-opacity:1;filter:url(#filter4310)"
       transform="matrix(1.019005,0,0,1.0454967,-0.06223042,-47.520622)"
       clip-path="url(#clipPath18)" /><path
       style="fill:url(#linearGradient4772);fill-opacity:1;fill-rule:evenodd;stroke:none;stroke-width:0.103217;stroke-linecap:butt;stroke-linejoin:miter;stroke-miterlimit:4;stroke-dasharray:none;stroke-opacity:1"
       d="m 45.264585,1019.3886 a 13.093086,13.433476 0 0 1 -13.093084,13.4334 13.093086,13.433476 0 0 1 -13.093093,-13.4334 13.093086,13.433476 0 0 1 13.093093,-13.4336 13.093086,13.433476 0 0 1 13.093084,13.4336 z"
       id="path4412"
       inkscape:connector-curvature="0"
       clip-path="url(#clipPath17)" /><path
       style="fill:url(#linearGradient4764);fill-opacity:1;fill-rule:evenodd;stroke:none;stroke-width:0.103217;stroke-linecap:butt;stroke-linejoin:miter;stroke-miterlimit:4;stroke-dasharray:none;stroke-opacity:1"
       d="m 28.851338,1013.3543 v 11.9711 l 9.391232,-6.1315 z"
       id="path4426"
       inkscape:connector-curvature="0"
       clip-path="url(#clipPath16)" /></g><path
     d="m 11.999997,7 c -3.324,0 -6,1.6318437 -6,3.658842 v 21.686264 c -0.0015,0.08935 0,0.177225 0,0.266791 0,0.03115 -1.8e-4,0.06416 0,0.09528 17.493742,-2.896236 51.220412,-3.355431 74.054932,1.490312 3.550251,0.753403 7.403211,1.815599 9.351321,2.663999 0.10535,-0.383851 0.20428,-0.773521 0.28125,-1.162445 L 90,35.832441 V 32.611897 10.658842 C 90,8.6318437 87.324,7 84,7 H 47.999997 Z"
     inkscape:connector-curvature="0"
     id="path3132"
     style="display:none;opacity:0.3;fill:url(#linearGradient4006);fill-opacity:1;fill-rule:evenodd;stroke:none;stroke-width:0.780901"
     sodipodi:nodetypes="sscscsccccsscs" /><path
     d="M 12.000005,6 C 8.2230147,6 6.1053916,9.2414001 6.093755,11.673956 l -0.09375,19.597818 c 9.2974,2.490371 34.54113,5.864415 55.5,4.275504 9.11695,-0.691164 19.86149,-2.662609 28.49999,-5.255875 l 0,-18.304947 C 89.999995,8.5036731 87.144307,6 83.999995,6 Z"
     inkscape:connector-curvature="0"
     id="path3976"
     style="color:#000000;display:inline;overflow:visible;visibility:visible;opacity:0.743478;fill:url(#linearGradient3053);fill-opacity:1;fill-rule:evenodd;stroke:none;stroke-width:0.93351px;marker:none;enable-background:accumulate"
     sodipodi:nodetypes="sscscsss" /></svg>
