<?xml version="1.0" encoding="UTF-8" standalone="no"?>
<!-- Created with Inkscape (http://www.inkscape.org/) -->

<svg
   version="1.0"
   width="96"
   height="96"
   id="svg2408"
   sodipodi:docname="obs.svg"
   inkscape:version="1.4.1 (93de688d07, 2025-03-30)"
   xmlns:inkscape="http://www.inkscape.org/namespaces/inkscape"
   xmlns:sodipodi="http://sodipodi.sourceforge.net/DTD/sodipodi-0.dtd"
   xmlns:xlink="http://www.w3.org/1999/xlink"
   xmlns="http://www.w3.org/2000/svg"
   xmlns:svg="http://www.w3.org/2000/svg"
   xmlns:rdf="http://www.w3.org/1999/02/22-rdf-syntax-ns#"
   xmlns:cc="http://creativecommons.org/ns#"
   xmlns:dc="http://purl.org/dc/elements/1.1/">
  <sodipodi:namedview
     id="namedview1"
     pagecolor="#ffffff"
     bordercolor="#000000"
     borderopacity="0.25"
     inkscape:showpageshadow="2"
     inkscape:pageopacity="0.0"
     inkscape:pagecheckerboard="0"
     inkscape:deskcolor="#d1d1d1"
     inkscape:zoom="12.302083"
     inkscape:cx="46.861981"
     inkscape:cy="49.056732"
     inkscape:window-width="2544"
     inkscape:window-height="1374"
     inkscape:window-x="0"
     inkscape:window-y="1440"
     inkscape:window-maximized="0"
     inkscape:current-layer="svg2408" />
  <defs
     id="defs2410">
    <linearGradient
       id="linearGradient4"
       inkscape:collect="always">
      <stop
         style="stop-color:#181818;stop-opacity:1;"
         offset="0"
         id="stop4" />
      <stop
         style="stop-color:#303030;stop-opacity:0.83431953;"
         offset="1"
         id="stop5" />
    </linearGradient>
    <linearGradient
       id="linearGradient2"
       inkscape:collect="always">
      <stop
         style="stop-color:#c3c3c3;stop-opacity:1;"
         offset="0"
         id="stop2" />
      <stop
         style="stop-color:#f5f5f5;stop-opacity:1;"
         offset="1"
         id="stop3" />
    </linearGradient>
    <linearGradient
       x1="45.447727"
       y1="92.539597"
       x2="45.447727"
       y2="7.0165396"
       id="ButtonShadow"
       gradientUnits="userSpaceOnUse"
       gradientTransform="scale(1.0058652,0.994169)">
      <stop
         id="stop3750"
         style="stop-color:#000000;stop-opacity:1"
         offset="0" />
      <stop
         id="stop3752"
         style="stop-color:#000000;stop-opacity:0.58823532"
         offset="1" />
    </linearGradient>
    <linearGradient
       id="linearGradient3737">
      <stop
         id="stop3739"
         style="stop-color:#ffffff;stop-opacity:1"
         offset="0" />
      <stop
         id="stop3741"
         style="stop-color:#ffffff;stop-opacity:0"
         offset="1" />
    </linearGradient>
    <filter
       color-interpolation-filters="sRGB"
       id="filter3174"
       x="-0.047720931"
       y="-0.048282354"
       width="1.0954419"
       height="1.0965647">
      <feGaussianBlur
         id="feGaussianBlur3176"
         stdDeviation="1.71" />
    </filter>
    <linearGradient
       x1="36.357143"
       y1="6"
       x2="36.357143"
       y2="63.893143"
       id="linearGradient3188"
       xlink:href="#linearGradient3737"
       gradientUnits="userSpaceOnUse" />
    <filter
       x="-0.19578789"
       y="-0.19578789"
       width="1.3915758"
       height="1.3915758"
       color-interpolation-filters="sRGB"
       id="filter3794">
      <feGaussianBlur
         id="feGaussianBlur3796"
         stdDeviation="5.28" />
    </filter>
    <linearGradient
       x1="48"
       y1="20.220806"
       x2="48"
       y2="138.66119"
       id="linearGradient3613"
       xlink:href="#linearGradient3737"
       gradientUnits="userSpaceOnUse" />
    <radialGradient
       cx="48"
       cy="90.171875"
       r="42"
       fx="48"
       fy="90.171875"
       id="radialGradient3619"
       xlink:href="#linearGradient3737"
       gradientUnits="userSpaceOnUse"
       gradientTransform="matrix(1.1573129,0,0,0.99590774,-7.5510206,0.19713193)" />
    <linearGradient
       x1="48"
       y1="90"
       x2="48"
       y2="5.9877172"
       id="linearGradient3617"
       xlink:href="#linearGradient4598"
       gradientUnits="userSpaceOnUse"
       gradientTransform="translate(0,-96)" />
    <linearGradient
       x1="45.447727"
       y1="92.539597"
       x2="45.447727"
       y2="7.0165396"
       id="ButtonShadow-0"
       gradientUnits="userSpaceOnUse"
       gradientTransform="matrix(1.0058652,0,0,0.994169,100,0)">
      <stop
         id="stop3750-8"
         style="stop-color:#000000;stop-opacity:1"
         offset="0" />
      <stop
         id="stop3752-5"
         style="stop-color:#000000;stop-opacity:0.58823532"
         offset="1" />
    </linearGradient>
    <linearGradient
       x1="32.251034"
       y1="6.1317081"
       x2="32.251034"
       y2="90.238609"
       id="linearGradient3780"
       xlink:href="#ButtonShadow-0"
       gradientUnits="userSpaceOnUse"
       gradientTransform="matrix(1.0238095,0,0,1.0119048,-1.1428571,-98.071429)" />
    <linearGradient
       x1="32.251034"
       y1="6.1317081"
       x2="32.251034"
       y2="90.238609"
       id="linearGradient3772"
       xlink:href="#ButtonShadow-0"
       gradientUnits="userSpaceOnUse"
       gradientTransform="matrix(1.0238095,0,0,1.0119048,-1.1428571,-98.071429)" />
    <linearGradient
       x1="32.251034"
       y1="6.1317081"
       x2="32.251034"
       y2="90.238609"
       id="linearGradient3725"
       xlink:href="#ButtonShadow-0"
       gradientUnits="userSpaceOnUse"
       gradientTransform="matrix(1.0238095,0,0,1.0119048,-1.1428571,-98.071429)" />
    <linearGradient
       x1="32.251034"
       y1="6.1317081"
       x2="32.251034"
       y2="90.238609"
       id="linearGradient3721"
       xlink:href="#ButtonShadow-0"
       gradientUnits="userSpaceOnUse"
       gradientTransform="translate(0,-97)" />
    <linearGradient
       x1="32.251034"
       y1="6.1317081"
       x2="32.251034"
       y2="90.238609"
       id="linearGradient3026"
       xlink:href="#ButtonShadow-0"
       gradientUnits="userSpaceOnUse"
       gradientTransform="matrix(1.0238095,0,0,1.0119048,-1.1428571,-98.071429)" />
    <linearGradient
       id="linearGradient4590">
      <stop
         id="stop4592"
         style="stop-color:#cc0000;stop-opacity:1"
         offset="0" />
      <stop
         id="stop4594"
         style="stop-color:#ffa2a2;stop-opacity:1"
         offset="1" />
    </linearGradient>
    <linearGradient
       id="linearGradient4598">
      <stop
         id="stop4600"
         style="stop-color:#e6eef7;stop-opacity:1"
         offset="0" />
      <stop
         id="stop4602"
         style="stop-color:#8ab0d8;stop-opacity:1"
         offset="1" />
    </linearGradient>
    <linearGradient
       x1="24.689142"
       y1="24.109001"
       x2="53.568085"
       y2="24.109001"
       id="linearGradient3799"
       xlink:href="#linearGradient4590"
       gradientUnits="userSpaceOnUse"
       gradientTransform="matrix(2.2852239,0,0,2.3028703,-8.4202215,-7.4370825)" />
    <linearGradient
       inkscape:collect="always"
       xlink:href="#linearGradient2"
       id="linearGradient3"
       x1="48"
       y1="-90"
       x2="48"
       y2="-6"
       gradientUnits="userSpaceOnUse" />
    <linearGradient
       inkscape:collect="always"
       xlink:href="#linearGradient4"
       id="linearGradient5"
       x1="48"
       y1="-90"
       x2="48"
       y2="-6"
       gradientUnits="userSpaceOnUse" />
    <radialGradient
       id="radial-gradient-7"
       cx="578.89001"
       cy="473.32001"
       r="353.94"
       gradientTransform="matrix(0.09064242,-0.03001172,0.03213397,0.0970521,-16.178585,12.948876)"
       gradientUnits="userSpaceOnUse">
      <stop
         stop-color="#c2c0c2"
         offset="0"
         id="stop13" />
      <stop
         stop-color="#ebebeb"
         offset="1"
         id="stop14" />
    </radialGradient>
    <radialGradient
       inkscape:collect="always"
       xlink:href="#linearGradient3737"
       id="radialGradient5"
       cx="92.056412"
       cy="25.063887"
       fx="92.056412"
       fy="25.063887"
       r="42"
       gradientUnits="userSpaceOnUse"
       gradientTransform="matrix(-0.00862111,1.2780048,-1.0263556,-0.00692356,68.425357,-94.535683)" />
    <clipPath
       clipPathUnits="userSpaceOnUse"
       id="clipPath5">
      <rect
         width="84"
         height="84"
         rx="6"
         ry="6"
         x="6"
         y="6"
         id="rect5"
         style="fill:#ffffff;fill-opacity:1;fill-rule:nonzero;stroke:none" />
    </clipPath>
    <filter
       inkscape:collect="always"
       style="color-interpolation-filters:sRGB"
       id="filter5"
       x="-0.2229354"
       y="-0.22002122"
       width="1.4458708"
       height="1.4400424">
      <feGaussianBlur
         inkscape:collect="always"
         stdDeviation="6.4497237"
         id="feGaussianBlur5" />
    </filter>
    <linearGradient
       y2="20.913509"
       x2="19.249098"
       y1="-1.4776937"
       x1="19.249098"
       gradientTransform="matrix(2.333332,0,0,2.4510672,-3.3333303,-3.736748)"
       gradientUnits="userSpaceOnUse"
       id="linearGradient3053"
       xlink:href="#linearGradient3737"
       inkscape:collect="always" />
    <filter
       inkscape:collect="always"
       style="color-interpolation-filters:sRGB"
       id="filter6"
       x="-0.016761267"
       y="-0.040956747"
       width="1.0335225"
       height="1.0819135">
      <feGaussianBlur
         inkscape:collect="always"
         stdDeviation="0.58664429"
         id="feGaussianBlur6" />
    </filter>
  </defs>
  <metadata
     id="metadata2413">
    <rdf:RDF>
      <cc:Work
         rdf:about="">
        <dc:format>image/svg+xml</dc:format>
        <dc:type
           rdf:resource="http://purl.org/dc/dcmitype/StillImage" />
      </cc:Work>
    </rdf:RDF>
  </metadata>
  <g
     id="layer2"
     style="display:none">
    <rect
       width="86"
       height="85"
       rx="6"
       ry="6"
       x="5"
       y="7"
       id="rect3745"
       style="display:inline;opacity:0.9;fill:url(#ButtonShadow);fill-opacity:1;fill-rule:nonzero;stroke:none;filter:url(#filter3174)" />
  </g>
  <g
     id="layer3">
    <path
       d="m 12,-95.03125 c -5.5110903,0 -10.03125,4.52016 -10.03125,10.03125 l 0,71 c 0,5.5110902 4.5201598,10.03125 10.03125,10.03125 l 72,0 c 5.51109,0 10.03125,-4.5201597 10.03125,-10.03125 l 0,-71 c 0,-5.51109 -4.52016,-10.03125 -10.03125,-10.03125 l -72,0 z"
       transform="scale(1,-1)"
       id="path3786"
       style="opacity:0.07999998;fill:url(#linearGradient3026);fill-opacity:1;fill-rule:nonzero;stroke:none;display:inline" />
    <path
       d="m 12,-94.03125 c -4.971633,0 -9.03125,4.059617 -9.03125,9.03125 l 0,71 c 0,4.9716329 4.0596171,9.03125 9.03125,9.03125 l 72,0 c 4.971633,0 9.03125,-4.059617 9.03125,-9.03125 l 0,-71 c 0,-4.971633 -4.059617,-9.03125 -9.03125,-9.03125 l -72,0 z"
       transform="scale(1,-1)"
       id="path3778"
       style="opacity:0.1;fill:url(#linearGradient3780);fill-opacity:1;fill-rule:nonzero;stroke:none;display:inline" />
    <path
       d="m 12,-93 c -4.4091333,0 -8,3.590867 -8,8 l 0,71 c 0,4.4091333 3.5908667,8 8,8 l 72,0 c 4.409133,0 8,-3.5908667 8,-8 l 0,-71 c 0,-4.409133 -3.590867,-8 -8,-8 l -72,0 z"
       transform="scale(1,-1)"
       id="path3770"
       style="opacity:0.2;fill:url(#linearGradient3772);fill-opacity:1;fill-rule:nonzero;stroke:none;display:inline" />
    <rect
       width="86"
       height="85"
       rx="7"
       ry="7"
       x="5"
       y="-92"
       transform="scale(1,-1)"
       id="rect3723"
       style="display:inline;opacity:0.3;fill:url(#linearGradient3725);fill-opacity:1;fill-rule:nonzero;stroke:none" />
    <rect
       width="84"
       height="84"
       rx="6"
       ry="6"
       x="6"
       y="-91"
       transform="scale(1,-1)"
       id="rect3716"
       style="display:inline;opacity:0.45;fill:url(#linearGradient3721);fill-opacity:1;fill-rule:nonzero;stroke:none" />
  </g>
  <g
     id="layer1">
    <rect
       width="84"
       height="84"
       rx="6"
       ry="6"
       x="6"
       y="-90"
       transform="scale(1,-1)"
       id="rect2419"
       style="display:inline;fill:url(#linearGradient3);fill-opacity:1;fill-rule:nonzero;stroke:none" />
    <path
       d="M 12,6 C 8.676,6 6,8.676 6,12 v 2 68 2 c 0,0.334721 0.04135,0.6507 0.09375,0.96875 0.0487,0.295596 0.09704,0.596915 0.1875,0.875 0.00988,0.03038 0.020892,0.0636 0.03125,0.09375 0.098865,0.287771 0.2348802,0.547452 0.375,0.8125 0.1445918,0.273507 0.3156161,0.535615 0.5,0.78125 0.1843839,0.245635 0.3737765,0.473472 0.59375,0.6875 0.439947,0.428056 0.94291,0.814526 1.5,1.09375 0.278545,0.139612 0.5734731,0.246947 0.875,0.34375 -0.2562018,-0.100222 -0.4867109,-0.236272 -0.71875,-0.375 -0.00741,-0.0044 -0.023866,0.0045 -0.03125,0 -0.031933,-0.0193 -0.062293,-0.04251 -0.09375,-0.0625 -0.120395,-0.0767 -0.2310226,-0.163513 -0.34375,-0.25 -0.1061728,-0.0808 -0.2132809,-0.161112 -0.3125,-0.25 C 8.4783201,88.557317 8.3087904,88.373362 8.15625,88.1875 8.0486711,88.057245 7.9378561,87.922215 7.84375,87.78125 7.818661,87.74287 7.805304,87.69538 7.78125,87.65625 7.716487,87.553218 7.6510225,87.451733 7.59375,87.34375 7.4927417,87.149044 7.3880752,86.928049 7.3125,86.71875 7.30454,86.69694 7.288911,86.6782 7.28125,86.65625 7.2494249,86.5643 7.2454455,86.469419 7.21875,86.375 7.1884177,86.268382 7.1483606,86.171969 7.125,86.0625 7.0521214,85.720988 7,85.364295 7,85 V 83 15 13 C 7,10.218152 9.2181517,8 12,8 h 2 68 2 c 2.781848,0 5,2.218152 5,5 v 2 68 2 c 0,0.364295 -0.05212,0.720988 -0.125,1.0625 -0.04415,0.206893 -0.08838,0.397658 -0.15625,0.59375 -0.0077,0.02195 -0.0233,0.04069 -0.03125,0.0625 -0.06274,0.173739 -0.138383,0.367449 -0.21875,0.53125 -0.04158,0.0828 -0.07904,0.169954 -0.125,0.25 -0.0546,0.09721 -0.126774,0.18835 -0.1875,0.28125 -0.09411,0.140965 -0.204921,0.275995 -0.3125,0.40625 -0.143174,0.17445 -0.303141,0.346998 -0.46875,0.5 -0.01117,0.0102 -0.01998,0.02115 -0.03125,0.03125 -0.138386,0.125556 -0.285091,0.234436 -0.4375,0.34375 -0.102571,0.07315 -0.204318,0.153364 -0.3125,0.21875 -0.0074,0.0045 -0.02384,-0.0044 -0.03125,0 -0.232039,0.138728 -0.462548,0.274778 -0.71875,0.375 0.301527,-0.0968 0.596455,-0.204138 0.875,-0.34375 0.55709,-0.279224 1.060053,-0.665694 1.5,-1.09375 0.219973,-0.214028 0.409366,-0.441865 0.59375,-0.6875 0.184384,-0.245635 0.355408,-0.507743 0.5,-0.78125 0.14012,-0.265048 0.276135,-0.524729 0.375,-0.8125 0.01041,-0.03078 0.02133,-0.06274 0.03125,-0.09375 0.09046,-0.278085 0.1388,-0.579404 0.1875,-0.875 C 89.95865,84.6507 90,84.334721 90,84 V 82 14 12 C 90,8.676 87.324,6 84,6 Z"
       inkscape:connector-curvature="0"
       id="rect3728"
       style="display:inline;opacity:0.5;fill:url(#linearGradient3188);fill-opacity:1;fill-rule:nonzero;stroke:none" />
    <path
       d="M 12,90 C 8.676,90 6,87.324 6,84 V 82 14 12 c 0,-0.334721 0.04135,-0.6507 0.09375,-0.96875 0.0487,-0.295596 0.09704,-0.596915 0.1875,-0.875 C 6.29113,10.12587 6.302142,10.09265 6.3125,10.0625 6.411365,9.774729 6.5473802,9.515048 6.6875,9.25 6.8320918,8.976493 7.0031161,8.714385 7.1875,8.46875 7.3718839,8.223115 7.5612765,7.995278 7.78125,7.78125 8.221197,7.353194 8.72416,6.966724 9.28125,6.6875 9.559795,6.547888 9.8547231,6.440553 10.15625,6.34375 9.9000482,6.443972 9.6695391,6.580022 9.4375,6.71875 c -0.00741,0.0044 -0.023866,-0.0045 -0.03125,0 -0.031933,0.0193 -0.062293,0.04251 -0.09375,0.0625 -0.120395,0.0767 -0.2310226,0.163513 -0.34375,0.25 -0.1061728,0.0808 -0.2132809,0.161112 -0.3125,0.25 C 8.4783201,7.442683 8.3087904,7.626638 8.15625,7.8125 8.0486711,7.942755 7.9378561,8.077785 7.84375,8.21875 7.818661,8.25713 7.805304,8.30462 7.78125,8.34375 7.716487,8.446782 7.6510225,8.548267 7.59375,8.65625 7.4927417,8.850956 7.3880752,9.071951 7.3125,9.28125 7.30454,9.30306 7.288911,9.3218 7.28125,9.34375 7.2494249,9.4357 7.2454455,9.530581 7.21875,9.625 7.1884177,9.731618 7.1483606,9.828031 7.125,9.9375 7.0521214,10.279012 7,10.635705 7,11 v 2 68 2 c 0,2.781848 2.2181517,5 5,5 h 2 68 2 c 2.781848,0 5,-2.218152 5,-5 V 81 13 11 C 89,10.635705 88.94788,10.279012 88.875,9.9375 88.83085,9.730607 88.78662,9.539842 88.71875,9.34375 88.71105,9.3218 88.69545,9.30306 88.6875,9.28125 88.62476,9.107511 88.549117,8.913801 88.46875,8.75 88.42717,8.6672 88.38971,8.580046 88.34375,8.5 88.28915,8.40279 88.216976,8.31165 88.15625,8.21875 88.06214,8.077785 87.951329,7.942755 87.84375,7.8125 87.700576,7.63805 87.540609,7.465502 87.375,7.3125 87.36383,7.3023 87.35502,7.29135 87.34375,7.28125 87.205364,7.155694 87.058659,7.046814 86.90625,6.9375 86.803679,6.86435 86.701932,6.784136 86.59375,6.71875 c -0.0074,-0.0045 -0.02384,0.0044 -0.03125,0 -0.232039,-0.138728 -0.462548,-0.274778 -0.71875,-0.375 0.301527,0.0968 0.596455,0.204138 0.875,0.34375 0.55709,0.279224 1.060053,0.665694 1.5,1.09375 0.219973,0.214028 0.409366,0.441865 0.59375,0.6875 0.184384,0.245635 0.355408,0.507743 0.5,0.78125 0.14012,0.265048 0.276135,0.524729 0.375,0.8125 0.01041,0.03078 0.02133,0.06274 0.03125,0.09375 0.09046,0.278085 0.1388,0.579404 0.1875,0.875 C 89.95865,11.3493 90,11.665279 90,12 v 2 68 2 c 0,3.324 -2.676,6 -6,6 z"
       inkscape:connector-curvature="0"
       id="path3615"
       style="display:inline;opacity:0.2;fill:url(#radialGradient3619);fill-opacity:1;fill-rule:nonzero;stroke:none" />
    <path
       id="rect2419-3"
       style="display:inline;fill:url(#linearGradient5);fill-rule:nonzero;stroke:none"
       sodipodi:type="inkscape:offset"
       inkscape:radius="-2"
       inkscape:original="M 12 -90 C 8.676 -90 6 -87.324 6 -84 L 6 -12 C 6 -8.676 8.676 -6 12 -6 L 84 -6 C 87.324 -6 90 -8.676 90 -12 L 90 -84 C 90 -87.324 87.324 -90 84 -90 L 12 -90 z "
       d="m 12,-88 c -2.2505945,0 -4,1.749406 -4,4 v 72 c 0,2.2505945 1.7494055,4 4,4 h 72 c 2.250594,0 4,-1.7494055 4,-4 v -72 c 0,-2.250594 -1.749406,-4 -4,-4 z"
       transform="scale(1,-1)" />
  </g>
  <path
     style="opacity:0.577617;mix-blend-mode:normal;fill:#000000;fill-opacity:1;stroke:none;stroke-width:0.6;stroke-linecap:square;stroke-linejoin:round;filter:url(#filter5)"
     id="path5"
     sodipodi:type="arc"
     sodipodi:cx="51.385887"
     sodipodi:cy="47.477341"
     sodipodi:rx="34.717091"
     sodipodi:ry="35.176918"
     sodipodi:start="0.026928013"
     sodipodi:end="0"
     sodipodi:arc-type="arc"
     d="M 86.090392,48.424471 A 34.717091,35.176918 0 0 1 50.684788,82.647085 34.717091,35.176918 0 0 1 16.671943,47.003733 34.717091,35.176918 0 0 1 51.619601,12.30122 34.717091,35.176918 0 0 1 86.102978,47.477341"
     sodipodi:open="true"
     transform="matrix(0.91993929,0,0,0.91382543,1.0101452,5.8156979)" />
  <path
     class="cls-9"
     d="M 58.100864,29.23302 A 18.566235,19.023768 71.680287 0 1 35.034813,43.786173 18.893315,19.35891 71.680287 0 1 29.857417,41.7926 18.536415,18.993214 71.680287 0 1 21.200861,30.805424 C 21.057039,30.284734 20.93189,29.759451 20.83224,29.228314 20.73412,28.704824 20.65943,28.176027 20.6079,27.64624 q -0.07935,-0.815792 -0.08464,-1.636972 -0.0059,-0.799026 0.06068,-1.597828 c 0.04551,-0.55349 0.118128,-1.104543 0.21182,-1.652679 0.09868,-0.57722 0.229904,-1.150479 0.385371,-1.716214 Q 21.396194,20.2598 21.67967,19.497152 c 0.20436,-0.553644 0.435701,-1.099094 0.694133,-1.631173 q 0.391218,-0.805622 0.853478,-1.574571 c 0.313711,-0.522305 0.656851,-1.027286 1.0202,-1.517871 q 0.280958,-0.379355 0.5822,-0.743628 a 22.77355,23.334767 71.680287 0 0 -0.412282,31.890385 q 0.124295,0.126103 0.250597,0.250294 0.0574,0.05639 0.115148,0.112399 a 0.42868955,0.43925389 71.680287 0 0 0.06951,0.06703 c 0.03984,0.02208 0.04539,0.01428 0.0901,-0.0014 0.232357,-0.08136 0.466562,-0.157745 0.701843,-0.230169 q 0.652095,-0.200814 1.316988,-0.35604 a 18.597918,19.056233 71.680287 0 1 21.021811,9.370607 18.760992,19.223324 71.680287 0 1 1.820364,5.303186 18.520574,18.976982 71.680287 0 1 -1.200674,10.396154 18.841131,19.305439 71.680287 0 1 -3.288058,5.190213 18.624009,19.082967 71.680287 0 1 -10.477255,6.069672 18.923134,19.389464 71.680287 0 1 -2.221216,0.339871 c -0.483149,0.04579 -0.967851,0.07204 -1.452677,0.08138 a 22.606749,23.163854 71.680287 0 0 6.768987,-0.378817 23.020491,23.587793 71.680287 0 0 5.996176,-2.063695 22.69341,23.252652 71.680287 0 0 8.535373,-7.232187 22.927306,23.49231 71.680287 0 0 3.566913,-7.372373 q 0.04786,-0.17163 0.09307,-0.343962 c 0.01168,-0.04454 0.04584,-0.120093 0.02603,-0.156727 A 0.79156233,0.81106907 71.680287 0 0 55.998234,64.825234 Q 55.706639,64.552945 55.427288,64.268425 54.866089,63.696818 54.357207,63.078473 A 18.452548,18.90728 71.680287 0 1 52.533225,60.407079 18.718126,19.179403 71.680287 0 1 50.370439,53.861275 18.439502,18.893913 71.680287 0 1 50.570714,47.97848 18.551325,19.008492 71.680287 0 1 63.241385,33.666816 q 0.663398,-0.225131 1.341522,-0.402516 0.654265,-0.170448 1.318503,-0.297371 0.658003,-0.124513 1.323429,-0.203204 0.65168,-0.07631 1.306906,-0.109752 0.642115,-0.0319 1.284741,-0.02113 0.651535,0.01128 1.300195,0.06658 0.660855,0.05508 1.31565,0.157858 0.653847,0.10182 1.299078,0.247855 c 0.403904,0.09179 0.805338,0.195207 1.201563,0.313944 q 0.612999,0.183716 1.212644,0.40421 c 0.412425,0.151135 0.818049,0.319946 1.217827,0.500042 q 0.638429,0.287621 1.2528,0.622074 0.612561,0.331889 1.197554,0.709751 c 0.434665,0.279973 0.858646,0.576765 1.267039,0.892194 0.419539,0.324046 0.827296,0.664053 1.218112,1.021482 a 18.656625,19.116386 71.680287 0 1 1.538388,1.58793 19.286557,19.761843 71.680287 0 1 1.436506,1.916647 22.71298,23.272703 71.680287 0 0 -8.226543,-9.147701 22.891895,23.456027 71.680287 0 0 -8.629359,-3.276073 22.630977,23.18868 71.680287 0 0 -9.525973,0.375728 q -0.396768,0.09787 -0.790125,0.20914 z"
     shape-rendering="geometricPrecision"
     id="path18"
     style="display:inline;fill:url(#radial-gradient-7);stroke-width:0.0943266" />
  <g
     id="layer5"
     style="display:inline">
    <rect
       width="66"
       height="66"
       rx="12"
       ry="12"
       x="15"
       y="15"
       clip-path="url(#clipPath5)"
       id="rect3171"
       style="display:inline;opacity:0.1;fill:url(#radialGradient5);fill-rule:nonzero;stroke:#ffffff;stroke-width:0.5;stroke-linecap:round;stroke-linejoin:miter;stroke-miterlimit:4;stroke-dasharray:none;stroke-dashoffset:0;stroke-opacity:1;filter:url(#filter3794)" />
  </g>
  <path
     d="m 12.00001,6 c -3.324,0 -6.0000003,2.6760002 -6.0000003,6.000001 v 23 C 15.29741,37.857765 40.54114,41.729566 61.50001,39.906251 70.61696,39.113123 81.3615,36.850839 90,33.875001 v -21.875 C 90,8.6760002 87.324,6 84,6 Z"
     inkscape:connector-curvature="0"
     id="path3976"
     style="color:#000000;display:inline;overflow:visible;visibility:visible;opacity:0.85198556;fill:url(#linearGradient3053);fill-opacity:1;fill-rule:evenodd;stroke:none;stroke-width:1px;marker:none;enable-background:accumulate;filter:url(#filter6)" />
</svg>
