<?xml version="1.0" encoding="UTF-8" standalone="no"?>
<!-- Created with Inkscape (http://www.inkscape.org/) -->

<svg
   version="1.0"
   width="96"
   height="96"
   id="svg2408"
   inkscape:version="1.4.1 (93de688d07, 2025-03-30)"
   sodipodi:docname="pia-manager.svg"
   inkscape:export-filename="/home/corbin/Desktop/Developement/Mint/MintIcons/usr/share/icons/Mint-X/apps/16/passage.png"
   inkscape:export-xdpi="15"
   inkscape:export-ydpi="15"
   xml:space="preserve"
   xmlns:inkscape="http://www.inkscape.org/namespaces/inkscape"
   xmlns:sodipodi="http://sodipodi.sourceforge.net/DTD/sodipodi-0.dtd"
   xmlns:xlink="http://www.w3.org/1999/xlink"
   xmlns="http://www.w3.org/2000/svg"
   xmlns:svg="http://www.w3.org/2000/svg"
   xmlns:rdf="http://www.w3.org/1999/02/22-rdf-syntax-ns#"
   xmlns:cc="http://creativecommons.org/ns#"
   xmlns:dc="http://purl.org/dc/elements/1.1/"><sodipodi:namedview
     pagecolor="#ffffff"
     bordercolor="#666666"
     borderopacity="1"
     objecttolerance="10"
     gridtolerance="10"
     guidetolerance="10"
     inkscape:pageopacity="0"
     inkscape:pageshadow="2"
     inkscape:window-width="2544"
     inkscape:window-height="1374"
     id="namedview84"
     showgrid="false"
     inkscape:zoom="2.4583333"
     inkscape:cx="14.237288"
     inkscape:cy="60.81356"
     inkscape:window-x="2560"
     inkscape:window-y="1440"
     inkscape:window-maximized="0"
     inkscape:current-layer="g18"
     inkscape:snap-center="true"
     inkscape:showpageshadow="2"
     inkscape:pagecheckerboard="0"
     inkscape:deskcolor="#d1d1d1"
     showguides="true"><inkscape:grid
       type="xygrid"
       id="grid3909"
       empspacing="5"
       visible="false"
       enabled="true"
       snapvisiblegridlinesonly="true"
       spacingx="10px"
       spacingy="10px"
       originx="0"
       originy="0"
       units="px" /></sodipodi:namedview><defs
     id="defs2410"><linearGradient
       id="linearGradient15"
       inkscape:collect="always"><stop
         style="stop-color:#3c9032;stop-opacity:1;"
         offset="0.33221477"
         id="stop17" /><stop
         style="stop-color:#4cb343;stop-opacity:1;"
         offset="1"
         id="stop16" /></linearGradient><linearGradient
       id="linearGradient13"
       inkscape:collect="always"><stop
         style="stop-color:#4cb343;stop-opacity:1;"
         offset="0.45637584"
         id="stop13" /><stop
         style="stop-color:#409235;stop-opacity:1;"
         offset="1"
         id="stop14" /></linearGradient><linearGradient
       id="linearGradient11"
       inkscape:collect="always"><stop
         style="stop-color:#4cb343;stop-opacity:1;"
         offset="0.33680555"
         id="stop11" /><stop
         style="stop-color:#3b8631;stop-opacity:1;"
         offset="0.6076389"
         id="stop12" /></linearGradient><rect
       x="34.042373"
       y="24.457628"
       width="32.822034"
       height="19.728814"
       id="rect8" /><linearGradient
       id="linearGradient3782"><stop
         id="stop3784"
         style="stop-color:#697c84;stop-opacity:1"
         offset="0" /><stop
         id="stop3786"
         style="stop-color:#697c84;stop-opacity:0"
         offset="1" /></linearGradient><linearGradient
       id="linearGradient3756"><stop
         id="stop3758"
         style="stop-color:#ffffff;stop-opacity:1"
         offset="0" /><stop
         id="stop3760"
         style="stop-color:#ffffff;stop-opacity:0"
         offset="1" /></linearGradient><linearGradient
       id="linearGradient3744"><stop
         id="stop3746"
         style="stop-color:#ffffff;stop-opacity:1"
         offset="0" /><stop
         id="stop3748"
         style="stop-color:#ffffff;stop-opacity:0"
         offset="1" /></linearGradient><linearGradient
       id="linearGradient3717"><stop
         id="stop3719"
         style="stop-color:#ffffff;stop-opacity:1"
         offset="0" /><stop
         id="stop3721"
         style="stop-color:#93a3aa;stop-opacity:1"
         offset="1" /></linearGradient><linearGradient
       id="linearGradient3692"><stop
         id="stop3694"
         style="stop-color:#000000;stop-opacity:1"
         offset="0" /><stop
         id="stop3696"
         style="stop-color:#000000;stop-opacity:0"
         offset="1" /></linearGradient><linearGradient
       x1="45.447727"
       y1="92.539597"
       x2="45.447727"
       y2="7.0165396"
       id="ButtonShadow"
       gradientUnits="userSpaceOnUse"
       gradientTransform="scale(1.0058652,0.994169)"><stop
         id="stop3750"
         style="stop-color:#000000;stop-opacity:1"
         offset="0" /><stop
         id="stop3752"
         style="stop-color:#000000;stop-opacity:0.58823532"
         offset="1" /></linearGradient><linearGradient
       id="linearGradient3737"><stop
         id="stop3739"
         style="stop-color:#ffffff;stop-opacity:1"
         offset="0" /><stop
         id="stop3741"
         style="stop-color:#ffffff;stop-opacity:0"
         offset="1" /></linearGradient><linearGradient
       id="linearGradient3700"><stop
         id="stop3702"
         style="stop-color:#c2dfdf;stop-opacity:1;"
         offset="0" /><stop
         id="stop3704"
         style="stop-color:#ebebeb;stop-opacity:1;"
         offset="1" /></linearGradient><filter
       color-interpolation-filters="sRGB"
       id="filter3174"
       x="-0.047720931"
       y="-0.048282354"
       width="1.0954419"
       height="1.0965647"><feGaussianBlur
         id="feGaussianBlur3176"
         stdDeviation="1.71" /></filter><linearGradient
       x1="36.357143"
       y1="6"
       x2="36.357143"
       y2="63.893143"
       id="linearGradient3188"
       xlink:href="#linearGradient3737"
       gradientUnits="userSpaceOnUse" /><filter
       x="-0.19578789"
       y="-0.19578789"
       width="1.3915758"
       height="1.3915758"
       color-interpolation-filters="sRGB"
       id="filter3794"><feGaussianBlur
         id="feGaussianBlur3796"
         stdDeviation="5.28" /></filter><linearGradient
       x1="48"
       y1="20.220806"
       x2="48"
       y2="138.66119"
       id="linearGradient3613"
       xlink:href="#linearGradient3737"
       gradientUnits="userSpaceOnUse" /><radialGradient
       cx="48"
       cy="90.171875"
       r="42"
       fx="48"
       fy="90.171875"
       id="radialGradient3619"
       xlink:href="#linearGradient3737"
       gradientUnits="userSpaceOnUse"
       gradientTransform="matrix(1.1573129,0,0,0.99590774,-7.5510206,0.19713193)" /><clipPath
       id="clipPath3613"><rect
         width="84"
         height="84"
         rx="6"
         ry="6"
         x="6"
         y="6"
         id="rect3615"
         style="fill:#ffffff;fill-opacity:1;fill-rule:nonzero;stroke:none" /></clipPath><linearGradient
       x1="48"
       y1="90"
       x2="48"
       y2="5.9877172"
       id="linearGradient3617"
       xlink:href="#linearGradient3700"
       gradientUnits="userSpaceOnUse" /><linearGradient
       x1="45.447727"
       y1="92.539597"
       x2="45.447727"
       y2="7.0165396"
       id="ButtonShadow-0"
       gradientUnits="userSpaceOnUse"
       gradientTransform="matrix(1.0058652,0,0,0.994169,100,0)"><stop
         id="stop3750-8"
         style="stop-color:#000000;stop-opacity:1"
         offset="0" /><stop
         id="stop3752-5"
         style="stop-color:#000000;stop-opacity:0.58823532"
         offset="1" /></linearGradient><linearGradient
       x1="32.251034"
       y1="6.1317081"
       x2="32.251034"
       y2="90.238609"
       id="linearGradient3780"
       xlink:href="#ButtonShadow-0"
       gradientUnits="userSpaceOnUse"
       gradientTransform="matrix(1.0238095,0,0,1.0119048,-1.1428571,-98.071429)" /><linearGradient
       x1="32.251034"
       y1="6.1317081"
       x2="32.251034"
       y2="90.238609"
       id="linearGradient3772"
       xlink:href="#ButtonShadow-0"
       gradientUnits="userSpaceOnUse"
       gradientTransform="matrix(1.0238095,0,0,1.0119048,-1.1428571,-98.071429)" /><linearGradient
       x1="32.251034"
       y1="6.1317081"
       x2="32.251034"
       y2="90.238609"
       id="linearGradient3725"
       xlink:href="#ButtonShadow-0"
       gradientUnits="userSpaceOnUse"
       gradientTransform="matrix(1.0238095,0,0,1.0119048,-1.1428571,-98.071429)" /><linearGradient
       x1="32.251034"
       y1="6.1317081"
       x2="32.251034"
       y2="90.238609"
       id="linearGradient3721"
       xlink:href="#ButtonShadow-0"
       gradientUnits="userSpaceOnUse"
       gradientTransform="translate(0,-97)" /><linearGradient
       x1="32.251034"
       y1="6.1317081"
       x2="32.251034"
       y2="90.238609"
       id="linearGradient3026"
       xlink:href="#ButtonShadow-0"
       gradientUnits="userSpaceOnUse"
       gradientTransform="matrix(1.0238095,0,0,1.0119048,-1.1428571,-98.071429)" /><linearGradient
       x1="49"
       y1="75"
       x2="49"
       y2="22.990385"
       id="linearGradient3698"
       xlink:href="#linearGradient3692"
       gradientUnits="userSpaceOnUse" /><linearGradient
       x1="47"
       y1="74"
       x2="47"
       y2="24"
       id="linearGradient3707"
       xlink:href="#linearGradient3692"
       gradientUnits="userSpaceOnUse" /><linearGradient
       x1="51"
       y1="73"
       x2="52"
       y2="26"
       id="linearGradient3715"
       xlink:href="#linearGradient3692"
       gradientUnits="userSpaceOnUse" /><radialGradient
       cx="48"
       cy="58.666668"
       r="16"
       fx="48"
       fy="58.666668"
       id="radialGradient3723"
       xlink:href="#linearGradient3717"
       gradientUnits="userSpaceOnUse"
       gradientTransform="matrix(1,0,0,1.5,0,-24)" /><linearGradient
       x1="41.646389"
       y1="71.088478"
       x2="41.864433"
       y2="22.682728"
       id="linearGradient3750"
       xlink:href="#linearGradient3744"
       gradientUnits="userSpaceOnUse" /><radialGradient
       cx="55.598351"
       cy="46.454388"
       r="2.6136763"
       fx="55.598351"
       fy="46.454388"
       id="radialGradient3762"
       xlink:href="#linearGradient3756"
       gradientUnits="userSpaceOnUse"
       gradientTransform="matrix(0.94969259,-0.31318364,1.2096513,3.6681255,-53.396602,-103.87465)" /><radialGradient
       cx="55.598351"
       cy="46.454388"
       r="2.6136763"
       fx="55.598351"
       fy="46.454388"
       id="radialGradient3776"
       xlink:href="#linearGradient3756"
       gradientUnits="userSpaceOnUse"
       gradientTransform="matrix(0.39510098,-0.13029391,0.5032517,1.5260517,6.3824423,-26.002402)" /><linearGradient
       x1="48.353294"
       y1="24.342234"
       x2="48.353294"
       y2="46.270821"
       id="linearGradient3789"
       xlink:href="#linearGradient3782"
       gradientUnits="userSpaceOnUse" /><linearGradient
       y2="20.913509"
       x2="19.249098"
       y1="-1.4776937"
       x1="19.249098"
       gradientTransform="matrix(2.333332,0,0,2.4510672,-3.8732852,-2.8341199)"
       gradientUnits="userSpaceOnUse"
       id="linearGradient3096"
       xlink:href="#linearGradient9543"
       inkscape:collect="always" /><linearGradient
       id="linearGradient9543"><stop
         id="stop9545"
         style="stop-color:#ffffff;stop-opacity:1"
         offset="0" /><stop
         id="stop9547"
         style="stop-color:#ffffff;stop-opacity:0"
         offset="1" /></linearGradient><linearGradient
       y2="20.913509"
       x2="19.249098"
       y1="-1.4776937"
       x1="19.249098"
       gradientTransform="matrix(2.333332,0,0,2.4510672,-3.2116366,-2.976362)"
       gradientUnits="userSpaceOnUse"
       id="linearGradient3053"
       xlink:href="#linearGradient9543"
       inkscape:collect="always" /><linearGradient
       inkscape:collect="always"
       xlink:href="#linearGradient11"
       id="linearGradient12"
       x1="48.998272"
       y1="9.6345091"
       x2="48.998272"
       y2="52.815392"
       gradientUnits="userSpaceOnUse" /><linearGradient
       inkscape:collect="always"
       xlink:href="#linearGradient13"
       id="linearGradient14"
       x1="49.28125"
       y1="31.931641"
       x2="49.28125"
       y2="83.205078"
       gradientUnits="userSpaceOnUse" /><linearGradient
       inkscape:collect="always"
       xlink:href="#linearGradient15"
       id="linearGradient16"
       x1="49.350605"
       y1="44.320286"
       x2="49.960773"
       y2="68.702583"
       gradientUnits="userSpaceOnUse" /><filter
       inkscape:collect="always"
       style="color-interpolation-filters:sRGB"
       id="filter1"
       x="-0.043617039"
       y="-1.7498432"
       width="1.0872341"
       height="4.4997456"><feGaussianBlur
         inkscape:collect="always"
         stdDeviation="0.61773653"
         id="feGaussianBlur1" /></filter></defs><metadata
     id="metadata2413"><rdf:RDF><cc:Work
         rdf:about=""><dc:format>image/svg+xml</dc:format><dc:type
           rdf:resource="http://purl.org/dc/dcmitype/StillImage" /></cc:Work></rdf:RDF></metadata><g
     id="layer3"><path
       d="m 12,-95.03125 c -5.5110903,0 -10.03125,4.52016 -10.03125,10.03125 l 0,71 c 0,5.5110902 4.5201598,10.03125 10.03125,10.03125 l 72,0 c 5.51109,0 10.03125,-4.5201597 10.03125,-10.03125 l 0,-71 c 0,-5.51109 -4.52016,-10.03125 -10.03125,-10.03125 l -72,0 z"
       transform="scale(1,-1)"
       id="path3786"
       style="opacity:0.07999998;fill:url(#linearGradient3026);fill-opacity:1;fill-rule:nonzero;stroke:none;display:inline" /><path
       d="m 12,-94.03125 c -4.971633,0 -9.03125,4.059617 -9.03125,9.03125 l 0,71 c 0,4.9716329 4.0596171,9.03125 9.03125,9.03125 l 72,0 c 4.971633,0 9.03125,-4.059617 9.03125,-9.03125 l 0,-71 c 0,-4.971633 -4.059617,-9.03125 -9.03125,-9.03125 l -72,0 z"
       transform="scale(1,-1)"
       id="path3778"
       style="opacity:0.1;fill:url(#linearGradient3780);fill-opacity:1;fill-rule:nonzero;stroke:none;display:inline" /><path
       d="m 12,-93 c -4.4091333,0 -8,3.590867 -8,8 l 0,71 c 0,4.4091333 3.5908667,8 8,8 l 72,0 c 4.409133,0 8,-3.5908667 8,-8 l 0,-71 c 0,-4.409133 -3.590867,-8 -8,-8 l -72,0 z"
       transform="scale(1,-1)"
       id="path3770"
       style="opacity:0.2;fill:url(#linearGradient3772);fill-opacity:1;fill-rule:nonzero;stroke:none;display:inline" /><rect
       width="86"
       height="85"
       rx="7"
       ry="7"
       x="5"
       y="-92"
       transform="scale(1,-1)"
       id="rect3723"
       style="opacity:0.3;fill:url(#linearGradient3725);fill-opacity:1;fill-rule:nonzero;stroke:none;display:inline" /><rect
       width="84"
       height="84"
       rx="6"
       ry="6"
       x="6"
       y="-91"
       transform="scale(1,-1)"
       id="rect3716"
       style="opacity:0.45;fill:url(#linearGradient3721);fill-opacity:1;fill-rule:nonzero;stroke:none;display:inline" /></g><g
     id="layer1"
     style="display:inline"><rect
       width="84"
       height="84"
       rx="6"
       ry="6"
       x="6"
       y="6"
       id="rect2419"
       style="fill:url(#linearGradient3617);fill-opacity:1;fill-rule:nonzero;stroke:none" /><path
       d="M 12,6 C 8.676,6 6,8.676 6,12 v 2 68 2 c 0,0.334721 0.04135,0.6507 0.09375,0.96875 0.0487,0.295596 0.09704,0.596915 0.1875,0.875 0.00988,0.03038 0.020892,0.0636 0.03125,0.09375 0.098865,0.287771 0.2348802,0.547452 0.375,0.8125 0.1445918,0.273507 0.3156161,0.535615 0.5,0.78125 0.1843839,0.245635 0.3737765,0.473472 0.59375,0.6875 0.439947,0.428056 0.94291,0.814526 1.5,1.09375 0.278545,0.139612 0.5734731,0.246947 0.875,0.34375 -0.2562018,-0.100222 -0.4867109,-0.236272 -0.71875,-0.375 -0.00741,-0.0044 -0.023866,0.0045 -0.03125,0 -0.031933,-0.0193 -0.062293,-0.04251 -0.09375,-0.0625 -0.120395,-0.0767 -0.2310226,-0.163513 -0.34375,-0.25 -0.1061728,-0.0808 -0.2132809,-0.161112 -0.3125,-0.25 C 8.4783201,88.557317 8.3087904,88.373362 8.15625,88.1875 8.0486711,88.057245 7.9378561,87.922215 7.84375,87.78125 7.818661,87.74287 7.805304,87.69538 7.78125,87.65625 7.716487,87.553218 7.6510225,87.451733 7.59375,87.34375 7.4927417,87.149044 7.3880752,86.928049 7.3125,86.71875 7.30454,86.69694 7.288911,86.6782 7.28125,86.65625 7.2494249,86.5643 7.2454455,86.469419 7.21875,86.375 7.1884177,86.268382 7.1483606,86.171969 7.125,86.0625 7.0521214,85.720988 7,85.364295 7,85 V 83 15 13 C 7,10.218152 9.2181517,8 12,8 h 2 68 2 c 2.781848,0 5,2.218152 5,5 v 2 68 2 c 0,0.364295 -0.05212,0.720988 -0.125,1.0625 -0.04415,0.206893 -0.08838,0.397658 -0.15625,0.59375 -0.0077,0.02195 -0.0233,0.04069 -0.03125,0.0625 -0.06274,0.173739 -0.138383,0.367449 -0.21875,0.53125 -0.04158,0.0828 -0.07904,0.169954 -0.125,0.25 -0.0546,0.09721 -0.126774,0.18835 -0.1875,0.28125 -0.09411,0.140965 -0.204921,0.275995 -0.3125,0.40625 -0.143174,0.17445 -0.303141,0.346998 -0.46875,0.5 -0.01117,0.0102 -0.01998,0.02115 -0.03125,0.03125 -0.138386,0.125556 -0.285091,0.234436 -0.4375,0.34375 -0.102571,0.07315 -0.204318,0.153364 -0.3125,0.21875 -0.0074,0.0045 -0.02384,-0.0044 -0.03125,0 -0.232039,0.138728 -0.462548,0.274778 -0.71875,0.375 0.301527,-0.0968 0.596455,-0.204138 0.875,-0.34375 0.55709,-0.279224 1.060053,-0.665694 1.5,-1.09375 0.219973,-0.214028 0.409366,-0.441865 0.59375,-0.6875 0.184384,-0.245635 0.355408,-0.507743 0.5,-0.78125 0.14012,-0.265048 0.276135,-0.524729 0.375,-0.8125 0.01041,-0.03078 0.02133,-0.06274 0.03125,-0.09375 0.09046,-0.278085 0.1388,-0.579404 0.1875,-0.875 C 89.95865,84.6507 90,84.334721 90,84 V 82 14 12 C 90,8.676 87.324,6 84,6 Z"
       inkscape:connector-curvature="0"
       id="rect3728"
       style="opacity:0.4;fill:url(#linearGradient3188);fill-opacity:1;fill-rule:nonzero;stroke:none" /><path
       d="M 12,90 C 8.676,90 6,87.324 6,84 V 82 14 12 c 0,-0.334721 0.04135,-0.6507 0.09375,-0.96875 0.0487,-0.295596 0.09704,-0.596915 0.1875,-0.875 C 6.29113,10.12587 6.302142,10.09265 6.3125,10.0625 6.411365,9.774729 6.5473802,9.515048 6.6875,9.25 6.8320918,8.976493 7.0031161,8.714385 7.1875,8.46875 7.3718839,8.223115 7.5612765,7.995278 7.78125,7.78125 8.221197,7.353194 8.72416,6.966724 9.28125,6.6875 9.559795,6.547888 9.8547231,6.440553 10.15625,6.34375 9.9000482,6.443972 9.6695391,6.580022 9.4375,6.71875 c -0.00741,0.0044 -0.023866,-0.0045 -0.03125,0 -0.031933,0.0193 -0.062293,0.04251 -0.09375,0.0625 -0.120395,0.0767 -0.2310226,0.163513 -0.34375,0.25 -0.1061728,0.0808 -0.2132809,0.161112 -0.3125,0.25 C 8.4783201,7.442683 8.3087904,7.626638 8.15625,7.8125 8.0486711,7.942755 7.9378561,8.077785 7.84375,8.21875 7.818661,8.25713 7.805304,8.30462 7.78125,8.34375 7.716487,8.446782 7.6510225,8.548267 7.59375,8.65625 7.4927417,8.850956 7.3880752,9.071951 7.3125,9.28125 7.30454,9.30306 7.288911,9.3218 7.28125,9.34375 7.2494249,9.4357 7.2454455,9.530581 7.21875,9.625 7.1884177,9.731618 7.1483606,9.828031 7.125,9.9375 7.0521214,10.279012 7,10.635705 7,11 v 2 68 2 c 0,2.781848 2.2181517,5 5,5 h 2 68 2 c 2.781848,0 5,-2.218152 5,-5 V 81 13 11 C 89,10.635705 88.94788,10.279012 88.875,9.9375 88.83085,9.730607 88.78662,9.539842 88.71875,9.34375 88.71105,9.3218 88.69545,9.30306 88.6875,9.28125 88.62476,9.107511 88.549117,8.913801 88.46875,8.75 88.42717,8.6672 88.38971,8.580046 88.34375,8.5 88.28915,8.40279 88.216976,8.31165 88.15625,8.21875 88.06214,8.077785 87.951329,7.942755 87.84375,7.8125 87.700576,7.63805 87.540609,7.465502 87.375,7.3125 87.36383,7.3023 87.35502,7.29135 87.34375,7.28125 87.205364,7.155694 87.058659,7.046814 86.90625,6.9375 86.803679,6.86435 86.701932,6.784136 86.59375,6.71875 c -0.0074,-0.0045 -0.02384,0.0044 -0.03125,0 -0.232039,-0.138728 -0.462548,-0.274778 -0.71875,-0.375 0.301527,0.0968 0.596455,0.204138 0.875,0.34375 0.55709,0.279224 1.060053,0.665694 1.5,1.09375 0.219973,0.214028 0.409366,0.441865 0.59375,0.6875 0.184384,0.245635 0.355408,0.507743 0.5,0.78125 0.14012,0.265048 0.276135,0.524729 0.375,0.8125 0.01041,0.03078 0.02133,0.06274 0.03125,0.09375 0.09046,0.278085 0.1388,0.579404 0.1875,0.875 C 89.95865,11.3493 90,11.665279 90,12 v 2 68 2 c 0,3.324 -2.676,6 -6,6 z"
       inkscape:connector-curvature="0"
       id="path3615"
       style="opacity:0.2;fill:url(#radialGradient3619);fill-opacity:1;fill-rule:nonzero;stroke:none" /></g><g
     id="g18"
     transform="translate(-1.042969,2.679688)"><path
       style="opacity:0.108852;mix-blend-mode:normal;fill:#000000;fill-opacity:1;stroke:#000000;stroke-width:1.62223;stroke-linecap:round;stroke-linejoin:round;stroke-opacity:1;filter:url(#filter1)"
       id="path1"
       sodipodi:type="arc"
       sodipodi:cx="48.166969"
       sodipodi:cy="83.217674"
       sodipodi:rx="26.293425"
       sodipodi:ry="1.3107933"
       sodipodi:start="0"
       sodipodi:end="3.1415927"
       sodipodi:arc-type="slice"
       d="m 74.460394,83.217674 a 26.293425,1.3107933 0 0 1 -13.146713,1.135181 26.293425,1.3107933 0 0 1 -26.293425,0 26.293425,1.3107933 0 0 1 -13.146711,-1.135181 h 26.293424 z"
       transform="matrix(0.78320041,0,0,1.2961035,11.485548,-27.972436)" /><path
       id="path2"
       style="display:inline;opacity:1;fill:none;stroke:url(#linearGradient12);stroke-width:7.599;stroke-linecap:round;stroke-linejoin:round;stroke-dasharray:none"
       d="m 49.504039,16.703952 c -9.473616,-4.41e-4 -17.25553,6.556788 -17.255992,17.280423 -4.18e-4,8.206526 -3.781854,10.239083 3.045782,12.998973 -0.547875,-3.124484 10.164912,-5.846695 14.5616,-5.846695 2.426981,-2.93e-4 11.5491,1.629398 11.5508,6.719493 6.3e-5,0.209562 0.05545,-0.518669 0,0 6.847045,-2.747685 5.149132,-5.648637 5.148459,-13.871771 C 66.554227,23.261604 58.976892,16.704731 49.504039,16.703952 Z"
       sodipodi:nodetypes="ccccsccc" /><path
       id="path4"
       clip-path="none"
       style="display:inline;opacity:1;fill:url(#linearGradient14);stroke-width:7.599;stroke-linecap:round;stroke-linejoin:round"
       d="m 70.652344,35.431641 -12.583985,0.06055 C 56.949214,35.36903 56.479313,36.4364 56.134766,36.941406 l -14.033204,-0.02539 c -0.586219,-0.427992 -0.665917,-1.51353 -1.779296,-1.47461 -4.483386,0.08395 -8.890598,0.0064 -13.373047,0 -3.288134,-0.04661 -3.253838,1.53807 -3.304688,6.050782 l 0.07617,31.933593 c -0.08142,2.768816 6.760698,3.788403 6.710938,6.279297 l 11.695312,-0.02539 c 0.590804,-0.716291 1.10053,-2.119849 1.949219,-2.105469 l 9.019531,-0.04883 c 3.004793,-0.105312 2.096388,0.354027 3.287109,2.179687 h 11.015626 c 0.02148,-2.859571 7.51905,-2.787168 7.519531,-7.18164 l -0.01758,-33.816407 c 0.01396,-3.046858 -1.041018,-3.27219 -4.248047,-3.27539 z m -21.609375,9.888671 c 2.426981,-2.93e-4 6.129159,0.734124 6.130859,5.824219 2.14e-4,0.716156 0.174732,3.805275 -2.878906,5.384766 l 1.958984,11.173828 h -9.453125 l 1.742188,-11.595703 c -4.314095,-1.278849 -4.430623,-10.78711 2.5,-10.78711 z" /><ellipse
       style="opacity:1;fill:#4cb343;fill-opacity:1;stroke:none;stroke-width:4.70217;stroke-linecap:round;stroke-linejoin:round;stroke-dasharray:none;stroke-opacity:1"
       id="path7"
       cx="43.69286"
       cy="27.501156"
       rx="1.9725182"
       ry="2.0920646" /><ellipse
       style="fill:#4cb343;fill-opacity:1;stroke:none;stroke-width:4.70217;stroke-linecap:round;stroke-linejoin:round;stroke-dasharray:none;stroke-opacity:1"
       id="path7-7"
       cx="55.065739"
       cy="27.414099"
       rx="1.9725182"
       ry="2.0920646" /><path
       id="path8"
       style="display:inline;opacity:1;fill:none;fill-opacity:1;stroke:url(#linearGradient16);stroke-width:2;stroke-linecap:round;stroke-linejoin:round;stroke-dasharray:none;stroke-opacity:1"
       d="m 49.042356,45.320285 c -6.930623,0 -6.814452,9.507928 -2.500357,10.786777 l -1.742187,11.595521 h 9.455063 L 52.29428,56.530206 c 3.053638,-1.579491 2.880059,-4.66872 2.879845,-5.384876 -0.0017,-5.090095 -3.704788,-5.825339 -6.131769,-5.825045 z"
       sodipodi:nodetypes="ccccccc" /><path
       style="display:inline;opacity:1;fill:none;fill-opacity:1;stroke:#4cb343;stroke-width:1.70582;stroke-linecap:round;stroke-linejoin:round;stroke-dasharray:none;stroke-opacity:1"
       id="path18"
       sodipodi:type="arc"
       sodipodi:cx="49.498665"
       sodipodi:cy="29.610952"
       sodipodi:rx="4.9768648"
       sodipodi:ry="2.8021021"
       sodipodi:start="0.48022794"
       sodipodi:end="2.6697873"
       sodipodi:arc-type="arc"
       d="m 53.912595,30.905471 a 4.9768648,2.8021021 0 0 1 -4.434889,1.507559 4.9768648,2.8021021 0 0 1 -4.41218,-1.528536"
       sodipodi:open="true" /></g><g
     id="layer5"
     style="display:inline"><rect
       width="66"
       height="66"
       rx="12"
       ry="12"
       x="15"
       y="15"
       clip-path="url(#clipPath3613)"
       id="rect3171"
       style="display:inline;opacity:0.1;fill:url(#linearGradient3613);fill-opacity:1;fill-rule:nonzero;stroke:#ffffff;stroke-width:0.5;stroke-linecap:round;stroke-linejoin:miter;stroke-miterlimit:4;stroke-dasharray:none;stroke-dashoffset:0;stroke-opacity:1;filter:url(#filter3794)" /></g><path
     d="m 12.121703,6.760386 c -3.3239996,0 -5.9999996,2.676 -5.9999996,6 v 23 c 9.2973996,2.857764 34.5411296,6.729565 55.4999996,4.90625 9.11695,-0.793128 19.86149,-3.055412 28.49999,-6.03125 v -21.875 c 0,-3.324 -2.676,-6 -6,-6 z"
     inkscape:connector-curvature="0"
     id="path3976"
     style="color:#000000;display:inline;overflow:visible;visibility:visible;opacity:0.743478;fill:url(#linearGradient3053);fill-opacity:1;fill-rule:evenodd;stroke:none;stroke-width:1px;marker:none;enable-background:accumulate" /></svg>
