<?xml version="1.0" encoding="UTF-8" standalone="no"?>
<!-- Created with Inkscape (http://www.inkscape.org/) -->

<svg
   version="1.0"
   width="96"
   height="96"
   id="svg2408"
   sodipodi:docname="steam_icon_500.svg"
   xml:space="preserve"
   inkscape:version="1.2.2 (b0a8486541, 2022-12-01)"
   xmlns:inkscape="http://www.inkscape.org/namespaces/inkscape"
   xmlns:sodipodi="http://sodipodi.sourceforge.net/DTD/sodipodi-0.dtd"
   xmlns:xlink="http://www.w3.org/1999/xlink"
   xmlns="http://www.w3.org/2000/svg"
   xmlns:svg="http://www.w3.org/2000/svg"
   xmlns:rdf="http://www.w3.org/1999/02/22-rdf-syntax-ns#"
   xmlns:cc="http://creativecommons.org/ns#"
   xmlns:dc="http://purl.org/dc/elements/1.1/"><sodipodi:namedview
     id="namedview129587"
     pagecolor="#ffffff"
     bordercolor="#000000"
     borderopacity="0.25"
     inkscape:showpageshadow="2"
     inkscape:pageopacity="0.0"
     inkscape:pagecheckerboard="0"
     inkscape:deskcolor="#d1d1d1"
     showgrid="false"
     inkscape:zoom="11.313708"
     inkscape:cx="42.956737"
     inkscape:cy="59.39697"
     inkscape:window-width="2560"
     inkscape:window-height="1372"
     inkscape:window-x="0"
     inkscape:window-y="1440"
     inkscape:window-maximized="0"
     inkscape:current-layer="svg2408" /><defs
     id="defs2410"><linearGradient
       x1="45.447727"
       y1="92.539597"
       x2="45.447727"
       y2="7.0165396"
       id="linearGradient34034"
       gradientUnits="userSpaceOnUse"
       gradientTransform="matrix(1.0058652,0,0,0.994169,100,0)"><stop
         id="stop34030"
         style="stop-color:#ce4ec9;stop-opacity:1;"
         offset="0" /><stop
         id="stop34032"
         style="stop-color:#000000;stop-opacity:0.58823532"
         offset="1" /></linearGradient><linearGradient
       id="linearGradient28726"><stop
         id="stop28722"
         style="stop-color:#ffdc5c;stop-opacity:1;"
         offset="0.74038464" /><stop
         id="stop28724"
         style="stop-color:#d6d6d6;stop-opacity:0;"
         offset="1" /></linearGradient><linearGradient
       id="linearGradient134052"><stop
         id="stop134048"
         style="stop-color:#0b5206;stop-opacity:1;"
         offset="0" /><stop
         id="stop134050"
         style="stop-color:#ff3636;stop-opacity:1;"
         offset="1" /></linearGradient><linearGradient
       id="linearGradient3614"><stop
         id="stop3616"
         style="stop-color:#295206;stop-opacity:1;"
         offset="0" /><stop
         id="stop3618"
         style="stop-color:#5b8206;stop-opacity:1;"
         offset="1" /></linearGradient><linearGradient
       x1="45.447727"
       y1="92.539597"
       x2="45.447727"
       y2="7.0165396"
       id="ButtonShadow"
       gradientUnits="userSpaceOnUse"
       gradientTransform="scale(1.0058652,0.994169)"><stop
         id="stop3750"
         style="stop-color:#000000;stop-opacity:1"
         offset="0" /><stop
         id="stop3752"
         style="stop-color:#000000;stop-opacity:0.58823532"
         offset="1" /></linearGradient><linearGradient
       id="linearGradient3737"><stop
         id="stop3739"
         style="stop-color:#ffffff;stop-opacity:1"
         offset="0" /><stop
         id="stop3741"
         style="stop-color:#ffffff;stop-opacity:0"
         offset="1" /></linearGradient><filter
       color-interpolation-filters="sRGB"
       id="filter3174"
       x="-0.047720931"
       y="-0.048282354"
       width="1.0954419"
       height="1.0965647"><feGaussianBlur
         id="feGaussianBlur3176"
         stdDeviation="1.71" /></filter><linearGradient
       x1="36.357143"
       y1="6"
       x2="36.357143"
       y2="63.893143"
       id="linearGradient3188"
       xlink:href="#linearGradient3737"
       gradientUnits="userSpaceOnUse" /><filter
       x="-0.19578789"
       y="-0.19578789"
       width="1.3915758"
       height="1.3915758"
       color-interpolation-filters="sRGB"
       id="filter3794"><feGaussianBlur
         id="feGaussianBlur3796"
         stdDeviation="5.28" /></filter><linearGradient
       x1="48"
       y1="20.220806"
       x2="48"
       y2="138.66119"
       id="linearGradient3613"
       xlink:href="#linearGradient3737"
       gradientUnits="userSpaceOnUse" /><radialGradient
       cx="48"
       cy="90.171875"
       r="42"
       fx="48"
       fy="90.171875"
       id="radialGradient3619"
       xlink:href="#linearGradient3737"
       gradientUnits="userSpaceOnUse"
       gradientTransform="matrix(1.1573129,0,0,0.99590774,-7.5510206,0.19713193)" /><clipPath
       id="clipPath3613"><rect
         width="84"
         height="84"
         rx="6"
         ry="6"
         x="6"
         y="6"
         id="rect3615"
         style="fill:#ffffff;fill-opacity:1;fill-rule:nonzero;stroke:none" /></clipPath><linearGradient
       x1="48"
       y1="90"
       x2="48"
       y2="5.9877172"
       id="linearGradient3617"
       xlink:href="#linearGradient3614"
       gradientUnits="userSpaceOnUse" /><linearGradient
       id="linearGradient3737-2"><stop
         id="stop3739-1"
         style="stop-color:#dcdf00;stop-opacity:1;"
         offset="0" /><stop
         id="stop3741-7"
         style="stop-color:#d6d6d6;stop-opacity:0;"
         offset="1" /></linearGradient><linearGradient
       x1="48"
       y1="6"
       x2="48"
       y2="109.10714"
       id="linearGradient4478"
       xlink:href="#linearGradient3737-2"
       gradientUnits="userSpaceOnUse" /><linearGradient
       id="linearGradient2806"><stop
         id="stop2808"
         style="stop-color:#ef2929;stop-opacity:1"
         offset="0" /><stop
         id="stop2810"
         style="stop-color:#cc0000;stop-opacity:1"
         offset="1" /></linearGradient><linearGradient
       id="linearGradient2928"><stop
         id="stop2930"
         style="stop-color:#a40000;stop-opacity:1"
         offset="0" /><stop
         id="stop2932"
         style="stop-color:#300000;stop-opacity:1"
         offset="1" /></linearGradient><linearGradient
       id="linearGradient2998"><stop
         id="stop3000"
         style="stop-color:#310000;stop-opacity:1"
         offset="0" /><stop
         id="stop3002"
         style="stop-color:#310000;stop-opacity:0"
         offset="1" /></linearGradient><linearGradient
       id="linearGradient2440"><stop
         id="stop2442"
         style="stop-color:#60625e;stop-opacity:1"
         offset="0" /><stop
         id="stop2444"
         style="stop-color:#1d2122;stop-opacity:1"
         offset="1" /></linearGradient><linearGradient
       id="linearGradient2396"><stop
         id="stop2398"
         style="stop-color:#e1e2df;stop-opacity:1"
         offset="0" /><stop
         id="stop2400"
         style="stop-color:#888a85;stop-opacity:1"
         offset="1" /></linearGradient><linearGradient
       id="linearGradient2416"><stop
         id="stop2418"
         style="stop-color:#30312f;stop-opacity:1"
         offset="0" /><stop
         id="stop2420"
         style="stop-color:#555753;stop-opacity:0"
         offset="1" /></linearGradient><linearGradient
       id="linearGradient2404"><stop
         id="stop2406"
         style="stop-color:#d3d7cf;stop-opacity:1"
         offset="0" /><stop
         id="stop2408"
         style="stop-color:#555856;stop-opacity:1"
         offset="1" /></linearGradient><linearGradient
       id="linearGradient2970"><stop
         id="stop2972"
         style="stop-color:#fcaf3e;stop-opacity:1"
         offset="0" /><stop
         id="stop2974"
         style="stop-color:#fcaf3e;stop-opacity:0"
         offset="1" /></linearGradient><linearGradient
       id="linearGradient2521"><stop
         id="stop2523"
         style="stop-color:#7f4e01;stop-opacity:1"
         offset="0" /><stop
         id="stop2525"
         style="stop-color:#402700;stop-opacity:1"
         offset="1" /></linearGradient><linearGradient
       id="linearGradient2505"><stop
         id="stop2507"
         style="stop-color:#e9b96e;stop-opacity:1"
         offset="0" /><stop
         id="stop2509"
         style="stop-color:#774a01;stop-opacity:1"
         offset="1" /></linearGradient><linearGradient
       id="linearGradient2551"><stop
         id="stop2553"
         style="stop-color:#5f3a00;stop-opacity:1"
         offset="0" /><stop
         id="stop2555"
         style="stop-color:#5f3a00;stop-opacity:0"
         offset="1" /></linearGradient><linearGradient
       id="linearGradient2531"><stop
         id="stop2533"
         style="stop-color:#f1d09e;stop-opacity:1"
         offset="0" /><stop
         id="stop2535"
         style="stop-color:#8f5902;stop-opacity:1"
         offset="1" /></linearGradient><linearGradient
       id="linearGradient2432"><stop
         id="stop2434"
         style="stop-color:#eeeeec;stop-opacity:1"
         offset="0" /><stop
         id="stop2436"
         style="stop-color:#eeeeec;stop-opacity:0"
         offset="1" /></linearGradient><linearGradient
       id="linearGradient2415"><stop
         id="stop2417"
         style="stop-color:#eeeeec;stop-opacity:1"
         offset="0" /><stop
         id="stop2419"
         style="stop-color:#eeeeec;stop-opacity:0"
         offset="1" /></linearGradient><linearGradient
       id="linearGradient2950"><stop
         id="stop2952"
         style="stop-color:#fcaf3e;stop-opacity:1"
         offset="0" /><stop
         id="stop2954"
         style="stop-color:#f57900;stop-opacity:0"
         offset="1" /></linearGradient><linearGradient
       id="linearGradient2888"><stop
         id="stop2890"
         style="stop-color:#ffd79a;stop-opacity:1"
         offset="0" /><stop
         id="stop2892"
         style="stop-color:#eeb660;stop-opacity:0"
         offset="1" /></linearGradient><linearGradient
       id="linearGradient2898"><stop
         id="stop2900"
         style="stop-color:#f5f5f4;stop-opacity:1"
         offset="0" /><stop
         id="stop2902"
         style="stop-color:#f5f5f4;stop-opacity:0"
         offset="1" /></linearGradient><linearGradient
       id="linearGradient2908"><stop
         id="stop2910"
         style="stop-color:#252829;stop-opacity:1"
         offset="0" /><stop
         id="stop2912"
         style="stop-color:#252829;stop-opacity:0"
         offset="1" /></linearGradient><linearGradient
       id="linearGradient4750"><stop
         id="stop4752"
         style="stop-color:#ffffff;stop-opacity:1"
         offset="0" /><stop
         id="stop4758"
         style="stop-color:#fefefe;stop-opacity:1"
         offset="0.37931034" /><stop
         id="stop4754"
         style="stop-color:#1d1d1d;stop-opacity:1"
         offset="1" /></linearGradient><linearGradient
       x1="32.400002"
       y1="17.6"
       x2="32.400002"
       y2="42.369164"
       id="linearGradient4237"
       xlink:href="#linearGradient2521"
       gradientUnits="userSpaceOnUse"
       gradientTransform="matrix(0.901767,0,0,1,1.455816,0)" /><linearGradient
       x1="17.6"
       y1="48.400002"
       x2="32.400002"
       y2="48.400002"
       id="linearGradient4239"
       xlink:href="#linearGradient2505"
       gradientUnits="userSpaceOnUse"
       gradientTransform="matrix(0.901767,0,0,1,1.455816,0)" /><linearGradient
       x1="24"
       y1="40"
       x2="24.922859"
       y2="48.449749"
       id="linearGradient4241"
       xlink:href="#linearGradient2551"
       gradientUnits="userSpaceOnUse" /><linearGradient
       x1="19.348167"
       y1="31.764088"
       x2="29.712492"
       y2="33"
       id="linearGradient4243"
       xlink:href="#linearGradient2531"
       gradientUnits="userSpaceOnUse" /><radialGradient
       cx="18.63378"
       cy="17.486208"
       r="40.692665"
       fx="18.934305"
       fy="17.810213"
       id="radialGradient4275"
       xlink:href="#linearGradient4750"
       gradientUnits="userSpaceOnUse"
       gradientTransform="scale(1.036822,0.964486)" /><radialGradient
       cx="18.63378"
       cy="17.486208"
       r="40.692665"
       fx="18.934305"
       fy="17.810213"
       id="radialGradient4277"
       xlink:href="#linearGradient4750"
       gradientUnits="userSpaceOnUse"
       gradientTransform="scale(1.036822,0.964486)" /><radialGradient
       cx="18.63378"
       cy="17.486208"
       r="40.692665"
       fx="18.934305"
       fy="17.810213"
       id="radialGradient4279"
       xlink:href="#linearGradient4750"
       gradientUnits="userSpaceOnUse"
       gradientTransform="scale(1.036822,0.964486)" /><radialGradient
       cx="18.63378"
       cy="17.486208"
       r="40.692665"
       fx="18.934305"
       fy="17.810213"
       id="radialGradient4281"
       xlink:href="#linearGradient4750"
       gradientUnits="userSpaceOnUse"
       gradientTransform="scale(1.036822,0.964486)" /><radialGradient
       cx="18.63378"
       cy="17.486208"
       r="40.692665"
       fx="18.934305"
       fy="17.810213"
       id="radialGradient4283"
       xlink:href="#linearGradient4750"
       gradientUnits="userSpaceOnUse"
       gradientTransform="scale(1.036822,0.964486)" /><radialGradient
       cx="18.63378"
       cy="17.486208"
       r="40.692665"
       fx="18.934305"
       fy="17.810213"
       id="radialGradient4285"
       xlink:href="#linearGradient4750"
       gradientUnits="userSpaceOnUse"
       gradientTransform="scale(1.036822,0.964486)" /><radialGradient
       cx="18.63378"
       cy="17.486208"
       r="40.692665"
       fx="18.934305"
       fy="17.810213"
       id="radialGradient4287"
       xlink:href="#linearGradient4750"
       gradientUnits="userSpaceOnUse"
       gradientTransform="scale(1.036822,0.964486)" /><radialGradient
       cx="18.63378"
       cy="17.486208"
       r="40.692665"
       fx="18.934305"
       fy="17.810213"
       id="radialGradient4289"
       xlink:href="#linearGradient4750"
       gradientUnits="userSpaceOnUse"
       gradientTransform="scale(1.036822,0.964486)" /><radialGradient
       cx="18.63378"
       cy="17.486208"
       r="40.692665"
       fx="18.934305"
       fy="17.810213"
       id="radialGradient4291"
       xlink:href="#linearGradient4750"
       gradientUnits="userSpaceOnUse"
       gradientTransform="scale(1.036822,0.964486)" /><radialGradient
       cx="18.63378"
       cy="17.486208"
       r="40.692665"
       fx="18.934305"
       fy="17.810213"
       id="radialGradient4293"
       xlink:href="#linearGradient4750"
       gradientUnits="userSpaceOnUse"
       gradientTransform="scale(1.036822,0.964486)" /><linearGradient
       x1="6.5407376"
       y1="2.1974521"
       x2="32.084969"
       y2="2.1974521"
       id="linearGradient4316"
       xlink:href="#linearGradient2898"
       gradientUnits="userSpaceOnUse"
       gradientTransform="matrix(1.523368,0,0,1.523368,11.439168,10.946779)" /><linearGradient
       x1="11.357903"
       y1="23.825788"
       x2="9.3691654"
       y2="17.771187"
       id="linearGradient4319"
       xlink:href="#linearGradient2908"
       gradientUnits="userSpaceOnUse"
       gradientTransform="matrix(1.523368,0,0,1.523368,11.439168,10.946779)" /><linearGradient
       x1="4.7729707"
       y1="17.550215"
       x2="7.8665633"
       y2="8.0926609"
       id="linearGradient4322"
       xlink:href="#linearGradient2898"
       gradientUnits="userSpaceOnUse"
       gradientTransform="matrix(1.523368,0,0,1.523368,11.439168,10.946779)" /><linearGradient
       x1="18.826717"
       y1="31.338797"
       x2="23.334524"
       y2="31.250408"
       id="linearGradient4325"
       xlink:href="#linearGradient2950"
       gradientUnits="userSpaceOnUse"
       gradientTransform="matrix(1.523368,0,0,1.523368,11.439168,10.946779)" /><linearGradient
       x1="19.625"
       y1="27.071722"
       x2="28.5"
       y2="27.071722"
       id="linearGradient4328"
       xlink:href="#linearGradient2950"
       gradientUnits="userSpaceOnUse"
       gradientTransform="matrix(1.523368,0,0,1.523368,11.439168,10.946779)" /><linearGradient
       x1="23.277353"
       y1="32.055065"
       x2="29.111048"
       y2="31.966679"
       id="linearGradient4331"
       xlink:href="#linearGradient2806"
       gradientUnits="userSpaceOnUse"
       gradientTransform="matrix(1.523368,0,0,1.523368,11.439168,10.946779)" /><linearGradient
       x1="18.68116"
       y1="29.933746"
       x2="29.906544"
       y2="29.933746"
       id="linearGradient4333"
       xlink:href="#linearGradient2928"
       gradientUnits="userSpaceOnUse"
       gradientTransform="matrix(1.523368,0,0,1.523368,11.439168,10.946779)" /><linearGradient
       x1="22.667521"
       y1="32.236626"
       x2="27.388777"
       y2="31.44113"
       id="linearGradient4336"
       xlink:href="#linearGradient2806"
       gradientUnits="userSpaceOnUse"
       gradientTransform="matrix(1.523368,0,0,1.523368,11.439168,10.946779)" /><linearGradient
       x1="17.80616"
       y1="34.004391"
       x2="25.709398"
       y2="34.578915"
       id="linearGradient4338"
       xlink:href="#linearGradient2928"
       gradientUnits="userSpaceOnUse"
       gradientTransform="matrix(1.523368,0,0,1.523368,11.439168,10.946779)" /><linearGradient
       x1="19.445436"
       y1="42.07798"
       x2="29.433319"
       y2="34.034641"
       id="linearGradient4341"
       xlink:href="#linearGradient2888"
       gradientUnits="userSpaceOnUse"
       gradientTransform="matrix(1.523368,0,0,1.523368,11.439168,10.946779)" /><linearGradient
       x1="9.375"
       y1="39.6875"
       x2="13.3125"
       y2="35"
       id="linearGradient4344"
       xlink:href="#linearGradient2950"
       gradientUnits="userSpaceOnUse"
       gradientTransform="matrix(1.5044066,-0.23960751,0.23960751,1.5044066,-1.4759217,17.554518)" /><linearGradient
       x1="12.900058"
       y1="12.908146"
       x2="18.573477"
       y2="9.7130737"
       id="linearGradient4347"
       xlink:href="#linearGradient2415"
       gradientUnits="userSpaceOnUse"
       gradientTransform="matrix(1.5160299,-0.0190116,0.0890815,1.3278788,10.124487,11.276744)" /><linearGradient
       x1="12.254768"
       y1="14.820889"
       x2="20.264099"
       y2="8.1485271"
       id="linearGradient4350"
       xlink:href="#linearGradient2415"
       gradientUnits="userSpaceOnUse"
       gradientTransform="matrix(-1.5160299,-0.0190116,-0.0890815,1.3278788,85.606228,11.221376)" /><linearGradient
       x1="23.906006"
       y1="6.0466475"
       x2="24.746471"
       y2="21.63644"
       id="linearGradient4353"
       xlink:href="#linearGradient2415"
       gradientUnits="userSpaceOnUse"
       gradientTransform="matrix(1.5211591,-0.07736135,-0.08200762,-1.4349746,11.924619,38.648373)" /><linearGradient
       x1="36.819733"
       y1="18"
       x2="36.819733"
       y2="11.375"
       id="linearGradient4356"
       xlink:href="#linearGradient2432"
       gradientUnits="userSpaceOnUse"
       gradientTransform="matrix(1.523368,0,0,1.523368,9.9157998,10.946779)" /><linearGradient
       x1="32.877865"
       y1="31.905155"
       x2="39.863144"
       y2="36.030155"
       id="linearGradient4364"
       xlink:href="#linearGradient2970"
       gradientUnits="userSpaceOnUse"
       gradientTransform="matrix(1.5044066,-0.23960751,0.23960751,1.5044066,-1.4759217,17.554518)" /><linearGradient
       x1="36.125"
       y1="37.699108"
       x2="35.65625"
       y2="41.324108"
       id="linearGradient4367"
       xlink:href="#linearGradient2998"
       gradientUnits="userSpaceOnUse"
       gradientTransform="matrix(1.5044066,-0.23960751,0.23960751,1.5044066,-1.4759217,17.554518)" /><linearGradient
       x1="18.995815"
       y1="7.2467284"
       x2="20.007339"
       y2="23.841942"
       id="linearGradient4370"
       xlink:href="#linearGradient2404"
       gradientUnits="userSpaceOnUse"
       gradientTransform="matrix(1.523368,0,0,1.523368,9.9157998,10.946779)" /><radialGradient
       cx="25"
       cy="-14.44571"
       r="20"
       fx="25"
       fy="-14.44571"
       id="radialGradient4373"
       xlink:href="#linearGradient2416"
       gradientUnits="userSpaceOnUse"
       gradientTransform="matrix(-3.4086029,0,0,-1.5387479,133.21507,8.7506037)" /><linearGradient
       x1="31.116503"
       y1="23.841942"
       x2="26.548079"
       y2="-1.7747182"
       id="linearGradient4376"
       xlink:href="#linearGradient2396"
       gradientUnits="userSpaceOnUse"
       gradientTransform="matrix(1.523368,0,0,1.523368,9.9157998,10.946779)" /><linearGradient
       x1="22.674999"
       y1="-1.3035535"
       x2="27.513184"
       y2="23.544195"
       id="linearGradient4379"
       xlink:href="#linearGradient2440"
       gradientUnits="userSpaceOnUse"
       gradientTransform="matrix(1.523368,0,0,1.523368,9.9157998,10.946779)" /><linearGradient
       x1="25.4125"
       y1="35.893593"
       x2="41.900002"
       y2="35.893593"
       id="linearGradient4382"
       xlink:href="#linearGradient2806"
       gradientUnits="userSpaceOnUse"
       gradientTransform="matrix(1.5044066,-0.23960751,0.23960751,1.5044066,-1.4759217,17.554518)" /><linearGradient
       x1="30.0375"
       y1="32.262184"
       x2="41.212502"
       y2="39.525002"
       id="linearGradient4384"
       xlink:href="#linearGradient2928"
       gradientUnits="userSpaceOnUse"
       gradientTransform="matrix(1.5044066,-0.23960751,0.23960751,1.5044066,-1.4759217,17.554518)" /><linearGradient
       x1="20.375"
       y1="38.40625"
       x2="11.5625"
       y2="37.71875"
       id="linearGradient4387"
       xlink:href="#linearGradient2998"
       gradientUnits="userSpaceOnUse"
       gradientTransform="matrix(1.5044066,-0.23960751,0.23960751,1.5044066,2.8328134,16.881277)" /><linearGradient
       x1="7.2249999"
       y1="37.761219"
       x2="42.108513"
       y2="37.761219"
       id="linearGradient4390"
       xlink:href="#linearGradient2806"
       gradientUnits="userSpaceOnUse"
       gradientTransform="matrix(1.5044066,-0.23960751,0.23960751,1.5044066,-1.4759217,17.554518)" /><linearGradient
       x1="7.2249999"
       y1="37.761219"
       x2="42.108513"
       y2="37.761219"
       id="linearGradient4392"
       xlink:href="#linearGradient2928"
       gradientUnits="userSpaceOnUse"
       gradientTransform="matrix(1.5044066,-0.23960751,0.23960751,1.5044066,-1.4759217,17.554518)" /><linearGradient
       x1="45.447727"
       y1="92.539597"
       x2="45.447727"
       y2="7.0165396"
       id="ButtonShadow-0"
       gradientUnits="userSpaceOnUse"
       gradientTransform="matrix(1.0058652,0,0,0.994169,100,0)"><stop
         id="stop3750-8"
         style="stop-color:#000000;stop-opacity:1"
         offset="0" /><stop
         id="stop3752-5"
         style="stop-color:#000000;stop-opacity:0.58823532"
         offset="1" /></linearGradient><linearGradient
       x1="32.251034"
       y1="6.1317081"
       x2="32.251034"
       y2="90.238609"
       id="linearGradient3780"
       xlink:href="#ButtonShadow-0"
       gradientUnits="userSpaceOnUse"
       gradientTransform="matrix(1.0238095,0,0,1.0119048,-1.1428571,-98.071429)" /><linearGradient
       x1="32.251034"
       y1="6.1317081"
       x2="32.251034"
       y2="90.238609"
       id="linearGradient3772"
       xlink:href="#ButtonShadow-0"
       gradientUnits="userSpaceOnUse"
       gradientTransform="matrix(1.0238095,0,0,1.0119048,-1.1428571,-98.071429)" /><linearGradient
       x1="32.251034"
       y1="6.1317081"
       x2="32.251034"
       y2="90.238609"
       id="linearGradient3725"
       xlink:href="#ButtonShadow-0"
       gradientUnits="userSpaceOnUse"
       gradientTransform="matrix(1.0238095,0,0,1.0119048,-1.1428571,-98.071429)" /><linearGradient
       x1="32.251034"
       y1="6.1317081"
       x2="32.251034"
       y2="90.238609"
       id="linearGradient3721"
       xlink:href="#ButtonShadow-0"
       gradientUnits="userSpaceOnUse"
       gradientTransform="translate(0,-97)" /><linearGradient
       x1="32.251034"
       y1="6.1317081"
       x2="32.251034"
       y2="90.238609"
       id="linearGradient3071"
       xlink:href="#ButtonShadow-0"
       gradientUnits="userSpaceOnUse"
       gradientTransform="matrix(1.0238095,0,0,1.0119048,-1.1428571,-98.071429)" /><linearGradient
       x1="373.12482"
       y1="91.875"
       x2="363.62491"
       y2="258.54688"
       id="linearGradient4006"
       xlink:href="#linearGradient3737"
       gradientUnits="userSpaceOnUse"
       gradientTransform="matrix(0.43977693,0,0,0.43979058,-111.91515,-34.400122)" /><radialGradient
       inkscape:collect="always"
       xlink:href="#linearGradient28726"
       id="radialGradient28720"
       cx="48"
       cy="48"
       fx="48"
       fy="48"
       r="42"
       gradientUnits="userSpaceOnUse" /></defs><metadata
     id="metadata2413"><rdf:RDF><cc:Work
         rdf:about=""><dc:format>image/svg+xml</dc:format><dc:type
           rdf:resource="http://purl.org/dc/dcmitype/StillImage" /></cc:Work></rdf:RDF></metadata><g
     id="layer4"
     style="display:inline"><path
       d="m 12,-95.03125 c -5.5110903,0 -10.03125,4.52016 -10.03125,10.03125 v 71 c 0,5.5110902 4.5201598,10.03125 10.03125,10.03125 h 72 c 5.51109,0 10.03125,-4.5201597 10.03125,-10.03125 v -71 c 0,-5.51109 -4.52016,-10.03125 -10.03125,-10.03125 z"
       transform="scale(1,-1)"
       id="path3786"
       style="display:inline;opacity:0.08;fill:url(#linearGradient3071);fill-opacity:1;fill-rule:nonzero;stroke:none" /><path
       d="m 12,-94.03125 c -4.971633,0 -9.03125,4.059617 -9.03125,9.03125 v 71 c 0,4.9716329 4.0596171,9.03125 9.03125,9.03125 h 72 c 4.971633,0 9.03125,-4.059617 9.03125,-9.03125 v -71 c 0,-4.971633 -4.059617,-9.03125 -9.03125,-9.03125 z"
       transform="scale(1,-1)"
       id="path3778"
       style="display:inline;opacity:0.1;fill:url(#linearGradient3780);fill-opacity:1;fill-rule:nonzero;stroke:none" /><path
       d="m 12,-93 c -4.4091333,0 -8,3.590867 -8,8 v 71 c 0,4.4091333 3.5908667,8 8,8 h 72 c 4.409133,0 8,-3.5908667 8,-8 v -71 c 0,-4.409133 -3.590867,-8 -8,-8 z"
       transform="scale(1,-1)"
       id="path3770"
       style="display:inline;opacity:0.2;fill:url(#linearGradient3772);fill-opacity:1;fill-rule:nonzero;stroke:none" /><rect
       width="86"
       height="85"
       rx="7"
       ry="7"
       x="5"
       y="-92"
       transform="scale(1,-1)"
       id="rect3723"
       style="display:inline;opacity:0.3;fill:url(#linearGradient3725);fill-opacity:1;fill-rule:nonzero;stroke:none" /><rect
       width="84"
       height="84"
       rx="6"
       ry="6"
       x="6"
       y="-91"
       transform="scale(1,-1)"
       id="rect3716"
       style="display:inline;opacity:0.45;fill:url(#linearGradient3721);fill-opacity:1;fill-rule:nonzero;stroke:none" /></g><g
     id="layer1"
     style="display:inline"><rect
       width="84"
       height="84"
       rx="6"
       ry="6"
       x="6"
       y="6"
       id="rect2419"
       style="display:inline;fill:url(#linearGradient3617);fill-opacity:1;fill-rule:nonzero;stroke:none" /><path
       d="M 20.875,6 46.65625,46.65625 6,20.5 V 39 L 46.21875,48 6,56.75 V 75.125 L 46.65625,49.34375 20.5,90 H 39 L 48,49.78125 56.75,90 H 75.125 L 49.34375,49.34375 90,75.5 V 57 L 49.78125,48 90,39.25 V 20.875 L 49.34375,46.65625 75.5,6 H 57 L 48,46.21875 39.25,6 Z"
       inkscape:connector-curvature="0"
       id="path4141"
       style="display:none;opacity:0.136364;fill:url(#radialGradient28720);fill-opacity:1;stroke:none" /><g
       inkscape:groupmode="layer"
       id="layer2"
       inkscape:label="Layer 1"><path
         style="fill:#ffffff;fill-opacity:1;stroke:none"
         d="m 36.736125,61.039922 24.584226,-37.857838 11.404089,2.149951 2.617332,-0.186952 8.412853,8.038948 2.897761,30.192795 -7.945473,13.08666 -4.393378,2.89776 -4.767284,0.74781 c 0,0 -16.264849,-7.197664 -16.825706,-7.478092 -0.560857,-0.280428 -15.98442,-11.591042 -15.98442,-11.591042 z"
         id="path131301" /><path
         id="path33975"
         style="display:inline;opacity:0.28418231;fill:#000000;fill-opacity:1;stroke:none"
         d="M 55.453125 11.332031 A 1.0999107 1.0999107 0 0 0 54.480469 12.117188 C 54.22295 12.995031 54.825388 14.06069 55.695312 14.193359 C 56.130275 14.259695 56.714025 14.102687 57.042969 13.623047 C 57.353745 13.169896 57.289801 12.651968 57.152344 12.253906 C 57.047259 11.950001 56.806403 11.661879 56.607422 11.558594 C 56.389958 11.445714 56.249542 11.433972 56.148438 11.423828 C 55.960499 11.404971 55.889429 11.418567 55.839844 11.421875 A 1.0999107 1.0999107 0 0 0 55.453125 11.332031 z M 56.167969 11.564453 C 56.303215 11.649557 56.444893 11.774567 56.533203 11.964844 A 1.0999107 1.0999107 0 0 0 56.167969 11.564453 z M 58.75 13.994141 C 58.156509 14.048148 57.473971 14.265244 57.154297 14.949219 C 56.834622 15.633193 57.118244 16.257323 57.384766 16.626953 C 57.877453 17.310245 58.568758 17.75334 59.523438 17.785156 C 60.062373 17.912064 60.607201 17.944183 61.09375 17.697266 C 61.622058 17.429155 61.970496 16.861021 62.017578 16.335938 C 62.093351 15.490871 61.462189 14.827727 60.648438 14.53125 C 60.483492 14.401706 60.325023 14.225657 60.177734 14.179688 C 59.926149 14.101164 59.74434 14.09486 59.605469 14.087891 C 59.327725 14.073951 59.211408 14.049605 59.253906 14.066406 A 1.0999107 1.0999107 0 0 0 58.75 13.994141 z M 70.255859 17.378906 A 1.0999107 1.0999107 0 0 0 69.554688 17.623047 C 68.179212 18.731181 66.651001 18.75242 64.722656 18.501953 C 62.86943 18.261243 60.772603 17.744426 58.583984 17.970703 C 56.131579 17.206514 53.929349 18.052663 52.191406 19.271484 C 50.392134 20.533318 48.859584 22.141189 47.425781 23.042969 A 1.0999107 1.0999107 0 0 0 47.046875 23.447266 C 46.222538 24.956013 44.972269 26.283214 43.779297 27.800781 C 42.586324 29.318349 41.450322 31.071658 41.113281 33.380859 A 1.0999107 1.0999107 0 0 0 41.138672 33.820312 C 41.619107 35.631784 40.993734 36.995334 40.068359 38.658203 C 39.225644 40.172537 38.202898 41.90354 37.986328 44.03125 C 36.927103 45.034735 35.395309 46.43568 34.423828 48.146484 C 33.910835 49.04988 33.544437 50.069533 33.634766 51.169922 C 33.70957 52.08119 34.213686 52.959124 34.960938 53.734375 C 34.673593 53.700091 34.354457 53.666607 33.755859 53.546875 C 32.935185 53.382723 31.986411 53.121968 30.953125 53.626953 C 30.436483 53.879446 29.982269 54.41352 29.804688 55.019531 C 29.726559 55.286151 29.80566 55.622977 29.796875 55.914062 C 29.141515 56.100208 28.439155 56.214084 27.503906 56.044922 C 26.449247 55.854162 25.292241 55.520681 24.138672 55.320312 C 21.639458 52.832567 18.325962 49.61913 13.984375 49.845703 A 1.0999107 1.0999107 0 0 0 13.972656 49.845703 C 11.028965 50.029464 9.2376442 52.082428 8.8535156 54.333984 C 8.4693871 56.585542 9.1671096 59.043549 10.630859 60.822266 A 1.0999107 1.0999107 0 0 0 10.873047 61.041016 C 12.546131 62.146929 14.379613 62.728084 15.908203 63.429688 C 17.436794 64.13129 18.607086 64.883025 19.302734 66.230469 A 1.0999107 1.0999107 0 0 0 19.525391 66.527344 C 19.66957 66.663359 19.675706 66.702445 19.681641 66.714844 C 19.643852 66.787148 19.405888 67.095827 19.033203 67.492188 C 18.644683 67.905388 18.125871 68.421608 17.908203 69.257812 C 17.690535 70.094018 17.992934 71.12296 18.738281 71.949219 L 18.642578 71.828125 C 19.743871 73.458573 19.938554 74.614653 19.142578 76.011719 A 1.0999107 1.0999107 0 0 0 19.039062 76.855469 C 19.861485 79.77365 21.74685 82.26285 24.890625 83.320312 C 25.084972 84.168254 25.445714 84.922533 26.003906 85.427734 C 26.728486 86.083528 27.587544 86.437958 28.421875 86.732422 C 30.089377 87.320939 31.666135 87.735038 32.402344 88.583984 C 32.638147 89.128855 32.93757 89.609211 33.294922 90 L 42.587891 90 C 42.633176 89.906297 42.686719 89.816028 42.712891 89.714844 A 1.0999107 1.0999107 0 0 0 42.574219 88.847656 C 42.091168 88.092367 41.408231 87.844705 40.796875 87.617188 A 1.0999107 1.0999107 0 0 0 40.857422 87.574219 C 41.423863 86.851178 43.221906 86.173106 44.986328 85.457031 C 45.868539 85.098995 46.741381 84.711049 47.46875 84.082031 C 48.196119 83.453015 48.748358 82.434925 48.640625 81.308594 A 1.0999107 1.0999107 0 0 0 48.634766 81.271484 C 48.603875 81.035894 48.615381 80.960609 48.621094 80.875 C 48.662261 80.8832 48.666339 80.877321 48.730469 80.898438 C 49.367388 81.108164 50.527537 81.973595 50.880859 82.390625 A 1.0999107 1.0999107 0 0 0 51.457031 82.748047 C 52.262447 82.947469 53.048753 82.60563 53.498047 82.242188 C 53.828926 81.974532 53.991957 81.758928 54.166016 81.556641 C 54.230891 81.637653 54.117634 81.513188 54.248047 81.791016 A 1.0999107 1.0999107 0 0 0 54.400391 82.029297 C 54.956265 82.694488 55.859376 82.922582 56.505859 82.863281 C 57.152344 82.803981 57.658078 82.601897 58.068359 82.488281 C 58.478641 82.374665 58.741771 82.365437 58.835938 82.392578 C 58.930103 82.419719 59.046083 82.43379 59.285156 82.966797 A 1.0999107 1.0999107 0 0 0 60.007812 83.580078 C 60.298093 83.656667 60.323671 83.711727 60.453125 84.005859 C 60.582579 84.299993 60.673278 84.802011 60.814453 85.367188 C 60.955629 85.932363 61.16988 86.722315 61.986328 87.173828 C 62.802776 87.625343 63.740394 87.442159 64.78125 86.974609 A 1.0999107 1.0999107 0 0 0 65.296875 86.494141 C 65.29045 86.505996 65.34964 86.422381 65.744141 86.359375 C 66.13864 86.296369 66.710075 86.303325 67.273438 86.28125 C 67.555118 86.270212 67.835933 86.255038 68.154297 86.177734 C 68.472661 86.10043 68.928271 85.945708 69.224609 85.441406 C 69.520949 84.937106 69.420698 84.348702 69.253906 83.964844 C 69.218563 83.883504 69.139712 83.808024 69.097656 83.730469 C 69.393171 83.719824 69.942442 83.842017 70.527344 84.001953 C 71.12025 84.164078 71.705109 84.463448 72.611328 84.185547 C 73.064438 84.046596 73.546207 83.590135 73.707031 83.105469 C 73.867856 82.620802 73.838955 82.16768 73.751953 81.654297 A 1.0999107 1.0999107 0 0 0 73.644531 81.333984 C 73.455917 80.968524 73.285813 80.455416 73.056641 79.900391 C 73.720649 80.577611 74.715811 80.758437 75.429688 80.617188 C 76.158966 80.47289 76.726727 80.160737 77.210938 79.953125 C 77.695147 79.745513 78.051718 79.671441 78.179688 79.689453 C 78.307656 79.707466 78.423726 79.696274 78.732422 80.292969 A 1.0999107 1.0999107 0 0 0 79.082031 80.691406 C 80.61586 81.756412 82.426437 81.904891 83.728516 81.037109 C 84.379554 80.60322 84.865111 79.781689 84.820312 78.908203 C 84.785176 78.223086 84.43019 77.581426 83.933594 76.955078 C 83.967224 76.479997 84.068261 76.071255 84.373047 75.6875 C 84.730874 75.23696 85.295991 74.802715 85.980469 74.419922 C 87.217897 73.727889 88.748767 73.232788 90 72.744141 L 90 27.996094 C 89.78162 27.869743 89.55005 27.760751 89.300781 27.695312 C 88.528685 27.303448 87.69636 27.299873 87.039062 27.447266 C 86.325398 27.607297 85.718656 27.871233 85.251953 28.013672 C 84.785251 28.15611 84.55586 28.131388 84.533203 28.121094 C 84.510547 28.1108 84.328459 28.030447 84.144531 27.236328 A 1.0999107 1.0999107 0 0 0 83.503906 26.472656 C 83.247441 26.363307 83.209545 26.290105 83.203125 26.279297 C 83.196705 26.268488 83.181264 26.25999 83.195312 26.123047 C 83.223411 25.84916 83.488609 25.224204 83.796875 24.558594 C 84.105141 23.892982 84.552991 23.162886 84.3125 22.123047 C 84.192254 21.603127 83.791832 21.090811 83.302734 20.816406 C 82.921877 20.602729 82.452635 20.537074 81.96875 20.46875 C 80.864583 19.949575 79.685968 20.292961 78.859375 20.800781 C 78.032782 21.308602 77.360574 21.979398 76.771484 22.494141 C 76.182396 23.008882 75.657519 23.28117 75.603516 23.287109 C 75.576514 23.290079 75.656235 23.324478 75.59375 23.275391 C 75.536973 23.230787 75.374125 23.019235 75.201172 22.675781 C 75.175348 19.951615 73.117648 17.410145 70.255859 17.378906 z M 73.775391 27.144531 C 73.747937 27.136299 73.879448 27.134379 74.126953 27.78125 A 1.0999107 1.0999107 0 0 0 74.748047 28.410156 C 77.44622 29.479747 79.633287 31.631927 79.667969 34.320312 A 1.0999107 1.0999107 0 0 0 79.804688 34.839844 C 80.25186 35.648001 80.249033 36.153841 80.078125 36.75 C 79.907217 37.346159 79.477239 38.022844 78.955078 38.779297 C 78.432918 39.535749 77.824596 40.367531 77.451172 41.400391 C 77.105199 42.357321 77.038386 43.519028 77.453125 44.712891 C 77.475633 48.165615 76.476491 52.412119 78.384766 56.242188 A 1.0999107 1.0999107 0 0 0 78.773438 56.675781 C 80.237635 57.620181 81.973062 58.83477 82.900391 60.083984 C 83.364054 60.708593 83.618903 61.308418 83.652344 61.894531 C 83.684044 62.450139 83.490804 63.063736 82.962891 63.810547 C 81.931499 64.608532 80.443164 65.217035 79.054688 66.177734 C 77.6143 67.174351 76.337764 68.834181 76.488281 71.263672 A 1.0999107 1.0999107 0 0 0 76.5625 71.595703 C 77.163091 73.129488 76.992621 74.352599 76.386719 75.449219 C 75.780816 76.545839 74.667412 77.495002 73.345703 78.121094 A 1.0999107 1.0999107 0 0 0 72.734375 79.201172 C 72.611057 78.96456 72.475599 78.72665 72.310547 78.496094 C 71.944959 77.985416 71.389173 77.488508 70.650391 77.287109 C 69.970945 77.101887 69.217479 77.181205 68.414062 77.455078 C 67.322335 77.533521 66.794796 77.304301 66.412109 76.945312 C 66.018026 76.575634 65.721814 75.92648 65.523438 75.039062 C 65.126682 73.26423 65.251301 70.798248 64.404297 68.777344 A 1.0999107 1.0999107 0 0 0 64.208984 68.46875 C 62.709869 66.798614 60.633976 66.301861 58.675781 66.125 C 56.717587 65.948139 54.767431 66.044686 53.248047 65.789062 A 1.0999107 1.0999107 0 0 0 53.111328 65.773438 C 51.416057 65.703462 49.636225 65.802407 48.294922 65.541016 C 46.953618 65.279623 46.183809 64.885342 45.771484 63.533203 A 1.0999107 1.0999107 0 0 0 43.970703 63.046875 C 43.661942 63.333244 43.574674 63.316177 43.451172 63.300781 C 43.32767 63.285385 43.072834 63.172528 42.759766 62.886719 C 42.231873 62.40479 41.657104 61.485322 41.132812 60.662109 C 42.549706 55.160495 47.449837 51.13977 50.134766 45.339844 C 52.014858 42.158361 54.200177 39.180925 56.65625 36.423828 A 1.0999107 1.0999107 0 0 0 56.912109 35.917969 C 57.206596 34.523041 58.204695 33.449785 59.449219 32.324219 C 60.693743 31.198653 62.176078 30.095894 62.941406 28.376953 A 1.0999107 1.0999107 0 0 0 63.035156 27.966797 C 63.046768 27.960879 63.017041 27.975036 63.083984 27.957031 C 63.346613 27.886397 64.006851 27.869756 64.765625 27.935547 C 65.524399 28.001338 66.39476 28.12223 67.244141 28.177734 C 68.026959 28.228889 68.786377 28.206569 69.541016 27.96875 C 71.08474 28.254925 72.431837 27.634219 73.181641 27.322266 C 73.605879 27.145762 73.802845 27.152763 73.775391 27.144531 z M 62.667969 44.759766 A 1.0999107 1.0999107 0 0 0 62.015625 45.083984 C 59.753136 47.411623 56.633178 50.218578 55.980469 54.039062 A 1.0999107 1.0999107 0 0 0 56.003906 54.515625 C 56.338545 55.733862 57.120481 56.660066 58.068359 57.1875 C 59.016237 57.714934 60.087607 57.891428 61.154297 57.902344 C 63.242242 57.923711 65.358925 57.310732 66.839844 56.728516 C 68.126301 56.766293 69.341434 56.417296 70.201172 55.605469 C 70.43974 55.380195 70.681848 55.093277 70.783203 54.644531 C 70.884558 54.195786 70.715794 53.608344 70.410156 53.273438 C 69.867403 52.678707 69.185305 52.536907 68.289062 52.429688 C 67.198761 51.868651 66.762441 50.825808 66.253906 49.373047 C 65.734742 47.889914 65.177574 46.012528 63.378906 44.912109 A 1.0999107 1.0999107 0 0 0 62.667969 44.759766 z " /><path
         id="path33967"
         style="display:inline;opacity:0.29490617;fill:#000000;fill-opacity:1;stroke:none"
         d="M 55.478516 11.675781 A 0.75429567 0.75429567 0 0 0 54.810547 12.214844 C 54.596155 12.945674 55.080926 13.75012 55.746094 13.851562 C 56.078677 13.902284 56.513293 13.784276 56.757812 13.427734 C 56.990486 13.088469 56.948585 12.685064 56.832031 12.353516 C 56.758598 12.140198 56.590488 11.938563 56.449219 11.865234 C 56.294962 11.785164 56.190574 11.775333 56.113281 11.767578 C 55.979871 11.754193 55.920093 11.762265 55.867188 11.765625 A 0.75429567 0.75429567 0 0 0 55.478516 11.675781 z M 55.986328 11.855469 C 56.071367 11.908932 56.161785 11.986637 56.21875 12.109375 A 0.75429567 0.75429567 0 0 0 55.986328 11.855469 z M 58.78125 14.337891 C 58.24605 14.386594 57.710179 14.574964 57.466797 15.095703 C 57.223415 15.616443 57.438184 16.10981 57.666016 16.425781 C 58.095608 17.02157 58.751604 17.439366 59.580078 17.455078 C 60.070097 17.573618 60.539987 17.592358 60.9375 17.390625 C 61.363601 17.174384 61.636027 16.726267 61.673828 16.304688 C 61.737466 15.594962 61.188601 15.009696 60.457031 14.792969 C 60.325759 14.684598 60.198262 14.546528 60.074219 14.507812 C 59.874348 14.445431 59.717773 14.440112 59.587891 14.433594 C 59.328123 14.420557 59.169428 14.405464 59.126953 14.388672 A 0.75429567 0.75429567 0 0 0 58.78125 14.337891 z M 70.251953 17.724609 A 0.75429567 0.75429567 0 0 0 69.771484 17.890625 C 68.29603 19.079307 66.635559 19.099999 64.677734 18.845703 C 62.775933 18.598684 60.683317 18.077027 58.554688 18.3125 C 56.19007 17.541902 54.104878 18.351109 52.388672 19.554688 C 50.630757 20.787516 49.099962 22.398442 47.609375 23.335938 A 0.75429567 0.75429567 0 0 0 47.349609 23.613281 C 46.497055 25.173676 45.230125 26.513441 44.050781 28.013672 C 42.871438 29.513902 41.779853 31.204521 41.455078 33.429688 A 0.75429567 0.75429567 0 0 0 41.472656 33.732422 C 41.98491 35.663859 41.303097 37.147883 40.369141 38.826172 C 39.485366 40.414287 38.383489 42.126388 38.240234 44.265625 C 37.178571 45.272964 35.659877 46.669374 34.724609 48.316406 C 34.23273 49.182621 33.898018 50.138153 33.980469 51.142578 C 34.054577 52.045373 34.551016 52.923135 35.371094 53.689453 C 35.420896 53.940106 35.432246 54.107574 35.429688 54.136719 C 35.217796 54.163884 34.479006 54.044646 33.689453 53.886719 C 32.880425 53.724896 31.979552 53.507411 31.103516 53.935547 C 30.665497 54.149615 30.291671 54.588402 30.136719 55.117188 C 30.040196 55.446577 30.107643 55.882053 30.128906 56.285156 C 29.36519 56.550544 28.470028 56.572769 27.441406 56.386719 C 26.331382 56.185945 25.150826 55.834644 24.001953 55.642578 C 21.500671 53.152262 18.199832 49.97038 14.001953 50.189453 A 0.75429567 0.75429567 0 0 0 13.994141 50.191406 C 11.183212 50.366879 9.559424 52.25835 9.1953125 54.392578 C 8.831201 56.526806 9.5042612 58.907392 10.898438 60.601562 A 0.75429567 0.75429567 0 0 0 11.064453 60.751953 C 12.684399 61.822742 14.498441 62.403786 16.052734 63.117188 C 17.607029 63.830588 18.864192 64.628876 19.609375 66.072266 A 0.75429567 0.75429567 0 0 0 19.761719 66.275391 C 19.964443 66.466634 20.027404 66.594147 20.044922 66.652344 C 20.06244 66.710541 20.063743 66.72141 20.033203 66.802734 C 19.972124 66.965383 19.668532 67.322739 19.285156 67.730469 C 18.901782 68.138197 18.432597 68.621718 18.244141 69.345703 C 18.055683 70.069688 18.297487 70.946472 18.994141 71.71875 L 18.929688 71.634766 C 20.073574 73.328275 20.301514 74.673967 19.441406 76.183594 A 0.75429567 0.75429567 0 0 0 19.371094 76.761719 C 20.190354 79.66868 22.02689 82.093188 25.177734 83.070312 C 25.331748 83.93224 25.682754 84.67262 26.234375 85.171875 C 26.900284 85.774568 27.718376 86.117291 28.537109 86.40625 C 30.172878 86.983567 31.822143 87.391661 32.662109 88.359375 C 32.940783 89.047573 33.329372 89.593713 33.794922 90 L 42.216797 90 C 42.286506 89.885473 42.344492 89.761959 42.378906 89.628906 A 0.75429567 0.75429567 0 0 0 42.283203 89.033203 C 41.879973 88.402718 41.256125 88.155253 40.666016 87.935547 C 40.39857 87.835973 40.20701 87.783595 39.957031 87.707031 C 40.060509 87.673365 40.091829 87.653427 40.210938 87.617188 A 0.75429567 0.75429567 0 0 0 40.585938 87.361328 C 41.264311 86.495411 43.112965 85.843897 44.855469 85.136719 C 45.72672 84.783129 46.57056 84.401125 47.242188 83.820312 C 47.913814 83.239501 48.39215 82.3583 48.294922 81.341797 A 0.75429567 0.75429567 0 0 0 48.292969 81.316406 C 48.201965 80.622344 48.348898 80.48288 48.332031 80.496094 C 48.315165 80.509307 48.467934 80.448493 48.837891 80.570312 C 49.577803 80.813954 50.735396 81.685062 51.144531 82.167969 A 0.75429567 0.75429567 0 0 0 51.539062 82.412109 C 52.227327 82.582524 52.876064 82.300793 53.279297 81.974609 C 53.682529 81.648426 53.955141 81.280517 54.154297 81.072266 C 54.18379 81.041425 54.184444 81.045964 54.208984 81.023438 C 54.171365 81.029956 54.291089 81.070488 54.560547 81.644531 A 0.75429567 0.75429567 0 0 0 54.666016 81.808594 C 55.150506 82.388362 55.895051 82.572693 56.474609 82.519531 C 57.054168 82.46637 57.548283 82.27485 57.976562 82.15625 C 58.404843 82.03765 58.731665 82.00291 58.931641 82.060547 C 59.131616 82.118184 59.335959 82.234014 59.601562 82.826172 A 0.75429567 0.75429567 0 0 0 60.095703 83.246094 C 60.490114 83.350157 60.614128 83.514093 60.769531 83.867188 C 60.924935 84.220281 61.014922 84.740875 61.150391 85.283203 C 61.285858 85.825532 61.481019 86.499836 62.152344 86.871094 C 62.823668 87.24235 63.639944 87.106829 64.638672 86.658203 A 0.75429567 0.75429567 0 0 0 64.994141 86.330078 C 65.061809 86.205221 65.249017 86.089874 65.689453 86.019531 C 66.12989 85.949188 66.713771 85.956942 67.259766 85.935547 C 67.532762 85.924849 67.796936 85.908651 68.072266 85.841797 C 68.347594 85.774942 68.701887 85.64664 68.925781 85.265625 C 69.149675 84.88461 69.081052 84.43389 68.9375 84.103516 C 68.861773 83.929236 68.698359 83.740978 68.576172 83.564453 C 68.691742 83.448358 68.823862 83.394644 69.060547 83.382812 C 69.438912 83.3639 70.026097 83.50634 70.617188 83.667969 C 71.208277 83.829597 71.777913 84.079899 72.509766 83.855469 C 72.875691 83.743254 73.24707 83.393399 73.378906 82.996094 C 73.510742 82.598787 73.493955 82.193898 73.412109 81.710938 A 0.75429567 0.75429567 0 0 0 73.337891 81.492188 C 72.964843 80.769368 72.699886 79.633991 72.029297 78.697266 C 71.694002 78.228902 71.207454 77.797979 70.558594 77.621094 C 69.947988 77.454637 69.251332 77.524992 68.472656 77.798828 C 67.288007 77.889918 66.638131 77.630983 66.175781 77.197266 C 65.705003 76.755641 65.391383 76.036013 65.185547 75.115234 C 64.773876 73.273678 64.881978 70.811417 64.085938 68.912109 A 0.75429567 0.75429567 0 0 0 63.951172 68.699219 C 62.534797 67.121263 60.567834 66.642459 58.644531 66.46875 C 56.721228 66.295041 54.767483 66.394068 53.191406 66.128906 A 0.75429567 0.75429567 0 0 0 53.097656 66.119141 C 51.429818 66.050298 49.637982 66.155155 48.230469 65.880859 C 46.822955 65.606564 45.889262 65.107873 45.439453 63.632812 A 0.75429567 0.75429567 0 0 0 44.205078 63.300781 C 43.842159 63.63738 43.63497 63.672801 43.408203 63.644531 C 43.181436 63.616262 42.870958 63.456275 42.527344 63.142578 C 41.911799 62.58063 41.289988 61.579987 40.744141 60.714844 C 42.145949 54.992499 47.168018 50.936508 49.828125 45.181641 C 51.722185 41.973873 53.923395 38.971751 56.398438 36.193359 A 0.75429567 0.75429567 0 0 0 56.574219 35.847656 C 56.893363 34.335926 57.960981 33.202184 59.216797 32.066406 C 60.472612 30.930628 61.91145 29.843362 62.626953 28.236328 A 0.75429567 0.75429567 0 0 0 62.691406 27.925781 C 62.690446 27.776547 62.710578 27.770432 62.730469 27.748047 C 62.75036 27.725661 62.820441 27.669764 62.994141 27.623047 C 63.341539 27.529613 64.025795 27.524939 64.796875 27.591797 C 65.567955 27.658655 66.434015 27.777688 67.265625 27.832031 C 67.969252 27.878011 68.622491 27.819481 69.251953 27.658203 C 70.828976 28.150085 72.191759 27.360489 73.048828 27.003906 C 73.492829 26.819181 73.768145 26.782413 73.875 26.814453 C 73.981855 26.846493 74.182716 26.96168 74.449219 27.658203 A 0.75429567 0.75429567 0 0 0 74.876953 28.089844 C 77.664881 29.195014 79.976662 31.447608 80.013672 34.316406 A 0.75429567 0.75429567 0 0 0 80.107422 34.671875 C 80.592596 35.54871 80.601836 36.175134 80.410156 36.84375 C 80.218477 37.512366 79.764073 38.217679 79.240234 38.976562 C 78.716397 39.735447 78.126794 40.547576 77.775391 41.519531 C 77.451583 42.415155 77.417754 43.475706 77.800781 44.587891 C 77.848221 48.12338 76.835256 52.358519 78.693359 56.087891 A 0.75429567 0.75429567 0 0 0 78.960938 56.386719 C 80.430299 57.33445 82.195859 58.554256 83.177734 59.876953 C 83.668673 60.538301 83.959709 61.203055 83.998047 61.875 C 84.035005 62.522763 83.836664 63.220727 83.25 64.037109 C 82.159823 64.903662 80.613628 65.519385 79.25 66.462891 C 77.859815 67.424772 76.690404 68.924657 76.833984 71.242188 A 0.75429567 0.75429567 0 0 0 76.882812 71.470703 C 77.517045 73.090399 77.339652 74.440395 76.689453 75.617188 C 76.039255 76.793979 74.868629 77.7825 73.494141 78.433594 A 0.75429567 0.75429567 0 0 0 73.263672 79.628906 C 73.850462 80.260715 74.703086 80.407586 75.361328 80.277344 C 76.019571 80.147102 76.577816 79.848442 77.076172 79.634766 C 77.574527 79.421088 77.984282 79.313279 78.228516 79.347656 C 78.472748 79.382034 78.698707 79.47492 79.039062 80.132812 A 0.75429567 0.75429567 0 0 0 79.279297 80.40625 C 80.71134 81.400582 82.397246 81.507719 83.537109 80.748047 C 84.107042 80.368211 84.513347 79.681089 84.474609 78.925781 C 84.442009 78.29014 84.094089 77.661154 83.564453 77.033203 C 83.583739 76.432898 83.738511 75.929776 84.101562 75.472656 C 84.500079 74.970886 85.103718 74.513573 85.8125 74.117188 C 87.136235 73.376888 88.754088 72.868428 90 72.375 L 90 28.382812 C 89.765969 28.218816 89.495708 28.087539 89.195312 28.013672 C 88.502526 27.639999 87.747779 27.641361 87.115234 27.783203 C 86.445479 27.93339 85.844121 28.19342 85.351562 28.34375 C 84.859005 28.49408 84.54191 28.504284 84.390625 28.435547 C 84.23934 28.36681 84.002846 28.161582 83.806641 27.314453 A 0.75429567 0.75429567 0 0 0 83.367188 26.791016 C 83.063055 26.661343 82.957333 26.543026 82.90625 26.457031 C 82.855167 26.371037 82.832261 26.276038 82.851562 26.087891 C 82.890167 25.711595 83.179604 25.070175 83.484375 24.412109 C 83.789146 23.754045 84.175892 23.063035 83.976562 22.201172 C 83.876899 21.77024 83.555211 21.35417 83.132812 21.117188 C 82.739407 20.896469 82.263233 20.787891 81.681641 20.730469 C 80.745443 20.35843 79.779882 20.640579 79.039062 21.095703 C 78.261684 21.573289 77.597117 22.230443 76.998047 22.753906 C 76.398976 23.277371 75.852822 23.607521 75.640625 23.630859 C 75.534526 23.642529 75.505469 23.644767 75.380859 23.546875 C 75.262711 23.454058 75.07188 23.206213 74.875 22.800781 C 74.914509 20.216256 72.943249 17.753987 70.251953 17.724609 z M 62.710938 45.101562 A 0.75429567 0.75429567 0 0 0 62.263672 45.324219 C 59.992478 47.660811 56.945409 50.438804 56.320312 54.097656 A 0.75429567 0.75429567 0 0 0 56.337891 54.423828 C 56.650312 55.56119 57.359237 56.398672 58.236328 56.886719 C 59.113419 57.374764 60.129271 57.548064 61.158203 57.558594 C 63.190689 57.579393 65.309307 56.96672 66.759766 56.392578 C 67.978558 56.443266 69.198234 56.077405 69.964844 55.353516 C 70.172323 55.157599 70.366287 54.918249 70.445312 54.568359 C 70.524339 54.218471 70.398711 53.775633 70.154297 53.507812 C 69.705735 53.016295 69.066504 52.86568 68.158203 52.757812 C 66.919544 52.137081 66.442956 50.960148 65.927734 49.488281 C 65.406374 47.998876 64.871914 46.230381 63.199219 45.207031 A 0.75429567 0.75429567 0 0 0 62.710938 45.101562 z " /><path
         id="path33969"
         style="display:inline;opacity:0.30563;fill:#000000;fill-opacity:1;stroke:none"
         d="M 55.503906,12.017578 A 0.41107113,0.41107113 0 0 0 55.140625,12.3125 c -0.171564,0.584834 0.196377,1.130739 0.658203,1.201172 0.230914,0.03522 0.515101,-0.045 0.675781,-0.279297 0.152474,-0.222325 0.141424,-0.503634 0.04883,-0.767578 -0.03742,-0.130664 -0.144491,-0.251232 -0.232422,-0.296875 -0.09149,-0.04749 -0.157294,-0.05516 -0.210938,-0.06055 -0.107288,-0.01076 -0.180161,-0.0021 -0.240234,0 -0.06007,0.0021 -0.10424,-0.0017 -0.0957,0 0.0085,0.0017 0.116188,0.04138 0.164062,0.144531 A 0.41107113,0.41107113 0 0 0 55.50391,12.017575 Z m 3.308594,2.66211 c -0.477314,0.04343 -0.867539,0.203866 -1.035156,0.5625 -0.167618,0.358632 -0.02339,0.719737 0.166015,0.982421 0.355935,0.493635 0.961444,0.884038 1.63086,0.904297 0.474575,0.131915 0.884385,0.119809 1.208984,-0.04492 0.324599,-0.164729 0.520244,-0.489801 0.548828,-0.808593 0.05406,-0.602924 -0.424298,-1.196544 -1.144531,-1.28125 -0.07527,-0.05223 -0.140965,-0.135146 -0.214844,-0.158203 -0.148513,-0.04635 -0.279433,-0.05448 -0.40039,-0.06055 C 59.33035,14.763249 59.126859,14.757185 59,14.707031 a 0.41107113,0.41107113 0 0 0 -0.1875,-0.02734 z m 11.435547,3.388671 a 0.41107113,0.41107113 0 0 0 -0.261719,0.08984 c -1.574742,1.268672 -3.364461,1.285442 -5.351562,1.027344 -1.964985,-0.255226 -4.070882,-0.798412 -6.150391,-0.541016 -2.261634,-0.753999 -4.21311,0.0095 -5.898437,1.191407 -1.716845,1.204024 -3.24599,2.818053 -4.792969,3.791015 a 0.41107113,0.41107113 0 0 0 -0.142578,0.150391 c -0.880577,1.611682 -2.164269,2.966206 -3.330079,4.449218 -1.165808,1.483014 -2.212795,3.112194 -2.52539,5.253907 a 0.41107113,0.41107113 0 0 0 0.0098,0.164062 c 0.543849,2.050573 -0.192288,3.654053 -1.134766,5.347657 -0.913694,1.641878 -2.015459,3.338966 -2.107422,5.439453 -1.066329,1.01481 -2.622806,2.441134 -3.539062,4.054687 -0.470914,0.82929 -0.775801,1.717828 -0.701172,2.626953 0.0701,0.853976 0.528612,1.689053 1.36914,2.429688 0.10413,0.412758 0.106058,0.693716 0.07031,0.789062 -0.03831,0.1022 -0.05698,0.116683 -0.22461,0.148438 -0.335252,0.06351 -1.118553,-0.0983 -1.916015,-0.257813 -0.797462,-0.159509 -1.647312,-0.330332 -2.367188,0.02148 -0.359937,0.175907 -0.65463,0.516657 -0.787109,0.96875 -0.102822,0.350885 -0.0587,0.833963 -0.0039,1.333984 -0.891719,0.383173 -1.941945,0.381993 -3.082032,0.175781 -1.177754,-0.213025 -2.40079,-0.585493 -3.548828,-0.765625 -2.503925,-2.493709 -5.767191,-5.634939 -9.8125,-5.423828 a 0.41107113,0.41107113 0 0 0 -0.0039,0 c -2.679083,0.167242 -4.1381888,1.898305 -4.4824219,3.916016 -0.3442329,2.01771 0.3057771,4.325336 1.6308589,5.935547 a 0.41107113,0.41107113 0 0 0 0.08984,0.08203 c 1.567174,1.035906 3.36354,1.612774 4.94336,2.337891 1.579818,0.725115 2.922422,1.572655 3.716796,3.111328 a 0.41107113,0.41107113 0 0 0 0.08398,0.109375 c 0.232404,0.219242 0.335075,0.396663 0.375,0.529297 0.03993,0.132632 0.03168,0.232766 -0.01953,0.36914 -0.102426,0.272749 -0.440094,0.638721 -0.81836,1.041016 -0.378264,0.402294 -0.799536,0.854253 -0.958984,1.466797 -0.159448,0.612542 0.02553,1.33797 0.673828,2.05664 l -0.03516,-0.04492 c 1.186188,1.756136 1.449187,3.288746 0.52539,4.910157 a 0.41107113,0.41107113 0 0 0 -0.03906,0.314453 c 0.816665,2.897756 2.599329,5.256274 5.763672,6.152343 0.107568,0.888719 0.454523,1.603963 1,2.097657 0.607645,0.54996 1.382302,0.880571 2.185547,1.164062 1.604466,0.566271 3.328662,0.965083 4.271484,2.050781 0.329023,0.877953 0.81424,1.492667 1.423828,1.867188 h 7.447266 c 0.113125,-0.129583 0.207515,-0.277675 0.253906,-0.457031 a 0.41107113,0.41107113 0 0 0 -0.05273,-0.324219 c -0.320903,-0.501757 -0.883156,-0.752137 -1.449219,-0.962891 -0.566064,-0.210752 -1.163008,-0.362374 -1.556641,-0.5 -0.04061,-0.0142 -0.04037,-0.02093 -0.07617,-0.03516 0.02302,-0.01187 0.0068,-0.0056 0.0332,-0.01758 0.24675,-0.111987 0.631066,-0.251294 1.166016,-0.414063 a 0.41107113,0.41107113 0 0 0 0.205078,-0.138671 c 0.789532,-1.007807 2.689421,-1.633686 4.410156,-2.332032 0.860369,-0.349171 1.674747,-0.724872 2.291016,-1.257812 0.616271,-0.532941 1.022343,-1.278112 0.935547,-2.185547 a 0.41107113,0.41107113 0 0 0 0,-0.002 0.41107113,0.41107113 0 0 0 0,-0.0059 0.41107113,0.41107113 0 0 0 0,-0.0059 c -0.09827,-0.749475 0.0459,-1.039136 0.167969,-1.134766 0.122066,-0.09563 0.403122,-0.121082 0.824218,0.01758 0.842195,0.27732 1.996375,1.152845 2.460938,1.701171 a 0.41107113,0.41107113 0 0 0 0.214844,0.132813 c 0.57192,0.141608 1.085868,-0.08191 1.443359,-0.371094 0.357491,-0.289181 0.621642,-0.642836 0.841797,-0.873047 0.110077,-0.115105 0.207236,-0.194298 0.265625,-0.226562 0.05839,-0.03226 0.05228,-0.02594 0.06836,-0.02148 0.03217,0.0089 0.300328,0.207956 0.63086,0.912109 a 0.41107113,0.41107113 0 0 0 0.05859,0.08984 c 0.4136,0.494937 1.000576,0.636908 1.513671,0.589843 0.513097,-0.04707 0.995251,-0.229965 1.441407,-0.353515 0.446154,-0.12355 0.835572,-0.181673 1.140625,-0.09375 0.305052,0.08792 0.59672,0.304179 0.888671,0.955078 a 0.41107113,0.41107113 0 0 0 0.269532,0.228515 c 0.497819,0.131348 0.719218,0.402807 0.90039,0.814454 0.181174,0.411646 0.268637,0.953016 0.398438,1.472656 0.129801,0.519639 0.308734,1.077586 0.835937,1.36914 0.527205,0.291556 1.222797,0.205224 2.179688,-0.224609 a 0.41107113,0.41107113 0 0 0 0.193359,-0.179687 c 0.141251,-0.260624 0.459257,-0.408701 0.945313,-0.486328 0.486054,-0.07763 1.080629,-0.06522 1.609375,-0.08594 0.264372,-0.01036 0.513501,-0.02751 0.746094,-0.08398 0.232591,-0.05648 0.486723,-0.159387 0.638671,-0.417969 0.151949,-0.258582 0.112661,-0.574301 -0.0078,-0.851563 -0.08585,-0.197587 -0.272907,-0.433495 -0.451172,-0.667968 0.217178,-0.369028 0.474723,-0.51339 0.871094,-0.533204 0.463873,-0.02319 1.076731,0.137694 1.666015,0.298829 0.589286,0.161133 1.140529,0.360781 1.699219,0.189453 0.279346,-0.08566 0.541483,-0.328122 0.644531,-0.638672 0.103049,-0.31055 0.09626,-0.666392 0.01953,-1.119141 a 0.41107113,0.41107113 0 0 0 -0.03906,-0.121093 C 72.631412,80.869923 72.360424,79.749168 71.75,78.896484 c -0.305212,-0.42634 -0.72169,-0.790818 -1.28125,-0.943359 -0.53321,-0.145358 -1.170587,-0.08109 -1.916016,0.185547 -1.286884,0.10941 -2.065721,-0.177636 -2.611328,-0.689453 -0.546943,-0.513073 -0.878555,-1.305856 -1.091797,-2.259766 -0.426483,-1.907819 -0.334648,-4.36598 -1.080078,-6.144531 a 0.41107113,0.41107113 0 0 0 -0.07227,-0.117188 c -1.334205,-1.486411 -3.195332,-1.946607 -5.083985,-2.117187 -1.888653,-0.17058 -3.846141,-0.06912 -5.478515,-0.34375 a 0.41107113,0.41107113 0 0 0 -0.05078,-0.0039 c -1.640595,-0.06772 -3.446655,0.04102 -4.919922,-0.246094 -1.473265,-0.28711 -2.565701,-0.885292 -3.052734,-2.482422 A 0.41107113,0.41107113 0 0 0 44.43945,63.55274 c -0.416701,0.386481 -0.742948,0.472695 -1.072265,0.431641 -0.329319,-0.04105 -0.696363,-0.2465 -1.070313,-0.587891 -0.708416,-0.646733 -1.386413,-1.728802 -1.949219,-2.625 1.384547,-5.953037 6.541641,-10.040109 9.175782,-15.751953 1.907258,-3.23197 4.126565,-6.256614 6.61914,-9.054687 a 0.41107113,0.41107113 0 0 0 0.0957,-0.189453 c 0.343634,-1.627727 1.481019,-2.816972 2.748047,-3.962891 1.267029,-1.145919 2.66015,-2.218943 3.326172,-3.714844 a 0.41107113,0.41107113 0 0 0 0.03516,-0.169922 c -0.0014,-0.214497 0.04828,-0.319663 0.126953,-0.408203 0.07867,-0.08854 0.213896,-0.170478 0.429688,-0.228515 0.431582,-0.116075 1.138573,-0.108934 1.921875,-0.04102 0.783302,0.06792 1.648926,0.187044 2.46289,0.240234 0.760059,0.04967 1.462786,0.03695 2.066407,-0.15625 1.422842,0.44301 2.667619,-0.276123 3.5625,-0.648437 0.463625,-0.192891 0.814452,-0.271253 1.054687,-0.199219 0.240235,0.07203 0.511507,0.302996 0.796875,1.048828 a 0.41107113,0.41107113 0 0 0 0.232422,0.236328 c 2.877061,1.140504 5.316148,3.493054 5.355469,6.541016 a 0.41107113,0.41107113 0 0 0 0.05078,0.193359 c 0.522914,0.945039 0.544339,1.693023 0.332031,2.433594 -0.212307,0.740572 -0.693245,1.471125 -1.21875,2.232422 -0.525504,0.761297 -1.092337,1.551419 -1.421875,2.462891 -0.314396,0.869595 -0.359467,1.868525 0.04492,2.949218 0.04829,3.597264 -0.929534,7.76499 0.857422,11.351563 a 0.41107113,0.41107113 0 0 0 0.144531,0.162109 c 1.474492,0.95104 3.270595,2.180503 4.306641,3.576172 0.518022,0.697835 0.843518,1.424457 0.886719,2.181641 0.04248,0.744593 -0.18757,1.540901 -0.839844,2.429687 -1.150367,0.925111 -2.730175,1.542543 -4.054688,2.458985 -1.340329,0.927386 -2.406223,2.270218 -2.269531,4.476562 a 0.41107113,0.41107113 0 0 0 0.02734,0.125 c 0.66764,1.705012 0.481299,3.18109 -0.212891,4.4375 -0.694188,1.25641 -1.922704,2.285014 -3.349609,2.960938 a 0.41107113,0.41107113 0 0 0 -0.125,0.65039 c 0.51086,0.550054 1.191598,0.663159 1.779297,0.546875 0.587698,-0.116283 1.132128,-0.401393 1.644531,-0.621094 0.512404,-0.219699 0.976244,-0.363128 1.335938,-0.3125 0.359692,0.05063 0.69656,0.250083 1.068359,0.96875 A 0.41107113,0.41107113 0 0 0 79.474609,80.125 c 1.330964,0.924147 2.894275,0.990201 3.873047,0.337891 0.489387,-0.326156 0.817875,-0.881583 0.785156,-1.519532 -0.02996,-0.584085 -0.364424,-1.206119 -0.949218,-1.849609 0.0038,-0.717478 0.232723,-1.310051 0.65039,-1.835938 0.438924,-0.552647 1.077629,-1.029567 1.810547,-1.439453 C 87.056851,73.02852 88.769543,72.504087 90,72.007812 V 28.8125 c -0.232034,-0.228228 -0.540598,-0.404974 -0.925781,-0.488281 -0.60886,-0.34666 -1.279939,-0.340705 -1.884766,-0.205078 -0.626149,0.140407 -1.218093,0.394567 -1.736328,0.552734 -0.518235,0.158167 -0.926053,0.202948 -1.205078,0.07617 -0.279025,-0.126776 -0.566992,-0.455696 -0.775391,-1.355469 a 0.41107113,0.41107113 0 0 0 -0.238281,-0.287109 c -0.351469,-0.149855 -0.527611,-0.313949 -0.623047,-0.47461 -0.09544,-0.160659 -0.126081,-0.339126 -0.101562,-0.578125 0.04904,-0.477996 0.360808,-1.134585 0.662109,-1.785156 0.301301,-0.65057 0.629156,-1.305115 0.470703,-1.990234 -0.07923,-0.34256 -0.321574,-0.659554 -0.677734,-0.859375 -0.339597,-0.190529 -0.793184,-0.292027 -1.365235,-0.345703 -0.829767,-0.352759 -1.673888,-0.117925 -2.380859,0.316406 -0.728504,0.447558 -1.385157,1.092874 -1.994141,1.625 -0.608982,0.532124 -1.177578,0.918367 -1.546875,0.958984 -0.184647,0.02031 -0.323461,-0.0099 -0.509765,-0.15625 -0.18203,-0.143001 -0.399387,-0.430718 -0.617188,-0.890625 0.108403,-2.442768 -1.781695,-4.829902 -4.302734,-4.857422 z m -7.228516,27.429688 a 0.41107113,0.41107113 0 0 0 -0.509765,0.06445 c -2.279838,2.345486 -5.251937,5.095412 -5.84961,8.59375 a 0.41107113,0.41107113 0 0 0 0.0078,0.177734 c 0.29036,1.057047 0.927582,1.803023 1.734375,2.251954 0.806793,0.448929 1.766376,0.61876 2.757812,0.628906 1.970067,0.02016 4.084928,-0.588056 5.503906,-1.152344 1.14691,0.07268 2.389942,-0.322062 3.064454,-0.958984 0.176604,-0.166764 0.325959,-0.35766 0.382812,-0.609375 0.05685,-0.251717 -0.02732,-0.554661 -0.210937,-0.75586 -0.350443,-0.384001 -0.945507,-0.549153 -1.88086,-0.65625 -1.381082,-0.680758 -1.895845,-1.994461 -2.416015,-3.480469 -0.523542,-1.495634 -1.036389,-3.156701 -2.583985,-4.103515 z" /><path
         id="path130566"
         style="display:inline;fill:#c21a1a;fill-opacity:1;stroke:none"
         d="m 55.535156,12.427734 c -0.240538,0.819958 0.908084,0.941744 0.597608,0.144521 -0.03237,-0.136783 -0.509207,0.04595 -0.597608,-0.144521 z m 3.314453,2.66211 c -1.631934,0.148505 -0.171657,1.687731 0.833978,1.642534 1.636305,0.454832 1.542051,-1.320655 0.375005,-1.355442 -0.197841,-0.305452 -0.753133,-0.106871 -1.208983,-0.287092 z m 11.394532,3.388672 c -3.387317,2.728949 -7.789051,0.0504 -11.775182,0.578924 -4.343781,-1.551184 -7.228652,2.885865 -10.457693,4.916749 -1.82828,3.346222 -5.214879,5.480402 -5.810892,9.563932 1.163388,4.386523 -3.202595,6.992281 -3.252316,11.089889 -2.145115,2.048827 -6.413495,5.864725 -2.866027,8.74699 1.142162,4.083707 -6.180126,-1.907796 -5.214192,3.485067 -2.111747,1.095125 -4.968178,-0.203692 -7.239432,-0.527848 -2.509739,-2.501465 -5.729059,-5.589654 -9.588225,-5.388257 -5.0423576,0.31477 -5.0434209,6.160342 -2.558755,9.179651 3.007943,1.988259 7.090743,2.296682 8.797326,5.602266 2.143596,2.022207 -3.084864,2.870111 -0.72335,5.48798 1.236852,1.831141 1.542328,3.587494 0.542253,5.342785 0.81429,2.889326 2.519756,5.167659 5.710025,5.965591 0.169867,3.797847 5.297946,2.882633 7.428472,5.345086 0.749572,2.205138 2.29027,2.375479 4.526005,2.132682 1.170326,-0.321567 3.565485,0.678133 3.885818,-0.560347 -0.889196,-1.390333 -6.011453,-1.218399 -1.655501,-2.543773 1.845329,-2.355489 7.850563,-2.374879 7.553358,-5.482111 -0.427884,-3.263374 3.112347,-0.988239 4.17424,0.265122 1.730324,0.42843 2.132394,-3.319451 3.524068,-0.354672 1.314792,1.573354 3.751483,-1.69164 5.04552,1.193376 2.486682,0.656101 0.413054,5.083017 4.040194,3.453717 0.917509,-1.692914 5.701429,0.39027 3.345926,-2.402953 1.155131,-2.697128 5.556169,1.602548 4.991418,-1.729963 -0.872435,-1.690436 -1.105802,-4.418196 -4.070973,-3.289677 -5.486731,0.473899 -3.835423,-6.077681 -5.205051,-9.345535 -2.471587,-2.753548 -6.925981,-1.757298 -10.325589,-2.329253 -3.215939,-0.132743 -7.284379,0.467195 -8.347611,-3.019472 -1.924468,1.784896 -3.668258,-1.188736 -4.819912,-3.019766 1.372165,-6.231416 6.677318,-10.366912 9.271918,-16.024682 1.921139,-3.255491 4.15707,-6.301146 6.66691,-9.1186 0.745926,-3.533306 4.887642,-5.035445 6.101166,-7.761044 -0.01506,-2.341311 5.341271,-0.227189 7.409599,-1.008492 2.587337,0.956746 4.57478,-2.752762 5.806641,0.466797 2.983816,1.182823 5.57126,3.655999 5.613349,6.918544 2.272447,4.106897 -3.954521,6.063381 -2.212741,10.268527 0.04965,3.671739 -0.887034,7.759562 0.815005,11.175698 2.961272,1.910006 7.330411,4.952287 4.43674,8.82226 -2.453322,2.007242 -6.478475,2.475927 -6.22159,6.622289 1.415305,3.61439 -0.788847,6.508491 -3.768212,7.919812 1.679686,1.808549 4.253949,-2.494068 5.891771,0.671761 2.419807,1.68018 5.658858,0.06988 3.050004,-2.580631 C 82.659986,73.73946 87.606231,72.560713 90,71.567679 V 33.652344 c -0.69819,-1.414673 1,-4.557766 -1.076172,-4.957032 -2.027289,-1.251415 -4.959553,2.64036 -5.851562,-1.210937 -3.265301,-1.392219 3.06198,-5.6392 -1.571557,-6.020503 -2.819175,-1.325566 -5.417851,5.741279 -7.336875,1.613424 0.201167,-2.269135 -1.602346,-4.573484 -3.919693,-4.59878 z m -7.439453,27.371093 c -2.290191,2.356139 -5.176108,5.068696 -5.740937,8.374792 1.055752,3.843423 6.721123,2.552098 9.48185,1.448225 2.074747,0.219997 5.223818,-1.796744 1.31768,-2.203876 -3.112423,-1.503206 -2.263058,-5.908842 -5.058593,-7.619141 z"
         sodipodi:nodetypes="cccccccccccccccccccccccccccccccccccccccccccccccccccccccccccccc" /></g><path
       d="M 12,6 C 8.676,6 6,8.676 6,12 v 2 68 2 c 0,0.334721 0.04135,0.6507 0.09375,0.96875 0.0487,0.295596 0.09704,0.596915 0.1875,0.875 0.00988,0.03038 0.020892,0.0636 0.03125,0.09375 0.098865,0.287771 0.2348802,0.547452 0.375,0.8125 0.1445918,0.273507 0.3156161,0.535615 0.5,0.78125 0.1843839,0.245635 0.3737765,0.473472 0.59375,0.6875 0.439947,0.428056 0.94291,0.814526 1.5,1.09375 0.278545,0.139612 0.5734731,0.246947 0.875,0.34375 -0.2562018,-0.100222 -0.4867109,-0.236272 -0.71875,-0.375 -0.00741,-0.0044 -0.023866,0.0045 -0.03125,0 -0.031933,-0.0193 -0.062293,-0.04251 -0.09375,-0.0625 -0.120395,-0.0767 -0.2310226,-0.163513 -0.34375,-0.25 -0.1061728,-0.0808 -0.2132809,-0.161112 -0.3125,-0.25 C 8.4783201,88.557317 8.3087904,88.373362 8.15625,88.1875 8.0486711,88.057245 7.9378561,87.922215 7.84375,87.78125 7.818661,87.74287 7.805304,87.69538 7.78125,87.65625 7.716487,87.553218 7.6510225,87.451733 7.59375,87.34375 7.4927417,87.149044 7.3880752,86.928049 7.3125,86.71875 7.30454,86.69694 7.288911,86.6782 7.28125,86.65625 7.2494249,86.5643 7.2454455,86.469419 7.21875,86.375 7.1884177,86.268382 7.1483606,86.171969 7.125,86.0625 7.0521214,85.720988 7,85.364295 7,85 V 83 15 13 C 7,10.218152 9.2181517,8 12,8 h 2 68 2 c 2.781848,0 5,2.218152 5,5 v 2 68 2 c 0,0.364295 -0.05212,0.720988 -0.125,1.0625 -0.04415,0.206893 -0.08838,0.397658 -0.15625,0.59375 -0.0077,0.02195 -0.0233,0.04069 -0.03125,0.0625 -0.06274,0.173739 -0.138383,0.367449 -0.21875,0.53125 -0.04158,0.0828 -0.07904,0.169954 -0.125,0.25 -0.0546,0.09721 -0.126774,0.18835 -0.1875,0.28125 -0.09411,0.140965 -0.204921,0.275995 -0.3125,0.40625 -0.143174,0.17445 -0.303141,0.346998 -0.46875,0.5 -0.01117,0.0102 -0.01998,0.02115 -0.03125,0.03125 -0.138386,0.125556 -0.285091,0.234436 -0.4375,0.34375 -0.102571,0.07315 -0.204318,0.153364 -0.3125,0.21875 -0.0074,0.0045 -0.02384,-0.0044 -0.03125,0 -0.232039,0.138728 -0.462548,0.274778 -0.71875,0.375 0.301527,-0.0968 0.596455,-0.204138 0.875,-0.34375 0.55709,-0.279224 1.060053,-0.665694 1.5,-1.09375 0.219973,-0.214028 0.409366,-0.441865 0.59375,-0.6875 0.184384,-0.245635 0.355408,-0.507743 0.5,-0.78125 0.14012,-0.265048 0.276135,-0.524729 0.375,-0.8125 0.01041,-0.03078 0.02133,-0.06274 0.03125,-0.09375 0.09046,-0.278085 0.1388,-0.579404 0.1875,-0.875 C 89.95865,84.6507 90,84.334721 90,84 V 82 14 12 C 90,8.676 87.324,6 84,6 Z"
       inkscape:connector-curvature="0"
       id="rect3728"
       style="display:inline;opacity:0.5;fill:url(#linearGradient3188);fill-opacity:1;fill-rule:nonzero;stroke:none" /><path
       d="M 12,90 C 8.676,90 6,87.324 6,84 V 82 14 12 c 0,-0.334721 0.04135,-0.6507 0.09375,-0.96875 0.0487,-0.295596 0.09704,-0.596915 0.1875,-0.875 C 6.29113,10.12587 6.302142,10.09265 6.3125,10.0625 6.411365,9.774729 6.5473802,9.515048 6.6875,9.25 6.8320918,8.976493 7.0031161,8.714385 7.1875,8.46875 7.3718839,8.223115 7.5612765,7.995278 7.78125,7.78125 8.221197,7.353194 8.72416,6.966724 9.28125,6.6875 9.559795,6.547888 9.8547231,6.440553 10.15625,6.34375 9.9000482,6.443972 9.6695391,6.580022 9.4375,6.71875 c -0.00741,0.0044 -0.023866,-0.0045 -0.03125,0 -0.031933,0.0193 -0.062293,0.04251 -0.09375,0.0625 -0.120395,0.0767 -0.2310226,0.163513 -0.34375,0.25 -0.1061728,0.0808 -0.2132809,0.161112 -0.3125,0.25 C 8.4783201,7.442683 8.3087904,7.626638 8.15625,7.8125 8.0486711,7.942755 7.9378561,8.077785 7.84375,8.21875 7.818661,8.25713 7.805304,8.30462 7.78125,8.34375 7.716487,8.446782 7.6510225,8.548267 7.59375,8.65625 7.4927417,8.850956 7.3880752,9.071951 7.3125,9.28125 7.30454,9.30306 7.288911,9.3218 7.28125,9.34375 7.2494249,9.4357 7.2454455,9.530581 7.21875,9.625 7.1884177,9.731618 7.1483606,9.828031 7.125,9.9375 7.0521214,10.279012 7,10.635705 7,11 v 2 68 2 c 0,2.781848 2.2181517,5 5,5 h 2 68 2 c 2.781848,0 5,-2.218152 5,-5 V 81 13 11 C 89,10.635705 88.94788,10.279012 88.875,9.9375 88.83085,9.730607 88.78662,9.539842 88.71875,9.34375 88.71105,9.3218 88.69545,9.30306 88.6875,9.28125 88.62476,9.107511 88.549117,8.913801 88.46875,8.75 88.42717,8.6672 88.38971,8.580046 88.34375,8.5 88.28915,8.40279 88.216976,8.31165 88.15625,8.21875 88.06214,8.077785 87.951329,7.942755 87.84375,7.8125 87.700576,7.63805 87.540609,7.465502 87.375,7.3125 87.36383,7.3023 87.35502,7.29135 87.34375,7.28125 87.205364,7.155694 87.058659,7.046814 86.90625,6.9375 86.803679,6.86435 86.701932,6.784136 86.59375,6.71875 c -0.0074,-0.0045 -0.02384,0.0044 -0.03125,0 -0.232039,-0.138728 -0.462548,-0.274778 -0.71875,-0.375 0.301527,0.0968 0.596455,0.204138 0.875,0.34375 0.55709,0.279224 1.060053,0.665694 1.5,1.09375 0.219973,0.214028 0.409366,0.441865 0.59375,0.6875 0.184384,0.245635 0.355408,0.507743 0.5,0.78125 0.14012,0.265048 0.276135,0.524729 0.375,0.8125 0.01041,0.03078 0.02133,0.06274 0.03125,0.09375 0.09046,0.278085 0.1388,0.579404 0.1875,0.875 C 89.95865,11.3493 90,11.665279 90,12 v 2 68 2 c 0,3.324 -2.676,6 -6,6 z"
       inkscape:connector-curvature="0"
       id="path3615"
       style="display:inline;opacity:0.2;fill:url(#radialGradient3619);fill-opacity:1;fill-rule:nonzero;stroke:none" /></g><g
     id="layer5"
     style="display:inline"><rect
       width="66"
       height="66"
       rx="12"
       ry="12"
       x="15"
       y="15"
       clip-path="url(#clipPath3613)"
       id="rect3171"
       style="display:inline;opacity:0.1;fill:url(#linearGradient3613);fill-opacity:1;fill-rule:nonzero;stroke:#ffffff;stroke-width:0.5;stroke-linecap:round;stroke-linejoin:miter;stroke-miterlimit:4;stroke-dasharray:none;stroke-dashoffset:0;stroke-opacity:1;filter:url(#filter3794)" /></g><path
     d="m 11.999998,6 c -3.324,0 -6,2.6760001 -6,6 v 35.5625 c -0.0015,0.146522 0,0.290623 0,0.4375 0,0.05108 -1.8e-4,0.105219 0,0.15625 17.493742,-4.749431 51.220412,-5.502447 74.054932,2.443906 3.55025,1.235477 7.40321,2.977334 9.35132,4.368594 0.10535,-0.629464 0.20428,-1.268468 0.28125,-1.90625 L 90,53.28125 V 48 12 C 90,8.6760001 87.324,6 84,6 H 47.999998 Z"
     inkscape:connector-curvature="0"
     id="path3132"
     style="display:inline;opacity:0.3;fill:url(#linearGradient4006);fill-opacity:1;fill-rule:evenodd;stroke:none"
     sodipodi:nodetypes="sscscsccccsscs" /></svg>
