<?xml version="1.0" encoding="UTF-8" standalone="no"?>
<!-- Created with Inkscape (http://www.inkscape.org/) -->

<svg
   version="1.0"
   width="96"
   height="96"
   id="svg2408"
   sodipodi:docname="steam_icon_294100.svg"
   inkscape:version="1.2.2 (b0a8486541, 2022-12-01)"
   xmlns:inkscape="http://www.inkscape.org/namespaces/inkscape"
   xmlns:sodipodi="http://sodipodi.sourceforge.net/DTD/sodipodi-0.dtd"
   xmlns:xlink="http://www.w3.org/1999/xlink"
   xmlns="http://www.w3.org/2000/svg"
   xmlns:svg="http://www.w3.org/2000/svg"
   xmlns:rdf="http://www.w3.org/1999/02/22-rdf-syntax-ns#"
   xmlns:cc="http://creativecommons.org/ns#"
   xmlns:dc="http://purl.org/dc/elements/1.1/">
  <sodipodi:namedview
     id="namedview24059"
     pagecolor="#ffffff"
     bordercolor="#000000"
     borderopacity="0.25"
     inkscape:showpageshadow="2"
     inkscape:pageopacity="0.0"
     inkscape:pagecheckerboard="0"
     inkscape:deskcolor="#d1d1d1"
     showgrid="false"
     inkscape:zoom="7.5645694"
     inkscape:cx="48.119064"
     inkscape:cy="72.310792"
     inkscape:current-layer="svg2408"
     inkscape:window-width="2758"
     inkscape:window-height="1300"
     inkscape:window-x="1121"
     inkscape:window-y="1478"
     inkscape:window-maximized="0" />
  <defs
     id="defs2410">
    <linearGradient
       inkscape:collect="always"
       id="linearGradient12343">
      <stop
         style="stop-color:#a77330;stop-opacity:0;"
         offset="0"
         id="stop12339" />
      <stop
         style="stop-color:#511818;stop-opacity:1;"
         offset="0.76034623"
         id="stop12341" />
    </linearGradient>
    <linearGradient
       inkscape:collect="always"
       id="linearGradient12332">
      <stop
         style="stop-color:#f2c384;stop-opacity:1;"
         offset="0"
         id="stop12328" />
      <stop
         style="stop-color:#ffd78d;stop-opacity:0;"
         offset="0.59722042"
         id="stop12330" />
    </linearGradient>
    <linearGradient
       inkscape:collect="always"
       id="linearGradient4229">
      <stop
         style="stop-color:#fefefe;stop-opacity:0;"
         offset="0.62833661"
         id="stop4225" />
      <stop
         style="stop-color:#ffffff;stop-opacity:1;"
         offset="0.82479078"
         id="stop4227" />
    </linearGradient>
    <linearGradient
       inkscape:collect="always"
       id="linearGradient3218">
      <stop
         style="stop-color:#d9d9d9;stop-opacity:1;"
         offset="0"
         id="stop3214" />
      <stop
         style="stop-color:#eaeaea;stop-opacity:1;"
         offset="1"
         id="stop3216" />
    </linearGradient>
    <linearGradient
       inkscape:collect="always"
       id="linearGradient2860">
      <stop
         style="stop-color:#ffffff;stop-opacity:0;"
         offset="0"
         id="stop2856" />
      <stop
         style="stop-color:#ffffff;stop-opacity:1;"
         offset="0.39180267"
         id="stop2858" />
    </linearGradient>
    <linearGradient
       inkscape:collect="always"
       id="linearGradient2360">
      <stop
         style="stop-color:#d7d7d7;stop-opacity:1;"
         offset="0"
         id="stop2356" />
      <stop
         style="stop-color:#f5f5f5;stop-opacity:1;"
         offset="1"
         id="stop2358" />
    </linearGradient>
    <linearGradient
       id="linearGradient3729">
      <stop
         id="stop3731"
         style="stop-color:#1c59ad;stop-opacity:1"
         offset="0" />
      <stop
         id="stop3733"
         style="stop-color:#377ad6;stop-opacity:1"
         offset="1" />
    </linearGradient>
    <linearGradient
       x1="45.447727"
       y1="92.539597"
       x2="45.447727"
       y2="7.0165396"
       id="ButtonShadow"
       gradientUnits="userSpaceOnUse"
       gradientTransform="scale(1.0058652,0.994169)">
      <stop
         id="stop3750"
         style="stop-color:#000000;stop-opacity:1"
         offset="0" />
      <stop
         id="stop3752"
         style="stop-color:#000000;stop-opacity:0.58823532"
         offset="1" />
    </linearGradient>
    <linearGradient
       id="linearGradient3737">
      <stop
         id="stop3739"
         style="stop-color:#ffffff;stop-opacity:1"
         offset="0" />
      <stop
         id="stop3741"
         style="stop-color:#ffffff;stop-opacity:0"
         offset="1" />
    </linearGradient>
    <linearGradient
       id="linearGradient3700">
      <stop
         id="stop3702"
         style="stop-color:#083c6b;stop-opacity:1;"
         offset="0.19736187" />
      <stop
         id="stop3704"
         style="stop-color:#07071f;stop-opacity:1;"
         offset="1" />
    </linearGradient>
    <linearGradient
       x1="86.823502"
       y1="89.823799"
       x2="27.736605"
       y2="18.498173"
       id="linearGradient3706"
       xlink:href="#linearGradient3700"
       gradientUnits="userSpaceOnUse" />
    <filter
       color-interpolation-filters="sRGB"
       id="filter3174"
       x="-0.047720931"
       y="-0.048282354"
       width="1.0954419"
       height="1.0965647">
      <feGaussianBlur
         stdDeviation="1.71"
         id="feGaussianBlur3176" />
    </filter>
    <linearGradient
       x1="36.357143"
       y1="6"
       x2="36.357143"
       y2="63.893143"
       id="linearGradient3188"
       xlink:href="#linearGradient3737"
       gradientUnits="userSpaceOnUse" />
    <linearGradient
       x1="45.447727"
       y1="92.539597"
       x2="45.447727"
       y2="7.0165396"
       id="ButtonShadow-0"
       gradientUnits="userSpaceOnUse"
       gradientTransform="matrix(1.0058652,0,0,0.994169,100,0)">
      <stop
         id="stop3750-8"
         style="stop-color:#000000;stop-opacity:1"
         offset="0" />
      <stop
         id="stop3752-5"
         style="stop-color:#000000;stop-opacity:0.58823532"
         offset="1" />
    </linearGradient>
    <linearGradient
       x1="32.251034"
       y1="6.1317081"
       x2="32.251034"
       y2="90.238609"
       id="linearGradient3780"
       xlink:href="#ButtonShadow-0"
       gradientUnits="userSpaceOnUse"
       gradientTransform="matrix(1.0238095,0,0,1.0119048,-1.1428571,-98.071429)" />
    <linearGradient
       x1="32.251034"
       y1="6.1317081"
       x2="32.251034"
       y2="90.238609"
       id="linearGradient3772"
       xlink:href="#ButtonShadow-0"
       gradientUnits="userSpaceOnUse"
       gradientTransform="matrix(1.0238095,0,0,1.0119048,-1.1428571,-98.071429)" />
    <linearGradient
       x1="32.251034"
       y1="6.1317081"
       x2="32.251034"
       y2="90.238609"
       id="linearGradient3725"
       xlink:href="#ButtonShadow-0"
       gradientUnits="userSpaceOnUse"
       gradientTransform="matrix(1.0238095,0,0,1.0119048,-1.1428571,-98.071429)" />
    <linearGradient
       x1="32.251034"
       y1="6.1317081"
       x2="32.251034"
       y2="90.238609"
       id="linearGradient3721"
       xlink:href="#ButtonShadow-0"
       gradientUnits="userSpaceOnUse"
       gradientTransform="translate(0,-97)" />
    <linearGradient
       x1="32.251034"
       y1="6.1317081"
       x2="32.251034"
       y2="90.238609"
       id="linearGradient3760"
       xlink:href="#ButtonShadow-0"
       gradientUnits="userSpaceOnUse"
       gradientTransform="matrix(1.0238095,0,0,1.0119048,-1.1428571,-98.071429)" />
    <linearGradient
       id="linearGradient3737-0">
      <stop
         id="stop3739-6"
         style="stop-color:#ffffff;stop-opacity:1"
         offset="0" />
      <stop
         id="stop3741-0"
         style="stop-color:#ffffff;stop-opacity:0"
         offset="1" />
    </linearGradient>
    <radialGradient
       cx="48"
       cy="90.171875"
       r="42"
       fx="48"
       fy="90.171875"
       id="radialGradient2903"
       xlink:href="#linearGradient3737-0"
       gradientUnits="userSpaceOnUse"
       gradientTransform="matrix(1.1573129,0,0,0.99590774,-7.551021,0.1971319)" />
    <clipPath
       id="clipPath3782">
      <path
         d="m -98,6 c -3.324,0 -6,2.676 -6,6 l 0,72 c 0,3.324 2.676,6 6,6 l 72,0 c 3.324,0 6,-2.676 6,-6 l 0,-72 c 0,-3.324 -2.676,-6 -6,-6 l -72,0 z m 59.0625,12 C -38.336494,17.9909 -38,18.03125 -38,18.03125 l 0,12.0625 C -50.051065,30.305506 -53,42.0625 -53,42.0625 l 9.0625,0 0,12.0625 -14.09375,0 C -66.507844,80.276885 -86,77.9375 -86,77.9375 l 0,-12.0625 c 0,0 12.376145,2.298313 18.6875,-20.75 6.908061,-25.227422 24.167961,-27.061294 28.375,-27.125 z"
         inkscape:connector-curvature="0"
         id="path3784"
         style="fill:#ff00ff;fill-opacity:1;fill-rule:nonzero;stroke:none" />
    </clipPath>
    <filter
       x="-0.18283333"
       y="-0.14622227"
       width="1.3656667"
       height="1.2924143"
       color-interpolation-filters="sRGB"
       id="filter3786">
      <feGaussianBlur
         id="feGaussianBlur3788"
         stdDeviation="3.24" />
    </filter>
    <linearGradient
       x1="46.906918"
       y1="75.471306"
       x2="46.906918"
       y2="36.246487"
       id="linearGradient3745"
       xlink:href="#linearGradient3729"
       gradientUnits="userSpaceOnUse"
       gradientTransform="translate(-2)" />
    <linearGradient
       id="linearGradient3737-9">
      <stop
         id="stop3739-2"
         style="stop-color:#ffffff;stop-opacity:1"
         offset="0" />
      <stop
         id="stop3741-1"
         style="stop-color:#ffffff;stop-opacity:0"
         offset="1" />
    </linearGradient>
    <clipPath
       id="clipPath3613">
      <rect
         width="84"
         height="84"
         rx="6"
         ry="6"
         x="6"
         y="6"
         id="rect3615"
         style="fill:#ffffff;fill-opacity:1;fill-rule:nonzero;stroke:none" />
    </clipPath>
    <filter
       x="-0.19578789"
       y="-0.19578789"
       width="1.3915758"
       height="1.3915758"
       color-interpolation-filters="sRGB"
       id="filter3794">
      <feGaussianBlur
         id="feGaussianBlur3796"
         stdDeviation="5.28" />
    </filter>
    <linearGradient
       x1="48"
       y1="20.220806"
       x2="48"
       y2="138.66119"
       id="linearGradient4186"
       xlink:href="#linearGradient3737-9"
       gradientUnits="userSpaceOnUse" />
    <linearGradient
       id="linearGradient2660">
      <stop
         style="stop-color:#edeeec;stop-opacity:1;"
         offset="0"
         id="stop2662" />
      <stop
         style="stop-color:#babdb6;stop-opacity:1;"
         offset="1"
         id="stop2664" />
    </linearGradient>
    <linearGradient
       id="linearGradient15653">
      <stop
         style="stop-color:#f0f1ee;stop-opacity:1;"
         offset="0"
         id="stop15655" />
      <stop
         style="stop-color:#d5d9d1;stop-opacity:1;"
         offset="1"
         id="stop15657" />
    </linearGradient>
    <linearGradient
       inkscape:collect="always"
       xlink:href="#linearGradient2360"
       id="linearGradient2362"
       x1="48.353958"
       y1="85.062988"
       x2="48.353958"
       y2="12.995744"
       gradientUnits="userSpaceOnUse" />
    <linearGradient
       inkscape:collect="always"
       xlink:href="#linearGradient3218"
       id="linearGradient2862"
       x1="27.527815"
       y1="44.509563"
       x2="19.333384"
       y2="-4.7527003"
       gradientUnits="userSpaceOnUse" />
    <linearGradient
       inkscape:collect="always"
       xlink:href="#linearGradient2860"
       id="linearGradient3212"
       gradientUnits="userSpaceOnUse"
       x1="23.646191"
       y1="23.845797"
       x2="19.333384"
       y2="-4.7527003" />
    <linearGradient
       inkscape:collect="always"
       xlink:href="#linearGradient4229"
       id="linearGradient4222"
       gradientUnits="userSpaceOnUse"
       x1="48.353958"
       y1="85.062988"
       x2="48.353958"
       y2="12.995744"
       gradientTransform="translate(0.14057999,-0.26840505)" />
    <radialGradient
       inkscape:collect="always"
       xlink:href="#linearGradient12332"
       id="radialGradient12334"
       cx="-86.266571"
       cy="25.836287"
       fx="-86.266571"
       fy="25.836287"
       r="32.394619"
       gradientUnits="userSpaceOnUse" />
    <linearGradient
       inkscape:collect="always"
       xlink:href="#linearGradient12343"
       id="linearGradient12345"
       x1="-101.98061"
       y1="26.89353"
       x2="-47.528629"
       y2="66.010719"
       gradientUnits="userSpaceOnUse" />
    <clipPath
       clipPathUnits="userSpaceOnUse"
       id="clipPath12613">
      <rect
         width="84"
         height="84"
         rx="6"
         ry="6"
         x="-138.72179"
         y="-22.192549"
         id="rect12615"
         style="fill:#000000;fill-opacity:1;fill-rule:nonzero;stroke:none" />
    </clipPath>
    <filter
       inkscape:collect="always"
       style="color-interpolation-filters:sRGB"
       id="filter14669"
       x="-0.102678"
       y="-0.102678"
       width="1.2053559"
       height="1.2053559">
      <feGaussianBlur
         inkscape:collect="always"
         stdDeviation="1.0378962"
         id="feGaussianBlur14671" />
    </filter>
    <filter
       inkscape:collect="always"
       style="color-interpolation-filters:sRGB"
       id="filter15399"
       x="-0.056546468"
       y="-0.056546468"
       width="1.1130929"
       height="1.1130929">
      <feGaussianBlur
         inkscape:collect="always"
         stdDeviation="1.5265011"
         id="feGaussianBlur15401" />
    </filter>
  </defs>
  <metadata
     id="metadata2413">
    <rdf:RDF>
      <cc:Work
         rdf:about="">
        <dc:format>image/svg+xml</dc:format>
        <dc:type
           rdf:resource="http://purl.org/dc/dcmitype/StillImage" />
        <cc:license
           rdf:resource="http://creativecommons.org/publicdomain/zero/1.0/" />
      </cc:Work>
      <cc:License
         rdf:about="http://creativecommons.org/publicdomain/zero/1.0/">
        <cc:permits
           rdf:resource="http://creativecommons.org/ns#Reproduction" />
        <cc:permits
           rdf:resource="http://creativecommons.org/ns#Distribution" />
        <cc:permits
           rdf:resource="http://creativecommons.org/ns#DerivativeWorks" />
      </cc:License>
    </rdf:RDF>
  </metadata>
  <g
     id="layer7"
     style="display:inline">
    <path
       d="m 12,-95.03125 c -5.5110903,0 -10.03125,4.52016 -10.03125,10.03125 l 0,71 c 0,5.5110902 4.5201598,10.03125 10.03125,10.03125 l 72,0 c 5.51109,0 10.03125,-4.5201597 10.03125,-10.03125 l 0,-71 c 0,-5.51109 -4.52016,-10.03125 -10.03125,-10.03125 l -72,0 z"
       transform="scale(1,-1)"
       id="path3786"
       style="opacity:0.07999998;fill:url(#linearGradient3760);fill-opacity:1;fill-rule:nonzero;stroke:none;display:inline" />
    <path
       d="m 12,-94.03125 c -4.971633,0 -9.03125,4.059617 -9.03125,9.03125 l 0,71 c 0,4.9716329 4.0596171,9.03125 9.03125,9.03125 l 72,0 c 4.971633,0 9.03125,-4.059617 9.03125,-9.03125 l 0,-71 c 0,-4.971633 -4.059617,-9.03125 -9.03125,-9.03125 l -72,0 z"
       transform="scale(1,-1)"
       id="path3778"
       style="opacity:0.1;fill:url(#linearGradient3780);fill-opacity:1;fill-rule:nonzero;stroke:none;display:inline" />
    <path
       d="m 12,-93 c -4.4091333,0 -8,3.590867 -8,8 l 0,71 c 0,4.4091333 3.5908667,8 8,8 l 72,0 c 4.409133,0 8,-3.5908667 8,-8 l 0,-71 c 0,-4.409133 -3.590867,-8 -8,-8 l -72,0 z"
       transform="scale(1,-1)"
       id="path3770"
       style="opacity:0.2;fill:url(#linearGradient3772);fill-opacity:1;fill-rule:nonzero;stroke:none;display:inline" />
    <rect
       width="86"
       height="85"
       rx="7"
       ry="7"
       x="5"
       y="-92"
       transform="scale(1,-1)"
       id="rect3723"
       style="opacity:0.3;fill:url(#linearGradient3725);fill-opacity:1;fill-rule:nonzero;stroke:none;display:inline" />
    <rect
       width="84"
       height="84"
       rx="6"
       ry="6"
       x="6"
       y="-91"
       transform="scale(1,-1)"
       id="rect3716"
       style="opacity:0.45;fill:url(#linearGradient3721);fill-opacity:1;fill-rule:nonzero;stroke:none;display:inline" />
  </g>
  <g
     id="layer1">
    <rect
       width="84"
       height="84"
       rx="6"
       ry="6"
       x="6"
       y="6"
       id="rect2419"
       style="fill:url(#linearGradient3706);fill-opacity:1;fill-rule:nonzero;stroke:none" />
    <path
       d="M 12,6 C 8.676,6 6,8.676 6,12 l 0,2 0,68 0,2 c 0,0.334721 0.04135,0.6507 0.09375,0.96875 0.0487,0.295596 0.09704,0.596915 0.1875,0.875 0.00988,0.03038 0.020892,0.0636 0.03125,0.09375 0.098865,0.287771 0.2348802,0.547452 0.375,0.8125 0.1445918,0.273507 0.3156161,0.535615 0.5,0.78125 0.1843839,0.245635 0.3737765,0.473472 0.59375,0.6875 0.439947,0.428056 0.94291,0.814526 1.5,1.09375 0.278545,0.139612 0.5734731,0.246947 0.875,0.34375 -0.2562018,-0.100222 -0.4867109,-0.236272 -0.71875,-0.375 -0.00741,-0.0044 -0.023866,0.0045 -0.03125,0 -0.031933,-0.0193 -0.062293,-0.04251 -0.09375,-0.0625 -0.120395,-0.0767 -0.2310226,-0.163513 -0.34375,-0.25 -0.1061728,-0.0808 -0.2132809,-0.161112 -0.3125,-0.25 C 8.4783201,88.557317 8.3087904,88.373362 8.15625,88.1875 8.0486711,88.057245 7.9378561,87.922215 7.84375,87.78125 7.818661,87.74287 7.805304,87.69538 7.78125,87.65625 7.716487,87.553218 7.6510225,87.451733 7.59375,87.34375 7.4927417,87.149044 7.3880752,86.928049 7.3125,86.71875 7.30454,86.69694 7.288911,86.6782 7.28125,86.65625 7.2494249,86.5643 7.2454455,86.469419 7.21875,86.375 7.1884177,86.268382 7.1483606,86.171969 7.125,86.0625 7.0521214,85.720988 7,85.364295 7,85 L 7,83 7,15 7,13 C 7,10.218152 9.2181517,8 12,8 l 2,0 68,0 2,0 c 2.781848,0 5,2.218152 5,5 l 0,2 0,68 0,2 c 0,0.364295 -0.05212,0.720988 -0.125,1.0625 -0.04415,0.206893 -0.08838,0.397658 -0.15625,0.59375 -0.0077,0.02195 -0.0233,0.04069 -0.03125,0.0625 -0.06274,0.173739 -0.138383,0.367449 -0.21875,0.53125 -0.04158,0.0828 -0.07904,0.169954 -0.125,0.25 -0.0546,0.09721 -0.126774,0.18835 -0.1875,0.28125 -0.09411,0.140965 -0.204921,0.275995 -0.3125,0.40625 -0.143174,0.17445 -0.303141,0.346998 -0.46875,0.5 -0.01117,0.0102 -0.01998,0.02115 -0.03125,0.03125 -0.138386,0.125556 -0.285091,0.234436 -0.4375,0.34375 -0.102571,0.07315 -0.204318,0.153364 -0.3125,0.21875 -0.0074,0.0045 -0.02384,-0.0044 -0.03125,0 -0.232039,0.138728 -0.462548,0.274778 -0.71875,0.375 0.301527,-0.0968 0.596455,-0.204138 0.875,-0.34375 0.55709,-0.279224 1.060053,-0.665694 1.5,-1.09375 0.219973,-0.214028 0.409366,-0.441865 0.59375,-0.6875 0.184384,-0.245635 0.355408,-0.507743 0.5,-0.78125 0.14012,-0.265048 0.276135,-0.524729 0.375,-0.8125 0.01041,-0.03078 0.02133,-0.06274 0.03125,-0.09375 0.09046,-0.278085 0.1388,-0.579404 0.1875,-0.875 C 89.95865,84.6507 90,84.334721 90,84 l 0,-2 0,-68 0,-2 C 90,8.676 87.324,6 84,6 L 12,6 z"
       inkscape:connector-curvature="0"
       id="rect3728"
       style="opacity:0.5;fill:url(#linearGradient3188);fill-opacity:1;fill-rule:nonzero;stroke:none" />
    <path
       d="M 12,90 C 8.676,90 6,87.324 6,84 V 82 14 12 c 0,-0.334721 0.04135,-0.6507 0.09375,-0.96875 0.0487,-0.295596 0.09704,-0.596915 0.1875,-0.875 C 6.29113,10.12587 6.302142,10.09265 6.3125,10.0625 6.411365,9.774729 6.5473802,9.515048 6.6875,9.25 6.8320918,8.976493 7.0031161,8.714385 7.1875,8.46875 7.3718839,8.223115 7.5612765,7.995278 7.78125,7.78125 8.221197,7.353194 8.72416,6.966724 9.28125,6.6875 9.559795,6.547888 9.8547231,6.440553 10.15625,6.34375 9.9000482,6.443972 9.6695391,6.580022 9.4375,6.71875 c -0.00741,0.0044 -0.023866,-0.0045 -0.03125,0 -0.031933,0.0193 -0.062293,0.04251 -0.09375,0.0625 -0.120395,0.0767 -0.2310226,0.163513 -0.34375,0.25 -0.1061728,0.0808 -0.2132809,0.161112 -0.3125,0.25 C 8.4783201,7.442683 8.3087904,7.626638 8.15625,7.8125 8.0486711,7.942755 7.9378561,8.077785 7.84375,8.21875 7.818661,8.25713 7.805304,8.30462 7.78125,8.34375 7.716487,8.446782 7.6510225,8.548267 7.59375,8.65625 7.4927417,8.850956 7.3880752,9.071951 7.3125,9.28125 7.30454,9.30306 7.288911,9.3218 7.28125,9.34375 7.2494249,9.4357 7.2454455,9.530581 7.21875,9.625 7.1884177,9.731618 7.1483606,9.828031 7.125,9.9375 7.0521214,10.279012 7,10.635705 7,11 v 2 68 2 c 0,2.781848 2.2181517,5 5,5 h 2 68 2 c 2.781848,0 5,-2.218152 5,-5 V 81 13 11 C 89,10.635705 88.94788,10.279012 88.875,9.9375 88.83085,9.730607 88.78662,9.539842 88.71875,9.34375 88.71105,9.3218 88.69545,9.30306 88.6875,9.28125 88.62476,9.107511 88.549117,8.913801 88.46875,8.75 88.42717,8.6672 88.38971,8.580046 88.34375,8.5 88.28915,8.40279 88.216976,8.31165 88.15625,8.21875 88.06214,8.077785 87.951329,7.942755 87.84375,7.8125 87.700576,7.63805 87.540609,7.465502 87.375,7.3125 87.36383,7.3023 87.35502,7.29135 87.34375,7.28125 87.205364,7.155694 87.058659,7.046814 86.90625,6.9375 86.803679,6.86435 86.701932,6.784136 86.59375,6.71875 c -0.0074,-0.0045 -0.02384,0.0044 -0.03125,0 -0.232039,-0.138728 -0.462548,-0.274778 -0.71875,-0.375 0.301527,0.0968 0.596455,0.204138 0.875,0.34375 0.55709,0.279224 1.060053,0.665694 1.5,1.09375 0.219973,0.214028 0.409366,0.441865 0.59375,0.6875 0.184384,0.245635 0.355408,0.507743 0.5,0.78125 0.14012,0.265048 0.276135,0.524729 0.375,0.8125 0.01041,0.03078 0.02133,0.06274 0.03125,0.09375 0.09046,0.278085 0.1388,0.579404 0.1875,0.875 C 89.95865,11.3493 90,11.665279 90,12 v 2 68 2 c 0,3.324 -2.676,6 -6,6 z"
       inkscape:connector-curvature="0"
       id="path3615"
       style="display:inline;opacity:0.3;fill:url(#radialGradient2903);fill-opacity:1;fill-rule:nonzero;stroke:none" />
  </g>
  <g
     id="g12533"
     transform="translate(144.72179,28.192551)"
     clip-path="url(#clipPath12613)"
     style="display:inline;filter:url(#filter14669)">
    <circle
       style="display:inline;opacity:1;fill:#ffffff;fill-opacity:1;stroke:none;stroke-width:4.714;stroke-linecap:round;stroke-linejoin:round;stroke-dasharray:none;stroke-opacity:1;filter:url(#filter15399)"
       id="circle12361"
       cx="-75.870567"
       cy="36.408516"
       r="32.394619" />
    <circle
       style="display:inline;opacity:1;fill:#ac7330;fill-opacity:1;stroke:none;stroke-width:4.714;stroke-linecap:round;stroke-linejoin:round;stroke-dasharray:none;stroke-opacity:1"
       id="path9642"
       cx="-75.870567"
       cy="36.408516"
       r="32.394619" />
    <circle
       style="display:inline;opacity:1;fill:url(#linearGradient12345);fill-opacity:1;stroke:none;stroke-width:4.714;stroke-linecap:round;stroke-linejoin:round;stroke-dasharray:none;stroke-opacity:1"
       id="circle12336"
       cx="-75.870567"
       cy="36.408516"
       r="32.394619" />
    <circle
       style="display:inline;opacity:1;fill:url(#radialGradient12334);fill-opacity:1;stroke:none;stroke-width:4.714;stroke-linecap:round;stroke-linejoin:round;stroke-dasharray:none;stroke-opacity:1"
       id="circle12325"
       cx="-75.870567"
       cy="36.408516"
       r="32.394619" />
    <path
       style="opacity:1;fill:#ffffff;fill-opacity:1;stroke:none;stroke-width:4.714;stroke-linecap:round;stroke-linejoin:round;stroke-dasharray:none;stroke-opacity:1"
       d="m -76.042531,4.355657 c -0.687314,-0.088465 -1.324986,0.2071602 -1.993515,0.2907182 -0.262632,0.032826 -0.536601,-0.0306 -0.789089,0.041537 -0.04799,0.013712 -0.07872,0.063396 -0.124594,0.083058 -0.296404,0.1270279 -0.682602,0.1863656 -0.996757,0.2491893 -0.35837,0.071666 -0.758184,-0.045403 -1.121352,0 -0.193008,0.024129 -0.357807,0.1256616 -0.539916,0.1661316 -0.06757,0.015016 -0.140083,-0.015014 -0.207652,0 -0.18784,0.041739 -0.439188,0.1341398 -0.622973,0.2076524 -0.217938,0.087173 -0.363505,0.2907763 -0.581453,0.4153208 -0.219833,0.1256213 -0.568884,0.236664 -0.747568,0.4153129 -0.0475,0.047492 0.01329,0.3926323 -0.332247,0.6229732 -0.604805,0.4031774 -1.38039,0.4254751 -2.035051,0.7060391 -0.184871,0.079229 -0.805244,0.671431 -0.872163,0.8721625 -0.02586,0.077575 -0.01341,0.1380116 -0.08306,0.2076524 -0.09587,0.09586 -0.196436,0.1548897 -0.290727,0.2491893 -0.04338,0.043388 -0.07882,0.1432449 -0.124586,0.1661316 -0.06053,0.030268 -0.177361,0.1102257 -0.249198,0.1245946 -0.04072,0.00815 -0.08603,-0.015424 -0.124594,0 -0.190753,0.076298 -0.479102,0.3545073 -0.622974,0.4983786 -0.31146,0.3114609 -0.520975,1.3190285 -0.290718,1.7027955 0.163363,0.272275 0.533923,0.411315 0.789097,0.581437 0.05714,0.03809 0.04272,0.06407 0.08307,0.124594 0.0779,0.116858 0.244806,0.194513 0.290726,0.332255 0.102764,0.308253 0.297655,0.627925 0.581444,0.830634 0.654963,0.467836 1.661408,0.47768 2.367299,0.830626 0.330024,0.165012 0.685863,0.305817 1.038278,0.45685 0.336082,0.144032 0.65029,0.382889 0.996757,0.498378 0.510702,0.170234 1.05467,0.174404 1.57821,0.249189 0.343354,0.04905 0.687744,0.136915 1.038278,0.166124 0.6104,0.05086 1.177081,-0.212949 1.785862,-0.166124 0.469098,0.03608 0.949667,0.141595 1.412078,0.207661 0.290742,0.04154 0.621082,0 0.913683,0 0.448207,0 0.919182,0.106007 1.370541,0.04153 0.380566,-0.05437 0.727355,-0.08307 1.121352,-0.08307 0.691559,0 1.671565,0.103857 2.325778,-0.04153 0.683352,-0.151861 1.386045,-0.303394 2.076572,-0.45685 0.197754,-0.04395 0.361641,-0.201581 0.539915,-0.290718 0.145337,-0.07267 0.341876,-0.09614 0.498379,-0.124594 0.951421,-0.172977 1.89133,-0.306717 2.82414,-0.539908 0.338156,-0.08454 0.906879,0.01283 1.287484,-0.04154 0.310721,-0.04439 0.63023,-0.293822 0.913699,-0.415313 0.241339,-0.103434 0.523198,-0.141133 0.747568,-0.290718 0.294133,-0.196095 0.537233,-0.48598 0.830626,-0.706039 0.137518,-0.103145 0.30758,-0.147067 0.415321,-0.290718 0.33813,-0.450834 0.07627,-1.377331 -0.290727,-1.744325 -0.112134,-0.112133 -0.400921,-0.247517 -0.456841,-0.415321 -0.0321,-0.096313 0.02295,-0.2120446 0.04152,-0.249189 0.05171,-0.1034507 -0.08495,-0.3360228 -0.124594,-0.4153128 -0.01238,-0.024765 0.01958,-0.063487 0,-0.083066 -0.171998,-0.1719978 -0.417269,-0.2926663 -0.581437,-0.4568497 -0.08856,-0.088566 -0.158895,-0.3024366 -0.249189,-0.4153128 -0.11556,-0.1444613 -0.306523,-0.2320395 -0.456842,-0.3322551 -0.123656,-0.08244 -0.171263,-0.2782128 -0.290726,-0.373784 -0.208805,-0.1670457 -0.450481,-0.2963098 -0.66451,-0.4568416 -0.10881,-0.081612 -0.160795,-0.2023316 -0.249189,-0.2907263 -0.154835,-0.1548347 -0.439832,-0.1576185 -0.622974,-0.2491893 -0.03502,-0.01751 -0.04804,-0.065548 -0.08306,-0.083058 -0.03323,-0.016613 -0.09137,0.016613 -0.124595,0 -0.04906,-0.024532 -0.07878,-0.094049 -0.124595,-0.1245946 -0.118565,-0.079046 -0.28288,-0.1579944 -0.41532,-0.2076605 -0.238834,-0.089564 -0.524641,-0.096197 -0.747568,-0.2076604 -0.078,-0.039 -0.05593,-0.090253 -0.124595,-0.1245947 -0.472219,-0.2361553 -0.994184,-0.4719119 -1.453599,-0.7475679 -0.143387,-0.086035 -0.100367,-0.011766 -0.249189,-0.041529 -0.164449,-0.032888 -0.571556,-0.2983516 -0.747568,-0.3737839 -0.14404,-0.06173 -0.537068,-0.08165 -0.622973,-0.1245947 -0.162834,-0.081401 -0.389169,-0.1233959 -0.581437,-0.1661235 -0.451961,-0.1004391 -1.108269,-0.083066 -1.578209,-0.083066 -0.192686,0 -0.433881,0.037814 -0.622974,0 -0.126758,-0.025349 -0.243591,-0.064465 -0.373784,-0.083066 -0.184816,-0.026405 -1.229965,0.028745 -1.370541,-0.041529 -0.122077,-0.061027 -1.376435,-0.2302168 -1.536672,-0.1661235 -0.126595,0.050636 -0.24919,0.110749 -0.373784,0.1661235 z"
       id="path11584" />
    <g
       id="g11597"
       style="opacity:0.545525">
      <path
         style="opacity:1;fill:#ffffff;fill-opacity:1;stroke:none;stroke-width:4.714;stroke-linecap:round;stroke-linejoin:round;stroke-dasharray:none;stroke-opacity:1"
         d="m -101.56462,49.41034 c 0.15662,0.546696 0.61208,0.5822 1.03829,0.913699 0.18324,0.142528 0.32356,0.345413 0.49838,0.498379 0.188217,0.164695 0.419283,0.321046 0.622969,0.456842 0.352761,0.235181 1.397422,0.666265 1.827391,0.789105 0.22554,0.06444 0.485458,0.08341 0.706039,0.166131 0.510449,0.191417 0.850767,0.664256 1.370541,0.872163 0.463129,0.185249 0.973569,0.312832 1.453607,0.456841 0.718286,0.215483 1.415054,0.529141 2.159638,0.664511 0.825375,0.150057 1.697551,0.08306 2.533422,0.08306 0.707309,0 1.413137,0.04154 2.118109,0.04154 0.406819,0 0.840037,-0.04058 1.245947,0 0.490969,0.04909 0.927852,0.235402 1.412078,0.332247 0.704907,0.140982 1.484298,0.207016 2.201167,0.24919 1.007907,0.05929 2.020657,0.04154 3.031808,0.04154 0.591493,0 1.195888,0.03688 1.785862,0 0.30635,-0.01915 0.608816,-0.10115 0.913684,-0.124595 0.690386,-0.05309 1.391254,0.03736 2.076588,0.08306 0.62844,0.0419 1.286831,0.01044 1.910441,-0.04154 0.489986,-0.04084 1.010707,-0.0123 1.495135,0.04154 0.509999,0.05667 1.067424,0 1.57821,0 0.683511,0 1.396231,0.05669 2.076572,0 0.140694,-0.01172 0.275325,-0.0648 0.415321,-0.08306 0.56385,-0.07354 1.14871,-0.11067 1.702788,-0.249189 0.145559,-0.03639 0.16719,-0.104364 0.290726,-0.166132 0.177232,-0.08862 0.430042,-0.131055 0.622974,-0.166132 0.449297,-0.08169 0.915691,-0.05911 1.370541,-0.08306 0.711134,-0.03743 1.412095,-0.148833 2.118109,-0.207653 0.945295,-0.07875 1.929935,0.0077 2.865677,0.124595 0.212119,0.02651 0.415825,0.05346 0.622973,0.08306 0.115365,0.01648 0.174383,0.08306 0.290726,0.08306 0.01385,0 -0.02769,0 -0.04154,0 -0.09691,0 -0.193817,0 -0.290726,0 -0.277902,0 -0.477376,0.07056 -0.747568,0.124595 -0.77883,0.155754 -1.615708,0.08307 -2.408819,0.08307 -0.355468,0 -0.726024,-0.03216 -1.079831,0 -0.90422,0.08218 -1.807277,0.303755 -2.699545,0.415305 -0.567695,0.07097 -1.132918,0.238912 -1.702788,0.290726 -0.179233,0.0163 -0.360683,-0.0163 -0.539916,0 -0.510925,0.04645 -1.022727,0.09761 -1.536673,0.166131 -0.365851,0.04878 -0.76293,0.07651 -1.121352,0.166116 -0.157199,0.0393 -0.300514,0.123496 -0.456841,0.166131 -0.329696,0.08992 -0.698902,0.143503 -1.038294,0.166132 -0.193383,0.01289 -0.388294,-0.01609 -0.581437,0 -0.61421,0.05117 -1.239212,0.212144 -1.86892,0.249189 -1.726048,0.101544 -3.464337,-0.06009 -5.191454,0.04152 -0.913691,0.05375 -1.82875,0.06083 -2.741082,0 -0.690852,-0.04606 -1.386965,0.01151 -2.076573,-0.04152 -0.757435,-0.05825 -1.492018,-0.145127 -2.242703,-0.207668 -0.661445,-0.05511 -1.32744,-0.04152 -1.993515,-0.04152 -0.248845,0 -0.546403,-0.04413 -0.789105,0 -0.03378,0.0061 -0.622973,0.181257 -0.622973,0.207652 0,0.08033 1.244249,0.107644 1.329012,0.124595 0.0731,0.01462 0.134557,0.06844 0.207661,0.08306 0.06787,0.01357 0.140084,-0.01502 0.207652,0 0.120876,0.02686 0.214785,0.126975 0.332255,0.166131 0.209275,0.06976 0.450908,0.154254 0.664503,0.207653 0.589037,0.147259 1.190071,0.141487 1.785862,0.207668 0.384529,0.04272 0.784756,0.16816 1.162888,0.24919 0.717546,0.153761 -0.0996,-0.04376 0.5399,0.04152 0.46824,0.06244 0.936378,0.124595 1.412078,0.124595 0.37347,0 0.414795,0.159123 0.706031,0.207669 0.103299,0.01722 0.655834,0.133254 0.747568,0.04152 0.133022,-0.133022 -0.598191,-0.08306 -0.622974,-0.08306 -0.620627,0 -1.216412,0.04822 -1.827382,0.124594 -0.662683,0.08284 0.369297,-0.117378 -0.332247,0.08306 -0.233079,0.06659 -0.584635,0.0142 -0.830642,0.04154 -0.7213,0.08016 -1.697446,-0.149834 -2.367299,0.04154 -0.494844,0.141372 -1.041761,-0.06962 -1.536664,-0.124595 -0.512277,-0.05691 -1.034503,5.98e-4 -1.536665,-0.08307 -0.360132,-0.06001 -0.721763,-0.177569 -1.079823,-0.249189 -0.0543,-0.01086 -0.116593,0.02476 -0.166123,0 -0.02769,-0.01384 -0.01385,-0.06921 -0.04154,-0.08306 -0.101542,-0.05078 -0.704603,-0.145127 -0.830626,-0.166131 -0.367735,-0.06129 -1.405509,-0.05898 -1.702796,-0.207653 -0.16201,-0.08102 -0.325509,-0.227868 -0.498379,-0.290726 -0.07914,-0.02878 -0.167948,-0.01936 -0.249189,-0.04152 -0.143849,-0.03923 -0.272499,-0.123287 -0.415313,-0.166131 -0.305318,-0.0916 -0.597531,-0.09915 -0.830634,-0.332247 -0.219979,-0.219971 -0.482857,-0.241429 -0.747568,-0.373784 -0.242419,-0.12121 -0.367325,-0.329031 -0.622973,-0.456858 -0.343799,-0.171904 -0.743443,-0.247082 -1.079823,-0.415305 -0.223767,-0.111905 -0.466898,-0.254211 -0.706039,-0.373784 -0.01695,-0.0085 -1.156761,-0.462955 -1.079815,-0.539915 0.04991,-0.04992 0.137774,0.03155 0.207653,0.04154 0.279405,0.03992 1.640467,0.25955 1.827391,0.166115 0.128826,-0.06439 -1.01943,-0.416574 -1.079823,-0.456842 -0.35277,-0.23521 -0.726317,-0.346447 -1.121352,-0.498378 -0.508953,-0.195744 -0.985743,-0.487359 -1.370543,-0.872163 -0.42247,-0.422468 -0.90106,-0.727694 -1.37054,-1.079815 -0.106,-0.0795 -0.21715,-0.310905 -0.24919,-0.332263 -0.086,-0.05732 -0.50576,-0.437439 -0.53991,-0.539899 -0.16351,-0.49056 -0.37687,-0.586064 -0.62297,-0.955237 -0.0892,-0.133821 -0.15297,-0.287002 -0.24919,-0.415304 -0.069,-0.09195 -0.18545,-0.153565 -0.24919,-0.24919 -0.0964,-0.144609 -0.15942,-0.307235 -0.24919,-0.456858 -0.0903,-0.150516 -0.22963,-0.236939 -0.33226,-0.373783 -0.16898,-0.225317 -0.29768,-0.463789 -0.49838,-0.664495 -0.0881,-0.08811 -0.54379,-0.759252 -0.58144,-0.872178 -0.0351,-0.105448 -0.008,-0.230951 -0.0415,-0.332247 -0.0237,-0.07123 -0.0195,-0.141433 -0.0415,-0.207653 0,-2e-6 -0.12092,-0.08307 -0.0831,-0.08307 0.025,0 0.63827,0.60804 0.70604,0.66451 0.19919,0.165994 0.4,0.323079 0.62297,0.456858 0.2372,0.14232 0.47167,0.222477 0.6645,0.415304 0.0609,0.06087 0.0727,0.180029 0.1246,0.24919 0.17303,0.230715 0.46324,0.383383 0.62297,0.622973 0.0888,0.133237 0.0703,0.321146 0.12459,0.456858 0.0145,0.03635 0.0629,0.04948 0.0831,0.08306 0.20686,0.344755 0.26996,0.602252 0.49838,0.830626 0.0277,0.02768 0.0554,-0.02768 0.0831,0 0.0196,0.01958 -0.0196,0.06349 0,0.08307 0.0138,0.01384 0.11076,0.02768 0.1246,0.04152 0.0243,0.02433 -0.0668,0.143013 0.0831,0.08307 0.12126,-0.04851 0.2215,-0.138446 0.33225,-0.207669 z"
         id="path11586" />
      <path
         style="opacity:1;fill:#ffffff;fill-opacity:1;stroke:none;stroke-width:4.714;stroke-linecap:round;stroke-linejoin:round;stroke-dasharray:none;stroke-opacity:1"
         d="m -105.01174,36.120249 c 0.10882,0.486725 0.60271,0.73844 0.7891,1.20441 0.0865,0.216288 -0.0279,0.456328 0.0415,0.66451 0.0124,0.03715 0.0656,0.04804 0.0831,0.08306 0.10779,0.215588 -0.0826,0.474053 0.0831,0.706031 0.11823,0.165526 0.32094,0.262418 0.45685,0.415321 0.22353,0.251484 0.36696,0.611188 0.62297,0.830625 0.24406,0.209196 0.91516,0.42964 1.24595,0.539916 0.19827,0.0661 0.35249,0.238537 0.5399,0.332247 0.38723,0.193618 0.81193,0.319977 1.204422,0.498378 0.431461,0.196113 0.790659,0.511136 1.204418,0.747568 0.408053,0.233172 0.877514,0.316298 1.287475,0.539916 0.274621,0.149795 0.474966,0.388474 0.747568,0.539915 0.89599,0.49776 2.004969,0.426107 2.948743,0.789089 1.031645,0.396779 2.050189,0.872524 3.114866,1.162889 0.377722,0.103014 0.687632,0.342542 1.038286,0.498378 0.3296,0.14648 0.686525,0.254082 1.038294,0.332247 0.221481,0.04921 0.399571,0.06074 0.622973,0.08307 0.318604,0.03185 0.643755,0.14091 0.955221,0.207653 0.401067,0.08594 1.033432,0.09988 1.453607,0.124594 0.265384,0.01561 0.566829,-0.04397 0.830633,0 0.388615,0.06478 0.764874,0.213015 1.162889,0.24919 0.317211,0.02883 0.685446,-0.0018 0.996757,0.08307 0.43474,0.118562 0.877206,0.287061 1.329005,0.332247 0.528351,0.05284 1.054804,-0.03945 1.578193,-0.08306 0.629558,-0.05245 1.564588,-0.04546 2.201183,0 0.360256,0.02573 0.719661,0.05535 1.079815,0.08306 0.495321,0.03811 1.000104,-0.04126 1.495136,0 0.683213,0.05694 1.388637,0.07145 2.076572,0.04154 0.527992,-0.02296 1.051175,-0.133187 1.57821,-0.166131 1.10705,-0.0692 2.215177,0.09691 3.322518,0.04154 0.472825,-0.02364 1.353654,-0.139865 1.827399,-0.249189 0.269221,-0.06213 0.510057,-0.135124 0.789089,-0.166132 0.656866,-0.07299 1.354013,-0.154615 1.993514,-0.332263 0.449294,-0.124811 0.840273,-0.440526 1.287484,-0.5399 0.496019,-0.110219 1.037717,-0.04142 1.536672,-0.124594 0.08637,-0.0144 0.163045,-0.06741 0.24919,-0.08307 0.374351,-0.06807 0.04176,0.08299 0.415305,-0.04152 0.22745,-0.07582 0.464684,-0.208973 0.706047,-0.249189 0.778557,-0.129726 1.745468,-0.207669 2.533413,-0.207669 1.060563,0 1.834339,-0.1599 2.824157,-0.456841 0.224424,-0.06733 0.55877,-0.101929 0.706031,-0.24919 0.01464,-0.01464 0.239088,0.03142 0.166131,-0.04154 -0.151658,-0.151658 -1.818651,-0.06024 -2.118109,-0.04152 -1.40525,0.08784 -2.832493,-0.10795 -4.236218,0 -0.323386,0.02487 -0.634747,0.134075 -0.955236,0.166115 -0.725693,0.07255 -1.473137,-0.04551 -2.201167,0 -0.601486,0.0376 -0.08331,0.01786 -0.581437,0.124595 -0.351147,0.07524 -0.765968,0.128724 -1.121351,0.166131 -1.604665,0.168904 -3.24784,-0.02042 -4.859192,0.04154 -0.928497,0.0357 -1.854517,0.129001 -2.782619,0.166116 -1.014519,0.04057 -2.020423,-0.04091 -3.031809,-0.08306 -0.896463,-0.03736 -1.802195,0 -2.699545,0 -0.620834,0 -1.248748,0.02584 -1.86892,0 -1.630842,-0.06796 0.496938,-0.01255 -0.913699,-0.08306 -0.358128,-0.0179 -0.722305,0.0275 -1.079815,0 -0.387823,-0.02984 -0.775283,-0.09692 -1.162889,-0.124594 -0.483792,-0.03455 -0.97797,-0.04722 -1.453599,-0.166132 -0.614633,-0.153658 -1.164859,-0.396609 -1.785862,-0.539916 -0.733882,-0.169355 -2.283898,-0.110551 -2.865677,-0.498378 -0.06885,-0.0459 -0.110746,-0.124578 -0.166132,-0.166116 -0.12794,-0.09595 -0.298384,-0.132298 -0.373783,-0.207668 -0.205489,-0.205408 1.370163,-0.207653 1.370541,-0.207653 0.94418,0 1.884712,-0.06196 2.824156,-0.124594 0.216506,-0.01444 1.147653,0.01527 1.287467,-0.124595 0.09135,-0.09139 -0.169513,-0.05163 -0.373784,-0.08306 -0.271745,-0.04181 -0.560012,-0.109164 -0.830625,-0.166131 -0.632953,-0.133244 -1.274019,-0.267718 -1.910457,-0.373784 -0.222955,-0.03716 -0.443698,-0.05098 -0.664502,-0.124595 -0.455865,-0.151974 -0.904726,-0.340396 -1.370541,-0.456841 -0.08986,-0.02247 -1.088679,-0.561713 -0.872163,-0.706048 0.183287,-0.122183 1.454483,-0.149063 1.744325,-0.166115 1.255519,-0.07386 2.520119,-0.04154 3.779369,-0.04154 3.22562,0 6.451241,0 9.676862,0 0.955225,0 1.910451,0 2.865677,0 0.662124,0 1.333986,0.03456 1.993514,-0.04154 0.514969,-0.05942 1.016199,-0.182865 1.536673,-0.207652 0.723161,-0.03444 1.437275,-0.110569 2.15963,-0.166132 0.593388,-0.04564 1.194784,-0.05639 1.785862,-0.124594 1.091183,-0.125907 2.179613,-0.24919 3.280998,-0.24919 1.501085,0 3.008062,-0.10519 4.485407,-0.373784 0.497006,-0.09036 0.995703,-0.09665 1.495136,-0.207652 0.116249,-0.02584 0.374916,-0.123446 0.29071,-0.207652 -0.04024,-0.04024 -0.104187,0.03472 -0.124595,0.04152 -0.09901,0.033 -0.441467,0.0033 -0.498378,0 -0.498804,-0.02933 -0.434229,-0.0664 -0.996758,-0.124594 -0.566794,-0.05863 -1.134198,-0.04152 -1.702788,-0.04152 -0.951486,0 -1.879535,0.196704 -2.82414,0.249189 -0.728608,0.04048 -1.471439,0 -2.201183,0 -1.205802,0 -2.408993,0.0031 -3.613245,-0.04154 -1.063671,-0.0394 -2.135055,0.05595 -3.197924,0 -1.011666,-0.05325 -2.01708,-0.216452 -3.031808,-0.249189 -1.10586,-0.03568 -2.217417,0.0087 -3.322519,-0.04154 -0.762213,-0.03464 -1.529891,-0.188766 -2.284241,-0.29071 -0.813388,-0.109923 -1.639506,-0.162696 -2.450356,-0.290726 -0.531542,-0.08393 -0.24611,-0.09074 -0.830641,-0.207653 -0.748244,-0.149651 -1.523583,-0.192849 -2.284225,-0.249189 -0.833018,-0.0617 -1.71125,0.01005 -2.53343,-0.166132 -0.60506,-0.129655 -1.184793,-0.38964 -1.785862,-0.539915 -0.400479,-0.100125 -0.800006,-0.173363 -1.204409,-0.249189 -5.07e-4,-9.5e-5 -0.664008,-0.08294 -0.664511,-0.08306 -0.594471,-0.137186 -1.141155,-0.522915 -1.702788,-0.747568 -0.500299,-0.20012 -1.057188,-0.300173 -1.536673,-0.539916 -0.276417,-0.138208 -0.488094,-0.377721 -0.747568,-0.539899 -0.282325,-0.176461 -0.565457,-0.341036 -0.830625,-0.539915 -0.267147,-0.200364 -0.36516,-0.619826 -0.581445,-0.872163 -0.671717,-0.783684 -1.298318,-1.635992 -1.868919,-2.491893 -0.274366,-0.411549 -0.63904,-0.789462 -1.038294,-1.079823 -0.337319,-0.245317 -0.701176,-0.451975 -0.996758,-0.747568 -0.06743,-0.06744 -0.122707,-0.214742 -0.166123,-0.290718 -0.122272,-0.213967 -0.294841,-0.437817 -0.456846,-0.622973 -0.30951,-0.353725 -0.73543,-0.603751 -1.07982,-0.9137 -0.31673,-0.285054 -0.49294,-0.743492 -0.83063,-0.996757 -0.19341,-0.145053 -0.44669,-0.204274 -0.70604,-0.290718 -0.20899,-0.06966 0.23885,0.685356 0.24919,0.706039 0.0854,0.170754 0.0124,0.0744 0.0415,0.249189 0.0481,0.288481 0.18582,0.586564 0.33225,0.830626 0.0861,0.14351 0.25757,0.265957 0.33226,0.415321 0.0926,0.185105 0.17838,0.394217 0.29071,0.581436 0.29544,0.492402 0.84114,0.758526 0.95523,1.329012 0.014,0.06984 0.0825,0.208704 0.0415,0.290718 -0.10637,0.212764 -1.26683,-0.09586 -1.4536,-0.124594 -0.27516,-0.04234 -0.4058,-0.115071 -0.58144,-0.290718 -0.18381,-0.18382 -0.41483,-0.33163 -0.58145,-0.539908 -0.26964,-0.337062 -0.41328,-0.77053 -0.58143,-1.162889 -0.12498,-0.291625 -0.39767,-0.5046 -0.53992,-0.789096 -0.13806,-0.276132 -0.24617,-0.504272 -0.49838,-0.706039 -0.0745,-0.05962 -0.81713,-0.844127 -0.83063,-0.830626 -0.0955,0.09549 0.11392,0.394192 0.16613,0.456842 0.38874,0.466478 0.37733,0.754664 0.62298,1.245946 0.0647,0.129441 0.16612,0.212088 0.16612,0.373784 0,0.122335 0.21827,0.520518 0.24919,0.706039 0.0688,0.412993 0.0664,1.099186 0.33225,1.453607 0.0186,0.02477 0.0612,0.01964 0.0831,0.04153 0.042,0.04202 0.0587,0.167124 0.0831,0.20766 0.0579,0.09655 0.18147,0.158903 0.24919,0.24919 0.12518,0.166915 0.20032,0.375002 0.33225,0.539907 0.15254,0.190671 0.30904,0.384356 0.45685,0.581445 0.13245,0.176603 0.1998,0.404831 0.33225,0.581436 0.15486,0.206485 0.67827,0.664268 0.74757,0.872162 0.15356,0.460719 0.48279,0.921414 0.62297,1.412078 0.13481,0.471892 0.15052,0.999288 0.33225,1.453599 0.0607,0.151765 0.65207,0.942789 0.747572,1.038295 0.171798,0.171798 0.438897,0.296358 0.539907,0.498378 0.033,0.066 0.358064,0.347984 0.290727,0.415321 -0.141216,0.141216 -1.214856,-0.228456 -1.370546,-0.290726 -0.31088,-0.124342 -0.61305,-0.226421 -0.83063,-0.498379 -0.16033,-0.2004 0.005,-0.0726 -0.24919,-0.290726 -0.17096,-0.146536 -0.40058,-0.229534 -0.53991,-0.415305 -0.27352,-0.364712 -0.51609,-0.777107 -0.74756,-1.162889 -1.2e-4,-1.88e-4 -0.16604,-0.165938 -0.16614,-0.166131 -0.0124,-0.02476 0.0124,-0.0583 0,-0.08306 -0.0726,-0.145216 -0.23526,-0.244473 -0.33224,-0.373784 -0.13093,-0.174573 -0.34289,-0.534935 -0.49838,-0.66451 -0.0858,-0.07145 -0.20357,-0.09639 -0.29073,-0.166115 -0.0911,-0.0729 -0.16986,-0.196307 -0.24919,-0.24919 -0.023,-0.01536 -0.06,0.01536 -0.0831,0 -0.0778,-0.05189 -0.15747,-0.18804 -0.24919,-0.249189 -0.15215,-0.101431 -0.30712,-0.140995 -0.41532,-0.249189 -0.0365,-0.03654 -0.0782,0.183366 -0.0831,0.207652 -0.0569,0.28431 0.0416,0.581677 0.16612,0.830626 0.10006,0.200098 0.27913,0.350625 0.37379,0.539915 0.0646,0.129114 0.0854,0.322256 0.16612,0.456842 0.13966,0.232776 0.29899,0.431843 0.41532,0.66451 0.0358,0.07161 0.027,0.220115 0.0831,0.332247 0.0696,0.139297 -0.24105,-0.01172 -0.29072,-0.04152 -0.0987,-0.05921 -0.21193,-0.211933 -0.29072,-0.290726 -0.10278,-0.10278 -0.2514,-0.210971 -0.33225,-0.332247 -0.11712,-0.175668 -0.19923,-0.340502 -0.37379,-0.456858 -0.0931,-0.06206 -0.32317,-0.507459 -0.37378,-0.456842 -0.0365,0.03653 -0.0635,0.659918 -0.0415,0.747568 0.0114,0.0456 0.3958,0.698711 0.41532,0.706031 0.0944,0.03539 0.19381,0.05538 0.29072,0.08307 z"
         id="path11588" />
      <path
         style="opacity:1;fill:#ffffff;fill-opacity:1;stroke:none;stroke-width:4.714;stroke-linecap:round;stroke-linejoin:round;stroke-dasharray:none;stroke-opacity:1"
         d="m -70.332882,24.574467 c 0.731134,0.139227 1.449267,-0.123827 2.159646,-0.249189 0.859313,-0.151644 1.772909,-0.132751 2.616488,-0.373784 0.384211,-0.109779 0.736665,-0.351929 1.121352,-0.456841 0.284375,-0.07756 0.562642,-0.156735 0.830625,-0.290727 0.274773,-0.137386 0.506007,-0.380424 0.789105,-0.498378 0.209373,-0.08724 0.45006,-0.168775 0.664494,-0.24919 0.307474,-0.115304 0.748651,-0.09726 1.079831,-0.207652 0.527761,-0.17592 1.032225,-0.473227 1.536657,-0.706039 0.711391,-0.328331 1.472374,-0.535513 2.118109,-0.996757 0.140109,-0.100079 0.214273,-0.255794 0.332263,-0.373784 0.239209,-0.239209 0.545592,-0.421026 0.789089,-0.66451 0.08054,-0.08053 0.160377,-0.231514 0.249189,-0.290719 0.191067,-0.12737 0.427923,-0.202223 0.622973,-0.332255 0.247342,-0.164892 0.428726,-0.404586 0.664511,-0.581436 0.654752,-0.491096 1.088877,-1.211179 1.744325,-1.702796 0.05971,-0.04478 0.456841,-0.246195 0.456841,-0.24919 0,-0.04378 -0.02194,0.08544 -0.04152,0.124595 -0.02454,0.04906 -0.09405,0.07878 -0.124595,0.124595 -0.159432,0.239163 -0.443213,0.424819 -0.622973,0.664502 -0.368395,0.491197 0.238444,-0.177599 -0.207669,0.332255 -0.479189,0.547656 -0.984652,1.026131 -1.495136,1.536665 -0.229814,0.229836 -0.432378,0.473923 -0.664494,0.706039 -0.07649,0.07649 -0.313294,0.169726 -0.332263,0.20766 -0.0062,0.01238 -0.01384,0.04153 0,0.04153 0.01384,0 -0.0098,-0.03174 0,-0.04153 0.02189,-0.02189 0.0537,-0.03175 0.08307,-0.04154 0.160247,-0.05342 0.370924,-0.141986 0.539899,-0.166123 0.243358,-0.03476 0.50872,-0.0353 0.747568,-0.08307 0.425506,-0.0851 0.674175,-0.346353 0.996757,-0.539908 0.503468,-0.302088 1.000337,-0.645497 1.536673,-0.913691 0.216613,-0.108317 0.506499,-0.298808 0.66451,-0.45685 0.01384,-0.01384 0.110755,-0.02769 0.124595,-0.04153 0.08753,-0.08753 0.204501,-0.246062 0.29071,-0.332255 0.02347,-0.02347 0.246726,-0.168586 0.290726,-0.124594 0.174277,0.174242 -0.660451,1.074403 -0.789104,1.245946 -0.264719,0.35297 -0.408162,0.434511 -0.747568,0.706039 -0.396546,0.31724 -0.714689,0.733299 -1.121352,1.038286 -0.192098,0.144069 -0.433442,0.22215 -0.622974,0.373784 -0.215546,0.172447 -0.429981,0.393333 -0.664494,0.539908 -0.166915,0.104325 -1.322282,0.692569 -1.370541,0.789105 -0.08955,0.179136 -0.01926,0.04453 0.04152,0.166123 0.16056,0.321214 1.303634,0 1.702804,0 0.240553,0 0.498379,-0.12185 0.498379,-0.08306 0,0.02865 -0.799321,0.195907 -1.162889,0.332247 -0.344999,0.129377 -0.586848,0.446603 -0.913699,0.664511 -0.181357,0.120908 -0.359857,0.197219 -0.5399,0.332247 -0.154494,0.115867 -0.0044,0.06452 -0.207668,0.166131 -0.264739,0.13237 -0.586369,0.260806 -0.872163,0.332247 -0.06225,0.01556 -0.146835,-0.02028 -0.207652,0 -0.301367,0.100469 -0.549205,0.288006 -0.830626,0.45685 -0.108974,0.06538 -0.219226,0.151142 -0.332263,0.20766 -0.104324,0.05216 -0.236415,0.05272 -0.332247,0.124595 -0.08275,0.06207 -0.06559,0.09946 -0.166132,0.124595 -0.103438,0.02586 -0.235527,0.0347 -0.332247,0.08306 -0.272806,0.136404 -0.568257,0.397084 -0.872162,0.498379 -0.271413,0.09047 -0.559243,0.238093 -0.830626,0.373784 -0.197633,0.09882 -0.411762,0.320986 -0.622973,0.373784 -0.25765,0.06441 -0.560054,0.11747 -0.830642,0.20766 -0.161138,0.05371 -0.327581,0.141726 -0.498378,0.166124 -0.203668,0.02909 -0.418364,-0.02274 -0.622974,0 -0.102257,0.01136 -1.407722,0.147533 -1.536656,0.08307 -0.04645,-0.02323 0.349054,-0.253622 0.373784,-0.290719 0.06612,-0.09918 0.150649,-0.175286 0.249189,-0.249189 0.03701,-0.02775 0.756492,-0.323287 0.664494,-0.415321 -0.02923,-0.02924 -0.376906,-0.0032 -0.415305,0 -0.39039,0.03254 -0.785212,0.138989 -1.162888,0.207661 -0.511236,0.09296 -1.059047,0.133495 -1.578194,0.20766 -0.487719,0.06968 -0.965317,0.08704 -1.453615,0.124595 -0.375924,0.02892 -0.745659,0.131972 -1.121352,0.166123 -0.370763,0.0337 -0.750107,-0.02856 -1.121352,0 -0.734683,0.05651 -1.501493,0.198713 -2.242703,0.124595 -0.195016,-0.0195 -0.388072,-0.06158 -0.581437,-0.08307 -0.588027,-0.06535 -1.197834,0.06533 -1.785862,0 -0.538441,-0.05982 -1.074589,-0.124594 -1.61973,-0.124594 -0.282882,0 -0.590925,0.03125 -0.872163,0 -0.126853,-0.01409 -0.246784,-0.07036 -0.373784,-0.08306 -0.334111,-0.03341 -0.70896,0.06588 -1.038294,0 -0.276812,-0.05537 -0.594241,-0.138014 -0.872163,-0.249189 -0.331233,-0.132501 -0.703331,-0.205853 -0.95522,-0.373784 -0.101543,-0.0677 -0.212612,-0.13622 -0.332247,-0.166132 -0.01343,-0.0034 -0.05538,0 -0.04154,0 0.271748,0 0.519476,-0.0531 0.789105,-0.08306 0.259392,-0.02882 0.575412,0.06382 0.830626,0 0.09795,-0.02449 0.192769,-0.100107 0.290726,-0.124594 0.126324,-0.03158 0.263644,-0.028 0.373784,-0.08307 0.199354,-0.09968 0.548205,0.09966 0.747568,0 0.137093,-0.06853 -0.383745,-0.202398 -0.415321,-0.207661 -0.440997,-0.0735 -0.896775,-0.08415 -1.329004,-0.207652 -0.5081,-0.145181 -0.84828,-0.554026 -1.245947,-0.872163 -0.179542,-0.143635 -0.393838,-0.238448 -0.581452,-0.332255 -0.206212,-0.103106 -0.380146,-0.294535 -0.581437,-0.415312 -0.258865,-0.155324 -0.557718,-0.252494 -0.830625,-0.373784 -0.331566,-0.14736 -1.022414,-0.23331 -1.287484,-0.498379 -0.123335,-0.123335 -0.244231,-0.24671 -0.415321,-0.332255 -0.06548,-0.03274 -0.810283,-0.228015 -0.747567,-0.290718 0.02975,-0.02975 0.631175,0.328379 0.913699,0.415313 0.719883,0.22151 1.486666,0.242502 2.201167,0.456849 0.432078,0.129622 1.106453,0.395387 1.536673,0.456842 0.153255,0.02189 0.350772,-6.33e-4 0.498378,0.04154 0.04799,0.01371 0.07724,0.06727 0.124595,0.08306 0.133062,0.04435 0.482337,0.142689 0.622973,0.166131 0.181196,0.0302 0.404245,-0.0028 0.581436,0.04153 0.111287,0.02782 0.200164,0.111785 0.290727,0.166124 0.193728,0.11624 0.458646,0.202495 0.66451,0.290726 0.295024,0.126443 0.614954,0.06486 0.913683,0.124594 0.33265,0.06652 0.669675,0.208944 0.996757,0.290719 0.481948,0.120492 1.007514,0.05494 1.495136,0.124594 0.32082,0.04583 0.634068,0.12598 0.955237,0.166124 0.345271,0.04316 0.731355,0 1.079815,0 0.372601,0 0.744539,0.04154 1.121351,0.04154 0.0691,0 0.529709,-0.05174 0.581437,0 0.183662,0.183698 1.050172,0.08306 1.32902,0.08306 z"
         id="path11592" />
    </g>
  </g>
  <g
     id="g13366"
     style="display:inline">
    <path
       id="path14659"
       style="display:inline;opacity:0.2;fill:#989898;fill-opacity:1;stroke:none;stroke-width:0;stroke-linecap:round;stroke-linejoin:round;stroke-dasharray:none;stroke-opacity:1"
       inkscape:transform-center-x="-0.069744455"
       inkscape:transform-center-y="-2.7258319"
       sodipodi:type="inkscape:offset"
       inkscape:radius="0.83052647"
       inkscape:original="M 18.380859 -4.46875 L 12.957031 12.980469 L -4.4921875 18.404297 L 10.427734 28.953125 L 10.193359 47.224609 L 24.837891 36.296875 L 42.142578 42.164062 L 36.273438 24.859375 L 47.203125 10.216797 L 28.931641 10.449219 L 18.380859 -4.46875 z "
       d="m 18.25,-5.2890625 a 0.83060952,0.83060952 0 0 0 -0.662109,0.5742187 L 12.292969,12.316406 -4.7382812,17.611328 a 0.83060952,0.83060952 0 0 0 -0.2324219,1.470703 l 14.5625,10.296875 -0.2285157,17.835938 a 0.83060952,0.83060952 0 0 0 1.3261718,0.675781 L 24.984375,37.222656 41.875,42.951172 a 0.83060952,0.83060952 0 0 0 1.054688,-1.054688 L 37.201172,25.005859 47.869141,10.712891 A 0.83060952,0.83060952 0 0 0 47.193359,9.3867188 L 29.357422,9.6132812 19.058594,-4.9492188 A 0.83060952,0.83060952 0 0 0 18.25,-5.2890625 Z"
       transform="matrix(1.0434734,0.17439388,-0.17357447,1.0483994,28.199837,22.337074)" />
    <path
       id="path14663"
       style="display:inline;opacity:0.1;fill:#989898;fill-opacity:1;stroke:none;stroke-width:0;stroke-linecap:round;stroke-linejoin:round;stroke-dasharray:none;stroke-opacity:1"
       inkscape:transform-center-x="-0.069744455"
       inkscape:transform-center-y="-2.7258319"
       sodipodi:type="inkscape:offset"
       inkscape:radius="1.4249061"
       inkscape:original="M 18.380859 -4.46875 L 12.957031 12.980469 L -4.4921875 18.404297 L 10.427734 28.953125 L 10.193359 47.224609 L 24.837891 36.296875 L 42.142578 42.164062 L 36.273438 24.859375 L 47.203125 10.216797 L 28.931641 10.449219 L 18.380859 -4.46875 z "
       d="m 18.158203,-5.875 a 1.4250486,1.4250486 0 0 0 -1.138672,0.9824219 L 11.818359,11.841797 -4.9160156,17.042969 a 1.4250486,1.4250486 0 0 0 -0.3984375,2.52539 L 8.9941406,29.683594 8.7695312,47.207031 a 1.4250486,1.4250486 0 0 0 2.2753908,1.160157 l 14.044922,-10.480469 16.595703,5.626953 a 1.4250486,1.4250486 0 0 0 1.806641,-1.806641 L 37.863281,25.111328 48.345703,11.068359 A 1.4250486,1.4250486 0 0 0 47.185547,8.7929688 L 29.662109,9.015625 19.544922,-5.2910156 A 1.4250486,1.4250486 0 0 0 18.158203,-5.875 Z"
       transform="matrix(1.0434734,0.17439388,-0.17357447,1.0483994,28.199837,22.337074)" />
    <path
       id="path14666"
       style="display:inline;opacity:0.05;fill:#989898;fill-opacity:1;stroke:none;stroke-width:0;stroke-linecap:round;stroke-linejoin:round;stroke-dasharray:none;stroke-opacity:1"
       inkscape:transform-center-x="-0.069744455"
       inkscape:transform-center-y="-2.7258319"
       sodipodi:type="inkscape:offset"
       inkscape:radius="2.205301"
       inkscape:original="M 18.380859 -4.46875 L 12.957031 12.980469 L -4.4921875 18.404297 L 10.427734 28.953125 L 10.193359 47.224609 L 24.837891 36.296875 L 42.142578 42.164062 L 36.273438 24.859375 L 47.203125 10.216797 L 28.931641 10.449219 L 18.380859 -4.46875 z "
       d="m 18.035156,-6.6464844 a 2.2055216,2.2055216 0 0 0 -1.759765,1.5234375 L 11.195312,11.21875 -5.1464844,16.298828 a 2.2055216,2.2055216 0 0 0 -0.6191406,3.90625 l 13.9726562,9.878906 -0.21875,17.113282 a 2.2055216,2.2055216 0 0 0 3.5234378,1.794922 l 13.716797,-10.234376 16.205078,5.494141 a 2.2055216,2.2055216 0 0 0 2.796875,-2.796875 L 38.734375,25.25 48.970703,11.535156 A 2.2055216,2.2055216 0 0 0 47.175781,8.0117188 L 30.0625,8.2285156 20.181641,-5.7421875 a 2.2055216,2.2055216 0 0 0 -2.146485,-0.9042969 z"
       transform="matrix(1.0434734,0.17439388,-0.17357447,1.0483994,28.199837,22.337074)" />
    <path
       sodipodi:type="star"
       style="display:inline;fill:#989898;fill-opacity:1;stroke:none;stroke-width:0;stroke-linecap:round;stroke-linejoin:round;stroke-dasharray:none;stroke-opacity:1"
       id="path2320"
       inkscape:flatsided="false"
       sodipodi:sides="5"
       sodipodi:cx="22.68572"
       sodipodi:cy="22.707981"
       sodipodi:r1="27.515903"
       sodipodi:r2="13.757952"
       sodipodi:arg1="0.78539816"
       sodipodi:arg2="1.4137167"
       inkscape:rounded="0"
       inkscape:randomized="0"
       d="M 42.142402,42.164663 24.837938,36.29655 10.193762,47.224831 10.427296,28.95396 -4.4914166,18.403546 12.95738,12.97964 18.381285,-4.4691559 28.9317,10.449556 47.20257,10.216022 36.274289,24.860199 Z"
       inkscape:transform-center-x="-0.069744455"
       inkscape:transform-center-y="-2.7258319"
       transform="matrix(1.0434734,0.17439388,-0.17357447,1.0483994,28.199837,22.337074)" />
    <path
       sodipodi:type="star"
       style="display:inline;fill:url(#linearGradient2862);fill-opacity:1;stroke:none;stroke-width:0;stroke-linecap:round;stroke-linejoin:round;stroke-dasharray:none;stroke-opacity:1"
       id="path342"
       inkscape:flatsided="false"
       sodipodi:sides="5"
       sodipodi:cx="22.68572"
       sodipodi:cy="22.707981"
       sodipodi:r1="27.515903"
       sodipodi:r2="13.757952"
       sodipodi:arg1="0.78539816"
       sodipodi:arg2="1.4137167"
       inkscape:rounded="0"
       inkscape:randomized="0"
       d="M 42.142402,42.164663 24.837938,36.29655 10.193762,47.224831 10.427296,28.95396 -4.4914166,18.403546 12.95738,12.97964 18.381285,-4.4691559 28.9317,10.449556 47.20257,10.216022 36.274289,24.860199 Z"
       inkscape:transform-center-x="-0.069744455"
       inkscape:transform-center-y="-2.7130235"
       transform="matrix(1.0434734,0.17357447,-0.17357447,1.0434734,28.199837,21.62409)" />
    <path
       sodipodi:type="star"
       style="display:inline;fill:url(#linearGradient3212);fill-opacity:1;stroke:none;stroke-width:0;stroke-linecap:round;stroke-linejoin:round;stroke-dasharray:none;stroke-opacity:1"
       id="path3209"
       inkscape:flatsided="false"
       sodipodi:sides="5"
       sodipodi:cx="22.68572"
       sodipodi:cy="22.707981"
       sodipodi:r1="27.515903"
       sodipodi:r2="13.757952"
       sodipodi:arg1="0.78539816"
       sodipodi:arg2="1.4137167"
       inkscape:rounded="0"
       inkscape:randomized="0"
       d="M 42.142402,42.164663 24.837938,36.29655 10.193762,47.224831 10.427296,28.95396 -4.4914166,18.403546 12.95738,12.97964 18.381285,-4.4691559 28.9317,10.449556 47.20257,10.216022 36.274289,24.860199 Z"
       inkscape:transform-center-x="-0.062471765"
       inkscape:transform-center-y="-2.4120443"
       transform="matrix(0.93466589,0.15431836,-0.1554751,0.92771188,30.28525,24.077173)" />
    <path
       id="ellipse6268"
       style="display:inline;opacity:0.5;fill:none;fill-opacity:1;stroke:#8e8e8e;stroke-width:7.64837;stroke-linecap:round;stroke-linejoin:round;stroke-dasharray:none;stroke-opacity:1"
       sodipodi:type="inkscape:offset"
       inkscape:radius="1.0931611"
       inkscape:original="M 48 17.287109 A 32.886421 32.565025 0 0 0 15.113281 49.851562 A 32.886421 32.565025 0 0 0 48 82.416016 A 32.886421 32.565025 0 0 0 80.886719 49.851562 A 32.886421 32.565025 0 0 0 48 17.287109 z "
       d="m 48,16.193359 c -8.892989,-7.9e-5 -17.732102,3.625784 -24.023438,9.855469 -6.291335,6.229685 -9.956874,14.988265 -9.957031,23.802734 1.56e-4,8.81447 3.665696,17.57305 9.957031,23.802735 6.291336,6.229685 15.130449,9.855548 24.023438,9.855469 8.892989,7.9e-5 17.732102,-3.625784 24.023438,-9.855469 6.291335,-6.229685 9.956875,-14.988265 9.957031,-23.802735 C 81.980312,41.037093 78.314773,32.278513 72.023438,26.048828 65.732102,19.819143 56.892989,16.19328 48,16.193359 Z" />
    <path
       id="path6273"
       style="display:inline;opacity:0.25;fill:none;fill-opacity:1;stroke:#8e8e8e;stroke-width:7.64837;stroke-linecap:round;stroke-linejoin:round;stroke-dasharray:none;stroke-opacity:1"
       sodipodi:type="inkscape:offset"
       inkscape:radius="2.0922403"
       inkscape:original="M 48 17.287109 A 32.886421 32.565025 0 0 0 15.113281 49.851562 A 32.886421 32.565025 0 0 0 48 82.416016 A 32.886421 32.565025 0 0 0 80.886719 49.851562 A 32.886421 32.565025 0 0 0 48 17.287109 z "
       d="m 48,15.195312 c -9.151989,-8.2e-5 -18.249379,3.728867 -24.726562,10.142579 -6.477184,6.413711 -10.251793,15.435064 -10.251954,24.513671 1.61e-4,9.078608 3.77477,18.09996 10.251954,24.513672 C 29.750621,80.778946 38.84801,84.507895 48,84.507812 57.15199,84.507895 66.249379,80.778946 72.726562,74.365234 79.203746,67.951522 82.978355,58.93017 82.978516,49.851562 82.978355,40.772955 79.203746,31.751602 72.726562,25.337891 66.249379,18.924179 57.151989,15.19523 48,15.195312 Z" />
    <path
       id="path6276"
       style="display:inline;opacity:0.05;fill:none;fill-opacity:1;stroke:#8e8e8e;stroke-width:7.64837;stroke-linecap:round;stroke-linejoin:round;stroke-dasharray:none;stroke-opacity:1"
       sodipodi:type="inkscape:offset"
       inkscape:radius="3.090276"
       inkscape:original="M 48 17.287109 A 32.886421 32.565025 0 0 0 15.113281 49.851562 A 32.886421 32.565025 0 0 0 48 82.416016 A 32.886421 32.565025 0 0 0 80.886719 49.851562 A 32.886421 32.565025 0 0 0 48 17.287109 z "
       d="m 48,14.197266 c -9.41072,-8.5e-5 -18.764897,3.834094 -25.427734,10.43164 -6.662838,6.597547 -10.548663,15.880186 -10.548828,25.222656 1.65e-4,9.342471 3.88599,18.62511 10.548828,25.222657 C 29.235103,81.671765 38.58928,85.505944 48,85.505859 57.41072,85.505944 66.764897,81.671765 73.427734,75.074219 80.090572,68.476672 83.976397,59.194033 83.976562,49.851562 83.976397,40.509092 80.090572,31.226453 73.427734,24.628906 66.764897,18.03136 57.41072,14.197181 48,14.197266 Z" />
    <ellipse
       style="display:inline;fill:none;fill-opacity:1;stroke:#8e8e8e;stroke-width:7.64837;stroke-linecap:round;stroke-linejoin:round;stroke-dasharray:none;stroke-opacity:1"
       id="path1004"
       cx="48"
       cy="49.851646"
       rx="32.886421"
       ry="32.565025" />
    <ellipse
       style="display:inline;fill:none;fill-opacity:1;stroke:url(#linearGradient2362);stroke-width:7.61432;stroke-linecap:round;stroke-linejoin:round;stroke-dasharray:none;stroke-opacity:1"
       id="ellipse2323"
       cx="48"
       cy="49"
       rx="32.903446"
       ry="32.259014" />
    <ellipse
       style="display:inline;fill:none;fill-opacity:1;stroke:url(#linearGradient4222);stroke-width:4.714;stroke-linecap:round;stroke-linejoin:round;stroke-dasharray:none;stroke-opacity:1"
       id="ellipse2323-5"
       cx="48.140579"
       cy="48.731598"
       rx="32.903446"
       ry="32.259014" />
  </g>
  <g
     id="g14657"
     style="display:inline">
    <path
       id="path8-7-9-7-0-6"
       d="m 10.457529,17.383012 c 0.132526,-1.020224 0.240009,-1.127706 1.26023,-1.260233 -1.020221,-0.132633 -1.127704,-0.240008 -1.26023,-1.260232 -0.132633,1.020224 -0.240009,1.127599 -1.2602299,1.260232 1.0202209,0.132527 1.1275969,0.240009 1.2602299,1.260233"
       style="fill:#ffffff;fill-opacity:1;fill-rule:nonzero;stroke:none;stroke-width:0.00107483" />
    <path
       id="path8-7-9-7-0-6-9"
       d="m 19.868379,18.252157 c 0.212822,-1.638353 0.385427,-1.810956 2.023773,-2.023778 -1.638346,-0.212992 -1.810951,-0.385423 -2.023773,-2.023776 -0.212992,1.638353 -0.385424,1.810784 -2.023771,2.023776 1.638347,0.212822 1.810779,0.385425 2.023771,2.023778"
       style="fill:#ffffff;fill-opacity:1;fill-rule:nonzero;stroke:none;stroke-width:0.00172604" />
    <path
       id="path8-7-9-7-0-6-3"
       d="m 13.71508,25.895897 c 0.132526,-1.020224 0.240009,-1.127706 1.26023,-1.260233 -1.020221,-0.132632 -1.127704,-0.240008 -1.26023,-1.260231 -0.132633,1.020223 -0.240009,1.127599 -1.26023,1.260231 1.020221,0.132527 1.127597,0.240009 1.26023,1.260233"
       style="fill:#ffffff;fill-opacity:1;fill-rule:nonzero;stroke:none;stroke-width:0.00107483" />
    <path
       id="path8-7-9-7-0-6-6"
       d="m 38.128659,29.393289 c 0.132526,-1.020224 0.240009,-1.127706 1.26023,-1.260233 -1.020221,-0.132633 -1.127704,-0.240008 -1.26023,-1.260232 -0.132633,1.020224 -0.240009,1.127599 -1.26023,1.260232 1.020221,0.132527 1.127597,0.240009 1.26023,1.260233"
       style="fill:#ffffff;fill-opacity:1;fill-rule:nonzero;stroke:none;stroke-width:0.00107483" />
    <path
       id="path8-7-9-7-0-6-0"
       d="m 35.567958,36.61666 c 0.194291,-1.495707 0.351867,-1.653282 1.84757,-1.847574 -1.495703,-0.194448 -1.653279,-0.351866 -1.84757,-1.847573 -0.194448,1.495707 -0.351867,1.653125 -1.84757,1.847573 1.495703,0.194292 1.653122,0.351867 1.84757,1.847574"
       style="fill:#ffffff;fill-opacity:1;fill-rule:nonzero;stroke:none;stroke-width:0.00157576" />
    <path
       id="path8-7-9-7-0-6-62"
       d="m 24.327212,54.48174 c 0.132526,-1.020224 0.240009,-1.127706 1.26023,-1.260233 -1.020221,-0.132633 -1.127704,-0.240008 -1.26023,-1.260232 -0.132633,1.020224 -0.240009,1.127599 -1.26023,1.260232 1.020221,0.132527 1.127597,0.240009 1.26023,1.260233"
       style="fill:#ffffff;fill-opacity:1;fill-rule:nonzero;stroke:none;stroke-width:0.00107483" />
    <path
       id="path8-7-9-7-0-6-61"
       d="m 27.621332,61.171914 c 0.234439,-1.804776 0.424576,-1.994912 2.229347,-2.229352 -1.804771,-0.234628 -1.994908,-0.424575 -2.229347,-2.229351 -0.234628,1.804776 -0.424576,1.994723 -2.229347,2.229351 1.804771,0.23444 1.994719,0.424576 2.229347,2.229352"
       style="fill:#ffffff;fill-opacity:1;fill-rule:nonzero;stroke:none;stroke-width:0.00190137" />
    <path
       id="path8-7-9-7-0-6-8"
       d="m 30.678222,55.996573 c 0.08311,-0.639836 0.150522,-0.707243 0.790356,-0.790358 -0.639834,-0.08318 -0.707242,-0.150521 -0.790356,-0.790357 -0.08318,0.639836 -0.150522,0.707176 -0.790356,0.790357 0.639834,0.08311 0.707175,0.150522 0.790356,0.790358"
       style="fill:#ffffff;fill-opacity:1;fill-rule:nonzero;stroke:none;stroke-width:0.000674082" />
    <path
       id="path8-7-9-7-0-6-7"
       d="m 12.149782,74.644977 c 0.203557,-1.567036 0.368648,-1.732126 1.935679,-1.935683 -1.567031,-0.203721 -1.732122,-0.368646 -1.935679,-1.935682 -0.20372,1.567036 -0.368647,1.731961 -1.935678,1.935682 1.567031,0.203557 1.731958,0.368647 1.935678,1.935683"
       style="fill:#ffffff;fill-opacity:1;fill-rule:nonzero;stroke:none;stroke-width:0.00165091" />
    <path
       id="path8-7-9-7-0-6-92"
       d="m 16.483666,83.642654 c 0.333263,-2.565559 0.603551,-2.835845 3.169102,-3.16911 -2.565551,-0.333533 -2.835839,-0.603549 -3.169102,-3.169108 -0.333533,2.565559 -0.603551,2.835575 -3.169103,3.169108 2.565552,0.333265 2.83557,0.603551 3.169103,3.16911"
       style="fill:#ffffff;fill-opacity:1;fill-rule:nonzero;stroke:none;stroke-width:0.00270288" />
    <path
       id="path8-7-9-7-0-6-02"
       d="m 23.552725,85.249028 c 0.132526,-1.020224 0.240009,-1.127706 1.26023,-1.260233 -1.020221,-0.132633 -1.127704,-0.240008 -1.26023,-1.260232 -0.132633,1.020224 -0.240009,1.127599 -1.26023,1.260232 1.020221,0.132527 1.127597,0.240009 1.26023,1.260233"
       style="fill:#ffffff;fill-opacity:1;fill-rule:nonzero;stroke:none;stroke-width:0.00107483" />
    <path
       id="path8-7-9-7-0-6-37"
       d="m 11.355526,86.072832 c 0.132526,-1.020224 0.240009,-1.127706 1.26023,-1.260233 -1.020221,-0.132633 -1.127704,-0.240008 -1.26023,-1.260232 -0.132633,1.020224 -0.240009,1.127599 -1.26023,1.260232 1.020221,0.132527 1.127597,0.240009 1.26023,1.260233"
       style="fill:#ffffff;fill-opacity:1;fill-rule:nonzero;stroke:none;stroke-width:0.00107483" />
    <path
       id="path8-7-9-7-0-6-5"
       d="m 74.648666,14.202173 c 0.17885,-1.376839 0.323903,-1.521891 1.700738,-1.700743 -1.376835,-0.178994 -1.521888,-0.323902 -1.700738,-1.700741 -0.178995,1.376839 -0.323904,1.521747 -1.700739,1.700741 1.376835,0.178852 1.521744,0.323904 1.700739,1.700743"
       style="fill:#ffffff;fill-opacity:1;fill-rule:nonzero;stroke:none;stroke-width:0.00145053" />
    <path
       id="path8-7-9-7-0-6-922"
       d="m 79.074679,22.52577 c 0.35797,-2.779524 0.648295,-3.072351 3.404043,-3.433411 -2.755748,-0.361349 -3.046073,-0.653884 -3.404043,-3.433409 -0.358258,2.779525 -0.648295,3.07206 -3.404042,3.433409 2.755747,0.36106 3.045784,0.653887 3.404042,3.433411"
       style="fill:#ffffff;fill-opacity:1;fill-rule:nonzero;stroke:none;stroke-width:0.00291575" />
    <path
       id="path8-7-9-7-0-6-89"
       d="m 82.208526,27.9424 c 0.132526,-1.020224 0.240009,-1.127705 1.26023,-1.260233 -1.020221,-0.132632 -1.127704,-0.240007 -1.26023,-1.260231 -0.132633,1.020224 -0.240009,1.127599 -1.26023,1.260231 1.020221,0.132528 1.127597,0.240009 1.26023,1.260233"
       style="fill:#ffffff;fill-opacity:1;fill-rule:nonzero;stroke:none;stroke-width:0.00107483" />
    <path
       id="path8-7-9-7-0-6-73"
       d="m 85.472318,17.983824 c 0.09856,-0.639836 0.178487,-0.707244 0.937194,-0.790359 -0.758707,-0.08318 -0.838638,-0.150521 -0.937194,-0.790358 -0.09864,0.639837 -0.178487,0.707177 -0.937194,0.790358 0.758707,0.08311 0.838559,0.150523 0.937194,0.790359"
       style="fill:#ffffff;fill-opacity:1;fill-rule:nonzero;stroke:none;stroke-width:0.000734034" />
    <path
       id="path8-7-9-7-0-6-612"
       d="m 87.521696,32.986837 c 0.132526,-1.020224 0.240009,-1.127706 1.26023,-1.260233 -1.020221,-0.132633 -1.127704,-0.240008 -1.26023,-1.260232 -0.132633,1.020224 -0.240009,1.127599 -1.26023,1.260232 1.020221,0.132527 1.127597,0.240009 1.26023,1.260233"
       style="fill:#ffffff;fill-opacity:1;fill-rule:nonzero;stroke:none;stroke-width:0.00107483" />
    <path
       id="path8-7-9-7-0-6-93"
       d="m 64.780885,12.349536 c 0.132526,-1.020224 0.240009,-1.127706 1.26023,-1.260233 -1.020221,-0.132633 -1.127704,-0.240008 -1.26023,-1.2602321 -0.132633,1.0202241 -0.240009,1.1275991 -1.26023,1.2602321 1.020221,0.132527 1.127597,0.240009 1.26023,1.260233"
       style="fill:#ffffff;fill-opacity:1;fill-rule:nonzero;stroke:none;stroke-width:0.00107483" />
    <path
       id="path8-7-9-7-0-6-1"
       d="m 32.828932,12.535142 c 0.132526,-1.020224 0.240009,-1.127706 1.26023,-1.260233 -1.020221,-0.132633 -1.127704,-0.240008 -1.26023,-1.260232 -0.132633,1.020224 -0.240009,1.127599 -1.26023,1.260232 1.020221,0.132527 1.127597,0.240009 1.26023,1.260233"
       style="fill:#ffffff;fill-opacity:1;fill-rule:nonzero;stroke:none;stroke-width:0.00107483" />
  </g>
</svg>
