<?xml version="1.0" encoding="UTF-8" standalone="no"?>
<!-- Created with Inkscape (http://www.inkscape.org/) -->

<svg
   version="1.0"
   width="96"
   height="96"
   id="svg2408"
   sodipodi:docname="steam_icon_440.svg"
   inkscape:version="1.2.2 (b0a8486541, 2022-12-01)"
   xml:space="preserve"
   xmlns:inkscape="http://www.inkscape.org/namespaces/inkscape"
   xmlns:sodipodi="http://sodipodi.sourceforge.net/DTD/sodipodi-0.dtd"
   xmlns:xlink="http://www.w3.org/1999/xlink"
   xmlns="http://www.w3.org/2000/svg"
   xmlns:svg="http://www.w3.org/2000/svg"
   xmlns:rdf="http://www.w3.org/1999/02/22-rdf-syntax-ns#"
   xmlns:cc="http://creativecommons.org/ns#"
   xmlns:dc="http://purl.org/dc/elements/1.1/"><sodipodi:namedview
     id="namedview68"
     pagecolor="#ffffff"
     bordercolor="#000000"
     borderopacity="0.25"
     inkscape:showpageshadow="2"
     inkscape:pageopacity="0.0"
     inkscape:pagecheckerboard="0"
     inkscape:deskcolor="#d1d1d1"
     showgrid="false"
     inkscape:zoom="7.9999999"
     inkscape:cx="54.062501"
     inkscape:cy="44.375"
     inkscape:current-layer="svg2408" /><defs
     id="defs2410"><linearGradient
       inkscape:collect="always"
       id="linearGradient29584"><stop
         style="stop-color:#250404;stop-opacity:1;"
         offset="0"
         id="stop29580" /><stop
         style="stop-color:#613b05;stop-opacity:1;"
         offset="1"
         id="stop29582" /></linearGradient><linearGradient
       id="linearGradient16511"><stop
         id="stop16507"
         style="stop-color:#e9e9e9;stop-opacity:1;"
         offset="0" /><stop
         id="stop16509"
         style="stop-color:#ff8815;stop-opacity:0;"
         offset="1" /></linearGradient><linearGradient
       x1="45.447727"
       y1="92.539597"
       x2="45.447727"
       y2="7.0165396"
       id="linearGradient17040"
       gradientUnits="userSpaceOnUse"
       gradientTransform="matrix(1.0058652,0,0,0.994169,100,0)"><stop
         id="stop17036"
         style="stop-color:#1d1d1d;stop-opacity:1;"
         offset="0" /><stop
         id="stop17038"
         style="stop-color:#000000;stop-opacity:0.58823532"
         offset="1" /></linearGradient><linearGradient
       id="linearGradient3729"><stop
         id="stop3731"
         style="stop-color:#1c59ad;stop-opacity:1"
         offset="0" /><stop
         id="stop3733"
         style="stop-color:#377ad6;stop-opacity:1"
         offset="1" /></linearGradient><linearGradient
       x1="45.447727"
       y1="92.539597"
       x2="45.447727"
       y2="7.0165396"
       id="ButtonShadow"
       gradientUnits="userSpaceOnUse"
       gradientTransform="scale(1.0058652,0.994169)"><stop
         id="stop3750"
         style="stop-color:#000000;stop-opacity:1"
         offset="0" /><stop
         id="stop3752"
         style="stop-color:#000000;stop-opacity:0.58823532"
         offset="1" /></linearGradient><linearGradient
       id="linearGradient3737"><stop
         id="stop3739"
         style="stop-color:#ffffff;stop-opacity:1;"
         offset="0" /><stop
         id="stop3741"
         style="stop-color:#ffffff;stop-opacity:0;"
         offset="1" /></linearGradient><linearGradient
       id="linearGradient3700"><stop
         id="stop3702"
         style="stop-color:#b23016;stop-opacity:1;"
         offset="0" /><stop
         id="stop3704"
         style="stop-color:#fc8f27;stop-opacity:1;"
         offset="1" /></linearGradient><linearGradient
       x1="48"
       y1="90"
       x2="48"
       y2="5.9877172"
       id="linearGradient3706"
       xlink:href="#linearGradient3700"
       gradientUnits="userSpaceOnUse" /><filter
       color-interpolation-filters="sRGB"
       id="filter3174"
       x="-0.047720931"
       y="-0.048282354"
       width="1.0954419"
       height="1.0965647"><feGaussianBlur
         stdDeviation="1.71"
         id="feGaussianBlur3176" /></filter><linearGradient
       x1="36.357143"
       y1="6"
       x2="36.357143"
       y2="63.893143"
       id="linearGradient3188"
       xlink:href="#linearGradient3737"
       gradientUnits="userSpaceOnUse" /><linearGradient
       x1="45.447727"
       y1="92.539597"
       x2="45.447727"
       y2="7.0165396"
       id="ButtonShadow-0"
       gradientUnits="userSpaceOnUse"
       gradientTransform="matrix(1.0058652,0,0,0.994169,100,0)"><stop
         id="stop3750-8"
         style="stop-color:#000000;stop-opacity:1"
         offset="0" /><stop
         id="stop3752-5"
         style="stop-color:#000000;stop-opacity:0.58823532"
         offset="1" /></linearGradient><linearGradient
       x1="32.251034"
       y1="6.1317081"
       x2="32.251034"
       y2="90.238609"
       id="linearGradient3780"
       xlink:href="#ButtonShadow-0"
       gradientUnits="userSpaceOnUse"
       gradientTransform="matrix(1.0238095,0,0,1.0119048,-1.1428571,-98.071429)" /><linearGradient
       x1="32.251034"
       y1="6.1317081"
       x2="32.251034"
       y2="90.238609"
       id="linearGradient3772"
       xlink:href="#ButtonShadow-0"
       gradientUnits="userSpaceOnUse"
       gradientTransform="matrix(1.0238095,0,0,1.0119048,-1.1428571,-98.071429)" /><linearGradient
       x1="32.251034"
       y1="6.1317081"
       x2="32.251034"
       y2="90.238609"
       id="linearGradient3725"
       xlink:href="#linearGradient17040"
       gradientUnits="userSpaceOnUse"
       gradientTransform="matrix(1.0238095,0,0,1.0119048,-1.1428571,-98.071429)" /><linearGradient
       x1="32.251034"
       y1="6.1317081"
       x2="32.251034"
       y2="90.238609"
       id="linearGradient3721"
       xlink:href="#ButtonShadow-0"
       gradientUnits="userSpaceOnUse"
       gradientTransform="translate(0,-97)" /><linearGradient
       x1="32.251034"
       y1="6.1317081"
       x2="32.251034"
       y2="90.238609"
       id="linearGradient3760"
       xlink:href="#ButtonShadow-0"
       gradientUnits="userSpaceOnUse"
       gradientTransform="matrix(1.0238095,0,0,1.0119048,-1.1428571,-98.071429)" /><linearGradient
       id="linearGradient3737-0"><stop
         id="stop3739-6"
         style="stop-color:#ffffff;stop-opacity:1;"
         offset="0" /><stop
         id="stop3741-0"
         style="stop-color:#ffffff;stop-opacity:0;"
         offset="1" /></linearGradient><radialGradient
       cx="48"
       cy="90.171875"
       r="42"
       fx="48"
       fy="90.171875"
       id="radialGradient2903"
       xlink:href="#linearGradient3737-0"
       gradientUnits="userSpaceOnUse"
       gradientTransform="matrix(1.1573129,0,0,0.99590774,-7.551021,0.1971319)" /><clipPath
       id="clipPath3782"><path
         d="m -98,6 c -3.324,0 -6,2.676 -6,6 l 0,72 c 0,3.324 2.676,6 6,6 l 72,0 c 3.324,0 6,-2.676 6,-6 l 0,-72 c 0,-3.324 -2.676,-6 -6,-6 l -72,0 z m 59.0625,12 C -38.336494,17.9909 -38,18.03125 -38,18.03125 l 0,12.0625 C -50.051065,30.305506 -53,42.0625 -53,42.0625 l 9.0625,0 0,12.0625 -14.09375,0 C -66.507844,80.276885 -86,77.9375 -86,77.9375 l 0,-12.0625 c 0,0 12.376145,2.298313 18.6875,-20.75 6.908061,-25.227422 24.167961,-27.061294 28.375,-27.125 z"
         inkscape:connector-curvature="0"
         id="path3784"
         style="fill:#ff00ff;fill-opacity:1;fill-rule:nonzero;stroke:none" /></clipPath><filter
       x="-0.18283333"
       y="-0.14622227"
       width="1.3656667"
       height="1.2924143"
       color-interpolation-filters="sRGB"
       id="filter3786"><feGaussianBlur
         id="feGaussianBlur3788"
         stdDeviation="3.24" /></filter><linearGradient
       x1="46.906918"
       y1="75.471306"
       x2="46.906918"
       y2="36.246487"
       id="linearGradient3745"
       xlink:href="#linearGradient3729"
       gradientUnits="userSpaceOnUse"
       gradientTransform="translate(-2)" /><linearGradient
       id="linearGradient3737-9"><stop
         id="stop3739-2"
         style="stop-color:#ffb770;stop-opacity:1;"
         offset="0" /><stop
         id="stop3741-1"
         style="stop-color:#ff8815;stop-opacity:0;"
         offset="1" /></linearGradient><clipPath
       id="clipPath3613"><rect
         width="84"
         height="84"
         rx="6"
         ry="6"
         x="6"
         y="6"
         id="rect3615"
         style="fill:#ffffff;fill-opacity:1;fill-rule:nonzero;stroke:none" /></clipPath><filter
       x="-0.19578789"
       y="-0.19578789"
       width="1.3915758"
       height="1.3915758"
       color-interpolation-filters="sRGB"
       id="filter3794"><feGaussianBlur
         id="feGaussianBlur3796"
         stdDeviation="5.28" /></filter><linearGradient
       x1="48"
       y1="20.220806"
       x2="48"
       y2="138.66119"
       id="linearGradient4186"
       xlink:href="#linearGradient3737-9"
       gradientUnits="userSpaceOnUse" /><filter
       id="Gaussian_Blur"
       x="-0.027508276"
       y="-0.027507891"
       width="1.0550166"
       height="1.0550158">
	<feGaussianBlur
   stdDeviation="2.4652926"
   in="SourceGraphic"
   id="feGaussianBlur14286" />
</filter><linearGradient
       id="SVGID_1_"
       gradientUnits="userSpaceOnUse"
       x1="240.5625"
       y1="765.26947"
       x2="161.3222"
       y2="416.49271"
       gradientTransform="translate(0,-391)">
		<stop
   offset="0"
   style="stop-color:#5D1F0E"
   id="stop14291" />
		<stop
   offset="1"
   style="stop-color:#D09737"
   id="stop14293" />
	</linearGradient><radialGradient
       id="SVGID_2_"
       cx="131.41409"
       cy="598.875"
       r="304.65121"
       fx="127.5269"
       fy="598.06873"
       gradientTransform="matrix(0.9774,0.2114,-0.1266,0.5851,0.8709,-343.1854)"
       gradientUnits="userSpaceOnUse">
		<stop
   offset="0"
   style="stop-color:#FFFFFF;stop-opacity:0"
   id="stop14298" />
		<stop
   offset="0.4657"
   style="stop-color:#FFFFFF;stop-opacity:0.0804"
   id="stop14300" />
		<stop
   offset="0.9861"
   style="stop-color:#FFFFFF;stop-opacity:0.2143"
   id="stop14302" />
		<stop
   offset="1"
   style="stop-color:#FFFFFF;stop-opacity:0"
   id="stop14304" />
	</radialGradient><filter
       inkscape:collect="always"
       style="color-interpolation-filters:sRGB"
       id="filter20111"
       x="-0.006220389"
       y="-0.0062107486"
       width="1.0124408"
       height="1.0124215"><feGaussianBlur
         inkscape:collect="always"
         stdDeviation="0.92530573"
         id="feGaussianBlur20113" /></filter><filter
       inkscape:collect="always"
       style="color-interpolation-filters:sRGB"
       id="filter29573"
       x="-0.029667794"
       y="-0.029667304"
       width="1.0593356"
       height="1.0593346"><feGaussianBlur
         inkscape:collect="always"
         stdDeviation="3.6702687"
         id="feGaussianBlur29575" /></filter><linearGradient
       inkscape:collect="always"
       xlink:href="#linearGradient29584"
       id="linearGradient29586"
       x1="219.82352"
       y1="379.63101"
       x2="219.82352"
       y2="20.132992"
       gradientUnits="userSpaceOnUse" /><linearGradient
       x1="373.12482"
       y1="91.875"
       x2="363.62491"
       y2="258.54688"
       id="linearGradient4006"
       xlink:href="#linearGradient3737"
       gradientUnits="userSpaceOnUse"
       gradientTransform="matrix(2.1150359,0,0,2.1151016,-571.8264,-201.32255)" /></defs><metadata
     id="metadata2413"><rdf:RDF><cc:Work
         rdf:about=""><dc:format>image/svg+xml</dc:format><dc:type
           rdf:resource="http://purl.org/dc/dcmitype/StillImage" /></cc:Work></rdf:RDF></metadata><g
     id="layer7"
     style="display:inline"><path
       d="m 12,-95.03125 c -5.5110903,0 -10.03125,4.52016 -10.03125,10.03125 v 71 c 0,5.5110902 4.5201598,10.03125 10.03125,10.03125 h 72 c 5.51109,0 10.03125,-4.5201597 10.03125,-10.03125 v -71 c 0,-5.51109 -4.52016,-10.03125 -10.03125,-10.03125 z"
       transform="scale(1,-1)"
       id="path3786"
       style="display:inline;opacity:0.08;fill:url(#linearGradient3760);fill-opacity:1;fill-rule:nonzero;stroke:none" /><path
       d="m 12,-94.03125 c -4.971633,0 -9.03125,4.059617 -9.03125,9.03125 v 71 c 0,4.9716329 4.0596171,9.03125 9.03125,9.03125 h 72 c 4.971633,0 9.03125,-4.059617 9.03125,-9.03125 v -71 c 0,-4.971633 -4.059617,-9.03125 -9.03125,-9.03125 z"
       transform="scale(1,-1)"
       id="path3778"
       style="display:inline;opacity:0.1;fill:url(#linearGradient3780);fill-opacity:1;fill-rule:nonzero;stroke:none" /><path
       d="m 12,-93 c -4.4091333,0 -8,3.590867 -8,8 v 71 c 0,4.4091333 3.5908667,8 8,8 h 72 c 4.409133,0 8,-3.5908667 8,-8 v -71 c 0,-4.409133 -3.590867,-8 -8,-8 z"
       transform="scale(1,-1)"
       id="path3770"
       style="display:inline;opacity:0.2;fill:url(#linearGradient3772);fill-opacity:1;fill-rule:nonzero;stroke:none" /><rect
       width="86"
       height="85"
       rx="7"
       ry="7"
       x="5"
       y="-92"
       transform="scale(1,-1)"
       id="rect3723"
       style="display:inline;opacity:0.3;fill:url(#linearGradient3725);fill-opacity:1;fill-rule:nonzero;stroke:none" /><rect
       width="84"
       height="84"
       rx="6"
       ry="6"
       x="6"
       y="-91"
       transform="scale(1,-1)"
       id="rect3716"
       style="display:inline;opacity:0.45;fill:url(#linearGradient3721);fill-opacity:1;fill-rule:nonzero;stroke:none" /></g><g
     id="layer1"
     style="display:inline"><rect
       width="84"
       height="84"
       rx="6"
       ry="6"
       x="6"
       y="6"
       id="rect2419"
       style="display:inline;fill:url(#linearGradient3706);fill-opacity:1;fill-rule:nonzero;stroke:none" /><path
       d="M 12,6 C 8.676,6 6,8.676 6,12 v 2 68 2 c 0,0.334721 0.04135,0.6507 0.09375,0.96875 0.0487,0.295596 0.09704,0.596915 0.1875,0.875 0.00988,0.03038 0.020892,0.0636 0.03125,0.09375 0.098865,0.287771 0.2348802,0.547452 0.375,0.8125 0.1445918,0.273507 0.3156161,0.535615 0.5,0.78125 0.1843839,0.245635 0.3737765,0.473472 0.59375,0.6875 0.439947,0.428056 0.94291,0.814526 1.5,1.09375 0.278545,0.139612 0.5734731,0.246947 0.875,0.34375 -0.2562018,-0.100222 -0.4867109,-0.236272 -0.71875,-0.375 -0.00741,-0.0044 -0.023866,0.0045 -0.03125,0 -0.031933,-0.0193 -0.062293,-0.04251 -0.09375,-0.0625 -0.120395,-0.0767 -0.2310226,-0.163513 -0.34375,-0.25 -0.1061728,-0.0808 -0.2132809,-0.161112 -0.3125,-0.25 C 8.4783201,88.557317 8.3087904,88.373362 8.15625,88.1875 8.0486711,88.057245 7.9378561,87.922215 7.84375,87.78125 7.818661,87.74287 7.805304,87.69538 7.78125,87.65625 7.716487,87.553218 7.6510225,87.451733 7.59375,87.34375 7.4927417,87.149044 7.3880752,86.928049 7.3125,86.71875 7.30454,86.69694 7.288911,86.6782 7.28125,86.65625 7.2494249,86.5643 7.2454455,86.469419 7.21875,86.375 7.1884177,86.268382 7.1483606,86.171969 7.125,86.0625 7.0521214,85.720988 7,85.364295 7,85 V 83 15 13 C 7,10.218152 9.2181517,8 12,8 h 2 68 2 c 2.781848,0 5,2.218152 5,5 v 2 68 2 c 0,0.364295 -0.05212,0.720988 -0.125,1.0625 -0.04415,0.206893 -0.08838,0.397658 -0.15625,0.59375 -0.0077,0.02195 -0.0233,0.04069 -0.03125,0.0625 -0.06274,0.173739 -0.138383,0.367449 -0.21875,0.53125 -0.04158,0.0828 -0.07904,0.169954 -0.125,0.25 -0.0546,0.09721 -0.126774,0.18835 -0.1875,0.28125 -0.09411,0.140965 -0.204921,0.275995 -0.3125,0.40625 -0.143174,0.17445 -0.303141,0.346998 -0.46875,0.5 -0.01117,0.0102 -0.01998,0.02115 -0.03125,0.03125 -0.138386,0.125556 -0.285091,0.234436 -0.4375,0.34375 -0.102571,0.07315 -0.204318,0.153364 -0.3125,0.21875 -0.0074,0.0045 -0.02384,-0.0044 -0.03125,0 -0.232039,0.138728 -0.462548,0.274778 -0.71875,0.375 0.301527,-0.0968 0.596455,-0.204138 0.875,-0.34375 0.55709,-0.279224 1.060053,-0.665694 1.5,-1.09375 0.219973,-0.214028 0.409366,-0.441865 0.59375,-0.6875 0.184384,-0.245635 0.355408,-0.507743 0.5,-0.78125 0.14012,-0.265048 0.276135,-0.524729 0.375,-0.8125 0.01041,-0.03078 0.02133,-0.06274 0.03125,-0.09375 0.09046,-0.278085 0.1388,-0.579404 0.1875,-0.875 C 89.95865,84.6507 90,84.334721 90,84 V 82 14 12 C 90,8.676 87.324,6 84,6 Z"
       inkscape:connector-curvature="0"
       id="rect3728"
       style="display:inline;opacity:0.5;fill:url(#linearGradient3188);fill-opacity:1;fill-rule:nonzero;stroke:none" /><path
       d="M 12,90 C 8.676,90 6,87.324 6,84 V 82 14 12 c 0,-0.334721 0.04135,-0.6507 0.09375,-0.96875 0.0487,-0.295596 0.09704,-0.596915 0.1875,-0.875 C 6.29113,10.12587 6.302142,10.09265 6.3125,10.0625 6.411365,9.774729 6.5473802,9.515048 6.6875,9.25 6.8320918,8.976493 7.0031161,8.714385 7.1875,8.46875 7.3718839,8.223115 7.5612765,7.995278 7.78125,7.78125 8.221197,7.353194 8.72416,6.966724 9.28125,6.6875 9.559795,6.547888 9.8547231,6.440553 10.15625,6.34375 9.9000482,6.443972 9.6695391,6.580022 9.4375,6.71875 c -0.00741,0.0044 -0.023866,-0.0045 -0.03125,0 -0.031933,0.0193 -0.062293,0.04251 -0.09375,0.0625 -0.120395,0.0767 -0.2310226,0.163513 -0.34375,0.25 -0.1061728,0.0808 -0.2132809,0.161112 -0.3125,0.25 C 8.4783201,7.442683 8.3087904,7.626638 8.15625,7.8125 8.0486711,7.942755 7.9378561,8.077785 7.84375,8.21875 7.818661,8.25713 7.805304,8.30462 7.78125,8.34375 7.716487,8.446782 7.6510225,8.548267 7.59375,8.65625 7.4927417,8.850956 7.3880752,9.071951 7.3125,9.28125 7.30454,9.30306 7.288911,9.3218 7.28125,9.34375 7.2494249,9.4357 7.2454455,9.530581 7.21875,9.625 7.1884177,9.731618 7.1483606,9.828031 7.125,9.9375 7.0521214,10.279012 7,10.635705 7,11 v 2 68 2 c 0,2.781848 2.2181517,5 5,5 h 2 68 2 c 2.781848,0 5,-2.218152 5,-5 V 81 13 11 C 89,10.635705 88.94788,10.279012 88.875,9.9375 88.83085,9.730607 88.78662,9.539842 88.71875,9.34375 88.71105,9.3218 88.69545,9.30306 88.6875,9.28125 88.62476,9.107511 88.549117,8.913801 88.46875,8.75 88.42717,8.6672 88.38971,8.580046 88.34375,8.5 88.28915,8.40279 88.216976,8.31165 88.15625,8.21875 88.06214,8.077785 87.951329,7.942755 87.84375,7.8125 87.700576,7.63805 87.540609,7.465502 87.375,7.3125 87.36383,7.3023 87.35502,7.29135 87.34375,7.28125 87.205364,7.155694 87.058659,7.046814 86.90625,6.9375 86.803679,6.86435 86.701932,6.784136 86.59375,6.71875 c -0.0074,-0.0045 -0.02384,0.0044 -0.03125,0 -0.232039,-0.138728 -0.462548,-0.274778 -0.71875,-0.375 0.301527,0.0968 0.596455,0.204138 0.875,0.34375 0.55709,0.279224 1.060053,0.665694 1.5,1.09375 0.219973,0.214028 0.409366,0.441865 0.59375,0.6875 0.184384,0.245635 0.355408,0.507743 0.5,0.78125 0.14012,0.265048 0.276135,0.524729 0.375,0.8125 0.01041,0.03078 0.02133,0.06274 0.03125,0.09375 0.09046,0.278085 0.1388,0.579404 0.1875,0.875 C 89.95865,11.3493 90,11.665279 90,12 v 2 68 2 c 0,3.324 -2.676,6 -6,6 z"
       inkscape:connector-curvature="0"
       id="path3615"
       style="display:inline;opacity:0.3;fill:url(#radialGradient2903);fill-opacity:1;fill-rule:nonzero;stroke:none" /></g><g
     id="svg3428_copy"
     transform="matrix(0.20792882,0,0,0.20792882,6.9840372,7.460637)">
	
	
		<linearGradient
   id="linearGradient14818"
   gradientUnits="userSpaceOnUse"
   x1="240.5625"
   y1="765.26947"
   x2="161.3222"
   y2="416.49271"
   gradientTransform="translate(0,-391)">
		<stop
   offset="0"
   style="stop-color:#5D1F0E"
   id="stop14814" />
		<stop
   offset="1"
   style="stop-color:#D09737"
   id="stop14816" />
	</linearGradient>
	<path
   fill="url(#SVGID_1_)"
   d="m 245.314,26.641 c 77.276,19.735 134.42,89.813 134.42,173.24 0,1.904 -0.04,3.799 -0.102,5.688 L 259.376,188.464 c -3.521,-18.121 -15.257,-33.295 -31.177,-41.512 z M 148.013,172.62 c 8.216,-15.92 23.391,-27.655 41.511,-31.176 L 206.631,21.186 c -1.89,-0.059 -3.783,-0.099 -5.688,-0.099 -83.425,0 -153.502,57.14 -173.238,134.418 z m 25.669,80.191 c -15.919,-8.217 -27.655,-23.393 -31.175,-41.512 L 22.25,194.192 c -0.059,1.89 -0.099,3.785 -0.099,5.689 0,83.424 57.14,153.501 134.417,173.238 z m 80.19,-25.67 c -8.218,15.92 -23.392,27.654 -41.513,31.176 l -17.106,120.26 c 1.89,0.059 3.785,0.1 5.688,0.1 83.426,0 153.504,-57.143 173.237,-134.42 z"
   id="path14296"
   style="display:inline;fill:#360b04;fill-opacity:1" />
	
		<radialGradient
   id="radialGradient14829"
   cx="131.41409"
   cy="598.875"
   r="304.65121"
   fx="127.5269"
   fy="598.06873"
   gradientTransform="matrix(0.9774,0.2114,-0.1266,0.5851,0.8709,-343.1854)"
   gradientUnits="userSpaceOnUse">
		<stop
   offset="0"
   style="stop-color:#FFFFFF;stop-opacity:0"
   id="stop14821" />
		<stop
   offset="0.4657"
   style="stop-color:#FFFFFF;stop-opacity:0.0804"
   id="stop14823" />
		<stop
   offset="0.9861"
   style="stop-color:#FFFFFF;stop-opacity:0.2143"
   id="stop14825" />
		<stop
   offset="1"
   style="stop-color:#FFFFFF;stop-opacity:0"
   id="stop14827" />
	</radialGradient>
	
<path
   fill="url(#SVGID_1_)"
   d="m 245.314,26.641 c 77.276,19.735 134.42,89.813 134.42,173.24 0,1.904 -0.04,3.799 -0.102,5.688 L 259.376,188.464 c -3.521,-18.121 -15.257,-33.295 -31.177,-41.512 z M 148.013,172.62 c 8.216,-15.92 23.391,-27.655 41.511,-31.176 L 206.631,21.186 c -1.89,-0.059 -3.783,-0.099 -5.688,-0.099 -83.425,0 -153.502,57.14 -173.238,134.418 z m 25.669,80.191 c -15.919,-8.217 -27.655,-23.393 -31.175,-41.512 L 22.25,194.192 c -0.059,1.89 -0.099,3.785 -0.099,5.689 0,83.424 57.14,153.501 134.417,173.238 z m 80.19,-25.67 c -8.218,15.92 -23.392,27.654 -41.513,31.176 l -17.106,120.26 c 1.89,0.059 3.785,0.1 5.688,0.1 83.426,0 153.504,-57.143 173.237,-134.42 z"
   id="path29577"
   style="display:inline;opacity:1;fill:url(#linearGradient29586);fill-opacity:1" /><path
   id="path19757"
   style="display:inline;mix-blend-mode:normal;fill:#341a02;fill-opacity:1;filter:url(#filter20111)"
   d="m 200.94178,21.089266 c -83.42491,0 -153.503515,57.13932 -173.239495,134.417244 l 4.734192,0.67631 C 53.692009,81.185102 122.53648,26.189794 204.34214,26.189794 c 0.52813,0 1.05158,0.02248 1.57806,0.02818 l 0.71389,-5.034776 c -1.89,-0.059 -3.78731,-0.09393 -5.69231,-0.09393 z m 44.37366,5.551404 -17.11448,120.3086 c 15.91999,8.21699 27.65516,23.39713 31.17616,41.51811 l 2.3671,0.33816 c -3.97404,-17.07968 -12.62701,-34.86848 -27.49401,-42.54198 L 248.71579,31.741198 C 320.17095,49.989651 371.77693,111.22202 379.1597,186.29754 373.34121,108.93458 318.35367,45.293413 245.31544,26.64067 Z M 22.254207,194.18786 c -0.059,1.89 -0.103326,3.78831 -0.103326,5.69231 0,41.86273 14.411106,80.34557 38.512278,110.81203 -22.11207,-28.83405 -35.111926,-65.03371 -35.111926,-105.7115 0,-1.904 0.04433,-3.80231 0.103326,-5.69231 l 114.390861,16.96419 c 3.51999,18.11898 17.36126,30.73677 33.28024,38.95376 l -0.95811,6.81949 1.31505,-9.21476 c -15.91898,-8.217 -27.65616,-23.38974 -31.17615,-41.50872 z m 231.618473,32.95149 c -8.21799,15.91998 -23.39713,27.65416 -41.51811,31.17615 l -17.10509,120.26164 c 1.36604,0.0426 2.74184,0.06 4.11424,0.0751 l 16.40059,-115.23625 c 18.12099,-3.52199 33.29073,-15.25617 41.50872,-31.17616 L 372.84744,248.678 c 0.42068,-1.48449 0.95083,-2.92428 1.33384,-4.42421 z m -121.06006,137.9491 c 7.22259,2.98229 14.64668,5.5722 22.30895,7.59913 -7.70964,-2.0471 -15.10287,-4.67169 -22.30895,-7.59913 z" /><path
   id="path18997"
   style="display:inline;opacity:0.511364;fill:none;stroke:#000000;stroke-width:3.40501;filter:url(#filter29573)"
   d="m 200.94336,22.732422 c -82.02752,0 -150.941401,55.762547 -171.113282,131.414058 l 117.330082,16.68946 c 8.37606,-15.47715 23.19059,-26.90658 40.88867,-30.71094 l 16.6914,-117.326172 c -1.2646,-0.02924 -2.52865,-0.06641 -3.79687,-0.06641 z m 45.73047,6.033203 -16.69141,117.332035 c 15.47737,8.3771 26.9085,23.19325 30.71289,40.89257 l 117.32617,16.6875 c 0.0305,-1.26501 0.0684,-2.52881 0.0684,-3.79687 0,-82.02947 -55.76641,-150.944318 -131.41601,-171.115235 z M 23.861328,196.08203 c -0.02983,1.26587 -0.06641,2.53184 -0.06641,3.79883 0,82.02653 55.763459,150.94045 131.414058,171.11328 l 16.68946,-117.33008 c -15.4763,-8.37707 -26.90552,-23.19331 -30.70899,-40.89062 z m 230.863282,32.8418 c -8.37782,15.47703 -23.19174,26.90568 -40.89063,30.71094 l -16.68945,117.33007 c 1.26558,0.0304 2.53154,0.0684 3.79688,0.0684 82.02848,0 150.94236,-55.76547 171.11132,-131.41601 z" /><path
   id="path14296-1"
   style="display:inline;opacity:0.242424;fill:#fffdfd;fill-opacity:1"
   d="M 206.34383,25.615518 189.58574,141.42532 c -18.34028,3.67761 -33.12328,15.08731 -41.57392,30.99714 L 30.934481,155.19526 c -0.45781,1.60251 -1.02329,3.16059 -1.43716,4.78116 L 149.80593,177.0909 c 8.21599,-15.91999 23.38874,-27.65517 41.50872,-31.17616 L 208.42913,25.653091 c -0.69239,-0.02161 -1.39166,-0.02209 -2.0853,-0.03757 z m 136.74483,66.060806 c 23.43342,30.255076 36.87891,68.035926 36.60738,110.109396 -0.007,1.48987 -0.0154,2.29556 -0.0636,3.78069 L 259.34987,188.25006 c -3.58688,-17.67776 -14.20699,-32.04804 -31.12919,-41.32085 22.12765,13.0758 26.99853,28.10167 30.24623,43.59402 l 123.67138,19.56611 c 0,0 0.0282,-3.76012 0.0282,-5.66412 0,-42.41441 -14.40119,-82.09647 -39.07781,-112.748896 z M 24.485283,218.04542 c 5.87758,77.29298 61.411659,140.97666 134.403907,159.6193 l 17.62462,-123.19997 -2.8416,-1.6084 -17.15556,120.3278 C 82.022176,353.97012 31.569233,292.60132 24.485283,218.04542 Z M 374.201,244.42163 c -20.45249,78.56902 -90.71558,133.76961 -173.63401,134.28574 -0.95285,-0.005 -5.27901,-0.14094 -5.27901,-0.14094 l -0.61056,4.48057 c 1.89,0.059 6.15641,0.0939 8.05941,0.0939 83.42733,0.0214 154.78385,-57.58663 173.9158,-138.13697 z"
   sodipodi:nodetypes="ccccccccccccccccccccsccccsccccccc" /></g></svg>
