<?xml version="1.0" encoding="UTF-8" standalone="no"?>
<!-- Created with Inkscape (http://www.inkscape.org/) -->

<svg
   version="1.0"
   width="96"
   height="96"
   id="svg2408"
   sodipodi:docname="steam_icon_500.svg.svg"
   xml:space="preserve"
   inkscape:version="1.2.2 (b0a8486541, 2022-12-01)"
   xmlns:inkscape="http://www.inkscape.org/namespaces/inkscape"
   xmlns:sodipodi="http://sodipodi.sourceforge.net/DTD/sodipodi-0.dtd"
   xmlns:xlink="http://www.w3.org/1999/xlink"
   xmlns="http://www.w3.org/2000/svg"
   xmlns:svg="http://www.w3.org/2000/svg"
   xmlns:rdf="http://www.w3.org/1999/02/22-rdf-syntax-ns#"
   xmlns:cc="http://creativecommons.org/ns#"
   xmlns:dc="http://purl.org/dc/elements/1.1/"><sodipodi:namedview
     id="namedview129587"
     pagecolor="#ffffff"
     bordercolor="#000000"
     borderopacity="0.25"
     inkscape:showpageshadow="2"
     inkscape:pageopacity="0.0"
     inkscape:pagecheckerboard="0"
     inkscape:deskcolor="#d1d1d1"
     showgrid="false"
     inkscape:zoom="2.6744793"
     inkscape:cx="-124.13632"
     inkscape:cy="74.033104"
     inkscape:window-width="2560"
     inkscape:window-height="1372"
     inkscape:window-x="0"
     inkscape:window-y="1440"
     inkscape:window-maximized="0"
     inkscape:current-layer="layer1" /><defs
     id="defs2410"><linearGradient
       id="linearGradient28726"><stop
         id="stop28722"
         style="stop-color:#ffdc5c;stop-opacity:1;"
         offset="0.74038464" /><stop
         id="stop28724"
         style="stop-color:#d6d6d6;stop-opacity:0;"
         offset="1" /></linearGradient><linearGradient
       id="linearGradient134052"><stop
         id="stop134048"
         style="stop-color:#0b5206;stop-opacity:1;"
         offset="0" /><stop
         id="stop134050"
         style="stop-color:#ff3636;stop-opacity:1;"
         offset="1" /></linearGradient><linearGradient
       id="linearGradient3614"><stop
         id="stop3616"
         style="stop-color:#0b5206;stop-opacity:1;"
         offset="0" /><stop
         id="stop3618"
         style="stop-color:#2f8206;stop-opacity:1;"
         offset="1" /></linearGradient><linearGradient
       x1="45.447727"
       y1="92.539597"
       x2="45.447727"
       y2="7.0165396"
       id="ButtonShadow"
       gradientUnits="userSpaceOnUse"
       gradientTransform="scale(1.0058652,0.994169)"><stop
         id="stop3750"
         style="stop-color:#000000;stop-opacity:1"
         offset="0" /><stop
         id="stop3752"
         style="stop-color:#000000;stop-opacity:0.58823532"
         offset="1" /></linearGradient><linearGradient
       id="linearGradient3737"><stop
         id="stop3739"
         style="stop-color:#ffffff;stop-opacity:1"
         offset="0" /><stop
         id="stop3741"
         style="stop-color:#ffffff;stop-opacity:0"
         offset="1" /></linearGradient><filter
       color-interpolation-filters="sRGB"
       id="filter3174"
       x="-0.047720931"
       y="-0.048282354"
       width="1.0954419"
       height="1.0965647"><feGaussianBlur
         id="feGaussianBlur3176"
         stdDeviation="1.71" /></filter><linearGradient
       x1="36.357143"
       y1="6"
       x2="36.357143"
       y2="63.893143"
       id="linearGradient3188"
       xlink:href="#linearGradient3737"
       gradientUnits="userSpaceOnUse" /><filter
       x="-0.19578789"
       y="-0.19578789"
       width="1.3915758"
       height="1.3915758"
       color-interpolation-filters="sRGB"
       id="filter3794"><feGaussianBlur
         id="feGaussianBlur3796"
         stdDeviation="5.28" /></filter><linearGradient
       x1="48"
       y1="20.220806"
       x2="48"
       y2="138.66119"
       id="linearGradient3613"
       xlink:href="#linearGradient3737"
       gradientUnits="userSpaceOnUse" /><radialGradient
       cx="48"
       cy="90.171875"
       r="42"
       fx="48"
       fy="90.171875"
       id="radialGradient3619"
       xlink:href="#linearGradient3737"
       gradientUnits="userSpaceOnUse"
       gradientTransform="matrix(1.1573129,0,0,0.99590774,-7.5510206,0.19713193)" /><clipPath
       id="clipPath3613"><rect
         width="84"
         height="84"
         rx="6"
         ry="6"
         x="6"
         y="6"
         id="rect3615"
         style="fill:#ffffff;fill-opacity:1;fill-rule:nonzero;stroke:none" /></clipPath><linearGradient
       x1="48"
       y1="90"
       x2="48"
       y2="5.9877172"
       id="linearGradient3617"
       xlink:href="#linearGradient3614"
       gradientUnits="userSpaceOnUse" /><linearGradient
       id="linearGradient3737-2"><stop
         id="stop3739-1"
         style="stop-color:#dcdf00;stop-opacity:1;"
         offset="0" /><stop
         id="stop3741-7"
         style="stop-color:#d6d6d6;stop-opacity:0;"
         offset="1" /></linearGradient><linearGradient
       x1="48"
       y1="6"
       x2="48"
       y2="109.10714"
       id="linearGradient4478"
       xlink:href="#linearGradient3737-2"
       gradientUnits="userSpaceOnUse" /><linearGradient
       id="linearGradient2806"><stop
         id="stop2808"
         style="stop-color:#ef2929;stop-opacity:1"
         offset="0" /><stop
         id="stop2810"
         style="stop-color:#cc0000;stop-opacity:1"
         offset="1" /></linearGradient><linearGradient
       id="linearGradient2928"><stop
         id="stop2930"
         style="stop-color:#a40000;stop-opacity:1"
         offset="0" /><stop
         id="stop2932"
         style="stop-color:#300000;stop-opacity:1"
         offset="1" /></linearGradient><linearGradient
       id="linearGradient2998"><stop
         id="stop3000"
         style="stop-color:#310000;stop-opacity:1"
         offset="0" /><stop
         id="stop3002"
         style="stop-color:#310000;stop-opacity:0"
         offset="1" /></linearGradient><linearGradient
       id="linearGradient2440"><stop
         id="stop2442"
         style="stop-color:#60625e;stop-opacity:1"
         offset="0" /><stop
         id="stop2444"
         style="stop-color:#1d2122;stop-opacity:1"
         offset="1" /></linearGradient><linearGradient
       id="linearGradient2396"><stop
         id="stop2398"
         style="stop-color:#e1e2df;stop-opacity:1"
         offset="0" /><stop
         id="stop2400"
         style="stop-color:#888a85;stop-opacity:1"
         offset="1" /></linearGradient><linearGradient
       id="linearGradient2416"><stop
         id="stop2418"
         style="stop-color:#30312f;stop-opacity:1"
         offset="0" /><stop
         id="stop2420"
         style="stop-color:#555753;stop-opacity:0"
         offset="1" /></linearGradient><linearGradient
       id="linearGradient2404"><stop
         id="stop2406"
         style="stop-color:#d3d7cf;stop-opacity:1"
         offset="0" /><stop
         id="stop2408"
         style="stop-color:#555856;stop-opacity:1"
         offset="1" /></linearGradient><linearGradient
       id="linearGradient2970"><stop
         id="stop2972"
         style="stop-color:#fcaf3e;stop-opacity:1"
         offset="0" /><stop
         id="stop2974"
         style="stop-color:#fcaf3e;stop-opacity:0"
         offset="1" /></linearGradient><linearGradient
       id="linearGradient2521"><stop
         id="stop2523"
         style="stop-color:#7f4e01;stop-opacity:1"
         offset="0" /><stop
         id="stop2525"
         style="stop-color:#402700;stop-opacity:1"
         offset="1" /></linearGradient><linearGradient
       id="linearGradient2505"><stop
         id="stop2507"
         style="stop-color:#e9b96e;stop-opacity:1"
         offset="0" /><stop
         id="stop2509"
         style="stop-color:#774a01;stop-opacity:1"
         offset="1" /></linearGradient><linearGradient
       id="linearGradient2551"><stop
         id="stop2553"
         style="stop-color:#5f3a00;stop-opacity:1"
         offset="0" /><stop
         id="stop2555"
         style="stop-color:#5f3a00;stop-opacity:0"
         offset="1" /></linearGradient><linearGradient
       id="linearGradient2531"><stop
         id="stop2533"
         style="stop-color:#f1d09e;stop-opacity:1"
         offset="0" /><stop
         id="stop2535"
         style="stop-color:#8f5902;stop-opacity:1"
         offset="1" /></linearGradient><linearGradient
       id="linearGradient2432"><stop
         id="stop2434"
         style="stop-color:#eeeeec;stop-opacity:1"
         offset="0" /><stop
         id="stop2436"
         style="stop-color:#eeeeec;stop-opacity:0"
         offset="1" /></linearGradient><linearGradient
       id="linearGradient2415"><stop
         id="stop2417"
         style="stop-color:#eeeeec;stop-opacity:1"
         offset="0" /><stop
         id="stop2419"
         style="stop-color:#eeeeec;stop-opacity:0"
         offset="1" /></linearGradient><linearGradient
       id="linearGradient2950"><stop
         id="stop2952"
         style="stop-color:#fcaf3e;stop-opacity:1"
         offset="0" /><stop
         id="stop2954"
         style="stop-color:#f57900;stop-opacity:0"
         offset="1" /></linearGradient><linearGradient
       id="linearGradient2888"><stop
         id="stop2890"
         style="stop-color:#ffd79a;stop-opacity:1"
         offset="0" /><stop
         id="stop2892"
         style="stop-color:#eeb660;stop-opacity:0"
         offset="1" /></linearGradient><linearGradient
       id="linearGradient2898"><stop
         id="stop2900"
         style="stop-color:#f5f5f4;stop-opacity:1"
         offset="0" /><stop
         id="stop2902"
         style="stop-color:#f5f5f4;stop-opacity:0"
         offset="1" /></linearGradient><linearGradient
       id="linearGradient2908"><stop
         id="stop2910"
         style="stop-color:#252829;stop-opacity:1"
         offset="0" /><stop
         id="stop2912"
         style="stop-color:#252829;stop-opacity:0"
         offset="1" /></linearGradient><linearGradient
       id="linearGradient4750"><stop
         id="stop4752"
         style="stop-color:#ffffff;stop-opacity:1"
         offset="0" /><stop
         id="stop4758"
         style="stop-color:#fefefe;stop-opacity:1"
         offset="0.37931034" /><stop
         id="stop4754"
         style="stop-color:#1d1d1d;stop-opacity:1"
         offset="1" /></linearGradient><linearGradient
       x1="32.400002"
       y1="17.6"
       x2="32.400002"
       y2="42.369164"
       id="linearGradient4237"
       xlink:href="#linearGradient2521"
       gradientUnits="userSpaceOnUse"
       gradientTransform="matrix(0.901767,0,0,1,1.455816,0)" /><linearGradient
       x1="17.6"
       y1="48.400002"
       x2="32.400002"
       y2="48.400002"
       id="linearGradient4239"
       xlink:href="#linearGradient2505"
       gradientUnits="userSpaceOnUse"
       gradientTransform="matrix(0.901767,0,0,1,1.455816,0)" /><linearGradient
       x1="24"
       y1="40"
       x2="24.922859"
       y2="48.449749"
       id="linearGradient4241"
       xlink:href="#linearGradient2551"
       gradientUnits="userSpaceOnUse" /><linearGradient
       x1="19.348167"
       y1="31.764088"
       x2="29.712492"
       y2="33"
       id="linearGradient4243"
       xlink:href="#linearGradient2531"
       gradientUnits="userSpaceOnUse" /><radialGradient
       cx="18.63378"
       cy="17.486208"
       r="40.692665"
       fx="18.934305"
       fy="17.810213"
       id="radialGradient4275"
       xlink:href="#linearGradient4750"
       gradientUnits="userSpaceOnUse"
       gradientTransform="scale(1.036822,0.964486)" /><radialGradient
       cx="18.63378"
       cy="17.486208"
       r="40.692665"
       fx="18.934305"
       fy="17.810213"
       id="radialGradient4277"
       xlink:href="#linearGradient4750"
       gradientUnits="userSpaceOnUse"
       gradientTransform="scale(1.036822,0.964486)" /><radialGradient
       cx="18.63378"
       cy="17.486208"
       r="40.692665"
       fx="18.934305"
       fy="17.810213"
       id="radialGradient4279"
       xlink:href="#linearGradient4750"
       gradientUnits="userSpaceOnUse"
       gradientTransform="scale(1.036822,0.964486)" /><radialGradient
       cx="18.63378"
       cy="17.486208"
       r="40.692665"
       fx="18.934305"
       fy="17.810213"
       id="radialGradient4281"
       xlink:href="#linearGradient4750"
       gradientUnits="userSpaceOnUse"
       gradientTransform="scale(1.036822,0.964486)" /><radialGradient
       cx="18.63378"
       cy="17.486208"
       r="40.692665"
       fx="18.934305"
       fy="17.810213"
       id="radialGradient4283"
       xlink:href="#linearGradient4750"
       gradientUnits="userSpaceOnUse"
       gradientTransform="scale(1.036822,0.964486)" /><radialGradient
       cx="18.63378"
       cy="17.486208"
       r="40.692665"
       fx="18.934305"
       fy="17.810213"
       id="radialGradient4285"
       xlink:href="#linearGradient4750"
       gradientUnits="userSpaceOnUse"
       gradientTransform="scale(1.036822,0.964486)" /><radialGradient
       cx="18.63378"
       cy="17.486208"
       r="40.692665"
       fx="18.934305"
       fy="17.810213"
       id="radialGradient4287"
       xlink:href="#linearGradient4750"
       gradientUnits="userSpaceOnUse"
       gradientTransform="scale(1.036822,0.964486)" /><radialGradient
       cx="18.63378"
       cy="17.486208"
       r="40.692665"
       fx="18.934305"
       fy="17.810213"
       id="radialGradient4289"
       xlink:href="#linearGradient4750"
       gradientUnits="userSpaceOnUse"
       gradientTransform="scale(1.036822,0.964486)" /><radialGradient
       cx="18.63378"
       cy="17.486208"
       r="40.692665"
       fx="18.934305"
       fy="17.810213"
       id="radialGradient4291"
       xlink:href="#linearGradient4750"
       gradientUnits="userSpaceOnUse"
       gradientTransform="scale(1.036822,0.964486)" /><radialGradient
       cx="18.63378"
       cy="17.486208"
       r="40.692665"
       fx="18.934305"
       fy="17.810213"
       id="radialGradient4293"
       xlink:href="#linearGradient4750"
       gradientUnits="userSpaceOnUse"
       gradientTransform="scale(1.036822,0.964486)" /><linearGradient
       x1="6.5407376"
       y1="2.1974521"
       x2="32.084969"
       y2="2.1974521"
       id="linearGradient4316"
       xlink:href="#linearGradient2898"
       gradientUnits="userSpaceOnUse"
       gradientTransform="matrix(1.523368,0,0,1.523368,11.439168,10.946779)" /><linearGradient
       x1="11.357903"
       y1="23.825788"
       x2="9.3691654"
       y2="17.771187"
       id="linearGradient4319"
       xlink:href="#linearGradient2908"
       gradientUnits="userSpaceOnUse"
       gradientTransform="matrix(1.523368,0,0,1.523368,11.439168,10.946779)" /><linearGradient
       x1="4.7729707"
       y1="17.550215"
       x2="7.8665633"
       y2="8.0926609"
       id="linearGradient4322"
       xlink:href="#linearGradient2898"
       gradientUnits="userSpaceOnUse"
       gradientTransform="matrix(1.523368,0,0,1.523368,11.439168,10.946779)" /><linearGradient
       x1="18.826717"
       y1="31.338797"
       x2="23.334524"
       y2="31.250408"
       id="linearGradient4325"
       xlink:href="#linearGradient2950"
       gradientUnits="userSpaceOnUse"
       gradientTransform="matrix(1.523368,0,0,1.523368,11.439168,10.946779)" /><linearGradient
       x1="19.625"
       y1="27.071722"
       x2="28.5"
       y2="27.071722"
       id="linearGradient4328"
       xlink:href="#linearGradient2950"
       gradientUnits="userSpaceOnUse"
       gradientTransform="matrix(1.523368,0,0,1.523368,11.439168,10.946779)" /><linearGradient
       x1="23.277353"
       y1="32.055065"
       x2="29.111048"
       y2="31.966679"
       id="linearGradient4331"
       xlink:href="#linearGradient2806"
       gradientUnits="userSpaceOnUse"
       gradientTransform="matrix(1.523368,0,0,1.523368,11.439168,10.946779)" /><linearGradient
       x1="18.68116"
       y1="29.933746"
       x2="29.906544"
       y2="29.933746"
       id="linearGradient4333"
       xlink:href="#linearGradient2928"
       gradientUnits="userSpaceOnUse"
       gradientTransform="matrix(1.523368,0,0,1.523368,11.439168,10.946779)" /><linearGradient
       x1="22.667521"
       y1="32.236626"
       x2="27.388777"
       y2="31.44113"
       id="linearGradient4336"
       xlink:href="#linearGradient2806"
       gradientUnits="userSpaceOnUse"
       gradientTransform="matrix(1.523368,0,0,1.523368,11.439168,10.946779)" /><linearGradient
       x1="17.80616"
       y1="34.004391"
       x2="25.709398"
       y2="34.578915"
       id="linearGradient4338"
       xlink:href="#linearGradient2928"
       gradientUnits="userSpaceOnUse"
       gradientTransform="matrix(1.523368,0,0,1.523368,11.439168,10.946779)" /><linearGradient
       x1="19.445436"
       y1="42.07798"
       x2="29.433319"
       y2="34.034641"
       id="linearGradient4341"
       xlink:href="#linearGradient2888"
       gradientUnits="userSpaceOnUse"
       gradientTransform="matrix(1.523368,0,0,1.523368,11.439168,10.946779)" /><linearGradient
       x1="9.375"
       y1="39.6875"
       x2="13.3125"
       y2="35"
       id="linearGradient4344"
       xlink:href="#linearGradient2950"
       gradientUnits="userSpaceOnUse"
       gradientTransform="matrix(1.5044066,-0.23960751,0.23960751,1.5044066,-1.4759217,17.554518)" /><linearGradient
       x1="12.900058"
       y1="12.908146"
       x2="18.573477"
       y2="9.7130737"
       id="linearGradient4347"
       xlink:href="#linearGradient2415"
       gradientUnits="userSpaceOnUse"
       gradientTransform="matrix(1.5160299,-0.0190116,0.0890815,1.3278788,10.124487,11.276744)" /><linearGradient
       x1="12.254768"
       y1="14.820889"
       x2="20.264099"
       y2="8.1485271"
       id="linearGradient4350"
       xlink:href="#linearGradient2415"
       gradientUnits="userSpaceOnUse"
       gradientTransform="matrix(-1.5160299,-0.0190116,-0.0890815,1.3278788,85.606228,11.221376)" /><linearGradient
       x1="23.906006"
       y1="6.0466475"
       x2="24.746471"
       y2="21.63644"
       id="linearGradient4353"
       xlink:href="#linearGradient2415"
       gradientUnits="userSpaceOnUse"
       gradientTransform="matrix(1.5211591,-0.07736135,-0.08200762,-1.4349746,11.924619,38.648373)" /><linearGradient
       x1="36.819733"
       y1="18"
       x2="36.819733"
       y2="11.375"
       id="linearGradient4356"
       xlink:href="#linearGradient2432"
       gradientUnits="userSpaceOnUse"
       gradientTransform="matrix(1.523368,0,0,1.523368,9.9157998,10.946779)" /><linearGradient
       x1="32.877865"
       y1="31.905155"
       x2="39.863144"
       y2="36.030155"
       id="linearGradient4364"
       xlink:href="#linearGradient2970"
       gradientUnits="userSpaceOnUse"
       gradientTransform="matrix(1.5044066,-0.23960751,0.23960751,1.5044066,-1.4759217,17.554518)" /><linearGradient
       x1="36.125"
       y1="37.699108"
       x2="35.65625"
       y2="41.324108"
       id="linearGradient4367"
       xlink:href="#linearGradient2998"
       gradientUnits="userSpaceOnUse"
       gradientTransform="matrix(1.5044066,-0.23960751,0.23960751,1.5044066,-1.4759217,17.554518)" /><linearGradient
       x1="18.995815"
       y1="7.2467284"
       x2="20.007339"
       y2="23.841942"
       id="linearGradient4370"
       xlink:href="#linearGradient2404"
       gradientUnits="userSpaceOnUse"
       gradientTransform="matrix(1.523368,0,0,1.523368,9.9157998,10.946779)" /><radialGradient
       cx="25"
       cy="-14.44571"
       r="20"
       fx="25"
       fy="-14.44571"
       id="radialGradient4373"
       xlink:href="#linearGradient2416"
       gradientUnits="userSpaceOnUse"
       gradientTransform="matrix(-3.4086029,0,0,-1.5387479,133.21507,8.7506037)" /><linearGradient
       x1="31.116503"
       y1="23.841942"
       x2="26.548079"
       y2="-1.7747182"
       id="linearGradient4376"
       xlink:href="#linearGradient2396"
       gradientUnits="userSpaceOnUse"
       gradientTransform="matrix(1.523368,0,0,1.523368,9.9157998,10.946779)" /><linearGradient
       x1="22.674999"
       y1="-1.3035535"
       x2="27.513184"
       y2="23.544195"
       id="linearGradient4379"
       xlink:href="#linearGradient2440"
       gradientUnits="userSpaceOnUse"
       gradientTransform="matrix(1.523368,0,0,1.523368,9.9157998,10.946779)" /><linearGradient
       x1="25.4125"
       y1="35.893593"
       x2="41.900002"
       y2="35.893593"
       id="linearGradient4382"
       xlink:href="#linearGradient2806"
       gradientUnits="userSpaceOnUse"
       gradientTransform="matrix(1.5044066,-0.23960751,0.23960751,1.5044066,-1.4759217,17.554518)" /><linearGradient
       x1="30.0375"
       y1="32.262184"
       x2="41.212502"
       y2="39.525002"
       id="linearGradient4384"
       xlink:href="#linearGradient2928"
       gradientUnits="userSpaceOnUse"
       gradientTransform="matrix(1.5044066,-0.23960751,0.23960751,1.5044066,-1.4759217,17.554518)" /><linearGradient
       x1="20.375"
       y1="38.40625"
       x2="11.5625"
       y2="37.71875"
       id="linearGradient4387"
       xlink:href="#linearGradient2998"
       gradientUnits="userSpaceOnUse"
       gradientTransform="matrix(1.5044066,-0.23960751,0.23960751,1.5044066,2.8328134,16.881277)" /><linearGradient
       x1="7.2249999"
       y1="37.761219"
       x2="42.108513"
       y2="37.761219"
       id="linearGradient4390"
       xlink:href="#linearGradient2806"
       gradientUnits="userSpaceOnUse"
       gradientTransform="matrix(1.5044066,-0.23960751,0.23960751,1.5044066,-1.4759217,17.554518)" /><linearGradient
       x1="7.2249999"
       y1="37.761219"
       x2="42.108513"
       y2="37.761219"
       id="linearGradient4392"
       xlink:href="#linearGradient2928"
       gradientUnits="userSpaceOnUse"
       gradientTransform="matrix(1.5044066,-0.23960751,0.23960751,1.5044066,-1.4759217,17.554518)" /><linearGradient
       x1="45.447727"
       y1="92.539597"
       x2="45.447727"
       y2="7.0165396"
       id="ButtonShadow-0"
       gradientUnits="userSpaceOnUse"
       gradientTransform="matrix(1.0058652,0,0,0.994169,100,0)"><stop
         id="stop3750-8"
         style="stop-color:#000000;stop-opacity:1"
         offset="0" /><stop
         id="stop3752-5"
         style="stop-color:#000000;stop-opacity:0.58823532"
         offset="1" /></linearGradient><linearGradient
       x1="32.251034"
       y1="6.1317081"
       x2="32.251034"
       y2="90.238609"
       id="linearGradient3780"
       xlink:href="#ButtonShadow-0"
       gradientUnits="userSpaceOnUse"
       gradientTransform="matrix(1.0238095,0,0,1.0119048,-1.1428571,-98.071429)" /><linearGradient
       x1="32.251034"
       y1="6.1317081"
       x2="32.251034"
       y2="90.238609"
       id="linearGradient3772"
       xlink:href="#ButtonShadow-0"
       gradientUnits="userSpaceOnUse"
       gradientTransform="matrix(1.0238095,0,0,1.0119048,-1.1428571,-98.071429)" /><linearGradient
       x1="32.251034"
       y1="6.1317081"
       x2="32.251034"
       y2="90.238609"
       id="linearGradient3725"
       xlink:href="#ButtonShadow-0"
       gradientUnits="userSpaceOnUse"
       gradientTransform="matrix(1.0238095,0,0,1.0119048,-1.1428571,-98.071429)" /><linearGradient
       x1="32.251034"
       y1="6.1317081"
       x2="32.251034"
       y2="90.238609"
       id="linearGradient3721"
       xlink:href="#ButtonShadow-0"
       gradientUnits="userSpaceOnUse"
       gradientTransform="translate(0,-97)" /><linearGradient
       x1="32.251034"
       y1="6.1317081"
       x2="32.251034"
       y2="90.238609"
       id="linearGradient3071"
       xlink:href="#ButtonShadow-0"
       gradientUnits="userSpaceOnUse"
       gradientTransform="matrix(1.0238095,0,0,1.0119048,-1.1428571,-98.071429)" /><linearGradient
       x1="373.12482"
       y1="91.875"
       x2="363.62491"
       y2="258.54688"
       id="linearGradient4006"
       xlink:href="#linearGradient3737"
       gradientUnits="userSpaceOnUse"
       gradientTransform="matrix(0.43977693,0,0,0.43979058,-111.91515,-34.400122)" /><radialGradient
       inkscape:collect="always"
       xlink:href="#linearGradient28726"
       id="radialGradient28720"
       cx="48"
       cy="48"
       fx="48"
       fy="48"
       r="42"
       gradientUnits="userSpaceOnUse" /></defs><metadata
     id="metadata2413"><rdf:RDF><cc:Work
         rdf:about=""><dc:format>image/svg+xml</dc:format><dc:type
           rdf:resource="http://purl.org/dc/dcmitype/StillImage" /></cc:Work></rdf:RDF></metadata><g
     id="layer4"
     style="display:inline"><path
       d="m 12,-95.03125 c -5.5110903,0 -10.03125,4.52016 -10.03125,10.03125 v 71 c 0,5.5110902 4.5201598,10.03125 10.03125,10.03125 h 72 c 5.51109,0 10.03125,-4.5201597 10.03125,-10.03125 v -71 c 0,-5.51109 -4.52016,-10.03125 -10.03125,-10.03125 z"
       transform="scale(1,-1)"
       id="path3786"
       style="display:inline;opacity:0.08;fill:url(#linearGradient3071);fill-opacity:1;fill-rule:nonzero;stroke:none" /><path
       d="m 12,-94.03125 c -4.971633,0 -9.03125,4.059617 -9.03125,9.03125 v 71 c 0,4.9716329 4.0596171,9.03125 9.03125,9.03125 h 72 c 4.971633,0 9.03125,-4.059617 9.03125,-9.03125 v -71 c 0,-4.971633 -4.059617,-9.03125 -9.03125,-9.03125 z"
       transform="scale(1,-1)"
       id="path3778"
       style="display:inline;opacity:0.1;fill:url(#linearGradient3780);fill-opacity:1;fill-rule:nonzero;stroke:none" /><path
       d="m 12,-93 c -4.4091333,0 -8,3.590867 -8,8 v 71 c 0,4.4091333 3.5908667,8 8,8 h 72 c 4.409133,0 8,-3.5908667 8,-8 v -71 c 0,-4.409133 -3.590867,-8 -8,-8 z"
       transform="scale(1,-1)"
       id="path3770"
       style="display:inline;opacity:0.2;fill:url(#linearGradient3772);fill-opacity:1;fill-rule:nonzero;stroke:none" /><rect
       width="86"
       height="85"
       rx="7"
       ry="7"
       x="5"
       y="-92"
       transform="scale(1,-1)"
       id="rect3723"
       style="display:inline;opacity:0.3;fill:url(#linearGradient3725);fill-opacity:1;fill-rule:nonzero;stroke:none" /><rect
       width="84"
       height="84"
       rx="6"
       ry="6"
       x="6"
       y="-91"
       transform="scale(1,-1)"
       id="rect3716"
       style="display:inline;opacity:0.45;fill:url(#linearGradient3721);fill-opacity:1;fill-rule:nonzero;stroke:none" /></g><g
     id="layer1"
     style="display:inline"><rect
       width="84"
       height="84"
       rx="6"
       ry="6"
       x="6"
       y="6"
       id="rect2419"
       style="display:inline;fill:url(#linearGradient3617);fill-opacity:1;fill-rule:nonzero;stroke:none" /><path
       d="M 20.875,6 46.65625,46.65625 6,20.5 V 39 L 46.21875,48 6,56.75 V 75.125 L 46.65625,49.34375 20.5,90 H 39 L 48,49.78125 56.75,90 H 75.125 L 49.34375,49.34375 90,75.5 V 57 L 49.78125,48 90,39.25 V 20.875 L 49.34375,46.65625 75.5,6 H 57 L 48,46.21875 39.25,6 Z"
       inkscape:connector-curvature="0"
       id="path4141"
       style="display:none;opacity:0.136364;fill:url(#radialGradient28720);fill-opacity:1;stroke:none" /><g
       inkscape:groupmode="layer"
       id="layer2"
       inkscape:label="Layer 1"><path
         style="fill:#ffffff;fill-opacity:1;stroke:none"
         d="m 36.736125,61.039922 24.584226,-37.857838 11.404089,2.149951 2.617332,-0.186952 8.412853,8.038948 2.897761,30.192795 -7.945473,13.08666 -4.393378,2.89776 -4.767284,0.74781 c 0,0 -16.264849,-7.197664 -16.825706,-7.478092 -0.560857,-0.280428 -15.98442,-11.591042 -15.98442,-11.591042 z"
         id="path131301" /><path
         id="path130566"
         style="display:inline;fill:#c21a1a;fill-opacity:1;stroke:none"
         d="M 55.535156 12.427734 C 55.531056 12.428225 55.527891 12.429141 55.525391 12.431641 C 55.503361 12.453671 55.539321 12.497521 55.525391 12.525391 C 55.467021 12.642131 55.467021 12.689901 55.525391 12.806641 C 55.532391 12.820571 55.514371 12.842496 55.525391 12.853516 C 55.536411 12.864536 55.561246 12.842496 55.572266 12.853516 C 55.668966 12.950216 55.424631 12.850016 55.619141 12.947266 C 55.633071 12.954266 55.654996 12.936246 55.666016 12.947266 C 55.689386 12.970636 55.687568 13.015693 55.710938 13.039062 C 55.721957 13.050082 55.746793 13.028043 55.757812 13.039062 C 55.796762 13.078012 55.765708 13.187616 55.804688 13.226562 C 55.811287 13.233162 55.935727 13.231362 55.945312 13.226562 C 56.043512 13.177463 55.944536 13.133581 55.992188 13.085938 C 55.994687 13.083438 56.130281 12.996681 56.132812 12.994141 C 56.154842 12.972111 56.110783 12.922431 56.132812 12.900391 C 56.143832 12.889371 56.168668 12.911411 56.179688 12.900391 C 56.207177 12.872901 56.273782 12.619488 56.226562 12.572266 C 56.204533 12.550236 56.154852 12.594296 56.132812 12.572266 C 56.121793 12.561246 56.132812 12.540961 56.132812 12.525391 L 55.898438 12.525391 C 55.833968 12.618261 55.59709 12.420372 55.535156 12.427734 z M 58.849609 15.089844 C 58.766519 15.090705 58.685467 15.104538 58.609375 15.142578 C 58.581505 15.156518 58.537665 15.120548 58.515625 15.142578 C 58.504605 15.153598 58.526645 15.178433 58.515625 15.189453 C 58.488465 15.216613 58.369356 15.216688 58.330078 15.236328 C 58.280098 15.261318 58.107411 15.365244 58.095703 15.376953 C 58.084683 15.387973 58.106723 15.412808 58.095703 15.423828 C 58.084683 15.434848 58.059848 15.412808 58.048828 15.423828 C 58.016978 15.455678 58.070333 15.912126 58.095703 15.9375 C 58.120333 15.96213 58.164813 15.959745 58.189453 15.984375 C 58.238083 16.033005 58.300809 16.00198 58.330078 16.03125 C 58.341098 16.04227 58.323078 16.064185 58.330078 16.078125 C 58.381748 16.181465 58.357405 16.09276 58.421875 16.125 C 58.616388 16.22226 58.37204 16.1221 58.46875 16.21875 C 58.47977 16.22977 58.501695 16.21175 58.515625 16.21875 C 58.555035 16.23846 58.569955 16.29279 58.609375 16.3125 C 58.770639 16.39313 58.931791 16.497107 59.123047 16.544922 C 59.197277 16.563482 59.43433 16.559947 59.498047 16.591797 C 59.567747 16.626647 59.612297 16.696773 59.683594 16.732422 C 59.762864 16.772062 60.430143 16.826927 60.525391 16.779297 C 60.554331 16.764827 60.74759 16.650847 60.759766 16.638672 C 60.770786 16.627652 60.752766 16.605737 60.759766 16.591797 C 60.787806 16.535707 60.872348 16.507257 60.900391 16.451172 C 60.914331 16.423302 60.890491 16.386982 60.900391 16.357422 C 61.013239 16.018879 60.887191 16.432652 60.994141 16.21875 C 61.009761 16.1875 61.015521 15.865131 60.994141 15.84375 C 60.978561 15.82817 60.869095 15.812445 60.853516 15.796875 C 60.842496 15.785855 60.864536 15.76102 60.853516 15.75 C 60.831486 15.72797 60.787636 15.76394 60.759766 15.75 C 60.694306 15.71727 60.674408 15.701936 60.673828 15.697266 C 60.687148 15.696393 60.740586 15.709854 60.753906 15.708984 C 60.753324 15.704284 60.731466 15.690933 60.666016 15.658203 C 60.638146 15.644273 60.600136 15.672143 60.572266 15.658203 C 60.517826 15.630983 60.486086 15.591683 60.431641 15.564453 C 60.382001 15.539633 60.287757 15.559248 60.246094 15.517578 C 60.222724 15.494208 60.222579 15.447198 60.199219 15.423828 C 60.197619 15.422228 60.075235 15.393583 60.058594 15.376953 C 60.047574 15.365933 60.069614 15.341098 60.058594 15.330078 C 60.035224 15.306708 59.941338 15.353448 59.917969 15.330078 C 59.895939 15.308048 59.939999 15.258368 59.917969 15.236328 C 59.895939 15.214298 59.846259 15.258358 59.824219 15.236328 C 59.761899 15.174008 59.901974 15.189453 59.777344 15.189453 L 59.404297 15.189453 C 59.226252 15.152993 59.032403 15.087951 58.849609 15.089844 z M 70.244141 18.478516 C 69.235675 18.534586 68.926002 19.09527 68.238281 19.722656 C 66.980806 20.023093 64.668478 19.707946 63.283203 19.162109 C 61.673739 18.913689 59.39619 19.703479 57.861328 18.789062 C 56.181345 18.569722 53.99061 19.109654 53.1875 19.910156 C 51.980434 20.521206 51.715197 21.204802 50.757812 21.966797 C 49.668473 22.802811 48.069578 23.54795 47.298828 24.865234 C 47.099834 25.527282 46.742389 26.56097 46.083984 26.894531 C 45.590828 27.589573 44.732095 28.074709 43.933594 28.884766 C 43.346175 30.015069 43.196512 31.455608 42.625 32.341797 C 41.760287 34.000173 42.251442 35.333716 42.158203 37.203125 C 41.904438 37.937649 41.503285 38.577617 41.128906 39.353516 C 40.477769 40.186711 39.731441 41.150547 39.353516 41.876953 C 38.974141 42.908323 39.266935 44.595202 38.605469 45.335938 C 38.166624 46.316552 36.870042 46.708066 36.361328 47.205078 C 35.025278 47.640195 35.287364 48.931903 34.958984 50.009766 C 34.616007 51.514903 34.671188 52.782661 36.082031 53.375 C 37.493081 54.706054 34.924509 55.959128 33.744141 54.496094 C 31.751855 53.473651 30.904134 54.818933 31.033203 56.458984 C 30.795447 57.669757 28.812625 57.73566 27.949219 57.019531 C 26.665633 56.319321 24.951604 57.359856 24.023438 56.552734 C 22.824818 56.092903 22.912941 54.506422 21.285156 54.216797 C 20.127911 53.396352 18.910469 52.48563 17.759766 51.599609 C 16.23243 50.751169 13.483532 50.565711 11.871094 51.691406 C 10.912097 52.145266 10.096207 53.054023 9.9082031 54.169922 C 9.3361047 55.733123 9.897782 56.782866 10.658203 58.068359 C 10.732163 59.795396 11.907762 60.738008 13.273438 61.320312 C 14.481858 61.669203 16.191006 62.181256 17.292969 62.535156 C 17.92543 63.368996 19.206986 63.538612 19.068359 64.966797 C 19.809055 65.831951 20.932334 65.471557 20.9375 66.929688 C 20.779351 68.490542 18.450712 67.714686 19.255859 69.546875 C 19.001357 71.285485 20.573109 72.148716 20.470703 73.660156 C 21.962265 74.895199 19.440815 75.383252 20.097656 76.556641 C 20.938336 77.071921 21.111816 78.481061 21.125 79.734375 C 22.253934 80.279896 22.873435 81.556558 24.302734 81.884766 C 25.572964 81.973656 26.515749 82.872739 25.892578 83.753906 C 26.629407 84.563237 27.075874 85.305129 28.136719 85.53125 C 29.236914 85.971607 31.005717 85.809333 31.59375 86.839844 C 32.502651 87.838336 34.222793 87.771387 34.119141 89.269531 C 34.151843 89.538479 34.265959 89.776424 34.412109 90 L 41.605469 90 C 41.714245 89.652708 41.675144 89.252121 41.410156 88.802734 C 40.301812 88.350876 35.858054 88.362026 39.166016 87.212891 C 40.292852 86.802134 41.330083 86.388127 42.158203 85.4375 C 42.836511 84.516282 44.292123 84.701683 45.335938 84.035156 C 46.28198 83.613563 48.551449 82.562663 47.763672 81.480469 C 47.103448 81.507049 47.038401 79.751349 48.513672 79.734375 C 49.438578 79.11917 50.072241 80.308583 50.476562 80.857422 C 51.09186 82.01761 53.60626 82.114271 53.28125 80.482422 C 54.255621 79.598203 54.762092 80.547263 55.244141 81.324219 C 56.276303 83.335832 57.518438 80.034497 58.982422 81.511719 C 59.992847 81.938457 60.554322 83.11302 61.693359 83.474609 C 62.272169 84.456263 60.735084 86.033097 62.722656 86.091797 C 64.456775 86.93937 65.072048 84.383162 67.001953 85.287109 C 69.278972 85.184347 68.306037 84.630079 67.675781 83.568359 C 68.44749 82.64891 70.169961 82.031753 70.855469 83.007812 C 72.294883 84.098379 73.906698 82.269834 72.164062 81.511719 C 71.761764 80.728666 72.335103 79.039986 70.947266 78.519531 C 68.990738 78.403107 66.394345 79.029739 65.433594 77.492188 C 64.032045 76.294891 64.384579 74.326556 64.082031 72.535156 C 64.048351 71.091511 63.742782 69.270707 62.794922 68.382812 C 62.295824 68.508262 61.392665 67.455796 60.291016 67.490234 C 57.294407 67.068654 54.394937 67.016814 51.380859 66.736328 C 49.300841 67.050064 47.717692 66.538486 45.802734 66.087891 C 45.723724 64.998664 45.03318 62.932296 44.027344 64.3125 C 42.183154 65.911242 43.820354 62.858717 41.595703 63.564453 C 41.432133 62.253344 39.41128 61.877482 40.007812 60.292969 C 40.415518 58.472543 41.4321 56.816601 42.158203 55.337891 C 42.894826 54.377156 43.608113 53.062827 44.400391 52.347656 C 45.035054 51.090599 45.937381 50.304951 46.550781 49.167969 C 47.347338 48.155158 48.126522 46.645232 48.794922 45.523438 C 49.203037 44.558545 50.050813 43.656491 50.476562 42.71875 C 51.204546 41.705524 51.875153 40.416219 52.626953 39.634766 C 53.057003 38.985154 53.516316 38.389717 54.123047 37.669922 C 55.074084 36.762329 56.154629 35.529757 56.458984 34.398438 C 56.939465 33.629752 57.283187 32.790732 57.955078 32.0625 C 58.594109 31.098111 59.707445 30.543195 60.572266 29.818359 C 61.204054 29.583373 62.837359 28.074892 61.601562 27.761719 C 61.08003 26.7106 64.22095 26.77252 64.591797 26.734375 C 65.591762 27.601033 67.758192 26.658735 69.347656 26.921875 C 70.726143 26.906545 72.634869 27.134559 73.097656 26.080078 C 74.49879 24.739514 74.015478 27.457557 75.154297 27.388672 C 76.44038 27.897337 77.680117 28.618624 78.707031 29.539062 C 78.703831 31.135219 80.979728 30.972044 80.503906 32.738281 C 80.407096 34.383845 81.5202 35.108898 81.230469 36.923828 C 80.936519 38.091769 80.464829 39.004461 79.734375 39.726562 C 77.586242 40.392613 78.986551 43.432531 78.425781 45.335938 C 78.577133 48.521736 78.028426 52.296044 78.894531 54.871094 C 79.327855 56.245864 80.653201 56.71623 81.791016 57.488281 C 82.732778 58.363062 83.560905 58.636922 84.035156 59.544922 C 84.662231 60.362657 85.205394 61.60332 84.501953 62.722656 C 84.349079 64.0369 83.51683 65.347786 82.353516 65.712891 C 81.347076 66.461771 79.743848 66.353413 78.988281 67.208984 C 78.197448 68.23226 78.143038 69.647872 77.585938 70.574219 C 77.480883 72.184979 78.295541 74.200088 77.677734 75.996094 C 77.034549 76.855953 76.444396 77.449238 75.341797 78.052734 C 74.502702 78.199092 73.034136 78.933969 74.314453 79.642578 C 75.410812 80.076807 76.175166 78.942623 77.117188 78.519531 C 78.575673 78.070594 79.220935 79.991289 80.669922 80.203125 C 81.543642 80.594647 84.647111 80.62809 83.753906 79.080078 C 83.006384 78.401344 82.065429 76.041099 83.099609 75.248047 C 83.752897 74.476656 85.098718 74.602688 85.53125 73.472656 C 86.398306 72.30546 87.82686 72.327338 89.550781 72.070312 C 89.713246 72.016403 89.859801 71.913387 90 71.791016 L 90 33.652344 C 89.724927 33.144386 89.607535 32.622201 90 32.117188 L 90 29.144531 C 89.705353 28.824679 89.329124 28.631657 88.923828 28.695312 C 88.16008 27.826396 86.557543 28.543349 85.904297 28.978516 C 84.515058 30.37256 83.6186 28.53153 83.072266 27.484375 C 82.517066 27.561155 81.119347 25.513044 82.632812 24.865234 C 83.33654 24.403361 83.384844 22.696843 83.005859 21.779297 C 81.151313 21.228086 78.416558 21.044506 78.052734 23.087891 C 77.484709 23.772311 77.184008 23.924743 76.462891 24.117188 C 74.818809 24.786498 74.049535 24.236876 74.166016 22.472656 C 74.131416 21.141581 73.401907 20.392523 72.724609 19.349609 C 72.076063 19.187316 71.615976 18.657031 70.722656 18.486328 C 70.546948 18.472448 70.388206 18.470496 70.244141 18.478516 z M 62.804688 45.849609 C 61.474486 46.729572 60.633571 47.91049 60.011719 48.982422 C 59.332454 50.073422 58.101779 51.227238 57.394531 52.345703 C 56.711071 53.903323 57.027164 56.098635 58.654297 56.226562 C 60.577062 56.9344 63.668827 57.090513 65.433594 55.898438 C 66.800462 55.500918 68.752532 55.620203 69.826172 54.683594 C 70.508985 53.899856 68.445472 53.85625 67.863281 53.46875 C 67.00047 52.985394 65.916455 51.908597 65.621094 50.851562 C 65.176924 49.725456 64.852779 48.483587 64.21875 47.392578 C 64.116529 46.718553 63.36574 46.234826 62.804688 45.849609 z " /></g><path
       d="M 12,6 C 8.676,6 6,8.676 6,12 v 2 68 2 c 0,0.334721 0.04135,0.6507 0.09375,0.96875 0.0487,0.295596 0.09704,0.596915 0.1875,0.875 0.00988,0.03038 0.020892,0.0636 0.03125,0.09375 0.098865,0.287771 0.2348802,0.547452 0.375,0.8125 0.1445918,0.273507 0.3156161,0.535615 0.5,0.78125 0.1843839,0.245635 0.3737765,0.473472 0.59375,0.6875 0.439947,0.428056 0.94291,0.814526 1.5,1.09375 0.278545,0.139612 0.5734731,0.246947 0.875,0.34375 -0.2562018,-0.100222 -0.4867109,-0.236272 -0.71875,-0.375 -0.00741,-0.0044 -0.023866,0.0045 -0.03125,0 -0.031933,-0.0193 -0.062293,-0.04251 -0.09375,-0.0625 -0.120395,-0.0767 -0.2310226,-0.163513 -0.34375,-0.25 -0.1061728,-0.0808 -0.2132809,-0.161112 -0.3125,-0.25 C 8.4783201,88.557317 8.3087904,88.373362 8.15625,88.1875 8.0486711,88.057245 7.9378561,87.922215 7.84375,87.78125 7.818661,87.74287 7.805304,87.69538 7.78125,87.65625 7.716487,87.553218 7.6510225,87.451733 7.59375,87.34375 7.4927417,87.149044 7.3880752,86.928049 7.3125,86.71875 7.30454,86.69694 7.288911,86.6782 7.28125,86.65625 7.2494249,86.5643 7.2454455,86.469419 7.21875,86.375 7.1884177,86.268382 7.1483606,86.171969 7.125,86.0625 7.0521214,85.720988 7,85.364295 7,85 V 83 15 13 C 7,10.218152 9.2181517,8 12,8 h 2 68 2 c 2.781848,0 5,2.218152 5,5 v 2 68 2 c 0,0.364295 -0.05212,0.720988 -0.125,1.0625 -0.04415,0.206893 -0.08838,0.397658 -0.15625,0.59375 -0.0077,0.02195 -0.0233,0.04069 -0.03125,0.0625 -0.06274,0.173739 -0.138383,0.367449 -0.21875,0.53125 -0.04158,0.0828 -0.07904,0.169954 -0.125,0.25 -0.0546,0.09721 -0.126774,0.18835 -0.1875,0.28125 -0.09411,0.140965 -0.204921,0.275995 -0.3125,0.40625 -0.143174,0.17445 -0.303141,0.346998 -0.46875,0.5 -0.01117,0.0102 -0.01998,0.02115 -0.03125,0.03125 -0.138386,0.125556 -0.285091,0.234436 -0.4375,0.34375 -0.102571,0.07315 -0.204318,0.153364 -0.3125,0.21875 -0.0074,0.0045 -0.02384,-0.0044 -0.03125,0 -0.232039,0.138728 -0.462548,0.274778 -0.71875,0.375 0.301527,-0.0968 0.596455,-0.204138 0.875,-0.34375 0.55709,-0.279224 1.060053,-0.665694 1.5,-1.09375 0.219973,-0.214028 0.409366,-0.441865 0.59375,-0.6875 0.184384,-0.245635 0.355408,-0.507743 0.5,-0.78125 0.14012,-0.265048 0.276135,-0.524729 0.375,-0.8125 0.01041,-0.03078 0.02133,-0.06274 0.03125,-0.09375 0.09046,-0.278085 0.1388,-0.579404 0.1875,-0.875 C 89.95865,84.6507 90,84.334721 90,84 V 82 14 12 C 90,8.676 87.324,6 84,6 Z"
       inkscape:connector-curvature="0"
       id="rect3728"
       style="display:inline;opacity:0.5;fill:url(#linearGradient3188);fill-opacity:1;fill-rule:nonzero;stroke:none" /><path
       d="M 12,90 C 8.676,90 6,87.324 6,84 V 82 14 12 c 0,-0.334721 0.04135,-0.6507 0.09375,-0.96875 0.0487,-0.295596 0.09704,-0.596915 0.1875,-0.875 C 6.29113,10.12587 6.302142,10.09265 6.3125,10.0625 6.411365,9.774729 6.5473802,9.515048 6.6875,9.25 6.8320918,8.976493 7.0031161,8.714385 7.1875,8.46875 7.3718839,8.223115 7.5612765,7.995278 7.78125,7.78125 8.221197,7.353194 8.72416,6.966724 9.28125,6.6875 9.559795,6.547888 9.8547231,6.440553 10.15625,6.34375 9.9000482,6.443972 9.6695391,6.580022 9.4375,6.71875 c -0.00741,0.0044 -0.023866,-0.0045 -0.03125,0 -0.031933,0.0193 -0.062293,0.04251 -0.09375,0.0625 -0.120395,0.0767 -0.2310226,0.163513 -0.34375,0.25 -0.1061728,0.0808 -0.2132809,0.161112 -0.3125,0.25 C 8.4783201,7.442683 8.3087904,7.626638 8.15625,7.8125 8.0486711,7.942755 7.9378561,8.077785 7.84375,8.21875 7.818661,8.25713 7.805304,8.30462 7.78125,8.34375 7.716487,8.446782 7.6510225,8.548267 7.59375,8.65625 7.4927417,8.850956 7.3880752,9.071951 7.3125,9.28125 7.30454,9.30306 7.288911,9.3218 7.28125,9.34375 7.2494249,9.4357 7.2454455,9.530581 7.21875,9.625 7.1884177,9.731618 7.1483606,9.828031 7.125,9.9375 7.0521214,10.279012 7,10.635705 7,11 v 2 68 2 c 0,2.781848 2.2181517,5 5,5 h 2 68 2 c 2.781848,0 5,-2.218152 5,-5 V 81 13 11 C 89,10.635705 88.94788,10.279012 88.875,9.9375 88.83085,9.730607 88.78662,9.539842 88.71875,9.34375 88.71105,9.3218 88.69545,9.30306 88.6875,9.28125 88.62476,9.107511 88.549117,8.913801 88.46875,8.75 88.42717,8.6672 88.38971,8.580046 88.34375,8.5 88.28915,8.40279 88.216976,8.31165 88.15625,8.21875 88.06214,8.077785 87.951329,7.942755 87.84375,7.8125 87.700576,7.63805 87.540609,7.465502 87.375,7.3125 87.36383,7.3023 87.35502,7.29135 87.34375,7.28125 87.205364,7.155694 87.058659,7.046814 86.90625,6.9375 86.803679,6.86435 86.701932,6.784136 86.59375,6.71875 c -0.0074,-0.0045 -0.02384,0.0044 -0.03125,0 -0.232039,-0.138728 -0.462548,-0.274778 -0.71875,-0.375 0.301527,0.0968 0.596455,0.204138 0.875,0.34375 0.55709,0.279224 1.060053,0.665694 1.5,1.09375 0.219973,0.214028 0.409366,0.441865 0.59375,0.6875 0.184384,0.245635 0.355408,0.507743 0.5,0.78125 0.14012,0.265048 0.276135,0.524729 0.375,0.8125 0.01041,0.03078 0.02133,0.06274 0.03125,0.09375 0.09046,0.278085 0.1388,0.579404 0.1875,0.875 C 89.95865,11.3493 90,11.665279 90,12 v 2 68 2 c 0,3.324 -2.676,6 -6,6 z"
       inkscape:connector-curvature="0"
       id="path3615"
       style="display:inline;opacity:0.2;fill:url(#radialGradient3619);fill-opacity:1;fill-rule:nonzero;stroke:none" /></g><g
     id="layer5"
     style="display:inline"><rect
       width="66"
       height="66"
       rx="12"
       ry="12"
       x="15"
       y="15"
       clip-path="url(#clipPath3613)"
       id="rect3171"
       style="display:inline;opacity:0.1;fill:url(#linearGradient3613);fill-opacity:1;fill-rule:nonzero;stroke:#ffffff;stroke-width:0.5;stroke-linecap:round;stroke-linejoin:miter;stroke-miterlimit:4;stroke-dasharray:none;stroke-dashoffset:0;stroke-opacity:1;filter:url(#filter3794)" /></g><path
     d="m 11.999998,6 c -3.324,0 -6,2.6760001 -6,6 v 35.5625 c -0.0015,0.146522 0,0.290623 0,0.4375 0,0.05108 -1.8e-4,0.105219 0,0.15625 17.493742,-4.749431 51.220412,-5.502447 74.054932,2.443906 3.55025,1.235477 7.40321,2.977334 9.35132,4.368594 0.10535,-0.629464 0.20428,-1.268468 0.28125,-1.90625 L 90,53.28125 V 48 12 C 90,8.6760001 87.324,6 84,6 H 47.999998 Z"
     inkscape:connector-curvature="0"
     id="path3132"
     style="display:inline;opacity:0.3;fill:url(#linearGradient4006);fill-opacity:1;fill-rule:evenodd;stroke:none"
     sodipodi:nodetypes="sscscsccccsscs" /></svg>
