<?xml version="1.0" encoding="UTF-8" standalone="no"?>
<!-- Created with Inkscape (http://www.inkscape.org/) -->

<svg
   xmlns:dc="http://purl.org/dc/elements/1.1/"
   xmlns:cc="http://creativecommons.org/ns#"
   xmlns:rdf="http://www.w3.org/1999/02/22-rdf-syntax-ns#"
   xmlns:svg="http://www.w3.org/2000/svg"
   xmlns="http://www.w3.org/2000/svg"
   xmlns:xlink="http://www.w3.org/1999/xlink"
   xmlns:sodipodi="http://sodipodi.sourceforge.net/DTD/sodipodi-0.dtd"
   xmlns:inkscape="http://www.inkscape.org/namespaces/inkscape"
   version="1.0"
   width="96"
   height="96"
   id="svg2408"
   inkscape:version="0.48.4 r9939"
   sodipodi:docname="tv.sc.svg">
  <sodipodi:namedview
     pagecolor="#ffffff"
     bordercolor="#666666"
     borderopacity="1"
     objecttolerance="10"
     gridtolerance="10"
     guidetolerance="10"
     inkscape:pageopacity="0"
     inkscape:pageshadow="2"
     inkscape:window-width="1598"
     inkscape:window-height="822"
     id="namedview54"
     showgrid="true"
     inkscape:snap-smooth-nodes="true"
     inkscape:object-nodes="true"
     inkscape:zoom="2.8284271"
     inkscape:cx="-18.892716"
     inkscape:cy="16.253901"
     inkscape:window-x="0"
     inkscape:window-y="28"
     inkscape:window-maximized="1"
     inkscape:current-layer="layer8">
    <inkscape:grid
       type="xygrid"
       id="grid3088"
       empspacing="5"
       visible="true"
       enabled="true"
       snapvisiblegridlinesonly="true" />
  </sodipodi:namedview>
  <defs
     id="defs2410">
    <linearGradient
       x1="45.447727"
       y1="92.539597"
       x2="45.447727"
       y2="7.0165396"
       id="ButtonShadow"
       gradientUnits="userSpaceOnUse"
       gradientTransform="scale(1.0058652,0.994169)">
      <stop
         id="stop3750"
         style="stop-color:#000000;stop-opacity:1"
         offset="0" />
      <stop
         id="stop3752"
         style="stop-color:#000000;stop-opacity:0.58823532"
         offset="1" />
    </linearGradient>
    <linearGradient
       id="linearGradient3737">
      <stop
         id="stop3739"
         style="stop-color:#ffffff;stop-opacity:1"
         offset="0" />
      <stop
         id="stop3741"
         style="stop-color:#ffffff;stop-opacity:0"
         offset="1" />
    </linearGradient>
    <linearGradient
       id="linearGradient3700">
      <stop
         id="stop3702"
         style="stop-color:#146d96;stop-opacity:0.97254902"
         offset="0" />
      <stop
         id="stop3704"
         style="stop-color:#3cade2;stop-opacity:0.99607843"
         offset="1" />
    </linearGradient>
    <filter
       color-interpolation-filters="sRGB"
       id="filter3174">
      <feGaussianBlur
         id="feGaussianBlur3176"
         stdDeviation="1.71" />
    </filter>
    <linearGradient
       x1="36.357143"
       y1="6"
       x2="36.357143"
       y2="63.893143"
       id="linearGradient3188"
       xlink:href="#linearGradient3737"
       gradientUnits="userSpaceOnUse" />
    <filter
       x="-0.192"
       y="-0.192"
       width="1.3839999"
       height="1.3839999"
       color-interpolation-filters="sRGB"
       id="filter3794">
      <feGaussianBlur
         id="feGaussianBlur3796"
         stdDeviation="5.28" />
    </filter>
    <radialGradient
       cx="48"
       cy="90.171875"
       r="42"
       fx="48"
       fy="90.171875"
       id="radialGradient3619"
       xlink:href="#linearGradient3737"
       gradientUnits="userSpaceOnUse"
       gradientTransform="matrix(1.1573129,0,0,0.99590774,-7.5510206,0.19713193)" />
    <clipPath
       id="clipPath3613">
      <rect
         width="84"
         height="84"
         rx="6"
         ry="6"
         x="6"
         y="6"
         id="rect3615"
         style="fill:#ffffff;fill-opacity:1;fill-rule:nonzero;stroke:none" />
    </clipPath>
    <linearGradient
       x1="48"
       y1="90"
       x2="48"
       y2="5.9877172"
       id="linearGradient3617"
       xlink:href="#linearGradient4093-6"
       gradientUnits="userSpaceOnUse" />
    <linearGradient
       x1="45.447727"
       y1="92.539597"
       x2="45.447727"
       y2="7.0165396"
       id="ButtonShadow-0"
       gradientUnits="userSpaceOnUse"
       gradientTransform="matrix(1.0058652,0,0,0.994169,100,0)">
      <stop
         id="stop3750-8"
         style="stop-color:#000000;stop-opacity:1"
         offset="0" />
      <stop
         id="stop3752-5"
         style="stop-color:#000000;stop-opacity:0.58823532"
         offset="1" />
    </linearGradient>
    <linearGradient
       x1="32.251034"
       y1="6.1317081"
       x2="32.251034"
       y2="90.238609"
       id="linearGradient3780"
       xlink:href="#ButtonShadow-0"
       gradientUnits="userSpaceOnUse"
       gradientTransform="matrix(1.0238095,0,0,1.0119048,-1.1428571,-98.071429)" />
    <linearGradient
       x1="32.251034"
       y1="6.1317081"
       x2="32.251034"
       y2="90.238609"
       id="linearGradient3772"
       xlink:href="#ButtonShadow-0"
       gradientUnits="userSpaceOnUse"
       gradientTransform="matrix(1.0238095,0,0,1.0119048,-1.1428571,-98.071429)" />
    <linearGradient
       x1="32.251034"
       y1="6.1317081"
       x2="32.251034"
       y2="90.238609"
       id="linearGradient3725"
       xlink:href="#ButtonShadow-0"
       gradientUnits="userSpaceOnUse"
       gradientTransform="matrix(1.0238095,0,0,1.0119048,-1.1428571,-98.071429)" />
    <linearGradient
       x1="32.251034"
       y1="6.1317081"
       x2="32.251034"
       y2="90.238609"
       id="linearGradient3721"
       xlink:href="#ButtonShadow-0"
       gradientUnits="userSpaceOnUse"
       gradientTransform="translate(0,-97)" />
    <linearGradient
       x1="32.251034"
       y1="6.1317081"
       x2="32.251034"
       y2="90.238609"
       id="linearGradient3026"
       xlink:href="#ButtonShadow-0"
       gradientUnits="userSpaceOnUse"
       gradientTransform="matrix(1.0238095,0,0,1.0119048,-1.1428571,-98.071429)" />
    <filter
       id="filter3763"
       color-interpolation-filters="sRGB">
      <feGaussianBlur
         stdDeviation="0.42"
         id="feGaussianBlur3765" />
    </filter>
    <linearGradient
       gradientTransform="translate(100,-1)"
       gradientUnits="userSpaceOnUse"
       xlink:href="#linearGradient3641"
       id="linearGradient3707"
       y2="21"
       x2="51"
       y1="62"
       x1="51" />
    <linearGradient
       gradientTransform="translate(100,0)"
       gradientUnits="userSpaceOnUse"
       xlink:href="#linearGradient3641"
       id="linearGradient3701"
       y2="80"
       x2="48"
       y1="32"
       x1="48" />
    <filter
       id="filter3665"
       color-interpolation-filters="sRGB">
      <feGaussianBlur
         stdDeviation="0.69"
         id="feGaussianBlur3667" />
    </filter>
    <filter
       id="filter3649"
       color-interpolation-filters="sRGB">
      <feGaussianBlur
         stdDeviation="0.01"
         id="feGaussianBlur3651" />
    </filter>
    <linearGradient
       gradientUnits="userSpaceOnUse"
       xlink:href="#linearGradient3737-36"
       id="linearGradient3613"
       y2="138.66119"
       x2="48"
       y1="20.220806"
       x1="48" />
    <filter
       id="filter3794-6"
       color-interpolation-filters="sRGB"
       height="1.3839999"
       width="1.3839999"
       y="-0.192"
       x="-0.192">
      <feGaussianBlur
         stdDeviation="5.28"
         id="feGaussianBlur3796-9" />
    </filter>
    <linearGradient
       id="linearGradient3737-36">
      <stop
         offset="0"
         style="stop-color:#ffffff;stop-opacity:1"
         id="stop3739-3" />
      <stop
         offset="1"
         style="stop-color:#ffffff;stop-opacity:0"
         id="stop3741-6" />
    </linearGradient>
    <linearGradient
       id="linearGradient3641">
      <stop
         offset="0"
         style="stop-color:#000000;stop-opacity:1"
         id="stop3643" />
      <stop
         offset="1"
         style="stop-color:#000000;stop-opacity:0"
         id="stop3645" />
    </linearGradient>
    <linearGradient
       id="linearGradient3702-7">
      <stop
         offset="0"
         style="stop-color:#d9d9d9;stop-opacity:1"
         id="stop3705-5" />
      <stop
         offset="1"
         style="stop-color:#d9d9d9;stop-opacity:0"
         id="stop3707-4" />
    </linearGradient>
    <linearGradient
       gradientTransform="translate(-4.8e-7,2.0000005)"
       y2="8"
       x2="48"
       y1="48"
       x1="48"
       gradientUnits="userSpaceOnUse"
       id="linearGradient4382"
       xlink:href="#linearGradient3702-7"
       inkscape:collect="always" />
    <linearGradient
       gradientTransform="translate(100,0)"
       gradientUnits="userSpaceOnUse"
       xlink:href="#linearGradient3700-48"
       id="linearGradient2982-0"
       y2="5.9877172"
       x2="48"
       y1="90"
       x1="48" />
    <linearGradient
       gradientTransform="matrix(1.0238095,0,0,1.0119048,-1.1428571,-98.071429)"
       gradientUnits="userSpaceOnUse"
       xlink:href="#ButtonShadow-0-6"
       id="linearGradient2918-2"
       y2="90.238609"
       x2="32.251034"
       y1="6.1317081"
       x1="32.251034" />
    <linearGradient
       gradientTransform="translate(0,-97)"
       gradientUnits="userSpaceOnUse"
       xlink:href="#ButtonShadow-0-6"
       id="linearGradient3721-0-7"
       y2="90.238609"
       x2="32.251034"
       y1="6.1317081"
       x1="32.251034" />
    <linearGradient
       gradientTransform="matrix(1.0238095,0,0,1.0119048,-1.1428571,-98.071429)"
       gradientUnits="userSpaceOnUse"
       xlink:href="#ButtonShadow-0-6"
       id="linearGradient3725-3"
       y2="90.238609"
       x2="32.251034"
       y1="6.1317081"
       x1="32.251034" />
    <linearGradient
       gradientTransform="matrix(1.0238095,0,0,1.0119048,-1.1428571,-98.071429)"
       gradientUnits="userSpaceOnUse"
       xlink:href="#ButtonShadow-0-6"
       id="linearGradient3772-1"
       y2="90.238609"
       x2="32.251034"
       y1="6.1317081"
       x1="32.251034" />
    <linearGradient
       gradientTransform="matrix(1.0238095,0,0,1.0119048,-1.1428571,-98.071429)"
       gradientUnits="userSpaceOnUse"
       xlink:href="#ButtonShadow-0-6"
       id="linearGradient3780-1"
       y2="90.238609"
       x2="32.251034"
       y1="6.1317081"
       x1="32.251034" />
    <linearGradient
       gradientTransform="matrix(1.0058652,0,0,0.994169,100,0)"
       gradientUnits="userSpaceOnUse"
       id="ButtonShadow-0-6"
       y2="7.0165396"
       x2="45.447727"
       y1="92.539597"
       x1="45.447727">
      <stop
         offset="0"
         style="stop-color:#000000;stop-opacity:1"
         id="stop3750-8-5" />
      <stop
         offset="1"
         style="stop-color:#000000;stop-opacity:0.58823532"
         id="stop3752-5-9" />
    </linearGradient>
    <filter
       id="filter3763-3"
       color-interpolation-filters="sRGB">
      <feGaussianBlur
         stdDeviation="0.42"
         id="feGaussianBlur3765-0" />
    </filter>
    <linearGradient
       gradientUnits="userSpaceOnUse"
       xlink:href="#linearGradient3702-2"
       id="linearGradient3709-6"
       y2="8"
       x2="48"
       y1="48"
       x1="48" />
    <linearGradient
       gradientUnits="userSpaceOnUse"
       xlink:href="#linearGradient3685-6"
       id="linearGradient3691-7"
       y2="8"
       x2="48"
       y1="88"
       x1="48" />
    <radialGradient
       gradientTransform="matrix(1.1573129,0,0,0.99590774,-7.551021,0.1971319)"
       gradientUnits="userSpaceOnUse"
       xlink:href="#linearGradient3737-3-1"
       id="radialGradient2858-5"
       fy="90.171875"
       fx="48"
       r="42"
       cy="90.171875"
       cx="48" />
    <linearGradient
       id="linearGradient3737-3-1">
      <stop
         offset="0"
         style="stop-color:#ffffff;stop-opacity:1"
         id="stop3739-5-1" />
      <stop
         offset="1"
         style="stop-color:#ffffff;stop-opacity:0"
         id="stop3741-7-8" />
    </linearGradient>
    <linearGradient
       gradientTransform="translate(100,-1)"
       gradientUnits="userSpaceOnUse"
       xlink:href="#linearGradient3641-4"
       id="linearGradient3707-1"
       y2="21"
       x2="51"
       y1="62"
       x1="51" />
    <linearGradient
       gradientTransform="translate(100,0)"
       gradientUnits="userSpaceOnUse"
       xlink:href="#linearGradient3641-4"
       id="linearGradient3701-9"
       y2="80"
       x2="48"
       y1="32"
       x1="48" />
    <linearGradient
       gradientUnits="userSpaceOnUse"
       xlink:href="#linearGradient3700-48"
       id="linearGradient3689-3"
       y2="5.9877172"
       x2="48"
       y1="90"
       x1="48" />
    <linearGradient
       gradientUnits="userSpaceOnUse"
       xlink:href="#linearGradient3737-1"
       id="linearGradient3687-0"
       y2="63.893143"
       x2="36.357143"
       y1="6"
       x1="36.357143" />
    <filter
       id="filter3665-8"
       color-interpolation-filters="sRGB">
      <feGaussianBlur
         stdDeviation="0.69"
         id="feGaussianBlur3667-7" />
    </filter>
    <filter
       id="filter3649-6"
       color-interpolation-filters="sRGB">
      <feGaussianBlur
         stdDeviation="1.38"
         id="feGaussianBlur3651-6" />
    </filter>
    <linearGradient
       gradientUnits="userSpaceOnUse"
       xlink:href="#linearGradient3727-3"
       id="linearGradient3635-6"
       y2="36"
       x2="48"
       y1="88"
       x1="48" />
    <linearGradient
       gradientUnits="userSpaceOnUse"
       xlink:href="#linearGradient3700-48"
       id="linearGradient3627-8"
       y2="32"
       x2="48"
       y1="88"
       x1="48" />
    <radialGradient
       gradientTransform="matrix(1.1573129,0,0,0.99590774,-7.5510206,0.19713193)"
       gradientUnits="userSpaceOnUse"
       xlink:href="#linearGradient3737-1"
       id="radialGradient3619-56"
       fy="90.171875"
       fx="48"
       r="42"
       cy="90.171875"
       cx="48" />
    <linearGradient
       gradientUnits="userSpaceOnUse"
       xlink:href="#linearGradient3737-1"
       id="linearGradient3613-7"
       y2="138.66119"
       x2="48"
       y1="20.220806"
       x1="48" />
    <filter
       id="filter3794-2"
       color-interpolation-filters="sRGB"
       height="1.3839999"
       width="1.3839999"
       y="-0.192"
       x="-0.192">
      <feGaussianBlur
         stdDeviation="5.28"
         id="feGaussianBlur3796-0" />
    </filter>
    <filter
       id="filter3174-4"
       color-interpolation-filters="sRGB">
      <feGaussianBlur
         stdDeviation="1.71"
         id="feGaussianBlur3176-3" />
    </filter>
    <linearGradient
       id="linearGradient3700-48">
      <stop
         offset="0"
         style="stop-color:#dcdcdc;stop-opacity:1"
         id="stop3702-0" />
      <stop
         offset="1"
         style="stop-color:#f0f0f0;stop-opacity:1"
         id="stop3704-2" />
    </linearGradient>
    <linearGradient
       id="linearGradient3737-1">
      <stop
         offset="0"
         style="stop-color:#ffffff;stop-opacity:1"
         id="stop3739-4" />
      <stop
         offset="1"
         style="stop-color:#ffffff;stop-opacity:0"
         id="stop3741-2" />
    </linearGradient>
    <linearGradient
       gradientTransform="scale(1.0058652,0.994169)"
       gradientUnits="userSpaceOnUse"
       id="ButtonShadow-3"
       y2="7.0165396"
       x2="45.447727"
       y1="92.539597"
       x1="45.447727">
      <stop
         offset="0"
         style="stop-color:#000000;stop-opacity:1"
         id="stop3750-2" />
      <stop
         offset="1"
         style="stop-color:#000000;stop-opacity:0.58823532"
         id="stop3752-4" />
    </linearGradient>
    <linearGradient
       id="linearGradient3641-4">
      <stop
         offset="0"
         style="stop-color:#000000;stop-opacity:1"
         id="stop3643-4" />
      <stop
         offset="1"
         style="stop-color:#000000;stop-opacity:0"
         id="stop3645-5" />
    </linearGradient>
    <linearGradient
       id="linearGradient3727-3">
      <stop
         offset="0"
         style="stop-color:#d5d5d5;stop-opacity:1"
         id="stop3729-5" />
      <stop
         offset="1"
         style="stop-color:#f1f1f1;stop-opacity:1"
         id="stop3731-2" />
    </linearGradient>
    <linearGradient
       id="linearGradient3685-6">
      <stop
         offset="0"
         style="stop-color:#ca0a0a;stop-opacity:1"
         id="stop3687-9" />
      <stop
         offset="1"
         style="stop-color:#f03131;stop-opacity:1"
         id="stop3689-1" />
    </linearGradient>
    <linearGradient
       id="linearGradient3702-2">
      <stop
         offset="0"
         style="stop-color:#d9d9d9;stop-opacity:1"
         id="stop3705-2" />
      <stop
         offset="1"
         style="stop-color:#d9d9d9;stop-opacity:0"
         id="stop3707-1" />
    </linearGradient>
    <linearGradient
       inkscape:collect="always"
       xlink:href="#linearGradient3700-48"
       id="linearGradient4721"
       gradientUnits="userSpaceOnUse"
       x1="48"
       y1="88"
       x2="48"
       y2="32"
       gradientTransform="translate(-39.774756,-10.429825)" />
    <linearGradient
       inkscape:collect="always"
       xlink:href="#linearGradient3641-4"
       id="linearGradient4723"
       gradientUnits="userSpaceOnUse"
       gradientTransform="translate(100,-1)"
       x1="51"
       y1="62"
       x2="51"
       y2="21" />
    <linearGradient
       id="linearGradient3641-4-2">
      <stop
         offset="0"
         style="stop-color:#000000;stop-opacity:1"
         id="stop3643-4-9" />
      <stop
         offset="1"
         style="stop-color:#000000;stop-opacity:0"
         id="stop3645-5-1" />
    </linearGradient>
    <clipPath
       id="clipPath3703-6-5">
      <rect
         style="fill:#ff00ff;fill-opacity:1;fill-rule:nonzero;stroke:none"
         id="rect3705-0-2"
         y="6"
         x="106"
         ry="6"
         rx="6"
         height="84"
         width="84" />
    </clipPath>
    <filter
       id="filter3649-6-7"
       color-interpolation-filters="sRGB">
      <feGaussianBlur
         stdDeviation="1.38"
         id="feGaussianBlur3651-6-3" />
    </filter>
    <linearGradient
       y2="21"
       x2="51"
       y1="62"
       x1="51"
       gradientTransform="translate(100,-1)"
       gradientUnits="userSpaceOnUse"
       id="linearGradient4744"
       xlink:href="#linearGradient3641-4-2"
       inkscape:collect="always" />
    <radialGradient
       inkscape:collect="always"
       xlink:href="#linearGradient4093-6"
       id="radialGradient7848"
       gradientUnits="userSpaceOnUse"
       gradientTransform="matrix(1.1448725,0,0,1.1448725,-9.909742,-44.400106)"
       cx="23.23012"
       cy="30.236851"
       fx="23.23012"
       fy="30.236851"
       r="20.484526" />
    <linearGradient
       id="linearGradient4093-6">
      <stop
         style="stop-color:#11bdff;stop-opacity:1;"
         offset="0"
         id="stop4095-2" />
      <stop
         style="stop-color:#0094cd;stop-opacity:1;"
         offset="1"
         id="stop4097-3" />
    </linearGradient>
    <radialGradient
       r="20.484526"
       fy="30.236851"
       fx="23.23012"
       cy="30.236851"
       cx="23.23012"
       gradientTransform="matrix(1.1448725,0,0,1.1448725,113.16847,-62.400106)"
       gradientUnits="userSpaceOnUse"
       id="radialGradient5465"
       xlink:href="#linearGradient4093-6"
       inkscape:collect="always" />
  </defs>
  <metadata
     id="metadata2413">
    <rdf:RDF>
      <cc:Work
         rdf:about="">
        <dc:format>image/svg+xml</dc:format>
        <dc:type
           rdf:resource="http://purl.org/dc/dcmitype/StillImage" />
        <dc:title />
      </cc:Work>
    </rdf:RDF>
  </metadata>
  <g
     id="layer2"
     style="display:none">
    <rect
       width="86"
       height="85"
       rx="6"
       ry="6"
       x="5"
       y="7"
       id="rect3745"
       style="opacity:0.9;fill:url(#ButtonShadow);fill-opacity:1;fill-rule:nonzero;stroke:none;filter:url(#filter3174)" />
  </g>
  <g
     inkscape:groupmode="layer"
     id="layer7"
     inkscape:label="Background"
     style="display:inline"
     sodipodi:insensitive="true">
    <g
       style="display:inline"
       id="layer3">
      <path
         d="m 12,-95.03125 c -5.5110903,0 -10.03125,4.52016 -10.03125,10.03125 l 0,71 c 0,5.5110902 4.5201598,10.03125 10.03125,10.03125 l 72,0 c 5.51109,0 10.03125,-4.5201597 10.03125,-10.03125 l 0,-71 c 0,-5.51109 -4.52016,-10.03125 -10.03125,-10.03125 l -72,0 z"
         transform="scale(1,-1)"
         id="path3786"
         style="opacity:0.07999998;fill:url(#linearGradient3026);fill-opacity:1;fill-rule:nonzero;stroke:none;display:inline"
         inkscape:connector-curvature="0" />
      <path
         d="m 12,-94.03125 c -4.971633,0 -9.03125,4.059617 -9.03125,9.03125 l 0,71 c 0,4.9716329 4.0596171,9.03125 9.03125,9.03125 l 72,0 c 4.971633,0 9.03125,-4.059617 9.03125,-9.03125 l 0,-71 c 0,-4.971633 -4.059617,-9.03125 -9.03125,-9.03125 l -72,0 z"
         transform="scale(1,-1)"
         id="path3778"
         style="opacity:0.1;fill:url(#linearGradient3780);fill-opacity:1;fill-rule:nonzero;stroke:none;display:inline"
         inkscape:connector-curvature="0" />
      <path
         d="m 12,-93 c -4.4091333,0 -8,3.590867 -8,8 l 0,71 c 0,4.4091333 3.5908667,8 8,8 l 72,0 c 4.409133,0 8,-3.5908667 8,-8 l 0,-71 c 0,-4.409133 -3.590867,-8 -8,-8 l -72,0 z"
         transform="scale(1,-1)"
         id="path3770"
         style="opacity:0.2;fill:url(#linearGradient3772);fill-opacity:1;fill-rule:nonzero;stroke:none;display:inline"
         inkscape:connector-curvature="0" />
      <rect
         width="86"
         height="85"
         rx="7"
         ry="7"
         x="5"
         y="-92"
         transform="scale(1,-1)"
         id="rect3723"
         style="opacity:0.3;fill:url(#linearGradient3725);fill-opacity:1;fill-rule:nonzero;stroke:none;display:inline" />
      <rect
         width="84"
         height="84"
         rx="6"
         ry="6"
         x="6"
         y="-91"
         transform="scale(1,-1)"
         id="rect3716"
         style="opacity:0.45;fill:url(#linearGradient3721);fill-opacity:1;fill-rule:nonzero;stroke:none;display:inline" />
    </g>
  </g>
  <g
     inkscape:groupmode="layer"
     id="layer6"
     inkscape:label="Field"
     style="display:inline">
    <g
       id="layer1">
      <rect
         width="84"
         height="84"
         rx="6"
         ry="6"
         x="6"
         y="6"
         id="rect2419"
         style="fill:url(#linearGradient3617);fill-opacity:1.0;fill-rule:nonzero;stroke:none" />
      <path
         d="M 12,6 C 8.676,6 6,8.676 6,12 l 0,2 0,68 0,2 c 0,0.334721 0.04135,0.6507 0.09375,0.96875 0.0487,0.295596 0.09704,0.596915 0.1875,0.875 0.00988,0.03038 0.020892,0.0636 0.03125,0.09375 0.098865,0.287771 0.2348802,0.547452 0.375,0.8125 0.1445918,0.273507 0.3156161,0.535615 0.5,0.78125 0.1843839,0.245635 0.3737765,0.473472 0.59375,0.6875 0.439947,0.428056 0.94291,0.814526 1.5,1.09375 0.278545,0.139612 0.5734731,0.246947 0.875,0.34375 -0.2562018,-0.100222 -0.4867109,-0.236272 -0.71875,-0.375 -0.00741,-0.0044 -0.023866,0.0045 -0.03125,0 -0.031933,-0.0193 -0.062293,-0.04251 -0.09375,-0.0625 -0.120395,-0.0767 -0.2310226,-0.163513 -0.34375,-0.25 -0.1061728,-0.0808 -0.2132809,-0.161112 -0.3125,-0.25 C 8.4783201,88.557317 8.3087904,88.373362 8.15625,88.1875 8.0486711,88.057245 7.9378561,87.922215 7.84375,87.78125 7.818661,87.74287 7.805304,87.69538 7.78125,87.65625 7.716487,87.553218 7.6510225,87.451733 7.59375,87.34375 7.4927417,87.149044 7.3880752,86.928049 7.3125,86.71875 7.30454,86.69694 7.288911,86.6782 7.28125,86.65625 7.2494249,86.5643 7.2454455,86.469419 7.21875,86.375 7.1884177,86.268382 7.1483606,86.171969 7.125,86.0625 7.0521214,85.720988 7,85.364295 7,85 L 7,83 7,15 7,13 C 7,10.218152 9.2181517,8 12,8 l 2,0 68,0 2,0 c 2.781848,0 5,2.218152 5,5 l 0,2 0,68 0,2 c 0,0.364295 -0.05212,0.720988 -0.125,1.0625 -0.04415,0.206893 -0.08838,0.397658 -0.15625,0.59375 -0.0077,0.02195 -0.0233,0.04069 -0.03125,0.0625 -0.06274,0.173739 -0.138383,0.367449 -0.21875,0.53125 -0.04158,0.0828 -0.07904,0.169954 -0.125,0.25 -0.0546,0.09721 -0.126774,0.18835 -0.1875,0.28125 -0.09411,0.140965 -0.204921,0.275995 -0.3125,0.40625 -0.143174,0.17445 -0.303141,0.346998 -0.46875,0.5 -0.01117,0.0102 -0.01998,0.02115 -0.03125,0.03125 -0.138386,0.125556 -0.285091,0.234436 -0.4375,0.34375 -0.102571,0.07315 -0.204318,0.153364 -0.3125,0.21875 -0.0074,0.0045 -0.02384,-0.0044 -0.03125,0 -0.232039,0.138728 -0.462548,0.274778 -0.71875,0.375 0.301527,-0.0968 0.596455,-0.204138 0.875,-0.34375 0.55709,-0.279224 1.060053,-0.665694 1.5,-1.09375 0.219973,-0.214028 0.409366,-0.441865 0.59375,-0.6875 0.184384,-0.245635 0.355408,-0.507743 0.5,-0.78125 0.14012,-0.265048 0.276135,-0.524729 0.375,-0.8125 0.01041,-0.03078 0.02133,-0.06274 0.03125,-0.09375 0.09046,-0.278085 0.1388,-0.579404 0.1875,-0.875 C 89.95865,84.6507 90,84.334721 90,84 l 0,-2 0,-68 0,-2 C 90,8.676 87.324,6 84,6 L 12,6 z"
         inkscape:connector-curvature="0"
         id="rect3728"
         style="opacity:0.4;fill:url(#linearGradient3188);fill-opacity:1;fill-rule:nonzero;stroke:none" />
      <path
         d="M 12,90 C 8.676,90 6,87.324 6,84 L 6,82 6,14 6,12 c 0,-0.334721 0.04135,-0.6507 0.09375,-0.96875 0.0487,-0.295596 0.09704,-0.596915 0.1875,-0.875 C 6.29113,10.12587 6.302142,10.09265 6.3125,10.0625 6.411365,9.774729 6.5473802,9.515048 6.6875,9.25 6.8320918,8.976493 7.0031161,8.714385 7.1875,8.46875 7.3718839,8.223115 7.5612765,7.995278 7.78125,7.78125 8.221197,7.353194 8.72416,6.966724 9.28125,6.6875 9.559795,6.547888 9.8547231,6.440553 10.15625,6.34375 9.9000482,6.443972 9.6695391,6.580022 9.4375,6.71875 c -0.00741,0.0044 -0.023866,-0.0045 -0.03125,0 -0.031933,0.0193 -0.062293,0.04251 -0.09375,0.0625 -0.120395,0.0767 -0.2310226,0.163513 -0.34375,0.25 -0.1061728,0.0808 -0.2132809,0.161112 -0.3125,0.25 C 8.4783201,7.442683 8.3087904,7.626638 8.15625,7.8125 8.0486711,7.942755 7.9378561,8.077785 7.84375,8.21875 7.818661,8.25713 7.805304,8.30462 7.78125,8.34375 7.716487,8.446782 7.6510225,8.548267 7.59375,8.65625 7.4927417,8.850956 7.3880752,9.071951 7.3125,9.28125 7.30454,9.30306 7.288911,9.3218 7.28125,9.34375 7.2494249,9.4357 7.2454455,9.530581 7.21875,9.625 7.1884177,9.731618 7.1483606,9.828031 7.125,9.9375 7.0521214,10.279012 7,10.635705 7,11 l 0,2 0,68 0,2 c 0,2.781848 2.2181517,5 5,5 l 2,0 68,0 2,0 c 2.781848,0 5,-2.218152 5,-5 l 0,-2 0,-68 0,-2 C 89,10.635705 88.94788,10.279012 88.875,9.9375 88.83085,9.730607 88.78662,9.539842 88.71875,9.34375 88.71105,9.3218 88.69545,9.30306 88.6875,9.28125 88.62476,9.107511 88.549117,8.913801 88.46875,8.75 88.42717,8.6672 88.38971,8.580046 88.34375,8.5 88.28915,8.40279 88.216976,8.31165 88.15625,8.21875 88.06214,8.077785 87.951329,7.942755 87.84375,7.8125 87.700576,7.63805 87.540609,7.465502 87.375,7.3125 87.36383,7.3023 87.35502,7.29135 87.34375,7.28125 87.205364,7.155694 87.058659,7.046814 86.90625,6.9375 86.803679,6.86435 86.701932,6.784136 86.59375,6.71875 c -0.0074,-0.0045 -0.02384,0.0044 -0.03125,0 -0.232039,-0.138728 -0.462548,-0.274778 -0.71875,-0.375 0.301527,0.0968 0.596455,0.204138 0.875,0.34375 0.55709,0.279224 1.060053,0.665694 1.5,1.09375 0.219973,0.214028 0.409366,0.441865 0.59375,0.6875 0.184384,0.245635 0.355408,0.507743 0.5,0.78125 0.14012,0.265048 0.276135,0.524729 0.375,0.8125 0.01041,0.03078 0.02133,0.06274 0.03125,0.09375 0.09046,0.278085 0.1388,0.579404 0.1875,0.875 C 89.95865,11.3493 90,11.665279 90,12 l 0,2 0,68 0,2 c 0,3.324 -2.676,6 -6,6 l -72,0 z"
         inkscape:connector-curvature="0"
         id="path3615"
         style="opacity:0.2;fill:url(#radialGradient3619);fill-opacity:1;fill-rule:nonzero;stroke:none" />
    </g>
  </g>
  <g
     inkscape:groupmode="layer"
     id="layer8"
     inkscape:label="Detail"
     style="display:inline">
    <path
       style="display:inline;opacity:0.6;fill:url(#linearGradient4744);fill-opacity:1;stroke:none;filter:url(#filter3649-6-7)"
       id="path3637"
       clip-path="url(#clipPath3703-6-5)"
       transform="translate(-106,-5)"
       inkscape:connector-curvature="0"
       d="m 128.5,53 13.5,-10 -3,6 30,0 -3,-6 15,10 c -0.44968,-12.774517 -19.73742,-30.627316 -35,-22 -15.26258,8.627316 -17.5,9.734747 -17.5,22 z"
       sodipodi:nodetypes="ccccccsc" />
    <path
       style="fill:none;stroke:#729fcf;stroke-width:1;display:inline"
       d="m 36.5,38 0,5.5 12.5,0 10.5,0 0,-5.5 14,10 -14,10 0,-5.5 -10.5,0 -12.5,0 0,5.5 -14,-10 z"
       id="path3148"
       inkscape:connector-curvature="0"
       sodipodi:nodetypes="ccccccccccccc" />
    <path
       style="fill:#ffffff;fill-opacity:1;stroke:none;display:inline"
       d="M 48,17.5 C 31.155315,17.5 17.5,31.155315 17.5,48 17.5,64.844685 31.155315,78.5 48,78.5 64.844685,78.5 78.5,64.844685 78.5,48 78.5,31.155315 64.844685,17.5 48,17.5 z M 38,36 l -1,6.5 12,0 10,0 -1,-6.5 17,12 -17,12 1,-6.5 -10,0 -12,0 1,6.5 -17,-12 z"
       id="path3109"
       inkscape:connector-curvature="0"
       sodipodi:nodetypes="sssssccccccccccccc" />
    <path
       style="fill:#204a87;fill-opacity:1;stroke:none;display:inline"
       d="m 48,17 c -17.120827,0 -31,13.879173 -31,31 0,0.167787 -0.0027,0.332846 0,0.5 C 17.268358,31.610886 31.04696,18 48,18 64.95304,18 78.731642,31.610886 79,48.5 79.002656,48.332846 79,48.167787 79,48 79,30.879173 65.120827,17 48,17 z"
       id="path3133"
       inkscape:connector-curvature="0" />
    <path
       sodipodi:type="arc"
       style="opacity:0.5;fill:none;stroke:#3465a4;stroke-width:1.0169493;display:inline"
       id="path3138"
       sodipodi:cx="45"
       sodipodi:cy="51"
       sodipodi:rx="30"
       sodipodi:ry="30"
       d="m 75,51 a 30,30 0 1 1 -60,0 30,30 0 1 1 60,0 z"
       transform="matrix(0.98333333,0,0,0.98333333,3.749999,-2.1499989)" />
    <path
       style="fill:none;stroke:#3465a4;stroke-width:1;display:inline"
       d="M 48,17.5 C 31.155315,17.5 17.5,31.155315 17.5,48 17.5,64.844685 31.155315,78.5 48,78.5 64.844685,78.5 78.5,64.844685 78.5,48 78.5,31.155315 64.844685,17.5 48,17.5 z"
       id="path3160"
       inkscape:connector-curvature="0" />
    <path
       style="fill:none;stroke:#204a87;stroke-width:1;display:inline"
       d="m 37.5,36 0,6.5 11.5,0 9.5,0 0,-6.5 16.5,12 -16.5,12 0,-6.5 -9.5,0 -11.5,0 0,6.5 L 21,48 z"
       id="path3156"
       inkscape:connector-curvature="0"
       sodipodi:nodetypes="ccccccccccccc" />
  </g>
  <g
     inkscape:groupmode="layer"
     id="layer4"
     inkscape:label="Glow"
     style="display:inline"
     sodipodi:insensitive="true">
    <g
       id="layer5"
       style="fill:#0081fd;fill-opacity:1">
      <rect
         width="66"
         height="66"
         rx="12"
         ry="12"
         x="15"
         y="15"
         clip-path="url(#clipPath3613)"
         id="rect3171"
         style="opacity:0.1;fill:#0081fd;fill-opacity:1;fill-rule:nonzero;stroke:#ffffff;stroke-width:0.5;stroke-linecap:round;stroke-linejoin:miter;stroke-miterlimit:4;stroke-opacity:1;stroke-dasharray:none;stroke-dashoffset:0;filter:url(#filter3794)" />
    </g>
    <path
       style="opacity:0.2;fill:url(#linearGradient4382);fill-opacity:1;stroke:none"
       id="rect3256"
       inkscape:connector-curvature="0"
       d="m 18,8 0,1 -6,0 C 9.205699,9 7,11.205699 7,14 l 0,47.28125 c 20.047861,-14.526567 48.392015,-24.884261 82,-23 L 89,14 C 89,11.205699 86.794301,9 84,9 L 78,9 78,8 18,8 z" />
  </g>
</svg>
