<?xml version="1.0" encoding="UTF-8" standalone="no"?>
<!-- Created with Inkscape (http://www.inkscape.org/) -->

<svg
   version="1.0"
   width="96"
   height="96"
   id="svg2408"
   sodipodi:docname="virt-manager.svg"
   xml:space="preserve"
   inkscape:version="1.4.1 (93de688d07, 2025-03-30)"
   xmlns:inkscape="http://www.inkscape.org/namespaces/inkscape"
   xmlns:sodipodi="http://sodipodi.sourceforge.net/DTD/sodipodi-0.dtd"
   xmlns:xlink="http://www.w3.org/1999/xlink"
   xmlns="http://www.w3.org/2000/svg"
   xmlns:svg="http://www.w3.org/2000/svg"
   xmlns:rdf="http://www.w3.org/1999/02/22-rdf-syntax-ns#"
   xmlns:cc="http://creativecommons.org/ns#"
   xmlns:dc="http://purl.org/dc/elements/1.1/"><sodipodi:namedview
     id="namedview1"
     pagecolor="#ffffff"
     bordercolor="#000000"
     borderopacity="0.25"
     inkscape:showpageshadow="2"
     inkscape:pageopacity="0.0"
     inkscape:pagecheckerboard="0"
     inkscape:deskcolor="#d1d1d1"
     inkscape:zoom="4.3494433"
     inkscape:cx="-1.7243586"
     inkscape:cy="67.249986"
     inkscape:window-width="2544"
     inkscape:window-height="1374"
     inkscape:window-x="16"
     inkscape:window-y="1440"
     inkscape:window-maximized="0"
     inkscape:current-layer="svg2408" /><defs
     id="defs2410"><linearGradient
       id="linearGradient12"
       inkscape:collect="always"><stop
         style="stop-color:#000000;stop-opacity:1;"
         offset="0"
         id="stop11" /><stop
         style="stop-color:#000000;stop-opacity:0;"
         offset="0.71527779"
         id="stop12" /></linearGradient><linearGradient
       id="linearGradient1"
       inkscape:collect="always"><stop
         style="stop-color:#000000;stop-opacity:1;"
         offset="0"
         id="stop1" /><stop
         style="stop-color:#000000;stop-opacity:0;"
         offset="1"
         id="stop2" /></linearGradient><inkscape:path-effect
       effect="mirror_symmetry"
       start_point="501.6,68.83"
       end_point="20.25,66.75"
       center_point="260.925,67.79"
       id="path-effect93"
       is_visible="true"
       lpeversion="1.2"
       lpesatellites=""
       mode="free"
       discard_orig_path="false"
       fuse_paths="false"
       oposite_fuse="false"
       split_items="true"
       split_open="false"
       link_styles="false" /><inkscape:path-effect
       effect="mirror_symmetry"
       start_point="47.808878,70.049999"
       end_point="47.808878,35.630839"
       center_point="47.808878,52.840419"
       id="path-effect92"
       is_visible="true"
       lpeversion="1.2"
       lpesatellites=""
       mode="free"
       discard_orig_path="false"
       fuse_paths="false"
       oposite_fuse="false"
       split_items="false"
       split_open="false"
       link_styles="false" /><inkscape:path-effect
       effect="tiling"
       id="path-effect91"
       is_visible="true"
       lpeversion="1.3.1"
       unit="px"
       seed="1;1"
       lpesatellites=""
       num_rows="22"
       num_cols="28"
       gapx="-13"
       gapy="-9"
       offset="0"
       offset_type="false"
       scale="0"
       rotate="0"
       mirrorrowsx="false"
       mirrorrowsy="false"
       mirrorcolsx="false"
       mirrorcolsy="false"
       mirrortrans="false"
       shrink_interp="false"
       split_items="false"
       link_styles="false"
       interpolate_scalex="false"
       interpolate_scaley="true"
       interpolate_rotatex="false"
       interpolate_rotatey="true"
       random_scale="false"
       random_rotate="false"
       random_gap_y="false"
       random_gap_x="false"
       transformorigin="" /><linearGradient
       id="linearGradient76"
       inkscape:collect="always"><stop
         style="stop-color:#3b3e41;stop-opacity:1;"
         offset="0"
         id="stop77" /><stop
         style="stop-color:#7b7e80;stop-opacity:1;"
         offset="0.1754386"
         id="stop79" /><stop
         style="stop-color:#474b4d;stop-opacity:1;"
         offset="0.42456141"
         id="stop80" /><stop
         style="stop-color:#6b6e70;stop-opacity:1;"
         offset="0.67719299"
         id="stop81" /><stop
         style="stop-color:#525455;stop-opacity:1;"
         offset="1"
         id="stop78" /></linearGradient><linearGradient
       id="linearGradient71"
       inkscape:collect="always"><stop
         style="stop-color:#959a9c;stop-opacity:1;"
         offset="0"
         id="stop72" /><stop
         style="stop-color:#babebf;stop-opacity:1;"
         offset="0.19649123"
         id="stop74" /><stop
         style="stop-color:#9da3a4;stop-opacity:1;"
         offset="0.43859652"
         id="stop76" /><stop
         style="stop-color:#aeb3b3;stop-opacity:1;"
         offset="0.68421048"
         id="stop75" /><stop
         style="stop-color:#8e9191;stop-opacity:1;"
         offset="1"
         id="stop73" /></linearGradient><linearGradient
       id="linearGradient69"
       inkscape:collect="always"><stop
         style="stop-color:#3d4143;stop-opacity:1;"
         offset="0"
         id="stop69" /><stop
         style="stop-color:#545659;stop-opacity:1;"
         offset="0.56140351"
         id="stop70" /><stop
         style="stop-color:#3d3f41;stop-opacity:1;"
         offset="1"
         id="stop71" /></linearGradient><linearGradient
       id="linearGradient67"
       inkscape:collect="always"><stop
         style="stop-color:#5d6568;stop-opacity:1;"
         offset="0"
         id="stop67" /><stop
         style="stop-color:#878d8f;stop-opacity:1;"
         offset="1"
         id="stop68" /></linearGradient><linearGradient
       id="linearGradient63"
       inkscape:collect="always"><stop
         style="stop-color:#3d4144;stop-opacity:1;"
         offset="0"
         id="stop64" /><stop
         style="stop-color:#56595b;stop-opacity:1;"
         offset="1"
         id="stop65" /></linearGradient><linearGradient
       id="linearGradient58"
       inkscape:collect="always"><stop
         style="stop-color:#3d4043;stop-opacity:1"
         offset="0"
         id="stop59" /><stop
         style="stop-color:#77797b;stop-opacity:1"
         offset="0.19649123"
         id="stop61" /><stop
         style="stop-color:#46494c;stop-opacity:1"
         offset="0.45838073"
         id="stop62" /><stop
         style="stop-color:#676a6b;stop-opacity:1"
         offset="0.70519108"
         id="stop63" /><stop
         style="stop-color:#545758;stop-opacity:1"
         offset="1"
         id="stop60" /></linearGradient><linearGradient
       id="linearGradient54"
       inkscape:collect="always"><stop
         style="stop-color:#9ea4a5;stop-opacity:1;"
         offset="0"
         id="stop54" /><stop
         style="stop-color:#b8bbbd;stop-opacity:1"
         offset="0.2"
         id="stop56" /><stop
         style="stop-color:#9ca1a3;stop-opacity:1"
         offset="0.46666667"
         id="stop58" /><stop
         style="stop-color:#afb3b4;stop-opacity:1"
         offset="0.71228069"
         id="stop57" /><stop
         style="stop-color:#8e9293;stop-opacity:1"
         offset="1"
         id="stop55" /></linearGradient><linearGradient
       id="linearGradient50"
       inkscape:collect="always"><stop
         style="stop-color:#5c6467;stop-opacity:1;"
         offset="0"
         id="stop50" /><stop
         style="stop-color:#999fa0;stop-opacity:1;"
         offset="0.7157895"
         id="stop52" /><stop
         style="stop-color:#686a6b;stop-opacity:0.94901961;"
         offset="1"
         id="stop51" /></linearGradient><linearGradient
       id="linearGradient45"
       inkscape:collect="always"><stop
         style="stop-color:#55303a;stop-opacity:0.94901961;"
         offset="0"
         id="stop47" /><stop
         style="stop-color:#814252;stop-opacity:1;"
         offset="0.2736842"
         id="stop45" /><stop
         style="stop-color:#631528;stop-opacity:1;"
         offset="1"
         id="stop46" /></linearGradient><linearGradient
       x1="45.447727"
       y1="92.539597"
       x2="45.447727"
       y2="7.0165396"
       id="ButtonShadow"
       gradientUnits="userSpaceOnUse"
       gradientTransform="scale(1.0058652,0.994169)"><stop
         id="stop3750"
         style="stop-color:#000000;stop-opacity:1"
         offset="0" /><stop
         id="stop3752"
         style="stop-color:#000000;stop-opacity:0.58823532"
         offset="1" /></linearGradient><linearGradient
       id="linearGradient3737"><stop
         id="stop3739"
         style="stop-color:#ffffff;stop-opacity:1"
         offset="0" /><stop
         id="stop3741"
         style="stop-color:#ffffff;stop-opacity:0"
         offset="1" /></linearGradient><linearGradient
       id="linearGradient3700"><stop
         id="stop3702"
         style="stop-color:#93979c;stop-opacity:1;"
         offset="0" /><stop
         id="stop3704"
         style="stop-color:#d0d2d7;stop-opacity:1;"
         offset="1" /></linearGradient><filter
       color-interpolation-filters="sRGB"
       id="filter3174"
       x="-0.047720931"
       y="-0.048282354"
       width="1.0954419"
       height="1.0965647"><feGaussianBlur
         id="feGaussianBlur3176"
         stdDeviation="1.71" /></filter><linearGradient
       x1="36.357143"
       y1="6"
       x2="36.357143"
       y2="63.893143"
       id="linearGradient3188"
       xlink:href="#linearGradient3737"
       gradientUnits="userSpaceOnUse" /><filter
       x="-0.19578789"
       y="-0.19578789"
       width="1.3915758"
       height="1.3915758"
       color-interpolation-filters="sRGB"
       id="filter3794"><feGaussianBlur
         id="feGaussianBlur3796"
         stdDeviation="5.28" /></filter><linearGradient
       x1="48"
       y1="20.220806"
       x2="48"
       y2="138.66119"
       id="linearGradient3613"
       xlink:href="#linearGradient3737"
       gradientUnits="userSpaceOnUse" /><radialGradient
       cx="48"
       cy="90.171875"
       r="42"
       fx="48"
       fy="90.171875"
       id="radialGradient3619"
       xlink:href="#linearGradient3737"
       gradientUnits="userSpaceOnUse"
       gradientTransform="matrix(1.1573129,0,0,0.99590774,-7.5510206,0.19713193)" /><clipPath
       id="clipPath3613"><rect
         width="84"
         height="84"
         rx="6"
         ry="6"
         x="6"
         y="6"
         id="rect3615"
         style="fill:#ffffff;fill-opacity:1;fill-rule:nonzero;stroke:none" /></clipPath><linearGradient
       x1="48"
       y1="90"
       x2="48"
       y2="5.9877172"
       id="linearGradient3617"
       xlink:href="#linearGradient3700"
       gradientUnits="userSpaceOnUse" /><linearGradient
       x1="45.447727"
       y1="92.539597"
       x2="45.447727"
       y2="7.0165396"
       id="ButtonShadow-0"
       gradientUnits="userSpaceOnUse"
       gradientTransform="matrix(1.0058652,0,0,0.994169,100,0)"><stop
         id="stop3750-8"
         style="stop-color:#000000;stop-opacity:1"
         offset="0" /><stop
         id="stop3752-5"
         style="stop-color:#000000;stop-opacity:0.58823532"
         offset="1" /></linearGradient><linearGradient
       x1="32.251034"
       y1="6.1317081"
       x2="32.251034"
       y2="90.238609"
       id="linearGradient3780"
       xlink:href="#ButtonShadow-0"
       gradientUnits="userSpaceOnUse"
       gradientTransform="matrix(1.0238095,0,0,1.0119048,-1.1428571,-98.071429)" /><linearGradient
       x1="32.251034"
       y1="6.1317081"
       x2="32.251034"
       y2="90.238609"
       id="linearGradient3772"
       xlink:href="#ButtonShadow-0"
       gradientUnits="userSpaceOnUse"
       gradientTransform="matrix(1.0238095,0,0,1.0119048,-1.1428571,-98.071429)" /><linearGradient
       x1="32.251034"
       y1="6.1317081"
       x2="32.251034"
       y2="90.238609"
       id="linearGradient3725"
       xlink:href="#ButtonShadow-0"
       gradientUnits="userSpaceOnUse"
       gradientTransform="matrix(1.0238095,0,0,1.0119048,-1.1428571,-98.071429)" /><linearGradient
       x1="32.251034"
       y1="6.1317081"
       x2="32.251034"
       y2="90.238609"
       id="linearGradient3721"
       xlink:href="#ButtonShadow-0"
       gradientUnits="userSpaceOnUse"
       gradientTransform="translate(0,-97)" /><linearGradient
       x1="32.251034"
       y1="6.1317081"
       x2="32.251034"
       y2="90.238609"
       id="linearGradient3122"
       xlink:href="#ButtonShadow-0"
       gradientUnits="userSpaceOnUse"
       gradientTransform="matrix(1.0238095,0,0,1.0119048,-1.1428571,-98.071429)" /><linearGradient
       inkscape:collect="always"
       xlink:href="#linearGradient45"
       id="linearGradient46"
       x1="23.964077"
       y1="66.428436"
       x2="23.964077"
       y2="35.151318"
       gradientUnits="userSpaceOnUse" /><linearGradient
       inkscape:collect="always"
       xlink:href="#linearGradient50"
       id="linearGradient51"
       x1="34.798992"
       y1="35.674068"
       x2="35.121952"
       y2="66.428436"
       gradientUnits="userSpaceOnUse" /><linearGradient
       inkscape:collect="always"
       xlink:href="#linearGradient54"
       id="linearGradient55"
       x1="47.263489"
       y1="35.761192"
       x2="47.783062"
       y2="66.557457"
       gradientUnits="userSpaceOnUse" /><linearGradient
       inkscape:collect="always"
       xlink:href="#linearGradient58"
       id="linearGradient60"
       x1="54.364342"
       y1="35.696369"
       x2="54.873302"
       y2="66.887108"
       gradientUnits="userSpaceOnUse" /><linearGradient
       inkscape:collect="always"
       xlink:href="#linearGradient63"
       id="linearGradient65"
       x1="63.315044"
       y1="45.852161"
       x2="63.619476"
       y2="66.735161"
       gradientUnits="userSpaceOnUse" /><linearGradient
       inkscape:collect="always"
       xlink:href="#linearGradient67"
       id="linearGradient68"
       x1="59.90625"
       y1="35.9375"
       x2="59.78334"
       y2="56.019314"
       gradientUnits="userSpaceOnUse" /><linearGradient
       inkscape:collect="always"
       xlink:href="#linearGradient69"
       id="linearGradient70"
       x1="40.28727"
       y1="46.506252"
       x2="40.373863"
       y2="66.334564"
       gradientUnits="userSpaceOnUse" /><linearGradient
       inkscape:collect="always"
       xlink:href="#linearGradient71"
       id="linearGradient73"
       x1="67.1875"
       y1="35.9375"
       x2="67.1875"
       y2="66.75"
       gradientUnits="userSpaceOnUse" /><linearGradient
       inkscape:collect="always"
       xlink:href="#linearGradient76"
       id="linearGradient78"
       x1="76.240211"
       y1="35.9375"
       x2="76.240211"
       y2="66.75"
       gradientUnits="userSpaceOnUse" /><clipPath
       clipPathUnits="userSpaceOnUse"
       id="clipPath92"><path
         style="opacity:0.2;fill:#ffffff;fill-opacity:1;stroke:none;stroke-width:3.40157;stroke-linejoin:round;stroke-dasharray:none;stroke-opacity:1"
         d="M 20.227699,4.96875 5,17.089339 v 1.233857 L 21.637951,4.96875 Z m 3.637951,0 -15.227699,12.120589 v 1.233857 L 25.275902,4.96875 Z m 3.637951,0 -15.227699,12.120589 v 1.233857 L 28.913853,4.96875 Z m 3.637951,0 -15.227699,12.120589 v 1.233857 L 32.551804,4.96875 Z m 3.637951,0 -15.227699,12.120589 v 1.233857 L 36.189755,4.96875 Z m 3.637951,0 -15.227699,12.120589 v 1.233857 L 39.827706,4.96875 Z m 3.637951,0 -15.227699,12.120589 v 1.233857 L 43.465657,4.96875 Z m 3.637951,0 -15.227699,12.120589 v 1.233857 L 47.103608,4.96875 Z m 3.637951,0 -15.227699,12.120589 v 1.233857 L 50.741559,4.96875 Z m 3.637951,0 -15.227699,12.120589 v 1.233857 L 54.37951,4.96875 Z m 3.637951,0 -15.227699,12.120589 v 1.233857 L 58.017461,4.96875 Z m 3.637951,0 -15.227699,12.120589 v 1.233857 L 61.655412,4.96875 Z m 3.637951,0 -15.227699,12.120589 v 1.233857 L 65.293363,4.96875 Z m 3.637951,0 -15.227699,12.120589 v 1.233857 L 68.931314,4.96875 Z m 3.637951,0 -15.227699,12.120589 v 1.233857 L 72.569265,4.96875 Z m 3.637951,0 -15.227699,12.120589 v 1.233857 L 76.207216,4.96875 Z m 3.637951,0 -15.227699,12.120589 v 1.233857 L 79.845167,4.96875 Z m 3.637951,0 -15.227699,12.120589 v 1.233857 L 83.483118,4.96875 Z m 3.637951,0 -15.227699,12.120589 v 1.233857 L 87.121069,4.96875 Z m 3.637951,0 -15.227699,12.120589 v 1.233857 L 90.75902,4.96875 Z m 3.637951,0 -15.227699,12.120589 v 1.233857 L 94.396971,4.96875 Z m 3.637951,0 -15.227699,12.120589 v 1.233857 L 98.034922,4.96875 Z m 3.63795,0 -15.227698,12.120589 v 1.233857 L 101.67287,4.96875 Z m 3.63795,0 -15.227697,12.120589 v 1.233857 L 105.31082,4.96875 Z m 3.63795,0 -15.227696,12.120589 v 1.233857 L 108.94878,4.96875 Z m 3.63795,0 -15.227695,12.120589 v 1.233857 L 112.58673,4.96875 Z m 3.63796,0 -15.227704,12.120589 v 1.233857 L 116.22468,4.96875 Z m 3.63795,0 -15.2277,12.120589 v 1.233857 L 119.86263,4.96875 Z M 20.227699,9.323196 5,21.443785 v 1.233857 L 21.637951,9.323196 Z m 3.637951,0 -15.227699,12.120589 v 1.233857 L 25.275902,9.323196 Z m 3.637951,0 -15.227699,12.120589 v 1.233857 L 28.913853,9.323196 Z m 3.637951,0 -15.227699,12.120589 v 1.233857 L 32.551804,9.323196 Z m 3.637951,0 -15.227699,12.120589 v 1.233857 L 36.189755,9.323196 Z m 3.637951,0 -15.227699,12.120589 v 1.233857 L 39.827706,9.323196 Z m 3.637951,0 -15.227699,12.120589 v 1.233857 L 43.465657,9.323196 Z m 3.637951,0 -15.227699,12.120589 v 1.233857 L 47.103608,9.323196 Z m 3.637951,0 -15.227699,12.120589 v 1.233857 L 50.741559,9.323196 Z m 3.637951,0 -15.227699,12.120589 v 1.233857 L 54.37951,9.323196 Z m 3.637951,0 -15.227699,12.120589 v 1.233857 L 58.017461,9.323196 Z m 3.637951,0 -15.227699,12.120589 v 1.233857 L 61.655412,9.323196 Z m 3.637951,0 -15.227699,12.120589 v 1.233857 L 65.293363,9.323196 Z m 3.637951,0 -15.227699,12.120589 v 1.233857 L 68.931314,9.323196 Z m 3.637951,0 -15.227699,12.120589 v 1.233857 L 72.569265,9.323196 Z m 3.637951,0 -15.227699,12.120589 v 1.233857 L 76.207216,9.323196 Z m 3.637951,0 -15.227699,12.120589 v 1.233857 L 79.845167,9.323196 Z m 3.637951,0 -15.227699,12.120589 v 1.233857 L 83.483118,9.323196 Z m 3.637951,0 -15.227699,12.120589 v 1.233857 L 87.121069,9.323196 Z m 3.637951,0 -15.227699,12.120589 v 1.233857 L 90.75902,9.323196 Z m 3.637951,0 -15.227699,12.120589 v 1.233857 L 94.396971,9.323196 Z m 3.637951,0 -15.227699,12.120589 v 1.233857 L 98.034922,9.323196 Z m 3.63795,0 -15.227698,12.120589 v 1.233857 L 101.67287,9.323196 Z m 3.63795,0 -15.227697,12.120589 v 1.233857 L 105.31082,9.323196 Z m 3.63795,0 -15.227696,12.120589 v 1.233857 L 108.94878,9.323196 Z m 3.63795,0 -15.227695,12.120589 v 1.233857 L 112.58673,9.323196 Z m 3.63796,0 -15.227704,12.120589 v 1.233857 L 116.22468,9.323196 Z m 3.63795,0 -15.2277,12.120589 v 1.233857 L 119.86263,9.323196 Z M 20.227699,13.677642 5,25.798231 v 1.233857 L 21.637951,13.677642 Z m 3.637951,0 -15.227699,12.120589 v 1.233857 L 25.275902,13.677642 Z m 3.637951,0 -15.227699,12.120589 v 1.233857 L 28.913853,13.677642 Z m 3.637951,0 -15.227699,12.120589 v 1.233857 L 32.551804,13.677642 Z m 3.637951,0 -15.227699,12.120589 v 1.233857 L 36.189755,13.677642 Z m 3.637951,0 -15.227699,12.120589 v 1.233857 L 39.827706,13.677642 Z m 3.637951,0 -15.227699,12.120589 v 1.233857 L 43.465657,13.677642 Z m 3.637951,0 -15.227699,12.120589 v 1.233857 L 47.103608,13.677642 Z m 3.637951,0 -15.227699,12.120589 v 1.233857 L 50.741559,13.677642 Z m 3.637951,0 -15.227699,12.120589 v 1.233857 L 54.37951,13.677642 Z m 3.637951,0 -15.227699,12.120589 v 1.233857 L 58.017461,13.677642 Z m 3.637951,0 -15.227699,12.120589 v 1.233857 L 61.655412,13.677642 Z m 3.637951,0 -15.227699,12.120589 v 1.233857 L 65.293363,13.677642 Z m 3.637951,0 -15.227699,12.120589 v 1.233857 L 68.931314,13.677642 Z m 3.637951,0 -15.227699,12.120589 v 1.233857 L 72.569265,13.677642 Z m 3.637951,0 -15.227699,12.120589 v 1.233857 L 76.207216,13.677642 Z m 3.637951,0 -15.227699,12.120589 v 1.233857 L 79.845167,13.677642 Z m 3.637951,0 -15.227699,12.120589 v 1.233857 L 83.483118,13.677642 Z m 3.637951,0 -15.227699,12.120589 v 1.233857 L 87.121069,13.677642 Z m 3.637951,0 -15.227699,12.120589 v 1.233857 L 90.75902,13.677642 Z m 3.637951,0 -15.227699,12.120589 v 1.233857 L 94.396971,13.677642 Z m 3.637951,0 -15.227699,12.120589 v 1.233857 L 98.034922,13.677642 Z m 3.63795,0 -15.227698,12.120589 v 1.233857 L 101.67287,13.677642 Z m 3.63795,0 -15.227697,12.120589 v 1.233857 L 105.31082,13.677642 Z m 3.63795,0 -15.227696,12.120589 v 1.233857 L 108.94878,13.677642 Z m 3.63795,0 -15.227695,12.120589 v 1.233857 L 112.58673,13.677642 Z m 3.63796,0 -15.227704,12.120589 v 1.233857 L 116.22468,13.677642 Z m 3.63795,0 -15.2277,12.120589 v 1.233857 L 119.86263,13.677642 Z M 20.227699,18.032088 5,30.152677 v 1.233857 L 21.637951,18.032088 Z m 3.637951,0 -15.227699,12.120589 v 1.233857 L 25.275902,18.032088 Z m 3.637951,0 -15.227699,12.120589 v 1.233857 L 28.913853,18.032088 Z m 3.637951,0 -15.227699,12.120589 v 1.233857 L 32.551804,18.032088 Z m 3.637951,0 -15.227699,12.120589 v 1.233857 L 36.189755,18.032088 Z m 3.637951,0 -15.227699,12.120589 v 1.233857 L 39.827706,18.032088 Z m 3.637951,0 -15.227699,12.120589 v 1.233857 L 43.465657,18.032088 Z m 3.637951,0 -15.227699,12.120589 v 1.233857 L 47.103608,18.032088 Z m 3.637951,0 -15.227699,12.120589 v 1.233857 L 50.741559,18.032088 Z m 3.637951,0 -15.227699,12.120589 v 1.233857 L 54.37951,18.032088 Z m 3.637951,0 -15.227699,12.120589 v 1.233857 L 58.017461,18.032088 Z m 3.637951,0 -15.227699,12.120589 v 1.233857 L 61.655412,18.032088 Z m 3.637951,0 -15.227699,12.120589 v 1.233857 L 65.293363,18.032088 Z m 3.637951,0 -15.227699,12.120589 v 1.233857 L 68.931314,18.032088 Z m 3.637951,0 -15.227699,12.120589 v 1.233857 L 72.569265,18.032088 Z m 3.637951,0 -15.227699,12.120589 v 1.233857 L 76.207216,18.032088 Z m 3.637951,0 -15.227699,12.120589 v 1.233857 L 79.845167,18.032088 Z m 3.637951,0 -15.227699,12.120589 v 1.233857 L 83.483118,18.032088 Z m 3.637951,0 -15.227699,12.120589 v 1.233857 L 87.121069,18.032088 Z m 3.637951,0 -15.227699,12.120589 v 1.233857 L 90.75902,18.032088 Z m 3.637951,0 -15.227699,12.120589 v 1.233857 L 94.396971,18.032088 Z m 3.637951,0 -15.227699,12.120589 v 1.233857 L 98.034922,18.032088 Z m 3.63795,0 -15.227698,12.120589 v 1.233857 L 101.67287,18.032088 Z m 3.63795,0 -15.227697,12.120589 v 1.233857 L 105.31082,18.032088 Z m 3.63795,0 -15.227696,12.120589 v 1.233857 L 108.94878,18.032088 Z m 3.63795,0 -15.227695,12.120589 v 1.233857 L 112.58673,18.032088 Z m 3.63796,0 -15.227704,12.120589 v 1.233857 L 116.22468,18.032088 Z m 3.63795,0 -15.2277,12.120589 v 1.233857 L 119.86263,18.032088 Z M 20.227699,22.386534 5,34.507123 V 35.74098 L 21.637951,22.386534 Z m 3.637951,0 L 8.637951,34.507123 V 35.74098 L 25.275902,22.386534 Z m 3.637951,0 -15.227699,12.120589 V 35.74098 L 28.913853,22.386534 Z m 3.637951,0 -15.227699,12.120589 V 35.74098 L 32.551804,22.386534 Z m 3.637951,0 -15.227699,12.120589 V 35.74098 L 36.189755,22.386534 Z m 3.637951,0 -15.227699,12.120589 V 35.74098 L 39.827706,22.386534 Z m 3.637951,0 -15.227699,12.120589 V 35.74098 L 43.465657,22.386534 Z m 3.637951,0 -15.227699,12.120589 V 35.74098 L 47.103608,22.386534 Z m 3.637951,0 -15.227699,12.120589 V 35.74098 L 50.741559,22.386534 Z m 3.637951,0 -15.227699,12.120589 V 35.74098 L 54.37951,22.386534 Z m 3.637951,0 L 41.37951,34.507123 V 35.74098 L 58.017461,22.386534 Z m 3.637951,0 -15.227699,12.120589 V 35.74098 L 61.655412,22.386534 Z m 3.637951,0 -15.227699,12.120589 V 35.74098 L 65.293363,22.386534 Z m 3.637951,0 -15.227699,12.120589 V 35.74098 L 68.931314,22.386534 Z m 3.637951,0 -15.227699,12.120589 V 35.74098 L 72.569265,22.386534 Z m 3.637951,0 -15.227699,12.120589 V 35.74098 L 76.207216,22.386534 Z m 3.637951,0 -15.227699,12.120589 V 35.74098 L 79.845167,22.386534 Z m 3.637951,0 -15.227699,12.120589 V 35.74098 L 83.483118,22.386534 Z m 3.637951,0 -15.227699,12.120589 V 35.74098 L 87.121069,22.386534 Z m 3.637951,0 -15.227699,12.120589 V 35.74098 L 90.75902,22.386534 Z m 3.637951,0 L 77.75902,34.507123 V 35.74098 L 94.396971,22.386534 Z m 3.637951,0 -15.227699,12.120589 V 35.74098 L 98.034922,22.386534 Z m 3.63795,0 -15.227698,12.120589 V 35.74098 L 101.67287,22.386534 Z m 3.63795,0 -15.227697,12.120589 V 35.74098 L 105.31082,22.386534 Z m 3.63795,0 -15.227696,12.120589 V 35.74098 L 108.94878,22.386534 Z m 3.63795,0 -15.227695,12.120589 V 35.74098 L 112.58673,22.386534 Z m 3.63796,0 -15.227704,12.120589 V 35.74098 L 116.22468,22.386534 Z m 3.63795,0 -15.2277,12.120589 V 35.74098 L 119.86263,22.386534 Z M 20.227699,26.74098 5,38.861569 v 1.233857 L 21.637951,26.74098 Z m 3.637951,0 -15.227699,12.120589 v 1.233857 L 25.275902,26.74098 Z m 3.637951,0 -15.227699,12.120589 v 1.233857 L 28.913853,26.74098 Z m 3.637951,0 -15.227699,12.120589 v 1.233857 L 32.551804,26.74098 Z m 3.637951,0 -15.227699,12.120589 v 1.233857 L 36.189755,26.74098 Z m 3.637951,0 -15.227699,12.120589 v 1.233857 L 39.827706,26.74098 Z m 3.637951,0 -15.227699,12.120589 v 1.233857 L 43.465657,26.74098 Z m 3.637951,0 -15.227699,12.120589 v 1.233857 L 47.103608,26.74098 Z m 3.637951,0 -15.227699,12.120589 v 1.233857 L 50.741559,26.74098 Z m 3.637951,0 -15.227699,12.120589 v 1.233857 L 54.37951,26.74098 Z m 3.637951,0 -15.227699,12.120589 v 1.233857 L 58.017461,26.74098 Z m 3.637951,0 -15.227699,12.120589 v 1.233857 L 61.655412,26.74098 Z m 3.637951,0 -15.227699,12.120589 v 1.233857 L 65.293363,26.74098 Z m 3.637951,0 -15.227699,12.120589 v 1.233857 L 68.931314,26.74098 Z m 3.637951,0 -15.227699,12.120589 v 1.233857 L 72.569265,26.74098 Z m 3.637951,0 -15.227699,12.120589 v 1.233857 L 76.207216,26.74098 Z m 3.637951,0 -15.227699,12.120589 v 1.233857 L 79.845167,26.74098 Z m 3.637951,0 -15.227699,12.120589 v 1.233857 L 83.483118,26.74098 Z m 3.637951,0 -15.227699,12.120589 v 1.233857 L 87.121069,26.74098 Z m 3.637951,0 -15.227699,12.120589 v 1.233857 L 90.75902,26.74098 Z m 3.637951,0 -15.227699,12.120589 v 1.233857 L 94.396971,26.74098 Z m 3.637951,0 -15.227699,12.120589 v 1.233857 L 98.034922,26.74098 Z m 3.63795,0 -15.227698,12.120589 v 1.233857 L 101.67287,26.74098 Z m 3.63795,0 -15.227697,12.120589 v 1.233857 L 105.31082,26.74098 Z m 3.63795,0 -15.227696,12.120589 v 1.233857 L 108.94878,26.74098 Z m 3.63795,0 -15.227695,12.120589 v 1.233857 L 112.58673,26.74098 Z m 3.63796,0 -15.227704,12.120589 v 1.233857 L 116.22468,26.74098 Z m 3.63795,0 -15.2277,12.120589 v 1.233857 L 119.86263,26.74098 Z M 20.227699,31.095426 5,43.216015 v 1.233857 L 21.637951,31.095426 Z m 3.637951,0 -15.227699,12.120589 v 1.233857 L 25.275902,31.095426 Z m 3.637951,0 -15.227699,12.120589 v 1.233857 L 28.913853,31.095426 Z m 3.637951,0 -15.227699,12.120589 v 1.233857 L 32.551804,31.095426 Z m 3.637951,0 -15.227699,12.120589 v 1.233857 L 36.189755,31.095426 Z m 3.637951,0 -15.227699,12.120589 v 1.233857 L 39.827706,31.095426 Z m 3.637951,0 -15.227699,12.120589 v 1.233857 L 43.465657,31.095426 Z m 3.637951,0 -15.227699,12.120589 v 1.233857 L 47.103608,31.095426 Z m 3.637951,0 -15.227699,12.120589 v 1.233857 L 50.741559,31.095426 Z m 3.637951,0 -15.227699,12.120589 v 1.233857 L 54.37951,31.095426 Z m 3.637951,0 -15.227699,12.120589 v 1.233857 L 58.017461,31.095426 Z m 3.637951,0 -15.227699,12.120589 v 1.233857 L 61.655412,31.095426 Z m 3.637951,0 -15.227699,12.120589 v 1.233857 L 65.293363,31.095426 Z m 3.637951,0 -15.227699,12.120589 v 1.233857 L 68.931314,31.095426 Z m 3.637951,0 -15.227699,12.120589 v 1.233857 L 72.569265,31.095426 Z m 3.637951,0 -15.227699,12.120589 v 1.233857 L 76.207216,31.095426 Z m 3.637951,0 -15.227699,12.120589 v 1.233857 L 79.845167,31.095426 Z m 3.637951,0 -15.227699,12.120589 v 1.233857 L 83.483118,31.095426 Z m 3.637951,0 -15.227699,12.120589 v 1.233857 L 87.121069,31.095426 Z m 3.637951,0 -15.227699,12.120589 v 1.233857 L 90.75902,31.095426 Z m 3.637951,0 -15.227699,12.120589 v 1.233857 L 94.396971,31.095426 Z m 3.637951,0 -15.227699,12.120589 v 1.233857 L 98.034922,31.095426 Z m 3.63795,0 -15.227698,12.120589 v 1.233857 L 101.67287,31.095426 Z m 3.63795,0 -15.227697,12.120589 v 1.233857 L 105.31082,31.095426 Z m 3.63795,0 -15.227696,12.120589 v 1.233857 L 108.94878,31.095426 Z m 3.63795,0 -15.227695,12.120589 v 1.233857 L 112.58673,31.095426 Z m 3.63796,0 -15.227704,12.120589 v 1.233857 L 116.22468,31.095426 Z m 3.63795,0 -15.2277,12.120589 v 1.233857 L 119.86263,31.095426 Z M 20.227699,35.449872 5,47.570461 v 1.233857 L 21.637951,35.449872 Z m 3.637951,0 -15.227699,12.120589 v 1.233857 L 25.275902,35.449872 Z m 3.637951,0 -15.227699,12.120589 v 1.233857 L 28.913853,35.449872 Z m 3.637951,0 -15.227699,12.120589 v 1.233857 L 32.551804,35.449872 Z m 3.637951,0 -15.227699,12.120589 v 1.233857 L 36.189755,35.449872 Z m 3.637951,0 -15.227699,12.120589 v 1.233857 L 39.827706,35.449872 Z m 3.637951,0 -15.227699,12.120589 v 1.233857 L 43.465657,35.449872 Z m 3.637951,0 -15.227699,12.120589 v 1.233857 L 47.103608,35.449872 Z m 3.637951,0 -15.227699,12.120589 v 1.233857 L 50.741559,35.449872 Z m 3.637951,0 -15.227699,12.120589 v 1.233857 L 54.37951,35.449872 Z m 3.637951,0 -15.227699,12.120589 v 1.233857 L 58.017461,35.449872 Z m 3.637951,0 -15.227699,12.120589 v 1.233857 L 61.655412,35.449872 Z m 3.637951,0 -15.227699,12.120589 v 1.233857 L 65.293363,35.449872 Z m 3.637951,0 -15.227699,12.120589 v 1.233857 L 68.931314,35.449872 Z m 3.637951,0 -15.227699,12.120589 v 1.233857 L 72.569265,35.449872 Z m 3.637951,0 -15.227699,12.120589 v 1.233857 L 76.207216,35.449872 Z m 3.637951,0 -15.227699,12.120589 v 1.233857 L 79.845167,35.449872 Z m 3.637951,0 -15.227699,12.120589 v 1.233857 L 83.483118,35.449872 Z m 3.637951,0 -15.227699,12.120589 v 1.233857 L 87.121069,35.449872 Z m 3.637951,0 -15.227699,12.120589 v 1.233857 L 90.75902,35.449872 Z m 3.637951,0 -15.227699,12.120589 v 1.233857 L 94.396971,35.449872 Z m 3.637951,0 -15.227699,12.120589 v 1.233857 L 98.034922,35.449872 Z m 3.63795,0 -15.227698,12.120589 v 1.233857 L 101.67287,35.449872 Z m 3.63795,0 -15.227697,12.120589 v 1.233857 L 105.31082,35.449872 Z m 3.63795,0 -15.227696,12.120589 v 1.233857 L 108.94878,35.449872 Z m 3.63795,0 -15.227695,12.120589 v 1.233857 L 112.58673,35.449872 Z m 3.63796,0 -15.227704,12.120589 v 1.233857 L 116.22468,35.449872 Z m 3.63795,0 -15.2277,12.120589 v 1.233857 L 119.86263,35.449872 Z M 20.227699,39.804318 5,51.924907 v 1.233857 L 21.637951,39.804318 Z m 3.637951,0 -15.227699,12.120589 v 1.233857 L 25.275902,39.804318 Z m 3.637951,0 -15.227699,12.120589 v 1.233857 L 28.913853,39.804318 Z m 3.637951,0 -15.227699,12.120589 v 1.233857 L 32.551804,39.804318 Z m 3.637951,0 -15.227699,12.120589 v 1.233857 L 36.189755,39.804318 Z m 3.637951,0 -15.227699,12.120589 v 1.233857 L 39.827706,39.804318 Z m 3.637951,0 -15.227699,12.120589 v 1.233857 L 43.465657,39.804318 Z m 3.637951,0 -15.227699,12.120589 v 1.233857 L 47.103608,39.804318 Z m 3.637951,0 -15.227699,12.120589 v 1.233857 L 50.741559,39.804318 Z m 3.637951,0 -15.227699,12.120589 v 1.233857 L 54.37951,39.804318 Z m 3.637951,0 -15.227699,12.120589 v 1.233857 L 58.017461,39.804318 Z m 3.637951,0 -15.227699,12.120589 v 1.233857 L 61.655412,39.804318 Z m 3.637951,0 -15.227699,12.120589 v 1.233857 L 65.293363,39.804318 Z m 3.637951,0 -15.227699,12.120589 v 1.233857 L 68.931314,39.804318 Z m 3.637951,0 -15.227699,12.120589 v 1.233857 L 72.569265,39.804318 Z m 3.637951,0 -15.227699,12.120589 v 1.233857 L 76.207216,39.804318 Z m 3.637951,0 -15.227699,12.120589 v 1.233857 L 79.845167,39.804318 Z m 3.637951,0 -15.227699,12.120589 v 1.233857 L 83.483118,39.804318 Z m 3.637951,0 -15.227699,12.120589 v 1.233857 L 87.121069,39.804318 Z m 3.637951,0 -15.227699,12.120589 v 1.233857 L 90.75902,39.804318 Z m 3.637951,0 -15.227699,12.120589 v 1.233857 L 94.396971,39.804318 Z m 3.637951,0 -15.227699,12.120589 v 1.233857 L 98.034922,39.804318 Z m 3.63795,0 -15.227698,12.120589 v 1.233857 L 101.67287,39.804318 Z m 3.63795,0 -15.227697,12.120589 v 1.233857 L 105.31082,39.804318 Z m 3.63795,0 -15.227696,12.120589 v 1.233857 L 108.94878,39.804318 Z m 3.63795,0 -15.227695,12.120589 v 1.233857 L 112.58673,39.804318 Z m 3.63796,0 -15.227704,12.120589 v 1.233857 L 116.22468,39.804318 Z m 3.63795,0 -15.2277,12.120589 v 1.233857 L 119.86263,39.804318 Z M 20.227699,44.158764 5,56.279353 V 57.51321 L 21.637951,44.158764 Z m 3.637951,0 L 8.637951,56.279353 V 57.51321 L 25.275902,44.158764 Z m 3.637951,0 -15.227699,12.120589 V 57.51321 L 28.913853,44.158764 Z m 3.637951,0 -15.227699,12.120589 V 57.51321 L 32.551804,44.158764 Z m 3.637951,0 -15.227699,12.120589 V 57.51321 L 36.189755,44.158764 Z m 3.637951,0 -15.227699,12.120589 V 57.51321 L 39.827706,44.158764 Z m 3.637951,0 -15.227699,12.120589 V 57.51321 L 43.465657,44.158764 Z m 3.637951,0 -15.227699,12.120589 V 57.51321 L 47.103608,44.158764 Z m 3.637951,0 -15.227699,12.120589 V 57.51321 L 50.741559,44.158764 Z m 3.637951,0 -15.227699,12.120589 V 57.51321 L 54.37951,44.158764 Z m 3.637951,0 L 41.37951,56.279353 V 57.51321 L 58.017461,44.158764 Z m 3.637951,0 -15.227699,12.120589 V 57.51321 L 61.655412,44.158764 Z m 3.637951,0 -15.227699,12.120589 V 57.51321 L 65.293363,44.158764 Z m 3.637951,0 -15.227699,12.120589 V 57.51321 L 68.931314,44.158764 Z m 3.637951,0 -15.227699,12.120589 V 57.51321 L 72.569265,44.158764 Z m 3.637951,0 -15.227699,12.120589 V 57.51321 L 76.207216,44.158764 Z m 3.637951,0 -15.227699,12.120589 V 57.51321 L 79.845167,44.158764 Z m 3.637951,0 -15.227699,12.120589 V 57.51321 L 83.483118,44.158764 Z m 3.637951,0 -15.227699,12.120589 V 57.51321 L 87.121069,44.158764 Z m 3.637951,0 -15.227699,12.120589 V 57.51321 L 90.75902,44.158764 Z m 3.637951,0 L 77.75902,56.279353 V 57.51321 L 94.396971,44.158764 Z m 3.637951,0 -15.227699,12.120589 V 57.51321 L 98.034922,44.158764 Z m 3.63795,0 -15.227698,12.120589 V 57.51321 L 101.67287,44.158764 Z m 3.63795,0 -15.227697,12.120589 V 57.51321 L 105.31082,44.158764 Z m 3.63795,0 -15.227696,12.120589 V 57.51321 L 108.94878,44.158764 Z m 3.63795,0 -15.227695,12.120589 V 57.51321 L 112.58673,44.158764 Z m 3.63796,0 -15.227704,12.120589 V 57.51321 L 116.22468,44.158764 Z m 3.63795,0 -15.2277,12.120589 V 57.51321 L 119.86263,44.158764 Z M 20.227699,48.51321 5,60.633799 v 1.233857 L 21.637951,48.51321 Z m 3.637951,0 -15.227699,12.120589 v 1.233857 L 25.275902,48.51321 Z m 3.637951,0 -15.227699,12.120589 v 1.233857 L 28.913853,48.51321 Z m 3.637951,0 -15.227699,12.120589 v 1.233857 L 32.551804,48.51321 Z m 3.637951,0 -15.227699,12.120589 v 1.233857 L 36.189755,48.51321 Z m 3.637951,0 -15.227699,12.120589 v 1.233857 L 39.827706,48.51321 Z m 3.637951,0 -15.227699,12.120589 v 1.233857 L 43.465657,48.51321 Z m 3.637951,0 -15.227699,12.120589 v 1.233857 L 47.103608,48.51321 Z m 3.637951,0 -15.227699,12.120589 v 1.233857 L 50.741559,48.51321 Z m 3.637951,0 -15.227699,12.120589 v 1.233857 L 54.37951,48.51321 Z m 3.637951,0 -15.227699,12.120589 v 1.233857 L 58.017461,48.51321 Z m 3.637951,0 -15.227699,12.120589 v 1.233857 L 61.655412,48.51321 Z m 3.637951,0 -15.227699,12.120589 v 1.233857 L 65.293363,48.51321 Z m 3.637951,0 -15.227699,12.120589 v 1.233857 L 68.931314,48.51321 Z m 3.637951,0 -15.227699,12.120589 v 1.233857 L 72.569265,48.51321 Z m 3.637951,0 -15.227699,12.120589 v 1.233857 L 76.207216,48.51321 Z m 3.637951,0 -15.227699,12.120589 v 1.233857 L 79.845167,48.51321 Z m 3.637951,0 -15.227699,12.120589 v 1.233857 L 83.483118,48.51321 Z m 3.637951,0 -15.227699,12.120589 v 1.233857 L 87.121069,48.51321 Z m 3.637951,0 -15.227699,12.120589 v 1.233857 L 90.75902,48.51321 Z m 3.637951,0 -15.227699,12.120589 v 1.233857 L 94.396971,48.51321 Z m 3.637951,0 -15.227699,12.120589 v 1.233857 L 98.034922,48.51321 Z m 3.63795,0 -15.227698,12.120589 v 1.233857 L 101.67287,48.51321 Z m 3.63795,0 -15.227697,12.120589 v 1.233857 L 105.31082,48.51321 Z m 3.63795,0 -15.227696,12.120589 v 1.233857 L 108.94878,48.51321 Z m 3.63795,0 -15.227695,12.120589 v 1.233857 L 112.58673,48.51321 Z m 3.63796,0 -15.227704,12.120589 v 1.233857 L 116.22468,48.51321 Z m 3.63795,0 -15.2277,12.120589 v 1.233857 L 119.86263,48.51321 Z M 20.227699,52.867656 5,64.988245 v 1.233857 L 21.637951,52.867656 Z m 3.637951,0 -15.227699,12.120589 v 1.233857 L 25.275902,52.867656 Z m 3.637951,0 -15.227699,12.120589 v 1.233857 L 28.913853,52.867656 Z m 3.637951,0 -15.227699,12.120589 v 1.233857 L 32.551804,52.867656 Z m 3.637951,0 -15.227699,12.120589 v 1.233857 L 36.189755,52.867656 Z m 3.637951,0 -15.227699,12.120589 v 1.233857 L 39.827706,52.867656 Z m 3.637951,0 -15.227699,12.120589 v 1.233857 L 43.465657,52.867656 Z m 3.637951,0 -15.227699,12.120589 v 1.233857 L 47.103608,52.867656 Z m 3.637951,0 -15.227699,12.120589 v 1.233857 L 50.741559,52.867656 Z m 3.637951,0 -15.227699,12.120589 v 1.233857 L 54.37951,52.867656 Z m 3.637951,0 -15.227699,12.120589 v 1.233857 L 58.017461,52.867656 Z m 3.637951,0 -15.227699,12.120589 v 1.233857 L 61.655412,52.867656 Z m 3.637951,0 -15.227699,12.120589 v 1.233857 L 65.293363,52.867656 Z m 3.637951,0 -15.227699,12.120589 v 1.233857 L 68.931314,52.867656 Z m 3.637951,0 -15.227699,12.120589 v 1.233857 L 72.569265,52.867656 Z m 3.637951,0 -15.227699,12.120589 v 1.233857 L 76.207216,52.867656 Z m 3.637951,0 -15.227699,12.120589 v 1.233857 L 79.845167,52.867656 Z m 3.637951,0 -15.227699,12.120589 v 1.233857 L 83.483118,52.867656 Z m 3.637951,0 -15.227699,12.120589 v 1.233857 L 87.121069,52.867656 Z m 3.637951,0 -15.227699,12.120589 v 1.233857 L 90.75902,52.867656 Z m 3.637951,0 -15.227699,12.120589 v 1.233857 L 94.396971,52.867656 Z m 3.637951,0 -15.227699,12.120589 v 1.233857 L 98.034922,52.867656 Z m 3.63795,0 -15.227698,12.120589 v 1.233857 L 101.67287,52.867656 Z m 3.63795,0 -15.227697,12.120589 v 1.233857 L 105.31082,52.867656 Z m 3.63795,0 -15.227696,12.120589 v 1.233857 L 108.94878,52.867656 Z m 3.63795,0 -15.227695,12.120589 v 1.233857 L 112.58673,52.867656 Z m 3.63796,0 -15.227704,12.120589 v 1.233857 L 116.22468,52.867656 Z m 3.63795,0 -15.2277,12.120589 v 1.233857 L 119.86263,52.867656 Z M 20.227699,57.222102 5,69.342691 v 1.233857 L 21.637951,57.222102 Z m 3.637951,0 -15.227699,12.120589 v 1.233857 L 25.275902,57.222102 Z m 3.637951,0 -15.227699,12.120589 v 1.233857 L 28.913853,57.222102 Z m 3.637951,0 -15.227699,12.120589 v 1.233857 L 32.551804,57.222102 Z m 3.637951,0 -15.227699,12.120589 v 1.233857 L 36.189755,57.222102 Z m 3.637951,0 -15.227699,12.120589 v 1.233857 L 39.827706,57.222102 Z m 3.637951,0 -15.227699,12.120589 v 1.233857 L 43.465657,57.222102 Z m 3.637951,0 -15.227699,12.120589 v 1.233857 L 47.103608,57.222102 Z m 3.637951,0 -15.227699,12.120589 v 1.233857 L 50.741559,57.222102 Z m 3.637951,0 -15.227699,12.120589 v 1.233857 L 54.37951,57.222102 Z m 3.637951,0 -15.227699,12.120589 v 1.233857 L 58.017461,57.222102 Z m 3.637951,0 -15.227699,12.120589 v 1.233857 L 61.655412,57.222102 Z m 3.637951,0 -15.227699,12.120589 v 1.233857 L 65.293363,57.222102 Z m 3.637951,0 -15.227699,12.120589 v 1.233857 L 68.931314,57.222102 Z m 3.637951,0 -15.227699,12.120589 v 1.233857 L 72.569265,57.222102 Z m 3.637951,0 -15.227699,12.120589 v 1.233857 L 76.207216,57.222102 Z m 3.637951,0 -15.227699,12.120589 v 1.233857 L 79.845167,57.222102 Z m 3.637951,0 -15.227699,12.120589 v 1.233857 L 83.483118,57.222102 Z m 3.637951,0 -15.227699,12.120589 v 1.233857 L 87.121069,57.222102 Z m 3.637951,0 -15.227699,12.120589 v 1.233857 L 90.75902,57.222102 Z m 3.637951,0 -15.227699,12.120589 v 1.233857 L 94.396971,57.222102 Z m 3.637951,0 -15.227699,12.120589 v 1.233857 L 98.034922,57.222102 Z m 3.63795,0 -15.227698,12.120589 v 1.233857 L 101.67287,57.222102 Z m 3.63795,0 -15.227697,12.120589 v 1.233857 L 105.31082,57.222102 Z m 3.63795,0 -15.227696,12.120589 v 1.233857 L 108.94878,57.222102 Z m 3.63795,0 -15.227695,12.120589 v 1.233857 L 112.58673,57.222102 Z m 3.63796,0 -15.227704,12.120589 v 1.233857 L 116.22468,57.222102 Z m 3.63795,0 -15.2277,12.120589 v 1.233857 L 119.86263,57.222102 Z M 20.227699,61.576548 5,73.697137 v 1.233857 L 21.637951,61.576548 Z m 3.637951,0 -15.227699,12.120589 v 1.233857 L 25.275902,61.576548 Z m 3.637951,0 -15.227699,12.120589 v 1.233857 L 28.913853,61.576548 Z m 3.637951,0 -15.227699,12.120589 v 1.233857 L 32.551804,61.576548 Z m 3.637951,0 -15.227699,12.120589 v 1.233857 L 36.189755,61.576548 Z m 3.637951,0 -15.227699,12.120589 v 1.233857 L 39.827706,61.576548 Z m 3.637951,0 -15.227699,12.120589 v 1.233857 L 43.465657,61.576548 Z m 3.637951,0 -15.227699,12.120589 v 1.233857 L 47.103608,61.576548 Z m 3.637951,0 -15.227699,12.120589 v 1.233857 L 50.741559,61.576548 Z m 3.637951,0 -15.227699,12.120589 v 1.233857 L 54.37951,61.576548 Z m 3.637951,0 -15.227699,12.120589 v 1.233857 L 58.017461,61.576548 Z m 3.637951,0 -15.227699,12.120589 v 1.233857 L 61.655412,61.576548 Z m 3.637951,0 -15.227699,12.120589 v 1.233857 L 65.293363,61.576548 Z m 3.637951,0 -15.227699,12.120589 v 1.233857 L 68.931314,61.576548 Z m 3.637951,0 -15.227699,12.120589 v 1.233857 L 72.569265,61.576548 Z m 3.637951,0 -15.227699,12.120589 v 1.233857 L 76.207216,61.576548 Z m 3.637951,0 -15.227699,12.120589 v 1.233857 L 79.845167,61.576548 Z m 3.637951,0 -15.227699,12.120589 v 1.233857 L 83.483118,61.576548 Z m 3.637951,0 -15.227699,12.120589 v 1.233857 L 87.121069,61.576548 Z m 3.637951,0 -15.227699,12.120589 v 1.233857 L 90.75902,61.576548 Z m 3.637951,0 -15.227699,12.120589 v 1.233857 L 94.396971,61.576548 Z m 3.637951,0 -15.227699,12.120589 v 1.233857 L 98.034922,61.576548 Z m 3.63795,0 -15.227698,12.120589 v 1.233857 L 101.67287,61.576548 Z m 3.63795,0 -15.227697,12.120589 v 1.233857 L 105.31082,61.576548 Z m 3.63795,0 -15.227696,12.120589 v 1.233857 L 108.94878,61.576548 Z m 3.63795,0 -15.227695,12.120589 v 1.233857 L 112.58673,61.576548 Z m 3.63796,0 -15.227704,12.120589 v 1.233857 L 116.22468,61.576548 Z m 3.63795,0 -15.2277,12.120589 v 1.233857 L 119.86263,61.576548 Z M 20.227699,65.930994 5,78.051583 V 79.28544 L 21.637951,65.930994 Z m 3.637951,0 L 8.637951,78.051583 V 79.28544 L 25.275902,65.930994 Z m 3.637951,0 -15.227699,12.120589 V 79.28544 L 28.913853,65.930994 Z m 3.637951,0 -15.227699,12.120589 V 79.28544 L 32.551804,65.930994 Z m 3.637951,0 -15.227699,12.120589 V 79.28544 L 36.189755,65.930994 Z m 3.637951,0 -15.227699,12.120589 V 79.28544 L 39.827706,65.930994 Z m 3.637951,0 -15.227699,12.120589 V 79.28544 L 43.465657,65.930994 Z m 3.637951,0 -15.227699,12.120589 V 79.28544 L 47.103608,65.930994 Z m 3.637951,0 -15.227699,12.120589 V 79.28544 L 50.741559,65.930994 Z m 3.637951,0 -15.227699,12.120589 V 79.28544 L 54.37951,65.930994 Z m 3.637951,0 L 41.37951,78.051583 V 79.28544 L 58.017461,65.930994 Z m 3.637951,0 -15.227699,12.120589 V 79.28544 L 61.655412,65.930994 Z m 3.637951,0 -15.227699,12.120589 V 79.28544 L 65.293363,65.930994 Z m 3.637951,0 -15.227699,12.120589 V 79.28544 L 68.931314,65.930994 Z m 3.637951,0 -15.227699,12.120589 V 79.28544 L 72.569265,65.930994 Z m 3.637951,0 -15.227699,12.120589 V 79.28544 L 76.207216,65.930994 Z m 3.637951,0 -15.227699,12.120589 V 79.28544 L 79.845167,65.930994 Z m 3.637951,0 -15.227699,12.120589 V 79.28544 L 83.483118,65.930994 Z m 3.637951,0 -15.227699,12.120589 V 79.28544 L 87.121069,65.930994 Z m 3.637951,0 -15.227699,12.120589 V 79.28544 L 90.75902,65.930994 Z m 3.637951,0 L 77.75902,78.051583 V 79.28544 L 94.396971,65.930994 Z m 3.637951,0 -15.227699,12.120589 V 79.28544 L 98.034922,65.930994 Z m 3.63795,0 -15.227698,12.120589 V 79.28544 L 101.67287,65.930994 Z m 3.63795,0 -15.227697,12.120589 V 79.28544 L 105.31082,65.930994 Z m 3.63795,0 -15.227696,12.120589 V 79.28544 L 108.94878,65.930994 Z m 3.63795,0 -15.227695,12.120589 V 79.28544 L 112.58673,65.930994 Z m 3.63796,0 -15.227704,12.120589 V 79.28544 L 116.22468,65.930994 Z m 3.63795,0 -15.2277,12.120589 V 79.28544 L 119.86263,65.930994 Z M 20.227699,70.28544 5,82.406029 v 1.233857 L 21.637951,70.28544 Z m 3.637951,0 -15.227699,12.120589 v 1.233857 L 25.275902,70.28544 Z m 3.637951,0 -15.227699,12.120589 v 1.233857 L 28.913853,70.28544 Z m 3.637951,0 -15.227699,12.120589 v 1.233857 L 32.551804,70.28544 Z m 3.637951,0 -15.227699,12.120589 v 1.233857 L 36.189755,70.28544 Z m 3.637951,0 -15.227699,12.120589 v 1.233857 L 39.827706,70.28544 Z m 3.637951,0 -15.227699,12.120589 v 1.233857 L 43.465657,70.28544 Z m 3.637951,0 -15.227699,12.120589 v 1.233857 L 47.103608,70.28544 Z m 3.637951,0 -15.227699,12.120589 v 1.233857 L 50.741559,70.28544 Z m 3.637951,0 -15.227699,12.120589 v 1.233857 L 54.37951,70.28544 Z m 3.637951,0 -15.227699,12.120589 v 1.233857 L 58.017461,70.28544 Z m 3.637951,0 -15.227699,12.120589 v 1.233857 L 61.655412,70.28544 Z m 3.637951,0 -15.227699,12.120589 v 1.233857 L 65.293363,70.28544 Z m 3.637951,0 -15.227699,12.120589 v 1.233857 L 68.931314,70.28544 Z m 3.637951,0 -15.227699,12.120589 v 1.233857 L 72.569265,70.28544 Z m 3.637951,0 -15.227699,12.120589 v 1.233857 L 76.207216,70.28544 Z m 3.637951,0 -15.227699,12.120589 v 1.233857 L 79.845167,70.28544 Z m 3.637951,0 -15.227699,12.120589 v 1.233857 L 83.483118,70.28544 Z m 3.637951,0 -15.227699,12.120589 v 1.233857 L 87.121069,70.28544 Z m 3.637951,0 -15.227699,12.120589 v 1.233857 L 90.75902,70.28544 Z m 3.637951,0 -15.227699,12.120589 v 1.233857 L 94.396971,70.28544 Z m 3.637951,0 -15.227699,12.120589 v 1.233857 L 98.034922,70.28544 Z m 3.63795,0 -15.227698,12.120589 v 1.233857 L 101.67287,70.28544 Z m 3.63795,0 -15.227697,12.120589 v 1.233857 L 105.31082,70.28544 Z m 3.63795,0 -15.227696,12.120589 v 1.233857 L 108.94878,70.28544 Z m 3.63795,0 -15.227695,12.120589 v 1.233857 L 112.58673,70.28544 Z m 3.63796,0 -15.227704,12.120589 v 1.233857 L 116.22468,70.28544 Z m 3.63795,0 -15.2277,12.120589 v 1.233857 L 119.86263,70.28544 Z M 20.227699,74.639886 5,86.760475 v 1.233857 L 21.637951,74.639886 Z m 3.637951,0 -15.227699,12.120589 v 1.233857 L 25.275902,74.639886 Z m 3.637951,0 -15.227699,12.120589 v 1.233857 L 28.913853,74.639886 Z m 3.637951,0 -15.227699,12.120589 v 1.233857 L 32.551804,74.639886 Z m 3.637951,0 -15.227699,12.120589 v 1.233857 L 36.189755,74.639886 Z m 3.637951,0 -15.227699,12.120589 v 1.233857 L 39.827706,74.639886 Z m 3.637951,0 -15.227699,12.120589 v 1.233857 L 43.465657,74.639886 Z m 3.637951,0 -15.227699,12.120589 v 1.233857 L 47.103608,74.639886 Z m 3.637951,0 -15.227699,12.120589 v 1.233857 L 50.741559,74.639886 Z m 3.637951,0 -15.227699,12.120589 v 1.233857 L 54.37951,74.639886 Z m 3.637951,0 -15.227699,12.120589 v 1.233857 L 58.017461,74.639886 Z m 3.637951,0 -15.227699,12.120589 v 1.233857 L 61.655412,74.639886 Z m 3.637951,0 -15.227699,12.120589 v 1.233857 L 65.293363,74.639886 Z m 3.637951,0 -15.227699,12.120589 v 1.233857 L 68.931314,74.639886 Z m 3.637951,0 -15.227699,12.120589 v 1.233857 L 72.569265,74.639886 Z m 3.637951,0 -15.227699,12.120589 v 1.233857 L 76.207216,74.639886 Z m 3.637951,0 -15.227699,12.120589 v 1.233857 L 79.845167,74.639886 Z m 3.637951,0 -15.227699,12.120589 v 1.233857 L 83.483118,74.639886 Z m 3.637951,0 -15.227699,12.120589 v 1.233857 L 87.121069,74.639886 Z m 3.637951,0 -15.227699,12.120589 v 1.233857 L 90.75902,74.639886 Z m 3.637951,0 -15.227699,12.120589 v 1.233857 L 94.396971,74.639886 Z m 3.637951,0 -15.227699,12.120589 v 1.233857 L 98.034922,74.639886 Z m 3.63795,0 -15.227698,12.120589 v 1.233857 L 101.67287,74.639886 Z m 3.63795,0 -15.227697,12.120589 v 1.233857 L 105.31082,74.639886 Z m 3.63795,0 -15.227696,12.120589 v 1.233857 L 108.94878,74.639886 Z m 3.63795,0 -15.227695,12.120589 v 1.233857 L 112.58673,74.639886 Z m 3.63796,0 -15.227704,12.120589 v 1.233857 L 116.22468,74.639886 Z m 3.63795,0 -15.2277,12.120589 v 1.233857 L 119.86263,74.639886 Z M 20.227699,78.994332 5,91.114921 v 1.233857 L 21.637951,78.994332 Z m 3.637951,0 -15.227699,12.120589 v 1.233857 L 25.275902,78.994332 Z m 3.637951,0 -15.227699,12.120589 v 1.233857 L 28.913853,78.994332 Z m 3.637951,0 -15.227699,12.120589 v 1.233857 L 32.551804,78.994332 Z m 3.637951,0 -15.227699,12.120589 v 1.233857 L 36.189755,78.994332 Z m 3.637951,0 -15.227699,12.120589 v 1.233857 L 39.827706,78.994332 Z m 3.637951,0 -15.227699,12.120589 v 1.233857 L 43.465657,78.994332 Z m 3.637951,0 -15.227699,12.120589 v 1.233857 L 47.103608,78.994332 Z m 3.637951,0 -15.227699,12.120589 v 1.233857 L 50.741559,78.994332 Z m 3.637951,0 -15.227699,12.120589 v 1.233857 L 54.37951,78.994332 Z m 3.637951,0 -15.227699,12.120589 v 1.233857 L 58.017461,78.994332 Z m 3.637951,0 -15.227699,12.120589 v 1.233857 L 61.655412,78.994332 Z m 3.637951,0 -15.227699,12.120589 v 1.233857 L 65.293363,78.994332 Z m 3.637951,0 -15.227699,12.120589 v 1.233857 L 68.931314,78.994332 Z m 3.637951,0 -15.227699,12.120589 v 1.233857 L 72.569265,78.994332 Z m 3.637951,0 -15.227699,12.120589 v 1.233857 L 76.207216,78.994332 Z m 3.637951,0 -15.227699,12.120589 v 1.233857 L 79.845167,78.994332 Z m 3.637951,0 -15.227699,12.120589 v 1.233857 L 83.483118,78.994332 Z m 3.637951,0 -15.227699,12.120589 v 1.233857 L 87.121069,78.994332 Z m 3.637951,0 -15.227699,12.120589 v 1.233857 L 90.75902,78.994332 Z m 3.637951,0 -15.227699,12.120589 v 1.233857 L 94.396971,78.994332 Z m 3.637951,0 -15.227699,12.120589 v 1.233857 L 98.034922,78.994332 Z m 3.63795,0 -15.227698,12.120589 v 1.233857 L 101.67287,78.994332 Z m 3.63795,0 -15.227697,12.120589 v 1.233857 L 105.31082,78.994332 Z m 3.63795,0 -15.227696,12.120589 v 1.233857 L 108.94878,78.994332 Z m 3.63795,0 -15.227695,12.120589 v 1.233857 L 112.58673,78.994332 Z m 3.63796,0 -15.227704,12.120589 v 1.233857 L 116.22468,78.994332 Z m 3.63795,0 -15.2277,12.120589 v 1.233857 L 119.86263,78.994332 Z M 20.227699,83.348778 5,95.469367 v 1.233857 L 21.637951,83.348778 Z m 3.637951,0 -15.227699,12.120589 v 1.233857 L 25.275902,83.348778 Z m 3.637951,0 -15.227699,12.120589 v 1.233857 L 28.913853,83.348778 Z m 3.637951,0 -15.227699,12.120589 v 1.233857 L 32.551804,83.348778 Z m 3.637951,0 -15.227699,12.120589 v 1.233857 L 36.189755,83.348778 Z m 3.637951,0 -15.227699,12.120589 v 1.233857 L 39.827706,83.348778 Z m 3.637951,0 -15.227699,12.120589 v 1.233857 L 43.465657,83.348778 Z m 3.637951,0 -15.227699,12.120589 v 1.233857 L 47.103608,83.348778 Z m 3.637951,0 -15.227699,12.120589 v 1.233857 L 50.741559,83.348778 Z m 3.637951,0 -15.227699,12.120589 v 1.233857 L 54.37951,83.348778 Z m 3.637951,0 -15.227699,12.120589 v 1.233857 L 58.017461,83.348778 Z m 3.637951,0 -15.227699,12.120589 v 1.233857 L 61.655412,83.348778 Z m 3.637951,0 -15.227699,12.120589 v 1.233857 L 65.293363,83.348778 Z m 3.637951,0 -15.227699,12.120589 v 1.233857 L 68.931314,83.348778 Z m 3.637951,0 -15.227699,12.120589 v 1.233857 L 72.569265,83.348778 Z m 3.637951,0 -15.227699,12.120589 v 1.233857 L 76.207216,83.348778 Z m 3.637951,0 -15.227699,12.120589 v 1.233857 L 79.845167,83.348778 Z m 3.637951,0 -15.227699,12.120589 v 1.233857 L 83.483118,83.348778 Z m 3.637951,0 -15.227699,12.120589 v 1.233857 L 87.121069,83.348778 Z m 3.637951,0 -15.227699,12.120589 v 1.233857 L 90.75902,83.348778 Z m 3.637951,0 -15.227699,12.120589 v 1.233857 L 94.396971,83.348778 Z m 3.637951,0 -15.227699,12.120589 v 1.233857 L 98.034922,83.348778 Z m 3.63795,0 -15.227698,12.120589 v 1.233857 L 101.67287,83.348778 Z m 3.63795,0 -15.227697,12.120589 v 1.233857 L 105.31082,83.348778 Z m 3.63795,0 -15.227696,12.120589 v 1.233857 L 108.94878,83.348778 Z m 3.63795,0 -15.227695,12.120589 v 1.233857 L 112.58673,83.348778 Z m 3.63796,0 -15.227704,12.120589 v 1.233857 L 116.22468,83.348778 Z m 3.63795,0 -15.2277,12.120589 v 1.233857 L 119.86263,83.348778 Z M 20.227699,87.703224 5,99.823813 v 1.233857 L 21.637951,87.703224 Z m 3.637951,0 -15.227699,12.120589 v 1.233857 L 25.275902,87.703224 Z m 3.637951,0 -15.227699,12.120589 v 1.233857 L 28.913853,87.703224 Z m 3.637951,0 -15.227699,12.120589 v 1.233857 L 32.551804,87.703224 Z m 3.637951,0 -15.227699,12.120589 v 1.233857 L 36.189755,87.703224 Z m 3.637951,0 -15.227699,12.120589 v 1.233857 L 39.827706,87.703224 Z m 3.637951,0 -15.227699,12.120589 v 1.233857 L 43.465657,87.703224 Z m 3.637951,0 -15.227699,12.120589 v 1.233857 L 47.103608,87.703224 Z m 3.637951,0 -15.227699,12.120589 v 1.233857 L 50.741559,87.703224 Z m 3.637951,0 -15.227699,12.120589 v 1.233857 L 54.37951,87.703224 Z m 3.637951,0 -15.227699,12.120589 v 1.233857 L 58.017461,87.703224 Z m 3.637951,0 -15.227699,12.120589 v 1.233857 L 61.655412,87.703224 Z m 3.637951,0 -15.227699,12.120589 v 1.233857 L 65.293363,87.703224 Z m 3.637951,0 -15.227699,12.120589 v 1.233857 L 68.931314,87.703224 Z m 3.637951,0 -15.227699,12.120589 v 1.233857 L 72.569265,87.703224 Z m 3.637951,0 -15.227699,12.120589 v 1.233857 L 76.207216,87.703224 Z m 3.637951,0 -15.227699,12.120589 v 1.233857 L 79.845167,87.703224 Z m 3.637951,0 -15.227699,12.120589 v 1.233857 L 83.483118,87.703224 Z m 3.637951,0 -15.227699,12.120589 v 1.233857 L 87.121069,87.703224 Z m 3.637951,0 -15.227699,12.120589 v 1.233857 L 90.75902,87.703224 Z m 3.637951,0 -15.227699,12.120589 v 1.233857 L 94.396971,87.703224 Z m 3.637951,0 -15.227699,12.120589 v 1.233857 L 98.034922,87.703224 Z m 3.63795,0 -15.227698,12.120589 v 1.233857 L 101.67287,87.703224 Z m 3.63795,0 -15.227697,12.120589 v 1.233857 L 105.31082,87.703224 Z m 3.63795,0 -15.227696,12.120589 v 1.233857 L 108.94878,87.703224 Z m 3.63795,0 -15.227695,12.120589 v 1.233857 L 112.58673,87.703224 Z m 3.63796,0 -15.227704,12.120589 v 1.233857 L 116.22468,87.703224 Z m 3.63795,0 -15.2277,12.120589 v 1.233857 L 119.86263,87.703224 Z M 20.227699,92.05767 5,104.17826 v 1.23386 L 21.637951,92.05767 Z m 3.637951,0 -15.227699,12.12059 v 1.23386 L 25.275902,92.05767 Z m 3.637951,0 -15.227699,12.12059 v 1.23386 L 28.913853,92.05767 Z m 3.637951,0 -15.227699,12.12059 v 1.23386 L 32.551804,92.05767 Z m 3.637951,0 -15.227699,12.12059 v 1.23386 L 36.189755,92.05767 Z m 3.637951,0 -15.227699,12.12059 v 1.23386 L 39.827706,92.05767 Z m 3.637951,0 -15.227699,12.12059 v 1.23386 L 43.465657,92.05767 Z m 3.637951,0 -15.227699,12.12059 v 1.23386 L 47.103608,92.05767 Z m 3.637951,0 -15.227699,12.12059 v 1.23386 L 50.741559,92.05767 Z m 3.637951,0 -15.227699,12.12059 v 1.23386 L 54.37951,92.05767 Z m 3.637951,0 -15.227699,12.12059 v 1.23386 L 58.017461,92.05767 Z m 3.637951,0 -15.227699,12.12059 v 1.23386 L 61.655412,92.05767 Z m 3.637951,0 -15.227699,12.12059 v 1.23386 L 65.293363,92.05767 Z m 3.637951,0 -15.227699,12.12059 v 1.23386 L 68.931314,92.05767 Z m 3.637951,0 -15.227699,12.12059 v 1.23386 L 72.569265,92.05767 Z m 3.637951,0 -15.227699,12.12059 v 1.23386 L 76.207216,92.05767 Z m 3.637951,0 -15.227699,12.12059 v 1.23386 L 79.845167,92.05767 Z m 3.637951,0 -15.227699,12.12059 v 1.23386 L 83.483118,92.05767 Z m 3.637951,0 -15.227699,12.12059 v 1.23386 L 87.121069,92.05767 Z m 3.637951,0 -15.227699,12.12059 v 1.23386 L 90.75902,92.05767 Z m 3.637951,0 -15.227699,12.12059 v 1.23386 L 94.396971,92.05767 Z m 3.637951,0 -15.227699,12.12059 v 1.23386 L 98.034922,92.05767 Z m 3.63795,0 -15.227698,12.12059 v 1.23386 L 101.67287,92.05767 Z m 3.63795,0 -15.227697,12.12059 v 1.23386 L 105.31082,92.05767 Z m 3.63795,0 -15.227696,12.12059 v 1.23386 L 108.94878,92.05767 Z m 3.63795,0 -15.227695,12.12059 v 1.23386 L 112.58673,92.05767 Z m 3.63796,0 -15.227704,12.12059 v 1.23386 L 116.22468,92.05767 Z m 3.63795,0 -15.2277,12.12059 v 1.23386 L 119.86263,92.05767 Z M 20.227699,96.412116 5,108.5327 v 1.23386 L 21.637951,96.412116 Z m 3.637951,0 L 8.637951,108.5327 v 1.23386 L 25.275902,96.412116 Z m 3.637951,0 -15.227699,12.120584 v 1.23386 L 28.913853,96.412116 Z m 3.637951,0 -15.227699,12.120584 v 1.23386 L 32.551804,96.412116 Z m 3.637951,0 -15.227699,12.120584 v 1.23386 L 36.189755,96.412116 Z m 3.637951,0 -15.227699,12.120584 v 1.23386 L 39.827706,96.412116 Z m 3.637951,0 -15.227699,12.120584 v 1.23386 L 43.465657,96.412116 Z m 3.637951,0 -15.227699,12.120584 v 1.23386 L 47.103608,96.412116 Z m 3.637951,0 -15.227699,12.120584 v 1.23386 L 50.741559,96.412116 Z m 3.637951,0 -15.227699,12.120584 v 1.23386 L 54.37951,96.412116 Z m 3.637951,0 L 41.37951,108.5327 v 1.23386 L 58.017461,96.412116 Z m 3.637951,0 -15.227699,12.120584 v 1.23386 L 61.655412,96.412116 Z m 3.637951,0 -15.227699,12.120584 v 1.23386 L 65.293363,96.412116 Z m 3.637951,0 -15.227699,12.120584 v 1.23386 L 68.931314,96.412116 Z m 3.637951,0 -15.227699,12.120584 v 1.23386 L 72.569265,96.412116 Z m 3.637951,0 -15.227699,12.120584 v 1.23386 L 76.207216,96.412116 Z m 3.637951,0 -15.227699,12.120584 v 1.23386 L 79.845167,96.412116 Z m 3.637951,0 -15.227699,12.120584 v 1.23386 L 83.483118,96.412116 Z m 3.637951,0 -15.227699,12.120584 v 1.23386 L 87.121069,96.412116 Z m 3.637951,0 -15.227699,12.120584 v 1.23386 L 90.75902,96.412116 Z m 3.637951,0 L 77.75902,108.5327 v 1.23386 L 94.396971,96.412116 Z m 3.637951,0 -15.227699,12.120584 v 1.23386 L 98.034922,96.412116 Z m 3.63795,0 -15.227698,12.120584 v 1.23386 L 101.67287,96.412116 Z m 3.63795,0 -15.227697,12.120584 v 1.23386 L 105.31082,96.412116 Z m 3.63795,0 -15.227696,12.120584 v 1.23386 L 108.94878,96.412116 Z m 3.63795,0 -15.227695,12.120584 v 1.23386 L 112.58673,96.412116 Z m 3.63796,0 -15.227704,12.120584 v 1.23386 L 116.22468,96.412116 Z m 3.63795,0 -15.2277,12.120584 v 1.23386 l 16.63795,-13.354444 z"
         id="path92"
         sodipodi:nodetypes="ccccc"
         transform="translate(-14,-6)"
         inkscape:original-d="M 20.227699,4.96875 5,17.089339 v 1.233857 L 21.637951,4.96875 Z"
         inkscape:path-effect="#path-effect91" /></clipPath><linearGradient
       inkscape:collect="always"
       xlink:href="#linearGradient12"
       id="linearGradient2"
       x1="46.306118"
       y1="35.669342"
       x2="46.306118"
       y2="66.838997"
       gradientUnits="userSpaceOnUse" /><linearGradient
       inkscape:collect="always"
       xlink:href="#linearGradient1"
       id="linearGradient3"
       gradientUnits="userSpaceOnUse"
       x1="49.934139"
       y1="98.715599"
       x2="52.476391"
       y2="43.628387"
       gradientTransform="matrix(1,0,0,0.56214742,0,29.226365)" /><filter
       inkscape:collect="always"
       style="color-interpolation-filters:sRGB"
       id="filter12"
       x="-0.041388678"
       y="-0.18007981"
       width="1.0827774"
       height="1.3601596"><feGaussianBlur
         inkscape:collect="always"
         stdDeviation="1.3107573"
         id="feGaussianBlur12" /></filter><clipPath
       clipPathUnits="userSpaceOnUse"
       id="clipPath13"><path
         d="m 61.589738,-45.173076 -111,111 2,2 111,-111 z m 4,4 -111,111 2,2 111,-111 z m 4,4 -111,111 2,2 111,-111 z m 4,4 -111,111 2,2 111,-111 z m 4,4 -111,111 2,2 111,-111 z m 4,4 -111,111 2,2 111,-111 z m 4,4 -111,111 2,2 111,-111 z m 4,4 -111,111 2,2 111,-111 z m 4,4 -111,111 2,2 111,-111 z m 4,4.0000001 -111,110.9999959 2,2 111,-110.9999959 z m 4.000002,4 -111.0000021,110.9999959 2,2 L 103.58974,-3.1730759 Z m 4,4 -111.0000021,110.9999959 2,2 L 107.58974,0.8269241 Z m 4,4 -111.0000021,110.9999959 2.00000001,2 L 111.58974,4.8269241 Z m 4,4 L 2.5897379,117.82692 l 2,2 L 115.58974,8.8269241 Z m 4,3.9999999 -111.0000021,110.999996 2,2 L 119.58974,12.826924 Z m 4,4 -111.000002,110.999996 2,2 L 123.58974,16.826924 Z m 4,4 -111.000002,110.999996 2,2 L 127.58974,20.826924 Z m 4,4 -111.000002,110.999996 2,2 L 131.58974,24.826924 Z m 4,4 -111.000002,110.999996 2,2 L 135.58974,28.826924 Z m 4,4 -111.000002,110.999996 2,2 L 139.58974,32.826924 Z m 4,4 -111.000002,110.999996 2,2 L 143.58974,36.826924 Z"
         inkscape:connector-curvature="0"
         clip-path="none"
         id="path13"
         style="display:inline;opacity:0.1;fill:#000000;stroke:none" /></clipPath></defs><metadata
     id="metadata2413"><rdf:RDF><cc:Work
         rdf:about=""><dc:format>image/svg+xml</dc:format><dc:type
           rdf:resource="http://purl.org/dc/dcmitype/StillImage" /></cc:Work></rdf:RDF></metadata><g
     id="layer2"
     style="display:none"><rect
       width="86"
       height="85"
       rx="6"
       ry="6"
       x="5"
       y="7"
       id="rect3745"
       style="opacity:0.9;fill:url(#ButtonShadow);fill-opacity:1;fill-rule:nonzero;stroke:none;filter:url(#filter3174)" /></g><g
     id="layer3"
     style="display:inline"><path
       d="m 12,-95.03125 c -5.5110903,0 -10.03125,4.52016 -10.03125,10.03125 v 71 c 0,5.5110902 4.5201598,10.03125 10.03125,10.03125 h 72 c 5.51109,0 10.03125,-4.5201597 10.03125,-10.03125 v -71 c 0,-5.51109 -4.52016,-10.03125 -10.03125,-10.03125 z"
       transform="scale(1,-1)"
       id="path3786"
       style="display:inline;opacity:0.08;fill:url(#linearGradient3122);fill-opacity:1;fill-rule:nonzero;stroke:none" /><path
       d="m 12,-94.03125 c -4.971633,0 -9.03125,4.059617 -9.03125,9.03125 v 71 c 0,4.9716329 4.0596171,9.03125 9.03125,9.03125 h 72 c 4.971633,0 9.03125,-4.059617 9.03125,-9.03125 v -71 c 0,-4.971633 -4.059617,-9.03125 -9.03125,-9.03125 z"
       transform="scale(1,-1)"
       id="path3778"
       style="display:inline;opacity:0.1;fill:url(#linearGradient3780);fill-opacity:1;fill-rule:nonzero;stroke:none" /><path
       d="m 12,-93 c -4.4091333,0 -8,3.590867 -8,8 v 71 c 0,4.4091333 3.5908667,8 8,8 h 72 c 4.409133,0 8,-3.5908667 8,-8 v -71 c 0,-4.409133 -3.590867,-8 -8,-8 z"
       transform="scale(1,-1)"
       id="path3770"
       style="display:inline;opacity:0.2;fill:url(#linearGradient3772);fill-opacity:1;fill-rule:nonzero;stroke:none" /><rect
       width="86"
       height="85"
       rx="7"
       ry="7"
       x="5"
       y="-92"
       transform="scale(1,-1)"
       id="rect3723"
       style="display:inline;opacity:0.3;fill:url(#linearGradient3725);fill-opacity:1;fill-rule:nonzero;stroke:none" /><rect
       width="84"
       height="84"
       rx="6"
       ry="6"
       x="6"
       y="-91"
       transform="scale(1,-1)"
       id="rect3716"
       style="display:inline;opacity:0.45;fill:url(#linearGradient3721);fill-opacity:1;fill-rule:nonzero;stroke:none" /></g><g
     id="layer1"
     style="display:inline"><rect
       width="84"
       height="84"
       rx="6"
       ry="6"
       x="6"
       y="6"
       id="rect2419"
       style="display:inline;fill:url(#linearGradient3617);fill-opacity:1;fill-rule:nonzero;stroke:none" /><rect
       width="84"
       height="84"
       rx="6"
       ry="6"
       x="6"
       y="6"
       id="rect13"
       style="display:inline;opacity:0.334586;fill:#ededed;fill-opacity:1;fill-rule:nonzero;stroke:none"
       clip-path="url(#clipPath13)" /><path
       d="M 12,6 C 8.676,6 6,8.676 6,12 v 2 68 2 c 0,0.334721 0.04135,0.6507 0.09375,0.96875 0.0487,0.295596 0.09704,0.596915 0.1875,0.875 0.00988,0.03038 0.020892,0.0636 0.03125,0.09375 0.098865,0.287771 0.2348802,0.547452 0.375,0.8125 0.1445918,0.273507 0.3156161,0.535615 0.5,0.78125 0.1843839,0.245635 0.3737765,0.473472 0.59375,0.6875 0.439947,0.428056 0.94291,0.814526 1.5,1.09375 0.278545,0.139612 0.5734731,0.246947 0.875,0.34375 -0.2562018,-0.100222 -0.4867109,-0.236272 -0.71875,-0.375 -0.00741,-0.0044 -0.023866,0.0045 -0.03125,0 -0.031933,-0.0193 -0.062293,-0.04251 -0.09375,-0.0625 -0.120395,-0.0767 -0.2310226,-0.163513 -0.34375,-0.25 -0.1061728,-0.0808 -0.2132809,-0.161112 -0.3125,-0.25 C 8.4783201,88.557317 8.3087904,88.373362 8.15625,88.1875 8.0486711,88.057245 7.9378561,87.922215 7.84375,87.78125 7.818661,87.74287 7.805304,87.69538 7.78125,87.65625 7.716487,87.553218 7.6510225,87.451733 7.59375,87.34375 7.4927417,87.149044 7.3880752,86.928049 7.3125,86.71875 7.30454,86.69694 7.288911,86.6782 7.28125,86.65625 7.2494249,86.5643 7.2454455,86.469419 7.21875,86.375 7.1884177,86.268382 7.1483606,86.171969 7.125,86.0625 7.0521214,85.720988 7,85.364295 7,85 V 83 15 13 C 7,10.218152 9.2181517,8 12,8 h 2 68 2 c 2.781848,0 5,2.218152 5,5 v 2 68 2 c 0,0.364295 -0.05212,0.720988 -0.125,1.0625 -0.04415,0.206893 -0.08838,0.397658 -0.15625,0.59375 -0.0077,0.02195 -0.0233,0.04069 -0.03125,0.0625 -0.06274,0.173739 -0.138383,0.367449 -0.21875,0.53125 -0.04158,0.0828 -0.07904,0.169954 -0.125,0.25 -0.0546,0.09721 -0.126774,0.18835 -0.1875,0.28125 -0.09411,0.140965 -0.204921,0.275995 -0.3125,0.40625 -0.143174,0.17445 -0.303141,0.346998 -0.46875,0.5 -0.01117,0.0102 -0.01998,0.02115 -0.03125,0.03125 -0.138386,0.125556 -0.285091,0.234436 -0.4375,0.34375 -0.102571,0.07315 -0.204318,0.153364 -0.3125,0.21875 -0.0074,0.0045 -0.02384,-0.0044 -0.03125,0 -0.232039,0.138728 -0.462548,0.274778 -0.71875,0.375 0.301527,-0.0968 0.596455,-0.204138 0.875,-0.34375 0.55709,-0.279224 1.060053,-0.665694 1.5,-1.09375 0.219973,-0.214028 0.409366,-0.441865 0.59375,-0.6875 0.184384,-0.245635 0.355408,-0.507743 0.5,-0.78125 0.14012,-0.265048 0.276135,-0.524729 0.375,-0.8125 0.01041,-0.03078 0.02133,-0.06274 0.03125,-0.09375 0.09046,-0.278085 0.1388,-0.579404 0.1875,-0.875 C 89.95865,84.6507 90,84.334721 90,84 V 82 14 12 C 90,8.676 87.324,6 84,6 Z"
       inkscape:connector-curvature="0"
       id="rect3728"
       style="opacity:0.5;fill:url(#linearGradient3188);fill-opacity:1;fill-rule:nonzero;stroke:none" /><path
       d="M 12,90 C 8.676,90 6,87.324 6,84 V 82 14 12 c 0,-0.334721 0.04135,-0.6507 0.09375,-0.96875 0.0487,-0.295596 0.09704,-0.596915 0.1875,-0.875 C 6.29113,10.12587 6.302142,10.09265 6.3125,10.0625 6.411365,9.774729 6.5473802,9.515048 6.6875,9.25 6.8320918,8.976493 7.0031161,8.714385 7.1875,8.46875 7.3718839,8.223115 7.5612765,7.995278 7.78125,7.78125 8.221197,7.353194 8.72416,6.966724 9.28125,6.6875 9.559795,6.547888 9.8547231,6.440553 10.15625,6.34375 9.9000482,6.443972 9.6695391,6.580022 9.4375,6.71875 c -0.00741,0.0044 -0.023866,-0.0045 -0.03125,0 -0.031933,0.0193 -0.062293,0.04251 -0.09375,0.0625 -0.120395,0.0767 -0.2310226,0.163513 -0.34375,0.25 -0.1061728,0.0808 -0.2132809,0.161112 -0.3125,0.25 C 8.4783201,7.442683 8.3087904,7.626638 8.15625,7.8125 8.0486711,7.942755 7.9378561,8.077785 7.84375,8.21875 7.818661,8.25713 7.805304,8.30462 7.78125,8.34375 7.716487,8.446782 7.6510225,8.548267 7.59375,8.65625 7.4927417,8.850956 7.3880752,9.071951 7.3125,9.28125 7.30454,9.30306 7.288911,9.3218 7.28125,9.34375 7.2494249,9.4357 7.2454455,9.530581 7.21875,9.625 7.1884177,9.731618 7.1483606,9.828031 7.125,9.9375 7.0521214,10.279012 7,10.635705 7,11 v 2 68 2 c 0,2.781848 2.2181517,5 5,5 h 2 68 2 c 2.781848,0 5,-2.218152 5,-5 V 81 13 11 C 89,10.635705 88.94788,10.279012 88.875,9.9375 88.83085,9.730607 88.78662,9.539842 88.71875,9.34375 88.71105,9.3218 88.69545,9.30306 88.6875,9.28125 88.62476,9.107511 88.549117,8.913801 88.46875,8.75 88.42717,8.6672 88.38971,8.580046 88.34375,8.5 88.28915,8.40279 88.216976,8.31165 88.15625,8.21875 88.06214,8.077785 87.951329,7.942755 87.84375,7.8125 87.700576,7.63805 87.540609,7.465502 87.375,7.3125 87.36383,7.3023 87.35502,7.29135 87.34375,7.28125 87.205364,7.155694 87.058659,7.046814 86.90625,6.9375 86.803679,6.86435 86.701932,6.784136 86.59375,6.71875 c -0.0074,-0.0045 -0.02384,0.0044 -0.03125,0 -0.232039,-0.138728 -0.462548,-0.274778 -0.71875,-0.375 0.301527,0.0968 0.596455,0.204138 0.875,0.34375 0.55709,0.279224 1.060053,0.665694 1.5,1.09375 0.219973,0.214028 0.409366,0.441865 0.59375,0.6875 0.184384,0.245635 0.355408,0.507743 0.5,0.78125 0.14012,0.265048 0.276135,0.524729 0.375,0.8125 0.01041,0.03078 0.02133,0.06274 0.03125,0.09375 0.09046,0.278085 0.1388,0.579404 0.1875,0.875 C 89.95865,11.3493 90,11.665279 90,12 v 2 68 2 c 0,3.324 -2.676,6 -6,6 z"
       inkscape:connector-curvature="0"
       id="path3615"
       style="opacity:0.2;fill:url(#radialGradient3619);fill-opacity:1;fill-rule:nonzero;stroke:none" /></g><g
     id="g9"
     transform="matrix(1.0207003,0,0,1.0145008,-0.62177769,-1.5265567)"
     style="display:inline"><path
       id="path81"
       style="display:inline;opacity:0.3;fill:none;fill-opacity:1;stroke:#000000;stroke-width:1.48461;stroke-linejoin:round;stroke-dasharray:none;stroke-opacity:1"
       inkscape:label="back"
       d="M 31.332729,35.673721 24.107374,55.48756 17.427363,35.685235 H 9.8059136 L 20.73771,66.327029 h 6.452304 7.931435 6.752724 l 3.406022,-9.770682 c 1.204951,3.369593 2.44573,6.726847 3.729401,10.071939 h 7.872117 v 0.0019 l 6.737414,0.0019 3.18023,-10.710907 3.700699,10.726258 h 7.655892 7.655893 L 74.18736,35.936601 H 67.187795 59.906948 L 56.227298,46.052672 52.49981,35.673721 h -6.880928 -7.35356 z" /><path
       id="path89"
       style="display:inline;opacity:0.1;fill:none;fill-opacity:1;stroke:#000000;stroke-width:2.98439;stroke-linejoin:round;stroke-dasharray:none;stroke-opacity:1"
       inkscape:label="back"
       d="M 31.332048,35.672146 24.106393,55.34319 17.426106,35.683578 H 9.8043402 L 20.736589,66.104542 h 6.452571 7.931764 6.753004 l 3.406162,-9.700267 c 1.205002,3.345307 2.445832,6.678368 3.729555,9.999352 h 7.872444 v 0.0019 l 6.737693,0.0019 3.180361,-10.633717 3.700852,10.648957 h 7.656209 7.65621 L 74.188452,35.933132 H 67.188598 59.907449 L 56.227646,45.976298 52.500005,35.672146 h -6.881212 -7.353866 z" /><path
       id="path90"
       style="display:inline;opacity:0.05;fill:none;fill-opacity:1;stroke:#000000;stroke-width:4.49663;stroke-linejoin:round;stroke-dasharray:none;stroke-opacity:1"
       inkscape:label="back"
       d="M 31.330225,35.667939 24.103772,55.184921 17.422746,35.679281 H 9.8001373 L 20.733596,65.86199 h 6.453284 7.932641 6.75375 l 3.40654,-9.624294 c 1.205133,3.319108 2.446102,6.626064 3.729967,9.921038 h 7.873313 v 0.0019 l 6.73844,0.0019 3.180712,-10.550434 3.701261,10.565555 h 7.657057 7.657057 L 74.191369,35.92688 H 67.190741 59.908788 L 56.228577,45.89139 52.500523,35.667939 H 45.61855 38.263871 Z" /><path
       style="display:inline;opacity:1;fill:url(#linearGradient46);stroke-width:3.40157;stroke-linejoin:round"
       d="m 9.8052905,35.684457 h 7.6217655 l 6.679751,19.867976 7.225586,-19.878366 h 6.933201 l -11.075826,30.75437 h -6.451383 z"
       id="path42"
       inkscape:label="V2"
       sodipodi:nodetypes="cccccccc" /><path
       style="display:inline;opacity:1;fill:url(#linearGradient51);stroke-width:3.40157;stroke-linejoin:round"
       d="m 27.189768,66.428437 h 7.932183 L 41.783875,46.499504 38.265594,35.674067 Z"
       id="path47"
       sodipodi:nodetypes="ccccc" /><path
       style="display:inline;opacity:1;fill:url(#linearGradient55);fill-opacity:1;stroke-width:3.40157;stroke-linejoin:round"
       d="m 38.265594,35.674067 h 7.352573 l 11.263246,31.05764 H 49.009251 C 45.091401,56.488424 41.569178,46.125613 38.265594,35.674067 Z"
       id="path52"
       sodipodi:nodetypes="ccccc" /><path
       style="display:inline;opacity:1;fill:url(#linearGradient60);stroke-width:3.40157;stroke-linejoin:round"
       d="M 45.618167,35.674067 H 52.5 l 11.119476,31.061093 -6.738063,-0.0034 z"
       id="path58"
       sodipodi:nodetypes="ccccc" /><path
       style="opacity:1;fill:url(#linearGradient70);stroke-width:3.40157;stroke-linejoin:round"
       d="M 35.121951,66.428437 H 41.875 l 3.404393,-9.802775 -3.495518,-10.126158 z"
       id="path5" /><path
       style="opacity:1;fill:url(#linearGradient68);stroke-width:3.40157;stroke-linejoin:round"
       d="M 56.228207,46.088423 59.90625,35.9375 l 3.408793,9.914662 c 0,0 -3.484938,10.297786 -3.531703,10.167153 -0.04677,-0.130633 -3.555133,-9.930892 -3.555133,-9.930892 z"
       id="path6"
       sodipodi:nodetypes="cccsc" /><path
       style="opacity:1;fill:url(#linearGradient65);stroke-width:3.40157;stroke-linejoin:round"
       d="M 63.315043,45.852162 66.799762,55.987657 63.619476,66.73516 59.78334,56.019315 Z"
       id="path7"
       sodipodi:nodetypes="ccccc" /><path
       style="opacity:1;fill:url(#linearGradient73);stroke-width:3.40157;stroke-linejoin:round"
       d="M 59.90625,35.9375 H 67.1875 L 78.15625,66.75 H 70.5 Z"
       id="path8" /><path
       style="opacity:1;fill:url(#linearGradient78);stroke-width:3.40157;stroke-linejoin:round"
       d="m 67.1875,35.9375 h 7 L 85.8125,66.75 h -7.65625 z"
       id="path9"
       sodipodi:nodetypes="ccccc" /></g><g
     id="g137"
     transform="matrix(1.0207003,0,0,-0.58966754,-0.71749975,104.36939)"
     style="display:inline;opacity:1;fill:url(#linearGradient2)"><path
       id="path129"
       style="display:inline;opacity:0.410359;fill:url(#linearGradient3);stroke-width:2.55037;stroke-linejoin:round;filter:url(#filter12)"
       inkscape:label="V2"
       d="m 70.50031,66.749327 -3.700738,-6.049545 -3.180261,6.042097 -6.737485,-0.0019 h -7.8722 C 47.725943,64.853332 46.48515,62.959645 45.280186,61.059141 L 41.87413,66.568716 H 35.121337 27.189819 20.737447 L 9.8055378,49.285895 h 7.6215292 l 6.680079,11.169968 7.225432,-11.175554 h 6.932664 7.353636 6.880999 l 3.727527,5.854039 3.679688,-5.705081 h 7.280924 6.999636 l 11.624602,17.32006 h -7.655972 z" /></g><g
     id="layer5"
     style="display:inline"><rect
       width="66"
       height="66"
       rx="12"
       ry="12"
       x="15"
       y="15"
       clip-path="url(#clipPath3613)"
       id="rect3171"
       style="display:inline;opacity:0.1;fill:url(#linearGradient3613);fill-opacity:1;fill-rule:nonzero;stroke:#ffffff;stroke-width:0.5;stroke-linecap:round;stroke-linejoin:miter;stroke-miterlimit:4;stroke-dasharray:none;stroke-dashoffset:0;stroke-opacity:1;filter:url(#filter3794)" /></g></svg>
