<?xml version="1.0" encoding="UTF-8" standalone="no"?>
<!-- Created with Inkscape (http://www.inkscape.org/) -->

<svg
   version="1.0"
   width="96"
   height="96"
   id="svg2408"
   sodipodi:docname="warpinator.svg"
   inkscape:version="1.2.2 (b0a8486541, 2022-12-01)"
   xml:space="preserve"
   xmlns:inkscape="http://www.inkscape.org/namespaces/inkscape"
   xmlns:sodipodi="http://sodipodi.sourceforge.net/DTD/sodipodi-0.dtd"
   xmlns:xlink="http://www.w3.org/1999/xlink"
   xmlns="http://www.w3.org/2000/svg"
   xmlns:svg="http://www.w3.org/2000/svg"
   xmlns:rdf="http://www.w3.org/1999/02/22-rdf-syntax-ns#"
   xmlns:cc="http://creativecommons.org/ns#"
   xmlns:dc="http://purl.org/dc/elements/1.1/"><sodipodi:namedview
     id="namedview28510"
     pagecolor="#ffffff"
     bordercolor="#000000"
     borderopacity="0.25"
     inkscape:showpageshadow="2"
     inkscape:pageopacity="0.0"
     inkscape:pagecheckerboard="0"
     inkscape:deskcolor="#d1d1d1"
     showgrid="false"
     inkscape:zoom="7.5645694"
     inkscape:cx="48.383454"
     inkscape:cy="47.325893"
     inkscape:current-layer="svg2408" /><defs
     id="defs2410"><linearGradient
       id="linearGradient53344"><stop
         id="stop53340"
         style="stop-color:#0d3b4c;stop-opacity:1;"
         offset="0" /><stop
         id="stop53342"
         style="stop-color:#000000;stop-opacity:0;"
         offset="1" /></linearGradient><linearGradient
       id="linearGradient3710"><stop
         id="stop3712"
         style="stop-color:#d9822e;stop-opacity:1"
         offset="0" /><stop
         id="stop3714"
         style="stop-color:#d9822e;stop-opacity:0"
         offset="1" /></linearGradient><linearGradient
       x1="45.447727"
       y1="92.539597"
       x2="45.447727"
       y2="7.0165396"
       id="ButtonShadow"
       gradientUnits="userSpaceOnUse"
       gradientTransform="scale(1.0058652,0.994169)"><stop
         id="stop3750"
         style="stop-color:#000000;stop-opacity:1"
         offset="0" /><stop
         id="stop3752"
         style="stop-color:#000000;stop-opacity:0.58823532"
         offset="1" /></linearGradient><linearGradient
       id="linearGradient3737"><stop
         id="stop3739"
         style="stop-color:#ffffff;stop-opacity:1"
         offset="0" /><stop
         id="stop3741"
         style="stop-color:#ffffff;stop-opacity:0"
         offset="1" /></linearGradient><linearGradient
       id="linearGradient3700"><stop
         id="stop3702"
         style="stop-color:#1d7a8f;stop-opacity:1;"
         offset="0" /><stop
         id="stop3704"
         style="stop-color:#19dcdc;stop-opacity:1;"
         offset="1" /></linearGradient><filter
       color-interpolation-filters="sRGB"
       id="filter3174"
       x="-0.047720931"
       y="-0.048282354"
       width="1.0954419"
       height="1.0965647"><feGaussianBlur
         id="feGaussianBlur3176"
         stdDeviation="1.71" /></filter><linearGradient
       x1="36.357143"
       y1="6"
       x2="36.357143"
       y2="63.893143"
       id="linearGradient3188"
       xlink:href="#linearGradient3737"
       gradientUnits="userSpaceOnUse" /><filter
       x="-0.19578789"
       y="-0.19578789"
       width="1.3915758"
       height="1.3915758"
       color-interpolation-filters="sRGB"
       id="filter3794"><feGaussianBlur
         id="feGaussianBlur3796"
         stdDeviation="5.28" /></filter><linearGradient
       x1="48"
       y1="20.220806"
       x2="48"
       y2="138.66119"
       id="linearGradient3613"
       xlink:href="#linearGradient3737"
       gradientUnits="userSpaceOnUse" /><radialGradient
       cx="48"
       cy="90.171875"
       r="42"
       fx="48"
       fy="90.171875"
       id="radialGradient3619"
       xlink:href="#linearGradient3737"
       gradientUnits="userSpaceOnUse"
       gradientTransform="matrix(1.1573129,0,0,0.99590774,-7.5510206,0.19713193)" /><clipPath
       id="clipPath3613"><rect
         width="84"
         height="84"
         rx="6"
         ry="6"
         x="6"
         y="6"
         id="rect3615"
         style="fill:#ffffff;fill-opacity:1;fill-rule:nonzero;stroke:none" /></clipPath><linearGradient
       x1="48"
       y1="90"
       x2="48"
       y2="5.9877172"
       id="linearGradient3617"
       xlink:href="#linearGradient3700"
       gradientUnits="userSpaceOnUse" /><linearGradient
       x1="45.447727"
       y1="92.539597"
       x2="45.447727"
       y2="7.0165396"
       id="ButtonShadow-0"
       gradientUnits="userSpaceOnUse"
       gradientTransform="matrix(1.0058652,0,0,0.994169,100,0)"><stop
         id="stop3750-8"
         style="stop-color:#000000;stop-opacity:1"
         offset="0" /><stop
         id="stop3752-5"
         style="stop-color:#000000;stop-opacity:0.58823532"
         offset="1" /></linearGradient><linearGradient
       x1="32.251034"
       y1="6.1317081"
       x2="32.251034"
       y2="90.238609"
       id="linearGradient3780"
       xlink:href="#ButtonShadow-0"
       gradientUnits="userSpaceOnUse"
       gradientTransform="matrix(1.0238095,0,0,1.0119048,-1.1428571,-98.071429)" /><linearGradient
       x1="32.251034"
       y1="6.1317081"
       x2="32.251034"
       y2="90.238609"
       id="linearGradient3772"
       xlink:href="#ButtonShadow-0"
       gradientUnits="userSpaceOnUse"
       gradientTransform="matrix(1.0238095,0,0,1.0119048,-1.1428571,-98.071429)" /><linearGradient
       x1="32.251034"
       y1="6.1317081"
       x2="32.251034"
       y2="90.238609"
       id="linearGradient3725"
       xlink:href="#ButtonShadow-0"
       gradientUnits="userSpaceOnUse"
       gradientTransform="matrix(1.0238095,0,0,1.0119048,-1.1428571,-98.071429)" /><linearGradient
       x1="32.251034"
       y1="6.1317081"
       x2="32.251034"
       y2="90.238609"
       id="linearGradient3721"
       xlink:href="#ButtonShadow-0"
       gradientUnits="userSpaceOnUse"
       gradientTransform="translate(0,-97)" /><linearGradient
       x1="32.251034"
       y1="6.1317081"
       x2="32.251034"
       y2="90.238609"
       id="linearGradient3026"
       xlink:href="#ButtonShadow-0"
       gradientUnits="userSpaceOnUse"
       gradientTransform="matrix(1.0238095,0,0,1.0119048,-1.1428571,-98.071429)" /><linearGradient
       x1="56"
       y1="64"
       x2="16"
       y2="64"
       id="linearGradient3716"
       xlink:href="#linearGradient3710"
       gradientUnits="userSpaceOnUse" /><radialGradient
       inkscape:collect="always"
       xlink:href="#linearGradient5293"
       id="radialGradient5302"
       gradientUnits="userSpaceOnUse"
       gradientTransform="matrix(4.6723113,0,0,1.398978,-177.62389,-36.894191)"
       cx="48.397247"
       cy="57.980881"
       fx="48.397247"
       fy="57.980881"
       r="42" /><linearGradient
       id="linearGradient5293"><stop
         id="stop5295"
         style="stop-color:#ffffff;stop-opacity:0;"
         offset="0" /><stop
         id="stop5297"
         style="stop-color:#ffffff;stop-opacity:1;"
         offset="1" /></linearGradient><linearGradient
       inkscape:collect="always"
       xlink:href="#linearGradient3737"
       id="linearGradient18682"
       gradientUnits="userSpaceOnUse"
       gradientTransform="matrix(0,0.2533374,-0.27401865,0,58.428754,42.227851)"
       x1="15.949031"
       y1="32"
       x2="48"
       y2="32" /><linearGradient
       inkscape:collect="always"
       xlink:href="#linearGradient3737"
       id="linearGradient18682-1"
       gradientUnits="userSpaceOnUse"
       gradientTransform="matrix(0,0.11156194,-0.11802047,0,69.235639,26.257977)"
       x1="15.949031"
       y1="32"
       x2="48"
       y2="32" /><linearGradient
       inkscape:collect="always"
       xlink:href="#linearGradient3737"
       id="linearGradient18682-6"
       gradientUnits="userSpaceOnUse"
       gradientTransform="matrix(0,0.08014965,-0.08617486,0,25.162442,52.05294)"
       x1="15.949031"
       y1="32"
       x2="48"
       y2="32" /><linearGradient
       inkscape:collect="always"
       xlink:href="#linearGradient53344"
       id="linearGradient53337"
       gradientUnits="userSpaceOnUse"
       gradientTransform="matrix(0,0.19738513,-0.20983182,0,48.148872,62.835591)"
       x1="15.949031"
       y1="32"
       x2="48"
       y2="32" /><linearGradient
       inkscape:collect="always"
       xlink:href="#linearGradient53344"
       id="linearGradient55153"
       gradientUnits="userSpaceOnUse"
       gradientTransform="matrix(0,0.56357984,-0.57489602,0,68.056823,33.192377)"
       x1="15.949031"
       y1="32"
       x2="48"
       y2="32" /><linearGradient
       inkscape:collect="always"
       xlink:href="#linearGradient53344"
       id="linearGradient55198"
       gradientUnits="userSpaceOnUse"
       gradientTransform="matrix(0,0.30424263,-0.31921126,0,77.271439,58.731886)"
       x1="15.949031"
       y1="32"
       x2="48"
       y2="32" /><linearGradient
       inkscape:collect="always"
       xlink:href="#linearGradient53344"
       id="linearGradient55243"
       gradientUnits="userSpaceOnUse"
       gradientTransform="matrix(0,0.24336253,-0.23918507,0,42.602838,24.722153)"
       x1="15.949031"
       y1="32"
       x2="48"
       y2="32" /><linearGradient
       inkscape:collect="always"
       xlink:href="#linearGradient53344"
       id="linearGradient55288"
       gradientUnits="userSpaceOnUse"
       gradientTransform="matrix(0,0.24458325,-0.24445296,0,30.204756,47.153037)"
       x1="15.949031"
       y1="32"
       x2="48"
       y2="32" /><linearGradient
       inkscape:collect="always"
       xlink:href="#linearGradient53344"
       id="linearGradient55356"
       gradientUnits="userSpaceOnUse"
       gradientTransform="matrix(-0.00260645,0.37748496,-0.3772602,-0.00260523,77.561917,18.410529)"
       x1="15.949031"
       y1="32"
       x2="48"
       y2="32" /></defs><metadata
     id="metadata2413"><rdf:RDF><cc:Work
         rdf:about=""><dc:format>image/svg+xml</dc:format><dc:type
           rdf:resource="http://purl.org/dc/dcmitype/StillImage" /></cc:Work></rdf:RDF></metadata><g
     id="layer2"
     style="display:none"><rect
       width="86"
       height="85"
       rx="6"
       ry="6"
       x="5"
       y="7"
       id="rect3745"
       style="opacity:0.9;fill:url(#ButtonShadow);fill-opacity:1;fill-rule:nonzero;stroke:none;filter:url(#filter3174)" /></g><g
     id="layer3"><path
       d="m 12,-95.03125 c -5.5110903,0 -10.03125,4.52016 -10.03125,10.03125 l 0,71 c 0,5.5110902 4.5201598,10.03125 10.03125,10.03125 l 72,0 c 5.51109,0 10.03125,-4.5201597 10.03125,-10.03125 l 0,-71 c 0,-5.51109 -4.52016,-10.03125 -10.03125,-10.03125 l -72,0 z"
       transform="scale(1,-1)"
       id="path3786"
       style="opacity:0.07999998;fill:url(#linearGradient3026);fill-opacity:1;fill-rule:nonzero;stroke:none;display:inline" /><path
       d="m 12,-94.03125 c -4.971633,0 -9.03125,4.059617 -9.03125,9.03125 l 0,71 c 0,4.9716329 4.0596171,9.03125 9.03125,9.03125 l 72,0 c 4.971633,0 9.03125,-4.059617 9.03125,-9.03125 l 0,-71 c 0,-4.971633 -4.059617,-9.03125 -9.03125,-9.03125 l -72,0 z"
       transform="scale(1,-1)"
       id="path3778"
       style="opacity:0.1;fill:url(#linearGradient3780);fill-opacity:1;fill-rule:nonzero;stroke:none;display:inline" /><path
       d="m 12,-93 c -4.4091333,0 -8,3.590867 -8,8 l 0,71 c 0,4.4091333 3.5908667,8 8,8 l 72,0 c 4.409133,0 8,-3.5908667 8,-8 l 0,-71 c 0,-4.409133 -3.590867,-8 -8,-8 l -72,0 z"
       transform="scale(1,-1)"
       id="path3770"
       style="opacity:0.2;fill:url(#linearGradient3772);fill-opacity:1;fill-rule:nonzero;stroke:none;display:inline" /><rect
       width="86"
       height="85"
       rx="7"
       ry="7"
       x="5"
       y="-92"
       transform="scale(1,-1)"
       id="rect3723"
       style="opacity:0.3;fill:url(#linearGradient3725);fill-opacity:1;fill-rule:nonzero;stroke:none;display:inline" /><rect
       width="84"
       height="84"
       rx="6"
       ry="6"
       x="6"
       y="-91"
       transform="scale(1,-1)"
       id="rect3716"
       style="opacity:0.45;fill:url(#linearGradient3721);fill-opacity:1;fill-rule:nonzero;stroke:none;display:inline" /></g><g
     id="layer1"
     style="display:inline"><rect
       width="84"
       height="84"
       rx="6"
       ry="6"
       x="6"
       y="6"
       id="rect2419"
       style="fill:url(#linearGradient3617);fill-opacity:1;fill-rule:nonzero;stroke:none" /><path
       d="M 12,6 C 8.676,6 6,8.676 6,12 l 0,2 0,68 0,2 c 0,0.334721 0.04135,0.6507 0.09375,0.96875 0.0487,0.295596 0.09704,0.596915 0.1875,0.875 0.00988,0.03038 0.020892,0.0636 0.03125,0.09375 0.098865,0.287771 0.2348802,0.547452 0.375,0.8125 0.1445918,0.273507 0.3156161,0.535615 0.5,0.78125 0.1843839,0.245635 0.3737765,0.473472 0.59375,0.6875 0.439947,0.428056 0.94291,0.814526 1.5,1.09375 0.278545,0.139612 0.5734731,0.246947 0.875,0.34375 -0.2562018,-0.100222 -0.4867109,-0.236272 -0.71875,-0.375 -0.00741,-0.0044 -0.023866,0.0045 -0.03125,0 -0.031933,-0.0193 -0.062293,-0.04251 -0.09375,-0.0625 -0.120395,-0.0767 -0.2310226,-0.163513 -0.34375,-0.25 -0.1061728,-0.0808 -0.2132809,-0.161112 -0.3125,-0.25 C 8.4783201,88.557317 8.3087904,88.373362 8.15625,88.1875 8.0486711,88.057245 7.9378561,87.922215 7.84375,87.78125 7.818661,87.74287 7.805304,87.69538 7.78125,87.65625 7.716487,87.553218 7.6510225,87.451733 7.59375,87.34375 7.4927417,87.149044 7.3880752,86.928049 7.3125,86.71875 7.30454,86.69694 7.288911,86.6782 7.28125,86.65625 7.2494249,86.5643 7.2454455,86.469419 7.21875,86.375 7.1884177,86.268382 7.1483606,86.171969 7.125,86.0625 7.0521214,85.720988 7,85.364295 7,85 L 7,83 7,15 7,13 C 7,10.218152 9.2181517,8 12,8 l 2,0 68,0 2,0 c 2.781848,0 5,2.218152 5,5 l 0,2 0,68 0,2 c 0,0.364295 -0.05212,0.720988 -0.125,1.0625 -0.04415,0.206893 -0.08838,0.397658 -0.15625,0.59375 -0.0077,0.02195 -0.0233,0.04069 -0.03125,0.0625 -0.06274,0.173739 -0.138383,0.367449 -0.21875,0.53125 -0.04158,0.0828 -0.07904,0.169954 -0.125,0.25 -0.0546,0.09721 -0.126774,0.18835 -0.1875,0.28125 -0.09411,0.140965 -0.204921,0.275995 -0.3125,0.40625 -0.143174,0.17445 -0.303141,0.346998 -0.46875,0.5 -0.01117,0.0102 -0.01998,0.02115 -0.03125,0.03125 -0.138386,0.125556 -0.285091,0.234436 -0.4375,0.34375 -0.102571,0.07315 -0.204318,0.153364 -0.3125,0.21875 -0.0074,0.0045 -0.02384,-0.0044 -0.03125,0 -0.232039,0.138728 -0.462548,0.274778 -0.71875,0.375 0.301527,-0.0968 0.596455,-0.204138 0.875,-0.34375 0.55709,-0.279224 1.060053,-0.665694 1.5,-1.09375 0.219973,-0.214028 0.409366,-0.441865 0.59375,-0.6875 0.184384,-0.245635 0.355408,-0.507743 0.5,-0.78125 0.14012,-0.265048 0.276135,-0.524729 0.375,-0.8125 0.01041,-0.03078 0.02133,-0.06274 0.03125,-0.09375 0.09046,-0.278085 0.1388,-0.579404 0.1875,-0.875 C 89.95865,84.6507 90,84.334721 90,84 l 0,-2 0,-68 0,-2 C 90,8.676 87.324,6 84,6 L 12,6 z"
       inkscape:connector-curvature="0"
       id="rect3728"
       style="opacity:0.35;fill:url(#linearGradient3188);fill-opacity:1;fill-rule:nonzero;stroke:none" /><path
       d="M 12,90 C 8.676,90 6,87.324 6,84 L 6,82 6,14 6,12 c 0,-0.334721 0.04135,-0.6507 0.09375,-0.96875 0.0487,-0.295596 0.09704,-0.596915 0.1875,-0.875 C 6.29113,10.12587 6.302142,10.09265 6.3125,10.0625 6.411365,9.774729 6.5473802,9.515048 6.6875,9.25 6.8320918,8.976493 7.0031161,8.714385 7.1875,8.46875 7.3718839,8.223115 7.5612765,7.995278 7.78125,7.78125 8.221197,7.353194 8.72416,6.966724 9.28125,6.6875 9.559795,6.547888 9.8547231,6.440553 10.15625,6.34375 9.9000482,6.443972 9.6695391,6.580022 9.4375,6.71875 c -0.00741,0.0044 -0.023866,-0.0045 -0.03125,0 -0.031933,0.0193 -0.062293,0.04251 -0.09375,0.0625 -0.120395,0.0767 -0.2310226,0.163513 -0.34375,0.25 -0.1061728,0.0808 -0.2132809,0.161112 -0.3125,0.25 C 8.4783201,7.442683 8.3087904,7.626638 8.15625,7.8125 8.0486711,7.942755 7.9378561,8.077785 7.84375,8.21875 7.818661,8.25713 7.805304,8.30462 7.78125,8.34375 7.716487,8.446782 7.6510225,8.548267 7.59375,8.65625 7.4927417,8.850956 7.3880752,9.071951 7.3125,9.28125 7.30454,9.30306 7.288911,9.3218 7.28125,9.34375 7.2494249,9.4357 7.2454455,9.530581 7.21875,9.625 7.1884177,9.731618 7.1483606,9.828031 7.125,9.9375 7.0521214,10.279012 7,10.635705 7,11 l 0,2 0,68 0,2 c 0,2.781848 2.2181517,5 5,5 l 2,0 68,0 2,0 c 2.781848,0 5,-2.218152 5,-5 l 0,-2 0,-68 0,-2 C 89,10.635705 88.94788,10.279012 88.875,9.9375 88.83085,9.730607 88.78662,9.539842 88.71875,9.34375 88.71105,9.3218 88.69545,9.30306 88.6875,9.28125 88.62476,9.107511 88.549117,8.913801 88.46875,8.75 88.42717,8.6672 88.38971,8.580046 88.34375,8.5 88.28915,8.40279 88.216976,8.31165 88.15625,8.21875 88.06214,8.077785 87.951329,7.942755 87.84375,7.8125 87.700576,7.63805 87.540609,7.465502 87.375,7.3125 87.36383,7.3023 87.35502,7.29135 87.34375,7.28125 87.205364,7.155694 87.058659,7.046814 86.90625,6.9375 86.803679,6.86435 86.701932,6.784136 86.59375,6.71875 c -0.0074,-0.0045 -0.02384,0.0044 -0.03125,0 -0.232039,-0.138728 -0.462548,-0.274778 -0.71875,-0.375 0.301527,0.0968 0.596455,0.204138 0.875,0.34375 0.55709,0.279224 1.060053,0.665694 1.5,1.09375 0.219973,0.214028 0.409366,0.441865 0.59375,0.6875 0.184384,0.245635 0.355408,0.507743 0.5,0.78125 0.14012,0.265048 0.276135,0.524729 0.375,0.8125 0.01041,0.03078 0.02133,0.06274 0.03125,0.09375 0.09046,0.278085 0.1388,0.579404 0.1875,0.875 C 89.95865,11.3493 90,11.665279 90,12 l 0,2 0,68 0,2 c 0,3.324 -2.676,6 -6,6 l -72,0 z"
       inkscape:connector-curvature="0"
       id="path3615"
       style="opacity:0.2;fill:url(#radialGradient3619);fill-opacity:1;fill-rule:nonzero;stroke:none" /></g><g
     id="layer5"
     style="display:inline"><rect
       width="66"
       height="66"
       rx="12"
       ry="12"
       x="15"
       y="15"
       clip-path="url(#clipPath3613)"
       id="rect3171"
       style="opacity:0.1;fill:url(#linearGradient3613);fill-opacity:1;fill-rule:nonzero;stroke:#ffffff;stroke-width:0.5;stroke-linecap:round;stroke-linejoin:miter;stroke-miterlimit:4;stroke-opacity:1;stroke-dasharray:none;stroke-dashoffset:0;filter:url(#filter3794)" /></g><path
     style="display:inline;fill:url(#radialGradient5302);fill-opacity:1;fill-rule:nonzero;stroke:none;stroke-width:1.01492"
     d="M 12,8 C 9.316153,8 7,10.119819 7,13 v 17.302742 c 10.17826,9.297804 24.775572,15.131746 40.999999,15.131746 16.224433,0 30.821745,-5.833942 41.000001,-15.131746 V 13 C 89,10.08677 86.683847,8 84,8 Z"
     id="rect5284"
     inkscape:connector-curvature="0"
     sodipodi:nodetypes="sscscsss" /><g
     id="g53293"><path
       id="path41508"
       style="color:#000000;font-style:normal;font-variant:normal;font-weight:normal;font-stretch:normal;font-size:medium;line-height:125%;font-family:Cantarell;-inkscape-font-specification:Cantarell;font-variant-ligatures:normal;font-variant-position:normal;font-variant-caps:normal;font-variant-numeric:normal;font-variant-alternates:normal;font-feature-settings:normal;text-indent:0;text-align:start;text-decoration:none;text-decoration-line:none;text-decoration-style:solid;text-decoration-color:#000000;letter-spacing:0px;word-spacing:0px;text-transform:none;writing-mode:lr-tb;direction:ltr;text-orientation:mixed;dominant-baseline:auto;baseline-shift:baseline;text-anchor:start;white-space:normal;shape-padding:0;clip-rule:nonzero;display:inline;overflow:visible;visibility:visible;isolation:auto;mix-blend-mode:normal;color-interpolation:sRGB;color-interpolation-filters:linearRGB;solid-color:#000000;solid-opacity:1;vector-effect:none;fill:#082c4d;fill-opacity:1;fill-rule:nonzero;stroke:none;stroke-width:3.47944;stroke-linecap:butt;stroke-linejoin:miter;stroke-miterlimit:4;stroke-dasharray:none;stroke-dashoffset:0;stroke-opacity:1;color-rendering:auto;image-rendering:auto;shape-rendering:auto;text-rendering:auto;enable-background:accumulate;opacity:0.57847534"
       d="m 42.387913,50.19573 -1.727293,0.205527 -15.492274,1.843358 0.534292,4.521146 17.219567,-2.048885 z m 18.563418,-17.732056 -1.04225,1.439174 -7.222777,9.973456 4.070792,2.948069 8.265026,-11.412631 z m 4.507107,-8.155159 c -3.304779,-1e-6 -6.024193,2.718706 -6.024193,6.023489 0,3.304779 2.719414,6.024191 6.024193,6.024191 3.304783,0 6.024197,-2.719415 6.024197,-6.024191 0,-3.30478 -2.719414,-6.023487 -6.024197,-6.023489 z m 0,3.734111 c 1.286642,0 2.289381,1.002736 2.289381,2.289378 0,1.286641 -1.002739,2.289373 -2.289381,2.289373 -1.286641,0 -2.289377,-1.002732 -2.289377,-2.289373 0,-1.286642 1.002736,-2.289378 2.289377,-2.289378 z M 49.659685,41.894102 c -5.109068,0 -9.297465,4.1891 -9.297465,9.298168 4e-6,5.109064 4.188401,9.297459 9.297465,9.297459 5.109061,0 9.298164,-4.188398 9.298164,-9.297459 4e-6,-5.109065 -4.1891,-9.298168 -9.298164,-9.298168 z m 0,4.387208 c 2.737991,3e-6 4.910253,2.172967 4.910249,4.91096 0,2.737992 -2.172258,4.910251 -4.910249,4.910255 -2.737994,0 -4.910253,-2.172263 -4.910253,-4.910255 -3e-6,-2.737993 2.172259,-4.91096 4.910253,-4.91096 z m -27.254838,4.686901 c -2.168297,0 -3.951103,1.782802 -3.951103,3.951103 0,2.168297 1.782806,3.951808 3.951103,3.951808 2.168297,0 3.951812,-1.783511 3.951812,-3.951808 0,-2.168301 -1.783515,-3.951103 -3.951812,-3.951103 z m 0,2.367124 c 0.888696,0 1.583975,0.695283 1.583975,1.583979 0,0.888692 -0.695279,1.583975 -1.583975,1.583975 -0.888693,0 -1.583267,-0.695283 -1.583267,-1.583975 0,-0.888696 0.694574,-1.583979 1.583267,-1.583979 z m 36.727267,9.055931 1.624332,-1.573039 2.684423,2.598932 -1.504644,1.658525 z m -3.146061,-2.804112 1.863708,-1.863708 2.30826,2.410851 -1.692725,1.795312 z m -16.123625,-19.286806 1.983395,-1.57304 2.906682,3.556431 -2.15436,1.709819 z m -2.923795,-3.624812 1.812409,-1.47045 2.598933,2.940892 -1.915003,1.607234 z m 7.420631,23.373272 2.530537,1.299461 -2.32536,4.103576 -2.53054,-1.094288 z M 67.1343,63.039219 c -2.825065,-3e-6 -5.148445,2.323384 -5.148449,5.148447 0,2.825066 2.323384,5.14845 5.148449,5.14845 2.825068,0 5.148452,-2.323384 5.148452,-5.14845 -4e-6,-2.825063 -2.323384,-5.14845 -5.148452,-5.148447 z m -25.716096,2.393986 c -1.886824,0 -3.438659,1.551126 -3.438659,3.437953 -3e-6,1.886824 1.551835,3.438658 3.438659,3.438658 1.886827,0 3.438662,-1.551834 3.438662,-3.438658 0,-1.886824 -1.551839,-3.437953 -3.438662,-3.437953 z M 34.989711,28.569204 c -2.149532,0 -3.917177,1.76764 -3.917177,3.917172 0,2.149536 1.767645,3.917176 3.917177,3.917176 2.149532,0 3.917176,-1.76764 3.917176,-3.917176 0,-2.149532 -1.767644,-3.917172 -3.917176,-3.917172 z"
       inkscape:connector-curvature="0" /><path
       id="path39835"
       style="color:#000000;font-style:normal;font-variant:normal;font-weight:normal;font-stretch:normal;font-size:medium;line-height:125%;font-family:Cantarell;-inkscape-font-specification:Cantarell;font-variant-ligatures:normal;font-variant-position:normal;font-variant-caps:normal;font-variant-numeric:normal;font-variant-alternates:normal;font-feature-settings:normal;text-indent:0;text-align:start;text-decoration:none;text-decoration-line:none;text-decoration-style:solid;text-decoration-color:#000000;letter-spacing:0px;word-spacing:0px;text-transform:none;writing-mode:lr-tb;direction:ltr;text-orientation:mixed;dominant-baseline:auto;baseline-shift:baseline;text-anchor:start;white-space:normal;shape-padding:0;clip-rule:nonzero;display:inline;overflow:visible;visibility:visible;opacity:0.838565;isolation:auto;mix-blend-mode:normal;color-interpolation:sRGB;color-interpolation-filters:linearRGB;solid-color:#000000;solid-opacity:1;vector-effect:none;fill:#182831;fill-opacity:1;fill-rule:nonzero;stroke:none;stroke-width:3.47944;stroke-linecap:butt;stroke-linejoin:miter;stroke-miterlimit:4;stroke-dasharray:none;stroke-dashoffset:0;stroke-opacity:1;color-rendering:auto;image-rendering:auto;shape-rendering:auto;text-rendering:auto;enable-background:accumulate"
       d="m 65.458513,24.308165 c -3.304775,-10e-7 -6.02539,2.718658 -6.02539,6.023437 0,0.09501 0.0092,0.187255 0.01367,0.28125 0.149161,-3.176225 2.801298,-5.744141 6.011718,-5.74414 3.210425,2e-6 5.860605,2.567918 6.009766,5.74414 0.0044,-0.09399 0.01367,-0.186236 0.01367,-0.28125 0,-3.304776 -2.718658,-6.023435 -6.023438,-6.023437 z m -30.46875,4.259765 c -2.149529,0 -3.917968,1.768439 -3.917968,3.917969 0,0.09418 0.009,0.186696 0.01563,0.279297 0.146521,-2.019898 1.847654,-3.634766 3.902343,-3.634766 2.0547,0 3.755838,1.614854 3.902344,3.634766 0.0067,-0.09259 0.01367,-0.185123 0.01367,-0.279297 0,-2.14953 -1.766486,-3.917969 -3.916016,-3.917969 z m 28.207032,2.044922 c -0.01092,0.09277 -0.02734,0.183053 -0.02734,0.279297 0,1.28664 1.002423,2.289063 2.289062,2.289063 1.286641,0 2.289063,-1.002423 2.289063,-2.289063 0,-0.09624 -0.01642,-0.186531 -0.02734,-0.279297 -0.135906,1.146411 -1.071989,2.007813 -2.261719,2.007813 -1.189728,0 -2.125813,-0.861402 -2.261718,-2.007813 z m -3.091797,3.015625 -0.197266,0.273438 -6.402344,8.841797 c -1.175286,-0.540088 -2.474777,-0.84961 -3.845703,-0.84961 -4.852425,0 -8.867952,3.780299 -9.259765,8.53711 l -15.125,1.798828 c -0.723031,-0.770803 -1.740941,-1.261719 -2.871094,-1.261719 -2.168295,0 -3.951172,1.782873 -3.951172,3.951172 0,0.09454 0.009,0.186332 0.01563,0.279297 0.146438,-2.038789 1.861994,-3.669922 3.935547,-3.669922 1.130153,0 2.148063,0.490916 2.871094,1.261719 l 15.125,-1.796875 c 0.391066,-4.757541 4.406812,-8.539063 9.259765,-8.539063 1.370926,0 2.670417,0.309522 3.845703,0.849609 l 6.402344,-8.841796 0.375,-0.517578 c -0.06184,-0.103881 -0.122086,-0.208702 -0.177734,-0.316407 z m -21.353516,1.576172 -1.8125,1.470703 0.273438,0.337891 1.539062,-1.248047 2.3125,2.619141 0.285156,-0.238282 z m 3.09375,3.521485 -1.982422,1.574218 0.261719,0.353516 1.720703,-1.367188 2.628906,3.216797 0.277344,-0.220703 z m 15.697266,7.574218 -0.185547,0.257813 c 0.959288,1.412946 1.53082,3.102081 1.585937,4.914062 0.0029,-0.09415 0.01367,-0.186447 0.01367,-0.28125 2e-6,-1.792918 -0.52356,-3.465579 -1.414062,-4.890625 z m -12.779297,5.171875 c -0.0051,0.09335 -0.01367,0.18648 -0.01367,0.28125 0,2.73799 2.172165,4.910157 4.910156,4.910157 2.737989,-4e-6 4.910156,-2.172167 4.910156,-4.910157 1e-6,-0.09477 -0.0085,-0.1879 -0.01367,-0.28125 -0.143314,2.603554 -2.253266,4.628903 -4.896485,4.628907 -2.643221,0 -4.753171,-2.025353 -4.896484,-4.628907 z M 20.849138,55.19879 c -0.0157,0.09118 -0.02734,0.184878 -0.02734,0.28125 0,0.888691 0.693339,1.583984 1.582031,1.583984 0.888695,0 1.583984,-0.695293 1.583984,-1.583984 0,-0.09637 -0.01163,-0.190067 -0.02734,-0.28125 -0.129082,0.749786 -0.76423,1.304687 -1.556641,1.304687 -0.792409,0 -1.425727,-0.554901 -1.554688,-1.304687 z m 37,2.523437 -1.863281,1.865235 0.28711,0.271484 1.576171,-1.576172 2.042969,2.134766 0.265625,-0.283203 z m -13.490234,2.326172 -2.326172,4.308594 0.246094,0.105469 2.080078,-3.853516 2.285156,1.171875 0.246094,-0.433594 z m 16.396484,0.769531 -1.623047,1.572266 0.291016,0.279297 1.332031,-1.291016 2.414063,2.337891 0.271484,-0.298828 z m 6.378907,2.220704 c -2.825063,-3e-6 -5.148434,2.323377 -5.148438,5.148437 0,0.09487 0.0085,0.187579 0.01367,0.28125 0.147844,-2.696542 2.403918,-4.869144 5.134766,-4.869141 2.730868,-3e-6 4.986948,2.172574 5.134765,4.869141 0.0052,-0.09365 0.01367,-0.186396 0.01367,-0.28125 -4e-6,-2.82506 -2.323372,-5.14844 -5.148437,-5.148437 z m -25.716797,2.394531 c -1.886822,0 -3.4375,1.550675 -3.4375,3.4375 0,0.09623 0.02138,0.186921 0.0293,0.28125 0.146281,-1.756008 1.616952,-3.158203 3.408203,-3.158203 1.791249,0 3.263875,1.402198 3.410156,3.158203 0.0079,-0.09433 0.0293,-0.185017 0.0293,-0.28125 0,-1.886822 -1.552632,-3.4375 -3.439453,-3.4375 z" /><path
       id="path41501"
       style="color:#000000;font-style:normal;font-variant:normal;font-weight:normal;font-stretch:normal;font-size:medium;line-height:125%;font-family:Cantarell;-inkscape-font-specification:Cantarell;font-variant-ligatures:normal;font-variant-position:normal;font-variant-caps:normal;font-variant-numeric:normal;font-variant-alternates:normal;font-feature-settings:normal;text-indent:0;text-align:start;text-decoration:none;text-decoration-line:none;text-decoration-style:solid;text-decoration-color:#000000;letter-spacing:0px;word-spacing:0px;text-transform:none;writing-mode:lr-tb;direction:ltr;text-orientation:mixed;dominant-baseline:auto;baseline-shift:baseline;text-anchor:start;white-space:normal;shape-padding:0;clip-rule:nonzero;display:inline;overflow:visible;visibility:visible;opacity:0.457399;isolation:auto;mix-blend-mode:normal;color-interpolation:sRGB;color-interpolation-filters:linearRGB;solid-color:#000000;solid-opacity:1;vector-effect:none;fill:#28395a;fill-opacity:1;fill-rule:nonzero;stroke:none;stroke-width:3.47944;stroke-linecap:butt;stroke-linejoin:miter;stroke-miterlimit:4;stroke-dasharray:none;stroke-dashoffset:0;stroke-opacity:1;color-rendering:auto;image-rendering:auto;shape-rendering:auto;text-rendering:auto;enable-background:accumulate"
       d="m 65.458984,24.308594 c -3.304775,-1e-6 -6.02539,2.718658 -6.02539,6.023437 0,0.161692 0.01262,0.319877 0.02539,0.478516 0.248428,-3.083493 2.857058,-5.54297 6,-5.542969 3.142946,2e-6 5.749619,2.459478 5.998047,5.542969 0.01277,-0.158639 0.02539,-0.316825 0.02539,-0.478516 0,-3.304776 -2.718658,-6.023435 -6.023437,-6.023437 z m -30.46875,4.259765 c -2.149529,0 -3.917968,1.768439 -3.917968,3.917969 0,0.162144 0.01368,0.321313 0.0332,0.478516 0.240136,-1.925908 1.898042,-3.4375 3.884765,-3.4375 1.986747,0 3.64466,1.51156 3.884766,3.4375 0.01952,-0.157182 0.03125,-0.316394 0.03125,-0.478516 0,-2.14953 -1.766486,-3.917969 -3.916016,-3.917969 z m 28.228516,2.242188 c -0.03155,0.154346 -0.04883,0.315236 -0.04883,0.480469 0,1.286639 1.002423,2.289062 2.289062,2.289062 1.286641,0 2.289063,-1.002423 2.289063,-2.289062 0,-0.165228 -0.01728,-0.326127 -0.04883,-0.480469 -0.214116,1.047552 -1.118804,1.810547 -2.240235,1.810547 -1.121425,0 -2.026114,-0.763002 -2.240234,-1.810547 z m -3.228516,2.978515 -0.08203,0.113282 -6.402344,8.841797 c -1.175286,-0.540088 -2.474777,-0.84961 -3.845703,-0.84961 -2.164612,0 -4.160532,0.756415 -5.746094,2.011719 l -0.216796,0.173828 c -1.850093,1.555734 -3.08786,3.814012 -3.296875,6.351563 l -15.125,1.798828 C 24.55236,51.459666 23.53445,50.96875 22.404297,50.96875 c -2.168295,0 -3.951172,1.782873 -3.951172,3.951172 0,0.162601 0.01374,0.320832 0.0332,0.478516 0.240067,-1.944947 1.912276,-3.472657 3.917969,-3.472657 1.130689,0 2.149961,0.492231 2.873047,1.263672 l 15.123047,-1.798828 c 0.391813,-4.75681 4.40734,-8.539063 9.259765,-8.539063 1.370838,0 2.670476,0.309588 3.845703,0.84961 l 6.402344,-8.839844 0.375,-0.517578 c -0.106736,-0.179263 -0.204935,-0.364307 -0.292969,-0.554688 z m -21.238281,1.416016 -0.513672,0.416016 c -0.315981,0.468348 -0.731001,0.863689 -1.21289,1.160156 l 0.382812,0.472656 1.34375,-1.089844 2.111328,2.390626 0.486328,-0.408204 z m 3.09375,3.521484 -0.867187,0.689454 -1.091797,0.916015 0.423828,0.572266 1.535156,-1.21875 2.431641,2.974609 0.474609,-0.376953 z m 15.830078,7.791016 -0.318359,0.4375 c 0.924152,1.361194 1.486107,2.980203 1.576172,4.716797 0.0083,-0.160002 0.02344,-0.318512 0.02344,-0.480469 2e-6,-1.702382 -0.471979,-3.296671 -1.28125,-4.673828 z m -12.902343,5.154297 c -0.01485,0.157583 -0.02344,0.316651 -0.02344,0.478516 0,2.737989 2.172165,4.910156 4.910156,4.910156 2.737989,-4e-6 4.910156,-2.172167 4.910156,-4.910156 10e-7,-0.161865 -0.0086,-0.320933 -0.02344,-0.478516 -0.23642,2.507856 -2.310631,4.429684 -4.886719,4.429687 -2.576091,0 -4.650298,-1.921831 -4.886718,-4.429687 z m -23.873047,3.726563 c -0.04688,0.151684 -0.07813,0.309354 -0.07813,0.478515 0,0.888691 0.693339,1.583985 1.582031,1.583985 0.888695,0 1.583984,-0.695294 1.583984,-1.583985 0,-0.169161 -0.0312,-0.326831 -0.07813,-0.478515 -0.199584,0.645193 -0.786325,1.105468 -1.505859,1.105468 -0.719532,0 -1.304499,-0.460275 -1.503906,-1.105468 z m 36.949218,2.324218 -1.863281,1.865235 0.492188,0.464843 1.371093,-1.371093 1.853516,1.935547 0.455078,-0.482422 z m -13.490234,2.326172 -2.326172,4.308594 0.419922,0.18164 1.90625,-3.53125 2.109375,1.082032 0.421875,-0.742188 z m 16.396484,0.769531 -1.623047,1.572266 0.498047,0.476563 1.125,-1.089844 2.222657,2.15039 0.46289,-0.509765 z m 6.378907,2.220703 c -2.825063,-2e-6 -5.148434,2.323378 -5.148438,5.148438 0,0.162074 0.0085,0.322041 0.02344,0.480469 0.244729,-2.603983 2.461354,-4.669925 5.125,-4.669922 2.663644,-3e-6 4.878312,2.065944 5.123046,4.669922 0.01495,-0.158431 0.02539,-0.318392 0.02539,-0.480469 -4e-6,-2.82506 -2.323372,-5.14844 -5.148437,-5.148438 z m -25.716797,2.394532 c -1.886822,0 -3.4375,1.550675 -3.4375,3.4375 -10e-7,0.164356 0.02608,0.322 0.04883,0.480468 0.237539,-1.66158 1.665544,-2.958984 3.388672,-2.958984 1.723126,0 3.153085,1.297406 3.390625,2.958984 0.02275,-0.158468 0.04883,-0.316112 0.04883,-0.480468 0,-1.886822 -1.552632,-3.4375 -3.439453,-3.4375 z" /><path
       id="path42964"
       style="color:#000000;font-style:normal;font-variant:normal;font-weight:normal;font-stretch:normal;font-size:medium;line-height:125%;font-family:Cantarell;-inkscape-font-specification:Cantarell;font-variant-ligatures:normal;font-variant-position:normal;font-variant-caps:normal;font-variant-numeric:normal;font-variant-alternates:normal;font-feature-settings:normal;text-indent:0;text-align:start;text-decoration:none;text-decoration-line:none;text-decoration-style:solid;text-decoration-color:#000000;letter-spacing:0px;word-spacing:0px;text-transform:none;writing-mode:lr-tb;direction:ltr;text-orientation:mixed;dominant-baseline:auto;baseline-shift:baseline;text-anchor:start;white-space:normal;shape-padding:0;clip-rule:nonzero;display:inline;overflow:visible;visibility:visible;opacity:0.306818;isolation:auto;mix-blend-mode:normal;color-interpolation:sRGB;color-interpolation-filters:linearRGB;solid-color:#000000;solid-opacity:1;vector-effect:none;fill:#ffffff;fill-opacity:1;fill-rule:nonzero;stroke:none;stroke-width:3.47944;stroke-linecap:butt;stroke-linejoin:miter;stroke-miterlimit:4;stroke-dasharray:none;stroke-dashoffset:0;stroke-opacity:1;color-rendering:auto;image-rendering:auto;shape-rendering:auto;text-rendering:auto;enable-background:accumulate"
       d="m 65.458984,28.042969 c -1.215616,0 -2.167008,0.898096 -2.269531,2.082031 0.259257,-0.980891 1.128002,-1.685547 2.203125,-1.685547 1.286641,0 2.289063,1.002422 2.289063,2.289063 0,0.07036 -0.01365,0.136534 -0.01953,0.205078 0.05067,-0.192389 0.08594,-0.390773 0.08594,-0.601563 0,-1.28664 -1.002422,-2.289062 -2.289063,-2.289062 z M 59.5,29.488281 c -0.08539,0.401023 -0.132812,0.815299 -0.132812,1.240235 0,1.043307 0.273134,2.027237 0.748046,2.886718 l 0.167969,-0.230468 c -0.534936,-0.898423 -0.849609,-1.940229 -0.849609,-3.052735 0,-0.287102 0.02676,-0.566892 0.06641,-0.84375 z m 11.847656,2.09961 c -0.584717,2.710122 -3.014404,4.767578 -5.888672,4.767578 -0.357528,0 -0.707703,-0.0367 -1.048828,-0.09766 l -7.052734,9.740235 c 0.03614,0.05322 0.06651,0.110069 0.101562,0.164062 l 6.884766,-9.509765 c 0.341653,0.06115 0.690712,0.09961 1.048828,0.09961 3.012671,0 5.532033,-2.26093 5.955078,-5.164062 z m -40.246094,0.451171 c -0.06083,0.272448 -0.0957,0.554036 -0.0957,0.84375 0,2.149534 1.768439,3.917969 3.917969,3.917969 2.003615,0 3.672884,-1.53699 3.890625,-3.486328 -0.384542,1.75675 -1.958838,3.089844 -3.824219,3.089844 -2.149529,0 -3.917968,-1.768435 -3.917968,-3.917969 0,-0.15133 0.01226,-0.300205 0.0293,-0.447266 z m 6.00586,4.84375 -0.234375,0.189454 2.496094,3.078125 1.914062,-1.607422 -0.171875,-0.195313 -1.675781,1.40625 z m 2.916016,3.634766 -0.226563,0.179688 2.734375,3.693359 2.154297,-1.710937 -0.169922,-0.208985 -1.917969,1.523438 z m 9.636718,5.763672 c -2.50887,0 -4.53655,1.826382 -4.859375,4.238281 0.480839,-2.212661 2.423479,-3.841797 4.792969,-3.841797 2.737988,3e-6 4.91016,2.172166 4.910156,4.910157 0,0.225654 -0.02022,0.446992 -0.04883,0.664062 0.07335,-0.340971 0.115234,-0.695681 0.115234,-1.060547 4e-6,-2.73799 -2.172167,-4.910153 -4.910156,-4.910156 z m -9.162109,3.394531 c -0.05266,0.248587 -0.08894,0.502548 -0.121094,0.757813 l 0.02344,-0.002 c 0.02104,-0.25548 0.0561,-0.506456 0.09766,-0.75586 z m 18.257812,3.429688 c -0.890041,4.20082 -4.642084,7.384765 -9.095703,7.384765 -3.78207,0 -7.056475,-2.297653 -8.503906,-5.5625 l -15.251953,1.814454 c -0.663401,1.260566 -1.98774,2.128906 -3.5,2.128906 -2.168295,0 -3.951172,-1.782877 -3.951172,-3.951172 0,-0.149722 0.0108,-0.297774 0.02734,-0.44336 -0.05957,0.270996 -0.09375,0.551992 -0.09375,0.839844 0,2.168295 1.782877,3.951172 3.951172,3.951172 1.512259,0 2.836599,-0.86834 3.5,-2.128906 l 15.253906,-1.816406 c 1.447095,3.265638 4.719308,5.564453 8.501953,5.564453 4.591804,0 8.429875,-3.387096 9.162109,-7.78125 z m -36.351562,0.230469 c -0.865957,-10e-7 -1.541862,0.66158 -1.576172,1.517578 0.193947,-0.654589 0.783641,-1.121094 1.509766,-1.121094 0.888695,0 1.583984,0.695289 1.583984,1.583984 0,0.02154 -0.0051,0.0412 -0.0059,0.0625 0.04312,-0.146028 0.07227,-0.297083 0.07227,-0.458984 0,-0.888695 -0.695289,-1.583984 -1.583984,-1.583984 z m 33.751953,6.412109 -0.236328,0.236328 2.478516,2.341797 1.693359,-1.794922 -0.154297,-0.162109 -1.472656,1.560547 z m -9.455078,1.933594 -2.136719,3.769531 -2.410156,-1.041016 -0.185547,0.34375 2.529297,1.09375 2.326172,-4.103515 z m 12.603516,0.875 -0.238282,0.230468 2.804688,2.685547 1.503906,-1.658203 -0.15625,-0.150391 -1.283203,1.41211 z m 2.730468,4.957031 c -0.07447,0.346177 -0.115234,0.703194 -0.115234,1.070312 0,2.825064 2.323375,5.148438 5.148437,5.148438 2.59166,0 4.754917,-1.956736 5.095703,-4.460938 -0.503289,2.31168 -2.575682,4.064454 -5.029296,4.064454 -2.825063,0 -5.148438,-2.323375 -5.148438,-5.148438 0,-0.228842 0.01931,-0.452538 0.04883,-0.673828 z m -24.011718,0.941406 c -0.06479,0.26205 -0.109376,0.531552 -0.109376,0.8125 -2e-6,1.886822 1.550678,3.439453 3.4375,3.439453 1.745155,0 3.18729,-1.333112 3.396485,-3.02539 -0.369669,1.49897 -1.723512,2.628906 -3.330078,2.628906 -1.886822,0 -3.437503,-1.552631 -3.4375,-3.439453 0,-0.142333 0.02583,-0.278026 0.04297,-0.416016 z" /></g><g
     id="g55378"
     style="opacity:0.71590909"><path
       d="m 41.434255,72.310077 a 3.3573101,3.1581625 0 1 1 0,-6.316324 3.3573101,3.1581625 0 1 1 0,6.316324 z"
       id="path4454-6-3-4-8-3-8"
       style="color:#000000;display:inline;overflow:visible;visibility:visible;fill:url(#linearGradient53337);fill-opacity:1;fill-rule:nonzero;stroke:none;stroke-width:0.101756;marker:none;enable-background:accumulate" /><path
       d="m 34.94892,36.403552 a 3.8269624,3.8938007 0 1 1 0,-7.7876 3.8269624,3.8938007 0 1 1 0,7.7876 z"
       id="path4454-6-3-4-8-3-8-6"
       style="color:#000000;display:inline;overflow:visible;visibility:visible;fill:url(#linearGradient55243);fill-opacity:1;fill-rule:nonzero;stroke:none;stroke-width:0.120632;marker:none;enable-background:accumulate" /><path
       id="path4454-6-3-4-8-3-8-6-5"
       style="color:#000000;display:inline;overflow:visible;visibility:visible;fill:url(#linearGradient55288);fill-opacity:1;fill-rule:nonzero;stroke:none;stroke-width:0.122258;marker:none;enable-background:accumulate"
       d="M 22.382812 51.066406 A 3.9112488 3.9133322 0 1 0 22.382812 58.892578 A 3.9112488 3.9133322 0 1 0 22.382812 51.066406 z M 22.248047 53.34375 A 1.583267 1.6443632 0 0 1 23.755859 54.123047 A 1.583267 1.6443632 0 0 1 23.230469 56.382812 A 1.583267 1.6443632 0 0 1 21.052734 55.835938 A 1.583267 1.6443632 0 0 1 21.580078 53.576172 A 1.583267 1.6443632 0 0 1 22.248047 53.34375 z " /><path
       d="m 67.056681,73.335531 a 5.107382,4.867883 0 1 1 0,-9.735766 5.107382,4.867883 0 1 1 0,9.735766 z"
       id="path4454-6-3-4-8-3-8-5"
       style="color:#000000;display:inline;overflow:visible;visibility:visible;fill:url(#linearGradient55198);fill-opacity:1;fill-rule:nonzero;stroke:none;stroke-width:0.155817;marker:none;enable-background:accumulate" /><path
       id="path4454-6-3-4-8-3-8-0"
       style="color:#000000;display:inline;overflow:visible;visibility:visible;fill:url(#linearGradient55153);fill-opacity:1;fill-rule:nonzero;stroke:none;stroke-width:0.284604;marker:none;enable-background:accumulate"
       d="m 49.660156,42.209561 a 9.1986443,9.0175781 0 1 0 0,18.035156 9.1986443,9.0175781 0 1 0 0,-18.035156 z m 0.201172,3.898438 a 4.9107242,5.1237607 0 0 1 3.990235,2.449218 4.9107242,5.1237607 0 0 1 -1.632813,7.042969 4.9107242,5.1237607 0 0 1 -6.75,-1.703125 4.9107242,5.1237607 0 0 1 1.632813,-7.042969 4.9107242,5.1237607 0 0 1 2.759765,-0.746093 z" /><path
       id="path4454-6-3-4-8-3-8-6-5-8"
       style="color:#000000;display:inline;overflow:visible;visibility:visible;fill:url(#linearGradient55356);fill-opacity:1;fill-rule:nonzero;stroke:none;stroke-width:0.188689;marker:none;enable-background:accumulate"
       d="M 65.447266 24.367188 A 6.0365837 6.0401783 0.35390501 1 0 65.365234 36.447266 A 6.0365837 6.0401783 0.35390501 1 0 65.447266 24.367188 z M 65.226562 28.037109 A 2.3352556 2.2973959 0 0 1 67.451172 29.125 A 2.3352556 2.2973959 0 0 1 66.675781 32.283203 A 2.3352556 2.2973959 0 0 1 63.466797 31.519531 A 2.3352556 2.2973959 0 0 1 64.242188 28.361328 A 2.3352556 2.2973959 0 0 1 65.226562 28.037109 z " /></g><g
     id="g53287"
     style="display:inline"><path
       d="m 65.458984,31.612951 a 1.8883278,1.7849912 0 1 1 0,-3.569982 1.8883278,1.7849912 0 1 1 0,3.569982 z"
       id="path4454-6-3-4-8-7"
       style="color:#000000;display:inline;overflow:visible;visibility:visible;fill:url(#linearGradient18682-1);fill-opacity:1;fill-rule:nonzero;stroke:none;stroke-width:0.0573728;marker:none;enable-background:accumulate" /><path
       d="m 49.660156,54.388048 a 4.3842991,4.053399 0 1 1 0,-8.106798 4.3842991,4.053399 0 1 1 0,8.106798 z"
       id="path4454-6-3-4-8"
       style="color:#000000;display:inline;overflow:visible;visibility:visible;fill:url(#linearGradient18682);fill-opacity:1;fill-rule:nonzero;stroke:none;stroke-width:0.131737;marker:none;enable-background:accumulate" /><path
       d="m 22.404847,55.900124 a 1.378798,1.2823945 0 1 1 0,-2.564789 1.378798,1.2823945 0 1 1 0,2.564789 z"
       id="path4454-6-3-4-8-3"
       style="color:#000000;display:inline;overflow:visible;visibility:visible;fill:url(#linearGradient18682-6);fill-opacity:1;fill-rule:nonzero;stroke:none;stroke-width:0.0415537;marker:none;enable-background:accumulate" /></g></svg>
