<?xml version="1.0" encoding="UTF-8" standalone="no"?>
<!-- Created with Inkscape (http://www.inkscape.org/) -->

<svg
   xmlns:dc="http://purl.org/dc/elements/1.1/"
   xmlns:cc="http://creativecommons.org/ns#"
   xmlns:rdf="http://www.w3.org/1999/02/22-rdf-syntax-ns#"
   xmlns:svg="http://www.w3.org/2000/svg"
   xmlns="http://www.w3.org/2000/svg"
   xmlns:xlink="http://www.w3.org/1999/xlink"
   xmlns:sodipodi="http://sodipodi.sourceforge.net/DTD/sodipodi-0.dtd"
   xmlns:inkscape="http://www.inkscape.org/namespaces/inkscape"
   version="1.0"
   width="96"
   height="96"
   id="svg2408"
   sodipodi:docname="web-reddit.svg"
   inkscape:version="0.92.5 (2060ec1f9f, 2020-04-08)">
  <sodipodi:namedview
     pagecolor="#ffffff"
     bordercolor="#666666"
     borderopacity="1"
     objecttolerance="10"
     gridtolerance="10"
     guidetolerance="10"
     inkscape:pageopacity="0"
     inkscape:pageshadow="2"
     inkscape:window-width="1693"
     inkscape:window-height="823"
     id="namedview68"
     showgrid="false"
     inkscape:zoom="2.4583333"
     inkscape:cx="48"
     inkscape:cy="48"
     inkscape:window-x="136"
     inkscape:window-y="368"
     inkscape:window-maximized="0"
     inkscape:current-layer="svg2408" />
  <defs
     id="defs2410">
    <linearGradient
       id="linearGradient3744">
      <stop
         id="stop3746"
         style="stop-color:#6189bb;stop-opacity:1"
         offset="0" />
      <stop
         id="stop3748"
         style="stop-color:#b6cce9;stop-opacity:1"
         offset="1" />
    </linearGradient>
    <linearGradient
       x1="45.447727"
       y1="92.539597"
       x2="45.447727"
       y2="7.0165396"
       id="ButtonShadow"
       gradientUnits="userSpaceOnUse"
       gradientTransform="scale(1.0058652,0.994169)">
      <stop
         id="stop3750"
         style="stop-color:#000000;stop-opacity:1"
         offset="0" />
      <stop
         id="stop3752"
         style="stop-color:#000000;stop-opacity:0.58823532"
         offset="1" />
    </linearGradient>
    <linearGradient
       id="linearGradient3737">
      <stop
         id="stop3739"
         style="stop-color:#ffffff;stop-opacity:1"
         offset="0" />
      <stop
         id="stop3741"
         style="stop-color:#ffffff;stop-opacity:0"
         offset="1" />
    </linearGradient>
    <filter
       color-interpolation-filters="sRGB"
       id="filter3174">
      <feGaussianBlur
         id="feGaussianBlur3176"
         stdDeviation="1.71" />
    </filter>
    <linearGradient
       x1="36.357143"
       y1="6"
       x2="36.357143"
       y2="63.893143"
       id="linearGradient3188"
       xlink:href="#linearGradient3737"
       gradientUnits="userSpaceOnUse" />
    <filter
       x="-0.192"
       y="-0.192"
       width="1.3839999"
       height="1.3839999"
       color-interpolation-filters="sRGB"
       id="filter3794">
      <feGaussianBlur
         id="feGaussianBlur3796"
         stdDeviation="5.28" />
    </filter>
    <linearGradient
       x1="48"
       y1="20.220806"
       x2="48"
       y2="138.66119"
       id="linearGradient3613"
       xlink:href="#linearGradient3737"
       gradientUnits="userSpaceOnUse" />
    <radialGradient
       cx="48"
       cy="90.171875"
       r="42"
       fx="48"
       fy="90.171875"
       id="radialGradient3619"
       xlink:href="#linearGradient3737"
       gradientUnits="userSpaceOnUse"
       gradientTransform="matrix(1.1573129,0,0,0.99590774,-7.5510206,0.19713193)" />
    <clipPath
       id="clipPath3613">
      <rect
         width="84"
         height="84"
         rx="6"
         ry="6"
         x="6"
         y="6"
         id="rect3615"
         style="fill:#ffffff;fill-opacity:1;fill-rule:nonzero;stroke:none" />
    </clipPath>
    <linearGradient
       x1="48"
       y1="90"
       x2="48"
       y2="5.9877172"
       id="linearGradient3617"
       xlink:href="#linearGradient3744"
       gradientUnits="userSpaceOnUse" />
    <linearGradient
       x1="45.447727"
       y1="92.539597"
       x2="45.447727"
       y2="7.0165396"
       id="ButtonShadow-0"
       gradientUnits="userSpaceOnUse"
       gradientTransform="matrix(1.0058652,0,0,0.994169,100,0)">
      <stop
         id="stop3750-8"
         style="stop-color:#000000;stop-opacity:1"
         offset="0" />
      <stop
         id="stop3752-5"
         style="stop-color:#000000;stop-opacity:0.58823532"
         offset="1" />
    </linearGradient>
    <linearGradient
       x1="32.251034"
       y1="6.1317081"
       x2="32.251034"
       y2="90.238609"
       id="linearGradient3780"
       xlink:href="#ButtonShadow-0"
       gradientUnits="userSpaceOnUse"
       gradientTransform="matrix(1.0238095,0,0,1.0119048,-1.1428571,-98.071429)" />
    <linearGradient
       x1="32.251034"
       y1="6.1317081"
       x2="32.251034"
       y2="90.238609"
       id="linearGradient3772"
       xlink:href="#ButtonShadow-0"
       gradientUnits="userSpaceOnUse"
       gradientTransform="matrix(1.0238095,0,0,1.0119048,-1.1428571,-98.071429)" />
    <linearGradient
       x1="32.251034"
       y1="6.1317081"
       x2="32.251034"
       y2="90.238609"
       id="linearGradient3725"
       xlink:href="#ButtonShadow-0"
       gradientUnits="userSpaceOnUse"
       gradientTransform="matrix(1.0238095,0,0,1.0119048,-1.1428571,-98.071429)" />
    <linearGradient
       x1="32.251034"
       y1="6.1317081"
       x2="32.251034"
       y2="90.238609"
       id="linearGradient3721"
       xlink:href="#ButtonShadow-0"
       gradientUnits="userSpaceOnUse"
       gradientTransform="translate(0,-97)" />
    <linearGradient
       x1="32.251034"
       y1="6.1317081"
       x2="32.251034"
       y2="90.238609"
       id="linearGradient3026"
       xlink:href="#ButtonShadow-0"
       gradientUnits="userSpaceOnUse"
       gradientTransform="matrix(1.0238095,0,0,1.0119048,-1.1428571,-98.071429)" />
    <clipPath
       id="clipPath3939">
      <path
         d="m 71.96875,20 c -4.31369,1.765545 -18.15511,7.512771 -18.5,7.65625 -3.87007,-3.150175 -8.91154,-5.598136 -14.125,-5.875 -12.646312,-0.79267 -24.276266,10.394649 -24.3125,22.8125 -0.555181,11.179767 4.562738,21.528517 9.1875,31.40625 3.869087,-1.608909 17.95778,-7.445809 18.3125,-7.59375 3.79832,3.163745 8.648,5.478371 13.71875,5.84375 12.44374,1.040719 24.02407,-9.655493 24.65625,-21.78125 0.90325,-11.34272 -4.34426,-21.857746 -8.75,-32 C 72.09205,20.31052 72.03275,20.158246 71.96875,20 z m -34.25,7.3125 c 9.1497,-0.0011 17.20052,7.683466 17.625,14.0625 0.35572,5.345489 -1.411472,12.956485 -10.15625,13.96875 0.323717,0.862924 0.769457,1.770109 1.40625,2.65625 L 41.5,58 c -0.414177,-0.963437 -0.667923,-1.931712 -0.78125,-2.875 -4.223212,-1.121554 -7.97654,-5.098816 -8,-10.625 -0.03,-7.05132 8.82761,-7.732626 11.0625,-5.9375 0.86811,0.6973 0.83057,2.061607 0.0625,1.8125 -4.771791,-1.54858 -7.718924,1.526099 -7.5,4.5625 0.228202,3.163498 1.729509,5.344922 4.40625,6.28125 C 40.879081,50.143407 41.104866,49.054163 41.46875,48 l 4.3125,0 c -0.716657,1.252471 -1.077422,2.609534 -1.1875,3.6875 5.441954,-0.419155 6.996019,-5.969325 6.84375,-8.3125 -0.197,-3.033212 -2.84006,-9.297777 -11.09375,-10.4375 -3.897197,-0.537566 -7.109473,0.626374 -9.46875,2.90625 -2.359231,2.280077 -3.712465,4.663674 -3.90625,8.53125 -0.200416,4.000368 0.693285,6.345255 3.09375,11.59375 0.857436,1.874456 3.238989,5.650541 5.09375,9.4375 L 27.125,68.75 C 24.395973,62.165489 20.767922,56.378596 20.6875,45.625 20.60442,34.514732 30.161498,27.313359 37.71875,27.3125 z"
         inkscape:connector-curvature="0"
         id="path3941"
         style="opacity:0.47186148;fill:#00ffff;fill-opacity:1;fill-rule:evenodd;stroke:none" />
    </clipPath>
    <linearGradient
       id="linearGradient7985">
      <stop
         id="stop7991"
         style="stop-color:#42699a;stop-opacity:1"
         offset="0" />
      <stop
         id="stop7989"
         style="stop-color:#99b8e1;stop-opacity:1"
         offset="1" />
    </linearGradient>
    <linearGradient
       x1="2128.5525"
       y1="15026.778"
       x2="2128.5525"
       y2="14844.775"
       id="linearGradient2983"
       xlink:href="#linearGradient7985"
       gradientUnits="userSpaceOnUse"
       gradientTransform="matrix(-0.25635421,0,0,0.25321235,593.66341,-3728.0457)" />
  </defs>
  <metadata
     id="metadata2413">
    <rdf:RDF>
      <cc:Work
         rdf:about="">
        <dc:format>image/svg+xml</dc:format>
        <dc:type
           rdf:resource="http://purl.org/dc/dcmitype/StillImage" />
        <dc:title></dc:title>
      </cc:Work>
    </rdf:RDF>
  </metadata>
  <g
     id="layer2"
     style="display:none">
    <rect
       width="86"
       height="85"
       rx="6"
       ry="6"
       x="5"
       y="7"
       id="rect3745"
       style="opacity:0.9;fill:url(#ButtonShadow);fill-opacity:1;fill-rule:nonzero;stroke:none;filter:url(#filter3174)" />
  </g>
  <g
     id="layer3">
    <path
       d="m 12,-95.03125 c -5.5110903,0 -10.03125,4.52016 -10.03125,10.03125 l 0,71 c 0,5.5110902 4.5201598,10.03125 10.03125,10.03125 l 72,0 c 5.51109,0 10.03125,-4.5201597 10.03125,-10.03125 l 0,-71 c 0,-5.51109 -4.52016,-10.03125 -10.03125,-10.03125 l -72,0 z"
       transform="scale(1,-1)"
       id="path3786"
       style="opacity:0.07999998;fill:url(#linearGradient3026);fill-opacity:1;fill-rule:nonzero;stroke:none;display:inline" />
    <path
       d="m 12,-94.03125 c -4.971633,0 -9.03125,4.059617 -9.03125,9.03125 l 0,71 c 0,4.9716329 4.0596171,9.03125 9.03125,9.03125 l 72,0 c 4.971633,0 9.03125,-4.059617 9.03125,-9.03125 l 0,-71 c 0,-4.971633 -4.059617,-9.03125 -9.03125,-9.03125 l -72,0 z"
       transform="scale(1,-1)"
       id="path3778"
       style="opacity:0.1;fill:url(#linearGradient3780);fill-opacity:1;fill-rule:nonzero;stroke:none;display:inline" />
    <path
       d="m 12,-93 c -4.4091333,0 -8,3.590867 -8,8 l 0,71 c 0,4.4091333 3.5908667,8 8,8 l 72,0 c 4.409133,0 8,-3.5908667 8,-8 l 0,-71 c 0,-4.409133 -3.590867,-8 -8,-8 l -72,0 z"
       transform="scale(1,-1)"
       id="path3770"
       style="opacity:0.2;fill:url(#linearGradient3772);fill-opacity:1;fill-rule:nonzero;stroke:none;display:inline" />
    <rect
       width="86"
       height="85"
       rx="7"
       ry="7"
       x="5"
       y="-92"
       transform="scale(1,-1)"
       id="rect3723"
       style="opacity:0.3;fill:url(#linearGradient3725);fill-opacity:1;fill-rule:nonzero;stroke:none;display:inline" />
    <rect
       width="84"
       height="84"
       rx="6"
       ry="6"
       x="6"
       y="-91"
       transform="scale(1,-1)"
       id="rect3716"
       style="opacity:0.45;fill:url(#linearGradient3721);fill-opacity:1;fill-rule:nonzero;stroke:none;display:inline" />
  </g>
  <g
     id="layer1">
    <rect
       width="84"
       height="84"
       rx="6"
       ry="6"
       x="6"
       y="6"
       id="rect2419"
       style="fill:url(#linearGradient3617);fill-opacity:1;fill-rule:nonzero;stroke:none" />
    <path
       d="M 12,6 C 8.676,6 6,8.676 6,12 l 0,2 0,68 0,2 c 0,0.334721 0.04135,0.6507 0.09375,0.96875 0.0487,0.295596 0.09704,0.596915 0.1875,0.875 0.00988,0.03038 0.020892,0.0636 0.03125,0.09375 0.098865,0.287771 0.2348802,0.547452 0.375,0.8125 0.1445918,0.273507 0.3156161,0.535615 0.5,0.78125 0.1843839,0.245635 0.3737765,0.473472 0.59375,0.6875 0.439947,0.428056 0.94291,0.814526 1.5,1.09375 0.278545,0.139612 0.5734731,0.246947 0.875,0.34375 -0.2562018,-0.100222 -0.4867109,-0.236272 -0.71875,-0.375 -0.00741,-0.0044 -0.023866,0.0045 -0.03125,0 -0.031933,-0.0193 -0.062293,-0.04251 -0.09375,-0.0625 -0.120395,-0.0767 -0.2310226,-0.163513 -0.34375,-0.25 -0.1061728,-0.0808 -0.2132809,-0.161112 -0.3125,-0.25 C 8.4783201,88.557317 8.3087904,88.373362 8.15625,88.1875 8.0486711,88.057245 7.9378561,87.922215 7.84375,87.78125 7.818661,87.74287 7.805304,87.69538 7.78125,87.65625 7.716487,87.553218 7.6510225,87.451733 7.59375,87.34375 7.4927417,87.149044 7.3880752,86.928049 7.3125,86.71875 7.30454,86.69694 7.288911,86.6782 7.28125,86.65625 7.2494249,86.5643 7.2454455,86.469419 7.21875,86.375 7.1884177,86.268382 7.1483606,86.171969 7.125,86.0625 7.0521214,85.720988 7,85.364295 7,85 L 7,83 7,15 7,13 C 7,10.218152 9.2181517,8 12,8 l 2,0 68,0 2,0 c 2.781848,0 5,2.218152 5,5 l 0,2 0,68 0,2 c 0,0.364295 -0.05212,0.720988 -0.125,1.0625 -0.04415,0.206893 -0.08838,0.397658 -0.15625,0.59375 -0.0077,0.02195 -0.0233,0.04069 -0.03125,0.0625 -0.06274,0.173739 -0.138383,0.367449 -0.21875,0.53125 -0.04158,0.0828 -0.07904,0.169954 -0.125,0.25 -0.0546,0.09721 -0.126774,0.18835 -0.1875,0.28125 -0.09411,0.140965 -0.204921,0.275995 -0.3125,0.40625 -0.143174,0.17445 -0.303141,0.346998 -0.46875,0.5 -0.01117,0.0102 -0.01998,0.02115 -0.03125,0.03125 -0.138386,0.125556 -0.285091,0.234436 -0.4375,0.34375 -0.102571,0.07315 -0.204318,0.153364 -0.3125,0.21875 -0.0074,0.0045 -0.02384,-0.0044 -0.03125,0 -0.232039,0.138728 -0.462548,0.274778 -0.71875,0.375 0.301527,-0.0968 0.596455,-0.204138 0.875,-0.34375 0.55709,-0.279224 1.060053,-0.665694 1.5,-1.09375 0.219973,-0.214028 0.409366,-0.441865 0.59375,-0.6875 0.184384,-0.245635 0.355408,-0.507743 0.5,-0.78125 0.14012,-0.265048 0.276135,-0.524729 0.375,-0.8125 0.01041,-0.03078 0.02133,-0.06274 0.03125,-0.09375 0.09046,-0.278085 0.1388,-0.579404 0.1875,-0.875 C 89.95865,84.6507 90,84.334721 90,84 l 0,-2 0,-68 0,-2 C 90,8.676 87.324,6 84,6 L 12,6 z"
       inkscape:connector-curvature="0"
       id="rect3728"
       style="opacity:0.4;fill:url(#linearGradient3188);fill-opacity:1;fill-rule:nonzero;stroke:none" />
    <path
       d="M 12,90 C 8.676,90 6,87.324 6,84 L 6,82 6,14 6,12 c 0,-0.334721 0.04135,-0.6507 0.09375,-0.96875 0.0487,-0.295596 0.09704,-0.596915 0.1875,-0.875 C 6.29113,10.12587 6.302142,10.09265 6.3125,10.0625 6.411365,9.774729 6.5473802,9.515048 6.6875,9.25 6.8320918,8.976493 7.0031161,8.714385 7.1875,8.46875 7.3718839,8.223115 7.5612765,7.995278 7.78125,7.78125 8.221197,7.353194 8.72416,6.966724 9.28125,6.6875 9.559795,6.547888 9.8547231,6.440553 10.15625,6.34375 9.9000482,6.443972 9.6695391,6.580022 9.4375,6.71875 c -0.00741,0.0044 -0.023866,-0.0045 -0.03125,0 -0.031933,0.0193 -0.062293,0.04251 -0.09375,0.0625 -0.120395,0.0767 -0.2310226,0.163513 -0.34375,0.25 -0.1061728,0.0808 -0.2132809,0.161112 -0.3125,0.25 C 8.4783201,7.442683 8.3087904,7.626638 8.15625,7.8125 8.0486711,7.942755 7.9378561,8.077785 7.84375,8.21875 7.818661,8.25713 7.805304,8.30462 7.78125,8.34375 7.716487,8.446782 7.6510225,8.548267 7.59375,8.65625 7.4927417,8.850956 7.3880752,9.071951 7.3125,9.28125 7.30454,9.30306 7.288911,9.3218 7.28125,9.34375 7.2494249,9.4357 7.2454455,9.530581 7.21875,9.625 7.1884177,9.731618 7.1483606,9.828031 7.125,9.9375 7.0521214,10.279012 7,10.635705 7,11 l 0,2 0,68 0,2 c 0,2.781848 2.2181517,5 5,5 l 2,0 68,0 2,0 c 2.781848,0 5,-2.218152 5,-5 l 0,-2 0,-68 0,-2 C 89,10.635705 88.94788,10.279012 88.875,9.9375 88.83085,9.730607 88.78662,9.539842 88.71875,9.34375 88.71105,9.3218 88.69545,9.30306 88.6875,9.28125 88.62476,9.107511 88.549117,8.913801 88.46875,8.75 88.42717,8.6672 88.38971,8.580046 88.34375,8.5 88.28915,8.40279 88.216976,8.31165 88.15625,8.21875 88.06214,8.077785 87.951329,7.942755 87.84375,7.8125 87.700576,7.63805 87.540609,7.465502 87.375,7.3125 87.36383,7.3023 87.35502,7.29135 87.34375,7.28125 87.205364,7.155694 87.058659,7.046814 86.90625,6.9375 86.803679,6.86435 86.701932,6.784136 86.59375,6.71875 c -0.0074,-0.0045 -0.02384,0.0044 -0.03125,0 -0.232039,-0.138728 -0.462548,-0.274778 -0.71875,-0.375 0.301527,0.0968 0.596455,0.204138 0.875,0.34375 0.55709,0.279224 1.060053,0.665694 1.5,1.09375 0.219973,0.214028 0.409366,0.441865 0.59375,0.6875 0.184384,0.245635 0.355408,0.507743 0.5,0.78125 0.14012,0.265048 0.276135,0.524729 0.375,0.8125 0.01041,0.03078 0.02133,0.06274 0.03125,0.09375 0.09046,0.278085 0.1388,0.579404 0.1875,0.875 C 89.95865,11.3493 90,11.665279 90,12 l 0,2 0,68 0,2 c 0,3.324 -2.676,6 -6,6 l -72,0 z"
       inkscape:connector-curvature="0"
       id="path3615"
       style="opacity:0.2;fill:url(#radialGradient3619);fill-opacity:1;fill-rule:nonzero;stroke:none" />
  </g>
  <g
     id="layer5">
    <rect
       width="66"
       height="66"
       rx="12"
       ry="12"
       x="15"
       y="15"
       clip-path="url(#clipPath3613)"
       id="rect3171"
       style="opacity:0.1;fill:url(#linearGradient3613);fill-opacity:1;fill-rule:nonzero;stroke:#ffffff;stroke-width:0.5;stroke-linecap:round;stroke-linejoin:miter;stroke-miterlimit:4;stroke-opacity:1;stroke-dasharray:none;stroke-dashoffset:0;filter:url(#filter3794)" />
  </g>
  <g
     style="display:inline;enable-background:new"
     id="Layer_2"
     transform="matrix(1.657555,0,0,1.657555,-52.671604,14.891996)">
    <ellipse
       cx="65.245003"
       cy="28.417999"
       rx="4.4109998"
       ry="5.3239999"
       id="ellipse21778"
       style="fill:#ffffff;stroke:#000000;stroke-width:1.10000002" />
    <g
       id="g21780">
      <g
         id="g21782">
        <path
           d="m 58.303,39.285 c 0.063,-0.197 0.108,-0.4 0.108,-0.615 0,-1.359 -1.361,-2.463 -3.04,-2.463 -1.679,0 -3.039,1.104 -3.039,2.463 0,0.215 0.044,0.418 0.108,0.615 z"
           id="path21784"
           inkscape:connector-curvature="0"
           style="fill:#ffffff" />
      </g>
      <g
         id="g21786">
        <path
           d="m 58.303,39.285 c 0.063,-0.197 0.108,-0.4 0.108,-0.615 0,-1.359 -1.361,-2.463 -3.04,-2.463 -1.679,0 -3.039,1.104 -3.039,2.463 0,0.215 0.044,0.418 0.108,0.615 z"
           id="path21788"
           inkscape:connector-curvature="0"
           style="fill:none;stroke:#000000;stroke-width:1.10000002;stroke-linecap:round;stroke-linejoin:round" />
      </g>
    </g>
    <g
       id="g21790">
      <g
         id="g21792">
        <path
           d="m 68.949,39.285 c 0.062,-0.197 0.107,-0.4 0.107,-0.615 0,-1.359 -1.361,-2.463 -3.041,-2.463 -1.679,0 -3.039,1.104 -3.039,2.463 0,0.215 0.043,0.418 0.107,0.615 z"
           id="path21794"
           inkscape:connector-curvature="0"
           style="fill:#ffffff" />
      </g>
      <g
         id="g21796">
        <path
           d="m 68.949,39.285 c 0.062,-0.197 0.107,-0.4 0.107,-0.615 0,-1.359 -1.361,-2.463 -3.041,-2.463 -1.679,0 -3.039,1.104 -3.039,2.463 0,0.215 0.043,0.418 0.107,0.615 z"
           id="path21798"
           inkscape:connector-curvature="0"
           style="fill:none;stroke:#000000;stroke-width:1.10000002;stroke-linecap:round;stroke-linejoin:round" />
      </g>
    </g>
    <circle
       cx="49.683998"
       cy="11.836"
       r="2.7019999"
       id="circle21800"
       style="fill:#ffffff;stroke:#000000;stroke-width:1.10000002" />
    <circle
       cx="71.786003"
       cy="11.836"
       r="2.7019999"
       id="circle21802"
       style="fill:#ffffff;stroke:#000000;stroke-width:1.10000002" />
    <path
       d="m 68.226,2.352 c 0,0 0,0 -5.404,-1.272 l -1.986,6.278"
       id="path21804"
       inkscape:connector-curvature="0"
       style="fill:none;stroke:#000000;stroke-width:1.10000002;stroke-linecap:round;stroke-linejoin:round" />
    <ellipse
       cx="56.146"
       cy="28.417999"
       rx="4.4109998"
       ry="5.3239999"
       id="ellipse21806"
       style="fill:#ffffff;stroke:#000000;stroke-width:1.10000002" />
    <circle
       cx="70.431"
       cy="2.789"
       r="2.1300001"
       id="circle21808"
       style="fill:#ffffff;stroke:#000000;stroke-width:1.10000002" />
    <g
       id="g21810">
      <g
         id="g21812">
        <path
           d="m 59.181,39.289 h 2.99 c 2.655,-1.383 4.624,-6.34 4.624,-12.262 0,-6.99 -2.74,-12.655 -6.119,-12.655 -3.38,0 -6.119,5.666 -6.119,12.655 0,5.922 1.968,10.879 4.624,12.262 z"
           id="path21814"
           inkscape:connector-curvature="0"
           style="fill:#ffffff" />
      </g>
      <g
         id="g21816">
        <path
           d="m 59.181,39.289 h 2.99 c 2.655,-1.383 4.624,-6.34 4.624,-12.262 0,-6.99 -2.74,-12.655 -6.119,-12.655 -3.38,0 -6.119,5.666 -6.119,12.655 0,5.922 1.968,10.879 4.624,12.262 z"
           id="path21818"
           inkscape:connector-curvature="0"
           style="fill:none;stroke:#000000;stroke-width:1.10000002" />
      </g>
    </g>
    <ellipse
       cx="60.675999"
       cy="15.552"
       rx="12.238"
       ry="7.987"
       id="ellipse21820"
       style="fill:#ffffff;stroke:#000000;stroke-width:1.10000002" />
    <line
       x1="57.457001"
       y1="39.285"
       x2="64.053001"
       y2="39.285"
       id="line21822"
       style="fill:none;stroke:#000000;stroke-width:1.10000002;stroke-linecap:round;stroke-linejoin:round" />
    <g
       id="g21824">
      <path
         style="fill:#ff4500;stroke:none"
         d="m 135.90625,159.65625 c -13.67995,0 -25.15625,11.4763 -25.15625,25.15625 0,13.67995 11.4763,24.78125 25.15625,24.78125 13.67995,0 24.78125,-11.1013 24.78125,-24.78125 0,-13.67995 -11.1013,-25.15625 -24.78125,-25.15625 z"
         transform="matrix(0.07946,0,0,0.07946,45.637601,-0.68559946)"
         id="circle21826"
         inkscape:connector-curvature="0" />
      <path
         style="fill:#ff4500;stroke:none"
         d="m 244.46875,159.65625 c -13.68691,0 -25.1875,11.46934 -25.1875,25.15625 0,13.68691 11.50059,24.78125 25.1875,24.78125 13.68692,0 24.78125,-11.09434 24.78125,-24.78125 0,-13.68691 -11.09433,-25.15625 -24.78125,-25.15625 z"
         transform="matrix(0.07946,0,0,0.07946,45.637601,-0.68559946)"
         id="circle21828"
         inkscape:connector-curvature="0" />
      <path
         d="m 56.507,19.229 c 1.066,1.066 2.786,1.271 4.212,1.271"
         id="path21830"
         inkscape:connector-curvature="0"
         style="fill:none;stroke:#000000;stroke-width:1.10000002;stroke-linecap:round" />
      <path
         d="M 64.963,19.229 C 63.896,20.295 62.177,20.5 60.75,20.5"
         id="path21832"
         inkscape:connector-curvature="0"
         style="fill:none;stroke:#000000;stroke-width:1.10000002;stroke-linecap:round" />
    </g>
  </g>
</svg>
