<?xml version="1.0" encoding="UTF-8" standalone="no"?>
<!-- Created with Inkscape (http://www.inkscape.org/) -->

<svg
   version="1.0"
   width="96"
   height="96"
   id="svg2408"
   sodipodi:docname="xemu.svg"
   xml:space="preserve"
   inkscape:version="1.4.1 (93de688d07, 2025-03-30)"
   xmlns:inkscape="http://www.inkscape.org/namespaces/inkscape"
   xmlns:sodipodi="http://sodipodi.sourceforge.net/DTD/sodipodi-0.dtd"
   xmlns:xlink="http://www.w3.org/1999/xlink"
   xmlns="http://www.w3.org/2000/svg"
   xmlns:svg="http://www.w3.org/2000/svg"
   xmlns:rdf="http://www.w3.org/1999/02/22-rdf-syntax-ns#"
   xmlns:cc="http://creativecommons.org/ns#"
   xmlns:dc="http://purl.org/dc/elements/1.1/"><sodipodi:namedview
     id="namedview1"
     pagecolor="#ffffff"
     bordercolor="#000000"
     borderopacity="0.25"
     inkscape:showpageshadow="2"
     inkscape:pageopacity="0.0"
     inkscape:pagecheckerboard="0"
     inkscape:deskcolor="#d1d1d1"
     inkscape:zoom="4"
     inkscape:cx="36.875"
     inkscape:cy="30.125"
     inkscape:window-width="2544"
     inkscape:window-height="1374"
     inkscape:window-x="16"
     inkscape:window-y="1440"
     inkscape:window-maximized="0"
     inkscape:current-layer="svg2408" /><defs
     id="defs2410"><rect
       x="27.231161"
       y="23.329383"
       width="50.397969"
       height="18.939882"
       id="rect3" /><rect
       x="19.102456"
       y="24.792549"
       width="40.480949"
       height="27.881457"
       id="rect2" /><rect
       x="-111.20068"
       y="36.741744"
       width="77.385267"
       height="20.159187"
       id="rect1" /><linearGradient
       id="linearGradient15"><stop
         id="stop14"
         style="stop-color:#0e3712;stop-opacity:1;"
         offset="0" /><stop
         id="stop15"
         style="stop-color:#2e8733;stop-opacity:1;"
         offset="1" /></linearGradient><linearGradient
       x1="45.447727"
       y1="92.539597"
       x2="45.447727"
       y2="7.0165396"
       id="ButtonShadow"
       gradientUnits="userSpaceOnUse"
       gradientTransform="scale(1.0058652,0.994169)"><stop
         id="stop3750"
         style="stop-color:#000000;stop-opacity:1"
         offset="0" /><stop
         id="stop3752"
         style="stop-color:#000000;stop-opacity:0.58823532"
         offset="1" /></linearGradient><linearGradient
       id="linearGradient3737"><stop
         id="stop3739"
         style="stop-color:#ffffff;stop-opacity:1"
         offset="0" /><stop
         id="stop3741"
         style="stop-color:#ffffff;stop-opacity:0"
         offset="1" /></linearGradient><filter
       color-interpolation-filters="sRGB"
       id="filter3174"
       x="-0.047720931"
       y="-0.048282354"
       width="1.0954419"
       height="1.0965647"><feGaussianBlur
         id="feGaussianBlur3176"
         stdDeviation="1.71" /></filter><linearGradient
       x1="36.357143"
       y1="6"
       x2="36.357143"
       y2="63.893143"
       id="linearGradient3188"
       xlink:href="#linearGradient3737"
       gradientUnits="userSpaceOnUse" /><filter
       x="-0.19578789"
       y="-0.19578789"
       width="1.3915758"
       height="1.3915758"
       color-interpolation-filters="sRGB"
       id="filter3794"><feGaussianBlur
         id="feGaussianBlur3796"
         stdDeviation="5.28" /></filter><linearGradient
       x1="48"
       y1="20.220806"
       x2="48"
       y2="138.66119"
       id="linearGradient3613"
       xlink:href="#linearGradient3737"
       gradientUnits="userSpaceOnUse" /><radialGradient
       cx="48"
       cy="90.171875"
       r="42"
       fx="48"
       fy="90.171875"
       id="radialGradient3619"
       xlink:href="#linearGradient3737"
       gradientUnits="userSpaceOnUse"
       gradientTransform="matrix(1.1573129,0,0,0.99590774,-7.5510206,0.19713193)" /><clipPath
       id="clipPath3613"><rect
         width="84"
         height="84"
         rx="6"
         ry="6"
         x="6"
         y="6"
         id="rect3615"
         style="fill:#ffffff;fill-opacity:1;fill-rule:nonzero;stroke:none" /></clipPath><linearGradient
       x1="45.447727"
       y1="92.539597"
       x2="45.447727"
       y2="7.0165396"
       id="ButtonShadow-0"
       gradientUnits="userSpaceOnUse"
       gradientTransform="matrix(1.0058652,0,0,0.994169,100,0)"><stop
         id="stop3750-8"
         style="stop-color:#000000;stop-opacity:1"
         offset="0" /><stop
         id="stop3752-5"
         style="stop-color:#000000;stop-opacity:0.58823532"
         offset="1" /></linearGradient><linearGradient
       x1="32.251034"
       y1="6.1317081"
       x2="32.251034"
       y2="90.238609"
       id="linearGradient3780"
       xlink:href="#ButtonShadow-0"
       gradientUnits="userSpaceOnUse"
       gradientTransform="matrix(1.0238095,0,0,1.0119048,-1.1428571,-98.071429)" /><linearGradient
       x1="32.251034"
       y1="6.1317081"
       x2="32.251034"
       y2="90.238609"
       id="linearGradient3772"
       xlink:href="#ButtonShadow-0"
       gradientUnits="userSpaceOnUse"
       gradientTransform="matrix(1.0238095,0,0,1.0119048,-1.1428571,-98.071429)" /><linearGradient
       x1="32.251034"
       y1="6.1317081"
       x2="32.251034"
       y2="90.238609"
       id="linearGradient3725"
       xlink:href="#ButtonShadow-0"
       gradientUnits="userSpaceOnUse"
       gradientTransform="matrix(1.0238095,0,0,1.0119048,-1.1428571,-98.071429)" /><linearGradient
       x1="32.251034"
       y1="6.1317081"
       x2="32.251034"
       y2="90.238609"
       id="linearGradient3721"
       xlink:href="#ButtonShadow-0"
       gradientUnits="userSpaceOnUse"
       gradientTransform="translate(0,-97)" /><linearGradient
       x1="32.251034"
       y1="6.1317081"
       x2="32.251034"
       y2="90.238609"
       id="linearGradient3026"
       xlink:href="#ButtonShadow-0"
       gradientUnits="userSpaceOnUse"
       gradientTransform="matrix(1.0238095,0,0,1.0119048,-1.1428571,-98.071429)" /><linearGradient
       x1="6"
       y1="48"
       x2="90"
       y2="48"
       id="linearGradient3849"
       xlink:href="#linearGradient15"
       gradientUnits="userSpaceOnUse"
       gradientTransform="translate(-96,0)" /><linearGradient
       id="linearGradient3843-5"><stop
         id="stop3845-0"
         style="stop-color:#65216c;stop-opacity:1"
         offset="0" /><stop
         id="stop3847-4"
         style="stop-color:#982ea4;stop-opacity:1"
         offset="1" /></linearGradient><clipPath
       clipPathUnits="userSpaceOnUse"
       id="clipPath22"><rect
         width="84"
         height="84"
         rx="6"
         ry="6"
         x="-90"
         y="6.0000038"
         transform="rotate(-90)"
         id="rect22"
         style="display:inline;opacity:1;fill:url(#linearGradient22);fill-opacity:1;fill-rule:nonzero;stroke:none" /></clipPath><linearGradient
       inkscape:collect="always"
       xlink:href="#linearGradient3843-5"
       id="linearGradient22"
       gradientUnits="userSpaceOnUse"
       gradientTransform="translate(-96.000003)"
       x1="6"
       y1="48"
       x2="90"
       y2="48" /><clipPath
       clipPathUnits="userSpaceOnUse"
       id="clipPath23"><rect
         width="84"
         height="84"
         rx="6"
         ry="6"
         x="-90"
         y="6.0000038"
         transform="rotate(-90)"
         id="rect23"
         style="display:inline;opacity:1;fill:url(#linearGradient23);fill-opacity:1;fill-rule:nonzero;stroke:none" /></clipPath><linearGradient
       inkscape:collect="always"
       xlink:href="#linearGradient3843-5"
       id="linearGradient23"
       gradientUnits="userSpaceOnUse"
       gradientTransform="translate(-96.000003)"
       x1="6"
       y1="48"
       x2="90"
       y2="48" /><clipPath
       clipPathUnits="userSpaceOnUse"
       id="clipPath24"><rect
         width="84"
         height="84"
         rx="6"
         ry="6"
         x="-90"
         y="6.0000038"
         transform="rotate(-90)"
         id="rect24"
         style="display:inline;opacity:1;fill:url(#linearGradient24);fill-opacity:1;fill-rule:nonzero;stroke:none" /></clipPath><linearGradient
       inkscape:collect="always"
       xlink:href="#linearGradient3843-5"
       id="linearGradient24"
       gradientUnits="userSpaceOnUse"
       gradientTransform="translate(-96.000003)"
       x1="6"
       y1="48"
       x2="90"
       y2="48" /><filter
       inkscape:collect="always"
       style="color-interpolation-filters:sRGB"
       id="filter7"
       x="-0.0089142729"
       y="-0.033432415"
       width="1.0178285"
       height="1.0668648"><feGaussianBlur
         inkscape:collect="always"
         stdDeviation="0.27283549"
         id="feGaussianBlur7" /></filter><filter
       inkscape:collect="always"
       style="color-interpolation-filters:sRGB"
       id="filter8"
       x="-0.030304927"
       y="-0.030304927"
       width="1.0606099"
       height="1.0606099"><feGaussianBlur
         inkscape:collect="always"
         stdDeviation="0.76039841"
         id="feGaussianBlur8" /></filter><linearGradient
       x1="373.12482"
       y1="91.875"
       x2="363.62491"
       y2="258.54688"
       id="linearGradient4006"
       xlink:href="#linearGradient3737"
       gradientUnits="userSpaceOnUse"
       gradientTransform="matrix(0.43977693,0,0,0.2681874,-111.91515,-17.63628)" /><linearGradient
       y2="20.913509"
       x2="19.249098"
       y1="-1.4776937"
       x1="19.249098"
       gradientTransform="matrix(2.333332,0,0,2.1359591,-3.333335,-2.4849959)"
       gradientUnits="userSpaceOnUse"
       id="linearGradient3053"
       xlink:href="#linearGradient3737"
       inkscape:collect="always" /></defs><metadata
     id="metadata2413"><rdf:RDF><cc:Work
         rdf:about=""><dc:format>image/svg+xml</dc:format><dc:type
           rdf:resource="http://purl.org/dc/dcmitype/StillImage" /></cc:Work></rdf:RDF></metadata><g
     id="layer3"
     style="display:inline"><path
       d="m 12,-95.03125 c -5.5110903,0 -10.03125,4.52016 -10.03125,10.03125 v 71 c 0,5.5110902 4.5201598,10.03125 10.03125,10.03125 h 72 c 5.51109,0 10.03125,-4.5201597 10.03125,-10.03125 v -71 c 0,-5.51109 -4.52016,-10.03125 -10.03125,-10.03125 z"
       transform="scale(1,-1)"
       id="path3786"
       style="display:inline;opacity:0.08;fill:url(#linearGradient3026);fill-opacity:1;fill-rule:nonzero;stroke:none" /><path
       d="m 12,-94.03125 c -4.971633,0 -9.03125,4.059617 -9.03125,9.03125 v 71 c 0,4.9716329 4.0596171,9.03125 9.03125,9.03125 h 72 c 4.971633,0 9.03125,-4.059617 9.03125,-9.03125 v -71 c 0,-4.971633 -4.059617,-9.03125 -9.03125,-9.03125 z"
       transform="scale(1,-1)"
       id="path3778"
       style="display:inline;opacity:0.1;fill:url(#linearGradient3780);fill-opacity:1;fill-rule:nonzero;stroke:none" /><path
       d="m 12,-93 c -4.4091333,0 -8,3.590867 -8,8 v 71 c 0,4.4091333 3.5908667,8 8,8 h 72 c 4.409133,0 8,-3.5908667 8,-8 v -71 c 0,-4.409133 -3.590867,-8 -8,-8 z"
       transform="scale(1,-1)"
       id="path3770"
       style="display:inline;opacity:0.2;fill:url(#linearGradient3772);fill-opacity:1;fill-rule:nonzero;stroke:none" /><rect
       width="86"
       height="85"
       rx="7"
       ry="7"
       x="5"
       y="-92"
       transform="scale(1,-1)"
       id="rect3723"
       style="display:inline;opacity:0.3;fill:url(#linearGradient3725);fill-opacity:1;fill-rule:nonzero;stroke:none" /><rect
       width="84"
       height="84"
       rx="6"
       ry="6"
       x="6"
       y="-91"
       transform="scale(1,-1)"
       id="rect3716"
       style="display:inline;opacity:0.45;fill:url(#linearGradient3721);fill-opacity:1;fill-rule:nonzero;stroke:none" /></g><g
     id="layer1"
     style="display:inline"><rect
       width="84"
       height="84"
       rx="6"
       ry="6"
       x="-90"
       y="6"
       transform="rotate(-90)"
       id="rect2419"
       style="display:inline;fill:url(#linearGradient3849);fill-opacity:1;fill-rule:nonzero;stroke:none" /><path
       d="M 12,6 C 8.676,6 6,8.676 6,12 v 2 68 2 c 0,0.334721 0.04135,0.6507 0.09375,0.96875 0.0487,0.295596 0.09704,0.596915 0.1875,0.875 0.00988,0.03038 0.020892,0.0636 0.03125,0.09375 0.098865,0.287771 0.2348802,0.547452 0.375,0.8125 0.1445918,0.273507 0.3156161,0.535615 0.5,0.78125 0.1843839,0.245635 0.3737765,0.473472 0.59375,0.6875 0.439947,0.428056 0.94291,0.814526 1.5,1.09375 0.278545,0.139612 0.5734731,0.246947 0.875,0.34375 -0.2562018,-0.100222 -0.4867109,-0.236272 -0.71875,-0.375 -0.00741,-0.0044 -0.023866,0.0045 -0.03125,0 -0.031933,-0.0193 -0.062293,-0.04251 -0.09375,-0.0625 -0.120395,-0.0767 -0.2310226,-0.163513 -0.34375,-0.25 -0.1061728,-0.0808 -0.2132809,-0.161112 -0.3125,-0.25 C 8.4783201,88.557317 8.3087904,88.373362 8.15625,88.1875 8.0486711,88.057245 7.9378561,87.922215 7.84375,87.78125 7.818661,87.74287 7.805304,87.69538 7.78125,87.65625 7.716487,87.553218 7.6510225,87.451733 7.59375,87.34375 7.4927417,87.149044 7.3880752,86.928049 7.3125,86.71875 7.30454,86.69694 7.288911,86.6782 7.28125,86.65625 7.2494249,86.5643 7.2454455,86.469419 7.21875,86.375 7.1884177,86.268382 7.1483606,86.171969 7.125,86.0625 7.0521214,85.720988 7,85.364295 7,85 V 83 15 13 C 7,10.218152 9.2181517,8 12,8 h 2 68 2 c 2.781848,0 5,2.218152 5,5 v 2 68 2 c 0,0.364295 -0.05212,0.720988 -0.125,1.0625 -0.04415,0.206893 -0.08838,0.397658 -0.15625,0.59375 -0.0077,0.02195 -0.0233,0.04069 -0.03125,0.0625 -0.06274,0.173739 -0.138383,0.367449 -0.21875,0.53125 -0.04158,0.0828 -0.07904,0.169954 -0.125,0.25 -0.0546,0.09721 -0.126774,0.18835 -0.1875,0.28125 -0.09411,0.140965 -0.204921,0.275995 -0.3125,0.40625 -0.143174,0.17445 -0.303141,0.346998 -0.46875,0.5 -0.01117,0.0102 -0.01998,0.02115 -0.03125,0.03125 -0.138386,0.125556 -0.285091,0.234436 -0.4375,0.34375 -0.102571,0.07315 -0.204318,0.153364 -0.3125,0.21875 -0.0074,0.0045 -0.02384,-0.0044 -0.03125,0 -0.232039,0.138728 -0.462548,0.274778 -0.71875,0.375 0.301527,-0.0968 0.596455,-0.204138 0.875,-0.34375 0.55709,-0.279224 1.060053,-0.665694 1.5,-1.09375 0.219973,-0.214028 0.409366,-0.441865 0.59375,-0.6875 0.184384,-0.245635 0.355408,-0.507743 0.5,-0.78125 0.14012,-0.265048 0.276135,-0.524729 0.375,-0.8125 0.01041,-0.03078 0.02133,-0.06274 0.03125,-0.09375 0.09046,-0.278085 0.1388,-0.579404 0.1875,-0.875 C 89.95865,84.6507 90,84.334721 90,84 V 82 14 12 C 90,8.676 87.324,6 84,6 Z"
       inkscape:connector-curvature="0"
       id="rect3728"
       style="display:inline;opacity:0.25;fill:url(#linearGradient3188);fill-opacity:1;fill-rule:nonzero;stroke:none" /><path
       d="M 12,90 C 8.676,90 6,87.324 6,84 V 82 14 12 c 0,-0.334721 0.04135,-0.6507 0.09375,-0.96875 0.0487,-0.295596 0.09704,-0.596915 0.1875,-0.875 C 6.29113,10.12587 6.302142,10.09265 6.3125,10.0625 6.411365,9.774729 6.5473802,9.515048 6.6875,9.25 6.8320918,8.976493 7.0031161,8.714385 7.1875,8.46875 7.3718839,8.223115 7.5612765,7.995278 7.78125,7.78125 8.221197,7.353194 8.72416,6.966724 9.28125,6.6875 9.559795,6.547888 9.8547231,6.440553 10.15625,6.34375 9.9000482,6.443972 9.6695391,6.580022 9.4375,6.71875 c -0.00741,0.0044 -0.023866,-0.0045 -0.03125,0 -0.031933,0.0193 -0.062293,0.04251 -0.09375,0.0625 -0.120395,0.0767 -0.2310226,0.163513 -0.34375,0.25 -0.1061728,0.0808 -0.2132809,0.161112 -0.3125,0.25 C 8.4783201,7.442683 8.3087904,7.626638 8.15625,7.8125 8.0486711,7.942755 7.9378561,8.077785 7.84375,8.21875 7.818661,8.25713 7.805304,8.30462 7.78125,8.34375 7.716487,8.446782 7.6510225,8.548267 7.59375,8.65625 7.4927417,8.850956 7.3880752,9.071951 7.3125,9.28125 7.30454,9.30306 7.288911,9.3218 7.28125,9.34375 7.2494249,9.4357 7.2454455,9.530581 7.21875,9.625 7.1884177,9.731618 7.1483606,9.828031 7.125,9.9375 7.0521214,10.279012 7,10.635705 7,11 v 2 68 2 c 0,2.781848 2.2181517,5 5,5 h 2 68 2 c 2.781848,0 5,-2.218152 5,-5 V 81 13 11 C 89,10.635705 88.94788,10.279012 88.875,9.9375 88.83085,9.730607 88.78662,9.539842 88.71875,9.34375 88.71105,9.3218 88.69545,9.30306 88.6875,9.28125 88.62476,9.107511 88.549117,8.913801 88.46875,8.75 88.42717,8.6672 88.38971,8.580046 88.34375,8.5 88.28915,8.40279 88.216976,8.31165 88.15625,8.21875 88.06214,8.077785 87.951329,7.942755 87.84375,7.8125 87.700576,7.63805 87.540609,7.465502 87.375,7.3125 87.36383,7.3023 87.35502,7.29135 87.34375,7.28125 87.205364,7.155694 87.058659,7.046814 86.90625,6.9375 86.803679,6.86435 86.701932,6.784136 86.59375,6.71875 c -0.0074,-0.0045 -0.02384,0.0044 -0.03125,0 -0.232039,-0.138728 -0.462548,-0.274778 -0.71875,-0.375 0.301527,0.0968 0.596455,0.204138 0.875,0.34375 0.55709,0.279224 1.060053,0.665694 1.5,1.09375 0.219973,0.214028 0.409366,0.441865 0.59375,0.6875 0.184384,0.245635 0.355408,0.507743 0.5,0.78125 0.14012,0.265048 0.276135,0.524729 0.375,0.8125 0.01041,0.03078 0.02133,0.06274 0.03125,0.09375 0.09046,0.278085 0.1388,0.579404 0.1875,0.875 C 89.95865,11.3493 90,11.665279 90,12 v 2 68 2 c 0,3.324 -2.676,6 -6,6 z"
       inkscape:connector-curvature="0"
       id="path3615"
       style="display:inline;opacity:0.1;fill:url(#radialGradient3619);fill-opacity:1;fill-rule:nonzero;stroke:none" /></g><g
     id="layer5"
     style="display:inline"><rect
       width="66"
       height="66"
       rx="12"
       ry="12"
       x="15"
       y="15"
       clip-path="url(#clipPath3613)"
       id="rect3171"
       style="display:inline;opacity:0.1;fill:url(#linearGradient3613);fill-opacity:1;fill-rule:nonzero;stroke:#ffffff;stroke-width:0.5;stroke-linecap:round;stroke-linejoin:miter;stroke-miterlimit:4;stroke-dasharray:none;stroke-dashoffset:0;stroke-opacity:1;filter:url(#filter3794)" /></g><path
     id="rect2419-9-9"
     style="display:inline;fill:none;fill-opacity:1;fill-rule:nonzero;stroke:#1b3c1d;stroke-opacity:1;filter:url(#filter8)"
     sodipodi:type="inkscape:offset"
     inkscape:radius="-3.6397257"
     inkscape:original="M -84 6 C -87.324 6 -90 8.676 -90 12 L -90 84 C -90 87.324 -87.324 90 -84 90 L -12 90 C -8.676 90 -6 87.324 -6 84 L -6 12 C -6 8.676 -8.676 6 -12 6 L -84 6 z "
     d="m -84,9.640625 c -1.370549,0 -2.359375,0.988826 -2.359375,2.359375 v 72 c 0,1.370549 0.988826,2.359375 2.359375,2.359375 h 72 c 1.370549,0 2.359375,-0.988826 2.359375,-2.359375 V 12 c 0,-1.370549 -0.988826,-2.359375 -2.359375,-2.359375 z"
     transform="rotate(-90)" /><path
     id="rect2419-9"
     style="display:inline;fill:none;fill-opacity:1;fill-rule:nonzero;stroke:#82c686;stroke-opacity:1"
     sodipodi:type="inkscape:offset"
     inkscape:radius="-3.6397257"
     inkscape:original="M -84 6 C -87.324 6 -90 8.676 -90 12 L -90 84 C -90 87.324 -87.324 90 -84 90 L -12 90 C -8.676 90 -6 87.324 -6 84 L -6 12 C -6 8.676 -8.676 6 -12 6 L -84 6 z "
     d="m -84,9.640625 c -1.370549,0 -2.359375,0.988826 -2.359375,2.359375 v 72 c 0,1.370549 0.988826,2.359375 2.359375,2.359375 h 72 c 1.370549,0 2.359375,-0.988826 2.359375,-2.359375 V 12 c 0,-1.370549 -0.988826,-2.359375 -2.359375,-2.359375 z"
     transform="rotate(-90)" /><g
     aria-label="xemu"
     style="font-style:normal;font-weight:normal;font-size:63.4021px;line-height:1.25;font-family:sans-serif;letter-spacing:0px;word-spacing:0px;display:inline;fill:#035020;fill-opacity:1;stroke:none;stroke-width:0.599075;stroke-miterlimit:4;stroke-dasharray:none;stroke-opacity:1;filter:url(#filter7)"
     id="g7"
     transform="matrix(0.97421536,0,0,0.97421536,1.7262654,24.647836)"><path
       id="path4"
       style="font-style:normal;font-variant:normal;font-weight:normal;font-stretch:normal;font-size:38.0413px;font-family:'ubuntu mono';-inkscape-font-specification:'ubuntu mono';fill:#035020;fill-opacity:1;stroke:none;stroke-width:0.599075;stroke-miterlimit:4;stroke-dasharray:none;stroke-opacity:1"
       sodipodi:type="inkscape:offset"
       inkscape:radius="0.63021487"
       inkscape:original="M 10.996094 16.03125 L 17.349609 24.400391 C 16.183011 25.845959 14.990758 27.380812 13.773438 29.003906 C 12.581478 30.601639 11.567377 32.161943 10.730469 33.683594 L 13.962891 33.683594 C 14.241859 33.201738 14.58446 32.655535 14.990234 32.046875 C 15.396008 31.438215 15.826708 30.817615 16.283203 30.183594 C 16.765059 29.524212 17.260361 28.876209 17.767578 28.242188 C 18.274795 27.608167 18.756395 26.999315 19.212891 26.416016 C 19.669386 26.973954 20.125537 27.571057 20.582031 28.205078 C 21.063887 28.839099 21.520037 29.485149 21.951172 30.144531 C 22.382306 30.778552 22.775807 31.401105 23.130859 32.009766 C 23.511272 32.618426 23.828423 33.176377 24.082031 33.683594 L 27.582031 33.683594 C 26.770485 32.111222 25.781834 30.511766 24.615234 28.888672 C 23.473997 27.265578 22.332644 25.707227 21.191406 24.210938 L 27.011719 16.03125 L 23.664062 16.03125 L 19.289062 22.193359 L 14.533203 16.03125 L 10.996094 16.03125 z "
       d="m 10.996094,15.400391 a 0.63027789,0.63027789 0 0 0 -0.501953,1.011718 l 6.060546,7.984375 c -1.076109,1.342414 -2.167476,2.738275 -3.285156,4.228516 a 0.63027789,0.63027789 0 0 0 -0.002,0.002 c -1.207106,1.618036 -2.237006,3.201338 -3.089844,4.751953 a 0.63027789,0.63027789 0 0 0 0.552735,0.935547 h 3.232422 A 0.63027789,0.63027789 0 0 0 14.507813,34 c 0.270336,-0.466947 0.605793,-1.003418 1.005859,-1.603516 0.400791,-0.601185 0.827526,-1.214283 1.279297,-1.841797 l 0.002,-0.002 c 0.476012,-0.651319 0.964026,-1.289994 1.464844,-1.916015 0.331806,-0.414758 0.635161,-0.802059 0.945312,-1.195313 0.288331,0.369995 0.575811,0.730834 0.865234,1.132813 a 0.63027789,0.63027789 0 0 0 0.0098,0.01172 c 0.472999,0.622367 0.920855,1.257517 1.34375,1.904297 a 0.63027789,0.63027789 0 0 0 0.0059,0.0078 c 0.423533,0.622842 0.809073,1.234917 1.15625,1.830078 a 0.63027789,0.63027789 0 0 0 0.0098,0.01563 c 0.372108,0.595372 0.679581,1.136504 0.921875,1.621094 a 0.63027789,0.63027789 0 0 0 0.564453,0.349609 h 3.5 a 0.63027789,0.63027789 0 0 0 0.560547,-0.919922 c -0.826556,-1.601453 -1.830527,-3.22532 -3.011719,-4.86914 l -0.0039,-0.0039 C 24.074137,27.024258 23.022034,25.595233 21.96875,24.205078 l 5.556641,-7.808594 a 0.63027789,0.63027789 0 0 0 -0.513672,-0.996093 h -3.347657 a 0.63027789,0.63027789 0 0 0 -0.513671,0.265625 l -3.882813,5.46875 -4.236328,-5.488282 a 0.63027789,0.63027789 0 0 0 -0.498047,-0.246093 z" /><path
       id="path5"
       style="font-style:normal;font-variant:normal;font-weight:normal;font-stretch:normal;font-size:38.0413px;font-family:'ubuntu mono';-inkscape-font-specification:'ubuntu mono';fill:#035020;fill-opacity:1;stroke:none;stroke-width:0.599075;stroke-miterlimit:4;stroke-dasharray:none;stroke-opacity:1"
       sodipodi:type="inkscape:offset"
       inkscape:radius="0.54907167"
       inkscape:original="M 38.5 15.613281 C 37.460205 15.613281 36.446104 15.803181 35.457031 16.183594 C 34.467959 16.564006 33.579155 17.135659 32.792969 17.896484 C 32.006782 18.65731 31.374434 19.620511 30.892578 20.787109 C 30.410722 21.953708 30.169922 23.322159 30.169922 24.894531 C 30.169922 26.213295 30.359822 27.4447 30.740234 28.585938 C 31.120647 29.701814 31.690347 30.665015 32.451172 31.476562 C 33.211997 32.288109 34.163449 32.93416 35.304688 33.416016 C 36.471286 33.872511 37.814287 34.101562 39.335938 34.101562 C 40.578619 34.101562 41.694521 33.988013 42.683594 33.759766 C 43.672666 33.531518 44.357869 33.314215 44.738281 33.111328 L 44.320312 30.449219 C 43.914539 30.652105 43.319389 30.842005 42.533203 31.019531 C 41.747017 31.197057 40.795565 31.285156 39.679688 31.285156 C 37.726903 31.285156 36.20575 30.817258 35.115234 29.878906 C 34.050079 28.915194 33.452977 27.51934 33.326172 25.693359 L 45.957031 25.693359 L 45.957031 24.591797 C 45.957031 21.573857 45.309028 19.328351 44.015625 17.857422 C 42.722222 16.361132 40.883919 15.613281 38.5 15.613281 z M 38.462891 18.275391 C 39.756293 18.275391 40.795845 18.719792 41.582031 19.607422 C 42.368218 20.469691 42.759766 21.648242 42.759766 23.144531 L 33.402344 23.144531 C 33.478426 22.535871 33.642876 21.940721 33.896484 21.357422 C 34.150093 20.774123 34.492694 20.25337 34.923828 19.796875 C 35.354963 19.34038 35.862013 18.974282 36.445312 18.695312 C 37.053973 18.416343 37.727426 18.275391 38.462891 18.275391 z "
       d="m 38.5,15.064453 c -1.106647,0 -2.190937,0.203846 -3.240234,0.607422 -1.058223,0.407008 -2.011629,1.021019 -2.847657,1.830078 -0.846874,0.819555 -1.521491,1.851477 -2.027343,3.076172 -0.515055,1.246974 -0.763672,2.687976 -0.763672,4.316406 0,1.371475 0.197109,2.663592 0.597656,3.865235 a 0.54912658,0.54912658 0 0 0 0.002,0.0039 c 0.403298,1.183006 1.01453,2.217972 1.830078,3.08789 0.817598,0.872105 1.838504,1.562586 3.041016,2.070313 a 0.54912658,0.54912658 0 0 0 0.01367,0.0059 c 1.241723,0.485892 2.653717,0.722657 4.230468,0.722657 1.276129,0 2.432339,-0.115847 3.470704,-0.355469 1.009333,-0.232924 1.711119,-0.444107 2.189453,-0.699219 a 0.54912658,0.54912658 0 0 0 0.285156,-0.570312 l -0.417969,-2.66211 a 0.54912658,0.54912658 0 0 0 -0.789062,-0.404297 c -0.33627,0.168135 -0.899912,0.353282 -1.66211,0.525391 -0.731415,0.165158 -1.645444,0.251953 -2.732422,0.251953 -1.861019,0 -3.231994,-0.440486 -4.199218,-1.269531 -0.818302,-0.742709 -1.276393,-1.837894 -1.476563,-3.22461 h 11.953125 a 0.54912658,0.54912658 0 0 0 0.548828,-0.548828 v -1.101562 c 0,-3.093971 -0.660307,-5.483062 -2.074218,-7.09375 l -0.0039,-0.0039 C 43.02533,15.874432 40.996569,15.064453 38.5,15.064453 Z m -0.03711,3.759766 c 1.167631,0 2.021772,0.370599 2.708984,1.146484 a 0.54912658,0.54912658 0 0 0 0.0039,0.0059 c 0.577631,0.633531 0.867146,1.523289 0.957031,2.619141 h -8.015625 c 0.08128,-0.340898 0.137556,-0.684542 0.283204,-1.019531 0.229159,-0.527064 0.534165,-0.991828 0.921875,-1.402344 0.382949,-0.405474 0.83133,-0.727126 1.355468,-0.978516 0.532014,-0.243233 1.121237,-0.371093 1.785157,-0.371093 z" /><path
       id="path6"
       style="font-style:normal;font-variant:normal;font-weight:normal;font-stretch:normal;font-size:38.0413px;font-family:'ubuntu mono';-inkscape-font-specification:'ubuntu mono';fill:#035020;fill-opacity:1;stroke:none;stroke-width:0.599075;stroke-miterlimit:4;stroke-dasharray:none;stroke-opacity:1"
       sodipodi:type="inkscape:offset"
       inkscape:radius="0.57827771"
       inkscape:original="M 53.525391 15.650391 C 52.181266 15.650391 50.750166 15.942091 49.228516 16.525391 L 49.228516 33.683594 L 52.080078 33.683594 L 52.080078 18.580078 C 52.714099 18.35183 53.285751 18.238281 53.792969 18.238281 C 54.604515 18.238281 55.148765 18.49083 55.427734 18.998047 C 55.706704 19.505264 55.847656 20.204168 55.847656 21.091797 L 55.847656 26.873047 L 58.699219 26.873047 L 58.699219 21.128906 C 58.699219 20.418803 58.622868 19.772752 58.470703 19.189453 C 58.749672 18.859762 59.055075 18.618962 59.384766 18.466797 C 59.714457 18.314632 60.031607 18.238281 60.335938 18.238281 C 60.944597 18.238281 61.451649 18.479081 61.857422 18.960938 C 62.263196 19.442794 62.466797 20.139744 62.466797 21.052734 L 62.466797 33.683594 L 65.318359 33.683594 L 65.318359 21.128906 C 65.318359 20.215916 65.193061 19.417165 64.939453 18.732422 C 64.685844 18.047679 64.343243 17.477979 63.912109 17.021484 C 63.506335 16.564989 63.024735 16.222388 62.466797 15.994141 C 61.934219 15.765893 61.362566 15.650391 60.753906 15.650391 C 59.511225 15.650391 58.344422 16.094793 57.253906 16.982422 C 56.797411 16.525927 56.23946 16.197027 55.580078 15.994141 C 54.946057 15.765893 54.260855 15.650391 53.525391 15.650391 z "
       d="m 53.525391,15.072266 c -1.42779,0 -2.92927,0.310451 -4.503907,0.914062 a 0.57833553,0.57833553 0 0 0 -0.371093,0.539063 v 17.158203 a 0.57833553,0.57833553 0 0 0 0.578125,0.578125 h 2.851562 a 0.57833553,0.57833553 0 0 0 0.578125,-0.578125 V 19.046875 c 0.409069,-0.115516 0.820044,-0.230469 1.134766,-0.230469 0.691574,0 0.963929,0.16098 1.128906,0.460938 0.210508,0.38274 0.347656,0.988043 0.347656,1.814453 v 5.78125 a 0.57833553,0.57833553 0 0 0 0.578125,0.578125 h 2.851563 a 0.57833553,0.57833553 0 0 0 0.578125,-0.578125 v -5.744141 c 0,-0.61149 -0.09155,-1.160534 -0.201172,-1.697265 0.181944,-0.180893 0.364085,-0.353286 0.550781,-0.439454 0.2684,-0.123876 0.501373,-0.175781 0.708984,-0.175781 0.456139,0 0.766052,0.144671 1.080079,0.517578 0.290197,0.344609 0.472656,0.891733 0.472656,1.71875 v 12.63086 a 0.57833553,0.57833553 0 0 0 0.578125,0.578125 h 2.851562 a 0.57833553,0.57833553 0 0 0 0.578125,-0.578125 V 21.128906 c 0,-0.965898 -0.13113,-1.833737 -0.414062,-2.597656 -0.275366,-0.743485 -0.657687,-1.381347 -1.146485,-1.900391 -0.459014,-0.514188 -1.013533,-0.910272 -1.646484,-1.169921 -0.603789,-0.257848 -1.255839,-0.388672 -1.935547,-0.388672 -1.249072,0 -2.426633,0.467303 -3.511719,1.253906 -0.448211,-0.35767 -0.910894,-0.70123 -1.484375,-0.878906 -0.695856,-0.248271 -1.442575,-0.375 -2.232421,-0.375 z" /><path
       id="path7"
       style="font-style:normal;font-variant:normal;font-weight:normal;font-stretch:normal;font-size:38.0413px;font-family:'ubuntu mono';-inkscape-font-specification:'ubuntu mono';fill:#035020;fill-opacity:1;stroke:none;stroke-width:0.599075;stroke-miterlimit:4;stroke-dasharray:none;stroke-opacity:1"
       sodipodi:type="inkscape:offset"
       inkscape:radius="0.5461027"
       inkscape:original="M 69.275391 16.03125 L 69.275391 25.960938 C 69.275391 27.152897 69.388939 28.243349 69.617188 29.232422 C 69.845435 30.221495 70.238936 31.082895 70.796875 31.818359 C 71.354814 32.528463 72.077214 33.086414 72.964844 33.492188 C 73.852473 33.8726 74.968375 34.0625 76.3125 34.0625 C 77.834151 34.0625 79.153654 33.962652 80.269531 33.759766 C 81.410769 33.556879 82.32307 33.365026 83.007812 33.1875 L 83.007812 16.03125 L 79.851562 16.03125 L 79.851562 30.943359 C 79.77548 30.968722 79.622779 31.007874 79.394531 31.058594 C 79.166283 31.083956 78.900033 31.121155 78.595703 31.171875 C 78.291373 31.197235 77.960521 31.222687 77.605469 31.248047 C 77.275778 31.273407 76.946879 31.285156 76.617188 31.285156 C 75.095538 31.285156 74.005085 30.829006 73.345703 29.916016 C 72.711682 29.003026 72.394531 27.456423 72.394531 25.275391 L 72.394531 16.03125 L 69.275391 16.03125 z "
       d="m 69.275391,15.484375 a 0.54615731,0.54615731 0 0 0 -0.546875,0.546875 v 9.929687 c 0,1.226641 0.11832,2.358433 0.357421,3.394532 0.243549,1.05538 0.668084,1.992428 1.275391,2.792968 a 0.54615731,0.54615731 0 0 0 0.0059,0.0078 c 0.613562,0.780897 1.413205,1.394139 2.371094,1.832031 a 0.54615731,0.54615731 0 0 0 0.01172,0.0059 c 0.979465,0.41977 2.166939,0.615234 3.5625,0.615234 1.5448,0 2.89371,-0.101907 4.052734,-0.3125 1.150271,-0.204493 2.073013,-0.396967 2.779297,-0.580078 A 0.54615731,0.54615731 0 0 0 83.554687,33.1875 V 16.03125 a 0.54615731,0.54615731 0 0 0 -0.546875,-0.546875 h -3.15625 a 0.54615731,0.54615731 0 0 0 -0.546875,0.546875 v 14.486328 c -0.0081,0.0019 -0.0073,0.002 -0.01563,0.0039 -0.217577,0.02495 -0.463143,0.06032 -0.738281,0.105469 -0.0024,1.99e-4 -0.0054,-1.98e-4 -0.0078,0 -0.299863,0.02495 -0.62615,0.05114 -0.976563,0.07617 a 0.54615731,0.54615731 0 0 0 -0.002,0 c -0.31486,0.02422 -0.630549,0.03516 -0.947266,0.03516 -1.410326,0 -2.281421,-0.391589 -2.824218,-1.140625 -0.515873,-0.747265 -0.851563,-2.19901 -0.851563,-4.322265 V 16.03125 a 0.54615731,0.54615731 0 0 0 -0.546875,-0.546875 z" /></g><g
     aria-label="xemu"
     style="font-style:normal;font-weight:normal;font-size:63.4021px;line-height:1.25;font-family:sans-serif;letter-spacing:0px;word-spacing:0px;display:inline;fill:#86d88d;fill-opacity:1;stroke:none;stroke-width:0.599075;stroke-miterlimit:4;stroke-dasharray:none;stroke-opacity:1"
     id="text879-9-3"
     transform="matrix(0.97421536,0,0,0.97421536,1.4611004,22.79168)"><path
       d="m 24.08244,33.68272 q -0.380413,-0.760825 -0.951032,-1.673815 -0.532578,-0.912991 -1.179279,-1.864022 -0.646702,-0.989073 -1.369486,-1.940105 -0.684742,-0.951031 -1.369485,-1.787939 -0.684743,0.874949 -1.445568,1.82598 -0.760825,0.951032 -1.483609,1.940105 -0.684743,0.951032 -1.293403,1.864022 -0.608661,0.91299 -1.027114,1.635774 h -3.233508 q 1.255362,-2.282476 3.043301,-4.679075 1.825981,-2.434641 3.575879,-4.602993 l -6.352891,-8.369078 h 3.537838 l 4.755157,6.162685 4.374746,-6.162685 h 3.347631 l -5.820313,8.178872 q 1.711857,2.244434 3.423713,4.679075 1.749899,2.434641 2.967219,4.793199 z"
       style="font-style:normal;font-variant:normal;font-weight:normal;font-stretch:normal;font-size:38.0413px;font-family:'ubuntu mono';-inkscape-font-specification:'ubuntu mono';fill:#86d88d;fill-opacity:1;stroke:none;stroke-width:0.599075;stroke-miterlimit:4;stroke-dasharray:none;stroke-opacity:1"
       id="path1469" /><path
       d="m 38.500006,15.61312 q 3.575879,0 5.515983,2.244435 1.940105,2.206393 1.940105,6.733303 v 1.103197 h -12.6297 q 0.190207,2.738971 1.78794,4.184539 1.635774,1.407527 4.564951,1.407527 1.673816,0 2.853095,-0.266289 1.179279,-0.266289 1.787939,-0.570619 l 0.418454,2.662888 q -0.570619,0.30433 -2.054228,0.646702 -1.483609,0.342371 -3.347631,0.342371 -2.282476,0 -4.032374,-0.684743 -1.711857,-0.722784 -2.853095,-1.940104 -1.141238,-1.217321 -1.711857,-2.891136 -0.570619,-1.711857 -0.570619,-3.690003 0,-2.358558 0.722784,-4.108456 0.722784,-1.749898 1.902064,-2.891136 1.179279,-1.141238 2.662888,-1.711857 1.483609,-0.570619 3.043301,-0.570619 z m 4.260622,7.53217 q 0,-2.244434 -1.17928,-3.537837 -1.179279,-1.331445 -3.119383,-1.331445 -1.103197,0 -2.016187,0.418454 -0.874949,0.418454 -1.521651,1.103197 -0.646701,0.684743 -1.027114,1.559692 -0.380412,0.874949 -0.494536,1.787939 z"
       style="font-style:normal;font-variant:normal;font-weight:normal;font-stretch:normal;font-size:38.0413px;font-family:'ubuntu mono';-inkscape-font-specification:'ubuntu mono';fill:#86d88d;fill-opacity:1;stroke:none;stroke-width:0.599075;stroke-miterlimit:4;stroke-dasharray:none;stroke-opacity:1"
       id="path1471" /><path
       d="m 49.22757,16.52611 q 2.282476,-0.874949 4.298663,-0.874949 1.103196,0 2.054228,0.342372 0.989073,0.30433 1.673816,0.989072 1.635774,-1.331444 3.499796,-1.331444 0.91299,0 1.711857,0.342372 0.836907,0.342371 1.445568,1.027114 0.646701,0.684742 1.027114,1.711857 0.380412,1.027114 0.380412,2.396599 V 33.68272 H 62.46593 V 21.053021 q 0,-1.369486 -0.608661,-2.09227 -0.60866,-0.722784 -1.52165,-0.722784 -0.456495,0 -0.951032,0.228248 -0.494536,0.228247 -0.91299,0.722784 0.228248,0.874949 0.228248,1.940104 v 5.744231 H 55.84675 v -5.782272 q 0,-1.331444 -0.418454,-2.09227 -0.418454,-0.760825 -1.635774,-0.760825 -0.760826,0 -1.711857,0.342372 V 33.68272 H 49.22757 Z"
       style="font-style:normal;font-variant:normal;font-weight:normal;font-stretch:normal;font-size:38.0413px;font-family:'ubuntu mono';-inkscape-font-specification:'ubuntu mono';fill:#86d88d;fill-opacity:1;stroke:none;stroke-width:0.599075;stroke-miterlimit:4;stroke-dasharray:none;stroke-opacity:1"
       id="path1473" /><path
       d="m 83.008138,33.188184 q -1.027114,0.266289 -2.738971,0.570619 -1.673816,0.30433 -3.956292,0.30433 -2.016187,0 -3.347631,-0.570619 -1.331444,-0.60866 -2.168352,-1.673816 -0.836908,-1.103196 -1.179279,-2.586806 -0.342372,-1.483609 -0.342372,-3.271548 v -9.92877 h 3.119384 v 9.244027 q 0,3.271549 0.951032,4.641034 0.989073,1.369486 3.271548,1.369486 0.494537,0 0.989073,-0.03804 0.532578,-0.03804 0.989073,-0.07608 0.456495,-0.07608 0.798867,-0.114124 0.342371,-0.07608 0.456495,-0.114124 V 16.031574 h 3.157425 z"
       style="font-style:normal;font-variant:normal;font-weight:normal;font-stretch:normal;font-size:38.0413px;font-family:'ubuntu mono';-inkscape-font-specification:'ubuntu mono';fill:#86d88d;fill-opacity:1;stroke:none;stroke-width:0.599075;stroke-miterlimit:4;stroke-dasharray:none;stroke-opacity:1"
       id="path1475" /></g><path
     d="m 11.999997,7 c -3.324,0 -6,1.6318437 -6,3.658842 v 21.686264 c -0.0015,0.08935 0,0.177225 0,0.266791 0,0.03115 -1.8e-4,0.06416 0,0.09528 17.493742,-2.896236 51.220412,-3.355431 74.054932,1.490312 3.550251,0.753403 7.403211,1.815599 9.351321,2.663999 0.10535,-0.383851 0.20428,-0.773521 0.28125,-1.162445 L 90,35.832441 V 32.611897 10.658842 C 90,8.6318437 87.324,7 84,7 H 47.999997 Z"
     inkscape:connector-curvature="0"
     id="path3132"
     style="display:none;opacity:0.3;fill:url(#linearGradient4006);fill-opacity:1;fill-rule:evenodd;stroke:none;stroke-width:0.780901"
     sodipodi:nodetypes="sscscsccccsscs" /><path
     d="m 12.000005,6 c -3.324,0 -6,2.3319747 -6,5.228643 v 20.043131 c 9.2974,2.490371 34.54113,5.864415 55.5,4.275504 9.11695,-0.691164 19.86149,-2.662609 28.49999,-5.255875 v -19.06276 c 0,-2.8966683 -2.676,-5.228643 -6,-5.228643 z"
     inkscape:connector-curvature="0"
     id="path3976"
     style="color:#000000;display:inline;overflow:visible;visibility:visible;opacity:0.743478;fill:url(#linearGradient3053);fill-opacity:1;fill-rule:evenodd;stroke:none;stroke-width:0.93351px;marker:none;enable-background:accumulate" /></svg>
