<?xml version="1.0" encoding="UTF-8" standalone="no"?>
<!-- Created with Inkscape (http://www.inkscape.org/) -->

<svg
   version="1.0"
   width="96"
   height="96"
   id="svg2408"
   sodipodi:docname="xemu.svg"
   xml:space="preserve"
   inkscape:version="1.2.2 (b0a8486541, 2022-12-01)"
   xmlns:inkscape="http://www.inkscape.org/namespaces/inkscape"
   xmlns:sodipodi="http://sodipodi.sourceforge.net/DTD/sodipodi-0.dtd"
   xmlns:xlink="http://www.w3.org/1999/xlink"
   xmlns="http://www.w3.org/2000/svg"
   xmlns:svg="http://www.w3.org/2000/svg"
   xmlns:rdf="http://www.w3.org/1999/02/22-rdf-syntax-ns#"
   xmlns:cc="http://creativecommons.org/ns#"
   xmlns:dc="http://purl.org/dc/elements/1.1/"><sodipodi:namedview
     id="namedview1"
     pagecolor="#ffffff"
     bordercolor="#000000"
     borderopacity="0.25"
     inkscape:showpageshadow="2"
     inkscape:pageopacity="0.0"
     inkscape:pagecheckerboard="0"
     inkscape:deskcolor="#d1d1d1"
     inkscape:zoom="8"
     inkscape:cx="37.5"
     inkscape:cy="43.875"
     inkscape:window-width="2544"
     inkscape:window-height="1374"
     inkscape:window-x="16"
     inkscape:window-y="1440"
     inkscape:window-maximized="0"
     inkscape:current-layer="svg2408"
     showgrid="false" /><defs
     id="defs2410"><linearGradient
       inkscape:collect="always"
       id="linearGradient92597"><stop
         style="stop-color:#ffffff;stop-opacity:0.65151515"
         offset="0"
         id="stop92593" /><stop
         style="stop-color:#ffffff;stop-opacity:0;"
         offset="1"
         id="stop92595" /></linearGradient><linearGradient
       inkscape:collect="always"
       id="linearGradient91587"><stop
         style="stop-color:#378909;stop-opacity:1;"
         offset="0"
         id="stop91583" /><stop
         style="stop-color:#93bf01;stop-opacity:1;"
         offset="1"
         id="stop91585" /></linearGradient><linearGradient
       inkscape:collect="always"
       id="linearGradient68315"><stop
         style="stop-color:#ffffff;stop-opacity:1;"
         offset="0"
         id="stop68311" /><stop
         style="stop-color:#ffffff;stop-opacity:0;"
         offset="1"
         id="stop68313" /></linearGradient><linearGradient
       inkscape:collect="always"
       id="linearGradient65466"><stop
         style="stop-color:#184d1b;stop-opacity:1;"
         offset="0"
         id="stop65462" /><stop
         style="stop-color:#184d1b;stop-opacity:0.2;"
         offset="1"
         id="stop65464" /></linearGradient><linearGradient
       inkscape:collect="always"
       id="linearGradient47584"><stop
         style="stop-color:#246610;stop-opacity:1;"
         offset="0"
         id="stop47580" /><stop
         style="stop-color:#4e9c00;stop-opacity:0;"
         offset="1"
         id="stop47582" /></linearGradient><linearGradient
       inkscape:collect="always"
       id="linearGradient44139"><stop
         style="stop-color:#358515;stop-opacity:1;"
         offset="0"
         id="stop44135" /><stop
         style="stop-color:#cbe102;stop-opacity:0;"
         offset="1"
         id="stop44137" /></linearGradient><linearGradient
       inkscape:collect="always"
       id="linearGradient20295"><stop
         style="stop-color:#358809;stop-opacity:1;"
         offset="0"
         id="stop20291" /><stop
         style="stop-color:#98c201;stop-opacity:1;"
         offset="1"
         id="stop20293" /></linearGradient><rect
       x="27.231161"
       y="23.329383"
       width="50.397969"
       height="18.939882"
       id="rect3" /><rect
       x="19.102456"
       y="24.792549"
       width="40.480949"
       height="27.881457"
       id="rect2" /><rect
       x="-111.20068"
       y="36.741744"
       width="77.385267"
       height="20.159187"
       id="rect1" /><linearGradient
       id="linearGradient15"><stop
         id="stop14"
         style="stop-color:#000000;stop-opacity:1;"
         offset="0" /><stop
         id="stop15"
         style="stop-color:#282828;stop-opacity:1;"
         offset="1" /></linearGradient><linearGradient
       x1="45.447727"
       y1="92.539597"
       x2="45.447727"
       y2="7.0165396"
       id="ButtonShadow"
       gradientUnits="userSpaceOnUse"
       gradientTransform="scale(1.0058652,0.994169)"><stop
         id="stop3750"
         style="stop-color:#000000;stop-opacity:1"
         offset="0" /><stop
         id="stop3752"
         style="stop-color:#000000;stop-opacity:0.58823532"
         offset="1" /></linearGradient><linearGradient
       id="linearGradient3737"><stop
         id="stop3739"
         style="stop-color:#ffffff;stop-opacity:1"
         offset="0" /><stop
         id="stop3741"
         style="stop-color:#ffffff;stop-opacity:0"
         offset="1" /></linearGradient><filter
       color-interpolation-filters="sRGB"
       id="filter3174"
       x="-0.047720931"
       y="-0.048282354"
       width="1.0954419"
       height="1.0965647"><feGaussianBlur
         id="feGaussianBlur3176"
         stdDeviation="1.71" /></filter><linearGradient
       x1="36.357143"
       y1="6"
       x2="36.357143"
       y2="63.893143"
       id="linearGradient3188"
       xlink:href="#linearGradient3737"
       gradientUnits="userSpaceOnUse" /><filter
       x="-0.19578789"
       y="-0.19578789"
       width="1.3915758"
       height="1.3915758"
       color-interpolation-filters="sRGB"
       id="filter3794"><feGaussianBlur
         id="feGaussianBlur3796"
         stdDeviation="5.28" /></filter><linearGradient
       x1="48"
       y1="20.220806"
       x2="48"
       y2="138.66119"
       id="linearGradient3613"
       xlink:href="#linearGradient3737"
       gradientUnits="userSpaceOnUse" /><radialGradient
       cx="48"
       cy="90.171875"
       r="42"
       fx="48"
       fy="90.171875"
       id="radialGradient3619"
       xlink:href="#linearGradient3737"
       gradientUnits="userSpaceOnUse"
       gradientTransform="matrix(1.1573129,0,0,0.99590774,-7.5510206,0.19713193)" /><clipPath
       id="clipPath3613"><rect
         width="84"
         height="84"
         rx="6"
         ry="6"
         x="6"
         y="6"
         id="rect3615"
         style="fill:#ffffff;fill-opacity:1;fill-rule:nonzero;stroke:none" /></clipPath><linearGradient
       x1="45.447727"
       y1="92.539597"
       x2="45.447727"
       y2="7.0165396"
       id="ButtonShadow-0"
       gradientUnits="userSpaceOnUse"
       gradientTransform="matrix(1.0058652,0,0,0.994169,100,0)"><stop
         id="stop3750-8"
         style="stop-color:#000000;stop-opacity:1"
         offset="0" /><stop
         id="stop3752-5"
         style="stop-color:#000000;stop-opacity:0.58823532"
         offset="1" /></linearGradient><linearGradient
       x1="32.251034"
       y1="6.1317081"
       x2="32.251034"
       y2="90.238609"
       id="linearGradient3780"
       xlink:href="#ButtonShadow-0"
       gradientUnits="userSpaceOnUse"
       gradientTransform="matrix(1.0238095,0,0,1.0119048,-1.1428571,-98.071429)" /><linearGradient
       x1="32.251034"
       y1="6.1317081"
       x2="32.251034"
       y2="90.238609"
       id="linearGradient3772"
       xlink:href="#ButtonShadow-0"
       gradientUnits="userSpaceOnUse"
       gradientTransform="matrix(1.0238095,0,0,1.0119048,-1.1428571,-98.071429)" /><linearGradient
       x1="32.251034"
       y1="6.1317081"
       x2="32.251034"
       y2="90.238609"
       id="linearGradient3725"
       xlink:href="#ButtonShadow-0"
       gradientUnits="userSpaceOnUse"
       gradientTransform="matrix(1.0238095,0,0,1.0119048,-1.1428571,-98.071429)" /><linearGradient
       x1="32.251034"
       y1="6.1317081"
       x2="32.251034"
       y2="90.238609"
       id="linearGradient3721"
       xlink:href="#ButtonShadow-0"
       gradientUnits="userSpaceOnUse"
       gradientTransform="translate(0,-97)" /><linearGradient
       x1="32.251034"
       y1="6.1317081"
       x2="32.251034"
       y2="90.238609"
       id="linearGradient3026"
       xlink:href="#ButtonShadow-0"
       gradientUnits="userSpaceOnUse"
       gradientTransform="matrix(1.0238095,0,0,1.0119048,-1.1428571,-98.071429)" /><linearGradient
       x1="6"
       y1="48"
       x2="90"
       y2="48"
       id="linearGradient3849"
       xlink:href="#linearGradient15"
       gradientUnits="userSpaceOnUse"
       gradientTransform="translate(-96,0)" /><linearGradient
       id="linearGradient3843-5"><stop
         id="stop3845-0"
         style="stop-color:#65216c;stop-opacity:1"
         offset="0" /><stop
         id="stop3847-4"
         style="stop-color:#982ea4;stop-opacity:1"
         offset="1" /></linearGradient><clipPath
       clipPathUnits="userSpaceOnUse"
       id="clipPath22"><rect
         width="84"
         height="84"
         rx="6"
         ry="6"
         x="-90"
         y="6.0000038"
         transform="rotate(-90)"
         id="rect22"
         style="display:inline;opacity:1;fill:url(#linearGradient22);fill-opacity:1;fill-rule:nonzero;stroke:none" /></clipPath><linearGradient
       inkscape:collect="always"
       xlink:href="#linearGradient3843-5"
       id="linearGradient22"
       gradientUnits="userSpaceOnUse"
       gradientTransform="translate(-96.000003)"
       x1="6"
       y1="48"
       x2="90"
       y2="48" /><clipPath
       clipPathUnits="userSpaceOnUse"
       id="clipPath23"><rect
         width="84"
         height="84"
         rx="6"
         ry="6"
         x="-90"
         y="6.0000038"
         transform="rotate(-90)"
         id="rect23"
         style="display:inline;opacity:1;fill:url(#linearGradient23);fill-opacity:1;fill-rule:nonzero;stroke:none" /></clipPath><linearGradient
       inkscape:collect="always"
       xlink:href="#linearGradient3843-5"
       id="linearGradient23"
       gradientUnits="userSpaceOnUse"
       gradientTransform="translate(-96.000003)"
       x1="6"
       y1="48"
       x2="90"
       y2="48" /><clipPath
       clipPathUnits="userSpaceOnUse"
       id="clipPath24"><rect
         width="84"
         height="84"
         rx="6"
         ry="6"
         x="-90"
         y="6.0000038"
         transform="rotate(-90)"
         id="rect24"
         style="display:inline;opacity:1;fill:url(#linearGradient24);fill-opacity:1;fill-rule:nonzero;stroke:none" /></clipPath><linearGradient
       inkscape:collect="always"
       xlink:href="#linearGradient3843-5"
       id="linearGradient24"
       gradientUnits="userSpaceOnUse"
       gradientTransform="translate(-96.000003)"
       x1="6"
       y1="48"
       x2="90"
       y2="48" /><linearGradient
       x1="373.12482"
       y1="91.875"
       x2="363.62491"
       y2="258.54688"
       id="linearGradient4006"
       xlink:href="#linearGradient3737"
       gradientUnits="userSpaceOnUse"
       gradientTransform="matrix(0.43977693,0,0,0.2681874,-111.91515,-17.63628)" /><linearGradient
       y2="20.913509"
       x2="19.249098"
       y1="-1.4776937"
       x1="19.249098"
       gradientTransform="matrix(2.333332,0,0,2.1359591,-3.333335,-2.4849959)"
       gradientUnits="userSpaceOnUse"
       id="linearGradient3053"
       xlink:href="#linearGradient3737"
       inkscape:collect="always" /><linearGradient
       inkscape:collect="always"
       xlink:href="#linearGradient20295"
       id="linearGradient20297"
       x1="53.714844"
       y1="52.874023"
       x2="69.839844"
       y2="52.874023"
       gradientUnits="userSpaceOnUse" /><linearGradient
       inkscape:collect="always"
       xlink:href="#linearGradient20295"
       id="linearGradient39292"
       gradientUnits="userSpaceOnUse"
       x1="53.714844"
       y1="52.874023"
       x2="69.839844"
       y2="52.874023"
       gradientTransform="matrix(-1,0,0,1,95.332034,-0.148438)" /><radialGradient
       inkscape:collect="always"
       xlink:href="#linearGradient44139"
       id="radialGradient44141"
       cx="47.406487"
       cy="36.042866"
       fx="47.406487"
       fy="36.042866"
       r="22.173828"
       gradientTransform="matrix(1.0249473e-7,2.3337445,-1.1765198,1.286244e-7,90.135606,-72.726431)"
       gradientUnits="userSpaceOnUse" /><radialGradient
       inkscape:collect="always"
       xlink:href="#linearGradient47584"
       id="radialGradient47586"
       cx="49.095291"
       cy="39.518772"
       fx="49.095291"
       fy="39.518772"
       r="3.961813"
       gradientTransform="matrix(-1.3574319,-0.01860991,0.02169067,-1.5821478,113.51679,101.3464)"
       gradientUnits="userSpaceOnUse" /><radialGradient
       inkscape:collect="always"
       xlink:href="#linearGradient65466"
       id="radialGradient65468"
       cx="55.128189"
       cy="28.637262"
       fx="55.128189"
       fy="28.637262"
       r="24.1875"
       gradientTransform="matrix(2.6266442,-3.8225984e-6,0,0.40750281,-96.519617,17.521852)"
       gradientUnits="userSpaceOnUse" /><radialGradient
       inkscape:collect="always"
       xlink:href="#linearGradient68315"
       id="radialGradient68317"
       cx="-28.369213"
       cy="44.818352"
       fx="-28.369213"
       fy="44.818352"
       r="24.1875"
       gradientTransform="matrix(0.52607359,-0.00413404,0.00610586,0.77699645,51.72918,13.964124)"
       gradientUnits="userSpaceOnUse" /><linearGradient
       inkscape:collect="always"
       xlink:href="#linearGradient91587"
       id="linearGradient91589"
       x1="46.877857"
       y1="79.407341"
       x2="46.877857"
       y2="63.939377"
       gradientUnits="userSpaceOnUse" /><radialGradient
       inkscape:collect="always"
       xlink:href="#linearGradient92597"
       id="radialGradient92605"
       gradientUnits="userSpaceOnUse"
       gradientTransform="matrix(1.175404,0.73067444,-0.5451653,0.87698369,-14.93991,-39.085985)"
       cx="71.626312"
       cy="19.639143"
       fx="71.626312"
       fy="19.639143"
       r="16.440233" /></defs><metadata
     id="metadata2413"><rdf:RDF><cc:Work
         rdf:about=""><dc:format>image/svg+xml</dc:format><dc:type
           rdf:resource="http://purl.org/dc/dcmitype/StillImage" /></cc:Work></rdf:RDF></metadata><g
     id="layer3"
     style="display:inline"><path
       d="m 12,-95.03125 c -5.5110903,0 -10.03125,4.52016 -10.03125,10.03125 v 71 c 0,5.5110902 4.5201598,10.03125 10.03125,10.03125 h 72 c 5.51109,0 10.03125,-4.5201597 10.03125,-10.03125 v -71 c 0,-5.51109 -4.52016,-10.03125 -10.03125,-10.03125 z"
       transform="scale(1,-1)"
       id="path3786"
       style="display:inline;opacity:0.08;fill:url(#linearGradient3026);fill-opacity:1;fill-rule:nonzero;stroke:none" /><path
       d="m 12,-94.03125 c -4.971633,0 -9.03125,4.059617 -9.03125,9.03125 v 71 c 0,4.9716329 4.0596171,9.03125 9.03125,9.03125 h 72 c 4.971633,0 9.03125,-4.059617 9.03125,-9.03125 v -71 c 0,-4.971633 -4.059617,-9.03125 -9.03125,-9.03125 z"
       transform="scale(1,-1)"
       id="path3778"
       style="display:inline;opacity:0.1;fill:url(#linearGradient3780);fill-opacity:1;fill-rule:nonzero;stroke:none" /><path
       d="m 12,-93 c -4.4091333,0 -8,3.590867 -8,8 v 71 c 0,4.4091333 3.5908667,8 8,8 h 72 c 4.409133,0 8,-3.5908667 8,-8 v -71 c 0,-4.409133 -3.590867,-8 -8,-8 z"
       transform="scale(1,-1)"
       id="path3770"
       style="display:inline;opacity:0.2;fill:url(#linearGradient3772);fill-opacity:1;fill-rule:nonzero;stroke:none" /><rect
       width="86"
       height="85"
       rx="7"
       ry="7"
       x="5"
       y="-92"
       transform="scale(1,-1)"
       id="rect3723"
       style="display:inline;opacity:0.3;fill:url(#linearGradient3725);fill-opacity:1;fill-rule:nonzero;stroke:none" /><rect
       width="84"
       height="84"
       rx="6"
       ry="6"
       x="6"
       y="-91"
       transform="scale(1,-1)"
       id="rect3716"
       style="display:inline;opacity:0.45;fill:url(#linearGradient3721);fill-opacity:1;fill-rule:nonzero;stroke:none" /></g><g
     id="layer1"
     style="display:inline"><rect
       width="84"
       height="84"
       rx="6"
       ry="6"
       x="-90"
       y="6"
       transform="rotate(-90)"
       id="rect2419"
       style="display:inline;fill:url(#linearGradient3849);fill-opacity:1;fill-rule:nonzero;stroke:none" /><path
       d="M 12,6 C 8.676,6 6,8.676 6,12 v 2 68 2 c 0,0.334721 0.04135,0.6507 0.09375,0.96875 0.0487,0.295596 0.09704,0.596915 0.1875,0.875 0.00988,0.03038 0.020892,0.0636 0.03125,0.09375 0.098865,0.287771 0.2348802,0.547452 0.375,0.8125 0.1445918,0.273507 0.3156161,0.535615 0.5,0.78125 0.1843839,0.245635 0.3737765,0.473472 0.59375,0.6875 0.439947,0.428056 0.94291,0.814526 1.5,1.09375 0.278545,0.139612 0.5734731,0.246947 0.875,0.34375 -0.2562018,-0.100222 -0.4867109,-0.236272 -0.71875,-0.375 -0.00741,-0.0044 -0.023866,0.0045 -0.03125,0 -0.031933,-0.0193 -0.062293,-0.04251 -0.09375,-0.0625 -0.120395,-0.0767 -0.2310226,-0.163513 -0.34375,-0.25 -0.1061728,-0.0808 -0.2132809,-0.161112 -0.3125,-0.25 C 8.4783201,88.557317 8.3087904,88.373362 8.15625,88.1875 8.0486711,88.057245 7.9378561,87.922215 7.84375,87.78125 7.818661,87.74287 7.805304,87.69538 7.78125,87.65625 7.716487,87.553218 7.6510225,87.451733 7.59375,87.34375 7.4927417,87.149044 7.3880752,86.928049 7.3125,86.71875 7.30454,86.69694 7.288911,86.6782 7.28125,86.65625 7.2494249,86.5643 7.2454455,86.469419 7.21875,86.375 7.1884177,86.268382 7.1483606,86.171969 7.125,86.0625 7.0521214,85.720988 7,85.364295 7,85 V 83 15 13 C 7,10.218152 9.2181517,8 12,8 h 2 68 2 c 2.781848,0 5,2.218152 5,5 v 2 68 2 c 0,0.364295 -0.05212,0.720988 -0.125,1.0625 -0.04415,0.206893 -0.08838,0.397658 -0.15625,0.59375 -0.0077,0.02195 -0.0233,0.04069 -0.03125,0.0625 -0.06274,0.173739 -0.138383,0.367449 -0.21875,0.53125 -0.04158,0.0828 -0.07904,0.169954 -0.125,0.25 -0.0546,0.09721 -0.126774,0.18835 -0.1875,0.28125 -0.09411,0.140965 -0.204921,0.275995 -0.3125,0.40625 -0.143174,0.17445 -0.303141,0.346998 -0.46875,0.5 -0.01117,0.0102 -0.01998,0.02115 -0.03125,0.03125 -0.138386,0.125556 -0.285091,0.234436 -0.4375,0.34375 -0.102571,0.07315 -0.204318,0.153364 -0.3125,0.21875 -0.0074,0.0045 -0.02384,-0.0044 -0.03125,0 -0.232039,0.138728 -0.462548,0.274778 -0.71875,0.375 0.301527,-0.0968 0.596455,-0.204138 0.875,-0.34375 0.55709,-0.279224 1.060053,-0.665694 1.5,-1.09375 0.219973,-0.214028 0.409366,-0.441865 0.59375,-0.6875 0.184384,-0.245635 0.355408,-0.507743 0.5,-0.78125 0.14012,-0.265048 0.276135,-0.524729 0.375,-0.8125 0.01041,-0.03078 0.02133,-0.06274 0.03125,-0.09375 0.09046,-0.278085 0.1388,-0.579404 0.1875,-0.875 C 89.95865,84.6507 90,84.334721 90,84 V 82 14 12 C 90,8.676 87.324,6 84,6 Z"
       inkscape:connector-curvature="0"
       id="rect3728"
       style="display:inline;opacity:0.25;fill:url(#linearGradient3188);fill-opacity:1;fill-rule:nonzero;stroke:none" /><path
       d="M 12,90 C 8.676,90 6,87.324 6,84 V 82 14 12 c 0,-0.334721 0.04135,-0.6507 0.09375,-0.96875 0.0487,-0.295596 0.09704,-0.596915 0.1875,-0.875 C 6.29113,10.12587 6.302142,10.09265 6.3125,10.0625 6.411365,9.774729 6.5473802,9.515048 6.6875,9.25 6.8320918,8.976493 7.0031161,8.714385 7.1875,8.46875 7.3718839,8.223115 7.5612765,7.995278 7.78125,7.78125 8.221197,7.353194 8.72416,6.966724 9.28125,6.6875 9.559795,6.547888 9.8547231,6.440553 10.15625,6.34375 9.9000482,6.443972 9.6695391,6.580022 9.4375,6.71875 c -0.00741,0.0044 -0.023866,-0.0045 -0.03125,0 -0.031933,0.0193 -0.062293,0.04251 -0.09375,0.0625 -0.120395,0.0767 -0.2310226,0.163513 -0.34375,0.25 -0.1061728,0.0808 -0.2132809,0.161112 -0.3125,0.25 C 8.4783201,7.442683 8.3087904,7.626638 8.15625,7.8125 8.0486711,7.942755 7.9378561,8.077785 7.84375,8.21875 7.818661,8.25713 7.805304,8.30462 7.78125,8.34375 7.716487,8.446782 7.6510225,8.548267 7.59375,8.65625 7.4927417,8.850956 7.3880752,9.071951 7.3125,9.28125 7.30454,9.30306 7.288911,9.3218 7.28125,9.34375 7.2494249,9.4357 7.2454455,9.530581 7.21875,9.625 7.1884177,9.731618 7.1483606,9.828031 7.125,9.9375 7.0521214,10.279012 7,10.635705 7,11 v 2 68 2 c 0,2.781848 2.2181517,5 5,5 h 2 68 2 c 2.781848,0 5,-2.218152 5,-5 V 81 13 11 C 89,10.635705 88.94788,10.279012 88.875,9.9375 88.83085,9.730607 88.78662,9.539842 88.71875,9.34375 88.71105,9.3218 88.69545,9.30306 88.6875,9.28125 88.62476,9.107511 88.549117,8.913801 88.46875,8.75 88.42717,8.6672 88.38971,8.580046 88.34375,8.5 88.28915,8.40279 88.216976,8.31165 88.15625,8.21875 88.06214,8.077785 87.951329,7.942755 87.84375,7.8125 87.700576,7.63805 87.540609,7.465502 87.375,7.3125 87.36383,7.3023 87.35502,7.29135 87.34375,7.28125 87.205364,7.155694 87.058659,7.046814 86.90625,6.9375 86.803679,6.86435 86.701932,6.784136 86.59375,6.71875 c -0.0074,-0.0045 -0.02384,0.0044 -0.03125,0 -0.232039,-0.138728 -0.462548,-0.274778 -0.71875,-0.375 0.301527,0.0968 0.596455,0.204138 0.875,0.34375 0.55709,0.279224 1.060053,0.665694 1.5,1.09375 0.219973,0.214028 0.409366,0.441865 0.59375,0.6875 0.184384,0.245635 0.355408,0.507743 0.5,0.78125 0.14012,0.265048 0.276135,0.524729 0.375,0.8125 0.01041,0.03078 0.02133,0.06274 0.03125,0.09375 0.09046,0.278085 0.1388,0.579404 0.1875,0.875 C 89.95865,11.3493 90,11.665279 90,12 v 2 68 2 c 0,3.324 -2.676,6 -6,6 z"
       inkscape:connector-curvature="0"
       id="path3615"
       style="display:inline;opacity:0.1;fill:url(#radialGradient3619);fill-opacity:1;fill-rule:nonzero;stroke:none" /></g><g
     id="layer5"
     style="display:inline"><rect
       width="66"
       height="66"
       rx="12"
       ry="12"
       x="15"
       y="15"
       clip-path="url(#clipPath3613)"
       id="rect3171"
       style="display:none;opacity:0.1;fill:url(#linearGradient3613);fill-opacity:1;fill-rule:nonzero;stroke:#ffffff;stroke-width:0.5;stroke-linecap:round;stroke-linejoin:miter;stroke-miterlimit:4;stroke-dasharray:none;stroke-dashoffset:0;stroke-opacity:1;filter:url(#filter3794)" /></g><g
     aria-label="xemu"
     style="font-style:normal;font-weight:normal;font-size:63.4021px;line-height:1.25;font-family:sans-serif;letter-spacing:0px;word-spacing:0px;display:none;fill:#86d88d;fill-opacity:1;stroke:none;stroke-width:0.599075;stroke-miterlimit:4;stroke-dasharray:none;stroke-opacity:1"
     id="text879-9-3"
     transform="matrix(0.97421536,0,0,0.97421536,1.4611004,22.79168)"><path
       d="m 24.08244,33.68272 q -0.380413,-0.760825 -0.951032,-1.673815 -0.532578,-0.912991 -1.179279,-1.864022 -0.646702,-0.989073 -1.369486,-1.940105 -0.684742,-0.951031 -1.369485,-1.787939 -0.684743,0.874949 -1.445568,1.82598 -0.760825,0.951032 -1.483609,1.940105 -0.684743,0.951032 -1.293403,1.864022 -0.608661,0.91299 -1.027114,1.635774 h -3.233508 q 1.255362,-2.282476 3.043301,-4.679075 1.825981,-2.434641 3.575879,-4.602993 l -6.352891,-8.369078 h 3.537838 l 4.755157,6.162685 4.374746,-6.162685 h 3.347631 l -5.820313,8.178872 q 1.711857,2.244434 3.423713,4.679075 1.749899,2.434641 2.967219,4.793199 z"
       style="font-style:normal;font-variant:normal;font-weight:normal;font-stretch:normal;font-size:38.0413px;font-family:'ubuntu mono';-inkscape-font-specification:'ubuntu mono';fill:#86d88d;fill-opacity:1;stroke:none;stroke-width:0.599075;stroke-miterlimit:4;stroke-dasharray:none;stroke-opacity:1"
       id="path1469" /><path
       d="m 38.500006,15.61312 q 3.575879,0 5.515983,2.244435 1.940105,2.206393 1.940105,6.733303 v 1.103197 h -12.6297 q 0.190207,2.738971 1.78794,4.184539 1.635774,1.407527 4.564951,1.407527 1.673816,0 2.853095,-0.266289 1.179279,-0.266289 1.787939,-0.570619 l 0.418454,2.662888 q -0.570619,0.30433 -2.054228,0.646702 -1.483609,0.342371 -3.347631,0.342371 -2.282476,0 -4.032374,-0.684743 -1.711857,-0.722784 -2.853095,-1.940104 -1.141238,-1.217321 -1.711857,-2.891136 -0.570619,-1.711857 -0.570619,-3.690003 0,-2.358558 0.722784,-4.108456 0.722784,-1.749898 1.902064,-2.891136 1.179279,-1.141238 2.662888,-1.711857 1.483609,-0.570619 3.043301,-0.570619 z m 4.260622,7.53217 q 0,-2.244434 -1.17928,-3.537837 -1.179279,-1.331445 -3.119383,-1.331445 -1.103197,0 -2.016187,0.418454 -0.874949,0.418454 -1.521651,1.103197 -0.646701,0.684743 -1.027114,1.559692 -0.380412,0.874949 -0.494536,1.787939 z"
       style="font-style:normal;font-variant:normal;font-weight:normal;font-stretch:normal;font-size:38.0413px;font-family:'ubuntu mono';-inkscape-font-specification:'ubuntu mono';fill:#86d88d;fill-opacity:1;stroke:none;stroke-width:0.599075;stroke-miterlimit:4;stroke-dasharray:none;stroke-opacity:1"
       id="path1471" /><path
       d="m 49.22757,16.52611 q 2.282476,-0.874949 4.298663,-0.874949 1.103196,0 2.054228,0.342372 0.989073,0.30433 1.673816,0.989072 1.635774,-1.331444 3.499796,-1.331444 0.91299,0 1.711857,0.342372 0.836907,0.342371 1.445568,1.027114 0.646701,0.684742 1.027114,1.711857 0.380412,1.027114 0.380412,2.396599 V 33.68272 H 62.46593 V 21.053021 q 0,-1.369486 -0.608661,-2.09227 -0.60866,-0.722784 -1.52165,-0.722784 -0.456495,0 -0.951032,0.228248 -0.494536,0.228247 -0.91299,0.722784 0.228248,0.874949 0.228248,1.940104 v 5.744231 H 55.84675 v -5.782272 q 0,-1.331444 -0.418454,-2.09227 -0.418454,-0.760825 -1.635774,-0.760825 -0.760826,0 -1.711857,0.342372 V 33.68272 H 49.22757 Z"
       style="font-style:normal;font-variant:normal;font-weight:normal;font-stretch:normal;font-size:38.0413px;font-family:'ubuntu mono';-inkscape-font-specification:'ubuntu mono';fill:#86d88d;fill-opacity:1;stroke:none;stroke-width:0.599075;stroke-miterlimit:4;stroke-dasharray:none;stroke-opacity:1"
       id="path1473" /><path
       d="m 83.008138,33.188184 q -1.027114,0.266289 -2.738971,0.570619 -1.673816,0.30433 -3.956292,0.30433 -2.016187,0 -3.347631,-0.570619 -1.331444,-0.60866 -2.168352,-1.673816 -0.836908,-1.103196 -1.179279,-2.586806 -0.342372,-1.483609 -0.342372,-3.271548 v -9.92877 h 3.119384 v 9.244027 q 0,3.271549 0.951032,4.641034 0.989073,1.369486 3.271548,1.369486 0.494537,0 0.989073,-0.03804 0.532578,-0.03804 0.989073,-0.07608 0.456495,-0.07608 0.798867,-0.114124 0.342371,-0.07608 0.456495,-0.114124 V 16.031574 h 3.157425 z"
       style="font-style:normal;font-variant:normal;font-weight:normal;font-stretch:normal;font-size:38.0413px;font-family:'ubuntu mono';-inkscape-font-specification:'ubuntu mono';fill:#86d88d;fill-opacity:1;stroke:none;stroke-width:0.599075;stroke-miterlimit:4;stroke-dasharray:none;stroke-opacity:1"
       id="path1475" /></g><path
     d="m 11.999997,7 c -3.324,0 -6,1.6318437 -6,3.658842 v 21.686264 c -0.0015,0.08935 0,0.177225 0,0.266791 0,0.03115 -1.8e-4,0.06416 0,0.09528 17.493742,-2.896236 51.220412,-3.355431 74.054932,1.490312 3.550251,0.753403 7.403211,1.815599 9.351321,2.663999 0.10535,-0.383851 0.20428,-0.773521 0.28125,-1.162445 L 90,35.832441 V 32.611897 10.658842 C 90,8.6318437 87.324,7 84,7 H 47.999997 Z"
     inkscape:connector-curvature="0"
     id="path3132"
     style="display:none;opacity:0.3;fill:url(#linearGradient4006);fill-opacity:1;fill-rule:evenodd;stroke:none;stroke-width:0.780901"
     sodipodi:nodetypes="sscscsccccsscs" /><path
     d="m 12.000005,6 c -3.324,0 -6,2.3319747 -6,5.228643 v 20.043131 c 9.2974,2.490371 34.54113,5.864415 55.5,4.275504 9.11695,-0.691164 19.86149,-2.662609 28.49999,-5.255875 v -19.06276 c 0,-2.8966683 -2.676,-5.228643 -6,-5.228643 z"
     inkscape:connector-curvature="0"
     id="path3976"
     style="color:#000000;display:none;overflow:visible;visibility:visible;opacity:0.743478;fill:url(#linearGradient3053);fill-opacity:1;fill-rule:evenodd;stroke:none;stroke-width:0.93351px;marker:none;enable-background:accumulate" /><ellipse
     style="opacity:1;fill:url(#radialGradient92605);fill-opacity:1;stroke-linecap:round"
     id="ellipse92602"
     ry="31.996582"
     rx="34.162098"
     cy="26.207146"
     cx="48.61359" /><g
     id="g73948"
     style="display:inline"
     transform="matrix(1.3410852,0,0,1.3125967,-15.02853,-22.837554)"><path
       style="display:inline;opacity:1;fill:#000000;stroke-width:0.376826;stroke-linecap:round"
       d="m 47.633155,36.879382 c 0.471032,-0.14131 19.783349,-9.467746 19.783349,-9.467746 L 53.709469,41.825219 71.75,65 47.538948,47.053676 23.375,65 41.509737,41.966529 27.708496,27.505842 Z"
       id="path3182" /><path
       style="display:inline;opacity:1;fill:url(#radialGradient68317);fill-opacity:1;stroke-width:0.376826;stroke-linecap:round"
       d="m 47.633155,36.879382 c 0.471032,-0.14131 19.783349,-9.467746 19.783349,-9.467746 L 53.709469,41.825219 71.75,65 47.538948,47.053676 23.375,65 41.509737,41.966529 27.708496,27.505842 Z"
       id="path68299" /><path
       style="display:inline;opacity:1;fill:url(#radialGradient65468);fill-opacity:1;stroke-width:0.376826;stroke-linecap:round"
       d="m 47.633155,36.879382 c 0.471032,-0.14131 19.783349,-9.467746 19.783349,-9.467746 L 53.709469,41.825219 71.75,65 47.538948,47.053676 23.375,65 41.509737,41.966529 27.708496,27.505842 Z"
       id="path65459" /><path
       id="path3184"
       style="display:inline;opacity:1;fill:#cbe102;fill-opacity:1;stroke-width:0.344604;stroke-linecap:round"
       d="m 65.722656,29.191406 c 0,0 -17.561433,8.587569 -17.992187,8.716797 L 29.5,29.382812 41.507812,41.986328 v 1.363281 L 25.492188,63.4375 47.644531,47.212891 69.839844,63.585938 53.71875,42.949219 v -1.134766 z" /><path
       id="path44132"
       style="display:inline;opacity:1;fill:url(#radialGradient44141);fill-opacity:1;stroke-width:0.344604;stroke-linecap:round"
       d="m 65.722656,29.191406 c 0,0 -17.561433,8.587569 -17.992187,8.716797 L 29.5,29.382812 41.507812,41.986328 v 1.363281 L 25.492188,63.4375 47.644531,47.212891 69.839844,63.585938 53.71875,42.949219 v -1.134766 z" /><path
       id="path4641"
       style="opacity:1;fill:url(#linearGradient20297);fill-opacity:1;stroke-width:0.344604;stroke-linecap:round"
       d="m 53.714844,42.162109 v 9.529297 l 16.125,11.894532 L 53.71875,42.949219 v -0.78711 z" /><path
       id="path38117"
       style="opacity:1;fill:url(#linearGradient39292);fill-opacity:1;stroke-width:0.344604;stroke-linecap:round"
       d="m 41.511718,42.013671 v 9.690957 L 25.492188,63.4375 41.507812,42.800781 v -0.78711 z"
       sodipodi:nodetypes="cccccc" /><path
       style="display:inline;opacity:1;fill:url(#radialGradient47586);fill-opacity:1;stroke-linecap:round"
       d="m 47.730469,37.908203 -0.08594,9.304688 7.923626,-13.069434 z"
       id="path47578" /></g><path
     id="path70075"
     style="display:inline;fill:url(#linearGradient91589);fill-opacity:1;stroke-width:0.0629715"
     d="M 31.404297 63.841797 C 31.404157 63.841797 31.318574 63.851513 31.318359 63.851562 C 31.318145 63.851613 31.288494 63.860082 31.279297 63.863281 C 31.260903 63.869679 31.251919 63.873385 31.244141 63.876953 C 31.228584 63.884088 31.220196 63.888591 31.212891 63.892578 C 31.19828 63.900552 31.188511 63.906383 31.175781 63.914062 C 31.150322 63.929423 31.118128 63.948389 31.080078 63.972656 C 31.003978 64.021191 30.899136 64.089751 30.771484 64.173828 C 30.516181 64.341981 30.171618 64.573274 29.794922 64.828125 C 29.043747 65.336324 27.906016 66.106444 27.265625 66.539062 C 25.038644 68.043549 23.827558 68.861198 22.867188 69.509766 C 22.529126 69.738064 22.295955 69.888688 22.146484 69.974609 C 22.131394 69.956 22.124485 69.946955 22.107422 69.925781 C 21.982396 69.770632 21.804616 69.547676 21.589844 69.275391 C 21.1603 68.730818 20.580054 67.985728 19.951172 67.175781 L 17.660156 64.228516 A 0.37743271 0.37743271 0 0 0 17.365234 64.083984 L 16.451172 64.072266 L 16.449219 64.072266 C 16.14633 64.06825 15.914317 64.070519 15.748047 64.080078 C 15.66468 64.084871 15.600967 64.08805 15.527344 64.103516 C 15.490532 64.111248 15.455644 64.111983 15.373047 64.162109 C 15.352398 64.174641 15.328397 64.191736 15.300781 64.21875 C 15.286973 64.232257 15.272246 64.249685 15.257812 64.269531 C 15.24338 64.289378 15.217061 64.339248 15.216797 64.339844 C 15.216268 64.341036 15.185429 64.530012 15.185547 64.53125 C 15.185606 64.531869 15.204857 64.622416 15.205078 64.623047 C 15.205299 64.623677 15.226374 64.673405 15.238281 64.693359 C 15.285894 64.773152 15.266016 64.734851 15.277344 64.75 C 15.288672 64.765149 15.303286 64.785592 15.322266 64.810547 C 15.360225 64.860456 15.413853 64.93025 15.482422 65.019531 C 15.61956 65.198094 15.815096 65.451573 16.054688 65.761719 C 16.53387 66.38201 17.189517 67.229328 17.90625 68.152344 C 18.622094 69.074215 19.270865 69.916901 19.738281 70.533203 C 19.967714 70.835716 20.151666 71.080312 20.279297 71.253906 C 20.207827 71.305165 20.141228 71.35367 20.054688 71.412109 C 19.777363 71.599379 19.027379 72.106311 18.386719 72.539062 C 17.746029 72.971856 15.86144 74.244758 14.199219 75.365234 C 12.536592 76.485985 11.157496 77.417705 11.146484 77.425781 A 0.37743271 0.37743271 0 0 0 11.144531 77.425781 C 11.144445 77.425845 11.054751 77.521389 11.054688 77.521484 C 11.054623 77.52158 11.009808 77.613153 11.009766 77.613281 C 11.009681 77.613538 10.992186 77.73399 10.992188 77.734375 C 10.992188 77.73476 10.99345 77.781401 10.996094 77.796875 C 10.998738 77.812349 11.00131 77.824373 11.003906 77.833984 C 11.01429 77.872431 11.023103 77.886512 11.029297 77.900391 C 11.041684 77.928148 11.050992 77.943966 11.0625 77.964844 C 11.085516 78.006598 11.114568 78.054842 11.150391 78.113281 C 11.222036 78.23016 11.320343 78.384126 11.431641 78.552734 C 11.54212 78.720107 11.64328 78.873613 11.720703 78.986328 C 11.759415 79.042686 11.792641 79.089458 11.818359 79.125 C 11.831219 79.142771 11.840663 79.155629 11.853516 79.171875 C 11.859942 79.179998 11.867025 79.188116 11.880859 79.203125 C 11.887777 79.21063 11.895543 79.220835 11.916016 79.238281 C 11.926252 79.247005 11.964606 79.273293 11.964844 79.273438 C 11.964962 79.273509 12.021387 79.300742 12.021484 79.300781 C 12.021582 79.30082 12.132738 79.328119 12.132812 79.328125 C 12.136674 79.327862 12.245968 79.318388 12.246094 79.318359 C 12.246222 79.31833 12.290836 79.306706 12.291016 79.306641 C 12.291375 79.306511 12.320657 79.294602 12.328125 79.291016 C 12.343061 79.283843 12.349406 79.278826 12.355469 79.275391 C 12.367594 79.26852 12.37554 79.265491 12.384766 79.259766 C 12.403217 79.248314 12.424654 79.234069 12.451172 79.216797 C 12.504207 79.182252 12.577088 79.133646 12.666016 79.074219 C 12.843871 78.955364 13.085543 78.792498 13.349609 78.613281 C 13.875838 78.256149 14.873731 77.580996 15.566406 77.113281 C 16.259314 76.645417 17.963556 75.493604 19.355469 74.552734 C 20.050525 74.082904 20.688767 73.656721 21.15625 73.347656 C 21.366276 73.208803 21.528436 73.103277 21.658203 73.019531 C 21.781529 73.17009 21.952846 73.384193 22.166016 73.652344 C 22.600368 74.198725 23.192573 74.954809 23.837891 75.785156 L 26.1875 78.808594 A 0.37743271 0.37743271 0 0 0 26.486328 78.953125 L 27.394531 78.953125 C 27.752076 78.953125 27.976626 78.950117 28.138672 78.935547 C 28.219695 78.928262 28.277637 78.929556 28.386719 78.882812 C 28.44126 78.859442 28.534077 78.819213 28.599609 78.685547 C 28.665141 78.551881 28.625239 78.379591 28.582031 78.306641 C 28.542168 78.239345 28.554832 78.264015 28.542969 78.248047 C 28.531106 78.232079 28.515455 78.211073 28.496094 78.185547 C 28.457372 78.134495 28.40316 78.062769 28.333984 77.972656 C 28.195635 77.792431 27.99821 77.537586 27.757812 77.226562 C 27.277019 76.604516 26.621906 75.75743 25.90625 74.835938 C 25.191256 73.915296 24.540138 73.074113 24.070312 72.458984 C 23.842192 72.160312 23.661044 71.921485 23.53125 71.748047 C 23.633198 71.675147 23.735708 71.601285 23.886719 71.496094 C 24.291669 71.214012 24.852253 70.830616 25.46875 70.416016 C 27.974897 68.73061 29.671322 67.587309 30.751953 66.855469 C 31.292269 66.489548 31.678437 66.227959 31.935547 66.050781 C 32.064102 65.962193 32.159992 65.894496 32.228516 65.845703 C 32.262777 65.821307 32.289863 65.80213 32.3125 65.785156 C 32.335137 65.768182 32.341877 65.769452 32.388672 65.722656 C 32.468491 65.642862 32.525979 65.485717 32.521484 65.375 C 32.516989 65.264283 32.485867 65.192869 32.453125 65.121094 C 32.387642 64.977543 32.291332 64.827522 32.134766 64.589844 C 32.027214 64.426595 31.925601 64.278741 31.845703 64.167969 C 31.805754 64.112583 31.772665 64.067399 31.742188 64.029297 C 31.726948 64.010246 31.713449 63.993977 31.693359 63.972656 C 31.683315 63.961996 31.672545 63.949435 31.648438 63.929688 C 31.636383 63.919813 31.621931 63.907602 31.591797 63.890625 C 31.57673 63.882136 31.52966 63.863407 31.529297 63.863281 C 31.528934 63.863155 31.404577 63.841797 31.404297 63.841797 z M 51.449219 64.019531 A 0.37743271 0.37743271 0 0 0 51.085938 64.289062 C 51.085938 64.289062 50.705397 65.558599 50.300781 66.880859 C 50.098473 67.54199 49.889968 68.217098 49.720703 68.75 C 49.636071 69.016451 49.560926 69.246598 49.501953 69.421875 C 49.442981 69.597152 49.390541 69.73427 49.388672 69.738281 C 49.292646 69.944337 49.226907 70.202409 49.148438 70.490234 C 49.069967 70.778061 48.986988 71.084035 48.914062 71.294922 C 48.752525 71.762027 48.364063 72.882428 48.052734 73.783203 C 47.741684 74.683172 47.373447 75.745956 47.234375 76.142578 C 47.163 76.346145 46.94248 76.987061 46.736328 77.587891 C 46.633252 77.888305 46.533524 78.178332 46.458984 78.396484 C 46.421715 78.505561 46.389575 78.596198 46.367188 78.662109 C 46.344799 78.728021 46.342174 78.733892 46.326172 78.787109 C 46.326037 78.787558 46.314386 78.954637 46.314453 78.955078 C 46.31452 78.955519 46.364968 79.095269 46.365234 79.095703 C 46.3655 79.096137 46.433132 79.177308 46.433594 79.177734 C 46.434055 79.178161 46.470815 79.208795 46.486328 79.21875 C 46.548379 79.258568 46.577614 79.262792 46.601562 79.269531 C 46.649461 79.28301 46.674132 79.285204 46.705078 79.289062 C 46.766971 79.296781 46.835384 79.3025 46.916016 79.306641 C 47.077278 79.314921 47.284798 79.318983 47.492188 79.322266 C 47.906966 79.32883 48.320313 79.328125 48.320312 79.328125 A 0.37743271 0.37743271 0 0 0 48.681641 79.058594 L 49.421875 76.580078 C 49.506635 76.334664 49.835154 75.388537 50.173828 74.40625 C 51.067495 71.814246 51.410259 70.901498 51.544922 70.648438 C 52.23453 69.352481 53.060547 68.737738 54.630859 68.373047 C 54.645287 68.369699 54.927666 68.336208 55.248047 68.316406 C 55.568428 68.296605 55.96363 68.278794 56.345703 68.263672 C 56.834274 68.244334 57.016567 68.240452 57.291016 68.232422 L 55.042969 75.203125 A 0.37743271 0.37743271 0 0 0 55.404297 75.695312 L 56.621094 75.6875 A 0.37743271 0.37743271 0 0 0 56.978516 75.427734 L 59.320312 68.222656 C 60.550892 68.216904 61.692033 68.215174 62.496094 68.220703 C 62.881269 68.223352 63.168559 68.227378 63.402344 68.232422 C 63.398167 68.24501 63.396905 68.250666 63.392578 68.263672 C 63.295262 68.556157 63.160314 68.953505 63.011719 69.382812 C 62.713461 70.24452 62.436971 71.04915 62.384766 71.208984 C 62.170148 71.865765 61.395005 74.058082 61.259766 74.398438 A 0.37743271 0.37743271 0 0 0 61.257812 74.40625 L 59.650391 78.773438 A 0.37743271 0.37743271 0 0 0 59.994141 79.28125 L 61.382812 79.320312 A 0.37743271 0.37743271 0 0 0 61.742188 79.083984 C 61.742188 79.083984 62.39124 77.461852 63.224609 75.4375 C 63.365277 75.095802 63.703872 74.157331 63.998047 73.304688 C 64.944801 70.560616 65.65736 68.504918 65.916016 67.765625 C 66.056618 67.36376 66.205599 66.921005 66.255859 66.763672 L 66.341797 66.496094 A 0.37743271 0.37743271 0 0 0 65.982422 66.003906 L 60.958984 66.003906 C 59.459719 66.003906 58.133002 66.00974 57.128906 66.021484 C 56.155523 66.03287 55.549554 66.04674 55.271484 66.070312 C 55.269707 66.070207 55.267404 66.070415 55.265625 66.070312 C 54.610126 66.032674 53.801365 66.259761 53.082031 66.527344 C 52.844195 66.615816 52.65156 66.710428 52.449219 66.804688 L 53.099609 64.501953 A 0.37743271 0.37743271 0 0 0 52.738281 64.023438 L 51.449219 64.019531 z M 39.023438 64.035156 A 0.37743271 0.37743271 0 0 0 38.833984 64.083984 C 38.833984 64.083984 37.899818 64.616325 36.931641 65.169922 C 36.447552 65.446721 35.955359 65.728797 35.566406 65.953125 C 35.177454 66.177453 34.918574 66.326498 34.810547 66.396484 A 0.37743271 0.37743271 0 0 0 34.658203 66.59375 L 33.658203 69.583984 L 30.701172 69.583984 A 0.37743271 0.37743271 0 0 0 30.341797 69.845703 L 29.886719 71.253906 A 0.37743271 0.37743271 0 0 0 30.246094 71.746094 L 33.076172 71.746094 L 32.064453 74.511719 A 0.37743271 0.37743271 0 0 0 32.060547 74.519531 C 32.060547 74.519531 31.762069 75.393979 31.498047 76.154297 C 31.233442 76.916292 30.96519 77.691014 30.898438 77.886719 C 30.834253 78.074823 30.75836 78.289374 30.744141 78.326172 C 30.729024 78.365136 30.703873 78.436541 30.71875 78.537109 C 30.733627 78.637678 30.803802 78.74102 30.865234 78.791016 C 30.988099 78.891007 31.054376 78.8847 31.125 78.896484 C 31.266249 78.920052 31.44392 78.927762 31.775391 78.935547 C 32.43833 78.951117 33.68541 78.953125 36.054688 78.953125 C 37.244112 78.953125 43.268579 78.946693 44.15625 78.939453 A 0.37743271 0.37743271 0 0 0 44.529297 78.5625 L 44.529297 77.09375 A 0.37743271 0.37743271 0 0 0 44.148438 76.716797 C 43.612708 76.720982 38.339504 76.729985 37.503906 76.734375 C 35.169466 76.746672 34.096145 76.753258 33.630859 76.720703 C 33.670696 76.6105 33.704308 76.517583 33.785156 76.287109 C 33.900947 75.957026 34.051393 75.527004 34.207031 75.076172 C 34.487586 74.263501 35.353018 72.05933 35.476562 71.744141 L 45.625 71.667969 A 0.37743271 0.37743271 0 0 0 45.984375 71.402344 L 46.398438 70.064453 A 0.37743271 0.37743271 0 0 0 46.398438 70.0625 A 0.37743271 0.37743271 0 0 0 46.398438 70.060547 L 48.023438 64.550781 C 48.023662 64.550015 48.021714 64.326892 48.021484 64.326172 C 48.021255 64.325451 47.928408 64.172551 47.927734 64.171875 C 47.927061 64.171199 47.868153 64.122212 47.845703 64.109375 C 47.823253 64.096538 47.806065 64.0898 47.791016 64.083984 C 47.730818 64.060722 47.704141 64.058365 47.677734 64.054688 C 47.624921 64.047331 47.58293 64.046413 47.53125 64.044922 C 47.42789 64.04194 47.299861 64.044201 47.162109 64.046875 C 46.886607 64.052223 46.567641 64.062852 46.427734 64.0625 C 44.424426 64.057903 39.023437 64.035156 39.023438 64.035156 z M 73.435547 64.974609 A 0.37743271 0.37743271 0 0 0 73.15625 64.986328 C 73.037389 65.039645 72.91042 65.09527 72.779297 65.162109 C 71.134779 66.000381 69.867115 67.508364 69.007812 69.595703 C 68.867146 69.937403 68.528551 70.875875 68.234375 71.728516 C 67.28757 74.472739 66.576821 76.528839 66.318359 77.267578 C 66.17812 77.668404 66.027745 78.109308 65.976562 78.269531 L 65.890625 78.537109 A 0.37743271 0.37743271 0 0 0 66.25 79.029297 L 71.273438 79.029297 C 72.772704 79.029297 74.09942 79.023463 75.103516 79.011719 C 76.107611 78.999974 76.756304 78.985998 77.019531 78.960938 C 79.757183 78.700214 81.709794 77.416595 82.769531 75.142578 C 82.916586 74.827035 83.154218 74.218578 83.320312 73.738281 C 83.482148 73.2703 83.868516 72.150316 84.179688 71.25 C 84.490735 70.350034 84.858974 69.287234 84.998047 68.890625 C 85.138266 68.490715 85.25187 68.167967 85.287109 68.050781 C 85.287244 68.050333 85.302738 67.938124 85.302734 67.9375 C 85.302731 67.936876 85.299794 67.889712 85.296875 67.873047 C 85.291038 67.839718 85.284853 67.820218 85.279297 67.804688 C 85.268184 67.773624 85.259997 67.757833 85.251953 67.742188 C 85.235866 67.710894 85.220658 67.686311 85.203125 67.658203 C 85.168058 67.601988 85.12355 67.53608 85.070312 67.458984 C 84.963839 67.304794 84.824033 67.109019 84.683594 66.916016 C 84.402715 66.530007 84.121094 66.152344 84.121094 66.152344 A 0.37743271 0.37743271 0 0 0 83.457031 66.271484 L 82.810547 68.453125 C 82.725278 68.700095 82.399077 69.645082 82.060547 70.626953 C 81.166911 73.218853 80.822419 74.133163 80.6875 74.386719 C 79.997969 75.682541 79.172154 76.295398 77.601562 76.660156 C 77.329533 76.723287 77.196856 76.748916 76.5625 76.769531 C 75.928144 76.790146 74.824293 76.799174 72.712891 76.810547 C 71.351934 76.817891 70.254612 76.818498 69.5 76.8125 C 69.207209 76.810173 69.013936 76.806904 68.830078 76.802734 C 68.834486 76.789516 68.835269 76.783211 68.839844 76.769531 C 68.937688 76.476919 69.073977 76.07994 69.222656 75.650391 C 69.52108 74.788204 69.796448 73.981001 69.847656 73.824219 C 70.062275 73.16744 70.837416 70.975121 70.972656 70.634766 C 71.29737 69.817598 71.522198 69.200679 71.785156 68.726562 C 72.048115 68.252447 72.336185 67.915229 72.841797 67.587891 A 0.37743271 0.37743271 0 0 0 72.992188 67.396484 C 73.216415 66.754375 73.469419 66.12947 73.671875 65.435547 A 0.37743271 0.37743271 0 0 0 73.435547 64.974609 z M 45.421875 66.244141 L 44.300781 69.578125 L 36.132812 69.585938 C 36.169151 69.471758 36.173339 69.456564 36.214844 69.326172 C 36.335028 68.948603 36.471816 68.525484 36.462891 68.552734 C 36.456631 68.571851 36.482259 68.500807 36.513672 68.421875 C 36.545084 68.342943 36.586114 68.238041 36.632812 68.113281 C 36.709719 67.907824 36.800597 67.630501 36.882812 67.349609 C 36.995685 67.289956 37.383256 67.085552 37.882812 66.820312 C 38.166731 66.669568 38.450394 66.518862 38.664062 66.404297 C 38.770897 66.347015 38.859993 66.298567 38.923828 66.263672 C 38.931167 66.25966 38.934751 66.257561 38.941406 66.253906 C 38.977131 66.253707 39.014229 66.252146 39.070312 66.251953 C 39.216465 66.251451 39.42597 66.252407 39.685547 66.251953 C 40.2047 66.251046 40.91863 66.248811 41.689453 66.248047 C 43.040869 66.246707 44.430548 66.245354 45.421875 66.244141 z " /></svg>
