<!-- Created with Inkscape (http://www.inkscape.org/) -->
<svg xmlns:dc="http://purl.org/dc/elements/1.1/" xmlns:cc="http://creativecommons.org/ns#" xmlns:rdf="http://www.w3.org/1999/02/22-rdf-syntax-ns#" xmlns:svg="http://www.w3.org/2000/svg" xmlns="http://www.w3.org/2000/svg" xmlns:xlink="http://www.w3.org/1999/xlink" xmlns:sodipodi="http://sodipodi.sourceforge.net/DTD/sodipodi-0.dtd" xmlns:inkscape="http://www.inkscape.org/namespaces/inkscape" width="48px" height="48px" id="svg19807" version="1.1" inkscape:version="0.48.4 r9939" sodipodi:docname="folder-video.svg">
  <defs id="defs19809">
    <linearGradient inkscape:collect="always" xlink:href="#linearGradient3454-2-8-6-1-1-8-0" id="linearGradient3381-56-2-7-5-0-8-0" gradientUnits="userSpaceOnUse" gradientTransform="matrix(0.89189031,0,0,1.0580283,3.1206609,5.3536023)" x1="42.470848" y1="11.952797" x2="42.470848" y2="35.581654"/>
    <linearGradient id="linearGradient3454-2-8-6-1-1-8-0">
      <stop offset="0" style="stop-color:#ffffff;stop-opacity:1" id="stop3456-4-7-9-4-0-3-6"/>
      <stop offset="0.0097359" style="stop-color:#ffffff;stop-opacity:0.23529412" id="stop3458-39-0-8-61-3-8-9"/>
      <stop offset="0.99001008" style="stop-color:#ffffff;stop-opacity:0.15686275" id="stop3460-7-5-4-1-6-6-6"/>
      <stop offset="1" style="stop-color:#ffffff;stop-opacity:0.39215687" id="stop3462-0-5-6-6-2-1-6"/>
    </linearGradient>
    <linearGradient inkscape:collect="always" xlink:href="#linearGradient6129-963-697-142-998-580-273-0-8-4-9-0-0" id="linearGradient3072-0-3-0-7-4-8" gradientUnits="userSpaceOnUse" gradientTransform="matrix(1.1446925,0,0,0.9977536,-3.4660853,1.0988283)" x1="22.934725" y1="49.629246" x2="22.809399" y2="36.657963"/>
    <linearGradient id="linearGradient6129-963-697-142-998-580-273-0-8-4-9-0-0">
      <stop id="stop2661-3-02-4-8-0-4" style="stop-color:#0a0a0a;stop-opacity:0.498" offset="0"/>
      <stop id="stop2663-2-8-06-2-4-6" style="stop-color:#0a0a0a;stop-opacity:0" offset="1"/>
    </linearGradient>
    <linearGradient inkscape:collect="always" xlink:href="#linearGradient4632-0-6-4" id="linearGradient4638-4-6-8-9-9-5" x1="35.792694" y1="17.118193" x2="35.792694" y2="43.761127" gradientUnits="userSpaceOnUse" gradientTransform="matrix(1,0,0,1.0357143,1.4680025e-5,-1.5891017)"/>
    <linearGradient id="linearGradient4632-0-6-4">
      <stop style="stop-color:#a2b6da;stop-opacity:1;" offset="0" id="stop4634-4-4-7"/>
      <stop style="stop-color:#3650b8;stop-opacity:1;" offset="1" id="stop4636-3-1-5"/>
    </linearGradient>
    <radialGradient inkscape:collect="always" xlink:href="#linearGradient5060-820-9-0-7-1-7-7" id="radialGradient3080-2-3-9-9-8-8" gradientUnits="userSpaceOnUse" gradientTransform="matrix(-0.03079083,0,0,0.02470588,23.389816,31.941628)" cx="605.71429" cy="486.64789" fx="605.71429" fy="486.64789" r="117.14286"/>
    <linearGradient id="linearGradient5060-820-9-0-7-1-7-7">
      <stop id="stop2681-5-4-3-6-3-8" style="stop-color:#000000;stop-opacity:1" offset="0"/>
      <stop id="stop2683-8-6-9-4-6-6" style="stop-color:#000000;stop-opacity:0" offset="1"/>
    </linearGradient>
    <radialGradient inkscape:collect="always" xlink:href="#linearGradient5060-179-2-0-3-6-2-2" id="radialGradient3083-4-5-6-4-5-0" gradientUnits="userSpaceOnUse" gradientTransform="matrix(0.03079083,0,0,0.02470588,24.610216,31.941628)" cx="605.71429" cy="486.64789" fx="605.71429" fy="486.64789" r="117.14286"/>
    <linearGradient id="linearGradient5060-179-2-0-3-6-2-2">
      <stop id="stop2675-9-9-4-1-4-4" style="stop-color:#000000;stop-opacity:1" offset="0"/>
      <stop id="stop2677-1-7-2-6-1-8" style="stop-color:#000000;stop-opacity:0" offset="1"/>
    </linearGradient>
    <linearGradient inkscape:collect="always" xlink:href="#linearGradient5048-585-4-0-56-2-5-2" id="linearGradient3086-4-4-0-5-5-7" gradientUnits="userSpaceOnUse" gradientTransform="matrix(0.07938856,0,0,0.02470588,-4.6932853,31.941628)" x1="302.85715" y1="366.64789" x2="302.85715" y2="609.50507"/>
    <linearGradient id="linearGradient5048-585-4-0-56-2-5-2">
      <stop id="stop2667-5-0-7-4-7-7" style="stop-color:#000000;stop-opacity:0" offset="0"/>
      <stop id="stop2669-4-1-8-0-6-9" style="stop-color:#000000;stop-opacity:1" offset="0.5"/>
      <stop id="stop2671-2-6-3-2-0-6" style="stop-color:#000000;stop-opacity:0" offset="1"/>
    </linearGradient>
    <linearGradient inkscape:collect="always" xlink:href="#linearGradient4507-9-2-2-3-6-9" id="linearGradient3381-5-5-29-4-6-5-0" gradientUnits="userSpaceOnUse" gradientTransform="matrix(0.89189031,0,0,1.0580283,3.1207147,5.3535883)" x1="21.37039" y1="4.2476678" x2="21.37039" y2="34.143417"/>
    <linearGradient id="linearGradient4507-9-2-2-3-6-9">
      <stop id="stop4509-9-8-4-2-3-4" style="stop-color:#ffffff;stop-opacity:1" offset="0"/>
      <stop id="stop4511-7-50-2-1-3-9" style="stop-color:#ffffff;stop-opacity:0.23529412" offset="0.07395859"/>
      <stop id="stop4513-2-0-2-9-2-6" style="stop-color:#ffffff;stop-opacity:0.15686275" offset="0.99001008"/>
      <stop id="stop4515-3-9-8-6-6-0" style="stop-color:#ffffff;stop-opacity:0.39215687" offset="1"/>
    </linearGradient>
    <linearGradient inkscape:collect="always" xlink:href="#linearGradient4646-6-91-5-0-5-8" id="linearGradient3089-5-2-9-8-6-8-0-7" gradientUnits="userSpaceOnUse" gradientTransform="translate(-50.940889,-1.169178e-5)" x1="62.988873" y1="13" x2="62.988873" y2="16"/>
    <linearGradient id="linearGradient4646-6-91-5-0-5-8">
      <stop offset="0" style="stop-color:#f9f9f9;stop-opacity:1" id="stop4648-2-4-6-6-8-7"/>
      <stop offset="1" style="stop-color:#d8d8d8;stop-opacity:1" id="stop4650-3-8-5-3-4-5"/>
    </linearGradient>
    <linearGradient id="linearGradient3104-8-8-97-4-6-2-0-1-4-0-5">
      <stop offset="0" style="stop-color:#000000;stop-opacity:0.32173914" id="stop3106-5-4-3-5-0-1-61-9-2-7-3"/>
      <stop offset="1" style="stop-color:#000000;stop-opacity:0.27826086" id="stop3108-4-3-7-8-2-4-01-9-9-0-6"/>
    </linearGradient>
    <linearGradient y2="3.6336823" x2="-51.786404" y1="53.514328" x1="-51.786404" gradientTransform="matrix(0.80749834,0,0,0.83374395,106.87671,-0.06985169)" gradientUnits="userSpaceOnUse" id="linearGradient19805" xlink:href="#linearGradient3104-8-8-97-4-6-2-0-1-4-0-5" inkscape:collect="always"/>
    <linearGradient gradientUnits="userSpaceOnUse" y2="44.067593" x2="21.135593" y1="16.262911" x1="21.135593" id="linearGradient3833" xlink:href="#linearGradient7012-661-145-733-759-865-745" inkscape:collect="always"/>
    <linearGradient gradientTransform="matrix(7.9388558e-2,0,0,2.4705883e-2,-4.693293,31.941642)" gradientUnits="userSpaceOnUse" xlink:href="#linearGradient5048-585" id="linearGradient2467" y2="609.50507" x2="302.85715" y1="366.64789" x1="302.85715"/>
    <radialGradient gradientTransform="matrix(3.0790832e-2,0,0,2.4705883e-2,24.610252,31.941642)" gradientUnits="userSpaceOnUse" xlink:href="#linearGradient5060-179" id="radialGradient2464" fy="486.64789" fx="605.71429" r="117.14286" cy="486.64789" cx="605.71429"/>
    <radialGradient gradientTransform="matrix(-3.0790825e-2,0,0,2.4705883e-2,23.389748,31.941642)" gradientUnits="userSpaceOnUse" xlink:href="#linearGradient5060-820" id="radialGradient2461" fy="486.64789" fx="605.71429" r="117.14286" cy="486.64789" cx="605.71429"/>
    <radialGradient gradientTransform="matrix(-1.274898e-8,1.7142916,-2.159331,-1.4599595e-8,12.809361,2.8570011)" gradientUnits="userSpaceOnUse" xlink:href="#linearGradient3484" id="radialGradient2452" fy="5.01718" fx="3" r="21" cy="5.01718" cx="3"/>
    <linearGradient gradientTransform="translate(-50.940898,0)" gradientUnits="userSpaceOnUse" xlink:href="#linearGradient6404" id="linearGradient2450" y2="16.19013" x2="62.988873" y1="13.182598" x1="62.988873"/>
    <linearGradient gradientTransform="translate(-53.765393,-0.1141929)" gradientUnits="userSpaceOnUse" xlink:href="#linearGradient3390" id="linearGradient2443" y2="16.047026" x2="82.453476" y1="45.114193" x1="82.453476"/>
    <radialGradient gradientTransform="matrix(1.5646925,-9.5143002e-8,6.1772287e-8,1.015888,-86.212573,8.1461173)" gradientUnits="userSpaceOnUse" xlink:href="#linearGradient7012-661-145-733-759-865-745" id="radialGradient2441" fy="14.113381" fx="63.969177" r="23.097054" cy="14.113381" cx="63.969177"/>
    <linearGradient gradientTransform="matrix(1.1446925,0,0,0.9977536,-3.4661413,1.0988425)" gradientUnits="userSpaceOnUse" xlink:href="#linearGradient6129-963-697-142-998-580-273" id="linearGradient2438" y2="36.657963" x2="22.809399" y1="49.629246" x1="22.934725"/>
    <radialGradient gradientTransform="matrix(0,1.2079744,-1.6271642,0,26.371748,8.2664685)" gradientUnits="userSpaceOnUse" xlink:href="#linearGradient6087-437-184-795-110-662-495" id="radialGradient2435" fy="8.3021259" fx="7.2646537" r="20.979567" cy="8.3021259" cx="7.2646537"/>
    <linearGradient gradientUnits="userSpaceOnUse" xlink:href="#linearGradient8265-821-176-38-919-66-249" id="linearGradient2432" y2="33.95525" x2="15.214532" y1="22.292103" x1="11.566265"/>
    <linearGradient id="linearGradient8265-821-176-38-919-66-249">
      <stop offset="0" style="stop-color:#ffffff;stop-opacity:0.2" id="stop2687"/>
      <stop offset="1" style="stop-color:#ffffff;stop-opacity:0" id="stop2689"/>
    </linearGradient>
    <linearGradient id="linearGradient6087-437-184-795-110-662-495">
      <stop offset="0" style="stop-color:#ffffff;stop-opacity:0.40000001" id="stop2693"/>
      <stop offset="1" style="stop-color:#ffffff;stop-opacity:0" id="stop2695"/>
    </linearGradient>
    <linearGradient id="linearGradient6129-963-697-142-998-580-273">
      <stop offset="0" style="stop-color:#0a0a0a;stop-opacity:0.498" id="stop2661"/>
      <stop offset="1" style="stop-color:#0a0a0a;stop-opacity:0" id="stop2663"/>
    </linearGradient>
    <linearGradient id="linearGradient7012-661-145-733-759-865-745">
      <stop offset="0" style="stop-color:#aacb7d;stop-opacity:1" id="stop2699"/>
      <stop offset="1" style="stop-color:#709937;stop-opacity:1" id="stop2701"/>
    </linearGradient>
    <linearGradient id="linearGradient3390">
      <stop offset="0" style="stop-color:#51751e;stop-opacity:1" id="stop3392"/>
      <stop offset="1" style="stop-color:#51751e;stop-opacity:1" id="stop3394"/>
    </linearGradient>
    <linearGradient id="linearGradient5048-585">
      <stop offset="0" style="stop-color:#000000;stop-opacity:0" id="stop2667"/>
      <stop offset="0.5" style="stop-color:#000000;stop-opacity:1" id="stop2669"/>
      <stop offset="1" style="stop-color:#000000;stop-opacity:0" id="stop2671"/>
    </linearGradient>
    <linearGradient id="linearGradient5060-179">
      <stop offset="0" style="stop-color:#000000;stop-opacity:1" id="stop2675"/>
      <stop offset="1" style="stop-color:#000000;stop-opacity:0" id="stop2677"/>
    </linearGradient>
    <linearGradient id="linearGradient5060-820">
      <stop offset="0" style="stop-color:#000000;stop-opacity:1" id="stop2681"/>
      <stop offset="1" style="stop-color:#000000;stop-opacity:0" id="stop2683"/>
    </linearGradient>
    <linearGradient id="linearGradient6404">
      <stop offset="0" style="stop-color:#f9f9f9;stop-opacity:1" id="stop6406"/>
      <stop offset="1" style="stop-color:#c9c9c9;stop-opacity:1" id="stop6408"/>
    </linearGradient>
    <linearGradient id="linearGradient3484">
      <stop offset="0" style="stop-color:#bdbdbd;stop-opacity:1" id="stop3486"/>
      <stop offset="1" style="stop-color:#d0d0d0;stop-opacity:1" id="stop3488"/>
    </linearGradient>
    <linearGradient gradientTransform="matrix(2.5447729,0,0,2.8624253,35.231977,15.732168)" gradientUnits="userSpaceOnUse" xlink:href="#linearGradient3576" id="linearGradient3658" y2="9.8754826" x2="3.0525408" y1="2.189693" x1="3.0525408"/>
    <linearGradient id="linearGradient3576">
      <stop offset="0" style="stop-color:#9fbad6;stop-opacity:1" id="stop3578"/>
      <stop offset="1" style="stop-color:#587b9f;stop-opacity:1" id="stop3580"/>
    </linearGradient>
    <linearGradient gradientTransform="matrix(2.5447729,0,0,2.8624253,17.231977,15.732168)" gradientUnits="userSpaceOnUse" xlink:href="#linearGradient3576" id="linearGradient3642" y2="9.8754826" x2="3.0525408" y1="2.189693" x1="3.0525408"/>
    <linearGradient gradientTransform="matrix(1.2108499,0,0,1.1790292,18.082975,19.376465)" gradientUnits="userSpaceOnUse" xlink:href="#linearGradient3522" id="linearGradient2763" y2="21.467987" x2="12.872127" y1="5.0561161" x1="12.872127"/>
    <linearGradient id="linearGradient3522">
      <stop offset="0" style="stop-color:#81aac3;stop-opacity:1" id="stop3524"/>
      <stop offset="1" style="stop-color:#4e82a3;stop-opacity:1" id="stop3526"/>
    </linearGradient>
    <linearGradient gradientTransform="matrix(0.03816858,0,0,0.01509651,20.237967,38.732952)" gradientUnits="userSpaceOnUse" xlink:href="#linearGradient5048" id="linearGradient2868" y2="609.50507" x2="302.85715" y1="366.64789" x1="302.85715"/>
    <linearGradient id="linearGradient5048">
      <stop offset="0" style="stop-color:#000000;stop-opacity:0" id="stop5050"/>
      <stop offset="0.5" style="stop-color:#000000;stop-opacity:1" id="stop5056"/>
      <stop offset="1" style="stop-color:#000000;stop-opacity:0" id="stop5052"/>
    </linearGradient>
    <radialGradient gradientTransform="matrix(0.03816858,0,0,0.01509651,20.245478,38.732952)" gradientUnits="userSpaceOnUse" xlink:href="#linearGradient5060" id="radialGradient2865" fy="486.64789" fx="605.71429" r="117.14286" cy="486.64789" cx="605.71429"/>
    <linearGradient id="linearGradient5060">
      <stop offset="0" style="stop-color:#000000;stop-opacity:1" id="stop5062"/>
      <stop offset="1" style="stop-color:#000000;stop-opacity:0" id="stop5064"/>
    </linearGradient>
    <radialGradient gradientTransform="matrix(-0.03816858,0,0,0.01509651,47.820891,38.732952)" gradientUnits="userSpaceOnUse" xlink:href="#linearGradient5060" id="radialGradient2862" fy="486.64789" fx="605.71429" r="117.14286" cy="486.64789" cx="605.71429"/>
  </defs>
  <sodipodi:namedview id="base" pagecolor="#ffffff" bordercolor="#666666" borderopacity="1.0" inkscape:pageopacity="0.0" inkscape:pageshadow="2" inkscape:zoom="7" inkscape:cx="15.322938" inkscape:cy="24" inkscape:current-layer="layer1" showgrid="true" inkscape:grid-bbox="true" inkscape:document-units="px" inkscape:window-width="712" inkscape:window-height="414" inkscape:window-x="158" inkscape:window-y="206" inkscape:window-maximized="0"/>
  <metadata id="metadata19812">
    <rdf:RDF>
      <cc:Work rdf:about="">
        <dc:format>image/svg+xml</dc:format>
        <dc:type rdf:resource="http://purl.org/dc/dcmitype/StillImage"/>
        <dc:title/>
      </cc:Work>
    </rdf:RDF>
  </metadata>
  <g id="layer1" inkscape:label="Layer 1" inkscape:groupmode="layer">
    <path inkscape:connector-curvature="0" style="opacity:0.8;color:#000000;fill:none;stroke:url(#linearGradient19805);stroke-width:1;stroke-linecap:butt;stroke-linejoin:miter;stroke-miterlimit:4;stroke-opacity:1;stroke-dasharray:none;stroke-dashoffset:0;marker:none;visibility:visible;display:inline;overflow:visible;enable-background:accumulate" d="m 5.5000147,8.4999883 c -0.554,0 -1,0.446 -1,1 l 0,1.9999997 -1,0 c -0.554,0 -1,0.446 -1,1 l 0,6 c 0,0.554 0.446,1 1,1 l 41.0000013,0 c 0.554,0 1,-0.446 1,-1 l 0,-6 c 0,-0.554 -0.446,-1 -1,-1 l -23,0 0,-1.9999997 c 0,-0.554 -0.446,-1 -1,-1 l -15.0000013,0 z" id="rect4251-0-0-1-1-9-5-2"/>
    <path inkscape:connector-curvature="0" style="color:#000000;fill:url(#linearGradient3089-5-2-9-8-6-8-0-7);fill-opacity:1;fill-rule:nonzero;stroke:none;stroke-width:0.99992168;marker:none;visibility:visible;display:inline;overflow:visible;enable-background:accumulate" d="m 5.5000147,8.9999883 c -0.277,0 -0.5,0.223 -0.5,0.5 l 0,2.4999997 -1.5,0 c -0.277,0 -0.5,0.223 -0.5,0.5 l 0,6 c 0,0.277 0.223,0.5 0.5,0.5 l 41.0000013,0 c 0.277,0 0.5,-0.223 0.5,-0.5 l 0,-6 c 0,-0.277 -0.223,-0.5 -0.5,-0.5 l -23.5,0 0,-2.4999997 c 0,-0.277 -0.223,-0.5 -0.5,-0.5 l -15.0000013,0 z" id="rect4251-4-7-62-4-4-9"/>
    <path inkscape:connector-curvature="0" style="color:#000000;fill:none;stroke:url(#linearGradient3381-5-5-29-4-6-5-0);stroke-width:1;stroke-linecap:round;stroke-linejoin:round;stroke-miterlimit:4;stroke-opacity:1;stroke-dasharray:none;stroke-dashoffset:0;marker:none;visibility:visible;display:inline;overflow:visible;enable-background:accumulate" d="m 5.5000147,9.4999883 0,2.9999997 -2,0 0,7 41.0000013,0 0,-7 -24,0 0,-2.9999997 -15.0000013,0 z" id="rect4251-9-9-0-05-2-0-5"/>
    <rect style="opacity:0.3;fill:url(#linearGradient3086-4-4-0-5-5-7);fill-opacity:1;fill-rule:nonzero;stroke:none;stroke-width:1;marker:none;visibility:visible;display:inline;overflow:visible" id="rect4173-6-7-7-3-5-1" y="41" x="4.8333774" height="6.0000005" width="38.333332"/>
    <path style="opacity:0.3;fill:url(#radialGradient3083-4-5-6-4-5-0);fill-opacity:1;fill-rule:nonzero;stroke:none;stroke-width:1;marker:none;visibility:visible;display:inline;overflow:visible" id="path5058-7-9-1-3-0-3" inkscape:connector-curvature="0" d="m 43.166716,41.000198 c 0,0 0,5.99967 0,5.99967 1.5856,0.0113 3.8333,-1.34422 3.8333,-3.00022 0,-1.656 -1.7695,-2.99945 -3.8333,-2.99945 z"/>
    <path style="opacity:0.3;fill:url(#radialGradient3080-2-3-9-9-8-8);fill-opacity:1;fill-rule:nonzero;stroke:none;stroke-width:1;marker:none;visibility:visible;display:inline;overflow:visible" id="path5018-8-1-1-6-9-4" inkscape:connector-curvature="0" d="m 4.8333147,41.000198 c 0,0 0,5.99967 0,5.99967 -1.5856,0.0113 -3.8333,-1.34422 -3.8333,-3.00022 0,-1.656 1.7695,-2.99945 3.8333,-2.99945 z"/>
    <path style="fill:url(#linearGradient4638-4-6-8-9-9-5);fill-opacity:1;stroke:none" id="path3388-1-43-0-7-6-2" inkscape:connector-curvature="0" d="m 2.1626147,15.500178 c -1.0723,0.12829 -0.4996,1.45416 -0.5851,2.19974 0.1245,0.48182 0.9275,26.17643 0.9275,26.17643 0,0.7414 0.3517,0.61579 1.2429,0.61579 13.1886013,0 27.7726013,0 40.9611013,0 0.9601,0.0231 0.7572,0.0121 0.7572,-0.62748 0,0 0.993,-27.35421 1.0285,-27.7811 0,-0.44949 0.09,-0.58338 -0.4732,-0.58338 -14.084,0 -29.7748,0 -43.8589013,0 z" sodipodi:nodetypes="ccsscccsc"/>
    <path style="opacity:0.4;fill:url(#linearGradient3072-0-3-0-7-4-8);fill-opacity:1;stroke:none" id="path6127-7-1-6-4-8-5" inkscape:connector-curvature="0" d="m 2.0582147,16.065138 43.8965013,4e-4 c 0.6342,0 1.0452,0.44461 1.0452,0.99737 l -1.0324,26.96037 c 0.015,0.6994 -0.2091,0.97671 -0.9459,0.96204 l -41.7808013,-0.0176 c -0.6341,0 -1.2736,-0.41276 -1.2736,-0.96551 l -0.9541,-26.93932 c 0,-0.55276 0.411,-0.99775 1.0451,-0.99775 z"/>
    <path sodipodi:type="inkscape:offset" inkscape:radius="-1.0151105" inkscape:original="M 2.15625 16.5 C 1.0839484 16.623862 1.6479947 17.905133 1.5625 18.625 C 1.6869357 19.090206 2.5 43.90625 2.5 43.90625 C 2.5 44.622082 2.8587963 44.5 3.75 44.5 L 44.71875 44.5 C 45.67883 44.52232 45.46875 44.492483 45.46875 43.875 C 45.46875 43.875 46.464479 17.474672 46.5 17.0625 C 46.5 16.628509 46.594572 16.5 46.03125 16.5 L 2.15625 16.5 z " style="opacity:0.5;color:#000000;fill:none;stroke:url(#linearGradient3381-56-2-7-5-0-8-0);stroke-width:0.98133707;stroke-linecap:round;stroke-linejoin:miter;stroke-miterlimit:4;stroke-opacity:1;stroke-dasharray:none;stroke-dashoffset:0;marker:none;visibility:visible;display:inline;overflow:visible;enable-background:accumulate" id="path4587-4-6-3-0-1-2" d="m 2.5,17.5 c 0.016793,0.176427 0.022163,0.517935 0.03125,0.875 0.023112,0.08641 0.025524,0.05923 0.03125,0.09375 0.011058,0.06665 0.027034,0.138257 0.03125,0.1875 0.0064,0.07474 -0.00668,0.173042 0,0.28125 0.013352,0.216416 0.045306,0.510844 0.0625,0.875 0.034388,0.728313 0.078083,1.708883 0.125,2.90625 0.093834,2.394734 0.2030642,5.55569 0.3125,8.6875 C 3.3060459,37.481691 3.4883163,43.143759 3.5,43.5 c 0.1225025,0.0036 0.071108,0 0.25,0 l 40.71875,0 c 0.0124,-0.328836 0.253182,-6.426721 0.5,-12.90625 0.126691,-3.325928 0.245386,-6.68527 0.34375,-9.21875 0.04918,-1.26674 0.09434,-2.331501 0.125,-3.09375 0.01322,-0.328618 0.02246,-0.572975 0.03125,-0.78125 L 2.5,17.5 z" transform="matrix(1,0,0,1.0383977,1.4680025e-5,-1.6703717)"/>
    <path style="opacity:0.3;fill:none;stroke:#000000;stroke-width:1;stroke-linecap:round;stroke-linejoin:round;stroke-miterlimit:4;stroke-opacity:1;stroke-dashoffset:0" id="path3388-1-43-0-7-6-2-9" inkscape:connector-curvature="0" d="m 2.1626147,15.500178 c -1.0723,0.12829 -0.4996,1.45416 -0.5851,2.19974 0.1245,0.48182 0.9275,26.17643 0.9275,26.17643 0,0.7414 0.3517,0.61579 1.2429,0.61579 13.1886013,0 27.7726013,0 40.9611013,0 0.9601,0.0231 0.7572,0.0121 0.7572,-0.62748 0,0 0.993,-27.35421 1.0285,-27.7811 0,-0.44949 0.09,-0.58338 -0.4732,-0.58338 -14.084,0 -29.7748,0 -43.8589013,0 z" sodipodi:nodetypes="ccsscccsc"/>
    <g id="g3063" transform="translate(1.2767501e-8,2.2774502e-6)">
      <g transform="matrix(0.9307775,0,0,0.979386,1.3226808,1.0537664)" id="g2872" style="opacity:0.4">
        <rect width="18.429968" height="3.6662951" x="24.818197" y="44.268055" id="rect2768" style="opacity:0.40206185;fill:url(#linearGradient2868);fill-opacity:1;fill-rule:nonzero;stroke:none;stroke-width:1;marker:none;visibility:visible;display:inline;overflow:visible"/>
        <path d="m 43.248167,44.268181 c 0,0 0,3.666092 0,3.666092 1.965587,0.0069 4.751834,-0.821384 4.751833,-1.833282 0,-1.011896 -2.193448,-1.83281 -4.751833,-1.83281 z" id="path2770" style="opacity:0.40206185;fill:url(#radialGradient2865);fill-opacity:1;fill-rule:nonzero;stroke:none;stroke-width:1;marker:none;visibility:visible;display:inline;overflow:visible" inkscape:connector-curvature="0"/>
        <path d="m 24.818197,44.268181 c 0,0 0,3.666092 0,3.666092 -1.965588,0.0069 -4.751834,-0.821384 -4.751834,-1.833282 0,-1.011896 2.193447,-1.83281 4.751834,-1.83281 z" id="path2772" style="opacity:0.40206185;fill:url(#radialGradient2862);fill-opacity:1;fill-rule:nonzero;stroke:none;stroke-width:1;marker:none;visibility:visible;display:inline;overflow:visible" inkscape:connector-curvature="0"/>
        <rect width="1.1348009" height="1.1327641" x="24.272263" y="43.850159" id="rect3482" style="fill:#ffffff;fill-opacity:1;stroke:none"/>
        <rect width="1.1348009" height="1.1327641" x="42.65604" y="43.850159" id="rect2579" style="fill:#ffffff;fill-opacity:1;stroke:none"/>
      </g>
      <path d="m 25.5,45.499661 c -0.958616,0 -1.917233,0 -2.875849,0 -0.233002,-0.296005 -0.05582,-0.883697 -0.111186,-1.30275 0,-7.850971 0,-15.701949 0,-23.552922 l 0.03249,-0.101665 0.07869,-0.04198 0,0 c 0.997725,0 1.839016,0 2.836742,0" id="path3570" style="fill:#4d4d4d;fill-opacity:1;fill-rule:nonzero;stroke:#333333;stroke-width:1;stroke-linecap:butt;stroke-linejoin:round;stroke-miterlimit:4;stroke-opacity:1;stroke-dasharray:none;stroke-dashoffset:0;marker:none;visibility:visible;display:block;overflow:visible" inkscape:connector-curvature="0"/>
      <path d="m 40.5,20.5 c 0.967227,0 1.930316,0 2.886179,0 0.135691,0 0.11228,0.785325 0.11228,1.302781 0,7.851187 2e-6,15.702373 2e-6,23.553562 0,0.134055 -0.443979,0.143657 -1.018269,0.143657 -0.651966,0 -1.30393,0 -1.955895,0" id="path2702" style="fill:#4d4d4d;fill-opacity:1;fill-rule:nonzero;stroke:#333333;stroke-width:0.99999994;stroke-linecap:butt;stroke-linejoin:round;stroke-miterlimit:4;stroke-opacity:1;stroke-dasharray:none;stroke-dashoffset:0;marker:none;visibility:visible;display:block;overflow:visible" inkscape:connector-curvature="0"/>
      <rect width="15" height="25" rx="0" ry="0" x="25.500002" y="20.499998" id="rect2704" style="fill:url(#linearGradient2763);fill-opacity:1;stroke:#333333;stroke-width:1;stroke-linecap:butt;stroke-linejoin:miter;stroke-miterlimit:4;stroke-opacity:1;stroke-dasharray:none;stroke-dashoffset:0;display:inline"/>
      <path d="m 26.530107,21.52381 c 4.313285,0 8.626569,0 12.939854,0" id="rect15660" style="opacity:0.3;fill:none;stroke:#ffffff;stroke-width:1;stroke-linecap:square;stroke-linejoin:round;stroke-miterlimit:4;stroke-opacity:1;stroke-dasharray:none;stroke-dashoffset:0;marker:none;visibility:visible;display:block;overflow:visible" inkscape:connector-curvature="0"/>
      <path d="m 23,22 2,0 0,2 -2,0 0,-2 z m 0,4 2,0 0,2 -2,0 0,-2 z m 0,4 2,0 0,2 -2,0 0,-2 z m 0,4 2,0 0,2 -2,0 0,-2 z m 0,4 2,0 0,2 -2,0 0,-2 z m 0,4 2,0 0,2 -2,0 0,-2 z" id="rect3464" style="fill:url(#linearGradient3642);fill-opacity:1;stroke:none" inkscape:connector-curvature="0"/>
      <path d="m 26.500002,33.499999 c 4.333206,0 8.666413,0 12.999621,0" id="path4318" style="opacity:0.3;fill:none;stroke:#ffffff;stroke-width:1;stroke-linecap:square;stroke-linejoin:round;stroke-miterlimit:4;stroke-opacity:1;stroke-dasharray:none;stroke-dashoffset:0;marker:none;visibility:visible;display:block;overflow:visible" inkscape:connector-curvature="0"/>
      <path d="m 26.500002,32.499999 c 4.333206,0 8.666413,0 12.999621,0" id="path4320" style="fill:#333333;stroke:#333333;stroke-width:1;stroke-linecap:square;stroke-linejoin:round;stroke-miterlimit:4;stroke-opacity:1;stroke-dasharray:none;stroke-dashoffset:0;marker:none;visibility:visible;display:block;overflow:visible" inkscape:connector-curvature="0"/>
      <path d="m 41,22 2,0 0,2 -2,0 0,-2 z m 0,4 2,0 0,2 -2,0 0,-2 z m 0,4 2,0 0,2 -2,0 0,-2 z m 0,4 2,0 0,2 -2,0 0,-2 z m 0,4 2,0 0,2 -2,0 0,-2 z m 0,4 2,0 0,2 -2,0 0,-2 z" id="path3656" style="fill:url(#linearGradient3658);fill-opacity:1;stroke:none" inkscape:connector-curvature="0"/>
    </g>
  </g>
</svg>
