<?xml version="1.0" encoding="UTF-8" standalone="no"?>
<!-- Created with Inkscape (http://www.inkscape.org/) -->

<svg
   xmlns:dc="http://purl.org/dc/elements/1.1/"
   xmlns:cc="http://creativecommons.org/ns#"
   xmlns:rdf="http://www.w3.org/1999/02/22-rdf-syntax-ns#"
   xmlns:svg="http://www.w3.org/2000/svg"
   xmlns="http://www.w3.org/2000/svg"
   xmlns:xlink="http://www.w3.org/1999/xlink"
   xmlns:sodipodi="http://sodipodi.sourceforge.net/DTD/sodipodi-0.dtd"
   xmlns:inkscape="http://www.inkscape.org/namespaces/inkscape"
   version="1.0"
   width="22"
   height="22"
   id="svg2"
   inkscape:version="0.48.4 r9939"
   sodipodi:docname="folder-publicshare.svg">
  <metadata
     id="metadata73">
    <rdf:RDF>
      <cc:Work
         rdf:about="">
        <dc:format>image/svg+xml</dc:format>
        <dc:type
           rdf:resource="http://purl.org/dc/dcmitype/StillImage" />
      </cc:Work>
    </rdf:RDF>
  </metadata>
  <sodipodi:namedview
     pagecolor="#ffffff"
     bordercolor="#666666"
     borderopacity="1"
     objecttolerance="10"
     gridtolerance="10"
     guidetolerance="10"
     inkscape:pageopacity="0"
     inkscape:pageshadow="2"
     inkscape:window-width="1032"
     inkscape:window-height="548"
     id="namedview71"
     showgrid="false"
     inkscape:zoom="10.727273"
     inkscape:cx="6.9580299"
     inkscape:cy="11"
     inkscape:window-x="264"
     inkscape:window-y="231"
     inkscape:window-maximized="0"
     inkscape:current-layer="svg2" />
  <defs
     id="defs4">
    <linearGradient
       id="linearGradient5060">
      <stop
         id="stop5062"
         style="stop-color:#000000;stop-opacity:1"
         offset="0" />
      <stop
         id="stop5064"
         style="stop-color:#000000;stop-opacity:0"
         offset="1" />
    </linearGradient>
    <linearGradient
       id="linearGradient5048">
      <stop
         id="stop5050"
         style="stop-color:#000000;stop-opacity:0"
         offset="0" />
      <stop
         id="stop5056"
         style="stop-color:#000000;stop-opacity:1"
         offset="0.5" />
      <stop
         id="stop5052"
         style="stop-color:#000000;stop-opacity:0"
         offset="1" />
    </linearGradient>
    <linearGradient
       id="linearGradient5157">
      <stop
         id="stop5159"
         style="stop-color:#c1c1c1;stop-opacity:1"
         offset="0" />
      <stop
         id="stop5161"
         style="stop-color:#909090;stop-opacity:1"
         offset="1" />
    </linearGradient>
    <linearGradient
       id="linearGradient11111">
      <stop
         id="stop11113"
         style="stop-color:#ffffff;stop-opacity:1"
         offset="0" />
      <stop
         id="stop11115"
         style="stop-color:#cdcdcd;stop-opacity:1"
         offset="0.91013825" />
      <stop
         id="stop11117"
         style="stop-color:#a1a1a1;stop-opacity:1"
         offset="1" />
    </linearGradient>
    <linearGradient
       id="linearGradient3390">
      <stop
         id="stop3392"
         style="stop-color:#51751e;stop-opacity:1"
         offset="0" />
      <stop
         id="stop3394"
         style="stop-color:#51751e;stop-opacity:1"
         offset="1" />
    </linearGradient>
    <linearGradient
       id="linearGradient7012-661-145-733-759-865-745">
      <stop
         id="stop2699"
         style="stop-color:#cccccc;stop-opacity:1;"
         offset="0" />
      <stop
         id="stop2701"
         style="stop-color:#999999;stop-opacity:1;"
         offset="1" />
    </linearGradient>
    <linearGradient
       id="linearGradient3752">
      <stop
         id="stop3754"
         style="stop-color:#ffffff;stop-opacity:1"
         offset="0" />
      <stop
         id="stop3760"
         style="stop-color:#ffffff;stop-opacity:1"
         offset="0.84754151" />
      <stop
         id="stop3756"
         style="stop-color:#ffffff;stop-opacity:0"
         offset="1" />
    </linearGradient>
    <linearGradient
       id="linearGradient8265-821-176-38-919-66-249">
      <stop
         id="stop2687"
         style="stop-color:#ffffff;stop-opacity:1"
         offset="0" />
      <stop
         id="stop2689"
         style="stop-color:#ffffff;stop-opacity:0"
         offset="1" />
    </linearGradient>
    <linearGradient
       x1="302.85715"
       y1="366.64789"
       x2="302.85715"
       y2="609.50507"
       id="linearGradient3510"
       xlink:href="#linearGradient5048"
       gradientUnits="userSpaceOnUse"
       gradientTransform="matrix(2.774389,0,0,1.969706,-1892.179,-872.8854)" />
    <radialGradient
       cx="605.71429"
       cy="486.64789"
       r="117.14286"
       fx="605.71429"
       fy="486.64789"
       id="radialGradient3512"
       xlink:href="#linearGradient5060"
       gradientUnits="userSpaceOnUse"
       gradientTransform="matrix(2.774389,0,0,1.969706,-1891.633,-872.8854)" />
    <radialGradient
       cx="605.71429"
       cy="486.64789"
       r="117.14286"
       fx="605.71429"
       fy="486.64789"
       id="radialGradient3514"
       xlink:href="#linearGradient5060"
       gradientUnits="userSpaceOnUse"
       gradientTransform="matrix(-2.774389,0,0,1.969706,112.7623,-872.8854)" />
    <linearGradient
       x1="-28.531403"
       y1="17.955765"
       x2="-28.531403"
       y2="37.502914"
       id="linearGradient3516"
       xlink:href="#linearGradient11111"
       gradientUnits="userSpaceOnUse"
       gradientTransform="matrix(0.9101563,0,0,0.8985549,11.885849,-34.99423)" />
    <linearGradient
       x1="9.8763561"
       y1="2.6014566"
       x2="9.8763561"
       y2="23.061668"
       id="linearGradient3518"
       xlink:href="#linearGradient5157"
       gradientUnits="userSpaceOnUse"
       gradientTransform="matrix(0.9101563,0,0,0.8985549,-19.403508,-21.963997)" />
    <radialGradient
       cx="8.2334681"
       cy="8.4777107"
       r="9.9991302"
       fx="8.2334681"
       fy="8.4777107"
       id="radialGradient3520"
       xlink:href="#linearGradient7012-661-145-733-759-865-745"
       gradientUnits="userSpaceOnUse"
       gradientTransform="matrix(1.2637216,1.6454755e-8,-1.1140231e-8,0.8555673,-21.653225,-19.713096)" />
    <linearGradient
       x1="15.669036"
       y1="16.979422"
       x2="3.0768602"
       y2="4.2520242"
       id="linearGradient3522"
       xlink:href="#linearGradient3390"
       gradientUnits="userSpaceOnUse"
       gradientTransform="matrix(0.9052018,0,0,0.8680849,-19.712254,-19.883974)" />
    <radialGradient
       cx="4.02005"
       cy="5.5926585"
       r="10.273108"
       fx="4.02005"
       fy="5.5926585"
       id="radialGradient3524"
       xlink:href="#linearGradient3752"
       gradientUnits="userSpaceOnUse"
       gradientTransform="matrix(-0.01529236,1.2169565,-1.6351743,-0.01889719,-6.5229407,-19.500936)" />
    <linearGradient
       x1="18.03083"
       y1="16.407909"
       x2="20.054544"
       y2="24.627615"
       id="linearGradient3526"
       xlink:href="#linearGradient8265-821-176-38-919-66-249"
       gradientUnits="userSpaceOnUse" />
    <linearGradient
       x1="29.955881"
       y1="21.86607"
       x2="29.955881"
       y2="43.144382"
       id="linearGradient2866"
       xlink:href="#linearGradient3341-1"
       gradientUnits="userSpaceOnUse"
       gradientTransform="matrix(0.42808986,0,0,0.42296591,-2.823809,-3.2486024)" />
    <linearGradient
       x1="30"
       y1="0.91818392"
       x2="30"
       y2="25.792814"
       id="linearGradient2864-1"
       xlink:href="#linearGradient3341-1"
       gradientUnits="userSpaceOnUse"
       gradientTransform="matrix(0.33685737,0,0,0.32161283,-0.10572085,-0.29529973)" />
    <linearGradient
       x1="30"
       y1="5"
       x2="30"
       y2="44.678879"
       id="linearGradient2862"
       xlink:href="#linearGradient3785-3"
       gradientUnits="userSpaceOnUse"
       gradientTransform="matrix(0.33685737,0,0,0.32161283,-0.10572085,-0.29529973)" />
    <radialGradient
       cx="26.375898"
       cy="12.31301"
       r="8"
       fx="26.375898"
       fy="12.31301"
       id="radialGradient2860"
       xlink:href="#linearGradient6954-0"
       gradientUnits="userSpaceOnUse"
       gradientTransform="matrix(0.55250164,-0.0426402,0.04315608,0.50971914,-6.3026675,-1.9765067)" />
    <linearGradient
       x1="30"
       y1="25.084745"
       x2="30"
       y2="45"
       id="linearGradient2858-2"
       xlink:href="#linearGradient3785-3"
       gradientUnits="userSpaceOnUse"
       gradientTransform="matrix(0.42808986,0,0,0.42296591,-2.823809,-3.2486024)" />
    <radialGradient
       cx="24.999998"
       cy="28.659998"
       r="16"
       fx="24.999998"
       fy="28.659998"
       id="radialGradient2856"
       xlink:href="#linearGradient6954-0"
       gradientUnits="userSpaceOnUse"
       gradientTransform="matrix(0.56186795,0,0,0.15787922,-6.1682604,5.3385209)" />
    <linearGradient
       id="linearGradient3341-1">
      <stop
         id="stop3343-9"
         style="stop-color:#ffffff;stop-opacity:1"
         offset="0" />
      <stop
         id="stop3345-6"
         style="stop-color:#ffffff;stop-opacity:0"
         offset="1" />
    </linearGradient>
    <linearGradient
       id="linearGradient6954-0">
      <stop
         id="stop6960-2"
         style="stop-color:#f5f5f5;stop-opacity:1"
         offset="0" />
      <stop
         id="stop6962-0"
         style="stop-color:#d2d2d2;stop-opacity:1"
         offset="1" />
    </linearGradient>
    <linearGradient
       id="linearGradient3785-3">
      <stop
         id="stop3787-4"
         style="stop-color:#b8b8b8;stop-opacity:1"
         offset="0" />
      <stop
         id="stop3789-9"
         style="stop-color:#878787;stop-opacity:1"
         offset="1" />
    </linearGradient>
    <linearGradient
       inkscape:collect="always"
       xlink:href="#linearGradient5048"
       id="linearGradient3833"
       gradientUnits="userSpaceOnUse"
       gradientTransform="matrix(2.774389,0,0,1.969706,-1892.179,-872.8854)"
       x1="302.85715"
       y1="366.64789"
       x2="302.85715"
       y2="609.50507" />
    <radialGradient
       inkscape:collect="always"
       xlink:href="#linearGradient5060"
       id="radialGradient3835"
       gradientUnits="userSpaceOnUse"
       gradientTransform="matrix(2.774389,0,0,1.969706,-1891.633,-872.8854)"
       cx="605.71429"
       cy="486.64789"
       fx="605.71429"
       fy="486.64789"
       r="117.14286" />
    <radialGradient
       inkscape:collect="always"
       xlink:href="#linearGradient5060"
       id="radialGradient3837"
       gradientUnits="userSpaceOnUse"
       gradientTransform="matrix(-2.774389,0,0,1.969706,112.7623,-872.8854)"
       cx="605.71429"
       cy="486.64789"
       fx="605.71429"
       fy="486.64789"
       r="117.14286" />
    <linearGradient
       inkscape:collect="always"
       xlink:href="#linearGradient11111"
       id="linearGradient3839"
       gradientUnits="userSpaceOnUse"
       gradientTransform="matrix(0.9101563,0,0,0.8985549,11.885849,-34.99423)"
       x1="-28.531403"
       y1="17.955765"
       x2="-28.531403"
       y2="37.502914" />
    <linearGradient
       inkscape:collect="always"
       xlink:href="#linearGradient5157"
       id="linearGradient3841"
       gradientUnits="userSpaceOnUse"
       gradientTransform="matrix(0.9101563,0,0,0.8985549,-19.403508,-21.963997)"
       x1="9.8763561"
       y1="2.6014566"
       x2="9.8763561"
       y2="23.061668" />
    <radialGradient
       inkscape:collect="always"
       xlink:href="#linearGradient7012-661-145-733-759-865-745"
       id="radialGradient3843"
       gradientUnits="userSpaceOnUse"
       gradientTransform="matrix(1.2637216,1.6454755e-8,-1.1140231e-8,0.8555673,-21.653225,-19.713096)"
       cx="8.2334681"
       cy="8.4777107"
       fx="8.2334681"
       fy="8.4777107"
       r="9.9991302" />
    <linearGradient
       inkscape:collect="always"
       xlink:href="#linearGradient3390"
       id="linearGradient3845"
       gradientUnits="userSpaceOnUse"
       gradientTransform="matrix(0.9052018,0,0,0.8680849,-19.712254,-19.883974)"
       x1="15.669036"
       y1="16.979422"
       x2="3.0768602"
       y2="4.2520242" />
    <radialGradient
       inkscape:collect="always"
       xlink:href="#linearGradient3752"
       id="radialGradient3847"
       gradientUnits="userSpaceOnUse"
       gradientTransform="matrix(-0.01529236,1.2169565,-1.6351743,-0.01889719,-6.5229407,-19.500936)"
       cx="4.02005"
       cy="5.5926585"
       fx="4.02005"
       fy="5.5926585"
       r="10.273108" />
    <linearGradient
       inkscape:collect="always"
       xlink:href="#linearGradient8265-821-176-38-919-66-249"
       id="linearGradient3849"
       gradientUnits="userSpaceOnUse"
       x1="18.03083"
       y1="16.407909"
       x2="20.054544"
       y2="24.627615" />
    <linearGradient
       inkscape:collect="always"
       xlink:href="#linearGradient8265-821-176-38-919-66-249"
       id="linearGradient3852"
       gradientUnits="userSpaceOnUse"
       x1="18.03083"
       y1="16.407909"
       x2="20.054544"
       y2="24.627615"
       gradientTransform="matrix(0.402649,0,0,0.3520695,2.836469,4.118628)" />
    <radialGradient
       inkscape:collect="always"
       xlink:href="#linearGradient3752"
       id="radialGradient3855"
       gradientUnits="userSpaceOnUse"
       gradientTransform="matrix(-0.01529236,1.2169565,-1.6351743,-0.01889719,12.958987,2.691799)"
       cx="4.02005"
       cy="5.5926585"
       fx="4.02005"
       fy="5.5926585"
       r="10.273108" />
    <radialGradient
       inkscape:collect="always"
       xlink:href="#linearGradient7012-661-145-733-759-865-745"
       id="radialGradient3858"
       gradientUnits="userSpaceOnUse"
       gradientTransform="matrix(1.2637216,1.6454755e-8,-1.1140231e-8,0.8555673,-2.171297,2.479639)"
       cx="8.2334681"
       cy="8.4777107"
       fx="8.2334681"
       fy="8.4777107"
       r="9.9991302" />
    <linearGradient
       inkscape:collect="always"
       xlink:href="#linearGradient11111"
       id="linearGradient3863"
       gradientUnits="userSpaceOnUse"
       gradientTransform="matrix(0.9101563,0,0,0.8985549,31.367777,-12.801495)"
       x1="-28.531403"
       y1="17.955765"
       x2="-28.531403"
       y2="37.502914" />
    <linearGradient
       inkscape:collect="always"
       xlink:href="#linearGradient5157"
       id="linearGradient3865"
       gradientUnits="userSpaceOnUse"
       gradientTransform="matrix(0.9101563,0,0,0.8985549,0.07842,0.228738)"
       x1="9.8763561"
       y1="2.6014566"
       x2="9.8763561"
       y2="23.061668" />
  </defs>
  <g
     transform="matrix(0.4968783,0,0,0.4693778,-0.833589,-0.320595)"
     id="g3430"
     style="stroke-width:1.88256383;stroke-miterlimit:4;stroke-dasharray:none">
    <g
       transform="matrix(0.02165152,0,0,0.01485743,43.0076,42.68539)"
       id="g3432"
       style="stroke-width:104.96237946;stroke-miterlimit:4;stroke-dasharray:none;display:inline">
      <rect
         width="1339.6335"
         height="478.35718"
         x="-1559.2523"
         y="-150.69685"
         id="rect3434"
         style="opacity:0.40206185;fill:url(#linearGradient3833);fill-opacity:1;fill-rule:nonzero;stroke:none;stroke-width:104.96237946;marker:none;visibility:visible;display:inline;overflow:visible" />
      <path
         d="m -219.61876,-150.68038 c 0,0 0,478.33079 0,478.33079 142.874166,0.90045 345.40022,-107.16966 345.40014,-239.196175 0,-132.026537 -159.436816,-239.134595 -345.40014,-239.134615 z"
         id="path3436"
         style="opacity:0.40206185;fill:url(#radialGradient3835);fill-opacity:1;fill-rule:nonzero;stroke:none;stroke-width:104.96237946;marker:none;visibility:visible;display:inline;overflow:visible"
         inkscape:connector-curvature="0" />
      <path
         d="m -1559.2523,-150.68038 c 0,0 0,478.33079 0,478.33079 -142.8742,0.90045 -345.4002,-107.16966 -345.4002,-239.196175 0,-132.026537 159.4368,-239.134595 345.4002,-239.134615 z"
         id="path3438"
         style="opacity:0.40206185;fill:url(#radialGradient3837);fill-opacity:1;fill-rule:nonzero;stroke:none;stroke-width:104.96237946;marker:none;visibility:visible;display:inline;overflow:visible"
         inkscape:connector-curvature="0" />
    </g>
  </g>
  <path
     d="m 2.641957,2.5055 c -0.07785,0 -0.144596,0.08334 -0.144596,0.169416 l 0,1.8465 -1.7894,0 c -0.09715,0 -0.173514,0.08524 -0.173514,0.169416 0.0063,4.797385 -0.02399,9.594696 -0.02892,14.392069 0.02647,0.804239 0.488973,1.352453 0.809734,1.355328 0.921748,0.0083 0.490822,-0.0036 0.954331,0 5.889014,-0.01447 12.358937,-0.07024 18.24795,-0.08471 0.04934,0.0062 -1.344042,-0.0968 -1.330279,-1.298857 10e-7,-4.1989 -0.456941,-9.826099 -0.456941,-14.025001 0,-0.167921 -0.01405,-0.261378 -0.02892,-0.338832 -0.01148,-0.05981 -0.02612,-0.08884 -0.05784,-0.112944 -0.02536,-0.02197 -0.04965,-0.05126 -0.08676,-0.05647 l -8.9515437,0 0,-1.8465 c 0,-0.08608 -0.066742,-0.169416 -0.1445953,-0.169416 l -6.818713,0 z"
     id="path3440"
     style="fill:url(#linearGradient3863);fill-opacity:1;stroke:url(#linearGradient3865);stroke-width:1.01114571;stroke-linecap:round;stroke-linejoin:round;stroke-miterlimit:4;stroke-opacity:1;stroke-dasharray:none;display:inline"
     inkscape:connector-curvature="0" />
  <path
     d="m 3.527052,6.523916 c 9.620082,0 11.595819,4.02e-4 17.933174,-0.02404 0,1.370714 0.234958,14.000269 -0.440609,14.000269 -0.649883,0 -12.180758,-0.08235 -18.518111,-0.05791 1.339437,0 1.025546,-0.543547 1.025546,-13.91832 z"
     id="path3442"
     style="fill:url(#radialGradient3858);fill-opacity:1;stroke:#505050;stroke-width:1.00000011999999994;stroke-linecap:round;stroke-linejoin:round;stroke-miterlimit:4;stroke-opacity:1;stroke-dasharray:none;display:inline"
     inkscape:connector-curvature="0" />
  <path
     d="m 20.955955,7.450603 c 0,0 -15.017913,0.23239 -16.442276,0.07006 -0.07549,12.070605 -0.116891,12.301312 -0.116891,12.301312"
     id="path3444"
     style="opacity:0.4;fill:none;stroke:url(#radialGradient3855);stroke-width:0.98119509;stroke-linecap:butt;stroke-linejoin:miter;stroke-miterlimit:4;stroke-opacity:1;stroke-dasharray:none;display:inline"
     inkscape:connector-curvature="0" />
  <path
     d="m 4.1324955,5.9999994 c -0.6196559,0 -1.1324503,0.4483788 -1.1324503,0.9901955 l 0,5.6331121 c 0.00237,0.100774 0.059761,0.21567 0.1509933,0.286056 0.091231,0.07039 0.2078453,0.100084 0.3397351,0.08802 a 0.24645773,0.21549849 0 0 0 0.012583,0 L 21.622561,10.488886 c 0.210092,-0.02897 0.374547,-0.188122 0.377484,-0.374074 l 0,-3.1246171 c 0,-0.5418167 -0.512795,-0.9901955 -1.13245,-0.9901955 l -16.7350995,0 z"
     id="path3446"
     style="opacity:0.2;fill:url(#linearGradient3852);fill-opacity:1;fill-rule:evenodd;stroke:none"
     inkscape:connector-curvature="0" />
  <g
     id="g3743"
     transform="translate(5.0625,5.9978364)">
    <path
       inkscape:connector-curvature="0"
       style="fill:url(#radialGradient2856);fill-opacity:1;stroke:url(#linearGradient2858-2);stroke-width:1.00012147;stroke-linejoin:round;stroke-miterlimit:4;stroke-opacity:1;stroke-dasharray:none"
       id="path2880"
       d="M 8.84375,6.5 C 8.76311,7.180093 9.4339142,8.600105 9.0625,9.21875 7.6176751,9.7236407 5.0136423,10.644898 4.875,11.25 4.77263,12.189935 4.6190814,13.561421 4.5,14.5 c 2.5328977,1.368167 8.491801,1.30225 10.9375,0 -0.0863,-0.665917 -0.163702,-2.584084 -0.25,-3.25 C 14.53386,10.469482 12.812615,10.01275 11,9.21875 10.526353,8.602577 11.243461,7.22557 11.09375,6.53125 10.807324,6.482003 9.133812,6.507525 8.84375,6.5 z" />
    <path
       inkscape:connector-curvature="0"
       style="fill:url(#radialGradient2860);fill-opacity:1;stroke:url(#linearGradient2862);stroke-width:0.94714093;stroke-miterlimit:4;stroke-opacity:1;stroke-dasharray:none"
       id="path2870"
       d="m 10,1.46875 c -1.3953075,0 -2.53125,1.0066477 -2.53125,2.25 0.010946,0.4601408 0.05895,1.0054807 0.34375,2.25 0.1684289,0.4824189 1.6739448,1.7766941 1.6875,1.9375 0.3266416,0.1608049 0.850642,0.1608049 1.1875,0 0,-0.1608059 1.331572,-1.4550811 1.5,-1.9375 0.320478,-1.293427 0.326559,-1.7675806 0.34375,-2.25 0,-1.2433523 -1.13594,-2.25 -2.53125,-2.25 z" />
    <path
       inkscape:connector-curvature="0"
       style="fill:none;stroke:url(#linearGradient2864-1);stroke-width:0.94714093;stroke-miterlimit:4;stroke-opacity:1;stroke-dasharray:none"
       id="path2866"
       d="M 10,2.46875 C 9.3876089,2.453926 8.7330161,2.7993069 8.53125,3.40625 c -0.1135765,0.4104884 -0.010161,0.836839 0.03125,1.25 0.05222,0.3381399 0.1132782,0.6660809 0.1875,1 0.1940928,0.171452 0.3611426,0.3974634 0.5625,0.5625 C 9.5758075,6.4747814 9.8032965,6.7399516 10.0625,7 10.330703,6.7826897 10.510924,6.4967292 10.75,6.25 10.902681,6.070177 11.060251,5.8623797 11.21875,5.6875 11.376386,4.9772187 11.558479,4.2653005 11.5,3.53125 11.375368,2.844477 10.652976,2.4515616 10,2.46875 z" />
    <path
       inkscape:connector-curvature="0"
       style="fill:none;stroke:url(#linearGradient2866);stroke-width:1.00012147;stroke-linejoin:round;stroke-miterlimit:4;stroke-opacity:1;stroke-dasharray:none"
       id="path2876"
       d="m 10,9.0625 c 0.04083,0.6184717 -0.4844988,1.101042 -1.0625,1.1875 -1.0618145,0.377577 -2.1650919,0.706505 -3.125,1.3125 -0.224724,0.540724 -0.1042376,1.160705 -0.25,1.71875 -0.3309301,0.708961 0.5690774,0.776057 1.03125,0.90625 2.2561001,0.540715 4.652113,0.499061 6.90625,-0.03125 0.335847,-0.168593 1.138282,-0.08494 0.9375,-0.625 C 14.37527,12.943737 14.34558,12.339597 14.3125,11.75 13.392452,11.041669 12.225582,10.792671 11.1875,10.3125 10.364527,10.195739 10.334895,9.5928835 10,9.0625 z" />
  </g>
</svg>
