<!-- Created with Inkscape (http://www.inkscape.org/) -->
<svg xmlns:dc="http://purl.org/dc/elements/1.1/" xmlns:cc="http://creativecommons.org/ns#" xmlns:rdf="http://www.w3.org/1999/02/22-rdf-syntax-ns#" xmlns:svg="http://www.w3.org/2000/svg" xmlns="http://www.w3.org/2000/svg" xmlns:xlink="http://www.w3.org/1999/xlink" xmlns:sodipodi="http://sodipodi.sourceforge.net/DTD/sodipodi-0.dtd" xmlns:inkscape="http://www.inkscape.org/namespaces/inkscape" width="48px" height="48px" id="svg18720" version="1.1" inkscape:version="0.48.4 r9939" sodipodi:docname="folder-remote.svg">
  <defs id="defs18722">
    <linearGradient inkscape:collect="always" xlink:href="#linearGradient3454-2-8-6-1" id="linearGradient3381-56-2-7-5" gradientUnits="userSpaceOnUse" gradientTransform="matrix(0.89189031,0,0,1.0580283,3.1206609,5.3536023)" x1="42.470848" y1="11.952797" x2="42.470848" y2="35.581654"/>
    <linearGradient id="linearGradient3454-2-8-6-1">
      <stop offset="0" style="stop-color:#ffffff;stop-opacity:1" id="stop3456-4-7-9-4"/>
      <stop offset="0.0097359" style="stop-color:#ffffff;stop-opacity:0.23529412" id="stop3458-39-0-8-61"/>
      <stop offset="0.99001008" style="stop-color:#ffffff;stop-opacity:0.15686275" id="stop3460-7-5-4-1"/>
      <stop offset="1" style="stop-color:#ffffff;stop-opacity:0.39215687" id="stop3462-0-5-6-6"/>
    </linearGradient>
    <linearGradient inkscape:collect="always" xlink:href="#linearGradient6129-963-697-142-998-580-273-0-8-4" id="linearGradient3072-0-3-0" gradientUnits="userSpaceOnUse" gradientTransform="matrix(1.1446925,0,0,0.9977536,-3.4661379,1.0988391)" x1="22.934725" y1="49.629246" x2="22.809399" y2="36.657963"/>
    <linearGradient id="linearGradient6129-963-697-142-998-580-273-0-8-4">
      <stop id="stop2661-3-02-4" style="stop-color:#0a0a0a;stop-opacity:0.498" offset="0"/>
      <stop id="stop2663-2-8-06" style="stop-color:#0a0a0a;stop-opacity:0" offset="1"/>
    </linearGradient>
    <linearGradient inkscape:collect="always" xlink:href="#linearGradient4632-0-6-4" id="linearGradient4638-4-6-8" x1="35.792694" y1="17.118193" x2="35.792694" y2="43.761127" gradientUnits="userSpaceOnUse" gradientTransform="matrix(1,0,0,1.0357143,2.0849371e-6,-1.5890909)"/>
    <linearGradient id="linearGradient4632-0-6-4">
      <stop style="stop-color:#feec96;stop-opacity:1;" offset="0" id="stop4634-4-4-7"/>
      <stop style="stop-color:#fbd574;stop-opacity:1;" offset="1" id="stop4636-3-1-5"/>
    </linearGradient>
    <radialGradient inkscape:collect="always" xlink:href="#linearGradient5060-820-9-0-7" id="radialGradient3080-2-3-9" gradientUnits="userSpaceOnUse" gradientTransform="matrix(-0.03079083,0,0,0.02470588,23.389752,31.94164)" cx="605.71429" cy="486.64789" fx="605.71429" fy="486.64789" r="117.14286"/>
    <linearGradient id="linearGradient5060-820-9-0-7">
      <stop id="stop2681-5-4-3" style="stop-color:#000000;stop-opacity:1" offset="0"/>
      <stop id="stop2683-8-6-9" style="stop-color:#000000;stop-opacity:0" offset="1"/>
    </linearGradient>
    <radialGradient inkscape:collect="always" xlink:href="#linearGradient5060-179-2-0-3" id="radialGradient3083-4-5-6" gradientUnits="userSpaceOnUse" gradientTransform="matrix(0.03079083,0,0,0.02470588,24.610252,31.94164)" cx="605.71429" cy="486.64789" fx="605.71429" fy="486.64789" r="117.14286"/>
    <linearGradient id="linearGradient5060-179-2-0-3">
      <stop id="stop2675-9-9-4" style="stop-color:#000000;stop-opacity:1" offset="0"/>
      <stop id="stop2677-1-7-2" style="stop-color:#000000;stop-opacity:0" offset="1"/>
    </linearGradient>
    <linearGradient inkscape:collect="always" xlink:href="#linearGradient5048-585-4-0-56" id="linearGradient3086-4-4-0" gradientUnits="userSpaceOnUse" gradientTransform="matrix(0.07938856,0,0,0.02470588,-4.6932879,31.94164)" x1="302.85715" y1="366.64789" x2="302.85715" y2="609.50507"/>
    <linearGradient id="linearGradient5048-585-4-0-56">
      <stop id="stop2667-5-0-7" style="stop-color:#000000;stop-opacity:0" offset="0"/>
      <stop id="stop2669-4-1-8" style="stop-color:#000000;stop-opacity:1" offset="0.5"/>
      <stop id="stop2671-2-6-3" style="stop-color:#000000;stop-opacity:0" offset="1"/>
    </linearGradient>
    <linearGradient inkscape:collect="always" xlink:href="#linearGradient4507-9-2-2" id="linearGradient3381-5-5-29-4" gradientUnits="userSpaceOnUse" gradientTransform="matrix(0.89189031,0,0,1.0580283,3.1206621,5.3535991)" x1="21.37039" y1="4.2476678" x2="21.37039" y2="34.143417"/>
    <linearGradient id="linearGradient4507-9-2-2">
      <stop id="stop4509-9-8-4" style="stop-color:#ffffff;stop-opacity:1" offset="0"/>
      <stop id="stop4511-7-50-2" style="stop-color:#ffffff;stop-opacity:0.23529412" offset="0.07395859"/>
      <stop id="stop4513-2-0-2" style="stop-color:#ffffff;stop-opacity:0.15686275" offset="0.99001008"/>
      <stop id="stop4515-3-9-8" style="stop-color:#ffffff;stop-opacity:0.39215687" offset="1"/>
    </linearGradient>
    <linearGradient inkscape:collect="always" xlink:href="#linearGradient4646-6-91-5" id="linearGradient3089-5-2-9-8-6" gradientUnits="userSpaceOnUse" gradientTransform="translate(-50.940899,-8.5052491e-7)" x1="62.988873" y1="13" x2="62.988873" y2="16"/>
    <linearGradient id="linearGradient4646-6-91-5">
      <stop offset="0" style="stop-color:#f9f9f9;stop-opacity:1" id="stop4648-2-4-6"/>
      <stop offset="1" style="stop-color:#d8d8d8;stop-opacity:1" id="stop4650-3-8-5"/>
    </linearGradient>
    <linearGradient id="linearGradient3104-8-8-97-4-6-2-0-1">
      <stop offset="0" style="stop-color:#000000;stop-opacity:0.32173914" id="stop3106-5-4-3-5-0-1-61-9"/>
      <stop offset="1" style="stop-color:#000000;stop-opacity:0.27826086" id="stop3108-4-3-7-8-2-4-01-9"/>
    </linearGradient>
    <linearGradient y2="3.6336823" x2="-51.786404" y1="53.514328" x1="-51.786404" gradientTransform="matrix(0.80749834,0,0,0.83374395,106.87672,-0.06984085)" gradientUnits="userSpaceOnUse" id="linearGradient18718" xlink:href="#linearGradient3104-8-8-97-4-6-2-0-1" inkscape:collect="always"/>
    <linearGradient gradientUnits="userSpaceOnUse" y2="44.35017" x2="21.949152" y1="16.472357" x1="21.949152" id="linearGradient3901" xlink:href="#linearGradient7012-661-145-733-759-865-745" inkscape:collect="always"/>
    <radialGradient gradientTransform="matrix(-1.274898e-8,1.7142916,-2.159331,-1.4599595e-8,12.809361,2.8570011)" gradientUnits="userSpaceOnUse" xlink:href="#linearGradient3484" id="radialGradient2456" fy="5.01718" fx="3" r="21" cy="5.01718" cx="3"/>
    <linearGradient gradientTransform="translate(-50.940898,0)" gradientUnits="userSpaceOnUse" xlink:href="#linearGradient6404" id="linearGradient2454" y2="16.19013" x2="62.988873" y1="13.182598" x1="62.988873"/>
    <linearGradient gradientTransform="matrix(7.9388558e-2,0,0,2.4705883e-2,-4.693293,31.941642)" gradientUnits="userSpaceOnUse" xlink:href="#linearGradient5048-585" id="linearGradient2451" y2="609.50507" x2="302.85715" y1="366.64789" x1="302.85715"/>
    <radialGradient gradientTransform="matrix(3.0790832e-2,0,0,2.4705883e-2,24.610252,31.941642)" gradientUnits="userSpaceOnUse" xlink:href="#linearGradient5060-179" id="radialGradient2448" fy="486.64789" fx="605.71429" r="117.14286" cy="486.64789" cx="605.71429"/>
    <radialGradient gradientTransform="matrix(-3.0790825e-2,0,0,2.4705883e-2,23.389748,31.941642)" gradientUnits="userSpaceOnUse" xlink:href="#linearGradient5060-820" id="radialGradient2445" fy="486.64789" fx="605.71429" r="117.14286" cy="486.64789" cx="605.71429"/>
    <linearGradient gradientTransform="translate(-53.765393,-0.1141929)" gradientUnits="userSpaceOnUse" xlink:href="#linearGradient3390" id="linearGradient2442" y2="16.047026" x2="82.453476" y1="45.114193" x1="82.453476"/>
    <radialGradient gradientTransform="matrix(1.5646925,-9.5143002e-8,6.1772287e-8,1.015888,-86.212573,8.1461173)" gradientUnits="userSpaceOnUse" xlink:href="#linearGradient7012-661-145-733-759-865-745" id="radialGradient2440" fy="14.113381" fx="63.969177" r="23.097054" cy="14.113381" cx="63.969177"/>
    <linearGradient gradientTransform="matrix(1.1446925,0,0,0.9977536,-3.4661413,1.0988425)" gradientUnits="userSpaceOnUse" xlink:href="#linearGradient6129-963-697-142-998-580-273" id="linearGradient2437" y2="36.657963" x2="22.809399" y1="49.629246" x1="22.934725"/>
    <radialGradient gradientTransform="matrix(0,1.2079744,-1.6271642,0,26.371748,8.2664685)" gradientUnits="userSpaceOnUse" xlink:href="#linearGradient6087-437-184-795-110-662-495" id="radialGradient2434" fy="8.3021259" fx="7.2646537" r="20.979567" cy="8.3021259" cx="7.2646537"/>
    <linearGradient gradientUnits="userSpaceOnUse" xlink:href="#linearGradient8265-821-176-38-919-66-249" id="linearGradient2431" y2="33.95525" x2="15.214532" y1="22.292103" x1="11.566265"/>
    <linearGradient id="linearGradient8265-821-176-38-919-66-249">
      <stop offset="0" style="stop-color:#ffffff;stop-opacity:0.2" id="stop2687"/>
      <stop offset="1" style="stop-color:#ffffff;stop-opacity:0" id="stop2689"/>
    </linearGradient>
    <linearGradient id="linearGradient6087-437-184-795-110-662-495">
      <stop offset="0" style="stop-color:#ffffff;stop-opacity:0.40000001" id="stop2693"/>
      <stop offset="1" style="stop-color:#ffffff;stop-opacity:0" id="stop2695"/>
    </linearGradient>
    <linearGradient id="linearGradient6129-963-697-142-998-580-273">
      <stop offset="0" style="stop-color:#0a0a0a;stop-opacity:0.498" id="stop2661"/>
      <stop offset="1" style="stop-color:#0a0a0a;stop-opacity:0" id="stop2663"/>
    </linearGradient>
    <linearGradient id="linearGradient7012-661-145-733-759-865-745">
      <stop offset="0" style="stop-color:#aacb7d;stop-opacity:1" id="stop2699"/>
      <stop offset="1" style="stop-color:#709937;stop-opacity:1" id="stop2701"/>
    </linearGradient>
    <linearGradient id="linearGradient3390">
      <stop offset="0" style="stop-color:#51751e;stop-opacity:1" id="stop3392"/>
      <stop offset="1" style="stop-color:#51751e;stop-opacity:1" id="stop3394"/>
    </linearGradient>
    <linearGradient id="linearGradient5060-820">
      <stop offset="0" style="stop-color:#000000;stop-opacity:1" id="stop2681"/>
      <stop offset="1" style="stop-color:#000000;stop-opacity:0" id="stop2683"/>
    </linearGradient>
    <linearGradient id="linearGradient5060-179">
      <stop offset="0" style="stop-color:#000000;stop-opacity:1" id="stop2675"/>
      <stop offset="1" style="stop-color:#000000;stop-opacity:0" id="stop2677"/>
    </linearGradient>
    <linearGradient id="linearGradient5048-585">
      <stop offset="0" style="stop-color:#000000;stop-opacity:0" id="stop2667"/>
      <stop offset="0.5" style="stop-color:#000000;stop-opacity:1" id="stop2669"/>
      <stop offset="1" style="stop-color:#000000;stop-opacity:0" id="stop2671"/>
    </linearGradient>
    <linearGradient id="linearGradient6404">
      <stop offset="0" style="stop-color:#f9f9f9;stop-opacity:1" id="stop6406"/>
      <stop offset="1" style="stop-color:#c9c9c9;stop-opacity:1" id="stop6408"/>
    </linearGradient>
    <linearGradient id="linearGradient3484">
      <stop offset="0" style="stop-color:#bdbdbd;stop-opacity:1" id="stop3486"/>
      <stop offset="1" style="stop-color:#d0d0d0;stop-opacity:1" id="stop3488"/>
    </linearGradient>
    <linearGradient gradientTransform="matrix(-0.5248057,0,0,0.5248057,29.704143,23.052725)" gradientUnits="userSpaceOnUse" xlink:href="#linearGradient7812" id="linearGradient2917" y2="34.5625" x2="-7.78125" y1="32.4375" x1="-6.40625"/>
    <linearGradient id="linearGradient7812">
      <stop offset="0" style="stop-color:#000000;stop-opacity:1" id="stop7814"/>
      <stop offset="1" style="stop-color:#000000;stop-opacity:0" id="stop7816"/>
    </linearGradient>
    <linearGradient gradientTransform="matrix(-0.5904064,0,0,0.6122733,31.868967,5.1382633)" gradientUnits="userSpaceOnUse" xlink:href="#linearGradient7269" id="linearGradient2920" y2="55.000004" x2="-4.1097827" y1="58.807774" x1="-4.1097827"/>
    <linearGradient id="linearGradient7269">
      <stop offset="0" style="stop-color:#ffffff;stop-opacity:1" id="stop7271"/>
      <stop offset="1" style="stop-color:#d3d7cf;stop-opacity:1" id="stop7273"/>
    </linearGradient>
    <linearGradient gradientTransform="matrix(-0.5248057,0,0,0.5248057,40.200257,23.052725)" gradientUnits="userSpaceOnUse" xlink:href="#linearGradient7660" id="linearGradient2923" y2="42.9375" x2="42.123722" y1="38.3125" x1="41.1875"/>
    <linearGradient id="linearGradient7660">
      <stop offset="0" style="stop-color:#ffffff;stop-opacity:1" id="stop7662"/>
      <stop offset="1" style="stop-color:#ffffff;stop-opacity:0" id="stop7664"/>
    </linearGradient>
    <linearGradient gradientTransform="matrix(-0.5248057,0,0,0.5248057,40.200257,23.052725)" gradientUnits="userSpaceOnUse" xlink:href="#linearGradient7652-827" id="linearGradient2926" y2="45.0625" x2="38.875" y1="40.3125" x1="37.625"/>
    <linearGradient id="linearGradient7652-827">
      <stop offset="0" style="stop-color:#dbdbdb;stop-opacity:1" id="stop3225"/>
      <stop offset="1" style="stop-color:#a0a0a0;stop-opacity:0" id="stop3227"/>
    </linearGradient>
    <linearGradient gradientTransform="matrix(-0.5248057,0,0,0.5248057,40.200257,23.052725)" gradientUnits="userSpaceOnUse" xlink:href="#linearGradient7576-259" id="linearGradient2928" y2="46.5625" x2="40.125" y1="40.625" x1="38.75"/>
    <linearGradient id="linearGradient7576-259">
      <stop offset="0" style="stop-color:#787878;stop-opacity:1" id="stop3231"/>
      <stop offset="1" style="stop-color:#6c6c6c;stop-opacity:0" id="stop3233"/>
    </linearGradient>
    <linearGradient gradientTransform="matrix(-0.5864288,0,0,0.5858254,42.306003,17.818634)" gradientUnits="userSpaceOnUse" xlink:href="#linearGradient7340" id="linearGradient2607" y2="26.204767" x2="32.8125" y1="21" x1="32.8125"/>
    <linearGradient id="linearGradient7340">
      <stop offset="0" style="stop-color:#2e3436;stop-opacity:1" id="stop7342"/>
      <stop offset="1" style="stop-color:#555753;stop-opacity:1" id="stop7344"/>
    </linearGradient>
    <linearGradient gradientTransform="matrix(-0.5248057,0,0,0.5248057,39.675451,19.379085)" gradientUnits="userSpaceOnUse" xlink:href="#linearGradient7430" id="linearGradient2609" y2="16" x2="29" y1="29" x1="28.875"/>
    <linearGradient id="linearGradient7430">
      <stop offset="0" style="stop-color:#ffffff;stop-opacity:1" id="stop7432"/>
      <stop offset="1" style="stop-color:#ffffff;stop-opacity:0" id="stop7434"/>
    </linearGradient>
    <linearGradient gradientUnits="userSpaceOnUse" xlink:href="#linearGradient7422" id="linearGradient2619" y2="24.6875" x2="30.3125" y1="27.313059" x1="30.3125"/>
    <linearGradient id="linearGradient7422">
      <stop offset="0" style="stop-color:#edd400;stop-opacity:1" id="stop7424"/>
      <stop offset="1" style="stop-color:#edd400;stop-opacity:0" id="stop7426"/>
    </linearGradient>
    <linearGradient gradientUnits="userSpaceOnUse" xlink:href="#linearGradient7422" id="linearGradient2611" y2="24.6875" x2="30.3125" y1="27.313059" x1="30.3125"/>
    <linearGradient gradientUnits="userSpaceOnUse" xlink:href="#linearGradient7422" id="linearGradient2613" y2="24.6875" x2="30.3125" y1="27.313059" x1="30.3125"/>
    <linearGradient gradientUnits="userSpaceOnUse" xlink:href="#linearGradient7422" id="linearGradient2615" y2="24.6875" x2="30.3125" y1="27.313059" x1="30.3125"/>
    <linearGradient gradientUnits="userSpaceOnUse" xlink:href="#linearGradient7422" id="linearGradient2617" y2="24.6875" x2="30.3125" y1="27.313059" x1="30.3125"/>
    <linearGradient gradientTransform="matrix(-0.5248057,0,0,0.5398003,31.803366,9.8576022)" gradientUnits="userSpaceOnUse" xlink:href="#linearGradient7277" id="linearGradient2939" y2="59.444622" x2="-3.5355339" y1="55.866562" x1="-3.5355339"/>
    <linearGradient id="linearGradient7277">
      <stop offset="0" style="stop-color:#555753;stop-opacity:1" id="stop7279"/>
      <stop offset="1" style="stop-color:#d3d7cf;stop-opacity:1" id="stop7281"/>
    </linearGradient>
    <linearGradient gradientTransform="matrix(-0.5248057,0,0,0.5248057,31.803366,10.457388)" gradientUnits="userSpaceOnUse" xlink:href="#linearGradient7186" id="linearGradient2942" y2="51.812416" x2="-5.96875" y1="52.875" x1="-5.96875"/>
    <linearGradient id="linearGradient7186">
      <stop offset="0" style="stop-color:#888a85;stop-opacity:1" id="stop7188"/>
      <stop offset="1" style="stop-color:#ffffff;stop-opacity:1" id="stop7190"/>
    </linearGradient>
    <linearGradient gradientTransform="matrix(-0.5248057,0,0,0.5248057,31.803366,10.457388)" gradientUnits="userSpaceOnUse" xlink:href="#linearGradient7245" id="linearGradient2945" y2="49.458408" x2="0.26516503" y1="50.51907" x1="-5.0823302"/>
    <linearGradient id="linearGradient7245">
      <stop offset="0" style="stop-color:#eeeeec;stop-opacity:1" id="stop7247"/>
      <stop offset="1" style="stop-color:#ffffff;stop-opacity:1" id="stop7249"/>
    </linearGradient>
    <linearGradient gradientTransform="matrix(-0.5248057,0,0,0.5248057,31.803366,10.457388)" gradientUnits="userSpaceOnUse" xlink:href="#linearGradient7237" id="linearGradient2948" y2="50.563263" x2="0.88388348" y1="52.640388" x1="-4.6845822"/>
    <linearGradient id="linearGradient7237">
      <stop offset="0" style="stop-color:#eeeeec;stop-opacity:1" id="stop7239"/>
      <stop offset="1" style="stop-color:#babdb6;stop-opacity:1" id="stop7241"/>
    </linearGradient>
    <linearGradient gradientTransform="matrix(-0.5248057,0,0,0.5248057,31.803366,10.457388)" gradientUnits="userSpaceOnUse" xlink:href="#linearGradient7257" id="linearGradient2954" y2="54" x2="-3.3587573" y1="51.137787" x1="-1.9887378"/>
    <linearGradient id="linearGradient7257">
      <stop offset="0" style="stop-color:#000000;stop-opacity:1" id="stop7259"/>
      <stop offset="1" style="stop-color:#000000;stop-opacity:0" id="stop7261"/>
    </linearGradient>
    <linearGradient gradientUnits="userSpaceOnUse" xlink:href="#linearGradient7263" id="linearGradient7555" y2="54.415817" x2="0.82206726" y1="55.219357" x1="1.6256078"/>
    <linearGradient id="linearGradient7263">
      <stop offset="0" style="stop-color:#adb0a8;stop-opacity:1" id="stop7265"/>
      <stop offset="1" style="stop-color:#ffffff;stop-opacity:1" id="stop7267"/>
    </linearGradient>
    <linearGradient gradientTransform="matrix(0.9642856,0,0,0.9722222,-0.2500008,1.6944444)" gradientUnits="userSpaceOnUse" xlink:href="#linearGradient7269" id="linearGradient7557" y2="54.707691" x2="-4.2208939" y1="59.878922" x1="-4.2208939"/>
    <linearGradient gradientTransform="matrix(1.1874999,0,0,1.2,-17.281253,21.899998)" gradientUnits="userSpaceOnUse" xlink:href="#linearGradient6991" id="linearGradient2621" y2="-6.5683565" x2="-11.005972" y1="25.357235" x1="-7.975069"/>
    <linearGradient id="linearGradient6991">
      <stop offset="0" style="stop-color:#d3d7cf;stop-opacity:1" id="stop6993"/>
      <stop offset="1" style="stop-color:#ffffff;stop-opacity:1" id="stop6995"/>
    </linearGradient>
    <linearGradient gradientUnits="userSpaceOnUse" xlink:href="#linearGradient7438" id="linearGradient2623" y2="18.937717" x2="-5.5098634" y1="3.7545938" x1="-7.8516631"/>
    <linearGradient id="linearGradient7438">
      <stop offset="0" style="stop-color:#ffffff;stop-opacity:1" id="stop7440"/>
      <stop offset="1" style="stop-color:#ffffff;stop-opacity:0" id="stop7442"/>
    </linearGradient>
    <radialGradient gradientTransform="matrix(-0.6066716,0,0,0.4034938,40.981818,26.354263)" gradientUnits="userSpaceOnUse" xlink:href="#linearGradient7822" id="radialGradient2963" fy="34.785942" fx="14.363107" r="8.7946405" cy="34.785942" cx="14.363107"/>
    <linearGradient id="linearGradient7822">
      <stop offset="0" style="stop-color:#000000;stop-opacity:1" id="stop7824"/>
      <stop offset="1" style="stop-color:#000000;stop-opacity:0" id="stop7826"/>
    </linearGradient>
  </defs>
  <sodipodi:namedview id="base" pagecolor="#ffffff" bordercolor="#666666" borderopacity="1.0" inkscape:pageopacity="0.0" inkscape:pageshadow="2" inkscape:zoom="7" inkscape:cx="30.352041" inkscape:cy="24" inkscape:current-layer="layer1" showgrid="true" inkscape:grid-bbox="true" inkscape:document-units="px" inkscape:window-width="657" inkscape:window-height="414" inkscape:window-x="161" inkscape:window-y="506" inkscape:window-maximized="0"/>
  <metadata id="metadata18725">
    <rdf:RDF>
      <cc:Work rdf:about="">
        <dc:format>image/svg+xml</dc:format>
        <dc:type rdf:resource="http://purl.org/dc/dcmitype/StillImage"/>
        <dc:title/>
      </cc:Work>
    </rdf:RDF>
  </metadata>
  <g id="layer1" inkscape:label="Layer 1" inkscape:groupmode="layer">
    <path inkscape:connector-curvature="0" style="opacity:0.8;color:#000000;fill:none;stroke:url(#linearGradient18718);stroke-width:1;stroke-linecap:butt;stroke-linejoin:miter;stroke-miterlimit:4;stroke-opacity:1;stroke-dasharray:none;stroke-dashoffset:0;marker:none;visibility:visible;display:inline;overflow:visible;enable-background:accumulate" d="m 5.5000021,8.4999991 c -0.554,0 -1,0.446 -1,1 l 0,1.9999999 -1,0 c -0.554,0 -1,0.446 -1,1 l 0,6 c 0,0.554 0.446,1 1,1 l 40.9999999,0 c 0.554,0 1,-0.446 1,-1 l 0,-6 c 0,-0.554 -0.446,-1 -1,-1 l -23,0 0,-1.9999999 c 0,-0.554 -0.446,-1 -1,-1 l -14.9999999,0 z" id="rect4251-0-0-1-1"/>
    <path inkscape:connector-curvature="0" style="color:#000000;fill:url(#linearGradient3089-5-2-9-8-6);fill-opacity:1;fill-rule:nonzero;stroke:none;stroke-width:0.99992168;marker:none;visibility:visible;display:inline;overflow:visible;enable-background:accumulate" d="m 5.5000021,8.9999991 c -0.277,0 -0.5,0.223 -0.5,0.5 l 0,2.4999999 -1.5,0 c -0.277,0 -0.5,0.223 -0.5,0.5 l 0,6 c 0,0.277 0.223,0.5 0.5,0.5 l 40.9999999,0 c 0.277,0 0.5,-0.223 0.5,-0.5 l 0,-6 c 0,-0.277 -0.223,-0.5 -0.5,-0.5 l -23.5,0 0,-2.4999999 c 0,-0.277 -0.223,-0.5 -0.5,-0.5 l -14.9999999,0 z" id="rect4251-4-7-62"/>
    <path inkscape:connector-curvature="0" style="color:#000000;fill:none;stroke:url(#linearGradient3381-5-5-29-4);stroke-width:1;stroke-linecap:round;stroke-linejoin:round;stroke-miterlimit:4;stroke-opacity:1;stroke-dasharray:none;stroke-dashoffset:0;marker:none;visibility:visible;display:inline;overflow:visible;enable-background:accumulate" d="m 5.5000021,9.4999991 0,2.9999999 -2,0 0,7 40.9999999,0 0,-7 -24,0 0,-2.9999999 -14.9999999,0 z" id="rect4251-9-9-0-05"/>
    <rect style="opacity:0.3;fill:url(#linearGradient3086-4-4-0);fill-opacity:1;fill-rule:nonzero;stroke:none;stroke-width:1;marker:none;visibility:visible;display:inline;overflow:visible" id="rect4173-6-7-7" y="41" x="4.8333745" height="6.0000005" width="38.333332"/>
    <path style="opacity:0.3;fill:url(#radialGradient3083-4-5-6);fill-opacity:1;fill-rule:nonzero;stroke:none;stroke-width:1;marker:none;visibility:visible;display:inline;overflow:visible" id="path5058-7-9-1" inkscape:connector-curvature="0" d="m 43.166672,41.00021 c 0,0 0,5.99967 0,5.99967 1.58565,0.0113 3.83333,-1.34422 3.83333,-3.00022 0,-1.656 -1.76947,-2.99945 -3.83333,-2.99945 z"/>
    <path style="opacity:0.3;fill:url(#radialGradient3080-2-3-9);fill-opacity:1;fill-rule:nonzero;stroke:none;stroke-width:1;marker:none;visibility:visible;display:inline;overflow:visible" id="path5018-8-1-1" inkscape:connector-curvature="0" d="m 4.8333321,41.00021 c 0,0 0,5.99967 0,5.99967 -1.58565,0.0113 -3.83333,-1.34422 -3.83333,-3.00022 0,-1.656 1.76947,-2.99945 3.83333,-2.99945 z"/>
    <path style="fill:url(#linearGradient4638-4-6-8);fill-opacity:1;stroke:none" id="path3388-1-43-0" inkscape:connector-curvature="0" d="m 2.1626121,15.500189 c -1.07231,0.12829 -0.49959,1.45416 -0.58508,2.19974 0.12444,0.48182 0.92748,26.176431 0.92748,26.176431 0,0.7414 0.35172,0.61579 1.24292,0.61579 13.1885599,0 27.7725299,0 40.9610899,0 0.96008,0.0231 0.75718,0.0121 0.75718,-0.62748 0,0 0.99298,-27.354211 1.0285,-27.781101 0,-0.44949 0.0902,-0.58338 -0.47316,-0.58338 -14.08405,0 -29.77488,0 -43.8589299,0 z" sodipodi:nodetypes="ccsscccsc"/>
    <path style="opacity:0.4;fill:url(#linearGradient3072-0-3-0);fill-opacity:1;stroke:none" id="path6127-7-1-6" inkscape:connector-curvature="0" d="m 2.0582421,16.065149 43.8964799,4e-4 c 0.63416,0 1.04515,0.44461 1.04515,0.99737 l -1.03241,26.960371 c 0.0147,0.6994 -0.20909,0.97671 -0.9459,0.96204 L 3.2408421,44.96773 c -0.63416,0 -1.27363,-0.41276 -1.27363,-0.96551 l -0.95412,-26.939321 c 0,-0.55276 0.41099,-0.99775 1.04515,-0.99775 z"/>
    <path sodipodi:type="inkscape:offset" inkscape:radius="-1.0151105" inkscape:original="M 2.15625 16.5 C 1.0839484 16.623862 1.6479947 17.905133 1.5625 18.625 C 1.6869357 19.090206 2.5 43.90625 2.5 43.90625 C 2.5 44.622082 2.8587963 44.5 3.75 44.5 L 44.71875 44.5 C 45.67883 44.52232 45.46875 44.492483 45.46875 43.875 C 45.46875 43.875 46.464479 17.474672 46.5 17.0625 C 46.5 16.628509 46.594572 16.5 46.03125 16.5 L 2.15625 16.5 z " style="opacity:0.5;color:#000000;fill:none;stroke:url(#linearGradient3381-56-2-7-5);stroke-width:0.98133707;stroke-linecap:round;stroke-linejoin:miter;stroke-miterlimit:4;stroke-opacity:1;stroke-dasharray:none;stroke-dashoffset:0;marker:none;visibility:visible;display:inline;overflow:visible;enable-background:accumulate" id="path4587-4-6-3" d="m 2.5,17.5 c 0.016793,0.176427 0.022163,0.517935 0.03125,0.875 0.023112,0.08641 0.025524,0.05923 0.03125,0.09375 0.011058,0.06665 0.027034,0.138257 0.03125,0.1875 0.0064,0.07474 -0.00668,0.173042 0,0.28125 0.013352,0.216416 0.045306,0.510844 0.0625,0.875 0.034388,0.728313 0.078083,1.708883 0.125,2.90625 0.093834,2.394734 0.2030642,5.55569 0.3125,8.6875 C 3.3060459,37.481691 3.4883163,43.143759 3.5,43.5 c 0.1225025,0.0036 0.071108,0 0.25,0 l 40.71875,0 c 0.0124,-0.328836 0.253182,-6.426721 0.5,-12.90625 0.126691,-3.325928 0.245386,-6.68527 0.34375,-9.21875 0.04918,-1.26674 0.09434,-2.331501 0.125,-3.09375 0.01322,-0.328618 0.02246,-0.572975 0.03125,-0.78125 L 2.5,17.5 z" transform="matrix(1,0,0,1.0383977,2.0849371e-6,-1.6703609)"/>
    <path style="opacity:0.3;fill:none;stroke:#000000;stroke-width:1;stroke-linecap:round;stroke-linejoin:round;stroke-miterlimit:4;stroke-opacity:1;stroke-dashoffset:0" id="path3388-1-43-0-3" inkscape:connector-curvature="0" d="m 2.1626121,15.500189 c -1.07231,0.12829 -0.49959,1.45416 -0.58508,2.19974 0.12444,0.48182 0.92748,26.176431 0.92748,26.176431 0,0.7414 0.35172,0.61579 1.24292,0.61579 13.1885599,0 27.7725299,0 40.9610899,0 0.96008,0.0231 0.75718,0.0121 0.75718,-0.62748 0,0 0.99298,-27.354211 1.0285,-27.781101 0,-0.44949 0.0902,-0.58338 -0.47316,-0.58338 -14.08405,0 -29.77488,0 -43.8589299,0 z" sodipodi:nodetypes="ccsscccsc"/>
    <g id="g3131" transform="translate(5.9604647e-8,-3.4e-5)">
      <path d="m 37.576228,29.350393 -1.574417,0 -1.049611,0 1.574417,0 1.049611,0 z" id="path7013" style="fill:#ffffff;fill-opacity:1;fill-rule:evenodd;stroke:none" inkscape:connector-curvature="0"/>
      <path d="m 26.932671,40.390173 c -4.45e-4,1.960038 2.388452,3.549118 5.335458,3.549118 2.947007,0 5.335903,-1.58908 5.335459,-3.549118 4.44e-4,-1.960037 -2.388452,-3.549118 -5.335459,-3.549118 -2.947006,0 -5.335903,1.589081 -5.335458,3.549118 z" id="path7820" style="opacity:0.45895523;fill:url(#radialGradient2963);fill-opacity:1;fill-rule:evenodd;stroke:none" inkscape:connector-curvature="0"/>
      <g transform="translate(-1,-3.0992553e-7)" id="g2540">
        <rect width="19" height="18" rx="2.2850928" ry="2.3001263" x="-34.5" y="22.5" transform="scale(-1,1)" id="rect5925" style="fill:url(#linearGradient2621);fill-opacity:1;fill-rule:evenodd;stroke:#999999;stroke-width:1.00000012;stroke-linecap:round;stroke-linejoin:round;stroke-miterlimit:4;stroke-opacity:0.99236642;stroke-dasharray:none;stroke-dashoffset:0.69999992"/>
        <path d="m -12.5,1.5 c -0.572952,0 -1,0.4270471 -1,1 l 0,11 c 0,0.572953 0.427046,1 1,1 l 12,0 c 0.57295344,0 1,-0.427046 1,-1 l 0,-11 c 0,-0.5729532 -0.42704686,-1 -1,-1 l -12,0 z" transform="matrix(-1.197479,0,0,1.2115385,17.216386,21.807693)" id="path6964" style="fill:none;stroke:url(#linearGradient2623);stroke-width:0.83022809;stroke-linecap:round;stroke-linejoin:round;stroke-miterlimit:4;stroke-opacity:0.99236642;stroke-dasharray:none;stroke-dashoffset:0.69999992" inkscape:connector-curvature="0"/>
      </g>
      <g transform="matrix(-0.6122733,0,0,0.6297668,31.715898,4.0547584)" id="g7162">
        <path d="m -2.34375,51 c -0.2047699,0 -0.3811572,0.101237 -0.5,0.25 l -4.015625,4 C -6.8943841,55.381797 -6.9584881,55.521336 -7,55.65625 l 0,5.520833 c 0,0.363563 0.2965189,0.65625 0.65625,0.65625 l 6.6875,0 c 0.17986547,0 0.3513829,-0.06888 0.46875,-0.1875 l 4,-4 C 4.9298671,57.527216 5,57.358864 5,57.177083 L 5,51.65625 C 5,51.474469 4.9298671,51.306117 4.8125,51.1875 4.6934039,51.068883 4.5236156,51 4.34375,51 l -6.6875,0 0,0 z" id="rect6100" style="fill:url(#linearGradient7555);fill-opacity:1;fill-rule:evenodd;stroke:none" inkscape:connector-curvature="0"/>
        <path d="m -6.3738568,55.166667 6.46199924,0 c 0.34688337,0 0.62614331,0.284557 0.62614331,0.638021 l 0,5.390624 c 0,0.353464 -0.27925994,0.638021 -0.62614331,0.638021 l -6.46199924,0 C -6.7207401,61.833333 -7,61.548776 -7,61.195312 l 0,-5.390624 c 0,-0.353464 0.2792599,-0.638021 0.6261432,-0.638021 l 0,0 z" id="path6105" style="fill:url(#linearGradient7557);fill-opacity:1;fill-rule:evenodd;stroke:none" inkscape:connector-curvature="0"/>
      </g>
      <path d="m 32.328171,36.172868 2.624029,2.624028 -2.099223,0 -2.624028,-2.624028 2.099222,0" id="path7253" style="opacity:0.12313436;fill:url(#linearGradient2954);fill-opacity:1;fill-rule:evenodd;stroke:none" inkscape:connector-curvature="0"/>
      <path d="m 30.228949,36.172868 4.985654,2.099222 -1.83682,0 -2.624029,-1.574417 -0.524805,-0.524805" id="path6126" style="fill:#babdb6;fill-rule:evenodd;stroke:none" inkscape:connector-curvature="0"/>
      <path d="m 33.14818,36.43527 c 0.01251,0 0.02866,0.0034 0.082,0.0656 0.01575,0.01188 0.03218,0.02283 0.0492,0.0328 0.01043,0.01143 0.02137,0.02237 0.0328,0.0328 0.01043,0.01143 0.02137,0.02237 0.0328,0.0328 l 0.0164,0 c 0.01043,0.01143 0.02137,0.02237 0.0328,0.0328 l 0.0984,0.0984 c 0.05607,0.05266 0.123362,0.09191 0.196802,0.114801 l 2.230425,0.639607 c 0.210182,0.109346 0.280264,0.183325 0.311603,0.246002 4.66e-4,9.32e-4 -0.01785,0.07062 0,0.0492 -0.04295,0.05154 -0.189126,0.132379 -0.442805,0.180402 -0.17838,0.03614 -0.323835,0.164877 -0.381391,0.337541 -0.05756,0.172666 -0.01843,0.362925 0.102588,0.498868 l 0.180402,0.196802 c 0.0104,0.04595 0.02826,0.08926 0.0492,0.164002 0.0039,0.01396 -0.0043,0.01849 0,0.0328 l 0,3.411237 c 0,0.02844 -1.98e-4,0.06064 -0.0328,0.0984 -0.01653,0.01914 -0.05419,0.0328 -0.082,0.0328 l -4.116444,0 c -0.04858,0 -0.0884,-0.0054 -0.114802,-0.0328 8.9e-5,-0.0055 8.9e-5,-0.01093 0,-0.0164 l -2.443626,-2.525627 c -0.02739,-0.02847 -0.0328,-0.04153 -0.0328,-0.0984 l 0,-3.476838 c 0,-0.05686 0.0054,-0.08633 0.0328,-0.114801 0.01933,-0.0198 0.08133,-0.0328 0.0984,-0.0328 l 4.100044,0 4e-6,4e-6 z" id="path7235" style="opacity:0.53358208;fill:none;stroke:#ffffff;stroke-width:1.00000012;stroke-linecap:round;stroke-linejoin:round;stroke-miterlimit:4;stroke-opacity:1;stroke-dashoffset:0.69999992" inkscape:connector-curvature="0"/>
      <path d="m 33.14818,35.926865 c 0.203489,0 0.363004,0.11466 0.475606,0.246003 l 0.0164,-0.0164 0.0164,0.0328 0.180402,0.164001 2.230424,0.639607 c 0.01693,0.0037 0.03342,0.0092 0.0492,0.0164 0.288073,0.144036 0.473389,0.29077 0.574006,0.492005 0.100617,0.201235 0.06115,0.454705 -0.0656,0.606807 -0.172177,0.206611 -0.450076,0.289896 -0.738008,0.344403 l 0.213202,0.229603 c 0.02954,0.02698 0.05206,0.06075 0.0656,0.0984 0.01645,0.0637 0.03668,0.165727 0.0656,0.262403 0.0085,0.02101 0.01398,0.04308 0.0164,0.0656 l 0,3.493238 c 0,0.156849 -0.05942,0.305267 -0.164002,0.426405 -0.104577,0.121138 -0.268105,0.213202 -0.459205,0.213202 l -4.116444,0 c -0.169845,0 -0.344742,-0.06076 -0.475606,-0.196802 l -2.443626,-2.525627 c -0.118543,-0.123227 -0.180402,-0.28321 -0.180402,-0.459205 l 0,-3.476838 c 0,-0.175995 0.06186,-0.335978 0.180402,-0.459205 0.117376,-0.120242 0.289359,-0.196802 0.459205,-0.196802 l 4.100044,0 2e-6,2e-6 z" id="path7229" style="fill:none;stroke:#787878;stroke-width:1.00000012;stroke-linecap:round;stroke-linejoin:round;stroke-miterlimit:4;stroke-opacity:1;stroke-dashoffset:0.69999992" inkscape:connector-curvature="0"/>
      <path d="m 30.228949,36.172868 5.772862,1.312014 -1.049611,0.787208 -1.574417,0 -2.624029,-1.574417 -0.524805,-0.524805" id="path7184" style="fill:url(#linearGradient2948);fill-opacity:1;fill-rule:evenodd;stroke:none" inkscape:connector-curvature="0"/>
      <path d="m 32.328171,36.172868 3.67364,1.049611 -2.099222,0 -3.67364,-1.049611 2.099222,0" id="path7171" style="fill:url(#linearGradient2945);fill-opacity:1;fill-rule:evenodd;stroke:none" inkscape:connector-curvature="0"/>
      <path d="m 36.001811,37.222479 -1.94869,0 -0.150532,0 c 1.049611,0.524806 0.262402,1.049611 -0.524806,1.049611 l 2.099223,0 c 0.787208,0 1.574417,-0.524805 0.524805,-1.049611 l 0,0 z" id="rect7173" style="fill:url(#linearGradient2942);fill-opacity:1;fill-rule:evenodd;stroke:none" inkscape:connector-curvature="0"/>
      <path d="m 34.739216,39.846507 -2.198061,0 c -0.117993,0 -0.212984,0.102403 -0.212984,0.229603 l 0,1.640018 c 0,0.1272 0.09499,0.229602 0.212984,0.229602 l 2.198061,0 c 0.117993,0 0.212984,-0.102402 0.212984,-0.229602 l 0,-1.640018 c 0,-0.1272 -0.09499,-0.229603 -0.212984,-0.229603 z" id="path7275" style="fill:url(#linearGradient2939);fill-opacity:1;fill-rule:evenodd;stroke:none" inkscape:connector-curvature="0"/>
      <g transform="translate(-1,-3.0992553e-7)" id="g2531">
        <path d="m 25.55613,28.070578 c 0.344589,0 0.623081,0.278205 0.623081,0.62244 l 0,0.15519 c 0,0.158119 0.123656,0.292912 0.293215,0.292912 l 0.842991,0 c 0.344589,0 0.623081,0.379315 0.623081,0.723548 l 0,3.475428 c 0,0.344235 -0.278493,0.62244 -0.623081,0.62244 l -4.618128,0 c -0.344588,0 -0.62308,-0.278205 -0.62308,-0.62244 l 0,-3.475428 c 0,-0.344234 0.278491,-0.723548 0.62308,-0.723548 l 0.842992,0 c 0.141164,0.0095 0.293214,-0.10046 0.293214,-0.283759 l 0,-0.164343 c 0,-0.344235 0.278493,-0.62244 0.623081,-0.62244 l 1.099554,0 z" id="rect7327" style="fill:url(#linearGradient2607);fill-opacity:1;fill-rule:evenodd;stroke:none" inkscape:connector-curvature="0"/>
        <path d="m 23.6875,27.78125 c -0.626539,0 -1.08518,0.484261 -1.21875,1.0625 l -0.34375,0 c -0.724125,0 -1.34375,0.580919 -1.34375,1.3125 l 0,3.09375 c 0,0.731581 0.612169,1.343751 1.34375,1.34375 l 4.125,0 c 0.73158,0 1.343749,-0.612168 1.34375,-1.34375 l 0,-3.09375 c 0,-0.731581 -0.619625,-1.312499 -1.34375,-1.3125 l -0.3125,0 c -0.139324,-0.582399 -0.623461,-1.0625 -1.25,-1.0625 l -1,0 z" transform="matrix(1.0275229,0,0,1.0275229,0.1467896,-1.0458711)" id="path2709" style="fill:none;stroke:url(#linearGradient2609);stroke-width:0.97321439;stroke-linecap:round;stroke-linejoin:miter;stroke-miterlimit:4;stroke-opacity:1;stroke-dashoffset:0.69999992" inkscape:connector-curvature="0"/>
        <g transform="matrix(-0.5392499,0,0,0.5392499,40.914225,18.327333)" id="g7393" style="fill-opacity:1;stroke:url(#linearGradient2619);stroke-width:1.85442805">
          <path d="m 26.5,26.5 0,-2" id="path7352" style="fill:none;stroke:url(#linearGradient2611);stroke-width:1.85442805px;stroke-linecap:round;stroke-linejoin:miter;stroke-opacity:1" inkscape:connector-curvature="0"/>
          <path d="m 28.5,26.5 0,-2" id="path7362" style="fill:none;stroke:url(#linearGradient2613);stroke-width:1.85442805px;stroke-linecap:round;stroke-linejoin:miter;stroke-opacity:1" inkscape:connector-curvature="0"/>
          <path d="m 30.5,26.5 0,-2" id="path7364" style="fill:none;stroke:url(#linearGradient2615);stroke-width:1.85442805px;stroke-linecap:round;stroke-linejoin:miter;stroke-opacity:1" inkscape:connector-curvature="0"/>
          <path d="m 32.5,26.5 0,-2" id="path7366" style="fill:none;stroke:url(#linearGradient2617);stroke-width:1.85442805px;stroke-linecap:round;stroke-linejoin:miter;stroke-opacity:1" inkscape:connector-curvature="0"/>
        </g>
      </g>
      <path d="m 32.492173,39.092099 c 0,0 2.198608,1.714902 4.247646,3.411237 1.02452,0.848168 1.940762,1.690426 2.476427,2.509228 0.267833,0.4094 0.518044,0.851875 0.344404,1.459615 -0.08682,0.30387 -0.320859,0.588421 -0.574006,0.738008 -0.253148,0.149588 -0.502844,0.213192 -0.787209,0.246003 -1.114624,0.128611 -2.482847,-0.20656 -4.116444,-0.672407 -1.633598,-0.465847 -3.500059,-1.092836 -5.379259,-1.705619 -1.8792,-0.612782 -3.776704,-1.210235 -5.428459,-1.574417 -1.651755,-0.364182 -3.062296,-0.464439 -3.870442,-0.262403 -0.382547,0.09564 -0.39127,0.157874 -0.393604,0.164002 -0.0023,0.0061 -0.03389,0.176036 0.114801,0.492005 0.297383,0.63194 1.17826,1.635575 2.197624,2.591229 2.038728,1.911307 4.64125,3.73924 4.64125,3.73924 l -0.91841,1.279214 c 0,0 -2.645535,-1.845707 -4.805252,-3.870442 -1.079858,-1.012368 -2.035802,-2.042355 -2.525627,-3.083233 -0.244913,-0.52044 -0.40767,-1.10904 -0.180402,-1.705619 0.227268,-0.596579 0.808952,-0.981247 1.476016,-1.148012 1.291076,-0.32277 2.857168,-0.107323 4.60845,0.278803 1.751282,0.386125 3.68322,0.973586 5.57606,1.590817 1.892841,0.617231 3.741021,1.257155 5.313658,1.705618 1.52839,0.435846 2.780385,0.640312 3.394837,0.590407 -0.325344,-0.497312 -1.204921,-1.340173 -2.181224,-2.148424 -1.952604,-1.6165 -4.182045,-3.345636 -4.182045,-3.345636 l 0.95121,-1.279214 0,0 z" id="path7506" style="fill:url(#linearGradient2926);fill-opacity:1;fill-rule:evenodd;stroke:url(#linearGradient2928);stroke-width:0.5;stroke-linecap:butt;stroke-linejoin:round;stroke-miterlimit:4;stroke-opacity:1;stroke-dasharray:none" inkscape:connector-curvature="0"/>
      <path d="m 31.975326,39.463193 c 0,0 9.676105,6.658472 6.264868,7.052077 -3.411237,0.393604 -14.694559,-5.248057 -18.893005,-4.198446 -4.198445,1.049611 6.297669,8.396891 6.297669,8.396891" id="path7502" style="opacity:0.6;fill:none;stroke:url(#linearGradient2923);stroke-width:0.5;stroke-linecap:butt;stroke-linejoin:miter;stroke-miterlimit:4;stroke-opacity:1;stroke-dasharray:none" inkscape:connector-curvature="0"/>
      <path d="m 34.905614,38.813296 -0.166616,1.049612 -2.197624,0 c -0.117993,0 -0.213202,0.102402 -0.213202,0.229602 l 0,1.640018 -1.049612,-0.164002 0,-2.345225 c 0,-0.2226 0.164817,-0.410005 0.377204,-0.410005 l 3.24985,0 z" id="path7512" style="fill:url(#linearGradient2920);fill-opacity:1;fill-rule:evenodd;stroke:none" inkscape:connector-curvature="0"/>
      <path d="m 34.739216,39.846507 -2.198061,0 c -0.117993,0 -0.212984,0.102403 -0.212984,0.229603 l 0,1.640018 c 0,0.1272 0.09499,0.229602 0.212984,0.229602 l 2.198061,0 c 0.117993,0 0.212984,-0.102402 0.212984,-0.229602 l 0,-1.640018 c 0,-0.1272 -0.09499,-0.229603 -0.212984,-0.229603 z" id="path7810" style="opacity:0.35447759;fill:url(#linearGradient2917);fill-opacity:1;fill-rule:evenodd;stroke:none" inkscape:connector-curvature="0"/>
    </g>
  </g>
</svg>
