<?xml version="1.0" encoding="UTF-8"?>
<svg xmlns="http://www.w3.org/2000/svg" xmlns:xlink="http://www.w3.org/1999/xlink" width="22" height="22" viewBox="0 0 22 22" version="1.1">
<defs>
<radialGradient id="radial0" gradientUnits="userSpaceOnUse" cx="62.71241" cy="108.02493" fx="62.71241" fy="108.02493" r="47.38271" gradientTransform="matrix(0.174114,0,0,0.0979488,0.0808828,6.778503)">
<stop offset="0" style="stop-color:rgb(0%,0%,0%);stop-opacity:1;"/>
<stop offset="1" style="stop-color:rgb(0%,0%,0%);stop-opacity:0;"/>
</radialGradient>
<linearGradient id="linear0" gradientUnits="userSpaceOnUse" x1="11.93083" y1="26.410894" x2="21.514704" y2="26.410894" spreadMethod="reflect" gradientTransform="matrix(1.208348,0,0,1.519879,-1.979478,-31.055094)">
<stop offset="0" style="stop-color:rgb(55.294118%,56.470588%,60.392157%);stop-opacity:1;"/>
<stop offset="1" style="stop-color:rgb(85.098039%,85.098039%,85.098039%);stop-opacity:1;"/>
</linearGradient>
<linearGradient id="linear1" gradientUnits="userSpaceOnUse" x1="31.048019" y1="45" x2="31.048019" y2="5.5" gradientTransform="matrix(1,0,0,1,0,-14)">
<stop offset="0" style="stop-color:rgb(43.137255%,43.137255%,43.137255%);stop-opacity:1;"/>
<stop offset="1" style="stop-color:rgb(62.352941%,62.352941%,63.137255%);stop-opacity:1;"/>
</linearGradient>
<radialGradient id="radial1" gradientUnits="userSpaceOnUse" cx="19.308081" cy="21.029308" fx="19.308081" fy="21.029308" r="14.500172" gradientTransform="matrix(0,0.77937,-0.79854,0,23.046544,-8.861404)">
<stop offset="0" style="stop-color:rgb(100%,100%,100%);stop-opacity:0.4;"/>
<stop offset="1" style="stop-color:rgb(100%,100%,100%);stop-opacity:0;"/>
</radialGradient>
<linearGradient id="linear2" gradientUnits="userSpaceOnUse" x1="9.000347" y1="8" x2="24" y2="8" spreadMethod="reflect" gradientTransform="matrix(1,0,0,1,0,-16)">
<stop offset="0" style="stop-color:rgb(30.588235%,30.588235%,30.588235%);stop-opacity:1;"/>
<stop offset="1" style="stop-color:rgb(72.54902%,72.941176%,76.078431%);stop-opacity:1;"/>
</linearGradient>
<linearGradient id="linear3" gradientUnits="userSpaceOnUse" x1="23.999979" y1="9.372685" x2="23.999979" y2="2.096848" gradientTransform="matrix(1.159866,0,0,1.374246,-3.836754,-16.932601)">
<stop offset="0" style="stop-color:rgb(94.117647%,94.117647%,94.117647%);stop-opacity:1;"/>
<stop offset="0.449556" style="stop-color:rgb(46.666667%,46.666667%,47.45098%);stop-opacity:1;"/>
<stop offset="1" style="stop-color:rgb(42.352941%,42.352941%,43.921569%);stop-opacity:1;"/>
</linearGradient>
<radialGradient id="radial2" gradientUnits="userSpaceOnUse" cx="24" cy="7.791998" fx="24" fy="7.791998" r="14.507708" gradientTransform="matrix(-0.0000000155502,0.319905,-1.532308,0,22.939739,-6.562599)">
<stop offset="0" style="stop-color:rgb(0%,0%,0%);stop-opacity:0;"/>
<stop offset="0.5" style="stop-color:rgb(0%,0%,0%);stop-opacity:0;"/>
<stop offset="1" style="stop-color:rgb(0%,0%,0%);stop-opacity:0.301961;"/>
</radialGradient>
<linearGradient id="linear4" gradientUnits="userSpaceOnUse" x1="23.5" y1="10.996204" x2="23.5" y2="39.850574" gradientTransform="matrix(1.222797,0,0,1.945898,-4.735753,-47.362975)">
<stop offset="0" style="stop-color:rgb(100%,100%,100%);stop-opacity:0.14902;"/>
<stop offset="1" style="stop-color:rgb(100%,100%,100%);stop-opacity:0;"/>
</linearGradient>
<linearGradient id="linear5" gradientUnits="userSpaceOnUse" x1="12.25" y1="20.230709" x2="17.125" y2="34.173542" gradientTransform="matrix(0.435067,0,0,0.633924,1.646045,-4.365396)">
<stop offset="0" style="stop-color:rgb(100%,100%,100%);stop-opacity:0.2;"/>
<stop offset="1" style="stop-color:rgb(100%,100%,100%);stop-opacity:0;"/>
</linearGradient>
<linearGradient id="linear6" gradientUnits="userSpaceOnUse" x1="24" y1="13.506023" x2="24" y2="43" gradientTransform="matrix(0.485294,0.17098,0,0.464109,-0.647059,-2.585439)">
<stop offset="0" style="stop-color:rgb(0%,0%,0%);stop-opacity:0.14902;"/>
<stop offset="1" style="stop-color:rgb(0%,0%,0%);stop-opacity:0;"/>
</linearGradient>
<linearGradient id="linear7" gradientUnits="userSpaceOnUse" x1="24" y1="15.502284" x2="24" y2="45" gradientTransform="matrix(0.485294,0.0213725,0,0.464109,-0.647059,-0.715345)">
<stop offset="0" style="stop-color:rgb(0%,0%,0%);stop-opacity:0.301961;"/>
<stop offset="1" style="stop-color:rgb(0%,0%,0%);stop-opacity:0;"/>
</linearGradient>
<linearGradient id="linear8" gradientUnits="userSpaceOnUse" x1="49.925751" y1="1.713386" x2="64.672821" y2="1.713386" gradientTransform="matrix(1,0,0,0.956169,-36.672862,-8.130578)">
<stop offset="0" style="stop-color:rgb(72.156863%,70.588235%,70.588235%);stop-opacity:1;"/>
<stop offset="1" style="stop-color:rgb(94.509804%,94.509804%,94.117647%);stop-opacity:1;"/>
</linearGradient>
<linearGradient id="linear9" gradientUnits="userSpaceOnUse" x1="-11.285484" y1="16.208538" x2="-11.285484" y2="-2.087147" gradientTransform="matrix(0.807497,0,0,0.894832,22.73737,-9.196209)">
<stop offset="0" style="stop-color:rgb(63.529412%,63.529412%,63.529412%);stop-opacity:1;"/>
<stop offset="1" style="stop-color:rgb(88.235294%,88.235294%,88.235294%);stop-opacity:1;"/>
</linearGradient>
<linearGradient id="linear10" gradientUnits="userSpaceOnUse" x1="52.672863" y1="5.928594" x2="59.672863" y2="-3.692724" gradientTransform="matrix(0.485294,0,0,0.443766,-18.444183,3.375057)">
<stop offset="0" style="stop-color:rgb(23.529412%,23.529412%,23.529412%);stop-opacity:1;"/>
<stop offset="1" style="stop-color:rgb(36.470588%,37.254902%,41.960784%);stop-opacity:1;"/>
</linearGradient>
<linearGradient id="linear11" gradientUnits="userSpaceOnUse" x1="12.2744" y1="32.4165" x2="35.391201" y2="14.2033" gradientTransform="matrix(0,0.600005,-0.600005,0,41.860125,-12.400131)">
<stop offset="0" style="stop-color:rgb(87.058824%,85.882353%,87.058824%);stop-opacity:1;"/>
<stop offset="0.5" style="stop-color:rgb(90.196078%,90.196078%,90.196078%);stop-opacity:1;"/>
<stop offset="1" style="stop-color:rgb(82.352941%,82.352941%,82.352941%);stop-opacity:1;"/>
</linearGradient>
<linearGradient id="linear12" gradientUnits="userSpaceOnUse" x1="-21.915663" y1="3" x2="-21.915663" y2="45.032898" gradientTransform="matrix(0.512195,0,0,0.512195,41.452835,-10.292683)">
<stop offset="0" style="stop-color:rgb(70.588235%,70.588235%,70.588235%);stop-opacity:1;"/>
<stop offset="1" style="stop-color:rgb(58.823529%,58.823529%,58.823529%);stop-opacity:1;"/>
</linearGradient>
<linearGradient id="linear13" gradientUnits="userSpaceOnUse" x1="20.580074" y1="10.774516" x2="24.27351" y2="9.862211" spreadMethod="reflect" gradientTransform="matrix(0.23739,0.00641446,-0.00670727,0.227027,7.40598,2.473571)">
<stop offset="0" style="stop-color:rgb(90.196078%,80.392157%,88.627451%);stop-opacity:1;"/>
<stop offset="1" style="stop-color:rgb(90.196078%,80.392157%,88.627451%);stop-opacity:0;"/>
</linearGradient>
<linearGradient id="linear14" gradientUnits="userSpaceOnUse" x1="17.494959" y1="11.200086" x2="21.047453" y2="9.79561" spreadMethod="reflect" gradientTransform="matrix(0.237485,0,0,0.227117,7.241543,2.625929)">
<stop offset="0" style="stop-color:rgb(75.686275%,79.607843%,89.411765%);stop-opacity:1;"/>
<stop offset="1" style="stop-color:rgb(75.686275%,79.607843%,89.411765%);stop-opacity:0;"/>
</linearGradient>
<linearGradient id="linear15" gradientUnits="userSpaceOnUse" x1="14.084608" y1="13.045606" x2="16.994024" y2="10.732353" spreadMethod="reflect" gradientTransform="matrix(0.237485,0,0,0.227117,7.241543,2.625929)">
<stop offset="0" style="stop-color:rgb(76.862745%,92.156863%,86.666667%);stop-opacity:1;"/>
<stop offset="1" style="stop-color:rgb(76.862745%,92.156863%,86.666667%);stop-opacity:0;"/>
</linearGradient>
<linearGradient id="linear16" gradientUnits="userSpaceOnUse" x1="12.371647" y1="16.188046" x2="14.609327" y2="13.461712" spreadMethod="reflect" gradientTransform="matrix(0.237485,0,0,0.227117,7.241543,2.625929)">
<stop offset="0" style="stop-color:rgb(92.156863%,93.333333%,78.039216%);stop-opacity:1;"/>
<stop offset="1" style="stop-color:rgb(92.156863%,93.333333%,78.039216%);stop-opacity:0;"/>
</linearGradient>
<linearGradient id="linear17" gradientUnits="userSpaceOnUse" x1="10.609375" y1="17.886322" x2="9.729775" y2="20.612656" spreadMethod="reflect" gradientTransform="matrix(0.237485,0,0,0.227117,7.241543,2.625929)">
<stop offset="0" style="stop-color:rgb(98.823529%,85.098039%,80.392157%);stop-opacity:1;"/>
<stop offset="1" style="stop-color:rgb(98.823529%,85.098039%,80.392157%);stop-opacity:0;"/>
</linearGradient>
<linearGradient id="linear18" gradientUnits="userSpaceOnUse" x1="10.50172" y1="3.610016" x2="48.798885" y2="54.698483" gradientTransform="matrix(0.482006,0,0,0.482006,16.264609,-10.050137)">
<stop offset="0" style="stop-color:rgb(100%,100%,100%);stop-opacity:0.4;"/>
<stop offset="1" style="stop-color:rgb(100%,100%,100%);stop-opacity:0;"/>
</linearGradient>
<linearGradient id="linear19" gradientUnits="userSpaceOnUse" x1="23.999979" y1="9.372685" x2="23.999979" y2="2.096848" gradientTransform="matrix(1.159893,0,0,1.374246,-3.83742,-16.932601)">
<stop offset="0" style="stop-color:rgb(94.117647%,94.117647%,94.117647%);stop-opacity:1;"/>
<stop offset="0.449556" style="stop-color:rgb(46.666667%,46.666667%,47.45098%);stop-opacity:1;"/>
<stop offset="1" style="stop-color:rgb(42.352941%,42.352941%,43.921569%);stop-opacity:1;"/>
</linearGradient>
<linearGradient id="linear20" gradientUnits="userSpaceOnUse" x1="27" y1="24.650604" x2="27" y2="12.711448" spreadMethod="reflect" gradientTransform="matrix(1,0,0,1,-1,-16)">
<stop offset="0" style="stop-color:rgb(30.980392%,90.588235%,81.568627%);stop-opacity:1;"/>
<stop offset="0.49876" style="stop-color:rgb(25.882353%,78.431373%,70.588235%);stop-opacity:1;"/>
<stop offset="1" style="stop-color:rgb(17.254902%,67.058824%,59.607843%);stop-opacity:1;"/>
</linearGradient>
<linearGradient id="linear21" gradientUnits="userSpaceOnUse" x1="20" y1="12.711448" x2="20" y2="23.258751" spreadMethod="reflect" gradientTransform="matrix(1,0,0,1,-1,-16)">
<stop offset="0" style="stop-color:rgb(56.078431%,100%,93.333333%);stop-opacity:1;"/>
<stop offset="0.25483" style="stop-color:rgb(28.627451%,51.764706%,48.235294%);stop-opacity:1;"/>
<stop offset="1" style="stop-color:rgb(34.901961%,64.705882%,60%);stop-opacity:1;"/>
</linearGradient>
<linearGradient id="linear22" gradientUnits="userSpaceOnUse" x1="20" y1="12.711448" x2="20" y2="21.276361" spreadMethod="reflect" gradientTransform="matrix(1,0,0,1,-1,-16)">
<stop offset="0" style="stop-color:rgb(100%,100%,100%);stop-opacity:0.4;"/>
<stop offset="1" style="stop-color:rgb(100%,100%,100%);stop-opacity:0;"/>
</linearGradient>
</defs>
<g id="surface1">
<path style=" stroke:none;fill-rule:evenodd;fill:url(#radial0);" d="M 19.25 17.359375 C 19.25 19.921875 15.554688 22 11 22 C 6.445312 22 2.75 19.921875 2.75 17.359375 C 2.75 14.796875 6.441406 12.71875 11 12.71875 C 15.558594 12.71875 19.25 14.796875 19.25 17.359375 Z M 19.25 17.359375 "/>
<path style="fill-rule:nonzero;fill:url(#linear0);stroke-width:1;stroke-linecap:butt;stroke-linejoin:miter;stroke:url(#linear1);stroke-miterlimit:4;" d="M 9.503314 -7.996034 L 9.503314 24.004159 C 9.503314 26.933162 13.90625 30.501832 24 30.501832 C 34.09375 30.501832 38.496686 26.933162 38.496686 24.004159 L 38.496686 -7.996034 C 38.496686 -7.996034 9.503314 -7.996034 9.503314 -7.996034 Z M 9.503314 -7.996034 " transform="matrix(0.485294,0,0,0.464109,-0.647059,7.148527)"/>
<path style=" stroke:none;fill-rule:nonzero;fill:url(#radial1);" d="M 4.207031 3.898438 L 4.207031 18.289062 C 4.207031 19.597656 7.25 21.070312 11 21.070312 C 14.75 21.070312 17.792969 19.597656 17.792969 18.289062 L 17.792969 3.898438 C 17.792969 3.898438 4.207031 3.898438 4.207031 3.898438 Z M 4.207031 3.898438 "/>
<path style="fill-rule:nonzero;fill:url(#linear2);stroke-width:0.98389;stroke-linecap:round;stroke-linejoin:round;stroke:url(#linear3);stroke-miterlimit:4;" d="M 38.504735 -7.996034 C 38.504735 -4.957614 32.008996 -2.491529 24 -2.491529 C 15.991004 -2.491529 9.495265 -4.957614 9.495265 -7.996034 C 9.495265 -11.042869 15.991004 -13.508955 24 -13.508955 C 32.008996 -13.508955 38.504735 -11.042869 38.504735 -7.996034 Z M 38.504735 -7.996034 " transform="matrix(0.485294,0,0,0.464109,-0.647059,7.148527)"/>
<path style=" stroke:none;fill-rule:nonzero;fill:url(#radial2);" d="M 17.792969 3.4375 C 17.792969 4.71875 14.753906 5.757812 11 5.757812 C 7.246094 5.757812 4.207031 4.71875 4.207031 3.4375 C 4.207031 2.152344 7.246094 1.113281 11 1.113281 C 14.753906 1.113281 17.792969 2.152344 17.792969 3.4375 Z M 17.792969 3.4375 "/>
<path style="fill:none;stroke-width:1;stroke-linecap:round;stroke-linejoin:round;stroke:url(#linear4);stroke-miterlimit:4;" d="M 10.50142 -8.189617 C 10.50142 -5.967615 10.50142 22.404991 10.50142 24.63541 C 10.50142 27.320329 16.578598 29.500247 24 29.500247 C 31.421402 29.500247 37.49858 27.320329 37.49858 24.63541 C 37.49858 22.573325 37.49858 -6.127532 37.49858 -8.189617 C 37.49858 -10.436869 31.421402 -12.532621 24 -12.498954 C 16.578598 -12.465287 10.50142 -10.420036 10.50142 -8.189617 Z M 10.50142 -8.189617 " transform="matrix(0.485294,0,0,0.464109,-0.647059,7.148527)"/>
<path style=" stroke:none;fill-rule:nonzero;fill:url(#linear5);" d="M 7.300781 5.375 L 9.476562 5.777344 L 9.476562 21.191406 L 7.300781 20.675781 Z M 7.300781 5.375 "/>
<path style=" stroke:none;fill-rule:nonzero;fill:url(#linear6);" d="M 5.90625 5.992188 C 6.308594 6.132812 6.632812 6.558594 6.632812 6.945312 L 6.632812 19.238281 C 6.632812 19.625 6.308594 19.820312 5.90625 19.679688 C 5.5 19.539062 5.175781 19.113281 5.175781 18.726562 L 5.175781 6.429688 C 5.175781 6.046875 5.5 5.847656 5.90625 5.992188 Z M 16.09375 5.875 C 15.691406 6.019531 15.367188 6.445312 15.367188 6.828125 L 15.367188 19.125 C 15.367188 19.511719 15.691406 19.707031 16.09375 19.566406 C 16.5 19.421875 16.824219 18.996094 16.824219 18.613281 L 16.824219 6.316406 C 16.824219 5.929688 16.5 5.734375 16.09375 5.875 Z M 16.09375 5.875 "/>
<path style=" stroke:none;fill-rule:nonzero;fill:url(#linear7);" d="M 9.300781 6.917969 C 9.703125 6.9375 10.03125 7.261719 10.03125 7.648438 L 10.03125 19.945312 C 10.03125 20.328125 9.703125 20.625 9.300781 20.609375 C 8.898438 20.589844 8.574219 20.265625 8.574219 19.878906 L 8.574219 7.582031 C 8.574219 7.199219 8.898438 6.902344 9.300781 6.917969 Z M 12.699219 6.917969 C 12.296875 6.9375 11.96875 7.261719 11.96875 7.648438 L 11.96875 19.945312 C 11.96875 20.328125 12.296875 20.625 12.699219 20.609375 C 13.101562 20.589844 13.425781 20.265625 13.425781 19.878906 L 13.425781 7.582031 C 13.425781 7.199219 13.101562 6.902344 12.699219 6.917969 Z M 12.699219 6.917969 "/>
<path style="fill-rule:nonzero;fill:url(#linear8);stroke-width:0.999922;stroke-linecap:butt;stroke-linejoin:round;stroke:url(#linear9);stroke-miterlimit:4;" d="M 12.497632 -7.8782 L 12.497632 -4.620947 C 16.852273 -2.668279 22.663826 -2.196945 27.50142 -2.550446 L 27.50142 -10.504202 C 23.774621 -10.504202 17.085701 -11.068119 12.497632 -7.8782 Z M 12.497632 -7.8782 " transform="matrix(0.485294,0,0,0.464109,-0.647059,7.148527)"/>
<path style=" stroke:none;fill-rule:nonzero;fill:url(#linear10);" d="M 6.148438 3.898438 L 6.148438 5.421875 C 7.664062 5.855469 10.363281 6.023438 11.972656 6.007812 C 11.972656 6.007812 11.96875 2.972656 11.96875 2.972656 C 9.542969 2.972656 8.089844 2.972656 6.148438 3.898438 Z M 6.148438 3.898438 "/>
<path style="fill-rule:nonzero;fill:url(#linear11);stroke-width:1;stroke-linecap:butt;stroke-linejoin:miter;stroke:url(#linear12);stroke-miterlimit:4;" d="M 28.000473 -8.501034 C 24.144886 -8.501034 20.241004 -6.026532 18.413826 -2.946029 C 23.734375 -2.356862 31.196023 -2.196945 36.025568 -4.822948 C 34.109848 -6.842949 31.018939 -8.501034 28.000473 -8.501034 Z M 28.000473 -8.501034 " transform="matrix(0.485294,0,0,0.464109,-0.647059,7.148527)"/>
<path style=" stroke:none;fill-rule:nonzero;fill:url(#linear13);" d="M 11.132812 3.875 L 12.191406 6.316406 C 12.441406 6.21875 12.710938 6.167969 13 6.175781 C 13.007812 6.175781 13.011719 6.175781 13.019531 6.175781 L 13.101562 3.539062 C 12.402344 3.503906 11.78125 3.652344 11.132812 3.875 Z M 11.132812 3.875 "/>
<path style=" stroke:none;fill-rule:nonzero;fill:url(#linear14);" d="M 10.121094 4.421875 L 11.765625 6.546875 C 11.984375 6.394531 12.234375 6.28125 12.511719 6.222656 C 12.519531 6.222656 12.527344 6.21875 12.535156 6.21875 L 11.957031 3.632812 C 11.269531 3.757812 10.695312 4.050781 10.121094 4.421875 Z M 10.121094 4.421875 "/>
<path style=" stroke:none;fill-rule:nonzero;fill:url(#linear15);" d="M 9.203125 5.269531 L 11.390625 6.894531 C 11.558594 6.695312 11.769531 6.523438 12.023438 6.398438 C 12.03125 6.394531 12.035156 6.390625 12.042969 6.390625 L 10.773438 4.046875 C 10.144531 4.339844 9.65625 4.773438 9.203125 5.269531 Z M 9.203125 5.269531 "/>
<path style=" stroke:none;fill-rule:nonzero;fill:url(#linear16);" d="M 8.578125 6.277344 C 10.28125 6.785156 10.445312 7.875 11.613281 6.675781 L 9.734375 4.699219 C 9.207031 5.136719 8.882812 5.683594 8.578125 6.277344 Z M 8.578125 6.277344 "/>
<path style=" stroke:none;fill-rule:nonzero;fill:url(#linear17);" d="M 8.941406 5.621094 C 8.660156 6.019531 8.488281 6.449219 8.339844 6.902344 L 11.035156 7.578125 C 11.085938 7.40625 11.15625 7.234375 11.265625 7.074219 C 11.269531 7.070312 11.273438 7.0625 11.277344 7.054688 Z M 8.941406 5.621094 "/>
<path style="fill:none;stroke-width:1;stroke-linecap:butt;stroke-linejoin:miter;stroke:url(#linear18);stroke-miterlimit:4;" d="M 28.000473 -7.533117 C 24.63589 -7.533117 21.303504 -5.428948 19.605114 -2.819779 C 25.59375 -2.398946 30.350852 -2.516779 35.116004 -4.385281 C 33.393466 -6.093865 30.632576 -7.533117 28.000473 -7.533117 Z M 28.000473 -7.533117 " transform="matrix(0.485294,0,0,0.464109,-0.647059,7.148527)"/>
<path style=" stroke:none;fill-rule:evenodd;fill:rgb(0%,0%,0%);fill-opacity:0.2;" d="M 8.574219 6.21875 C 8.574219 6.21875 11.96875 6.21875 11.96875 6.21875 L 11.96875 12.71875 L 10.179688 10.863281 L 8.574219 12.71875 Z M 8.574219 6.21875 "/>
<path style="fill:none;stroke-width:0.98389;stroke-linecap:round;stroke-linejoin:round;stroke:url(#linear19);stroke-miterlimit:4;" d="M 38.504735 -7.996034 C 38.504735 -4.957614 32.008996 -2.491529 24 -2.491529 C 15.991004 -2.491529 9.495265 -4.957614 9.495265 -7.996034 C 9.495265 -11.042869 15.991004 -13.508955 24 -13.508955 C 32.008996 -13.508955 38.504735 -11.042869 38.504735 -7.996034 Z M 38.504735 -7.996034 " transform="matrix(0.485294,0,0,0.464109,-0.647059,7.148527)"/>
<path style="fill-rule:evenodd;fill:url(#linear20);stroke-width:1;stroke-linecap:butt;stroke-linejoin:miter;stroke:url(#linear21);stroke-miterlimit:4;" d="M 19.500473 -2.786113 C 21.359848 -2.297946 25.497159 -2.542029 25.497159 -2.542029 L 25.497159 9.502231 L 22.309659 6.303895 L 19.500473 9.232897 Z M 19.500473 -2.786113 " transform="matrix(0.485294,0,0,0.464109,-0.647059,7.148527)"/>
<path style="fill:none;stroke-width:1;stroke-linecap:butt;stroke-linejoin:miter;stroke:url(#linear22);stroke-miterlimit:4;" d="M 20.498579 6.674229 L 20.498579 -1.599362 C 22.309659 -1.380528 24.499053 -1.540445 24.499053 -1.540445 L 24.499053 7.061396 " transform="matrix(0.485294,0,0,0.464109,-0.647059,7.148527)"/>
</g>
</svg>
