/* XPM */
static char *top[] = {
/* columns rows colors chars-per-pixel */
"16 16 10 1",
"  c #000000",
". c #010101",
"X c #020202",
"o c #070707",
"O c #161616",
"+ c #1B1B1B",
"@ c #363636",
"# c #898989",
"$ c #F2F2F2",
"% c None",
/* pixels */
"%%%%%%%%%%%%%%%%",
"%%%          %%%",
"%%%          %%%",
"%%%%%%%##%%%%%%%",
"%%%%%%%  %%%%%%%",
"%%%%%%+  +%%%%%%",
"%%%%%%    %%%%%%",
"%%%%%o    o%%%%%",
"%%%%@      @%%%%",
"%%%%        %%%%",
"%%%O        +%%%",
"%%%%%$    $%%%%%",
"%%%%%%    %%%%%%",
"%%%%%%    %%%%%%",
"%%%%%%%%%%%%%%%%",
"%%%%%%%%%%%%%%%%"
};
