/* XPM */
static char *lock[] = {
/* columns rows colors chars-per-pixel */
"48 48 111 2",
"   c #000000",
".  c #040404",
"X  c #050505",
"o  c #0A0A0A",
"O  c #0B0B0B",
"+  c #0C0C0C",
"@  c #121212",
"#  c #151515",
"$  c #1C1C1C",
"%  c #1D1D1D",
"&  c #262626",
"*  c #272727",
"=  c #282828",
"-  c #292929",
";  c #2A2A2A",
":  c #2B2B2B",
">  c #2C2C2C",
",  c #2F2F2F",
"<  c #343434",
"1  c #353535",
"2  c #363636",
"3  c #424242",
"4  c #444444",
"5  c #4F4F4F",
"6  c #555555",
"7  c #565656",
"8  c #595959",
"9  c #5A5A5A",
"0  c #5C5C5C",
"q  c #626262",
"w  c #636363",
"e  c #6C6C6C",
"r  c #737373",
"t  c #777777",
"y  c #797979",
"u  c #7F7F7F",
"i  c #808080",
"p  c #818181",
"a  c #898989",
"s  c #8D8D8D",
"d  c #909090",
"f  c #929292",
"g  c #959595",
"h  c #989898",
"j  c #9B9B9B",
"k  c #9C9C9C",
"l  c #9F9F9F",
"z  c #A0A0A0",
"x  c #A1A1A1",
"c  c #A2A2A2",
"v  c #A9A9A9",
"b  c #ACACAC",
"n  c #ADADAD",
"m  c #AEAEAE",
"M  c #AFAFAF",
"N  c #B1B1B1",
"B  c #B4B4B4",
"V  c #B6B6B6",
"C  c #B7B7B7",
"Z  c #B9B9B9",
"A  c #BABABA",
"S  c #BCBCBC",
"D  c #BDBDBD",
"F  c #C0C0C0",
"G  c #C3C3C3",
"H  c #C4C4C4",
"J  c #C5C5C5",
"K  c #C6C6C6",
"L  c #C7C7C7",
"P  c #C8C8C8",
"I  c #C9C9C9",
"U  c #CCCCCC",
"Y  c #CDCDCD",
"T  c #CECECE",
"R  c #D0D0D0",
"E  c #D1D1D1",
"W  c #D2D2D2",
"Q  c #D4D4D4",
"!  c #D7D7D7",
"~  c #D9D9D9",
"^  c #DADADA",
"/  c #DBDBDB",
"(  c #DDDDDD",
")  c #DEDEDE",
"_  c #DFDFDF",
"`  c #E0E0E0",
"'  c #E1E1E1",
"]  c #E2E2E2",
"[  c #E3E3E3",
"{  c #E4E4E4",
"}  c #E5E5E5",
"|  c #E6E6E6",
" . c #E7E7E7",
".. c #E8E8E8",
"X. c #E9E9E9",
"o. c #EAEAEA",
"O. c #EBEBEB",
"+. c #ECECEC",
"@. c #EDEDED",
"#. c #EEEEEE",
"$. c #EFEFEF",
"%. c #F0F0F0",
"&. c #F1F1F1",
"*. c #F2F2F2",
"=. c #F3F3F3",
"-. c #F4F4F4",
";. c #F5F5F5",
":. c #F6F6F6",
">. c #F9F9F9",
",. c #FFFFFF",
"<. c None",
/* pixels */
"<.<.<.<.<.<.<.<.<.<.<.<.<.<.<.<.<.<.<.<.<.<.<.<.<.<.<.<.<.<.<.<.<.<.<.<.<.<.<.<.<.<.<.<.<.<.<.<.",
"<.<.<.<.<.<.<.<.<.<.<.<.<.<.<.<.<.<.<.<.<.<.<.<.<.<.<.<.<.<.<.<.<.<.<.<.<.<.<.<.<.<.<.<.<.<.<.<.",
"<.<.<.<.<.<.<.<.<.<.<.<.<.<.<.<.<.<.<.<.<.<.<.<.<.<.<.<.<.<.<.<.<.<.<.<.<.<.<.<.<.<.<.<.<.<.<.<.",
"<.<.<.<.Y :.,.,.,.,.,.,.,.,.,.,.,.,.,.,.,.,.,.,.,.,.,.,.,.,.,.,.,.,.,.,.,.,.,.,.,.,.:.Y <.<.<.<.",
"<.<.<.K >.*.$.$.$.$.$.$.$.$.$.$.$.$.$.$.$.$.$.$.$.$.$.$.$.$.$.$.$.$.$.$.$.$.$.$.$.$.*.>.K <.<.<.",
"<.<.<.$.$.n >                                                                     : v $.$.<.<.<.",
"<.<.<.:.$.:                                                                         : $.:.<.<.<.",
"<.<.<.:.$.                                                                            $.:.<.<.<.",
"<.<.<.:.$.                                                                            O.:.<.<.<.",
"<.<.<.*.$.                                                                            $.*.<.<.<.",
"<.<.<.*.O.                                                                            O.*.<.<.<.",
"<.<.<.:.$.                                                                            O.:.<.<.<.",
"<.<.<.*.O.                            > u N E O.O.Y N u >                             O.*.<.<.<.",
"<.<.<.$.O.                        + n *.$.$.$.O.O.O.$.$.*.n +                         O.*.<.<.<.",
"<.<.<.*.O.                      8 ( O.O.O.} } O.O.O.O.O.O.O.( 8                       O.*.<.<.<.",
"<.<.<.*.O.                    h O.} } } O.} } } } } } } } } } O.h                     O.*.<.<.<.",
"<.<.<.$.O.                  7 } ] } ] ] ] ] / E E / } ] ] ] ] ] } 7                   O.*.<.<.<.",
"<.<.<.$.O.                + Y ( ] ( ( ] ] v 2     2 v ( ] ] ( ] ] Y o                 } $.<.<.<.",
"<.<.<.$.}                 h / ( ( ( ( ( ( 2 3 B B 4 2 ( ( ( ( ( / / l                 O.$.<.<.<.",
"<.<.<.$.O.              : ( / / / / / / /   s / / s   / / / / / / / / :               } $.<.<.<.",
"<.<.<.$.O.              8 / ! ! ! ! ! ! !   u ! ! u   ! ! ! ! ! / ! ! 0               O.$.<.<.<.",
"<.<.<.O.}               i ! E ! ! E ! P K   t K K t   K K ! ! E E ! E i               } O.<.<.<.",
"<.<.<.O.O.              x E E E E E E %                 % E Y E E E E x               } O.<.<.<.",
"<.<.<.O.}               G Y Y Y Y Y Y                     E Y Y Y Y Y G               } O.<.<.<.",
"<.<.<.O.}               A Y Y Y Y Y Y                     Y Y P Y Y P A               } O.<.<.<.",
"<.<.<.} }               f P P P P P P                     P P P P P P g               } } <.<.<.",
"<.<.<.O.}               e K K K K K K                     K P P K K K e               } O.<.<.<.",
"<.<.<.} }               3 G G G G G G                     G G K G G K 3               ] } <.<.<.",
"<.<.<.} ]               # A S G G G S                     G S G G G B #               ] } <.<.<.",
"<.<.<.} }                 w S S S S S 2                 2 S S S S S w                 ] } <.<.<.",
"<.<.<.} ]                 X g A A S A Y ! E ! ! ! E ! E Y A A A A g X                 ] } <.<.<.",
"<.<.<.] ]                   * n A B A B A B B B A B A B A B A B n *                   ] } <.<.<.",
"<.<.<.] ]                     5 v N B B B B B B B B B B B B B v 5                     ] ] <.<.<.",
"<.<.<.] ]                       * a N N N N N N N N N N N N a *                       ] ] <.<.<.",
"<.<.<.] ]                         X 8 x v n n n n n n v x 8 X                         ( ] <.<.<.",
"<.<.<.] ]                             @ 2 7 t s s t 7 2 @                             ] ] <.<.<.",
"<.<.<.] (                                                                             ] ] <.<.<.",
"<.<.<.] ]                                                                             ( ( <.<.<.",
"<.<.<.( (                                                                             ] ] <.<.<.",
"<.<.<.] ]                                                                             ( ( <.<.<.",
"<.<.<.( (                                                                             ( ( <.<.<.",
"<.<.<.] ( :                                                                         : ( ] <.<.<.",
"<.<.<.G ( x :                                                                     * l ( G <.<.<.",
"<.<.<.y ] ( ( ( ( ( ( ( ( ( ( ( ( ( ( ( ( ( ( ( ( ( ( ( ( ( ( ( ( ( ( ( ( ( ( ( ( ( ( ] y <.<.<.",
"<.<.<.o t K ] ] } } } } } O.O.O.O.O.$.$.$.$.$.*.*.*.$.$.$.O.O.O.O.O.} } } } } } ] ] K t o <.<.<.",
"<.<.<.<.<.                                                                            <.<.<.<.<.",
"<.<.<.<.<.<.<.<.<.<.<.<.<.<.<.<.<.<.<.<.<.<.<.<.<.<.<.<.<.<.<.<.<.<.<.<.<.<.<.<.<.<.<.<.<.<.<.<.",
"<.<.<.<.<.<.<.<.<.<.<.<.<.<.<.<.<.<.<.<.<.<.<.<.<.<.<.<.<.<.<.<.<.<.<.<.<.<.<.<.<.<.<.<.<.<.<.<."
};
