/* XPM */
static char *bluefish[] = {
/* columns rows colors chars-per-pixel */
"32 32 186 2",
"   c #000000",
".  c #544727",
"X  c #3D595F",
"o  c #24426D",
"O  c #2A466B",
"+  c #2B496B",
"@  c #324D63",
"#  c #3C5768",
"$  c #224374",
"%  c #2A4B74",
"&  c #234679",
"*  c #24497D",
"=  c #31527B",
"-  c #6F7F5D",
";  c #707F5D",
":  c #415C62",
">  c #4B6865",
",  c #4E666B",
"<  c #4B6B6C",
"1  c #516F69",
"2  c #54756F",
"3  c #4D6A7F",
"4  c #546F78",
"5  c #587971",
"6  c #5E7979",
"7  c #666666",
"8  c #647F7A",
"9  c #687F7D",
"0  c #56806F",
"q  c #5C8473",
"w  c #5F8877",
"e  c #608877",
"r  c #64857C",
"t  c #68837E",
"y  c #648C7B",
"u  c #698E7F",
"i  c #68907F",
"p  c #AFAD76",
"a  c #254C82",
"s  c #255086",
"d  c #2C5287",
"f  c #27538C",
"g  c #29548D",
"h  c #315688",
"j  c #335B8E",
"k  c #285793",
"l  c #295896",
"z  c #2B5C9B",
"x  c #335E94",
"c  c #3A6088",
"v  c #366096",
"b  c #32619E",
"n  c #3D659C",
"m  c #2C5FA0",
"M  c #2D62A5",
"N  c #2E66AC",
"B  c #2E68AF",
"V  c #3468A7",
"C  c #396AA7",
"Z  c #3D6EAA",
"A  c #2F6CB4",
"S  c #306DB5",
"D  c #3071BC",
"F  c #3B76BA",
"G  c #416483",
"H  c #4A6B8A",
"J  c #4D718F",
"K  c #5C7F8B",
"L  c #486F9F",
"P  c #537795",
"I  c #50769E",
"U  c #547998",
"Y  c #436DA3",
"T  c #4570A6",
"R  c #4A72A4",
"E  c #4273AB",
"W  c #4B75A9",
"Q  c #4D78AC",
"!  c #547DA9",
"~  c #4F7DB4",
"^  c #437CBC",
"/  c #527EB3",
"(  c #3175C1",
")  c #698586",
"_  c #6A8C81",
"`  c #6D9383",
"'  c #729586",
"]  c #74938D",
"[  c #78978E",
"{  c #749B8B",
"}  c #799C8E",
"|  c #658C9E",
" . c #6D9299",
".. c #779197",
"X. c #7D9E91",
"o. c #739698",
"O. c #7B969C",
"+. c #769C9D",
"@. c #78A08F",
"#. c #7CA292",
"$. c #5C83AB",
"%. c #5381B7",
"&. c #5584BA",
"*. c #5A87B9",
"=. c #5B89BC",
"-. c #6188A3",
";. c #6C8EA1",
":. c #798DA7",
">. c #6991AF",
",. c #7391A2",
"<. c #739AA3",
"1. c #7A98A0",
"2. c #779DAA",
"3. c #7D9FAF",
"4. c #668FB8",
"5. c #728FB2",
"6. c #6491BF",
"7. c #6896BF",
"8. c #7C97B7",
"9. c #5587C1",
"0. c #5D8DC2",
"q. c #5F91C7",
"w. c #6692C4",
"e. c #6B97C3",
"r. c #6798CE",
"t. c #6899CF",
"y. c #749DCA",
"u. c #6A9DD3",
"i. c #6FA0CB",
"p. c #71A0D2",
"a. c #7AA7D4",
"s. c #72A6DB",
"d. c #75A8DC",
"f. c #7BABDC",
"g. c #819496",
"h. c #819F92",
"j. c #86929F",
"k. c #8F959D",
"l. c #949494",
"z. c #909B9E",
"x. c #82A496",
"c. c #85A499",
"v. c #86A99B",
"b. c #8AAB9D",
"n. c #8198B6",
"m. c #8EAEA1",
"M. c #8CB4A3",
"N. c #8FB8A7",
"B. c #91B5A6",
"V. c #96B7A8",
"C. c #91B9A9",
"Z. c #9ABBAD",
"A. c #97B2B3",
"S. c #9CBDB0",
"D. c #ACACAC",
"F. c #A1A8B0",
"G. c #A3BFB2",
"H. c #B1B1B1",
"J. c #BABABA",
"K. c #9EC1B2",
"L. c #B3C5A4",
"P. c #A6C2B6",
"I. c #A6C6B8",
"U. c #ABC5BA",
"Y. c #ADC9BD",
"T. c #BECEB1",
"R. c #B0C9BF",
"E. c #84A1C4",
"W. c #80AFDF",
"Q. c #AFBBCB",
"!. c #B4CDC3",
"~. c #B7C2CE",
"^. c #B5D0C4",
"/. c #B9D1C7",
"(. c #BDD4CA",
"). c #CBCBCB",
"_. c #C0D7CE",
"`. c #C0D8CE",
"'. c #CCDFD7",
"]. c #CFE1D9",
"[. c #D5E5DE",
"{. c #C9D9EA",
"}. c #E3E4E5",
"|. c #E9EDF2",
" X c #FDFDFD",
".X c None",
/* pixels */
".X.X.X.X.X.X.X.X.X.X.X.X.X.X.X.X.X.X.X.X.X.X.X.X.X.X.X.X.X.X.X.X",
".X.X.X.X.X.X.X.X.X.X.X.X.X.X.X.X.X.X.X.X.X.X.X.X.X.X.X.X.X.X.X.X",
".X.Xp T.^.^.^.'.[.[.[.[.[.(.^.^.^.^.(.[.[.[.[.[.].^.^.^.T.p .X.X",
".X.XL.N.N.N.N.Z.(.`.`.`.`.I.C.C.N.N.I.(.`.`.(.(.K.C.N.N.N.L..X.X",
".X.XK.M.M.M.N.N.I.(.(._.(.!.C.C.C.C.Y.(.(.(.(.Y.N.N.M.M.N.K..X.X",
".X.XZ.M.M.M.N.N.B.!.(.(.(.!.N.C.N.C.!.(.(.(./.B.N.M.M.M.M.Z..X.X",
".X.XZ.M.M.M.M.N.N.Z.(.(.(.(.C.C.C.C.(.(.(.(.S.N.M.#.b.M.M.Z..X.X",
".X.X!.M.M.M.M.M.B.N.I././.!.V.M.M.S./.(./.Y.M.2.i.o.M.M.M.!..X.X",
".X.X/.!.G.M.M.M.v.+.+.3.$.E E $.| Z.!.!.!.B.<.f.7.#.m.Z.Y./..X.X",
".X.X!.Y.R.U.B.o.4.q.F D D F r.r.0.T A.!.Z.x.a.s.$.b.I.!.Y.!..X.X",
".X.X!.U.U.R.S.6.t.F D ( D 9.t.u.0./ x 1.v. .W.s. .U.!.Y.U.!..X.X",
".X.XR.U.U.U.O.=.^ D ( ( ( *.w.y.&.Q x z K >.W.s.,.U.U.I.P.!..X.X",
".X.XI.I.I.G.g.Q.D D D ( ( {. X X|.E.! l g e.f.u...P.U.U.P.U..X.X",
".X.Xb.b.B.Z.z.= A A D D D }.}.}.7 l.n.l k v p.t...P.Z.C.M.b..X.X",
".X.X#.@.#.#.9 Q N A A D A Q.).).D.J.5.g f a W =.[ c.#.#.#.#..X.X",
".X.X#.#.} #.r V N B A B A 8.H.H.D.F.W a s a d U } #.#.@.@.#..X.X",
".X.X@.{ { #._ b M N N N N C :.k.j.! j d a * & P { #.X.{ { @..X.X",
".X.X{ { { { ` x M M M M M m x T Y x & a * & h I #.@.} { { { .X.X",
".X.XX.#.v.M.m.j z m m m m z l f a a a a & $ n W c.V.b.c.#.{ .X.X",
".X.Xm.m.m.m.h.7.Z z z z l b E &.d a a & $ O H W U b.m.m.b.M..X.X",
".X.Xb.b.b.m.[ *.9.*./ ~ &.&.0.Y a * & $ o 2 _ 4 3 ) b.b.b.v..X.X",
".X.Xx.c.v.v.h.H R R Y R W &.n * * & $ o , _ ` ` ' x.v.c.v.c..X.X",
".X.Xx.x.x.#.` 5 G Y R Y n d & & $ $ O 8 ` ` ` ` ' ' x.c.x.x..X.X",
".X.X} @.` u ` u r 1 : % & & $ o o @ 8 [ x.` ` ` ` i u { } h..X.X",
".X.X' y y y y i u u ' t , # @ X > r h.} h.{ y u y y y y y { .X.X",
".X.Xe w w e e y y i } } [ ' e e e u } } } } i e y y e w w w .X.X",
".X.Xe w q w w w e ' { ' { ' e e e e ' { { { ' e e w q q q w .X.X",
".X.Xq 0 q q q q y ' ' ' ' y q q q e u ` ' ' ' y q q q q 0 q .X.X",
".X.X- - 0 0 0 q u u u u u e 5 q 0 0 e u u u u u q 5 0 5 0 ; .X.X",
".X.X. q q q q u ' ' ' ' ' u u u i u u ' ' ' ' ' i e q e q . .X.X",
".X.X.X.X                                                .X.X.X.X",
".X.X.X.X.X.X.X.X.X.X.X.X.X.X.X.X.X.X.X.X.X.X.X.X.X.X.X.X.X.X.X.X"
};
