/* XPM */
static char *gnome_terminal[] = {
/* columns rows colors chars-per-pixel */
"32 32 53 1",
"  c #000000",
". c #141315",
"X c #171618",
"o c #18171A",
"O c #1C1A1D",
"+ c #1E1B20",
"@ c #211F23",
"# c #231F28",
"$ c #242326",
"% c #262529",
"& c #29262D",
"* c #2B292E",
"= c #2C2731",
"- c #2E2A32",
"; c #312D35",
": c #342F39",
"> c #333037",
", c #35313B",
"< c #39333E",
"1 c #3B393D",
"2 c #3C3542",
"3 c #3F3846",
"4 c #403947",
"5 c #433C4B",
"6 c #424242",
"7 c #474050",
"8 c #535255",
"9 c #5A595B",
"0 c #717072",
"q c #777579",
"w c #828283",
"e c #8A8A8B",
"r c #929293",
"t c #979798",
"y c #9C9C9C",
"u c #A3A3A4",
"i c #ACABAC",
"p c #AFAEB0",
"a c #B5B5B6",
"s c #B7B7B8",
"d c #B8B7B8",
"f c #BABABA",
"g c #BFBFC0",
"h c #C0BFC0",
"j c #C3C3C3",
"k c #CBCBCB",
"l c #D0CFD0",
"z c #D4D4D4",
"x c #DBDBDB",
"c c #E3E3E3",
"v c #EDEDED",
"b c #FDFDFD",
"n c None",
/* pixels */
"nnnnnnnnnnnnnnnnnnnnnnnnnnnnnnnn",
"nnnnnnnnnnnnnnnnnnnnnnnnnnnnnnnn",
"nnncvvvvvvvvvvvvvvvvvvvvvvvvcnnn",
"nnzcccccccccvccccvcccccccccccxnn",
"nnccdwwwwwwwwwwwwwwwwwwwwwwfccnn",
"nncxe.XXooOOOOOOOOO@OOOOXX.eccnn",
"nncxwXO+$$$%%%%%$$$$$$$$@OXwxcnn",
"nncxeX$$$%%%%%%%%%%%%%$$$@Oexcnn",
"nncxeo$$l0*$%%%%%%%%%%%%$$oexcnn",
"nnxxro$$yvce%%%%%%%%%%%%$$orxxnn",
"nnxxro$%$8xb********%%%%$@orxxnn",
"nnxzto$%xbp9*---*******%$$otzxnn",
"nnzztO%%e1**qqqq1*>****%%$Otzznn",
"nnzzyO%&**;>bbbb>>>>>>-*%$Oyzznn",
"nnzzy+&->;>>>>,,1>**%$@@OO.tzznn",
"nnzku@&->>>><>>*%%**$$$$OO.ylznn",
"nnlky#-;>,,:-===****&&%#@OXuklnn",
"nnkki%;;>-=--;-;>;>*=&&%#@Xukknn",
"nnkki%;&&&-;::;:,;>>--&&$@Xukknn",
"nnjki+#&---::,::,,>>;;=&&@Xijknn",
"nnjki+%&-;::2:22<<,,,;;=&%Oijknn",
"nnjjp+&&-::<222222<<,;;=&#Opjjnn",
"nnjjp+&=-:<<23553322<,;-=%Opjhnn",
"nnfha+&=::<233555432<,:;=#Oahjnn",
"nnhhdO&-;2:2245555422::-*&+dhhnn",
"nnhffO%==:22345555422::-&#+fffnn",
"nnffhX+#%=-;:223322;-=&$#O.hffnn",
"nnfdjjhhjhjjhjhjjhjjjhgjhhhjdfnn",
"nnydddddsddsdsdfdddddddddsdddynn",
"nn6ygffggjjjjjkkkjjjjjjgfjffy6nn",
"nnnn                        nnnn",
"nnnnnnnnnnnnnnnnnnnnnnnnnnnnnnnn"
};
