<?xml version="1.0" encoding="UTF-8" standalone="no"?>
<!-- Created with Inkscape (http://www.inkscape.org/) -->

<svg
   xmlns:svg="http://www.w3.org/2000/svg"
   xmlns="http://www.w3.org/2000/svg"
   xmlns:xlink="http://www.w3.org/1999/xlink"
   version="1.0"
   width="96"
   height="96"
   id="svg2408">
  <defs
     id="defs2410">
    <linearGradient
       id="linearGradient3853">
      <stop
         id="stop3855"
         style="stop-color:#000000;stop-opacity:1"
         offset="0" />
      <stop
         id="stop3857"
         style="stop-color:#313131;stop-opacity:1"
         offset="1" />
    </linearGradient>
    <linearGradient
       x1="45.447727"
       y1="92.539597"
       x2="45.447727"
       y2="7.0165396"
       id="ButtonShadow"
       gradientUnits="userSpaceOnUse"
       gradientTransform="scale(1.0058652,0.994169)">
      <stop
         id="stop3750"
         style="stop-color:#000000;stop-opacity:1"
         offset="0" />
      <stop
         id="stop3752"
         style="stop-color:#000000;stop-opacity:0.58823532"
         offset="1" />
    </linearGradient>
    <linearGradient
       id="linearGradient3737">
      <stop
         id="stop3739"
         style="stop-color:#ffffff;stop-opacity:1"
         offset="0" />
      <stop
         id="stop3741"
         style="stop-color:#ffffff;stop-opacity:0"
         offset="1" />
    </linearGradient>
    <linearGradient
       id="linearGradient3700">
      <stop
         id="stop3702"
         style="stop-color:#da8714;stop-opacity:1"
         offset="0" />
      <stop
         id="stop3704"
         style="stop-color:#f4d468;stop-opacity:1"
         offset="1" />
    </linearGradient>
    <filter
       color-interpolation-filters="sRGB"
       id="filter3174">
      <feGaussianBlur
         id="feGaussianBlur3176"
         stdDeviation="1.71" />
    </filter>
    <linearGradient
       x1="36.357143"
       y1="6"
       x2="36.357143"
       y2="63.893143"
       id="linearGradient3188"
       xlink:href="#linearGradient3737"
       gradientUnits="userSpaceOnUse" />
    <filter
       x="-0.192"
       y="-0.192"
       width="1.3839999"
       height="1.3839999"
       color-interpolation-filters="sRGB"
       id="filter3794">
      <feGaussianBlur
         id="feGaussianBlur3796"
         stdDeviation="5.28" />
    </filter>
    <linearGradient
       x1="48"
       y1="20.220806"
       x2="48"
       y2="138.66119"
       id="linearGradient3613"
       xlink:href="#linearGradient3737"
       gradientUnits="userSpaceOnUse" />
    <radialGradient
       cx="48"
       cy="90.171875"
       r="42"
       fx="48"
       fy="90.171875"
       id="radialGradient3619"
       xlink:href="#linearGradient3737"
       gradientUnits="userSpaceOnUse"
       gradientTransform="matrix(1.1573129,0,0,0.99590774,-7.5510206,0.19713193)" />
    <clipPath
       id="clipPath3613">
      <rect
         width="84"
         height="84"
         rx="6"
         ry="6"
         x="6"
         y="6"
         id="rect3615"
         style="fill:#ffffff;fill-opacity:1;fill-rule:nonzero;stroke:none" />
    </clipPath>
    <linearGradient
       x1="48"
       y1="90"
       x2="48"
       y2="5.9877172"
       id="linearGradient3617"
       xlink:href="#linearGradient3700"
       gradientUnits="userSpaceOnUse" />
    <linearGradient
       id="linearGradient5060">
      <stop
         id="stop5062"
         style="stop-color:#000000;stop-opacity:1"
         offset="0" />
      <stop
         id="stop5064"
         style="stop-color:#000000;stop-opacity:0"
         offset="1" />
    </linearGradient>
    <linearGradient
       id="linearGradient6954">
      <stop
         id="stop6960"
         style="stop-color:#f5f5f5;stop-opacity:1"
         offset="0" />
      <stop
         id="stop6962"
         style="stop-color:#d2d2d2;stop-opacity:1"
         offset="1" />
    </linearGradient>
    <linearGradient
       id="linearGradient3785">
      <stop
         id="stop3787"
         style="stop-color:#bdbdbd;stop-opacity:1"
         offset="0" />
      <stop
         id="stop3789"
         style="stop-color:#8c8c8c;stop-opacity:1"
         offset="1" />
    </linearGradient>
    <linearGradient
       id="linearGradient3341">
      <stop
         id="stop3343"
         style="stop-color:#ffffff;stop-opacity:1"
         offset="0" />
      <stop
         id="stop3345"
         style="stop-color:#ffffff;stop-opacity:0"
         offset="1" />
    </linearGradient>
    <linearGradient
       id="linearGradient2895">
      <stop
         id="stop2897"
         style="stop-color:#000000;stop-opacity:1"
         offset="0" />
      <stop
         id="stop2899"
         style="stop-color:#000000;stop-opacity:0"
         offset="1" />
    </linearGradient>
    <linearGradient
       x1="27.055927"
       y1="5.134068"
       x2="43.429096"
       y2="5.134068"
       id="linearGradient2949"
       xlink:href="#linearGradient2895"
       gradientUnits="userSpaceOnUse"
       gradientTransform="matrix(0.85509232,0,0,1.178723,-69.95703,42.805784)" />
    <radialGradient
       cx="30"
       cy="33.1875"
       r="4.6875"
       fx="30"
       fy="33.1875"
       id="radialGradient2952"
       xlink:href="#linearGradient5060"
       gradientUnits="userSpaceOnUse"
       gradientTransform="matrix(1.5279732,-7.0647448e-7,2.1308638e-7,0.46086628,-85.660631,57.562164)" />
    <linearGradient
       x1="38"
       y1="39"
       x2="43"
       y2="38.599998"
       id="linearGradient2955"
       xlink:href="#linearGradient5060"
       gradientUnits="userSpaceOnUse"
       gradientTransform="translate(-69.821429,42.857143)" />
    <linearGradient
       x1="22"
       y1="39"
       x2="17"
       y2="37.4375"
       id="linearGradient2958"
       xlink:href="#linearGradient5060"
       gradientUnits="userSpaceOnUse"
       gradientTransform="translate(-69.821429,42.857143)" />
    <radialGradient
       cx="26.375898"
       cy="12.31301"
       r="8"
       fx="26.375898"
       fy="12.31301"
       id="radialGradient2961"
       xlink:href="#linearGradient6954"
       gradientUnits="userSpaceOnUse"
       gradientTransform="matrix(1.640165,-0.1325824,0.12811381,1.5848844,-88.21778,37.629717)" />
    <linearGradient
       x1="30"
       y1="5"
       x2="30"
       y2="44.678879"
       id="linearGradient2963"
       xlink:href="#linearGradient3785"
       gradientUnits="userSpaceOnUse"
       gradientTransform="translate(-69.821429,42.857143)" />
    <linearGradient
       x1="24.786562"
       y1="53.869164"
       x2="24.87495"
       y2="83.5"
       id="linearGradient2966"
       xlink:href="#linearGradient3341"
       gradientUnits="userSpaceOnUse"
       gradientTransform="translate(-65.69638,3.357143)" />
    <radialGradient
       cx="24.999998"
       cy="28.659998"
       r="16"
       fx="24.999998"
       fy="28.659998"
       id="radialGradient2969"
       xlink:href="#linearGradient6954"
       gradientUnits="userSpaceOnUse"
       gradientTransform="matrix(1.3125,0,0,0.37326701,-77.633927,63.159311)" />
    <linearGradient
       x1="30"
       y1="25.084745"
       x2="30"
       y2="45"
       id="linearGradient2971"
       xlink:href="#linearGradient3785"
       gradientUnits="userSpaceOnUse"
       gradientTransform="translate(-69.821429,42.857143)" />
    <radialGradient
       cx="32"
       cy="41.5"
       r="21"
       fx="32"
       fy="41.5"
       id="radialGradient2974"
       xlink:href="#linearGradient5060"
       gradientUnits="userSpaceOnUse"
       gradientTransform="matrix(0.85714286,0,0,0.28571429,-67.25,72)" />
    <filter
       x="-0.20689654"
       y="-0.2857143"
       width="1.4137931"
       height="1.5714287"
       color-interpolation-filters="sRGB"
       id="filter3842">
      <feGaussianBlur
         id="feGaussianBlur3844"
         stdDeviation="5" />
    </filter>
    <clipPath
       id="clipPath3846">
      <path
         d="m 102,6 c -3.324,0 -6,2.676 -6,6 l 0,72 c 0,3.324 2.676,6 6,6 l 72,0 c 3.324,0 6,-2.676 6,-6 l 0,-72 c 0,-3.324 -2.676,-6 -6,-6 l -72,0 z m 36,21 c 4.27575,0 7.7501,3.22498 7.75,7.21875 -0.017,0.50192 -0.053,1.06898 -0.0937,1.65625 0.5842,0.43883 0.63569,1.74219 0.0625,3.09375 -0.20688,0.48783 -0.46974,0.90718 -0.75,1.25 -0.0907,0.424 -0.13328,0.75622 -0.25,1.25 -0.31758,0.95347 -1.58219,2.81614 -2.53125,4.28125 -0.0612,0.9744 -0.0577,1.9482 0.0625,2.9375 1.59781,1.39047 4.55784,2.451439 6.96875,3.46875 0.99952,-0.415702 1.91915,-0.840829 2.5625,-1.375 0.1571,-0.91653 0.1406,-1.7255 0.0625,-2.53125 -0.78289,-1.0445 -1.65985,-2.26031 -1.875,-2.90625 -0.0694,-0.31812 -0.0988,-0.53048 -0.15625,-0.8125 -0.008,-0.0088 -0.0232,-0.02225 -0.0312,-0.03125 -0.24058,-0.27087 -0.48169,-0.61965 -0.65625,-1.03125 -0.45269,-1.06743 -0.3825,-2.10425 0.125,-2.375 -0.0357,-0.42697 -0.0545,-0.81298 -0.0625,-1.15625 0,-2.99532 2.60569,-5.4375 5.8125,-5.4375 3.20682,0 5.8125,2.44217 5.8125,5.4375 -0.0127,0.37644 -0.0632,0.7783 -0.0937,1.21875 0.43815,0.32912 0.49239,1.29882 0.0625,2.3125 -0.15516,0.36587 -0.35231,0.68039 -0.5625,0.9375 -0.068,0.318 -0.1,0.56717 -0.1875,0.9375 -0.23818,0.7151 -1.1632,2.11991 -1.875,3.21875 -0.0459,0.7308 -0.0589,1.47678 0.0312,2.21875 2.22581,1.93697 8.02225,2.96722 8.03125,4.625 L 167,60.46875 c 0,1.01728 -1.51441,1.92514 -3.90625,2.5625 l -0.4375,1.4375 a 0.84317393,0.843822 0 0 1 -0.5,0.53125 c -0.10882,0.04212 -0.1705,0.13205 -0.46875,0.21875 C 160.11641,65.67522 157.68988,66 155,66 c -2.51238,0 -4.74599,-0.278913 -6.3125,-0.6875 l -0.46875,1.65625 a 1.1242319,1.125096 0 0 1 -0.65625,0.71875 c -0.1451,0.05616 -0.25859,0.16571 -0.65625,0.28125 C 144.81146,68.57738 141.58651,69 138,69 c -3.58651,0 -6.78021,-0.42262 -8.875,-1.03125 -0.39766,-0.11554 -0.51115,-0.22505 -0.65625,-0.28125 a 1.1242319,1.125096 0 0 1 -0.6875,-0.75 L 127.375,65.28125 C 125.80443,65.695778 123.53462,66 121,66 118.31012,66 115.91484,65.67522 114.34375,65.21875 114.0455,65.1321 113.98382,65.0421 113.875,65 a 0.84317393,0.843822 0 0 1 -0.53125,-0.5625 L 113,63.0625 c -2.45175,-0.63836 -4,-1.56194 -4,-2.59375 l 0.78125,-5.0625 c -0.009,-1.93697 5.74656,-2.75398 8,-4.625 0.1571,-0.91653 0.1406,-1.7255 0.0625,-2.53125 -0.78289,-1.0445 -1.65985,-2.26031 -1.875,-2.90625 -0.0695,-0.31812 -0.0988,-0.53048 -0.15625,-0.8125 -0.008,-0.0088 -0.0233,-0.02225 -0.0312,-0.03125 -0.24058,-0.27087 -0.48169,-0.61965 -0.65625,-1.03125 -0.45269,-1.06743 -0.3825,-2.10425 0.125,-2.375 -0.0357,-0.42697 -0.0545,-0.81298 -0.0625,-1.15625 0,-2.99532 2.60569,-5.4375 5.8125,-5.4375 3.20682,0 5.8125,2.44217 5.8125,5.4375 -0.0127,0.37644 -0.0631,0.7783 -0.0937,1.21875 0.43815,0.32912 0.49239,1.29882 0.0625,2.3125 -0.15516,0.36587 -0.35231,0.68039 -0.5625,0.9375 -0.068,0.318 -0.1,0.56717 -0.1875,0.9375 -0.23818,0.7151 -1.1632,2.11991 -1.875,3.21875 -0.0459,0.7308 -0.0589,1.47678 0.0312,2.21875 0.56995,0.49599 1.36884,0.938591 2.25,1.34375 2.44969,-1.03953 5.58983,-2.033128 7.28125,-3.4375 0.20939,-1.22203 0.19785,-2.26942 0.0937,-3.34375 -1.04386,-1.39267 -2.24438,-3.01374 -2.53125,-3.875 -0.0926,-0.42416 -0.14215,-0.71772 -0.21875,-1.09375 -0.0107,-0.0118 -0.0205,-0.01925 -0.0312,-0.03125 -0.32077,-0.36116 -0.64226,-0.82619 -0.875,-1.375 -0.60358,-1.42323 -0.52042,-2.82649 0.15625,-3.1875 -0.0476,-0.56929 -0.0521,-1.10481 -0.0625,-1.5625 C 130.25,30.22497 133.72425,27 138,27 z"
         id="path3849"
         style="fill:url(#linearGradient3851);fill-opacity:1;fill-rule:nonzero;stroke:none" />
    </clipPath>
    <linearGradient
       x1="48"
       y1="90"
       x2="48"
       y2="5.9877172"
       id="linearGradient3851"
       xlink:href="#linearGradient3700"
       gradientUnits="userSpaceOnUse"
       gradientTransform="translate(90,0)" />
    <linearGradient
       x1="48"
       y1="27"
       x2="48"
       y2="69"
       id="linearGradient3859"
       xlink:href="#linearGradient3853"
       gradientUnits="userSpaceOnUse" />
    <linearGradient
       x1="45.447727"
       y1="92.539597"
       x2="45.447727"
       y2="7.0165396"
       id="ButtonShadow-0"
       gradientUnits="userSpaceOnUse"
       gradientTransform="matrix(1.0058652,0,0,0.994169,100,0)">
      <stop
         id="stop3750-8"
         style="stop-color:#000000;stop-opacity:1"
         offset="0" />
      <stop
         id="stop3752-5"
         style="stop-color:#000000;stop-opacity:0.58823532"
         offset="1" />
    </linearGradient>
    <linearGradient
       x1="32.251034"
       y1="6.1317081"
       x2="32.251034"
       y2="90.238609"
       id="linearGradient3780"
       xlink:href="#ButtonShadow-0"
       gradientUnits="userSpaceOnUse"
       gradientTransform="matrix(1.0238095,0,0,1.0119048,-1.1428571,-98.071429)" />
    <linearGradient
       x1="32.251034"
       y1="6.1317081"
       x2="32.251034"
       y2="90.238609"
       id="linearGradient3772"
       xlink:href="#ButtonShadow-0"
       gradientUnits="userSpaceOnUse"
       gradientTransform="matrix(1.0238095,0,0,1.0119048,-1.1428571,-98.071429)" />
    <linearGradient
       x1="32.251034"
       y1="6.1317081"
       x2="32.251034"
       y2="90.238609"
       id="linearGradient3725"
       xlink:href="#ButtonShadow-0"
       gradientUnits="userSpaceOnUse"
       gradientTransform="matrix(1.0238095,0,0,1.0119048,-1.1428571,-98.071429)" />
    <linearGradient
       x1="32.251034"
       y1="6.1317081"
       x2="32.251034"
       y2="90.238609"
       id="linearGradient3721"
       xlink:href="#ButtonShadow-0"
       gradientUnits="userSpaceOnUse"
       gradientTransform="translate(0,-97)" />
    <linearGradient
       x1="32.251034"
       y1="6.1317081"
       x2="32.251034"
       y2="90.238609"
       id="linearGradient3059"
       xlink:href="#ButtonShadow-0"
       gradientUnits="userSpaceOnUse"
       gradientTransform="matrix(1.0238095,0,0,1.0119048,-1.1428571,-98.071429)" />
  </defs>
  <g
     id="layer2"
     style="display:none">
    <rect
       width="86"
       height="85"
       rx="6"
       ry="6"
       x="5"
       y="7"
       id="rect3745"
       style="opacity:0.9;fill:url(#ButtonShadow);fill-opacity:1;fill-rule:nonzero;stroke:none;filter:url(#filter3174)" />
  </g>
  <g
     id="layer4"
     style="display:inline">
    <path
       d="m 12,-95.03125 c -5.5110903,0 -10.03125,4.52016 -10.03125,10.03125 l 0,71 c 0,5.5110902 4.5201598,10.03125 10.03125,10.03125 l 72,0 c 5.51109,0 10.03125,-4.5201597 10.03125,-10.03125 l 0,-71 c 0,-5.51109 -4.52016,-10.03125 -10.03125,-10.03125 l -72,0 z"
       transform="scale(1,-1)"
       id="path3786"
       style="opacity:0.07999998;fill:url(#linearGradient3059);fill-opacity:1;fill-rule:nonzero;stroke:none;display:inline" />
    <path
       d="m 12,-94.03125 c -4.971633,0 -9.03125,4.059617 -9.03125,9.03125 l 0,71 c 0,4.9716329 4.0596171,9.03125 9.03125,9.03125 l 72,0 c 4.971633,0 9.03125,-4.059617 9.03125,-9.03125 l 0,-71 c 0,-4.971633 -4.059617,-9.03125 -9.03125,-9.03125 l -72,0 z"
       transform="scale(1,-1)"
       id="path3778"
       style="opacity:0.1;fill:url(#linearGradient3780);fill-opacity:1;fill-rule:nonzero;stroke:none;display:inline" />
    <path
       d="m 12,-93 c -4.4091333,0 -8,3.590867 -8,8 l 0,71 c 0,4.4091333 3.5908667,8 8,8 l 72,0 c 4.409133,0 8,-3.5908667 8,-8 l 0,-71 c 0,-4.409133 -3.590867,-8 -8,-8 l -72,0 z"
       transform="scale(1,-1)"
       id="path3770"
       style="opacity:0.2;fill:url(#linearGradient3772);fill-opacity:1;fill-rule:nonzero;stroke:none;display:inline" />
    <rect
       width="86"
       height="85"
       rx="7"
       ry="7"
       x="5"
       y="-92"
       transform="scale(1,-1)"
       id="rect3723"
       style="opacity:0.3;fill:url(#linearGradient3725);fill-opacity:1;fill-rule:nonzero;stroke:none;display:inline" />
    <rect
       width="84"
       height="84"
       rx="6"
       ry="6"
       x="6"
       y="-91"
       transform="scale(1,-1)"
       id="rect3716"
       style="opacity:0.45;fill:url(#linearGradient3721);fill-opacity:1;fill-rule:nonzero;stroke:none;display:inline" />
  </g>
  <g
     id="layer1">
    <rect
       width="84"
       height="84"
       rx="6"
       ry="6"
       x="6"
       y="6"
       id="rect2419"
       style="fill:url(#linearGradient3617);fill-opacity:1;fill-rule:nonzero;stroke:none" />
    <path
       d="M 12,6 C 8.676,6 6,8.676 6,12 l 0,2 0,68 0,2 c 0,0.334721 0.04135,0.6507 0.09375,0.96875 0.0487,0.295596 0.09704,0.596915 0.1875,0.875 0.00988,0.03038 0.020892,0.0636 0.03125,0.09375 0.098865,0.287771 0.2348802,0.547452 0.375,0.8125 0.1445918,0.273507 0.3156161,0.535615 0.5,0.78125 0.1843839,0.245635 0.3737765,0.473472 0.59375,0.6875 0.439947,0.428056 0.94291,0.814526 1.5,1.09375 0.278545,0.139612 0.5734731,0.246947 0.875,0.34375 -0.2562018,-0.100222 -0.4867109,-0.236272 -0.71875,-0.375 -0.00741,-0.0044 -0.023866,0.0045 -0.03125,0 -0.031933,-0.0193 -0.062293,-0.04251 -0.09375,-0.0625 -0.120395,-0.0767 -0.2310226,-0.163513 -0.34375,-0.25 -0.1061728,-0.0808 -0.2132809,-0.161112 -0.3125,-0.25 C 8.4783201,88.557317 8.3087904,88.373362 8.15625,88.1875 8.0486711,88.057245 7.9378561,87.922215 7.84375,87.78125 7.818661,87.74287 7.805304,87.69538 7.78125,87.65625 7.716487,87.553218 7.6510225,87.451733 7.59375,87.34375 7.4927417,87.149044 7.3880752,86.928049 7.3125,86.71875 7.30454,86.69694 7.288911,86.6782 7.28125,86.65625 7.2494249,86.5643 7.2454455,86.469419 7.21875,86.375 7.1884177,86.268382 7.1483606,86.171969 7.125,86.0625 7.0521214,85.720988 7,85.364295 7,85 L 7,83 7,15 7,13 C 7,10.218152 9.2181517,8 12,8 l 2,0 68,0 2,0 c 2.781848,0 5,2.218152 5,5 l 0,2 0,68 0,2 c 0,0.364295 -0.05212,0.720988 -0.125,1.0625 -0.04415,0.206893 -0.08838,0.397658 -0.15625,0.59375 -0.0077,0.02195 -0.0233,0.04069 -0.03125,0.0625 -0.06274,0.173739 -0.138383,0.367449 -0.21875,0.53125 -0.04158,0.0828 -0.07904,0.169954 -0.125,0.25 -0.0546,0.09721 -0.126774,0.18835 -0.1875,0.28125 -0.09411,0.140965 -0.204921,0.275995 -0.3125,0.40625 -0.143174,0.17445 -0.303141,0.346998 -0.46875,0.5 -0.01117,0.0102 -0.01998,0.02115 -0.03125,0.03125 -0.138386,0.125556 -0.285091,0.234436 -0.4375,0.34375 -0.102571,0.07315 -0.204318,0.153364 -0.3125,0.21875 -0.0074,0.0045 -0.02384,-0.0044 -0.03125,0 -0.232039,0.138728 -0.462548,0.274778 -0.71875,0.375 0.301527,-0.0968 0.596455,-0.204138 0.875,-0.34375 0.55709,-0.279224 1.060053,-0.665694 1.5,-1.09375 0.219973,-0.214028 0.409366,-0.441865 0.59375,-0.6875 0.184384,-0.245635 0.355408,-0.507743 0.5,-0.78125 0.14012,-0.265048 0.276135,-0.524729 0.375,-0.8125 0.01041,-0.03078 0.02133,-0.06274 0.03125,-0.09375 0.09046,-0.278085 0.1388,-0.579404 0.1875,-0.875 C 89.95865,84.6507 90,84.334721 90,84 l 0,-2 0,-68 0,-2 C 90,8.676 87.324,6 84,6 L 12,6 z"
       id="rect3728"
       style="opacity:0.5;fill:url(#linearGradient3188);fill-opacity:1;fill-rule:nonzero;stroke:none" />
    <path
       d="M 12,90 C 8.676,90 6,87.324 6,84 L 6,82 6,14 6,12 c 0,-0.334721 0.04135,-0.6507 0.09375,-0.96875 0.0487,-0.295596 0.09704,-0.596915 0.1875,-0.875 C 6.29113,10.12587 6.302142,10.09265 6.3125,10.0625 6.411365,9.774729 6.5473802,9.515048 6.6875,9.25 6.8320918,8.976493 7.0031161,8.714385 7.1875,8.46875 7.3718839,8.223115 7.5612765,7.995278 7.78125,7.78125 8.221197,7.353194 8.72416,6.966724 9.28125,6.6875 9.559795,6.547888 9.8547231,6.440553 10.15625,6.34375 9.9000482,6.443972 9.6695391,6.580022 9.4375,6.71875 c -0.00741,0.0044 -0.023866,-0.0045 -0.03125,0 -0.031933,0.0193 -0.062293,0.04251 -0.09375,0.0625 -0.120395,0.0767 -0.2310226,0.163513 -0.34375,0.25 -0.1061728,0.0808 -0.2132809,0.161112 -0.3125,0.25 C 8.4783201,7.442683 8.3087904,7.626638 8.15625,7.8125 8.0486711,7.942755 7.9378561,8.077785 7.84375,8.21875 7.818661,8.25713 7.805304,8.30462 7.78125,8.34375 7.716487,8.446782 7.6510225,8.548267 7.59375,8.65625 7.4927417,8.850956 7.3880752,9.071951 7.3125,9.28125 7.30454,9.30306 7.288911,9.3218 7.28125,9.34375 7.2494249,9.4357 7.2454455,9.530581 7.21875,9.625 7.1884177,9.731618 7.1483606,9.828031 7.125,9.9375 7.0521214,10.279012 7,10.635705 7,11 l 0,2 0,68 0,2 c 0,2.781848 2.2181517,5 5,5 l 2,0 68,0 2,0 c 2.781848,0 5,-2.218152 5,-5 l 0,-2 0,-68 0,-2 C 89,10.635705 88.94788,10.279012 88.875,9.9375 88.83085,9.730607 88.78662,9.539842 88.71875,9.34375 88.71105,9.3218 88.69545,9.30306 88.6875,9.28125 88.62476,9.107511 88.549117,8.913801 88.46875,8.75 88.42717,8.6672 88.38971,8.580046 88.34375,8.5 88.28915,8.40279 88.216976,8.31165 88.15625,8.21875 88.06214,8.077785 87.951329,7.942755 87.84375,7.8125 87.700576,7.63805 87.540609,7.465502 87.375,7.3125 87.36383,7.3023 87.35502,7.29135 87.34375,7.28125 87.205364,7.155694 87.058659,7.046814 86.90625,6.9375 86.803679,6.86435 86.701932,6.784136 86.59375,6.71875 c -0.0074,-0.0045 -0.02384,0.0044 -0.03125,0 -0.232039,-0.138728 -0.462548,-0.274778 -0.71875,-0.375 0.301527,0.0968 0.596455,0.204138 0.875,0.34375 0.55709,0.279224 1.060053,0.665694 1.5,1.09375 0.219973,0.214028 0.409366,0.441865 0.59375,0.6875 0.184384,0.245635 0.355408,0.507743 0.5,0.78125 0.14012,0.265048 0.276135,0.524729 0.375,0.8125 0.01041,0.03078 0.02133,0.06274 0.03125,0.09375 0.09046,0.278085 0.1388,0.579404 0.1875,0.875 C 89.95865,11.3493 90,11.665279 90,12 l 0,2 0,68 0,2 c 0,3.324 -2.676,6 -6,6 l -72,0 z"
       id="path3615"
       style="opacity:0.2;fill:url(#radialGradient3619);fill-opacity:1;fill-rule:nonzero;stroke:none" />
  </g>
  <g
     id="layer5">
    <rect
       width="66"
       height="66"
       rx="12"
       ry="12"
       x="15"
       y="15"
       clip-path="url(#clipPath3613)"
       id="rect3171"
       style="opacity:0.1;fill:url(#linearGradient3613);fill-opacity:1;fill-rule:nonzero;stroke:#ffffff;stroke-width:0.5;stroke-linecap:round;stroke-linejoin:miter;stroke-miterlimit:4;stroke-opacity:1;stroke-dasharray:none;stroke-dashoffset:0;filter:url(#filter3794)" />
  </g>
  <g
     id="layer3">
    <path
       d="m -21.821428,83.857143 a 18,6.0000008 0 0 1 -36.000001,0 18,6.0000008 0 1 1 36.000001,0 z"
       id="path3823"
       style="opacity:0.7;fill:url(#radialGradient2974);fill-opacity:1;stroke:none" />
    <path
       d="m -44.321429,63.357143 c 0.460215,2.17673 0.717092,3.82327 0.34375,6 -2.910693,2.414876 -10.354908,3.5 -10.34375,6 l -1,7.5 c 0,2.485281 6.939586,4.5 15.5,4.5 8.560414,0 15.5,-2.014719 15.5,-4.5 l -1,-7.5 c -0.01187,-2.139663 -7.5,-3.5 -10.375,-6 -0.245574,-2.020337 -0.05009,-3.979663 0.375,-6 l -9,0 z"
       id="path3766"
       style="fill:url(#radialGradient2969);fill-opacity:1;stroke:url(#linearGradient2971);stroke-width:1;stroke-miterlimit:4;stroke-opacity:1;stroke-dasharray:none" />
    <path
       d="m -43.16513,64.357143 c 0.30464,1.690349 0.51076,3.271519 0.1875,5.15625 a 1.0027361,1.0027361 0 0 1 -0.375,0.625 c -1.721814,1.428515 -4.345384,2.254348 -6.53125,3.125 -1.092933,0.435326 -2.065851,0.86976 -2.6875,1.28125 -0.621649,0.41149 -0.750567,0.685398 -0.75,0.8125 a 1.0027361,1.0027361 0 0 1 0,0.125 l -1,7.375 c 0,0.003 -1.1e-4,0.02807 0,0.03125 0.0055,0.158344 0.150083,0.473017 0.78125,0.90625 0.643832,0.441926 1.694345,0.893116 3.03125,1.28125 2.673811,0.776268 6.485951,1.28125 10.6875,1.28125 4.201549,0 8.013689,-0.504982 10.6875,-1.28125 1.336905,-0.388134 2.387418,-0.839324 3.03125,-1.28125 0.631167,-0.433233 0.77575,-0.747906 0.78125,-0.90625 l 0,-0.03125 -1,-7.375 a 1.0027361,1.0027361 0 0 1 0,-0.125 c 1.37e-4,0.02464 0.01573,0.0028 -0.09375,-0.125 -0.109475,-0.12777 -0.334408,-0.299018 -0.65625,-0.5 -0.643684,-0.401965 -1.645672,-0.857472 -2.75,-1.3125 -2.208657,-0.910057 -4.836448,-1.83876 -6.53125,-3.3125 a 1.0027361,1.0027361 0 0 1 -0.34375,-0.625 c -0.211888,-1.7432 -0.05746,-3.440707 0.21875,-5.125 l -6.6875,0 z"
       id="path3894"
       style="fill:none;stroke:url(#linearGradient2966);stroke-width:1;stroke-miterlimit:4;stroke-opacity:1;stroke-dasharray:none" />
    <path
       d="m -39.821429,48.357143 c -4.142136,0 -7.5,3.134007 -7.5,7 0.03246,1.430727 0.154571,3.130379 1,7 0.5,1.5 4.95976,5.5 5,6 0.96967,0.5 2.5,0.5 3.5,0 0,-0.5 4,-4.5 4.5,-6 0.951375,-4.021691 0.948972,-5.5 1,-7 0,-3.865993 -3.357864,-7 -7.5,-7 z"
       id="path3764"
       style="fill:url(#radialGradient2961);fill-opacity:1;stroke:url(#linearGradient2963);stroke-width:1;stroke-miterlimit:4;stroke-opacity:1;stroke-dasharray:none" />
    <path
       d="m -48.821429,86.057143 c -2.362349,-1.982195 -1.235869,-6.38286 -1,-9.2 -1,2 -1,8 -3,8 1.36261,0.458554 2.749561,0.965789 4,1.2 z"
       id="path3848"
       style="opacity:0.3;fill:url(#linearGradient2958);fill-opacity:1;stroke:none" />
    <path
       d="m -30.821429,86.057143 c 2.350047,-1.743746 1.156723,-6.485917 1,-9.2 1,2 1,8 3,8 -1.36261,0.458554 -2.749561,0.965789 -4,1.2 z"
       id="path3850"
       style="opacity:0.3;fill:url(#linearGradient2955);fill-opacity:1;stroke:none" />
    <path
       d="m -44.508929,69.857143 c 0.686303,1.744757 2.518909,3 4.6875,3 2.168591,0 4.001197,-1.255243 4.6875,-3 l -9.375,0 z"
       id="path3833"
       style="opacity:0.2;fill:url(#radialGradient2952);fill-opacity:1;stroke:none" />
    <path
       d="m -39.821421,49.359119 c -3.629982,0 -6.479591,2.68807 -6.497991,5.957577 1.43e-4,0.0063 -1.45e-4,0.02507 0,0.03136 0.03197,1.378519 0.157134,2.991514 0.973129,6.741468 0.04077,0.09697 0.336271,0.584882 0.784782,1.128804 0.462767,0.561212 1.044487,1.197903 1.632345,1.818629 0.587859,0.620726 1.182613,1.236642 1.632346,1.724562 0.224867,0.24396 0.407165,0.459246 0.565042,0.658469 0.01431,0.01805 0.01759,0.04488 0.03139,0.06271 0.58253,0.228707 1.597099,0.231216 2.228779,0 0.140922,-0.204291 0.301455,-0.44422 0.50226,-0.689824 0.401611,-0.491211 0.914861,-1.071398 1.443998,-1.693207 0.529137,-0.621808 1.083722,-1.286545 1.506781,-1.849984 0.402115,-0.535546 0.66058,-0.979967 0.721999,-1.128804 0.0033,-0.01393 -0.0033,-0.0175 0,-0.03136 0.926701,-3.922531 0.922386,-5.229939 0.973129,-6.741468 0,-0.0106 5.9e-5,-0.02077 0,-0.03136 -0.0184,-3.269507 -2.868009,-5.957577 -6.497991,-5.957577 z"
       id="path3906"
       style="opacity:0.7;fill:none;stroke:url(#linearGradient2949);stroke-width:1.00395072;stroke-miterlimit:4;stroke-opacity:1;stroke-dasharray:none" />
    <path
       d="m -84.321429,63.357143 c 0.460215,2.17673 0.717092,3.82327 0.34375,6 -2.910693,2.414876 -10.354908,3.5 -10.34375,6 l -1,6.5 c 0,2.485281 6.939586,4.5 15.5,4.5 8.560414,0 15.5,-2.014719 15.5,-4.5 l -1,-6.5 c -0.01187,-2.139663 -7.5,-3.5 -10.375,-6 -0.245574,-2.020337 -0.05009,-3.979663 0.375,-6 l -9,0 z"
       id="path3754"
       style="fill:#000000;fill-opacity:1;stroke:none" />
    <path
       d="m -9.75,73.09375 c -3.766412,0.121068 -7.468069,1.386362 -11.40625,3.25 a 1.25331,1.25331 0 0 0 -0.6875,1.4375 l 0.625,2.53125 a 1.25331,1.25331 0 0 0 0.78125,0.84375 c 0.161757,0.06256 0.275429,0.183794 0.71875,0.3125 2.335298,0.677989 5.907957,1.15625 9.90625,1.15625 3.9982931,0 7.5709518,-0.478261 9.90625,-1.15625 0.44332111,-0.128707 0.55699247,-0.24994 0.71875,-0.3125 a 1.25331,1.25331 0 0 0 0.78125,-0.8125 L 2.25,78.03125 a 1.25331,1.25331 0 0 0 -0.53125,-1.375 C -2.2051532,74.042333 -5.9835879,72.972682 -9.75,73.09375 z"
       transform="matrix(0.86897874,0,0,0.86897874,-71.283248,17.200632)"
       id="path3765"
       style="fill:#000000;fill-opacity:1;stroke:none" />
    <rect
       width="2.7779195"
       height="5.5558391"
       rx="3"
       ry="3"
       x="-103.86008"
       y="18.240328"
       transform="matrix(0.9205234,-0.39068744,0.39068744,0.9205234,0,0)"
       id="rect3767"
       style="fill:#000000;fill-opacity:1;stroke:none" />
    <rect
       width="2.7779195"
       height="5.5558391"
       rx="3"
       ry="3"
       x="43.180706"
       y="80.647209"
       transform="matrix(-0.9205234,-0.39068744,-0.39068744,0.9205234,0,0)"
       id="rect3769"
       style="fill:#000000;fill-opacity:1;stroke:none" />
    <path
       d="m -79.821429,48.357143 c -4.142136,0 -7.5,3.134007 -7.5,7 0.03246,1.430727 0.154571,3.130379 1,7 0.5,1.5 3.95976,5.5 4,6 0.96967,0.5 4.5,0.5 5.5,0 0,-0.5 3,-4.5 3.5,-6 0.951375,-4.021691 0.948972,-5.5 1,-7 0,-3.865993 -3.357864,-7 -7.5,-7 z"
       id="path2976"
       style="fill:#000000;fill-opacity:1;stroke:none" />
    <path
       d="m 47.999999,-69.999995 c -5.611926,0 -10.16129,4.316787 -10.16129,9.641816 0.01362,0.610257 0.02227,1.307044 0.08468,2.066103 -0.888131,0.481339 -1.003897,2.363692 -0.211694,4.261335 0.305477,0.73174 0.722128,1.326304 1.143145,1.807841 0.01403,0.01605 0.02823,0.02732 0.04234,0.04304 0.100496,0.501377 0.174834,0.897937 0.296371,1.463489 0.376511,1.148343 1.932356,3.308374 3.30242,5.165258 0.13663,1.432446 0.147869,2.847174 -0.127024,4.476555 -3.94352,3.326256 -14.029229,4.820908 -14.014113,8.264412 L 27,-23.857034 c 0,1.834335 2.695333,3.51386 6.985888,4.648733 l 0.592741,2.453497 a 1.4755544,1.500128 0 0 0 0.931452,0.990006 c 0.19044,0.07487 0.324839,0.233343 0.846773,0.387398 C 39.106261,-14.565895 43.292705,-14 48,-14 c 4.707295,0 8.936078,-0.565895 11.685484,-1.3774 0.521934,-0.154056 0.656333,-0.312517 0.846773,-0.387398 a 1.4755544,1.500128 0 0 0 0.889114,-0.946962 l 0.719758,-2.582629 C 66.326854,-20.427468 69,-22.048533 69,-23.857034 l -1.354839,-8.953114 c -0.01608,-2.947176 -10.161291,-4.820905 -14.056452,-8.264412 -0.157708,-1.319064 -0.164982,-2.617784 -0.08469,-3.916984 1.245646,-1.953481 2.885597,-4.453535 3.302419,-5.724829 0.153195,-0.658372 0.219732,-1.113376 0.33871,-1.67871 0.367838,-0.457085 0.702256,-0.985228 0.97379,-1.635664 0.752312,-1.802086 0.682075,-3.547097 -0.08468,-4.132205 0.05357,-0.783024 0.104615,-1.526009 0.12701,-2.195234 C 58.161273,-65.683213 53.611911,-70 47.999985,-70 z"
       id="path3798"
       style="fill:#000000;fill-opacity:1;stroke:none" />
    <path
       d="m 138,27 c -4.27575,0 -7.75,3.22497 -7.75,7.21875 0.0104,0.45769 0.0149,0.99321 0.0625,1.5625 -0.67667,0.36101 -0.75983,1.76427 -0.15625,3.1875 0.23274,0.54881 0.55423,1.01384 0.875,1.375 0.0107,0.012 0.0205,0.01945 0.0312,0.03125 0.0766,0.37603 0.12615,0.66959 0.21875,1.09375 0.28687,0.86126 1.48739,2.48233 2.53125,3.875 0.1041,1.07433 0.11569,2.12172 -0.0937,3.34375 -1.69142,1.404372 -4.83156,2.39797 -7.28125,3.4375 -0.88116,-0.405159 -1.68005,-0.84776 -2.25,-1.34375 -0.0901,-0.74197 -0.0771,-1.48795 -0.0312,-2.21875 0.7118,-1.09884 1.63682,-2.50365 1.875,-3.21875 0.0875,-0.37033 0.11951,-0.6195 0.1875,-0.9375 0.21019,-0.25711 0.40734,-0.57163 0.5625,-0.9375 0.42989,-1.01368 0.37565,-1.98338 -0.0625,-2.3125 0.0306,-0.44045 0.081,-0.84231 0.0937,-1.21875 0,-2.99533 -2.60568,-5.4375 -5.8125,-5.4375 -3.20681,0 -5.8125,2.44218 -5.8125,5.4375 0.008,0.34327 0.0268,0.72928 0.0625,1.15625 -0.5075,0.27075 -0.57769,1.30757 -0.125,2.375 0.17456,0.4116 0.41567,0.76038 0.65625,1.03125 0.008,0.009 0.0232,0.02245 0.0312,0.03125 0.0574,0.28202 0.0868,0.49438 0.15625,0.8125 0.21515,0.64594 1.09211,1.86175 1.875,2.90625 0.0781,0.80575 0.0946,1.61472 -0.0625,2.53125 -2.25344,1.87102 -8.00864,2.68803 -8,4.625 L 109,60.46875 c 0,1.03181 1.54825,1.95539 4,2.59375 l 0.34375,1.375 A 0.84317393,0.843822 0 0 0 113.875,65 c 0.10882,0.0421 0.1705,0.1321 0.46875,0.21875 C 115.91484,65.67522 118.31012,66 121,66 c 2.53462,0 4.80443,-0.304222 6.375,-0.71875 l 0.40625,1.65625 a 1.1242319,1.125096 0 0 0 0.6875,0.75 c 0.1451,0.0562 0.25859,0.16571 0.65625,0.28125 C 131.21979,68.57738 134.41349,69 138,69 c 3.58651,0 6.81146,-0.42262 8.90625,-1.03125 0.39766,-0.11554 0.51115,-0.22509 0.65625,-0.28125 a 1.1242319,1.125096 0 0 0 0.65625,-0.71875 L 148.6875,65.3125 C 150.25401,65.721087 152.48762,66 155,66 c 2.68988,0 5.11641,-0.32478 6.6875,-0.78125 0.29825,-0.0867 0.35993,-0.17663 0.46875,-0.21875 a 0.84317393,0.843822 0 0 0 0.5,-0.53125 l 0.4375,-1.4375 C 165.48559,62.39389 167,61.48603 167,60.46875 l -0.78125,-5.0625 c -0.009,-1.65778 -5.80544,-2.68803 -8.03125,-4.625 -0.0901,-0.74197 -0.0771,-1.48795 -0.0312,-2.21875 0.7118,-1.09884 1.63682,-2.50365 1.875,-3.21875 0.0875,-0.37033 0.11951,-0.6195 0.1875,-0.9375 0.21019,-0.25711 0.40734,-0.57163 0.5625,-0.9375 0.42989,-1.01368 0.37565,-1.98338 -0.0625,-2.3125 0.0306,-0.44045 0.081,-0.84231 0.0937,-1.21875 0,-2.99533 -2.60568,-5.4375 -5.8125,-5.4375 -3.20681,0 -5.8125,2.44218 -5.8125,5.4375 0.008,0.34327 0.0268,0.72928 0.0625,1.15625 -0.5075,0.27075 -0.57769,1.30757 -0.125,2.375 0.17456,0.4116 0.41567,0.76038 0.65625,1.03125 0.008,0.009 0.0232,0.02245 0.0312,0.03125 0.0574,0.28202 0.0868,0.49438 0.15625,0.8125 0.21515,0.64594 1.09211,1.86175 1.875,2.90625 0.0781,0.80575 0.0946,1.61472 -0.0625,2.53125 -0.64335,0.534171 -1.56298,0.959298 -2.5625,1.375 -2.41091,-1.017311 -5.37094,-2.07828 -6.96875,-3.46875 -0.12016,-0.9893 -0.12368,-1.9631 -0.0625,-2.9375 0.94906,-1.46511 2.21367,-3.32778 2.53125,-4.28125 0.11672,-0.49378 0.15935,-0.826 0.25,-1.25 0.28026,-0.34282 0.54312,-0.76217 0.75,-1.25 0.57319,-1.35156 0.5217,-2.65492 -0.0625,-3.09375 0.0408,-0.58727 0.0767,-1.15433 0.0937,-1.65625 C 145.75,30.22498 142.27575,27 138,27 z"
       transform="translate(-90,0)"
       clip-path="url(#clipPath3846)"
       id="path3837"
       style="fill:#ffeeaa;fill-opacity:1;stroke:none;filter:url(#filter3842)" />
    <path
       d="m 48,27 c -4.275753,0 -7.75,3.22497 -7.75,7.21875 0.01037,0.45769 0.01495,0.99321 0.0625,1.5625 -0.676671,0.36101 -0.759833,1.76427 -0.15625,3.1875 0.232745,0.54881 0.554225,1.01384 0.875,1.375 0.01069,0.012 0.0205,0.01945 0.03125,0.03125 0.07657,0.37603 0.12615,0.66959 0.21875,1.09375 0.286865,0.86126 1.487392,2.48233 2.53125,3.875 0.104099,1.07433 0.115692,2.12172 -0.09375,3.34375 -1.691416,1.404372 -4.831561,2.39797 -7.28125,3.4375 -0.88116,-0.405159 -1.680049,-0.84776 -2.25,-1.34375 -0.09012,-0.74197 -0.07714,-1.48795 -0.03125,-2.21875 0.711798,-1.09884 1.636815,-2.50365 1.875,-3.21875 0.08754,-0.37033 0.119513,-0.6195 0.1875,-0.9375 0.210194,-0.25711 0.407337,-0.57163 0.5625,-0.9375 0.429892,-1.01368 0.375647,-1.98338 -0.0625,-2.3125 C 36.74936,40.7158 36.7997,40.31394 36.8125,39.9375 36.8125,36.94217 34.206815,34.5 31,34.5 c -3.206814,0 -5.8125,2.44218 -5.8125,5.4375 0.0078,0.34327 0.02684,0.72928 0.0625,1.15625 -0.507503,0.27075 -0.577687,1.30757 -0.125,2.375 0.174559,0.4116 0.415669,0.76038 0.65625,1.03125 0.008,0.009 0.02319,0.02245 0.03125,0.03125 0.05743,0.28202 0.08679,0.49438 0.15625,0.8125 0.215149,0.64594 1.092106,1.86175 1.875,2.90625 0.07807,0.80575 0.09459,1.61472 -0.0625,2.53125 -2.25344,1.87102 -8.008639,2.68803 -8,4.625 L 19,60.46875 c 0,1.03181 1.548254,1.95539 4,2.59375 l 0.34375,1.375 A 0.84317393,0.843822 0 0 0 23.875,65 c 0.108823,0.0421 0.170502,0.1321 0.46875,0.21875 C 25.91484,65.67522 28.310118,66 31,66 c 2.534617,0 4.804435,-0.304222 6.375,-0.71875 l 0.40625,1.65625 a 1.1242319,1.125096 0 0 0 0.6875,0.75 c 0.145097,0.0562 0.258586,0.16571 0.65625,0.28125 C 41.219786,68.57738 44.41349,69 48,69 c 3.58651,0 6.811464,-0.42262 8.90625,-1.03125 0.397664,-0.11554 0.511152,-0.22509 0.65625,-0.28125 a 1.1242319,1.125096 0 0 0 0.65625,-0.71875 L 58.6875,65.3125 C 60.25401,65.721087 62.487616,66 65,66 c 2.689882,0 5.116411,-0.32478 6.6875,-0.78125 0.298248,-0.0867 0.359927,-0.17663 0.46875,-0.21875 a 0.84317393,0.843822 0 0 0 0.5,-0.53125 l 0.4375,-1.4375 C 75.485592,62.39389 77,61.48603 77,60.46875 l -0.78125,-5.0625 c -0.0092,-1.65778 -5.805444,-2.68803 -8.03125,-4.625 -0.09012,-0.74197 -0.07714,-1.48795 -0.03125,-2.21875 0.711798,-1.09884 1.636815,-2.50365 1.875,-3.21875 0.08754,-0.37033 0.119513,-0.6195 0.1875,-0.9375 0.210194,-0.25711 0.407337,-0.57163 0.5625,-0.9375 0.429892,-1.01368 0.375647,-1.98338 -0.0625,-2.3125 C 70.74936,40.7158 70.7997,40.31394 70.8125,39.9375 70.8125,36.94217 68.206815,34.5 65,34.5 c -3.206814,0 -5.8125,2.44218 -5.8125,5.4375 0.0078,0.34327 0.02684,0.72928 0.0625,1.15625 -0.507503,0.27075 -0.577687,1.30757 -0.125,2.375 0.174559,0.4116 0.415669,0.76038 0.65625,1.03125 0.008,0.009 0.02319,0.02245 0.03125,0.03125 0.05743,0.28202 0.0868,0.49438 0.15625,0.8125 0.215149,0.64594 1.092106,1.86175 1.875,2.90625 0.07807,0.80575 0.09459,1.61472 -0.0625,2.53125 -0.64335,0.534171 -1.562979,0.959298 -2.5625,1.375 C 56.807839,51.138939 53.847811,50.07797 52.25,48.6875 52.129842,47.6982 52.12632,46.7244 52.1875,45.75 c 0.949064,-1.46511 2.213671,-3.32778 2.53125,-4.28125 0.11672,-0.49378 0.15935,-0.826 0.25,-1.25 0.280258,-0.34282 0.543117,-0.76217 0.75,-1.25 0.57319,-1.35156 0.521696,-2.65492 -0.0625,-3.09375 C 55.69707,35.28773 55.73294,34.72067 55.75,34.21875 55.75,30.22498 52.275753,27 48,27 z"
       id="path3813"
       style="fill:url(#linearGradient3859);fill-opacity:1;stroke:none" />
    <path
       d="m 26,-65.666664 c -2.672346,0 -4.83871,2.055613 -4.83871,4.591341 0.0065,0.290598 0.0106,0.622402 0.04032,0.983858 -0.42292,0.229209 -0.478046,1.125568 -0.100807,2.029207 0.145465,0.348448 0.343871,0.631574 0.544355,0.860877 0.0067,0.0076 0.01344,0.01301 0.02016,0.02049 0.04785,0.238751 0.08325,0.427589 0.141129,0.6969 0.179291,0.54683 0.920169,1.575416 1.572581,2.459646 0.06506,0.682118 0.07041,1.355798 -0.06049,2.131693 -1.877866,1.583932 -6.680585,2.295671 -6.673387,3.935435 L 16,-43.693826 c 0,0.873493 1.283492,1.673267 3.326613,2.213683 l 0.282258,1.168332 a 0.70264495,0.71434667 0 0 0 0.443549,0.471431 c 0.09068,0.03565 0.154685,0.111116 0.403225,0.184475 C 21.764886,-39.269474 23.758431,-39 26,-39 c 2.241569,0 4.255275,-0.269474 5.564516,-0.655905 0.24854,-0.07336 0.31254,-0.148817 0.403225,-0.184475 a 0.70264495,0.71434667 0 0 0 0.423388,-0.450934 l 0.342742,-1.229824 C 34.727073,-42.060699 36,-42.832635 36,-43.693826 l -0.645161,-4.263387 c -0.0077,-1.403417 -4.83871,-2.295669 -6.693549,-3.935435 -0.0751,-0.628125 -0.07856,-1.246563 -0.04033,-1.86523 0.593165,-0.930229 1.374094,-2.120731 1.572581,-2.726109 0.07295,-0.313511 0.104634,-0.530179 0.16129,-0.799386 0.175161,-0.217659 0.334408,-0.469156 0.46371,-0.778887 0.358244,-0.858137 0.324798,-1.689094 -0.04032,-1.967717 0.02551,-0.372869 0.04982,-0.726671 0.06048,-1.04535 2e-6,-2.535727 -2.16636,-4.59134 -4.838706,-4.59134 z"
       id="path3819"
       style="fill:#000000;fill-opacity:1;stroke:none" />
    <path
       d="m 70,-65.666664 c -2.672346,0 -4.83871,2.055613 -4.83871,4.591341 0.0065,0.290598 0.0106,0.622402 0.04032,0.983858 -0.42292,0.229209 -0.478046,1.125568 -0.100807,2.029207 0.145465,0.348448 0.343871,0.631574 0.544355,0.860877 0.0067,0.0076 0.01344,0.01301 0.02016,0.02049 0.04785,0.238751 0.08325,0.427589 0.141129,0.6969 0.179291,0.54683 0.920169,1.575416 1.572581,2.459646 0.06506,0.682118 0.07041,1.355798 -0.06049,2.131693 -1.877866,1.583932 -6.680585,2.295671 -6.673387,3.935435 L 60,-43.693826 c 0,0.873493 1.283492,1.673267 3.326613,2.213683 l 0.282258,1.168332 a 0.70264495,0.71434667 0 0 0 0.443549,0.471431 c 0.09068,0.03565 0.154685,0.111116 0.403225,0.184475 C 65.764886,-39.269474 67.758431,-39 70,-39 c 2.241569,0 4.255275,-0.269474 5.564516,-0.655905 0.24854,-0.07336 0.31254,-0.148817 0.403225,-0.184475 a 0.70264495,0.71434667 0 0 0 0.423388,-0.450934 l 0.342742,-1.229824 C 78.727073,-42.060699 80,-42.832635 80,-43.693826 l -0.645161,-4.263387 c -0.0077,-1.403417 -4.83871,-2.295669 -6.693549,-3.935435 -0.0751,-0.628125 -0.07856,-1.246563 -0.04033,-1.86523 0.593165,-0.930229 1.374094,-2.120731 1.572581,-2.726109 0.07295,-0.313511 0.104634,-0.530179 0.16129,-0.799386 0.175161,-0.217659 0.334408,-0.469156 0.46371,-0.778887 0.358244,-0.858137 0.324798,-1.689094 -0.04032,-1.967717 0.02551,-0.372869 0.04982,-0.726671 0.06048,-1.04535 2e-6,-2.535727 -2.16636,-4.59134 -4.838706,-4.59134 z"
       id="path3821"
       style="fill:#000000;fill-opacity:1;stroke:none" />
    <path
       d="m 47.999999,117 c -4.275753,0 -7.741935,3.23759 -7.741935,7.23137 0.01037,0.45769 0.01697,0.98028 0.06452,1.54957 -0.676671,0.36101 -0.764874,1.77277 -0.161291,3.196 0.232745,0.54881 0.550193,0.99473 0.870968,1.35589 0.01069,0.012 0.02151,0.0205 0.03226,0.0323 0.07657,0.37603 0.133207,0.67345 0.225807,1.09761 0.286865,0.86126 1.472271,2.48128 2.516129,3.87395 0.104099,1.07433 0.112662,2.13538 -0.09678,3.35741 -3.004586,2.49469 -10.688937,3.61568 -10.677419,6.19831 L 32,151.60723 c 0,1.37575 2.053587,2.63539 5.322581,3.48654 l 0.451613,1.84013 a 1.1242319,1.125096 0 0 0 0.709677,0.7425 c 0.145097,0.0562 0.247497,0.17501 0.645161,0.29055 C 41.223818,158.57558 44.41349,159 48,159 c 3.58651,0 6.80844,-0.42442 8.903226,-1.03305 0.397664,-0.11554 0.500063,-0.23439 0.645161,-0.29055 a 1.1242319,1.125096 0 0 0 0.677419,-0.71022 l 0.548388,-1.93697 C 61.963317,154.1794 64,152.9636 64,151.60723 l -1.032259,-6.71484 c -0.01225,-2.21038 -7.741936,-3.61568 -10.709677,-6.19831 -0.120158,-0.9893 -0.1257,-1.96334 -0.06452,-2.93774 0.949064,-1.46511 2.19855,-3.34015 2.516129,-4.29362 0.11672,-0.49378 0.167415,-0.83503 0.258065,-1.25903 0.280258,-0.34282 0.535052,-0.73892 0.741935,-1.22675 0.57319,-1.35156 0.519676,-2.66032 -0.06452,-3.09915 0.04082,-0.58727 0.07971,-1.14451 0.09677,-1.64643 0,-3.99377 -3.466182,-7.23136 -7.741935,-7.23136 z"
       id="path3824"
       style="fill:#000000;fill-opacity:1;stroke:none" />
    <path
       d="m 30.999999,124.5 c -3.206814,0 -5.806451,2.4282 -5.806451,5.42352 0.0078,0.34327 0.01273,0.73522 0.04839,1.16219 -0.507503,0.27075 -0.573655,1.32957 -0.120968,2.397 0.174559,0.4116 0.412645,0.74604 0.653226,1.01691 0.008,0.009 0.01613,0.0154 0.02419,0.0242 0.05743,0.28202 0.0999,0.50509 0.169355,0.82321 0.215149,0.64594 1.104203,1.86096 1.887097,2.90546 0.07807,0.80575 0.0845,1.60153 -0.07259,2.51806 -2.25344,1.87102 -8.016703,2.71176 -8.008064,4.64873 L 19,150.45542 c 0,1.03181 1.54019,1.97655 3.991936,2.61491 l 0.338709,1.38009 a 0.84317393,0.843822 0 0 0 0.532258,0.55688 c 0.108823,0.0421 0.185623,0.13126 0.483871,0.21791 C 25.917864,155.68168 28.310118,156 31,156 c 2.689882,0 5.10633,-0.31832 6.677419,-0.77479 0.298248,-0.0867 0.375048,-0.17579 0.483871,-0.21791 a 0.84317393,0.843822 0 0 0 0.508065,-0.53267 l 0.411291,-1.45272 C 41.472488,152.38455 43,151.4727 43,150.45542 l -0.774194,-5.03613 c -0.0092,-1.65778 -5.806452,-2.71176 -8.032258,-4.64873 -0.09012,-0.74197 -0.09428,-1.4725 -0.04839,-2.2033 0.711798,-1.09884 1.648912,-2.50512 1.887097,-3.22022 0.08754,-0.37033 0.125561,-0.62627 0.193548,-0.94427 0.210194,-0.25711 0.401289,-0.55419 0.556452,-0.92006 0.429892,-1.01368 0.389757,-1.99525 -0.04839,-2.32437 0.03061,-0.44045 0.05978,-0.85838 0.07258,-1.23482 0,-2.99533 -2.599636,-5.42352 -5.806451,-5.42352 z"
       id="path3826"
       style="fill:#000000;fill-opacity:1;stroke:none" />
    <path
       d="m 64.999999,124.5 c -3.206814,0 -5.806451,2.4282 -5.806451,5.42352 0.0078,0.34327 0.01273,0.73522 0.04839,1.16219 -0.507503,0.27075 -0.573655,1.32957 -0.120968,2.397 0.174559,0.4116 0.412645,0.74604 0.653226,1.01691 0.008,0.009 0.01613,0.0154 0.02419,0.0242 0.05743,0.28202 0.0999,0.50509 0.169355,0.82321 0.215149,0.64594 1.104203,1.86096 1.887097,2.90546 0.07807,0.80575 0.0845,1.60153 -0.07259,2.51806 -2.25344,1.87102 -8.016703,2.71176 -8.008064,4.64873 L 53,150.45542 c 0,1.03181 1.54019,1.97655 3.991936,2.61491 l 0.338709,1.38009 a 0.84317393,0.843822 0 0 0 0.532258,0.55688 c 0.108823,0.0421 0.185623,0.13126 0.483871,0.21791 C 59.917864,155.68168 62.310118,156 65,156 c 2.689882,0 5.10633,-0.31832 6.677419,-0.77479 0.298248,-0.0867 0.375048,-0.17579 0.483871,-0.21791 a 0.84317393,0.843822 0 0 0 0.508065,-0.53267 l 0.411291,-1.45272 C 75.472488,152.38455 77,151.4727 77,150.45542 l -0.774194,-5.03613 c -0.0092,-1.65778 -5.806452,-2.71176 -8.032258,-4.64873 -0.09012,-0.74197 -0.09428,-1.4725 -0.04839,-2.2033 0.711798,-1.09884 1.648912,-2.50512 1.887097,-3.22022 0.08754,-0.37033 0.125561,-0.62627 0.193548,-0.94427 0.210194,-0.25711 0.401289,-0.55419 0.556452,-0.92006 0.429892,-1.01368 0.389757,-1.99525 -0.04839,-2.32437 0.03061,-0.44045 0.05978,-0.85838 0.07258,-1.23482 0,-2.99533 -2.599636,-5.42352 -5.806451,-5.42352 z"
       id="path3828"
       style="fill:#000000;fill-opacity:1;stroke:none" />
    <path
       d="m 48,27 c -4.275753,0 -7.75,3.22497 -7.75,7.21875 0.01037,0.45769 0.01495,0.99321 0.0625,1.5625 -0.676671,0.36101 -0.759833,1.76427 -0.15625,3.1875 0.232745,0.54881 0.554225,1.01384 0.875,1.375 0.01069,0.012 0.0205,0.01945 0.03125,0.03125 0.07657,0.37603 0.12615,0.66959 0.21875,1.09375 0.286865,0.86126 1.487392,2.48233 2.53125,3.875 0.104099,1.07433 0.115692,2.12172 -0.09375,3.34375 -1.691416,1.404372 -4.831561,2.39797 -7.28125,3.4375 -0.88116,-0.405159 -1.680049,-0.84776 -2.25,-1.34375 -0.09012,-0.74197 -0.07714,-1.48795 -0.03125,-2.21875 0.711798,-1.09884 1.636815,-2.50365 1.875,-3.21875 0.08754,-0.37033 0.119513,-0.6195 0.1875,-0.9375 0.210194,-0.25711 0.407337,-0.57163 0.5625,-0.9375 0.429892,-1.01368 0.375647,-1.98338 -0.0625,-2.3125 C 36.74936,40.7158 36.7997,40.31394 36.8125,39.9375 36.8125,36.94217 34.206815,34.5 31,34.5 c -3.206814,0 -5.8125,2.44218 -5.8125,5.4375 0.0078,0.34327 0.02684,0.72928 0.0625,1.15625 -0.507503,0.27075 -0.577687,1.30757 -0.125,2.375 0.174559,0.4116 0.415669,0.76038 0.65625,1.03125 0.008,0.009 0.02319,0.02245 0.03125,0.03125 0.05743,0.28202 0.08679,0.49438 0.15625,0.8125 0.215149,0.64594 1.092106,1.86175 1.875,2.90625 0.07807,0.80575 0.09459,1.61472 -0.0625,2.53125 -2.25344,1.87102 -8.008639,2.68803 -8,4.625 L 19,60.46875 c 0,1.03181 1.548254,1.95539 4,2.59375 l 0.34375,1.375 A 0.84317393,0.843822 0 0 0 23.875,65 c 0.108823,0.0421 0.170502,0.1321 0.46875,0.21875 C 25.91484,65.67522 28.310118,66 31,66 c 2.534617,0 4.804435,-0.304222 6.375,-0.71875 l 0.40625,1.65625 a 1.1242319,1.125096 0 0 0 0.6875,0.75 c 0.145097,0.0562 0.258586,0.16571 0.65625,0.28125 C 41.219786,68.57738 44.41349,69 48,69 c 3.58651,0 6.811464,-0.42262 8.90625,-1.03125 0.397664,-0.11554 0.511152,-0.22509 0.65625,-0.28125 a 1.1242319,1.125096 0 0 0 0.65625,-0.71875 L 58.6875,65.3125 C 60.25401,65.721087 62.487616,66 65,66 c 2.689882,0 5.116411,-0.32478 6.6875,-0.78125 0.298248,-0.0867 0.359927,-0.17663 0.46875,-0.21875 a 0.84317393,0.843822 0 0 0 0.5,-0.53125 l 0.4375,-1.4375 C 75.485592,62.39389 77,61.48603 77,60.46875 l -0.78125,-5.0625 c -0.0092,-1.65778 -5.805444,-2.68803 -8.03125,-4.625 -0.09012,-0.74197 -0.07714,-1.48795 -0.03125,-2.21875 0.711798,-1.09884 1.636815,-2.50365 1.875,-3.21875 0.08754,-0.37033 0.119513,-0.6195 0.1875,-0.9375 0.210194,-0.25711 0.407337,-0.57163 0.5625,-0.9375 0.429892,-1.01368 0.375647,-1.98338 -0.0625,-2.3125 C 70.74936,40.7158 70.7997,40.31394 70.8125,39.9375 70.8125,36.94217 68.206815,34.5 65,34.5 c -3.206814,0 -5.8125,2.44218 -5.8125,5.4375 0.0078,0.34327 0.02684,0.72928 0.0625,1.15625 -0.507503,0.27075 -0.577687,1.30757 -0.125,2.375 0.174559,0.4116 0.415669,0.76038 0.65625,1.03125 0.008,0.009 0.02319,0.02245 0.03125,0.03125 0.05743,0.28202 0.0868,0.49438 0.15625,0.8125 0.215149,0.64594 1.092106,1.86175 1.875,2.90625 0.07807,0.80575 0.09459,1.61472 -0.0625,2.53125 -0.64335,0.534171 -1.562979,0.959298 -2.5625,1.375 C 56.807839,51.138939 53.847811,50.07797 52.25,48.6875 52.129842,47.6982 52.12632,46.7244 52.1875,45.75 c 0.949064,-1.46511 2.213671,-3.32778 2.53125,-4.28125 0.11672,-0.49378 0.15935,-0.826 0.25,-1.25 0.280258,-0.34282 0.543117,-0.76217 0.75,-1.25 0.57319,-1.35156 0.521696,-2.65492 -0.0625,-3.09375 C 55.69707,35.28773 55.73294,34.72067 55.75,34.21875 55.75,30.22498 52.275753,27 48,27 z m 0,2.03125 c 3.225576,0 5.682436,2.342123 5.71875,5.125 2.73e-4,0.0209 0,0.04155 0,0.0625 -0.01633,0.445674 -0.0551,0.943964 -0.09375,1.5 a 2.0405414,2.0405414 0 0 0 0.46875,1.4375 c 0.0011,0.191911 -0.06921,0.604945 -0.25,1.03125 -0.128438,0.302856 -0.308859,0.554416 -0.46875,0.75 a 2.0405414,2.0405414 0 0 0 -0.40625,0.84375 c -0.0976,0.456508 -0.143079,0.749594 -0.21875,1.09375 -0.05171,0.128494 -0.35138,0.772968 -0.78125,1.46875 -0.447921,0.724999 -1.015155,1.564024 -1.5,2.3125 a 2.0405414,2.0405414 0 0 0 -0.3125,0.96875 c -0.06681,1.064138 -0.07641,2.168849 0.0625,3.3125 a 2.0405414,2.0405414 0 0 0 0.6875,1.28125 c 2.151431,1.872249 5.203315,2.830202 7.53125,3.8125 a 2.0405414,2.0405414 0 0 0 1.5625,0 c 1.045212,-0.434705 2.124529,-0.882759 3.09375,-1.6875 a 2.0405414,2.0405414 0 0 0 0.6875,-1.21875 c 0.194884,-1.137037 0.181798,-2.153771 0.09375,-3.0625 A 2.0405414,2.0405414 0 0 0 63.46875,47.03125 C 63.08589,46.520456 62.680763,45.957992 62.375,45.5 c -0.283026,-0.423935 -0.435494,-0.769622 -0.4375,-0.75 -1.61e-4,0.0016 -0.03376,-0.07004 -0.03125,-0.0625 -0.03149,-0.166744 -0.04349,-0.315705 -0.09375,-0.5625 a 2.0405414,2.0405414 0 0 0 -0.5,-0.96875 C 61.19993,43.029507 61.072644,42.85879 61,42.6875 60.918359,42.494991 60.92015,42.387436 60.90625,42.28125 a 2.0405414,2.0405414 0 0 0 0.375,-1.34375 c -0.03121,-0.373722 -0.05524,-0.704056 -0.0625,-1 -2.26e-4,-0.0092 2.08e-4,-0.02211 0,-0.03125 0.01849,-1.798823 1.622957,-3.375 3.78125,-3.375 2.14567,0 3.744562,1.558184 3.78125,3.34375 -4.58e-4,0.01347 6.81e-4,0.04813 0,0.0625 -0.01167,0.246132 -0.06032,0.581427 -0.09375,1.0625 A 2.0405414,2.0405414 0 0 0 69,42.25 c -0.01,0.09403 -0.0071,0.233175 -0.09375,0.4375 -0.07672,0.180913 -0.191451,0.327657 -0.28125,0.4375 a 2.0405414,2.0405414 0 0 0 -0.40625,0.84375 c -0.07421,0.347107 -0.107415,0.552627 -0.15625,0.78125 -0.02307,0.04524 -0.22692,0.497471 -0.53125,1 -0.323105,0.533531 -0.734291,1.163834 -1.09375,1.71875 A 2.0405414,2.0405414 0 0 0 66.125,48.4375 c -0.04982,0.793458 -0.08143,1.666004 0.03125,2.59375 a 2.0405414,2.0405414 0 0 0 0.6875,1.28125 c 1.639383,1.426645 3.72675,2.094358 5.40625,2.78125 0.83975,0.343446 1.572555,0.67954 1.9375,0.90625 0.05053,0.03139 0.02809,0.006 0.0625,0.03125 l 0.625,4.125 c -0.02345,0.01638 4.61e-4,0.01095 -0.03125,0.03125 -0.3911,0.250386 -1.214706,0.590796 -2.28125,0.875 a 2.0405414,2.0405414 0 0 0 -1.40625,1.375 l -0.25,0.84375 c -1.304105,0.35511 -3.471071,0.6875 -5.90625,0.6875 -2.361378,0 -4.484883,-0.278723 -5.8125,-0.625 A 2.0405414,2.0405414 0 0 0 56.71875,64.75 L 56.375,66 c -0.0064,0.002 -0.02218,-0.0026 -0.03125,0 -1.799014,0.522695 -4.917523,0.96875 -8.34375,0.96875 -3.426227,0 -6.508265,-0.444538 -8.3125,-0.96875 -0.02239,-0.0065 -0.05428,-0.02807 -0.0625,-0.03125 l -0.28125,-1.1875 a 2.0405414,2.0405414 0 0 0 -2.5,-1.46875 C 35.504022,63.666102 33.371354,63.96875 31,63.96875 c -2.421945,0 -4.53341,-0.333234 -5.84375,-0.6875 L 24.96875,62.5625 A 2.0405414,2.0405414 0 0 0 23.5,61.09375 c -1.095026,-0.285111 -1.90665,-0.64896 -2.3125,-0.90625 -0.0521,-0.03303 -0.03076,-0.0081 -0.0625,-0.03125 L 21.78125,55.875 c 0.01634,-0.01044 -0.01944,0.02279 0.0625,-0.03125 0.327774,-0.216146 1.02225,-0.549987 1.84375,-0.875 1.643,-0.650025 3.735027,-1.237392 5.40625,-2.625 a 2.0405414,2.0405414 0 0 0 0.6875,-1.21875 c 0.194884,-1.137037 0.181798,-2.153771 0.09375,-3.0625 A 2.0405414,2.0405414 0 0 0 29.46875,47.03125 C 29.08589,46.520456 28.680763,45.957992 28.375,45.5 c -0.283026,-0.423935 -0.435494,-0.769622 -0.4375,-0.75 -1.61e-4,0.0016 -0.03376,-0.07004 -0.03125,-0.0625 -0.03148,-0.166711 -0.04349,-0.315672 -0.09375,-0.5625 a 2.0405414,2.0405414 0 0 0 -0.5,-0.96875 C 27.19993,43.029507 27.072644,42.85879 27,42.6875 26.918359,42.494991 26.92015,42.387436 26.90625,42.28125 a 2.0405414,2.0405414 0 0 0 0.375,-1.34375 c -0.03121,-0.373722 -0.05524,-0.704056 -0.0625,-1 -2.26e-4,-0.0092 2.08e-4,-0.02211 0,-0.03125 0.01849,-1.798823 1.622957,-3.375 3.78125,-3.375 2.14567,0 3.744562,1.558184 3.78125,3.34375 -4.58e-4,0.01347 6.81e-4,0.04813 0,0.0625 -0.01167,0.246132 -0.06032,0.581427 -0.09375,1.0625 A 2.0405414,2.0405414 0 0 0 35,42.25 c -0.01,0.09403 -0.0071,0.233175 -0.09375,0.4375 -0.07672,0.180913 -0.191451,0.327657 -0.28125,0.4375 a 2.0405414,2.0405414 0 0 0 -0.40625,0.84375 c -0.07421,0.347107 -0.107415,0.552627 -0.15625,0.78125 -0.02307,0.04524 -0.22692,0.497471 -0.53125,1 -0.323105,0.533531 -0.734291,1.163834 -1.09375,1.71875 A 2.0405414,2.0405414 0 0 0 32.125,48.4375 c -0.04982,0.793458 -0.08143,1.666004 0.03125,2.59375 a 2.0405414,2.0405414 0 0 0 0.6875,1.28125 c 0.828753,0.721208 1.781696,1.211022 2.75,1.65625 A 2.0405414,2.0405414 0 0 0 37.25,54 c 2.302883,-0.977233 5.498852,-1.854939 7.78125,-3.75 a 2.0405414,2.0405414 0 0 0 0.6875,-1.21875 c 0.24435,-1.425705 0.239974,-2.688436 0.125,-3.875 A 2.0405414,2.0405414 0 0 0 45.4375,44.125 c -0.519205,-0.692701 -1.071226,-1.431012 -1.5,-2.0625 -0.40803,-0.600937 -0.663635,-1.144556 -0.6875,-1.1875 -0.0012,-0.0022 -0.03149,-0.06322 -0.03125,-0.0625 -0.05606,-0.274291 -0.0901,-0.518912 -0.15625,-0.84375 A 2.0405414,2.0405414 0 0 0 42.5625,39 c -0.192776,-0.217046 -0.400424,-0.504014 -0.53125,-0.8125 -0.17748,-0.418491 -0.216091,-0.79453 -0.21875,-1 a 2.0405414,2.0405414 0 0 0 0.53125,-1.5625 c -0.03876,-0.464062 -0.05207,-0.936371 -0.0625,-1.40625 0,-0.01048 -6.8e-5,-0.02078 0,-0.03125 0.01825,-2.796709 2.481056,-5.15625 5.71875,-5.15625 z"
       id="path3868"
       style="opacity:0.2;fill:#000000;fill-opacity:1;stroke:none" />
    <path
       d="m 48,27 c -4.275753,0 -7.75,3.22497 -7.75,7.21875 0.01037,0.45769 0.01495,0.99321 0.0625,1.5625 -0.676671,0.36101 -0.759833,1.76427 -0.15625,3.1875 0.232745,0.54881 0.554225,1.01384 0.875,1.375 0.01069,0.012 0.0205,0.01945 0.03125,0.03125 0.07657,0.37603 0.12615,0.66959 0.21875,1.09375 0.286865,0.86126 1.487392,2.48233 2.53125,3.875 0.104099,1.07433 0.115692,2.12172 -0.09375,3.34375 -1.691416,1.404372 -4.831561,2.39797 -7.28125,3.4375 -0.88116,-0.405159 -1.680049,-0.84776 -2.25,-1.34375 -0.09012,-0.74197 -0.07714,-1.48795 -0.03125,-2.21875 0.711798,-1.09884 1.636815,-2.50365 1.875,-3.21875 0.08754,-0.37033 0.119513,-0.6195 0.1875,-0.9375 0.210194,-0.25711 0.407337,-0.57163 0.5625,-0.9375 0.429892,-1.01368 0.375647,-1.98338 -0.0625,-2.3125 C 36.74936,40.7158 36.7997,40.31394 36.8125,39.9375 36.8125,36.94217 34.206815,34.5 31,34.5 c -3.206814,0 -5.8125,2.44218 -5.8125,5.4375 0.0078,0.34327 0.02684,0.72928 0.0625,1.15625 -0.507503,0.27075 -0.577687,1.30757 -0.125,2.375 0.174559,0.4116 0.415669,0.76038 0.65625,1.03125 0.008,0.009 0.02319,0.02245 0.03125,0.03125 0.05743,0.28202 0.08679,0.49438 0.15625,0.8125 0.215149,0.64594 1.092106,1.86175 1.875,2.90625 0.07807,0.80575 0.09459,1.61472 -0.0625,2.53125 -2.25344,1.87102 -8.008639,2.68803 -8,4.625 L 19,60.46875 c 0,1.03181 1.548254,1.95539 4,2.59375 l 0.34375,1.375 A 0.84317393,0.843822 0 0 0 23.875,65 c 0.108823,0.0421 0.170502,0.1321 0.46875,0.21875 C 25.91484,65.67522 28.310118,66 31,66 c 2.534617,0 4.804435,-0.304222 6.375,-0.71875 l 0.40625,1.65625 a 1.1242319,1.125096 0 0 0 0.6875,0.75 c 0.145097,0.0562 0.258586,0.16571 0.65625,0.28125 C 41.219786,68.57738 44.41349,69 48,69 c 3.58651,0 6.811464,-0.42262 8.90625,-1.03125 0.397664,-0.11554 0.511152,-0.22509 0.65625,-0.28125 a 1.1242319,1.125096 0 0 0 0.65625,-0.71875 L 58.6875,65.3125 C 60.25401,65.721087 62.487616,66 65,66 c 2.689882,0 5.116411,-0.32478 6.6875,-0.78125 0.298248,-0.0867 0.359927,-0.17663 0.46875,-0.21875 a 0.84317393,0.843822 0 0 0 0.5,-0.53125 l 0.4375,-1.4375 C 75.485592,62.39389 77,61.48603 77,60.46875 l -0.78125,-5.0625 c -0.0092,-1.65778 -5.805444,-2.68803 -8.03125,-4.625 -0.09012,-0.74197 -0.07714,-1.48795 -0.03125,-2.21875 0.711798,-1.09884 1.636815,-2.50365 1.875,-3.21875 0.08754,-0.37033 0.119513,-0.6195 0.1875,-0.9375 0.210194,-0.25711 0.407337,-0.57163 0.5625,-0.9375 0.429892,-1.01368 0.375647,-1.98338 -0.0625,-2.3125 C 70.74936,40.7158 70.7997,40.31394 70.8125,39.9375 70.8125,36.94217 68.206815,34.5 65,34.5 c -3.206814,0 -5.8125,2.44218 -5.8125,5.4375 0.0078,0.34327 0.02684,0.72928 0.0625,1.15625 -0.507503,0.27075 -0.577687,1.30757 -0.125,2.375 0.174559,0.4116 0.415669,0.76038 0.65625,1.03125 0.008,0.009 0.02319,0.02245 0.03125,0.03125 0.05743,0.28202 0.0868,0.49438 0.15625,0.8125 0.215149,0.64594 1.092106,1.86175 1.875,2.90625 0.07807,0.80575 0.09459,1.61472 -0.0625,2.53125 -0.64335,0.534171 -1.562979,0.959298 -2.5625,1.375 C 56.807839,51.138939 53.847811,50.07797 52.25,48.6875 52.129842,47.6982 52.12632,46.7244 52.1875,45.75 c 0.949064,-1.46511 2.213671,-3.32778 2.53125,-4.28125 0.11672,-0.49378 0.15935,-0.826 0.25,-1.25 0.280258,-0.34282 0.543117,-0.76217 0.75,-1.25 0.57319,-1.35156 0.521696,-2.65492 -0.0625,-3.09375 C 55.69707,35.28773 55.73294,34.72067 55.75,34.21875 55.75,30.22498 52.275753,27 48,27 z m 0,1.15625 c 3.679371,0 6.575465,2.726054 6.59375,6.03125 5.8e-5,0.01051 0,0.02073 0,0.03125 -0.01659,0.470064 -0.05404,0.991261 -0.09375,1.5625 a 1.1628892,1.1628892 0 0 0 0.40625,1 c -0.02131,-0.0066 0.05586,0.08752 0.0625,0.34375 0.0089,0.341637 -0.08325,0.834429 -0.3125,1.375 -0.162178,0.382415 -0.382088,0.709839 -0.59375,0.96875 a 1.1628892,1.1628892 0 0 0 -0.21875,0.5 c -0.09306,0.435284 -0.131318,0.735313 -0.21875,1.125 -0.0075,0.03336 -0.02301,0.05891 -0.03125,0.09375 -0.106736,0.282535 -0.469726,0.918448 -0.90625,1.625 -0.459345,0.74349 -0.98834,1.570872 -1.46875,2.3125 a 1.1628892,1.1628892 0 0 0 -0.1875,0.5625 c -0.06439,1.025541 -0.06834,2.047737 0.0625,3.125 a 1.1628892,1.1628892 0 0 0 0.40625,0.75 c 1.913315,1.665032 4.917626,2.658892 7.28125,3.65625 a 1.1628892,1.1628892 0 0 0 0.875,0 c 1.02556,-0.426532 2.045938,-0.842883 2.875,-1.53125 A 1.1628892,1.1628892 0 0 0 62.9375,50.96875 C 63.116129,49.926555 63.083756,48.989437 63,48.125 A 1.1628892,1.1628892 0 0 0 62.78125,47.5625 C 62.394697,47.046779 61.978457,46.482622 61.65625,46 61.341376,45.528361 61.098273,45.096004 61.0625,45 c -8.33e-4,-0.0022 6.15e-4,-0.0294 0,-0.03125 -0.04355,-0.216935 -0.07072,-0.389702 -0.125,-0.65625 A 1.1628892,1.1628892 0 0 0 60.65625,43.75 c -0.01165,-0.01272 0.0088,-0.02079 0,-0.03125 C 60.488621,43.530017 60.303978,43.274649 60.1875,43 60.022424,42.610752 59.988611,42.26158 60,42.0625 c 0.0019,-0.03235 0.0072,-0.05461 0,-0.0625 a 1.1628892,1.1628892 0 0 0 0.40625,-1 c -0.03272,-0.391771 -0.05485,-0.749171 -0.0625,-1.0625 0,-0.01041 -8.2e-5,-0.02085 0,-0.03125 0.01814,-2.307248 2.051523,-4.25 4.65625,-4.25 2.60473,0 4.638115,1.94274 4.65625,4.25 8.2e-5,0.0104 0,0.02084 0,0.03125 -0.0119,0.297968 -0.06131,0.658267 -0.09375,1.125 a 1.1628892,1.1628892 0 0 0 0.34375,0.90625 c -0.007,-0.0061 -0.0036,0.02504 0,0.125 0.0071,0.199912 -0.03145,0.538289 -0.1875,0.90625 -0.110461,0.260465 -0.264668,0.483066 -0.40625,0.65625 a 1.1628892,1.1628892 0 0 0 -0.21875,0.5 c -0.07006,0.327682 -0.09689,0.542685 -0.15625,0.8125 -0.007,0.03201 -0.02327,0.05999 -0.03125,0.09375 -0.0728,0.18391 -0.313447,0.641794 -0.625,1.15625 -0.334674,0.552634 -0.735822,1.166198 -1.09375,1.71875 A 1.1628892,1.1628892 0 0 0 67,48.5 c -0.04813,0.766508 -0.07173,1.558408 0.03125,2.40625 a 1.1628892,1.1628892 0 0 0 0.40625,0.75 c 1.41294,1.229587 3.455702,1.9295 5.15625,2.625 0.850274,0.34775 1.605286,0.684721 2.0625,0.96875 0.210071,0.1305 0.349928,0.222108 0.40625,0.28125 a 1.1628892,1.1628892 0 0 0 0,0.0625 l 0.75,4.90625 c -0.0026,-0.03425 -0.01856,0.09802 -0.5,0.40625 -0.514318,0.329272 -1.40906,0.700967 -2.53125,1 a 1.1628892,1.1628892 0 0 0 -0.8125,0.78125 L 71.5625,64 c -0.01553,0.0181 -0.121224,0.07448 -0.1875,0.09375 -1.404955,0.408201 -3.778715,0.75 -6.375,0.75 -2.426327,0 -4.600884,-0.283173 -6.03125,-0.65625 A 1.1628892,1.1628892 0 0 0 57.5625,65 l -0.4375,1.59375 0,0.03125 -0.03125,0 c -0.27844,0.117735 -0.264628,0.150364 -0.5,0.21875 -1.926228,0.559656 -5.098584,1 -8.59375,1 -3.495166,0 -6.633297,-0.439479 -8.5625,-1 -0.247752,-0.07198 -0.197296,-0.0828 -0.53125,-0.21875 -0.0074,-0.003 0.0078,-0.02812 0,-0.03125 L 38.5,65 a 1.1628892,1.1628892 0 0 0 -1.40625,-0.84375 c -1.439012,0.379807 -3.652176,0.6875 -6.09375,0.6875 -2.596285,0 -4.934827,-0.340646 -6.34375,-0.75 -0.07941,-0.02307 -0.171911,-0.09232 -0.21875,-0.125 L 24.125,62.78125 A 1.1628892,1.1628892 0 0 0 23.28125,61.9375 c -1.151304,-0.299765 -2.032916,-0.664269 -2.5625,-1 C 20.220999,60.621949 20.190447,60.467027 20.1875,60.5 l 0.75,-4.90625 a 1.1628892,1.1628892 0 0 0 0,-0.15625 c 0.01272,-0.008 0.08114,-0.12936 0.40625,-0.34375 0.433482,-0.285853 1.19332,-0.605987 2.03125,-0.9375 1.67586,-0.663026 3.719222,-1.275593 5.15625,-2.46875 A 1.1628892,1.1628892 0 0 0 28.9375,50.96875 C 29.116129,49.926555 29.083756,48.989437 29,48.125 A 1.1628892,1.1628892 0 0 0 28.78125,47.5625 C 28.394697,47.046779 27.978457,46.482622 27.65625,46 27.341376,45.528361 27.098273,45.096004 27.0625,45 c -8.33e-4,-0.0022 6.15e-4,-0.0294 0,-0.03125 -0.04354,-0.216909 -0.07072,-0.38968 -0.125,-0.65625 A 1.1628892,1.1628892 0 0 0 26.65625,43.75 c -0.01165,-0.01272 0.0088,-0.02079 0,-0.03125 C 26.488621,43.530017 26.303978,43.274649 26.1875,43 26.022424,42.610752 25.988611,42.26158 26,42.0625 c 0.0019,-0.03235 0.0072,-0.05461 0,-0.0625 a 1.1628892,1.1628892 0 0 0 0.40625,-1 c -0.03272,-0.391771 -0.05485,-0.749171 -0.0625,-1.0625 0,-0.01041 -8.2e-5,-0.02085 0,-0.03125 0.01814,-2.307248 2.051523,-4.25 4.65625,-4.25 2.60473,0 4.638115,1.94274 4.65625,4.25 8.2e-5,0.0104 0,0.02084 0,0.03125 -0.0119,0.297968 -0.06131,0.658267 -0.09375,1.125 a 1.1628892,1.1628892 0 0 0 0.34375,0.90625 c -0.007,-0.0061 -0.0036,0.02504 0,0.125 0.0071,0.199912 -0.03145,0.538289 -0.1875,0.90625 -0.110461,0.260465 -0.264668,0.483066 -0.40625,0.65625 a 1.1628892,1.1628892 0 0 0 -0.21875,0.5 c -0.07006,0.327682 -0.09689,0.542685 -0.15625,0.8125 -0.007,0.03201 -0.02327,0.05999 -0.03125,0.09375 -0.0728,0.18391 -0.313447,0.641794 -0.625,1.15625 -0.334674,0.552634 -0.735822,1.166198 -1.09375,1.71875 A 1.1628892,1.1628892 0 0 0 33,48.5 c -0.04813,0.766508 -0.07173,1.558408 0.03125,2.40625 a 1.1628892,1.1628892 0 0 0 0.40625,0.75 c 0.71744,0.62434 1.569177,1.103256 2.5,1.53125 a 1.1628892,1.1628892 0 0 0 0.96875,0 c 2.366025,-1.004027 5.534288,-1.909738 7.5625,-3.59375 A 1.1628892,1.1628892 0 0 0 44.875,48.875 c 0.229336,-1.338103 0.204047,-2.517959 0.09375,-3.65625 A 1.1628892,1.1628892 0 0 0 44.75,44.65625 C 44.229623,43.961986 43.663738,43.217868 43.21875,42.5625 42.773762,41.907132 42.43387,41.270497 42.375,41.09375 c -0.06947,-0.330432 -0.116467,-0.588663 -0.1875,-0.9375 a 1.1628892,1.1628892 0 0 0 -0.25,-0.5625 c -0.08383,-0.09202 -0.09658,-0.104589 -0.03125,-0.03125 -0.247829,-0.279031 -0.512838,-0.650649 -0.6875,-1.0625 -0.240666,-0.567483 -0.330713,-1.119522 -0.3125,-1.46875 0.0091,-0.174614 0.04806,-0.257129 0.0625,-0.28125 a 1.1628892,1.1628892 0 0 0 0.5,-1.0625 c -0.04214,-0.504473 -0.05227,-1.00661 -0.0625,-1.46875 0,-0.01052 -5.8e-5,-0.02074 0,-0.03125 0.01828,-3.305208 2.914377,-6.03125 6.59375,-6.03125 z"
       id="path3861"
       style="opacity:0.4;fill:#000000;fill-opacity:1;stroke:none" />
    <path
       d="m 55.71875,34.65625 c -0.01915,0.392253 -0.03247,0.786738 -0.0625,1.21875 0.02234,0.01678 0.04173,0.04324 0.0625,0.0625 0.01334,-0.238488 0.02385,-0.501097 0.03125,-0.71875 0,-0.187316 -0.01624,-0.37882 -0.03125,-0.5625 z m -15.4375,0.0625 c -0.01189,0.163699 -0.03125,0.333448 -0.03125,0.5 0.0039,0.17401 0.0263,0.399661 0.03125,0.59375 0.0125,-0.0077 0.01831,-0.02435 0.03125,-0.03125 -0.03232,-0.386954 -0.02332,-0.720587 -0.03125,-1.0625 z M 56.0625,37.625 c -0.05379,0.417461 -0.148202,0.882656 -0.34375,1.34375 -0.206883,0.48783 -0.469742,0.90718 -0.75,1.25 -0.09065,0.424 -0.13328,0.75622 -0.25,1.25 -0.317579,0.95347 -1.582186,2.81614 -2.53125,4.28125 -0.03582,0.57045 -0.01895,1.145481 0,1.71875 0.0065,-0.238473 -0.01496,-0.480441 0,-0.71875 0.949064,-1.46511 2.213671,-3.32778 2.53125,-4.28125 0.11672,-0.49378 0.15935,-0.826 0.25,-1.25 0.280258,-0.34282 0.543117,-0.76217 0.75,-1.25 0.372022,-0.877214 0.472876,-1.730335 0.34375,-2.34375 z m -16.28125,0.03125 c -0.107829,0.617453 0.01564,1.465143 0.375,2.3125 0.232745,0.54881 0.554225,1.01384 0.875,1.375 0.01069,0.012 0.0205,0.01945 0.03125,0.03125 0.07657,0.37603 0.12615,0.66959 0.21875,1.09375 0.286865,0.86126 1.487392,2.48233 2.53125,3.875 0.02005,0.206967 0.05023,0.418592 0.0625,0.625 0.01027,-0.548893 -0.01045,-1.087835 -0.0625,-1.625 -1.043858,-1.39267 -2.244385,-3.01374 -2.53125,-3.875 -0.0926,-0.42416 -0.14218,-0.71772 -0.21875,-1.09375 -0.01075,-0.0118 -0.02056,-0.01925 -0.03125,-0.03125 -0.320775,-0.36116 -0.642255,-0.82619 -0.875,-1.375 -0.191522,-0.451602 -0.318788,-0.897579 -0.375,-1.3125 z m -3,2.71875 c -0.02075,0.254148 -0.04287,0.498844 -0.0625,0.78125 0.02191,0.01646 0.04252,0.04292 0.0625,0.0625 0.0063,-0.08998 0.02829,-0.194152 0.03125,-0.28125 0,-0.187208 -0.01138,-0.380075 -0.03125,-0.5625 z m 34,0 c -0.02075,0.254148 -0.04287,0.498844 -0.0625,0.78125 0.02191,0.01646 0.04252,0.04292 0.0625,0.0625 0.0063,-0.08998 0.02829,-0.194152 0.03125,-0.28125 0,-0.187208 -0.01138,-0.380075 -0.03125,-0.5625 z m -45.5625,0.0625 c -0.01575,0.162729 -0.03125,0.333529 -0.03125,0.5 0.0013,0.0555 -0.0019,0.12977 0,0.1875 0.02006,-0.01429 0.04084,-0.01969 0.0625,-0.03125 -0.02023,-0.24225 -0.02073,-0.440696 -0.03125,-0.65625 z m 34,0 c -0.01575,0.162729 -0.03125,0.333529 -0.03125,0.5 0.0013,0.0555 -0.0019,0.12977 0,0.1875 0.02006,-0.01429 0.04084,-0.01969 0.0625,-0.03125 -0.02023,-0.24225 -0.02074,-0.440696 -0.03125,-0.65625 z m -34.34375,2.25 c -0.104677,0.463674 -0.03293,1.114106 0.25,1.78125 0.174559,0.4116 0.415669,0.76038 0.65625,1.03125 0.008,0.009 0.02319,0.02245 0.03125,0.03125 0.05743,0.28202 0.08679,0.49438 0.15625,0.8125 0.215149,0.64594 1.092106,1.86175 1.875,2.90625 0.02401,0.247801 0.02214,0.498555 0.03125,0.75 0.04475,-0.60538 0.02359,-1.18397 -0.03125,-1.75 -0.782894,-1.0445 -1.659851,-2.26031 -1.875,-2.90625 C 25.89929,45.02563 25.86993,44.81327 25.8125,44.53125 25.80444,44.52245 25.78925,44.509 25.78125,44.5 25.540669,44.22913 25.299559,43.88035 25.125,43.46875 25.011828,43.201892 24.92415,42.93904 24.875,42.6875 z m 34,0 c -0.104677,0.463674 -0.03293,1.114106 0.25,1.78125 0.174559,0.4116 0.415669,0.76038 0.65625,1.03125 0.008,0.009 0.02319,0.02245 0.03125,0.03125 0.05743,0.28202 0.0868,0.49438 0.15625,0.8125 0.215149,0.64594 1.092106,1.86175 1.875,2.90625 0.02401,0.247801 0.02214,0.498555 0.03125,0.75 0.04475,-0.60538 0.02359,-1.18397 -0.03125,-1.75 -0.782894,-1.0445 -1.659851,-2.26031 -1.875,-2.90625 C 59.8993,45.02563 59.86993,44.81327 59.8125,44.53125 59.80444,44.52245 59.78925,44.509 59.78125,44.5 59.540669,44.22913 59.299559,43.88035 59.125,43.46875 59.011828,43.201892 58.92415,42.93904 58.875,42.6875 z M 37,42.71875 c -0.04852,0.238601 -0.111277,0.49658 -0.21875,0.75 -0.155163,0.36587 -0.352306,0.68039 -0.5625,0.9375 -0.06799,0.318 -0.09996,0.56717 -0.1875,0.9375 -0.238185,0.7151 -1.163202,2.11991 -1.875,3.21875 -0.02997,0.477269 -0.01765,0.952628 0,1.4375 0.006,-0.1471 -0.0092,-0.291459 0,-0.4375 0.711798,-1.09884 1.636815,-2.50365 1.875,-3.21875 0.08754,-0.37033 0.119513,-0.6195 0.1875,-0.9375 0.210194,-0.25711 0.407337,-0.57163 0.5625,-0.9375 0.280785,-0.662088 0.32311,-1.291673 0.21875,-1.75 z m 34,0 c -0.04852,0.238601 -0.111277,0.49658 -0.21875,0.75 -0.155163,0.36587 -0.352306,0.68039 -0.5625,0.9375 -0.06799,0.318 -0.09996,0.56717 -0.1875,0.9375 -0.238185,0.7151 -1.163202,2.11991 -1.875,3.21875 -0.02997,0.477269 -0.01765,0.952628 0,1.4375 0.006,-0.1471 -0.0092,-0.291459 0,-0.4375 0.711798,-1.09884 1.636815,-2.50365 1.875,-3.21875 0.08754,-0.37033 0.119513,-0.6195 0.1875,-0.9375 0.210194,-0.25711 0.407337,-0.57163 0.5625,-0.9375 0.280785,-0.662088 0.32311,-1.291673 0.21875,-1.75 z M 19.09375,60.875 19,61.46875 c 0,1.03181 1.548254,1.95539 4,2.59375 l 0.34375,1.375 A 0.84317393,0.843822 0 0 0 23.875,66 c 0.108823,0.0421 0.170502,0.1321 0.46875,0.21875 C 25.91484,66.67522 28.310118,67 31,67 c 2.534617,0 4.804435,-0.304222 6.375,-0.71875 l 0.40625,1.65625 a 1.1242319,1.125096 0 0 0 0.6875,0.75 c 0.145097,0.0562 0.258586,0.16571 0.65625,0.28125 C 41.219786,69.57738 44.41349,70 48,70 c 3.58651,0 6.811464,-0.42262 8.90625,-1.03125 0.397664,-0.11554 0.511152,-0.22509 0.65625,-0.28125 a 1.1242319,1.125096 0 0 0 0.65625,-0.71875 L 58.6875,66.3125 C 60.25401,66.721087 62.487616,67 65,67 c 2.689882,0 5.116411,-0.32478 6.6875,-0.78125 0.298248,-0.0867 0.359927,-0.17663 0.46875,-0.21875 a 0.84317393,0.843822 0 0 0 0.5,-0.53125 l 0.4375,-1.4375 C 75.485592,63.39389 77,62.48603 77,61.46875 L 76.90625,60.875 c -0.348412,0.84906 -1.749072,1.606403 -3.8125,2.15625 l -0.4375,1.4375 A 0.84317393,0.843822 0 0 1 72.15625,65 C 72.047427,65.04212 71.985748,65.13205 71.6875,65.21875 70.116411,65.67522 67.689882,66 65,66 62.487616,66 60.25401,65.721087 58.6875,65.3125 l -0.46875,1.65625 A 1.1242319,1.125096 0 0 1 57.5625,67.6875 c -0.145098,0.05616 -0.258586,0.16571 -0.65625,0.28125 C 54.811464,68.57738 51.58651,69 48,69 44.41349,69 41.219786,68.57738 39.125,67.96875 38.727336,67.85321 38.613847,67.7437 38.46875,67.6875 a 1.1242319,1.125096 0 0 1 -0.6875,-0.75 L 37.375,65.28125 C 35.804435,65.695778 33.534617,66 31,66 28.310118,66 25.91484,65.67522 24.34375,65.21875 24.045502,65.1321 23.983823,65.0421 23.875,65 A 0.84317393,0.843822 0 0 1 23.34375,64.4375 L 23,63.0625 C 20.884893,62.51179 19.450054,61.736618 19.09375,60.875 z"
       id="path3884"
       style="opacity:0.5;fill:#ffffff;fill-opacity:1;stroke:none" />
  </g>
</svg>
